<?xml version="1.0" encoding="iso-8859-1"?>
<!-- Generator: Adobe Illustrator 17.1.0, SVG Export Plug-In . SVG Version: 6.00 Build 0)  -->
<!DOCTYPE svg PUBLIC "-//W3C//DTD SVG 1.1//EN" "http://www.w3.org/Graphics/SVG/1.1/DTD/svg11.dtd">
<svg version="1.1" id="Capa_1" xmlns="http://www.w3.org/2000/svg" xmlns:xlink="http://www.w3.org/1999/xlink" x="0px" y="0px"
	 viewBox="0 0 452.082 452.082" style="enable-background:new 0 0 452.082 452.082;" xml:space="preserve">
<g>
	<path style="fill:#59B867;" d="M432.082,226.041c0-40.102-12.205-78.069-32.781-104.432v66.234c0,4.086-2.486,7.761-6.278,9.282
		c-3.792,1.52-8.129,0.581-10.952-2.373c-0.169-0.176-18.134-18.679-36.032-21.518c-1.894-0.3-3.857-0.453-5.836-0.453
		c-24.979,0-52.052,23.341-73.805,42.095C249.48,229.462,237.256,240,226.041,240c-11.215,0-23.439-10.539-40.357-25.125
		c-21.753-18.755-48.827-42.095-73.805-42.095c-1.979,0-3.942,0.152-5.836,0.453C88.145,176.072,70.18,194.576,70,194.762
		c-2.828,2.941-7.165,3.875-10.95,2.351c-3.785-1.524-6.27-5.19-6.27-9.271v-66.234C32.205,147.972,20,185.939,20,226.041
		s12.205,78.069,32.781,104.432v-22.53c0-3.996,2.379-7.609,6.05-9.187c3.671-1.578,7.93-0.82,10.83,1.93
		c11.031,10.458,43.382,27.736,71.01,32.119c2.832,0.449,5.592,0.677,8.205,0.677c18.537,0,29.265-11.3,40.624-23.264
		c10.193-10.737,20.734-21.84,36.542-21.84c15.807,0,26.349,11.103,36.544,21.84c11.359,11.963,22.088,23.263,40.622,23.263
		c2.613,0,5.374-0.228,8.205-0.677c27.627-4.382,59.979-21.66,71.01-32.119c2.899-2.75,7.157-3.508,10.83-1.93
		c3.671,1.578,6.05,5.191,6.05,9.187v22.53C419.877,304.11,432.082,266.142,432.082,226.041z M204.456,271.033
		c-11.822,13.639-28.962,21.461-47.024,21.461c-8.263,0-16.344-1.632-24.02-4.851c-24.848-10.422-40.094-35.466-37.94-62.319
		c0.256-3.196,2.029-6.075,4.768-7.742c2.739-1.667,6.11-1.92,9.067-0.68l91.459,38.359c2.957,1.24,5.139,3.822,5.87,6.944
		C207.367,265.328,206.556,268.61,204.456,271.033z M318.67,287.643c-7.675,3.219-15.756,4.851-24.02,4.851
		c-18.062,0-35.201-7.822-47.024-21.461c-2.1-2.423-2.911-5.705-2.181-8.827c0.73-3.122,2.913-5.705,5.87-6.945l91.459-38.359
		c2.956-1.24,6.328-0.988,9.067,0.68c2.738,1.667,4.512,4.546,4.768,7.742C358.765,252.177,343.518,277.221,318.67,287.643z"/>
	<path d="M436.768,146.82c-9.854-23.602-24.064-43.522-41.094-57.606c-2.983-2.468-7.125-2.991-10.631-1.342
		c-3.505,1.65-5.742,5.175-5.742,9.048v69.675c-8.333-5.708-18.943-11.341-30.129-13.115c-2.926-0.464-5.944-0.7-8.969-0.7
		c-32.411,0-62.604,26.031-86.865,46.948c-9.62,8.294-22.77,19.631-27.297,20.263c-4.528-0.633-17.677-11.969-27.298-20.263
		c-24.261-20.917-54.456-46.948-86.864-46.948c-3.025,0-6.042,0.236-8.969,0.7c-11.186,1.774-21.796,7.407-30.129,13.115V96.92
		c0-3.874-2.237-7.398-5.742-9.048c-3.504-1.649-7.646-1.126-10.631,1.342c-17.029,14.084-31.239,34.004-41.094,57.606
		C5.295,170.817,0,198.211,0,226.041s5.295,55.224,15.314,79.22c9.854,23.602,24.064,43.522,41.094,57.606
		c2.985,2.469,7.127,2.991,10.631,1.342c3.505-1.65,5.742-5.175,5.742-9.048v-27.527c17.85,10.916,42.872,21.452,64.757,24.924
		c3.864,0.613,7.679,0.924,11.338,0.924c27.127,0,42.653-16.354,55.128-29.494c9.188-9.678,15.168-15.61,22.038-15.61
		s12.85,5.932,22.041,15.611c12.476,13.14,28.002,29.492,55.125,29.492c3.659,0,7.474-0.311,11.338-0.924
		c21.885-3.471,46.907-14.007,64.757-24.924v27.527c0,3.874,2.237,7.398,5.742,9.048c1.358,0.639,2.812,0.952,4.256,0.952
		c2.284,0,4.547-0.782,6.375-2.294c17.029-14.084,31.239-34.004,41.094-57.606c10.019-23.996,15.314-51.39,15.314-79.22
		S446.787,170.817,436.768,146.82z M393.251,298.757c-3.672-1.578-7.93-0.82-10.83,1.93c-11.031,10.458-43.382,27.736-71.01,32.119
		c-2.832,0.449-5.592,0.677-8.205,0.677c-18.533,0-29.262-11.3-40.622-23.263c-10.195-10.737-20.737-21.84-36.544-21.84
		c-15.808,0-26.349,11.103-36.542,21.84c-11.358,11.964-22.086,23.264-40.624,23.264c-2.613,0-5.374-0.228-8.205-0.677
		c-27.627-4.382-59.979-21.66-71.01-32.119c-2.9-2.75-7.158-3.508-10.83-1.93c-3.671,1.578-6.05,5.191-6.05,9.187v22.53
		C32.205,304.11,20,266.142,20,226.041s12.205-78.069,32.781-104.432v66.234c0,4.081,2.484,7.746,6.27,9.271
		c3.786,1.524,8.123,0.59,10.95-2.351c0.179-0.187,18.145-18.69,36.042-21.529c1.894-0.3,3.857-0.453,5.836-0.453
		c24.978,0,52.051,23.341,73.805,42.095C202.602,229.462,214.826,240,226.041,240c11.215,0,23.439-10.539,40.357-25.125
		c21.753-18.755,48.826-42.095,73.805-42.095c1.979,0,3.942,0.152,5.836,0.453c17.898,2.839,35.863,21.343,36.032,21.518
		c2.822,2.954,7.16,3.894,10.952,2.373c3.792-1.521,6.278-5.196,6.278-9.282v-66.234c20.576,26.364,32.781,64.331,32.781,104.432
		s-12.205,78.069-32.781,104.432v-22.53C399.301,303.947,396.922,300.335,393.251,298.757z"/>
	<path d="M200.767,255.261l-91.459-38.359c-2.957-1.24-6.329-0.987-9.067,0.68c-2.739,1.667-4.512,4.546-4.768,7.742
		c-2.154,26.854,13.092,51.897,37.94,62.319c7.675,3.219,15.757,4.851,24.02,4.851c18.062,0,35.202-7.822,47.024-21.461
		c2.1-2.423,2.911-5.705,2.181-8.827C205.906,259.084,203.724,256.501,200.767,255.261z M141.147,269.199
		c-12.136-5.09-20.896-15.321-24.306-27.45l60.905,25.544c-6.155,3.375-13.127,5.2-20.315,5.2
		C151.839,272.494,146.36,271.385,141.147,269.199z"/>
	<path d="M351.842,217.582c-2.739-1.667-6.111-1.92-9.067-0.68l-91.459,38.359c-2.957,1.24-5.14,3.822-5.87,6.945
		c-0.73,3.122,0.081,6.405,2.181,8.827c11.823,13.639,28.962,21.461,47.024,21.461c8.263,0,16.344-1.632,24.02-4.851
		c24.848-10.422,40.095-35.466,37.94-62.319C356.353,222.128,354.58,219.249,351.842,217.582z M294.65,272.494
		c-7.188,0-14.16-1.825-20.315-5.2l60.906-25.544c-3.41,12.128-12.17,22.36-24.306,27.45
		C305.722,271.386,300.243,272.494,294.65,272.494z"/>
</g>
<g>
</g>
<g>
</g>
<g>
</g>
<g>
</g>
<g>
</g>
<g>
</g>
<g>
</g>
<g>
</g>
<g>
</g>
<g>
</g>
<g>
</g>
<g>
</g>
<g>
</g>
<g>
</g>
<g>
</g>
</svg>
