<?xml version="1.0" encoding="iso-8859-1"?>
<!-- Generator: Adobe Illustrator 17.1.0, SVG Export Plug-In . SVG Version: 6.00 Build 0)  -->
<!DOCTYPE svg PUBLIC "-//W3C//DTD SVG 1.1//EN" "http://www.w3.org/Graphics/SVG/1.1/DTD/svg11.dtd">
<svg version="1.1" id="Capa_1" xmlns="http://www.w3.org/2000/svg" xmlns:xlink="http://www.w3.org/1999/xlink" x="0px" y="0px"
	 viewBox="0 0 460 460" style="enable-background:new 0 0 460 460;" xml:space="preserve">
<g>
	<path style="fill:#302188;" d="M201.541,218.169v39.48c9.78,7.533,19.176,15.78,28.459,24.983
		c9.283-9.203,18.679-17.45,28.459-24.983v-39.48H201.541z"/>
	<path style="fill:#302188;" d="M341.865,207.506c6.773-4.163,13.268-8.56,19.667-13.525c0.269-0.209,0.537-0.421,0.806-0.632
		c0.424-0.332,0.847-0.664,1.27-1.001c4.305-3.442,8.649-7.223,13.045-11.423c-8.213-19.011-20.028-36.19-34.787-50.667V207.506z"/>
	<path style="fill:#302188;" d="M201.541,87.061v47.702h56.918V87.061C239.738,83.695,220.262,83.695,201.541,87.061z"/>
	<path style="fill:#302188;" d="M96.384,192.34c0.436,0.348,0.873,0.69,1.309,1.033c0.256,0.201,0.512,0.404,0.769,0.603
		c6.401,4.967,12.898,9.366,19.673,13.53v-77.248c-14.76,14.477-26.575,31.656-34.787,50.667
		C87.741,185.121,92.082,188.9,96.384,192.34z"/>
	<path style="fill:#B772ED;" d="M336.69,233.607c-3.099,1.707-6.866,1.65-9.912-0.149c-3.046-1.799-4.914-5.073-4.914-8.61V113.594
		c-13.385-9.443-27.927-16.67-43.405-21.579v52.748c0,4.487-2.956,8.284-7.026,9.55c-0.939,0.292-1.938,0.45-2.974,0.45h-76.918
		c-1.035,0-2.034-0.157-2.974-0.45c-4.071-1.266-7.026-5.063-7.026-9.55V92.028c-15.481,4.909-30.024,12.136-43.405,21.577v111.243
		c0,3.537-1.868,6.811-4.914,8.61c-3.045,1.799-6.815,1.854-9.912,0.149c-29.236-16.11-58.3-34.851-91.198-83.096
		c-23.277,79.041-9.129,133.326,7.76,165.731c18.186,34.894,44.04,52.599,60.654,57.158c4.957,1.36,10.244,2.05,15.717,2.05
		c22.829,0,46.541-11.685,67.462-21.995c17.688-8.717,32.965-16.246,46.296-16.246c13.33,0,28.607,7.528,46.296,16.245
		c20.922,10.31,44.635,21.995,67.462,21.995c5.472,0,10.76-0.69,15.717-2.05c16.614-4.56,42.469-22.265,60.654-57.158
		c16.889-32.406,31.037-86.69,7.76-165.731C394.99,198.756,365.927,217.497,336.69,233.607z M207.265,318.528
		c-12.214,14.09-29.92,22.172-48.58,22.172c-8.536,0-16.885-1.686-24.814-5.012c-25.671-10.766-41.422-36.639-39.196-64.381
		c0.256-3.196,2.029-6.075,4.769-7.742c2.738-1.667,6.11-1.92,9.067-0.68l95.066,39.872c2.956,1.24,5.139,3.822,5.869,6.944
		C210.177,312.822,209.365,316.105,207.265,318.528z M237.246,303.816c-1.888,1.985-4.507,3.108-7.246,3.108
		s-5.358-1.124-7.246-3.108c-12.121-12.744-24.28-23.592-37.174-33.164c-1.271-0.943-2.28-2.159-2.972-3.535
		s-1.067-2.911-1.067-4.494v-54.454c0-4.487,2.956-8.284,7.026-9.55c0.939-0.292,1.938-0.45,2.974-0.45h76.918
		c1.035,0,2.034,0.157,2.974,0.45c4.071,1.266,7.026,5.063,7.026,9.55v54.454c0,1.582-0.375,3.118-1.067,4.494
		s-1.702,2.592-2.972,3.535C261.526,280.224,249.367,291.072,237.246,303.816z M326.13,335.687
		c-7.931,3.326-16.279,5.012-24.815,5.012c-18.66,0-36.366-8.081-48.58-22.172c-2.1-2.423-2.911-5.705-2.181-8.827
		c0.73-3.122,2.913-5.704,5.869-6.944l95.066-39.872c2.957-1.24,6.33-0.988,9.067,0.68c2.739,1.667,4.513,4.546,4.769,7.742
		C367.551,299.048,351.8,324.921,326.13,335.687z"/>
	<path d="M440.302,124.059c-1.293-3.631-4.558-6.196-8.392-6.593c-3.847-0.4-7.555,1.446-9.563,4.734
		c-10.733,17.573-20.982,31.605-30.9,43.109c-12.437-25.424-30.726-47.626-53.571-64.802c-0.03-0.023-0.064-0.039-0.094-0.061
		c-20.066-15.065-42.576-25.573-66.911-31.235c-0.052-0.013-0.101-0.03-0.152-0.042c-26.582-6.161-54.852-6.161-81.434,0
		c-0.195,0.045-0.384,0.103-0.574,0.159c-24.125,5.674-46.446,16.109-66.357,31.032c-0.074,0.052-0.154,0.092-0.227,0.147
		c-22.845,17.177-41.134,39.38-53.57,64.803c-9.919-11.504-20.168-25.536-30.901-43.11c-2.01-3.289-5.729-5.134-9.563-4.734
		c-3.834,0.397-7.099,2.961-8.392,6.593C5.186,164.817-1.362,203.877,0.235,240.154c1.383,31.393,8.751,60.103,21.9,85.332
		c21.138,40.559,51.619,61.308,73.097,67.202c6.681,1.833,13.75,2.763,21.01,2.763c0.002,0-0.001,0,0.001,0
		c27.487,0,53.423-12.781,76.302-24.055C207.347,364.1,221.329,357.21,230,357.21c8.67,0,22.652,6.89,37.456,14.186
		c22.88,11.275,48.813,24.055,76.302,24.055c7.26,0,14.329-0.93,21.01-2.763c21.478-5.894,51.959-26.643,73.097-67.202
		c13.149-25.229,20.518-53.939,21.9-85.332C461.362,203.877,454.813,164.817,440.302,124.059z M420.129,316.242
		c-18.186,34.894-44.04,52.599-60.654,57.158c-4.957,1.36-10.245,2.05-15.717,2.05c-22.827,0-46.54-11.686-67.462-21.995
		C258.607,344.738,243.33,337.21,230,337.21c-13.331,0-28.607,7.528-46.296,16.246c-20.921,10.31-44.633,21.995-67.462,21.995
		c-5.473,0-10.76-0.69-15.717-2.05c-16.614-4.56-42.469-22.265-60.654-57.158c-16.889-32.406-31.037-86.69-7.76-165.731
		c32.898,48.245,61.962,66.986,91.198,83.096c3.097,1.706,6.867,1.651,9.912-0.149c3.046-1.799,4.914-5.073,4.914-8.61V113.605
		c13.381-9.44,27.924-16.667,43.405-21.577v52.735c0,4.487,2.956,8.284,7.026,9.55c0.939,0.292,1.938,0.45,2.974,0.45h76.918
		c1.035,0,2.034-0.157,2.974-0.45c4.071-1.266,7.026-5.063,7.026-9.55V92.015c15.479,4.909,30.021,12.136,43.405,21.579v111.255
		c0,3.537,1.868,6.811,4.914,8.61c3.046,1.799,6.813,1.855,9.912,0.149c29.236-16.11,58.3-34.851,91.198-83.096
		C451.166,229.552,437.017,283.837,420.129,316.242z M363.607,192.347c-0.423,0.337-0.846,0.669-1.27,1.001
		c-0.269,0.211-0.537,0.423-0.806,0.632c-6.399,4.964-12.894,9.362-19.667,13.525v-77.248c14.76,14.477,26.575,31.656,34.787,50.667
		C372.256,185.124,367.912,188.905,363.607,192.347z M258.459,134.763h-56.918V87.061c18.721-3.366,38.197-3.366,56.918,0V134.763z
		 M118.135,207.506c-6.775-4.164-13.271-8.563-19.673-13.53c-0.256-0.199-0.512-0.401-0.769-0.603
		c-0.437-0.342-0.873-0.685-1.309-1.033c-4.302-3.44-8.643-7.219-13.037-11.416c8.213-19.011,20.028-36.19,34.787-50.667V207.506z"
		/>
	<path d="M360.556,263.564c-2.737-1.667-6.11-1.92-9.067-0.68l-95.066,39.872c-2.956,1.24-5.139,3.822-5.869,6.944
		c-0.73,3.122,0.081,6.405,2.181,8.827c12.214,14.09,29.92,22.172,48.58,22.172c8.536,0,16.885-1.686,24.815-5.012
		c25.67-10.766,41.421-36.639,39.195-64.381C365.069,268.11,363.296,265.231,360.556,263.564z M301.314,320.699
		c-7.815,0-15.388-2.057-22.014-5.85l64.797-27.177c-3.414,13.062-12.716,24.125-25.703,29.572
		C312.927,319.537,307.18,320.699,301.314,320.699z"/>
	<path d="M203.577,302.756l-95.066-39.872c-2.957-1.24-6.329-0.987-9.067,0.68c-2.739,1.667-4.513,4.546-4.769,7.742
		c-2.226,27.742,13.525,53.615,39.196,64.381c7.93,3.325,16.278,5.012,24.814,5.012c18.66,0,36.366-8.081,48.58-22.172
		c2.1-2.423,2.911-5.705,2.181-8.827C208.716,306.578,206.533,303.996,203.577,302.756z M141.606,317.244
		c-12.988-5.447-22.29-16.51-25.704-29.572l64.797,27.177c-6.626,3.793-14.198,5.85-22.014,5.85
		C152.819,320.699,147.073,319.537,141.606,317.244z"/>
	<path d="M274.42,270.652c1.271-0.943,2.28-2.159,2.972-3.535s1.067-2.911,1.067-4.494v-54.454c0-4.487-2.956-8.284-7.026-9.55
		c-0.939-0.292-1.938-0.45-2.974-0.45h-76.918c-1.035,0-2.034,0.157-2.974,0.45c-4.071,1.266-7.026,5.063-7.026,9.55v54.454
		c0,1.582,0.375,3.118,1.067,4.494s1.702,2.592,2.972,3.535c12.894,9.572,25.053,20.42,37.174,33.164
		c1.888,1.985,4.507,3.108,7.246,3.108s5.358-1.124,7.246-3.108C249.367,291.072,261.526,280.224,274.42,270.652z M230,282.632
		c-9.283-9.203-18.679-17.45-28.459-24.983v-39.48h56.918v39.48C248.679,265.182,239.283,273.428,230,282.632z"/>
</g>
<g>
</g>
<g>
</g>
<g>
</g>
<g>
</g>
<g>
</g>
<g>
</g>
<g>
</g>
<g>
</g>
<g>
</g>
<g>
</g>
<g>
</g>
<g>
</g>
<g>
</g>
<g>
</g>
<g>
</g>
</svg>
