<?xml version="1.0" encoding="iso-8859-1"?>
<!-- Generator: Adobe Illustrator 17.1.0, SVG Export Plug-In . SVG Version: 6.00 Build 0)  -->
<!DOCTYPE svg PUBLIC "-//W3C//DTD SVG 1.1//EN" "http://www.w3.org/Graphics/SVG/1.1/DTD/svg11.dtd">
<svg version="1.1" id="Capa_1" xmlns="http://www.w3.org/2000/svg" xmlns:xlink="http://www.w3.org/1999/xlink" x="0px" y="0px"
	 viewBox="0 0 460 460" style="enable-background:new 0 0 460 460;" xml:space="preserve">
<g>
	<path style="fill:#FCC324;" d="M140.65,379.436V294.98c0-3.353,1.681-6.483,4.476-8.335c2.794-1.853,6.331-2.181,9.421-0.874
		l53.063,22.449l-19.92-36.764l-57.242-2.446c-2.679,9.195-4.121,18.911-4.121,28.959v115.543l49.108,21.262v-45.337H150.65
		C145.127,389.436,140.65,384.959,140.65,379.436z"/>
	<path style="fill:#FCC324;" d="M333.674,297.968c0-10.048-1.442-19.764-4.121-28.959l-57.244,2.446l-19.92,36.764l53.064-22.45
		c3.087-1.307,6.626-0.978,9.421,0.874c2.795,1.852,4.476,4.982,4.476,8.335v84.456c0,5.523-4.478,10-10,10h-24.785v48.784
		l49.109-24.345V297.968z"/>
	<path style="fill:#FCC324;" d="M361.429,192.652c14.637-38.288,19.771-77.421,14.458-110.189
		c-4.894-30.177-18.037-51.055-37.075-58.979c8.062,15.353,12.911,34.391,14.231,56.275c1.957,32.443-4.072,68.067-17.435,103.022
		c-6.486,16.968-14.428,33.058-23.605,47.825c-2.914,4.691-9.081,6.131-13.771,3.215c-4.69-2.915-6.13-9.081-3.215-13.772
		c0.38-0.612,0.746-1.239,1.121-1.856c-17.962-14.917-41.02-23.898-66.138-23.898c-25.118,0-48.176,8.981-66.138,23.898
		c0.376,0.617,0.741,1.244,1.121,1.856c2.915,4.691,1.476,10.857-3.215,13.772c-4.692,2.915-10.857,1.475-13.771-3.215
		c-9.177-14.766-17.119-30.857-23.605-47.825C111.029,147.826,105,112.202,106.957,79.759c1.32-21.884,6.169-40.922,14.23-56.275
		c-19.038,7.924-32.181,28.801-37.075,58.979c-5.313,32.768-0.179,71.901,14.458,110.189c7.961,20.825,19.231,41.911,29.979,56.258
		l65.658,2.806c0.076,0.003,0.149,0.016,0.224,0.021c0.192,0.013,0.383,0.03,0.574,0.054c0.153,0.019,0.305,0.041,0.456,0.067
		c0.159,0.027,0.317,0.058,0.475,0.093c0.173,0.038,0.344,0.08,0.514,0.126c0.133,0.037,0.265,0.078,0.397,0.12
		c0.181,0.058,0.359,0.119,0.535,0.187c0.124,0.048,0.246,0.1,0.368,0.153c0.171,0.074,0.341,0.15,0.507,0.234
		c0.129,0.065,0.255,0.134,0.382,0.205c0.148,0.083,0.296,0.167,0.44,0.257c0.14,0.087,0.276,0.181,0.412,0.275
		c0.122,0.085,0.244,0.171,0.362,0.262c0.145,0.111,0.285,0.227,0.424,0.346c0.103,0.089,0.206,0.177,0.305,0.27
		c0.136,0.127,0.268,0.259,0.398,0.394c0.097,0.101,0.193,0.203,0.286,0.308c0.116,0.131,0.228,0.266,0.337,0.405
		c0.1,0.126,0.198,0.254,0.292,0.385c0.09,0.125,0.177,0.253,0.262,0.383c0.104,0.159,0.201,0.32,0.296,0.485
		c0.039,0.067,0.083,0.129,0.12,0.198L230,307.559l27.426-50.616c0.036-0.066,0.079-0.126,0.116-0.191
		c0.096-0.168,0.196-0.333,0.302-0.495c0.083-0.129,0.17-0.254,0.258-0.378c0.095-0.132,0.193-0.261,0.294-0.389
		c0.109-0.138,0.221-0.273,0.337-0.404c0.093-0.105,0.188-0.207,0.285-0.307c0.13-0.135,0.262-0.268,0.399-0.395
		c0.099-0.092,0.202-0.181,0.304-0.269c0.139-0.119,0.28-0.236,0.425-0.347c0.118-0.091,0.24-0.176,0.362-0.261
		c0.136-0.094,0.271-0.187,0.411-0.275c0.145-0.091,0.293-0.175,0.443-0.259c0.125-0.069,0.249-0.138,0.377-0.202
		c0.169-0.085,0.341-0.162,0.515-0.238c0.119-0.051,0.237-0.102,0.358-0.148c0.179-0.069,0.362-0.132,0.546-0.191
		c0.128-0.041,0.256-0.081,0.385-0.117c0.174-0.048,0.35-0.091,0.527-0.13c0.152-0.034,0.305-0.064,0.459-0.09
		c0.156-0.027,0.313-0.05,0.472-0.069c0.185-0.023,0.37-0.039,0.557-0.052c0.078-0.005,0.154-0.018,0.233-0.022l65.658-2.806
		C342.197,234.563,353.468,213.477,361.429,192.652z M265.42,230.359c-1.904,5.184-7.648,7.842-12.836,5.936
		c-7.224-2.655-14.822-4.001-22.584-4.001c-7.765,0-15.366,1.347-22.592,4.004c-1.138,0.419-2.304,0.617-3.45,0.617
		c-4.073,0-7.899-2.506-9.387-6.552c-1.906-5.184,0.751-10.931,5.935-12.837c9.443-3.472,19.366-5.233,29.494-5.233
		c10.124,0,20.044,1.759,29.484,5.229C264.668,219.429,267.325,225.176,265.42,230.359z"/>
	<path d="M395.629,79.261c-6.186-38.147-24.26-64.763-50.893-74.944c-8.875-3.393-18.409-4.796-28.35-4.172
		c-3.909,0.245-7.314,2.75-8.714,6.409c-1.398,3.658-0.532,7.797,2.216,10.588c13.285,13.491,21.521,36.156,23.19,63.822
		c1.787,29.622-3.799,62.36-16.152,94.676c-3.265,8.542-6.935,16.826-10.953,24.81c-20.979-16.381-47.356-26.155-75.974-26.155
		c-28.618,0-54.995,9.774-75.974,26.155c-4.017-7.984-7.688-16.269-10.953-24.81c-12.354-32.315-17.939-65.054-16.152-94.676
		c1.669-27.666,9.904-50.331,23.19-63.822c2.749-2.791,3.614-6.929,2.216-10.588c-1.399-3.659-4.805-6.164-8.714-6.409
		c-9.937-0.625-19.474,0.78-28.35,4.172C88.631,14.498,70.557,41.114,64.371,79.261c-5.87,36.195-0.358,79.001,15.518,120.532
		c8.614,22.534,20.465,44.698,32.283,60.59c-3.791,11.858-5.846,24.485-5.846,37.585v122.11c0,3.987,2.368,7.593,6.027,9.177
		l69.108,29.922c1.273,0.551,2.625,0.823,3.972,0.823c1.923,0,3.835-0.554,5.49-1.641c2.815-1.849,4.511-4.991,4.511-8.359v-70.564
		c0-5.523-4.477-10-10-10H160.65v-59.367l65.453,27.691c0.006,0.003,0.013,0.004,0.019,0.007c0.042,0.018,0.086,0.03,0.129,0.047
		c0.003,0.001,0.007,0.002,0.011,0.004c0.133,0.054,0.268,0.099,0.402,0.147c0.196,0.069,0.392,0.136,0.591,0.193
		c0.069,0.02,0.137,0.042,0.207,0.061c0.113,0.03,0.226,0.053,0.339,0.078c0.216,0.049,0.434,0.087,0.652,0.121c0,0,0,0,0,0
		c0.088,0.014,0.174,0.037,0.262,0.049c0.065,0.008,0.131,0.013,0.196,0.02c0.288,0.031,0.576,0.046,0.865,0.053
		c0.072,0.002,0.143,0.013,0.215,0.013c0.003,0,0.006-0.001,0.009-0.001s0.006,0.001,0.009,0.001c0.071,0,0.143-0.012,0.214-0.013
		c0.289-0.006,0.578-0.021,0.867-0.053c0.065-0.007,0.129-0.012,0.194-0.02c0.088-0.012,0.174-0.035,0.261-0.048
		c0.22-0.034,0.439-0.073,0.657-0.122c0.112-0.025,0.223-0.048,0.335-0.077c0.069-0.018,0.137-0.041,0.206-0.06
		c0.202-0.057,0.4-0.125,0.599-0.196c0.132-0.047,0.263-0.091,0.394-0.144c0.007-0.003,0.014-0.005,0.02-0.007
		c0.04-0.016,0.081-0.027,0.121-0.044c0.007-0.003,0.014-0.005,0.02-0.007l65.453-27.691v59.367h-24.785c-5.522,0-10,4.477-10,10
		V450c0,5.523,4.478,10,10,10h8.751c1.541,0,3.061-0.356,4.441-1.041l60.358-29.922c3.404-1.688,5.559-5.159,5.559-8.959v-122.11
		c0-13.1-2.054-25.727-5.846-37.586c11.818-15.892,23.668-38.056,32.282-60.589C395.986,158.262,401.498,115.456,395.629,79.261z
		 M175.435,434.773l-49.108-21.262V297.968c0-10.048,1.442-19.764,4.121-28.959l57.242,2.446l19.92,36.764l-53.063-22.449
		c-3.09-1.307-6.626-0.978-9.421,0.874c-2.795,1.852-4.476,4.982-4.476,8.335v84.456c0,5.523,4.477,10,10,10h24.785V434.773z
		 M284.564,389.436h24.785c5.522,0,10-4.477,10-10V294.98c0-3.353-1.681-6.483-4.476-8.335c-2.795-1.853-6.334-2.181-9.421-0.874
		l-53.064,22.45l19.92-36.764l57.244-2.446c2.679,9.195,4.121,18.911,4.121,28.959v115.906l-49.109,24.345V389.436z M331.449,248.91
		l-65.658,2.806c-0.079,0.003-0.155,0.017-0.233,0.022c-0.187,0.013-0.372,0.029-0.557,0.052c-0.159,0.019-0.316,0.042-0.472,0.069
		c-0.154,0.026-0.306,0.057-0.459,0.09c-0.178,0.039-0.354,0.081-0.527,0.13c-0.129,0.036-0.257,0.076-0.385,0.117
		c-0.184,0.059-0.366,0.122-0.546,0.191c-0.12,0.047-0.239,0.097-0.358,0.148c-0.174,0.075-0.346,0.153-0.515,0.238
		c-0.127,0.064-0.252,0.133-0.377,0.202c-0.15,0.083-0.298,0.168-0.443,0.259c-0.14,0.087-0.276,0.18-0.411,0.275
		c-0.122,0.085-0.244,0.171-0.362,0.261c-0.145,0.111-0.285,0.228-0.425,0.347c-0.103,0.088-0.205,0.177-0.304,0.269
		c-0.137,0.127-0.269,0.26-0.399,0.395c-0.097,0.101-0.193,0.203-0.285,0.307c-0.115,0.131-0.227,0.266-0.337,0.404
		c-0.101,0.127-0.199,0.256-0.294,0.389c-0.089,0.124-0.175,0.249-0.258,0.378c-0.106,0.162-0.205,0.327-0.302,0.495
		c-0.037,0.065-0.08,0.124-0.116,0.191L230,307.559l-27.426-50.616c-0.037-0.069-0.082-0.13-0.12-0.198
		c-0.094-0.165-0.192-0.326-0.296-0.485c-0.085-0.13-0.172-0.258-0.262-0.383c-0.094-0.131-0.192-0.259-0.292-0.385
		c-0.11-0.138-0.222-0.273-0.337-0.405c-0.093-0.105-0.189-0.207-0.286-0.308c-0.13-0.135-0.262-0.267-0.398-0.394
		c-0.1-0.093-0.202-0.181-0.305-0.27c-0.139-0.119-0.279-0.235-0.424-0.346c-0.118-0.091-0.24-0.176-0.362-0.262
		c-0.136-0.094-0.272-0.188-0.412-0.275c-0.144-0.09-0.291-0.174-0.44-0.257c-0.126-0.07-0.253-0.14-0.382-0.205
		c-0.166-0.083-0.336-0.16-0.507-0.234c-0.122-0.053-0.244-0.105-0.368-0.153c-0.176-0.068-0.354-0.129-0.535-0.187
		c-0.132-0.042-0.264-0.083-0.397-0.12c-0.17-0.047-0.341-0.088-0.514-0.126c-0.158-0.035-0.316-0.066-0.475-0.093
		c-0.151-0.026-0.302-0.048-0.456-0.067c-0.191-0.024-0.382-0.041-0.574-0.054c-0.075-0.005-0.148-0.018-0.224-0.021l-65.658-2.806
		c-10.749-14.347-22.018-35.433-29.979-56.258C83.934,154.364,78.8,115.231,84.113,82.463c4.894-30.177,18.037-51.055,37.075-58.979
		c-8.061,15.353-12.91,34.391-14.23,56.275c-1.957,32.443,4.072,68.067,17.434,103.022c6.486,16.968,14.428,33.058,23.605,47.825
		c2.914,4.69,9.08,6.13,13.771,3.215c4.691-2.915,6.13-9.081,3.215-13.772c-0.38-0.612-0.746-1.239-1.121-1.856
		c17.962-14.917,41.02-23.898,66.138-23.898c25.118,0,48.176,8.981,66.138,23.898c-0.375,0.617-0.741,1.244-1.121,1.856
		c-2.915,4.691-1.476,10.857,3.215,13.772c4.69,2.916,10.857,1.476,13.771-3.215c9.178-14.766,17.119-30.857,23.605-47.825
		c13.362-34.955,19.392-70.579,17.435-103.022c-1.32-21.884-6.17-40.922-14.231-56.275c19.038,7.924,32.182,28.801,37.075,58.979
		c5.313,32.768,0.179,71.901-14.458,110.189C353.468,213.477,342.197,234.563,331.449,248.91z"/>
	<path style="fill:#FFFFFF;" d="M259.484,217.524c-9.44-3.47-19.36-5.229-29.484-5.229c-10.128,0-20.051,1.76-29.494,5.233
		c-5.184,1.906-7.84,7.653-5.935,12.837c1.488,4.045,5.314,6.552,9.387,6.552c1.146,0,2.312-0.198,3.45-0.617
		c7.226-2.657,14.827-4.004,22.592-4.004c7.762,0,15.36,1.346,22.584,4.001c5.188,1.906,10.932-0.753,12.836-5.936
		C267.325,225.176,264.668,219.429,259.484,217.524z"/>
</g>
<g>
</g>
<g>
</g>
<g>
</g>
<g>
</g>
<g>
</g>
<g>
</g>
<g>
</g>
<g>
</g>
<g>
</g>
<g>
</g>
<g>
</g>
<g>
</g>
<g>
</g>
<g>
</g>
<g>
</g>
</svg>
