<?xml version="1.0" encoding="iso-8859-1"?>
<!-- Generator: Adobe Illustrator 17.1.0, SVG Export Plug-In . SVG Version: 6.00 Build 0)  -->
<!DOCTYPE svg PUBLIC "-//W3C//DTD SVG 1.1//EN" "http://www.w3.org/Graphics/SVG/1.1/DTD/svg11.dtd">
<svg version="1.1" id="Capa_1" xmlns="http://www.w3.org/2000/svg" xmlns:xlink="http://www.w3.org/1999/xlink" x="0px" y="0px"
	 viewBox="0 0 460 460" style="enable-background:new 0 0 460 460;" xml:space="preserve">
<g>
	<path style="fill:#59B867;" d="M331.564,20c-23.177,0-45.313,22.309-63.101,40.235C253.823,74.99,242.259,86.644,230,86.644
		s-23.823-11.654-38.464-26.408C173.749,42.309,151.612,20,128.436,20c-28.664,0-49.241,23.199-58.956,37.028
		c-17.272,24.587-24.495,53.252-20.405,64.599c8.889,24.66,52.04,57.698,83.989,57.698c20.665,0,37.213-12.106,53.216-23.814
		c14.402-10.537,28.006-20.489,43.721-20.489s29.318,9.952,43.721,20.489c16.003,11.708,32.551,23.814,53.216,23.814
		c31.949,0,75.101-33.038,83.989-57.698c4.09-11.347-3.133-40.012-20.405-64.599C380.806,43.199,360.229,20,331.564,20z
		 M208.415,117.676c-11.823,13.639-28.963,21.461-47.024,21.461c-8.263,0-16.345-1.632-24.02-4.851
		c-24.848-10.422-40.095-35.466-37.94-62.319c0.256-3.196,2.029-6.075,4.769-7.742c2.737-1.667,6.109-1.92,9.067-0.68l91.46,38.359
		c2.956,1.24,5.139,3.823,5.869,6.944C211.326,111.971,210.515,115.253,208.415,117.676z M322.629,134.286
		c-7.676,3.219-15.757,4.851-24.02,4.851c-18.062,0-35.201-7.822-47.024-21.461c-2.1-2.423-2.911-5.705-2.181-8.827
		c0.73-3.122,2.913-5.704,5.869-6.944l91.46-38.359c2.96-1.241,6.331-0.987,9.067,0.68c2.739,1.667,4.513,4.546,4.769,7.742
		C362.724,98.821,347.477,123.865,322.629,134.286z"/>
	<path d="M406.886,45.531C386.26,16.17,359.51,0,331.564,0c-31.507,0-56.896,25.588-77.298,46.148
		c-7.979,8.041-20.036,20.192-24.237,20.496c-4.26-0.304-16.317-12.456-24.296-20.496C185.332,25.588,159.942,0,128.436,0
		C100.49,0,73.74,16.17,53.114,45.531C32.921,74.275,23.31,109.13,30.26,128.409c5.682,15.764,20.881,33.58,40.657,47.659
		c20.762,14.78,43.413,23.257,62.146,23.257c27.199,0,48.173-15.344,65.024-27.673c12.197-8.924,22.732-16.631,31.912-16.631
		s19.715,7.707,31.912,16.631c16.852,12.329,37.825,27.673,65.024,27.673c18.733,0,41.385-8.477,62.146-23.257
		c19.776-14.079,34.976-31.895,40.657-47.659C436.69,109.13,427.079,74.275,406.886,45.531z M410.926,121.627
		c-8.889,24.66-52.04,57.698-83.989,57.698c-20.665,0-37.213-12.106-53.216-23.814c-14.402-10.537-28.006-20.489-43.721-20.489
		s-29.318,9.952-43.721,20.489c-16.003,11.708-32.551,23.814-53.216,23.814c-31.949,0-75.101-33.038-83.989-57.698
		c-4.09-11.347,3.133-40.012,20.405-64.599C79.194,43.199,99.771,20,128.436,20c23.177,0,45.313,22.309,63.101,40.235
		C206.177,74.99,217.741,86.644,230,86.644s23.823-11.654,38.464-26.408C286.251,42.309,308.388,20,331.564,20
		c28.664,0,49.241,23.199,58.956,37.028C407.793,81.615,415.016,110.28,410.926,121.627z"/>
	<path d="M355.801,64.225c-2.736-1.667-6.107-1.92-9.067-0.68l-91.46,38.359c-2.956,1.24-5.139,3.823-5.869,6.944
		c-0.73,3.122,0.081,6.405,2.181,8.827c11.823,13.639,28.963,21.461,47.024,21.461c8.263,0,16.344-1.632,24.02-4.851
		c24.848-10.421,40.095-35.466,37.94-62.319C360.313,68.771,358.54,65.892,355.801,64.225z M298.609,119.137
		c-7.188,0-14.16-1.825-20.315-5.2l60.905-25.544c-3.409,12.128-12.17,22.36-24.307,27.45
		C309.681,118.029,304.202,119.137,298.609,119.137z"/>
	<path d="M204.727,101.905l-91.46-38.359c-2.958-1.241-6.33-0.987-9.067,0.68c-2.739,1.667-4.513,4.546-4.769,7.742
		c-2.154,26.853,13.093,51.897,37.94,62.319c7.675,3.219,15.757,4.851,24.02,4.851c18.062,0,35.201-7.822,47.024-21.461
		c2.1-2.423,2.911-5.705,2.181-8.827C209.865,105.727,207.683,103.145,204.727,101.905z M145.106,115.843
		c-12.136-5.09-20.896-15.321-24.306-27.45l60.905,25.544c-6.155,3.375-13.127,5.2-20.315,5.2
		C155.798,119.137,150.318,118.029,145.106,115.843z"/>
	<path style="fill:#FCC324;" d="M303.299,295.163c12.358,0,22.994-4.077,30.715-9.836c-24.274-3.18-39.563-18.361-52.115-30.827
		c-10.823-10.749-17.884-17.337-26.306-17.337c-5.429,0-12.041,2.849-19.653,8.469c-3.531,2.606-8.348,2.606-11.879,0
		c-7.612-5.619-14.225-8.469-19.653-8.469c-8.424,0-15.486,6.589-26.312,17.339c-12.552,12.465-27.839,27.644-52.109,30.825
		c7.721,5.759,18.356,9.836,30.715,9.836c15.878,0,40.138-6.569,65.534-37.861c1.899-2.34,4.752-3.698,7.765-3.698
		s5.865,1.359,7.765,3.698C263.161,288.594,287.421,295.163,303.299,295.163z"/>
	<path d="M353.384,265.101c-3.441,0.549-6.799,0.827-9.98,0.827c-21.615,0-34.729-13.024-47.411-25.619
		c-11.458-11.379-23.307-23.146-40.399-23.146c-8.165,0-16.588,2.736-25.593,8.334c-9.005-5.599-17.428-8.334-25.593-8.334
		c-17.095,0-28.944,11.768-40.404,23.148c-12.682,12.594-25.796,25.617-47.406,25.618c-3.181,0-6.538-0.278-9.98-0.827
		c-3.58-0.572-7.189,0.84-9.432,3.688c-2.243,2.848-2.769,6.687-1.374,10.033c8.916,21.397,33.955,36.34,60.891,36.34
		c18.499,0,45.579-6.567,73.299-36.317c27.72,29.75,54.8,36.317,73.299,36.317c26.936,0,51.975-14.944,60.891-36.34
		c1.395-3.346,0.869-7.185-1.374-10.033C360.572,265.94,356.961,264.53,353.384,265.101z M230,253.604
		c-3.013,0-5.865,1.359-7.765,3.698c-25.396,31.292-49.656,37.861-65.534,37.861c-12.358,0-22.994-4.078-30.715-9.836
		c24.271-3.181,39.558-18.36,52.109-30.825c10.825-10.75,17.888-17.339,26.312-17.339c5.429,0,12.041,2.849,19.653,8.469
		c3.531,2.606,8.348,2.606,11.879,0c7.612-5.619,14.225-8.469,19.653-8.469c8.422,0,15.482,6.588,26.306,17.337
		c12.553,12.467,27.841,27.647,52.115,30.827c-7.721,5.758-18.356,9.836-30.715,9.836c-15.878,0-40.138-6.569-65.534-37.861
		C235.865,254.962,233.013,253.604,230,253.604z"/>
	<path style="fill:#FCC324;" d="M277.318,386.438C262.841,383.219,247.81,373.234,241.1,353H218.9
		c-6.711,20.237-21.746,30.222-36.226,33.439c5.365,29.317,36.362,47.096,47.31,52.531
		C240.913,433.508,271.926,415.632,277.318,386.438z"/>
	<path d="M288.122,367.638c-5.696,0-24.66-1.916-29.506-26.567c-0.922-4.689-5.033-8.071-9.813-8.071h-37.607
		c-4.779,0-8.891,3.382-9.813,8.071c-4.846,24.651-23.81,26.567-29.506,26.567c-5.522,0-10,4.477-10,10
		c0,54.5,61.688,80.527,64.314,81.609c1.22,0.502,2.514,0.753,3.808,0.753s2.588-0.251,3.808-0.753
		c2.626-1.081,64.314-27.109,64.314-81.609C298.122,372.115,293.645,367.638,288.122,367.638z M182.675,386.439
		c14.479-3.217,29.515-13.202,36.226-33.439H241.1c6.71,20.234,21.741,30.219,36.219,33.438
		c-5.393,29.194-36.405,47.07-47.334,52.532C219.037,433.536,188.04,415.757,182.675,386.439z"/>
</g>
<g>
</g>
<g>
</g>
<g>
</g>
<g>
</g>
<g>
</g>
<g>
</g>
<g>
</g>
<g>
</g>
<g>
</g>
<g>
</g>
<g>
</g>
<g>
</g>
<g>
</g>
<g>
</g>
<g>
</g>
</svg>
