<?xml version="1.0" encoding="iso-8859-1"?>
<!-- Generator: Adobe Illustrator 17.1.0, SVG Export Plug-In . SVG Version: 6.00 Build 0)  -->
<!DOCTYPE svg PUBLIC "-//W3C//DTD SVG 1.1//EN" "http://www.w3.org/Graphics/SVG/1.1/DTD/svg11.dtd">
<svg version="1.1" id="Capa_1" xmlns="http://www.w3.org/2000/svg" xmlns:xlink="http://www.w3.org/1999/xlink" x="0px" y="0px"
	 viewBox="0 0 429.975 429.975" style="enable-background:new 0 0 429.975 429.975;" xml:space="preserve">
<g>
	<g>
		<path style="fill:#FCC324;" d="M338.153,118.158c-33.15-33.163-77.296-51.699-123.166-51.699s-90.016,18.536-123.166,51.699
			l106.153,122.495v74.527H232v-74.527L338.153,118.158z"/>
		<path d="M232,325.18h-34.025c-5.523,0-10-4.477-10-10v-70.797L84.264,124.707c-3.435-3.964-3.224-9.909,0.485-13.619
			c35.214-35.228,81.467-54.629,130.238-54.629c48.771,0,95.023,19.401,130.238,54.629c3.709,3.71,3.92,9.655,0.485,13.619
			L242,244.383v70.797C242,320.703,237.522,325.18,232,325.18z M207.975,305.18H222v-64.527c0-2.406,0.867-4.731,2.442-6.549
			l99.895-115.272c-30.477-27.393-68.963-42.373-109.35-42.373c-40.387,0-78.874,14.979-109.35,42.372l99.894,115.272
			c1.576,1.818,2.443,4.143,2.443,6.549V305.18z"/>
	</g>
	<g>
		<path style="fill:#0066BB;" d="M10,25.487V239.41c0,41.846,33.923,75.77,75.77,75.77l52.537,89.307V315.18h59.668v-74.527
			L10,25.487z M107.993,276.51c-21.338-8.949-33.595-30.424-31.84-52.297l91.46,38.359
			C153.24,279.153,129.331,285.459,107.993,276.51z"/>
		<path d="M138.306,414.488c-3.479,0-6.79-1.822-8.619-4.931l-49.753-84.574C35.351,321.975,0,284.744,0,239.41V25.487
			c0-4.167,2.584-7.898,6.486-9.363c3.899-1.463,8.302-0.356,11.044,2.783l187.975,215.166c1.592,1.822,2.469,4.16,2.469,6.579
			v74.527c0,5.523-4.477,10-10,10h-49.668v79.307c0,4.511-3.02,8.463-7.373,9.648C140.062,414.373,139.179,414.488,138.306,414.488z
			 M20,52.133V239.41c0,36.266,29.504,65.77,65.77,65.77c3.543,0,6.822,1.875,8.619,4.93l33.918,57.656V315.18
			c0-5.523,4.477-10,10-10h49.668v-60.774L20,52.133z M128.146,290.583c-8.263,0-16.345-1.632-24.02-4.852
			c-24.848-10.421-40.095-35.465-37.94-62.318c0.256-3.196,2.029-6.075,4.768-7.742c2.738-1.667,6.111-1.92,9.067-0.68l91.46,38.359
			c2.957,1.24,5.14,3.822,5.87,6.944s-0.081,6.405-2.181,8.828C163.347,282.761,146.208,290.583,128.146,290.583z M87.555,239.839
			c3.41,12.128,12.17,22.359,24.306,27.449c5.213,2.187,10.692,3.295,16.285,3.295c7.188,0,14.16-1.825,20.315-5.2L87.555,239.839z"
			/>
	</g>
	<g>
		<path style="fill:#0066BB;" d="M232,240.653v74.527h59.668v89.307l52.537-89.307c41.846,0,75.77-33.923,75.77-75.77V25.487
			L232,240.653z M262.361,262.572l91.46-38.359c1.755,21.874-10.503,43.348-31.84,52.297
			C300.644,285.459,276.735,279.153,262.361,262.572z"/>
		<path d="M291.668,414.488c-0.872,0-1.755-0.115-2.628-0.353c-4.352-1.185-7.372-5.138-7.372-9.648V325.18H232
			c-5.522,0-10-4.477-10-10v-74.527c0-2.419,0.877-4.757,2.469-6.579L412.443,18.908c2.743-3.14,7.146-4.247,11.045-2.783
			c3.901,1.464,6.486,5.195,6.486,9.363V239.41c0,45.333-35.351,82.565-79.935,85.573l-49.753,84.574
			C298.459,412.666,295.146,414.488,291.668,414.488z M242,305.18h49.668c5.522,0,10,4.477,10,10v52.586l33.918-57.656
			c1.797-3.054,5.075-4.93,8.619-4.93c36.266,0,65.77-29.504,65.77-65.77V52.133L242,244.406V305.18z M301.829,290.583
			c-18.062,0-35.201-7.822-47.024-21.461c-2.1-2.423-2.911-5.706-2.181-8.828s2.913-5.704,5.87-6.944l91.46-38.359
			c2.958-1.241,6.33-0.986,9.066,0.68c2.739,1.667,4.513,4.546,4.769,7.742c2.154,26.853-13.093,51.897-37.939,62.318
			C318.174,288.95,310.092,290.583,301.829,290.583z M281.514,265.383c6.155,3.375,13.127,5.2,20.315,5.2
			c5.593,0,11.071-1.109,16.284-3.295c12.136-5.09,20.896-15.321,24.306-27.449L281.514,265.383z"/>
	</g>
</g>
<g>
</g>
<g>
</g>
<g>
</g>
<g>
</g>
<g>
</g>
<g>
</g>
<g>
</g>
<g>
</g>
<g>
</g>
<g>
</g>
<g>
</g>
<g>
</g>
<g>
</g>
<g>
</g>
<g>
</g>
</svg>
