<?xml version="1.0" encoding="iso-8859-1"?>
<!-- Generator: Adobe Illustrator 17.1.0, SVG Export Plug-In . SVG Version: 6.00 Build 0)  -->
<!DOCTYPE svg PUBLIC "-//W3C//DTD SVG 1.1//EN" "http://www.w3.org/Graphics/SVG/1.1/DTD/svg11.dtd">
<svg version="1.1" id="Capa_1" xmlns="http://www.w3.org/2000/svg" xmlns:xlink="http://www.w3.org/1999/xlink" x="0px" y="0px"
	 viewBox="0 0 460 460" style="enable-background:new 0 0 460 460;" xml:space="preserve">
<g>
	<path style="fill:#ED1B24;" d="M263.895,118.565c-5.166,0.056-13.826,0.559-25.137,2.659l14.174,30.397l21.68-10.073
		L263.895,118.565z"/>
	<path style="fill:#ED1B24;" d="M172.693,234.66l-31.648-67.869c-8.872,7.309-14.824,13.619-18.195,17.548l28.177,60.425
		L172.693,234.66z"/>
	<path style="fill:#ED1B24;" d="M218.919,126.007c-7.005,2.07-14.583,4.713-22.618,8.061l16.812,36.054l21.68-10.073
		L218.919,126.007z"/>
	<path style="fill:#ED1B24;" d="M108.624,231.316c-3.186,0-6.281,0.69-9.2,2.052c-5.283,2.463-9.29,6.836-11.283,12.313
		s-1.735,11.402,0.729,16.684c3.571,7.658,11.342,12.606,19.796,12.606c3.186,0,6.281-0.69,9.2-2.052
		c10.904-5.085,15.639-18.093,10.554-28.997C124.849,236.264,117.078,231.316,108.624,231.316z"/>
	<path style="fill:#ED1B24;" d="M393.895,178.088c-4.346-13.692-10.366-26.642-17.815-38.618l-48.374,22.557
		c-1.367,0.638-2.806,0.939-4.22,0.939c-3.767,0-7.373-2.138-9.07-5.776c-2.334-5.005-0.168-10.955,4.837-13.289l45.096-21.029
		c-9.524-11.92-20.597-22.547-32.913-31.578l-47.796,22.288l44.399,95.215L393.895,178.088z"/>
	<path style="fill:#ED1B24;" d="M199.201,187.613C199.2,187.613,199.2,187.613,199.201,187.613l-0.001-0.001l-21.026-45.09
		c-7.73,4.003-14.625,8.11-20.714,12.146l33.36,71.54l21.666-10.103L199.201,187.613z"/>
	<path style="fill:#ED1B24;" d="M230,20C114.206,20,20,114.206,20,230s94.206,210,210,210s210-94.206,210-210S345.794,20,230,20z
		 M365.798,365.476c-31.336,31.41-73.465,52.043-120.28,55.807c-0.146,0.016-0.292,0.029-0.438,0.039
		c-4.977,0.389-10.005,0.591-15.081,0.591c-105.82,0-191.912-86.092-191.912-191.913c0-41.205,12.864-80.479,37.202-113.578
		c3.272-4.451,9.531-5.403,13.98-2.133c4.449,3.272,5.404,9.531,2.133,13.98C69.608,157.91,58.088,193.088,58.088,230
		c0,94.785,77.105,171.898,171.887,171.912l-14.818-37.896h-55.591c-4.092,0-7.771-2.492-9.287-6.292
		c-1.518-3.8-0.566-8.14,2.4-10.958l33.753-32.06l-25.694-8.953c-2.542-0.886-4.619-2.76-5.763-5.197l-0.052-0.11l-11.35-24.339
		c-4.116,6.283-9.963,11.537-17.256,14.938c-5.587,2.605-11.525,3.926-17.653,3.926c-16.194,0-31.08-9.481-37.922-24.153
		c-4.722-10.124-5.217-21.48-1.396-31.977c3.82-10.497,11.5-18.877,21.625-23.598c5.586-2.605,11.525-3.926,17.652-3.926
		c1.646,0,3.273,0.123,4.885,0.314l-11.394-24.435c-1.488-3.193-1.188-6.934,0.793-9.848c0.625-0.919,11.377-16.411,35.91-34.126
		c0.034-0.025,0.069-0.049,0.103-0.074c10.598-7.643,23.745-15.695,39.775-23.17c16.023-7.472,30.635-12.366,43.298-15.572
		c0.05-0.013,0.1-0.027,0.15-0.039c13.235-3.34,24.315-4.828,32.595-5.436l-6.048-12.969c-2.334-5.005-0.168-10.955,4.837-13.289
		c5.009-2.335,10.955-0.168,13.29,4.837l8.369,17.947l36.167-16.865C287.121,65.517,259.413,58.087,230,58.087
		c-44.265,0-86.308,16.783-118.384,47.256c-4.004,3.805-10.334,3.642-14.138-0.362s-3.642-10.333,0.362-14.138
		C133.65,56.823,180.586,38.087,230,38.087c39.673,0,76.573,12.101,107.203,32.806c0.747,0.392,1.451,0.87,2.084,1.445
		c18.626,12.951,34.859,29.109,47.889,47.676c0.539,0.597,1.005,1.275,1.397,2.014c11.973,17.529,21.112,37.136,26.768,58.157
		c0.158,0.446,0.274,0.897,0.366,1.35c4.045,15.487,6.204,31.728,6.204,48.464c0,51.853-20.68,98.96-54.215,133.531
		C367.165,364.253,366.529,364.908,365.798,365.476z"/>
	<polygon style="fill:#ED1B24;" points="230,300.908 184.615,344.017 275.385,344.017 	"/>
	<path style="fill:#ED1B24;" d="M336.491,226.924l8.369,17.948c2.334,5.005,0.168,10.955-4.837,13.289
		c-1.367,0.637-2.806,0.939-4.22,0.939c-3.767,0-7.373-2.138-9.07-5.776l-2.588-5.55l-5.362,14.125l42.881,78.505
		c25.103-29.889,40.248-68.408,40.248-110.403c0-10.993-1.05-21.744-3.031-32.169L336.491,226.924z"/>
	<path style="fill:#ED1B24;" d="M347.2,355.645l-48.176-88.199c-1.4-2.563-1.609-5.611-0.572-8.343l13.901-36.617l-29.289-62.811
		l-61.499,28.573l9.047,19.403l30.729-14.329c5.009-2.336,10.956-0.168,13.29,4.837c2.334,5.005,0.168,10.955-4.837,13.289
		l-79.585,37.111c0,0-0.001,0-0.001,0.001s-0.001,0-0.001,0l-30.729,14.329l11.829,25.367l31.438,10.955l20.368-19.346
		c3.859-3.666,9.914-3.666,13.773,0l70.434,66.9c2.967,2.818,3.918,7.158,2.4,10.958c-1.517,3.8-5.195,6.292-9.287,6.292h-63.802
		l14.318,36.617C287.913,396.123,321.286,379.833,347.2,355.645z"/>
	<path d="M392.635,67.366C349.193,23.924,291.436,0,230,0S110.807,23.924,67.365,67.366C23.924,110.807,0,168.565,0,230
		s23.924,119.193,67.365,162.634C110.807,436.076,168.564,460,230,460s119.193-23.924,162.635-67.366
		C436.076,349.193,460,291.435,460,230S436.076,110.807,392.635,67.366z M230,440c-115.794,0-210-94.206-210-210S114.206,20,230,20
		s210,94.206,210,210S345.794,440,230,440z"/>
	<path d="M415.708,181.536c-0.092-0.453-0.208-0.904-0.366-1.35c-5.656-21.022-14.795-40.628-26.768-58.157
		c-0.393-0.739-0.858-1.417-1.397-2.014c-13.031-18.566-29.263-34.725-47.889-47.676c-0.633-0.575-1.337-1.053-2.084-1.445
		C306.573,50.188,269.673,38.087,230,38.087c-49.414,0-96.35,18.736-132.159,52.756c-4.004,3.804-4.166,10.134-0.362,14.138
		s10.134,4.167,14.138,0.362C143.692,74.87,185.735,58.087,230,58.087c29.413,0,57.121,7.43,81.354,20.504l-36.167,16.865
		l-8.369-17.947c-2.335-5.005-8.281-7.172-13.29-4.837c-5.005,2.334-7.171,8.284-4.837,13.289l6.048,12.969
		c-8.28,0.609-19.36,2.096-32.595,5.436c-0.05,0.012-0.1,0.026-0.15,0.039c-12.663,3.205-27.276,8.1-43.298,15.572
		c-16.03,7.475-29.177,15.527-39.775,23.17c-0.034,0.025-0.069,0.049-0.103,0.074c-24.533,17.716-35.285,33.207-35.91,34.126
		c-1.98,2.914-2.281,6.655-0.793,9.848l11.394,24.435c-1.612-0.191-3.239-0.314-4.885-0.314c-6.127,0-12.066,1.321-17.652,3.926
		c-10.125,4.721-17.805,13.101-21.625,23.598c-3.82,10.497-3.325,21.853,1.396,31.977c6.842,14.672,21.728,24.153,37.922,24.153
		c6.128,0,12.066-1.321,17.653-3.926c7.293-3.401,13.14-8.655,17.256-14.938l11.35,24.339l0.052,0.11
		c1.144,2.437,3.221,4.311,5.763,5.197l25.694,8.953l-33.753,32.06c-2.967,2.818-3.918,7.158-2.4,10.958
		c1.517,3.8,5.195,6.292,9.287,6.292h55.591l14.818,37.896C135.193,401.898,58.088,324.785,58.088,230
		c0-36.912,11.521-72.09,33.315-101.73c3.271-4.449,2.316-10.708-2.133-13.98c-4.449-3.271-10.708-2.318-13.98,2.133
		C50.952,149.521,38.088,188.795,38.088,230c0,105.821,86.092,191.913,191.912,191.913c5.075,0,10.104-0.202,15.081-0.591
		c0.146-0.01,0.292-0.023,0.438-0.039c46.815-3.764,88.944-24.397,120.28-55.807c0.731-0.568,1.366-1.223,1.899-1.945
		c33.535-34.571,54.215-81.678,54.215-133.531C421.912,213.263,419.753,197.023,415.708,181.536z M117.865,272.919
		c-2.919,1.361-6.015,2.052-9.2,2.052c-8.454,0-16.225-4.948-19.796-12.606c-2.464-5.282-2.722-11.208-0.729-16.684
		s6-9.849,11.283-12.313c2.919-1.361,6.015-2.052,9.2-2.052c8.454,0,16.225,4.948,19.795,12.605
		C133.504,254.826,128.77,267.834,117.865,272.919z M331.436,91.295c12.316,9.031,23.389,19.658,32.913,31.578l-45.096,21.029
		c-5.005,2.334-7.171,8.284-4.837,13.289c1.697,3.639,5.304,5.776,9.07,5.776c1.414,0,2.853-0.302,4.22-0.939l48.374-22.557
		c7.449,11.976,13.469,24.927,17.815,38.618l-65.856,30.709l-44.399-95.215L331.436,91.295z M190.82,226.207l-33.36-71.54
		c6.089-4.036,12.984-8.143,20.714-12.146l21.026,45.09l0,0.001c0,0,0,0,0,0.001l13.285,28.491L190.82,226.207z M196.301,134.068
		c8.035-3.348,15.614-5.991,22.618-8.061l15.874,34.042l-21.68,10.073L196.301,134.068z M252.931,151.622l-14.174-30.397
		c11.311-2.101,19.972-2.603,25.137-2.659l10.717,22.983L252.931,151.622z M141.045,166.79l31.648,67.869l-21.667,10.103
		l-28.177-60.425C126.221,180.409,132.172,174.1,141.045,166.79z M230,300.908l45.385,43.108h-90.77L230,300.908z M300.434,364.017
		c4.092,0,7.771-2.492,9.287-6.292c1.518-3.8,0.566-8.14-2.4-10.958l-70.434-66.9c-3.859-3.666-9.914-3.666-13.773,0l-20.368,19.346
		l-31.438-10.955l-11.829-25.367l30.729-14.329c0,0,0.001,0,0.001,0s0.001,0,0.001,0l79.585-37.111
		c5.005-2.334,7.171-8.284,4.837-13.289c-2.334-5.005-8.281-7.173-13.29-4.837l-30.729,14.329l-9.047-19.403l61.499-28.573
		l29.289,62.811l-13.901,36.617c-1.037,2.731-0.828,5.779,0.572,8.343l48.176,88.199c-25.914,24.189-59.287,40.478-96.25,44.989
		l-14.318-36.617H300.434z M361.665,340.403l-42.881-78.505l5.362-14.125l2.588,5.55c1.697,3.639,5.304,5.776,9.07,5.776
		c1.414,0,2.853-0.302,4.22-0.939c5.005-2.334,7.171-8.284,4.837-13.289l-8.369-17.948l62.39-29.093
		c1.982,10.425,3.031,21.176,3.031,32.169C401.912,271.995,386.768,310.514,361.665,340.403z"/>
</g>
<g>
</g>
<g>
</g>
<g>
</g>
<g>
</g>
<g>
</g>
<g>
</g>
<g>
</g>
<g>
</g>
<g>
</g>
<g>
</g>
<g>
</g>
<g>
</g>
<g>
</g>
<g>
</g>
<g>
</g>
</svg>
