<?xml version="1.0" encoding="iso-8859-1"?>
<!-- Generator: Adobe Illustrator 17.1.0, SVG Export Plug-In . SVG Version: 6.00 Build 0)  -->
<!DOCTYPE svg PUBLIC "-//W3C//DTD SVG 1.1//EN" "http://www.w3.org/Graphics/SVG/1.1/DTD/svg11.dtd">
<svg version="1.1" id="Capa_1" xmlns="http://www.w3.org/2000/svg" xmlns:xlink="http://www.w3.org/1999/xlink" x="0px" y="0px"
	 viewBox="0 0 460.001 460.001" style="enable-background:new 0 0 460.001 460.001;" xml:space="preserve">
<g>
	<path style="fill:#4D4D4D;" d="M347.442,76.786c-57.264,59.267-108.195,117.553-146.719,167.717
		c50.495-38.775,109.181-90.095,168.866-147.835C362.724,89.485,355.316,82.833,347.442,76.786z"/>
	<path style="fill:#4D4D4D;" d="M217.361,107.633c22.198-18.076,46.15-39.035,70.606-61.823c-4.443-1.396-8.935-2.634-13.462-3.703
		C253.405,64.923,234.127,87.036,217.361,107.633z"/>
	<path style="fill:#4D4D4D;" d="M231.826,363.144c-14.888,12.117-30.568,25.546-46.736,40.029c-0.218,0.218-0.449,0.421-0.685,0.616
		c-3.877,3.477-7.782,7.017-11.71,10.611c3.982,1.236,8.004,2.341,12.053,3.314C201.91,398.806,217.754,380.433,231.826,363.144z"/>
	<path style="fill:#999999;" d="M394.902,99.942c-6.271,6.139-12.535,12.204-18.788,18.206
		c26.012,33.897,39.372,75.715,37.755,118.793c-1.745,46.501-20.838,90.243-53.762,123.167
		c-34.816,34.815-81.3,53.905-129.905,53.906c-4.915,0-9.85-0.198-14.798-0.592c-6.81,7.742-13.863,15.598-21.135,23.534
		c11.783,2.023,23.743,3.044,35.731,3.044c0.003,0,0.007,0,0.011,0c56.086,0,108.817-21.843,148.481-61.508
		C453.922,303.064,460.315,182.693,394.902,99.942z"/>
	<path style="fill:#999999;" d="M313.422,49.321c-0.028,0.025-0.054,0.053-0.082,0.078c-3.931,3.731-7.855,7.426-11.768,11.071
		c7.839,3.307,15.437,7.155,22.743,11.522c6.101-6.375,12.267-12.763,18.512-19.159c-6.722-4.288-13.693-8.194-20.851-11.683
		C319.122,43.896,316.271,46.617,313.422,49.321z"/>
	<path style="fill:#999999;" d="M159.033,399.793c-21.979-9.208-42.187-22.731-59.141-39.684C65.14,325.355,46,279.148,46,230.001
		c0-49.148,19.14-95.354,53.893-130.108c38.019-38.019,90.092-57.325,143.562-53.403c6.966-7.763,14.161-15.627,21.568-23.565
		c-11.555-1.943-23.278-2.924-35.023-2.924c-56.093,0-108.829,21.844-148.493,61.508c-81.879,81.878-81.879,215.105,0,296.984
		c16.721,16.721,35.824,30.333,56.861,40.527C145.31,412.454,152.204,406.043,159.033,399.793z"/>
	<path style="fill:#CCCCCC;" d="M345.965,345.966c57.538-57.538,63.559-149.549,15.57-213.929
		c-73.693,69.645-144.681,128.472-199.451,164.97c-3.966,2.642-9.246,2.119-12.617-1.25c-3.37-3.371-3.894-8.651-1.25-12.617
		c35.937-53.927,93.636-123.709,161.951-196.248c-7.987-4.48-16.338-8.289-24.977-11.368
		c-41.457,37.594-80.77,69.311-111.859,90.028c-3.966,2.643-9.246,2.12-12.617-1.25c-3.37-3.371-3.893-8.65-1.25-12.617
		c16.43-24.655,39.34-53.997,66.74-85.638c-42.01,0.933-82.042,17.859-112.171,47.987C83.059,145.01,66,186.194,66,230.001
		c0,43.806,17.059,84.99,48.035,115.965c17.386,17.387,38.603,30.721,61.64,38.806c36.799-32.733,71.063-60.002,99.298-78.904
		l57.521-57.521c3.905-3.904,10.237-3.904,14.143,0c3.905,3.905,3.905,10.237,0,14.143l-57.521,57.521
		c-14.387,21.488-33.862,46.755-56.926,73.977C274.784,393.468,315.416,376.516,345.965,345.966z M111.952,223.066
		c-2.559,0-5.118-0.976-7.071-2.929c-3.905-3.905-3.906-10.237,0-14.142l34.622-34.623c3.905-3.905,10.237-3.906,14.142,0
		s3.906,10.237,0,14.142l-34.622,34.623C117.071,222.09,114.511,223.066,111.952,223.066z M353.708,227.133l12.021-12.021
		c3.905-3.904,10.237-3.904,14.143,0c3.905,3.905,3.905,10.237,0,14.143l-12.021,12.021c-1.953,1.952-4.512,2.929-7.071,2.929
		s-5.119-0.977-7.071-2.929C349.803,237.37,349.803,231.038,353.708,227.133z"/>
	<path d="M403.159,78.609c-1.815-2.072-4.406-3.304-7.159-3.404c-2.753-0.102-5.426,0.94-7.387,2.876
		c-1.568,1.548-3.136,3.088-4.704,4.627c-6.988-7.299-14.484-14.102-22.425-20.34c1.33-1.355,2.658-2.711,3.994-4.067
		c2.049-2.08,3.087-4.952,2.841-7.861c-0.246-2.91-1.751-5.566-4.121-7.272c-12.542-9.031-26.045-16.809-40.133-23.118
		c-3.735-1.671-8.111-0.9-11.049,1.948c-2.879,2.792-5.756,5.556-8.631,8.307c-4.72-1.758-9.509-3.348-14.349-4.767
		c0.575-0.606,1.145-1.21,1.723-1.817c2.449-2.571,3.351-6.249,2.368-9.662c-0.982-3.413-3.7-6.048-7.142-6.925
		C268.396,2.401,249.224,0.001,230,0.001c-61.436,0-119.194,23.924-162.635,67.365C23.924,110.807,0,168.565,0,230.001
		c0,61.435,23.924,119.193,67.365,162.635c20.041,20.04,43.216,36.006,68.883,47.454c3.703,1.652,8.038,0.903,10.973-1.895
		c2.948-2.811,5.886-5.586,8.817-8.342c4.42,1.635,8.901,3.125,13.426,4.464c-0.591,0.633-1.177,1.265-1.771,1.899
		c-2.413,2.579-3.287,6.239-2.3,9.629s3.69,6.009,7.11,6.889c18.745,4.821,38.089,7.266,57.495,7.267c0.008,0,0.004,0,0.012,0
		c61.424,0,119.184-23.926,162.624-67.365c41.543-41.544,65.428-96.748,67.253-155.442
		C461.705,178.765,441.558,122.445,403.159,78.609z M81.508,378.493c-81.879-81.879-81.879-215.106,0-296.984
		C121.171,41.844,173.907,20.001,230,20.001c11.745,0,23.468,0.981,35.023,2.924c-7.407,7.938-14.602,15.802-21.568,23.565
		c-53.47-3.922-105.543,15.384-143.562,53.403C65.14,134.646,46,180.852,46,230.001c0,49.148,19.14,95.354,53.893,130.108
		c16.953,16.953,37.162,30.476,59.141,39.684c-6.829,6.25-13.723,12.661-20.664,19.228
		C117.332,408.826,98.229,395.214,81.508,378.493z M289.116,320.01l57.521-57.521c3.905-3.905,3.905-10.237,0-14.143
		c-3.905-3.904-10.237-3.904-14.143,0l-57.521,57.521c-28.235,18.902-62.499,46.171-99.298,78.904
		c-23.036-8.085-44.254-21.419-61.64-38.806C83.059,314.99,66,273.806,66,230.001c0-43.806,17.059-84.99,48.035-115.965
		c30.128-30.128,70.161-47.054,112.171-47.987c-27.4,31.64-50.31,60.983-66.74,85.638c-2.643,3.966-2.12,9.246,1.25,12.617
		c3.371,3.37,8.651,3.893,12.617,1.25c31.089-20.718,70.402-52.434,111.859-90.028c8.638,3.079,16.989,6.888,24.977,11.368
		c-68.315,72.539-126.014,142.321-161.951,196.248c-2.644,3.966-2.12,9.246,1.25,12.617c3.371,3.37,8.651,3.893,12.617,1.25
		c54.77-36.499,125.758-95.325,199.451-164.97c47.989,64.38,41.968,156.392-15.57,213.929
		c-30.549,30.55-71.181,47.502-113.775,48.021C255.254,366.765,274.729,341.498,289.116,320.01z M200.723,244.503
		c38.524-50.164,89.455-108.45,146.719-167.717c7.874,6.046,15.283,12.699,22.147,19.882
		C309.904,154.408,251.217,205.728,200.723,244.503z M342.827,52.833c-6.244,6.395-12.411,12.783-18.512,19.159
		c-7.306-4.367-14.904-8.215-22.743-11.522c3.912-3.645,7.837-7.339,11.768-11.071c0.028-0.025,0.054-0.052,0.082-0.078
		c2.849-2.704,5.7-5.425,8.554-8.171C329.134,44.638,336.105,48.545,342.827,52.833z M217.361,107.633
		c16.766-20.597,36.044-42.71,57.145-65.526c4.527,1.069,9.019,2.307,13.462,3.703C263.51,68.598,239.559,89.557,217.361,107.633z
		 M184.404,403.79c0.236-0.196,0.467-0.399,0.685-0.616c16.167-14.483,31.848-27.912,46.736-40.029
		c-14.072,17.289-29.916,35.662-47.078,54.571c-4.049-0.973-8.071-2.078-12.053-3.314
		C176.623,410.807,180.528,407.267,184.404,403.79z M230.001,440.001c-11.988,0-23.949-1.021-35.731-3.044
		c7.272-7.936,14.325-15.792,21.135-23.534c4.948,0.394,9.883,0.592,14.798,0.592c48.605-0.001,95.089-19.09,129.905-53.906
		c32.924-32.924,52.017-76.666,53.762-123.167c1.616-43.078-11.743-84.896-37.755-118.793c6.253-6.002,12.517-12.067,18.788-18.206
		c65.413,82.751,59.02,203.122-16.41,278.551c-39.664,39.665-92.395,61.508-148.481,61.508
		C230.008,440.001,230.004,440.001,230.001,440.001z"/>
	<path d="M153.645,171.373c-3.905-3.905-10.237-3.905-14.142,0l-34.622,34.623c-3.905,3.905-3.905,10.237,0,14.142
		c1.953,1.953,4.512,2.929,7.071,2.929s5.119-0.977,7.071-2.929l34.622-34.623C157.551,181.609,157.55,175.278,153.645,171.373z"/>
	<path d="M360.779,244.204c2.559,0,5.119-0.977,7.071-2.929l12.021-12.021c3.905-3.905,3.905-10.237,0-14.143
		c-3.905-3.904-10.237-3.904-14.143,0l-12.021,12.021c-3.905,3.905-3.905,10.237,0,14.143
		C355.66,243.228,358.22,244.204,360.779,244.204z"/>
</g>
<g>
</g>
<g>
</g>
<g>
</g>
<g>
</g>
<g>
</g>
<g>
</g>
<g>
</g>
<g>
</g>
<g>
</g>
<g>
</g>
<g>
</g>
<g>
</g>
<g>
</g>
<g>
</g>
<g>
</g>
</svg>
