<?xml version="1.0" encoding="iso-8859-1"?>
<!-- Generator: Adobe Illustrator 17.1.0, SVG Export Plug-In . SVG Version: 6.00 Build 0)  -->
<!DOCTYPE svg PUBLIC "-//W3C//DTD SVG 1.1//EN" "http://www.w3.org/Graphics/SVG/1.1/DTD/svg11.dtd">
<svg version="1.1" id="Capa_1" xmlns="http://www.w3.org/2000/svg" xmlns:xlink="http://www.w3.org/1999/xlink" x="0px" y="0px"
	 viewBox="0 0 460 460" style="enable-background:new 0 0 460 460;" xml:space="preserve">
<g>
	<path style="fill:#DBF0FF;" d="M252.551,62.833v92.202c0,5.523-4.477,10-10,10v197.06h36c5.523,0,10,4.477,10,10s-4.477,10-10,10
		h-36V440h58.571l22.46-121.035c0.274-1.478,0.878-2.875,1.767-4.087l66.119-90.192C390.018,124.188,320.932,67.859,252.551,62.833z
		 M268.719,327.726c-0.486,0.07-0.97,0.105-1.448,0.105c-4.887,0-9.162-3.587-9.884-8.566l-4.933-34.02
		c-0.792-5.466,2.996-10.539,8.461-11.332c5.465-0.788,10.539,2.996,11.332,8.461l4.933,34.02
		C277.973,321.86,274.185,326.934,268.719,327.726z M312.699,267.29c-27.873,0-50.549-22.676-50.549-50.549
		s22.676-50.549,50.549-50.549s50.549,22.676,50.549,50.549S340.572,267.29,312.699,267.29z"/>
	<path style="fill:#FFBE99;" d="M206.551,382.095c-5.523,0-10-4.477-10-10s4.477-10,10-10h36v-197.06h0
		c-46.455,0-76.974-25.768-86.876-35.54c-23.554,1.826-30.52,20.499-30.52,77.604c0,56.626-13.685,70.806-17.878,73.802
		c-1.716,1.227-3.753,1.864-5.814,1.864c-0.982,0-1.97-0.145-2.931-0.439c-2.978-0.913-5.36-3.161-6.444-6.081l-17.837-48.048
		c-2.918,3.523-4.443,8.068-3.702,12.549l10.27,62.059c0.973,5.882,4.978,10.555,10.262,12.534v-6.32c0-5.523,4.477-10,10-10
		s10,4.477,10,10v15.164c7.536,19.91,26.315,68.313,32.621,79.265C157.076,426.678,189.46,440,232.551,440h10v-57.905H206.551z
		 M146.811,223.202c0-5.523,4.477-10,10-10h55.251c5.523,0,10,4.477,10,10c0,20.747-16.879,37.626-37.625,37.626
		C163.69,260.828,146.811,243.949,146.811,223.202z"/>
	<path d="M360.204,93.049c-29.11-30.158-67.023-47.777-107.652-50.267V10c0-5.523-4.477-10-10-10
		C176.596,0,111.564,29.613,76.874,75.443c-27.729,36.632-35.314,81.062-21.937,128.485c0.652,2.311,2.113,4.309,4.116,5.631
		l3.311,2.186c-8.756,8.104-13.553,20.14-11.547,32.267l10.27,62.059c2.769,16.728,16.528,29.085,33.195,30.211
		c6.945,18.214,24.904,64.672,32.086,77.146C143.41,443.025,182.112,460,232.551,460h76.886c4.819,0,8.953-3.437,9.832-8.175
		l23.561-126.965l66.727-91.022c1.257-1.715,1.935-3.786,1.935-5.912C411.492,175.214,393.277,127.314,360.204,93.049z
		 M323.583,318.965L301.123,440h-58.571h-10c-43.091,0-75.476-13.322-88.849-36.551c-6.306-10.953-25.085-59.356-32.621-79.265
		V309.02c0-5.523-4.477-10-10-10s-10,4.477-10,10v6.32c-5.284-1.979-9.288-6.652-10.262-12.534l-10.27-62.059
		c-0.741-4.481,0.784-9.025,3.702-12.549l17.837,48.048c1.084,2.919,3.466,5.167,6.444,6.081c0.961,0.294,1.949,0.439,2.931,0.439
		c2.061,0,4.098-0.637,5.814-1.864c4.194-2.997,17.878-17.176,17.878-73.802c0-57.106,6.965-75.779,30.52-77.604
		c9.902,9.772,40.422,35.54,86.876,35.54h0c5.523,0,10-4.477,10-10V62.833c68.381,5.026,137.466,61.355,138.917,161.852
		l-66.119,90.192C324.462,316.09,323.858,317.487,323.583,318.965z M92.82,87.514c29.314-38.728,83.354-64.515,139.731-67.269
		v124.297c-40.653-4.032-64.911-31.431-65.151-31.707c-1.899-2.217-4.673-3.492-7.592-3.492c-22.308,0-37.759,9.688-45.924,28.793
		c-7.671,17.95-8.729,43.753-8.729,68.963c0,17.333-1.364,29.757-3.094,38.545l-14.431-38.873c-0.739-1.991-2.094-3.695-3.867-4.866
		l-10.536-6.954C62.959,155.132,69.702,118.055,92.82,87.514z"/>
	<path style="fill:#6F4805;" d="M83.764,201.906c1.773,1.17,3.127,2.875,3.867,4.866l14.431,38.873
		c1.73-8.788,3.094-21.211,3.094-38.545c0-25.21,1.058-51.014,8.729-68.963c8.165-19.106,23.616-28.793,45.924-28.793
		c2.919,0,5.693,1.275,7.592,3.492c0.24,0.276,24.498,27.675,65.151,31.707V20.245C176.174,22.999,122.134,48.786,92.82,87.514
		c-23.118,30.542-29.862,67.619-19.592,107.438L83.764,201.906z"/>
	<path d="M272.248,282.375c-0.793-5.466-5.866-9.249-11.332-8.461c-5.466,0.792-9.254,5.866-8.461,11.332l4.933,34.02
		c0.722,4.979,4.997,8.566,9.884,8.566c0.478,0,0.961-0.035,1.448-0.105c5.466-0.792,9.254-5.866,8.461-11.332L272.248,282.375z"/>
	<path d="M196.551,372.095c0,5.523,4.477,10,10,10h36h36c5.523,0,10-4.477,10-10s-4.477-10-10-10h-36h-36
		C201.028,362.095,196.551,366.572,196.551,372.095z"/>
	<path style="fill:#00335E;" d="M312.699,186.192c-16.845,0-30.549,13.704-30.549,30.549s13.704,30.549,30.549,30.549
		s30.549-13.704,30.549-30.549S329.544,186.192,312.699,186.192z"/>
	<path d="M312.699,166.192c-27.873,0-50.549,22.676-50.549,50.549s22.676,50.549,50.549,50.549s50.549-22.676,50.549-50.549
		S340.572,166.192,312.699,166.192z M312.699,247.29c-16.845,0-30.549-13.704-30.549-30.549s13.704-30.549,30.549-30.549
		s30.549,13.704,30.549,30.549S329.544,247.29,312.699,247.29z"/>
	<path style="fill:#FFFFFF;" d="M184.437,240.828c6.008,0,11.324-3.022,14.507-7.626h-29.015
		C173.113,237.806,178.429,240.828,184.437,240.828z"/>
	<path d="M222.063,223.202c0-5.523-4.477-10-10-10h-55.251c-5.523,0-10,4.477-10,10c0,20.747,16.879,37.626,37.626,37.626
		C205.184,260.828,222.063,243.949,222.063,223.202z M184.437,240.828c-6.008,0-11.324-3.022-14.508-7.626h29.015
		C195.761,237.806,190.445,240.828,184.437,240.828z"/>
</g>
<g>
</g>
<g>
</g>
<g>
</g>
<g>
</g>
<g>
</g>
<g>
</g>
<g>
</g>
<g>
</g>
<g>
</g>
<g>
</g>
<g>
</g>
<g>
</g>
<g>
</g>
<g>
</g>
<g>
</g>
</svg>
