<?xml version="1.0" encoding="iso-8859-1"?>
<!-- Generator: Adobe Illustrator 17.1.0, SVG Export Plug-In . SVG Version: 6.00 Build 0)  -->
<!DOCTYPE svg PUBLIC "-//W3C//DTD SVG 1.1//EN" "http://www.w3.org/Graphics/SVG/1.1/DTD/svg11.dtd">
<svg version="1.1" id="Capa_1" xmlns="http://www.w3.org/2000/svg" xmlns:xlink="http://www.w3.org/1999/xlink" x="0px" y="0px"
	 viewBox="0 0 460.005 460.005" style="enable-background:new 0 0 460.005 460.005;" xml:space="preserve">
<g>
	<path style="fill:#CCCCCC;" d="M349.392,37.574c-63.877,20.872-122.115,57.305-173.096,108.287
		c-41.021,41.021-81.065,91.167-109.863,137.579c-26.736,43.088-42.649,80.96-45.832,108.593L384.81,27.824
		C373.974,30.253,362.093,33.424,349.392,37.574z"/>
	<path style="fill:#CCCCCC;" d="M439.84,20.161c-5.152,0.213-12.199,0.697-20.816,1.734L29.965,410.954l19.083,19.083
		L438.105,40.981C439.144,32.342,439.626,25.294,439.84,20.161z"/>
	<path style="fill:#CCCCCC;" d="M432.178,75.191L67.968,439.402c28.173-3.251,67.05-19.773,111.034-47.355
		c45.667-28.636,94.923-68.125,135.139-108.341c68.227-68.227,98.813-139.175,112.456-186.679
		C428.798,89.366,430.638,82.068,432.178,75.191z"/>
	<path style="fill:#F2F2F2;" d="M412.452,2.588c0.366-0.049,0.739-0.1,1.1-0.147C413.184,2.471,412.816,2.517,412.452,2.588z"/>
	<path style="fill:#F2F2F2;" d="M384.81,27.824L20.601,392.033c-0.359,3.117-0.565,6.111-0.597,8.96l9.961,9.961l389.059-389.06
		C409.434,23.048,397.891,24.892,384.81,27.824z"/>
	<path style="fill:#F2F2F2;" d="M438.105,40.981L49.049,430.037l9.961,9.961c2.848-0.031,5.84-0.236,8.958-0.596L432.178,75.191
		C435.109,62.111,436.951,50.565,438.105,40.981z"/>
	<path d="M459.946,9.618c-0.223-5.185-4.376-9.338-9.562-9.562c-0.129-0.005-1.323-0.054-3.481-0.054
		c-5.205,0-16.901,0.302-33.351,2.438c-0.362,0.047-0.734,0.098-1.1,0.147c-18.205,2.424-42.035,7.076-69.271,15.976
		c-66.895,21.858-127.8,59.929-181.027,113.155c-42.06,42.06-83.143,93.517-112.715,141.176
		C25.943,310.762-1.693,364.529,0.081,405.634c0.108,2.501,1.15,4.87,2.919,6.64l44.728,44.728c1.77,1.77,4.139,2.812,6.64,2.919
		c1.252,0.054,2.541,0.082,3.831,0.082c41.391,0,94.317-27.74,131.428-51.011c46.885-29.4,97.423-69.91,138.657-111.143
		c71.247-71.247,103.241-145.531,117.536-195.301C461.401,48.3,460.012,11.172,459.946,9.618z M179.002,392.047
		c-43.985,27.582-82.861,44.104-111.034,47.355c-3.118,0.36-6.11,0.564-8.958,0.596l-9.961-9.961l-19.083-19.083l-9.961-9.961
		c0.032-2.849,0.238-5.843,0.597-8.96c3.183-27.633,19.096-65.505,45.832-108.593c28.798-46.412,68.842-96.558,109.863-137.579
		c50.981-50.982,109.219-87.415,173.096-108.287c12.701-4.15,24.582-7.321,35.417-9.75c13.081-2.932,24.624-4.776,34.214-5.93
		c8.616-1.036,15.664-1.52,20.816-1.734c-0.214,5.134-0.695,12.181-1.735,20.82c-1.154,9.584-2.996,21.13-5.926,34.21
		c-1.541,6.876-3.381,14.175-5.581,21.835c-13.644,47.504-44.229,118.453-112.456,186.679
		C273.925,323.923,224.669,363.412,179.002,392.047z"/>
</g>
<g>
</g>
<g>
</g>
<g>
</g>
<g>
</g>
<g>
</g>
<g>
</g>
<g>
</g>
<g>
</g>
<g>
</g>
<g>
</g>
<g>
</g>
<g>
</g>
<g>
</g>
<g>
</g>
<g>
</g>
</svg>
