<?xml version="1.0" encoding="iso-8859-1"?>
<!-- Generator: Adobe Illustrator 17.1.0, SVG Export Plug-In . SVG Version: 6.00 Build 0)  -->
<!DOCTYPE svg PUBLIC "-//W3C//DTD SVG 1.1//EN" "http://www.w3.org/Graphics/SVG/1.1/DTD/svg11.dtd">
<svg version="1.1" id="Capa_1" xmlns="http://www.w3.org/2000/svg" xmlns:xlink="http://www.w3.org/1999/xlink" x="0px" y="0px"
	 viewBox="0 0 460 460" style="enable-background:new 0 0 460 460;" xml:space="preserve">
<g>
	<path style="fill:#ED1B24;" d="M51.978,400h65.179v-92.469c-13.698-9.448-25.141-21.4-33.297-34.83
		c-15.418-25.381-18.336-54.601-8.006-80.167c10.073-24.932,30.934-43.177,58.078-51.203c-3.707-16.544-3.844-32.139-0.346-45.589
		c1.245-4.792,5.816-7.947,10.729-7.428c29.695,3.142,62.511,25.823,85.685,59.209c23.174-33.387,55.989-56.068,85.685-59.209
		c4.923-0.521,9.484,2.637,10.729,7.428c3.498,13.45,3.361,29.045-0.346,45.589c27.145,8.026,48.005,26.271,58.078,51.204
		c10.33,25.565,7.412,54.784-8.006,80.167c-8.157,13.429-19.6,25.382-33.297,34.829V400h65.179V198.022
		C408.022,99.86,328.162,20,230,20S51.978,99.86,51.978,198.022V400z"/>
	<path d="M230,0C120.81,0,31.978,88.833,31.978,198.022V440c0,5.214,4.006,9.553,9.204,9.968l125.179,10
		c0.266,0.021,0.531,0.032,0.797,0.032c0.04,0,0.079-0.005,0.118-0.006c0.146-0.002,0.29-0.012,0.435-0.02
		c0.184-0.01,0.368-0.021,0.551-0.042c0.144-0.016,0.286-0.038,0.428-0.061c0.185-0.029,0.369-0.061,0.552-0.1
		c0.135-0.029,0.269-0.061,0.403-0.096c0.189-0.048,0.375-0.103,0.561-0.162c0.125-0.04,0.249-0.081,0.373-0.126
		c0.191-0.07,0.378-0.147,0.564-0.228c0.114-0.05,0.228-0.098,0.341-0.152c0.192-0.092,0.38-0.195,0.566-0.299
		c0.101-0.057,0.203-0.109,0.302-0.169c0.202-0.123,0.396-0.257,0.59-0.394c0.077-0.054,0.156-0.103,0.231-0.16
		c0.266-0.2,0.523-0.412,0.77-0.639c1.281-1.183,2.217-2.667,2.739-4.295c0.313-0.977,0.477-2.005,0.477-3.052V276.758
		c0-4.396-2.871-8.277-7.075-9.563c-0.51-0.156-1.01-0.314-1.501-0.476c-1.475-0.484-2.876-0.995-4.248-1.55
		c-13.922-5.625-24.772-15.354-30.366-25.848c-0.621-1.166-1.178-2.342-1.667-3.522s-0.909-2.366-1.259-3.551
		c-1.75-5.928-1.727-11.864,0.443-17.235c4.527-11.205,17.597-18.166,34.107-18.166c7.998,0,16.423,1.696,24.364,4.905
		c1.767,0.714,3.49,1.492,5.163,2.331c11.712,5.869,20.993,14.667,25.898,24.703c1.677,3.433,5.164,5.609,8.984,5.609
		s7.308-2.177,8.984-5.609c4.905-10.036,14.186-18.834,25.898-24.703c1.673-0.838,3.396-1.617,5.163-2.331
		c7.941-3.209,16.366-4.905,24.364-4.905c16.511,0,29.58,6.96,34.107,18.166c6.944,17.188-8.099,40.157-32.848,50.157
		c-1.83,0.739-3.711,1.402-5.75,2.026c-4.204,1.286-7.075,5.167-7.075,9.563V450c0,2.791,1.166,5.454,3.216,7.347
		c0.029,0.026,0.061,0.048,0.089,0.074c0.218,0.197,0.442,0.385,0.674,0.56c0.086,0.065,0.177,0.121,0.264,0.183
		c0.185,0.13,0.37,0.259,0.562,0.376c0.097,0.059,0.197,0.111,0.296,0.166c0.191,0.107,0.383,0.212,0.58,0.306
		c0.103,0.049,0.207,0.093,0.311,0.138c0.2,0.088,0.401,0.17,0.606,0.245c0.106,0.038,0.213,0.073,0.321,0.108
		c0.208,0.067,0.417,0.128,0.628,0.181c0.11,0.028,0.22,0.055,0.332,0.079c0.211,0.046,0.424,0.083,0.639,0.115
		c0.115,0.018,0.23,0.036,0.345,0.049c0.212,0.024,0.425,0.038,0.639,0.049c0.12,0.006,0.24,0.015,0.36,0.017
		c0.046,0,0.091,0.006,0.137,0.006c0.266,0,0.531-0.01,0.797-0.032l125.179-10c5.198-0.415,9.204-4.754,9.204-9.968v-30V198.022
		C428.022,88.833,339.19,0,230,0z M408.022,430.767l-105.179,8.402V283.841c0.105-0.042,0.211-0.084,0.316-0.127
		c16.657-6.73,30.435-18.016,38.794-31.777c8.927-14.697,10.74-30.471,5.105-44.416c-7.645-18.92-27.818-30.673-52.65-30.673
		c-10.541,0-21.557,2.2-31.856,6.361c-12.992,5.249-24.281,13.35-32.553,23.138c-8.271-9.788-19.561-17.889-32.553-23.138
		c-10.3-4.161-21.315-6.361-31.856-6.361c-24.832,0-45.006,11.753-52.65,30.673c-5.635,13.945-3.821,29.719,5.105,44.416
		c0.522,0.86,1.066,1.71,1.63,2.551c1.128,1.68,2.339,3.32,3.627,4.915c0.644,0.798,1.307,1.584,1.989,2.358
		c8.182,9.295,19.055,16.905,31.549,21.953c0.104,0.042,0.21,0.085,0.315,0.127v155.329l-105.177-8.402V420h75.177
		c5.522,0,10-4.477,10-10V302.139c0-3.448-1.775-6.652-4.699-8.479c-13.15-8.221-24.045-19.058-31.504-31.34
		c-12.108-19.933-14.498-42.637-6.557-62.292c8.728-21.601,28.291-36.749,53.675-41.56c2.792-0.529,5.228-2.222,6.697-4.655
		s1.834-5.375,1.004-8.094c-3.885-12.708-5.379-25.068-4.399-35.752c21.534,5.918,45.128,24.303,62.309,49.122
		c2.703,3.905,5.264,7.993,7.61,12.15c1.773,3.141,5.101,5.084,8.708,5.084s6.935-1.943,8.708-5.084
		c2.347-4.157,4.907-8.245,7.61-12.149c17.181-24.819,40.774-43.205,62.309-49.123c0.979,10.684-0.515,23.044-4.399,35.752
		c-0.83,2.718-0.466,5.661,1.004,8.094s3.905,4.125,6.697,4.655c25.384,4.811,44.947,19.959,53.675,41.561
		c7.941,19.653,5.552,42.357-6.557,62.291c-7.46,12.283-18.354,23.12-31.504,31.34c-2.924,1.828-4.699,5.032-4.699,8.479V410
		c0,5.523,4.478,10,10,10h75.179V430.767z M230,20c98.162,0,178.022,79.86,178.022,178.022V400h-65.179v-92.468
		c13.697-9.447,25.14-21.4,33.297-34.829c15.418-25.382,18.336-54.602,8.006-80.167c-10.073-24.933-30.934-43.178-58.078-51.204
		c3.707-16.544,3.844-32.139,0.346-45.589c-1.245-4.791-5.807-7.949-10.729-7.428c-29.695,3.142-62.511,25.823-85.685,59.209
		c-23.174-33.386-55.989-56.068-85.685-59.209c-4.913-0.52-9.484,2.636-10.729,7.428c-3.498,13.45-3.361,29.045,0.346,45.589
		c-27.145,8.026-48.005,26.271-58.078,51.203c-10.33,25.566-7.412,54.786,8.006,80.167c8.156,13.429,19.599,25.382,33.297,34.83V400
		H51.978V198.022C51.978,99.86,131.838,20,230,20z"/>
	<path style="fill:#B772ED;" d="M322.844,410V302.14c0-3.448,1.775-6.652,4.699-8.479c13.149-8.221,24.044-19.058,31.504-31.34
		c12.108-19.933,14.498-42.637,6.557-62.291c-8.728-21.602-28.291-36.75-53.675-41.561c-2.792-0.529-5.228-2.222-6.697-4.655
		s-1.834-5.375-1.004-8.094c3.885-12.708,5.379-25.068,4.399-35.752c-21.534,5.918-45.128,24.303-62.309,49.123
		c-2.703,3.904-5.264,7.992-7.61,12.149c-1.773,3.141-5.101,5.084-8.708,5.084s-6.935-1.943-8.708-5.084
		c-2.347-4.157-4.907-8.245-7.61-12.15c-17.181-24.819-40.774-43.204-62.309-49.122c-0.979,10.684,0.515,23.044,4.399,35.752
		c0.83,2.718,0.466,5.661-1.004,8.094s-3.905,4.125-6.697,4.655c-25.384,4.811-44.947,19.959-53.675,41.56
		c-7.941,19.654-5.552,42.358,6.557,62.292c7.459,12.282,18.354,23.119,31.504,31.34c2.924,1.828,4.699,5.032,4.699,8.479V410
		c0,5.523-4.478,10-10,10H51.979v10.767l105.177,8.402V283.841c-0.105-0.042-0.211-0.084-0.315-0.127
		c-12.494-5.048-23.367-12.658-31.549-21.953c-0.682-0.775-1.345-1.561-1.989-2.358c-1.288-1.595-2.498-3.235-3.627-4.915
		c-0.564-0.84-1.108-1.691-1.63-2.551c-8.927-14.697-10.74-30.471-5.105-44.416c7.645-18.92,27.818-30.673,52.65-30.673
		c10.541,0,21.557,2.2,31.856,6.361c12.992,5.249,24.281,13.35,32.553,23.138c8.271-9.788,19.561-17.889,32.553-23.138
		c10.3-4.161,21.315-6.361,31.856-6.361c24.832,0,45.006,11.753,52.65,30.673c5.635,13.945,3.821,29.719-5.105,44.416
		c-8.359,13.762-22.137,25.047-38.794,31.777c-0.105,0.042-0.211,0.084-0.316,0.127v155.329l105.179-8.402V420h-75.179
		C327.321,420,322.844,415.523,322.844,410z"/>
</g>
<g>
</g>
<g>
</g>
<g>
</g>
<g>
</g>
<g>
</g>
<g>
</g>
<g>
</g>
<g>
</g>
<g>
</g>
<g>
</g>
<g>
</g>
<g>
</g>
<g>
</g>
<g>
</g>
<g>
</g>
</svg>
