<?xml version="1.0" encoding="iso-8859-1"?>
<!-- Generator: Adobe Illustrator 17.1.0, SVG Export Plug-In . SVG Version: 6.00 Build 0)  -->
<!DOCTYPE svg PUBLIC "-//W3C//DTD SVG 1.1//EN" "http://www.w3.org/Graphics/SVG/1.1/DTD/svg11.dtd">
<svg version="1.1" id="Capa_1" xmlns="http://www.w3.org/2000/svg" xmlns:xlink="http://www.w3.org/1999/xlink" x="0px" y="0px"
	 viewBox="0 0 452.486 452.486" style="enable-background:new 0 0 452.486 452.486;" xml:space="preserve">
<g>
	<path style="fill:#FEA621;" d="M359.904,125.375h-62.029c4.232,13.092,16.532,22.59,31.014,22.59S355.673,138.468,359.904,125.375z
		"/>
	<path style="fill:#FEA621;" d="M170.613,119.617h-51.207c-15.66,0-28.4,12.74-28.4,28.4v110.719l78.618-36.098v-7.129h-20
		c-5.523,0-10-4.477-10-10s4.477-10,10-10h40.308L170.613,119.617z"/>
	<path style="fill:#FEA621;" d="M283.935,371.877c-5.523,0-10-4.477-10-10s4.477-10,10-10c42.758,0,77.545-34.787,77.545-77.545
		v-13.836l-46.073,8.485c-0.036,0.007-0.072,0.013-0.108,0.02l-37.086,6.83c10.007,16.483,15.199,35.545,15.199,56.375
		c0,5.523-4.477,10-10,10s-10-4.477-10-10c0-22.988-7.495-41.67-19.478-56.14c-0.485-0.466-0.921-0.983-1.307-1.542
		c-17.688-20.371-44.437-32.032-71.343-35.229l-90.002,41.324c3.213,39.827,36.628,71.26,77.268,71.26c5.523,0,10,4.477,10,10
		s-4.477,10-10,10c-7.187,0-14.193-0.789-20.942-2.271v72.88h13.634v-40.609c0-5.523,4.477-10,10-10s10,4.477,10,10v40.609h153.634
		v-85C320.041,366.608,302.593,371.877,283.935,371.877z"/>
	<path style="fill:#FEA621;" d="M312.324,165.277c-10.537-3.508-19.6-10.259-26-19.071c-0.439,0.604-0.897,1.197-1.363,1.785
		c0.52,3.116,0.805,6.311,0.805,9.572c0,31.952-25.995,57.947-57.946,57.947h-24.992c-0.013,0-0.026,0.002-0.039,0.002
		c-0.02,0-0.039-0.002-0.058-0.002h-13.107v4.751c26.008,4.156,49.883,15.009,67.984,31.038c2.437,2.158,4.748,4.399,6.944,6.711
		l39.683-7.308L312.324,165.277z"/>
	<path style="fill:#FEA621;" d="M191.119,55.204V52.59c0-17.97-14.62-32.59-32.59-32.59c-17.204,0-31.328,13.402-32.502,30.313
		L191.119,55.204z"/>
	<path style="fill:#FEA621;" d="M332.17,167.853l-7.488,79.083l36.799-6.777v-83.555
		C353.316,163.072,343.201,167.171,332.17,167.853z"/>
	<path style="fill:#FEA621;" d="M265.766,157.563c0-20.924-17.022-37.946-37.946-37.946h-36.569l19.319,75.893h17.25
		C248.744,195.51,265.766,178.487,265.766,157.563z"/>
	<polygon style="fill:#FEA621;" points="361.48,76.556 296.3,98.146 296.3,105.375 361.48,105.375 	"/>
	<path style="fill:#FEA621;" d="M191.119,99.617V83.889c0-0.018,0-0.036,0-0.054V75.26l-65.181-4.897v29.255H191.119z"/>
	<path style="fill:#FEA621;" d="M276.3,91.072V79.692l-65.181,12.549v7.376h16.701c19.506,0,36.778,9.698,47.285,24.514
		c0.782-2.818,1.195-5.756,1.195-8.756V91.12C276.299,91.104,276.3,91.088,276.3,91.072z"/>
	<path style="fill:#FEA621;" d="M296.3,52.59v15.086c0,0.018,0,0.036,0,0.054v9.347l65.181-21.591V52.59
		c0-17.97-14.62-32.59-32.59-32.59S296.3,34.62,296.3,52.59z"/>
	<path style="fill:#FEA621;" d="M211.119,71.874L276.3,59.324V52.59c0-17.97-14.62-32.59-32.59-32.59s-32.59,14.62-32.59,32.59
		V71.874z"/>
	<path d="M171.243,391.877c-5.523,0-10,4.477-10,10v40.609c0,5.523,4.477,10,10,10s10-4.477,10-10v-40.609
		C181.243,396.354,176.766,391.877,171.243,391.877z"/>
	<path d="M381.48,62.513V52.59C381.48,23.592,357.889,0,328.89,0c-17.503,0-33.026,8.603-42.59,21.793
		C276.735,8.603,261.212,0,243.709,0s-33.026,8.603-42.59,21.793C191.554,8.603,176.032,0,158.529,0
		c-28.999,0-52.59,23.592-52.59,52.59v48.948c-20.154,5.849-34.933,24.465-34.933,46.479v126.315c0,0.083,0.003,0.164,0.003,0.247
		c0.001,0.03,0,0.059,0.001,0.089c0.133,39.03,23.305,72.728,56.599,88.188v79.63c0,5.523,4.477,10,10,10s10-4.477,10-10v-72.88
		c6.749,1.482,13.755,2.271,20.942,2.271c5.523,0,10-4.477,10-10s-4.477-10-10-10c-40.64,0-74.055-31.432-77.268-71.26
		l90.002-41.324c26.906,3.198,53.655,14.858,71.343,35.229c0.385,0.56,0.822,1.077,1.307,1.542
		c11.983,14.47,19.478,33.152,19.478,56.14c0,5.523,4.477,10,10,10s10-4.477,10-10c0-20.83-5.192-39.892-15.199-56.375l37.086-6.83
		c0.036-0.007,0.072-0.013,0.108-0.02l46.073-8.485v13.836c0,42.758-34.787,77.545-77.545,77.545c-5.523,0-10,4.477-10,10
		s4.477,10,10,10c18.657,0,36.105-5.269,50.941-14.391v85c0,5.523,4.477,10,10,10s10-4.477,10-10V341.209
		c16.483-17.475,26.604-41.015,26.604-66.877V115.375v-5.758V62.562C381.48,62.546,381.481,62.53,381.48,62.513z M328.89,147.966
		c-14.482,0-26.783-9.498-31.014-22.59h62.029C355.673,138.468,343.372,147.966,328.89,147.966z M149.624,195.51
		c-5.523,0-10,4.477-10,10s4.477,10,10,10h20v7.129l-78.618,36.098V148.017c0-15.66,12.74-28.4,28.4-28.4h51.207l19.319,75.893
		H149.624z M158.529,20c17.97,0,32.59,14.62,32.59,32.59v2.613l-65.092-4.891C127.201,33.402,141.325,20,158.529,20z M243.709,20
		c17.97,0,32.59,14.62,32.59,32.59v6.734l-65.181,12.549V52.59C211.119,34.62,225.739,20,243.709,20z M361.48,52.59v2.897
		L296.3,77.078v-9.347c0-0.018,0-0.036,0-0.054V52.59c0-17.97,14.62-32.59,32.59-32.59S361.48,34.62,361.48,52.59z M275.105,124.131
		c-10.507-14.816-27.779-24.514-47.285-24.514h-16.701v-7.376L276.3,79.692v11.379c0,0.016,0,0.032,0,0.049v24.255
		C276.3,118.375,275.887,121.313,275.105,124.131z M296.3,98.146l65.181-21.591v28.82H296.3V98.146z M191.119,75.26v8.576
		c0,0.018,0,0.036,0,0.054v15.728h-65.181V70.362L191.119,75.26z M210.57,195.51l-19.319-75.893h36.569
		c20.924,0,37.946,17.022,37.946,37.946s-17.022,37.947-37.946,37.947H210.57z M257.608,251.299
		c-18.101-16.029-41.976-26.882-67.984-31.038v-4.751h13.107c0.019,0,0.039,0.002,0.058,0.002c0.013,0,0.026-0.002,0.039-0.002
		h24.992c31.952,0,57.946-25.995,57.946-57.947c0-3.261-0.285-6.456-0.805-9.572c0.466-0.588,0.924-1.18,1.363-1.785
		c6.401,8.812,15.463,15.563,26,19.071l-8.088,85.425l-39.683,7.308C262.356,255.698,260.045,253.458,257.608,251.299z
		 M324.682,246.937l7.488-79.083c11.031-0.683,21.147-4.781,29.311-11.249v83.555L324.682,246.937z"/>
</g>
<g>
</g>
<g>
</g>
<g>
</g>
<g>
</g>
<g>
</g>
<g>
</g>
<g>
</g>
<g>
</g>
<g>
</g>
<g>
</g>
<g>
</g>
<g>
</g>
<g>
</g>
<g>
</g>
<g>
</g>
</svg>
