<?xml version="1.0" encoding="iso-8859-1"?>
<!-- Generator: Adobe Illustrator 17.1.0, SVG Export Plug-In . SVG Version: 6.00 Build 0)  -->
<!DOCTYPE svg PUBLIC "-//W3C//DTD SVG 1.1//EN" "http://www.w3.org/Graphics/SVG/1.1/DTD/svg11.dtd">
<svg version="1.1" id="Capa_1" xmlns="http://www.w3.org/2000/svg" xmlns:xlink="http://www.w3.org/1999/xlink" x="0px" y="0px"
	 viewBox="0 0 460 460" style="enable-background:new 0 0 460 460;" xml:space="preserve">
<g>
	<path style="fill:#FCC324;" d="M322.296,398.114C362.186,368.789,386,321.772,386,272.347
		c-0.261-108.473-23.8-170.532-34.731-193.519l-45.082,39.015c-2.959,2.561-7.138,3.16-10.695,1.536
		c-2.368-1.072-4.242-3.032-5.196-5.447c-0.562-1.266-21.434-46.602-60.296-89.328c-38.851,42.713-59.718,88.026-60.295,89.325
		c-0.964,2.444-2.851,4.411-5.253,5.475c-3.543,1.591-7.694,0.986-10.639-1.562l-45.064-38.999
		C97.803,101.938,74.13,164.354,74,272.359c-0.065,54.234,27.467,103.771,73.649,132.509c2.933,1.825,4.716,5.036,4.716,8.49V450h20
		v-48.385c-29.524-19.363-47.634-52.597-47.634-88.099v-52.665c0-9.385,3.945-18.062,10.782-24.162
		c-0.07-7.019-0.136-22.232-0.197-55.952c0-17.936,14.577-32.512,32.494-32.512c8.721,0,16.651,3.454,22.494,9.065
		c5.843-5.611,13.773-9.065,22.494-9.065s16.651,3.454,22.494,9.065c5.843-5.611,13.773-9.065,22.494-9.065
		c15.032,0,27.713,10.261,31.408,24.146c4.134-1.91,8.735-2.976,13.581-2.976c17.917,0,32.494,14.577,32.494,32.494v36.457
		c0,0.003,0,0.007,0,0.01c0,0.006,0,0.013,0,0.019v75.139c0,31.168-13.438,60.11-37.049,80.171V450h20v-43.829
		C318.22,402.99,319.733,399.998,322.296,398.114z"/>
	<path style="fill:#F37D22;" d="M362.6,57.632c-1.572-2.43-4.12-4.06-6.985-4.469c-2.863-0.406-5.766,0.445-7.956,2.338
		l-44.75,38.728c-10.27-19.502-32.921-57.393-65.734-91.195C235.292,1.095,232.704,0,230,0s-5.292,1.095-7.175,3.035
		c-33.618,34.632-55.664,72.28-65.642,91.275L112.34,55.502c-2.186-1.892-5.08-2.744-7.946-2.34
		c-2.862,0.406-5.409,2.03-6.984,4.454C95.645,60.334,54.176,125.858,54,272.334c-0.037,30.443,7.849,60.454,22.803,86.788
		c13.564,23.886,32.703,44.423,55.562,59.685V450c0,5.523,4.477,10,10,10s10-4.477,10-10v-36.642c0-3.455-1.783-6.665-4.716-8.49
		C101.467,376.129,73.935,326.593,74,272.359c0.13-108.004,23.803-170.421,34.749-193.516l45.064,38.999
		c2.945,2.548,7.095,3.152,10.639,1.562c2.402-1.064,4.29-3.031,5.253-5.475c0.577-1.299,21.444-46.612,60.295-89.325
		c38.863,42.726,59.734,88.062,60.296,89.328c0.954,2.416,2.828,4.375,5.196,5.447c3.557,1.624,7.735,1.025,10.695-1.536
		l45.082-39.015c10.931,22.987,34.47,85.046,34.731,193.519c0,49.426-23.814,96.442-63.704,125.767
		c-2.563,1.884-4.077,4.876-4.077,8.057V450c0,5.523,4.477,10,10,10s10-4.477,10-10v-38.863
		c19.969-15.604,36.566-35.569,48.184-58.017c12.82-24.77,19.597-52.701,19.597-80.798C405.648,125.864,364.358,60.35,362.6,57.632z
		"/>
	<path style="fill:#F37D22;" d="M270.281,238.356V201.89v-21.171c0-6.889-5.605-12.494-12.494-12.494s-12.494,5.605-12.494,12.494
		v57.637v0v0c0,6.889,5.605,12.494,12.494,12.494S270.281,245.246,270.281,238.356L270.281,238.356L270.281,238.356z"/>
	<path style="fill:#F37D22;" d="M180.305,180.719c0-6.889-5.605-12.494-12.494-12.494s-12.494,5.605-12.494,12.494
		c0.027,14.853,0.078,34.84,0.14,47.698c0.588-0.032,1.177-0.06,1.769-0.06h23.08V180.719z"/>
	<path style="fill:#F37D22;" d="M302.775,189.396c-6.889,0-12.494,5.605-12.494,12.494v36.466v0v0
		c0,6.889,5.605,12.494,12.494,12.494c6.886,0,12.488-5.6,12.494-12.484V201.89C315.269,195.001,309.665,189.396,302.775,189.396z"
		/>
	<path style="fill:#F37D22;" d="M261.178,414.088c-0.985,0.305-1.981,0.45-2.961,0.45c-4.268,0-8.221-2.753-9.549-7.044
		c-1.634-5.275,1.318-10.877,6.594-12.51c7.946-2.461,15.485-6.08,22.406-10.755c1.482-1.002,2.953-2.066,4.375-3.163
		c0.021-0.017,0.04-0.037,0.061-0.053c21.077-16.297,33.166-40.898,33.166-67.497V268.35c-3.848,1.609-8.068,2.501-12.494,2.501
		c-8.721,0-16.651-3.454-22.494-9.065c-5.843,5.611-13.773,9.065-22.494,9.065c-4.015,0-7.86-0.737-11.413-2.074
		c-3.548,14.098-16.328,24.568-31.512,24.568h-25.143v18.877l43.203,18.57c5.074,2.181,7.419,8.062,5.239,13.136
		c-1.628,3.787-5.316,6.054-9.192,6.054c-1.318,0-2.657-0.262-3.944-0.815l-49.254-21.171c-3.672-1.579-6.051-5.191-6.051-9.188
		v-35.463c0-5.523,4.477-10,10-10h35.143c6.889,0,12.494-5.605,12.494-12.495c0-6.889-5.605-12.494-12.494-12.494h-57.637
		c-2.207,0-4.359,0.583-6.249,1.678c-0.071,0.046-0.133,0.101-0.205,0.145c-3.782,2.296-6.04,6.286-6.04,10.672v52.665
		c0,30.346,16.339,58.649,42.642,73.865c0.009,0.005,0.017,0.012,0.027,0.018c5.638,3.259,11.648,5.864,17.863,7.745
		c5.286,1.6,8.275,7.181,6.675,12.467c-1.307,4.321-5.275,7.106-9.567,7.106c-0.959,0-1.935-0.139-2.9-0.431
		c-2.396-0.725-4.764-1.548-7.105-2.444V450h85.855v-42.898C272.757,409.922,267.061,412.267,261.178,414.088z"/>
	<path style="fill:#F37D22;" d="M225.293,180.719c0-6.889-5.605-12.494-12.494-12.494s-12.494,5.605-12.494,12.494v47.637h14.558
		c3.648,0,7.154,0.613,10.431,1.727V180.719z"/>
	<path style="fill:#ED1B24;" d="M335.269,313.516v-75.139c0-0.007,0-0.013,0-0.019c0-0.003,0-0.006,0-0.01V201.89
		c0-17.917-14.577-32.494-32.494-32.494c-4.846,0-9.446,1.066-13.581,2.976c-3.694-13.885-16.375-24.146-31.408-24.146
		c-8.721,0-16.651,3.454-22.494,9.065c-5.843-5.611-13.773-9.065-22.494-9.065s-16.651,3.454-22.494,9.065
		c-5.843-5.611-13.773-9.065-22.494-9.065c-17.917,0-32.494,14.577-32.494,32.512c0.061,33.72,0.127,48.933,0.197,55.952
		c-6.837,6.1-10.782,14.776-10.782,24.162v52.665c0,35.502,18.11,68.736,47.634,88.099V450c0,5.523,4.477,10,10,10s10-4.477,10-10
		v-38.157c2.341,0.896,4.708,1.719,7.105,2.444c0.965,0.292,1.94,0.431,2.9,0.431c4.292,0,8.26-2.786,9.567-7.106
		c1.6-5.286-1.389-10.868-6.675-12.467c-6.214-1.881-12.224-4.486-17.863-7.745c-0.009-0.006-0.017-0.013-0.027-0.018
		c-26.302-15.216-42.642-43.52-42.642-73.865v-52.665c0-4.386,2.258-8.375,6.04-10.672c0.072-0.044,0.134-0.099,0.205-0.145
		c1.889-1.095,4.042-1.678,6.249-1.678h57.637c6.889,0,12.494,5.605,12.494,12.494c0,6.89-5.605,12.495-12.494,12.495h-35.143
		c-5.523,0-10,4.477-10,10v35.463c0,3.997,2.379,7.609,6.051,9.188l49.254,21.171c1.287,0.553,2.626,0.815,3.944,0.815
		c3.876,0,7.564-2.267,9.192-6.054c2.181-5.074-0.165-10.955-5.239-13.136l-43.203-18.57v-18.877h25.143
		c15.184,0,27.965-10.47,31.512-24.568c3.553,1.337,7.398,2.074,11.413,2.074c8.721,0,16.651-3.454,22.494-9.065
		c5.843,5.611,13.773,9.065,22.494,9.065c4.425,0,8.645-0.892,12.494-2.501v45.166c0,26.599-12.088,51.2-33.166,67.497
		c-0.021,0.017-0.04,0.036-0.061,0.053c-1.421,1.097-2.892,2.161-4.375,3.163c-6.921,4.676-14.46,8.294-22.406,10.755
		c-5.276,1.633-8.228,7.235-6.594,12.51c1.329,4.291,5.281,7.044,9.549,7.044c0.979,0,1.976-0.145,2.961-0.45
		c5.883-1.822,11.579-4.167,17.042-6.987V450c0,5.523,4.477,10,10,10s10-4.477,10-10v-56.313
		C321.831,373.625,335.269,344.684,335.269,313.516z M155.456,228.417c-0.062-12.858-0.113-32.845-0.14-47.698
		c0-6.889,5.605-12.494,12.494-12.494s12.494,5.605,12.494,12.494v47.637h-23.08C156.634,228.356,156.045,228.385,155.456,228.417z
		 M214.862,228.356h-14.558v-47.637c0-6.889,5.605-12.494,12.494-12.494s12.494,5.605,12.494,12.494v49.365
		C222.017,228.97,218.511,228.356,214.862,228.356z M257.787,250.851c-6.889,0-12.494-5.605-12.494-12.494v0v0v-57.637
		c0-6.889,5.605-12.494,12.494-12.494s12.494,5.605,12.494,12.494v21.171v36.466v0v0
		C270.281,245.246,264.676,250.851,257.787,250.851z M302.775,250.851c-6.889,0-12.494-5.605-12.494-12.494v0v0V201.89
		c0-6.889,5.605-12.494,12.494-12.494s12.494,5.605,12.494,12.494v36.477C315.264,245.251,309.661,250.851,302.775,250.851z"/>
</g>
<g>
</g>
<g>
</g>
<g>
</g>
<g>
</g>
<g>
</g>
<g>
</g>
<g>
</g>
<g>
</g>
<g>
</g>
<g>
</g>
<g>
</g>
<g>
</g>
<g>
</g>
<g>
</g>
<g>
</g>
</svg>
