<?xml version="1.0" encoding="iso-8859-1"?>
<!-- Generator: Adobe Illustrator 17.1.0, SVG Export Plug-In . SVG Version: 6.00 Build 0)  -->
<!DOCTYPE svg PUBLIC "-//W3C//DTD SVG 1.1//EN" "http://www.w3.org/Graphics/SVG/1.1/DTD/svg11.dtd">
<svg version="1.1" id="Capa_1" xmlns="http://www.w3.org/2000/svg" xmlns:xlink="http://www.w3.org/1999/xlink" x="0px" y="0px"
	 viewBox="0 0 459.94 459.94" style="enable-background:new 0 0 459.94 459.94;" xml:space="preserve">
<g>
	<path style="fill:#FCC324;" d="M351.902,416.958l-21.15-90.322c-6.43,4.17-13.403,7.482-20.692,9.796
		c-1.006,0.319-2.025,0.471-3.028,0.471c-4.24,0-8.177-2.719-9.528-6.977c-1.671-5.264,1.241-10.886,6.506-12.557
		c9.611-3.051,18.507-8.375,25.807-15.418c0.04-0.04,0.072-0.085,0.112-0.124c12.928-12.541,20.047-29.348,20.047-47.325v-61.558
		c-2.672,0.575-5.392,0.873-8.114,0.873c-9.819,0-19.64-3.738-27.115-11.213c-2.057-2.057-3.82-4.296-5.311-6.659
		c-6.599,4.966-14.589,7.657-22.994,7.657c-10.243,0-19.873-3.989-27.115-11.231c-2.04-2.04-3.811-4.274-5.318-6.653
		c-6.598,4.963-14.586,7.651-22.988,7.651c-10.243,0-19.873-3.989-27.115-11.231c-1.825-1.825-3.442-3.802-4.842-5.901
		c-6.753,5.009-14.79,7.518-22.828,7.518c-9.819,0-19.64-3.738-27.115-11.213c-0.285-0.285-0.554-0.58-0.828-0.871v8.198v0v0v65.653
		c0,5.523-4.478,10-10,10s-10-4.477-10-10v-0.232h-10.466c-5.522,0-10-4.477-10-10s4.478-10,10-10h10.466v-35.421h-17.71
		c-9.766,0-17.711,7.945-17.711,17.71v66.923c0,2.852,0.201,5.668,0.557,8.454c6.396-4.779,14.326-7.612,22.906-7.612
		c1.54,0,3.138,0.101,4.75,0.301c5.48,0.679,9.373,5.673,8.693,11.154c-0.285,2.3-1.336,4.316-2.857,5.837l10.47,10.47
		c1.521-1.524,3.537-2.576,5.84-2.86c5.479-0.675,10.474,3.217,11.15,8.699c0.199,1.612,0.3,3.208,0.3,4.746
		c0,9.717-3.64,18.595-9.618,25.359c2.307,0.505,4.626,0.873,6.95,1.111c0.332-0.004,0.666,0.007,1.004,0.036
		c1.914,0.167,3.866,0.251,5.801,0.251h20.466c5.522,0,10,4.477,10,10s-4.478,10-10,10h-19.324l-17.944,76.477
		C208.281,447.609,285.624,447.623,351.902,416.958z M314.333,347.303c5.378-1.258,10.758,2.079,12.017,7.457l11.145,47.592
		c1.26,5.377-2.079,10.757-7.456,12.017c-0.767,0.179-1.534,0.266-2.289,0.266c-4.539,0-8.648-3.112-9.728-7.723l-11.145-47.592
		C305.617,353.943,308.956,348.563,314.333,347.303z M308.555,279.794c6.915-6.708,10.723-15.69,10.723-25.292v-43.32
		c0-5.523,4.478-10,10-10s10,4.477,10,10v43.32c0,15.059-5.965,29.138-16.797,39.646c-1.942,1.884-4.453,2.822-6.962,2.822
		c-2.61,0-5.218-1.016-7.179-3.037C304.494,289.97,304.591,283.639,308.555,279.794z M210.788,238.203
		c0-21.364,14.343-43.462,38.346-43.462s38.347,22.098,38.347,43.462s-14.344,43.462-38.347,43.462S210.788,259.567,210.788,238.203
		z"/>
	<path style="fill:#FCC324;" d="M314.555,89.761v29.43c1.633,1.758,3.08,3.644,4.339,5.634c4.322-2.908,10.213-2.025,13.462,2.147
		c1.423,1.828,2.103,3.994,2.101,6.144h14.81c-0.001-1.254,0.231-2.511,0.709-3.706V89.761c0-9.765-7.944-17.71-17.71-17.71
		S314.555,79.996,314.555,89.761L314.555,89.761L314.555,89.761z"/>
	<path style="fill:#FCC324;" d="M208.213,104.247c4.304-2.777,10.089-1.86,13.298,2.256c1.425,1.828,2.106,3.996,2.104,6.148h14.81
		c-0.001-1.254,0.231-2.511,0.709-3.706V72.411v0v0v-17.35c0-9.766-7.944-17.711-17.71-17.711s-17.711,7.945-17.711,17.711v43.631
		C205.396,100.422,206.903,102.278,208.213,104.247z"/>
	<path style="fill:#FCC324;" d="M149.12,98.313c1.093-1.092,2.294-2.15,3.574-3.147c4.357-3.394,10.64-2.614,14.034,1.743
		c1.424,1.828,2.104,3.995,2.102,6.145h14.81c0-0.397,0.025-0.793,0.072-1.188V55.061v-17.35c0-9.766-7.944-17.711-17.71-17.711
		s-17.711,7.945-17.711,17.711v61.473C148.566,98.892,148.835,98.597,149.12,98.313z"/>
	<path style="fill:#FCC324;" d="M259.134,72.411v36.548c1.643,1.771,3.085,3.66,4.332,5.64c4.321-2.914,10.218-2.034,13.468,2.14
		c1.424,1.828,2.104,3.995,2.102,6.145h14.81c-0.001-1.254,0.231-2.511,0.709-3.706V89.761v0v0v-17.35
		c0-9.766-7.944-17.71-17.71-17.71S259.134,62.645,259.134,72.411L259.134,72.411L259.134,72.411z"/>
	<path style="fill:#F37D22;" d="M315.518,296.971c2.509,0,5.02-0.938,6.962-2.822c10.832-10.508,16.797-24.588,16.797-39.646v-43.32
		c0-5.523-4.478-10-10-10s-10,4.477-10,10v43.32c0,9.601-3.808,18.583-10.723,25.292c-3.964,3.845-4.061,10.176-0.215,14.14
		C310.301,295.956,312.908,296.971,315.518,296.971z"/>
	<path style="fill:#70AD46;" d="M249.134,261.665c12.654,0,18.347-13.72,18.347-23.462s-5.692-23.462-18.347-23.462
		c-12.654,0-18.346,13.72-18.346,23.462S236.479,261.665,249.134,261.665z"/>
	<path d="M287.48,238.203c0-21.364-14.344-43.462-38.347-43.462s-38.346,22.098-38.346,43.462s14.343,43.462,38.346,43.462
		S287.48,259.567,287.48,238.203z M249.134,214.74c12.654,0,18.347,13.72,18.347,23.462s-5.692,23.462-18.347,23.462
		c-12.654,0-18.346-13.72-18.346-23.462S236.479,214.74,249.134,214.74z"/>
	<path d="M385.72,410.129c-2.77-4.777-8.887-6.407-13.666-3.636c-0.599,0.347-1.211,0.69-1.819,1.035l-22.364-95.504
		c14.297-15.81,22.104-36.022,22.104-57.521v-72.949c13.607-14.666,13.607-37.461,0-52.127V89.761
		c0-20.793-16.917-37.71-37.71-37.71c-7.561,0-14.609,2.237-20.518,6.083c-5.639-13.736-19.16-23.433-34.903-23.433
		c-7.561,0-14.609,2.237-20.518,6.083c-5.639-13.736-19.16-23.433-34.903-23.433c-7.561,0-14.609,2.237-20.518,6.083
		C195.267,9.697,181.746,0,166.003,0c-20.794,0-37.711,16.917-37.711,37.711v112.158h-17.71c-20.794,0-37.711,16.917-37.711,37.711
		v66.923c0,10.852,1.994,21.376,5.922,31.36c-0.526,2.528-0.806,5.146-0.806,7.828c0,21.144,17.202,38.346,38.347,38.346
		c1.658,0,3.287-0.118,4.89-0.323c0.296,0.18,0.603,0.346,0.923,0.498c5.786,2.733,11.723,4.801,17.749,6.188l-16.21,69.09
		c-0.585-0.332-1.175-0.663-1.751-0.997c-4.776-2.77-10.896-1.142-13.666,3.636c-2.77,4.778-1.142,10.897,3.637,13.667
		c4.498,2.608,9.226,5.16,14.051,7.586c0.009,0.004,0.018,0.007,0.027,0.012c37.887,19.031,79.448,28.548,121.012,28.548
		c41.542,0,83.087-9.507,120.959-28.521c0.026-0.013,0.05-0.029,0.076-0.042c4.818-2.418,9.545-4.969,14.053-7.582
		C386.861,421.026,388.489,414.907,385.72,410.129z M159.958,340.448h19.324c5.522,0,10-4.477,10-10s-4.478-10-10-10h-20.466
		c-1.935,0-3.887-0.084-5.801-0.251c-0.338-0.029-0.672-0.04-1.004-0.036c-2.324-0.239-4.643-0.607-6.95-1.111
		c5.979-6.765,9.618-15.643,9.618-25.359c0-1.537-0.101-3.134-0.3-4.746c-0.677-5.481-5.671-9.374-11.15-8.699
		c-2.302,0.284-4.318,1.337-5.84,2.86c-2.1,2.104-3.252,5.112-2.86,8.291c0.101,0.813,0.149,1.563,0.149,2.293
		c0,10.116-8.229,18.346-18.346,18.346s-18.347-8.23-18.347-18.346s8.23-18.346,18.347-18.346c0.73,0,1.479,0.049,2.289,0.149
		c3.184,0.399,6.194-0.753,8.297-2.857c1.522-1.521,2.572-3.537,2.857-5.837c0.68-5.481-3.213-10.475-8.693-11.154
		c-1.612-0.2-3.21-0.301-4.75-0.301c-8.58,0-16.511,2.833-22.906,7.612c-0.356-2.785-0.557-5.602-0.557-8.454v-66.923
		c0-9.766,7.945-17.71,17.711-17.71h17.71v35.421h-10.466c-5.522,0-10,4.477-10,10s4.478,10,10,10h10.466v0.232
		c0,5.523,4.478,10,10,10s10-4.477,10-10v-65.653v0v0v-8.198c0.274,0.292,0.543,0.586,0.828,0.871
		c7.476,7.475,17.296,11.213,27.115,11.213c8.038,0,16.075-2.509,22.828-7.518c1.4,2.099,3.017,4.077,4.842,5.901
		c7.242,7.243,16.872,11.231,27.115,11.231c8.402,0,16.389-2.688,22.988-7.651c1.507,2.379,3.279,4.613,5.318,6.653
		c7.242,7.243,16.872,11.231,27.115,11.231c8.405,0,16.395-2.691,22.994-7.657c1.491,2.363,3.254,4.602,5.311,6.659
		c7.476,7.475,17.296,11.213,27.115,11.213c2.722,0,5.442-0.298,8.114-0.873v61.558c0,17.977-7.119,34.784-20.047,47.325
		c-0.04,0.039-0.072,0.084-0.112,0.124c-7.3,7.043-16.196,12.367-25.807,15.418c-5.265,1.671-8.177,7.293-6.506,12.557
		c1.352,4.257,5.288,6.977,9.528,6.977c1.003,0,2.022-0.152,3.028-0.471c7.289-2.314,14.262-5.627,20.692-9.796l21.15,90.322
		c-66.278,30.664-143.621,30.651-209.888-0.034L159.958,340.448z M166.003,20c9.766,0,17.71,7.945,17.71,17.711v17.35v46.804
		c-0.047,0.396-0.072,0.792-0.072,1.188c0.002,2.975,1.317,5.919,3.845,7.889c0.64,0.499,1.203,0.994,1.722,1.512
		c3.466,3.465,5.374,8.072,5.374,12.972c0,4.9-1.908,9.508-5.374,12.973c-7.153,7.154-18.792,7.152-25.945,0
		c-7.153-7.153-7.153-18.792-0.002-25.943c0.518-0.518,1.082-1.013,1.725-1.514c2.529-1.97,3.843-4.914,3.845-7.889
		c0.002-2.15-0.678-4.317-2.102-6.145c-3.395-4.357-9.677-5.137-14.034-1.743c-1.28,0.997-2.481,2.055-3.574,3.147
		c-0.285,0.285-0.554,0.58-0.828,0.871V37.711C148.292,27.945,156.237,20,166.003,20z M221.424,37.35
		c9.766,0,17.71,7.945,17.71,17.711v17.35v0v0v36.534c-0.478,1.195-0.71,2.452-0.709,3.706c0.002,2.974,1.316,5.917,3.843,7.887
		c0.646,0.503,1.211,1,1.726,1.513c7.153,7.153,7.153,18.792,0,25.945c-3.465,3.465-8.072,5.374-12.973,5.374
		s-9.508-1.908-12.973-5.374c-2.985-2.984-4.806-6.818-5.256-10.955c1.021-3.227,1.616-6.604,1.753-10.063
		c0.881-1.8,2.046-3.47,3.506-4.93c0.514-0.514,1.077-1.008,1.723-1.511c2.527-1.97,3.841-4.913,3.843-7.887
		c0.001-2.152-0.679-4.32-2.104-6.148c-3.209-4.116-8.993-5.033-13.298-2.256c-1.31-1.969-2.817-3.825-4.5-5.554V55.061
		C203.713,45.295,211.658,37.35,221.424,37.35z M276.845,54.7c9.766,0,17.71,7.945,17.71,17.71v17.35v0v0v29.417
		c-0.478,1.195-0.71,2.452-0.709,3.706c0.002,2.974,1.316,5.917,3.843,7.887c0.646,0.503,1.209,0.998,1.725,1.514
		c3.466,3.465,5.374,8.072,5.374,12.972c0,4.9-1.908,9.508-5.374,12.973c-3.465,3.465-8.071,5.373-12.972,5.373
		c-4.901,0-9.508-1.908-12.973-5.374c-3.466-3.465-5.374-8.072-5.374-12.973c0-0.209,0.023-0.414,0.03-0.622
		c0.452-1.759,0.777-3.542,0.977-5.339c0.894-2.608,2.36-5.006,4.369-7.013c0.515-0.515,1.077-1.009,1.72-1.509
		c2.529-1.97,3.843-4.914,3.845-7.889c0.002-2.15-0.678-4.317-2.102-6.145c-3.25-4.174-9.147-5.054-13.468-2.14
		c-1.246-1.979-2.689-3.869-4.332-5.64V72.411v0v0C259.134,62.645,267.079,54.7,276.845,54.7z M332.265,72.051
		c9.766,0,17.71,7.945,17.71,17.71v39.649c-0.478,1.195-0.71,2.452-0.709,3.706c0.002,2.974,1.316,5.917,3.843,7.887
		c0.644,0.501,1.207,0.997,1.725,1.514c7.153,7.153,7.153,18.792,0,25.945c-7.153,7.153-18.792,7.153-25.945,0
		c-3.712-3.712-5.48-8.631-5.34-13.505c0.464-1.788,0.798-3.615,1.001-5.473c0.878-2.545,2.31-4.939,4.339-6.967
		c0.518-0.518,1.08-1.012,1.721-1.511c2.53-1.97,3.845-4.914,3.847-7.89c0.001-2.15-0.678-4.316-2.101-6.144
		c-3.249-4.172-9.14-5.055-13.462-2.147c-1.259-1.99-2.706-3.876-4.339-5.634v-29.43v0v0
		C314.555,79.996,322.5,72.051,332.265,72.051z"/>
	<path style="fill:#ED1B24;" d="M118.623,275.493c-0.81-0.1-1.559-0.149-2.289-0.149c-10.116,0-18.347,8.23-18.347,18.346
		s8.23,18.346,18.347,18.346s18.346-8.23,18.346-18.346c0-0.73-0.049-1.481-0.149-2.293c-0.393-3.179,0.759-6.187,2.86-8.291
		l-10.47-10.47C124.816,274.74,121.807,275.892,118.623,275.493z"/>
	<path style="fill:#F37D22;" d="M318.021,406.912c1.079,4.611,5.188,7.723,9.728,7.723c0.755,0,1.522-0.086,2.289-0.266
		c5.377-1.259,8.716-6.64,7.456-12.017l-11.145-47.592c-1.259-5.378-6.639-8.715-12.017-7.457c-5.377,1.259-8.716,6.64-7.456,12.017
		L318.021,406.912z"/>
	<path style="fill:#F37D22;" d="M330.609,141.006c-0.641,0.499-1.203,0.993-1.721,1.511c-2.028,2.028-3.46,4.422-4.339,6.967
		c-0.203,1.858-0.537,3.686-1.001,5.473c-0.14,4.874,1.628,9.793,5.34,13.505c7.153,7.152,18.792,7.153,25.945,0
		c7.153-7.153,7.153-18.792,0-25.945c-0.518-0.517-1.081-1.013-1.725-1.514c-2.527-1.97-3.841-4.913-3.843-7.887h-14.81
		C334.455,136.092,333.139,139.036,330.609,141.006z"/>
	<path style="fill:#FF8080;" d="M275.19,130.772c-0.643,0.5-1.205,0.994-1.72,1.509c-2.008,2.008-3.474,4.406-4.369,7.013
		c-0.2,1.796-0.525,3.58-0.977,5.339c-0.007,0.208-0.03,0.413-0.03,0.622c0,4.9,1.908,9.508,5.374,12.973
		c3.465,3.465,8.071,5.374,12.973,5.374c4.9,0,9.507-1.908,12.972-5.373c3.466-3.465,5.374-8.073,5.374-12.973
		c0-4.9-1.908-9.507-5.374-12.972c-0.516-0.516-1.079-1.01-1.725-1.514c-2.527-1.97-3.841-4.913-3.843-7.887h-14.81
		C279.034,125.859,277.719,128.802,275.19,130.772z"/>
	<path style="fill:#09D6DE;" d="M219.772,120.538c-0.646,0.503-1.209,0.998-1.723,1.511c-1.46,1.459-2.625,3.13-3.506,4.93
		c-0.137,3.459-0.731,6.836-1.753,10.063c0.45,4.136,2.271,7.97,5.256,10.955c3.465,3.465,8.072,5.374,12.973,5.374
		s9.508-1.908,12.973-5.374c7.153-7.153,7.153-18.792,0-25.945c-0.515-0.514-1.079-1.01-1.726-1.513
		c-2.527-1.97-3.841-4.913-3.843-7.887h-14.81C223.613,115.625,222.299,118.567,219.772,120.538z"/>
	<path style="fill:#FDF133;" d="M164.985,110.943c-0.643,0.5-1.207,0.996-1.725,1.514c-7.151,7.151-7.151,18.79,0.002,25.943
		c7.153,7.152,18.792,7.153,25.945,0c3.466-3.465,5.374-8.072,5.374-12.973c0-4.9-1.908-9.507-5.374-12.972
		c-0.519-0.518-1.082-1.013-1.722-1.512c-2.529-1.97-3.843-4.914-3.845-7.889h-14.81
		C168.829,106.029,167.514,108.973,164.985,110.943z"/>
</g>
<g>
</g>
<g>
</g>
<g>
</g>
<g>
</g>
<g>
</g>
<g>
</g>
<g>
</g>
<g>
</g>
<g>
</g>
<g>
</g>
<g>
</g>
<g>
</g>
<g>
</g>
<g>
</g>
<g>
</g>
</svg>
