<?xml version="1.0" encoding="iso-8859-1"?>
<!-- Generator: Adobe Illustrator 17.1.0, SVG Export Plug-In . SVG Version: 6.00 Build 0)  -->
<!DOCTYPE svg PUBLIC "-//W3C//DTD SVG 1.1//EN" "http://www.w3.org/Graphics/SVG/1.1/DTD/svg11.dtd">
<svg version="1.1" id="Capa_1" xmlns="http://www.w3.org/2000/svg" xmlns:xlink="http://www.w3.org/1999/xlink" x="0px" y="0px"
	 viewBox="0 0 460 460" style="enable-background:new 0 0 460 460;" xml:space="preserve">
<g>
	<path style="fill:#A8D7FF;" d="M230,20C114.206,20,20,114.206,20,230s94.206,210,210,210s210-94.206,210-210S345.794,20,230,20z
		 M230,385.737c-85.873,0-155.736-69.863-155.736-155.737c0-72.713,50.093-133.939,117.579-151.001
		c2.576-18.761,18.701-33.262,38.157-33.262s35.582,14.501,38.157,33.262C335.644,96.061,385.736,157.287,385.736,230
		C385.736,315.874,315.873,385.737,230,385.737z"/>
	<path style="fill:#A8D7FF;" d="M265.588,99.006c-5.8,13.948-19.565,23.783-35.588,23.783s-29.788-9.835-35.588-23.783
		C136.774,114.682,94.264,167.466,94.264,230c0,74.846,60.891,135.737,135.736,135.737S365.736,304.846,365.736,230
		C365.736,167.466,323.226,114.682,265.588,99.006z M230,305c-41.355,0-75-33.645-75-75s33.645-75,75-75s75,33.645,75,75
		S271.355,305,230,305z"/>
	<path d="M392.635,67.366C349.193,23.924,291.436,0,230,0S110.807,23.924,67.365,67.366C23.924,110.807,0,168.565,0,230
		s23.924,119.193,67.365,162.634C110.807,436.076,168.564,460,230,460s119.193-23.924,162.635-67.366
		C436.076,349.193,460,291.435,460,230S436.076,110.807,392.635,67.366z M230,440c-115.794,0-210-94.206-210-210S114.206,20,230,20
		s210,94.206,210,210S345.794,440,230,440z"/>
	<path d="M268.157,78.999C265.582,60.238,249.457,45.737,230,45.737s-35.582,14.501-38.157,33.262
		C124.356,96.061,74.264,157.287,74.264,230c0,85.874,69.863,155.737,155.736,155.737S385.736,315.874,385.736,230
		C385.736,157.287,335.644,96.061,268.157,78.999z M211.474,84.263c0-10.215,8.311-18.526,18.526-18.526s18.526,8.311,18.526,18.526
		S240.216,102.79,230,102.79S211.474,94.479,211.474,84.263z M230,365.737c-74.846,0-135.736-60.891-135.736-135.737
		c0-62.534,42.51-115.318,100.148-130.994c5.8,13.948,19.565,23.783,35.588,23.783s29.788-9.835,35.588-23.783
		C323.226,114.682,365.736,167.466,365.736,230C365.736,304.846,304.846,365.737,230,365.737z"/>
	<path style="fill:#333333;" d="M230,102.79c10.216,0,18.526-8.311,18.526-18.526S240.216,65.737,230,65.737
		s-18.526,8.311-18.526,18.526S219.784,102.79,230,102.79z"/>
	<path style="fill:#333333;" d="M230,175c-30.327,0-55,24.673-55,55s24.673,55,55,55s55-24.673,55-55S260.327,175,230,175z"/>
	<path d="M230,155c-41.355,0-75,33.645-75,75s33.645,75,75,75s75-33.645,75-75S271.355,155,230,155z M230,285
		c-30.327,0-55-24.673-55-55s24.673-55,55-55s55,24.673,55,55S260.327,285,230,285z"/>
</g>
<g>
</g>
<g>
</g>
<g>
</g>
<g>
</g>
<g>
</g>
<g>
</g>
<g>
</g>
<g>
</g>
<g>
</g>
<g>
</g>
<g>
</g>
<g>
</g>
<g>
</g>
<g>
</g>
<g>
</g>
</svg>
