<?xml version="1.0" encoding="iso-8859-1"?>
<!-- Generator: Adobe Illustrator 17.1.0, SVG Export Plug-In . SVG Version: 6.00 Build 0)  -->
<!DOCTYPE svg PUBLIC "-//W3C//DTD SVG 1.1//EN" "http://www.w3.org/Graphics/SVG/1.1/DTD/svg11.dtd">
<svg version="1.1" id="Capa_1" xmlns="http://www.w3.org/2000/svg" xmlns:xlink="http://www.w3.org/1999/xlink" x="0px" y="0px"
	 viewBox="0 0 460 460" style="enable-background:new 0 0 460 460;" xml:space="preserve">
<g>
	<path style="fill:#F2F2F2;" d="M230,20C149.567,20,64.082,84.559,64.082,204.205c0,60.41,40.239,155.608,76.218,200.366
		C161.297,430.693,200.404,440,230,440s68.703-9.307,89.701-35.429c35.979-44.758,76.218-139.956,76.218-200.366
		C395.918,84.559,310.433,20,230,20z M128.667,295.953c-15.991,0-29-13.009-29-29s13.009-29,29-29s29,13.009,29,29
		S144.658,295.953,128.667,295.953z M223.147,349.959c0,12.608-8.278,23.319-19.684,26.983
		c-3.665,11.406-14.375,19.684-26.983,19.684c-15.624,0-28.334-12.71-28.334-28.333V329.96c0-15.624,12.71-28.334,28.334-28.334
		c5.649,0,11.046,1.643,15.646,4.701c0.892-0.084,1.789-0.127,2.688-0.127c15.624,0,28.334,12.71,28.334,28.333V349.959z
		 M223.147,212.951c0,18.775-15.275,34.049-34.05,34.049c-15.297,0-28.27-10.138-32.551-24.049h-21.318
		c-23.258,0-42.18-18.922-42.18-42.181s18.922-42.18,42.18-42.18h53.869c18.775,0,34.05,15.274,34.05,34.049V212.951z
		 M236.853,172.639c0-18.775,15.275-34.049,34.05-34.049h53.869c23.258,0,42.18,18.922,42.18,42.18s-18.922,42.181-42.18,42.181
		l-21.318,0C299.173,236.862,286.2,247,270.903,247c-18.775,0-34.05-15.275-34.05-34.05V172.639z M311.854,368.292
		c0,15.623-12.71,28.333-28.334,28.333c-12.608,0-23.319-8.277-26.983-19.684c-11.406-3.665-19.684-14.375-19.684-26.983v-15.425
		c0-15.623,12.71-28.333,28.334-28.333c0.899,0,1.796,0.042,2.688,0.127c4.6-3.059,9.997-4.701,15.646-4.701
		c15.624,0,28.334,12.71,28.334,28.334V368.292z M331.333,295.953c-15.991,0-29-13.009-29-29s13.009-29,29-29s29,13.009,29,29
		S347.324,295.953,331.333,295.953z"/>
	<path d="M359.451,55.662c-17.117-17.733-37.112-31.591-59.429-41.19C277.693,4.869,254.135,0,230,0s-47.693,4.869-70.022,14.472
		c-22.317,9.599-42.312,23.457-59.429,41.19c-36.414,37.725-56.467,90.479-56.467,148.542c0,66.352,42.493,165.454,80.63,212.896
		C146.304,443.963,185.665,460,230,460s83.696-16.037,105.289-42.899c38.137-47.443,80.63-146.545,80.63-212.896
		C415.918,146.141,395.865,93.387,359.451,55.662z M230,440c-29.596,0-68.703-9.307-89.701-35.429
		c-35.979-44.758-76.218-139.956-76.218-200.366C64.082,84.559,149.567,20,230,20s165.918,64.559,165.918,184.205
		c0,60.41-40.239,155.608-76.218,200.366C298.703,430.693,259.596,440,230,440z"/>
	<path style="fill:#333333;" d="M189.097,158.59h-53.869c-12.23,0-22.18,9.95-22.18,22.18c0,12.23,9.95,22.181,22.18,22.181h29.82
		c5.523,0,10,4.477,10,10c0,7.747,6.303,14.049,14.049,14.049c7.747,0,14.05-6.303,14.05-14.049v-40.312
		C203.147,164.893,196.844,158.59,189.097,158.59z"/>
	<path d="M189.097,138.59h-53.869c-23.258,0-42.18,18.922-42.18,42.18s18.922,42.181,42.18,42.181h21.318
		C160.827,236.862,173.8,247,189.097,247c18.775,0,34.05-15.274,34.05-34.049v-40.312
		C223.147,153.864,207.872,138.59,189.097,138.59z M203.147,212.951c0,7.747-6.303,14.049-14.05,14.049
		c-7.747,0-14.049-6.303-14.049-14.049c0-5.523-4.477-10-10-10h-29.82c-12.23,0-22.18-9.95-22.18-22.181
		c0-12.23,9.95-22.18,22.18-22.18h53.869c7.747,0,14.05,6.303,14.05,14.049V212.951z"/>
	<path style="fill:#333333;" d="M128.667,257.953c-4.962,0-9,4.038-9,9s4.038,9,9,9s9-4.038,9-9S133.629,257.953,128.667,257.953z"
		/>
	<path d="M157.667,266.953c0-15.991-13.009-29-29-29s-29,13.009-29,29s13.009,29,29,29S157.667,282.943,157.667,266.953z
		 M128.667,275.953c-4.962,0-9-4.038-9-9s4.038-9,9-9s9,4.038,9,9S133.629,275.953,128.667,275.953z"/>
	<path style="fill:#333333;" d="M194.813,326.2c-0.833,0-1.654,0.122-2.441,0.363c-3.536,1.081-7.382,0.123-9.997-2.494
		c-1.575-1.576-3.668-2.443-5.895-2.443c-4.595,0-8.334,3.739-8.334,8.334v38.333c0,4.595,3.739,8.333,8.334,8.333
		s8.333-3.738,8.333-8.333c0-5.523,4.477-10,10-10c4.595,0,8.334-3.738,8.334-8.333v-15.425
		C203.147,329.938,199.408,326.2,194.813,326.2z"/>
	<path d="M194.813,306.2c-0.899,0-1.796,0.042-2.688,0.127c-4.6-3.059-9.997-4.701-15.646-4.701
		c-15.624,0-28.334,12.71-28.334,28.334v38.333c0,15.623,12.71,28.333,28.334,28.333c12.608,0,23.319-8.277,26.983-19.684
		c11.406-3.665,19.684-14.375,19.684-26.983v-15.425C223.147,318.911,210.437,306.2,194.813,306.2z M203.147,349.959
		c0,4.595-3.739,8.333-8.334,8.333c-5.523,0-10,4.477-10,10c0,4.595-3.738,8.333-8.333,8.333s-8.334-3.738-8.334-8.333V329.96
		c0-4.595,3.739-8.334,8.334-8.334c2.227,0,4.32,0.868,5.895,2.443c2.615,2.617,6.461,3.575,9.997,2.494
		c0.787-0.241,1.608-0.363,2.441-0.363c4.595,0,8.334,3.738,8.334,8.333V349.959z"/>
	<path style="fill:#333333;" d="M270.903,227c7.747,0,14.049-6.303,14.049-14.05c0-2.652,1.054-5.196,2.929-7.071
		c1.875-1.875,4.419-2.929,7.071-2.929l29.82,0c12.23,0,22.18-9.95,22.18-22.181c0-12.23-9.95-22.18-22.18-22.18h-53.869
		c-7.747,0-14.05,6.303-14.05,14.049v40.311C256.853,220.697,263.156,227,270.903,227z"/>
	<path d="M270.903,247c15.297,0,28.27-10.138,32.551-24.05l21.318,0c23.258,0,42.18-18.922,42.18-42.181s-18.922-42.18-42.18-42.18
		h-53.869c-18.775,0-34.05,15.274-34.05,34.049v40.311C236.853,231.725,252.128,247,270.903,247z M256.853,172.639
		c0-7.747,6.303-14.049,14.05-14.049h53.869c12.23,0,22.18,9.95,22.18,22.18c0,12.23-9.95,22.181-22.18,22.181l-29.82,0
		c-2.652,0-5.196,1.054-7.071,2.929c-1.875,1.875-2.929,4.419-2.929,7.071c0,7.747-6.303,14.05-14.049,14.05
		c-7.747,0-14.05-6.303-14.05-14.05V172.639z"/>
	<path style="fill:#333333;" d="M331.333,257.953c-4.962,0-9,4.038-9,9s4.038,9,9,9s9-4.038,9-9S336.295,257.953,331.333,257.953z"
		/>
	<path d="M331.333,237.953c-15.991,0-29,13.009-29,29s13.009,29,29,29s29-13.009,29-29S347.324,237.953,331.333,237.953z
		 M331.333,275.953c-4.962,0-9-4.038-9-9s4.038-9,9-9s9,4.038,9,9S336.295,275.953,331.333,275.953z"/>
	<path style="fill:#333333;" d="M283.521,321.626c-2.227,0-4.32,0.868-5.895,2.443c-2.615,2.616-6.461,3.573-9.997,2.494
		c-0.787-0.241-1.608-0.363-2.441-0.363c-4.595,0-8.334,3.738-8.334,8.333v15.425c0,4.595,3.739,8.333,8.334,8.333
		c5.523,0,10,4.477,10,10c0,4.595,3.738,8.333,8.333,8.333s8.334-3.738,8.334-8.333V329.96
		C291.854,325.365,288.116,321.626,283.521,321.626z"/>
	<path d="M283.521,301.626c-5.649,0-11.046,1.643-15.646,4.701c-0.892-0.084-1.789-0.127-2.688-0.127
		c-15.624,0-28.334,12.71-28.334,28.333v15.425c0,12.608,8.278,23.319,19.684,26.983c3.665,11.406,14.375,19.684,26.983,19.684
		c15.624,0,28.334-12.71,28.334-28.333V329.96C311.854,314.336,299.144,301.626,283.521,301.626z M291.854,368.292
		c0,4.595-3.739,8.333-8.334,8.333s-8.333-3.738-8.333-8.333c0-5.523-4.477-10-10-10c-4.595,0-8.334-3.738-8.334-8.333v-15.425
		c0-4.595,3.739-8.333,8.334-8.333c0.833,0,1.654,0.122,2.441,0.363c3.536,1.079,7.382,0.122,9.997-2.494
		c1.575-1.576,3.668-2.443,5.895-2.443c4.595,0,8.334,3.739,8.334,8.334V368.292z"/>
</g>
<g>
</g>
<g>
</g>
<g>
</g>
<g>
</g>
<g>
</g>
<g>
</g>
<g>
</g>
<g>
</g>
<g>
</g>
<g>
</g>
<g>
</g>
<g>
</g>
<g>
</g>
<g>
</g>
<g>
</g>
</svg>
