<?xml version="1.0" encoding="iso-8859-1"?>
<!-- Generator: Adobe Illustrator 17.1.0, SVG Export Plug-In . SVG Version: 6.00 Build 0)  -->
<!DOCTYPE svg PUBLIC "-//W3C//DTD SVG 1.1//EN" "http://www.w3.org/Graphics/SVG/1.1/DTD/svg11.dtd">
<svg version="1.1" id="Capa_1" xmlns="http://www.w3.org/2000/svg" xmlns:xlink="http://www.w3.org/1999/xlink" x="0px" y="0px"
	 viewBox="0 0 460 460" style="enable-background:new 0 0 460 460;" xml:space="preserve">
<g>
	<path style="fill:#333333;" d="M395.918,204.205C395.918,84.559,310.433,20,230,20S64.082,84.559,64.082,204.205
		c0,54.719,19.388,115.155,51.862,161.668C148.834,412.981,190.406,440,230,440s81.166-27.019,114.057-74.127
		C376.531,319.36,395.918,258.923,395.918,204.205z M212.844,341.622c-0.007,0-0.014,0-0.02,0
		c-32.981,0-65.387-13.508-88.907-37.061c-25.999-26.035-39.741-61.555-39.741-102.72c0-47.858,13.735-86.596,40.823-115.137
		c20.664-21.772,49.295-36.958,80.62-42.76c4.746-0.878,9.436,1.753,11.16,6.257c1.725,4.504-0.012,9.597-4.128,12.11
		c-43.636,26.64-72.781,81.849-68.975,129.761l33.485,31.225l18.123-20.806c2.642-3.033,6.842-4.187,10.663-2.932
		c3.821,1.256,6.517,4.678,6.844,8.687l9.947,121.915c0.07,0.477,0.106,0.965,0.106,1.461
		C222.844,337.145,218.367,341.622,212.844,341.622z M247.177,341.622c-2.793,0-5.46-1.168-7.354-3.223
		c-1.893-2.054-2.841-4.806-2.614-7.591l10-122.562c0.327-4.008,3.023-7.431,6.844-8.687c3.821-1.255,8.022-0.1,10.663,2.932
		l18.123,20.806l33.485-31.225c3.806-47.911-25.339-103.121-68.976-129.761c-4.116-2.513-5.853-7.606-4.128-12.11
		c1.724-4.505,6.419-7.14,11.16-6.257c31.325,5.802,59.956,20.988,80.62,42.76c27.088,28.542,40.823,67.279,40.823,115.138
		c0,41.162-13.743,76.682-39.742,102.718C312.562,328.113,280.157,341.622,247.177,341.622z"/>
	<path d="M359.451,55.662c-17.117-17.733-37.112-31.591-59.429-41.19C277.693,4.869,254.135,0,230,0s-47.693,4.869-70.022,14.472
		c-22.317,9.599-42.312,23.457-59.429,41.19c-36.414,37.725-56.467,90.479-56.467,148.542c0,59.534,20.215,122.632,55.463,173.117
		C136.229,429.865,183.778,460,230,460s93.771-30.135,130.456-82.678c35.248-50.485,55.463-113.583,55.463-173.117
		C415.918,146.141,395.865,93.387,359.451,55.662z M230,440c-39.594,0-81.166-27.019-114.057-74.127
		C83.469,319.36,64.082,258.923,64.082,204.205C64.082,84.559,149.567,20,230,20s165.918,64.559,165.918,184.205
		c0,54.719-19.388,115.155-51.862,161.668C311.166,412.981,269.594,440,230,440z"/>
	<path style="fill:#E5E5E5;" d="M201.926,321.028l-7.141-87.515l-9.338,10.721c-1.781,2.044-4.315,3.278-7.022,3.418
		c-2.711,0.143-5.355-0.823-7.338-2.673l-43.817-40.859c-1.739-1.621-2.843-3.809-3.115-6.17
		c-3.24-28.145,3.226-59.246,18.206-87.574c4.956-9.371,10.727-18.26,17.149-26.488c-27.792,18.677-55.334,53.461-55.334,117.952
		C104.176,274.29,152.717,315.677,201.926,321.028z"/>
	<path d="M212.791,208.247c-0.327-4.008-3.023-7.431-6.844-8.687c-3.821-1.255-8.021-0.101-10.663,2.932l-18.123,20.806
		l-33.485-31.225c-3.806-47.912,25.339-103.121,68.975-129.761c4.117-2.513,5.853-7.606,4.128-12.11
		c-1.724-4.504-6.414-7.135-11.16-6.257c-31.325,5.802-59.956,20.988-80.62,42.76c-27.088,28.541-40.823,67.279-40.823,115.137
		c0,41.165,13.742,76.685,39.741,102.72c23.52,23.553,55.925,37.061,88.907,37.061c0.006,0,0.013,0,0.02,0c5.523,0,10-4.477,10-10
		c0-0.496-0.036-0.984-0.106-1.461L212.791,208.247z M159.51,83.889c-6.423,8.228-12.194,17.117-17.149,26.488
		c-14.98,28.328-21.445,59.429-18.206,87.574c0.272,2.361,1.376,4.549,3.115,6.17l43.817,40.859c1.983,1.85,4.627,2.816,7.338,2.673
		c2.707-0.14,5.241-1.374,7.022-3.418l9.338-10.721l7.141,87.515c-49.209-5.351-97.75-46.738-97.75-119.187
		C104.176,137.35,131.718,102.566,159.51,83.889z"/>
	<path style="fill:#E5E5E5;" d="M300.49,83.89c6.423,8.228,12.194,17.116,17.149,26.487c14.98,28.328,21.445,59.429,18.206,87.574
		c-0.272,2.361-1.376,4.549-3.115,6.17l-43.817,40.859c-1.982,1.849-4.632,2.816-7.338,2.673c-2.707-0.14-5.241-1.374-7.022-3.418
		l-9.338-10.721l-7.141,87.515c49.209-5.351,97.75-46.738,97.75-119.187C355.824,137.351,328.282,102.567,300.49,83.89z"/>
	<path d="M335.001,86.704c-20.664-21.772-49.295-36.958-80.62-42.76c-4.741-0.883-9.436,1.752-11.16,6.257
		c-1.725,4.504,0.012,9.597,4.128,12.11c43.637,26.64,72.781,81.85,68.976,129.761l-33.485,31.225l-18.123-20.806
		c-2.641-3.032-6.842-4.187-10.663-2.932c-3.821,1.256-6.517,4.678-6.844,8.687l-10,122.562c-0.227,2.785,0.721,5.537,2.614,7.591
		c1.894,2.054,4.56,3.223,7.354,3.223c32.979,0,65.384-13.509,88.905-37.063c25.999-26.036,39.742-61.556,39.742-102.718
		C375.824,153.983,362.089,115.245,335.001,86.704z M258.074,321.028l7.141-87.515l9.338,10.721
		c1.781,2.044,4.315,3.278,7.022,3.418c2.707,0.144,5.356-0.824,7.338-2.673l43.817-40.859c1.739-1.621,2.843-3.809,3.115-6.17
		c3.24-28.145-3.226-59.246-18.206-87.574c-4.956-9.371-10.726-18.26-17.149-26.487c27.792,18.677,55.334,53.461,55.334,117.952
		C355.824,274.29,307.283,315.677,258.074,321.028z"/>
</g>
<g>
</g>
<g>
</g>
<g>
</g>
<g>
</g>
<g>
</g>
<g>
</g>
<g>
</g>
<g>
</g>
<g>
</g>
<g>
</g>
<g>
</g>
<g>
</g>
<g>
</g>
<g>
</g>
<g>
</g>
</svg>
