<?xml version="1.0" encoding="iso-8859-1"?>
<!-- Generator: Adobe Illustrator 17.1.0, SVG Export Plug-In . SVG Version: 6.00 Build 0)  -->
<!DOCTYPE svg PUBLIC "-//W3C//DTD SVG 1.1//EN" "http://www.w3.org/Graphics/SVG/1.1/DTD/svg11.dtd">
<svg version="1.1" id="Capa_1" xmlns="http://www.w3.org/2000/svg" xmlns:xlink="http://www.w3.org/1999/xlink" x="0px" y="0px"
	 viewBox="0 0 460 460" style="enable-background:new 0 0 460 460;" xml:space="preserve">
<g>
	<path style="fill:#A1CE57;" d="M426.076,362.743h-27.635H61.559H33.923c-7.677,0-13.923,6.246-13.923,13.923
		s6.246,13.923,13.923,13.923h392.153c7.678,0,13.924-6.246,13.924-13.923S433.754,362.743,426.076,362.743z"/>
	<path d="M426.076,342.743h-17.635v-72.919c0-5.242-4.035-9.534-9.167-9.958v-41.182c0-93.338-75.937-169.274-169.274-169.274
		c-93.338,0-169.275,75.936-169.275,169.274v41.182c-5.132,0.425-9.167,4.716-9.167,9.958v72.919H33.923
		C15.218,342.743,0,357.961,0,376.667s15.218,33.923,33.923,33.923h392.153c18.706,0,33.924-15.218,33.924-33.923
		S444.782,342.743,426.076,342.743z M426.076,390.59H33.923c-7.677,0-13.923-6.246-13.923-13.923s6.246-13.923,13.923-13.923h27.635
		h336.883h27.635c7.678,0,13.924,6.246,13.924,13.923S433.754,390.59,426.076,390.59z M80.725,218.685
		c0-82.31,66.964-149.274,149.275-149.274s149.274,66.964,149.274,149.274v41.14H80.725V218.685z M71.559,321.284h114.092
		c5.523,0,10-4.477,10-10s-4.477-10-10-10H71.559v-21.459h316.883v62.919H71.559V321.284z"/>
	<path style="fill:#A1CE57;" d="M379.274,218.685c0-82.31-66.964-149.274-149.274-149.274S80.725,136.375,80.725,218.685v41.14
		h298.549V218.685z M230,233.98c-6.272,0-11.375-5.103-11.375-11.375S223.728,211.23,230,211.23c6.272,0,11.375,5.103,11.375,11.375
		S236.272,233.98,230,233.98z M240,186.169v5.756c0,5.523-4.478,10-10,10c-5.523,0-10-4.477-10-10v-14.662c0-5.523,4.477-10,10-10
		c14.339,0,26.005-11.666,26.005-26.005S244.339,115.254,230,115.254c-14.339,0-26.005,11.666-26.005,26.005c0,5.523-4.477,10-10,10
		s-10-4.477-10-10c0-25.368,20.638-46.005,46.005-46.005c25.367,0,46.005,20.638,46.005,46.005
		C276.005,163.194,260.576,181.592,240,186.169z"/>
	<path style="fill:#A1CE57;" d="M230,213.98c-4.756,0-8.625,3.869-8.625,8.625s3.869,8.625,8.625,8.625s8.625-3.869,8.625-8.625
		S234.756,213.98,230,213.98z"/>
	<path style="fill:#B772ED;" d="M388.441,279.824H71.559v21.459h114.092c5.523,0,10,4.477,10,10s-4.477,10-10,10H71.559v21.459
		h316.883V279.824z M274.02,321.284h-60.869c-5.523,0-10-4.477-10-10s4.477-10,10-10h60.869c5.522,0,10,4.477,10,10
		S279.542,321.284,274.02,321.284z"/>
	<path d="M274.02,301.284h-60.869c-5.523,0-10,4.477-10,10s4.477,10,10,10h60.869c5.522,0,10-4.477,10-10
		S279.542,301.284,274.02,301.284z"/>
	<path d="M230,211.23c-6.272,0-11.375,5.103-11.375,11.375S223.728,233.98,230,233.98c6.272,0,11.375-5.103,11.375-11.375
		S236.272,211.23,230,211.23z"/>
	<path d="M230,95.254c-25.368,0-46.005,20.638-46.005,46.005c0,5.523,4.477,10,10,10s10-4.477,10-10
		c0-14.339,11.666-26.005,26.005-26.005c14.339,0,26.005,11.666,26.005,26.005S244.339,167.264,230,167.264c-5.523,0-10,4.477-10,10
		v14.662c0,5.523,4.477,10,10,10c5.522,0,10-4.477,10-10v-5.756c20.576-4.577,36.005-22.976,36.005-44.91
		C276.005,115.892,255.367,95.254,230,95.254z"/>
</g>
<g>
</g>
<g>
</g>
<g>
</g>
<g>
</g>
<g>
</g>
<g>
</g>
<g>
</g>
<g>
</g>
<g>
</g>
<g>
</g>
<g>
</g>
<g>
</g>
<g>
</g>
<g>
</g>
<g>
</g>
</svg>
