<?xml version="1.0" encoding="iso-8859-1"?>
<!-- Generator: Adobe Illustrator 17.1.0, SVG Export Plug-In . SVG Version: 6.00 Build 0)  -->
<!DOCTYPE svg PUBLIC "-//W3C//DTD SVG 1.1//EN" "http://www.w3.org/Graphics/SVG/1.1/DTD/svg11.dtd">
<svg version="1.1" id="Capa_1" xmlns="http://www.w3.org/2000/svg" xmlns:xlink="http://www.w3.org/1999/xlink" x="0px" y="0px"
	 viewBox="0 0 460 460" style="enable-background:new 0 0 460 460;" xml:space="preserve">
<g>
	<path style="fill:#666666;" d="M230,20C149.567,20,64.082,84.559,64.082,204.205c0,60.411,40.239,155.609,76.218,200.366
		C161.298,430.693,200.404,440,230,440s68.702-9.307,89.7-35.429c35.979-44.757,76.218-139.955,76.218-200.366
		C395.918,84.559,310.433,20,230,20z M217.768,195.865v80.309v20c0,5.523-4.478,10-10,10s-10-4.477-10-10v-4.165
		c-16.727,10.77-27.264,29.448-27.264,50.006V389.5c0,3.908-2.276,7.457-5.827,9.088c-1.335,0.613-2.758,0.912-4.171,0.912
		c-2.348,0-4.67-0.826-6.52-2.416c-3.638-3.126-6.936-6.519-9.802-10.083C113.457,348.774,79.22,268.889,79.22,215.376
		c0-32.034,7.177-61.32,21.331-87.046c13.135-23.873,32.079-43.735,54.786-57.438c3.09-1.864,6.942-1.919,10.083-0.146
		c3.142,1.773,5.084,5.101,5.084,8.708v50.568c0,20.559,10.537,39.237,27.264,50.007v-4.165c0-5.523,4.478-10,10-10s10,4.477,10,10
		V195.865z M315.815,387c-2.866,3.565-6.164,6.958-9.802,10.084c-1.85,1.59-4.172,2.416-6.52,2.416
		c-1.413,0-2.836-0.299-4.171-0.912c-3.551-1.631-5.827-5.18-5.827-9.088v-47.484c0-20.558-10.537-39.236-27.264-50.006v4.165
		c0,5.523-4.478,10-10,10s-10-4.477-10-10v-20v-80.309v-20c0-5.523,4.478-10,10-10s10,4.477,10,10v4.165
		c16.727-10.77,27.264-29.448,27.264-50.007V79.455c0-3.607,1.942-6.935,5.084-8.708c3.143-1.774,6.993-1.717,10.083,0.146
		c22.707,13.703,41.651,33.565,54.787,57.438c14.153,25.726,21.33,55.012,21.33,87.046C380.78,268.889,346.543,348.774,315.815,387z
		"/>
	<path d="M359.451,55.662c-17.117-17.733-37.111-31.591-59.429-41.19C277.693,4.869,254.135,0,230,0s-47.693,4.869-70.022,14.472
		c-22.317,9.599-42.312,23.457-59.429,41.19C64.136,93.387,44.082,146.14,44.082,204.205c0,66.353,42.493,165.454,80.63,212.896
		C146.304,443.963,185.664,460,230,460s83.696-16.037,105.288-42.899c38.137-47.442,80.63-146.544,80.63-212.896
		C415.918,146.14,395.864,93.387,359.451,55.662z M230,440c-29.596,0-68.702-9.307-89.7-35.429
		c-35.979-44.757-76.218-139.955-76.218-200.366C64.082,84.559,149.567,20,230,20s165.918,64.559,165.918,184.205
		c0,60.411-40.239,155.609-76.218,200.366C298.702,430.693,259.596,440,230,440z"/>
	<path style="fill:#FFFFFF;" d="M360.78,215.376c0-48.431-18.474-89.972-51.284-116.693v31.34c0,31.681-18.717,60.032-47.264,72.67
		v16.544l72.123-30.249c2.96-1.242,6.33-0.986,9.068,0.68c2.738,1.667,4.512,4.546,4.768,7.743
		c2.046,25.506-12.437,49.293-36.036,59.191c-7.29,3.058-14.967,4.608-22.815,4.608c-9.548,0-18.822-2.308-27.107-6.583v14.719
		c28.547,12.638,47.264,40.989,47.264,72.669v19.717C335.3,323.016,360.78,258.176,360.78,215.376z"/>
	<path d="M359.45,128.331c-13.136-23.873-32.08-43.735-54.787-57.438c-3.09-1.863-6.94-1.92-10.083-0.146
		c-3.142,1.773-5.084,5.101-5.084,8.708v50.568c0,20.559-10.537,39.237-27.264,50.007v-4.165c0-5.523-4.478-10-10-10
		s-10,4.477-10,10v20v80.309v20c0,5.523,4.478,10,10,10s10-4.477,10-10v-4.165c16.727,10.77,27.264,29.448,27.264,50.006V389.5
		c0,3.908,2.276,7.457,5.827,9.088c1.335,0.613,2.758,0.912,4.171,0.912c2.348,0,4.67-0.826,6.52-2.416
		c3.638-3.126,6.936-6.519,9.802-10.084c30.728-38.226,64.965-118.111,64.965-171.624
		C380.78,183.343,373.604,154.056,359.45,128.331z M262.232,269.346v-14.719c8.286,4.275,17.559,6.583,27.107,6.583
		c7.849,0,15.525-1.55,22.815-4.608c23.6-9.898,38.082-33.686,36.036-59.191c-0.256-3.196-2.029-6.075-4.768-7.743
		c-2.738-1.666-6.108-1.921-9.068-0.68l-72.123,30.249v-16.544c28.547-12.638,47.264-40.989,47.264-72.67v-31.34
		c32.811,26.722,51.284,68.262,51.284,116.693c0,42.8-25.48,107.64-51.284,146.356v-19.717
		C309.496,310.335,290.779,281.984,262.232,269.346z M271.638,236.98l54.931-23.038c-3.385,10.703-11.314,19.672-22.149,24.216
		c-4.827,2.024-9.9,3.051-15.079,3.051C283.112,241.209,277.06,239.73,271.638,236.98z"/>
	<path style="fill:#FFFFFF;" d="M197.768,269.346v-14.981c-8.086,4.118-17.113,6.345-26.407,6.345
		c-7.726,0-15.281-1.526-22.457-4.536c-23.231-9.743-37.486-33.158-35.472-58.264c0.256-3.196,2.029-6.075,4.769-7.742
		c2.737-1.667,6.109-1.921,9.067-0.68l70.5,29.569v-16.364c-28.547-12.638-47.264-40.989-47.264-72.67v-31.34
		c-32.811,26.722-51.284,68.262-51.284,116.693c0,42.8,25.48,107.639,51.284,146.356v-19.717
		C150.504,310.335,169.221,281.984,197.768,269.346z"/>
	<path style="fill:#A1CE57;" d="M156.638,237.73c4.714,1.977,9.667,2.979,14.723,2.979c5.94,0,11.718-1.378,16.916-3.946
		l-53.137-22.286C138.512,224.754,146.192,233.349,156.638,237.73z"/>
	<path style="fill:#A1CE57;" d="M304.419,238.158c10.835-4.544,18.765-13.513,22.149-24.216l-54.931,23.038
		c5.422,2.75,11.475,4.229,17.702,4.229C294.519,241.209,299.592,240.183,304.419,238.158z"/>
	<path d="M207.768,165.865c-5.522,0-10,4.477-10,10v4.165c-16.727-10.77-27.264-29.448-27.264-50.007V79.455
		c0-3.607-1.942-6.935-5.084-8.708c-3.141-1.773-6.993-1.718-10.083,0.146c-22.707,13.703-41.651,33.565-54.786,57.438
		c-14.154,25.726-21.331,55.012-21.331,87.046c0,53.512,34.237,133.397,64.965,171.624c2.866,3.565,6.164,6.958,9.802,10.083
		c1.85,1.59,4.172,2.416,6.52,2.416c1.413,0,2.836-0.299,4.171-0.912c3.551-1.631,5.827-5.18,5.827-9.088v-47.484
		c0-20.558,10.537-39.236,27.264-50.006v4.165c0,5.523,4.478,10,10,10s10-4.477,10-10v-20v-80.309v-20
		C217.768,170.342,213.29,165.865,207.768,165.865z M150.504,361.732C124.7,323.016,99.22,258.176,99.22,215.376
		c0-48.431,18.474-89.971,51.284-116.693v31.34c0,31.681,18.717,60.032,47.264,72.67v16.364l-70.5-29.569
		c-2.958-1.241-6.33-0.987-9.067,0.68c-2.739,1.667-4.513,4.546-4.769,7.742c-2.015,25.106,12.24,48.521,35.472,58.264
		c7.176,3.01,14.731,4.536,22.457,4.536c9.294,0,18.321-2.227,26.407-6.345v14.981c-28.547,12.638-47.264,40.989-47.264,72.669
		V361.732z M188.276,236.764c-5.198,2.567-10.976,3.946-16.916,3.946c-5.056,0-10.009-1.002-14.723-2.979
		c-10.445-4.381-18.126-12.976-21.498-23.253L188.276,236.764z"/>
</g>
<g>
</g>
<g>
</g>
<g>
</g>
<g>
</g>
<g>
</g>
<g>
</g>
<g>
</g>
<g>
</g>
<g>
</g>
<g>
</g>
<g>
</g>
<g>
</g>
<g>
</g>
<g>
</g>
<g>
</g>
</svg>
