<?xml version="1.0" encoding="iso-8859-1"?>
<!-- Generator: Adobe Illustrator 17.1.0, SVG Export Plug-In . SVG Version: 6.00 Build 0)  -->
<!DOCTYPE svg PUBLIC "-//W3C//DTD SVG 1.1//EN" "http://www.w3.org/Graphics/SVG/1.1/DTD/svg11.dtd">
<svg version="1.1" id="Capa_1" xmlns="http://www.w3.org/2000/svg" xmlns:xlink="http://www.w3.org/1999/xlink" x="0px" y="0px"
	 viewBox="0 0 460 460" style="enable-background:new 0 0 460 460;" xml:space="preserve">
<g>
	<path style="fill:#FCC324;" d="M143.173,230.681c-1.081,2.914-0.949,6.019,0.403,9.283c3.792,9.155,17.826,19.009,39.676,19.009
		c7.227,0,11.733-1.739,14.536-3.801L143.173,230.681z"/>
	<path style="fill:#FCC324;" d="M355.833,80.769l-47.091,40.753c-2.959,2.561-7.134,3.158-10.689,1.539
		c-2.381-1.07-4.249-3.029-5.205-5.457c-0.572-1.292-22.278-48.519-62.848-93.01c-40.579,44.501-62.287,91.743-62.848,93.011
		c-0.956,2.427-2.824,4.386-5.205,5.456c-3.554,1.619-7.73,1.021-10.689-1.539l-47.092-40.753
		c-3.973,8.298-9.615,21.662-15.233,40.323c-9.49,31.526-20.841,85.033-21.023,160.904c-0.019,8.023,2.403,36.413,3.88,52.668
		l59.062,17.231c3.623,1.057,6.343,4.064,7.031,7.775L152.791,440h154.419l14.908-80.331c0.688-3.711,3.408-6.718,7.031-7.775
		l59.062-17.231c1.477-16.256,3.899-44.646,3.88-52.668c-0.183-75.872-11.534-129.378-21.023-160.904
		C365.451,102.434,359.809,89.071,355.833,80.769z M373.741,315.012c-0.466,3.99-3.275,7.314-7.132,8.439l-58.011,16.925
		l-2.228,12.007c-0.001,0.007-0.003,0.015-0.004,0.022l-11.618,62.607c-0.879,4.738-5.013,8.175-9.832,8.175h-109.83
		c-4.819,0-8.953-3.437-9.832-8.175l-13.851-74.636l-58.011-16.925c-3.857-1.125-6.666-4.449-7.132-8.439
		c-6.633-56.791,7.375-109.375,38.434-144.271c25.95-29.157,62.365-44.569,105.307-44.569s79.357,15.412,105.307,44.569
		C366.365,205.637,380.374,258.221,373.741,315.012z"/>
	<path style="fill:#FCC324;" d="M262.212,255.172c2.803,2.062,7.31,3.801,14.536,3.801c21.85,0,35.884-9.854,39.676-19.009
		c1.352-3.264,1.484-6.369,0.403-9.283L262.212,255.172z"/>
	<path style="fill:#F37D22;" d="M367.157,59.58c-1.572-2.43-4.12-4.06-6.985-4.469c-2.862-0.405-5.766,0.445-7.956,2.338
		L305.38,97.982c-10.221-19.521-33.129-58.814-68.205-94.947C235.292,1.095,232.704,0,230,0s-5.292,1.095-7.175,3.035
		c-35.07,36.127-57.981,75.425-68.204,94.947l-46.837-40.533c-2.189-1.895-5.095-2.747-7.956-2.338
		c-2.865,0.409-5.413,2.039-6.985,4.469c-1.82,2.813-44.568,70.643-44.934,222.368c-0.029,12.175,4.404,59.347,4.592,61.349
		c0.385,4.081,3.221,7.513,7.155,8.661l59.684,17.413l15.302,82.455c0.879,4.738,5.013,8.175,9.832,8.175h171.049
		c4.819,0,8.953-3.437,9.832-8.175l15.302-82.455l59.684-17.413c3.935-1.148,6.771-4.581,7.155-8.661
		c0.188-2.002,4.622-49.174,4.592-61.349C411.725,130.222,368.977,62.393,367.157,59.58z M388.21,334.664l-59.062,17.231
		c-3.623,1.057-6.343,4.064-7.031,7.775L307.209,440H152.791l-14.908-80.331c-0.688-3.711-3.408-6.718-7.031-7.775L71.79,334.664
		c-1.477-16.255-3.899-44.645-3.88-52.668c0.183-75.872,11.534-129.378,21.023-160.904c5.618-18.662,11.26-32.025,15.233-40.323
		l47.092,40.753c2.958,2.561,7.135,3.158,10.689,1.539c2.381-1.07,4.249-3.029,5.205-5.456c0.562-1.268,22.27-48.509,62.848-93.011
		c40.57,44.491,62.275,91.718,62.848,93.01c0.956,2.428,2.824,4.387,5.205,5.457c3.556,1.619,7.73,1.022,10.689-1.539l47.091-40.753
		c3.975,8.302,9.617,21.665,15.233,40.323c9.49,31.526,20.841,85.033,21.023,160.904
		C392.109,290.017,389.687,318.408,388.21,334.664z"/>
	<path style="fill:#FFFFFF;" d="M230,146.171c-37.072,0-68.32,13.094-90.367,37.865c-26.097,29.322-38.404,73.538-34.177,122.101
		l57.456,16.763c3.623,1.057,6.343,4.064,7.031,7.775l1.802,9.708h14.97v-4.139c0-5.523,4.477-10,10-10s10,4.477,10,10v4.139H220
		v-4.139c0-5.523,4.477-10,10-10s10,4.477,10,10v4.139h13.285v-4.139c0-5.523,4.477-10,10-10s10,4.477,10,10v4.139h14.97
		l1.802-9.708c0.688-3.711,3.408-6.718,7.031-7.775l57.456-16.763c4.227-48.563-8.08-92.779-34.177-122.101
		C298.32,159.265,267.072,146.171,230,146.171z M183.251,278.973c-27.437,0-50.264-12.308-58.153-31.355
		c-5.307-12.811-2.476-26.458,7.572-36.506c2.935-2.934,7.376-3.75,11.163-2.053l72.366,32.452c4.136,1.855,6.507,6.26,5.778,10.734
		C220.469,261.489,210.435,278.973,183.251,278.973z M227.458,303.792c0,5.523-4.477,10-10,10s-10-4.477-10-10v-13.409
		c0-5.523,4.477-10,10-10s10,4.477,10,10V303.792z M252.542,303.792c0,5.523-4.477,10-10,10s-10-4.477-10-10v-13.409
		c0-5.523,4.477-10,10-10s10,4.477,10,10V303.792z M327.33,211.111c10.048,10.048,12.878,23.695,7.572,36.506
		c-7.89,19.048-30.716,31.355-58.153,31.355c-27.184,0-37.217-17.484-38.725-26.729c-0.729-4.474,1.642-8.879,5.778-10.734
		l72.366-32.452C319.953,207.361,324.396,208.177,327.33,211.111z"/>
	<path style="fill:#FFFFFF;" d="M273.285,360.383v4.14c0,5.523-4.477,10-10,10s-10-4.477-10-10v-4.14H240v4.14
		c0,5.523-4.477,10-10,10s-10-4.477-10-10v-4.14h-13.285v4.14c0,5.523-4.477,10-10,10s-10-4.477-10-10v-4.14h-11.258l7.944,42.805
		h93.2l7.944-42.805H273.285z"/>
	<path style="fill:#F74F10;" d="M230,126.171c-42.942,0-79.357,15.412-105.307,44.569c-31.058,34.896-45.066,87.481-38.434,144.271
		c0.466,3.99,3.275,7.314,7.132,8.439l58.011,16.925l13.851,74.636c0.879,4.738,5.013,8.175,9.832,8.175h109.83
		c4.819,0,8.953-3.437,9.832-8.175l11.618-62.607c0.001-0.007,0.003-0.015,0.004-0.022l2.228-12.007l58.011-16.925
		c3.857-1.125,6.666-4.449,7.132-8.439c6.633-56.791-7.375-109.375-38.434-144.271C309.357,141.583,272.942,126.171,230,126.171z
		 M183.4,403.188l-7.944-42.805h11.258v4.14c0,5.523,4.477,10,10,10s10-4.477,10-10v-4.14H220v4.14c0,5.523,4.477,10,10,10
		s10-4.477,10-10v-4.14h13.285v4.14c0,5.523,4.477,10,10,10s10-4.477,10-10v-4.14h11.258l-7.944,42.805H183.4z M354.544,306.138
		L297.088,322.9c-3.623,1.057-6.343,4.064-7.031,7.775l-1.802,9.708h-14.97v-4.139c0-5.523-4.477-10-10-10s-10,4.477-10,10v4.139
		H240v-4.139c0-5.523-4.477-10-10-10s-10,4.477-10,10v4.139h-13.285v-4.139c0-5.523-4.477-10-10-10s-10,4.477-10,10v4.139h-14.97
		l-1.802-9.708c-0.688-3.711-3.408-6.718-7.031-7.775l-57.456-16.763c-4.227-48.563,8.08-92.779,34.177-122.101
		c22.047-24.771,53.295-37.865,90.367-37.865s68.32,13.094,90.367,37.865C346.464,213.358,358.771,257.574,354.544,306.138z"/>
	<path style="fill:#F74F10;" d="M243.801,241.51c-4.136,1.855-6.507,6.26-5.778,10.734c1.508,9.245,11.542,26.729,38.725,26.729
		c27.437,0,50.264-12.308,58.153-31.355c5.307-12.811,2.476-26.458-7.572-36.506c-2.934-2.935-7.377-3.75-11.163-2.053
		L243.801,241.51z M316.424,239.964c-3.792,9.155-17.826,19.009-39.676,19.009c-7.227,0-11.733-1.739-14.536-3.801l54.615-24.491
		C317.908,233.595,317.776,236.7,316.424,239.964z"/>
	<path style="fill:#F74F10;" d="M221.977,252.244c0.729-4.474-1.642-8.879-5.778-10.734l-72.366-32.452
		c-3.787-1.697-8.228-0.88-11.163,2.053c-10.048,10.048-12.878,23.695-7.572,36.506c7.89,19.048,30.716,31.355,58.153,31.355
		C210.435,278.973,220.469,261.489,221.977,252.244z M143.576,239.964c-1.352-3.264-1.484-6.369-0.403-9.283l54.615,24.491
		c-2.803,2.062-7.31,3.801-14.536,3.801C161.401,258.973,147.368,249.12,143.576,239.964z"/>
	<path style="fill:#F74F10;" d="M217.458,280.383c-5.523,0-10,4.477-10,10v13.409c0,5.523,4.477,10,10,10s10-4.477,10-10v-13.409
		C227.458,284.86,222.981,280.383,217.458,280.383z"/>
	<path style="fill:#F74F10;" d="M242.542,280.383c-5.523,0-10,4.477-10,10v13.409c0,5.523,4.477,10,10,10s10-4.477,10-10v-13.409
		C252.542,284.86,248.065,280.383,242.542,280.383z"/>
</g>
<g>
</g>
<g>
</g>
<g>
</g>
<g>
</g>
<g>
</g>
<g>
</g>
<g>
</g>
<g>
</g>
<g>
</g>
<g>
</g>
<g>
</g>
<g>
</g>
<g>
</g>
<g>
</g>
<g>
</g>
</svg>
