<?xml version="1.0" encoding="iso-8859-1"?>
<!-- Generator: Adobe Illustrator 17.1.0, SVG Export Plug-In . SVG Version: 6.00 Build 0)  -->
<!DOCTYPE svg PUBLIC "-//W3C//DTD SVG 1.1//EN" "http://www.w3.org/Graphics/SVG/1.1/DTD/svg11.dtd">
<svg version="1.1" id="Capa_1" xmlns="http://www.w3.org/2000/svg" xmlns:xlink="http://www.w3.org/1999/xlink" x="0px" y="0px"
	 viewBox="0 0 460 460" style="enable-background:new 0 0 460 460;" xml:space="preserve">
<g>
	<polygon style="fill:#B3B3B3;" points="210.276,410.437 152.171,410.437 158.205,440 301.795,440 307.829,410.437 249.724,410.437 
			"/>
	<path style="fill:#E5E5E5;" d="M310,84.5c-18.369,0-35.25,10.383-45.561,27.557c0.673,0.587,1.331,1.19,1.974,1.81
		c0.239,0.198,0.474,0.406,0.698,0.631c0.224,0.224,0.432,0.458,0.63,0.697c9.117,9.446,14.742,22.282,14.742,36.415
		c0,28.939-23.544,52.482-52.483,52.482c-14.137,0-26.977-5.628-36.423-14.75c-0.236-0.196-0.467-0.401-0.688-0.622
		c-0.22-0.22-0.424-0.45-0.619-0.685c-9.123-9.446-14.753-22.287-14.753-36.426c0-15.768,7-29.923,18.043-39.552
		C185.25,94.883,168.369,84.5,150,84.5c-1.004,0-2.032,0.042-3.071,0.113c-16.742,25.311-31.842,60.956-31.842,107.232v50.324
		v62.985c9.879,9.271,22.14,14.347,34.913,14.347c21.506,0,41.044-14.374,50.21-36.763l-0.012-20.839
		c0-16.396,13.313-29.729,29.675-29.729c16.39,0,29.724,13.334,29.724,29.724l0.019,20.364C268.697,304.938,288.305,319.5,310,319.5
		c12.773,0,25.034-5.076,34.913-14.347v-62.985v-50.324c0-46.276-15.1-81.921-31.842-107.232C312.032,84.542,311.004,84.5,310,84.5z
		"/>
	<path style="fill:#DBB0FC;" d="M364.913,254.784v54.523v81.13h47.636C410.614,318.774,388.096,266.747,364.913,254.784z"/>
	<path d="M412.026,284.588c-12.283-28.684-28.749-46.426-47.113-51.144v-41.6c0-61.848-24.495-106.51-47.02-134.506
		c0,0-0.001-0.001-0.001-0.001c-0.97-1.206-1.936-2.386-2.897-3.53c-0.378-0.452-0.76-0.892-1.14-1.339
		c-0.32-0.375-0.642-0.76-0.961-1.128c-0.116-0.135-0.236-0.265-0.352-0.399C294.885,30.6,275.474,16.076,258.436,7.87
		C248.061,2.825,238.266,0,230,0s-18.061,2.825-28.436,7.87c-17.038,8.206-36.449,22.73-54.105,43.071
		c-0.117,0.134-0.236,0.265-0.352,0.399c-0.319,0.368-0.641,0.753-0.961,1.128c-0.38,0.447-0.762,0.887-1.14,1.339
		c-0.96,1.144-1.927,2.324-2.896,3.529c0,0-0.001,0.001-0.001,0.001c-22.525,27.996-47.02,72.658-47.02,134.506v41.6
		c-18.365,4.718-34.831,22.459-47.113,51.144c-13.321,31.109-20.657,72.251-20.657,115.849c0,5.523,4.477,10,10,10h67.77h26.672
		L140.242,452c0.95,4.656,5.046,8,9.798,8H309.96c4.752,0,8.848-3.344,9.798-8l8.482-41.563h26.672h67.77c5.523,0,10-4.477,10-10
		C432.683,356.839,425.347,315.697,412.026,284.588z M95.087,309.307v81.13H47.451c1.935-71.663,24.453-123.69,47.636-135.653
		V309.307z M230,20c13.844,0,43.162,15.699,68.612,45.443c-21.053,3.52-39.673,16.711-51.477,36.559
		c-0.243-0.084-0.49-0.156-0.734-0.237c-0.39-0.128-0.779-0.258-1.172-0.378c-0.328-0.1-0.659-0.189-0.989-0.282
		c-0.944-0.266-1.897-0.509-2.861-0.722c-0.184-0.041-0.367-0.089-0.551-0.128c-0.434-0.091-0.873-0.168-1.311-0.249
		c-0.358-0.066-0.715-0.134-1.074-0.192c-0.405-0.066-0.813-0.123-1.221-0.179c-0.414-0.058-0.829-0.111-1.245-0.159
		c-0.37-0.042-0.74-0.082-1.112-0.116c-0.5-0.047-1.001-0.082-1.502-0.115c-0.302-0.019-0.602-0.043-0.905-0.057
		c-0.817-0.038-1.635-0.062-2.455-0.062s-1.638,0.024-2.455,0.062c-0.303,0.014-0.604,0.038-0.905,0.057
		c-0.502,0.032-1.003,0.068-1.502,0.115c-0.372,0.034-0.743,0.074-1.112,0.116c-0.416,0.048-0.831,0.101-1.245,0.159
		c-0.408,0.057-0.816,0.114-1.221,0.179c-0.359,0.059-0.717,0.126-1.074,0.192c-0.438,0.081-0.877,0.157-1.311,0.249
		c-0.185,0.039-0.367,0.087-0.551,0.128c-0.964,0.214-1.917,0.456-2.861,0.722c-0.33,0.093-0.661,0.182-0.989,0.282
		c-0.394,0.119-0.782,0.249-1.172,0.378c-0.244,0.081-0.491,0.153-0.734,0.237c-11.804-19.848-30.424-33.039-51.477-36.559
		C186.838,35.699,216.156,20,230,20z M262.483,151.609c0,17.911-14.572,32.482-32.483,32.482c-5.318,0-10.337-1.293-14.772-3.568
		c-6.067-3.112-11.03-8.075-14.142-14.142c-2.275-4.436-3.568-9.454-3.568-14.772c0-12.079,6.633-22.632,16.442-28.229
		c0.341-0.194,0.684-0.383,1.031-0.564c0.223-0.117,0.446-0.233,0.672-0.345c0.508-0.25,1.021-0.491,1.541-0.714
		c0.062-0.027,0.122-0.056,0.184-0.082c0.593-0.25,1.194-0.478,1.8-0.692c0.15-0.053,0.301-0.102,0.452-0.153
		c0.514-0.173,1.033-0.334,1.555-0.481c0.12-0.034,0.239-0.07,0.36-0.103c1.29-0.347,2.601-0.613,3.928-0.799
		c0.155-0.022,0.31-0.04,0.465-0.059c0.512-0.064,1.027-0.115,1.543-0.155c0.174-0.013,0.348-0.029,0.523-0.04
		c0.66-0.04,1.322-0.066,1.986-0.066s1.326,0.026,1.986,0.066c0.175,0.011,0.349,0.027,0.523,0.04
		c0.516,0.04,1.031,0.091,1.543,0.155c0.155,0.02,0.311,0.038,0.465,0.059c1.326,0.186,2.638,0.452,3.928,0.799
		c0.121,0.033,0.24,0.069,0.36,0.103c0.522,0.147,1.041,0.308,1.555,0.481c0.151,0.051,0.302,0.1,0.452,0.153
		c0.606,0.214,1.207,0.442,1.8,0.692c0.062,0.026,0.122,0.056,0.184,0.082c0.52,0.223,1.033,0.464,1.541,0.714
		c0.146,0.072,0.29,0.148,0.435,0.223c0.079,0.041,0.159,0.081,0.238,0.122c0.347,0.181,0.69,0.37,1.031,0.564
		c5.491,3.133,9.982,7.817,12.874,13.456C261.19,141.272,262.483,146.291,262.483,151.609z M115.087,390.437v-60.44
		c10.667,6.209,22.589,9.504,34.913,9.504c18.927,0,36.654-7.803,50.198-21.209v72.146H115.087z M301.795,440H158.205l-6.033-29.563
		h58.104h39.448h58.104L301.795,440z M239.685,358.23l0.029,32.207h-19.444l-0.072-128.544c0-5.362,4.34-9.724,9.675-9.724
		c5.362,0,9.724,4.362,9.724,9.733l0.02,22.245c0,0.002,0,0.004,0,0.006L239.685,358.23z M344.913,390.437h-85.198l-0.066-72.288
		C273.195,331.647,290.968,339.5,310,339.5c12.324,0,24.247-3.295,34.913-9.504V390.437z M344.913,242.168v62.985
		c-9.879,9.271-22.14,14.347-34.913,14.347c-21.695,0-41.303-14.563-50.384-37.243l-0.019-20.364
		c0-16.39-13.334-29.724-29.724-29.724c-16.363,0-29.675,13.334-29.675,29.729l0.012,20.839
		C191.044,305.126,171.506,319.5,150,319.5c-12.773,0-25.034-5.076-34.913-14.347v-62.985v-50.324
		c0-46.276,15.1-81.921,31.842-107.232c1.039-0.07,2.067-0.113,3.071-0.113c18.369,0,35.25,10.383,45.561,27.557
		c-11.044,9.629-18.043,23.784-18.043,39.552c0,14.138,5.63,26.979,14.753,36.426c0.428,0.443,0.864,0.879,1.307,1.307
		c9.446,9.122,22.286,14.75,36.423,14.75c28.939,0,52.483-23.543,52.483-52.482c0-14.133-5.625-26.969-14.742-36.415
		c-0.435-0.45-0.877-0.893-1.328-1.328c-0.642-0.62-1.301-1.223-1.974-1.81C274.75,94.883,291.631,84.5,310,84.5
		c1.004,0,2.032,0.042,3.071,0.113c16.742,25.311,31.842,60.956,31.842,107.232V242.168z M364.913,390.437v-81.13v-54.523
		c23.183,11.963,45.701,63.991,47.636,135.653H364.913z"/>
	<path style="fill:#DBB0FC;" d="M47.451,390.437h47.636v-81.13v-54.523C71.904,266.747,49.386,318.774,47.451,390.437z"/>
	<path style="fill:#DE021B;" d="M239.121,156.631c-1.953,1.953-4.512,2.929-7.071,2.929s-5.119-0.976-7.071-2.929
		c-3.905-3.905-3.905-10.237,0-14.143l19.794-19.794c-0.145-0.074-0.289-0.151-0.435-0.223c-0.508-0.25-1.021-0.491-1.541-0.714
		c-0.062-0.027-0.122-0.056-0.184-0.082c-0.593-0.25-1.194-0.478-1.8-0.692c-0.15-0.053-0.301-0.102-0.452-0.153
		c-0.514-0.173-1.033-0.334-1.555-0.481c-0.12-0.034-0.239-0.07-0.36-0.103c-1.29-0.347-2.601-0.613-3.928-0.799
		c-0.155-0.022-0.31-0.04-0.465-0.059c-0.512-0.064-1.027-0.115-1.543-0.155c-0.174-0.013-0.348-0.029-0.523-0.04
		c-0.66-0.04-1.322-0.066-1.986-0.066s-1.326,0.026-1.986,0.066c-0.175,0.011-0.349,0.027-0.523,0.04
		c-0.516,0.04-1.031,0.091-1.543,0.155c-0.155,0.02-0.311,0.038-0.465,0.059c-1.326,0.186-2.638,0.452-3.928,0.799
		c-0.121,0.033-0.24,0.069-0.36,0.103c-0.522,0.147-1.041,0.308-1.555,0.481c-0.151,0.051-0.302,0.1-0.452,0.153
		c-0.606,0.214-1.207,0.442-1.8,0.692c-0.062,0.026-0.122,0.056-0.184,0.082c-0.52,0.223-1.033,0.464-1.541,0.714
		c-0.226,0.112-0.449,0.228-0.672,0.345c-0.347,0.181-0.69,0.37-1.031,0.564c-9.81,5.596-16.442,16.149-16.442,28.229
		c0,5.318,1.293,10.337,3.568,14.772l2.074-2.074c3.905-3.904,10.237-3.905,14.142,0c3.905,3.905,3.905,10.237,0,14.142
		l-2.074,2.073c4.435,2.275,9.454,3.568,14.772,3.568c17.911,0,32.483-14.572,32.483-32.482c0-5.318-1.293-10.337-3.568-14.772
		L239.121,156.631z"/>
	<path style="fill:#FFFFFF;" d="M266.413,113.867c0.451,0.435,0.893,0.877,1.328,1.328c-0.198-0.239-0.406-0.473-0.63-0.697
		C266.887,114.274,266.653,114.066,266.413,113.867z"/>
	<path style="fill:#FFFFFF;" d="M224.978,156.631c1.953,1.953,4.512,2.929,7.071,2.929s5.119-0.976,7.071-2.929l19.794-19.794
		c-2.893-5.639-7.383-10.324-12.874-13.456c-0.341-0.194-0.684-0.383-1.031-0.564c-0.079-0.041-0.158-0.081-0.238-0.122
		l-19.794,19.794C221.073,146.394,221.073,152.726,224.978,156.631z"/>
	<path style="fill:#FFFFFF;" d="M193.577,189.342c-0.443-0.428-0.879-0.863-1.307-1.307c0.195,0.235,0.399,0.465,0.619,0.685
		C193.11,188.941,193.341,189.146,193.577,189.342z"/>
	<path style="fill:#FFFFFF;" d="M217.302,164.308c-3.905-3.905-10.237-3.905-14.142,0l-2.074,2.074
		c3.112,6.067,8.075,11.03,14.142,14.142l2.074-2.073C221.207,174.545,221.207,168.213,217.302,164.308z"/>
	<path style="fill:#DBB0FC;" d="M239.598,261.902c0-5.371-4.362-9.733-9.724-9.733c-5.335,0-9.675,4.362-9.675,9.724l0.072,128.544
		h19.444l-0.029-32.207l-0.068-74.078c0-0.002,0-0.004,0-0.006L239.598,261.902z"/>
	<path style="fill:#B772ED;" d="M212.864,102.002c0.243-0.084,0.49-0.156,0.734-0.237c0.39-0.128,0.779-0.258,1.172-0.378
		c0.328-0.1,0.659-0.189,0.989-0.282c0.944-0.266,1.897-0.509,2.861-0.722c0.184-0.041,0.367-0.089,0.551-0.128
		c0.434-0.091,0.873-0.168,1.311-0.249c0.358-0.066,0.715-0.134,1.074-0.192c0.405-0.066,0.813-0.123,1.221-0.179
		c0.414-0.058,0.829-0.111,1.245-0.159c0.37-0.042,0.74-0.082,1.112-0.116c0.5-0.047,1.001-0.082,1.502-0.115
		c0.302-0.019,0.602-0.043,0.905-0.057c0.817-0.038,1.635-0.062,2.455-0.062s1.638,0.024,2.455,0.062
		c0.303,0.014,0.604,0.038,0.905,0.057c0.502,0.032,1.003,0.068,1.502,0.115c0.372,0.034,0.743,0.074,1.112,0.116
		c0.416,0.048,0.831,0.101,1.245,0.159c0.408,0.057,0.816,0.114,1.221,0.179c0.359,0.059,0.717,0.126,1.074,0.192
		c0.438,0.081,0.877,0.157,1.311,0.249c0.185,0.039,0.367,0.087,0.551,0.128c0.964,0.214,1.917,0.456,2.861,0.722
		c0.33,0.093,0.661,0.182,0.989,0.282c0.394,0.119,0.782,0.249,1.172,0.378c0.244,0.081,0.491,0.153,0.734,0.237
		c11.804-19.848,30.424-33.039,51.477-36.559C273.162,35.699,243.844,20,230,20s-43.162,15.699-68.612,45.443
		C182.44,68.963,201.061,82.154,212.864,102.002z"/>
	<path style="fill:#B772ED;" d="M200.198,318.291C186.654,331.697,168.927,339.5,150,339.5c-12.324,0-24.247-3.295-34.913-9.504
		v60.44h85.111V318.291z"/>
	<path style="fill:#B772ED;" d="M259.649,318.148l0.066,72.288h85.198v-60.44c-10.667,6.209-22.589,9.504-34.913,9.504
		C290.968,339.5,273.195,331.647,259.649,318.148z"/>
</g>
<g>
</g>
<g>
</g>
<g>
</g>
<g>
</g>
<g>
</g>
<g>
</g>
<g>
</g>
<g>
</g>
<g>
</g>
<g>
</g>
<g>
</g>
<g>
</g>
<g>
</g>
<g>
</g>
<g>
</g>
</svg>
