<?xml version="1.0" encoding="iso-8859-1"?>
<!-- Generator: Adobe Illustrator 17.1.0, SVG Export Plug-In . SVG Version: 6.00 Build 0)  -->
<!DOCTYPE svg PUBLIC "-//W3C//DTD SVG 1.1//EN" "http://www.w3.org/Graphics/SVG/1.1/DTD/svg11.dtd">
<svg version="1.1" id="Capa_1" xmlns="http://www.w3.org/2000/svg" xmlns:xlink="http://www.w3.org/1999/xlink" x="0px" y="0px"
	 viewBox="0 0 460 460" style="enable-background:new 0 0 460 460;" xml:space="preserve">
<g>
	<path d="M460,230c0-22.577-24.756-41.858-71.591-55.759c-4.623-1.372-9.419-2.673-14.357-3.909
		c2.617-4.365,5.088-8.676,7.387-12.916c23.288-42.947,27.159-74.086,11.195-90.05c-6.423-6.423-15.386-9.679-26.641-9.679
		c-19.422,0-46.146,10.254-76.31,28.323c-1.241-4.959-2.547-9.776-3.925-14.419C271.858,24.756,252.577,0,230,0
		c-22.577,0-41.858,24.756-55.759,71.591c-1.378,4.643-2.684,9.459-3.925,14.418c-30.164-18.069-56.888-28.323-76.31-28.323
		c-11.255,0-20.218,3.256-26.641,9.679C51.401,83.33,55.272,114.469,78.56,157.416c2.299,4.239,4.77,8.55,7.387,12.916
		c-4.937,1.236-9.733,2.537-14.356,3.909C24.756,188.142,0,207.423,0,230s24.756,41.858,71.591,55.759
		c4.623,1.372,9.419,2.673,14.356,3.909c-2.617,4.365-5.088,8.676-7.387,12.916c-23.288,42.947-27.159,74.086-11.195,90.051
		c6.423,6.422,15.386,9.679,26.641,9.679c19.422,0,46.146-10.254,76.31-28.323c1.241,4.959,2.547,9.776,3.925,14.418
		C188.142,435.244,207.423,460,230,460c22.577,0,41.858-24.756,55.76-71.591c1.378-4.643,2.684-9.459,3.925-14.418
		c30.163,18.069,56.887,28.323,76.31,28.323c11.255,0,20.218-3.256,26.641-9.679c15.964-15.964,12.093-47.103-11.195-90.05
		c-2.299-4.239-4.77-8.55-7.387-12.916c4.937-1.236,9.733-2.537,14.357-3.909C435.244,271.858,460,252.577,460,230z M365.994,77.687
		c5.758,0,9.963,1.286,12.498,3.821c6.389,6.389,6.389,27.605-14.634,66.375c-3.156,5.82-6.64,11.781-10.427,17.852
		c-16.117-3.18-33.452-5.706-51.631-7.535c-1.828-18.173-4.353-35.503-7.532-51.616C324.106,87.939,349.524,77.687,365.994,77.687z
		 M276.179,341.443c-10.081-7.019-20.321-14.725-30.622-23.036c5.116-4.443,10.242-9.027,15.365-13.742
		c6.95-0.285,13.823-0.666,20.605-1.14C280.12,316.717,278.331,329.408,276.179,341.443z M178.473,303.524
		c6.782,0.474,13.656,0.855,20.606,1.14c5.122,4.715,10.248,9.299,15.365,13.742c-10.301,8.311-20.542,16.017-30.623,23.036
		C181.669,329.408,179.88,316.717,178.473,303.524z M183.821,118.557c10.081,7.019,20.321,14.725,30.623,23.036
		c-5.116,4.443-10.242,9.027-15.365,13.742c-6.95,0.285-13.823,0.666-20.606,1.14C179.88,143.283,181.669,130.592,183.821,118.557z
		 M281.527,156.476c-6.782-0.474-13.656-0.855-20.605-1.14c-5.122-4.715-10.248-9.3-15.365-13.742
		c10.301-8.311,20.541-16.017,30.622-23.036C278.331,130.592,280.12,143.283,281.527,156.476z M285.298,230
		c0,7.658-0.12,15.251-0.35,22.76c-5.147,5.472-10.431,10.926-15.846,16.341c-5.42,5.42-10.878,10.696-16.354,15.846
		c-7.505,0.23-15.094,0.35-22.748,0.35s-15.243-0.12-22.748-0.35c-5.476-5.151-10.934-10.427-16.354-15.846
		c-5.415-5.415-10.699-10.869-15.846-16.341c-0.23-7.509-0.35-15.102-0.35-22.76c0-7.658,0.12-15.251,0.35-22.761
		c5.147-5.472,10.43-10.926,15.845-16.341c5.42-5.42,10.878-10.696,16.354-15.846c7.505-0.23,15.094-0.35,22.748-0.35
		s15.243,0.12,22.748,0.35c5.476,5.151,10.934,10.427,16.354,15.846c5.415,5.415,10.699,10.869,15.846,16.341
		C285.178,214.749,285.298,222.342,285.298,230z M283.244,176.756c-0.042-0.042-0.083-0.082-0.125-0.124
		c0.077,0.006,0.153,0.012,0.23,0.018c0.006,0.077,0.012,0.153,0.018,0.23C283.326,176.839,283.286,176.797,283.244,176.756z
		 M230.172,154.703c-0.057,0-0.115,0-0.172,0c-0.057,0-0.114,0-0.172,0c0.057-0.049,0.115-0.097,0.172-0.146
		C230.058,154.605,230.115,154.653,230.172,154.703z M176.88,176.632c-0.042,0.041-0.083,0.082-0.125,0.124
		s-0.082,0.083-0.124,0.125c0.006-0.077,0.012-0.153,0.018-0.23C176.727,176.644,176.803,176.638,176.88,176.632z M155.336,199.072
		c-4.711,5.115-9.302,10.243-13.761,15.373c-8.341-10.332-16.056-20.579-23.048-30.619c12.044-2.155,24.745-3.946,37.949-5.354
		C156.002,185.253,155.621,192.125,155.336,199.072z M154.703,229.823c0,0.059-0.001,0.118-0.001,0.177s0.001,0.118,0.001,0.177
		c-0.051-0.059-0.1-0.118-0.151-0.177C154.602,229.941,154.652,229.882,154.703,229.823z M155.336,260.927
		c0.285,6.948,0.666,13.819,1.14,20.599c-13.204-1.408-25.905-3.199-37.949-5.354c6.993-10.04,14.708-20.287,23.048-30.619
		C146.034,250.685,150.625,255.813,155.336,260.927z M176.632,283.119c0.042,0.042,0.083,0.083,0.124,0.125
		c0.042,0.042,0.083,0.082,0.125,0.124c-0.077-0.006-0.154-0.012-0.231-0.018C176.644,283.273,176.638,283.196,176.632,283.119z
		 M229.828,305.297c0.057,0,0.115,0,0.172,0s0.114,0,0.172,0c-0.057,0.049-0.115,0.097-0.172,0.146
		C229.943,305.395,229.885,305.347,229.828,305.297z M283.12,283.368c0.042-0.041,0.083-0.082,0.125-0.124s0.082-0.083,0.124-0.125
		c-0.006,0.077-0.012,0.153-0.018,0.23C283.273,283.356,283.197,283.362,283.12,283.368z M304.664,260.928
		c4.711-5.115,9.302-10.243,13.761-15.373c8.341,10.332,16.056,20.579,23.048,30.619c-12.044,2.155-24.745,3.946-37.949,5.354
		C303.999,274.747,304.379,267.875,304.664,260.928z M305.297,230.177c0-0.059,0.001-0.118,0.001-0.177s-0.001-0.118-0.001-0.177
		c0.051,0.059,0.1,0.118,0.151,0.177C305.398,230.059,305.348,230.118,305.297,230.177z M304.664,199.072
		c-0.285-6.947-0.666-13.819-1.14-20.599c13.204,1.408,25.905,3.199,37.949,5.354c-6.993,10.04-14.707,20.287-23.048,30.619
		C313.966,209.315,309.375,204.187,304.664,199.072z M193.414,77.282C205.963,35.002,220.966,20,230,20s24.037,15.002,36.586,57.282
		c1.889,6.365,3.645,13.063,5.264,20.055c-13.55,9.077-27.603,19.524-41.85,31.153c-14.247-11.629-28.3-22.076-41.85-31.153
		C189.769,90.345,191.525,83.647,193.414,77.282z M96.142,147.882c-21.023-38.77-21.022-59.986-14.634-66.375
		c2.535-2.536,6.74-3.821,12.498-3.821c16.47,0,41.889,10.252,71.726,28.897c-3.179,16.113-5.704,33.443-7.532,51.616
		c-18.179,1.829-35.514,4.355-51.631,7.535C102.781,159.663,99.298,153.702,96.142,147.882z M77.282,266.586
		C35.002,254.037,20,239.034,20,230s15.002-24.037,57.282-36.586c6.347-1.884,13.025-3.635,19.996-5.25
		c9.148,13.645,19.619,27.689,31.18,41.836c-11.561,14.147-22.032,28.191-31.18,41.836C90.307,270.221,83.629,268.47,77.282,266.586
		z M94.006,382.313c-5.758,0-9.963-1.286-12.498-3.821c-6.389-6.388-6.389-27.604,14.634-66.375
		c3.156-5.82,6.64-11.781,10.427-17.852c16.117,3.18,33.452,5.706,51.631,7.535c1.828,18.173,4.353,35.503,7.532,51.616
		C135.895,372.061,110.476,382.313,94.006,382.313z M266.586,382.718C254.037,424.998,239.034,440,230,440
		s-24.037-15.002-36.586-57.282c-1.889-6.365-3.645-13.063-5.264-20.055c13.55-9.077,27.603-19.524,41.85-31.153
		c14.247,11.628,28.299,22.076,41.849,31.153C270.231,369.655,268.475,376.353,266.586,382.718z M363.858,312.118
		c21.022,38.77,21.022,59.986,14.634,66.375c-2.535,2.535-6.74,3.821-12.498,3.821c-16.469,0-41.888-10.252-71.725-28.896
		c3.179-16.113,5.704-33.443,7.532-51.616c18.179-1.829,35.513-4.355,51.631-7.535C357.219,300.337,360.702,306.298,363.858,312.118
		z M362.722,271.836c-9.148-13.645-19.619-27.689-31.18-41.836c11.561-14.147,22.032-28.191,31.18-41.836
		c6.971,1.615,13.649,3.366,19.996,5.25C424.998,205.963,440,220.966,440,230s-15.002,24.037-57.282,36.586
		C376.371,268.47,369.693,270.221,362.722,271.836z"/>
</g>
<g>
</g>
<g>
</g>
<g>
</g>
<g>
</g>
<g>
</g>
<g>
</g>
<g>
</g>
<g>
</g>
<g>
</g>
<g>
</g>
<g>
</g>
<g>
</g>
<g>
</g>
<g>
</g>
<g>
</g>
</svg>
