<?xml version="1.0" encoding="iso-8859-1"?>
<!-- Generator: Adobe Illustrator 17.1.0, SVG Export Plug-In . SVG Version: 6.00 Build 0)  -->
<!DOCTYPE svg PUBLIC "-//W3C//DTD SVG 1.1//EN" "http://www.w3.org/Graphics/SVG/1.1/DTD/svg11.dtd">
<svg version="1.1" id="Capa_1" xmlns="http://www.w3.org/2000/svg" xmlns:xlink="http://www.w3.org/1999/xlink" x="0px" y="0px"
	 viewBox="0 0 459.493 459.493" style="enable-background:new 0 0 459.493 459.493;" xml:space="preserve">
<g>
	<path style="fill:#00335E;" d="M229.746,217.706l154.83-107.461C353.929,56.397,296.011,20,229.746,20
		s-124.183,36.397-154.83,90.245L229.746,217.706z"/>
	<polygon style="fill:#00335E;" points="407.769,252.728 351.114,252.728 360.126,390 407.769,390 	"/>
	<polygon style="fill:#00335E;" points="51.724,390 99.367,390 108.379,252.728 51.724,252.728 	"/>
	<path d="M427.692,192.591c-0.023-0.863-0.065-1.723-0.099-2.584c-0.036-0.888-0.067-1.776-0.114-2.661
		c-0.062-1.184-0.143-2.364-0.225-3.544c-0.035-0.491-0.067-0.983-0.106-1.474c-0.113-1.454-0.244-2.904-0.388-4.351
		c-0.011-0.109-0.022-0.218-0.033-0.327c-2.429-24.007-9.162-47.083-20.147-68.819c-0.155-0.307-0.328-0.603-0.512-0.89
		C373.224,43.914,306.517,0,229.746,0S86.269,43.914,53.425,107.94c-0.184,0.287-0.356,0.583-0.512,0.89
		c-10.984,21.737-17.718,44.812-20.147,68.819c-0.011,0.109-0.022,0.218-0.033,0.327c-0.144,1.447-0.275,2.897-0.388,4.351
		c-0.039,0.49-0.071,0.982-0.106,1.474c-0.083,1.18-0.163,2.36-0.225,3.544c-0.047,0.885-0.079,1.773-0.114,2.661
		c-0.034,0.861-0.076,1.721-0.099,2.584c-0.049,1.805-0.077,3.615-0.077,5.432v44.706V400v40c0,1.611,0.383,3.14,1.066,4.496
		c1.503,2.982,4.458,5.124,7.987,5.459l99.836,9.492c1.713,0.165,3.423-0.12,4.971-0.801c0.929-0.408,1.798-0.959,2.575-1.641
		c2.071-1.819,3.299-4.413,3.395-7.168l3.437-99.534h149.512l3.436,99.534c0.095,2.755,1.323,5.349,3.395,7.168
		c1.603,1.409,3.602,2.256,5.697,2.446c0.299,0.027,0.6,0.041,0.903,0.041c0.315,0,0.631-0.015,0.947-0.045l99.836-9.492
		c3.529-0.335,6.485-2.478,7.987-5.459c0.683-1.355,1.066-2.884,1.066-4.496v-40V242.728v-44.706
		C427.769,196.206,427.74,194.396,427.692,192.591z M155.688,330.303l3.21-93.148l21.339,14.633l-4.862,3.334
		c-0.273,0.188-0.536,0.388-0.787,0.599c-1.759,1.482-2.962,3.534-3.387,5.815c-0.486,2.607,0.083,5.301,1.583,7.488l20.36,29.689
		c0.195,0.285,0.403,0.556,0.621,0.814c1.965,2.322,4.816,3.552,7.705,3.532c1.364-0.01,2.734-0.307,4.026-0.891
		c0.532-0.24,1.053-0.521,1.551-0.863l22.699-15.566l22.7,15.566c4.553,3.124,10.778,1.964,13.902-2.591l20.36-29.689
		c1.5-2.188,2.07-4.881,1.583-7.488c-0.121-0.652-0.306-1.285-0.55-1.892c-0.73-1.819-1.985-3.398-3.625-4.523l-4.862-3.334
		l21.339-14.634l3.21,93.148H155.688z M229.746,20c66.265,0,124.183,36.397,154.83,90.245l-154.83,107.461L74.916,110.245
		C105.564,56.397,163.481,20,229.746,20z M319.956,218.261c-0.126-3.647-2.229-6.937-5.487-8.582
		c-2.85-1.439-6.189-1.419-8.996-0.01c-0.401,0.202-0.791,0.432-1.167,0.689l-48.388,33.182c-2.719,1.865-4.345,4.95-4.345,8.247
		s1.625,6.382,4.345,8.247l8.641,5.926l-9.049,13.195l-20.108-13.789c-0.426-0.292-0.869-0.548-1.325-0.767
		c-3.19-1.534-7.004-1.278-9.986,0.767l-20.108,13.789l-9.049-13.195l8.641-5.925c2.379-1.632,3.921-4.198,4.269-7.022
		c0.05-0.404,0.075-0.813,0.075-1.225c0-3.297-1.625-6.382-4.345-8.247l-48.388-33.182c-3.01-2.064-6.905-2.325-10.163-0.68
		s-5.361,4.934-5.487,8.582l-7.605,220.271l-80.208-7.626V410l57.008,0c5.269,0,9.633-4.088,9.979-9.345l10.325-157.271
		c0.181-2.76-0.789-5.472-2.68-7.491c-1.891-2.019-4.533-3.165-7.299-3.165H51.724v-34.706c0-24.303,4.758-47.696,14.161-69.7
		l158.16,109.771c3.429,2.38,7.975,2.38,11.403,0l158.16-109.772c9.403,22.005,14.161,45.398,14.161,69.701v34.706h-67.333
		c-2.766,0-5.408,1.146-7.299,3.165c-1.891,2.019-2.861,4.73-2.68,7.491l10.325,157.272c0.345,5.257,4.71,9.345,9.979,9.345h57.008
		v20.906l-80.208,7.626L319.956,218.261z M99.367,390H51.724V252.728h56.655L99.367,390z M351.114,252.728h56.655V390l-47.643,0
		L351.114,252.728z"/>
	<path style="fill:#E5E5E5;" d="M279.256,251.789l4.862,3.334c1.64,1.125,2.895,2.704,3.625,4.523
		c0.243,0.606,0.428,1.24,0.55,1.892c0.486,2.607-0.083,5.301-1.583,7.488l-20.36,29.689c-3.124,4.555-9.349,5.715-13.902,2.591
		l-22.7-15.566l-22.699,15.566c-0.498,0.342-1.019,0.623-1.551,0.863c-1.292,0.584-2.662,0.881-4.026,0.891
		c-2.889,0.02-5.74-1.21-7.705-3.532c-0.218-0.258-0.426-0.529-0.621-0.814l-20.36-29.689c-1.5-2.188-2.07-4.881-1.583-7.488
		c0.425-2.281,1.628-4.333,3.387-5.815c0.251-0.211,0.514-0.412,0.787-0.599l4.862-3.334l-21.339-14.633l-3.21,93.148h148.117
		l-3.21-93.148L279.256,251.789z"/>
	<path style="fill:#ED1B24;" d="M407.769,430.906V410h-57.008c-5.269,0-9.633-4.087-9.979-9.345l-10.325-157.272
		c-0.181-2.76,0.789-5.472,2.68-7.491c1.891-2.019,4.533-3.165,7.299-3.165h67.333v-34.706c0-24.303-4.758-47.696-14.161-69.701
		l-158.16,109.772c-3.429,2.38-7.975,2.38-11.403,0L65.885,128.322c-9.403,22.004-14.161,45.397-14.161,69.7v34.706h67.333
		c2.766,0,5.408,1.146,7.299,3.165c1.891,2.019,2.861,4.73,2.68,7.491L118.71,400.655c-0.345,5.257-4.71,9.345-9.979,9.345
		l-57.008,0v20.906l80.208,7.626l7.605-220.271c0.126-3.647,2.229-6.937,5.487-8.582s7.153-1.384,10.163,0.68l48.388,33.182
		c2.719,1.865,4.345,4.95,4.345,8.247c0,0.412-0.025,0.821-0.075,1.225c-0.348,2.825-1.89,5.391-4.269,7.022l-8.641,5.925
		l9.049,13.195l20.108-13.789c2.981-2.045,6.796-2.3,9.986-0.767c0.456,0.219,0.899,0.475,1.325,0.767l20.108,13.789l9.049-13.195
		l-8.641-5.926c-2.719-1.865-4.345-4.95-4.345-8.247s1.625-6.382,4.345-8.247l48.388-33.182c0.376-0.258,0.766-0.488,1.167-0.689
		c2.806-1.41,6.145-1.429,8.996,0.01c3.258,1.645,5.361,4.934,5.487,8.582l7.604,220.271L407.769,430.906z"/>
</g>
<g>
</g>
<g>
</g>
<g>
</g>
<g>
</g>
<g>
</g>
<g>
</g>
<g>
</g>
<g>
</g>
<g>
</g>
<g>
</g>
<g>
</g>
<g>
</g>
<g>
</g>
<g>
</g>
<g>
</g>
</svg>
