<?xml version="1.0" encoding="iso-8859-1"?>
<!-- Generator: Adobe Illustrator 17.1.0, SVG Export Plug-In . SVG Version: 6.00 Build 0)  -->
<!DOCTYPE svg PUBLIC "-//W3C//DTD SVG 1.1//EN" "http://www.w3.org/Graphics/SVG/1.1/DTD/svg11.dtd">
<svg version="1.1" id="Capa_1" xmlns="http://www.w3.org/2000/svg" xmlns:xlink="http://www.w3.org/1999/xlink" x="0px" y="0px"
	 viewBox="0 0 460 460" style="enable-background:new 0 0 460 460;" xml:space="preserve">
<g>
	<path style="fill:#333333;" d="M88.743,74.601L230.1,215.958l69.847-69.847l71.414-71.415C332.614,39.348,282.795,20,230,20
		C177.251,20,127.475,39.314,88.743,74.601z"/>
	<path style="fill:#09D6DE;" d="M146.121,299.937l69.837-69.837L74.603,88.745C1.896,168.635,1.936,291.503,74.698,371.36
		L146.121,299.937z"/>
	<path style="fill:#333333;" d="M299.866,314.009L230.1,244.242L88.849,385.493c38.713,35.22,88.455,54.502,141.154,54.506
		c0.003,0,0.014,0,0.018,0c52.738,0.002,102.504-19.312,141.236-54.6L299.866,314.009z"/>
	<path style="fill:#09D6DE;" d="M385.491,88.851L244.242,230.1l141.155,141.155C458.012,291.449,458.055,168.703,385.491,88.851z"/>
	<path d="M460,230.069c0.018-61.344-23.824-119.033-67.133-162.464c-0.007-0.007-0.013-0.015-0.02-0.022
		c-0.056-0.058-0.139-0.142-0.213-0.217C349.193,23.925,291.435,0,230,0C168.564,0,110.807,23.925,67.365,67.365
		C23.924,110.807,0,168.565,0,230s23.924,119.193,67.372,162.641c0.032,0.032,0.103,0.101,0.15,0.147
		c0.003,0.003,0.007,0.006,0.01,0.009c43.417,43.331,101.112,67.197,162.468,67.202c0.008,0,0.012,0,0.02,0
		c61.419,0,119.168-23.921,162.608-67.358c0.002-0.002,0.005-0.004,0.007-0.006C436.057,349.212,459.982,291.478,460,230.069z
		 M244.242,230.1L385.491,88.851c72.564,79.852,72.521,202.599-0.094,282.404L244.242,230.1z M299.946,146.111L230.1,215.958
		L88.743,74.601C127.475,39.314,177.251,20,230,20c52.796,0,102.614,19.348,141.361,54.696L299.946,146.111z M74.603,88.745
		L215.958,230.1l-69.837,69.837L74.698,371.36C1.936,291.503,1.896,168.635,74.603,88.745z M230.002,439.999
		c-52.699-0.004-102.441-19.286-141.154-54.506L230.1,244.242l69.767,69.767l71.39,71.391
		c-38.732,35.288-88.498,54.602-141.236,54.6C230.017,439.999,230.006,439.999,230.002,439.999z"/>
</g>
<g>
</g>
<g>
</g>
<g>
</g>
<g>
</g>
<g>
</g>
<g>
</g>
<g>
</g>
<g>
</g>
<g>
</g>
<g>
</g>
<g>
</g>
<g>
</g>
<g>
</g>
<g>
</g>
<g>
</g>
</svg>
