<?xml version="1.0" encoding="iso-8859-1"?>
<!-- Generator: Adobe Illustrator 17.1.0, SVG Export Plug-In . SVG Version: 6.00 Build 0)  -->
<!DOCTYPE svg PUBLIC "-//W3C//DTD SVG 1.1//EN" "http://www.w3.org/Graphics/SVG/1.1/DTD/svg11.dtd">
<svg version="1.1" id="Capa_1" xmlns="http://www.w3.org/2000/svg" xmlns:xlink="http://www.w3.org/1999/xlink" x="0px" y="0px"
	 viewBox="0 0 460 460" style="enable-background:new 0 0 460 460;" xml:space="preserve">
<g>
	<path style="fill:#FCC324;" d="M230,20C114.206,20,20,114.206,20,230s94.206,210,210,210s210-94.206,210-210S345.794,20,230,20z
		 M129.662,70.454c0.688-2.563,2.365-4.748,4.665-6.074c29.108-16.781,62.253-25.651,95.85-25.651
		c33.357,0,66.345,8.86,95.396,25.623c2.298,1.325,3.975,3.509,4.661,6.071c0.688,2.562,0.329,5.291-0.996,7.588l-42.143,73.041
		c-1.327,2.299-3.513,3.976-6.076,4.662c-2.562,0.686-5.293,0.326-7.592-1.003c-13.14-7.598-28.157-11.614-43.428-11.614
		c-15.287,0-30.319,4.025-43.472,11.64c-1.536,0.889-3.267,1.346-5.011,1.346c-0.864,0-1.731-0.112-2.581-0.339
		c-2.563-0.685-4.75-2.361-6.078-4.659l-42.196-73.039C129.335,75.748,128.976,73.017,129.662,70.454z M190.229,318.944
		l-42.143,73.041c-1.853,3.209-5.215,5.004-8.672,5.004c-1.695,0-3.413-0.432-4.987-1.34
		c-29.592-17.073-54.077-41.731-70.812-71.309c-16.237-28.701-24.842-61.301-24.883-94.275c-0.003-2.654,1.049-5.2,2.924-7.078
		c1.875-1.878,4.42-2.934,7.073-2.935l84.365-0.024c0.001,0,0.002,0,0.003,0c2.651,0,5.194,1.053,7.069,2.927
		c1.876,1.875,2.93,4.418,2.931,7.07c0.009,30.924,16.667,59.763,43.475,75.264C191.35,308.052,192.986,314.163,190.229,318.944z
		 M161.5,230c0-37.771,30.729-68.5,68.5-68.5s68.5,30.729,68.5,68.5s-30.729,68.5-68.5,68.5S161.5,267.771,161.5,230z
		 M325.673,395.62c-1.573,0.907-3.29,1.338-4.984,1.338c-3.456,0-6.816-1.792-8.669-4.999l-42.196-73.039
		c-2.761-4.779-1.128-10.891,3.648-13.657c26.76-15.494,43.396-44.288,43.432-75.162c-0.001-0.044-0.001-0.087-0.001-0.13
		c0-5.521,4.476-9.999,9.997-10l84.365-0.024c0.001,0,0.002,0,0.003,0c5.519,0,9.993,4.469,10,9.988
		c0.041,33.447-8.817,66.518-25.618,95.638C378.849,354.692,354.651,378.914,325.673,395.62z"/>
	<path d="M392.635,67.366C349.193,23.924,291.436,0,230,0S110.807,23.924,67.365,67.366C23.924,110.807,0,168.565,0,230
		s23.924,119.193,67.365,162.634C110.807,436.076,168.564,460,230,460s119.193-23.924,162.635-67.366
		C436.076,349.193,460,291.435,460,230S436.076,110.807,392.635,67.366z M230,440c-115.794,0-210-94.206-210-210S114.206,20,230,20
		s210,94.206,210,210S345.794,440,230,440z"/>
	<path style="fill:#333333;" d="M185.407,132.824c13.921-6.385,29.154-9.727,44.593-9.727c15.418,0,30.632,3.332,44.537,9.701
		l32.234-55.868c-23.784-11.934-50.062-18.201-76.595-18.201c-26.752,0-53.186,6.279-77.043,18.232L185.407,132.824z"/>
	<path d="M172.858,151.084c1.328,2.298,3.515,3.974,6.078,4.659c0.85,0.227,1.717,0.339,2.581,0.339
		c1.744,0,3.475-0.457,5.011-1.346c13.152-7.615,28.185-11.64,43.472-11.64c15.271,0,30.288,4.016,43.428,11.614
		c2.299,1.329,5.03,1.689,7.592,1.003c2.563-0.686,4.749-2.363,6.076-4.662l42.143-73.041c1.325-2.297,1.684-5.027,0.996-7.588
		c-0.687-2.562-2.363-4.746-4.661-6.071c-29.052-16.762-62.039-25.623-95.396-25.623c-33.597,0-66.741,8.87-95.85,25.651
		c-2.3,1.326-3.978,3.51-4.665,6.074c-0.687,2.563-0.327,5.294,1,7.592L172.858,151.084z M306.771,76.93l-32.234,55.868
		c-13.905-6.369-29.119-9.701-44.537-9.701c-15.438,0-30.672,3.342-44.593,9.727l-32.273-55.862
		c23.857-11.954,50.291-18.232,77.043-18.232C256.71,58.729,282.987,64.996,306.771,76.93z"/>
	<path style="fill:#333333;" d="M123.573,240.031l-64.534,0.018c3.236,53.841,31.872,103.397,76.868,133.023l32.239-55.877
		C142.855,299.202,126.507,270.9,123.573,240.031z"/>
	<path d="M186.572,305.289c-26.808-15.5-43.466-44.34-43.475-75.264c-0.001-2.652-1.055-5.195-2.931-7.07
		c-1.875-1.874-4.418-2.927-7.069-2.927c-0.001,0-0.002,0-0.003,0l-84.365,0.024c-2.653,0.001-5.198,1.056-7.073,2.935
		c-1.875,1.877-2.927,4.424-2.924,7.078c0.041,32.974,8.646,65.574,24.883,94.275c16.734,29.578,41.22,54.236,70.812,71.309
		c1.574,0.908,3.292,1.34,4.987,1.34c3.457,0,6.819-1.794,8.672-5.004l42.143-73.041
		C192.986,314.163,191.35,308.052,186.572,305.289z M59.039,240.049l64.534-0.018c2.934,30.869,19.282,59.17,44.573,77.164
		l-32.239,55.877C90.911,343.447,62.275,293.89,59.039,240.049z"/>
	<path style="fill:#333333;" d="M400.984,239.951l-64.551,0.018c-2.917,30.872-19.249,59.183-44.53,77.19l32.288,55.889
		c22.173-14.593,40.766-34.299,54.134-57.469C391.694,292.407,399.448,266.449,400.984,239.951z"/>
	<path d="M411.268,219.948c-0.001,0-0.002,0-0.003,0l-84.365,0.024c-5.521,0.001-9.997,4.479-9.997,10c0,0.042,0,0.086,0.001,0.13
		c-0.036,30.875-16.672,59.668-43.432,75.162c-4.776,2.766-6.409,8.878-3.648,13.657l42.196,73.039
		c1.853,3.207,5.213,4.999,8.669,4.999c1.694,0,3.411-0.431,4.984-1.338c28.979-16.706,53.176-40.928,69.977-70.047
		c16.801-29.12,25.659-62.191,25.618-95.638C421.261,224.417,416.786,219.948,411.268,219.948z M324.191,373.047l-32.288-55.889
		c25.281-18.007,41.613-46.318,44.53-77.19l64.551-0.018c-1.536,26.498-9.29,52.457-22.659,75.627
		C364.957,338.749,346.364,358.454,324.191,373.047z"/>
	<path style="fill:#333333;" d="M230,181.5c-26.743,0-48.5,21.757-48.5,48.5s21.757,48.5,48.5,48.5s48.5-21.757,48.5-48.5
		S256.743,181.5,230,181.5z"/>
	<path d="M298.5,230c0-37.771-30.729-68.5-68.5-68.5s-68.5,30.729-68.5,68.5s30.729,68.5,68.5,68.5S298.5,267.771,298.5,230z
		 M230,278.5c-26.743,0-48.5-21.757-48.5-48.5s21.757-48.5,48.5-48.5s48.5,21.757,48.5,48.5S256.743,278.5,230,278.5z"/>
</g>
<g>
</g>
<g>
</g>
<g>
</g>
<g>
</g>
<g>
</g>
<g>
</g>
<g>
</g>
<g>
</g>
<g>
</g>
<g>
</g>
<g>
</g>
<g>
</g>
<g>
</g>
<g>
</g>
<g>
</g>
</svg>
