<?xml version="1.0" encoding="iso-8859-1"?>
<!-- Generator: Adobe Illustrator 17.1.0, SVG Export Plug-In . SVG Version: 6.00 Build 0)  -->
<!DOCTYPE svg PUBLIC "-//W3C//DTD SVG 1.1//EN" "http://www.w3.org/Graphics/SVG/1.1/DTD/svg11.dtd">
<svg version="1.1" id="Capa_1" xmlns="http://www.w3.org/2000/svg" xmlns:xlink="http://www.w3.org/1999/xlink" x="0px" y="0px"
	 viewBox="0 0 460.002 460.002" style="enable-background:new 0 0 460.002 460.002;" xml:space="preserve">
<g>
	<path style="fill:#70AD46;" d="M124.582,321.276l-23.63-143.923l-34.379-47.099C4.212,200.916,4.604,307.912,67.732,378.126
		L124.582,321.276z"/>
	<path style="fill:#70AD46;" d="M218.284,119.99l15.173,92.412l38.242-38.242l-4.467-27.21c-0.895-5.45,2.798-10.593,8.248-11.488
		c5.447-0.897,10.593,2.797,11.488,8.248l2.141,13.041l40.339-40.339l-8.621-52.507c-16.047,4.867-31.045,10.471-43.739,19.626
		l3.896,23.73c0.895,5.45-2.797,10.593-8.248,11.488c-0.548,0.09-1.094,0.134-1.632,0.134c-4.81,0-9.051-3.48-9.855-8.381
		l-4.48-27.284L242.002,62.99C228.883,79.287,220.593,99.12,218.284,119.99z"/>
	<path style="fill:#70AD46;" d="M346.856,99.003l76.785-76.785c-6.084,2.486-13.866,6.835-22.853,11.858
		c-2.688,1.501-5.514,3.081-8.493,4.724c-16.573,9.141-34.559,14.527-52.12,19.518L346.856,99.003z"/>
	<path style="fill:#70AD46;" d="M120.46,172.73l21.531,131.137l74.056-74.056l-17.341-105.615l-38.779-53.127
		C135.41,99.365,121.505,135.016,120.46,172.73z"/>
	<path style="fill:#A1CE57;" d="M230.19,243.953l-74.056,74.057l53.539,8.791c5.45,0.895,9.143,6.038,8.248,11.488
		c-0.805,4.901-5.046,8.381-9.855,8.381c-0.539,0-1.083-0.043-1.632-0.134l-67.708-11.117l-56.852,56.852
		c34.27,30.852,78.131,47.726,124.589,47.726c45.871,0,89.214-16.454,123.289-46.567l-47.101-34.381l-39.773-6.53
		c-5.45-0.895-9.143-6.038-8.248-11.488c0.895-5.45,6.038-9.145,11.488-8.248l41.153,6.757
		c37.716-1.044,73.367-14.949,101.663-39.467l-53.127-38.779L230.19,243.953z"/>
	<path style="fill:#A1CE57;" d="M285.841,188.303l-38.242,38.242l92.413,15.173c20.87-2.309,40.703-10.599,57-23.718l-20.228-14.765
		L285.841,188.303z"/>
	<path style="fill:#A1CE57;" d="M343.588,130.555l-40.339,40.339l73.22,12.022c9.155-12.695,14.759-27.693,19.626-43.74
		L343.588,130.555z"/>
	<path style="fill:#A1CE57;" d="M437.758,36.385l-76.761,76.761l40.686,6.68c4.99-17.561,10.377-35.547,19.518-52.12
		c1.643-2.979,3.222-5.804,4.723-8.491C431.708,48.866,435.585,41.654,437.758,36.385z"/>
	<path d="M451.644,8.358L451.644,8.358C451.644,8.358,451.644,8.358,451.644,8.358l-0.001-0.001l0,0
		c-5.545-5.544-12.071-8.356-19.397-8.356c-11.484,0-23.312,6.61-41.216,16.616c-2.656,1.484-5.45,3.045-8.394,4.669
		c-15.75,8.686-34.005,13.853-51.66,18.85c-21.49,6.083-43.613,12.345-62.597,25.068l-17.491-23.962
		c-1.723-2.359-4.391-3.848-7.304-4.074c-2.907-0.224-5.779,0.833-7.845,2.899c-15.565,15.566-26.878,34.835-32.972,55.77
		l-33.824-46.338c-1.723-2.359-4.391-3.848-7.304-4.074c-2.907-0.222-5.779,0.833-7.845,2.899
		c-26.923,26.923-44.461,61.001-50.778,97.937l-27.396-37.532c-1.723-2.36-4.391-3.849-7.304-4.075
		c-2.913-0.225-5.778,0.833-7.845,2.899c-78.126,78.126-80.421,203.801-6.897,284.729L2.929,442.93
		c-3.905,3.905-3.905,10.237,0,14.143c1.953,1.953,4.512,2.929,7.071,2.929s5.119-0.976,7.071-2.929l50.643-50.643
		c38.06,34.617,86.946,53.568,138.746,53.568c55.146,0,106.992-21.476,145.987-60.47c2.065-2.066,3.125-4.932,2.899-7.845
		c-0.226-2.913-1.715-5.581-4.074-7.304l-37.532-27.396c36.935-6.317,71.013-23.856,97.936-50.778
		c2.066-2.066,3.125-4.932,2.899-7.845c-0.226-2.913-1.715-5.581-4.074-7.304l-46.338-33.824
		c20.934-6.094,40.204-17.407,55.77-32.972c2.065-2.066,3.125-4.932,2.899-7.845c-0.226-2.913-1.715-5.581-4.074-7.304
		l-23.962-17.491c12.724-18.984,18.985-41.107,25.068-62.597c4.997-17.655,10.165-35.91,18.85-51.66
		c1.624-2.943,3.185-5.737,4.669-8.392c7.12-12.741,12.744-22.804,15.203-31.648C461.81,25.728,459.54,16.254,451.644,8.358z
		 M287.269,339.54l-41.153-6.757c-5.45-0.897-10.593,2.798-11.488,8.248c-0.895,5.45,2.798,10.593,8.248,11.488l39.773,6.53
		l47.101,34.381c-34.074,30.113-77.418,46.567-123.289,46.567c-46.458,0-90.319-16.874-124.589-47.726l56.852-56.852l67.708,11.117
		c0.549,0.09,1.094,0.134,1.632,0.134c4.81,0,9.051-3.48,9.855-8.381c0.895-5.45-2.797-10.593-8.248-11.488l-53.539-8.791
		l74.056-74.057l105.615,17.341l53.127,38.779C360.636,324.591,324.984,338.497,287.269,339.54z M66.573,130.255l34.379,47.099
		l23.63,143.923l-56.85,56.85C4.604,307.912,4.212,200.916,66.573,130.255z M400.788,34.076c8.987-5.023,16.769-9.372,22.853-11.858
		l-76.785,76.785l-6.68-40.686c17.561-4.99,35.547-10.377,52.12-19.518C395.274,37.157,398.1,35.577,400.788,34.076z
		 M376.47,182.915l-73.22-12.022l40.339-40.339l52.507,8.621C391.229,155.223,385.625,170.221,376.47,182.915z M256.767,83.218
		l4.48,27.284c0.805,4.901,5.045,8.381,9.855,8.381c0.539,0,1.084-0.043,1.632-0.134c5.45-0.895,9.143-6.038,8.248-11.488
		l-3.896-23.73c12.695-9.155,27.693-14.759,43.739-19.626l8.621,52.507l-40.339,40.339l-2.141-13.041
		c-0.895-5.45-6.041-9.145-11.488-8.248c-5.45,0.895-9.143,6.038-8.248,11.488l4.467,27.21l-38.242,38.242l-15.173-92.412
		c2.309-20.87,10.599-40.703,23.718-57L256.767,83.218z M198.707,124.196l17.341,105.615l-74.056,74.056L120.46,172.73
		c1.044-37.715,14.949-73.366,39.468-101.661L198.707,124.196z M340.012,241.717l-92.413-15.173l38.242-38.242l90.942,14.932
		l20.228,14.765C380.715,231.118,360.881,239.408,340.012,241.717z M421.201,67.706c-9.141,16.573-14.527,34.559-19.518,52.12
		l-40.686-6.68l76.761-76.761c-2.173,5.269-6.05,12.481-11.833,22.83C424.424,61.902,422.844,64.727,421.201,67.706z"/>
</g>
<g>
</g>
<g>
</g>
<g>
</g>
<g>
</g>
<g>
</g>
<g>
</g>
<g>
</g>
<g>
</g>
<g>
</g>
<g>
</g>
<g>
</g>
<g>
</g>
<g>
</g>
<g>
</g>
<g>
</g>
</svg>
