<?xml version="1.0" encoding="iso-8859-1"?>
<!-- Generator: Adobe Illustrator 17.1.0, SVG Export Plug-In . SVG Version: 6.00 Build 0)  -->
<!DOCTYPE svg PUBLIC "-//W3C//DTD SVG 1.1//EN" "http://www.w3.org/Graphics/SVG/1.1/DTD/svg11.dtd">
<svg version="1.1" id="Capa_1" xmlns="http://www.w3.org/2000/svg" xmlns:xlink="http://www.w3.org/1999/xlink" x="0px" y="0px"
	 viewBox="0 0 461.727 461.727" style="enable-background:new 0 0 461.727 461.727;" xml:space="preserve">
<g>
	<path style="fill:#2D5C34;" d="M230.864,20c-16.495,0-65.1,17.87-110.06,73.108C82.176,140.566,36.258,229.09,34.689,382.488
		l97.888,20.355c6.655-13.671,20.688-23.116,36.887-23.116c19.159,0,35.285,13.211,39.761,31h43.278
		c4.476-17.789,20.603-31,39.761-31c16.199,0,30.232,9.445,36.887,23.116l97.888-20.355
		c-1.569-153.397-47.487-241.921-86.115-289.379C295.963,37.87,247.358,20,230.864,20z M378.858,274.028
		c0.002,0.005,0.003,0.01,0.005,0.015l0.003,0.008c0.021,0.051,0.035,0.104,0.055,0.155c0.025,0.063,0.046,0.128,0.069,0.192
		c0.076,0.21,0.149,0.422,0.212,0.639c0.003,0.012,0.006,0.023,0.009,0.035c0.062,0.216,0.122,0.431,0.168,0.648
		c0.002,0.008,0.003,0.017,0.005,0.025c0.021,0.098,0.033,0.199,0.051,0.298c0.032,0.175,0.067,0.35,0.089,0.526
		c0.005,0.041,0.006,0.082,0.01,0.122c0.011,0.101,0.017,0.202,0.025,0.304c0.011,0.142,0.029,0.283,0.034,0.425
		c0.003,0.08-0.002,0.16-0.001,0.24c0.001,0.05,0.008,0.099,0.008,0.149v65.433c0,5.523-4.478,10-10,10s-10-4.477-10-10v-46.764
		l-82.758,55.088c-0.036,0.024-0.077,0.04-0.113,0.064c-0.369,0.239-0.75,0.458-1.148,0.648c-0.01,0.004-0.019,0.01-0.028,0.014
		c-0.029,0.014-0.06,0.023-0.09,0.037c-0.376,0.172-0.765,0.32-1.164,0.445c-0.039,0.012-0.076,0.03-0.115,0.042
		c-0.022,0.006-0.045,0.011-0.068,0.017c-0.405,0.119-0.82,0.209-1.244,0.276c-0.039,0.006-0.076,0.019-0.114,0.024
		c-0.052,0.008-0.104,0.006-0.156,0.013c-0.427,0.056-0.86,0.094-1.301,0.094h-80.875c-0.441,0-0.873-0.039-1.301-0.094
		c-0.052-0.007-0.105-0.005-0.157-0.013c-0.039-0.006-0.076-0.018-0.115-0.024c-0.423-0.067-0.838-0.157-1.242-0.276
		c-0.023-0.007-0.046-0.011-0.069-0.018c-0.04-0.012-0.078-0.031-0.117-0.043c-0.397-0.125-0.785-0.272-1.16-0.444
		c-0.03-0.014-0.061-0.023-0.091-0.037c-0.01-0.005-0.02-0.011-0.03-0.015c-0.398-0.189-0.779-0.409-1.146-0.647
		c-0.037-0.024-0.078-0.04-0.114-0.064l-82.757-55.088v46.764c0,5.523-4.477,10-10,10s-10-4.477-10-10V277.81
		c0-0.049,0.007-0.096,0.007-0.144c0.001-0.083-0.004-0.166,0-0.249c0.005-0.136,0.022-0.272,0.033-0.408
		c0-0.003,0.001-0.007,0.001-0.011c0.008-0.101,0.013-0.202,0.024-0.301c0.005-0.044,0.006-0.087,0.011-0.131
		c0.016-0.13,0.044-0.261,0.066-0.391c0.008-0.046,0.015-0.093,0.023-0.139c0.017-0.095,0.028-0.192,0.048-0.286
		c0.002-0.012,0.005-0.023,0.007-0.035c0.026-0.123,0.064-0.245,0.095-0.367c0.04-0.155,0.073-0.311,0.121-0.465
		c0.051-0.167,0.115-0.327,0.174-0.49c0.042-0.114,0.076-0.229,0.122-0.342l0.037-0.092c0.009-0.021,0.017-0.043,0.026-0.064
		l4.746-11.714c24.274-59.949,41.813-103.264,62.018-132.983c0.322-0.474,0.647-0.931,0.97-1.397
		c0.085-0.122,0.169-0.244,0.254-0.366c0.456-0.653,0.912-1.302,1.37-1.941c0.28-0.391,0.561-0.775,0.843-1.161
		c0.3-0.41,0.598-0.827,0.899-1.23c1.697-2.286,3.413-4.478,5.155-6.57c3.991-4.795,8.11-9.063,12.381-12.833
		c0.002-0.002,0.004-0.004,0.006-0.005c0.706-0.623,1.416-1.233,2.13-1.828c0.106-0.089,0.212-0.178,0.318-0.266
		c0.598-0.494,1.199-0.977,1.803-1.452c0.19-0.15,0.379-0.303,0.57-0.451c0.473-0.366,0.949-0.721,1.426-1.075
		c11.877-8.855,24.885-14.052,39.64-15.95c0.089-0.012,0.178-0.024,0.267-0.036c0.682-0.085,1.369-0.163,2.059-0.235
		c0.276-0.029,0.552-0.057,0.83-0.084c0.584-0.056,1.17-0.108,1.76-0.154c0.409-0.032,0.821-0.06,1.233-0.087
		c0.499-0.033,0.998-0.066,1.5-0.092c0.556-0.029,1.117-0.049,1.678-0.07c0.386-0.014,0.77-0.032,1.158-0.042
		c0.969-0.025,1.943-0.04,2.927-0.04s1.958,0.015,2.927,0.04c0.388,0.01,0.772,0.028,1.158,0.042
		c0.561,0.021,1.122,0.041,1.678,0.07c0.503,0.026,1.002,0.059,1.5,0.092c0.412,0.027,0.824,0.055,1.233,0.087
		c0.59,0.046,1.176,0.098,1.76,0.154c0.277,0.027,0.554,0.055,0.83,0.084c0.69,0.072,1.376,0.149,2.059,0.235
		c0.089,0.012,0.178,0.024,0.267,0.036c14.729,1.896,27.719,7.077,39.579,15.904c0.501,0.372,1.002,0.745,1.499,1.13
		c0.176,0.137,0.351,0.279,0.527,0.417c0.619,0.486,1.235,0.981,1.848,1.488c0.095,0.078,0.189,0.158,0.284,0.237
		c5.047,4.205,9.88,9.086,14.538,14.684c1.746,2.098,3.468,4.296,5.169,6.589c0.266,0.357,0.53,0.727,0.795,1.089
		c0.318,0.436,0.636,0.87,0.953,1.313c0.438,0.611,0.874,1.232,1.31,1.856c0.11,0.158,0.22,0.316,0.33,0.475
		c0.311,0.449,0.624,0.888,0.934,1.344c20.205,29.719,37.743,73.033,62.019,132.982l4.715,11.64l0.03,0.073
		c0.009,0.021,0.018,0.043,0.027,0.065L378.858,274.028z"/>
	<path d="M419.88,200.341c-15.139-46.408-36.485-86.734-63.445-119.858C308.711,21.85,254.085,0,230.864,0
		c-23.222,0-77.848,21.85-125.571,80.483c-26.96,33.124-48.307,73.45-63.446,119.858c-18.048,55.326-27.199,119.343-27.199,190.272
		c0,4.738,3.325,8.826,7.964,9.791l105.895,22.02c0.894,21.823,18.919,39.303,40.957,39.303c19.159,0,35.285-13.211,39.761-31
		h43.278c4.476,17.789,20.603,31,39.761,31c22.038,0,40.063-17.48,40.957-39.303l105.895-22.02c4.639-0.965,7.964-5.052,7.964-9.791
		C447.079,319.684,437.928,255.667,419.88,200.341z M313.264,420.727c0,11.58-9.421,21-21,21s-21-9.42-21-21s9.421-21,21-21
		S313.264,409.147,313.264,420.727z M190.463,420.727c0,11.58-9.42,21-21,21s-21-9.42-21-21s9.42-21,21-21
		S190.463,409.147,190.463,420.727z M329.151,402.843c-6.655-13.671-20.688-23.116-36.887-23.116c-19.159,0-35.285,13.211-39.761,31
		h-43.278c-4.476-17.789-20.603-31-39.761-31c-16.199,0-30.232,9.445-36.887,23.116l-97.888-20.355
		c1.569-153.397,47.487-241.921,86.115-289.379C165.764,37.87,214.369,20,230.864,20c16.494,0,65.1,17.87,110.06,73.108
		c38.628,47.458,84.546,135.982,86.115,289.379L329.151,402.843z"/>
	<polygon style="fill:#162E1A;" points="291.805,272.85 284.479,322.458 357.249,274.018 340.781,233.699 	"/>
	<path d="M378.773,273.82l-4.715-11.64c-24.275-59.949-41.813-103.263-62.019-132.982c-0.31-0.456-0.623-0.895-0.934-1.344
		c-0.11-0.159-0.22-0.317-0.33-0.475c-0.436-0.625-0.872-1.246-1.31-1.856c-0.317-0.442-0.635-0.877-0.953-1.313
		c-0.265-0.362-0.529-0.731-0.795-1.089c-1.701-2.293-3.422-4.491-5.169-6.589c-4.658-5.598-9.491-10.479-14.538-14.684
		c-0.095-0.079-0.189-0.159-0.284-0.237c-0.613-0.507-1.229-1.002-1.848-1.488c-0.176-0.139-0.351-0.28-0.527-0.417
		c-0.497-0.385-0.997-0.758-1.499-1.13c-11.86-8.828-24.849-14.009-39.579-15.904c-0.089-0.012-0.178-0.024-0.267-0.036
		c-0.682-0.085-1.369-0.163-2.059-0.235c-0.276-0.029-0.553-0.057-0.83-0.084c-0.584-0.056-1.17-0.108-1.76-0.154
		c-0.409-0.032-0.821-0.06-1.233-0.087c-0.499-0.033-0.998-0.066-1.5-0.092c-0.556-0.029-1.117-0.049-1.678-0.07
		c-0.386-0.014-0.77-0.032-1.158-0.042c-0.969-0.025-1.943-0.04-2.927-0.04s-1.958,0.015-2.927,0.04
		c-0.388,0.01-0.772,0.028-1.158,0.042c-0.561,0.021-1.122,0.041-1.678,0.07c-0.503,0.026-1.002,0.059-1.5,0.092
		c-0.412,0.027-0.824,0.055-1.233,0.087c-0.59,0.046-1.176,0.098-1.76,0.154c-0.277,0.027-0.554,0.055-0.83,0.084
		c-0.69,0.072-1.376,0.149-2.059,0.235c-0.089,0.012-0.178,0.024-0.267,0.036c-14.755,1.898-27.763,7.095-39.64,15.95
		c-0.477,0.354-0.953,0.709-1.426,1.075c-0.191,0.148-0.38,0.301-0.57,0.451c-0.604,0.475-1.205,0.958-1.803,1.452
		c-0.106,0.088-0.212,0.177-0.318,0.266c-0.714,0.595-1.424,1.205-2.13,1.828c-0.002,0.001-0.004,0.003-0.006,0.005
		c-4.271,3.771-8.391,8.038-12.381,12.833c-1.742,2.093-3.458,4.284-5.155,6.57c-0.301,0.404-0.599,0.82-0.899,1.23
		c-0.281,0.386-0.563,0.77-0.843,1.161c-0.458,0.639-0.914,1.288-1.37,1.941c-0.085,0.122-0.169,0.244-0.254,0.366
		c-0.323,0.466-0.648,0.923-0.97,1.397c-20.205,29.719-37.744,73.034-62.018,132.983l-4.746,11.714
		c-0.009,0.021-0.017,0.042-0.026,0.064l-0.037,0.092c-0.046,0.113-0.08,0.228-0.122,0.342c-0.059,0.163-0.123,0.323-0.174,0.49
		c-0.047,0.154-0.081,0.31-0.121,0.465c-0.031,0.122-0.069,0.244-0.095,0.367c-0.002,0.012-0.005,0.023-0.007,0.035
		c-0.02,0.094-0.031,0.19-0.048,0.286c-0.008,0.046-0.016,0.092-0.023,0.139c-0.022,0.13-0.05,0.26-0.066,0.391
		c-0.005,0.044-0.007,0.087-0.011,0.131c-0.011,0.1-0.016,0.201-0.024,0.301c0,0.004-0.001,0.007-0.001,0.011
		c-0.011,0.136-0.028,0.272-0.033,0.408c-0.003,0.083,0.001,0.166,0,0.249c-0.001,0.048-0.007,0.095-0.007,0.144v65.433
		c0,5.523,4.477,10,10,10s10-4.477,10-10v-46.764l82.757,55.088c0.036,0.024,0.077,0.041,0.114,0.064
		c0.368,0.238,0.748,0.458,1.146,0.647c0.01,0.004,0.02,0.01,0.03,0.015c0.03,0.014,0.061,0.023,0.091,0.037
		c0.375,0.172,0.762,0.319,1.16,0.444c0.04,0.013,0.077,0.031,0.117,0.043c0.023,0.007,0.046,0.011,0.069,0.018
		c0.405,0.119,0.82,0.209,1.242,0.276c0.039,0.006,0.076,0.019,0.115,0.024c0.052,0.008,0.104,0.006,0.157,0.013
		c0.427,0.056,0.86,0.094,1.301,0.094h80.875c0.441,0,0.874-0.039,1.301-0.094c0.052-0.007,0.104-0.005,0.156-0.013
		c0.039-0.006,0.076-0.018,0.114-0.024c0.423-0.067,0.839-0.157,1.244-0.276c0.022-0.006,0.045-0.011,0.068-0.017
		c0.039-0.012,0.076-0.03,0.115-0.042c0.399-0.125,0.787-0.273,1.164-0.445c0.03-0.014,0.06-0.022,0.09-0.037
		c0.01-0.004,0.019-0.01,0.028-0.014c0.399-0.189,0.78-0.409,1.148-0.648c0.036-0.024,0.077-0.04,0.113-0.064l82.758-55.088v46.764
		c0,5.523,4.478,10,10,10s10-4.477,10-10V277.81c0-0.05-0.007-0.099-0.008-0.149c-0.001-0.08,0.004-0.16,0.001-0.24
		c-0.005-0.142-0.023-0.283-0.034-0.425c-0.008-0.102-0.014-0.203-0.025-0.304c-0.005-0.041-0.005-0.081-0.01-0.122
		c-0.022-0.176-0.057-0.351-0.089-0.526c-0.018-0.099-0.03-0.2-0.051-0.298c-0.002-0.008-0.003-0.017-0.005-0.025
		c-0.046-0.217-0.107-0.432-0.168-0.648c-0.003-0.012-0.006-0.023-0.009-0.035c-0.062-0.217-0.135-0.428-0.212-0.639
		c-0.023-0.064-0.044-0.129-0.069-0.192c-0.02-0.052-0.034-0.104-0.055-0.155l-0.003-0.008c-0.002-0.005-0.003-0.01-0.005-0.015
		l-0.029-0.07c-0.009-0.021-0.017-0.043-0.027-0.065L378.773,273.82z M357.249,274.018l-72.771,48.439l7.326-49.608l48.976-39.151
		L357.249,274.018z M177.247,322.458l-72.77-48.439l16.468-40.319l48.975,39.15L177.247,322.458z M199.057,333.242l-9.926-67.208
		c-0.369-2.502-1.673-4.771-3.648-6.35l-56.584-45.233c33.67-79.308,56.104-112.619,101.964-112.619
		c45.86,0,68.294,33.311,101.964,112.619l-56.584,45.233c-1.976,1.579-3.279,3.848-3.648,6.35l-9.926,67.208H199.057z"/>
	<polygon style="fill:#162E1A;" points="120.946,233.699 104.478,274.018 177.247,322.458 169.921,272.85 	"/>
	<path style="fill:#B3B3B3;" d="M272.595,266.035c0.369-2.502,1.673-4.771,3.648-6.35l56.584-45.233
		c-33.67-79.308-56.104-112.619-101.964-112.619c-45.86,0-68.294,33.311-101.964,112.619l56.584,45.233
		c1.976,1.579,3.279,3.848,3.648,6.35l9.926,67.208h63.612L272.595,266.035z M301.704,165.953c2.392,1.897,3.785,4.782,3.785,7.834
		v33.461c0,5.246-4.053,9.6-9.285,9.975l-46.101,3.303c-0.239,0.017-0.478,0.025-0.715,0.025c-2.52,0-4.957-0.952-6.813-2.681
		c-2.032-1.892-3.187-4.543-3.187-7.319v-25.994c0-4.646,3.2-8.681,7.725-9.738l46.101-10.771
		C296.183,163.356,299.313,164.056,301.704,165.953z M165.522,217.224c-5.232-0.375-9.285-4.729-9.285-9.975v-33.461
		c0-3.052,1.394-5.938,3.785-7.834c2.391-1.896,5.518-2.598,8.49-1.903l46.101,10.771c4.525,1.057,7.725,5.091,7.725,9.738v25.994
		c0,2.776-1.154,5.428-3.186,7.319c-1.857,1.729-4.294,2.681-6.813,2.681c-0.238,0-0.477-0.008-0.715-0.025L165.522,217.224z
		 M250.267,307.655h-39.813c-5.523,0-10-4.477-10-10s4.477-10,10-10h39.813c5.522,0,10,4.477,10,10S255.789,307.655,250.267,307.655
		z"/>
	<path d="M212.339,220.552c2.519,0,4.957-0.952,6.813-2.681c2.032-1.892,3.186-4.543,3.186-7.319v-25.994
		c0-4.646-3.2-8.681-7.725-9.738l-46.101-10.771c-2.972-0.694-6.099,0.007-8.49,1.903c-2.391,1.897-3.785,4.782-3.785,7.834v33.461
		c0,5.246,4.053,9.6,9.285,9.975l46.101,3.303C211.862,220.544,212.101,220.552,212.339,220.552z M176.237,186.394l26.101,6.098
		v7.318l-26.101-1.87V186.394z"/>
	<path d="M239.389,184.559v25.994c0,2.776,1.154,5.428,3.187,7.319c1.856,1.729,4.294,2.681,6.813,2.681
		c0.237,0,0.476-0.008,0.715-0.025l46.101-3.303c5.232-0.375,9.285-4.729,9.285-9.975v-33.461c0-3.052-1.394-5.938-3.785-7.834
		s-5.521-2.597-8.49-1.903l-46.101,10.771C242.589,175.878,239.389,179.912,239.389,184.559z M259.389,192.492l26.101-6.099v11.547
		l-26.101,1.87V192.492z"/>
	<path d="M250.267,287.655h-39.813c-5.523,0-10,4.477-10,10s4.477,10,10,10h39.813c5.522,0,10-4.477,10-10
		S255.789,287.655,250.267,287.655z"/>
	<path style="fill:#FDF133;" d="M169.463,399.727c-11.58,0-21,9.42-21,21s9.42,21,21,21s21-9.42,21-21
		S181.043,399.727,169.463,399.727z"/>
	<path style="fill:#FDF133;" d="M292.264,399.727c-11.579,0-21,9.42-21,21s9.421,21,21,21s21-9.42,21-21
		S303.843,399.727,292.264,399.727z"/>
</g>
<g>
</g>
<g>
</g>
<g>
</g>
<g>
</g>
<g>
</g>
<g>
</g>
<g>
</g>
<g>
</g>
<g>
</g>
<g>
</g>
<g>
</g>
<g>
</g>
<g>
</g>
<g>
</g>
<g>
</g>
</svg>
