<?xml version="1.0" encoding="iso-8859-1"?>
<!-- Generator: Adobe Illustrator 17.1.0, SVG Export Plug-In . SVG Version: 6.00 Build 0)  -->
<!DOCTYPE svg PUBLIC "-//W3C//DTD SVG 1.1//EN" "http://www.w3.org/Graphics/SVG/1.1/DTD/svg11.dtd">
<svg version="1.1" id="Capa_1" xmlns="http://www.w3.org/2000/svg" xmlns:xlink="http://www.w3.org/1999/xlink" x="0px" y="0px"
	 viewBox="0 0 460 460" style="enable-background:new 0 0 460 460;" xml:space="preserve">
<g>
	<path style="fill:#C1E3A2;" d="M358.824,376.439c32.703-39.371,50.713-91.377,50.713-146.439s-18.01-107.068-50.713-146.439
		c-16.354-19.689-35.531-35.214-56.997-46.145C279.134,25.859,254.967,20,230,20s-49.134,5.859-71.827,17.416
		c-21.466,10.931-40.643,26.456-56.997,46.145C68.473,122.932,50.463,174.938,50.463,230s18.01,107.068,50.713,146.439
		c16.354,19.689,35.531,35.214,56.997,46.145C180.866,434.141,205.033,440,230,440s49.134-5.859,71.827-17.416
		C323.293,411.654,342.47,396.128,358.824,376.439z M230,419.873c-42.936,0-83.188-19.992-113.342-56.294
		C86.95,327.814,70.59,280.375,70.59,230s16.36-97.814,46.068-133.58C146.813,60.119,187.064,40.126,230,40.126
		s83.188,19.992,113.341,56.294c29.708,35.766,46.069,83.205,46.069,133.58s-16.361,97.814-46.069,133.579
		C313.188,399.881,272.936,419.873,230,419.873z"/>
	<path d="M374.209,70.781c-18.104-21.794-39.402-39.016-63.306-51.188C285.371,6.592,258.151,0,230,0s-55.371,6.592-80.903,19.593
		c-23.903,12.172-45.202,29.394-63.306,51.188C50.112,113.735,30.463,170.28,30.463,230s19.649,116.265,55.328,159.219
		c18.104,21.794,39.402,39.016,63.306,51.188C174.629,453.408,201.849,460,230,460s55.371-6.592,80.903-19.593
		c23.903-12.172,45.202-29.394,63.306-51.188c35.679-42.954,55.328-99.499,55.328-159.219S409.888,113.735,374.209,70.781z M230,440
		c-24.967,0-49.134-5.859-71.827-17.416c-21.466-10.931-40.643-26.456-56.997-46.145C68.473,337.068,50.463,285.062,50.463,230
		s18.01-107.068,50.713-146.439c16.354-19.689,35.531-35.214,56.997-46.145C180.866,25.859,205.033,20,230,20
		s49.134,5.859,71.827,17.416c21.466,10.931,40.643,26.456,56.997,46.145c32.703,39.371,50.713,91.377,50.713,146.439
		s-18.01,107.068-50.713,146.439c-16.354,19.689-35.531,35.214-56.997,46.145C279.134,434.141,254.967,440,230,440z"/>
	<path style="fill:#59B867;" d="M138.943,240H90.838c2.353,49.135,21.92,92.725,51.446,121.928l33.528-58.071L138.943,240z"/>
	<path style="fill:#59B867;" d="M321.057,240l-36.868,63.857l33.527,58.072c29.526-29.204,49.094-72.793,51.447-121.929H321.057z"/>
	<path style="fill:#59B867;" d="M138.943,220l36.868-63.857l-33.528-58.071C112.758,127.275,93.191,170.865,90.838,220H138.943z"/>
	<path style="fill:#59B867;" d="M302.287,375.205l-35.419-61.348h-73.736l-35.419,61.348c21.091,15.648,45.841,24.668,72.288,24.668
		C256.447,399.873,281.196,390.853,302.287,375.205z"/>
	<path style="fill:#59B867;" d="M193.132,146.143h73.736l35.419-61.348C281.196,69.147,256.447,60.126,230,60.126
		c-26.447,0-51.197,9.021-72.288,24.668L193.132,146.143z"/>
	<path style="fill:#59B867;" d="M317.715,98.071l-33.527,58.071L321.057,220h48.105C366.809,170.864,347.242,127.275,317.715,98.071
		z"/>
	<polygon style="fill:#59B867;" points="303.736,230 266.868,166.143 193.132,166.143 156.264,230 193.132,293.857 266.868,293.857 
			"/>
	<path d="M343.341,96.42C313.188,60.119,272.936,40.126,230,40.126S146.813,60.119,116.658,96.42
		C86.95,132.186,70.59,179.625,70.59,230s16.36,97.814,46.068,133.579c30.154,36.302,70.406,56.294,113.342,56.294
		s83.188-19.992,113.341-56.294C373.049,327.814,389.41,280.375,389.41,230S373.049,132.186,343.341,96.42z M317.716,361.929
		l-33.527-58.072L321.057,240h48.105C366.809,289.136,347.242,332.725,317.716,361.929z M90.838,240h48.105l36.868,63.857
		l-33.528,58.071C112.758,332.725,93.191,289.135,90.838,240z M142.284,98.072l33.528,58.071L138.943,220H90.838
		C93.191,170.865,112.758,127.275,142.284,98.072z M193.132,293.857L156.264,230l36.868-63.857h73.736L303.736,230l-36.868,63.857
		H193.132z M321.057,220l-36.868-63.857l33.527-58.071c29.526,29.204,49.094,72.793,51.447,121.929H321.057z M302.287,84.794
		l-35.419,61.348h-73.736l-35.419-61.348C178.803,69.147,203.553,60.126,230,60.126C256.447,60.126,281.196,69.147,302.287,84.794z
		 M193.132,313.857h73.736l35.419,61.348c-21.091,15.647-45.84,24.668-72.287,24.668c-26.447,0-51.197-9.021-72.288-24.668
		L193.132,313.857z"/>
</g>
<g>
</g>
<g>
</g>
<g>
</g>
<g>
</g>
<g>
</g>
<g>
</g>
<g>
</g>
<g>
</g>
<g>
</g>
<g>
</g>
<g>
</g>
<g>
</g>
<g>
</g>
<g>
</g>
<g>
</g>
</svg>
