<?xml version="1.0" encoding="iso-8859-1"?>
<!-- Generator: Adobe Illustrator 17.1.0, SVG Export Plug-In . SVG Version: 6.00 Build 0)  -->
<!DOCTYPE svg PUBLIC "-//W3C//DTD SVG 1.1//EN" "http://www.w3.org/Graphics/SVG/1.1/DTD/svg11.dtd">
<svg version="1.1" id="Capa_1" xmlns="http://www.w3.org/2000/svg" xmlns:xlink="http://www.w3.org/1999/xlink" x="0px" y="0px"
	 viewBox="0 0 460 460" style="enable-background:new 0 0 460 460;" xml:space="preserve">
<g>
	<path style="fill:#09D6DE;" d="M368.229,376.588c0-27.143-25.975-57.5-60.736-57.5c-16.339,0-29.573,7.375-42.371,14.507
		c-11.661,6.498-22.675,12.635-35.122,12.635s-23.461-6.138-35.122-12.635c-12.798-7.132-26.032-14.507-42.371-14.507
		c-34.762,0-60.736,30.357-60.736,57.5c0,27.143,25.975,57.5,60.736,57.5c16.339,0,29.572-7.375,42.371-14.507
		c11.66-6.499,22.675-12.636,35.122-12.636s23.462,6.138,35.122,12.636c12.799,7.132,26.032,14.507,42.371,14.507
		C342.255,434.088,368.229,403.731,368.229,376.588z M216.784,379.353c-8.524,17.54-26.614,28.874-46.085,28.874
		c-2.317,0-4.662-0.159-6.972-0.474c-22.021-2.998-39.515-19.696-43.53-41.551c-0.58-3.153,0.388-6.394,2.602-8.712
		c2.215-2.32,5.4-3.434,8.583-3.003l77.758,10.587c3.177,0.433,5.953,2.362,7.467,5.189
		C218.119,373.089,218.186,376.47,216.784,379.353z M339.803,366.202c-4.016,21.855-21.509,38.553-43.531,41.551
		c-2.309,0.314-4.653,0.474-6.971,0.474c-19.471,0-37.561-11.333-46.085-28.874c-1.401-2.883-1.335-6.264,0.178-9.091
		c1.514-2.827,4.29-4.756,7.467-5.189l77.758-10.587c3.18-0.429,6.368,0.684,8.583,3.003
		C339.415,359.808,340.383,363.048,339.803,366.202z"/>
	<path d="M307.493,299.088c-21.535,0-38.486,9.446-52.106,17.036c-9.731,5.423-18.136,10.106-25.387,10.106
		s-15.655-4.683-25.387-10.106c-13.62-7.59-30.571-17.036-52.106-17.036c-21.143,0-41.41,8.543-57.068,24.057
		c-15.041,14.902-23.668,34.382-23.668,53.443s8.627,38.541,23.668,53.443c15.658,15.514,35.926,24.057,57.068,24.057
		c21.535,0,38.486-9.447,52.107-17.037c9.73-5.423,18.135-10.106,25.386-10.106s15.655,4.684,25.386,10.106
		c13.621,7.59,30.572,17.037,52.107,17.037c21.143,0,41.41-8.543,57.068-24.057c15.041-14.903,23.668-34.382,23.668-53.443
		s-8.627-38.541-23.668-53.443C348.903,307.632,328.636,299.088,307.493,299.088z M265.122,419.581
		c-11.66-6.499-22.675-12.636-35.122-12.636s-23.462,6.138-35.122,12.636c-12.799,7.132-26.032,14.507-42.371,14.507
		c-34.762,0-60.736-30.357-60.736-57.5c0-27.143,25.975-57.5,60.736-57.5c16.339,0,29.573,7.375,42.371,14.507
		c11.661,6.498,22.675,12.635,35.122,12.635s23.461-6.138,35.122-12.635c12.798-7.132,26.032-14.507,42.371-14.507
		c34.762,0,60.736,30.357,60.736,57.5c0,27.143-25.975,57.5-60.736,57.5C291.154,434.088,277.921,426.713,265.122,419.581z"/>
	<path d="M328.618,354.486l-77.758,10.587c-3.177,0.433-5.953,2.362-7.467,5.189c-1.513,2.827-1.579,6.208-0.178,9.091
		c8.524,17.54,26.614,28.874,46.085,28.874c2.317,0,4.662-0.159,6.971-0.474c22.022-2.998,39.516-19.696,43.531-41.551
		c0.58-3.153-0.388-6.394-2.602-8.712C334.986,355.17,331.798,354.057,328.618,354.486z M293.573,387.936
		c-1.418,0.193-2.855,0.291-4.272,0.291c-6.526,0-12.799-2.091-17.988-5.753l42.307-5.76
		C308.726,382.718,301.648,386.836,293.573,387.936z"/>
	<path d="M209.14,365.073l-77.758-10.587c-3.183-0.43-6.368,0.684-8.583,3.003c-2.214,2.319-3.182,5.559-2.602,8.712
		c4.016,21.855,21.509,38.553,43.53,41.551c2.31,0.314,4.654,0.474,6.972,0.474c19.471,0,37.561-11.333,46.085-28.874
		c1.401-2.883,1.335-6.264-0.178-9.091C215.093,367.436,212.316,365.506,209.14,365.073z M170.699,388.227
		c-1.417,0-2.854-0.098-4.273-0.291c-8.075-1.099-15.151-5.217-20.045-11.223l42.307,5.76
		C183.498,386.135,177.226,388.227,170.699,388.227z"/>
	<path style="fill:#09D6DE;" d="M361.731,131.917c-0.683-19.238-1.67-37.74-3.093-49.306c-3.637-4.729-22.9-17.855-55.382-32.893
		c-14.827-6.864-29.091-12.573-41.409-16.679c5.576,38.331,30.929,57.752,75.571,57.752c5.522,0,10,4.477,10,10s-4.478,10-10,10
		c-34.974,0-61.058-10.475-77.527-31.132c-10.852-13.613-17.148-31.214-18.789-52.385c-4.379-0.89-8.132-1.362-11.103-1.362
		c-2.973,0-6.73,0.473-11.114,1.364c-0.834,10.638-2.843,20.473-6.038,29.295c-1.474,4.068-5.313,6.598-9.403,6.598
		c-1.13,0-2.279-0.193-3.404-0.601c-5.192-1.88-7.878-7.615-5.997-12.808c1.85-5.11,3.205-10.709,4.089-16.715
		c-12.313,4.106-26.571,9.812-41.391,16.673c-32.48,15.038-51.744,28.163-55.381,32.893c-1.423,11.566-2.41,30.068-3.093,49.306
		H361.731z M122.581,90.791c25.036,0,44.159-6.089,56.839-18.099c4.011-3.799,10.34-3.625,14.138,0.384
		c3.798,4.01,3.626,10.339-0.384,14.137c-16.52,15.646-40.27,23.578-70.593,23.578c-5.522,0-10-4.477-10-10
		S117.059,90.791,122.581,90.791z"/>
	<path style="fill:#09D6DE;" d="M86.777,216.985H24.523c6.935,8.115,22.401,17.499,50.194,25.782
		c39.755,11.849,94.902,18.375,155.282,18.375s115.527-6.525,155.282-18.375c27.793-8.283,43.26-17.667,50.194-25.782h-62.254
		H86.777z"/>
	<path d="M450,196.985h-60.665c-0.125-12.074-0.42-33.535-1.077-55.369c-0.125-4.168-2.792-7.667-6.483-9.054
		c-0.731-20.9-1.824-41.291-3.456-53.729c-0.542-4.135-2.192-16.717-62.501-45.316C302.161,27.041,255.613,5.912,230,5.912
		c-25.614,0-72.162,21.129-85.818,27.605C83.873,62.116,82.223,74.698,81.681,78.833c-1.632,12.438-2.725,32.83-3.456,53.729
		c-3.692,1.387-6.358,4.886-6.483,9.054c-0.657,21.833-0.952,43.295-1.077,55.369H10c-5.522,0-10,4.477-10,10
		c0,22.493,23.861,41.494,69.005,54.949c41.559,12.386,98.734,19.208,160.995,19.208s119.437-6.821,160.995-19.208
		C436.139,248.479,460,229.478,460,206.985C460,201.462,455.522,196.985,450,196.985z M385.282,242.767
		C345.527,254.616,290.38,261.142,230,261.142s-115.527-6.525-155.282-18.375c-27.793-8.283-43.26-17.667-50.194-25.782h62.254
		h286.445h62.254C428.542,225.1,413.075,234.484,385.282,242.767z M156.742,49.718c14.82-6.861,29.077-12.567,41.391-16.673
		c-0.884,6.006-2.239,11.605-4.089,16.715c-1.881,5.193,0.805,10.927,5.997,12.808c1.125,0.407,2.274,0.601,3.404,0.601
		c4.091,0,7.93-2.529,9.403-6.598c3.195-8.822,5.204-18.657,6.038-29.295c4.383-0.891,8.14-1.364,11.114-1.364
		c2.971,0,6.724,0.472,11.103,1.362c1.641,21.17,7.937,38.772,18.789,52.385c16.47,20.658,42.554,31.132,77.527,31.132
		c5.522,0,10-4.477,10-10s-4.478-10-10-10c-44.642,0-69.995-19.422-75.571-57.752c12.318,4.106,26.582,9.815,41.409,16.679
		c32.481,15.038,51.745,28.163,55.382,32.893c1.423,11.566,2.41,30.068,3.093,49.306H98.269c0.683-19.238,1.67-37.74,3.093-49.306
		C104.998,77.881,124.262,64.755,156.742,49.718z M90.666,196.984c0.105-10.204,0.333-27.028,0.796-45.068h277.076
		c0.463,18.04,0.69,34.864,0.796,45.068H90.666z"/>
	<path style="fill:#FCC324;" d="M369.334,196.984c-0.105-10.204-0.333-27.028-0.796-45.068H91.462
		c-0.463,18.04-0.69,34.864-0.796,45.068H369.334z"/>
	<path d="M122.581,110.791c30.323,0,54.073-7.933,70.593-23.578c4.01-3.797,4.182-10.127,0.384-14.137
		c-3.798-4.009-10.127-4.183-14.138-0.384c-12.68,12.009-31.803,18.099-56.839,18.099c-5.522,0-10,4.477-10,10
		S117.059,110.791,122.581,110.791z"/>
</g>
<g>
</g>
<g>
</g>
<g>
</g>
<g>
</g>
<g>
</g>
<g>
</g>
<g>
</g>
<g>
</g>
<g>
</g>
<g>
</g>
<g>
</g>
<g>
</g>
<g>
</g>
<g>
</g>
<g>
</g>
</svg>
