<?xml version="1.0" encoding="iso-8859-1"?>
<!-- Generator: Adobe Illustrator 17.1.0, SVG Export Plug-In . SVG Version: 6.00 Build 0)  -->
<!DOCTYPE svg PUBLIC "-//W3C//DTD SVG 1.1//EN" "http://www.w3.org/Graphics/SVG/1.1/DTD/svg11.dtd">
<svg version="1.1" id="Capa_1" xmlns="http://www.w3.org/2000/svg" xmlns:xlink="http://www.w3.org/1999/xlink" x="0px" y="0px"
	 viewBox="0 0 460 460" style="enable-background:new 0 0 460 460;" xml:space="preserve">
<g>
	<path style="fill:#CCCCCC;" d="M340.744,298.137c-0.057-0.101-0.114-0.202-0.169-0.303c-0.815-1.481-1.556-3.014-2.217-4.595
		c-0.073-0.173-0.144-0.346-0.215-0.52c-0.313-0.773-0.613-1.553-0.888-2.348c-0.245-0.711-0.47-1.428-0.681-2.149
		c-0.09-0.306-0.168-0.612-0.251-0.918c-0.109-0.402-0.218-0.804-0.316-1.208c-0.096-0.394-0.182-0.787-0.268-1.181
		c-0.067-0.308-0.132-0.616-0.193-0.924c-0.088-0.447-0.169-0.894-0.244-1.341c-0.017-0.105-0.04-0.209-0.057-0.314l-41.782,14.409
		v33.571l48.597-29.957C341.602,299.633,341.166,298.89,340.744,298.137z"/>
	<path style="fill:#CCCCCC;" d="M237.929,229.754c-0.124,0.022-0.249,0.037-0.372,0.058c-0.407,0.068-0.815,0.132-1.225,0.189
		c-0.309,0.043-0.618,0.082-0.927,0.119c-0.389,0.046-0.779,0.092-1.171,0.128c-0.34,0.032-0.681,0.054-1.022,0.078
		c-0.37,0.026-0.739,0.056-1.112,0.073c-0.428,0.02-0.857,0.025-1.286,0.033c-0.272,0.005-0.541,0.021-0.814,0.021
		s-0.542-0.016-0.814-0.021c-0.429-0.008-0.858-0.013-1.286-0.033c-0.373-0.017-0.742-0.047-1.112-0.073
		c-0.341-0.024-0.682-0.046-1.022-0.078c-0.392-0.036-0.781-0.082-1.171-0.128c-0.31-0.037-0.619-0.075-0.927-0.119
		c-0.41-0.057-0.818-0.121-1.225-0.189c-0.124-0.021-0.249-0.036-0.372-0.058l-1.647,28.89h19.152L237.929,229.754z"/>
	<path style="fill:#CCCCCC;" d="M230.338,139.521c0.612,0.004,1.223,0.017,1.832,0.046c0.326,0.015,0.648,0.043,0.971,0.065
		c0.394,0.027,0.789,0.053,1.181,0.09c0.374,0.035,0.744,0.081,1.115,0.125c0.337,0.041,0.675,0.081,1.011,0.129
		c0.391,0.056,0.78,0.119,1.168,0.185c0.173,0.029,0.347,0.051,0.519,0.082l-2.975-66.938L230,52.171l-5.16,21.137l-2.975,66.938
		c0.171-0.031,0.343-0.053,0.515-0.082c0.39-0.066,0.781-0.13,1.174-0.186c0.334-0.048,0.669-0.087,1.005-0.128
		c0.372-0.044,0.744-0.091,1.12-0.126c0.391-0.037,0.784-0.063,1.177-0.089c0.325-0.022,0.648-0.051,0.975-0.066
		c0.609-0.029,1.219-0.042,1.831-0.046c0.113-0.001,0.225-0.009,0.339-0.009C230.113,139.513,230.225,139.521,230.338,139.521z"/>
	<path style="fill:#999999;" d="M230,210.451c14.044,0,25.469-11.425,25.469-25.469s-11.425-25.47-25.469-25.47
		s-25.469,11.426-25.469,25.47S215.956,210.451,230,210.451z"/>
	<path style="fill:#CCCCCC;" d="M416.601,128.499l2.829,8.203c0.72,2.09,0.729,4.358,0.023,6.452l-28.53,84.71
		c7.725,1.408,14.894,4.689,20.935,9.441l23.232-84.937L416.601,128.499z"/>
	<path d="M453.96,144.067l-58.67-75.736c-2.997-3.869-8.354-4.998-12.661-2.673c-4.306,2.328-6.293,7.43-4.698,12.058l21.48,62.285
		l-29.932,88.875c-0.895,0.252-1.787,0.521-2.671,0.826c-14.886,5.134-25.605,16.945-29.98,30.932l-43.365,14.956v-6.945
		c0-5.522-4.477-10-10-10h-23.855l-2.136-37.461c10.926-8.313,17.996-21.444,17.996-36.2c0-14.255-6.599-26.993-16.897-35.336
		l-3.475-78.204c-0.004-0.099-0.02-0.196-0.027-0.294c-0.012-0.165-0.026-0.329-0.046-0.492c-0.019-0.152-0.043-0.303-0.069-0.454
		c-0.031-0.183-0.064-0.364-0.105-0.543c-0.011-0.048-0.016-0.097-0.028-0.145L239.715,7.629C238.622,3.15,234.61,0,230,0
		s-8.622,3.15-9.715,7.629l-15.106,61.887c-0.012,0.048-0.017,0.097-0.028,0.145c-0.041,0.179-0.074,0.36-0.105,0.543
		c-0.026,0.151-0.05,0.301-0.069,0.454c-0.02,0.163-0.034,0.327-0.046,0.492c-0.007,0.098-0.023,0.195-0.027,0.294l-3.475,78.203
		c-10.299,8.343-16.898,21.081-16.898,35.337c0,14.756,7.07,27.887,17.996,36.199l-2.136,37.462h-23.855c-5.523,0-10,4.478-10,10
		v6.945l-43.366-14.956c-4.375-13.987-15.094-25.798-29.98-30.932c-0.884-0.305-1.776-0.574-2.671-0.826l-29.932-88.875
		l21.48-62.285c1.596-4.628-0.392-9.729-4.698-12.058c-4.307-2.326-9.664-1.196-12.661,2.673L6.04,144.067
		c-1.925,2.485-2.57,5.73-1.74,8.763L33.03,257.868c-0.174,0.459-0.348,0.919-0.509,1.386c-4.156,12.05-3.37,24.997,2.212,36.456
		c5.582,11.459,15.292,20.059,27.342,24.214c5.037,1.737,10.272,2.618,15.561,2.618c9.386,0,18.297-2.757,25.829-7.611l63.072,38.88
		v28.945h-0.282c-5.523,0-10,4.478-10,10s4.477,10,10,10h10.282h3.994V450c0,5.522,4.477,10,10,10h78.938c5.523,0,10-4.478,10-10
		v-47.244h3.995h10.281c5.523,0,10-4.478,10-10s-4.477-10-10-10h-0.281v-28.945l63.072-38.88c7.531,4.854,16.442,7.611,25.828,7.612
		c0.001,0,0.002,0,0.004,0c5.286,0,10.521-0.881,15.557-2.618c12.05-4.155,21.76-12.755,27.342-24.214
		c5.582-11.459,6.368-24.406,2.212-36.455c-0.161-0.467-0.335-0.927-0.509-1.386L455.7,152.83
		C456.53,149.798,455.885,146.553,453.96,144.067z M391.404,301.018c-2.934,1.012-5.974,1.524-9.037,1.524c0,0-0.002,0-0.002,0
		c-11.817-0.001-22.348-7.513-26.203-18.691c-4.983-14.45,2.719-30.26,17.167-35.243c2.934-1.012,5.976-1.524,9.04-1.524
		c11.817,0,22.347,7.512,26.202,18.692c2.414,6.999,1.958,14.52-1.285,21.176S398.404,298.604,391.404,301.018z M259.469,440
		h-58.938v-37.244h58.938V440z M68.596,301.018c-7-2.414-12.64-7.41-15.882-14.066s-3.699-14.177-1.285-21.177
		c3.855-11.18,14.385-18.691,26.202-18.691c3.064,0,6.105,0.513,9.04,1.524c14.449,4.983,22.15,20.793,17.167,35.242
		c-3.856,11.181-14.386,18.692-26.202,18.692C74.571,302.542,71.53,302.029,68.596,301.018z M43.399,128.499l-2.829,8.203
		c-0.72,2.09-0.729,4.358-0.023,6.452l28.53,84.71c-7.725,1.408-14.894,4.689-20.935,9.441l-23.232-84.937L43.399,128.499z
		 M117.939,300.358c0.458-0.722,0.892-1.462,1.312-2.212c0.06-0.106,0.12-0.212,0.178-0.319c0.813-1.477,1.551-3.004,2.21-4.581
		c0.074-0.178,0.148-0.355,0.221-0.534c0.312-0.771,0.612-1.549,0.885-2.341c0.245-0.711,0.47-1.429,0.681-2.149
		c0.089-0.304,0.167-0.609,0.25-0.914c0.109-0.404,0.219-0.808,0.318-1.215c0.095-0.39,0.181-0.78,0.266-1.171
		c0.067-0.312,0.134-0.624,0.195-0.936c0.087-0.444,0.168-0.887,0.242-1.332c0.018-0.106,0.041-0.212,0.058-0.318l41.783,14.409
		l0,33.571L117.939,300.358z M222.071,229.754c0.124,0.022,0.249,0.037,0.372,0.058c0.407,0.068,0.815,0.132,1.225,0.189
		c0.309,0.043,0.618,0.082,0.927,0.119c0.389,0.046,0.779,0.092,1.171,0.128c0.34,0.032,0.681,0.054,1.022,0.078
		c0.37,0.026,0.739,0.056,1.112,0.073c0.428,0.02,0.857,0.025,1.286,0.033c0.272,0.005,0.541,0.021,0.814,0.021
		s0.542-0.016,0.814-0.021c0.429-0.008,0.858-0.013,1.286-0.033c0.373-0.017,0.742-0.047,1.112-0.073
		c0.341-0.024,0.682-0.046,1.022-0.078c0.392-0.036,0.781-0.082,1.171-0.128c0.31-0.037,0.619-0.075,0.927-0.119
		c0.41-0.057,0.818-0.121,1.225-0.189c0.124-0.021,0.249-0.036,0.372-0.058l1.647,28.89h-19.152L222.071,229.754z M227.831,139.568
		c-0.327,0.015-0.65,0.043-0.975,0.066c-0.393,0.027-0.786,0.052-1.177,0.089c-0.375,0.036-0.747,0.082-1.12,0.126
		c-0.335,0.041-0.671,0.08-1.005,0.128c-0.393,0.056-0.784,0.12-1.174,0.186c-0.171,0.029-0.344,0.05-0.515,0.082l2.975-66.938
		L230,52.171l5.159,21.137l2.975,66.938c-0.172-0.031-0.346-0.053-0.519-0.082c-0.388-0.066-0.776-0.129-1.168-0.185
		c-0.336-0.048-0.673-0.088-1.011-0.129c-0.371-0.044-0.741-0.09-1.115-0.125c-0.393-0.038-0.787-0.063-1.181-0.09
		c-0.324-0.022-0.646-0.05-0.971-0.065c-0.609-0.029-1.22-0.042-1.832-0.046c-0.113-0.001-0.225-0.009-0.338-0.009
		c-0.114,0-0.225,0.008-0.339,0.009C229.05,139.526,228.439,139.539,227.831,139.568z M204.531,184.982
		c0-14.044,11.425-25.47,25.469-25.47s25.469,11.426,25.469,25.47S244.044,210.451,230,210.451S204.531,199.026,204.531,184.982z
		 M269.469,382.756h-49.632V359c0-5.522-4.477-10-10-10s-10,4.478-10,10v23.756h-9.307h-3.994V278.644h13.301V329
		c0,5.522,4.477,10,10,10s10-4.478,10-10v-50.356h30.325c0.007,0,0.013,0,0.02,0h23.281v104.112H269.469z M293.464,296.744
		l41.782-14.409c0.017,0.105,0.04,0.209,0.057,0.314c0.075,0.447,0.156,0.894,0.244,1.341c0.06,0.309,0.126,0.617,0.193,0.924
		c0.086,0.394,0.172,0.787,0.268,1.181c0.098,0.404,0.207,0.806,0.316,1.208c0.083,0.306,0.161,0.613,0.251,0.918
		c0.211,0.721,0.435,1.438,0.681,2.149c0.274,0.795,0.575,1.575,0.888,2.348c0.07,0.174,0.142,0.347,0.215,0.52
		c0.661,1.582,1.402,3.114,2.217,4.595c0.056,0.102,0.113,0.202,0.169,0.303c0.422,0.753,0.858,1.496,1.317,2.221l-48.597,29.957
		V296.744z M411.859,237.305c-6.041-4.751-13.21-8.033-20.935-9.441l28.53-84.71c0.705-2.094,0.697-4.362-0.023-6.452l-2.829-8.203
		l18.491,23.869L411.859,237.305z"/>
	<path style="fill:#999999;" d="M408.571,265.775c-3.855-11.181-14.385-18.692-26.202-18.692c-3.064,0-6.105,0.513-9.04,1.524
		c-14.449,4.983-22.15,20.793-17.167,35.243c3.855,11.179,14.386,18.69,26.203,18.691c0,0,0.002,0,0.002,0
		c3.063,0,6.103-0.513,9.037-1.524c7-2.414,12.64-7.41,15.882-14.066S410.985,272.774,408.571,265.775z"/>
	<path style="fill:#CCCCCC;" d="M124.754,282.335c-0.017,0.106-0.04,0.212-0.058,0.318c-0.074,0.444-0.155,0.888-0.242,1.332
		c-0.061,0.313-0.128,0.625-0.195,0.936c-0.085,0.391-0.17,0.781-0.266,1.171c-0.099,0.407-0.208,0.811-0.318,1.215
		c-0.083,0.305-0.16,0.61-0.25,0.914c-0.211,0.721-0.435,1.438-0.681,2.149c-0.273,0.792-0.573,1.57-0.885,2.341
		c-0.072,0.179-0.146,0.356-0.221,0.534c-0.66,1.576-1.398,3.104-2.21,4.581c-0.059,0.107-0.119,0.213-0.178,0.319
		c-0.42,0.75-0.854,1.49-1.312,2.212l48.598,29.958l0-33.571L124.754,282.335z"/>
	<path style="fill:#CCCCCC;" d="M69.076,227.864l-28.53-84.71c-0.705-2.094-0.697-4.362,0.023-6.452l2.829-8.203l-18.491,23.869
		l23.232,84.937C54.182,232.554,61.351,229.272,69.076,227.864z"/>
	<path style="fill:#999999;" d="M103.838,283.85c4.983-14.449-2.719-30.259-17.167-35.242c-2.934-1.012-5.976-1.524-9.04-1.524
		c-11.817,0-22.347,7.512-26.202,18.691c-2.414,7-1.958,14.521,1.285,21.177s8.883,11.652,15.882,14.066
		c2.934,1.012,5.976,1.524,9.04,1.524C89.452,302.542,99.982,295.03,103.838,283.85z"/>
	<path style="fill:#B3B3B3;" d="M273.464,278.644h-23.281c-0.007,0-0.013,0-0.02,0h-30.325V329c0,5.522-4.477,10-10,10
		s-10-4.478-10-10v-50.356h-13.301v104.112h3.994h9.307V359c0-5.522,4.477-10,10-10s10,4.478,10,10v23.756h49.632h3.995V278.644z"/>
	<rect x="200.531" y="402.756" style="fill:#666666;" width="58.938" height="37.244"/>
</g>
<g>
</g>
<g>
</g>
<g>
</g>
<g>
</g>
<g>
</g>
<g>
</g>
<g>
</g>
<g>
</g>
<g>
</g>
<g>
</g>
<g>
</g>
<g>
</g>
<g>
</g>
<g>
</g>
<g>
</g>
</svg>
