<?xml version="1.0" encoding="iso-8859-1"?>
<!-- Generator: Adobe Illustrator 17.1.0, SVG Export Plug-In . SVG Version: 6.00 Build 0)  -->
<!DOCTYPE svg PUBLIC "-//W3C//DTD SVG 1.1//EN" "http://www.w3.org/Graphics/SVG/1.1/DTD/svg11.dtd">
<svg version="1.1" id="Capa_1" xmlns="http://www.w3.org/2000/svg" xmlns:xlink="http://www.w3.org/1999/xlink" x="0px" y="0px"
	 viewBox="0 0 460 460" style="enable-background:new 0 0 460 460;" xml:space="preserve">
<g>
	<path style="fill:#ED1B24;" d="M286.121,428.955l28.538-113.395c0.75-2.979,2.826-5.447,5.632-6.696l61.229-27.247
		c8.835-27.693,14.398-54.957,14.398-77.413C395.918,84.56,310.433,20,230,20S64.082,84.56,64.082,204.204
		c0,22.456,5.563,49.72,14.398,77.412l61.229,27.248c2.806,1.248,4.883,3.717,5.632,6.695l28.538,113.396
		C192.16,436.813,212.703,440,230,440C247.298,440,267.84,436.812,286.121,428.955z M242.232,175.865c0-5.522,4.477-10,10-10
		s10,4.478,10,10v43.372l72.124-30.25c2.955-1.239,6.328-0.986,9.067,0.68c2.738,1.667,4.512,4.546,4.768,7.742
		c2.047,25.507-12.435,49.294-36.036,59.192c-7.29,3.058-14.966,4.607-22.815,4.607c-17.155,0-33.435-7.429-44.664-20.384
		c-0.022-0.026-0.04-0.055-0.062-0.081c-0.475-0.559-0.889-1.169-1.233-1.823c-0.04-0.075-0.073-0.153-0.111-0.229
		c-0.125-0.253-0.241-0.512-0.345-0.776c-0.038-0.099-0.073-0.197-0.109-0.297c-0.088-0.249-0.167-0.501-0.235-0.759
		c-0.029-0.107-0.058-0.214-0.083-0.323c-0.059-0.254-0.105-0.513-0.144-0.774c-0.017-0.11-0.038-0.219-0.05-0.331
		c-0.032-0.279-0.048-0.563-0.057-0.849c-0.003-0.089-0.013-0.177-0.013-0.266c0-0.014-0.002-0.028-0.002-0.042V175.865z
		 M239.692,264.892c5.376-1.273,10.763,2.05,12.038,7.423l6,25.299c1.274,5.374-2.048,10.764-7.422,12.038
		c-0.776,0.184-1.552,0.271-2.316,0.271c-4.528,0-8.631-3.097-9.722-7.694l-6-25.299
		C230.996,271.556,234.318,266.166,239.692,264.892z M220.308,264.892c5.374,1.274,8.697,6.664,7.422,12.038l-6,25.299
		c-1.09,4.598-5.194,7.694-9.722,7.694c-0.764,0-1.54-0.088-2.316-0.271c-5.374-1.274-8.697-6.664-7.422-12.038l6-25.299
		C209.545,266.94,214.937,263.621,220.308,264.892z M113.431,197.909c0.256-3.195,2.029-6.075,4.768-7.742
		c2.738-1.667,6.11-1.919,9.067-0.68l70.501,29.569v-43.191c0-5.522,4.477-10,10-10s10,4.478,10,10v58.229
		c0,0.014-0.002,0.027-0.002,0.041c0,0.09-0.011,0.18-0.014,0.27c-0.009,0.285-0.024,0.568-0.057,0.847
		c-0.013,0.11-0.034,0.219-0.05,0.329c-0.039,0.262-0.085,0.521-0.144,0.776c-0.025,0.107-0.054,0.213-0.082,0.319
		c-0.069,0.259-0.148,0.514-0.237,0.764c-0.035,0.098-0.069,0.195-0.107,0.292c-0.104,0.267-0.221,0.527-0.347,0.783
		c-0.037,0.074-0.069,0.15-0.108,0.224c-0.344,0.655-0.759,1.266-1.234,1.825c-0.022,0.026-0.04,0.055-0.062,0.081
		c-11.053,12.752-27.077,20.064-43.964,20.064c-7.726,0-15.282-1.525-22.458-4.535C125.672,246.43,111.417,223.016,113.431,197.909z
		 M220,373.382v-2.458h-17.5v2.458c0,5.522-4.477,10-10,10s-10-4.478-10-10v-2.458H179c-5.523,0-10-4.478-10-10s4.477-10,10-10h3.5
		v-2.459c0-5.522,4.477-10,10-10s10,4.478,10,10v2.459H220v-2.459c0-5.522,4.477-10,10-10s10,4.478,10,10v2.459h17.5v-2.459
		c0-5.522,4.477-10,10-10s10,4.478,10,10v2.459h3.5c5.523,0,10,4.478,10,10s-4.477,10-10,10h-3.5v2.458c0,5.522-4.477,10-10,10
		s-10-4.478-10-10v-2.458H240v2.458c0,5.522-4.477,10-10,10S220,378.904,220,373.382z"/>
	<path style="fill:#ED1B24;" d="M127.133,325.158l-39.473-17.565c14.682,37.922,34.218,74.062,52.639,96.978
		c2.771,3.447,5.865,6.594,9.203,9.473L127.133,325.158z"/>
	<path style="fill:#ED1B24;" d="M332.867,325.158l-22.369,88.884c3.338-2.878,6.432-6.025,9.203-9.472
		c18.421-22.916,37.956-59.055,52.638-96.977L332.867,325.158z"/>
	<path style="fill:#FFFFFF;" d="M156.639,237.73c4.713,1.977,9.666,2.979,14.722,2.979c5.94,0,11.718-1.378,16.917-3.945
		l-53.137-22.286C138.512,224.754,146.192,233.349,156.639,237.73z"/>
	<path d="M215.324,240.645c0.022-0.026,0.04-0.055,0.062-0.081c0.475-0.559,0.889-1.17,1.234-1.825
		c0.039-0.074,0.071-0.15,0.108-0.224c0.126-0.255,0.243-0.516,0.347-0.783c0.038-0.097,0.072-0.194,0.107-0.292
		c0.089-0.25,0.168-0.504,0.237-0.764c0.029-0.106,0.057-0.212,0.082-0.319c0.059-0.255,0.105-0.514,0.144-0.776
		c0.017-0.11,0.037-0.218,0.05-0.329c0.032-0.279,0.048-0.562,0.057-0.847c0.003-0.09,0.013-0.179,0.014-0.27
		c0-0.014,0.002-0.027,0.002-0.041v-58.229c0-5.522-4.477-10-10-10s-10,4.478-10,10v43.191l-70.501-29.569
		c-2.957-1.239-6.329-0.987-9.067,0.68c-2.739,1.667-4.512,4.547-4.768,7.742c-2.014,25.106,12.241,48.521,35.472,58.265
		c7.176,3.01,14.732,4.535,22.458,4.535C188.247,260.709,204.271,253.396,215.324,240.645z M188.277,236.764
		c-5.199,2.567-10.976,3.945-16.917,3.945c-5.056,0-10.009-1.002-14.722-2.979c-10.446-4.382-18.126-12.977-21.499-23.253
		L188.277,236.764z"/>
	<path style="fill:#FFFFFF;" d="M304.419,238.158c10.835-4.544,18.764-13.514,22.149-24.217l-54.931,23.039
		c5.422,2.75,11.475,4.229,17.702,4.229C294.518,241.209,299.592,240.183,304.419,238.158z"/>
	<path d="M242.247,234.583c0.009,0.286,0.024,0.569,0.057,0.849c0.013,0.111,0.034,0.22,0.05,0.331
		c0.039,0.261,0.085,0.52,0.144,0.774c0.025,0.108,0.054,0.215,0.083,0.323c0.069,0.257,0.147,0.51,0.235,0.759
		c0.035,0.1,0.07,0.198,0.109,0.297c0.104,0.265,0.22,0.523,0.345,0.776c0.038,0.077,0.071,0.154,0.111,0.229
		c0.344,0.654,0.758,1.265,1.233,1.823c0.022,0.026,0.04,0.055,0.062,0.081c11.229,12.955,27.509,20.384,44.664,20.384
		c7.849,0,15.525-1.55,22.815-4.607c23.601-9.898,38.083-33.686,36.036-59.192c-0.256-3.196-2.03-6.075-4.768-7.742
		c-2.739-1.666-6.112-1.919-9.067-0.68l-72.124,30.25v-43.372c0-5.522-4.477-10-10-10s-10,4.478-10,10v58.41
		c0,0.014,0.002,0.028,0.002,0.042C242.234,234.406,242.245,234.495,242.247,234.583z M326.568,213.941
		c-3.385,10.703-11.313,19.673-22.149,24.217c-4.828,2.024-9.901,3.051-15.08,3.051c-6.228,0-12.28-1.479-17.702-4.229
		L326.568,213.941z"/>
	<path d="M399.479,291.243c10.047-30.656,16.44-61.31,16.44-87.039c0-58.064-20.054-110.817-56.467-148.542
		c-17.117-17.733-37.112-31.592-59.429-41.189C277.693,4.869,254.135,0,230,0s-47.693,4.869-70.022,14.473
		c-22.317,9.598-42.313,23.456-59.429,41.189C64.135,93.387,44.082,146.14,44.082,204.204c0,25.727,6.391,56.377,16.437,87.032
		c0.128,0.529,0.298,1.045,0.51,1.545c15.885,47.888,40.582,95.581,63.683,124.32C146.305,443.963,185.665,460,230,460
		s83.695-16.037,105.289-42.898c23.102-28.74,47.799-76.436,63.684-124.325C399.182,292.28,399.351,291.768,399.479,291.243z
		 M140.299,404.57c-18.421-22.916-37.957-59.056-52.639-96.978l39.473,17.565l22.37,88.885
		C146.164,411.164,143.07,408.018,140.299,404.57z M173.879,428.955L145.341,315.56c-0.75-2.979-2.826-5.447-5.632-6.695
		L78.48,281.616c-8.835-27.692-14.398-54.956-14.398-77.412C64.082,84.56,149.567,20,230,20s165.918,64.56,165.918,184.204
		c0,22.456-5.563,49.72-14.398,77.413l-61.229,27.247c-2.806,1.249-4.883,3.718-5.632,6.696l-28.538,113.395
		C267.84,436.812,247.298,440,230,440C212.703,440,192.16,436.813,173.879,428.955z M310.498,414.042l22.369-88.884l39.472-17.564
		c-14.682,37.922-34.217,74.061-52.638,96.977C316.93,408.018,313.836,411.164,310.498,414.042z"/>
	<path d="M208.27,272.314l-6,25.299c-1.274,5.374,2.048,10.764,7.422,12.038c0.776,0.184,1.552,0.271,2.316,0.271
		c4.528,0,8.631-3.097,9.722-7.694l6-25.299c1.274-5.374-2.048-10.764-7.422-12.038C214.937,263.621,209.545,266.94,208.27,272.314z
		"/>
	<path d="M238.27,302.229c1.09,4.598,5.193,7.694,9.722,7.694c0.764,0,1.54-0.088,2.316-0.271c5.374-1.274,8.697-6.664,7.422-12.038
		l-6-25.299c-1.274-5.373-6.662-8.696-12.038-7.423c-5.374,1.274-8.697,6.664-7.422,12.038L238.27,302.229z"/>
	<path d="M240,373.382v-2.458h17.5v2.458c0,5.522,4.477,10,10,10s10-4.478,10-10v-2.458h3.5c5.523,0,10-4.478,10-10s-4.477-10-10-10
		h-3.5v-2.459c0-5.522-4.477-10-10-10s-10,4.478-10,10v2.459H240v-2.459c0-5.522-4.477-10-10-10s-10,4.478-10,10v2.459h-17.5v-2.459
		c0-5.522-4.477-10-10-10s-10,4.478-10,10v2.459H179c-5.523,0-10,4.478-10,10s4.477,10,10,10h3.5v2.458c0,5.522,4.477,10,10,10
		s10-4.478,10-10v-2.458H220v2.458c0,5.522,4.477,10,10,10S240,378.904,240,373.382z"/>
</g>
<g>
</g>
<g>
</g>
<g>
</g>
<g>
</g>
<g>
</g>
<g>
</g>
<g>
</g>
<g>
</g>
<g>
</g>
<g>
</g>
<g>
</g>
<g>
</g>
<g>
</g>
<g>
</g>
<g>
</g>
</svg>
