<?xml version="1.0" encoding="iso-8859-1"?>
<!-- Generator: Adobe Illustrator 17.1.0, SVG Export Plug-In . SVG Version: 6.00 Build 0)  -->
<!DOCTYPE svg PUBLIC "-//W3C//DTD SVG 1.1//EN" "http://www.w3.org/Graphics/SVG/1.1/DTD/svg11.dtd">
<svg version="1.1" id="Capa_1" xmlns="http://www.w3.org/2000/svg" xmlns:xlink="http://www.w3.org/1999/xlink" x="0px" y="0px"
	 viewBox="0 0 460 460" style="enable-background:new 0 0 460 460;" xml:space="preserve">
<g>
	<polygon style="fill:#F8EFFE;" points="331.207,375.334 337.808,391.176 344.409,375.334 	"/>
	<path style="fill:#F8EFFE;" d="M368.83,20H91.17c-8.818,0-15.993,7.175-15.993,15.993v388.014c0,8.818,7.174,15.993,15.993,15.993
		h277.66c8.818,0,15.993-7.175,15.993-15.993V35.993C384.823,27.175,377.648,20,368.83,20z M93.345,112.055
		c-5.098-2.124-7.509-7.979-5.385-13.076l25-60c1.553-3.727,5.194-6.154,9.231-6.154s7.678,2.428,9.231,6.154l21.566,51.757
		c0.012,0.029,0.024,0.058,0.036,0.086l3.398,8.156c2.124,5.098-0.287,10.952-5.385,13.076c-1.257,0.524-2.56,0.772-3.842,0.772
		c-3.917,0-7.634-2.315-9.235-6.157l-0.835-2.004h-29.868l-0.835,2.004C104.298,111.768,98.442,114.181,93.345,112.055z
		 M274.161,336.984c-0.734,4.895-4.939,8.516-9.89,8.516h-68.543c-4.95,0-9.155-3.621-9.889-8.516
		c-0.735-4.896,2.222-9.591,6.954-11.044c9.713-2.982,16.395-16.031,20.73-29.858c-7.665,3.953-16.307,6.138-25.349,6.138
		c-30.441,0-55.207-24.766-55.207-55.207c0-24.722,15.515-54.335,46.115-88.016c22.052-24.273,43.786-41.604,44.701-42.329
		c3.641-2.891,8.792-2.891,12.435,0c0.914,0.726,22.648,18.057,44.699,42.329c30.6,33.683,46.114,63.295,46.114,88.016
		c0,30.441-24.766,55.207-55.207,55.207c-9.042,0-17.685-2.185-25.35-6.138c4.335,13.827,11.018,26.876,20.73,29.858
		C271.938,327.394,274.895,332.089,274.161,336.984z M372.039,361.021l-3.395,8.148c-0.014,0.034-0.028,0.067-0.042,0.101
		l-21.563,51.751c-1.553,3.727-5.193,6.154-9.23,6.154s-7.678-2.428-9.23-6.154l-20.69-49.656c-1.005-1.324-1.684-2.903-1.928-4.626
		l-2.383-5.718c-2.124-5.098,0.286-10.952,5.385-13.076c5.096-2.126,10.953,0.285,13.076,5.385l0.835,2.004h29.869l0.835-2.004
		c2.123-5.099,7.981-7.511,13.076-5.385C371.753,350.069,374.163,355.924,372.039,361.021z"/>
	<polygon style="fill:#F8EFFE;" points="128.792,84.666 122.191,68.824 115.59,84.666 	"/>
	<path d="M368.83,0H91.17C71.323,0,55.177,16.146,55.177,35.993v388.014C55.177,443.854,71.323,460,91.17,460h277.66
		c19.847,0,35.993-16.146,35.993-35.993V35.993C404.823,16.146,388.677,0,368.83,0z M384.823,424.007
		c0,8.818-7.175,15.993-15.993,15.993H91.17c-8.818,0-15.993-7.175-15.993-15.993V35.993C75.177,27.175,82.351,20,91.17,20h277.66
		c8.818,0,15.993,7.175,15.993,15.993V424.007z"/>
	<path d="M137.125,104.666l0.835,2.004c1.601,3.842,5.318,6.157,9.235,6.157c1.282,0,2.585-0.248,3.842-0.772
		c5.098-2.124,7.509-7.979,5.385-13.076l-3.398-8.156c-0.012-0.029-0.024-0.058-0.036-0.086l-21.566-51.757
		c-1.553-3.727-5.194-6.154-9.231-6.154s-7.678,2.428-9.231,6.154l-25,60c-2.124,5.098,0.287,10.952,5.385,13.076
		c5.097,2.126,10.953-0.287,13.077-5.385l0.835-2.004H137.125z M128.792,84.666H115.59l6.601-15.842L128.792,84.666z"/>
	<path d="M366.654,347.945c-5.095-2.126-10.953,0.286-13.076,5.385l-0.835,2.004h-29.869l-0.835-2.004
		c-2.123-5.1-7.98-7.511-13.076-5.385c-5.099,2.124-7.509,7.979-5.385,13.076l2.383,5.718c0.243,1.723,0.923,3.302,1.928,4.626
		l20.69,49.656c1.553,3.727,5.193,6.154,9.23,6.154s7.678-2.428,9.23-6.154l21.563-51.751c0.014-0.034,0.028-0.067,0.042-0.101
		l3.395-8.148C374.163,355.924,371.753,350.069,366.654,347.945z M331.207,375.334h13.202l-6.601,15.842L331.207,375.334z"/>
	<path style="fill:#7744AD;" d="M220.991,259.847c0.019-0.039,0.034-0.079,0.053-0.117c0.131-0.264,0.274-0.521,0.426-0.77
		c0.017-0.027,0.035-0.053,0.052-0.081c0.138-0.221,0.284-0.435,0.438-0.643c0.031-0.042,0.063-0.083,0.095-0.124
		c0.152-0.199,0.311-0.392,0.476-0.578c0.027-0.03,0.053-0.061,0.08-0.09c0.594-0.652,1.27-1.22,2.009-1.692
		c0.04-0.026,0.081-0.05,0.122-0.075c0.208-0.129,0.42-0.25,0.637-0.363c0.047-0.025,0.094-0.05,0.142-0.074
		c0.525-0.263,1.073-0.482,1.641-0.651c0.026-0.008,0.053-0.014,0.079-0.021c0.255-0.074,0.514-0.136,0.776-0.189
		c0.054-0.011,0.109-0.021,0.164-0.031c0.258-0.048,0.518-0.085,0.781-0.113c0.035-0.004,0.07-0.009,0.105-0.012
		c0.308-0.029,0.619-0.048,0.932-0.048c0.315,0,0.626,0.02,0.936,0.049c0.038,0.003,0.076,0.009,0.114,0.013
		c0.259,0.027,0.515,0.064,0.768,0.111c0.059,0.011,0.118,0.022,0.177,0.034c0.253,0.052,0.503,0.112,0.749,0.182
		c0.036,0.011,0.073,0.019,0.108,0.029c0.284,0.084,0.563,0.18,0.836,0.289c0.028,0.011,0.056,0.024,0.084,0.036
		c0.234,0.096,0.464,0.2,0.69,0.313c0.068,0.034,0.134,0.069,0.201,0.105c0.191,0.101,0.378,0.207,0.562,0.32
		c0.063,0.039,0.126,0.077,0.188,0.116c0.213,0.138,0.422,0.282,0.624,0.436c0.021,0.016,0.044,0.031,0.065,0.047
		c0.231,0.178,0.454,0.366,0.669,0.564c0.026,0.024,0.05,0.05,0.076,0.074c0.178,0.167,0.35,0.341,0.515,0.521
		c0.053,0.058,0.104,0.117,0.156,0.176c0.135,0.154,0.265,0.312,0.39,0.474c0.054,0.07,0.109,0.14,0.161,0.212
		c0.122,0.167,0.237,0.339,0.349,0.514c0.043,0.067,0.089,0.131,0.13,0.2c0.141,0.232,0.273,0.471,0.396,0.717
		c0.045,0.09,0.083,0.185,0.126,0.276c0.06,0.13,0.124,0.258,0.178,0.391c5.451,13.27,18.237,21.844,32.575,21.844
		c19.413,0,35.207-15.794,35.207-35.207c0-36.621-50.861-87.349-77.031-109.561c-26.168,22.21-77.033,72.938-77.033,109.561
		c0,19.413,15.793,35.207,35.207,35.207c14.337,0,27.124-8.574,32.575-21.844C220.824,260.196,220.907,260.021,220.991,259.847z"/>
	<path style="fill:#7744AD;" d="M237.869,325.5c-3.127-4.911-5.722-10.329-7.869-15.846c-2.147,5.517-4.742,10.935-7.87,15.846
		H237.869z"/>
	<path d="M267.206,325.94c-9.713-2.982-16.395-16.032-20.73-29.858c7.665,3.953,16.307,6.138,25.35,6.138
		c30.441,0,55.207-24.766,55.207-55.207c0-24.721-15.515-54.333-46.114-88.016c-22.051-24.272-43.785-41.604-44.699-42.329
		c-3.643-2.891-8.794-2.891-12.435,0c-0.915,0.726-22.649,18.056-44.701,42.329c-30.6,33.681-46.115,63.294-46.115,88.016
		c0,30.441,24.766,55.207,55.207,55.207c9.042,0,17.684-2.185,25.349-6.138c-4.336,13.828-11.018,26.876-20.73,29.858
		c-4.732,1.453-7.689,6.148-6.954,11.044c0.734,4.895,4.939,8.516,9.889,8.516h68.543c4.95,0,9.155-3.621,9.89-8.516
		C274.895,332.089,271.938,327.394,267.206,325.94z M188.175,282.22c-19.413,0-35.207-15.794-35.207-35.207
		c0-36.622,50.864-87.351,77.033-109.561c26.17,22.212,77.031,72.939,77.031,109.561c0,19.413-15.794,35.207-35.207,35.207
		c-14.338,0-27.124-8.574-32.575-21.844c-0.055-0.133-0.118-0.261-0.178-0.391c-0.042-0.092-0.081-0.186-0.126-0.276
		c-0.123-0.246-0.255-0.484-0.396-0.717c-0.041-0.068-0.087-0.133-0.13-0.2c-0.112-0.175-0.227-0.347-0.349-0.514
		c-0.052-0.072-0.107-0.142-0.161-0.212c-0.125-0.162-0.256-0.32-0.39-0.474c-0.052-0.059-0.103-0.118-0.156-0.176
		c-0.166-0.18-0.337-0.354-0.515-0.521c-0.026-0.024-0.05-0.05-0.076-0.074c-0.215-0.198-0.438-0.386-0.669-0.564
		c-0.021-0.017-0.044-0.031-0.065-0.047c-0.202-0.153-0.411-0.298-0.624-0.436c-0.062-0.04-0.125-0.078-0.188-0.116
		c-0.184-0.113-0.371-0.219-0.562-0.32c-0.067-0.036-0.133-0.071-0.201-0.105c-0.226-0.113-0.455-0.217-0.69-0.313
		c-0.028-0.012-0.056-0.025-0.084-0.036c-0.274-0.109-0.553-0.205-0.836-0.289c-0.036-0.011-0.072-0.019-0.108-0.029
		c-0.247-0.07-0.496-0.13-0.749-0.182c-0.059-0.012-0.118-0.022-0.177-0.034c-0.253-0.047-0.509-0.084-0.768-0.111
		c-0.038-0.004-0.076-0.009-0.114-0.013c-0.309-0.029-0.621-0.049-0.936-0.049c-0.314,0-0.624,0.02-0.932,0.048
		c-0.035,0.003-0.07,0.008-0.105,0.012c-0.263,0.027-0.523,0.065-0.781,0.113c-0.055,0.01-0.109,0.02-0.164,0.031
		c-0.262,0.053-0.521,0.115-0.776,0.189c-0.026,0.007-0.053,0.013-0.079,0.021c-0.568,0.168-1.116,0.388-1.641,0.651
		c-0.048,0.024-0.095,0.049-0.142,0.074c-0.217,0.113-0.429,0.234-0.637,0.363c-0.041,0.025-0.082,0.049-0.122,0.075
		c-0.739,0.472-1.414,1.04-2.009,1.692c-0.027,0.03-0.053,0.061-0.08,0.09c-0.166,0.187-0.324,0.379-0.476,0.578
		c-0.032,0.041-0.064,0.082-0.095,0.124c-0.154,0.208-0.3,0.422-0.438,0.643c-0.017,0.027-0.036,0.053-0.052,0.081
		c-0.152,0.249-0.295,0.505-0.426,0.77c-0.019,0.039-0.035,0.079-0.053,0.117c-0.084,0.174-0.167,0.349-0.241,0.529
		C215.299,273.646,202.512,282.22,188.175,282.22z M230,309.654c2.147,5.517,4.742,10.935,7.869,15.846H222.13
		C225.258,320.589,227.852,315.171,230,309.654z"/>
</g>
<g>
</g>
<g>
</g>
<g>
</g>
<g>
</g>
<g>
</g>
<g>
</g>
<g>
</g>
<g>
</g>
<g>
</g>
<g>
</g>
<g>
</g>
<g>
</g>
<g>
</g>
<g>
</g>
<g>
</g>
</svg>
