<?xml version="1.0" encoding="iso-8859-1"?>
<!-- Generator: Adobe Illustrator 17.1.0, SVG Export Plug-In . SVG Version: 6.00 Build 0)  -->
<!DOCTYPE svg PUBLIC "-//W3C//DTD SVG 1.1//EN" "http://www.w3.org/Graphics/SVG/1.1/DTD/svg11.dtd">
<svg version="1.1" id="Capa_1" xmlns="http://www.w3.org/2000/svg" xmlns:xlink="http://www.w3.org/1999/xlink" x="0px" y="0px"
	 viewBox="0 0 460 460" style="enable-background:new 0 0 460 460;" xml:space="preserve">
<g>
	<path style="fill:#FCC324;" d="M240,20.331v419.326c14.895-1.009,31.255-4.306,46.119-10.694l28.54-113.404
		c0.749-2.979,2.826-5.447,5.632-6.696l61.229-27.247c8.835-27.692,14.398-54.956,14.398-77.413
		C395.918,89.51,317.356,25.438,240,20.331z M277.5,380c0,5.522-4.478,10-10,10s-10-4.478-10-10v-38.153c0-5.522,4.478-10,10-10
		s10,4.478,10,10V380z M312.155,256.602c-7.29,3.058-14.967,4.607-22.815,4.607c-17.155,0-33.435-7.43-44.664-20.384
		c-2.1-2.423-2.911-5.705-2.181-8.827s2.913-5.704,5.869-6.944l79.859-33.495V161c0-5.522,4.478-10,10-10s10,4.478,10,10v36.944
		C350.025,223.248,335.589,246.772,312.155,256.602z"/>
	<path style="fill:#FCC324;" d="M332.867,325.158l-22.37,88.887c3.339-2.879,6.432-6.027,9.203-9.475
		c18.421-22.916,37.956-59.055,52.638-96.977L332.867,325.158z"/>
	<path style="fill:#666666;" d="M78.48,281.616l61.229,27.248c2.806,1.248,4.883,3.717,5.632,6.695l28.54,113.403
		c14.864,6.388,31.224,9.686,46.119,10.694V20.331C142.644,25.438,64.082,89.51,64.082,204.204
		C64.082,226.661,69.645,253.924,78.48,281.616z M202.5,341.847V380c0,5.522-4.478,10-10,10s-10-4.478-10-10v-38.153
		c0-5.522,4.478-10,10-10S202.5,336.324,202.5,341.847z M139.876,212.913c-3.905-3.905-3.905-10.237,0-14.143
		c3.906-3.904,10.236-3.904,14.143,0l11.354,11.354l11.354-11.354c3.908-3.905,10.238-3.903,14.143,0
		c3.905,3.905,3.905,10.237,0,14.143l-11.354,11.354l11.354,11.354c3.905,3.905,3.905,10.237,0,14.143
		c-1.953,1.952-4.512,2.929-7.071,2.929s-5.118-0.977-7.071-2.929l-11.354-11.354l-11.354,11.354
		c-1.953,1.952-4.513,2.929-7.071,2.929c-2.56,0-5.118-0.977-7.071-2.929c-3.905-3.905-3.905-10.237,0-14.143l11.354-11.354
		L139.876,212.913z"/>
	<path style="fill:#666666;" d="M149.503,414.045l-22.37-88.887l-39.472-17.565c14.682,37.922,34.218,74.062,52.639,96.978
		C143.071,408.018,146.165,411.166,149.503,414.045z"/>
	<path style="fill:#FFFFFF;" d="M326.568,213.941l-54.931,23.039c5.422,2.75,11.475,4.229,17.702,4.229
		c5.179,0,10.252-1.026,15.079-3.051C315.254,233.614,323.184,224.645,326.568,213.941z"/>
	<path d="M348.224,197.944V161c0-5.522-4.478-10-10-10s-10,4.478-10,10v30.559l-79.859,33.495c-2.956,1.24-5.139,3.822-5.869,6.944
		s0.081,6.404,2.181,8.827c11.229,12.954,27.509,20.384,44.664,20.384c7.849,0,15.525-1.55,22.815-4.607
		C335.589,246.772,350.025,223.248,348.224,197.944z M289.34,241.209c-6.228,0-12.28-1.479-17.702-4.229l54.931-23.039
		c-3.385,10.703-11.314,19.673-22.149,24.217C299.592,240.183,294.519,241.209,289.34,241.209z"/>
	<path d="M267.5,331.847c-5.522,0-10,4.478-10,10V380c0,5.522,4.478,10,10,10s10-4.478,10-10v-38.153
		C277.5,336.324,273.022,331.847,267.5,331.847z"/>
	<path d="M399.48,291.239c10.046-30.655,16.438-61.307,16.438-87.035c0-58.064-20.054-110.817-56.467-148.542
		c-17.117-17.733-37.111-31.592-59.429-41.189C277.693,4.869,254.135,0,230,0s-47.693,4.869-70.022,14.473
		c-22.317,9.598-42.312,23.456-59.429,41.189C64.136,93.387,44.082,146.14,44.082,204.204c0,25.727,6.391,56.376,16.436,87.03
		c0.128,0.53,0.299,1.047,0.511,1.549c15.885,47.887,40.581,95.58,63.682,124.318C146.305,443.963,185.665,460,230,460
		s83.695-16.037,105.288-42.898c23.102-28.739,47.798-76.434,63.684-124.322C399.182,292.281,399.352,291.767,399.48,291.239z
		 M381.52,281.617l-61.229,27.247c-2.806,1.249-4.883,3.718-5.632,6.696l-28.54,113.404c-14.864,6.388-31.225,9.685-46.119,10.694
		V20.331c77.356,5.106,155.918,69.179,155.918,183.873C395.918,226.661,390.355,253.924,381.52,281.617z M220,20.331v419.326
		c-14.895-1.009-31.255-4.306-46.119-10.694l-28.54-113.403c-0.749-2.979-2.826-5.447-5.632-6.695L78.48,281.616
		c-8.835-27.692-14.398-54.956-14.398-77.412C64.082,89.51,142.644,25.438,220,20.331z M127.133,325.158l22.37,88.887
		c-3.339-2.879-6.432-6.027-9.203-9.475c-18.421-22.916-37.957-59.056-52.639-96.978L127.133,325.158z M310.497,414.045
		l22.37-88.887l39.471-17.564c-14.682,37.922-34.217,74.061-52.638,96.977C316.929,408.018,313.835,411.166,310.497,414.045z"/>
	<path d="M182.5,341.847V380c0,5.522,4.478,10,10,10s10-4.478,10-10v-38.153c0-5.522-4.478-10-10-10S182.5,336.324,182.5,341.847z"
		/>
	<path d="M139.876,249.764c1.953,1.952,4.512,2.929,7.071,2.929c2.559,0,5.118-0.977,7.071-2.929l11.354-11.354l11.354,11.354
		c1.953,1.952,4.512,2.929,7.071,2.929s5.118-0.977,7.071-2.929c3.905-3.905,3.905-10.237,0-14.143l-11.354-11.354l11.354-11.354
		c3.905-3.905,3.905-10.237,0-14.143c-3.904-3.903-10.234-3.905-14.143,0l-11.354,11.354l-11.354-11.354
		c-3.906-3.904-10.236-3.904-14.143,0c-3.905,3.905-3.905,10.237,0,14.143l11.354,11.354l-11.354,11.354
		C135.971,239.526,135.971,245.858,139.876,249.764z"/>
</g>
<g>
</g>
<g>
</g>
<g>
</g>
<g>
</g>
<g>
</g>
<g>
</g>
<g>
</g>
<g>
</g>
<g>
</g>
<g>
</g>
<g>
</g>
<g>
</g>
<g>
</g>
<g>
</g>
<g>
</g>
</svg>
