<?xml version="1.0" encoding="iso-8859-1"?>
<!-- Generator: Adobe Illustrator 17.1.0, SVG Export Plug-In . SVG Version: 6.00 Build 0)  -->
<!DOCTYPE svg PUBLIC "-//W3C//DTD SVG 1.1//EN" "http://www.w3.org/Graphics/SVG/1.1/DTD/svg11.dtd">
<svg version="1.1" id="Capa_1" xmlns="http://www.w3.org/2000/svg" xmlns:xlink="http://www.w3.org/1999/xlink" x="0px" y="0px"
	 viewBox="0 0 460 460" style="enable-background:new 0 0 460 460;" xml:space="preserve">
<g>
	<path style="fill:#70AD46;" d="M230,173c5.344,0,10.031-7.01,10.031-15s-4.688-15-10.031-15s-10.031,7.01-10.031,15
		S224.656,173,230,173z"/>
	<path style="fill:#70AD46;" d="M230,203c25.363,0,45.998-26.866,45.998-59.889S255.363,83.223,230,83.223
		s-45.998,26.866-45.998,59.889S204.636,203,230,203z M230,123c16.56,0,30.031,15.701,30.031,35S246.559,193,230,193
		c-16.559,0-30.031-15.701-30.031-35S213.441,123,230,123z"/>
	<path style="fill:#70AD46;" d="M54.293,195.711V243.2h351.423v-47.489C405.716,98.823,326.891,20,230.004,20
		C133.116,20,54.293,98.823,54.293,195.711z M230,63.223c36.392,0,65.998,35.838,65.998,79.889S266.391,223,230,223
		c-36.391,0-65.998-35.838-65.998-79.889S193.609,63.223,230,63.223z"/>
	<path d="M230.004,0C122.089,0,34.293,87.796,34.293,195.711v57.325c-0.001,0.056-0.008,0.109-0.008,0.165v53.111
		c0,0.056,0.007,0.109,0.008,0.165v52.948c0,1.282,0.247,2.552,0.726,3.741c1.093,2.71,27.276,66.64,70.951,90.225
		c8.122,4.387,17.11,6.61,26.712,6.61c23.82,0,47.838-13.724,67.137-24.75c11.833-6.762,24.069-13.753,30.181-13.753
		s18.349,6.991,30.183,13.753c19.299,11.026,43.316,24.749,67.135,24.75c0.001,0,0.001,0,0.002,0c9.601,0,18.589-2.224,26.711-6.61
		c43.675-23.585,69.857-87.515,70.95-90.225c0.479-1.189,0.727-2.459,0.727-3.741v-52.938c0.001-0.059,0.009-0.115,0.009-0.174
		V253.2v-57.489C425.716,87.796,337.92,0,230.004,0z M405.707,357.396c-4.302,9.927-27.377,60.142-61.181,78.396
		c-5.243,2.832-10.872,4.208-17.207,4.208h-0.001c-18.508-0.001-39.071-11.749-57.214-22.115
		c-15.391-8.793-28.682-16.388-40.104-16.388s-24.714,7.595-40.104,16.388C171.754,428.251,151.191,440,132.682,440
		c-6.336,0-11.965-1.376-17.209-4.208c-33.713-18.205-56.868-68.479-61.18-78.4v-41.08h351.414V357.396z M405.716,195.711V243.2
		H54.293v-47.489C54.293,98.823,133.116,20,230.004,20C326.891,20,405.716,98.823,405.716,195.711z M54.284,263.2h351.431v33.111
		H54.293h-0.008V263.2z"/>
	<path style="fill:#2D5C34;" d="M54.293,357.392c4.313,9.922,27.467,60.195,61.18,78.4c5.244,2.832,10.873,4.208,17.209,4.208
		c18.509,0,39.072-11.749,57.214-22.115c15.39-8.793,28.681-16.388,40.104-16.388s24.714,7.595,40.104,16.388
		c18.143,10.366,38.706,22.114,57.214,22.115h0.001c6.335,0,11.964-1.376,17.207-4.208c33.804-18.254,56.879-68.469,61.181-78.396
		v-41.085H54.293V357.392z M246.616,379.357c0.73-3.122,2.913-5.704,5.869-6.944l102.563-43.016c2.959-1.24,6.331-0.987,9.067,0.68
		c2.739,1.667,4.513,4.547,4.769,7.742c2.374,29.59-14.427,57.185-41.806,68.667c-8.457,3.548-17.361,5.346-26.466,5.346
		c-19.901,0-38.787-8.619-51.814-23.647C246.697,385.763,245.885,382.479,246.616,379.357z M92.726,338.416
		c0.256-3.196,2.029-6.075,4.768-7.742s6.11-1.919,9.067-0.68l100.627,42.204c2.957,1.24,5.14,3.822,5.87,6.944
		s-0.081,6.405-2.181,8.827c-12.817,14.786-31.399,23.267-50.98,23.267c-8.958,0-17.718-1.77-26.04-5.26
		C106.92,394.678,90.39,367.527,92.726,338.416z"/>
	<path style="fill:#FFFFFF;" d="M141.594,387.533c5.858,2.457,12.017,3.703,18.304,3.703c8.776,0,17.266-2.421,24.604-6.865
		l-70.738-29.669C117.17,369.194,127.299,381.537,141.594,387.533z"/>
	<path d="M133.858,405.977c8.321,3.49,17.082,5.26,26.04,5.26c19.581,0,38.163-8.48,50.98-23.267c2.1-2.422,2.911-5.705,2.181-8.827
		s-2.913-5.704-5.87-6.944l-100.627-42.204c-2.957-1.239-6.329-0.987-9.067,0.68s-4.512,4.546-4.768,7.742
		C90.39,367.527,106.92,394.678,133.858,405.977z M184.502,384.371c-7.338,4.444-15.828,6.865-24.604,6.865
		c-6.287,0-12.446-1.246-18.304-3.703c-14.295-5.996-24.423-18.339-27.83-32.831L184.502,384.371z"/>
	<path style="fill:#FFFFFF;" d="M347.905,354.081l-72.791,30.529c7.581,4.674,16.39,7.222,25.498,7.222
		c6.434,0,12.735-1.274,18.73-3.789C334.092,381.857,344.506,369.069,347.905,354.081z"/>
	<path d="M300.612,411.832c9.104,0,18.009-1.798,26.466-5.346c27.379-11.482,44.18-39.077,41.806-68.667
		c-0.256-3.195-2.029-6.075-4.769-7.742c-2.736-1.667-6.108-1.92-9.067-0.68l-102.563,43.016c-2.956,1.24-5.139,3.822-5.869,6.944
		s0.081,6.405,2.182,8.827C261.825,403.213,280.711,411.832,300.612,411.832z M300.612,391.832c-9.108,0-17.917-2.548-25.498-7.222
		l72.791-30.529c-3.399,14.988-13.813,27.776-28.563,33.962C313.347,390.558,307.046,391.832,300.612,391.832z"/>
	<polygon style="fill:#162E1A;" points="405.716,296.312 405.716,263.2 54.284,263.2 54.284,296.312 54.293,296.312 	"/>
	<path d="M230,223c36.392,0,65.998-35.838,65.998-79.889S266.391,63.223,230,63.223c-36.391,0-65.998,35.838-65.998,79.889
		S193.609,223,230,223z M230,83.223c25.363,0,45.998,26.866,45.998,59.889S255.363,203,230,203s-45.998-26.866-45.998-59.889
		S204.636,83.223,230,83.223z"/>
	<path d="M230,193c16.56,0,30.031-15.701,30.031-35S246.559,123,230,123c-16.559,0-30.031,15.701-30.031,35S213.441,193,230,193z
		 M230,143c5.344,0,10.031,7.01,10.031,15s-4.688,15-10.031,15s-10.031-7.01-10.031-15S224.656,143,230,143z"/>
</g>
<g>
</g>
<g>
</g>
<g>
</g>
<g>
</g>
<g>
</g>
<g>
</g>
<g>
</g>
<g>
</g>
<g>
</g>
<g>
</g>
<g>
</g>
<g>
</g>
<g>
</g>
<g>
</g>
<g>
</g>
</svg>
