<?xml version="1.0" encoding="iso-8859-1"?>
<!-- Generator: Adobe Illustrator 17.1.0, SVG Export Plug-In . SVG Version: 6.00 Build 0)  -->
<!DOCTYPE svg PUBLIC "-//W3C//DTD SVG 1.1//EN" "http://www.w3.org/Graphics/SVG/1.1/DTD/svg11.dtd">
<svg version="1.1" id="Capa_1" xmlns="http://www.w3.org/2000/svg" xmlns:xlink="http://www.w3.org/1999/xlink" x="0px" y="0px"
	 viewBox="0 0 460 460" style="enable-background:new 0 0 460 460;" xml:space="preserve">
<g>
	<path style="fill:#FDF133;" d="M266.682,234.213c-1.724-3.3-1.473-7.284,0.654-10.341l65.438-94.081h-57.229
		c-3.724,0-7.139-2.068-8.863-5.369c-1.724-3.3-1.473-7.284,0.654-10.341L332.774,20H173.39l-50.023,114.586h30.543
		c3.345,0,6.468,1.672,8.322,4.455s2.194,6.31,0.906,9.396l-40.039,95.939h62.374c3.176,0,6.163,1.509,8.049,4.065
		c1.885,2.556,2.443,5.855,1.505,8.89L146.08,415.541l181.181-175.959h-51.716C271.821,239.582,268.406,237.514,266.682,234.213z"/>
	<path d="M361.178,225.823c-1.53-3.773-5.195-6.241-9.267-6.241h-57.229l65.438-94.081c2.127-3.057,2.378-7.041,0.654-10.342
		c-1.725-3.3-5.14-5.368-8.863-5.368h-57.229L360.12,15.71c2.127-3.057,2.378-7.041,0.654-10.341C359.05,2.068,355.635,0,351.911,0
		H166.844c-3.976,0-7.574,2.355-9.165,5.999L98.924,140.585c-1.35,3.092-1.05,6.655,0.798,9.478s4.994,4.523,8.367,4.523h30.811
		L98.86,250.525c-1.288,3.087-0.948,6.612,0.906,9.396c1.854,2.783,4.978,4.455,8.322,4.455h63.822l-56.513,182.668
		c-1.351,4.365,0.431,9.092,4.326,11.48c1.617,0.99,3.426,1.475,5.225,1.475c2.537,0,5.052-0.963,6.97-2.826l226.959-220.418
		C361.799,233.919,362.708,229.596,361.178,225.823z M146.08,415.541l48.946-158.209c0.938-3.034,0.38-6.334-1.505-8.89
		c-1.886-2.557-4.873-4.065-8.049-4.065h-62.374l40.039-95.939c1.288-3.087,0.948-6.613-0.906-9.396s-4.978-4.455-8.322-4.455
		h-30.543L173.39,20h159.385l-65.438,94.081c-2.127,3.057-2.378,7.041-0.654,10.341c1.725,3.301,5.14,5.369,8.863,5.369h57.229
		l-65.438,94.081c-2.127,3.057-2.378,7.041-0.654,10.341c1.725,3.301,5.14,5.369,8.863,5.369h51.716L146.08,415.541z"/>
</g>
<g>
</g>
<g>
</g>
<g>
</g>
<g>
</g>
<g>
</g>
<g>
</g>
<g>
</g>
<g>
</g>
<g>
</g>
<g>
</g>
<g>
</g>
<g>
</g>
<g>
</g>
<g>
</g>
<g>
</g>
</svg>
