<?xml version="1.0" encoding="iso-8859-1"?>
<!-- Generator: Adobe Illustrator 17.1.0, SVG Export Plug-In . SVG Version: 6.00 Build 0)  -->
<!DOCTYPE svg PUBLIC "-//W3C//DTD SVG 1.1//EN" "http://www.w3.org/Graphics/SVG/1.1/DTD/svg11.dtd">
<svg version="1.1" id="Capa_1" xmlns="http://www.w3.org/2000/svg" xmlns:xlink="http://www.w3.org/1999/xlink" x="0px" y="0px"
	 viewBox="0 0 460 460" style="enable-background:new 0 0 460 460;" xml:space="preserve">
<g>
	<path style="fill:#333333;" d="M427.334,276.284H32.666c-4.813,0-8.729,3.915-8.729,8.728s3.916,8.729,8.729,8.729h394.668
		c4.813,0,8.729-3.916,8.729-8.729S432.146,276.284,427.334,276.284z"/>
	<path d="M427.334,256.284h-62.933c-4.766-17.575-7.684-39.553-8.683-65.481c-0.125-3.258-1.805-6.096-4.303-7.829
		c-1.645-71.571,11.169-147.233,11.303-148.016c0.772-4.501-1.602-8.953-5.77-10.819C354.747,23.153,302.204,0,230,0
		S105.253,23.153,103.052,24.139c-4.168,1.866-6.542,6.318-5.77,10.819c0.134,0.783,12.947,76.445,11.303,148.016
		c-2.498,1.733-4.178,4.571-4.303,7.829c-0.998,25.928-3.916,47.906-8.682,65.481H32.666c-15.841,0-28.729,12.887-28.729,28.728
		s12.888,28.729,28.729,28.729h394.668c15.841,0,28.729-12.888,28.729-28.729S443.175,256.284,427.334,256.284z M427.334,293.74
		H32.666c-4.813,0-8.729-3.916-8.729-8.729s3.916-8.728,8.729-8.728h394.668c4.813,0,8.729,3.915,8.729,8.728
		S432.146,293.74,427.334,293.74z M230,20c53.025,0,95.533,13.595,111.721,19.601c-3.277,21.419-11.506,81.828-10.352,141.587
		H128.631c1.154-59.759-7.074-120.168-10.352-141.587C134.474,33.593,176.979,20,230,20z M123.802,201.188h212.396
		c1.228,20.939,3.759,39.384,7.558,55.096H116.244C120.044,240.571,122.575,222.127,123.802,201.188z"/>
	<path style="fill:#333333;" d="M128.631,181.188h202.738c-1.154-59.759,7.074-120.168,10.352-141.587
		C325.533,33.595,283.025,20,230,20c-53.021,0-95.526,13.593-111.721,19.601C121.557,61.02,129.785,121.429,128.631,181.188z"/>
	<path style="fill:#7744AD;" d="M336.198,201.188H123.802c-1.227,20.939-3.758,39.384-7.558,55.096h227.512
		C339.957,240.571,337.426,222.127,336.198,201.188z"/>
	<path style="fill:#09D6DE;" d="M212.906,394.098c0-11.265-4.086-21.589-10.844-29.585l-11.533,15.167
		c-1.967,2.587-4.95,3.948-7.968,3.948c-2.109,0-4.236-0.665-6.045-2.041c-4.396-3.343-5.25-9.616-1.907-14.013l11.542-15.179
		c-5.832-2.688-12.315-4.2-19.147-4.2c-25.311,0-45.902,20.592-45.902,45.903c0,11.265,4.086,21.588,10.844,29.584l21.622-28.436
		c3.341-4.396,9.616-5.252,14.013-1.907c4.396,3.343,5.25,9.616,1.907,14.013l-21.632,28.448c5.833,2.689,12.315,4.201,19.148,4.201
		C192.314,440,212.906,419.408,212.906,394.098z"/>
	<path style="fill:#FFFFFF;" d="M206.893,341.639c-0.144-0.11-0.296-0.203-0.444-0.304c0.417,0.313,0.82,0.645,1.23,0.967
		C207.431,342.07,207.169,341.849,206.893,341.639z"/>
	<path style="fill:#FFFFFF;" d="M176.517,381.586c1.809,1.376,3.936,2.041,6.045,2.041c3.018,0,6.001-1.361,7.968-3.948
		l11.533-15.167c-4.328-5.12-9.753-9.279-15.911-12.118l-11.542,15.179C171.267,371.97,172.12,378.243,176.517,381.586z"/>
	<path style="fill:#FFFFFF;" d="M127.114,446.556c0.217,0.165,0.439,0.319,0.665,0.464c-0.492-0.366-0.971-0.75-1.453-1.129
		C126.575,446.123,126.837,446.345,127.114,446.556z"/>
	<path style="fill:#FFFFFF;" d="M167.58,393.339c-4.396-3.345-10.672-2.488-14.013,1.907l-21.622,28.436
		c4.328,5.12,9.753,9.279,15.91,12.118l21.632-28.448C172.83,402.955,171.977,396.682,167.58,393.339z"/>
	<path d="M207.679,342.302c-0.41-0.323-0.813-0.654-1.23-0.967c-11.005-8.249-24.664-13.141-39.445-13.141
		c-36.339,0-65.902,29.564-65.902,65.903c0,20.996,9.881,39.716,25.225,51.793c0.482,0.379,0.96,0.763,1.453,1.129
		c10.968,8.15,24.542,12.98,39.225,12.98c36.339,0,65.902-29.563,65.902-65.902C232.906,373.1,223.024,354.379,207.679,342.302z
		 M147.856,435.799c-6.158-2.839-11.583-6.998-15.91-12.118c-6.758-7.996-10.844-18.319-10.844-29.584
		c0-25.312,20.592-45.903,45.902-45.903c6.833,0,13.315,1.512,19.147,4.2c6.158,2.839,11.583,6.998,15.911,12.118
		c6.758,7.997,10.844,18.32,10.844,29.585c0,25.311-20.592,45.902-45.902,45.902C160.171,440,153.688,438.488,147.856,435.799z"/>
</g>
<g>
</g>
<g>
</g>
<g>
</g>
<g>
</g>
<g>
</g>
<g>
</g>
<g>
</g>
<g>
</g>
<g>
</g>
<g>
</g>
<g>
</g>
<g>
</g>
<g>
</g>
<g>
</g>
<g>
</g>
</svg>
