<?xml version="1.0" encoding="iso-8859-1"?>
<!-- Generator: Adobe Illustrator 17.1.0, SVG Export Plug-In . SVG Version: 6.00 Build 0)  -->
<!DOCTYPE svg PUBLIC "-//W3C//DTD SVG 1.1//EN" "http://www.w3.org/Graphics/SVG/1.1/DTD/svg11.dtd">
<svg version="1.1" id="Capa_1" xmlns="http://www.w3.org/2000/svg" xmlns:xlink="http://www.w3.org/1999/xlink" x="0px" y="0px"
	 viewBox="0 0 460 460" style="enable-background:new 0 0 460 460;" xml:space="preserve">
<g>
	<polygon style="fill:#B3B3B3;" points="154.898,330.232 101.994,330.232 94.12,365.185 93.045,369.959 154.898,399.089 	"/>
	<path style="fill:#B3B3B3;" d="M366.955,369.959l-1.076-4.774l-7.874-34.953h-52.904v7.964c0,5.522-4.477,10-10,10s-10-4.478-10-10
		v-17.964c0-8.513-6.925-15.438-15.438-15.438h-79.329c-8.512,0-15.438,6.925-15.438,15.438v94.621
		c0,8.513,6.925,15.438,15.438,15.438h79.329c8.512,0,15.438-6.925,15.438-15.438v-46.657c0-5.522,4.477-10,10-10s10,4.478,10,10
		v30.894L366.955,369.959z"/>
	<path style="fill:#B3B3B3;" d="M257.584,57.729l3.798,82.806h88.759C328.231,93.985,297.216,66.256,257.584,57.729z"/>
	<path style="fill:#B3B3B3;" d="M109.86,140.535h88.759l3.798-82.806C162.784,66.256,131.769,93.985,109.86,140.535z"/>
	<path style="fill:#B3B3B3;" d="M350.116,204.195l50.93,226.095h36.039c-9.698-37.298-39.381-149.947-63.62-226.095H350.116z"/>
	<path style="fill:#B3B3B3;" d="M86.535,204.195c-24.239,76.148-53.922,188.797-63.62,226.095h36.039l50.93-226.095H86.535z"/>
	<path d="M459.688,437.812c-1.823-7.127-38.78-151.301-68.101-242.662l48.897-91.738c2.222-4.169,1.223-9.324-2.395-12.362
		c-3.62-3.039-8.87-3.128-12.591-0.218l-56.041,43.835c-30.319-66.103-74.099-90.503-112.814-97.457l-0.824-17.957
		c-0.245-5.339-4.645-9.542-9.989-9.542h-31.66c-5.345,0-9.745,4.203-9.989,9.542l-0.824,17.957
		c-38.605,6.934-82.245,31.219-112.554,96.896L34.851,86.117c-3.621-3.104-8.931-3.223-12.684-0.276
		c-3.752,2.945-4.903,8.13-2.748,12.386l49.031,96.805c-29.327,91.355-66.315,235.65-68.139,242.78
		c-0.766,2.993-0.105,6.171,1.789,8.611c1.895,2.439,4.81,3.867,7.899,3.867h56.952c4.676,0,8.728-3.24,9.755-7.803l11.836-52.542
		l66.979,31.544c3.116,16.378,17.542,28.8,34.814,28.8h79.329c17.272,0,31.698-12.422,34.814-28.8l66.979-31.544l11.836,52.542
		c1.027,4.563,5.079,7.803,9.755,7.803H450c3.089,0,6.004-1.428,7.899-3.867C459.793,443.982,460.454,440.805,459.688,437.812z
		 M401.046,430.29l-50.93-226.095h23.349c24.239,76.148,53.922,188.797,63.62,226.095H401.046z M295.102,358.195
		c-5.523,0-10,4.478-10,10v46.657c0,8.513-6.925,15.438-15.438,15.438h-79.329c-8.512,0-15.438-6.925-15.438-15.438v-94.621
		c0-8.513,6.925-15.438,15.438-15.438h79.329c8.512,0,15.438,6.925,15.438,15.438v17.964c0,5.522,4.477,10,10,10s10-4.478,10-10
		v-7.964h52.904l7.874,34.953l1.076,4.774l-61.853,29.13v-30.894C305.102,362.673,300.625,358.195,295.102,358.195z M22.915,430.29
		c9.698-37.298,39.381-149.947,63.62-226.095h23.349L58.954,430.29H22.915z M88.09,158.126c1.813,1.555,4.122,2.409,6.51,2.409
		h113.57c5.345,0,9.745-4.203,9.989-9.542l5.563-121.283h12.557l5.563,121.283c0.245,5.339,4.645,9.542,9.989,9.542H365.4
		c2.233,0,4.402-0.747,6.161-2.123l29.059-22.729l-25.858,48.513h-37.149H122.387H85.381l-25.425-50.198L88.09,158.126z
		 M198.618,140.535H109.86c21.909-46.55,52.924-74.279,92.556-82.806L198.618,140.535z M261.382,140.535l-3.798-82.806
		c39.632,8.527,70.647,36.256,92.556,82.806H261.382z M303.666,310.232c-4.327-14.686-17.933-25.438-34.001-25.438h-79.329
		c-16.068,0-29.674,10.752-34.001,25.438h-49.835l23.886-106.036h199.229l23.886,106.036H303.666z M94.12,365.185l7.874-34.953
		h52.904v68.858l-61.853-29.13L94.12,365.185z"/>
	<path style="fill:#666666;" d="M85.381,184.195h37.006h215.226h37.149l25.858-48.513l-29.059,22.729
		c-1.759,1.376-3.928,2.123-6.161,2.123H251.83c-5.345,0-9.745-4.203-9.989-9.542L236.278,29.71h-12.557l-5.563,121.283
		c-0.245,5.339-4.645,9.542-9.989,9.542H94.6c-2.388,0-4.697-0.854-6.51-2.409l-28.134-24.129L85.381,184.195z"/>
</g>
<g>
</g>
<g>
</g>
<g>
</g>
<g>
</g>
<g>
</g>
<g>
</g>
<g>
</g>
<g>
</g>
<g>
</g>
<g>
</g>
<g>
</g>
<g>
</g>
<g>
</g>
<g>
</g>
<g>
</g>
</svg>
