<?xml version="1.0" encoding="iso-8859-1"?>
<!-- Generator: Adobe Illustrator 17.1.0, SVG Export Plug-In . SVG Version: 6.00 Build 0)  -->
<!DOCTYPE svg PUBLIC "-//W3C//DTD SVG 1.1//EN" "http://www.w3.org/Graphics/SVG/1.1/DTD/svg11.dtd">
<svg version="1.1" id="Capa_1" xmlns="http://www.w3.org/2000/svg" xmlns:xlink="http://www.w3.org/1999/xlink" x="0px" y="0px"
	 viewBox="0 0 464.773 464.773" style="enable-background:new 0 0 464.773 464.773;" xml:space="preserve">
<g>
	<path style="fill:#F8A71B;" d="M252.291,157.194c-3.616-1.537-6.941-2.954-9.992-4.342v27.68c0,5.522-4.477,10-10,10
		s-10-4.478-10-10v-27.681c-3.052,1.389-6.376,2.806-9.992,4.343c-31.925,13.563-75.271,31.979-78.005,92.66l75.136,37.179
		c1.674,0.829,3.083,2.109,4.067,3.698l8.795,14.202v-94.401c0-5.522,4.477-10,10-10s10,4.478,10,10v94.402l8.796-14.203
		c0.983-1.589,2.392-2.869,4.066-3.698l75.135-37.179C327.561,189.174,284.216,170.758,252.291,157.194z M202.233,245.26
		c-1.706,3.617-5.301,5.737-9.052,5.737c-1.429,0-2.88-0.307-4.258-0.957l-21.209-10c-4.996-2.355-7.136-8.314-4.78-13.31
		c2.355-4.995,8.313-7.139,13.31-4.78l21.209,10C202.448,234.306,204.588,240.265,202.233,245.26z M296.884,240.041l-21.209,10
		c-1.378,0.649-2.829,0.957-4.258,0.957c-3.751,0-7.346-2.12-9.052-5.737c-2.355-4.995-0.215-10.954,4.78-13.31l21.209-10
		c4.996-2.354,10.955-0.215,13.31,4.78C304.019,231.726,301.879,237.685,296.884,240.041z"/>
	<path style="fill:#F37D22;" d="M68.448,186.582c-1.41-7.211-2.559-14.914-3.45-23.136l-27.392-7.483l2.665,25.946L68.448,186.582z"
		/>
	<path style="fill:#F37D22;" d="M84.447,232.487c-3.589-6.224-6.736-13.167-9.397-20.872c-0.438-1.268-0.857-2.567-1.271-3.876
		l-31.389-5.205l2.769,26.962L84.447,232.487z"/>
	<path style="fill:#F37D22;" d="M101.782,253.863l-54.546-4.151l2.837,27.618h31.793c5.523,0,10,4.478,10,10s-4.477,10-10,10H52.127
		l2.889,28.128h26.849c5.523,0,10,4.478,10,10c0,36.326,11.748,55.3,22.124,64.151V262.235
		C109.648,259.918,105.577,257.126,101.782,253.863z"/>
	<path style="fill:#F37D22;" d="M63.342,142.261c-0.331-6.388-0.542-13.033-0.622-19.966l-29.809-12.041l2.504,24.378
		L63.342,142.261z"/>
	<path style="fill:#F37D22;" d="M76.469,106.281c0.224,0.092,0.44,0.197,0.656,0.305c0.087,0.043,0.177,0.081,0.262,0.126
		c0.171,0.092,0.334,0.195,0.498,0.296c0.122,0.074,0.248,0.143,0.366,0.222c0.082,0.055,0.159,0.119,0.239,0.176
		c0.984,0.703,1.822,1.56,2.478,2.533c0.652,0.965,1.129,2.053,1.413,3.218c0.026,0.106,0.059,0.211,0.082,0.319
		c0.027,0.129,0.042,0.262,0.064,0.394c0.034,0.2,0.07,0.4,0.092,0.603c0.009,0.086,0.01,0.174,0.017,0.261
		c0.02,0.25,0.037,0.5,0.038,0.752c0,0.016,0.002,0.031,0.002,0.046c0,14.013,0.507,26.893,1.519,38.671
		c0.053,0.371,0.087,0.746,0.098,1.124c1.363,15.282,3.597,28.667,6.706,40.206c0.166,0.463,0.291,0.941,0.388,1.429
		c5.182,18.545,12.703,32.161,22.602,41.017v-61.497c0-50.943-11.751-85.481-34.928-102.657
		C63.103,61.999,43.135,59.544,27.65,59.035l2.95,28.715l45.823,18.51C76.438,106.266,76.453,106.275,76.469,106.281z"/>
	<path d="M197.452,231.951l-21.209-10c-4.996-2.358-10.955-0.215-13.31,4.78c-2.355,4.995-0.215,10.954,4.78,13.31l21.209,10
		c1.378,0.65,2.829,0.957,4.258,0.957c3.75,0,7.346-2.12,9.052-5.737C204.588,240.265,202.448,234.306,197.452,231.951z"/>
	<path d="M288.354,221.951l-21.209,10c-4.996,2.355-7.136,8.314-4.78,13.31c1.706,3.617,5.301,5.737,9.052,5.737
		c1.429,0,2.88-0.308,4.258-0.957l21.209-10c4.996-2.355,7.136-8.314,4.78-13.31C299.309,221.736,293.35,219.597,288.354,221.951z"
		/>
	<path style="fill:#F37D22;" d="M399.775,163.447c-0.89,8.222-2.039,15.924-3.45,23.136l28.177-4.672l2.665-25.946L399.775,163.447z
		"/>
	<path style="fill:#F37D22;" d="M382.908,277.329h31.793l2.837-27.618l-54.546,4.151c-3.795,3.264-7.866,6.055-12.207,8.372v137.374
		c10.376-8.852,22.124-27.825,22.124-64.151c0-5.522,4.477-10,10-10h26.849l2.889-28.128h-29.738c-5.523,0-10-4.478-10-10
		S377.385,277.329,382.908,277.329z"/>
	<path style="fill:#F37D22;" d="M402.054,122.295c-0.08,6.934-0.291,13.578-0.622,19.966l27.927-7.629l2.504-24.378L402.054,122.295
		z"/>
	<path style="fill:#F37D22;" d="M385.712,73.825c-23.176,17.176-34.928,51.714-34.928,102.657v61.497
		c9.899-8.856,17.42-22.472,22.602-41.017c0.096-0.488,0.222-0.966,0.388-1.429c3.109-11.538,5.342-24.923,6.706-40.206
		c0.011-0.378,0.045-0.753,0.098-1.124c1.012-11.779,1.519-24.659,1.519-38.671c0-0.016,0.002-0.031,0.002-0.046
		c0.001-0.252,0.018-0.502,0.038-0.752c0.007-0.087,0.008-0.175,0.017-0.261c0.022-0.203,0.058-0.403,0.092-0.603
		c0.022-0.131,0.037-0.264,0.064-0.394c0.023-0.107,0.056-0.212,0.082-0.319c0.284-1.165,0.761-2.253,1.413-3.218
		c0.656-0.974,1.494-1.831,2.478-2.533c0.081-0.058,0.157-0.121,0.239-0.176c0.118-0.079,0.244-0.148,0.366-0.222
		c0.165-0.101,0.328-0.204,0.498-0.296c0.085-0.045,0.175-0.083,0.262-0.126c0.215-0.107,0.432-0.212,0.656-0.305
		c0.016-0.006,0.031-0.015,0.047-0.021l45.823-18.51l2.95-28.715C421.637,59.544,401.67,61.999,385.712,73.825z"/>
	<path style="fill:#F37D22;" d="M390.994,207.739c-0.414,1.309-0.833,2.608-1.271,3.876c-2.661,7.705-5.808,14.648-9.397,20.872
		l39.288-2.99l2.769-26.962L390.994,207.739z"/>
	<path d="M458.516,99.488c5.121-2.069,7.595-7.897,5.526-13.018c-1.535-3.799-5.14-6.136-8.99-6.248l3.112-30.3
		c0.289-2.814-0.628-5.621-2.524-7.722c-1.896-2.101-4.593-3.3-7.423-3.3c-23.692,0-50.935,1.457-74.413,18.855
		c-28.546,21.154-43.02,61.1-43.02,118.726v11.921c-3.892-5.547-8.352-10.737-13.389-15.552
		c-18.321-17.512-40.84-27.079-57.283-34.064c-7.989-3.395-17.932-7.619-19.918-10.174c-0.025-0.033-0.055-0.061-0.081-0.093
		c-0.168-0.21-0.346-0.411-0.53-0.606c-0.06-0.064-0.116-0.134-0.178-0.196c-0.248-0.251-0.509-0.488-0.782-0.712
		c-0.06-0.048-0.124-0.09-0.184-0.138c-0.22-0.171-0.445-0.336-0.68-0.49c-0.09-0.059-0.184-0.112-0.276-0.168
		c-0.215-0.13-0.433-0.255-0.659-0.37c-0.099-0.05-0.198-0.097-0.299-0.144c-0.228-0.107-0.461-0.205-0.698-0.294
		c-0.101-0.038-0.201-0.076-0.303-0.111c-0.244-0.083-0.494-0.154-0.746-0.219c-0.1-0.026-0.198-0.055-0.299-0.077
		c-0.265-0.059-0.535-0.103-0.807-0.14c-0.091-0.013-0.181-0.032-0.273-0.042c-0.361-0.04-0.727-0.063-1.098-0.063
		c-0.371,0-0.737,0.023-1.098,0.063c-0.092,0.01-0.182,0.029-0.274,0.042c-0.272,0.038-0.541,0.081-0.805,0.14
		c-0.102,0.022-0.201,0.051-0.301,0.077c-0.252,0.064-0.5,0.136-0.744,0.219c-0.103,0.035-0.204,0.073-0.305,0.112
		c-0.236,0.089-0.468,0.187-0.695,0.292c-0.101,0.047-0.202,0.095-0.301,0.146c-0.224,0.114-0.442,0.238-0.656,0.368
		c-0.093,0.057-0.187,0.11-0.279,0.169c-0.234,0.152-0.458,0.317-0.677,0.488c-0.061,0.048-0.126,0.09-0.187,0.14
		c-0.273,0.223-0.534,0.461-0.782,0.711c-0.062,0.063-0.118,0.132-0.178,0.196c-0.184,0.196-0.363,0.396-0.53,0.606
		c-0.026,0.032-0.056,0.06-0.081,0.093c-1.986,2.555-11.929,6.779-19.918,10.174c-16.443,6.985-38.962,16.553-57.283,34.064
		c-4.961,4.742-9.363,9.847-13.213,15.299v-11.668c0-57.626-14.474-97.571-43.02-118.726C67.491,40.358,40.248,38.901,16.556,38.901
		c-2.83,0-5.527,1.199-7.423,3.3c-1.896,2.101-2.813,4.907-2.524,7.722l3.112,30.301c-3.85,0.111-7.456,2.447-8.99,6.247
		c-2.069,5.12,0.406,10.948,5.526,13.018l5.678,2.294l2.848,27.726c-4.209,0.201-7.996,3.065-9.166,7.352
		c-1.456,5.327,1.684,10.826,7.011,12.281l4.292,1.172l2.927,28.492c-4.522,0.306-8.414,3.665-9.188,8.332
		c-0.903,5.448,2.781,10.598,8.229,11.501l3.047,0.505l2.974,28.954c-4.792,0.41-8.718,4.243-9.095,9.195
		c-0.419,5.507,3.706,10.311,9.212,10.729l1.945,0.148l3.001,29.219c-5.018,0.536-8.927,4.781-8.927,9.94c0,5.522,4.477,10,10,10
		h0.975l4.021,39.149c0.524,5.101,4.82,8.979,9.948,8.979h26.162c1.287,21.975,6.872,40.913,16.343,55.207
		c8.951,13.509,21.197,22.631,33.597,25.026c0.63,0.122,1.265,0.182,1.897,0.182c2.303,0,4.559-0.797,6.365-2.287
		c2.302-1.899,3.635-4.729,3.635-7.713V272.014l64.016,31.677l25.792,41.647c0.024,0.039,0.054,0.072,0.079,0.11
		c0.187,0.292,0.387,0.575,0.602,0.846c0.029,0.036,0.054,0.076,0.083,0.111c0.241,0.295,0.502,0.572,0.775,0.837
		c0.079,0.077,0.162,0.147,0.243,0.221c0.208,0.189,0.423,0.37,0.646,0.542c0.092,0.07,0.183,0.14,0.277,0.207
		c0.266,0.19,0.542,0.367,0.827,0.531c0.045,0.026,0.087,0.055,0.132,0.081c0.343,0.189,0.698,0.358,1.064,0.508
		c0.058,0.023,0.118,0.042,0.177,0.064c0.301,0.116,0.609,0.218,0.924,0.306c0.102,0.028,0.204,0.054,0.306,0.079
		c0.286,0.069,0.576,0.125,0.87,0.169c0.105,0.016,0.208,0.035,0.313,0.048c0.389,0.046,0.782,0.076,1.183,0.076
		s0.794-0.03,1.183-0.076c0.105-0.013,0.209-0.032,0.313-0.048c0.295-0.044,0.585-0.1,0.87-0.169
		c0.103-0.025,0.205-0.051,0.306-0.079c0.315-0.087,0.622-0.189,0.924-0.306c0.059-0.022,0.118-0.041,0.177-0.064
		c0.366-0.149,0.722-0.318,1.064-0.508c0.045-0.024,0.086-0.054,0.131-0.079c0.286-0.164,0.562-0.342,0.829-0.533
		c0.093-0.066,0.184-0.136,0.275-0.205c0.225-0.172,0.441-0.354,0.65-0.544c0.08-0.073,0.162-0.143,0.24-0.218
		c0.274-0.266,0.535-0.544,0.778-0.84c0.026-0.032,0.048-0.067,0.074-0.099c0.22-0.275,0.423-0.563,0.613-0.86
		c0.023-0.037,0.052-0.069,0.075-0.106l25.792-41.647l64.191-31.764v143.944c0,2.984,1.333,5.813,3.635,7.713
		c1.807,1.491,4.062,2.287,6.365,2.287c0.631,0,1.267-0.06,1.897-0.182c12.4-2.396,24.646-11.518,33.597-25.026
		c9.471-14.294,15.056-33.232,16.343-55.207h26.162c5.127,0,9.424-3.878,9.948-8.979l4.021-39.149h0.975c5.523,0,10-4.478,10-10
		c0-5.16-3.909-9.405-8.927-9.94l3.001-29.219l1.945-0.148c5.507-0.419,9.631-5.223,9.212-10.729
		c-0.377-4.952-4.308-8.785-9.095-9.195l2.974-28.954l3.047-0.505c5.449-0.903,9.133-6.053,8.229-11.501
		c-0.774-4.667-4.664-8.026-9.188-8.332l2.927-28.492l4.292-1.172c5.328-1.455,8.467-6.954,7.011-12.281
		c-1.17-4.285-4.956-7.149-9.166-7.351l2.848-27.726L458.516,99.488z M382.908,297.329h29.738l-2.889,28.128h-26.849
		c-5.523,0-10,4.478-10,10c0,36.326-11.748,55.3-22.124,64.151V262.235c4.341-2.317,8.412-5.108,12.207-8.372l54.546-4.151
		l-2.837,27.618h-31.793c-5.523,0-10,4.478-10,10S377.385,297.329,382.908,297.329z M251.094,290.731l-8.796,14.203v-94.402
		c0-5.522-4.477-10-10-10s-10,4.478-10,10v94.401l-8.795-14.202c-0.984-1.589-2.393-2.869-4.067-3.698l-75.136-37.179
		c2.735-60.681,46.081-79.097,78.005-92.66c3.616-1.537,6.941-2.954,9.992-4.343v27.681c0,5.522,4.477,10,10,10s10-4.478,10-10
		v-27.68c3.052,1.388,6.376,2.806,9.992,4.342c31.925,13.563,75.27,31.979,78.005,92.66l-75.135,37.179
		C253.487,287.862,252.078,289.142,251.094,290.731z M91.865,335.457c0-5.522-4.477-10-10-10H55.016l-2.889-28.128h29.738
		c5.523,0,10-4.478,10-10s-4.477-10-10-10H50.072l-2.837-27.618l54.546,4.151c3.795,3.264,7.866,6.055,12.207,8.372v137.374
		C103.613,390.757,91.865,371.783,91.865,335.457z M27.65,59.035c15.486,0.509,35.453,2.964,51.412,14.79
		c23.176,17.176,34.928,51.714,34.928,102.657v61.497c-9.899-8.856-17.42-22.472-22.602-41.017
		c-0.096-0.488-0.222-0.966-0.388-1.429c-3.109-11.538-5.342-24.923-6.706-40.206c-0.011-0.378-0.045-0.753-0.098-1.124
		c-1.012-11.779-1.519-24.659-1.519-38.671c0-0.016-0.002-0.031-0.002-0.046c-0.001-0.252-0.018-0.502-0.038-0.752
		c-0.007-0.087-0.008-0.175-0.017-0.261c-0.022-0.203-0.058-0.403-0.092-0.603c-0.022-0.131-0.037-0.264-0.064-0.394
		c-0.023-0.107-0.056-0.212-0.082-0.319c-0.284-1.165-0.761-2.253-1.413-3.218c-0.656-0.974-1.494-1.831-2.478-2.533
		c-0.081-0.058-0.157-0.121-0.239-0.176c-0.118-0.079-0.244-0.148-0.366-0.222c-0.165-0.101-0.328-0.204-0.498-0.296
		c-0.085-0.045-0.175-0.083-0.262-0.126c-0.215-0.107-0.432-0.212-0.656-0.305c-0.016-0.006-0.031-0.015-0.047-0.021L30.599,87.75
		L27.65,59.035z M62.719,122.295c0.08,6.934,0.291,13.578,0.622,19.966l-27.927-7.629l-2.504-24.378L62.719,122.295z
		 M64.998,163.447c0.89,8.222,2.039,15.924,3.45,23.136l-28.177-4.672l-2.665-25.946L64.998,163.447z M73.779,207.739
		c0.414,1.309,0.833,2.608,1.271,3.876c2.661,7.705,5.808,14.648,9.397,20.872l-39.288-2.99l-2.769-26.962L73.779,207.739z
		 M380.326,232.487c3.589-6.224,6.736-13.167,9.397-20.872c0.438-1.268,0.857-2.567,1.271-3.876l31.389-5.205l-2.769,26.962
		L380.326,232.487z M396.325,186.582c1.41-7.211,2.559-14.914,3.45-23.136l27.392-7.483l-2.665,25.946L396.325,186.582z
		 M401.431,142.261c0.331-6.388,0.542-13.033,0.622-19.966l29.809-12.041l-2.504,24.378L401.431,142.261z M388.351,106.259
		c-0.016,0.006-0.031,0.015-0.047,0.021c-0.224,0.092-0.44,0.197-0.656,0.305c-0.087,0.043-0.177,0.081-0.262,0.126
		c-0.171,0.092-0.334,0.195-0.498,0.296c-0.122,0.074-0.248,0.143-0.366,0.222c-0.082,0.055-0.159,0.119-0.239,0.176
		c-0.984,0.703-1.822,1.56-2.478,2.533c-0.652,0.965-1.129,2.053-1.413,3.218c-0.026,0.106-0.059,0.211-0.082,0.319
		c-0.027,0.129-0.042,0.262-0.064,0.394c-0.034,0.2-0.07,0.4-0.092,0.603c-0.009,0.086-0.01,0.174-0.017,0.261
		c-0.02,0.25-0.037,0.5-0.038,0.752c0,0.016-0.002,0.031-0.002,0.046c0,14.013-0.507,26.893-1.519,38.671
		c-0.053,0.371-0.087,0.746-0.098,1.124c-1.363,15.282-3.597,28.667-6.706,40.206c-0.166,0.463-0.291,0.941-0.388,1.429
		c-5.182,18.545-12.703,32.161-22.602,41.017v-61.497c0-50.943,11.751-85.481,34.928-102.657
		c15.958-11.826,35.926-14.281,51.412-14.79l-2.95,28.715L388.351,106.259z"/>
</g>
<g>
</g>
<g>
</g>
<g>
</g>
<g>
</g>
<g>
</g>
<g>
</g>
<g>
</g>
<g>
</g>
<g>
</g>
<g>
</g>
<g>
</g>
<g>
</g>
<g>
</g>
<g>
</g>
<g>
</g>
</svg>
