<?xml version="1.0" encoding="iso-8859-1"?>
<!-- Generator: Adobe Illustrator 17.1.0, SVG Export Plug-In . SVG Version: 6.00 Build 0)  -->
<!DOCTYPE svg PUBLIC "-//W3C//DTD SVG 1.1//EN" "http://www.w3.org/Graphics/SVG/1.1/DTD/svg11.dtd">
<svg version="1.1" id="Capa_1" xmlns="http://www.w3.org/2000/svg" xmlns:xlink="http://www.w3.org/1999/xlink" x="0px" y="0px"
	 viewBox="0 0 460 460" style="enable-background:new 0 0 460 460;" xml:space="preserve">
<g>
	<path style="fill:#333333;" d="M417.75,204.55c-3.188-4.216-7.939-7.117-13.036-7.96c-6.044-1.005-8.909-6.277-8.542-10.729
		c0.012-0.142,0.026-0.282,0.044-0.423C387.808,82.76,311.556,25.282,240,20.352v15.305h5c5.522,0,10,4.478,10,10s-4.478,10-10,10
		h-5v15.657h5c5.522,0,10,4.478,10,10s-4.478,10-10,10h-5v15.656h5c5.522,0,10,4.478,10,10s-4.478,10-10,10h-5v15.657h5
		c5.522,0,10,4.478,10,10s-4.478,10-10,10h-30c-5.522,0-10-4.478-10-10s4.478-10,10-10h5V126.97h-5c-5.522,0-10-4.478-10-10
		s4.478-10,10-10h5V91.313h-5c-5.522,0-10-4.478-10-10s4.478-10,10-10h5V55.656h-5c-5.522,0-10-4.478-10-10s4.478-10,10-10h5V20.352
		C148.445,25.282,72.192,82.76,63.784,185.438c0.018,0.141,0.032,0.281,0.044,0.423c0.367,4.452-2.498,9.725-8.533,10.728
		c-5.105,0.845-9.857,3.746-13.045,7.962c-3.174,4.195-4.479,9.175-3.678,14.019l11.367,68.688
		c1.228,7.424,6.576,13.2,13.479,15.168v-8.465c0-5.522,4.478-10,10-10s10,4.478,10,10v17.379
		c2.911,9.987,20.96,71.795,27.035,89.399c5.45,15.791,19.422,25.349,38.248,31.074l22.149-107.957L74.57,251.608
		c-3.314-2.487-4.752-6.762-3.613-10.746l35.569-124.502c1.104-3.862,4.41-6.689,8.397-7.179c3.99-0.485,7.88,1.456,9.884,4.936
		l28.932,50.243L230,194.319l76.263-29.959l28.931-50.243c2.004-3.481,5.905-5.423,9.884-4.936c3.987,0.489,7.294,3.316,8.397,7.179
		l35.569,124.502c1.139,3.984-0.299,8.259-3.613,10.746l-96.28,72.246l22.151,107.957c18.825-5.726,32.796-15.284,38.245-31.074
		c6.075-17.604,24.125-79.41,27.035-89.398V293.96c0-5.522,4.478-10,10-10s10,4.478,10,10v8.465
		c6.902-1.968,12.25-7.744,13.479-15.167l11.367-68.689C422.23,213.725,420.924,208.745,417.75,204.55z"/>
	<path d="M433.702,192.485c-4.695-6.208-10.925-10.863-18.006-13.549c-5.232-50.527-26.754-95.944-61.04-128.505
		C320.412,17.91,276.142,0,230,0s-90.412,17.91-124.656,50.432c-34.286,32.561-55.808,77.977-61.04,128.505
		c-7.08,2.686-13.311,7.34-18.006,13.549c-6.516,8.615-9.164,19.038-7.458,29.349l11.367,68.688
		c2.984,18.036,17.826,31.354,35.801,32.551c5.559,19.014,20.026,68.214,25.539,84.19c7.518,21.783,25.911,36.841,54.669,44.754
		c2.507,0.69,5.08,1.305,7.685,1.883c0.106,0.027,0.208,0.063,0.316,0.086c0.289,0.063,0.584,0.118,0.874,0.18
		c0.781,0.167,1.567,0.328,2.356,0.486c0.842,0.169,1.687,0.334,2.537,0.493c0.753,0.14,1.507,0.277,2.265,0.41
		c0.923,0.162,1.849,0.316,2.78,0.466c0.698,0.112,1.395,0.225,2.098,0.332c1.041,0.158,2.088,0.306,3.136,0.451
		c0.602,0.083,1.202,0.169,1.807,0.249c1.255,0.164,2.515,0.315,3.778,0.462c0.408,0.047,0.813,0.099,1.222,0.145
		c5.251,0.586,10.558,1.031,15.861,1.365c0.003,0,0.007,0,0.01,0.001c1.747,0.11,3.492,0.207,5.236,0.294
		c0.184,0.009,0.368,0.017,0.552,0.026c1.566,0.076,3.128,0.145,4.686,0.206c0.269,0.01,0.537,0.02,0.807,0.03
		c1.475,0.055,2.946,0.104,4.411,0.145c0.317,0.009,0.633,0.018,0.949,0.027c1.414,0.038,2.82,0.07,4.221,0.098
		c0.35,0.007,0.7,0.014,1.049,0.021c1.365,0.024,2.72,0.045,4.07,0.061c0.371,0.005,0.744,0.01,1.114,0.014
		c1.344,0.015,2.677,0.025,4.003,0.033c0.354,0.002,0.711,0.005,1.063,0.007C226.75,459.996,228.385,460,230,460
		s3.25-0.004,4.897-0.012c0.352-0.002,0.709-0.005,1.062-0.007c1.327-0.008,2.661-0.018,4.006-0.033
		c0.369-0.004,0.74-0.009,1.111-0.014c1.352-0.016,2.709-0.037,4.075-0.061c0.347-0.006,0.695-0.014,1.042-0.021
		c1.403-0.027,2.811-0.061,4.226-0.099c0.317-0.008,0.633-0.017,0.95-0.026c1.464-0.042,2.933-0.09,4.407-0.145
		c0.271-0.01,0.541-0.02,0.812-0.03c1.56-0.061,3.122-0.129,4.689-0.206c0.182-0.009,0.364-0.017,0.546-0.026
		c1.744-0.087,3.49-0.185,5.238-0.295c0.003,0,0.007,0,0.01,0c5.303-0.334,10.609-0.778,15.861-1.365
		c0.41-0.046,0.817-0.098,1.226-0.146c1.261-0.146,2.519-0.298,3.772-0.462c0.606-0.079,1.208-0.166,1.812-0.249
		c1.047-0.145,2.092-0.292,3.131-0.451c0.705-0.107,1.405-0.22,2.105-0.333c0.926-0.149,1.849-0.303,2.768-0.464
		c0.762-0.133,1.521-0.271,2.277-0.412c0.846-0.158,1.686-0.322,2.524-0.491c0.793-0.159,1.584-0.32,2.37-0.489
		c0.288-0.062,0.583-0.117,0.87-0.18c0.106-0.023,0.207-0.059,0.312-0.085c2.605-0.578,5.178-1.193,7.685-1.883
		c28.758-7.913,47.151-22.971,54.669-44.755c5.513-15.976,19.98-65.176,25.539-84.189c17.974-1.197,32.816-14.516,35.801-32.55
		l11.366-68.688C442.866,211.523,440.218,201.101,433.702,192.485z M396.582,302.425v-8.465c0-5.522-4.478-10-10-10s-10,4.478-10,10
		v17.379c-2.911,9.988-20.96,71.794-27.035,89.398c-5.449,15.791-19.421,25.349-38.245,31.074l-22.151-107.957l96.28-72.246
		c3.314-2.487,4.752-6.762,3.613-10.746L353.475,116.36c-1.104-3.862-4.41-6.689-8.397-7.179c-3.979-0.487-7.88,1.454-9.884,4.936
		l-28.931,50.243L230,194.319l-76.262-29.959l-28.932-50.243c-2.004-3.479-5.894-5.421-9.884-4.936
		c-3.987,0.489-7.294,3.316-8.397,7.179L70.956,240.862c-1.139,3.984,0.299,8.259,3.613,10.746l96.281,72.247l-22.149,107.957
		c-18.826-5.726-32.799-15.283-38.248-31.074c-6.075-17.604-24.125-79.412-27.035-89.399V293.96c0-5.522-4.478-10-10-10
		s-10,4.478-10,10v8.465c-6.902-1.968-12.25-7.744-13.479-15.168l-11.367-68.688c-0.802-4.844,0.504-9.823,3.678-14.019
		c3.188-4.216,7.939-7.117,13.045-7.962c6.035-1.003,8.9-6.275,8.533-10.728c-0.012-0.142-0.026-0.282-0.044-0.423
		C72.192,82.76,148.445,25.282,220,20.352v15.305h-5c-5.522,0-10,4.478-10,10s4.478,10,10,10h5v15.657h-5c-5.522,0-10,4.478-10,10
		s4.478,10,10,10h5v15.656h-5c-5.522,0-10,4.478-10,10s4.478,10,10,10h5v15.657h-5c-5.522,0-10,4.478-10,10s4.478,10,10,10h30
		c5.522,0,10-4.478,10-10s-4.478-10-10-10h-5V126.97h5c5.522,0,10-4.478,10-10s-4.478-10-10-10h-5V91.313h5c5.522,0,10-4.478,10-10
		s-4.478-10-10-10h-5V55.656h5c5.522,0,10-4.478,10-10s-4.478-10-10-10h-5V20.352c71.555,4.931,147.808,62.409,156.216,165.086
		c-0.018,0.141-0.032,0.281-0.044,0.423c-0.367,4.452,2.498,9.725,8.542,10.729c5.097,0.843,9.849,3.744,13.036,7.96
		c3.174,4.195,4.479,9.175,3.678,14.019l-11.367,68.689C408.833,294.681,403.485,300.457,396.582,302.425z M230,440
		c-18.515,0-41.504-0.466-61.799-3.722l23.515-114.609c0.777-3.789-0.7-7.687-3.794-10.009l-95.846-71.92l27.189-95.167
		l18.889,32.804c1.132,1.966,2.898,3.488,5.01,4.317l83.18,32.677c2.35,0.924,4.963,0.925,7.313,0l83.181-32.677
		c2.111-0.829,3.878-2.352,5.01-4.317l18.889-32.803l27.188,95.166l-95.845,71.919c-3.094,2.322-4.571,6.22-3.794,10.009
		l23.516,114.61C271.507,439.533,248.516,440,230,440z"/>
	<path style="fill:#FFFFFF;" d="M268.285,321.668c-0.777-3.789,0.7-7.687,3.794-10.009l95.845-71.919l-27.188-95.166l-18.889,32.803
		c-1.132,1.966-2.898,3.488-5.01,4.317l-83.181,32.677c-2.35,0.925-4.963,0.924-7.313,0l-83.18-32.677
		c-2.111-0.829-3.878-2.352-5.01-4.317l-18.889-32.804L92.076,239.74l95.846,71.92c3.094,2.322,4.571,6.22,3.794,10.009
		l-23.515,114.609C188.496,439.534,211.486,440,230,440c18.516,0,41.507-0.467,61.801-3.722L268.285,321.668z M171.361,263.709
		c-7.726,0-15.281-1.525-22.457-4.535c-23.231-9.744-37.486-33.158-35.472-58.265c0.256-3.196,2.029-6.075,4.769-7.742
		c2.737-1.666,6.109-1.919,9.067-0.68l84.368,35.386c2.956,1.24,5.139,3.822,5.869,6.944s-0.081,6.404-2.181,8.827
		C204.271,256.396,188.247,263.709,171.361,263.709z M242.495,234.998c0.73-3.122,2.913-5.704,5.869-6.944l85.991-36.066
		c2.96-1.24,6.33-0.986,9.068,0.68c2.738,1.667,4.512,4.547,4.768,7.742c2.046,25.507-12.437,49.294-36.036,59.192
		c-7.29,3.058-14.967,4.607-22.815,4.607c-17.155,0-33.435-7.43-44.664-20.384C242.576,241.402,241.765,238.12,242.495,234.998z"/>
	<path style="fill:#ED1B24;" d="M135.14,217.478c3.372,10.276,11.053,18.871,21.499,23.253c4.713,1.977,9.666,2.979,14.722,2.979
		c5.94,0,11.718-1.378,16.916-3.945L135.14,217.478z"/>
	<path d="M215.324,243.645c2.1-2.423,2.911-5.705,2.181-8.827s-2.913-5.704-5.869-6.944l-84.368-35.386
		c-2.958-1.239-6.33-0.986-9.067,0.68c-2.739,1.667-4.513,4.546-4.769,7.742c-2.015,25.106,12.24,48.521,35.472,58.265
		c7.176,3.01,14.731,4.535,22.457,4.535C188.247,263.709,204.271,256.396,215.324,243.645z M156.639,240.73
		c-10.446-4.382-18.127-12.977-21.499-23.253l53.137,22.286c-5.198,2.567-10.976,3.945-16.916,3.945
		C166.305,243.709,161.352,242.707,156.639,240.73z"/>
	<path style="fill:#ED1B24;" d="M326.569,216.941l-54.931,23.039c5.422,2.75,11.475,4.229,17.702,4.229
		c5.179,0,10.252-1.026,15.079-3.051C315.254,236.614,323.184,227.645,326.569,216.941z"/>
	<path d="M289.34,264.209c7.849,0,15.525-1.55,22.815-4.607c23.6-9.898,38.082-33.686,36.036-59.192
		c-0.256-3.195-2.029-6.075-4.768-7.742c-2.738-1.666-6.108-1.92-9.068-0.68l-85.991,36.066c-2.956,1.24-5.139,3.822-5.869,6.944
		s0.081,6.404,2.181,8.827C255.906,256.779,272.185,264.209,289.34,264.209z M289.34,244.209c-6.228,0-12.28-1.479-17.702-4.229
		l54.931-23.039c-3.385,10.703-11.314,19.673-22.149,24.217C299.592,243.183,294.519,244.209,289.34,244.209z"/>
</g>
<g>
</g>
<g>
</g>
<g>
</g>
<g>
</g>
<g>
</g>
<g>
</g>
<g>
</g>
<g>
</g>
<g>
</g>
<g>
</g>
<g>
</g>
<g>
</g>
<g>
</g>
<g>
</g>
<g>
</g>
</svg>
