<?xml version="1.0" encoding="iso-8859-1"?>
<!-- Generator: Adobe Illustrator 17.1.0, SVG Export Plug-In . SVG Version: 6.00 Build 0)  -->
<!DOCTYPE svg PUBLIC "-//W3C//DTD SVG 1.1//EN" "http://www.w3.org/Graphics/SVG/1.1/DTD/svg11.dtd">
<svg version="1.1" id="Capa_1" xmlns="http://www.w3.org/2000/svg" xmlns:xlink="http://www.w3.org/1999/xlink" x="0px" y="0px"
	 viewBox="0 0 444 444" style="enable-background:new 0 0 444 444;" xml:space="preserve">
<g>
	<path style="fill:#DE021B;" d="M186.29,314.355c0-19.227-8.935-36.57-23.188-48.756l-16.086,21.154
		c-1.967,2.587-4.95,3.948-7.967,3.948c-2.11,0-4.236-0.665-6.045-2.041c-4.396-3.343-5.25-9.616-1.907-14.013l15.103-19.862
		c-9.849-4.561-20.965-7.148-32.734-7.148c-40.155,0-72.824,29.929-72.824,66.717c0,19.227,8.935,36.569,23.187,48.756
		l47.142-61.996c3.343-4.396,9.617-5.251,14.013-1.907c4.396,3.343,5.25,9.616,1.907,14.013l-46.16,60.704
		c9.849,4.562,20.965,7.148,32.734,7.148C153.621,381.072,186.29,351.143,186.29,314.355z"/>
	<path style="fill:#DE021B;" d="M380.171,265.599l-16.086,21.154c-1.967,2.587-4.95,3.948-7.967,3.948
		c-2.11,0-4.236-0.665-6.045-2.041c-4.396-3.343-5.25-9.616-1.907-14.013l15.103-19.862c-9.849-4.561-20.965-7.148-32.734-7.148
		c-40.155,0-72.824,29.929-72.824,66.717c0,19.227,8.935,36.57,23.188,48.756l47.143-61.997c3.343-4.396,9.617-5.251,14.013-1.907
		c4.396,3.343,5.25,9.616,1.907,14.013l-46.16,60.704c9.849,4.562,20.965,7.148,32.734,7.148c40.155,0,72.824-29.93,72.824-66.718
		C403.358,295.128,394.423,277.785,380.171,265.599z"/>
	<path style="fill:#FFFFFF;" d="M384.284,243.669c-0.432-0.328-0.885-0.604-1.349-0.853c0.501,0.322,1.001,0.646,1.495,0.976
		C384.38,243.753,384.335,243.708,384.284,243.669z"/>
	<path style="fill:#FFFFFF;" d="M350.072,288.66c1.809,1.376,3.936,2.041,6.045,2.041c3.017,0,6-1.361,7.967-3.948l16.086-21.154
		c-5.025-4.296-10.711-7.945-16.903-10.813l-15.103,19.862C344.822,279.044,345.676,285.318,350.072,288.66z"/>
	<path style="fill:#FFFFFF;" d="M276.786,385.039c0.459,0.349,0.939,0.652,1.434,0.91c-0.524-0.335-1.046-0.674-1.562-1.019
		C276.701,384.965,276.741,385.005,276.786,385.039z"/>
	<path style="fill:#FFFFFF;" d="M342.053,299.207c-4.396-3.344-10.67-2.488-14.013,1.907l-47.143,61.997
		c5.025,4.296,10.711,7.946,16.903,10.813l46.16-60.704C347.303,308.823,346.449,302.55,342.053,299.207z"/>
	<path style="fill:#FFFFFF;" d="M167.215,243.669c-0.43-0.327-0.882-0.602-1.343-0.849c0.498,0.32,0.994,0.641,1.485,0.969
		C167.308,243.751,167.265,243.707,167.215,243.669z"/>
	<path style="fill:#FFFFFF;" d="M133.004,288.66c1.809,1.376,3.936,2.041,6.045,2.041c3.017,0,6-1.361,7.967-3.948l16.086-21.154
		c-5.025-4.296-10.711-7.946-16.903-10.813l-15.103,19.862C127.754,279.044,128.608,285.318,133.004,288.66z"/>
	<path style="fill:#FFFFFF;" d="M59.717,385.039c0.46,0.35,0.941,0.653,1.437,0.912c-0.526-0.337-1.051-0.677-1.569-1.023
		C59.63,384.964,59.67,385.004,59.717,385.039z"/>
	<path style="fill:#FFFFFF;" d="M124.984,299.207c-4.396-3.344-10.67-2.488-14.013,1.907l-47.142,61.996
		c5.025,4.296,10.711,7.946,16.902,10.813l46.16-60.704C130.234,308.823,129.38,302.55,124.984,299.207z"/>
	<path d="M443.757,312.165L392.435,83.427c-2.332-12.864-9.507-24.069-20.224-31.573c-10.783-7.551-23.862-10.45-36.826-8.164
		c-5.439,0.959-9.071,6.146-8.112,11.584c0.959,5.438,6.151,9.074,11.584,8.111c7.706-1.359,15.475,0.364,21.882,4.852
		c6.407,4.486,10.684,11.199,12.042,18.902c0.027,0.151,0.057,0.303,0.091,0.453l43.453,193.666
		c-6.701-15.104-17.841-28.069-31.896-37.465c-0.494-0.33-0.994-0.654-1.495-0.976c-14.923-9.57-32.973-15.179-52.401-15.179
		c-45.052,0-82.705,30.142-91.081,69.971c-5.466-2.1-11.368-3.204-17.453-3.204s-11.988,1.104-17.453,3.204
		c-4.643-22.078-18.279-41.179-37.189-53.819c-0.491-0.328-0.987-0.649-1.485-0.969c-14.924-9.572-32.976-15.182-52.406-15.182
		c-38.643,0-71.841,22.177-85.791,53.62L71.128,87.592c0.034-0.15,0.064-0.302,0.091-0.453c1.358-7.703,5.635-14.416,12.042-18.902
		s14.176-6.21,21.882-4.852c5.437,0.965,10.625-2.672,11.584-8.111c0.959-5.438-2.673-10.625-8.112-11.584
		c-12.964-2.286-26.042,0.612-36.826,8.164c-10.717,7.504-17.893,18.709-20.224,31.573L0.243,312.165
		c-0.665,2.963,0.053,6.068,1.951,8.438c1.897,2.371,4.77,3.751,7.807,3.751h11.263c3.077,24.922,17.505,46.662,38.321,60.573
		c0.519,0.347,1.043,0.687,1.569,1.023c14.906,9.535,32.923,15.122,52.312,15.122c49.436,0,89.965-36.292,92.675-81.853
		c4.523-3.125,10.028-4.815,15.859-4.815s11.335,1.689,15.859,4.815c1.61,27.062,16.561,50.853,38.798,65.711
		c0.516,0.345,1.038,0.683,1.562,1.019c14.906,9.536,32.924,15.123,52.315,15.123c47.563,0,86.878-33.595,92.203-76.718H434
		c3.037,0,5.909-1.38,7.807-3.751C443.705,318.234,444.422,315.128,443.757,312.165z M80.731,373.924
		c-6.192-2.868-11.878-6.517-16.902-10.813c-14.252-12.187-23.187-29.529-23.187-48.756c0-36.788,32.668-66.717,72.824-66.717
		c11.769,0,22.885,2.587,32.734,7.148c6.192,2.867,11.878,6.517,16.903,10.813c14.253,12.186,23.188,29.529,23.188,48.756
		c0,36.788-32.669,66.718-72.824,66.718C101.697,381.072,90.581,378.486,80.731,373.924z M330.534,381.072
		c-11.769,0-22.885-2.587-32.734-7.148c-6.192-2.867-11.878-6.517-16.903-10.813c-14.252-12.187-23.188-29.529-23.188-48.756
		c0-36.788,32.669-66.717,72.824-66.717c11.769,0,22.885,2.587,32.734,7.148c6.192,2.868,11.878,6.517,16.903,10.813
		c14.252,12.187,23.187,29.529,23.187,48.756C403.358,351.143,370.69,381.072,330.534,381.072z"/>
</g>
<g>
</g>
<g>
</g>
<g>
</g>
<g>
</g>
<g>
</g>
<g>
</g>
<g>
</g>
<g>
</g>
<g>
</g>
<g>
</g>
<g>
</g>
<g>
</g>
<g>
</g>
<g>
</g>
<g>
</g>
</svg>
