<?xml version="1.0" encoding="iso-8859-1"?>
<!-- Generator: Adobe Illustrator 17.1.0, SVG Export Plug-In . SVG Version: 6.00 Build 0)  -->
<!DOCTYPE svg PUBLIC "-//W3C//DTD SVG 1.1//EN" "http://www.w3.org/Graphics/SVG/1.1/DTD/svg11.dtd">
<svg version="1.1" id="Capa_1" xmlns="http://www.w3.org/2000/svg" xmlns:xlink="http://www.w3.org/1999/xlink" x="0px" y="0px"
	 viewBox="0 0 442.001 442.001" style="enable-background:new 0 0 442.001 442.001;" xml:space="preserve">
<g>
	<polygon style="fill:#CCCCCC;" points="381.503,74.64 393.434,86.571 393.437,86.573 393.439,86.576 406.59,99.726 420.263,65.618 
		405.393,50.749 	"/>
	<path style="fill:#CCCCCC;" d="M410.233,131.655l-7.071-7.071c-0.001-0.001-0.002-0.002-0.003-0.003l-16.793-16.793l-22.045,22.045
		c-1.953,1.952-4.512,2.929-7.071,2.929s-5.119-0.977-7.071-2.929c-3.905-3.905-3.905-10.237,0-14.143l22.045-22.045l-23.867-23.867
		l-39.094,39.094l61.877,61.877L410.233,131.655z"/>
	<polygon style="fill:#CCCCCC;" points="376.382,21.738 342.274,35.411 355.42,48.557 355.427,48.564 355.434,48.571 367.36,60.497 
		391.251,36.607 	"/>
	<polygon style="fill:#CCCCCC;" points="295.119,94.729 334.213,55.635 317.417,38.839 310.346,31.767 271.252,70.862 	"/>
	<path d="M439.072,56.143L385.858,2.929c-2.831-2.83-7.075-3.699-10.792-2.211l-48.172,19.313l-9.476-9.477
		c-3.904-3.904-10.237-3.904-14.142,0L250.038,63.79c-3.905,3.905-3.905,10.237,0,14.143l7.071,7.071L85.003,257.11l-7.071-7.071
		c-3.904-3.904-10.237-3.904-14.142,0l-53.236,53.236c-3.905,3.905-3.905,10.237,0,14.143l9.476,9.476L0.719,375.066
		c-1.49,3.716-0.62,7.961,2.21,10.792l53.214,53.214c1.912,1.912,4.469,2.929,7.073,2.929c1.251,0,2.513-0.234,3.719-0.718
		l48.172-19.313l9.476,9.477c3.904,3.904,10.237,3.904,14.142,0l53.236-53.236c3.905-3.905,3.905-10.237,0-14.143l-7.071-7.071
		l172.106-172.105l7.071,7.071c1.952,1.952,4.512,2.929,7.071,2.929s5.119-0.977,7.071-2.929l53.236-53.236
		c3.905-3.905,3.905-10.237,0-14.143l-9.476-9.476l19.312-48.173C442.772,63.219,441.902,58.974,439.072,56.143z M310.346,31.767
		l7.071,7.072l16.796,16.796l-39.094,39.094l-23.867-23.868L310.346,31.767z M355.434,48.571c-0.002-0.002-0.004-0.005-0.007-0.007
		c-0.002-0.002-0.005-0.004-0.007-0.007l-13.146-13.146l34.108-13.674l14.869,14.869L367.36,60.497L355.434,48.571z
		 M309.262,108.872l39.094-39.094l23.867,23.867l-22.045,22.045c-3.905,3.905-3.905,10.237,0,14.143
		c1.953,1.952,4.512,2.929,7.071,2.929s5.119-0.977,7.071-2.929l22.045-22.045l16.793,16.793c0.001,0.001,0.002,0.002,0.003,0.003
		l7.071,7.071l-39.094,39.095L309.262,108.872z M406.59,99.726l-13.15-13.15c-0.001-0.001-0.002-0.002-0.003-0.003
		s-0.002-0.001-0.003-0.002L381.503,74.64l23.891-23.891l14.869,14.869L406.59,99.726z M132.739,333.129l-39.094,39.094
		l-23.867-23.867l22.045-22.045c3.905-3.905,3.905-10.237,0-14.143c-3.905-3.904-10.237-3.904-14.143,0l-22.045,22.045
		l-16.793-16.793c-0.001-0.001-0.002-0.002-0.003-0.003l-7.071-7.071l39.094-39.095L132.739,333.129z M35.411,342.274l13.15,13.15
		c0.001,0.001,0.002,0.002,0.002,0.002c0.002,0.002,0.003,0.002,0.004,0.003l11.931,11.931l-23.891,23.891l-14.869-14.869
		L35.411,342.274z M74.64,381.503l11.927,11.926c0.002,0.002,0.004,0.005,0.007,0.007s0.005,0.004,0.007,0.007l13.146,13.146
		l-34.108,13.674L50.75,405.394L74.64,381.503z M124.583,403.161l-16.796-16.796l39.094-39.094l23.867,23.868l-39.094,39.095
		L124.583,403.161z M170.749,342.854l-16.795-16.794c-0.001-0.001-0.001-0.001-0.002-0.002c0,0-0.001-0.001-0.002-0.001
		l-54.805-54.805L271.252,99.146l16.795,16.794c0.001,0.001,0.001,0.001,0.002,0.002s0.001,0.001,0.002,0.001l54.805,54.805
		L170.749,342.854z"/>
	<path style="fill:#CCCCCC;" d="M31.767,310.346l7.071,7.071c0.001,0.001,0.002,0.002,0.003,0.003l16.793,16.793l22.045-22.045
		c3.905-3.904,10.237-3.904,14.143,0c3.905,3.905,3.905,10.237,0,14.143l-22.045,22.045l23.867,23.867l39.094-39.094l-61.877-61.877
		L31.767,310.346z"/>
	<polygon style="fill:#CCCCCC;" points="60.498,367.361 48.567,355.429 48.564,355.427 48.561,355.424 35.411,342.274 
		21.738,376.382 36.607,391.251 	"/>
	<polygon style="fill:#CCCCCC;" points="99.726,406.589 86.581,393.444 86.574,393.437 86.567,393.429 74.64,381.503 50.75,405.394 
		65.618,420.263 	"/>
	<polygon style="fill:#CCCCCC;" points="170.749,371.139 146.881,347.271 107.787,386.365 124.583,403.161 131.655,410.234 	"/>
	<path style="fill:#A1CE57;" d="M176.928,250.038l-21.213,21.213l15.035,15.034l84.324-84.323h-30.068l-23.957,23.956
		c-3.904,3.905-10.236,3.904-14.142,0l-9.978,9.978C180.832,239.802,180.832,246.133,176.928,250.038z"/>
	<path d="M279.215,181.962h-58.353c-2.652,0-5.196,1.054-7.071,2.929l-26.886,26.885c-3.905,3.905-3.906,10.237,0,14.143l0,0
		c3.906,3.904,10.238,3.905,14.142,0l23.957-23.956h30.068l-84.324,84.323l-15.035-15.034l21.213-21.213
		c3.905-3.905,3.905-10.237,0-14.142c0,0,0,0,0,0c-3.905-3.904-10.237-3.904-14.143,0l-28.284,28.284
		c-3.905,3.905-3.905,10.237,0,14.143l29.177,29.177c1.953,1.952,4.512,2.929,7.071,2.929s5.119-0.977,7.071-2.929l108.466-108.466
		c2.86-2.86,3.715-7.161,2.167-10.898C286.906,184.399,283.259,181.962,279.215,181.962z"/>
</g>
<g>
</g>
<g>
</g>
<g>
</g>
<g>
</g>
<g>
</g>
<g>
</g>
<g>
</g>
<g>
</g>
<g>
</g>
<g>
</g>
<g>
</g>
<g>
</g>
<g>
</g>
<g>
</g>
<g>
</g>
</svg>
