<?xml version="1.0" encoding="iso-8859-1"?>
<!-- Generator: Adobe Illustrator 17.1.0, SVG Export Plug-In . SVG Version: 6.00 Build 0)  -->
<!DOCTYPE svg PUBLIC "-//W3C//DTD SVG 1.1//EN" "http://www.w3.org/Graphics/SVG/1.1/DTD/svg11.dtd">
<svg version="1.1" id="Capa_1" xmlns="http://www.w3.org/2000/svg" xmlns:xlink="http://www.w3.org/1999/xlink" x="0px" y="0px"
	 viewBox="0 0 460 460" style="enable-background:new 0 0 460 460;" xml:space="preserve">
<g>
	<path style="fill:#E5E5E5;" d="M102.654,330.937l-12.249-12.249c-23.781,30.753-21.594,75.24,6.605,103.44
		c7.487,7.487,16.224,13.287,25.965,17.238c1.036,0.42,2.119,0.633,3.218,0.633c2.263,0,4.479-0.918,6.079-2.52
		c0.807-0.807,1.438-1.763,1.874-2.839c0.861-2.124,0.844-4.455-0.049-6.565c-0.892-2.109-2.553-3.745-4.676-4.605
		c-7.603-3.083-14.426-7.616-20.282-13.472C87.64,388.499,85.487,354.88,102.654,330.937z"/>
	<path style="fill:#999999;" d="M146.371,284.082c-0.058-0.085-0.114-0.173-0.173-0.257c-0.37-0.532-0.759-1.053-1.156-1.567
		c-0.075-0.097-0.146-0.197-0.222-0.293c-0.389-0.493-0.796-0.974-1.21-1.45c-0.093-0.107-0.18-0.218-0.275-0.324
		c-0.506-0.569-1.028-1.126-1.569-1.667c-0.493-0.493-0.999-0.97-1.514-1.434c-0.127-0.115-0.259-0.222-0.388-0.335
		c-0.406-0.356-0.815-0.708-1.234-1.046c-0.108-0.087-0.219-0.17-0.328-0.256c-0.467-0.368-0.939-0.73-1.422-1.076
		c-0.051-0.037-0.102-0.072-0.153-0.108c-0.555-0.394-1.119-0.776-1.694-1.14l-30.951,30.952l12.129,12.13l30.936-30.936
		C146.893,284.873,146.639,284.473,146.371,284.082z"/>
	<path style="fill:#666666;" d="M224.197,337.763l109.791-222.646L182.87,304.801c11.106,2.356,21.311,7.851,29.524,16.064
		C217.34,325.812,221.309,331.549,224.197,337.763z"/>
	<path style="fill:#666666;" d="M170.439,288.307L321.13,99.16l-125.096,99.663c-1.842,1.467-4.041,2.179-6.225,2.179
		c-2.94,0-5.854-1.29-7.828-3.769c-3.441-4.32-2.729-10.611,1.59-14.053l121.6-96.878L82.588,196.063
		c6.18,2.891,11.871,6.867,16.837,11.834c8.167,8.167,13.652,18.492,16.026,29.554l43.42-34.592
		c4.321-3.441,10.611-2.729,14.053,1.59c3.441,4.32,2.729,10.611-1.59,14.053l-39.298,31.309
		c8.909,2.838,17.075,7.771,23.874,14.571C162.673,271.144,167.595,279.39,170.439,288.307z"/>
	<path d="M417.362,2.928c-3.906-3.904-10.236-3.904-14.143,0l-25.105,25.104L45.287,192.158c-4.433,2.187-6.604,7.283-5.108,11.994
		s6.209,7.625,11.091,6.853c2.04-0.322,4.122-0.485,6.189-0.485c10.515,0,20.396,4.091,27.823,11.52
		c8.871,8.871,12.996,21.586,11.034,34.013c-0.01,0.061-0.009,0.123-0.018,0.184c-0.035,0.251-0.058,0.503-0.074,0.756
		c-0.007,0.113-0.019,0.225-0.022,0.337c-0.021,0.727,0.038,1.456,0.176,2.175c0.016,0.085,0.039,0.168,0.057,0.252
		c0.06,0.275,0.13,0.548,0.214,0.818c0.03,0.098,0.064,0.194,0.097,0.291c0.087,0.253,0.185,0.503,0.294,0.751
		c0.043,0.097,0.084,0.194,0.13,0.291c0.116,0.243,0.245,0.481,0.382,0.717c0.052,0.089,0.099,0.18,0.154,0.268
		c0.162,0.26,0.34,0.513,0.529,0.761c0.039,0.051,0.072,0.106,0.112,0.157c0.009,0.011,0.015,0.023,0.024,0.034
		c0.184,0.231,0.384,0.441,0.583,0.651c0.058,0.061,0.107,0.128,0.167,0.188c0.003,0.002,0.005,0.004,0.008,0.007
		c0.85,0.85,1.825,1.517,2.871,1.999c0.044,0.021,0.091,0.035,0.135,0.055c0.302,0.134,0.607,0.257,0.919,0.359
		c0.1,0.033,0.204,0.056,0.305,0.086c0.26,0.077,0.521,0.15,0.786,0.206c0.131,0.027,0.265,0.043,0.397,0.066
		c0.241,0.04,0.481,0.079,0.724,0.101c0.144,0.014,0.289,0.017,0.434,0.024c0.166,0.008,0.331,0.027,0.498,0.027
		c0.087,0,0.175-0.008,0.262-0.011c0.074-0.002,0.149-0.005,0.223-0.009c0.344-0.017,0.688-0.047,1.031-0.1
		c0.012-0.002,0.024-0.001,0.037-0.003c0.022-0.003,0.045-0.006,0.068-0.009c0.006-0.001,0.012-0.001,0.017-0.002
		c1.653-0.257,3.334-0.406,5.012-0.452l-29.983,29.983c-3.643,3.644-6.937,7.505-9.889,11.541c-3.021-1.637-6.302-2.822-9.766-3.481
		c-5.436-1.029-10.662,2.526-11.695,7.951c-1.034,5.426,2.526,10.661,7.951,11.695c1.199,0.229,2.34,0.621,3.412,1.14
		c-16.471,36.298-9.819,80.611,19.986,110.417c9.391,9.391,20.355,16.667,32.592,21.63c3.435,1.393,7.045,2.099,10.731,2.099
		c0.001,0,0.001,0,0.002,0c7.526,0,14.897-3.054,20.224-8.379c2.71-2.712,4.818-5.897,6.264-9.465
		c2.869-7.074,2.812-14.841-0.163-21.871c-2.974-7.03-8.508-12.481-15.581-15.349c-5.107-2.071-9.701-5.127-13.654-9.08
		c-5.539-5.538-9.173-12.271-10.903-19.377c2.142,0.418,4.317,0.628,6.492,0.628c8.626,0,17.252-3.284,23.819-9.851
		c6.362-6.362,9.866-14.822,9.866-23.819c0-8.998-3.504-17.457-9.859-23.813c-0.101-0.102-0.391-0.399-0.799-0.818l11.359-11.359
		c-0.045,1.695-0.189,3.395-0.456,5.089c-0.011,0.067-0.01,0.134-0.02,0.201c-0.037,0.272-0.065,0.546-0.08,0.819
		c-0.007,0.125-0.01,0.25-0.011,0.375c-0.004,0.243,0.002,0.485,0.016,0.728c0.007,0.126,0.013,0.253,0.025,0.379
		c0.026,0.271,0.066,0.54,0.113,0.808c0.015,0.086,0.024,0.173,0.042,0.259c0.073,0.355,0.165,0.707,0.276,1.053
		c0.018,0.056,0.042,0.109,0.061,0.165c0.099,0.29,0.21,0.576,0.335,0.857c0.04,0.089,0.085,0.176,0.128,0.265
		c0.118,0.246,0.246,0.486,0.385,0.722c0.053,0.09,0.107,0.179,0.163,0.267c0.147,0.233,0.306,0.459,0.473,0.681
		c0.059,0.078,0.115,0.157,0.176,0.233c0.195,0.243,0.404,0.477,0.625,0.704c0.036,0.037,0.066,0.079,0.102,0.115
		c0.008,0.008,0.016,0.014,0.024,0.021c0.256,0.254,0.526,0.499,0.815,0.729c0.012,0.009,0.024,0.017,0.036,0.026
		c0.029,0.023,0.061,0.043,0.091,0.066c0.259,0.2,0.525,0.383,0.797,0.554c0.072,0.045,0.145,0.088,0.219,0.132
		c0.274,0.162,0.552,0.311,0.836,0.445c0.036,0.017,0.07,0.036,0.105,0.052c0.339,0.154,0.683,0.289,1.032,0.403
		c0.031,0.01,0.063,0.018,0.094,0.028c0.313,0.099,0.629,0.181,0.947,0.248c0.068,0.014,0.135,0.029,0.204,0.042
		c0.354,0.067,0.709,0.121,1.066,0.149c0.008,0.001,0.017,0,0.025,0.001c0.258,0.02,0.516,0.032,0.774,0.032
		c0.065,0,0.13-0.009,0.195-0.011c0.175-0.003,0.349-0.016,0.524-0.029c0.207-0.015,0.413-0.033,0.618-0.06
		c0.076-0.01,0.153-0.01,0.229-0.022c2.041-0.322,4.124-0.486,6.191-0.486c10.514,0,20.394,4.091,27.821,11.52
		c8.871,8.871,12.996,21.586,11.034,34.014c-0.771,4.883,2.142,9.596,6.853,11.091c1.002,0.318,2.021,0.471,3.025,0.471
		c3.722,0,7.247-2.089,8.969-5.579l164.126-332.83l25.104-25.103C421.267,13.166,421.267,6.833,417.362,2.928z M155.909,264.381
		c-6.799-6.8-14.964-11.733-23.874-14.571l39.298-31.309c4.319-3.441,5.031-9.732,1.59-14.053c-3.441-4.318-9.731-5.031-14.053-1.59
		l-43.42,34.592c-2.375-11.062-7.86-21.388-16.026-29.554c-4.966-4.967-10.657-8.943-16.837-11.834L305.172,86.302l-121.6,96.878
		c-4.319,3.441-5.031,9.732-1.59,14.053c1.975,2.479,4.888,3.769,7.828,3.769c2.184,0,4.383-0.712,6.225-2.179L321.13,99.16
		L170.439,288.307C167.595,279.39,162.673,271.144,155.909,264.381z M134.097,428.076c0.893,2.11,0.91,4.441,0.049,6.565
		c-0.437,1.076-1.067,2.032-1.874,2.839c-1.601,1.602-3.816,2.52-6.079,2.52c-1.099,0-2.182-0.213-3.218-0.633
		c-9.741-3.951-18.478-9.751-25.965-17.238c-28.199-28.2-30.385-72.687-6.605-103.44l12.249,12.249
		c-17.167,23.943-15.014,57.562,6.485,79.062c5.856,5.855,12.68,10.389,20.282,13.472
		C131.544,424.331,133.205,425.966,134.097,428.076z M116.21,316.209l-12.129-12.13l30.951-30.952
		c0.575,0.364,1.139,0.746,1.694,1.14c0.051,0.036,0.103,0.071,0.153,0.108c0.483,0.346,0.955,0.708,1.422,1.076
		c0.109,0.086,0.22,0.169,0.328,0.256c0.419,0.338,0.828,0.69,1.234,1.046c0.128,0.113,0.261,0.22,0.388,0.335
		c0.516,0.464,1.021,0.941,1.514,1.434c0.541,0.541,1.063,1.098,1.569,1.667c0.094,0.105,0.182,0.217,0.275,0.324
		c0.414,0.476,0.821,0.957,1.21,1.45c0.076,0.096,0.147,0.196,0.222,0.293c0.397,0.514,0.786,1.035,1.156,1.567
		c0.059,0.084,0.115,0.172,0.173,0.257c0.268,0.392,0.522,0.792,0.775,1.192L116.21,316.209z M333.988,115.118L224.197,337.763
		c-2.888-6.214-6.856-11.951-11.803-16.897c-8.213-8.214-18.418-13.708-29.524-16.064L333.988,115.118z M128.548,333.76
		c2.584,2.585,4.008,6.021,4.008,9.677s-1.424,7.092-4.009,9.677c-4.284,4.284-10.722,5.121-15.857,2.525
		c1.833-6.676,5.355-12.981,10.591-18.217l4.473-4.473C128.143,333.348,128.43,333.642,128.548,333.76z"/>
</g>
<g>
</g>
<g>
</g>
<g>
</g>
<g>
</g>
<g>
</g>
<g>
</g>
<g>
</g>
<g>
</g>
<g>
</g>
<g>
</g>
<g>
</g>
<g>
</g>
<g>
</g>
<g>
</g>
<g>
</g>
</svg>
