<?xml version="1.0" encoding="iso-8859-1"?>
<!-- Generator: Adobe Illustrator 17.1.0, SVG Export Plug-In . SVG Version: 6.00 Build 0)  -->
<!DOCTYPE svg PUBLIC "-//W3C//DTD SVG 1.1//EN" "http://www.w3.org/Graphics/SVG/1.1/DTD/svg11.dtd">
<svg version="1.1" id="Capa_1" xmlns="http://www.w3.org/2000/svg" xmlns:xlink="http://www.w3.org/1999/xlink" x="0px" y="0px"
	 viewBox="0 0 460 460" style="enable-background:new 0 0 460 460;" xml:space="preserve">
<g>
	<rect x="430.357" y="329.081" style="fill:#666666;" width="9.643" height="17.053"/>
	<rect x="430.357" y="113.866" style="fill:#666666;" width="9.643" height="17.053"/>
	<rect x="20" y="169.445" style="fill:#666666;" width="9.643" height="17.053"/>
	<rect x="68.168" y="317.838" style="fill:#666666;" width="9.643" height="17.053"/>
	<path style="fill:#E5E5E5;" d="M288.417,178.708l4.304,28.479h28.788c5.522,0,10,4.478,10,10s-4.478,10-10,10h-25.765l9.462,62.611
		c0.01,0.067,0.01,0.134,0.019,0.2c0.026,0.201,0.044,0.404,0.058,0.608c0.011,0.157,0.02,0.313,0.024,0.469
		c0.002,0.073,0.011,0.143,0.011,0.216c0,0.121-0.014,0.238-0.018,0.357c-0.006,0.158-0.011,0.314-0.024,0.471
		c-0.017,0.208-0.044,0.412-0.074,0.616c-0.019,0.132-0.036,0.264-0.06,0.396c-0.044,0.236-0.101,0.466-0.161,0.696
		c-0.026,0.099-0.047,0.198-0.076,0.296c-0.079,0.269-0.173,0.53-0.273,0.789c-0.023,0.06-0.042,0.122-0.066,0.181
		c-0.267,0.647-0.597,1.261-0.988,1.832c-0.045,0.066-0.098,0.128-0.145,0.194c-0.152,0.21-0.307,0.418-0.474,0.616
		c-0.021,0.025-0.038,0.052-0.059,0.077c-0.064,0.075-0.138,0.14-0.204,0.213c-0.143,0.156-0.287,0.311-0.439,0.457
		c-0.103,0.099-0.209,0.192-0.315,0.287c-0.151,0.134-0.305,0.265-0.464,0.389c-0.11,0.086-0.221,0.169-0.335,0.25
		c-0.17,0.122-0.344,0.238-0.522,0.35c-0.109,0.068-0.217,0.136-0.328,0.2c-0.196,0.113-0.397,0.216-0.602,0.316
		c-0.101,0.049-0.201,0.1-0.303,0.146c-0.225,0.101-0.456,0.188-0.689,0.272c-0.09,0.033-0.178,0.069-0.269,0.099
		c-0.25,0.082-0.507,0.149-0.766,0.212c-0.08,0.02-0.159,0.044-0.24,0.062c-0.271,0.058-0.549,0.1-0.828,0.136
		c-0.072,0.009-0.142,0.025-0.215,0.033c-0.349,0.037-0.703,0.058-1.062,0.058H237.23v10.688c0,5.522-4.478,10-10,10
		s-10-4.478-10-10v-10.688h-26.315v10.688c0,5.522-4.478,10-10,10s-10-4.478-10-10v-10.688h-26.316v10.688c0,5.522-4.478,10-10,10
		s-10-4.478-10-10v-10.688H97.811v6.546v37.053v8.624c49.991,12.282,112.287,20.408,157.437,20.408h155.11v-17.789v-8.526H204.072
		c-5.522,0-10-4.478-10-10s4.478-10,10-10h206.285v-8.526v-17.789h-13.937c-4.945,0-9.148-3.615-9.888-8.506l-17.241-114.078
		H288.417z"/>
	<polygon style="fill:#E5E5E5;" points="167.757,159.445 167.757,196.498 167.757,207.187 238.21,207.187 238.21,196.498 
		238.21,168.708 238.21,132.393 167.757,132.393 	"/>
	<path style="fill:#E5E5E5;" d="M410.357,140.919v-8.526h-39.065c-5.522,0-10-4.478-10-10s4.478-10,10-10h39.065v-8.526V86.077
		h-155.11c-71.648,0-168.769,19.046-205.604,35.749v37.619v37.053v10.688h42.535v-10.688v-37.053c0-5.522,4.478-10,10-10h45.579
		v-27.053c0-5.522,4.478-10,10-10h182.041c5.522,0,10,4.478,10,10s-4.478,10-10,10H258.21v26.315h18.582h101.103h32.463V140.919z"/>
	<path d="M430.357,168.708v-17.789H450c5.522,0,10-4.478,10-10v-37.053c0-5.522-4.478-10-10-10h-19.643V76.077
		c0-5.522-4.478-10-10-10h-165.11c-73.187,0-182.337,20.18-220.361,40.74c-3.23,1.746-5.243,5.123-5.243,8.796v33.832H10
		c-5.522,0-10,4.478-10,10v37.053c0,5.522,4.478,10,10,10h19.643v10.688c0,5.522,4.478,10,10,10h62.535c5.522,0,10-4.478,10-10
		v-10.688h35.579v10.688c0,5.522,4.478,10,10,10h90.453c5.522,0,10-4.478,10-10v-20.688v-17.79h9.98l15.503,102.584H87.811
		c-5.522,0-10,4.478-10,10v6.546H58.168c-5.522,0-10,4.478-10,10v37.053c0,5.522,4.478,10,10,10h19.643v6.545
		c0,5.219,3.998,9.504,9.099,9.96c52.389,13.486,119.877,22.527,168.338,22.527h165.11c5.522,0,10-4.478,10-10v-17.789H450
		c5.522,0,10-4.478,10-10v-37.053c0-5.522-4.478-10-10-10h-19.643v-17.789c0-5.522-4.478-10-10-10h-15.334L389.52,178.708h30.838
		C425.88,178.708,430.357,174.23,430.357,168.708z M396.421,301.292h13.937v17.789v8.526H204.072c-5.522,0-10,4.478-10,10
		s4.478,10,10,10h206.285v8.526v17.789h-155.11c-45.149,0-107.445-8.126-157.437-20.408v-8.624v-37.053v-6.546h26.788v10.688
		c0,5.522,4.478,10,10,10s10-4.478,10-10v-10.688h26.316v10.688c0,5.522,4.478,10,10,10s10-4.478,10-10v-10.688h26.315v10.688
		c0,5.522,4.478,10,10,10s10-4.478,10-10v-10.688h58.088c0.359,0,0.713-0.021,1.062-0.058c0.072-0.008,0.143-0.023,0.215-0.033
		c0.279-0.036,0.557-0.078,0.828-0.136c0.081-0.018,0.16-0.042,0.24-0.062c0.259-0.063,0.515-0.13,0.766-0.212
		c0.091-0.03,0.179-0.066,0.269-0.099c0.233-0.084,0.464-0.172,0.689-0.272c0.103-0.046,0.202-0.097,0.303-0.146
		c0.204-0.1,0.406-0.203,0.602-0.316c0.111-0.064,0.219-0.131,0.328-0.2c0.178-0.111,0.352-0.228,0.522-0.35
		c0.113-0.082,0.225-0.164,0.335-0.25c0.159-0.125,0.313-0.255,0.464-0.389c0.106-0.094,0.213-0.188,0.315-0.287
		c0.152-0.146,0.296-0.301,0.439-0.457c0.066-0.073,0.14-0.138,0.204-0.213c0.021-0.025,0.038-0.052,0.059-0.077
		c0.167-0.198,0.323-0.406,0.474-0.616c0.047-0.065,0.1-0.127,0.145-0.194c0.39-0.571,0.721-1.185,0.988-1.832
		c0.024-0.06,0.043-0.121,0.066-0.181c0.101-0.259,0.194-0.52,0.273-0.789c0.029-0.098,0.05-0.197,0.076-0.296
		c0.06-0.23,0.117-0.46,0.161-0.696c0.025-0.131,0.041-0.263,0.06-0.396c0.03-0.204,0.057-0.408,0.074-0.616
		c0.013-0.157,0.018-0.313,0.024-0.471c0.004-0.12,0.018-0.237,0.018-0.357c0-0.073-0.009-0.144-0.011-0.216
		c-0.003-0.157-0.013-0.313-0.024-0.469c-0.014-0.205-0.032-0.407-0.058-0.608c-0.009-0.066-0.009-0.133-0.019-0.2l-9.462-62.611
		h25.765c5.522,0,10-4.478,10-10s-4.478-10-10-10h-28.788l-4.304-28.479h80.875l17.241,114.078
		C387.272,297.677,391.476,301.292,396.421,301.292z M440,346.134h-9.643v-17.053H440V346.134z M68.168,317.838h9.643v17.053h-9.643
		V317.838z M377.895,158.708H276.792H258.21v-26.315h81.588c5.522,0,10-4.478,10-10s-4.478-10-10-10H157.757
		c-5.522,0-10,4.478-10,10v27.053h-45.579c-5.522,0-10,4.478-10,10v37.053v10.688H49.643v-10.688v-37.053v-37.619
		c36.836-16.703,133.956-35.749,205.604-35.749h155.11v17.789v8.526h-39.065c-5.522,0-10,4.478-10,10s4.478,10,10,10h39.065v8.526
		v17.789H377.895z M20,169.445h9.643v17.053H20V169.445z M238.21,168.708v27.79v10.688h-70.453v-10.688v-37.053v-27.053h70.453
		V168.708z M147.757,186.498h-35.579v-17.053h35.579V186.498z M440,130.919h-9.643v-17.053H440V130.919z"/>
	<rect x="112.178" y="169.445" style="fill:#666666;" width="35.579" height="17.053"/>
</g>
<g>
</g>
<g>
</g>
<g>
</g>
<g>
</g>
<g>
</g>
<g>
</g>
<g>
</g>
<g>
</g>
<g>
</g>
<g>
</g>
<g>
</g>
<g>
</g>
<g>
</g>
<g>
</g>
<g>
</g>
</svg>
