<?xml version="1.0" encoding="iso-8859-1"?>
<!-- Generator: Adobe Illustrator 17.1.0, SVG Export Plug-In . SVG Version: 6.00 Build 0)  -->
<!DOCTYPE svg PUBLIC "-//W3C//DTD SVG 1.1//EN" "http://www.w3.org/Graphics/SVG/1.1/DTD/svg11.dtd">
<svg version="1.1" id="Capa_1" xmlns="http://www.w3.org/2000/svg" xmlns:xlink="http://www.w3.org/1999/xlink" x="0px" y="0px"
	 viewBox="0 0 459.994 459.994" style="enable-background:new 0 0 459.994 459.994;" xml:space="preserve">
<g>
	<path style="fill:#E5E5E5;" d="M431.929,29.552c-14.327,8.479-34.888,22.294-52.665,35.175L267.63,162.455
		c-0.279,0.244-0.572,0.474-0.877,0.686c-2.379,1.654-58.55,40.648-83.008,51.479c-2.473,1.095-5.284,1.141-7.792,0.13
		c-2.508-1.012-4.499-2.997-5.519-5.501c-0.844-2.071-2.083-3.933-3.683-5.533c-3.176-3.176-7.399-4.925-11.89-4.925
		c-4.492,0-8.714,1.749-11.89,4.925c-6.556,6.556-6.556,17.225,0,23.78c3.175,3.175,7.396,4.924,11.888,4.924
		c2.207,0,4.354-0.421,6.382-1.25c3.376-1.382,7.236-0.814,10.072,1.479c2.836,2.293,4.2,5.948,3.557,9.538
		c-5.962,33.309-31.032,59.674-63.042,67.932l39.534,39.534c8.258-32.01,34.624-57.081,67.932-63.043
		c3.593-0.642,7.246,0.722,9.539,3.558c2.293,2.836,2.86,6.696,1.479,10.072c-2.574,6.292-1.132,13.463,3.673,18.269
		c3.176,3.177,7.399,4.926,11.89,4.926c4.492,0,8.714-1.749,11.89-4.926c6.556-6.556,6.556-17.224,0-23.779
		c-1.6-1.601-3.461-2.84-5.532-3.683c-2.504-1.021-4.489-3.012-5.501-5.52c-1.012-2.508-0.965-5.318,0.13-7.791
		c10.831-24.458,49.825-80.629,51.479-83.009c0.212-0.305,0.441-0.598,0.686-0.877l97.727-111.633
		C409.634,64.44,423.451,43.88,431.929,29.552z M260.53,215.093l-45.25,45.25c-1.953,1.952-4.512,2.929-7.071,2.929
		s-5.118-0.977-7.071-2.929c-3.905-3.905-3.905-10.237,0-14.143l45.25-45.25c3.905-3.904,10.237-3.904,14.142,0
		C264.435,204.856,264.435,211.188,260.53,215.093z"/>
	<path style="fill:#E5E5E5;" d="M170.064,371.026c-2.097,0-4.146,0.568-5.927,1.642c-0.421,0.255-0.856,0.475-1.302,0.661
		c-0.275,0.364-0.577,0.711-0.903,1.037c-2.163,2.163-3.354,5.038-3.354,8.098c0,3.059,1.191,5.935,3.354,8.098
		c2.163,2.163,5.039,3.354,8.098,3.354s5.935-1.191,8.098-3.354c2.163-2.163,3.354-5.039,3.354-8.098
		c0-3.06-1.191-5.935-3.354-8.098C175.974,372.213,173.111,371.026,170.064,371.026z"/>
	<path style="fill:#E5E5E5;" d="M79.017,279.998c-3.059,0-5.935,1.191-8.098,3.354c-2.163,2.163-3.354,5.039-3.354,8.098
		c0,3.06,1.191,5.935,3.354,8.098c2.164,2.163,5.039,3.354,8.098,3.354c3.059,0,5.935-1.191,8.098-3.354
		c0.327-0.326,0.673-0.628,1.037-0.903c0.187-0.445,0.407-0.88,0.661-1.301c2.723-4.515,2.025-10.269-1.698-13.991
		C84.952,281.19,82.076,279.998,79.017,279.998z"/>
	<path d="M456.547,4.934c-1.569-1.569-4.354-3.439-8.706-3.439c-3.722,0-10.652,0-47.511,24.36
		c-17.159,11.341-33.022,22.837-33.181,22.952c-0.247,0.179-0.485,0.369-0.715,0.569l-111.553,97.658
		c-4.839,3.35-47.029,32.434-71.393,45.419c-0.81-0.999-1.676-1.96-2.596-2.88c-6.954-6.953-16.199-10.782-26.032-10.782
		s-19.079,3.829-26.032,10.782c-11.903,11.903-13.924,29.992-6.087,44.01l-29.705,29.705c-4.302-2.146-9.072-3.29-14.02-3.29
		c-8.401,0-16.299,3.271-22.24,9.212c-5.94,5.941-9.212,13.84-9.212,22.24c0,8.401,3.272,16.3,9.212,22.24
		c5.94,5.94,13.839,9.212,22.24,9.212c4.949,0,9.724-1.136,14.027-3.283l48.817,48.817c-2.148,4.303-3.283,9.078-3.283,14.027
		c0,8.4,3.271,16.299,9.212,22.24c5.94,5.94,13.839,9.212,22.24,9.212s16.299-3.271,22.24-9.212c5.94-5.941,9.212-13.84,9.212-22.24
		c0-4.948-1.143-9.718-3.29-14.02l29.696-29.696c5.434,3.053,11.583,4.687,17.986,4.687c9.834,0,19.079-3.83,26.033-10.783
		c6.953-6.953,10.783-16.198,10.783-26.032s-3.83-19.079-10.783-26.032c-0.92-0.92-1.88-1.785-2.879-2.596
		c12.984-24.358,42.07-66.553,45.419-71.393l97.657-111.553c0.201-0.229,0.391-0.468,0.57-0.715
		c0.129-0.178,13.038-17.991,25.023-36.331c7.133-10.916,12.583-19.936,16.199-26.809C457.864,23.648,463.861,12.248,456.547,4.934z
		 M298.34,194.728c-1.654,2.38-40.649,58.551-51.479,83.009c-1.095,2.473-1.142,5.283-0.13,7.791
		c1.012,2.508,2.997,4.499,5.501,5.52c2.071,0.843,3.932,2.082,5.532,3.683c6.556,6.556,6.556,17.224,0,23.779
		c-3.176,3.177-7.398,4.926-11.89,4.926c-4.491,0-8.714-1.749-11.89-4.926c-4.806-4.806-6.248-11.977-3.673-18.269
		c1.381-3.376,0.814-7.236-1.479-10.072c-2.292-2.836-5.945-4.199-9.539-3.558c-33.308,5.962-59.673,31.033-67.932,63.043
		l-39.534-39.534c32.01-8.258,57.08-34.623,63.042-67.932c0.643-3.59-0.721-7.245-3.557-9.538
		c-2.835-2.294-6.696-2.861-10.072-1.479c-2.028,0.829-4.175,1.25-6.382,1.25c-4.491,0-8.713-1.749-11.888-4.924
		c-6.556-6.556-6.556-17.225,0-23.78c3.176-3.176,7.398-4.925,11.89-4.925c4.491,0,8.714,1.749,11.89,4.925
		c1.6,1.601,2.839,3.462,3.683,5.533c1.02,2.504,3.011,4.489,5.519,5.501c2.508,1.011,5.318,0.965,7.792-0.13
		c24.458-10.831,80.629-49.825,83.008-51.479c0.305-0.212,0.598-0.441,0.877-0.686l111.633-97.729
		c17.777-12.881,38.338-26.696,52.665-35.175c-8.478,14.328-22.294,34.889-35.176,52.666l-97.727,111.633
		C298.782,194.13,298.553,194.423,298.34,194.728z M181.482,382.464c0,3.059-1.191,5.935-3.354,8.098
		c-2.163,2.163-5.039,3.354-8.098,3.354s-5.935-1.191-8.098-3.354c-2.163-2.163-3.354-5.039-3.354-8.098
		c0-3.06,1.191-5.935,3.354-8.098c0.326-0.326,0.628-0.673,0.903-1.037c0.445-0.187,0.88-0.406,1.302-0.661
		c1.781-1.073,3.83-1.642,5.927-1.642c3.047,0,5.911,1.187,8.064,3.34C180.291,376.529,181.482,379.404,181.482,382.464z
		 M88.812,297.344c-0.254,0.421-0.474,0.855-0.661,1.301c-0.364,0.275-0.71,0.577-1.037,0.903c-2.163,2.163-5.039,3.354-8.098,3.354
		c-3.059,0-5.935-1.191-8.098-3.354c-2.163-2.163-3.354-5.038-3.354-8.098c0-3.059,1.191-5.935,3.354-8.098
		c2.163-2.163,5.039-3.354,8.098-3.354s5.935,1.191,8.098,3.354C90.837,287.075,91.536,292.829,88.812,297.344z M151.199,252.241
		c-7.409,17.826-22.394,31.599-40.772,37.476c-0.231-4.246-1.325-8.431-3.247-12.286l29.693-29.693
		C141.263,250.203,146.118,251.743,151.199,252.241z M171.758,351.071c5.873-18.38,19.644-33.371,37.467-40.784
		c0.5,5.006,2.033,9.881,4.523,14.317l-29.695,29.694C180.255,352.405,176.088,351.3,171.758,351.071z"/>
	<path style="fill:#B3B3B3;" d="M246.388,200.95l-45.25,45.25c-3.905,3.905-3.905,10.237,0,14.143
		c1.953,1.952,4.512,2.929,7.071,2.929s5.119-0.977,7.071-2.929l45.25-45.25c3.905-3.905,3.905-10.237,0-14.143
		C256.624,197.046,250.293,197.046,246.388,200.95z"/>
	<path style="fill:#E5E5E5;" d="M25.187,421.654l-2.789,2.789c-3.21,3.21-3.21,8.435,0,11.645c1.555,1.556,3.623,2.412,5.822,2.412
		c2.199,0,4.267-0.856,5.822-2.412l2.789-2.789L25.187,421.654z"/>
	
		<rect x="35.201" y="381.076" transform="matrix(0.7071 -0.7071 0.7071 0.7071 -255.0207 162.9398)" style="fill:#E5E5E5;" width="67.952" height="16.468"/>
	<path d="M86.867,330.664c-3.905-3.904-10.237-3.904-14.143,0c-3.905,3.905-3.905,10.237,0,14.143l0.514,0.514l-48.05,48.049
		l-0.513-0.513c-3.905-3.904-10.237-3.904-14.143,0c-3.905,3.905-3.905,10.237,0,14.143l0.513,0.513l-2.789,2.789
		c-11.008,11.009-11.008,28.921,0,39.93c5.333,5.333,12.423,8.27,19.965,8.27c7.542,0,14.632-2.937,19.964-8.27l2.789-2.789
		l0.513,0.514c1.953,1.952,4.512,2.929,7.071,2.929s5.119-0.977,7.071-2.929c3.905-3.905,3.905-10.237,0-14.143l-0.513-0.513
		l48.05-48.05l0.513,0.513c1.953,1.952,4.512,2.929,7.071,2.929s5.119-0.977,7.071-2.929c3.905-3.905,3.905-10.237,0-14.143
		L86.867,330.664z M28.221,438.5c-2.2,0-4.267-0.856-5.822-2.412c-3.211-3.21-3.211-8.435,0-11.645l2.789-2.789l11.645,11.645
		l-2.789,2.789C32.488,437.644,30.42,438.5,28.221,438.5z M39.33,407.512l48.05-48.049l11.645,11.645l-48.05,48.049L39.33,407.512z"
		/>
</g>
<g>
</g>
<g>
</g>
<g>
</g>
<g>
</g>
<g>
</g>
<g>
</g>
<g>
</g>
<g>
</g>
<g>
</g>
<g>
</g>
<g>
</g>
<g>
</g>
<g>
</g>
<g>
</g>
<g>
</g>
</svg>
