<?xml version="1.0" encoding="iso-8859-1"?>
<!-- Generator: Adobe Illustrator 17.1.0, SVG Export Plug-In . SVG Version: 6.00 Build 0)  -->
<!DOCTYPE svg PUBLIC "-//W3C//DTD SVG 1.1//EN" "http://www.w3.org/Graphics/SVG/1.1/DTD/svg11.dtd">
<svg version="1.1" id="Capa_1" xmlns="http://www.w3.org/2000/svg" xmlns:xlink="http://www.w3.org/1999/xlink" x="0px" y="0px"
	 viewBox="0 0 498.254 498.254" style="enable-background:new 0 0 498.254 498.254;" xml:space="preserve">
<g>
	<path style="fill:#09D6DE;" d="M487.57,10.684c-12.299-12.299-33.335-16.162-49.749,0.251L231.313,217.443
		c0.65,0.65,1.225,1.382,1.682,2.204l8.714,15.685L451.964,25.077c8.014-8.016,16.571-5.144,21.464-0.252
		c4.893,4.894,7.763,13.451-0.251,21.465L256.862,262.605l10.102,18.183L487.319,60.433C503.732,44.02,499.869,22.982,487.57,10.684
		z"/>
	<path style="fill:#E5E5E5;" d="M48.891,463.505l10.606,10.606L180.059,353.55l-35.355-35.356L24.142,438.756l10.606,10.606
		l47.376-47.376c3.905-3.904,10.237-3.904,14.143,0c3.905,3.905,3.905,10.237,0,14.143L48.891,463.505z M121.016,356.025
		c3.906-3.904,10.238-3.903,14.142,0l7.071,7.071c3.905,3.906,3.905,10.237,0,14.143c-1.953,1.952-4.512,2.929-7.071,2.929
		c-2.56,0-5.119-0.977-7.071-2.929l-7.071-7.071C117.111,366.261,117.111,359.93,121.016,356.025z M99.803,377.237
		c3.905-3.904,10.237-3.904,14.143,0l7.071,7.071c3.905,3.905,3.905,10.237,0,14.143c-1.953,1.952-4.512,2.929-7.071,2.929
		s-5.119-0.977-7.071-2.929l-7.071-7.071C95.898,387.475,95.898,381.143,99.803,377.237z"/>
	<polygon style="fill:#E5E5E5;" points="194.202,339.408 247.204,286.405 221.951,240.948 158.847,304.052 	"/>
	<path d="M241.709,235.332l-8.714-15.685c-0.457-0.822-1.032-1.554-1.682-2.204c-1.519-1.519-3.496-2.538-5.672-2.843
		c-3.108-0.432-6.24,0.614-8.458,2.832l-20.506,20.506h0c-3.905-3.904-10.237-3.904-14.143,0c-3.905,3.905-3.905,10.237,0,14.143h0
		l-44.893,44.893c-0.003,0.002-0.006,0.005-0.008,0.007c-0.003,0.003-0.005,0.005-0.007,0.008L2.93,431.685
		c-3.905,3.905-3.905,10.237,0,14.143l24.746,24.747c0.001,0,0.002,0.001,0.002,0.002s0.002,0.001,0.003,0.002l24.746,24.747
		c1.875,1.875,4.419,2.929,7.071,2.929s5.196-1.054,7.071-2.929l165.463-165.463c1.953,1.952,4.512,2.929,7.071,2.929
		c2.559,0,5.118-0.977,7.071-2.929c3.905-3.905,3.906-10.236,0.001-14.143l20.506-20.506c3.157-3.157,3.838-8.024,1.67-11.928
		l-1.388-2.498l-10.102-18.183L241.709,235.332z M96.267,401.986c-3.905-3.904-10.237-3.904-14.143,0l-47.376,47.376l-10.606-10.606
		l120.562-120.562l35.355,35.356L59.498,474.111l-10.606-10.606l47.376-47.376C100.172,412.224,100.172,405.892,96.267,401.986z
		 M221.951,240.948l25.254,45.457l-53.003,53.002l-35.355-35.356L221.951,240.948z"/>
	<path d="M128.087,377.238c1.953,1.952,4.512,2.929,7.071,2.929c2.559,0,5.118-0.977,7.071-2.929c3.905-3.905,3.906-10.236,0-14.143
		l-7.071-7.071c-3.904-3.903-10.236-3.904-14.142,0c-3.905,3.905-3.906,10.236,0,14.143L128.087,377.238z"/>
	<path d="M106.874,398.451c1.953,1.952,4.512,2.929,7.071,2.929s5.119-0.977,7.071-2.929c3.905-3.905,3.905-10.237,0-14.143
		l-7.071-7.071c-3.905-3.904-10.237-3.904-14.143,0c-3.905,3.905-3.905,10.237,0,14.143L106.874,398.451z"/>
</g>
<g>
</g>
<g>
</g>
<g>
</g>
<g>
</g>
<g>
</g>
<g>
</g>
<g>
</g>
<g>
</g>
<g>
</g>
<g>
</g>
<g>
</g>
<g>
</g>
<g>
</g>
<g>
</g>
<g>
</g>
</svg>
