<?xml version="1.0" encoding="iso-8859-1"?>
<!-- Generator: Adobe Illustrator 17.1.0, SVG Export Plug-In . SVG Version: 6.00 Build 0)  -->
<!DOCTYPE svg PUBLIC "-//W3C//DTD SVG 1.1//EN" "http://www.w3.org/Graphics/SVG/1.1/DTD/svg11.dtd">
<svg version="1.1" id="Capa_1" xmlns="http://www.w3.org/2000/svg" xmlns:xlink="http://www.w3.org/1999/xlink" x="0px" y="0px"
	 viewBox="0 0 460 460" style="enable-background:new 0 0 460 460;" xml:space="preserve">
<g>
	
		<rect x="354.375" y="56.321" transform="matrix(0.7071 0.7071 -0.7071 0.7071 162.0461 -259.325)" style="fill:#CCCCCC;" width="79.361" height="19.248"/>
	<path d="M457.071,87.064l-6.938-6.938L379.874,9.867l-6.938-6.938c-3.906-3.904-10.236-3.904-14.143,0
		c-3.86,3.86-3.898,10.088-0.126,14.003L337.979,37.62c-3.905,3.905-3.905,10.237,0,14.143l14.181,14.181l-44.288,44.289
		L293.69,96.051c-3.906-3.904-10.236-3.904-14.143,0c-3.905,3.905-3.905,10.237,0,14.143l21.253,21.253l27.753,27.753l21.253,21.253
		c1.953,1.952,4.512,2.929,7.071,2.929s5.118-0.977,7.071-2.929c3.905-3.905,3.905-10.237,0-14.143l-14.182-14.182l44.288-44.287
		l14.182,14.182c1.876,1.875,4.419,2.929,7.071,2.929s5.196-1.054,7.071-2.929l20.688-20.689c1.935,1.864,4.431,2.803,6.932,2.803
		c2.56,0,5.118-0.977,7.071-2.929C460.977,97.302,460.977,90.97,457.071,87.064z M322.015,124.375l43.719-43.72l13.611,13.611
		l-43.72,43.719L322.015,124.375z M359.192,44.691l13.61-13.61l56.117,56.117l-13.611,13.611L359.192,44.691z"/>
	
		<rect x="319.765" y="99.696" transform="matrix(0.7071 -0.7071 0.7071 0.7071 25.4124 279.9905)" style="fill:#F8A71B;" width="61.828" height="19.248"/>
	
		<rect x="153.012" y="171.385" transform="matrix(0.7071 0.7071 -0.7071 0.7071 194.1522 -51.0616)" style="fill:#E5E5E5;" width="11.399" height="74.883"/>
	<polygon style="fill:#E5E5E5;" points="203.359,200.524 83.318,320.565 95.039,332.287 95.041,332.288 95.042,332.289 
		111.376,348.623 127.711,364.958 127.712,364.959 127.713,364.96 139.435,376.682 259.476,256.641 	"/>
	<path d="M210.43,179.31l-22.203-22.202c-3.905-3.904-10.237-3.904-14.142,0L106.993,224.2c-1.875,1.876-2.929,4.419-2.929,7.071
		s1.054,5.196,2.929,7.071l15.131,15.131l-52.949,52.949l-6.806-6.806c-1.875-1.875-4.419-2.929-7.071-2.929
		s-5.196,1.054-7.071,2.929l-38.36,38.361c-3.905,3.905-3.905,10.237,0,14.143l6.805,6.805L2.929,372.67
		c-3.905,3.905-3.905,10.237,0,14.143l70.259,70.259c1.953,1.952,4.512,2.929,7.071,2.929c2.559,0,5.119-0.977,7.071-2.929
		l13.744-13.744l6.806,6.806c1.953,1.952,4.512,2.929,7.071,2.929s5.119-0.977,7.071-2.929l38.36-38.36
		c3.905-3.905,3.905-10.237,0-14.143l-6.805-6.806L280.69,263.712c1.875-1.876,2.929-4.419,2.929-7.071s-1.054-5.195-2.929-7.071
		L210.43,179.31z M86.932,429.185l-6.673,6.673l-56.117-56.117l6.673-6.673l28.059,28.059L86.932,429.185z M63.751,377.72
		l24.219-24.218l18.529,18.529L82.28,396.248L63.751,377.72z M62.105,327.637l11.723,11.723l-24.219,24.218L31.081,345.05
		l24.218-24.219L62.105,327.637z M96.422,410.391l24.218-24.218l11.723,11.723l6.806,6.806l-24.218,24.218L96.422,410.391z
		 M127.713,364.96L127.713,364.96l-0.002-0.002l-16.335-16.334L95.043,332.29c0,0-0.001-0.001-0.001-0.002
		c0,0-0.001-0.001-0.002-0.001l-11.721-11.721l120.041-120.041l56.117,56.116L139.435,376.682L127.713,364.96z M181.156,178.321
		l8.06,8.061l-52.95,52.95l-8.06-8.06L181.156,178.321z"/>
	<path d="M231.245,158.496c-3.904-3.903-10.236-3.904-14.142,0c-3.905,3.905-3.905,10.237,0,14.143l70.258,70.259
		c1.953,1.952,4.512,2.929,7.071,2.929c2.559,0,5.118-0.977,7.071-2.929c3.905-3.905,3.905-10.237,0-14.143L231.245,158.496z"/>
	<path d="M252.061,137.681c-3.906-3.904-10.236-3.904-14.143,0c-3.905,3.905-3.905,10.237,0,14.143l70.259,70.259
		c1.953,1.952,4.512,2.929,7.071,2.929s5.118-0.977,7.071-2.929c3.905-3.905,3.905-10.237,0-14.143L252.061,137.681z"/>
	<path d="M272.875,116.865c-3.906-3.904-10.236-3.904-14.143,0c-3.905,3.905-3.905,10.237,0,14.143l70.26,70.26
		c1.953,1.952,4.512,2.929,7.071,2.929s5.118-0.977,7.071-2.929c3.905-3.905,3.905-10.237,0-14.143L272.875,116.865z"/>
	<polygon style="fill:#E5E5E5;" points="24.142,379.741 80.259,435.858 86.932,429.185 58.873,401.127 30.815,373.068 	"/>
	<polygon style="fill:#CCCCCC;" points="31.081,345.05 49.609,363.578 73.827,339.359 62.105,327.637 55.299,320.831 	"/>
	
		<rect x="68" y="361.773" transform="matrix(0.7071 -0.7071 0.7071 0.7071 -240.1431 169.989)" style="fill:#CCCCCC;" width="34.25" height="26.204"/>
	<polygon style="fill:#CCCCCC;" points="139.169,404.701 132.363,397.895 120.64,386.172 96.422,410.391 114.951,428.919 	"/>
</g>
<g>
</g>
<g>
</g>
<g>
</g>
<g>
</g>
<g>
</g>
<g>
</g>
<g>
</g>
<g>
</g>
<g>
</g>
<g>
</g>
<g>
</g>
<g>
</g>
<g>
</g>
<g>
</g>
<g>
</g>
</svg>
