<?xml version="1.0" encoding="iso-8859-1"?>
<!-- Generator: Adobe Illustrator 17.1.0, SVG Export Plug-In . SVG Version: 6.00 Build 0)  -->
<!DOCTYPE svg PUBLIC "-//W3C//DTD SVG 1.1//EN" "http://www.w3.org/Graphics/SVG/1.1/DTD/svg11.dtd">
<svg version="1.1" id="Capa_1" xmlns="http://www.w3.org/2000/svg" xmlns:xlink="http://www.w3.org/1999/xlink" x="0px" y="0px"
	 viewBox="0 0 459.98 459.98" style="enable-background:new 0 0 459.98 459.98;" xml:space="preserve">
<g>
	
		<rect x="52.4" y="261.984" transform="matrix(0.7071 0.7071 -0.7071 0.7071 218.842 31.8544)" style="fill:#E5E5E5;" width="37.14" height="36.203"/>
	
		<rect x="218.506" y="100.562" transform="matrix(0.7071 -0.7071 0.7071 0.7071 -16.3104 198.8875)" style="fill:#E5E5E5;" width="26.835" height="37.14"/>
	<path d="M275.756,129.846c1.875-1.876,2.929-4.419,2.929-7.071s-1.054-5.196-2.929-7.071l-13.131-13.131
		c19.761-19.761,74.314-74.313,76.559-76.56c8.031-8.029,21.1-8.032,29.133-0.001c8.031,8.032,8.031,21.102,0,29.133l-19.737,19.737
		c-3.905,3.905-3.905,10.237,0,14.143c3.906,3.904,10.236,3.904,14.143,0l19.737-19.738c15.828-15.829,15.828-41.586-0.001-57.416
		c-15.828-15.828-41.585-15.828-57.417,0.002c-2.246,2.246-56.798,56.798-76.559,76.558l-13.131-13.13
		c-3.906-3.904-10.236-3.904-14.143,0l-33.117,33.117L63.568,232.941l-39.742,39.742c-1.875,1.876-2.929,4.419-2.929,7.071
		s1.054,5.195,2.929,7.071l40.404,40.403c1.953,1.952,4.512,2.929,7.071,2.929s5.118-0.977,7.071-2.929l39.741-39.741
		l124.523-124.523L275.756,129.846z M195.163,129.632l26.262,26.262L111.043,266.274l-26.262-26.262L195.163,129.632z
		 M235.566,141.751l-26.261-26.262l18.975-18.975l26.262,26.262L235.566,141.751z M70.64,254.155l26.261,26.262l-25.599,25.599
		L45.04,279.755L70.64,254.155z"/>
	
		<rect x="134.533" y="119.901" transform="matrix(0.7071 0.7071 -0.7071 0.7071 184.8166 -50.281)" style="fill:#DE021B;" width="37.14" height="156.103"/>
	
		<rect x="182.223" y="391.806" transform="matrix(0.7071 0.7071 -0.7071 0.7071 348.6674 -21.9199)" style="fill:#E5E5E5;" width="37.14" height="36.203"/>
	
		<rect x="343.176" y="235.536" transform="matrix(-0.7071 -0.7071 0.7071 -0.7071 441.4934 680.7856)" style="fill:#E5E5E5;" width="37.14" height="26.836"/>
	
		<rect x="264.355" y="249.724" transform="matrix(0.7071 0.7071 -0.7071 0.7071 314.6389 -104.0552)" style="fill:#DE021B;" width="37.14" height="156.103"/>
	<path d="M427.19,197.651c7.669-7.668,11.893-17.863,11.893-28.708s-4.224-21.04-11.892-28.708
		c-15.831-15.831-41.588-15.829-57.417,0l-20.178,20.178c-8.032,8.032-21.102,8.031-29.132,0c-3.891-3.891-6.033-9.063-6.033-14.565
		s2.143-10.675,6.033-14.565l19.736-19.736c3.905-3.905,3.905-10.237,0-14.143c-3.906-3.904-10.236-3.904-14.143,0l-19.736,19.736
		c-15.829,15.83-15.829,41.586,0,57.416c15.831,15.831,41.588,15.829,57.417,0l20.178-20.178c8.032-8.032,21.101-8.03,29.133,0
		c3.891,3.891,6.033,9.063,6.033,14.565s-2.143,10.675-6.035,14.567c-2.003,2.003-23.353,23.352-34.743,34.743l-13.131-13.13
		c-3.906-3.904-10.236-3.904-14.143,0l-33.117,33.117L212.818,343.336l2.236-25.564l4.06,2.495c1.633,1.003,3.439,1.48,5.225,1.48
		c3.36,0,6.643-1.693,8.53-4.767c2.891-4.706,1.42-10.864-3.286-13.755l-12.58-7.729l0.5-5.719l4.061,2.495
		c1.633,1.003,3.439,1.48,5.225,1.48c3.36,0,6.643-1.693,8.53-4.767c2.891-4.705,1.42-10.863-3.286-13.755l-12.58-7.729l0.5-5.719
		l4.061,2.494c4.707,2.893,10.864,1.42,13.755-3.286s1.42-10.864-3.286-13.755l-17.847-10.964c-2.954-1.815-6.636-1.969-9.73-0.412
		c-3.096,1.559-5.164,4.608-5.466,8.062l-10.622,121.415l-37.169,37.168c-1.875,1.876-2.929,4.419-2.929,7.071
		s1.054,5.195,2.929,7.071l40.404,40.404c1.953,1.952,4.512,2.929,7.071,2.929s5.118-0.977,7.071-2.929l37.168-37.168
		l121.416-10.623c3.452-0.302,6.502-2.37,8.061-5.466c1.558-3.096,1.402-6.777-0.412-9.73l-10.964-17.847
		c-2.891-4.705-9.048-6.179-13.755-3.286c-4.706,2.891-6.177,9.049-3.286,13.755l2.494,4.061l-5.719,0.5l-7.729-12.581
		c-2.89-4.704-9.049-6.178-13.755-3.286c-4.706,2.891-6.177,9.049-3.286,13.755l2.495,4.061l-5.719,0.5l-7.729-12.581
		c-2.892-4.706-9.051-6.178-13.755-3.286c-4.706,2.892-6.177,9.05-3.286,13.755l2.495,4.061l-25.564,2.237L372.46,292.787
		l33.118-33.118c1.875-1.876,2.929-4.419,2.929-7.071s-1.054-5.196-2.929-7.071l-13.131-13.131
		C403.838,221.005,425.188,199.655,427.19,197.651z M200.462,383.977l26.261,26.262l-25.599,25.598l-26.262-26.262L200.462,383.977z
		 M240.865,396.096l-26.262-26.262l110.382-110.381l26.262,26.262L240.865,396.096z M365.389,271.573l-26.261-26.262l18.975-18.975
		l26.262,26.262L365.389,271.573z"/>
</g>
<g>
</g>
<g>
</g>
<g>
</g>
<g>
</g>
<g>
</g>
<g>
</g>
<g>
</g>
<g>
</g>
<g>
</g>
<g>
</g>
<g>
</g>
<g>
</g>
<g>
</g>
<g>
</g>
<g>
</g>
</svg>
