<?xml version="1.0" encoding="iso-8859-1"?>
<!-- Generator: Adobe Illustrator 17.1.0, SVG Export Plug-In . SVG Version: 6.00 Build 0)  -->
<!DOCTYPE svg PUBLIC "-//W3C//DTD SVG 1.1//EN" "http://www.w3.org/Graphics/SVG/1.1/DTD/svg11.dtd">
<svg version="1.1" id="Capa_1" xmlns="http://www.w3.org/2000/svg" xmlns:xlink="http://www.w3.org/1999/xlink" x="0px" y="0px"
	 viewBox="0 0 460 460" style="enable-background:new 0 0 460 460;" xml:space="preserve">
<g>
	<path style="fill:#F37D22;" d="M425.341,152.906c-2.707,14.994-7.757,29.549-15.129,43.493
		c-9.731,18.407-23.094,34.951-39.755,49.233c-2.008,49.285-11.848,96.532-27.846,133.483c-1.634,3.774-5.315,6.03-9.182,6.03
		c-1.326,0-2.674-0.266-3.968-0.826c-5.068-2.194-7.398-8.081-5.204-13.149c15.505-35.814,24.87-82.217,26.37-130.658
		c0.09-2.895,1.43-5.607,3.673-7.438c16.219-13.233,29.081-28.718,38.229-46.022c10.051-19.011,15.147-39.29,15.147-60.274
		c0-3.028-0.113-6.084-0.329-9.117c-9.545-15.015-20.945-28.737-33.872-40.852c8.189,15.564,12.495,32.479,12.495,49.969
		c0,34.292-16.517,66.391-46.507,90.383c-29.337,23.47-68.212,36.395-109.465,36.395s-80.128-12.925-109.465-36.395
		c-29.99-23.992-46.507-56.091-46.507-90.383c0-17.489,4.306-34.405,12.495-49.969c-12.927,12.115-24.327,25.837-33.872,40.852
		c-0.216,3.033-0.329,6.089-0.329,9.117c0,20.984,5.097,41.264,15.147,60.274c4.731,8.95,10.52,17.505,17.202,25.425
		c3.561,4.221,3.026,10.53-1.195,14.092c-1.876,1.583-4.166,2.356-6.443,2.356c-2.845,0-5.67-1.207-7.648-3.552
		c-7.603-9.012-14.196-18.76-19.597-28.974c-7.372-13.944-12.423-28.5-15.129-43.493C25.201,176.785,20,202.796,20,230
		c0,115.794,94.206,210,210,210s210-94.206,210-210C440,202.796,434.799,176.786,425.341,152.906z M208.624,284.479
		c-0.769,5.468-5.828,9.271-11.294,8.513c-31.764-4.46-61.417-15.34-86.835-31.744c3.19,40.823,11.967,79.253,25.246,109.922
		c2.194,5.068-0.135,10.956-5.203,13.15c-1.294,0.561-2.643,0.826-3.969,0.826c-3.866,0-7.548-2.256-9.182-6.029
		c-16.488-38.079-26.437-87.083-28.012-137.985c-0.121-3.915,2.055-7.541,5.566-9.275c3.516-1.736,7.715-1.258,10.749,1.217
		c0.423,0.345,0.849,0.689,1.275,1.03c25.796,20.636,58.002,34.148,93.145,39.082C205.58,273.953,209.392,279.009,208.624,284.479z
		 M240,408.294c0,5.522-4.478,10-10,10s-10-4.478-10-10V285.261c0-5.522,4.478-10,10-10c35.707,0,70.075-8.725,99.39-25.229
		c4.811-2.708,10.909-1.006,13.62,3.808c2.71,4.813,1.005,10.91-3.808,13.62c-29.543,16.634-63.651,26.097-99.202,27.592V408.294z"
		/>
	<path d="M392.635,67.365C350.231,24.961,294.184,1.167,234.393,0.054C232.932,0.021,231.468,0,230,0s-2.932,0.021-4.393,0.054
		C165.816,1.167,109.769,24.961,67.365,67.365C23.924,110.807,0,168.564,0,230s23.924,119.193,67.365,162.635S168.564,460,230,460
		s119.193-23.924,162.635-67.365S460,291.436,460,230S436.076,110.807,392.635,67.365z M230,440c-115.794,0-210-94.206-210-210
		c0-27.204,5.201-53.215,14.659-77.094c2.707,14.994,7.757,29.549,15.129,43.493c5.4,10.214,11.994,19.962,19.597,28.974
		c1.979,2.345,4.804,3.552,7.648,3.552c2.277,0,4.567-0.773,6.443-2.356c4.222-3.562,4.756-9.871,1.195-14.092
		c-6.683-7.92-12.471-16.475-17.202-25.425c-10.051-19.011-15.147-39.29-15.147-60.274c0-3.028,0.113-6.084,0.329-9.117
		c9.545-15.015,20.945-28.737,33.872-40.852c-8.189,15.564-12.495,32.479-12.495,49.969c0,34.292,16.517,66.391,46.507,90.383
		c29.337,23.47,68.212,36.395,109.465,36.395s80.128-12.925,109.465-36.395c29.99-23.992,46.507-56.091,46.507-90.383
		c0-17.489-4.306-34.405-12.495-49.969c12.927,12.115,24.327,25.837,33.872,40.852c0.216,3.033,0.329,6.089,0.329,9.117
		c0,20.984-5.097,41.264-15.147,60.274c-9.148,17.305-22.011,32.789-38.229,46.022c-2.243,1.831-3.583,4.544-3.673,7.438
		c-1.5,48.441-10.865,94.844-26.37,130.658c-2.194,5.068,0.136,10.955,5.204,13.149c1.294,0.561,2.642,0.826,3.968,0.826
		c3.866,0,7.548-2.256,9.182-6.03c15.998-36.951,25.838-84.198,27.846-133.483c16.661-14.282,30.023-30.826,39.755-49.233
		c7.372-13.944,12.423-28.499,15.129-43.493C434.799,176.786,440,202.796,440,230C440,345.794,345.794,440,230,440z
		 M365.972,126.777c0,58.877-60.997,106.777-135.972,106.777s-135.972-47.9-135.972-106.777S155.025,20,230,20
		S365.972,67.9,365.972,126.777z"/>
	<path style="fill:#FFFFFF;" d="M230.102,202.652c-5.227,0-9.479,4.252-9.479,9.479s4.252,9.479,9.479,9.479
		s9.479-4.252,9.479-9.479S235.328,202.652,230.102,202.652z"/>
	<path style="fill:#FFFFFF;" d="M113.442,109.475c-5.227,0-9.479,4.252-9.479,9.479s4.252,9.479,9.479,9.479
		s9.479-4.252,9.479-9.479S118.669,109.475,113.442,109.475z"/>
	<path style="fill:#FFFFFF;" d="M346.558,128.322c5.227,0,9.479-4.252,9.479-9.479s-4.252-9.479-9.479-9.479
		s-9.479,4.252-9.479,9.479S341.331,128.322,346.558,128.322z"/>
	<path style="fill:#FFFFFF;" d="M94.028,126.777c0,58.877,60.997,106.777,135.972,106.777s135.972-47.9,135.972-106.777
		S304.975,20,230,20S94.028,67.9,94.028,126.777z M113.442,129.475c-5.802,0-10.521-4.72-10.521-10.521s4.72-10.521,10.521-10.521
		s10.521,4.72,10.521,10.521S119.244,129.475,113.442,129.475z M230.102,222.652c-5.802,0-10.521-4.72-10.521-10.521
		s4.72-10.521,10.521-10.521s10.521,4.72,10.521,10.521S235.903,222.652,230.102,222.652z M346.558,108.322
		c5.802,0,10.521,4.72,10.521,10.521s-4.72,10.521-10.521,10.521s-10.521-4.72-10.521-10.521S340.756,108.322,346.558,108.322z
		 M327.143,110.994c0,43.954-43.578,79.714-97.143,79.714s-97.143-35.76-97.143-79.714c0-43.955,43.578-79.715,97.143-79.715
		S327.143,67.039,327.143,110.994z"/>
	<path style="fill:#A1CE57;" d="M230,51.279c-42.536,0-77.143,26.788-77.143,59.715s34.606,59.714,77.143,59.714
		s77.143-26.787,77.143-59.714S272.536,51.279,230,51.279z"/>
	<path d="M132.857,110.994c0,43.954,43.578,79.714,97.143,79.714s97.143-35.76,97.143-79.714c0-43.955-43.578-79.715-97.143-79.715
		S132.857,67.039,132.857,110.994z M230,170.708c-42.536,0-77.143-26.787-77.143-59.714S187.464,51.279,230,51.279
		s77.143,26.788,77.143,59.715S272.536,170.708,230,170.708z"/>
	<path d="M343.01,253.839c-2.711-4.813-8.81-6.516-13.62-3.808c-29.314,16.505-63.683,25.229-99.39,25.229c-5.522,0-10,4.478-10,10
		v123.033c0,5.522,4.478,10,10,10s10-4.478,10-10V295.051c35.551-1.495,69.659-10.958,99.202-27.592
		C344.015,264.749,345.72,258.651,343.01,253.839z"/>
	<path d="M200.111,273.185c-35.143-4.934-67.349-18.446-93.145-39.082c-0.427-0.341-0.853-0.686-1.275-1.03
		c-3.034-2.475-7.233-2.953-10.749-1.217c-3.512,1.734-5.688,5.36-5.566,9.275c1.575,50.902,11.523,99.906,28.012,137.985
		c1.634,3.773,5.315,6.029,9.182,6.029c1.326,0,2.675-0.266,3.969-0.826c5.068-2.194,7.397-8.082,5.203-13.15
		c-13.279-30.669-22.056-69.099-25.246-109.922c25.418,16.404,55.071,27.284,86.835,31.744c5.466,0.758,10.525-3.045,11.294-8.513
		C209.392,279.009,205.58,273.953,200.111,273.185z"/>
	<path d="M230.102,201.609c-5.802,0-10.521,4.72-10.521,10.521s4.72,10.521,10.521,10.521s10.521-4.72,10.521-10.521
		S235.903,201.609,230.102,201.609z"/>
	<path d="M113.442,108.432c-5.802,0-10.521,4.72-10.521,10.521s4.72,10.521,10.521,10.521s10.521-4.72,10.521-10.521
		S119.244,108.432,113.442,108.432z"/>
	<path d="M346.558,129.365c5.802,0,10.521-4.72,10.521-10.521s-4.72-10.521-10.521-10.521s-10.521,4.72-10.521,10.521
		S340.756,129.365,346.558,129.365z"/>
</g>
<g>
</g>
<g>
</g>
<g>
</g>
<g>
</g>
<g>
</g>
<g>
</g>
<g>
</g>
<g>
</g>
<g>
</g>
<g>
</g>
<g>
</g>
<g>
</g>
<g>
</g>
<g>
</g>
<g>
</g>
</svg>
