<?xml version="1.0" encoding="iso-8859-1"?>
<!-- Generator: Adobe Illustrator 17.1.0, SVG Export Plug-In . SVG Version: 6.00 Build 0)  -->
<!DOCTYPE svg PUBLIC "-//W3C//DTD SVG 1.1//EN" "http://www.w3.org/Graphics/SVG/1.1/DTD/svg11.dtd">
<svg version="1.1" id="Capa_1" xmlns="http://www.w3.org/2000/svg" xmlns:xlink="http://www.w3.org/1999/xlink" x="0px" y="0px"
	 viewBox="0 0 460 460" style="enable-background:new 0 0 460 460;" xml:space="preserve">
<g>
	<path style="fill:#FF0000;" d="M119.311,332.941c-0.84-0.003-1.675-0.026-2.504-0.071c-0.328-0.018-0.653-0.051-0.98-0.075
		c-0.558-0.041-1.116-0.083-1.669-0.143c-0.106-0.012-0.214-0.016-0.319-0.027v23.323h11.275v-23.323
		c-0.106,0.012-0.213,0.016-0.319,0.027c-0.553,0.06-1.111,0.102-1.669,0.143c-0.327,0.024-0.652,0.058-0.98,0.075
		c-0.829,0.045-1.664,0.068-2.504,0.071C119.53,332.941,119.42,332.941,119.311,332.941z"/>
	<rect x="113.837" y="375.948" style="fill:#FF0000;" width="11.275" height="23.003"/>
	<path style="fill:#E5E5E5;" d="M113.837,434.362c0,3.108,2.529,5.638,5.638,5.638s5.638-2.529,5.638-5.638v-15.411h-11.275V434.362
		z"/>
	<path style="fill:#E5E5E5;" d="M122.847,234.886c0.634,0.043,1.268,0.09,1.895,0.157c0.28,0.03,0.557,0.072,0.836,0.106
		c0.59,0.074,1.179,0.151,1.762,0.245c0.296,0.048,0.59,0.105,0.884,0.158c0.559,0.102,1.116,0.207,1.668,0.327
		c0.121,0.026,0.243,0.044,0.363,0.071l-4.884-193.986l-5.896-10.919l-5.896,10.919l-4.884,193.986
		c0.12-0.027,0.243-0.045,0.363-0.071c0.552-0.12,1.109-0.226,1.668-0.327c0.295-0.053,0.588-0.11,0.884-0.158
		c0.583-0.094,1.172-0.171,1.762-0.245c0.279-0.034,0.556-0.076,0.836-0.106c0.628-0.067,1.261-0.114,1.895-0.157
		c0.244-0.017,0.487-0.043,0.731-0.056c0.875-0.047,1.754-0.073,2.64-0.073s1.766,0.026,2.64,0.073
		C122.36,234.843,122.603,234.869,122.847,234.886z"/>
	<path d="M234.944,193.043c0-5.522-4.477-10-10-10c-16.292,0-29.547,13.255-29.547,29.547v32.167
		c0,15.629-12.389,28.414-27.862,29.063c-2.332-11.188-8.484-20.987-17.024-27.975l-5.206-206.776c-0.04-1.573-0.45-3.115-1.198-4.5
		l-15.833-29.32C126.528,2.016,123.149,0,119.475,0s-7.053,2.016-8.799,5.248l-15.833,29.32c-0.748,1.385-1.158,2.927-1.198,4.5
		l-5.207,206.776c-8.54,6.987-14.691,16.787-17.023,27.975c-15.473-0.648-27.862-13.434-27.862-29.063V212.59
		c0-16.292-13.255-29.547-29.547-29.547c-5.523,0-10,4.478-10,10s4.477,10,10,10c5.264,0,9.547,4.283,9.547,9.547v32.167
		c0,26.652,21.352,48.396,47.847,49.063c2.785,13.452,11.093,24.904,22.437,31.88v83.252v25.411
		c0,14.137,11.501,25.638,25.638,25.638s25.638-11.501,25.638-25.638v-25.411v-83.252c11.344-6.976,19.652-18.428,22.437-31.88
		c26.495-0.666,47.847-22.41,47.847-49.063V212.59c0-5.264,4.283-9.547,9.547-9.547
		C230.467,203.043,234.944,198.565,234.944,193.043z M122.144,332.87c0.328-0.018,0.653-0.051,0.98-0.075
		c0.558-0.041,1.116-0.083,1.669-0.143c0.106-0.012,0.214-0.016,0.319-0.027v23.323h-11.275v-23.323
		c0.106,0.012,0.213,0.016,0.319,0.027c0.553,0.06,1.111,0.102,1.669,0.143c0.327,0.024,0.652,0.058,0.98,0.075
		c0.829,0.045,1.664,0.068,2.504,0.071c0.11,0,0.219,0,0.329,0C120.479,332.938,121.314,332.915,122.144,332.87z M125.113,434.362
		c0,3.108-2.529,5.638-5.638,5.638s-5.638-2.529-5.638-5.638v-15.411h11.275V434.362z M113.837,398.951v-23.003h11.275v23.003
		H113.837z M119.475,312.945c-16.042,0-29.094-13.052-29.094-29.094c0-16.043,13.051-29.095,29.094-29.095
		s29.094,13.052,29.094,29.095C148.569,299.894,135.518,312.945,119.475,312.945z M116.835,234.83
		c-0.245,0.013-0.487,0.039-0.731,0.056c-0.634,0.043-1.268,0.09-1.895,0.157c-0.28,0.03-0.557,0.072-0.836,0.106
		c-0.59,0.074-1.179,0.151-1.762,0.245c-0.296,0.048-0.59,0.105-0.884,0.158c-0.559,0.102-1.116,0.207-1.668,0.327
		c-0.121,0.026-0.243,0.044-0.363,0.071l4.884-193.986l5.896-10.919l5.896,10.919l4.884,193.986
		c-0.12-0.027-0.243-0.045-0.363-0.071c-0.552-0.12-1.109-0.226-1.668-0.327c-0.295-0.053-0.588-0.11-0.884-0.158
		c-0.583-0.094-1.172-0.171-1.762-0.245c-0.279-0.034-0.556-0.076-0.836-0.106c-0.628-0.067-1.261-0.114-1.895-0.157
		c-0.244-0.017-0.487-0.043-0.731-0.056c-0.875-0.047-1.754-0.073-2.64-0.073S117.709,234.783,116.835,234.83z"/>
	<path style="fill:#FFFFFF;" d="M119.475,254.757c-16.042,0-29.094,13.052-29.094,29.095c0,16.042,13.051,29.094,29.094,29.094
		s29.094-13.052,29.094-29.094C148.569,267.809,135.518,254.757,119.475,254.757z M119.475,303.625
		c-10.903,0-19.773-8.87-19.773-19.773s8.87-19.773,19.773-19.773s19.773,8.87,19.773,19.773S130.378,303.625,119.475,303.625z"/>
	<path d="M119.475,264.078c-10.903,0-19.773,8.87-19.773,19.773s8.87,19.773,19.773,19.773s19.773-8.87,19.773-19.773
		S130.378,264.078,119.475,264.078z"/>
	<rect x="334.887" y="61.049" style="fill:#FF0000;" width="11.275" height="23.003"/>
	<path style="fill:#FF0000;" d="M344.176,127.205c0.558,0.042,1.115,0.083,1.668,0.143c0.106,0.012,0.213,0.015,0.319,0.027v-23.323
		h-11.275v23.323c0.106-0.012,0.213-0.016,0.319-0.027c0.552-0.06,1.11-0.102,1.668-0.143c0.326-0.024,0.651-0.057,0.979-0.075
		c0.885-0.047,1.775-0.075,2.672-0.075s1.787,0.028,2.672,0.075C343.524,127.147,343.849,127.181,344.176,127.205z"/>
	<path style="fill:#E5E5E5;" d="M346.163,25.638c0-3.108-2.529-5.638-5.638-5.638s-5.638,2.529-5.638,5.638v15.411h11.275V25.638z"
		/>
	<path style="fill:#E5E5E5;" d="M335.138,224.941c-0.086-0.01-0.171-0.022-0.257-0.032c-0.763-0.088-1.522-0.191-2.275-0.313
		c-0.246-0.04-0.49-0.088-0.735-0.132c-0.594-0.106-1.185-0.219-1.771-0.346c-0.118-0.025-0.238-0.043-0.356-0.069l4.884,193.986
		l5.896,10.919l5.896-10.919l4.884-193.986c-0.118,0.026-0.238,0.044-0.356,0.069c-0.586,0.127-1.178,0.239-1.771,0.346
		c-0.245,0.044-0.489,0.092-0.735,0.132c-0.753,0.122-1.511,0.226-2.275,0.313c-0.086,0.01-0.171,0.022-0.257,0.032
		c-1.77,0.194-3.566,0.302-5.387,0.302S336.908,225.136,335.138,224.941z"/>
	<path d="M445.994,256.957c-5.264,0-9.547-4.283-9.547-9.547v-32.167c0-26.652-21.352-48.396-47.847-49.062
		c-2.785-13.453-11.093-24.905-22.437-31.88V51.049V25.638C366.163,11.501,354.662,0,340.525,0s-25.638,11.501-25.638,25.638v25.411
		v83.252c-11.344,6.975-19.652,18.428-22.437,31.88c-26.495,0.666-47.847,22.41-47.847,49.062v32.167
		c0,5.264-4.283,9.547-9.547,9.547c-5.523,0-10,4.478-10,10s4.477,10,10,10c16.292,0,29.547-13.255,29.547-29.547v-32.167
		c0-15.629,12.389-28.414,27.862-29.063c2.332,11.188,8.483,20.987,17.023,27.975l5.207,206.776c0.04,1.573,0.45,3.115,1.198,4.5
		l15.833,29.32c1.746,3.232,5.125,5.248,8.799,5.248s7.053-2.016,8.799-5.248l15.833-29.32c0.748-1.385,1.158-2.927,1.198-4.5
		l5.207-206.776c8.54-6.987,14.691-16.787,17.023-27.975c15.473,0.648,27.862,13.434,27.862,29.063v32.167
		c0,16.292,13.255,29.547,29.547,29.547c5.523,0,10-4.478,10-10S451.517,256.957,445.994,256.957z M346.168,224.909
		c0.763-0.088,1.522-0.191,2.275-0.313c0.246-0.04,0.49-0.088,0.735-0.132c0.594-0.106,1.185-0.219,1.771-0.346
		c0.118-0.025,0.238-0.043,0.356-0.069l-4.884,193.986l-5.896,10.919l-5.896-10.919l-4.884-193.986
		c0.118,0.026,0.238,0.044,0.356,0.069c0.586,0.127,1.178,0.239,1.771,0.346c0.245,0.044,0.489,0.092,0.735,0.132
		c0.753,0.122,1.511,0.226,2.275,0.313c0.086,0.01,0.171,0.022,0.257,0.032c1.77,0.194,3.566,0.302,5.387,0.302
		s3.617-0.107,5.387-0.302C345.997,224.932,346.083,224.919,346.168,224.909z M337.853,127.13c-0.327,0.018-0.652,0.051-0.979,0.075
		c-0.558,0.042-1.115,0.083-1.668,0.143c-0.106,0.012-0.213,0.015-0.319,0.027v-23.323h11.275v23.323
		c-0.106-0.012-0.213-0.016-0.319-0.027c-0.552-0.06-1.11-0.102-1.668-0.143c-0.326-0.024-0.651-0.057-0.979-0.075
		c-0.885-0.047-1.775-0.075-2.672-0.075S338.738,127.083,337.853,127.13z M334.887,25.638c0-3.108,2.529-5.638,5.638-5.638
		s5.638,2.529,5.638,5.638v15.411h-11.275V25.638z M346.163,61.049v23.003h-11.275V61.049H346.163z M340.525,147.055
		c16.042,0,29.094,13.052,29.094,29.094c0,16.043-13.051,29.095-29.094,29.095s-29.094-13.052-29.094-29.095
		C311.431,160.106,324.482,147.055,340.525,147.055z"/>
	<path style="fill:#FFFFFF;" d="M340.525,205.243c16.042,0,29.094-13.052,29.094-29.095c0-16.042-13.051-29.094-29.094-29.094
		s-29.094,13.052-29.094,29.094C311.431,192.191,324.482,205.243,340.525,205.243z M340.525,156.375
		c10.903,0,19.773,8.87,19.773,19.773s-8.87,19.773-19.773,19.773s-19.773-8.87-19.773-19.773S329.622,156.375,340.525,156.375z"/>
	<path d="M340.525,195.922c10.903,0,19.773-8.87,19.773-19.773s-8.87-19.773-19.773-19.773s-19.773,8.87-19.773,19.773
		S329.622,195.922,340.525,195.922z"/>
</g>
<g>
</g>
<g>
</g>
<g>
</g>
<g>
</g>
<g>
</g>
<g>
</g>
<g>
</g>
<g>
</g>
<g>
</g>
<g>
</g>
<g>
</g>
<g>
</g>
<g>
</g>
<g>
</g>
<g>
</g>
</svg>
