<?xml version="1.0" encoding="iso-8859-1"?>
<!-- Generator: Adobe Illustrator 17.1.0, SVG Export Plug-In . SVG Version: 6.00 Build 0)  -->
<!DOCTYPE svg PUBLIC "-//W3C//DTD SVG 1.1//EN" "http://www.w3.org/Graphics/SVG/1.1/DTD/svg11.dtd">
<svg version="1.1" id="Capa_1" xmlns="http://www.w3.org/2000/svg" xmlns:xlink="http://www.w3.org/1999/xlink" x="0px" y="0px"
	 viewBox="0 0 506.271 506.271" style="enable-background:new 0 0 506.271 506.271;" xml:space="preserve">
<g>
	<path style="fill:#7234E4;" d="M152.488,432.121c-23.238-19.227-41.145-44.655-51.477-73.14c-0.306,0.006-0.611,0.022-0.918,0.022
		c-13.384,0-25.968-5.212-35.432-14.676c-0.204-0.205-0.406-0.41-0.606-0.618c-11.527,49.225,2.746,101.893,38.302,138.542
		L152.488,432.121z"/>
	
		<rect x="176.127" y="244.55" transform="matrix(0.7071 -0.7071 0.7071 0.7071 -119.3598 210.9386)" style="fill:#CCCCCC;" width="37.638" height="9.999"/>
	<polygon style="fill:#CCCCCC;" points="211.537,154.873 142.595,223.814 163.961,245.179 197.647,211.494 232.903,176.239 	"/>
	<path style="fill:#CCCCCC;" d="M128.453,237.957l-42.578,42.578l28.437,28.437c3.905,3.905,3.905,10.237,0,14.143
		c-1.953,1.952-4.512,2.929-7.071,2.929s-5.118-0.977-7.071-2.929l-27.224-27.225c-1.746,3.653-2.72,7.585-2.91,11.55
		c0.157,0.703,0.246,1.432,0.246,2.182c0,0.614-0.064,1.212-0.17,1.796c0.571,6.849,3.464,13.539,8.693,18.769
		c5.687,5.687,13.247,8.818,21.289,8.818s15.603-3.132,21.289-8.818l49.65-49.65L128.453,237.957z"/>
	<path style="fill:#FF0000;" d="M370.704,31.213l-82.232,82.232l82.232,82.232l82.232-82.232L370.704,31.213z M405.399,123.446
		h-24.695v24.695c0,5.522-4.478,10-10,10s-10-4.478-10-10v-24.695h-24.694c-5.522,0-10-4.478-10-10s4.478-10,10-10h24.694V78.751
		c0-5.522,4.478-10,10-10s10,4.478,10,10v24.694h24.695c5.522,0,10,4.478,10,10S410.922,123.446,405.399,123.446z"/>
	<path d="M474.15,106.375l-89.304-89.304c3.905-3.905,3.905-10.237,0-14.143c-3.906-3.904-10.236-3.904-14.143,0L363.632,10
		l-96.375,96.375l-37.967,37.967l-10.682-10.683c-1.875-1.875-4.419-2.929-7.071-2.929s-5.195,1.054-7.071,2.929
		c-3.906-3.904-10.236-3.904-14.143,0c-3.905,3.905-3.905,10.237,0,14.143L64.661,273.463c-7.404,7.403-11.995,16.568-13.788,26.157
		H39.192c-5.522,0-10,4.478-10,10s4.478,10,10,10h11.241c-23.612,64.382-5.712,137.803,45.331,184.061
		c1.91,1.73,4.313,2.59,6.714,2.59c2.564,0,5.125-0.981,7.072-2.929l65.127-65.127c2.078-2.078,3.137-4.966,2.895-7.896
		c-0.242-2.929-1.761-5.604-4.152-7.313c-12.527-8.951-23.571-19.854-32.751-32.17c6.739-2.059,12.974-5.731,18.054-10.812
		c16.52-16.521,16.94-43.129,1.274-60.171l73.006-73.006c3.905-3.905,3.905-10.237,0-14.143l-14.142-14.142l35.255-35.255
		c3.905-3.905,3.905-10.237,0-14.143l-10.683-10.683l30.896-30.896l89.304,89.304c1.953,1.952,4.512,2.929,7.071,2.929
		s5.118-0.977,7.071-2.929l96.375-96.375C478.055,116.612,478.055,110.28,474.15,106.375z M64.054,343.709
		c0.2,0.208,0.402,0.413,0.606,0.618c9.464,9.464,22.048,14.676,35.432,14.676c0.307,0,0.612-0.017,0.918-0.022
		c10.332,28.484,28.239,53.913,51.477,73.14l-50.132,50.131C66.8,445.602,52.527,392.934,64.054,343.709z M121.381,330.185
		c-5.687,5.687-13.247,8.818-21.289,8.818s-15.603-3.132-21.289-8.818c-5.229-5.229-8.123-11.92-8.693-18.769
		c0.106-0.584,0.17-1.182,0.17-1.796c0-0.75-0.089-1.479-0.246-2.182c0.19-3.965,1.164-7.896,2.91-11.55l27.224,27.225
		c1.953,1.952,4.512,2.929,7.071,2.929s5.118-0.977,7.071-2.929c3.905-3.905,3.905-10.237,0-14.143l-28.437-28.437l42.578-42.578
		l42.579,42.578L121.381,330.185z M185.174,266.392l-7.07-7.07l26.614-26.614l7.07,7.07L185.174,266.392z M197.647,211.494
		l-33.686,33.686l-21.366-21.365l68.941-68.941l21.366,21.366L197.647,211.494z M144.58,365.883
		c-4.215,4.215-9.695,6.593-15.502,6.849c-3.182-5.848-5.978-11.914-8.364-18.154c5.444-2.46,10.459-5.899,14.81-10.25
		l10.297-10.297C153.7,343.251,153.299,357.165,144.58,365.883z M288.471,113.446l82.232-82.232l82.232,82.232l-82.232,82.232
		L288.471,113.446z"/>
	<path style="fill:#FFFFFF;" d="M405.399,103.446h-24.695V78.751c0-5.522-4.478-10-10-10s-10,4.478-10,10v24.694h-24.694
		c-5.522,0-10,4.478-10,10s4.478,10,10,10h24.694v24.695c0,5.522,4.478,10,10,10s10-4.478,10-10v-24.695h24.695
		c5.522,0,10-4.478,10-10S410.922,103.446,405.399,103.446z"/>
</g>
<g>
</g>
<g>
</g>
<g>
</g>
<g>
</g>
<g>
</g>
<g>
</g>
<g>
</g>
<g>
</g>
<g>
</g>
<g>
</g>
<g>
</g>
<g>
</g>
<g>
</g>
<g>
</g>
<g>
</g>
</svg>
