<?xml version="1.0" encoding="iso-8859-1"?>
<!-- Generator: Adobe Illustrator 17.1.0, SVG Export Plug-In . SVG Version: 6.00 Build 0)  -->
<!DOCTYPE svg PUBLIC "-//W3C//DTD SVG 1.1//EN" "http://www.w3.org/Graphics/SVG/1.1/DTD/svg11.dtd">
<svg version="1.1" id="Capa_1" xmlns="http://www.w3.org/2000/svg" xmlns:xlink="http://www.w3.org/1999/xlink" x="0px" y="0px"
	 viewBox="0 0 460 460" style="enable-background:new 0 0 460 460;" xml:space="preserve">
<g>
	<path style="fill:#CCCCCC;" d="M440,278.222c-11.776,13.997-28.564,26.739-49.896,37.608
		c-42.932,21.876-99.791,33.923-160.104,33.923c-53.697,0-105.845-9.83-146.836-27.68c-5.063-2.205-7.381-8.098-5.176-13.161
		c0.126-0.29,0.268-0.568,0.417-0.84l-17.947-9.911c-0.174,0.313-0.363,0.622-0.574,0.922c-3.178,4.517-9.415,5.602-13.934,2.424
		C35.595,294.22,26.922,286.412,20,278.198v54.49c0,25.991,20.945,50.978,58.977,70.355c40.173,20.47,93.808,31.743,151.023,31.743
		s110.851-11.273,151.023-31.743C419.055,383.666,440,358.68,440,332.688V278.222z"/>
	<path style="fill:#FFFFFF;" d="M91.148,303.736c38.529,16.777,87.841,26.017,138.852,26.017
		c57.216,0,110.851-11.273,151.023-31.742C419.055,278.632,440,253.646,440,227.655s-20.945-50.977-58.977-70.355
		c-14.457-7.366-30.664-13.534-48.147-18.421v9.716c4.156,1.624,8.172,3.354,12.032,5.188
		c33.229,15.781,51.529,37.647,51.529,61.568s-18.3,45.786-51.529,61.567c-30.86,14.656-71.669,22.728-114.908,22.728
		s-84.049-8.071-114.908-22.728c-33.23-15.781-51.53-37.646-51.53-61.567s18.3-45.787,51.53-61.568
		c3.86-1.833,7.876-3.563,12.032-5.188v-9.716c-17.483,4.887-33.691,11.055-48.147,18.421C40.945,176.679,20,201.664,20,227.655
		c0,25.734,20.371,45.47,37.461,57.494c4.217,2.968,5.439,8.601,2.998,13.012l17.947,9.911
		C80.869,303.601,86.377,301.656,91.148,303.736z"/>
	<path d="M390.104,139.48c-17.088-8.707-36.387-15.851-57.228-21.304v-66.47c0-14.143-11.913-26.612-33.546-35.111
		C280.651,9.255,256.029,5.213,230,5.213s-50.651,4.042-69.33,11.382c-21.633,8.499-33.546,20.969-33.546,35.111v66.47
		c-20.84,5.453-40.14,12.597-57.228,21.304C24.823,162.446,0,193.761,0,227.655v105.033c0,33.895,24.823,65.209,69.896,88.176
		c42.932,21.875,99.791,33.923,160.104,33.923s117.172-12.048,160.104-33.923C435.177,397.897,460,366.583,460,332.688V227.655
		C460,193.761,435.177,162.446,390.104,139.48z M381.023,403.044c-40.173,20.47-93.808,31.743-151.023,31.743
		s-110.851-11.273-151.023-31.743C40.945,383.666,20,358.68,20,332.688v-54.49c6.922,8.214,15.595,16.021,25.951,23.309
		c4.519,3.178,10.756,2.093,13.934-2.424c0.211-0.3,0.4-0.608,0.574-0.922c2.442-4.411,1.219-10.044-2.998-13.012
		C40.371,273.125,20,253.39,20,227.655c0-25.991,20.945-50.977,58.977-70.355c14.457-7.366,30.664-13.534,48.147-18.421v9.716
		c-4.156,1.624-8.172,3.354-12.032,5.188c-33.23,15.781-51.53,37.647-51.53,61.568s18.3,45.786,51.53,61.567
		c30.859,14.656,71.669,22.728,114.908,22.728s84.048-8.071,114.908-22.728c33.229-15.781,51.529-37.646,51.529-61.567
		s-18.3-45.787-51.529-61.568c-3.86-1.833-7.876-3.563-12.032-5.188v-9.716c17.483,4.887,33.691,11.055,48.147,18.421
		C419.055,176.679,440,201.664,440,227.655s-20.945,50.977-58.977,70.355c-40.173,20.469-93.808,31.742-151.023,31.742
		c-51.011,0-100.322-9.239-138.852-26.017c-4.772-2.08-10.28-0.136-12.743,4.336c-0.15,0.271-0.291,0.55-0.417,0.84
		c-2.205,5.063,0.112,10.956,5.176,13.161c40.991,17.85,93.139,27.68,146.836,27.68c60.313,0,117.172-12.047,160.104-33.923
		c21.333-10.869,38.121-23.611,49.896-37.608v54.467C440,358.68,419.055,383.666,381.023,403.044z M176.314,91.842
		c5.346,1.386,10.805-1.817,12.194-7.163c0.085-0.326,0.151-0.653,0.202-0.979c0.786-5.018-2.346-9.91-7.365-11.215
		c-25.108-6.525-34.222-16.001-34.222-20.778c0-4.132,6.45-10.835,20.859-16.497c16.405-6.446,38.43-9.996,62.017-9.996
		s45.611,3.55,62.017,9.996c14.409,5.662,20.859,12.365,20.859,16.497s-6.45,10.835-20.859,16.497
		c-16.405,6.446-38.43,9.996-62.017,9.996c-5.03,0-10.094-0.169-15.051-0.501c-5.213-0.363-9.761,3.367-10.544,8.442
		c-0.044,0.286-0.083,0.573-0.102,0.867c-0.37,5.51,3.798,10.277,9.309,10.646c5.399,0.362,10.914,0.546,16.389,0.546
		c26.029,0,50.651-4.042,69.33-11.382c5.059-1.987,9.578-4.194,13.546-6.587v122.815c0,4.132-6.45,10.835-20.859,16.497
		c-16.405,6.446-38.43,9.996-62.017,9.996s-45.611-3.55-62.017-9.996c-14.409-5.662-20.859-12.365-20.859-16.497V80.22
		C154.838,84.869,164.647,88.809,176.314,91.842z M336.328,258.852c-28.234,13.409-65.995,20.794-106.328,20.794
		s-78.095-7.385-106.329-20.794c-25.49-12.105-40.109-27.961-40.109-43.501s14.619-31.396,40.109-43.502
		c1.128-0.536,2.295-1.045,3.453-1.561v32.758c0,14.143,11.913,26.612,33.546,35.111c18.679,7.34,43.301,11.382,69.33,11.382
		s50.651-4.042,69.33-11.382c21.633-8.499,33.546-20.969,33.546-35.111v-32.758c1.157,0.516,2.325,1.026,3.452,1.561
		c25.49,12.105,40.109,27.962,40.109,43.502S361.818,246.746,336.328,258.852z"/>
	<path style="fill:#666666;" d="M336.328,171.849c-1.127-0.535-2.295-1.045-3.452-1.561v32.758
		c0,14.143-11.913,26.612-33.546,35.111c-18.679,7.34-43.301,11.382-69.33,11.382s-50.651-4.042-69.33-11.382
		c-21.633-8.499-33.546-20.969-33.546-35.111v-32.758c-1.158,0.516-2.325,1.025-3.453,1.561
		c-25.49,12.105-40.109,27.962-40.109,43.502s14.619,31.396,40.109,43.501c28.234,13.409,65.996,20.794,106.329,20.794
		s78.094-7.385,106.328-20.794c25.49-12.105,40.109-27.961,40.109-43.501S361.818,183.954,336.328,171.849z"/>
	<path style="fill:#FF0000;" d="M147.124,203.046c0,4.132,6.45,10.835,20.859,16.497c16.405,6.446,38.43,9.996,62.017,9.996
		s45.611-3.55,62.017-9.996c14.409-5.662,20.859-12.365,20.859-16.497V80.23c-3.968,2.393-8.487,4.6-13.546,6.587
		c-18.679,7.34-43.301,11.382-69.33,11.382c-5.475,0-10.989-0.184-16.389-0.546c-5.511-0.369-9.679-5.137-9.309-10.646
		c0.02-0.293,0.058-0.581,0.102-0.867l-15.694-2.441c-0.051,0.326-0.118,0.653-0.202,0.979c-1.39,5.346-6.849,8.549-12.194,7.163
		c-11.668-3.033-21.476-6.973-29.19-11.622V203.046z"/>
	<path style="fill:#FF8080;" d="M214.949,77.698c4.957,0.332,10.021,0.501,15.051,0.501c23.587,0,45.611-3.55,62.017-9.996
		c14.409-5.662,20.859-12.365,20.859-16.497s-6.45-10.835-20.859-16.497c-16.405-6.446-38.43-9.996-62.017-9.996
		s-45.611,3.55-62.017,9.996c-14.409,5.662-20.859,12.365-20.859,16.497c0,4.777,9.113,14.253,34.222,20.778
		c5.019,1.305,8.151,6.197,7.365,11.215l15.694,2.441C205.188,81.065,209.736,77.335,214.949,77.698z"/>
</g>
<g>
</g>
<g>
</g>
<g>
</g>
<g>
</g>
<g>
</g>
<g>
</g>
<g>
</g>
<g>
</g>
<g>
</g>
<g>
</g>
<g>
</g>
<g>
</g>
<g>
</g>
<g>
</g>
<g>
</g>
</svg>
