<?xml version="1.0" encoding="iso-8859-1"?>
<!-- Generator: Adobe Illustrator 17.1.0, SVG Export Plug-In . SVG Version: 6.00 Build 0)  -->
<!DOCTYPE svg PUBLIC "-//W3C//DTD SVG 1.1//EN" "http://www.w3.org/Graphics/SVG/1.1/DTD/svg11.dtd">
<svg version="1.1" id="Capa_1" xmlns="http://www.w3.org/2000/svg" xmlns:xlink="http://www.w3.org/1999/xlink" x="0px" y="0px"
	 viewBox="0 0 460 460" style="enable-background:new 0 0 460 460;" xml:space="preserve">
<g>
	<path style="fill:#DE021B;" d="M147.041,328.605c-26.702,15.884-54.486,30.322-82.861,43.063l11.582,11.582l5.38,5.38
		c5.711-2.498,11.392-5.087,17.053-7.724c-1.041-3.42-0.213-7.286,2.492-9.991c3.905-3.904,10.237-3.904,14.142,0l1.343,1.343
		c5.414-2.688,10.801-5.433,16.151-8.243c-1.332-3.558-0.576-7.72,2.286-10.581c3.906-3.904,10.238-3.903,14.142,0l1.087,1.087
		c4.938-2.754,9.855-5.54,14.724-8.394L147.041,328.605z"/>
	<path style="fill:#E5E5E5;" d="M438.513,112.398L418.18,66.181c-64.815,101.14-151.999,187.687-253.595,251.685l17.909,17.909
		C282.2,280.845,370.496,203.81,438.513,112.398z"/>
	<path d="M459.153,109.648l-30.284-68.835c-1.501-3.411-4.775-5.705-8.494-5.951c-3.721-0.242-7.267,1.598-9.203,4.782
		c-64.912,106.739-155.093,197.762-261.113,263.694l-7.253-7.253c-3.904-3.904-10.237-3.904-14.142,0
		c-3.905,3.905-3.905,10.237,0,14.143l3.771,3.771c-28.834,16.9-58.92,32.079-89.608,45.189
		c-11.979,5.118-24.191,9.984-36.297,14.466c-3.196,1.183-5.569,3.911-6.297,7.24c-0.729,3.328,0.288,6.799,2.697,9.209
		l32.126,32.127c1.909,1.909,4.466,2.929,7.073,2.929c1.164,0,2.338-0.203,3.469-0.622c12.419-4.596,24.94-9.586,37.214-14.831
		c0.04-0.017,0.076-0.04,0.115-0.058c11.773-5.032,23.453-10.364,35.013-15.967c0.375-0.151,0.74-0.335,1.098-0.534
		c11.292-5.493,22.465-11.249,33.484-17.252c0.209-0.104,0.414-0.217,0.617-0.335c8.778-4.791,17.46-9.736,26.026-14.832
		l7.326,7.326c1.953,1.952,4.512,2.929,7.071,2.929s5.119-0.977,7.071-2.929c3.905-3.905,3.905-10.237,0-14.143l-3.438-3.438
		c49.047-27.469,95.368-60.072,137.842-97.063c45.795-39.883,87.188-84.908,123.03-133.826
		C460.177,116.705,460.591,112.918,459.153,109.648z M44.444,380.216l16.804,16.804c-5.522,2.239-11.067,4.415-16.603,6.517
		l-16.659-16.659C33.488,384.72,38.984,382.495,44.444,380.216z M149.839,354.52l-1.087-1.087c-3.904-3.903-10.236-3.904-14.142,0
		c-2.862,2.861-3.617,7.023-2.286,10.581c-5.35,2.811-10.737,5.555-16.151,8.243l-1.343-1.343c-3.905-3.904-10.237-3.904-14.142,0
		c-2.704,2.705-3.532,6.571-2.492,9.991c-5.661,2.637-11.342,5.226-17.053,7.724l-5.38-5.38L64.18,371.668
		c28.374-12.74,56.158-27.179,82.861-43.063l17.522,17.521C159.694,348.98,154.777,351.766,149.839,354.52z M182.494,335.774
		l-17.909-17.909C266.181,253.867,353.365,167.32,418.18,66.181l20.333,46.218C370.496,203.81,282.2,280.845,182.494,335.774z"/>
	<path style="fill:#A66C07;" d="M61.248,397.019l-16.804-16.804c-5.46,2.279-10.956,4.504-16.457,6.661l16.659,16.659
		C50.181,401.434,55.726,399.259,61.248,397.019z"/>
</g>
<g>
</g>
<g>
</g>
<g>
</g>
<g>
</g>
<g>
</g>
<g>
</g>
<g>
</g>
<g>
</g>
<g>
</g>
<g>
</g>
<g>
</g>
<g>
</g>
<g>
</g>
<g>
</g>
<g>
</g>
</svg>
