<?xml version="1.0" encoding="iso-8859-1"?>
<!-- Generator: Adobe Illustrator 17.1.0, SVG Export Plug-In . SVG Version: 6.00 Build 0)  -->
<!DOCTYPE svg PUBLIC "-//W3C//DTD SVG 1.1//EN" "http://www.w3.org/Graphics/SVG/1.1/DTD/svg11.dtd">
<svg version="1.1" id="Capa_1" xmlns="http://www.w3.org/2000/svg" xmlns:xlink="http://www.w3.org/1999/xlink" x="0px" y="0px"
	 viewBox="0 0 460.032 460.032" style="enable-background:new 0 0 460.032 460.032;" xml:space="preserve">
<g>
	<path d="M426.146,165.859c-2.808,0-5.448,1.094-7.425,3.071c-1.991,1.986-3.088,4.629-3.088,7.442c0,2.813,1.097,5.455,3.079,7.434
		c1.986,1.985,4.626,3.079,7.434,3.079s5.448-1.094,7.425-3.071c1.991-1.986,3.088-4.629,3.088-7.441
		c0-2.813-1.097-5.456-3.079-7.435C431.594,166.952,428.954,165.859,426.146,165.859z"/>
	<path d="M447.554,142.709c-2.804,0-5.441,1.091-7.435,3.079c-4.099,4.1-4.099,10.769-0.009,14.859
		c1.987,1.991,4.63,3.088,7.443,3.088c2.817,0,5.463-1.1,7.425-3.071c1.991-1.986,3.088-4.629,3.088-7.441
		c0-2.813-1.097-5.456-3.079-7.435C453.002,143.803,450.362,142.709,447.554,142.709z"/>
	<path d="M449.518,133.057c2.808,0,5.448-1.094,7.425-3.071c1.991-1.986,3.088-4.629,3.088-7.441c0-2.813-1.097-5.456-3.062-7.417
		c-1.988-1.997-4.634-3.097-7.451-3.097c-2.813,0-5.457,1.097-7.435,3.079c-4.099,4.1-4.099,10.769,0.009,14.876
		C444.078,131.966,446.715,133.057,449.518,133.057z"/>
	<path d="M383.317,64.857c2.804,0,5.441-1.091,7.452-3.097c4.07-4.09,4.07-10.744-0.026-14.86c-1.985-1.979-4.622-3.07-7.426-3.07
		c-2.803,0-5.44,1.091-7.451,3.097c-4.07,4.09-4.07,10.744,0.026,14.859C377.877,63.766,380.514,64.857,383.317,64.857z"/>
	<path d="M405.705,87.243c2.808,0,5.448-1.094,7.425-3.071c1.991-1.986,3.088-4.629,3.088-7.441c0-2.813-1.097-5.456-3.062-7.417
		c-1.988-1.997-4.634-3.097-7.451-3.097c-2.813,0-5.457,1.097-7.435,3.079c-4.099,4.1-4.099,10.769,0.009,14.876
		C400.264,86.153,402.901,87.243,405.705,87.243z"/>
	<path d="M428.094,109.633c2.808,0,5.448-1.094,7.425-3.071c1.991-1.986,3.088-4.629,3.088-7.441c0-2.813-1.097-5.456-3.062-7.417
		c-1.988-1.997-4.634-3.097-7.451-3.097c-2.813,0-5.457,1.097-7.435,3.079c-4.099,4.1-4.099,10.769,0.009,14.876
		C422.653,108.542,425.29,109.633,428.094,109.633z"/>
	<path d="M283.676,44.415c2.808,0,5.448-1.094,7.443-3.088c4.084-4.095,4.084-10.757-0.009-14.86
		c-1.986-1.985-4.626-3.079-7.434-3.079c-2.804,0-5.441,1.091-7.452,3.097c-4.07,4.09-4.07,10.744,0.026,14.859
		C278.235,43.324,280.872,44.415,283.676,44.415z"/>
	<path d="M306.825,23.007c2.813,0,5.456-1.097,7.434-3.079c4.099-4.1,4.099-10.769-0.009-14.876
		c-1.985-1.98-4.622-3.071-7.425-3.071c-2.804,0-5.441,1.091-7.426,3.071c-1.991,1.986-3.088,4.629-3.088,7.442
		c0,2.813,1.097,5.455,3.071,7.425C301.369,21.91,304.012,23.007,306.825,23.007z"/>
	<path d="M337.504,21.042c2.813,0,5.456-1.097,7.434-3.079c4.099-4.1,4.099-10.769-0.009-14.876
		c-1.985-1.98-4.622-3.071-7.425-3.071c-2.804,0-5.441,1.091-7.426,3.071c-1.991,1.986-3.088,4.629-3.088,7.442
		c0,2.813,1.097,5.455,3.071,7.425C332.048,19.946,334.691,21.042,337.504,21.042z"/>
	<path d="M360.928,42.467c2.803,0,5.44-1.091,7.451-3.097c4.07-4.09,4.07-10.744-0.026-14.859c-1.985-1.98-4.622-3.071-7.425-3.071
		c-2.804,0-5.441,1.091-7.443,3.088c-4.084,4.095-4.084,10.757,0.018,14.869C355.487,41.376,358.124,42.467,360.928,42.467z"/>
	<path style="fill:#CAA76A;" d="M309.446,262.748L165.882,406.312c-3.939,3.938-4.622,9.108-2.03,15.367
		c4.116,9.938,15.012,18.337,23.793,18.337c0,0,0.001,0,0.001,0c3.238,0,5.977-1.165,8.375-3.563l143.564-143.563L309.446,262.748z"
		/>
	<path style="fill:#E5E5E5;" d="M232.481,70.384l0.189,0.188c3.905,3.905,3.905,10.237,0,14.143
		c-1.953,1.952-4.512,2.929-7.071,2.929s-5.119-0.977-7.071-2.929l-7.26-7.26c-0.002-0.002-0.003-0.004-0.005-0.005l-0.547-0.547
		l-29.415,29.415l30.141,30.141l29.415-29.414l-0.552-0.552c-3.905-3.905-3.905-10.237,0-14.143l21.491-21.49l-14.896-14.896
		L232.481,70.384z"/>
	<path d="M218.514,157.673l43.557-43.557c3.905-3.905,3.906-10.237,0-14.143l-0.552-0.552l21.491-21.49
		c1.875-1.876,2.929-4.419,2.929-7.071s-1.054-5.195-2.929-7.071l-29.038-29.038c-3.905-3.903-10.237-3.904-14.142,0l-21.491,21.491
		l-0.552-0.552c-3.905-3.904-10.237-3.904-14.142,0l-43.558,43.557L9.453,249.883c-9.777,9.776-12.097,23.321-6.366,37.16
		c7.244,17.492,25.417,30.685,42.271,30.687c0.001,0,0.003,0,0.004,0c8.567,0,16.353-3.258,22.516-9.421l150.631-150.631
		C218.51,157.676,218.512,157.675,218.514,157.673z M45.362,297.73c0,0-0.001,0-0.002,0c-8.782-0.001-19.678-8.399-23.795-18.339
		c-2.591-6.258-1.908-11.427,2.03-15.365l143.564-143.564l30.141,30.141L53.736,294.166C51.338,296.565,48.599,297.73,45.362,297.73
		z M240.306,92.351c-3.905,3.905-3.906,10.237,0,14.143l0.552,0.552l-29.415,29.414l-30.141-30.141l29.415-29.415l0.547,0.547
		c0.002,0.001,0.003,0.003,0.005,0.005l7.26,7.26c1.953,1.952,4.512,2.929,7.071,2.929s5.119-0.977,7.071-2.929
		c3.905-3.905,3.905-10.237,0-14.143l-0.189-0.188l14.42-14.42l14.896,14.896L240.306,92.351z"/>
	<path style="fill:#CAA76A;" d="M197.3,150.602l-30.141-30.141L23.595,264.026c-3.938,3.938-4.622,9.107-2.03,15.365
		c4.117,9.939,15.013,18.338,23.795,18.339c0,0,0.001,0,0.001,0c3.238,0,5.977-1.165,8.375-3.563L197.3,150.602z"/>
	<path style="fill:#E5E5E5;" d="M367.697,219.742c-1.875,1.875-4.419,2.929-7.071,2.929c-2.652,0-5.196-1.054-7.071-2.929
		l-0.551-0.552l-29.415,29.415l30.141,30.141l29.415-29.415l-0.551-0.551c-0.003-0.003-0.006-0.007-0.009-0.011l-7.25-7.249
		c-3.905-3.905-3.906-10.236,0-14.143c3.905-3.904,10.237-3.904,14.142,0l0.188,0.188l14.42-14.42l-14.896-14.896L367.697,219.742z"
		/>
	<path d="M396.259,177.037c-1.875-1.875-4.419-2.929-7.071-2.929s-5.196,1.054-7.071,2.929l-21.491,21.491l-0.551-0.552
		c-1.875-1.875-4.419-2.929-7.071-2.929s-5.196,1.054-7.071,2.929l-43.557,43.558L151.74,392.169
		c-9.777,9.777-12.097,23.322-6.365,37.162c7.244,17.491,25.416,30.684,42.269,30.685c0.002,0,0.002,0,0.004,0
		c8.567,0,16.354-3.258,22.517-9.421L360.8,299.96l43.557-43.558c1.875-1.876,2.929-4.419,2.929-7.071s-1.054-5.196-2.929-7.071
		l-0.551-0.551l21.491-21.491c3.905-3.905,3.905-10.237,0-14.143L396.259,177.037z M187.647,440.016c0,0-0.001,0-0.001,0
		c-8.781,0-19.677-8.398-23.793-18.337c-2.592-6.259-1.909-11.429,2.03-15.367l143.563-143.563l30.141,30.141L196.022,436.452
		C193.624,438.851,190.885,440.016,187.647,440.016z M389.664,227.567l-0.188-0.188c-3.905-3.904-10.237-3.904-14.142,0
		c-3.905,3.906-3.905,10.237,0,14.143l7.25,7.249c0.003,0.004,0.006,0.008,0.009,0.011l0.551,0.551l-29.415,29.415l-30.141-30.141
		l29.415-29.415l0.551,0.552c1.875,1.875,4.419,2.929,7.071,2.929c2.652,0,5.196-1.054,7.071-2.929l21.491-21.491l14.896,14.896
		L389.664,227.567z"/>
</g>
<g>
</g>
<g>
</g>
<g>
</g>
<g>
</g>
<g>
</g>
<g>
</g>
<g>
</g>
<g>
</g>
<g>
</g>
<g>
</g>
<g>
</g>
<g>
</g>
<g>
</g>
<g>
</g>
<g>
</g>
</svg>
