<?xml version="1.0" encoding="iso-8859-1"?>
<!-- Generator: Adobe Illustrator 17.1.0, SVG Export Plug-In . SVG Version: 6.00 Build 0)  -->
<!DOCTYPE svg PUBLIC "-//W3C//DTD SVG 1.1//EN" "http://www.w3.org/Graphics/SVG/1.1/DTD/svg11.dtd">
<svg version="1.1" id="Capa_1" xmlns="http://www.w3.org/2000/svg" xmlns:xlink="http://www.w3.org/1999/xlink" x="0px" y="0px"
	 viewBox="0 0 460.037 460.037" style="enable-background:new 0 0 460.037 460.037;" xml:space="preserve">
<g>
	<path style="fill:#CAA76A;" d="M129.057,305.767L22.025,412.798c-0.884,0.883-3.572,3.571-0.77,10.338
		c3.658,8.835,13.71,16.882,21.089,16.883c0,0,0.001,0,0.002,0c1.998,0,3.507-0.618,4.894-2.005l107.032-107.032L129.057,305.767z"
		/>
	<path style="fill:#CAA76A;" d="M417.495,20.019c-1.861,0-3.255,0.563-4.52,1.829L304.566,130.257l25.216,25.216L438.191,47.063
		c0.821-0.821,3.32-3.319,0.605-9.874C435.14,28.363,424.788,20.019,417.495,20.019z"/>
	<path d="M457.274,29.536c-6.01-14.51-22.533-29.518-39.779-29.518c-7.18,0-13.633,2.658-18.662,7.687L289.91,116.628
		c-1.229-0.524-2.56-0.807-3.922-0.807c-2.652,0-5.195,1.054-7.071,2.929L117.55,280.117c-1.875,1.876-2.929,4.419-2.929,7.071
		c0,1.362,0.282,2.693,0.806,3.922L7.883,398.655c-8.274,8.274-10.135,19.986-5.105,32.133c5.95,14.366,22.375,29.228,39.564,29.23
		c0.002,0,0.003,0,0.005,0c7.309,0,13.892-2.719,19.036-7.862L169.43,344.109c0.795,0.197,1.607,0.308,2.421,0.308
		c2.559,0,5.119-0.977,7.071-2.929l122.007-122.007l0.001-0.001c0,0,0.001-0.001,0.001-0.001l39.358-39.357
		c1.875-1.876,2.929-4.419,2.929-7.071c0-0.823-0.113-1.634-0.309-2.419L452.333,61.206
		C460.449,53.091,462.249,41.548,457.274,29.536z M42.347,440.019c0,0-0.001,0-0.001,0c-7.379-0.001-17.431-8.048-21.089-16.883
		c-2.802-6.767-0.114-9.455,0.77-10.338l107.031-107.031l25.216,25.215L47.241,438.014C45.854,439.4,44.345,440.019,42.347,440.019z
		 M319.075,173.051l-25.216,25.216l-33.087-33.087l25.215-25.216L319.075,173.051z M138.763,287.189l25.216-25.216l33.087,33.087
		l-25.215,25.216L138.763,287.189z M272.006,220.12h-66.174l40.798-40.798l33.087,33.087L272.006,220.12z M185.831,240.12h66.174
		l-40.797,40.797l-33.087-33.087L185.831,240.12z M438.191,47.063L329.782,155.473l-25.216-25.216L412.975,21.848
		c1.265-1.266,2.658-1.829,4.52-1.829c7.293,0,17.646,8.345,21.302,17.171C441.511,43.744,439.012,46.242,438.191,47.063z"/>
	<polygon style="fill:#FFFFFF;" points="246.63,179.322 205.831,220.12 272.006,220.12 279.716,212.409 	"/>
	
		<rect x="272.093" y="145.719" transform="matrix(0.7071 -0.7071 0.7071 0.7071 -34.6651 254.5426)" style="fill:#FFFFFF;" width="35.66" height="46.792"/>
	<polygon style="fill:#FFFFFF;" points="211.208,280.917 252.006,240.12 185.831,240.12 178.121,247.83 	"/>
	
		<rect x="144.518" y="273.294" transform="matrix(0.7071 0.7071 -0.7071 0.7071 255.0368 -33.4652)" style="fill:#FFFFFF;" width="46.792" height="35.661"/>
</g>
<g>
</g>
<g>
</g>
<g>
</g>
<g>
</g>
<g>
</g>
<g>
</g>
<g>
</g>
<g>
</g>
<g>
</g>
<g>
</g>
<g>
</g>
<g>
</g>
<g>
</g>
<g>
</g>
<g>
</g>
</svg>
