<?xml version="1.0" encoding="iso-8859-1"?>
<!-- Generator: Adobe Illustrator 17.1.0, SVG Export Plug-In . SVG Version: 6.00 Build 0)  -->
<!DOCTYPE svg PUBLIC "-//W3C//DTD SVG 1.1//EN" "http://www.w3.org/Graphics/SVG/1.1/DTD/svg11.dtd">
<svg version="1.1" id="Capa_1" xmlns="http://www.w3.org/2000/svg" xmlns:xlink="http://www.w3.org/1999/xlink" x="0px" y="0px"
	 viewBox="0 0 470.199 470.199" style="enable-background:new 0 0 470.199 470.199;" xml:space="preserve">
<g>
	<path style="fill:#DE021B;" d="M136.48,381.427h-0.305c-5.522,0-10-4.478-10-10c0-5.417,4.311-9.818,9.688-9.984l-0.637-20.63
		h-0.304c-5.522,0-10-4.478-10-10c0-5.416,4.31-9.816,9.686-9.984l-0.637-20.629h-23.915l-3.146,101.842h30.208L136.48,381.427z"/>
	<path style="fill:#A66C07;" d="M105.48,448.271c2.929,0.895,8.547,1.929,16.533,1.929c7.985,0,13.604-1.034,16.532-1.929
		l-0.811-26.229h-31.444L105.48,448.271z"/>
	<polygon style="fill:#E5E5E5;" points="133.445,280.199 128.268,42.629 122.013,31.046 115.758,42.629 110.58,280.199 	"/>
	<path d="M209.926,187.285c-5.522,0-10,4.478-10,10v52.914c0,16.542-13.458,30-30,30h-16.475l-5.24-240.417
		c-0.035-1.585-0.445-3.139-1.199-4.534l-16.2-30C129.065,2.016,125.688,0,122.013,0s-7.053,2.016-8.799,5.248l-16.2,30
		c-0.754,1.396-1.164,2.949-1.199,4.534l-5.24,240.417H74.1c-16.542,0-30-13.458-30-30v-52.914c0-5.522-4.478-10-10-10
		s-10,4.478-10,10v52.914c0,27.57,22.43,50,50,50h15.946l-3.445,111.533l-1.236,40c-0.003,0.103-0.005,0.206-0.005,0.309
		c0,11.709,13.018,18.158,36.654,18.158c23.636,0,36.653-6.449,36.653-18.158c0-0.103-0.002-0.206-0.005-0.309l-1.236-40
		l-3.445-111.533h15.945c27.57,0,50-22.43,50-50v-52.914C219.926,191.763,215.448,187.285,209.926,187.285z M138.546,448.271
		c-2.929,0.895-8.547,1.929-16.532,1.929c-7.986,0-13.604-1.034-16.533-1.929l0.811-26.229h31.444L138.546,448.271z M122.013,31.046
		l6.255,11.583l5.178,237.57H110.58l5.178-237.57L122.013,31.046z M110.056,300.199h23.915l0.637,20.629
		c-5.376,0.168-9.686,4.568-9.686,9.984c0,5.522,4.478,10,10,10h0.304l0.637,20.63c-5.377,0.166-9.688,4.567-9.688,9.984
		c0,5.522,4.478,10,10,10h0.305l0.637,20.614h-30.208L110.056,300.199z"/>
	<path style="fill:#DE021B;" d="M333.719,88.772h0.305c5.522,0,10,4.478,10,10c0,5.417-4.311,9.818-9.688,9.984l0.637,20.63h0.304
		c5.522,0,10,4.478,10,10c0,5.416-4.31,9.816-9.686,9.984L336.229,170h23.915l3.146-101.842h-30.208L333.719,88.772z"/>
	<path style="fill:#A66C07;" d="M364.719,21.929c-2.929-0.895-8.547-1.928-16.532-1.928c-7.986,0-13.604,1.033-16.533,1.928
		l0.811,26.229h31.444L364.719,21.929z"/>
	<polygon style="fill:#E5E5E5;" points="336.754,190 341.932,427.57 348.187,439.153 354.441,427.57 359.619,190 	"/>
	<path d="M396.1,170h-15.946l3.445-111.533l1.236-40c0.003-0.103,0.005-0.206,0.005-0.309c0-11.709-13.018-18.157-36.653-18.157
		c-23.637,0-36.654,6.448-36.654,18.157c0,0.103,0.002,0.206,0.005,0.309l1.236,40L316.219,170h-15.945c-27.57,0-50,22.43-50,50
		v52.914c0,5.522,4.478,10,10,10s10-4.478,10-10V220c0-16.542,13.458-30,30-30h16.475l5.24,240.417
		c0.035,1.585,0.445,3.139,1.199,4.534l16.2,30c1.746,3.232,5.124,5.248,8.799,5.248s7.053-2.016,8.799-5.248l16.2-30
		c0.754-1.396,1.164-2.949,1.199-4.534L379.625,190H396.1c16.542,0,30,13.458,30,30v52.914c0,5.522,4.478,10,10,10s10-4.478,10-10
		V220C446.1,192.43,423.67,170,396.1,170z M348.187,439.153l-6.255-11.583L336.754,190h22.865l-5.178,237.57L348.187,439.153z
		 M331.653,21.929c2.929-0.895,8.547-1.928,16.533-1.928c7.985,0,13.604,1.033,16.532,1.928l-0.811,26.229h-31.444L331.653,21.929z
		 M360.144,170h-23.915l-0.637-20.629c5.376-0.168,9.686-4.568,9.686-9.984c0-5.522-4.478-10-10-10h-0.304l-0.637-20.63
		c5.377-0.166,9.688-4.567,9.688-9.984c0-5.522-4.478-10-10-10h-0.305l-0.637-20.614h30.208L360.144,170z"/>
</g>
<g>
</g>
<g>
</g>
<g>
</g>
<g>
</g>
<g>
</g>
<g>
</g>
<g>
</g>
<g>
</g>
<g>
</g>
<g>
</g>
<g>
</g>
<g>
</g>
<g>
</g>
<g>
</g>
<g>
</g>
</svg>
