<?xml version="1.0" encoding="iso-8859-1"?>
<!-- Generator: Adobe Illustrator 17.1.0, SVG Export Plug-In . SVG Version: 6.00 Build 0)  -->
<!DOCTYPE svg PUBLIC "-//W3C//DTD SVG 1.1//EN" "http://www.w3.org/Graphics/SVG/1.1/DTD/svg11.dtd">
<svg version="1.1" id="Capa_1" xmlns="http://www.w3.org/2000/svg" xmlns:xlink="http://www.w3.org/1999/xlink" x="0px" y="0px"
	 viewBox="0 0 460 460" style="enable-background:new 0 0 460 460;" xml:space="preserve">
<g>
	<path style="fill:#E5E5E5;" d="M22.374,148.591h7.416v-29.068h-7.416C21.364,121.674,20,126.63,20,134.057
		S21.364,146.439,22.374,148.591z"/>
	<polygon style="fill:#E5E5E5;" points="216.249,198.031 108.672,198.031 108.672,217.286 128.112,217.286 186.994,217.286 
		216.249,217.286 	"/>
	<rect x="108.672" y="119.522" style="fill:#E5E5E5;" width="107.577" height="29.068"/>
	<rect x="295.131" y="198.031" style="fill:#E5E5E5;" width="62.435" height="19.255"/>
	<rect x="295.131" y="119.522" style="fill:#E5E5E5;" width="144.869" height="29.068"/>
	<path d="M450,99.522H295.112c-0.201-10.855-9.078-19.628-19.981-19.628h-38.882c-10.903,0-19.78,8.772-19.981,19.628H108.653
		c-0.201-10.855-9.078-19.628-19.981-19.628H49.79c-10.903,0-19.78,8.772-19.981,19.628h-9.647c-3.54,0-12.283,1.385-17.006,14.212
		C1.121,119.263,0,126.479,0,134.057c0,21.302,7.726,34.534,20.162,34.534h9.628v68.322c0,11.028,8.972,20,20,20h38.882
		c10.902,0,19.779-8.771,19.981-19.627h8.959c-3.044,30.555-19.953,57.795-46.538,74.197c-2.257,1.393-3.868,3.625-4.479,6.206
		s-0.173,5.299,1.22,7.556l30.919,50.111c1.393,2.257,3.625,3.868,6.206,4.479c0.762,0.181,1.534,0.27,2.305,0.27
		c1.84,0,3.66-0.508,5.251-1.489c25.322-15.625,46.496-37.538,61.231-63.37c13.574-23.794,21.423-50.559,22.968-77.96h19.555v58.509
		c0,11.028,8.972,20,20,20h38.882c11.028,0,20-8.972,20-20v-58.509h72.435c5.522,0,10-4.478,10-10v-39.255c0-5.522-4.478-10-10-10
		h-72.435v-9.44H450c5.522,0,10-4.478,10-10v-49.068C460,104,455.522,99.522,450,99.522z M357.565,217.286h-62.435v-19.255h62.435
		V217.286z M110.336,356.072l-20.464-33.167c27.71-20.411,45.001-51.364,47.829-85.619h38.976
		c-1.518,23.928-8.466,47.268-20.322,68.05C144.927,325.37,129.134,342.75,110.336,356.072z M29.79,119.522v29.068h-7.416
		c-1.01-2.151-2.374-7.107-2.374-14.534s1.364-12.383,2.374-14.534H29.79z M275.133,295.795h-38.884v-68.509v-9.628h38.883
		L275.133,295.795z M88.674,236.913H49.79v-78.322v-49.068v-9.628h38.882l0.001,58.68c0,0.006-0.001,0.011-0.001,0.017v29.44
		c0,0.009,0.001,0.017,0.001,0.025L88.674,236.913z M236.249,109.336v-9.441h38.882v9.441H236.249z M275.131,129.336l0,9.44h-38.882
		v-9.44H275.131z M275.132,197.658h-38.883v-9.44h38.883V197.658z M108.672,168.591h107.577v9.44H108.672V168.591z M236.249,168.218
		v-9.441h38.882l0,9.441H236.249z M216.249,148.591H108.672v-29.068h107.577V148.591z M186.994,217.286h-58.882h-19.44v-19.255
		h107.577v19.255H186.994z M440,148.591H295.131v-29.068H440V148.591z"/>
	<g>
		<path style="fill:#E5E5E5;" d="M246.249,158.776c-5.5,0-10,2.124-10,4.721s4.5,4.721,10,4.721h18.883c5.5,0,10-2.124,10-4.721
			s-4.5-4.721-10-4.721H246.249z"/>
	</g>
	<g>
		<path style="fill:#E5E5E5;" d="M265.131,138.776c5.5,0,10-2.124,10-4.72s-4.5-4.72-10-4.72h-18.882c-5.5,0-10,2.124-10,4.72
			s4.5,4.72,10,4.72H265.131z"/>
	</g>
	<g>
		<path style="fill:#E5E5E5;" d="M246.249,99.895c-5.5,0-10,2.124-10,4.721s4.5,4.721,10,4.721h18.882c5.5,0,10-2.124,10-4.721
			s-4.5-4.721-10-4.721H246.249z"/>
	</g>
	<g>
		<path style="fill:#E5E5E5;" d="M246.249,188.218c-5.5,0-10,2.124-10,4.72s4.5,4.72,10,4.72h18.883c5.5,0,10-2.124,10-4.72
			s-4.5-4.72-10-4.72H246.249z"/>
	</g>
	<g>
		<path style="fill:#E5E5E5;" d="M246.249,217.658c-5.5,0-10,2.166-10,4.814s0,9.314,0,14.814v48.509c0,5.5,4.5,10,10,10h18.884
			c5.5,0,10-4.5,10-10l-0.001-58.137c0-5.5-4.5-10-10-10H246.249z"/>
	</g>
	<g>
		<path style="fill:#E5E5E5;" d="M88.672,188.04c0-0.005-0.001-4.508-0.001-10.008v-9.44c0-5.5,0-10.002,0-10.002
			c0.001-0.006,0.001-4.514,0.001-10.014l-0.001-38.68c0-5.5-4.5-10-10-10H59.79c-5.5,0-10,2.166-10,4.814s0,9.314,0,14.814v29.068
			c0,5.5,0,14.5,0,20v58.322c0,5.5,4.5,10,10,10h18.884c5.5,0,10-4.5,10-10l0-28.856C88.673,192.557,88.673,188.044,88.672,188.04z"
			/>
	</g>
	<path style="fill:#E5E5E5;" d="M176.677,237.286h-38.976c-2.828,34.255-20.119,65.208-47.829,85.619l20.464,33.167
		c18.798-13.322,34.591-30.702,46.019-50.736C168.211,284.554,175.159,261.214,176.677,237.286z"/>
	<rect x="108.672" y="168.591" style="fill:#09D6DE;" width="107.577" height="9.44"/>
</g>
<g>
</g>
<g>
</g>
<g>
</g>
<g>
</g>
<g>
</g>
<g>
</g>
<g>
</g>
<g>
</g>
<g>
</g>
<g>
</g>
<g>
</g>
<g>
</g>
<g>
</g>
<g>
</g>
<g>
</g>
</svg>
