<?xml version="1.0" encoding="iso-8859-1"?>
<!-- Generator: Adobe Illustrator 17.1.0, SVG Export Plug-In . SVG Version: 6.00 Build 0)  -->
<!DOCTYPE svg PUBLIC "-//W3C//DTD SVG 1.1//EN" "http://www.w3.org/Graphics/SVG/1.1/DTD/svg11.dtd">
<svg version="1.1" id="Capa_1" xmlns="http://www.w3.org/2000/svg" xmlns:xlink="http://www.w3.org/1999/xlink" x="0px" y="0px"
	 viewBox="0 0 460 460" style="enable-background:new 0 0 460 460;" xml:space="preserve">
<g>
	<rect x="356.891" y="163.806" style="fill:#09D6DE;" width="73.382" height="14.046"/>
	<rect x="356.891" y="129.761" style="fill:#09D6DE;" width="73.382" height="14.045"/>
	<path style="fill:#666666;" d="M24.047,225.515h5.48v-77.272h-5.48C22.161,153.703,20,167.438,20,186.879
		C20,206.32,22.161,220.055,24.047,225.515z"/>
	<polygon style="fill:#666666;" points="305.764,148.243 236.273,148.243 236.273,181.743 255.455,181.743 286.582,181.743 
		305.764,181.743 	"/>
	<path style="fill:#666666;" d="M245.455,201.743h-9.182v23.772h4.363c0.043-0.001,0.086,0,0.13,0h4.69V201.743z"/>
	<rect x="296.582" y="201.743" style="fill:#666666;" width="9.182" height="23.772"/>
	<path style="fill:#666666;" d="M73.179,312.162l13.445,13.445c17.182-14.251,29.602-32.64,36.327-53.312
		c0.066-0.303,0.135-0.605,0.229-0.903c2.674-8.401,4.377-17.071,5.116-25.877h-18.975
		C106.691,271.81,93.742,295.639,73.179,312.162z"/>
	<path style="fill:#A54FE8;" d="M157.546,245.515h-9.175c-0.457,6.372-1.352,12.687-2.678,18.909h9.153
		C156.182,258.185,157.083,251.868,157.546,245.515z"/>
	<polygon style="fill:#09D6DE;" points="138.728,225.515 167.91,225.515 185.146,225.515 185.146,148.243 49.527,148.243 
		49.527,225.515 99.819,225.515 	"/>
	<polygon style="fill:#666666;" points="325.764,235.243 336.891,235.243 336.891,187.852 336.891,128.789 325.764,128.789 
		325.764,138.243 	"/>
	<rect x="265.455" y="201.743" style="fill:#09D6DE;" width="11.127" height="72.409"/>
	<polygon style="fill:#666666;" points="216.273,235.243 216.273,138.243 216.273,128.789 205.146,128.789 205.146,138.243 
		205.146,235.243 	"/>
	<path d="M460,153.806c0-5.431-4.332-9.84-9.727-9.986v-24.059c0-5.522-4.477-10-10-10h-93.382c-0.917,0-1.8,0.134-2.643,0.364
		c-2.202-0.851-4.585-1.337-7.084-1.337h-11.673c-10.786,0-19.566,8.703-19.714,19.454h-69.518
		c-0.148-10.751-8.928-19.454-19.713-19.454h-11.673c-10.785,0-19.565,8.703-19.713,19.454H39.527H20.073
		c-13.083,0-16.211,16.992-17.389,23.389C0.953,161.031,0,173.549,0,186.879s0.953,25.848,2.684,35.247
		c1.178,6.397,4.306,23.389,17.389,23.389h19.455H89.19c-2.631,20.851-13.439,39.604-30.262,52.396l-3.346-3.347
		c-3.905-3.902-10.237-3.904-14.142,0c-3.905,3.905-3.906,10.237,0,14.143l9.213,9.214c0.001,0,0.001,0.001,0.001,0.001
		l28.042,28.043c0.324,0.323,0.67,0.61,1.025,0.881c0.082,0.063,0.164,0.123,0.248,0.183c0.742,0.529,1.54,0.946,2.375,1.25
		c0.088,0.032,0.176,0.063,0.266,0.094c0.426,0.142,0.857,0.261,1.296,0.345c0.009,0.001,0.018,0.005,0.028,0.007
		c8.928,1.665,17.896,2.488,26.809,2.488c28.167,0,55.772-8.218,79.76-24.036c26.07-17.19,45.098-41.604,54.952-70.043v17.292
		c0,10.878,8.85,19.728,19.727,19.728h11.673c10.877,0,19.727-8.85,19.727-19.728v-28.909h11.934
		c3.436,5.811,9.75,9.728,16.976,9.728h11.673c7.226,0,13.539-3.917,16.975-9.728h54.034c5.523,0,10-4.478,10-10s-4.477-10-10-10
		h-51.282v-27.663h83.382c5.523,0,10-4.478,10-10v-24.06C455.668,163.646,460,159.237,460,153.806z M356.891,177.852v-14.046h73.382
		v14.046H356.891z M205.146,128.789h11.127v9.454v97h-11.127v-97V128.789z M430.273,143.806h-73.382v-14.045h73.382V143.806z
		 M325.764,128.789h11.127v59.063v47.391h-11.127v-97V128.789z M240.636,225.515h-4.363v-23.772h9.182v23.772h-4.69
		C240.722,225.515,240.679,225.514,240.636,225.515z M286.582,181.743h-31.127h-19.182v-33.5h69.491v33.5H286.582z M49.527,148.243
		h135.619v77.272H167.91h-29.182H99.819H49.527V148.243z M145.693,264.424c1.326-6.223,2.221-12.537,2.678-18.909h9.175
		c-0.462,6.353-1.364,12.67-2.7,18.909H145.693z M128.297,245.515c-0.739,8.806-2.442,17.476-5.116,25.877
		c-0.095,0.298-0.163,0.601-0.229,0.903c-6.726,20.672-19.145,39.061-36.327,53.312l-13.445-13.445
		c20.563-16.522,33.512-40.352,36.142-66.646H128.297z M276.582,274.152h-11.127v-72.409h11.127V274.152z M296.582,201.743h9.182
		v23.772h-9.182V201.743z M29.527,148.243v77.272h-5.48C22.161,220.055,20,206.32,20,186.879c0-19.441,2.161-33.177,4.047-38.637
		H29.527z M110.021,331.216c13.215-13.495,23.32-29.377,29.887-46.792h22.796c4.512,0,8.465-3.021,9.649-7.375
		c2.808-10.323,4.555-20.893,5.231-31.534h10.313c3.436,5.811,9.749,9.728,16.975,9.728h11.673c3.301,0,6.409-0.825,9.146-2.265
		C208.164,300.194,161.618,331.585,110.021,331.216z"/>
</g>
<g>
</g>
<g>
</g>
<g>
</g>
<g>
</g>
<g>
</g>
<g>
</g>
<g>
</g>
<g>
</g>
<g>
</g>
<g>
</g>
<g>
</g>
<g>
</g>
<g>
</g>
<g>
</g>
<g>
</g>
</svg>
