<?xml version="1.0" encoding="iso-8859-1"?>
<!-- Generator: Adobe Illustrator 17.1.0, SVG Export Plug-In . SVG Version: 6.00 Build 0)  -->
<!DOCTYPE svg PUBLIC "-//W3C//DTD SVG 1.1//EN" "http://www.w3.org/Graphics/SVG/1.1/DTD/svg11.dtd">
<svg version="1.1" id="Capa_1" xmlns="http://www.w3.org/2000/svg" xmlns:xlink="http://www.w3.org/1999/xlink" x="0px" y="0px"
	 viewBox="0 0 460 460" style="enable-background:new 0 0 460 460;" xml:space="preserve">
<g>
	<path style="fill:#F8A71B;" d="M230,20C114.206,20,20,114.206,20,230s94.206,210,210,210s210-94.206,210-210S345.794,20,230,20z
		 M410.763,312.552c-8.05,17.627-25.776,29.017-45.161,29.017c-2.532,0-5.038-0.2-7.51-0.579c2.966,9.717,2.889,20.193-0.409,30.113
		c-1.741,5.242-7.402,8.079-12.644,6.335c-1.527-0.508-2.843-1.355-3.908-2.421l-10.931,10.94c1.065,1.063,1.913,2.375,2.422,3.899
		c1.75,5.238-1.077,10.903-6.315,12.653c-5.18,1.73-10.481,2.563-15.716,2.563c-12.068,0-23.772-4.441-32.849-12.481
		c-5.894,20.822-25.057,36.129-47.742,36.129c-22.682,0-41.845-15.304-47.74-36.123c-8.952,7.939-20.561,12.459-32.906,12.459
		c-9.503,0-18.767-2.726-26.79-7.883c-11.15-7.165-18.843-18.244-21.66-31.195c-1.831-8.419-1.446-16.971,1.006-24.99
		c-2.473,0.38-4.978,0.58-7.511,0.58c-19.385,0-37.111-11.39-45.161-29.017c-9.425-20.64-3.457-44.438,13.046-58.447
		c-10.377-4.618-19.015-12.709-24.234-23.116c-2.476-4.937-0.479-10.946,4.457-13.422c1.441-0.723,2.972-1.054,4.481-1.053
		l-0.002-15.468c-1.506,0.001-3.035-0.327-4.474-1.046c-4.939-2.471-6.941-8.478-4.472-13.417
		c7.491-14.98,21.777-24.86,37.786-26.993c-4.61-7.003-7.387-15.098-8.002-23.689c-0.946-13.22,3.313-26.018,11.993-36.035
		c9.431-10.884,23.105-17.126,37.518-17.126c7.329,0,14.509,1.633,21.05,4.701c-0.209-21.638,13.865-41.722,35.628-48.111
		c4.565-1.341,9.275-2.021,13.997-2.021c17.231,0,33.036,9.115,41.977,23.256c11.517-18.332,34.225-27.627,55.999-21.235
		c0.509,0.149,0.997,0.311,1.485,0.473l0.192,0.063c5.243,1.736,8.086,7.394,6.35,12.637c-0.508,1.532-1.357,2.853-2.427,3.92
		l10.939,10.937c1.063-1.064,2.374-1.912,3.898-2.421c5.238-1.757,10.903,1.078,12.652,6.316c1.761,5.27,2.608,10.724,2.553,16.181
		c6.538-3.064,13.712-4.695,21.036-4.695c14.412,0,28.087,6.242,37.518,17.126c8.68,10.018,12.939,22.815,11.993,36.035
		c-0.615,8.596-3.394,16.693-8.008,23.698c21.611,2.914,39.356,20.046,42.53,42.121c1.886,13.119-1.449,26.188-9.393,36.798
		c-5.167,6.902-11.887,12.214-19.56,15.611C414.227,268.143,420.182,291.925,410.763,312.552z"/>
	<path d="M392.635,67.365C349.193,23.924,291.436,0,230,0S110.807,23.924,67.365,67.365S0,168.564,0,230
		s23.924,119.193,67.365,162.635S168.564,460,230,460s119.193-23.924,162.635-67.365S460,291.436,460,230
		S436.076,110.807,392.635,67.365z M230,440c-115.794,0-210-94.206-210-210S114.206,20,230,20s210,94.206,210,210
		S345.794,440,230,440z"/>
	<path style="fill:#F37D22;" d="M230,349.479c-16.333,0-29.621,13.288-29.621,29.621s13.288,29.621,29.621,29.621
		s29.621-13.288,29.621-29.621S246.333,349.479,230,349.479z"/>
	<path style="fill:#F37D22;" d="M365.65,262.308c-11.576,0-22.162,6.801-26.969,17.326c-3.287,7.197-3.574,15.243-0.81,22.656
		c2.766,7.413,8.252,13.306,15.449,16.592c3.903,1.783,8.035,2.687,12.28,2.687c11.576,0,22.162-6.801,26.968-17.325
		c6.785-14.856,0.218-32.464-14.639-39.25C374.027,263.211,369.896,262.308,365.65,262.308z"/>
	<path style="fill:#F37D22;" d="M406.901,204.565c-2.083-14.486-14.666-25.41-29.27-25.41c-1.415,0-2.851,0.103-4.266,0.307
		c-16.158,2.323-27.416,17.353-25.106,33.509c0.002,0.016,0.004,0.032,0.006,0.048c2.093,14.475,14.67,25.388,29.266,25.388
		c1.415,0,2.851-0.103,4.266-0.307c7.831-1.126,14.756-5.233,19.497-11.567S408.027,212.397,406.901,204.565z"/>
	<path d="M417.306,238.518c7.943-10.61,11.278-23.679,9.393-36.798c-3.174-22.075-20.919-39.207-42.53-42.121
		c4.614-7.005,7.393-15.103,8.008-23.698c0.946-13.22-3.313-26.018-11.993-36.035c-9.431-10.884-23.105-17.126-37.518-17.126
		c-7.324,0-14.498,1.631-21.036,4.695c0.055-5.457-0.792-10.911-2.553-16.181c-1.749-5.238-7.414-8.073-12.652-6.316
		c-1.524,0.509-2.836,1.356-3.898,2.421c-2.59,2.595-3.659,6.517-2.418,10.231c1.92,5.75,2.031,11.868,0.32,17.695
		c-4.603,15.672-21.1,24.674-36.767,20.076c-15.672-4.602-24.678-21.096-20.076-36.767c4.603-15.671,21.095-24.675,36.756-20.079
		c0.278,0.082,0.551,0.175,0.823,0.266l0.213,0.07c3.706,1.229,7.619,0.156,10.209-2.43c1.07-1.067,1.92-2.388,2.427-3.92
		c1.736-5.243-1.106-10.9-6.35-12.637l-0.192-0.063c-0.488-0.162-0.977-0.323-1.485-0.473c-21.773-6.392-44.481,2.903-55.999,21.235
		c-8.941-14.141-24.746-23.256-41.977-23.256c-4.722,0-9.432,0.68-13.997,2.021c-21.763,6.39-35.838,26.474-35.628,48.111
		c-6.542-3.068-13.721-4.701-21.05-4.701c-14.412,0-28.087,6.242-37.518,17.126c-8.68,10.018-12.939,22.815-11.993,36.035
		c0.614,8.592,3.392,16.687,8.002,23.689c-16.009,2.133-30.295,12.013-37.786,26.993c-2.47,4.939-0.468,10.946,4.472,13.417
		c1.439,0.719,2.968,1.047,4.474,1.046c3.665-0.004,7.193-2.018,8.943-5.518c5.714-11.429,18.046-17.895,30.705-16.066
		c16.167,2.324,27.428,17.368,25.104,33.535c-1.126,7.831-5.234,14.755-11.568,19.496s-14.136,6.737-21.967,5.606
		c-9.591-1.379-17.917-7.389-22.273-16.076c-1.754-3.496-5.28-5.507-8.941-5.51c-1.509-0.001-3.04,0.33-4.481,1.053
		c-4.937,2.476-6.933,8.485-4.457,13.422c5.219,10.407,13.857,18.498,24.234,23.116c-16.503,14.009-22.471,37.808-13.046,58.447
		c8.05,17.627,25.776,29.017,45.161,29.017c2.533,0,5.039-0.2,7.511-0.58c-2.452,8.02-2.837,16.571-1.006,24.99
		c2.817,12.951,10.51,24.03,21.66,31.195c8.023,5.157,17.287,7.883,26.79,7.883c12.345,0,23.955-4.52,32.906-12.459
		c5.895,20.819,25.058,36.123,47.74,36.123c22.685,0,41.848-15.307,47.742-36.129c9.077,8.04,20.781,12.481,32.849,12.481
		c5.234,0,10.536-0.833,15.716-2.563c5.238-1.75,8.065-7.415,6.315-12.653c-0.509-1.524-1.357-2.837-2.422-3.899
		c-2.594-2.59-6.514-3.66-10.231-2.416c-12.847,4.286-26.942-0.683-34.278-12.098c-4.277-6.655-5.707-14.578-4.025-22.309
		c1.682-7.731,6.273-14.345,12.93-18.623c6.657-4.276,14.579-5.704,22.311-4.025c7.731,1.683,14.345,6.274,18.622,12.93
		c4.864,7.568,6.021,16.818,3.177,25.378c-1.234,3.714-0.163,7.631,2.427,10.223c1.065,1.065,2.381,1.913,3.908,2.421
		c5.241,1.744,10.902-1.093,12.644-6.335c3.298-9.92,3.375-20.396,0.409-30.113c2.472,0.379,4.977,0.579,7.51,0.579
		c19.385,0,37.111-11.39,45.161-29.017c9.42-20.627,3.464-44.409-13.017-58.423C405.419,250.731,412.139,245.42,417.306,238.518z
		 M381.798,238.1c-1.415,0.204-2.851,0.307-4.266,0.307c-14.596,0-27.174-10.913-29.266-25.388
		c-0.002-0.016-0.004-0.032-0.006-0.048c-2.31-16.156,8.948-31.186,25.106-33.509c1.415-0.204,2.851-0.307,4.266-0.307
		c14.604,0,27.187,10.924,29.27,25.41c1.126,7.832-0.865,15.633-5.606,21.967S389.629,236.974,381.798,238.1z M392.569,304.243
		c-4.806,10.524-15.392,17.325-26.968,17.325c-4.245,0-8.377-0.903-12.28-2.687c-7.197-3.286-12.684-9.179-15.449-16.592
		c-2.765-7.413-2.478-15.459,0.81-22.656c4.807-10.525,15.393-17.326,26.969-17.326c4.245,0,8.377,0.903,12.28,2.686
		C392.787,271.779,399.354,289.387,392.569,304.243z M230,408.721c-16.333,0-29.621-13.288-29.621-29.621
		s13.288-29.621,29.621-29.621s29.621,13.288,29.621,29.621S246.333,408.721,230,408.721z M149.354,385.057
		c-5.661,0-11.186-1.628-15.978-4.707c-6.655-4.278-11.247-10.892-12.93-18.623c-1.682-7.73-0.252-15.654,4.025-22.311
		c5.478-8.522,14.807-13.611,24.956-13.611c5.661,0,11.186,1.628,15.978,4.707c13.739,8.83,17.733,27.192,8.904,40.934
		C168.832,379.968,159.503,385.057,149.354,385.057z M94.398,321.568c-11.576,0-22.162-6.801-26.968-17.325
		c-6.785-14.856-0.218-32.464,14.639-39.249c3.903-1.783,8.035-2.687,12.28-2.687c11.576,0,22.162,6.801,26.969,17.326
		c3.287,7.197,3.574,15.243,0.81,22.656c-2.766,7.413-8.252,13.306-15.449,16.592C102.775,320.665,98.644,321.568,94.398,321.568z
		 M117.335,102.739c7.113,0,13.996,2.569,19.381,7.235c12.344,10.695,13.684,29.439,2.988,41.783
		c-5.63,6.498-13.796,10.225-22.403,10.225c-7.112,0-13.995-2.57-19.38-7.236c-5.979-5.181-9.584-12.381-10.148-20.272
		s1.979-15.531,7.16-21.511C100.563,106.466,108.728,102.739,117.335,102.739z M188.011,57.309c13.044,0,24.724,8.753,28.404,21.286
		c2.229,7.592,1.368,15.597-2.424,22.541c-3.756,6.881-9.948,11.899-17.446,14.159c-0.105,0.031-0.209,0.063-0.314,0.094
		c-2.702,0.782-5.478,1.183-8.255,1.183c-13.044,0-24.724-8.753-28.404-21.286c-4.601-15.671,4.405-32.165,20.076-36.767
		C182.383,57.716,185.197,57.309,188.011,57.309z M323.283,109.975c5.386-4.666,12.269-7.235,19.382-7.235
		c8.607,0,16.772,3.727,22.402,10.224c5.182,5.979,7.725,13.619,7.16,21.511s-4.169,15.092-10.148,20.272
		c-5.385,4.666-12.268,7.236-19.38,7.236c-8.607,0-16.773-3.727-22.403-10.225C309.601,139.414,310.94,120.67,323.283,109.975z
		 M257.88,134.504c0.05,0.015,0.097,0.032,0.147,0.047c0.047,0.014,0.095,0.025,0.142,0.039
		c33.901,10.026,60.312,37.665,68.587,72.273C298.499,187.23,264.928,176.62,230,176.62s-68.499,10.61-96.756,30.243
		c10.457-43.73,49.867-76.342,96.756-76.342C239.675,130.521,249.03,131.916,257.88,134.504z M133.244,253.137
		C161.501,272.77,195.072,283.38,230,283.38s68.499-10.61,96.756-30.243c-10.457,43.73-49.867,76.342-96.756,76.342
		S143.701,296.867,133.244,253.137z M276.605,204.017c17.242,5.632,33.393,14.392,47.685,25.983
		c-14.292,11.592-30.443,20.352-47.685,25.983c4.308-7.695,6.775-16.555,6.775-25.983S280.913,211.712,276.605,204.017z M263.38,230
		c0,18.405-14.975,33.38-33.38,33.38s-33.38-14.975-33.38-33.38s14.975-33.38,33.38-33.38S263.38,211.595,263.38,230z
		 M183.395,255.983c-17.242-5.632-33.393-14.392-47.685-25.983c14.292-11.592,30.443-20.352,47.685-25.983
		c-4.308,7.695-6.775,16.555-6.775,25.983S179.087,248.288,183.395,255.983z"/>
	<path style="fill:#F37D22;" d="M320.296,151.758c5.63,6.498,13.796,10.225,22.403,10.225c7.112,0,13.995-2.57,19.38-7.236
		c5.979-5.181,9.584-12.381,10.148-20.272s-1.979-15.531-7.16-21.511c-5.63-6.497-13.795-10.224-22.402-10.224
		c-7.113,0-13.996,2.569-19.382,7.235C310.94,120.67,309.601,139.414,320.296,151.758z"/>
	<path style="fill:#F37D22;" d="M159.572,95.285c3.681,12.533,15.36,21.286,28.404,21.286c2.777,0,5.553-0.4,8.255-1.183
		c0.105-0.031,0.209-0.063,0.314-0.094c7.498-2.26,13.69-7.278,17.446-14.159c3.792-6.944,4.652-14.949,2.424-22.541
		c-3.681-12.533-15.36-21.286-28.404-21.286c-2.813,0-5.628,0.407-8.362,1.21C163.978,63.12,154.972,79.614,159.572,95.285z"/>
	<path style="fill:#F37D22;" d="M87.772,134.474c0.564,7.892,4.169,15.092,10.148,20.272c5.385,4.666,12.268,7.236,19.38,7.236
		c8.607,0,16.773-3.727,22.403-10.225c10.695-12.344,9.355-31.088-2.988-41.783c-5.385-4.666-12.268-7.235-19.381-7.235
		c-8.607,0-16.772,3.727-22.402,10.224C89.751,118.942,87.208,126.582,87.772,134.474z"/>
	<path style="fill:#F37D22;" d="M122.128,302.29c2.765-7.413,2.478-15.459-0.81-22.656c-4.807-10.525-15.393-17.326-26.969-17.326
		c-4.245,0-8.377,0.903-12.28,2.687c-14.856,6.785-21.424,24.393-14.639,39.249c4.806,10.524,15.392,17.325,26.968,17.325
		c4.245,0,8.377-0.903,12.28-2.687C113.876,315.596,119.362,309.703,122.128,302.29z"/>
	<path style="fill:#F37D22;" d="M165.405,330.512c-4.792-3.079-10.316-4.707-15.978-4.707c-10.149,0-19.479,5.089-24.956,13.611
		c-4.277,6.656-5.707,14.58-4.025,22.311c1.683,7.731,6.274,14.345,12.93,18.623c4.792,3.079,10.316,4.707,15.978,4.707
		c10.149,0,19.479-5.089,24.956-13.611C183.139,357.704,179.145,339.342,165.405,330.512z"/>
	<path style="fill:#F8A71B;" d="M133.244,206.863C161.501,187.23,195.072,176.62,230,176.62s68.499,10.61,96.756,30.243
		c-8.275-34.608-34.686-62.247-68.587-72.273c-0.047-0.014-0.095-0.025-0.142-0.039c-0.05-0.015-0.097-0.032-0.147-0.047
		c-8.85-2.588-18.205-3.982-27.88-3.982C183.111,130.521,143.701,163.133,133.244,206.863z"/>
	<path style="fill:#F8A71B;" d="M326.756,253.137C298.499,272.77,264.928,283.38,230,283.38s-68.499-10.61-96.756-30.243
		c10.457,43.73,49.867,76.342,96.756,76.342S316.299,296.867,326.756,253.137z"/>
	<path style="fill:#FFFFFF;" d="M135.71,230c14.292,11.592,30.443,20.352,47.685,25.983c-4.308-7.695-6.775-16.555-6.775-25.983
		s2.467-18.288,6.775-25.983C166.153,209.648,150.002,218.408,135.71,230z"/>
	<path style="fill:#FFFFFF;" d="M324.29,230c-14.292-11.592-30.443-20.352-47.685-25.983c4.308,7.695,6.775,16.555,6.775,25.983
		s-2.467,18.288-6.775,25.983C293.847,250.352,309.998,241.592,324.29,230z"/>
	<path style="fill:#FF0000;" d="M196.62,230c0,18.405,14.975,33.38,33.38,33.38s33.38-14.975,33.38-33.38s-14.975-33.38-33.38-33.38
		S196.62,211.595,196.62,230z M230,209.464c11.323,0,20.536,9.213,20.536,20.536s-9.213,20.536-20.536,20.536
		s-20.536-9.213-20.536-20.536S218.677,209.464,230,209.464z"/>
	<path d="M230,250.536c11.323,0,20.536-9.213,20.536-20.536s-9.213-20.536-20.536-20.536s-20.536,9.213-20.536,20.536
		S218.677,250.536,230,250.536z"/>
	<path style="fill:#F37D22;" d="M338.704,364.794c2.845-8.56,1.688-17.81-3.177-25.378c-4.277-6.655-10.891-11.247-18.622-12.93
		c-7.731-1.679-15.653-0.251-22.311,4.025c-6.656,4.278-11.248,10.892-12.93,18.623c-1.682,7.73-0.252,15.653,4.025,22.309
		c7.336,11.415,21.432,16.384,34.278,12.098c3.718-1.244,7.637-0.174,10.231,2.416l10.931-10.94
		C338.542,372.425,337.47,368.508,338.704,364.794z"/>
	<path style="fill:#F37D22;" d="M281.377,58.852l-0.213-0.07c-0.272-0.091-0.545-0.184-0.823-0.266
		c-15.661-4.596-32.153,4.408-36.756,20.079c-4.602,15.671,4.404,32.165,20.076,36.767c15.667,4.598,32.164-4.404,36.767-20.076
		c1.711-5.827,1.6-11.945-0.32-17.695c-1.241-3.715-0.172-7.637,2.418-10.231l-10.939-10.937
		C288.996,59.008,285.083,60.08,281.377,58.852z"/>
	<path style="fill:#F37D22;" d="M55.929,222.023c4.356,8.688,12.683,14.697,22.273,16.076c7.831,1.131,15.633-0.865,21.967-5.606
		s10.442-11.665,11.568-19.496c2.324-16.167-8.937-31.211-25.104-33.535c-12.659-1.828-24.991,4.638-30.705,16.066
		c-1.75,3.5-5.278,5.514-8.943,5.518l0.002,15.468C50.649,216.517,54.175,218.527,55.929,222.023z"/>
</g>
<g>
</g>
<g>
</g>
<g>
</g>
<g>
</g>
<g>
</g>
<g>
</g>
<g>
</g>
<g>
</g>
<g>
</g>
<g>
</g>
<g>
</g>
<g>
</g>
<g>
</g>
<g>
</g>
<g>
</g>
</svg>
