<?xml version="1.0" encoding="iso-8859-1"?>
<!-- Generator: Adobe Illustrator 17.1.0, SVG Export Plug-In . SVG Version: 6.00 Build 0)  -->
<!DOCTYPE svg PUBLIC "-//W3C//DTD SVG 1.1//EN" "http://www.w3.org/Graphics/SVG/1.1/DTD/svg11.dtd">
<svg version="1.1" id="Capa_1" xmlns="http://www.w3.org/2000/svg" xmlns:xlink="http://www.w3.org/1999/xlink" x="0px" y="0px"
	 viewBox="0 0 460 460" style="enable-background:new 0 0 460 460;" xml:space="preserve">
<g>
	<path style="fill:#70AD46;" d="M440,252.43v-89.587c-0.115,0.101-0.238,0.198-0.353,0.299c-0.353,0.306-0.717,0.608-1.078,0.912
		c-0.43,0.361-0.861,0.723-1.304,1.081c-0.379,0.307-0.768,0.611-1.156,0.917c-0.446,0.351-0.895,0.701-1.353,1.049
		c-0.403,0.307-0.815,0.611-1.228,0.915c-0.465,0.343-0.933,0.685-1.409,1.024c-0.426,0.305-0.859,0.606-1.295,0.909
		c-0.484,0.335-0.972,0.67-1.467,1.002c-0.448,0.302-0.902,0.602-1.36,0.9c-0.504,0.329-1.014,0.656-1.529,0.983
		c-0.469,0.297-0.941,0.593-1.42,0.887c-0.525,0.324-1.057,0.646-1.593,0.966c-0.488,0.292-0.979,0.584-1.477,0.873
		c-0.549,0.319-1.106,0.637-1.666,0.953c-0.505,0.286-1.012,0.571-1.526,0.854c-0.572,0.315-1.154,0.627-1.737,0.939
		c-0.523,0.279-1.045,0.559-1.577,0.836c-0.598,0.312-1.207,0.62-1.816,0.929c-0.537,0.271-1.072,0.544-1.618,0.813
		c-0.626,0.309-1.264,0.614-1.901,0.92c-0.549,0.264-1.095,0.528-1.653,0.789c-0.656,0.308-1.327,0.61-1.995,0.914
		c-0.558,0.254-1.111,0.51-1.678,0.761c-0.693,0.308-1.402,0.61-2.107,0.915c-0.562,0.242-1.117,0.485-1.686,0.726
		c-0.742,0.313-1.501,0.619-2.256,0.928c-0.552,0.226-1.095,0.453-1.654,0.677c-0.845,0.338-1.708,0.669-2.568,1.002
		c-0.486,0.188-0.963,0.378-1.454,0.564c-1.231,0.467-2.481,0.928-3.744,1.385c-0.132,0.048-0.259,0.097-0.392,0.145
		c-6.391,2.301-13.099,4.442-20.078,6.428c10.929,21.3,17.1,45.426,17.1,70.966c0,10.52-1.053,20.796-3.048,30.736
		C419.019,285.606,440,268.565,440,252.43z"/>
	<path style="fill:#70AD46;" d="M77.076,298.74c-1.995-9.94-3.048-20.217-3.048-30.736c0-25.54,6.171-49.666,17.1-70.966
		c-6.979-1.985-13.687-4.127-20.078-6.428c-0.133-0.048-0.26-0.097-0.392-0.145c-1.263-0.457-2.513-0.918-3.744-1.385
		c-0.491-0.187-0.968-0.377-1.454-0.564c-0.86-0.333-1.724-0.664-2.568-1.002c-0.559-0.224-1.102-0.451-1.654-0.677
		c-0.755-0.309-1.514-0.615-2.256-0.928c-0.569-0.24-1.124-0.483-1.686-0.726c-0.705-0.305-1.414-0.607-2.107-0.915
		c-0.566-0.251-1.12-0.507-1.678-0.761c-0.668-0.304-1.339-0.606-1.995-0.914c-0.558-0.261-1.104-0.525-1.653-0.789
		c-0.637-0.306-1.275-0.611-1.901-0.92c-0.546-0.27-1.081-0.542-1.618-0.813c-0.609-0.309-1.218-0.617-1.816-0.929
		c-0.532-0.277-1.054-0.557-1.577-0.836c-0.583-0.313-1.165-0.624-1.737-0.939c-0.515-0.283-1.021-0.568-1.526-0.854
		c-0.56-0.316-1.117-0.634-1.666-0.953c-0.498-0.289-0.988-0.581-1.477-0.873c-0.536-0.32-1.068-0.642-1.593-0.966
		c-0.478-0.294-0.951-0.59-1.42-0.887c-0.515-0.327-1.025-0.654-1.529-0.983c-0.458-0.299-0.911-0.599-1.36-0.9
		c-0.495-0.332-0.984-0.667-1.467-1.002c-0.436-0.303-0.869-0.604-1.295-0.909c-0.477-0.34-0.945-0.682-1.409-1.024
		c-0.413-0.304-0.824-0.608-1.228-0.915c-0.458-0.348-0.907-0.698-1.353-1.049c-0.388-0.306-0.777-0.61-1.156-0.917
		c-0.443-0.358-0.874-0.72-1.304-1.081c-0.362-0.304-0.725-0.606-1.078-0.912c-0.116-0.101-0.239-0.198-0.353-0.299v89.587
		C20,268.565,40.981,285.606,77.076,298.74z"/>
	<path style="fill:#A1CE57;" d="M20.063,126.745c1.56,19.083,32.006,39.214,81.757,52.504c3.437-4.948,7.151-9.689,11.123-14.2
		c-6.25-1.524-12.278-3.177-18.05-4.953c-19.857-6.111-46.255-16.377-46.255-34.887s26.398-28.775,46.255-34.887
		C132.198,78.841,180.18,72.518,230,72.518s97.802,6.323,135.108,17.805c19.857,6.111,46.255,16.377,46.255,34.887
		s-26.398,28.775-46.255,34.887c-5.772,1.776-11.8,3.429-18.05,4.953c3.972,4.511,7.686,9.252,11.123,14.2
		c49.75-13.29,80.197-33.421,81.757-52.504c0.042-0.513,0.063-1.024,0.063-1.536c0-32.724-86.244-69.185-210-69.185
		S20,92.485,20,125.209C20,125.721,20.021,126.232,20.063,126.745z"/>
	<path d="M388.95,59.809C346.338,44.471,289.889,36.024,230,36.024S113.662,44.471,71.05,59.809C25.233,76.3,0,99.526,0,125.209
		V252.43c0,25.684,25.233,48.91,71.05,65.401c4.088,1.472,8.306,2.878,12.639,4.221c22.029,59.443,79.3,101.924,146.311,101.924
		s124.282-42.48,146.311-101.924c4.334-1.343,8.551-2.749,12.639-4.221C434.767,301.34,460,278.113,460,252.43V125.209
		C460,99.526,434.767,76.3,388.95,59.809z M230,403.976c-74.975,0-135.972-60.997-135.972-135.972S155.025,132.032,230,132.032
		s135.972,60.997,135.972,135.972S304.975,403.976,230,403.976z M230,56.024c123.756,0,210,36.461,210,69.185
		c0,0.512-0.021,1.023-0.063,1.536c-1.56,19.083-32.006,39.214-81.757,52.504c-3.437-4.948-7.151-9.689-11.123-14.2
		c6.25-1.524,12.278-3.177,18.05-4.953c19.857-6.111,46.255-16.377,46.255-34.887s-26.398-28.775-46.255-34.887
		C327.802,78.841,279.82,72.518,230,72.518s-97.802,6.323-135.108,17.805c-19.857,6.111-46.255,16.377-46.255,34.887
		s26.398,28.775,46.255,34.887c5.772,1.776,11.8,3.429,18.05,4.953c-3.972,4.511-7.686,9.252-11.123,14.2
		c-49.75-13.29-80.197-33.421-81.757-52.504c-0.042-0.513-0.063-1.024-0.063-1.536C20,92.485,106.244,56.024,230,56.024z
		 M329.986,148.396c-27.092-22.685-61.969-36.363-99.986-36.363s-72.894,13.679-99.986,36.363
		c-10.338-2.137-20.135-4.613-29.24-7.415c-26.038-8.014-31.154-14.335-32.017-15.771c0.863-1.437,5.979-7.758,32.017-15.771
		C136.227,98.526,182.12,92.518,230,92.518s93.773,6.009,129.225,16.92c26.038,8.014,31.154,14.335,32.017,15.771
		c-0.863,1.437-5.979,7.758-32.017,15.771C350.121,143.782,340.324,146.259,329.986,148.396z M20,162.843
		c0.115,0.101,0.238,0.198,0.353,0.299c0.353,0.306,0.717,0.608,1.078,0.912c0.43,0.361,0.861,0.723,1.304,1.081
		c0.379,0.307,0.768,0.611,1.156,0.917c0.446,0.351,0.895,0.701,1.353,1.049c0.403,0.307,0.815,0.611,1.228,0.915
		c0.465,0.343,0.933,0.685,1.409,1.024c0.426,0.305,0.859,0.606,1.295,0.909c0.484,0.335,0.972,0.67,1.467,1.002
		c0.448,0.302,0.902,0.602,1.36,0.9c0.504,0.329,1.014,0.656,1.529,0.983c0.469,0.297,0.941,0.593,1.42,0.887
		c0.525,0.324,1.057,0.646,1.593,0.966c0.488,0.292,0.979,0.584,1.477,0.873c0.549,0.319,1.106,0.637,1.666,0.953
		c0.505,0.286,1.012,0.571,1.526,0.854c0.572,0.315,1.154,0.627,1.737,0.939c0.523,0.279,1.045,0.559,1.577,0.836
		c0.598,0.312,1.207,0.62,1.816,0.929c0.537,0.271,1.072,0.544,1.618,0.813c0.626,0.309,1.264,0.614,1.901,0.92
		c0.549,0.264,1.095,0.528,1.653,0.789c0.656,0.308,1.327,0.61,1.995,0.914c0.558,0.254,1.111,0.51,1.678,0.761
		c0.693,0.308,1.402,0.61,2.107,0.915c0.562,0.242,1.117,0.485,1.686,0.726c0.742,0.313,1.501,0.619,2.256,0.928
		c0.552,0.226,1.095,0.453,1.654,0.677c0.845,0.338,1.708,0.669,2.568,1.002c0.486,0.188,0.963,0.378,1.454,0.564
		c1.231,0.467,2.481,0.928,3.744,1.385c0.132,0.048,0.259,0.097,0.392,0.145c6.391,2.301,13.099,4.442,20.078,6.428
		c-10.929,21.3-17.1,45.426-17.1,70.966c0,10.52,1.053,20.796,3.048,30.736C40.981,285.606,20,268.565,20,252.43V162.843z
		 M368.872,197.038c6.979-1.985,13.687-4.127,20.078-6.428c0.133-0.048,0.26-0.097,0.392-0.145c1.263-0.457,2.513-0.918,3.744-1.385
		c0.491-0.187,0.968-0.377,1.454-0.564c0.86-0.333,1.724-0.664,2.568-1.002c0.559-0.224,1.102-0.451,1.654-0.677
		c0.755-0.309,1.514-0.615,2.256-0.928c0.569-0.24,1.124-0.483,1.686-0.726c0.705-0.305,1.414-0.607,2.107-0.915
		c0.566-0.251,1.12-0.507,1.678-0.761c0.668-0.304,1.339-0.606,1.995-0.914c0.558-0.261,1.104-0.525,1.653-0.789
		c0.637-0.306,1.275-0.611,1.901-0.92c0.546-0.27,1.081-0.542,1.618-0.813c0.609-0.309,1.218-0.617,1.816-0.929
		c0.532-0.277,1.054-0.557,1.577-0.836c0.583-0.313,1.165-0.624,1.737-0.939c0.515-0.283,1.021-0.568,1.526-0.854
		c0.56-0.316,1.117-0.634,1.666-0.953c0.498-0.289,0.988-0.581,1.477-0.873c0.536-0.32,1.068-0.642,1.593-0.966
		c0.478-0.294,0.951-0.59,1.42-0.887c0.515-0.327,1.025-0.654,1.529-0.983c0.458-0.299,0.911-0.599,1.36-0.9
		c0.495-0.332,0.984-0.667,1.467-1.002c0.436-0.303,0.869-0.604,1.295-0.909c0.477-0.34,0.945-0.682,1.409-1.024
		c0.413-0.304,0.824-0.608,1.228-0.915c0.458-0.348,0.907-0.698,1.353-1.049c0.388-0.306,0.777-0.61,1.156-0.917
		c0.443-0.358,0.874-0.72,1.304-1.081c0.362-0.304,0.725-0.606,1.078-0.912c0.116-0.101,0.239-0.198,0.353-0.299v89.587
		c0,16.136-20.981,33.177-57.076,46.311c1.995-9.94,3.048-20.217,3.048-30.736C385.972,242.464,379.801,218.338,368.872,197.038z"/>
	<path style="fill:#70AD46;" d="M365.972,268.004c0-74.975-60.997-135.972-135.972-135.972S94.028,193.029,94.028,268.004
		S155.025,403.976,230,403.976S365.972,342.979,365.972,268.004z M313.087,339.982c-0.446-0.32-0.847-0.679-1.224-1.055
		l-10.94,10.939c0.376,0.377,0.734,0.778,1.054,1.224c3.225,4.483,2.206,10.732-2.278,13.957
		c-20.4,14.677-44.502,22.435-69.7,22.435c-65.881,0-119.479-53.598-119.479-119.479S164.119,148.525,230,148.525
		s119.479,53.598,119.479,119.479c0,25.197-7.757,49.299-22.434,69.7C323.82,342.188,317.571,343.208,313.087,339.982z"/>
	<path style="fill:#A1CE57;" d="M310.81,326.024c12.213-16.978,18.669-37.041,18.669-58.021c0-54.853-44.626-99.479-99.479-99.479
		s-99.479,44.626-99.479,99.479s44.626,99.479,99.479,99.479c20.98,0,41.043-6.456,58.021-18.669
		c4.037-2.903,9.5-2.355,12.903,1.054l10.94-10.939C308.454,335.523,307.905,330.062,310.81,326.024z M166.825,326.393
		c0-5.522,4.477-10,10-10h21.319c-15.713-10.379-26.106-28.189-26.106-48.389s10.393-38.01,26.106-48.389h-21.319
		c-5.523,0-10-4.478-10-10s4.477-10,10-10h106.351c5.523,0,10,4.478,10,10s-4.477,10-10,10h-21.319
		c15.713,10.379,26.106,28.189,26.106,48.389s-10.393,38.01-26.106,48.389h21.319c5.523,0,10,4.478,10,10s-4.477,10-10,10H176.825
		C171.302,336.393,166.825,331.915,166.825,326.393z"/>
	<path style="fill:#A1CE57;" d="M230,305.966c20.932,0,37.962-17.029,37.962-37.962s-17.03-37.962-37.962-37.962
		s-37.962,17.029-37.962,37.962S209.068,305.966,230,305.966z"/>
	<path d="M349.479,268.004c0-65.881-53.598-119.479-119.479-119.479s-119.479,53.598-119.479,119.479S164.119,387.482,230,387.482
		c25.198,0,49.3-7.758,69.7-22.435c4.483-3.225,5.503-9.474,2.278-13.957c-0.321-0.445-0.679-0.847-1.054-1.224
		c-3.404-3.409-8.866-3.957-12.903-1.054c-16.977,12.213-37.04,18.669-58.021,18.669c-54.853,0-99.479-44.626-99.479-99.479
		s44.626-99.479,99.479-99.479s99.479,44.626,99.479,99.479c0,20.979-6.456,41.043-18.669,58.021
		c-2.904,4.037-2.356,9.499,1.054,12.903c0.377,0.376,0.778,0.734,1.224,1.055c4.484,3.226,10.733,2.205,13.958-2.278
		C341.721,317.303,349.479,293.201,349.479,268.004z"/>
	<path d="M176.825,336.393h106.351c5.523,0,10-4.478,10-10s-4.477-10-10-10h-21.319c15.713-10.379,26.106-28.189,26.106-48.389
		s-10.393-38.01-26.106-48.389h21.319c5.523,0,10-4.478,10-10s-4.477-10-10-10H176.825c-5.523,0-10,4.478-10,10s4.477,10,10,10
		h21.319c-15.713,10.379-26.106,28.189-26.106,48.389s10.393,38.01,26.106,48.389h-21.319c-5.523,0-10,4.478-10,10
		S171.302,336.393,176.825,336.393z M230,230.042c20.932,0,37.962,17.029,37.962,37.962s-17.03,37.962-37.962,37.962
		s-37.962-17.029-37.962-37.962S209.068,230.042,230,230.042z"/>
</g>
<g>
</g>
<g>
</g>
<g>
</g>
<g>
</g>
<g>
</g>
<g>
</g>
<g>
</g>
<g>
</g>
<g>
</g>
<g>
</g>
<g>
</g>
<g>
</g>
<g>
</g>
<g>
</g>
<g>
</g>
</svg>
