<?xml version="1.0" encoding="iso-8859-1"?>
<!-- Generator: Adobe Illustrator 17.1.0, SVG Export Plug-In . SVG Version: 6.00 Build 0)  -->
<!DOCTYPE svg PUBLIC "-//W3C//DTD SVG 1.1//EN" "http://www.w3.org/Graphics/SVG/1.1/DTD/svg11.dtd">
<svg version="1.1" id="Capa_1" xmlns="http://www.w3.org/2000/svg" xmlns:xlink="http://www.w3.org/1999/xlink" x="0px" y="0px"
	 viewBox="0 0 441.996 441.996" style="enable-background:new 0 0 441.996 441.996;" xml:space="preserve">
<g>
	<path style="fill:#666666;" d="M327.236,20c-30.715,0-59.898,9.958-83.863,28.349c4.29,2.317,8.098,5.427,11.338,9.29
		c11.372,13.558,14.853,35.039,10.067,62.123c-4.5,25.469-14.277,49.201-29.06,70.538c-1.525,2.203-3.871,3.701-6.511,4.158
		c-2.64,0.458-5.353-0.162-7.531-1.722l-26.578-19.031l-20.292,20.293l19.196,26.809c1.55,2.165,2.173,4.859,1.73,7.485
		s-1.915,4.967-4.089,6.503c-21.672,15.317-45.87,25.418-71.919,30.021c-7.779,1.374-15.209,2.071-22.085,2.071
		c-16.109,0.001-29.103-3.7-38.619-10.999c-4.529-3.475-8.116-7.663-10.709-12.457c-37.888,49.523-37.709,119.025,0.526,168.366
		c4.759-11.806,11.869-22.571,21.037-31.739c18.018-18.019,41.976-27.941,67.46-27.941c9.968,0,19.955,1.588,29.434,4.643
		c4.344-17.96,13.457-34.192,26.758-47.493c19.118-19.118,44.542-29.647,71.585-29.647c5.262,0,10.489,0.404,15.648,1.206
		c-5.042-31.721,5.19-63.983,28.469-87.262c13.298-13.297,29.525-22.408,47.479-26.754c-10.923-33.732-2.252-71.332,23.313-96.897
		c9.172-9.171,19.942-16.283,31.754-21.042C387.682,30.147,358.238,20,327.236,20z"/>
	<path d="M439.03,46.306C409.169,16.445,369.466,0,327.236,0c-42.231,0-81.935,16.445-111.795,46.307
		c-2.86,2.86-3.716,7.161-2.168,10.898c1.548,3.736,5.194,6.173,9.239,6.173c7.341,0,12.861,2.327,16.876,7.113
		c7.237,8.628,9.313,25.318,5.695,45.79c-3.404,19.27-10.214,37.422-20.278,54.096l-24.958-17.871
		c-0.001-0.001-0.003-0.002-0.004-0.003l-24.719-17.7c-4.489-3.215-10.737-2.182-13.953,2.309
		c-3.215,4.49-2.182,10.737,2.308,13.953l15.136,10.839l-15.612,15.612l-10.839-15.137c-3.215-4.489-9.462-5.523-13.952-2.309
		c-4.491,3.216-5.524,9.463-2.309,13.953l17.703,24.723l18.095,25.271c-17.032,10.517-35.642,17.603-55.458,21.104
		c-6.633,1.172-12.894,1.767-18.606,1.767c-11.442,0.001-20.586-2.374-26.445-6.868c-5.284-4.054-7.852-9.768-7.852-17.471
		c0-4.045-2.437-7.691-6.173-9.239c-3.736-1.544-8.037-0.692-10.898,2.168c-61.644,61.644-61.644,161.945-0.001,223.59
		c1.904,1.903,4.459,2.929,7.072,2.929c0.993,0,1.993-0.147,2.97-0.451c3.548-1.104,6.191-4.084,6.864-7.738
		c2.771-15.045,9.978-28.74,20.843-39.606c14.241-14.24,33.176-22.083,53.318-22.083c11.316,0,22.655,2.583,32.791,7.469
		c2.919,1.408,6.339,1.312,9.177-0.254c2.837-1.566,4.739-4.411,5.103-7.632c2.084-18.458,10.129-35.157,23.264-48.291
		c15.341-15.341,35.741-23.79,57.443-23.79c8.897,0,17.668,1.437,26.067,4.27c3.6,1.213,7.579,0.283,10.268-2.404
		c2.688-2.688,3.619-6.666,2.404-10.268c-9.955-29.516-2.476-61.515,19.521-83.511c13.135-13.135,29.833-21.18,48.291-23.265
		c3.221-0.363,6.065-2.266,7.632-5.103s1.661-6.257,0.254-9.177c-13.909-28.853-8.036-63.457,14.614-86.107
		c10.865-10.865,24.562-18.072,39.606-20.843c3.654-0.673,6.634-3.316,7.738-6.864C442.611,52.8,441.657,48.933,439.03,46.306z
		 M356.708,166.81c-17.953,4.346-34.181,13.457-47.479,26.754c-23.278,23.278-33.511,55.541-28.469,87.262
		c-5.159-0.802-10.387-1.206-15.648-1.206c-27.044,0-52.467,10.529-71.585,29.647c-13.301,13.301-22.414,29.533-26.758,47.493
		c-9.479-3.055-19.466-4.643-29.434-4.643c-25.484,0-49.442,9.923-67.46,27.941c-9.168,9.168-16.278,19.934-21.037,31.739
		c-38.236-49.341-38.415-118.843-0.526-168.366c2.593,4.794,6.18,8.982,10.709,12.457c9.516,7.299,22.509,11,38.619,10.999
		c6.875,0,14.306-0.697,22.085-2.071c26.05-4.604,50.247-14.704,71.919-30.021c2.174-1.536,3.646-3.877,4.089-6.503
		s-0.18-5.32-1.73-7.485l-19.196-26.809l20.292-20.293l26.578,19.031c2.178,1.56,4.891,2.18,7.531,1.722
		c2.64-0.457,4.985-1.955,6.511-4.158c14.782-21.337,24.56-45.069,29.06-70.538c4.785-27.084,1.305-48.565-10.067-62.123
		c-3.24-3.863-7.048-6.973-11.338-9.29C267.338,29.958,296.521,20,327.236,20c31.002,0,60.446,10.147,84.538,28.87
		c-11.812,4.759-22.582,11.871-31.754,21.042C354.456,95.478,345.785,133.077,356.708,166.81z"/>
</g>
<g>
</g>
<g>
</g>
<g>
</g>
<g>
</g>
<g>
</g>
<g>
</g>
<g>
</g>
<g>
</g>
<g>
</g>
<g>
</g>
<g>
</g>
<g>
</g>
<g>
</g>
<g>
</g>
<g>
</g>
</svg>
