<?xml version="1.0" encoding="iso-8859-1"?>
<!-- Generator: Adobe Illustrator 17.1.0, SVG Export Plug-In . SVG Version: 6.00 Build 0)  -->
<!DOCTYPE svg PUBLIC "-//W3C//DTD SVG 1.1//EN" "http://www.w3.org/Graphics/SVG/1.1/DTD/svg11.dtd">
<svg version="1.1" id="Capa_1" xmlns="http://www.w3.org/2000/svg" xmlns:xlink="http://www.w3.org/1999/xlink" x="0px" y="0px"
	 viewBox="0 0 482 482" style="enable-background:new 0 0 482 482;" xml:space="preserve">
<g>
	<path style="fill:#FDF133;" d="M84.17,302.008c5.514,0,10-4.486,10-10V189.992c0-5.514-4.486-10-10-10H30c-5.514,0-10,4.486-10,10
		v20h54.17c5.522,0,10,4.478,10,10s-4.478,10-10,10H60v10c0,5.522-4.478,10-10,10s-10-4.478-10-10v-10H20v62.016
		c0,5.514,4.486,10,10,10H84.17z"/>
	<path style="fill:#FDF133;" d="M462,189.992c0-5.514-4.486-10-10-10h-54.17c-5.514,0-10,4.486-10,10v102.016
		c0,5.514,4.486,10,10,10H452c5.514,0,10-4.486,10-10v-62.016h-20v10c0,5.522-4.478,10-10,10s-10-4.478-10-10v-10h-14.17
		c-5.522,0-10-4.478-10-10s4.478-10,10-10H462V189.992z"/>
	<path d="M452,159.992h-54.17c-13.036,0-24.152,8.361-28.28,20H343c0-5.522-4.478-10-10-10H149c-5.522,0-10,4.478-10,10h-26.55
		c-4.128-11.639-15.243-20-28.28-20H30c-16.542,0-30,13.458-30,30v102.016c0,16.542,13.458,30,30,30h54.17
		c13.036,0,24.152-8.361,28.28-20H139c0,5.522,4.478,10,10,10h184c5.522,0,10-4.478,10-10h26.55c4.128,11.639,15.243,20,28.28,20
		H452c16.542,0,30-13.458,30-30V189.992C482,173.45,468.542,159.992,452,159.992z M407.83,209.992c-5.522,0-10,4.478-10,10
		s4.478,10,10,10H422v10c0,5.522,4.478,10,10,10s10-4.478,10-10v-10h20v62.016c0,5.514-4.486,10-10,10h-54.17
		c-5.514,0-10-4.486-10-10V189.992c0-5.514,4.486-10,10-10H452c5.514,0,10,4.486,10,10v20H407.83z M114.17,199.992H139v82.016
		h-24.83V199.992z M159,189.992h164v102.016H159V189.992z M343,199.992h24.83v82.016H343V199.992z M20,292.008v-62.016h20v10
		c0,5.522,4.478,10,10,10s10-4.478,10-10v-10h14.17c5.522,0,10-4.478,10-10s-4.478-10-10-10H20v-20c0-5.514,4.486-10,10-10h54.17
		c5.514,0,10,4.486,10,10v102.016c0,5.514-4.486,10-10,10H30C24.486,302.008,20,297.521,20,292.008z"/>
	<rect x="114.17" y="199.992" style="fill:#F8A71B;" width="24.83" height="82.016"/>
	<rect x="343" y="199.992" style="fill:#F8A71B;" width="24.83" height="82.016"/>
	<path style="fill:#FCC324;" d="M323,189.992H159v102.016h164V189.992z M231.998,276.405c-5.756-11.897-17.523-19.288-30.71-19.288
		c-5.86,0-11.644,1.515-16.724,4.38c-2.962,1.669-6.568,1.72-9.574,0.136c-3.008-1.585-5.004-4.589-5.3-7.976
		c-2.38-27.212,17.823-51.288,45.036-53.669c4.192-0.364,8.158,1.926,9.935,5.736c1.382,2.965,1.207,6.355-0.34,9.115
		c0.441,0.423,1.046,0.931,1.848,1.492c4.351,3.044,9.479,4.653,14.831,4.653s10.48-1.609,14.832-4.654
		c0.802-0.561,1.405-1.069,1.848-1.492c-1.547-2.759-1.722-6.15-0.34-9.115c1.777-3.81,5.747-6.099,9.936-5.735
		c27.211,2.381,47.414,26.457,45.034,53.669c-0.296,3.387-2.292,6.391-5.3,7.976c-3.006,1.584-6.612,1.533-9.574-0.136
		c-5.08-2.865-10.863-4.38-16.724-4.38c-13.187,0-24.954,7.391-30.71,19.288c-1.671,3.452-5.167,5.645-9.002,5.645
		S233.669,279.857,231.998,276.405z"/>
	<path style="fill:#666666;" d="M241,254.539c10.113-10.888,24.509-17.422,39.712-17.422c3.194,0,6.374,0.284,9.501,0.842
		c-2.695-6.423-7.607-11.756-13.856-14.946c-1.628,3.084-4.409,6.452-9.059,9.706c-7.731,5.408-16.824,8.267-26.298,8.267
		s-18.566-2.858-26.297-8.266c-4.65-3.255-7.431-6.622-9.06-9.706c-6.249,3.189-11.161,8.522-13.856,14.945
		c3.127-0.558,6.307-0.842,9.501-0.842C216.491,237.117,230.887,243.651,241,254.539z"/>
	<path d="M250.002,276.405c5.756-11.897,17.523-19.288,30.71-19.288c5.86,0,11.644,1.515,16.724,4.38
		c2.962,1.669,6.568,1.72,9.574,0.136c3.008-1.585,5.004-4.589,5.3-7.976c2.38-27.212-17.823-51.288-45.034-53.669
		c-4.188-0.363-8.158,1.926-9.936,5.735c-1.382,2.965-1.207,6.356,0.34,9.115c-0.442,0.423-1.046,0.932-1.848,1.492
		c-4.352,3.045-9.48,4.654-14.832,4.654s-10.48-1.609-14.831-4.653c-0.802-0.562-1.406-1.069-1.848-1.492
		c1.547-2.76,1.722-6.15,0.34-9.115c-1.776-3.811-5.742-6.101-9.935-5.736c-27.213,2.381-47.416,26.457-45.036,53.669
		c0.296,3.387,2.292,6.391,5.3,7.976c3.006,1.584,6.612,1.533,9.574-0.136c5.08-2.865,10.863-4.38,16.724-4.38
		c13.187,0,24.954,7.391,30.71,19.288c1.671,3.452,5.167,5.645,9.002,5.645S248.331,279.857,250.002,276.405z M191.787,237.959
		c2.695-6.423,7.607-11.756,13.856-14.945c1.629,3.084,4.409,6.451,9.06,9.706c7.73,5.407,16.823,8.266,26.297,8.266
		s18.566-2.858,26.298-8.267c4.649-3.254,7.431-6.622,9.059-9.706c6.249,3.19,11.161,8.523,13.856,14.946
		c-3.127-0.558-6.307-0.842-9.501-0.842c-15.203,0-29.599,6.534-39.712,17.422c-10.113-10.888-24.509-17.422-39.712-17.422
		C198.094,237.117,194.914,237.401,191.787,237.959z"/>
</g>
<g>
</g>
<g>
</g>
<g>
</g>
<g>
</g>
<g>
</g>
<g>
</g>
<g>
</g>
<g>
</g>
<g>
</g>
<g>
</g>
<g>
</g>
<g>
</g>
<g>
</g>
<g>
</g>
<g>
</g>
</svg>
