<?xml version="1.0" encoding="iso-8859-1"?>
<!-- Generator: Adobe Illustrator 17.1.0, SVG Export Plug-In . SVG Version: 6.00 Build 0)  -->
<!DOCTYPE svg PUBLIC "-//W3C//DTD SVG 1.1//EN" "http://www.w3.org/Graphics/SVG/1.1/DTD/svg11.dtd">
<svg version="1.1" id="Capa_1" xmlns="http://www.w3.org/2000/svg" xmlns:xlink="http://www.w3.org/1999/xlink" x="0px" y="0px"
	 viewBox="0 0 460 460" style="enable-background:new 0 0 460 460;" xml:space="preserve">
<g>
	<path style="fill:#F8A71B;" d="M367.654,276.261c0.565-11.846,1.15-24.096,1.15-37.67c0-78.594-43.998-128.8-95.442-146.802
		c-13.77,0.565-26.253,7.969-33.362,19.767v123.63c0,5.522-4.478,10-10,10s-10-4.478-10-10v-123.63
		c-7.11-11.798-19.593-19.201-33.362-19.767c-51.445,18.002-95.442,68.208-95.442,146.802c0,13.574,0.585,25.824,1.15,37.67
		c1.738,36.38,3.254,68.155-14.508,111.524L230,439.439l152.162-51.654C364.4,344.416,365.916,312.641,367.654,276.261z
		 M209.621,258.031c-11.412,13.165-27.956,20.716-45.39,20.716c-7.977,0-15.777-1.575-23.187-4.683
		c-23.983-10.059-38.701-34.232-36.622-60.153c0.256-3.195,2.029-6.075,4.768-7.742c2.739-1.667,6.111-1.92,9.067-0.68
		l87.674,36.771c2.957,1.24,5.14,3.822,5.87,6.944S211.721,255.608,209.621,258.031z M240,419.63c0,5.522-4.478,10-10,10
		s-10-4.478-10-10V267.778c0-5.522,4.478-10,10-10s10,4.478,10,10V419.63z M318.954,274.064c-7.408,3.107-15.209,4.683-23.186,4.683
		c-17.434,0-33.978-7.551-45.39-20.716c-2.1-2.423-2.911-5.705-2.181-8.827s2.913-5.704,5.87-6.944l87.674-36.771
		c2.958-1.24,6.329-0.986,9.067,0.68c2.738,1.667,4.512,4.547,4.768,7.742C357.656,239.832,342.938,264.006,318.954,274.064z"/>
	<path d="M404.751,389.58c-20.373-44.261-18.938-74.314-17.12-112.365c0.577-12.08,1.174-24.572,1.174-38.624
		c0-49.516-17.116-94.519-48.196-126.718c-16.949-17.559-37.076-30.591-59.015-38.531L238.468,4.681C236.639,1.769,233.44,0,230,0
		s-6.639,1.769-8.468,4.681l-43.126,68.661c-21.939,7.94-42.066,20.973-59.015,38.531c-31.08,32.199-48.196,77.202-48.196,126.718
		c0,14.052,0.597,26.544,1.174,38.624c1.817,38.051,3.253,68.104-17.12,112.365c-1.185,2.574-1.222,5.529-0.103,8.132
		s3.289,4.608,5.972,5.52l165.667,56.238c1.043,0.354,2.129,0.53,3.215,0.53s2.172-0.177,3.215-0.53l165.667-56.238
		c2.683-0.911,4.853-2.917,5.972-5.52S405.936,392.154,404.751,389.58z M230,439.439L77.838,387.785
		c17.762-43.369,16.246-75.145,14.508-111.524c-0.565-11.846-1.15-24.096-1.15-37.67c0-78.594,43.998-128.8,95.442-146.802
		c13.77,0.565,26.252,7.969,33.362,19.767v123.63c0,5.522,4.478,10,10,10s10-4.478,10-10v-123.63
		c7.11-11.798,19.593-19.201,33.362-19.767c51.445,18.002,95.442,68.208,95.442,146.802c0,13.574-0.585,25.824-1.15,37.67
		c-1.738,36.38-3.254,68.155,14.508,111.524L230,439.439z M201.589,74.035L230,28.801l28.411,45.234
		c-10.917,3.09-20.76,9.178-28.411,17.594C222.348,83.213,212.506,77.125,201.589,74.035z"/>
	<path style="fill:#FFFFFF;" d="M125.963,230.408c3.396,11.143,11.582,20.501,22.817,25.213c4.946,2.074,10.145,3.126,15.451,3.126
		c6.524,0,12.86-1.584,18.511-4.525L125.963,230.408z"/>
	<path d="M205.932,242.26l-87.674-36.771c-2.956-1.24-6.328-0.987-9.067,0.68c-2.738,1.667-4.512,4.547-4.768,7.742
		c-2.079,25.921,12.639,50.095,36.622,60.153c7.409,3.107,15.21,4.683,23.187,4.683c17.434,0,33.978-7.551,45.39-20.716
		c2.1-2.423,2.911-5.705,2.181-8.827S208.889,243.5,205.932,242.26z M148.78,255.621c-11.235-4.712-19.422-14.07-22.817-25.213
		l56.779,23.813c-5.65,2.941-11.986,4.525-18.511,4.525C158.925,258.747,153.727,257.695,148.78,255.621z"/>
	<path style="fill:#FFFFFF;" d="M334.037,230.408l-56.779,23.813c5.65,2.941,11.986,4.525,18.511,4.525
		c5.307,0,10.505-1.052,15.45-3.126C322.455,250.909,330.642,241.551,334.037,230.408z"/>
	<path d="M350.81,206.169c-2.738-1.666-6.109-1.92-9.067-0.68l-87.674,36.771c-2.957,1.24-5.14,3.822-5.87,6.944
		s0.081,6.404,2.181,8.827c11.412,13.165,27.956,20.716,45.39,20.716c7.977,0,15.777-1.575,23.186-4.683
		c23.984-10.059,38.702-34.232,36.623-60.153C355.321,210.716,353.548,207.836,350.81,206.169z M295.769,258.747
		c-6.524,0-12.86-1.584-18.511-4.525l56.779-23.813c-3.396,11.143-11.582,20.501-22.818,25.213
		C306.273,257.695,301.075,258.747,295.769,258.747z"/>
	<path d="M230,257.778c-5.522,0-10,4.478-10,10V419.63c0,5.522,4.478,10,10,10s10-4.478,10-10V267.778
		C240,262.256,235.522,257.778,230,257.778z"/>
	<path style="fill:#F8A71B;" d="M230,91.629c7.651-8.416,17.494-14.504,28.411-17.594L230,28.801l-28.411,45.234
		C212.506,77.125,222.348,83.213,230,91.629z"/>
</g>
<g>
</g>
<g>
</g>
<g>
</g>
<g>
</g>
<g>
</g>
<g>
</g>
<g>
</g>
<g>
</g>
<g>
</g>
<g>
</g>
<g>
</g>
<g>
</g>
<g>
</g>
<g>
</g>
<g>
</g>
</svg>
