<?xml version="1.0" encoding="iso-8859-1"?>
<!-- Generator: Adobe Illustrator 17.1.0, SVG Export Plug-In . SVG Version: 6.00 Build 0)  -->
<!DOCTYPE svg PUBLIC "-//W3C//DTD SVG 1.1//EN" "http://www.w3.org/Graphics/SVG/1.1/DTD/svg11.dtd">
<svg version="1.1" id="Capa_1" xmlns="http://www.w3.org/2000/svg" xmlns:xlink="http://www.w3.org/1999/xlink" x="0px" y="0px"
	 viewBox="0 0 460 460" style="enable-background:new 0 0 460 460;" xml:space="preserve">
<g>
	<polygon style="fill:#A8D7FF;" points="279.25,236.715 279.25,138.97 181.505,236.715 	"/>
	<path style="fill:#A8D7FF;" d="M356.37,313.835v32.687c9.15-9.935,17.141-20.936,23.731-32.687H356.37z"/>
	<path style="fill:#A8D7FF;" d="M230,401.913c16.789,0,33.322-2.407,49.25-7.165v-80.913H100.509c-5.523,0-10-4.478-10-10v-57.12
		c0-2.652,1.054-5.195,2.929-7.071L270.252,62.83C257.13,59.679,243.65,58.088,230,58.088c-94.793,0-171.913,77.119-171.913,171.912
		S135.207,401.913,230,401.913z"/>
	<path style="fill:#A8D7FF;" d="M356.37,236.715h45.408c0.09-2.258,0.135-4.5,0.135-6.715c0-43.577-16.373-84.971-45.543-116.554
		V236.715z"/>
	<path style="fill:#0066BB;" d="M230,20C114.206,20,20,114.206,20,230s94.206,210,210,210s210-94.206,210-210S345.794,20,230,20z
		 M292.506,411.491c-20.083,6.915-41.114,10.422-62.506,10.422c-105.821,0-191.913-86.092-191.913-191.913
		c0-105.82,86.092-191.912,191.913-191.912c21.396,0,42.425,3.507,62.506,10.422c4.035,1.39,6.744,5.188,6.744,9.455
		c0,2.652-1.054,5.205-2.929,7.081L110.509,250.857v42.978H289.25c5.523,0,10,4.478,10,10v98.201
		C299.25,406.304,296.541,410.102,292.506,411.491z M299.25,246.715c0,5.522-4.477,10-10,10H157.363
		c-4.044,0-7.691-2.437-9.239-6.173c-1.548-3.737-0.692-8.038,2.168-10.898l131.887-131.887c2.86-2.859,7.161-3.714,10.898-2.168
		c3.737,1.548,6.173,5.194,6.173,9.239V246.715z M405.431,307.898c-11.889,26.735-30.099,50.804-52.66,69.603
		c-1.833,1.527-4.106,2.317-6.403,2.317c-1.439,0-2.887-0.311-4.24-0.944c-3.514-1.646-5.758-5.176-5.758-9.056v-65.983
		c0-5.522,4.477-10,10-10h49.924c3.385,0,6.541,1.713,8.385,4.552C406.523,301.226,406.806,304.805,405.431,307.898z
		 M411.141,256.715H346.37c-5.523,0-10-4.478-10-10V90.183c0-3.88,2.245-7.41,5.758-9.056c3.514-1.645,7.663-1.111,10.643,1.373
		c43.94,36.611,69.142,90.373,69.142,147.5c0,5.774-0.273,11.703-0.813,17.623C420.63,252.772,416.312,256.715,411.141,256.715z"/>
	<path d="M392.635,67.365C349.193,23.924,291.436,0,230,0C168.565,0,110.807,23.924,67.366,67.365C23.924,110.807,0,168.564,0,230
		s23.924,119.193,67.366,162.635C110.807,436.076,168.565,460,230,460c61.436,0,119.193-23.924,162.635-67.365
		C436.076,349.193,460,291.436,460,230S436.076,110.807,392.635,67.365z M230,440c-115.794,0-210-94.206-210-210S114.206,20,230,20
		s210,94.206,210,210S345.794,440,230,440z"/>
	<path d="M396.293,293.835H346.37c-5.523,0-10,4.478-10,10v65.983c0,3.88,2.245,7.41,5.758,9.056
		c1.354,0.634,2.801,0.944,4.24,0.944c2.296,0,4.57-0.79,6.403-2.317c22.561-18.799,40.771-42.867,52.66-69.603
		c1.375-3.094,1.093-6.673-0.752-9.512C402.834,295.548,399.679,293.835,396.293,293.835z M356.37,313.835h23.731
		c-6.591,11.751-14.581,22.752-23.731,32.687V313.835z"/>
	<path d="M352.771,82.5c-2.98-2.484-7.129-3.018-10.643-1.373c-3.514,1.646-5.758,5.176-5.758,9.056v156.532c0,5.522,4.477,10,10,10
		h64.771c5.171,0,9.489-3.942,9.958-9.092c0.54-5.92,0.813-11.849,0.813-17.623C421.913,172.873,396.711,119.111,352.771,82.5z
		 M401.778,236.715H356.37V113.446c29.17,31.583,45.543,72.977,45.543,116.554C401.913,232.215,401.868,234.457,401.778,236.715z"/>
	<path d="M299.25,303.835c0-5.522-4.477-10-10-10H110.509v-42.978L296.321,65.046c1.875-1.876,2.929-4.429,2.929-7.081
		c0-4.268-2.708-8.065-6.744-9.455C272.425,41.595,251.396,38.088,230,38.088C124.179,38.088,38.087,124.18,38.087,230
		c0,105.821,86.092,191.913,191.913,191.913c21.392,0,42.422-3.507,62.506-10.422c4.035-1.39,6.744-5.188,6.744-9.455V303.835z
		 M230,58.088c13.65,0,27.13,1.591,40.252,4.742L93.438,239.644c-1.875,1.876-2.929,4.419-2.929,7.071v57.12c0,5.522,4.477,10,10,10
		H279.25v80.913c-15.928,4.758-32.461,7.165-49.25,7.165c-94.793,0-171.913-77.12-171.913-171.913S135.207,58.088,230,58.088z"/>
	<path d="M293.077,105.589c-3.737-1.546-8.038-0.691-10.898,2.168L150.292,239.644c-2.86,2.86-3.716,7.161-2.168,10.898
		c1.548,3.736,5.194,6.173,9.239,6.173H289.25c5.523,0,10-4.478,10-10V114.828C299.25,110.783,296.813,107.137,293.077,105.589z
		 M279.25,236.715h-97.745l97.745-97.745V236.715z"/>
</g>
<g>
</g>
<g>
</g>
<g>
</g>
<g>
</g>
<g>
</g>
<g>
</g>
<g>
</g>
<g>
</g>
<g>
</g>
<g>
</g>
<g>
</g>
<g>
</g>
<g>
</g>
<g>
</g>
<g>
</g>
</svg>
