<?xml version="1.0" encoding="iso-8859-1"?>
<!-- Generator: Adobe Illustrator 17.1.0, SVG Export Plug-In . SVG Version: 6.00 Build 0)  -->
<!DOCTYPE svg PUBLIC "-//W3C//DTD SVG 1.1//EN" "http://www.w3.org/Graphics/SVG/1.1/DTD/svg11.dtd">
<svg version="1.1" id="Capa_1" xmlns="http://www.w3.org/2000/svg" xmlns:xlink="http://www.w3.org/1999/xlink" x="0px" y="0px"
	 viewBox="0 0 460 460" style="enable-background:new 0 0 460 460;" xml:space="preserve">
<g>
	<polygon style="fill:#FDF133;" points="303.503,333.403 303.503,309.416 280.105,333.403 	"/>
	<path style="fill:#FDF133;" d="M309.375,72.074c-3.575-1.621-5.872-5.183-5.872-9.108V20h-40.792l-13.986,29.518
		c-1.728,3.646-5.479,5.9-9.508,5.707C236.06,55.075,232.959,55,230,55C123.855,55,37.5,141.355,37.5,247.5
		c0,47.711,17.588,93.484,49.525,128.888c2.705,2.999,3.341,7.33,1.611,10.98L63.697,440h41.075l11.184-23.602
		c1.212-2.559,3.453-4.484,6.167-5.297c0.94-0.282,1.907-0.421,2.87-0.421c1.814,0,3.612,0.493,5.193,1.454
		C160.185,430.364,194.701,440,230,440c106.145,0,192.5-86.355,192.5-192.5C422.5,172.079,378.096,103.22,309.375,72.074z
		 M106.889,348.848c-1.52,3.208-4.627,5.369-8.164,5.68c-0.292,0.025-0.584,0.038-0.875,0.038c-3.221,0-6.268-1.556-8.153-4.211
		C68.341,320.269,57.052,284.702,57.052,247.5c0-45.516,17.031-88.688,47.955-121.567c30.869-32.818,72.381-52.043,116.891-54.134
		c3.512-0.143,6.845,1.523,8.792,4.445c1.947,2.923,2.217,6.652,0.714,9.826L106.889,348.848z M230,423.398
		c-33.656,0-66.291-9.851-94.377-28.488c-4.142-2.748-5.636-8.122-3.507-12.614l34.673-73.174c1.654-3.491,5.172-5.718,9.037-5.718
		h80.556c5.522,0,10,4.478,10,10v5.427l33.152-33.987l-33.152-33.986l0,5.428c0,5.523-4.478,10-10,10h-53.49
		c-3.428,0-6.618-1.756-8.451-4.653c-1.833-2.896-2.054-6.53-0.586-9.629l53.493-112.893c2.003-4.227,6.67-6.5,11.231-5.474
		c4.563,1.026,7.806,5.079,7.806,9.756l-0.002,78.823l37.121,38.056v-155.25c0-3.614,1.95-6.947,5.101-8.718
		c3.152-1.769,7.012-1.702,10.1,0.176c25.217,15.353,46.329,37.134,61.055,62.99c15.171,26.638,23.19,57.078,23.19,88.03
		C402.948,344.491,325.364,423.398,230,423.398z"/>
	<path d="M323.503,56.628V10c0-5.522-4.478-10-10-10h-57.119c-3.864,0-7.382,2.227-9.037,5.718l-13.89,29.313
		C232.29,35.01,231.136,35,230,35C112.827,35,17.5,130.327,17.5,247.5c0,50.425,17.799,98.891,50.256,137.229l-28.899,60.989
		c-1.468,3.098-1.247,6.732,0.586,9.629c1.833,2.897,5.022,4.653,8.451,4.653H111.1c3.864,0,7.382-2.227,9.037-5.718l9.268-19.559
		C160.201,451.289,194.751,460,230,460c117.173,0,212.5-95.327,212.5-212.5C442.5,166.416,396.004,92.202,323.503,56.628z M230,440
		c-35.299,0-69.815-9.636-99.814-27.865c-1.581-0.961-3.379-1.454-5.193-1.454c-0.962,0-1.929,0.139-2.87,0.421
		c-2.713,0.813-4.954,2.738-6.167,5.297L104.772,440H63.697l24.939-52.632c1.729-3.65,1.094-7.981-1.611-10.98
		C55.088,340.984,37.5,295.211,37.5,247.5C37.5,141.355,123.855,55,230,55c2.959,0,6.06,0.075,9.217,0.225
		c4.029,0.193,7.78-2.061,9.508-5.707L262.711,20h40.792v42.966c0,3.926,2.297,7.487,5.872,9.108
		C378.096,103.22,422.5,172.079,422.5,247.5C422.5,353.645,336.145,440,230,440z"/>
	<path d="M230.69,76.244c-1.947-2.922-5.28-4.588-8.792-4.445c-44.51,2.091-86.022,21.315-116.891,54.134
		C74.083,158.812,57.052,201.984,57.052,247.5c0,37.202,11.289,72.769,32.646,102.854c1.885,2.655,4.932,4.211,8.153,4.211
		c0.29,0,0.582-0.013,0.875-0.038c3.537-0.311,6.644-2.472,8.164-5.68L231.404,86.07C232.907,82.896,232.637,79.167,230.69,76.244z
		 M77.052,247.5c0-77.562,55.276-142.106,128.676-153.95L96.609,323.836C83.769,300.625,77.052,274.555,77.052,247.5z"/>
	<path d="M379.758,159.47c-14.726-25.856-35.838-47.638-61.055-62.99c-3.088-1.878-6.947-1.944-10.1-0.176
		c-3.15,1.771-5.101,5.104-5.101,8.718v155.25l-37.121-38.056l0.002-78.823c0-4.677-3.242-8.729-7.806-9.756
		c-4.562-1.026-9.229,1.247-11.231,5.474l-53.493,112.893c-1.468,3.099-1.247,6.732,0.586,9.629
		c1.833,2.897,5.022,4.653,8.451,4.653h53.49c5.522,0,10-4.477,10-10l0-5.428l33.152,33.986l-33.152,33.987v-5.427
		c0-5.522-4.478-10-10-10h-80.556c-3.864,0-7.382,2.227-9.037,5.718l-34.673,73.174c-2.129,4.492-0.635,9.866,3.507,12.614
		c28.086,18.638,60.722,28.488,94.377,28.488c95.364,0,172.948-78.907,172.948-175.898
		C402.948,216.548,394.929,186.107,379.758,159.47z M246.383,187.853l-0.002,58.433h-27.686L246.383,187.853z M230,403.398
		c-26.83,0-52.927-7.093-75.998-20.587l28.15-59.407h64.229v19.999c0,0.019,0.003,0.036,0.003,0.055
		c0.002,0.357,0.022,0.715,0.062,1.07c0.009,0.075,0.025,0.149,0.035,0.225c0.038,0.278,0.084,0.556,0.146,0.831
		c0.025,0.112,0.057,0.221,0.085,0.331c0.062,0.238,0.13,0.475,0.209,0.708c0.037,0.109,0.077,0.216,0.117,0.323
		c0.089,0.233,0.186,0.464,0.293,0.692c0.045,0.095,0.088,0.189,0.136,0.283c0.119,0.234,0.25,0.464,0.388,0.689
		c0.049,0.08,0.094,0.161,0.146,0.239c0.151,0.232,0.317,0.458,0.489,0.68c0.05,0.064,0.095,0.132,0.147,0.194
		c0.198,0.241,0.41,0.474,0.634,0.7c0.033,0.033,0.062,0.069,0.095,0.103c0.011,0.011,0.021,0.023,0.032,0.034
		c0.257,0.25,0.524,0.481,0.8,0.699h0c0.221,0.174,0.45,0.338,0.685,0.493c0.121,0.08,0.246,0.15,0.37,0.225
		c0.133,0.08,0.266,0.161,0.404,0.234c0.129,0.069,0.261,0.133,0.392,0.196c0.141,0.068,0.283,0.134,0.428,0.195
		c0.128,0.055,0.256,0.106,0.386,0.155c0.157,0.059,0.317,0.112,0.478,0.164c0.122,0.039,0.243,0.078,0.366,0.112
		c0.177,0.049,0.356,0.089,0.537,0.129c0.112,0.024,0.223,0.052,0.335,0.072c0.202,0.037,0.407,0.063,0.614,0.087
		c0.094,0.012,0.187,0.028,0.281,0.036c0.285,0.026,0.574,0.04,0.865,0.041c0.013,0,0.026,0.002,0.04,0.002c0,0,0.001,0,0.002,0
		c0,0,0.001,0,0.002,0h57.119c5.522,0,10-4.478,10-10V124.146c37.055,29.315,59.445,75.057,59.445,123.354
		C382.948,333.463,314.336,403.398,230,403.398z M303.503,309.416v23.987h-23.398L303.503,309.416z"/>
</g>
<g>
</g>
<g>
</g>
<g>
</g>
<g>
</g>
<g>
</g>
<g>
</g>
<g>
</g>
<g>
</g>
<g>
</g>
<g>
</g>
<g>
</g>
<g>
</g>
<g>
</g>
<g>
</g>
<g>
</g>
</svg>
