<?xml version="1.0" encoding="iso-8859-1"?>
<!-- Generator: Adobe Illustrator 17.1.0, SVG Export Plug-In . SVG Version: 6.00 Build 0)  -->
<!DOCTYPE svg PUBLIC "-//W3C//DTD SVG 1.1//EN" "http://www.w3.org/Graphics/SVG/1.1/DTD/svg11.dtd">
<svg version="1.1" id="Capa_1" xmlns="http://www.w3.org/2000/svg" xmlns:xlink="http://www.w3.org/1999/xlink" x="0px" y="0px"
	 viewBox="0 0 471 471" style="enable-background:new 0 0 471 471;" xml:space="preserve">
<g>
	<path d="M461,225.5h-8.322c-19.452-30.293-26.999-58.016-24.746-90.929l7.351-4.298c4.768-2.788,6.372-8.912,3.585-13.681
		c-2.787-4.767-8.911-6.375-13.681-3.585l-7.358,4.303c-30.256-14.327-49.813-33.884-64.139-64.14l4.302-7.358
		c2.787-4.769,1.183-10.893-3.585-13.681c-4.771-2.79-10.894-1.183-13.681,3.585l-4.297,7.349c-3.695,0.25-7.337,0.386-10.867,0.386
		c-28.153,0.001-53.045-7.784-80.063-25.127V10c0-5.522-4.478-10-10-10s-10,4.478-10,10v8.324
		c-27.016,17.342-51.907,25.126-80.063,25.127c-3.53,0-7.171-0.136-10.867-0.386l-4.297-7.349
		c-2.787-4.768-8.911-6.373-13.681-3.585c-4.768,2.788-6.372,8.912-3.585,13.681l4.302,7.358
		c-14.326,30.256-33.883,49.813-64.139,64.14l-7.358-4.303c-4.771-2.788-10.894-1.184-13.681,3.585s-1.183,10.893,3.585,13.681
		l7.351,4.298c2.252,32.913-5.294,60.636-24.746,90.929H10c-5.522,0-10,4.478-10,10s4.478,10,10,10h8.322
		c19.452,30.293,26.999,58.016,24.746,90.929l-7.351,4.298c-4.768,2.788-6.372,8.912-3.585,13.681
		c1.86,3.181,5.205,4.954,8.643,4.954c1.714,0,3.451-0.441,5.038-1.369l7.358-4.303c30.256,14.327,49.813,33.884,64.139,64.14
		l-4.302,7.358c-2.787,4.769-1.183,10.893,3.585,13.681c1.587,0.928,3.324,1.369,5.038,1.369c3.438,0,6.782-1.773,8.643-4.954
		l4.297-7.349c3.696-0.25,7.337-0.386,10.867-0.386c28.154,0,53.046,7.784,80.063,25.127V461c0,5.522,4.478,10,10,10s10-4.478,10-10
		v-8.324c27.017-17.343,51.908-25.127,80.063-25.127c3.53,0,7.172,0.136,10.867,0.386l4.297,7.349
		c1.86,3.181,5.205,4.954,8.643,4.954c1.714,0,3.451-0.441,5.038-1.369c4.768-2.788,6.372-8.912,3.585-13.681l-4.302-7.358
		c14.326-30.256,33.883-49.813,64.139-64.14l7.358,4.303c1.587,0.928,3.324,1.369,5.038,1.369c3.438,0,6.782-1.773,8.643-4.954
		c2.787-4.769,1.183-10.893-3.585-13.681l-7.351-4.298c-2.252-32.913,5.294-60.636,24.746-90.929H461c5.522,0,10-4.478,10-10
		S466.522,225.5,461,225.5z M429.332,225.5h-67.349c-9.231-15.022-13.055-28.994-12.357-45.144l57.937-33.875
		C407.74,174.261,414.73,199.619,429.332,225.5z M151.301,296.314l56.306-32.922l-32.921,56.307
		C168.376,310.278,160.722,302.623,151.301,296.314z M319.699,174.686l-56.306,32.922l32.921-56.307
		C302.624,160.722,310.278,168.377,319.699,174.686z M245.5,198.584v-66.771c11.029,5.342,22.044,8.388,33.586,9.328L245.5,198.584z
		 M225.5,198.584l-33.586-57.442c11.542-0.941,22.557-3.987,33.586-9.328V198.584z M174.686,151.301l32.921,56.307l-56.306-32.922
		C160.722,168.377,168.376,160.722,174.686,151.301z M198.584,225.5h-66.749c5.343-11.004,8.386-21.982,9.32-33.578L198.584,225.5z
		 M198.584,245.5l-57.429,33.578c-0.933-11.596-3.977-22.574-9.32-33.578H198.584z M225.5,272.416v66.771
		c-11.029-5.342-22.044-8.388-33.586-9.328L225.5,272.416z M245.5,272.416l33.586,57.442c-11.542,0.94-22.557,3.986-33.586,9.328
		V272.416z M296.314,319.699l-32.921-56.307l56.306,32.922C310.278,302.623,302.624,310.278,296.314,319.699z M272.416,245.5h66.749
		c-5.343,11.004-8.386,21.982-9.32,33.578L272.416,245.5z M272.416,225.5l57.429-33.578c0.933,11.596,3.977,22.574,9.32,33.578
		H272.416z M397.42,129.243l-57.901,33.854c-14.518-7.31-24.306-17.099-31.616-31.616l33.854-57.9
		C355.42,97.697,373.303,115.58,397.42,129.243z M324.516,63.442l-33.875,57.936c-1.243,0.054-2.478,0.094-3.679,0.094
		c-14.533,0-27.507-3.88-41.462-12.452V41.658C271.465,56.283,296.967,63.271,324.516,63.442z M225.5,41.658v67.361
		c-13.954,8.572-26.929,12.452-41.462,12.452c-1.202,0-2.437-0.04-3.679-0.094l-33.875-57.937
		C174.034,63.269,199.536,56.282,225.5,41.658z M129.243,73.58l33.854,57.9c-7.31,14.518-17.099,24.307-31.616,31.616L73.58,129.243
		C97.697,115.58,115.58,97.697,129.243,73.58z M63.438,146.481l57.937,33.875c0.698,16.149-3.126,30.121-12.357,45.144H41.668
		C56.27,199.619,63.26,174.261,63.438,146.481z M41.668,245.5h67.349c9.231,15.022,13.055,28.994,12.357,45.144l-57.937,33.875
		C63.26,296.739,56.27,271.381,41.668,245.5z M73.58,341.757l57.901-33.854c14.518,7.31,24.306,17.099,31.616,31.616l-33.854,57.9
		C115.58,373.303,97.697,355.42,73.58,341.757z M146.484,407.558l33.875-57.936c1.243-0.054,2.478-0.094,3.679-0.094
		c14.533,0,27.507,3.88,41.462,12.452v67.361C199.536,414.717,174.033,407.73,146.484,407.558z M245.5,429.342V361.98
		c13.955-8.572,26.929-12.452,41.462-12.452c1.202,0,2.437,0.04,3.679,0.094l33.875,57.936
		C296.967,407.73,271.464,414.717,245.5,429.342z M341.757,397.42l-33.854-57.9c7.31-14.518,17.099-24.307,31.616-31.616
		l57.901,33.854C373.303,355.42,355.42,373.303,341.757,397.42z M407.563,324.519l-57.937-33.875
		c-0.698-16.149,3.126-30.121,12.357-45.144h67.349C414.73,271.381,407.74,296.739,407.563,324.519z"/>
</g>
<g>
</g>
<g>
</g>
<g>
</g>
<g>
</g>
<g>
</g>
<g>
</g>
<g>
</g>
<g>
</g>
<g>
</g>
<g>
</g>
<g>
</g>
<g>
</g>
<g>
</g>
<g>
</g>
<g>
</g>
</svg>
