<?xml version="1.0" encoding="utf-8"?>
<!-- Generator: Adobe Illustrator 17.1.0, SVG Export Plug-In . SVG Version: 6.00 Build 0)  -->
<!DOCTYPE svg PUBLIC "-//W3C//DTD SVG 1.1//EN" "http://www.w3.org/Graphics/SVG/1.1/DTD/svg11.dtd">
<svg version="1.1" id="bird" xmlns="http://www.w3.org/2000/svg" xmlns:xlink="http://www.w3.org/1999/xlink" x="0px" y="0px"
	 viewBox="0 0 79.9995 79.998" enable-background="new 0 0 79.9995 79.998" xml:space="preserve">
<circle id="bird-label" fill="#7C4D46" cx="39.9995" cy="39.999" r="39.999"/>
<g id="bird-bird">
	<path fill="#F2E6D8" d="M34.4873,26.0591c0,0,2.876,0.017,4.6997,1.4961c0,0,4.9648,4.4047,6.4688,4.1376
		c0,0,3.0429-1.3584,0.3535-4.7075c0,0-6.961-6.019-6.5254-12.7685c0,0-0.2583-1.7222-1.4859,0.5268
		c0,0-0.8618,1.6436-0.3354,3.2408c0,0-3.3814-2.272-1.5708,1.8642c0,0-3.2808-1.1245-0.3555,2.4932
		c0,0-3.8901-0.5742-0.5268,2.2456C35.2095,24.5874,31.4956,25.5571,34.4873,26.0591z"/>
	<path fill="#F2E6D8" d="M55.7075,28.6474c-2.4404-0.5962-8.3496,3.3374-8.3496,3.3374c-3.3057,1.9673-4.9893,0.0987-4.9893,0.0987
		c-4.8994-5.0816-7.6411-5.1587-7.6411-5.1587c-6.6001-0.3472-10.5005-3.6196-10.5005-3.6196
		c-5.4091-2.7911,0.7246,3.0722,0.7246,3.0722c-4.351,0.0723,2.5411,3.2583,2.5411,3.2583
		c-5.5484,1.2212,1.2793,2.7573,1.2793,2.7573c-5.3213,1.1202,1.7509,2.4878,1.7509,2.4878
		c-4.1709,2.3164,1.7852,2.0928,1.7852,2.0928c-4.1943,3.0855,1.1689,2.1621,1.1689,2.1621
		c-3.021,3.4053,1.7715,1.6104,1.7715,1.6104c-3.3965,2.9345,1.6402,1.7832,1.6402,1.7832
		c-2.9146,3.6269,1.1479,2.1162,1.1479,2.1162c-1.7998,0.7842-2.9326,4.2881-2.9326,4.2881
		c-0.3584,3.1924-14.0288,6.7275-14.0288,6.7275c-3.6035,1.6748,0.2685,2.9092,0.2685,2.9092
		c-2.6699,2.8642,1.6914,2.3525,1.6914,2.3525c-1.3281,3.4287,2.087,2.168,2.087,2.168c-0.3252,3.6113,2.706,1.3936,2.706,1.3936
		c0.7896,3.7988,2.9146,0.8085,2.9146,0.8085c4.895-6.0029,6.9643-10.7548,6.9643-10.7548c1.209-3.1036,3.0537-3.0928,3.0537-3.0928
		c11.2534-1.9834,12.5503-12.001,12.5503-12.001c1.1016-6.9482,7.1475-7.2148,7.1475-7.2148
		c-0.7569-0.458-2.6035-1.063-2.6035-1.063C57.3901,29.0024,55.7075,28.6474,55.7075,28.6474z M55.9966,31.5986
		c0,0-0.9668,0.0142-0.4385-0.8252C55.5581,30.7734,56.5649,30.8457,55.9966,31.5986z"/>
</g>
</svg>
