<?xml version="1.0" encoding="utf-8"?>
<!-- Generator: Adobe Illustrator 17.1.0, SVG Export Plug-In . SVG Version: 6.00 Build 0)  -->
<!DOCTYPE svg PUBLIC "-//W3C//DTD SVG 1.1//EN" "http://www.w3.org/Graphics/SVG/1.1/DTD/svg11.dtd">
<svg version="1.1" id="deer" xmlns="http://www.w3.org/2000/svg" xmlns:xlink="http://www.w3.org/1999/xlink" x="0px" y="0px"
	 viewBox="0 0 79.998 80" enable-background="new 0 0 79.998 80" xml:space="preserve">
<circle id="deer-label" fill="#8BD6D0" cx="39.999" cy="40" r="40"/>
<g id="deer-deer">
	<path fill="#FCF9F5" d="M64.4599,57.9209l-1.3086-1.3057c0,0-0.4316-0.5361-1.1289-0.4218
		c-0.3964,0.0664-0.6162,0.1132-0.707,0.1347l-0.8037,2.5655c0.0137,0.0097,0.0283,0.0224,0.0342,0.0253
		c0.4052,0.2969,0.833,0.836,1.7451,0.752c0.8076-0.0723,1.6641-0.2393,1.6641-0.2393l-1.1631-1.3574L64.4599,57.9209z"/>
	<path fill="#7C4D46" d="M59.3418,54.8008c-1.0196-0.9492-1.2158-1.3311-1.7705-2.1026c-0.2969-0.4101-0.5703-1.0273-1.5899-0.9316
		c-1.0215,0.0928-2.8984,0.1377-3.0976-1.2871c-0.3057-2.1563-0.795-5.3877-0.795-5.3877s-0.083-1.3857-0.7207-2.6699
		l-0.3457-1.1055c0.2168-0.5156,0.4375-1.0532,0.6289-1.5435c0.5489-1.4228,1.0215-1.9243,1.668-2.5336
		c0.4102-0.3863,0.919-0.6988,0.8447-1.0494c-0.0898-0.4199-1.1904,0.0235-3.208,0.6285c-0.7138,0.2153-1.0947,0.788-1.3222,1.2534
		c-0.2237,0.4541-0.5957,1.207-0.9776,1.9756c-2.7773-1.1031-5.5097,0.4253-9.6196,1.104
		c-0.1655,0.0293-0.3306,0.0537-0.6465,0.0947v10.5361c0.4995-0.0976,0.752-0.1777,0.9946-0.2705
		c0.1123-0.042,0.2242-0.0849,0.334-0.1318c0.1817-0.0781,0.356-0.1533,0.5249-0.2285c2.1617-0.961,3.23-1.5342,4.9077-1.5147
		l2.4698,3.7119c0,0,0.8261,1.333,2.6631,1.2715c1.8359-0.0615,4.7529-0.166,4.7529-0.166s3.6514,2.9824,5.0254,4.082l0.7822-2.4902
		C60.4941,55.791,59.9609,55.377,59.3418,54.8008z"/>
	<path fill="#7C4D46" d="M38.7451,19.4448c-0.5649-0.3598-0.9946,0.6079-1.7388,1.9644c-0.998,1.8159-2.186,2.3535-2.9292,1.8437
		c-0.8974-0.6147-0.4453-2.0903-0.1875-2.8652c0.2178-0.6646,0.8252-1.7949,0.2422-2.1191
		c-0.4785-0.2652-0.8872,0.3818-1.2842,1.5932c-0.3989,1.21-0.5254,2.0879-0.33,3.9111c0.0791,0.7427-0.1773,1.2837-0.5718,1.9117
		c-0.5274,0.8452-1.6612,1.9716-2.2647,2.4668c-0.1123,0.0918-0.226,0.1797-0.3393,0.2622
		c-0.8897-0.9365-0.688-2.0137-0.5142-2.8745c0.1275-0.6128,0.125-1.0596-0.2461-1.1924c-0.5073-0.1826-0.7754,0.4116-0.9819,1.4028
		c-0.3789,1.8345,0.289,2.9395,0.605,3.3433c-1.1534,0.5527-2.4077,0.7827-3.5747,0.6518c-0.6192-0.0805-1.459-0.2661-2.1065-0.9077
		c-0.4048-0.4028-0.73-0.8647-0.9477-2.1616c-0.1597-0.9566-0.0567-1.7734-0.646-1.8003c-0.5601-0.0249-0.6036,1.0254-0.4956,1.8013
		c0.142,1.0102,0.373,1.8261,0.7983,2.4502c0.5098,0.749,1.2163,1.1938,1.8198,1.4609l-0.5942,2.4814
		c-0.3902,0.0308-0.8423,0.1446-1.336,0.419c-1.539,0.8584-3.6059,1.7983-4.478,2.145c-0.8716,0.3477-1.2876,0.5352-1.0317,1.3692
		c0.2241,0.726,0.4731,1.4516,1.7627,1.1665c1.2881-0.2857,2.4902-0.2051,3.1343,0.3335c0.6406,0.5385,0.9775,1.9326,0.8198,2.9785
		c-0.1533,1.042-0.3443,2.125,0.9433,3.5029c1.1744,1.2568,3.1167,3.3174,3.1167,3.3174s0.2696,0.3262,0.7998,0.7822
		c-1.0395,0.3779-2.8217,1.0342-3.7041,1.3994c-1.4589,0.6035-2.164,2.2129-1.0058,3.6699c1.0151,1.2784,3.228,4.1573,3.7554,4.8438
		l0.5649-2.3535c-0.1616-0.4053-0.4077-0.8018-0.7002-1.2324c-0.7563-1.1055-1.709-2.5157-1.709-2.5157s2.0274-0.417,4.3814-0.6601
		c0.9463-0.0996,1.7592-0.4864,2.3921-0.9121c0.4418,0.1425,0.9208,0.2646,1.4306,0.3515c0.105,0.0215,0.2124,0.043,0.3233,0.0625
		c0.3896,0.0635,0.77,0.1153,1.145,0.166V41.376c-1.4727-0.1836-2.5572-0.5537-3.3296-0.9346
		c-2.9507-1.4482-3.8496-4.5376-4.5801-5.8115c-0.1465-0.2578-0.2886-0.4634-0.4199-0.6284l0.708-3.0191
		c0.1587-0.0151,0.2578-0.0337,0.2578-0.0337c4.6636-0.5337,6.5513-3.7422,7.1509-4.5757c0.6015-0.8339,0.894-1.3374,1.9394-1.6118
		c1.5972-0.4189,2.3506-1.2153,3.2246-2.7197C38.6753,20.9028,39.2822,19.7886,38.7451,19.4448z"/>
	<path fill="#FCF9F5" d="M25.5586,59.8066c0.4653,0.8858,1.5595,1.9834,1.5595,1.9834l0.5923-2.458l-1.6533-1.6064L25.5586,59.8066z
		"/>
	<path fill="#F15B5B" d="M33.5654,52.2412c0.4273,0,3.896,0,4.3232,0c0-0.4687,0-10.7031,0-11.1719c-0.4272,0-3.8959,0-4.3232,0
		C33.5654,41.5381,33.5654,51.7725,33.5654,52.2412z"/>
</g>
</svg>
