<?xml version="1.0" encoding="utf-8"?>
<!-- Generator: Adobe Illustrator 17.1.0, SVG Export Plug-In . SVG Version: 6.00 Build 0)  -->
<!DOCTYPE svg PUBLIC "-//W3C//DTD SVG 1.1//EN" "http://www.w3.org/Graphics/SVG/1.1/DTD/svg11.dtd">
<svg version="1.1" id="gingerbread" xmlns="http://www.w3.org/2000/svg" xmlns:xlink="http://www.w3.org/1999/xlink" x="0px"
	 y="0px" viewBox="0 0 79.9995 79.9995" enable-background="new 0 0 79.9995 79.9995" xml:space="preserve">
<circle id="gingerbread-label" fill="#F2E6D8" cx="39.9995" cy="39.9997" r="39.9997"/>
<g id="gingerbread-gingerbread">
	<path fill="#7C4D46" d="M58.2407,38.8476c0.0059,0.0123,0.0225,0.0186,0.0283,0.0308l-10.1806-8.0928
		c-0.2432-0.2671-0.2891-0.4253-0.2891-0.4253c0.0479-0.042,0.1465-0.1997,0.2373-0.3525c1.6162-1.9697,2.4717-4.3486,2.4717-6.8672
		c0-5.9985-4.8731-10.8745-10.8726-10.8745c-5.9941,0-10.8711,4.876-10.8711,10.8745c0,1.8364,0.4805,3.6685,1.396,5.2935
		c-0.0097-0.0152-0.1113-0.334-0.1176-0.3487l0.5463,1.1094c0.0743,0.0781,0.1587,0.1631,0.1587,0.1631c-0.0024,0-0.0024,0-0.0024,0
		c0,0.0112,0.291,0.4268,0.291,0.4268c0.1035,0.1723,0.1519,0.3652,0.1519,0.5708c0,0.5229-0.3223,1.1284-0.9961,1.7651
		c-0.0054,0.0063-8.4649,6.7578-8.4649,6.7578c-0.8642,0.6377-2.1587,2.1904-2.1587,4.1895c0,0.625,0.1245,1.2998,0.4351,2.0039
		c1.3652,3.1015,3.9775,3.4521,5.166,3.208c0.0723-0.0157,0.1392-0.0323,0.2075-0.0655l4.2373-1.9375
		c0.2442-0.0644,1.0323-0.1533,1.3067,0.1172c0.2046,0.2002,0.2934,0.8379-0.0552,2.0264
		c-0.8691,2.9141-5.5684,11.3535-5.6167,11.4355c-0.0889,0.211-1.0684,2.67-0.1372,4.8457c0.5005,1.1553,1.4062,2.001,2.7158,2.5127
		c4.02,1.5909,6.1436-0.8173,7.3926-2.7568c0.0312-0.0449,0.0581-0.0967,0.0747-0.1465l3.0308-7.2676
		c0.0385-0.0908,0.3056-0.6699,1.6782-0.8164c1.3574,0.1465,1.6338,0.7256,1.6396,0.751l3.0557,7.333
		c0.0234,0.0498,0.0469,0.1016,0.0791,0.1465c1.2441,1.9395,3.3711,4.3477,7.3955,2.7568c1.3037-0.5117,2.2139-1.3574,2.709-2.5127
		c0.9346-2.1757-0.042-4.6347-0.0869-4.7441c-0.0928-0.1836-4.794-8.623-5.6612-11.5371c-0.3515-1.1885-0.2597-1.8262-0.0605-2.0264
		c0.2744-0.2705,1.0625-0.1816,1.4258-0.0742l4.125,1.8945c0.0615,0.0332,0.1308,0.0498,0.2031,0.0655
		c1.1875,0.2441,3.8037-0.1065,5.166-3.208C61.2856,42.1352,59.4097,39.7173,58.2407,38.8476z"/>
	<g>
		<circle fill="#F2E6D8" cx="35.8178" cy="21.5591" r="1.7285"/>
		<path fill="#F2E6D8" d="M44.6069,21.5591c0,0.956-0.7754,1.728-1.7256,1.728c-0.9541,0-1.7285-0.772-1.7285-1.728
			c0-0.9546,0.7744-1.7276,1.7285-1.7276C43.8315,19.8315,44.6069,20.6045,44.6069,21.5591z"/>
	</g>
	<g>
		<path fill="#F15B5B" d="M41.1528,35.6802c0,0.9575-0.7729,1.729-1.7265,1.729c-0.9532,0-1.731-0.7715-1.731-1.729
			c0-0.9493,0.7778-1.7207,1.731-1.7207C40.3799,33.9595,41.1528,34.7309,41.1528,35.6802z"/>
		<path fill="#F15B5B" d="M41.1528,42.271c0,0.9599-0.7729,1.7275-1.7265,1.7275c-0.9532,0-1.731-0.7676-1.731-1.7275
			c0-0.9551,0.7778-1.7212,1.731-1.7212C40.3799,40.5498,41.1528,41.3159,41.1528,42.271z"/>
		<path fill="#F15B5B" d="M41.1528,48.3891c0,0.962-0.7729,1.7334-1.7265,1.7334c-0.9532,0-1.731-0.7714-1.731-1.7334
			c0-0.9492,0.7778-1.7207,1.731-1.7207C40.3799,46.6684,41.1528,47.4399,41.1528,48.3891z"/>
	</g>
	<path fill="#F2E6D8" d="M42.9194,26.9043c-3.7075,3.4399-6.8222,0.1753-6.9546,0.0342c-0.2363-0.2549-0.6333-0.2696-0.8886-0.0342
		c-0.2505,0.2363-0.2701,0.6313-0.0362,0.8891c0.0703,0.0723,1.7237,1.8472,4.1792,1.94c1.5889,0.063,3.1182-0.5801,4.5547-1.9087
		c0.2578-0.2315,0.2695-0.6274,0.0371-0.8862C43.5747,26.6836,43.1772,26.6689,42.9194,26.9043z"/>
</g>
</svg>
