<?xml version="1.0" encoding="utf-8"?>
<!-- Generator: Adobe Illustrator 17.1.0, SVG Export Plug-In . SVG Version: 6.00 Build 0)  -->
<!DOCTYPE svg PUBLIC "-//W3C//DTD SVG 1.1//EN" "http://www.w3.org/Graphics/SVG/1.1/DTD/svg11.dtd">
<svg version="1.1" id="hipster-deer" xmlns="http://www.w3.org/2000/svg" xmlns:xlink="http://www.w3.org/1999/xlink" x="0px"
	 y="0px" viewBox="0 0 79.9995 79.998" enable-background="new 0 0 79.9995 79.998" xml:space="preserve">
<circle id="hipster-deer-label" fill="#43BFBD" cx="40" cy="39.999" r="39.999"/>
<g id="hipster-deer-hipster-deer">
	<g>
		<path fill="#8BD6D0" d="M39.0434,66.3896c0,0-0.0039,0-0.0068,0c-0.2519,0-0.5068-0.0097-0.7544-0.0156
			c-0.8955-0.0459-1.7593-0.1563-2.5874-0.334c-0.2373-0.0517-0.4697-0.1133-0.6997-0.166
			c-0.1309-0.0361-0.2622-0.0732-0.3857-0.1094l-0.1548,0.5674l0.4609,10.3096c1.6611,0.2304,3.3574,0.3564,5.0816,0.3564
			c0.7778,0,1.5454-0.0322,2.3051-0.0781l-2.8574-10.5391C39.311,66.3847,39.1797,66.3896,39.0434,66.3896z"/>
		<path fill="#8BD6D0" d="M33.2475,65.2871c-0.1499-0.0606-0.2993-0.1192-0.4418-0.1817c-0.8233-0.3681-1.564-0.8105-2.2129-1.2988
			c-0.2139-0.1621-0.418-0.3262-0.6089-0.4941c-0.2012-0.1846-0.3921-0.3682-0.5694-0.5596
			c-0.1342-0.1475-0.2475-0.2978-0.3686-0.4512l-0.627,1.126l-5.291,9.5108c2.2988,1.1748,4.7305,2.1201,7.2739,2.7988L33.041,66.04
			L33.2475,65.2871z"/>
		<path fill="#8BD6D0" d="M29.9839,63.3125c0.1909,0.1679,0.395,0.332,0.6089,0.4941c0.6489,0.4883,1.3896,0.9307,2.2129,1.2988
			c0.1425,0.0625,0.2919,0.1211,0.4418,0.1817c0.0928,0.0381,0.1773,0.0762,0.2701,0.1123c0.2353,0.084,0.4707,0.1728,0.7119,0.2529
			c0.0185,0.0039,0.0537,0.0098,0.0722,0.0244c0.1021,0.0303,0.2066,0.0567,0.3077,0.0879
			c0.1235,0.0362,0.2548,0.0733,0.3857,0.1094c0.23,0.0527,0.4624,0.1143,0.6997,0.166c0.8281,0.1777,1.6919,0.2881,2.5874,0.334
			c0.2476,0.0059,0.5025,0.0156,0.7544,0.0156c0.0029,0,0.0068,0,0.0068,0c0.1363,0,0.2676-0.0049,0.4014-0.0088
			c0.1084-0.0029,0.2197-0.0039,0.3272-0.0068c3.9599-0.1807,7.4355-1.7734,9.2265-4.0039
			c0.7422-0.9287,1.2071-1.9639,1.2871-3.0527c0.0108-0.1172,0.0127-0.2354,0.0127-0.3516c0-0.0215,0-0.0391,0-0.0576
			c-0.0019-0.1563-0.0127-0.3076-0.0273-0.4737c-0.1397-1.1796-0.7051-2.2988-1.6192-3.2802
			c-0.2558,0.2578-0.5302,0.499-0.8046,0.7265c-0.0762,0.0606-0.1553,0.1143-0.2295,0.1729
			c-0.0762,0.0625-0.1592,0.1162-0.2315,0.1748c-2.2217,1.6279-4.9394,2.4101-7.9155,2.4101c-0.6157,0-1.2246-0.038-1.8262-0.1025
			c-0.0586-0.0078-0.1157-0.0156-0.1797-0.0215c-2.438-0.3037-4.7075-1.1787-6.6264-2.6601
			c-0.0767-0.0664-0.1631-0.1348-0.2456-0.2012c-0.0835-0.0684-0.1724-0.1309-0.2476-0.2061
			c-0.2168-0.1816-0.4282-0.3789-0.6294-0.5781c-0.8935,0.8701-1.5137,1.8623-1.7817,2.9229
			c-0.0479,0.1943-0.0777,0.3799-0.1084,0.5752c-0.0147,0.1582-0.0342,0.3164-0.0362,0.4775c0,0.042-0.0044,0.082-0.0044,0.1211
			c0,0.835,0.2281,1.6504,0.6358,2.4053c0.1743,0.3242,0.3901,0.6308,0.625,0.9306c0.1211,0.1534,0.2344,0.3037,0.3686,0.4512
			C29.5918,62.9443,29.7827,63.1279,29.9839,63.3125z"/>
	</g>
	<g>
		<path fill="#7C4D46" d="M33.0356,17.54c0.7544-0.1792,2.0039,0.8008,1.6016,3.1182c-0.3984,2.3164-1.4702,2.8042-1.9141,3.2055
			c-0.4477,0.4024-1.0234,1.6045-0.3115,2.6744c0.7119,1.0678,1.957,2.4936,1.957,2.4936l0.0093,0.0073
			c-0.3804,0.3384-0.7324,0.7417-1.0356,1.2203l-0.0391-0.0254l-4.0571-5.5664c0,0-1.1109-1.2505-3.25-0.4014
			c-2.1353,0.8462-4.231-1.8706-4.231-1.8706s-0.6201-1.5156,0.2227-1.6929c0.8515-0.1787,1.873,1.603,1.873,1.603
			s1.3784,1.5147,2.6719,0.3584c1.293-1.1621-1.0234-3.6557-1.603-4.2778c-0.5791-0.624-2.9849-2.0933-1.7368-5.7891
			c1.2485-3.6967,2.4043-4.2763,2.4043-4.2763s1.2451-0.4883,0.7583,1.3359c-0.4903,1.8262-2.0948,5.0318-0.67,6.9468
			c1.4283,1.918,2.4497,1.3823,3.2979,0.2681c0.8428-1.1133,1.4233-2.4048,0.5806-3.2085
			c-0.8457-0.8008-0.4043-0.9771-0.0909-1.2906c0.3096-0.3105,1.334-0.1777,2.0484,1.3833
			c0.7114,1.5572-1.1587,4.3614-1.6953,5.1651c-0.5337,0.8012-1.2012,2.7182,0.2251,3.5171
			c1.4213,0.8017,2.6718-0.4439,2.4921-1.8697C32.3672,19.1435,32.2754,17.7197,33.0356,17.54z"/>
		<path fill="#7C4D46" d="M59.0327,20.4365c0.8467,0.1792,0.2227,1.6948,0.2227,1.6948s-2.0918,2.7158-4.2315,1.8697
			c-2.1357-0.8462-3.25,0.4023-3.25,0.4023l-4.0303,5.5386c-0.2871-0.5152-0.625-0.94-0.9921-1.293
			c0.3134-0.3608,1.2753-1.4941,1.8632-2.376c0.71-1.0688,0.1338-2.2719-0.3164-2.6733c-0.4433-0.4014-1.5097-0.8916-1.9121-3.2056
			c-0.4023-2.3164,0.8457-3.2964,1.6006-3.1177c0.7617,0.1783,0.6709,1.6021,0.4893,3.0289
			c-0.1778,1.4248,1.0732,2.6723,2.4951,1.8686c1.4277-0.8008,0.7568-2.7134,0.2246-3.5171
			c-0.5361-0.8027-2.4063-3.6059-1.6943-5.168c0.7138-1.559,1.7373-1.6918,2.0517-1.3784c0.3096,0.3106,0.7549,0.4903-0.0908,1.2915
			c-0.8467,0.8008-0.2666,2.0938,0.5791,3.2056c0.8467,1.1143,1.8701,1.6509,3.2939-0.2671c1.4278-1.915-0.1777-5.1226-0.665-6.9468
			c-0.4912-1.8261,0.7559-1.3379,0.7559-1.3379s1.1591,0.5787,2.4033,4.2764c1.249,3.6958-1.1572,5.168-1.7354,5.792
			c-0.5791,0.6201-2.8926,3.1152-1.6025,4.2725c1.291,1.1596,2.6719-0.357,2.6719-0.357S58.187,20.2597,59.0327,20.4365z"/>
	</g>
	<path fill="#FCF9F5" d="M56.8227,24.9809l-9.1679,4.5396c0,0-5.9629-1.8911-7.9541-1.8911c-2.0396,0-8.1621,1.8911-8.1621,1.8911
		l-9.169-4.5396c0,0-7.7451,13.3599,8.4653,12.5679c-7.7348,7.6172-1.3876,22.1387,8.4039,22.8145c0,0,0.164,0,0.2153,0
		c9.6538,0.0195,17.2944-13.8145,8.397-22.8448C64.73,38.6142,56.8227,24.9809,56.8227,24.9809z"/>
	<path fill="#F2E6D8" d="M23.3633,26.9536c0,0,7.6811,5.0815,6.31,8.9658C29.6733,35.9194,18.769,37.2021,23.3633,26.9536z"/>
	<path fill="#F2E6D8" d="M55.7436,26.9536c0,0-7.6845,5.0815-6.3144,8.9658C49.4292,35.9194,60.3374,37.2021,55.7436,26.9536z"/>
	<path fill="#7C4D46" d="M33.7187,42.9394c0,0.6367-0.5166,1.1524-1.1552,1.1524c-0.6348,0-1.1485-0.5157-1.1485-1.1524
		c0-0.6338,0.5137-1.1513,1.1485-1.1513C33.2021,41.7881,33.7187,42.3056,33.7187,42.9394z"/>
	<path fill="#7C4D46" d="M45.2427,42.9394c0,0.6367,0.5205,1.1524,1.1533,1.1524c0.6357,0,1.1514-0.5157,1.1514-1.1524
		c0-0.6338-0.5157-1.1513-1.1514-1.1513C45.7632,41.7881,45.2427,42.3056,45.2427,42.9394z"/>
	<g>
		<path fill="#FFB8B8" d="M38.5464,53.6513c0.3086,0.125,0.5898,0.418,0.8037,0.7393c0.0205,0,0.0434-0.002,0.0669-0.0049
			c0.187-0.293,0.3613-0.6338,0.6543-0.7881c0.4961-0.2636,0.937-0.2802,1.3208-0.1523c0.1777-0.2442,0.291-0.5195,0.291-0.8145
			c0-0.9775-1.1021-1.7695-2.4546-1.7695c-1.3569,0-2.4526,0.792-2.4526,1.7695c0,0.3731,0.1621,0.7198,0.4355,1.0059
			C37.6035,53.4746,38.042,53.4453,38.5464,53.6513z"/>
		<path fill="#7C4D46" d="M48.8501,57.0635c-0.3682,1.5585-3.3242,0.7861-4.2471-0.5147c-0.3467-0.6074-1.1904-1.8701-2.5898-2.1641
			c-0.4951-0.1064-1.062-0.0898-1.7017,0.1221c-0.3838,0.127-0.6074,0.4053-0.8428,0.6465c-0.0341,0.001-0.062,0.0039-0.0888,0.0049
			c-0.2754-0.2637-0.6387-0.5049-1.0357-0.6065c-0.6479-0.167-1.2168-0.1455-1.7177-0.0127
			c-1.3179,0.3477-2.17,1.4639-2.7549,2.0664c-0.9639,1.3516-3.8741,1.8643-4.357,0.4581c-0.2138,1.916,4.9297,1.9902,7.4883,1.1406
			c1.4971-0.4971,2.1841-1.167,2.3472-1.8272C40.29,58.501,49.2954,59.915,48.8501,57.0635z"/>
	</g>
	<path fill="#F15B5B" d="M39.6904,40.4013c-1.0679,0-2.9692-0.7138-4.1919-1.166c-1.0337-0.3838-2.8496-0.6416-3.7627-0.6675
		c-2.374-0.0722-3.9824,0.0342-6.2397,0.4004c-0.1992,0.0332-0.2398,0.2066-0.2398,0.4107v1.1855
		c0,0.1475-0.0288,0.2857,0.0933,0.3692l0.4404,0.3349c0.189,0.1319,0.2764,0.3409,0.291,0.5703
		c0.2745,5.0459,1.5039,6.3077,5.459,6.5459c3.94,0.2334,6.1241-2.248,6.5567-4.5507c0.1772-0.9659,0.8613-1.4327,1.5957-1.4327
		c0.7397,0,1.4233,0.4668,1.603,1.4327c0.4287,2.3027,2.6201,4.7841,6.5635,4.5507c3.956-0.2382,5.1943-1.5,5.4707-6.5459
		c0.0127-0.2294,0.1338-0.4384,0.3222-0.5703l0.4639-0.3349c0.1221-0.0835,0.1797-0.2217,0.1797-0.3692v-1.1855
		c0-0.2041-0.124-0.3775-0.3262-0.4107c-2.2578-0.3662-3.9658-0.4726-6.3369-0.4004c-0.918,0.0259-2.7236,0.2837-3.7558,0.6675
		C42.6528,39.6875,40.7637,40.4013,39.6904,40.4013z M26.3628,40.5849c-0.126,0-0.2324-0.2031-0.2324-0.4541
		c0-0.2524,0.1064-0.456,0.2324-0.456c0.1279,0,0.228,0.2036,0.228,0.456C26.5908,40.3818,26.4907,40.5849,26.3628,40.5849z
		 M52.7886,40.1308c0-0.2524,0.0996-0.456,0.2314-0.456c0.1299,0,0.2315,0.2036,0.2315,0.456c0,0.251-0.1016,0.4541-0.2315,0.4541
		C52.8882,40.5849,52.7886,40.3818,52.7886,40.1308z M34.7143,46.958c-1.5786,0.9639-5.2412,0.5244-6.2387-0.2539
		c-1.0244-0.7949-1.9532-4.417-0.4571-6.2368c1.1636-1.4092,8.7212-0.5694,9.0162,1.3003
		C37.3589,43.7998,36.5347,45.8418,34.7143,46.958z M42.3481,41.7676c0.295-1.8697,7.8506-2.7095,9.0127-1.3003
		c1.4981,1.8198,0.5694,5.4419-0.456,6.2368c-0.9922,0.7783-4.6573,1.2178-6.2403,0.2539
		C42.8472,45.8418,42.0239,43.7998,42.3481,41.7676z"/>
	<path fill="#7C4D46" d="M36.2207,61.291c0.2734-0.6387,0.9336-1.7705,1.4683-2.4043c0.1518-0.1826,0.1547-0.4395-0.0249-0.5996
		l-0.0196-0.0195c0.2818-0.3272,0.6377-0.5752,0.9956-0.7627l0,0c0.1074-0.0567,0.2168-0.1075,0.3252-0.1573l0,0
		c0.0615-0.0244,0.126-0.0498,0.1836-0.0713c0.2549-0.0947,0.4868-0.1582,0.6748-0.2011c-0.0146-0.0362-0.0312-0.0742-0.0454-0.1084
		c-0.0063-0.0039-0.0063-0.0098-0.0093-0.0157c0-0.0019-0.0009-0.0019-0.0009-0.0039c-0.0313-0.0683-0.0621-0.1347-0.0962-0.2031
		c-0.001-0.0029-0.0049-0.0097-0.0074-0.0146c-0.0307-0.0694-0.0678-0.1368-0.1059-0.208c-0.001-0.001-0.001-0.0059-0.0025-0.0088
		v-0.001c-0.0278,0.0068-0.0512,0.0146-0.0732,0.0205c-0.167,0.042-0.3496,0.0986-0.5488,0.1748
		c-0.0327,0.0098-0.0679,0.0264-0.1031,0.0381c0,0,0,0-0.0019,0.0019c-0.5449,0.2198-1.1709,0.5655-1.6509,1.1329
		c-0.1772-0.0811-0.3984-0.0782-0.5405,0.0468c-1.3042,1.0811-2.2481,3.5508-2.2481,3.5508l-0.5395-1.3017
		c-0.1157-0.2735-0.4375-0.4141-0.7144-0.3116c0,0-0.6001,0.1494-0.9365,0.2754c-0.3271,0.126-0.8491,0.3819-0.8491,0.3819
		c-0.2788,0.1025-0.4746,0.4248-0.4068,0.7138c0.0826,0.3662,0.2408,0.9033,0.5088,1.5479
		c0.5108,1.2344,1.6548,1.6025,2.6309,1.2129C35.3076,63.5078,36.0122,61.7783,36.2207,61.291z"/>
</g>
</svg>
