<?xml version="1.0" encoding="utf-8"?>
<!-- Generator: Adobe Illustrator 17.1.0, SVG Export Plug-In . SVG Version: 6.00 Build 0)  -->
<!DOCTYPE svg PUBLIC "-//W3C//DTD SVG 1.1//EN" "http://www.w3.org/Graphics/SVG/1.1/DTD/svg11.dtd">
<svg version="1.1" id="santa-sleigh" xmlns="http://www.w3.org/2000/svg" xmlns:xlink="http://www.w3.org/1999/xlink" x="0px"
	 y="0px" viewBox="0 0 79.998 79.9995" enable-background="new 0 0 79.998 79.9995" xml:space="preserve">
<circle id="santa-sleigh-label" fill="#FFB8B8" cx="39.998" cy="39.9997" r="39.9997"/>
<g id="santa-sleigh-santa-sleigh">
	<path fill="#F15B5B" d="M45.6006,26.5151c-0.2071-0.2607-0.3526-0.5732-0.4151-0.9214c-0.0244-0.1279-0.0342-0.2544-0.0342-0.3803
		c0-0.3716,0.0967-0.7378,0.2891-1.063c-1.8057-0.9829-6.0903-2.773-9.4775,0.0757c1.6474,0.7983,4.9585,2.6552,7.2129,4.9458
		C44.0176,28.2485,45.0879,27.0776,45.6006,26.5151z"/>
	<path fill="#F15B5B" d="M45.7412,25.4917c0.1523,0.8389,0.957,1.3979,1.7969,1.2456c0.8379-0.1519,1.3935-0.9575,1.2412-1.7964
		c-0.1494-0.8389-0.958-1.394-1.792-1.2432c-0.4082,0.0733-0.7617,0.2989-0.9951,0.6397
		C45.7568,24.6758,45.6689,25.0864,45.7412,25.4917L45.7412,25.4917z"/>
	<g>
		<path fill="#FCF9F5" d="M32.1494,29.4741c0.0478,0,0.0908,0.0025,0.1362,0.0064c0.1011-0.001,1.5034,0.0146,2.46,1.4765
			c0.2095,0.3154,0.8501,0.6416,1.3701,0.4292c0.0845-0.0835,0.3877-0.414,0.7612-1.1577c0.2901-0.583,0.4107-1.2534,0.46-1.6445
			c-0.9233-0.6348-1.8189-1.1597-2.5801-1.5117l-0.415-0.1827c-0.0484-0.0205-0.0996-0.041-0.1485-0.0649
			c-0.2187,0.4531-0.4922,1.0205-0.4922,1.0205l-0.1103,0.2261l-0.2188-0.124c-0.038-0.0206-0.9853-0.5396-1.5131,0.2138
			c-0.1993,0.2827-0.2242,0.6592-0.0684,0.9595C31.872,29.2773,31.9961,29.3979,32.1494,29.4741z"/>
		<path fill="#FFFFFF" d="M33.8994,34.6948c1.2773-0.459,1.7798-0.8345,2.3618-1.2681c0.3735-0.2793,0.8037-0.5971,1.4824-0.9633
			c1.3848-0.7442,2.5586-0.8501,3.4683-0.7119c0,0,0-0.002,0-0.0054c-0.0869-0.0796-0.1768-0.1651-0.2691-0.2495l-0.2607-0.251
			c-0.9141-0.8408-1.9214-1.6528-2.9106-2.3594c-0.0669,0.4282-0.2051,1.0132-0.4746,1.5547
			c-0.396,0.7925-0.7315,1.165-0.8521,1.2827c-0.1445,0.3814-0.6035,1.0059-1.4858,0.9966
			c-0.876-0.0054-1.2554-0.3335-1.5918-0.6255c-0.1861-0.1587-0.3457-0.2978-0.583-0.3711
			c-0.2271-0.0713-0.419-0.1011-0.5914-0.1289c-0.1948-0.0303-0.3774-0.06-0.5478-0.1406c-0.3701,0.2695-0.749,0.7046-0.749,1.3794
			l-0.001,0.1743l-0.166,0.0518c-0.0064,0.0019-0.709,0.2187-1.0083,0.8925c-0.0908,0.2061-0.1358,0.4351-0.1358,0.687
			c0,0.1187,0.0088,0.2466,0.0328,0.3755C30.8701,35.0166,33.0928,34.9849,33.8994,34.6948z"/>
		<path fill="#FCF9F5" d="M20.5478,40.2241c0.4571,0.1133,0.9698,0.0513,1.4497-0.0757l0.0948-4.2866l-0.0205-0.0405
			c0,0-1.6934-0.1079-2.6299,1.5376C18.6577,38.7422,19.1963,39.8843,20.5478,40.2241z"/>
		<path fill="#FFFFFF" d="M32.268,31.1304c0.1758,0.0268,0.3975,0.0595,0.6553,0.1411c0.3335,0.1045,0.5459,0.2881,0.7525,0.4673
			c0.2998,0.2592,0.5859,0.5058,1.2851,0.5117c0.3848,0.0024,0.6348-0.1524,0.7988-0.3218c-0.5952,0-1.1723-0.3506-1.4096-0.7139
			c-0.8223-1.2588-2.0088-1.2627-2.0581-1.2627h-0.0205l-0.0176-0.0009c-0.3198-0.0464-0.4976,0.1372-0.5767,0.2514
			c-0.125,0.1856-0.1528,0.4302-0.0649,0.5811C31.768,31.0527,31.9121,31.0747,32.268,31.1304z"/>
		<path fill="#F15B5B" d="M29.854,38.9136c1.2114-2.0591,2.5937-2.021,4.3457-1.9727l0.9057,0.0156h8.2872
			c0.1621-0.5356,0.4482-1.333,0.8906-2.1562c-0.6289-1.2691-1.2569-1.7368-1.2696-1.7461l-0.0175-0.0132l-0.0127-0.0103
			c-0.0772-0.0761-1.9336-1.8139-5.0156-0.1508c-0.6514,0.3501-1.0455,0.6421-1.4239,0.9248
			c-0.5893,0.4385-1.1411,0.851-2.4834,1.333c-0.9306,0.334-3.3149,0.3589-5.0307,0.3462h-0.251c0,0-1.5576,0-3.0674,0
			c0,0.0073,0.0034,0.0146,0.0034,0.0219l-0.1167,5.3072C27.4839,40.7998,28.8974,40.5356,29.854,38.9136z"/>
		<path fill="#F15B5B" d="M24.3218,40.7998c0.2753,0.0049,0.5439,0.0122,0.8046,0.0132l0.1158-5.3174
			c0.0083-0.3106-0.2403-0.5718-0.5523-0.5767l-1.539-0.0361c-0.3125-0.0063-0.5708,0.2412-0.5777,0.5518l-0.1167,5.3476h0.5376
			L24.3218,40.7998z"/>
		<path fill="#F15B5B" d="M33.6465,26.0356L33.6465,26.0356c0.1879,0.1197,0.542,0.2725,0.8842,0.4219l0.4244,0.1865
			c1.7329,0.7979,4.1059,2.4659,6.0459,4.2559l0.2705,0.2563c0.6679,0.6397,0.9463,0.9048,1.6738,0.2442
			c0.3437-0.3062,0.5215-0.5952,0.5312-0.853c0.0108-0.3233-0.2373-0.6275-0.4804-0.8824
			c-2.4903-2.6152-6.4639-4.6889-7.7813-5.2671c-0.3774-0.165-0.7065-0.1836-0.9809-0.0522
			c-0.5132,0.2475-0.7027,0.9365-0.708,0.956C33.4433,25.5498,33.396,25.8745,33.6465,26.0356z"/>
		<path fill="#F15B5B" d="M57.1689,36.9565l1.8946,0.001c0.0205,0.002,1.8378,0.0947,2.5595-0.8359
			c0.0108-0.0113,0.0225-0.0269,0.0332-0.042c0.1221-1.75-0.7119-2.9336-0.7685-3.0137l-0.0821-0.1128l0.0577-0.1255
			c0.038-0.0766,0.8545-1.8613-0.4258-3.3369L57.9668,27.02c-0.6612-0.3603-1.5196-0.5967-2.7334-0.6235
			c-1.9932-0.042-3.5069,0.4663-4.4971,1.5219c-1.4619,1.5557-1.2842,3.7959-1.2832,3.8204v0.0024
			c0.3193,0.7593,1.251,2.0508,3.9063,2.1758c0.1308,0.0073,0.2294,0.1167,0.2236,0.2466
			c-0.0059,0.1308-0.1172,0.2319-0.2471,0.2236c-2.7881-0.1309-3.8662-1.5122-4.2744-2.3945
			c-0.4043-0.0049-0.7773,0.039-1.123,0.1333c0.0498,0.2783,0.3095,1.3506,1.4062,2.2202c0.1035,0.0805,0.1201,0.23,0.0381,0.3291
			c-0.0811,0.104-0.2275,0.1196-0.3291,0.04c-1.1563-0.9179-1.4805-2.022-1.5684-2.4419c-2.1484,0.8491-3.1982,3.4038-3.5996,4.6831
			H57.1689z"/>
		<path fill="#6D4C41" d="M69.7041,35.4502c0.0713-1.0381-0.2969-1.5962-0.5899-1.9575c-0.2871-0.3536-1.0205-0.9698-2.1914-0.9698
			c-2.622,0-3.7636,1.8643-4.5185,3.0962c-0.1778,0.2901-0.3321,0.542-0.4844,0.7359c-0.8438,1.0854-2.7949,0.9834-2.8682,0.9799
			H35.1054l-0.9169-0.0175c-1.752-0.0484-2.9126-0.0791-4.0118,1.7851c-1.2719,2.1665-3.2954,2.1226-5.8632,2.0757l-1.3194-0.0185
			h-9.9863c-0.6006,0.0244-1.1079,0.2529-1.4702,0.664c-0.4097,0.4658-0.6109,1.1367-0.5489,1.834
			c0.0518,0.5889,0.2632,1.0283,0.6138,1.2773c0.2993,0.2129,0.6812,0.2666,1.0991,0.1612c0.3228-0.085,0.4776-0.3076,0.5489-0.4805
			c0.1084-0.2558,0.1049-0.5674-0.0176-0.7783c-0.189-0.3262-0.5283-0.3838-0.543-0.3858l-0.2012-0.0312l0.0455-0.1953
			c0.1557-0.6797,0.8295-0.7822,1.1723-0.7451c1.7412,0.2519,1.5308,2.8125,1.5205,2.9052v4.9688
			c0,0.8789,0.2344,1.5517,0.6988,1.9951c0.6445,0.6191,1.5288,0.5879,1.5473,0.5879H62.208c2.9492,0,4.6406-1.291,4.6406-3.5449
			c0-1.1865-0.1992-1.8008-0.5293-2.8223c-0.1826-0.5723-0.4111-1.2842-0.664-2.2842c-1.1407-4.5488,0.1738-6.834,0.2304-6.9287
			l0.0762-0.125c0,0,1.5264,0.8574,2.8008,0.0083C69.3818,36.8266,69.6553,36.1597,69.7041,35.4502z"/>
		<path fill="#6D4C41" d="M64.8701,55.0522c0,0-2.2666,0-5.8389,0l-0.5556-1.6357h-1.9912l0.5546,1.6357
			c-0.9316,0-1.9218,0-2.9638,0l0.5547-1.6357h-1.9913l-0.5527,1.6357c-7.1396,0-16.061,0-23.4751,0l-0.5542-1.6357h-1.9892
			l0.5522,1.6357c-1.0268,0-2.0171,0-2.96,0l0.5528-1.6357h-1.9903l-0.5551,1.6357c-4.5909,0-7.6397,0-7.6602,0
			c-0.3613-0.0244-1.4599-0.1982-1.4599-1.3574c0-0.873,0.8789-1.0488,1.1503-1.0859c0.5694-0.0742,0.9922-0.5606,0.9922-1.1221
			c0-0.0449-0.0019-0.0869-0.0068-0.1299c-0.0703-0.6172-0.6191-1.0605-1.2334-0.9951c-1.0967,0.1143-3.165,0.958-3.165,3.333
			c0,2.5381,2.1694,3.5527,3.6264,3.6211c0.0186,0,0.0342,0,0.0528,0h50.9067c0.624,0,1.1318-0.5078,1.1318-1.1309
			C66.0019,55.5581,65.4941,55.0522,64.8701,55.0522z"/>
	</g>
	<path fill="#F15B5B" d="M66.1494,28.7842c0.0322-0.1734,0.0566-0.4077,0.0566-0.6617c0-0.5249-0.1132-1.144-0.5644-1.5175
		c-0.877-0.7325-1.0781-1.045-1.0781-1.5391c0-0.1352,0.0146-0.2852,0.0351-0.4595l0.0166-0.1411
		c0.0059-0.0508,0.0068-0.0991,0.0068-0.1445c0-0.8193-0.8457-0.978-0.9785-0.9985c-2.1904-0.0015-3.3076,1.3461-3.7353,2.0366
		l2.3086,2.312C63.9219,27.6987,65.5176,28.4477,66.1494,28.7842z"/>
	<path fill="#DE3F40" d="M61.7344,27.8535c-0.2686-0.2681-1.96-1.9595-2.2325-2.2358c-0.2295,0.2319-0.8994,0.916-1.124,1.144
		c0.2686,0.2695,1.96,1.9605,2.2324,2.2349C60.8379,28.7646,61.5097,28.0835,61.7344,27.8535z"/>
</g>
</svg>
