<?xml version="1.0" encoding="utf-8"?>
<!-- Generator: Adobe Illustrator 17.1.0, SVG Export Plug-In . SVG Version: 6.00 Build 0)  -->
<!DOCTYPE svg PUBLIC "-//W3C//DTD SVG 1.1//EN" "http://www.w3.org/Graphics/SVG/1.1/DTD/svg11.dtd">
<svg version="1.1" id="santa" xmlns="http://www.w3.org/2000/svg" xmlns:xlink="http://www.w3.org/1999/xlink" x="0px" y="0px"
	 viewBox="0 0 79.9995 79.9995" enable-background="new 0 0 79.9995 79.9995" xml:space="preserve">
<circle id="santa-label" fill="#FFB8B8" cx="39.9995" cy="39.9997" r="39.9997"/>
<g id="santa-santa">
	<path fill="#F7DDC4" d="M54.4497,35.2173c-0.1611-0.0459-1.4404-0.0977-1.7412-0.5327
		c0.2539-0.6739-6.8945-10.9903-15.8779-10.9903c-8.9849,0-16.1763,10.0586-16.0059,10.6157
		c-0.3716,0.8086-1.165,0.8194-1.165,0.8194c-0.0035,0.0161-0.0064,0.0351-0.0098,0.0517c-0.2583-0.0341-0.5986-0.0517-0.916-0.0102
		c-0.0816,0.0112-0.1656,0.0254-0.2412,0.0464c-0.6587,0.1821-1.5479,1.539-1.0342,3.227c0.3667,1.208,1.2778,1.8863,2.3818,2.0137
		c0.1763,0.8765,0.4278,1.7251,0.7334,2.5483c0.0884,0.2383,0.1753,0.4766,0.2744,0.711c0.128,0.3037,0.271,0.6054,0.418,0.8984
		c0.0415,0.0889,0.0859,0.1729,0.1313,0.2598c0.1519,0.2988,0.3121,0.5918,0.4815,0.8769c0.0957,0.1612,0.1997,0.3155,0.3003,0.4746
		c2.1094,3.295,5.3188,5.8194,9.1201,7.0352v3.1084h9.9199v-2.9775c3.8936-1.1309,7.2022-3.625,9.3926-6.9229
		c0.0557-0.0801,0.1074-0.1602,0.1592-0.2412c0.29-0.4541,0.5674-0.918,0.8144-1.4033c0.003-0.0078,0.0088-0.0127,0.0108-0.0205
		c0.0928-0.1787,0.1709-0.3643,0.2578-0.545c0.1318-0.2841,0.2559-0.5732,0.3769-0.8662c0.3741-0.9433,0.6758-1.9189,0.8819-2.936
		c1.0996-0.1318,2.0058-0.8086,2.375-2.0137C55.9975,36.7563,55.1099,35.3994,54.4497,35.2173z"/>
	<g>
		<path fill="#6D4C41" d="M27.977,40.1094l0.0953,0.8481l0.0068-0.0019l0.0063,0.0029c2.4639-2.1944,3.8824,0.0879,3.8824,0.0879
			C30.9336,38.7734,28.939,39.3447,27.977,40.1094z"/>
		<path fill="#6D4C41" d="M45.0259,40.1094c-0.9639-0.7647-2.9551-1.335-3.9922,0.937c0,0,1.4238-2.2823,3.8808-0.0879
			l0.0079-0.0029l0.0039,0.0019L45.0259,40.1094z"/>
	</g>
	<g>
		<path fill="#FCF9F5" d="M47.1538,36.3335c-1.915-0.5532-3.9502-0.5532-5.8643-0.0015c-1.0771,0.3086-1.7094,1.0918-1.4775,1.5039
			c0.2314,0.418,1.0815,0.3975,1.9541,0.1499c1.6025-0.4629,3.3057-0.4629,4.9092,0.0015c0.8721,0.2466,1.7207,0.2666,1.9531-0.1514
			C48.8599,37.4238,48.229,36.6416,47.1538,36.3335z"/>
		<path fill="#FCF9F5" d="M31.6572,36.3325c-1.9155-0.5522-3.9502-0.5522-5.8652,0c-1.0767,0.3091-1.7071,1.0913-1.4746,1.5034
			c0.2285,0.418,1.0805,0.398,1.9511,0.1499c1.6031-0.4629,3.3081-0.4629,4.9102,0c0.8711,0.2476,1.7231,0.2681,1.9541-0.1499
			C33.3647,37.4238,32.7319,36.6406,31.6572,36.3325z"/>
	</g>
	<g>
		<path fill="#E57373" d="M36.5513,49.6724c-1.462,0-2.8247-0.7608-3.5752-1.9991c-0.0918-0.1523-0.0445-0.3506,0.1088-0.4433
			c0.1514-0.0909,0.3492-0.041,0.4415,0.1113c0.6513,1.0732,1.8515,1.7187,3.125,1.6836c1.1879-0.0342,2.2192-0.6572,2.7563-1.6709
			c0.082-0.1572,0.2788-0.2149,0.4356-0.1328c0.1572,0.0849,0.2177,0.2793,0.1337,0.4365
			c-0.6474,1.2207-1.8837,1.9697-3.3086,2.0107C36.6313,49.6704,36.5913,49.6724,36.5513,49.6724L36.5513,49.6724z"/>
	</g>
	<path fill-rule="evenodd" clip-rule="evenodd" fill="#FFFFFF" d="M34.6196,43.4165c0.8355,0,1.5528,0.5557,1.8516,1.3457
		c0.3008-0.79,1.0161-1.3457,1.852-1.3457c0.4722,0,0.9024,0.1767,1.2447,0.4707l0,0l0.0048,0.0049
		c0.0176,0.0156,0.0352,0.0293,0.0528,0.0449c1.4404,1.293,2.1152,2.1172,3.3203,2.7129c1.7334,0.7207,2.3545-1.8203,0.6299-2.1543
		c1.5556-0.5234,2.3437,1.8652,1.2295,3.0195c-1.7715,1.6006-5.9483,0.9864-7.5127-0.0605
		c-0.0078-0.0039-0.0137-0.0078-0.0196-0.0117c-0.0029-0.0049-0.0073-0.0069-0.0131-0.0088h0.0009
		c-0.3506-0.2403-0.6274-0.5938-0.7895-1.0137c-0.1592,0.4199-0.4361,0.7734-0.7862,1.0137l0,0
		c-0.0048,0.0019-0.0102,0.0039-0.0141,0.0088c-0.0068,0.0039-0.0142,0.0078-0.0191,0.0117
		c-1.5669,1.0469-5.7421,1.6611-7.5141,0.0605c-1.1143-1.1543-0.3267-3.5429,1.2305-3.0195
		c-1.7251,0.334-1.1045,2.875,0.6303,2.1543c1.2017-0.5957,1.8809-1.4199,3.3208-2.7129c0.0161-0.0156,0.0332-0.0293,0.0508-0.0449
		l0.0059-0.0049l0,0C33.7178,43.5932,34.1494,43.4165,34.6196,43.4165z"/>
	<path fill="#FCF9F5" d="M36.3755,50.1225c-7.9658,0-14.5864-8.9335-15.9678-16.5542c-0.1724,1.0977,0.5488,6.2295-0.2676,7.0464
		c-7.3647,7.3643,7.2681,29.0987,16.2354,29.0987c8.9638,0,24.1142-21.2188,16.2334-29.0987
		c-0.8145-0.8169-0.0948-5.4907-0.2666-6.5874C50.9604,41.646,44.3413,50.1225,36.3755,50.1225z"/>
	<g>
		<g>
			<g>
				<path fill="#F15B5B" d="M36.355,33.4702c6.7841,1.6162,10.9326-1.0205,15.1943,1.0215c1.4561-3.4981,3.169-1.751,0.8467-10.5327
					c-3.2598-12.3291,8.624-10.7481,8.624-10.7481C32.0254,2.2222,16.0942,25.0166,21.5776,34.9785
					C25.1479,31.2739,30.4053,32.0547,36.355,33.4702z"/>
			</g>
			<path fill="#FCF9F5" d="M62.6274,13.5801c-0.332,1.3965-1.8447,2.2348-3.3779,1.8696c-1.5244-0.3652-2.4971-1.7925-2.1641-3.1899
				c0.334-1.398,1.8448-2.2349,3.3711-1.8707C61.9878,10.7544,62.9585,12.1836,62.6274,13.5801z"/>
		</g>
	</g>
	<polygon fill="#FCF9F5" points="53.1313,36.1284 19.8149,36.1284 19.3559,30.0156 53.5874,30.0156 	"/>
	<path fill="#F15B5B" d="M34.6196,43.4165c0-1.0254,0.8316-1.8594,1.8565-1.8594c1.0268,0,1.8579,0.834,1.8579,1.8594
		c0,1.0234-0.8311,1.8555-1.8579,1.8555C35.4512,45.272,34.6196,44.4399,34.6196,43.4165z"/>
</g>
</svg>
