<?xml version="1.0" encoding="utf-8"?>
<!-- Generator: Adobe Illustrator 17.1.0, SVG Export Plug-In . SVG Version: 6.00 Build 0)  -->
<!DOCTYPE svg PUBLIC "-//W3C//DTD SVG 1.1//EN" "http://www.w3.org/Graphics/SVG/1.1/DTD/svg11.dtd">
<svg version="1.1" id="snowball-deer" xmlns="http://www.w3.org/2000/svg" xmlns:xlink="http://www.w3.org/1999/xlink" x="0px"
	 y="0px" viewBox="0 0 79.998 79.9995" enable-background="new 0 0 79.998 79.9995" xml:space="preserve">
<circle id="snowball-deer-label" fill="#43BFBD" cx="39.999" cy="39.9997" r="39.9997"/>
<g id="snowball-deer-snowball-deer">
	<g id="snowball-deer-snowball">
		<path fill="#8BD6D0" d="M55.5595,55.3169c2.1856-1.8945,4.0215-4.1817,5.4004-6.752c1.7891-3.3408,2.8106-7.1523,2.8106-11.207
			c0-13.1279-10.6426-23.77-23.7715-23.77c-13.1289,0-23.771,10.6421-23.771,23.77c0,4.0547,1.0215,7.8662,2.8115,11.207
			c1.3775,2.5703,3.2139,4.8575,5.398,6.7539c4.1699-3.6162,9.6084-5.8105,15.5615-5.8105
			C45.9521,49.5083,51.3906,51.7016,55.5595,55.3169z"/>
		<g>
			<path fill="#FCF9F5" d="M16.7407,38.4346c-0.1416,0-0.2788,0.0551-0.3765,0.1562c-0.0395,0.0396-0.0673,0.0884-0.0927,0.1377
				c0.0102,0.1821,0.0288,0.3628,0.0429,0.543c0.0166,0.0229,0.0269,0.0517,0.0498,0.0732
				c0.1011,0.1006,0.2349,0.1558,0.3765,0.1558c0.1421,0,0.2764-0.0552,0.3784-0.1558c0.0991-0.1006,0.1558-0.2363,0.1558-0.3774
				c0-0.1407-0.0567-0.2788-0.1558-0.3765C17.0171,38.4897,16.8828,38.4346,16.7407,38.4346z"/>
			<path fill="#FCF9F5" d="M22.0727,46.8149c-0.1391,0-0.2763,0.0576-0.3745,0.1553c-0.1011,0.1006-0.1601,0.2393-0.1601,0.377
				c0,0.1455,0.059,0.2773,0.1601,0.3779c0.0982,0.1015,0.2354,0.1572,0.3745,0.1572c0.1436,0,0.2784-0.0557,0.3784-0.1572
				c0.1011-0.1006,0.1568-0.2324,0.1568-0.3779c0-0.1377-0.0557-0.2764-0.1568-0.377
				C22.3511,46.8725,22.2163,46.8149,22.0727,46.8149z"/>
			<path fill="#FCF9F5" d="M27.0293,46.4331c-0.1436,0-0.2827,0.0576-0.3789,0.1592c-0.1011,0.0967-0.1568,0.2353-0.1568,0.3779
				c0,0.1397,0.0557,0.2725,0.1568,0.375c0.101,0.1035,0.2353,0.1553,0.3789,0.1553c0.1401,0,0.2744-0.0518,0.3764-0.1553
				c0.1011-0.1025,0.1548-0.2353,0.1548-0.375c0-0.1426-0.0591-0.2812-0.1548-0.3779
				C27.3037,46.4907,27.1665,46.4331,27.0293,46.4331z"/>
			<path fill="#FCF9F5" d="M30.8374,39.5005c0.1411,0,0.2783-0.0552,0.3774-0.1558c0.1011-0.1006,0.1548-0.2363,0.1548-0.3774
				c0-0.1407-0.0576-0.2764-0.1548-0.3765c-0.0991-0.0981-0.2392-0.1548-0.3774-0.1548c-0.1426,0-0.2818,0.0567-0.377,0.1548
				c-0.103,0.1001-0.1577,0.2358-0.1577,0.3765c0,0.1411,0.0547,0.2768,0.1577,0.3774
				C30.5605,39.4453,30.6948,39.5005,30.8374,39.5005z"/>
			<path fill="#FCF9F5" d="M33.5034,29.2905c-0.1426,0-0.2769,0.0567-0.3755,0.1572c-0.1035,0.0967-0.1592,0.2359-0.1592,0.377
				c0,0.1416,0.0557,0.2769,0.1592,0.3779c0.0986,0.1001,0.2329,0.1548,0.3755,0.1548c0.1411,0,0.2764-0.0547,0.3784-0.1548
				c0.0991-0.101,0.1509-0.2363,0.1509-0.3779c0-0.1411-0.0518-0.2803-0.1509-0.377
				C33.7798,29.3472,33.6445,29.2905,33.5034,29.2905z"/>
			<path fill="#FCF9F5" d="M45.3095,38.9619c0.1006-0.1011,0.1543-0.2319,0.1543-0.3745c0-0.1411-0.0537-0.2803-0.1543-0.3775
				c-0.1005-0.1005-0.2353-0.1572-0.3769-0.1572c-0.1445,0-0.2783,0.0567-0.3789,0.1572c-0.0977,0.0972-0.1553,0.2364-0.1553,0.3775
				c0,0.1426,0.0537,0.2734,0.1553,0.3745c0.1006,0.1021,0.2344,0.1572,0.3789,0.1572
				C45.0742,39.1191,45.209,39.064,45.3095,38.9619z"/>
			<path fill="#FCF9F5" d="M46.4541,31.9575c-0.1387,0-0.2783,0.0571-0.376,0.1577c-0.0996,0.0977-0.1553,0.2354-0.1553,0.3765
				c0,0.1426,0.0537,0.2749,0.1553,0.375c0.1025,0.1011,0.2354,0.1587,0.376,0.1587c0.1435,0,0.2783-0.0576,0.3789-0.1587
				c0.1015-0.1001,0.1572-0.2324,0.1572-0.375c0-0.1411-0.0557-0.2788-0.1572-0.3765
				C46.7324,32.0146,46.5976,31.9575,46.4541,31.9575z"/>
			<path fill="#FCF9F5" d="M51.0293,32.7187c-0.1416,0-0.2793,0.0567-0.378,0.1573c-0.1005,0.0981-0.1572,0.2363-0.1572,0.3774
				c0,0.1426,0.0537,0.2749,0.1572,0.3784c0.1006,0.0977,0.2334,0.1548,0.378,0.1548c0.1386,0,0.2734-0.0571,0.376-0.1548
				c0.0996-0.1035,0.1562-0.2358,0.1562-0.3784c0-0.1411-0.0566-0.2793-0.1562-0.3774
				C51.3027,32.7754,51.1679,32.7187,51.0293,32.7187z"/>
			<path fill="#FCF9F5" d="M51.0293,43.7681c-0.1416,0-0.2793,0.0546-0.378,0.1552c-0.1005,0.0996-0.1572,0.2383-0.1572,0.3789
				c0,0.1397,0.0537,0.2744,0.1572,0.377c0.1006,0.1006,0.2334,0.1533,0.378,0.1533c0.1386,0,0.2734-0.0527,0.376-0.1533
				c0.0996-0.1026,0.1562-0.2373,0.1562-0.377c0-0.1406-0.0566-0.2793-0.1562-0.3789
				C51.3027,43.8227,51.1679,43.7681,51.0293,43.7681z"/>
			<path fill="#FCF9F5" d="M45.3144,46.8169c-0.1416,0-0.2793,0.0537-0.3818,0.1533c-0.0957,0.1006-0.1514,0.2373-0.1514,0.3789
				c0,0.1406,0.0528,0.2774,0.1514,0.3779c0.1055,0.0996,0.2373,0.1553,0.3818,0.1553c0.1397,0,0.2735-0.0557,0.376-0.1553
				c0.1006-0.1005,0.1572-0.2373,0.1572-0.3779c0-0.1416-0.0566-0.2783-0.1572-0.3789
				C45.5879,46.8706,45.4541,46.8169,45.3144,46.8169z"/>
			<path fill="#FCF9F5" d="M55.6035,54.9722c-0.0752,0.0732-0.1162,0.1689-0.1367,0.2724c0.0312,0.0244,0.0654,0.0469,0.0927,0.0723
				c0.1788-0.1533,0.3389-0.3242,0.5108-0.4854c-0.0313-0.0039-0.0576-0.0166-0.0889-0.0166
				C55.8408,54.8149,55.7021,54.8706,55.6035,54.9722z"/>
			<path fill="#FCF9F5" d="M53.6972,20.5288c-0.1416,0-0.2802,0.0552-0.3789,0.1572c-0.1005,0.0972-0.1572,0.2364-0.1572,0.3775
				c0,0.1425,0.0547,0.2734,0.1572,0.3745c0.1006,0.1015,0.2334,0.1587,0.3789,0.1587c0.1387,0,0.2725-0.0572,0.375-0.1587
				c0.0997-0.1011,0.1563-0.232,0.1563-0.3745c0-0.1411-0.0566-0.2803-0.1563-0.3775
				C53.9697,20.584,53.8359,20.5288,53.6972,20.5288z"/>
			<path fill="#FCF9F5" d="M40.7417,17.8633c-0.1421,0-0.2764,0.0566-0.3775,0.1533c-0.1001,0.1016-0.1548,0.2407-0.1548,0.3789
				c0,0.1421,0.0538,0.2759,0.1548,0.3765c0.1011,0.1025,0.2354,0.1547,0.3775,0.1547c0.1406,0,0.2759-0.0522,0.3774-0.1547
				c0.0996-0.1006,0.1563-0.2344,0.1563-0.3765c0-0.1382-0.0567-0.2773-0.1563-0.3789
				C41.0176,17.9199,40.8823,17.8633,40.7417,17.8633z"/>
			<path fill="#FCF9F5" d="M40.3603,23.9565c-0.1406,0-0.2768,0.0567-0.3779,0.1573c-0.0981,0.0981-0.1548,0.2358-0.1548,0.3784
				c0,0.1411,0.0537,0.2734,0.1548,0.3774c0.1011,0.0972,0.2373,0.1548,0.3779,0.1548c0.1411,0,0.2774-0.0576,0.3784-0.1548
				c0.1001-0.104,0.1548-0.2363,0.1548-0.3774c0-0.1426-0.0547-0.2803-0.1548-0.3784
				C40.6377,24.0132,40.5014,23.9565,40.3603,23.9565z"/>
			<path fill="#FCF9F5" d="M48.7422,29.6724c-0.1416,0-0.2793,0.0566-0.3789,0.1547c-0.0977,0.1006-0.1543,0.2383-0.1543,0.3775
				c0,0.1411,0.0537,0.2768,0.1543,0.3784c0.1035,0.1006,0.2363,0.1548,0.3789,0.1548c0.1406,0,0.2763-0.0542,0.3769-0.1548
				c0.1006-0.1016,0.1572-0.2373,0.1572-0.3784c0-0.1392-0.0566-0.2769-0.1572-0.3775
				C49.0185,29.729,48.8828,29.6724,48.7422,29.6724z"/>
			<path fill="#FCF9F5" d="M62.4511,34.4018c-0.0947-0.102-0.2373-0.1577-0.373-0.1577c-0.1426,0-0.2812,0.0557-0.3799,0.1577
				c-0.0996,0.0982-0.1562,0.2359-0.1562,0.375c0,0.1407,0.0566,0.2769,0.1562,0.378c0.1026,0.1001,0.2354,0.1548,0.3799,0.1548
				c0.1406,0,0.2734-0.0547,0.373-0.1548c0.1016-0.1011,0.1583-0.2373,0.1583-0.378C62.6094,34.6377,62.5527,34.5,62.4511,34.4018z"
				/>
			<path fill="#FCF9F5" d="M16.7407,32.7187c-0.0205,0-0.0381,0.0103-0.0591,0.0127c-0.0649,0.3277-0.1245,0.6592-0.1763,0.9917
				c0.0733,0.0362,0.1509,0.0606,0.2354,0.0606c0.1421,0,0.2764-0.0523,0.3784-0.1533c0.0991-0.1006,0.1558-0.2359,0.1558-0.377
				c0-0.1411-0.0567-0.2793-0.1558-0.3774C17.0171,32.7754,16.8828,32.7187,16.7407,32.7187z"/>
			<path fill="#FCF9F5" d="M23.9785,35.0054c-0.1416,0-0.2769,0.0566-0.375,0.1557c-0.1021,0.1021-0.1587,0.2363-0.1587,0.3775
				c0,0.1425,0.0566,0.2768,0.1587,0.3769c0.0981,0.1011,0.2334,0.1577,0.375,0.1577c0.1421,0,0.2783-0.0566,0.3794-0.1577
				c0.0981-0.1001,0.1548-0.2344,0.1548-0.3769c0-0.1412-0.0567-0.2754-0.1548-0.3775
				C24.2568,35.062,24.1206,35.0054,23.9785,35.0054z"/>
			<path fill="#FCF9F5" d="M46.8359,20.0693c0.1416,0,0.2774-0.0527,0.3789-0.1528c0.1006-0.1011,0.1572-0.2363,0.1572-0.3784
				c0-0.1377-0.0566-0.2769-0.1572-0.378c-0.1015-0.0966-0.2373-0.1533-0.3789-0.1533c-0.1445,0-0.2754,0.0567-0.376,0.1533
				c-0.0996,0.1011-0.1552,0.2403-0.1552,0.378c0,0.1421,0.0517,0.2773,0.1552,0.3784
				C46.5605,20.0166,46.6914,20.0693,46.8359,20.0693z"/>
			<path fill="#FCF9F5" d="M59.79,31.1953c-0.1406,0-0.2793,0.0581-0.3769,0.1577c-0.0996,0.0991-0.1573,0.2373-0.1573,0.375
				c0,0.1421,0.0577,0.2774,0.1573,0.3794c0.1015,0.1006,0.2353,0.1538,0.3769,0.1538c0.1416,0,0.2764-0.0532,0.376-0.1538
				c0.1016-0.102,0.1582-0.2373,0.1582-0.3794c0-0.1377-0.0566-0.2759-0.1582-0.375C60.0664,31.2534,59.9316,31.1953,59.79,31.1953z
				"/>
			<path fill="#FCF9F5" d="M28.1689,18.6235c-0.1411,0-0.2773,0.0567-0.3784,0.1577c-0.0981,0.0967-0.1567,0.2359-0.1567,0.377
				s0.0586,0.2768,0.1567,0.3774c0.1011,0.1006,0.2373,0.1538,0.3784,0.1538c0.1426,0,0.2769-0.0532,0.378-0.1538
				c0.1-0.1006,0.1567-0.2363,0.1567-0.3774s-0.0567-0.2803-0.1567-0.377C28.4458,18.6802,28.3115,18.6235,28.1689,18.6235z"/>
			<path fill="#FCF9F5" d="M34.6465,20.9106c-0.1426,0-0.2764,0.0552-0.378,0.1563c-0.102,0.0976-0.1567,0.2353-0.1567,0.3774
				s0.0547,0.2735,0.1567,0.3775c0.1016,0.0996,0.2354,0.1538,0.378,0.1538c0.1391,0,0.2763-0.0542,0.3764-0.1538
				c0.1011-0.104,0.1577-0.2354,0.1577-0.3775s-0.0566-0.2798-0.1577-0.3774C34.9228,20.9658,34.7856,20.9106,34.6465,20.9106z"/>
			<path fill="#FCF9F5" d="M29.6889,34.3989c-0.1001-0.0981-0.2343-0.1548-0.3764-0.1548c-0.1416,0-0.2769,0.0567-0.377,0.1548
				c-0.1001,0.1011-0.1577,0.2402-0.1577,0.3765c0,0.1421,0.0576,0.2773,0.1577,0.3794c0.1001,0.0991,0.2354,0.1562,0.377,0.1562
				c0.1421,0,0.2763-0.0571,0.3764-0.1562c0.1011-0.1021,0.1578-0.2373,0.1578-0.3794C29.8467,34.6391,29.79,34.5,29.6889,34.3989z"
				/>
			<path fill="#FCF9F5" d="M36.9316,40.7197c-0.1401,0-0.2783,0.0567-0.3784,0.1572c-0.0991,0.0972-0.1582,0.2369-0.1582,0.3775
				c0,0.1416,0.0591,0.2763,0.1582,0.3769c0.1001,0.1016,0.2383,0.1553,0.3784,0.1553c0.1426,0,0.2774-0.0537,0.3789-0.1553
				c0.0996-0.1006,0.1543-0.2353,0.1543-0.3769c0-0.1406-0.0547-0.2803-0.1543-0.3775
				C37.209,40.7764,37.0742,40.7197,36.9316,40.7197z"/>
			<path fill="#FCF9F5" d="M38.0737,47.5766c-0.1411,0-0.2764,0.0557-0.3765,0.1563c-0.1001,0.0977-0.1567,0.2373-0.1567,0.3779
				c0,0.1426,0.0566,0.2764,0.1567,0.378c0.1001,0.1005,0.2354,0.1543,0.3765,0.1543c0.1426,0,0.2788-0.0538,0.3799-0.1543
				c0.0981-0.1016,0.1567-0.2354,0.1567-0.378c0-0.1406-0.0586-0.2802-0.1567-0.3779
				C38.3525,47.6323,38.2163,47.5766,38.0737,47.5766z"/>
			<path fill="#FCF9F5" d="M22.8359,41.4829c-0.1421,0-0.2764,0.0566-0.3765,0.1533c-0.101,0.1006-0.1577,0.2412-0.1577,0.3779
				c0,0.1446,0.0567,0.2754,0.1577,0.377c0.1001,0.1006,0.2344,0.1572,0.3765,0.1572c0.1416,0,0.2778-0.0566,0.3789-0.1572
				c0.0982-0.1016,0.1568-0.2324,0.1568-0.377c0-0.1367-0.0586-0.2773-0.1568-0.3779
				C23.1137,41.5395,22.9775,41.4829,22.8359,41.4829z"/>
			<path fill="#FCF9F5" d="M58.6484,38.4346c-0.1396,0-0.2793,0.0551-0.3779,0.1562c-0.1016,0.0977-0.1572,0.2373-0.1572,0.375
				c0,0.146,0.0556,0.2769,0.1572,0.3789c0.1006,0.1006,0.2334,0.1577,0.3779,0.1577c0.1387,0,0.2744-0.0571,0.376-0.1577
				c0.0996-0.102,0.1562-0.2329,0.1562-0.3789c0-0.1377-0.0566-0.2773-0.1562-0.375
				C58.9228,38.4897,58.7871,38.4346,58.6484,38.4346z"/>
			<path fill="#FCF9F5" d="M50.7998,38.5854c0-0.1391-0.0567-0.2773-0.1572-0.3745c-0.1006-0.1015-0.2364-0.1582-0.378-0.1582
				c-0.1396,0-0.2773,0.0567-0.3799,0.1582c-0.0957,0.0972-0.1513,0.2354-0.1513,0.3745c0,0.1446,0.0537,0.2774,0.1513,0.378
				c0.1055,0.1006,0.2373,0.1572,0.3799,0.1572c0.1416,0,0.2774-0.0566,0.378-0.1572C50.7431,38.8628,50.7998,38.73,50.7998,38.5854
				z"/>
			<path fill="#FCF9F5" d="M50.6484,25.7871c0.1397,0,0.2754-0.0571,0.375-0.1582c0.0996-0.1001,0.1563-0.2329,0.1563-0.375
				c0-0.1416-0.0567-0.2798-0.1563-0.3765c-0.0996-0.1015-0.2353-0.1582-0.375-0.1582c-0.1416,0-0.2793,0.0567-0.3789,0.1582
				c-0.0986,0.0967-0.1553,0.2349-0.1553,0.3765c0,0.1421,0.0537,0.2749,0.1553,0.375
				C50.3701,25.73,50.5039,25.7871,50.6484,25.7871z"/>
			<path fill="#FCF9F5" d="M30.8374,44.4546c-0.2613,0-0.5161,0.1054-0.7017,0.289c-0.1836,0.1856-0.289,0.4395-0.289,0.6993
				c0,0.2617,0.1054,0.5156,0.289,0.6992c0.1856,0.1865,0.4404,0.2929,0.7017,0.2929c0.2617,0,0.5156-0.1064,0.6982-0.2929
				c0.1846-0.1836,0.292-0.4375,0.292-0.6992c0-0.2598-0.1074-0.5137-0.292-0.6993C31.353,44.56,31.0991,44.4546,30.8374,44.4546z"
				/>
			<path fill="#FCF9F5" d="M46.4541,26.1655c-0.2598,0-0.5156,0.1065-0.6973,0.293c-0.1865,0.1831-0.29,0.4375-0.29,0.6992
				c0,0.2603,0.1035,0.5156,0.29,0.7012c0.1817,0.1836,0.4375,0.2905,0.6973,0.2905c0.2637,0,0.5166-0.1069,0.7021-0.2905
				c0.1856-0.1856,0.2891-0.4409,0.2891-0.7012c0-0.2617-0.1035-0.5161-0.2891-0.6992
				C46.9707,26.272,46.7178,26.1655,46.4541,26.1655z"/>
			<path fill="#FCF9F5" d="M39.2202,33.4048c-0.2632,0-0.5171,0.1084-0.7026,0.2905c-0.1836,0.1855-0.2891,0.4395-0.2891,0.7012
				c0,0.2617,0.1055,0.5161,0.2891,0.6987c0.1855,0.1855,0.4394,0.293,0.7026,0.293c0.2588,0,0.5146-0.1075,0.6963-0.293
				c0.1855-0.1826,0.291-0.437,0.291-0.6987c0-0.2617-0.1055-0.5157-0.291-0.7012C39.7348,33.5132,39.479,33.4048,39.2202,33.4048z"
				/>
			<path fill="#FCF9F5" d="M23.5996,28.4507c-0.2632,0-0.5171,0.1074-0.7017,0.292c-0.1855,0.187-0.29,0.4404-0.29,0.7016
				c0,0.2617,0.1045,0.5161,0.29,0.7002c0.1846,0.1831,0.4385,0.2905,0.7017,0.2905c0.2568,0,0.5127-0.1074,0.6987-0.2905
				c0.1856-0.1841,0.2886-0.4385,0.2886-0.7002c0-0.2612-0.103-0.5146-0.2886-0.7016
				C24.1123,28.5581,23.8564,28.4507,23.5996,28.4507z"/>
			<path fill="#FCF9F5" d="M56.7441,47.5005c-0.2617,0-0.5156,0.1074-0.7021,0.291c-0.1846,0.1855-0.291,0.4414-0.291,0.6992
				c0,0.2608,0.1064,0.5156,0.291,0.7012c0.1865,0.1836,0.4404,0.291,0.7021,0.291c0.2588,0,0.5127-0.1074,0.6983-0.291
				c0.1836-0.1856,0.292-0.4404,0.292-0.7012c0-0.2578-0.1084-0.5137-0.292-0.6992C57.2568,47.6079,57.0029,47.5005,56.7441,47.5005
				z"/>
			<path fill="#FCF9F5" d="M57.5049,30.0517c0.2607,0,0.5156-0.1035,0.6992-0.2905c0.1826-0.1816,0.291-0.437,0.291-0.7002
				c0-0.2602-0.1084-0.5156-0.291-0.6977c-0.1836-0.187-0.4385-0.2901-0.6992-0.2901c-0.2637,0-0.5166,0.1031-0.7022,0.2901
				c-0.1826,0.1821-0.29,0.4375-0.29,0.6977c0,0.2632,0.1074,0.5186,0.29,0.7002C56.9883,29.9482,57.2412,30.0517,57.5049,30.0517z"
				/>
		</g>
		<path fill="#FCF9F5" d="M28.6777,58.3364c0.0391-0.0049,0.0742-0.0205,0.1138-0.0205c0.0288-0.001,0.0596-0.0029,0.0908,0
			c0.2163,0.0176,0.4302,0.0303,0.6445,0.0488c0.7017,0.0547,1.4053,0.1094,2.106,0.1543c0.5054,0.0332,1.0107,0.0557,1.5166,0.083
			c0.4951,0.0264,0.9912,0.0577,1.4858,0.0782c0.4024,0.0175,0.8023,0.0283,1.2027,0.041h0.0024
			c1.2026,0.041,2.4038,0.0625,3.6035,0.0703c0.8047,0.0059,1.6118,0.0059,2.4175-0.002c3.084-0.0351,6.1738-0.1855,9.2852-0.4355
			c1.5888-0.8438,3.0664-1.8672,4.413-3.0371c-4.1689-3.6153-9.6074-5.8086-15.5605-5.8086c-5.9531,0-11.3916,2.1943-15.5615,5.8105
			c1.3257,1.1534,2.7803,2.1602,4.3413,2.9981C28.7451,58.3169,28.7119,58.3335,28.6777,58.3364z"/>
		<path fill="#7C4D46" d="M54.8945,60.3618c-0.0596-0.4746-0.5019-0.8105-0.9863-0.7549c-0.3867,0.0401-0.7735,0.0762-1.1572,0.1133
			c0-0.0254,0.0009-0.0498,0-0.0732c-0.0127-0.1084-0.0206-0.1895-0.0284-0.2696c-0.0107-0.0869-0.0205-0.1728-0.0322-0.2881
			c-0.0518-0.4775-0.4844-0.8222-0.9609-0.7734c-0.1953,0.0176-0.3897,0.0234-0.583,0.0381
			c-3.1114,0.25-6.2012,0.4004-9.2852,0.4355c-0.8057,0.0079-1.6128,0.0079-2.4175,0.002
			c-1.1997-0.0078-2.4009-0.0293-3.6035-0.0703h-0.0024c-0.4004-0.0127-0.8003-0.0235-1.2027-0.041
			c-0.4946-0.0205-0.9907-0.0518-1.4858-0.0782c-0.5059-0.0273-1.0112-0.0498-1.5166-0.083
			c-0.7007-0.0449-1.4043-0.0996-2.106-0.1543c-0.2143-0.0185-0.4282-0.0312-0.6445-0.0488c-0.0312-0.0029-0.062-0.001-0.0908,0
			c-0.0396,0-0.0747,0.0156-0.1138,0.0205c-0.0703,0.0098-0.1421,0.0156-0.2085,0.041c-0.0307,0.0137-0.0547,0.0362-0.0835,0.0518
			c-0.0639,0.0322-0.1279,0.0635-0.1792,0.1103c-0.0342,0.0313-0.0571,0.0723-0.0859,0.1065
			c-0.0362,0.0439-0.0796,0.084-0.105,0.1377c-0.0498,0.0928-0.0825,0.1953-0.0942,0.3056
			c-0.0176,0.1651-0.0298,0.2803-0.0454,0.4131c-0.0049,0.0459-0.0079,0.086-0.0152,0.1446c-0.0034,0.0234,0,0.0478,0,0.0732
			c-0.3872-0.0371-0.772-0.0732-1.1567-0.1133c-0.4849-0.0556-0.9278,0.2803-0.9873,0.7549
			c-0.2188,1.7314-0.3272,2.5977-0.5469,4.3291c-0.0586,0.4756,0.3042,0.916,0.8149,0.9756c9.6055,0.9932,19.0347,0.9932,28.6412,0
			c0.5107-0.0596,0.875-0.5,0.8154-0.9756C55.2226,62.9595,55.1142,62.0932,54.8945,60.3618z"/>
	</g>
	<g id="snowball-deer-deer">
		<path fill="#F2E6D8" d="M27.3574,50.73l0.5073-0.9844c0,0,0.1455-0.3857,0.5635-0.4473c0.2373-0.0381,0.3735-0.0517,0.4282-0.0547
			l0.9307,1.3135c-0.0054,0.0069-0.0127,0.0195-0.0156,0.0215c-0.1753,0.2441-0.3199,0.6299-0.8565,0.751
			c-0.4712,0.1074-0.9927,0.1699-0.9927,0.1699l0.4131-0.9883L27.3574,50.73z"/>
		<path fill="#7C4D46" d="M29.7021,48.0093c0.4048-0.7295,0.4478-0.9834,0.6211-1.5244c0.0933-0.2891,0.1343-0.6915,0.7359-0.8252
			c0.5981-0.1338,1.6767-0.4541,1.5288-1.3028c-0.2217-1.2871-0.5396-3.2187-0.5396-3.2187s-0.206-0.8037-0.0791-1.6553
			l-0.0073-0.6943c-0.2197-0.2525-0.4439-0.5176-0.6431-0.7632c-0.5747-0.7105-0.9355-0.9082-1.4184-1.1363
			c-0.3042-0.144-0.6499-0.2309-0.6729-0.4433c-0.0268-0.2554,0.6812-0.2066,1.9448-0.2334
			c0.4458-0.0064,0.7676,0.249,0.9844,0.4717c0.2095,0.2168,0.5601,0.5791,0.9194,0.9472c1.3824-1.1401,3.2198-0.7719,5.689-1.1416
			c0.1001-0.0141,0.1968-0.0298,0.3848-0.0644l1.9399,6.0049c-0.3003,0.0371-0.4604,0.0371-0.6142,0.0293
			c-0.0733-0.002-0.1455-0.0049-0.2168-0.0127c-0.1182-0.0127-0.232-0.0225-0.3413-0.0352
			c-1.4102-0.1494-2.1246-0.2803-3.0787,0.0391l-0.7221,2.5713c0,0-0.2271,0.913-1.2847,1.2158
			c-1.0576,0.3027-2.7402,0.7803-2.7402,0.7803s-1.5332,2.373-2.1118,3.2529l-0.9073-1.2744
			C29.2246,48.7856,29.4546,48.4497,29.7021,48.0093z"/>
		<path fill="#7C4D46" d="M34.9341,24.0586c0.2573-0.3081,0.6801,0.165,1.3549,0.8008c0.9004,0.851,1.6788,0.9389,2.0079,0.5117
			c0.3969-0.5142-0.1304-1.2739-0.4214-1.6699c-0.2442-0.3355-0.7994-0.8692-0.5259-1.1607
			c0.2217-0.2407,0.5747,0.0532,1.0234,0.6709c0.4507,0.6162,0.6841,1.0947,0.9058,2.169c0.0962,0.4375,0.3403,0.7006,0.6811,0.9853
			c0.4571,0.3843,1.3096,0.8174,1.7452,0.9893c0.081,0.0322,0.1611,0.0591,0.2431,0.0864c0.333-0.6992,0.0215-1.2744-0.2373-1.7334
			c-0.1855-0.3267-0.2666-0.5796-0.0801-0.7251c0.2559-0.1968,0.5186,0.0923,0.8194,0.6201
			c0.5527,0.9751,0.3769,1.7276,0.2715,2.0161c0.7587,0.1031,1.5146,0.0054,2.1572-0.2861
			c0.3379-0.1602,0.7832-0.4204,1.0332-0.9053c0.1572-0.3047,0.2588-0.6255,0.1426-1.4072c-0.085-0.5737-0.295-1.0215,0.0381-1.1455
			c0.3144-0.1172,0.5312,0.4736,0.6132,0.937c0.1045,0.6021,0.1221,1.1089-0.0039,1.5444
			c-0.1543,0.5201-0.4746,0.9043-0.7695,1.1675l0.7949,1.3052c0.2305-0.0542,0.5078-0.0723,0.8418-0.0078
			c1.0313,0.2036,2.3828,0.3608,2.9453,0.3979c0.5606,0.0381,0.833,0.0703,0.8408,0.5913c0.0049,0.4561-0.0009,0.9141-0.79,0.9908
			c-0.7871,0.0742-1.459,0.3403-1.7246,0.7656c-0.2656,0.4258-0.2041,1.2822,0.0771,1.8496
			c0.2832,0.5659,0.5909,1.1475,0.1104,2.1704c-0.4385,0.9321-1.165,2.4658-1.165,2.4658s-0.0948,0.2349-0.3135,0.5933
			c0.6631,0.022,1.7988,0.0693,2.3701,0.1147c0.9443,0.0762,1.6406,0.8638,1.25,1.9087c-0.3438,0.9151-1.0752,2.9639-1.25,3.4531
			l-0.7549-1.2402c0.0176-0.2588,0.083-0.5303,0.1719-0.832c0.2256-0.7686,0.5117-1.7471,0.5117-1.7471
			s-1.2344,0.1353-2.6201,0.4282c-0.5596,0.1197-1.0918,0.0484-1.5322-0.0771c-0.2266,0.1616-0.4756,0.3198-0.75,0.4634
			c-0.0577,0.0312-0.1143,0.0644-0.1739,0.0927c-0.2109,0.1114-0.4179,0.211-0.624,0.3077l-1.9365-6
			c0.8057-0.3765,1.3535-0.7876,1.7256-1.146c1.417-1.3697,1.3594-3.2964,1.541-4.1582c0.0371-0.1729,0.0801-0.3155,0.125-0.4341
			l-0.96-1.5933c-0.0927,0.021-0.1513,0.0303-0.1513,0.0303c-2.7588,0.5527-4.4263-0.9277-4.9224-1.293
			c-0.4941-0.3647-0.7534-0.5981-1.4009-0.5635c-0.9878,0.0572-1.5635-0.2578-2.3379-0.955
			C35.2427,24.8774,34.6909,24.353,34.9341,24.0586z"/>
		<path fill="#F2E6D8" d="M49.8847,44.6421c-0.1025,0.5918-0.5263,1.4199-0.5263,1.4199l-0.7891-1.292l0.6475-1.2217
			L49.8847,44.6421z"/>
		<path fill="#F15B5B" d="M43.9267,41.8052c-0.2441,0.0781-2.2216,0.7158-2.4658,0.7939c-0.0859-0.2656-1.9707-6.1006-2.0581-6.3691
			c0.2441-0.0782,2.2222-0.7168,2.4653-0.7964C41.9551,35.7041,43.8408,41.5366,43.9267,41.8052z"/>
		<g>
			<path fill="#FFB8B8" d="M40.0786,36.9141c0.1133,0.352,0.4922,0.5454,0.8447,0.4316c0.3521-0.1118,0.5474-0.4912,0.4331-0.8457
				c-0.1142-0.3491-0.4936-0.5435-0.8457-0.4297C40.1557,36.185,39.9648,36.5635,40.0786,36.9141z"/>
			<circle fill="#FFB8B8" cx="41.5051" cy="39.1443" r="0.6711"/>
			<circle fill="#FFB8B8" cx="42.2344" cy="41.4067" r="0.672"/>
		</g>
	</g>
</g>
</svg>
