<?xml version="1.0" encoding="utf-8"?>
<!-- Generator: Adobe Illustrator 17.1.0, SVG Export Plug-In . SVG Version: 6.00 Build 0)  -->
<!DOCTYPE svg PUBLIC "-//W3C//DTD SVG 1.1//EN" "http://www.w3.org/Graphics/SVG/1.1/DTD/svg11.dtd">
<svg version="1.1" id="snowflake-2" xmlns="http://www.w3.org/2000/svg" xmlns:xlink="http://www.w3.org/1999/xlink" x="0px"
	 y="0px" viewBox="0 0 79.998 79.998" enable-background="new 0 0 79.998 79.998" xml:space="preserve">
<circle id="snowflake-2-label" fill="#F15B5B" cx="39.999" cy="39.999" r="39.999"/>
<g id="snowflake-2-snowflake-2">
	<path fill="#FCF9F5" d="M64.9853,47.1513l0.2412-2.4599l-4.1552-3.6797h3.332v-1.9824h-3.2627l3.9492-3.313l-0.1045-2.606
		l-7.3066,5.919h-6.9111l7.9794-7.5699l-9.3828,0.5933l3.7627-3.7637l9.5567-0.874l-1.6719-1.8984l-5.4365,0.3252l2.3574-2.3579
		l-1.4023-1.4009l-2.3067,2.3056l0.5313-5.2626l-2-1.6392l-0.9805,9.3525l-3.9717,3.9722l0.0547-10.2368l-6.6729,7.3921v-4.9829
		l6.4981-7.9395l-2.8545,0.544l-3.6436,3.9306v-3.6582h-1.9819v3.3994l-3.4873-4.353l-2.5732,0.1372l6.0605,7.6782V28.04
		l-6.7417-7.4653l0.1538,10.4463l-3.7803-3.7764l-0.9438-9.5137l-1.8325,1.6675l0.3291,5.396l-2.5884-2.5874l-1.4023,1.4028
		l2.4043,2.4038l-5.6797-0.7685l-1.584,2.0718l9.7119,1.1455l3.646,3.643l-9.3208-0.646l7.9331,7.5699h-6.5327l-7.3936-6.0586
		l-0.6748,2.0659l4.6065,3.9927h-3.6602v1.9824h3.4004l-4.4819,3.5459l0.2661,2.5137l7.6763-6.0596h5.6147l-6.7539,5.8467
		l10.5752-0.3955l-4.915,4.914l-9.5127,0.9444l1.5366,2.0273l5.5288-0.5215l-2.5884,2.5869l1.4028,1.4034l2.4029-2.4063
		l-0.7622,5.7363l2.0654,1.5293l1.1455-9.7138l4.8477-4.8467l-0.8399,9.6289l6.7417-7.4649v7.3389l-6.1391,7.374l2.7871,0.0977
		l3.352-4.0107v3.333h1.9819v-3.2657l3.0987,3.9434l2.8183-0.0977l-5.917-7.3056v-7.333l6.6729,7.3906L46.914,48.124l5.0098,5.0117
		l0.876,9.5567l2.0908-1.6797L54.373,55.583l2.3545,2.3574l1.4053-1.4023l-2.3106-2.3067l5.46,0.5244l1.4434-1.9912l-9.3496-0.9804
		l-5.1768-5.1768l10.5478,0.251l-6.7968-5.8467h5.6582L64.9853,47.1513z M26.4306,33.4712l6.3389,0.5107l5.0483,5.0474H32.103
		L26.4306,33.4712z M26.4306,44.8457l4.545-3.834h6.6269l-3.6123,3.6094L26.4306,44.8457z M39.2026,47.6523l-4.7295,5.2383
		l0.7222-6.6699l4.0073-4.0039V47.6523z M39.2026,37.6084l-4.7739-4.7705l0.0444-7.4092l4.7295,5.2373V37.6084z M53.8896,33.4712
		l-5.7265,5.5581h-5.7745l5.1026-5.105L53.8896,33.4712z M41.1845,30.5927l4.6622-5.164l0.1474,7.1914l-4.8096,4.8076V30.5927z
		 M41.1845,47.7246v-5.3291L45,46.2099l0.8467,6.6807L41.1845,47.7246z M53.8896,44.8457l-7.5176-0.0664l-3.7656-3.7676h6.6953
		L53.8896,44.8457z"/>
</g>
</svg>
