<?xml version="1.0" encoding="utf-8"?>
<!-- Generator: Adobe Illustrator 17.1.0, SVG Export Plug-In . SVG Version: 6.00 Build 0)  -->
<!DOCTYPE svg PUBLIC "-//W3C//DTD SVG 1.1//EN" "http://www.w3.org/Graphics/SVG/1.1/DTD/svg11.dtd">
<svg version="1.1" id="snowflake-1" xmlns="http://www.w3.org/2000/svg" xmlns:xlink="http://www.w3.org/1999/xlink" x="0px"
	 y="0px" viewBox="0 0 79.9995 79.9995" enable-background="new 0 0 79.9995 79.9995" xml:space="preserve">
<circle id="snowflake-1-label" fill="#F2E6D8" cx="40" cy="39.9997" r="39.9997"/>
<g id="snowflake-1-snowflake-1">
	<path fill="#43BFBD" d="M65.0376,38.7012l-5.4951,0.017l3.8672-3.9531c0.3466-0.3559,0.5175-0.8174,0.5175-1.2763
		c0-0.4712-0.1836-0.9473-0.5488-1.3033c-0.3506-0.3457-0.8144-0.5175-1.2705-0.5175c-0.4727,0-0.9473,0.1855-1.3066,0.5488
		l-6.376,6.5141l-1.6738,0.0064l2.371-2.521c0.3321-0.3496,0.4991-0.8022,0.4991-1.2485c0-0.2193-0.045-0.4351-0.1231-0.6421
		c0.0371-0.1509,0.0596-0.3072,0.0557-0.4698c-0.0127-0.4873-0.2149-0.9257-0.5322-1.2441
		c-0.333-0.3315-0.8008-0.5327-1.3047-0.5303v-0.0009l-3.543-0.1651l1.1065-1.1123l9.0292-0.1479l0.0206-0.003l0.2744-0.0307
		l0.0234-0.0025l0.0264-0.0039c0.3467-0.0761,0.6562-0.2505,0.8994-0.4941c0.3369-0.3325,0.541-0.8003,0.5351-1.3111
		c-0.0048-0.4941-0.2089-0.9443-0.5351-1.268c-0.332-0.333-0.7959-0.5376-1.3037-0.5327l-5.2949,0.0991l3.7714-3.7979
		c0.5411-0.5381,0.5352-1.4072-0.0058-1.9394c-0.5322-0.5366-1.3985-0.5327-1.9356,0.0034l-3.873,3.8975l-0.0596-5.5288
		c-0.0088-0.4957-0.2129-0.9454-0.5342-1.2691c-0.3369-0.334-0.8027-0.54-1.3125-0.5337c-0.4931,0.0073-0.9453,0.2114-1.2656,0.5337
		c-0.334,0.334-0.54,0.8008-0.5361,1.3101l0.0986,9.1186L48.522,29.687l-0.3985,0.4023l-0.1054-3.4594
		c-0.0127-0.481-0.2168-0.9204-0.5323-1.2368c-0.1523-0.1519-0.3388-0.2749-0.541-0.3663c-0.082-0.1313-0.1748-0.2602-0.291-0.3711
		c-0.3506-0.3354-0.8066-0.5029-1.2559-0.5029c-0.4707,0-0.9414,0.188-1.3007,0.5479v-0.0015l-2.6182,2.3862l-0.0039-1.5659
		l6.2764-6.4907l0.0166-0.0166l0.1738-0.2168l0.0127-0.0171l0.0117-0.019c0.1943-0.3008,0.2891-0.6451,0.2891-0.9869
		c0-0.4716-0.1856-0.9492-0.5489-1.3051c-0.3525-0.3457-0.8174-0.5196-1.2734-0.5196c-0.4697,0-0.9443,0.1841-1.3018,0.5469
		l-3.6728,3.8159l-0.0147-5.3584c-0.0019-0.7597-0.6162-1.3696-1.3789-1.3642c-0.7553-0.0015-1.3681,0.6137-1.3637,1.372
		l0.0141,5.4952l-3.9512-3.8677c-0.354-0.3457-0.8173-0.5195-1.2753-0.5195c-0.4727,0-0.9463,0.184-1.3042,0.5507
		c-0.3457,0.3531-0.5181,0.815-0.5181,1.2725c0,0.4707,0.1851,0.9473,0.5493,1.3042l6.5151,6.376l0.002,0.7007l0.0034,0.9746
		l-2.5205-2.3716c-0.3501-0.3306-0.8037-0.4981-1.2505-0.4981c-0.2168,0-0.4326,0.045-0.6406,0.1226
		c-0.1509-0.0361-0.3066-0.0605-0.4707-0.0571c-0.4858,0.0122-0.9268,0.2168-1.2441,0.5332
		c-0.3326,0.3325-0.5328,0.7993-0.5303,1.3066h-0.001l-0.1655,3.5386l-1.1109-1.104l-0.1474-9.0308l-0.0025-0.0205l-0.0307-0.2754
		l-0.0039-0.0219l-0.0044-0.0235c-0.0752-0.3481-0.2495-0.6592-0.4942-0.9018c-0.331-0.335-0.8008-0.5401-1.3115-0.5332
		c-0.4907,0.0034-0.9419,0.2099-1.2656,0.5332c-0.3335,0.3335-0.5386,0.7978-0.5357,1.3051l0.1031,5.2959l-3.8008-3.7758
		c-0.5386-0.5381-1.4082-0.5332-1.9395,0.0087c-0.5356,0.5328-0.5327,1.4004,0.0049,1.9346l3.898,3.874l-5.5323,0.0601
		c-0.4922,0.0083-0.9419,0.2104-1.269,0.5347c-0.3311,0.3354-0.5376,0.8017-0.5322,1.3115
		c0.0063,0.4941,0.2114,0.9429,0.5322,1.2661c0.3345,0.333,0.8037,0.5391,1.3125,0.5332l9.1177-0.0972l0.4951,0.4927l0.6924,0.6885
		l-3.4595,0.1059c-0.4819,0.0118-0.9214,0.2139-1.2363,0.5298c-0.3404,0.3418-0.5464,0.8218-0.5332,1.3404
		c0.0112,0.4824,0.2133,0.9233,0.5312,1.2402c0.0777,0.0776,0.1621,0.1445,0.2539,0.208c0.0381,0.3857,0.1958,0.7647,0.482,1.0664
		l2.2973,2.4429l-0.5674,0.001l-1.1792,0.0039l-6.3833-6.523c-0.3579-0.3638-0.8325-0.5493-1.3042-0.5493
		c-0.457,0-0.9179,0.1743-1.2719,0.5181c-0.3653,0.3559-0.5498,0.8335-0.5489,1.3037c-0.0009,0.459,0.1744,0.9214,0.5166,1.2744
		l3.9043,3.9917l-6.6342,0.0181c-0.7574,0.0048-1.3692,0.6225-1.3692,1.3774c0.0034,0.4883,0.2583,0.9126,0.6397,1.1558
		c0.2148,0.1357,0.4677,0.2138,0.7387,0.2138l6.4019-0.0205l-3.7705,3.6319c-0.3643,0.3584-0.5493,0.832-0.5493,1.3017
		c0,0.458,0.1743,0.9209,0.52,1.2734c0.3559,0.3653,0.8349,0.5508,1.3052,0.5508c0.3418,0,0.686-0.0966,0.9853-0.291l0.0195-0.0117
		l0.2344-0.1865l0.0195-0.0117l0.0147-0.0176l6.4624-6.2539l0.4399-0.002l1.3565-0.0039l-2.4566,2.6934l0.002,0.0019
		c-0.3608,0.3565-0.5469,0.8291-0.5454,1.2979c-0.0015,0.4502,0.167,0.9033,0.498,1.2568c0.3604,0.377,0.8433,0.5693,1.3267,0.5693
		c0.2178,0,0.4375-0.0459,0.6479-0.1259l3.0953,0.0947l-0.3897,0.3916l-0.8433,0.8467L20.6138,48.48
		c-0.5098-0.0039-0.9751,0.2002-1.3101,0.5371c-0.3232,0.3213-0.5273,0.7695-0.5347,1.2646
		c-0.0053,0.5098,0.2002,0.9756,0.5347,1.3106c0.3228,0.3232,0.7759,0.5263,1.269,0.5342l5.5816,0.0605l-4.6782,4.7051
		c-0.5313,0.54-0.5293,1.4082,0.0063,1.9424c0.3447,0.3427,0.8267,0.4648,1.2691,0.3652c0.2465-0.0557,0.4799-0.1787,0.6718-0.3711
		l4.5147-4.54L27.8379,59.52c-0.003,0.5117,0.2012,0.9775,0.5346,1.3076c0.3228,0.3252,0.7725,0.5313,1.2657,0.5352
		c0.5117,0.0068,0.9795-0.1983,1.3105-0.5322c0.2432-0.2452,0.419-0.5557,0.4932-0.9043l0.0073-0.0215l0.0317-0.2979l0.0044-0.0234
		V59.563l0.1475-8.9922l1.2656-1.2734l0.1695,3.6396h0.0019c-0.0039,0.5078,0.1983,0.9736,0.5332,1.3066
		c0.315,0.3164,0.7564,0.5196,1.2403,0.5332c0.52,0.0118,0.999-0.1923,1.3383-0.5351c0.1558-0.1553,0.2783-0.3418,0.3692-0.5479
		l2.2553-2.122v0.497l0.0044,1.25l-6.5214,6.3868c-0.3643,0.3544-0.5479,0.8291-0.5479,1.3017c0,0.458,0.1719,0.9199,0.5166,1.2734
		c0.356,0.3653,0.8325,0.5508,1.3052,0.5489c0.456,0.0019,0.9204-0.1729,1.2734-0.5176l3.9907-3.9043l0.0205,6.6338
		c0.004,0.7578,0.6192,1.3701,1.3765,1.3701c0.4878-0.0039,0.9141-0.2578,1.1563-0.6396c0.1357-0.2129,0.2138-0.4678,0.2138-0.7393
		l-0.0205-6.4023l3.6319,3.7714c0.3574,0.3643,0.832,0.5479,1.2998,0.5479c0.4599,0,0.9209-0.1738,1.2754-0.5186
		c0.3652-0.3564,0.5507-0.833,0.5507-1.3056c0-0.3438-0.0986-0.6856-0.2929-0.9864l-0.0098-0.0185l-0.1865-0.2334l-0.0137-0.0186
		L47.812,59.853l-6.2549-6.4619l-0.0039-1.7969l2.6934,2.4532h0.0039c0.3525,0.3613,0.8252,0.5468,1.2959,0.5468
		c0.4492,0,0.9033-0.1679,1.2539-0.501c0.3779-0.3583,0.5722-0.8427,0.5674-1.3232c0-0.2207-0.0411-0.4394-0.1231-0.6475
		l0.0928-3.0957l1.2422,1.2305l-0.0996,9.126c-0.0059,0.5098,0.1982,0.9756,0.5351,1.3105
		c0.3233,0.3223,0.7715,0.5264,1.2647,0.5323c0.5097,0.0068,0.9775-0.1983,1.3086-0.5323c0.3271-0.3252,0.5302-0.7734,0.5361-1.2666
		l0.0615-5.582l4.7051,4.6758c0.5381,0.5322,1.4072,0.5283,1.9414-0.0059c0.3428-0.3467,0.4629-0.8271,0.3672-1.2695
		c-0.0557-0.2471-0.1787-0.4805-0.3731-0.6719l-4.54-4.5137l5.2334,0.0977c0.5098,0.0059,0.9756-0.2002,1.3076-0.5322
		c0.3242-0.3223,0.5283-0.7725,0.5352-1.2676c0.0058-0.5098-0.2002-0.9775-0.5322-1.3105c-0.2461-0.2442-0.5557-0.42-0.9063-0.4932
		l-0.0205-0.0059l-0.2988-0.0332l-0.0215-0.0039H59.561l-8.9902-0.1465l-1.2754-1.2666l3.6416-0.1699l0,0
		c0.0273,0,0.0537-0.0058,0.083-0.0078c0.3008,0.2002,0.6524,0.3037,1.001,0.3037c0.4805,0,0.9658-0.1924,1.3223-0.5703
		c0.3339-0.3506,0.5019-0.8066,0.5019-1.2539c0-0.4727-0.1885-0.9434-0.5488-1.2979l0.0039-0.0039l-2.3877-2.6172l1.5664-0.0039
		l6.4893,6.2774l0.0166,0.0137l0.2167,0.1738l0.0186,0.0127l0.0186,0.0127c0.3007,0.1933,0.6435,0.29,0.9863,0.29
		c0.4746,0,0.9492-0.1855,1.3037-0.5488c0.3467-0.3526,0.5205-0.8174,0.5205-1.2754c0-0.4697-0.1836-0.9424-0.5449-1.2998
		l-3.8174-3.6729l5.3584-0.0166c0.7598,0,1.3701-0.6172,1.3662-1.3779C66.4116,39.31,65.7974,38.6992,65.0376,38.7012z
		 M50.645,35.6504l-2.9277,3.1011l-4.3506,0.0131l3.1943-3.2124L50.645,35.6504z M44.4487,29.3965l0.1231,4.2627l-3.0635,3.083
		l-0.0127-4.5279L44.4487,29.3965z M38.7515,32.2817l0.0034,1.7744l0.0083,2.5728l-3.211-3.1934l0.0972-4.082L38.7515,32.2817z
		 M33.6577,35.4243l3.3804,3.3584l-3.6104,0.0112l-3.0898-3.2744L33.6577,35.4243z M31.5005,43.7056l2.0644-2.167l3.1851-0.0098
		l-2.249,2.2637L31.5005,43.7056z M36.6089,48.6274l-0.0703-2.9912l2.2441-2.2588l0.0103,3.1905L36.6089,48.6274z M41.5366,46.4311
		l-0.0078-3.1836l2.2588,2.2491l-0.082,3L41.5366,46.4311z M45.6352,43.4585l-1.8886-1.876l-0.0762-0.0742l4.1143-0.0127
		l1.7812,1.8691L45.6352,43.4585z"/>
</g>
</svg>
