<?xml version="1.0" encoding="utf-8"?>
<!-- Generator: Adobe Illustrator 17.1.0, SVG Export Plug-In . SVG Version: 6.00 Build 0)  -->
<!DOCTYPE svg PUBLIC "-//W3C//DTD SVG 1.1//EN" "http://www.w3.org/Graphics/SVG/1.1/DTD/svg11.dtd">
<svg version="1.1" id="snowman" xmlns="http://www.w3.org/2000/svg" xmlns:xlink="http://www.w3.org/1999/xlink" x="0px" y="0px"
	 viewBox="0 0 79.9995 79.9995" enable-background="new 0 0 79.9995 79.9995" xml:space="preserve">
<circle id="snowman-label" fill="#F15B5B" cx="40" cy="39.9997" r="39.9997"/>
<g id="snowman-snowman">
	<path fill="#FCF9F5" d="M43.6597,39.7534c1.9892-2.0117,3.2197-4.7768,3.2197-7.8296c0-6.1557-4.9873-11.144-11.1416-11.144
		s-11.1426,4.9883-11.1426,11.144c0,3.1743,1.333,6.0322,3.4614,8.0606C31.0527,40.9297,36.6997,41.9702,43.6597,39.7534z
		 M42.8696,41.3843c-6.2549,1.7334-11.3574,1.0048-14.4726,0.1211c-4.0752,2.4804-6.8023,6.9648-6.8023,12.0859
		c0,7.8066,6.333,14.1416,14.1431,14.1416c7.8105,0,14.1435-6.335,14.1435-14.1416C49.8813,48.3813,47.061,43.8393,42.8696,41.3843z
		"/>
	<path fill="#FFB8B8" d="M58.4058,37.2568c-7.668,0-14.003,3.3931-14.003,3.3931s2.002,1.6055,7.336-0.0606
		C55.2358,39.4956,58.4058,37.2568,58.4058,37.2568z"/>
	<polygon fill="#7C4D46" points="52.1929,18.5947 46.2456,27.9009 36.7593,20.5527 44.0229,12.2661 	"/>
</g>
</svg>
