<?xml version="1.0" encoding="utf-8"?>
<!-- Generator: Adobe Illustrator 17.1.0, SVG Export Plug-In . SVG Version: 6.00 Build 0)  -->
<!DOCTYPE svg PUBLIC "-//W3C//DTD SVG 1.1//EN" "http://www.w3.org/Graphics/SVG/1.1/DTD/svg11.dtd">
<svg version="1.1" id="snowflake-6" xmlns="http://www.w3.org/2000/svg" xmlns:xlink="http://www.w3.org/1999/xlink" x="0px"
	 y="0px" viewBox="0 0 79.9995 79.9995" enable-background="new 0 0 79.9995 79.9995" xml:space="preserve">
<circle id="snowflake-6-label" fill="#F2E6D8" cx="40" cy="39.9997" r="39.9997"/>
<g id="snowflake-6-snowflake-6">
	<path fill="#43BFBD" d="M24.4746,29.7724l-1.6147-7.3564l4.1157-0.8828l3.6821,12.0649l8.3848,4.5655v-9.42l-8.3848-9.1235
		l2.3545-3.5327l6.0303,5.4458l-0.585-7.9453h2.9385l-0.586,8.0918l6.0303-5.5923l2.503,3.5327l-8.5333,9.418v9.1255l8.6114-4.5655
		l3.7138-12.0649l4.0079,0.8828l-1.6182,7.3564l6.7637-3.9721l0.8838,1.7676l-6.6202,3.9731l7.2119,2.353l-1.4755,3.8257
		l-12.209-2.6504l-8.2393,4.8584l8.2393,5.0034l12.209-2.7959l1.4755,3.8252l-7.2119,2.6455l6.6202,3.6817l-0.8458,1.915
		l-6.5087-3.9746l1.3252,7.3584l-4.0079,0.8809l-3.7138-12.2139L40.81,41.8403v9.4199l8.5333,9.1221l-2.503,3.3779L40.81,58.4673
		l0.4395,7.9443h-2.792l0.585-7.9443l-6.1802,5.2929l-2.2046-3.3779l8.3848-9.4199v-9.415l-8.3848,4.706l-3.6821,12.2139
		l-4.1157-0.8809l1.6147-7.3584l-6.916,3.9746l-1.0293-1.915l6.9175-3.8262l-7.2129-2.501l1.3247-3.8252l12.5078,2.7959
		l7.9477-5.0034l-7.9477-4.8584l-12.5078,2.6504l-1.3247-3.8257l7.2129-2.353l-6.9175-3.9731l1.0293-1.7676L24.4746,29.7724z"/>
</g>
</svg>
