<?xml version="1.0" encoding="utf-8"?>
<!-- Generator: Adobe Illustrator 17.1.0, SVG Export Plug-In . SVG Version: 6.00 Build 0)  -->
<!DOCTYPE svg PUBLIC "-//W3C//DTD SVG 1.1//EN" "http://www.w3.org/Graphics/SVG/1.1/DTD/svg11.dtd">
<svg version="1.1" id="snowflake-4" xmlns="http://www.w3.org/2000/svg" xmlns:xlink="http://www.w3.org/1999/xlink" x="0px"
	 y="0px" viewBox="0 0 79.998 79.9995" enable-background="new 0 0 79.998 79.9995" xml:space="preserve">
<circle id="snowflake-4-label" fill="#FFB8B8" cx="39.9985" cy="39.9997" r="39.9997"/>
<g id="snowflake-4-snowflake-4">
	<g>
		<polygon fill="#FCF9F5" points="27.5342,17.2637 27.3872,17.3506 29.9663,21.8208 30.3379,28.2588 35.7304,31.7998 
			38.313,36.2715 38.4575,36.1855 35.8755,31.7153 35.5068,25.2773 30.1142,21.7344 		"/>
		<polygon fill="#FCF9F5" points="14.6899,39.3418 14.6899,39.5112 19.854,39.5112 25.6152,42.4097 31.3774,39.5112 36.54,39.5112 
			36.54,39.3408 31.3774,39.3408 25.6152,36.4404 19.854,39.3418 		"/>
		<polygon fill="#FCF9F5" points="27.3906,61.5005 27.5366,61.5854 30.1177,57.1157 35.5093,53.5727 35.8784,47.1352 
			38.4599,42.6636 38.3149,42.5786 35.7324,47.0483 30.3393,50.5913 29.9702,57.0317 		"/>
		<polygon fill="#FCF9F5" points="52.9287,61.5835 53.0752,61.4985 50.4941,57.0288 50.1211,50.5913 44.7324,47.0483 
			42.1494,42.5766 42.0029,42.6616 44.584,47.1304 44.9531,53.5727 50.3476,57.1118 		"/>
		<polygon fill="#FCF9F5" points="65.7695,39.5068 65.7695,39.3354 60.6064,39.3354 54.8457,36.4375 49.082,39.3364 
			43.9209,39.3364 43.9209,39.5068 49.082,39.5068 54.8467,42.4057 60.6064,39.5068 		"/>
		<polygon fill="#FCF9F5" points="53.0713,17.3481 52.9248,17.2627 50.3428,21.7334 44.9521,25.2739 44.581,31.7153 42.001,36.1846 
			42.1474,36.2705 44.7285,31.7978 50.1211,28.2588 50.4892,21.8179 		"/>
	</g>
	<g>
		<polygon fill="#F15B5B" points="40.3637,55.4136 40.3637,53.3315 42.4648,56.9731 44.081,56.9731 40.3637,50.5356 
			40.3637,47.0054 41.3916,48.7876 42.289,48.7876 40.3637,45.4516 40.3628,43.9507 39.7397,43.9507 39.7397,45.4516 
			37.811,48.7876 38.709,48.7876 39.7397,47.0054 39.7397,50.5356 36.02,56.9731 37.6357,56.9731 39.7397,53.3315 39.7397,55.2505 
			39.7334,55.2505 39.7334,56.7524 37.8061,60.0893 38.7036,60.0893 39.7334,58.3042 39.7334,61.8374 36.0151,68.2749 
			37.6308,68.2749 39.7334,64.6352 39.7334,66.7134 40.3584,66.7134 40.3584,64.6352 42.4609,68.2749 44.0752,68.2749 
			40.3584,61.8374 40.3584,58.3042 41.3877,60.0893 42.2871,60.0893 40.3584,56.7524 40.3584,55.4136 		"/>
		<polygon fill="#F15B5B" points="55.9189,49.1079 57.9756,49.1079 58.4258,48.3315 54.5713,48.3315 53.414,47.6636 53.414,47.6587 
			51.6142,46.6186 55.8164,46.6186 56.624,45.2202 49.1894,45.2202 46.1338,43.4536 48.1924,43.4536 48.6386,42.6782 
			44.7871,42.6782 43.4873,41.9292 43.1748,42.4712 44.4746,43.2182 46.3994,46.5571 46.8496,45.7788 45.8222,43.9985 
			48.876,45.7632 52.5947,52.2007 53.4023,50.7993 51.3008,47.1597 52.9638,48.1196 52.9619,48.1255 54.2588,48.8745 
			56.1845,52.2114 56.6347,51.4331 55.6054,49.6528 58.6611,51.4165 62.3789,57.855 63.1865,56.4556 61.0859,52.814 62.8867,53.854 
			63.2002,53.313 61.3984,52.2729 65.6025,52.2729 66.4092,50.8735 58.9746,50.8765 		"/>
		<polygon fill="#F15B5B" points="43.4844,38.0654 44.7842,37.3164 48.6386,37.3164 48.1885,36.5386 46.1299,36.5386 
			49.1894,34.7724 56.622,34.7724 55.8135,33.373 51.6123,33.373 53.2715,32.4136 53.2754,32.418 54.5732,31.6665 58.4267,31.6665 
			57.9775,30.8911 55.9199,30.8911 58.9765,29.1255 66.4111,29.1255 65.6045,27.7275 61.3994,27.7275 63.2002,26.6875 
			62.8886,26.144 61.0879,27.186 63.1885,23.5439 62.3818,22.146 58.6631,28.5849 55.6074,30.3481 56.6347,28.5654 56.1865,27.7895 
			54.2617,31.1269 53.1015,31.7944 53.0996,31.7925 51.2978,32.8315 53.3994,29.1929 52.5928,27.7934 48.876,34.2295 
			45.8183,35.9971 46.8476,34.2139 46.3974,33.435 44.4707,36.7739 43.1728,37.5239 		"/>
		<polygon fill="#F15B5B" points="36.0151,23.0249 39.7334,29.4609 39.7334,32.9917 38.7036,31.2095 37.8061,31.2095 
			39.7334,34.5474 39.7334,36.0454 40.3574,36.0454 40.3574,34.5474 42.2832,31.2095 41.3877,31.2095 40.3574,32.9917 
			40.3574,29.4609 44.0742,23.0249 42.4609,23.0249 40.3574,26.665 40.3574,24.7461 40.3628,24.7461 40.3628,23.2446 
			42.289,19.9082 41.3896,19.9082 40.3628,21.6919 40.3628,18.1601 44.0781,11.7222 42.4629,11.7222 40.3628,15.3623 
			40.3628,13.2832 39.7368,13.2832 39.7368,15.3623 37.6347,11.7222 36.019,11.7222 39.7368,18.1601 39.7368,21.6919 
			38.708,19.9082 37.8091,19.9082 39.7368,23.2446 39.7368,24.583 39.7304,24.583 39.7334,26.665 37.6299,23.0249 		"/>
		<polygon fill="#F15B5B" points="24.0776,31.06 22.0219,31.06 21.5718,31.8379 25.4243,31.8379 26.584,32.5063 26.5825,32.5098 
			28.3843,33.5517 24.1802,33.5517 23.3711,34.9477 30.8071,34.9477 33.8637,36.7139 31.8056,36.7139 31.3579,37.4897 
			35.2104,37.4897 36.5102,38.2407 36.8237,37.6992 35.5239,36.9492 33.5981,33.6103 33.1479,34.3896 34.1758,36.1724 
			31.1206,34.4072 27.4009,27.9692 26.5952,29.3682 28.6972,33.0068 27.0337,32.0474 27.0361,32.0454 25.7378,31.2944 
			23.812,27.9595 23.3618,28.7353 24.3926,30.5185 21.3344,28.751 17.6152,22.3159 16.8091,23.7143 18.9116,27.353 17.1094,26.314 
			16.7978,26.8579 18.5981,27.897 14.395,27.897 13.5879,29.2959 21.0215,29.2959 		"/>
		<polygon fill="#F15B5B" points="36.5127,41.7612 35.2143,42.5112 31.3618,42.5132 31.8081,43.2866 33.8681,43.2866 
			30.811,45.0552 23.375,45.0552 24.185,46.4536 28.3896,46.4536 26.7251,47.4136 26.7217,47.4097 25.4243,48.1587 21.5708,48.1587 
			22.0195,48.936 24.0776,48.936 21.0215,50.7007 13.5859,50.7007 14.394,52.102 18.5981,52.102 16.7978,53.1401 17.1094,53.6821 
			18.9116,52.6401 16.8105,56.2827 17.6181,57.6811 21.3344,51.2436 24.3901,49.479 23.3618,51.2602 23.812,52.0376 
			25.7378,48.7007 26.8955,48.0327 26.8984,48.0347 28.7011,46.9946 26.5976,50.6343 27.4062,52.0356 31.1235,45.5932 
			34.1811,43.8296 33.1509,45.6118 33.5996,46.3882 35.5259,43.0513 36.8247,42.3022 		"/>
	</g>
</g>
</svg>
