<?xml version="1.0" encoding="utf-8"?>
<!-- Generator: Adobe Illustrator 17.1.0, SVG Export Plug-In . SVG Version: 6.00 Build 0)  -->
<!DOCTYPE svg PUBLIC "-//W3C//DTD SVG 1.1//EN" "http://www.w3.org/Graphics/SVG/1.1/DTD/svg11.dtd">
<svg version="1.1" id="snowflake-3" xmlns="http://www.w3.org/2000/svg" xmlns:xlink="http://www.w3.org/1999/xlink" x="0px"
	 y="0px" viewBox="0 0 79.9995 79.9965" enable-background="new 0 0 79.9995 79.9965" xml:space="preserve">
<path id="snowflake-3-label" fill="#F15B5B" d="M39.9995,0C17.9097,0,0,17.9077,0,39.997c0,22.0933,17.9097,39.9995,39.9995,39.9995
	c22.0918,0,40-17.9062,40-39.9995C79.9995,17.9077,62.0913,0,39.9995,0z"/>
<g id="snowflake-3-snowflake-3">
	<path fill="#FCF9F5" d="M65.2026,54.8061l-0.5468,0.5401l-0.6827-0.2676l-3.665-2.1709l0.1338,1.4892
		c-0.0908,0.4541-0.1817,0.7246-0.2695,0.8135l-0.2696,0.4131l-0.6826-1.498l-0.2666-2.0372l-2.3164-1.4921l-1.3516,0.541
		l-2.3134-1.3604h-1.9024v4.6201l3.124,1.6309l0.545,0.6807l-0.545,0.538l-0.6767-0.1298l-2.4473-1.3594v2.1748
		c0.9063,0.2685,1.4014,0.8584,1.4942,1.7666c0,0.8125-0.543,1.3125-1.626,1.4893c-1.0899,0-1.6367-0.5401-1.6367-1.626
		l0.4111-1.2256l-1.7676-1.2197l-0.2695,2.7158c-0.2744,0.541-0.4971,0.9082-0.6807,1.0849l-0.542-0.8164l0.4082-3.5312
		l-3.9384-2.5791l-0.9541,1.3555v2.7197l-1.2261,0.9492v2.8545l1.9028,1.4932l0.5479,0.6836l0.2666,0.4062l-0.6739,0.541
		l-0.5449-0.4023l-1.4985-1.2285v3.8056c-0.0874,0.5401-0.1792,0.8604-0.2696,0.9512l-0.4047,0.2705
		c-0.4556-0.3613-0.6797-0.6816-0.6797-0.9492v-4.0781l-2.1758,1.0898c-0.1846-0.0889-0.3413-0.1836-0.4775-0.2744
		c-0.1324-0.0869-0.2437-0.1777-0.3365-0.2705l0.4058-0.5449l2.584-1.7637v-2.4473l-1.3594-1.0859v-2.7197l-0.8164-1.3555
		l-4.208,2.3115l0.4023,3.5303l-0.4023,0.6787l-0.6817-0.8125l-0.4082-2.582l-1.7666,0.9492l0.5454,1.3584l-0.5454,1.0869
		l-1.0883,0.543c-1.084,0-1.6265-0.543-1.6265-1.6299c0-0.543,0.4531-1.1309,1.3623-1.7647l0.1333-2.0361l-3.2671,1.2187l-0.27-0.54
		l0.9531-0.956l2.584-1.3555v-4.4834l-1.6318-0.1367l-2.7207,1.3603l-1.084-0.4023l-3.6699,2.0322l1.226-0.6787l-0.4092,2.8555
		l-0.2729,0.541l-0.269,0.2676c-0.4541,0-0.6363-0.3584-0.542-1.0831v-1.6318l-3.2593,1.7656l-0.8198,0.4092l-0.4048-0.543
		l0.8115-0.9531l3.1245-1.7646l-1.8984-0.6807l-0.5454-0.6787l0.4082-0.4092l0.813,0.2744l2.4472,0.6797l2.3067-1.4941v-1.6367
		l2.4497-1.626l0.4033-1.4942l-4.3433-2.4423l-2.7197,1.4931l-1.0845,0.4073l-0.4052-0.5411l1.0844-1.0918l1.6319-1.0849
		l-1.6319-1.086l-1.3598,0.5435c-0.9048,0-1.4048-0.5908-1.4922-1.7671c0-0.9975,0.4951-1.4932,1.4922-1.4932
		c0.4516,0,1.0864,0.4512,1.9018,1.357l1.6319-0.9492l-2.0411-1.7662l-0.542-0.8154l0.6807-0.4053l0.6763,0.2715l2.4487,2.0342
		l4.0718-2.0342l-0.2695-1.226l-2.5835-1.7662v-1.6303l-2.4414-1.4937l-2.7159,0.6787l-0.6826,0.2725l-0.4028-0.544l0.813-0.6757
		l1.4927-0.5445l-3.2579-2.311l-0.5468-0.5469l0.5468-0.6748l0.6787,0.2681l3.3941,2.04l-0.1367-1.4931l0.1367-0.815l0.4058-0.4087
		c0.5439,0,0.8168,0.4951,0.8168,1.4942l0.1358,2.1718l2.581,1.4956l1.2203-0.5434l2.4472,1.3589h1.9053v-4.6192l-3.1255-1.6303
		l-0.5439-0.6787l0.5439-0.545l0.6768,0.2744l2.4487,1.2217v-2.0366c-0.7285-0.2744-1.2251-0.9058-1.4956-1.9043
		c0-0.812,0.5425-1.3125,1.6265-1.4932c1.0883,0,1.6337,0.544,1.6337,1.6304l-0.5454,1.2276l1.9038,1.2172l0.271-2.8545
		c0-0.5395,0.2232-0.8593,0.6817-0.9472l0.4023,0.6787l-0.2666,3.665l3.9361,2.5845l0.9526-1.3589v-2.854l1.2241-0.8169v-2.7158
		l-1.9067-1.7642l-0.8106-1.0893l0.5406-0.6778l0.6801,0.5415l1.4966,1.0884v-3.5337c0-0.8149,0.2715-1.2226,0.815-1.2226
		l0.541,1.0888v3.8047l2.0361-1.0893l0.4111-0.1363l0.544,0.545l-0.4072,0.6806l-2.584,1.7642v2.5815l1.2187,0.9512v2.854
		l0.958,1.3589l4.209-2.1772l-0.4072-3.8038l0.542-0.5395l0.4082,0.812l0.5439,2.582l1.7666-0.9521l-0.5468-1.3555l0.5468-1.0864
		l1.0899-0.4077c1.083,0,1.626,0.497,1.626,1.4941c0,0.5435-0.4522,1.1319-1.3584,1.7642l-0.1358,2.0395l3.2627-1.3589
		l0.2695,0.5411l-0.9502,1.0893l-2.582,1.4927v4.3467l1.6299,0.1342l2.5859-1.2207l1.2198,0.2715l3.5322-1.8984l-1.084,0.5386
		l0.4033-2.7154l0.1328-0.4087l0.4131-0.4062l0.5391,0.9512l-0.1338,1.7661l3.3984-1.9024l0.8106-0.4087l0.4092,0.545
		l-0.8174,0.8169l-3.1211,2.0327l1.8994,0.6806l0.5449,0.6812l-0.4062,0.4053l-0.8155-0.271l-2.581-0.6783l-2.1719,1.4961v1.625
		l-2.585,1.3619l-0.2705,1.496l4.3516,2.5796l2.7168-1.4941l1.083-0.4063l0.4063,0.5406l-1.085,1.0893l-1.6328,1.0855l1.6328,1.0884
		l0.542-0.1372c0.4502-0.0865,0.7256-0.1773,0.8154-0.2725c0.9082,0,1.3994,0.4995,1.4942,1.4961
		c0,1.1763-0.4991,1.7651-1.4942,1.7651c-0.456,0-1.0869-0.4502-1.9023-1.3584l-1.627,0.8174l2.0371,1.8965l0.541,0.6826
		l-0.6796,0.5449l-0.544-0.4101l-2.5801-2.0371l-4.2119,2.1748l0.4072,1.0879l2.585,1.7666v1.6279l2.1719,1.3574l2.7158-0.6787
		l0.6807-0.1348l0.4062,0.545l-0.6787,0.541l-1.6318,0.6787l3.5342,2.3096L65.2026,54.8061z M60.1724,40.6777l-6.7959-4.4829
		l0.6816-4.3486h-4.3457l0.1357-8.2876l-7.2031,4.2153l-2.4414-3.3975l-2.9912,3.3975l-7.0645-4.4858v8.4208H25.937l0.9551,4.2129
		l-7.0698,3.5313l6.9292,4.4849l-0.9483,4.3476h4.2095v8.1504l7.4726-4.0752l2.3111,3.2627l2.8486-3.2627l7.0674,4.0752v-8.1504
		h4.3457l-1.2217-4.2158L60.1724,40.6777z M33.1401,40.2705l-5.4365,2.7163l-5.2978-3.2612l5.2978-2.7173L33.1401,40.2705z
		 M30.6933,39.997l-2.8549-1.7641l-2.9854,1.6299l2.8506,1.7675L30.6933,39.997z M44.4116,42.8501l4.626,2.7216h1.083l-0.4082-0.955
		l-4.7568-2.9864l0.4091-1.6333l-0.2724-1.6303l4.6201-2.8506l0.4082-0.815h-0.8193l-4.752,2.4429l-0.6787-0.8149l-0.8145-0.6807
		c-0.4521-0.4458-1.2685-0.8101-2.4472-1.0854v-4.8907l-0.6802-0.9472l-0.6758,0.8134v4.8921
		c-1.3603,0.2705-2.3125,0.7222-2.8545,1.357l-1.2217,1.2207l-4.2099-2.5777l-1.2227-0.1391l0.4038,0.9521l4.4815,2.9893
		l-0.2691,1.7641l0.2691,1.7632l-4.4815,2.7197l-0.4038,1.0918l0.9492,0.1299l4.4834-2.7148l1.0855,1.083
		c0.7222,0.6396,1.7187,1.0937,2.9907,1.3594v4.622l0.6758,1.086l0.6802-0.9512v-4.7568c1.1787-0.2657,2.1767-0.7657,2.9912-1.4912
		L44.4116,42.8501z M36.8042,28.9936v6.1162l-5.2998-3.2636v-6.1128L36.8042,28.9936z M36.5356,51.0053l-5.0312,3.1202v-6.1124
		l5.0312-2.9882V51.0053z M35.4492,50.3286v-3.543l-2.9902,1.9063v3.3964L35.4492,50.3286z M35.7202,32.9326v-3.2603l-2.9878-1.7671
		v3.3995L35.7202,32.9326z M35.313,39.997c0-1.1762,0.3589-2.1513,1.0854-2.9228c0.7251-0.7656,1.856-1.2866,3.398-1.5581
		c1.1728,0,2.2627,0.4541,3.2597,1.3598c0.8145,0.9927,1.2227,2.0347,1.2227,3.1211c0,1.0894-0.4307,2.0835-1.291,2.9898
		c-0.8633,0.9053-1.9258,1.4023-3.1914,1.4931c-1.1782,0-2.2002-0.4287-3.0615-1.2871C35.8774,42.3325,35.3994,41.27,35.313,39.997z
		 M48.352,32.1176l-5.2959,3.126l0.1368-5.8428l5.1591-3.2602V32.1176z M48.352,54.1255l-5.1591-3.2608v-6.1123l5.1591,3.2607
		V54.1255z M47.2651,27.9052l-2.9863,2.0396v3.3974l2.9863-1.7675V27.9052z M47.1294,51.9526v-3.3994l-2.8506-1.7676v3.4004
		L47.1294,51.9526z M57.0454,40.2705l-5.4326,2.5796l-5.0254-3.1245l5.2998-2.7173L57.0454,40.2705z M54.7388,40.1342
		l-2.8516-1.9013l-3.2627,1.4927l2.9883,2.0346L54.7388,40.1342z"/>
</g>
</svg>
