<?xml version="1.0" encoding="utf-8"?>
<!-- Generator: Adobe Illustrator 17.1.0, SVG Export Plug-In . SVG Version: 6.00 Build 0)  -->
<!DOCTYPE svg PUBLIC "-//W3C//DTD SVG 1.1//EN" "http://www.w3.org/Graphics/SVG/1.1/DTD/svg11.dtd">
<svg version="1.1" id="snowflake-5" xmlns="http://www.w3.org/2000/svg" xmlns:xlink="http://www.w3.org/1999/xlink" x="0px"
	 y="0px" viewBox="0 0 79.998 79.9995" enable-background="new 0 0 79.998 79.9995" xml:space="preserve">
<circle id="snowflake-5-label" fill="#8BD6D0" cx="39.998" cy="39.9997" r="39.9997"/>
<g id="snowflake-5-snowflake-5">
	<path fill="#FCF9F5" d="M53.331,62.7905h-0.0029l0.8076-2.6973l-1.5244-2.5957l2.502-0.0312l1.2724-1.4023l-1.3115-1.3624
		l-4.0596,0.0538l-2.3564-4.0176l6.9365-0.0947l1.0537-1.1475l0.2774-0.9248l0.0136,0.0088l0.1748-0.584l-3.4629-6.0068
		l4.6602-0.0293l2.0361,3.5185l1.8409,0.4395l0.5468-1.8057l-1.249-2.166l3.0029-0.0234l1.9141-2.066h0.0068v-0.0058l0,0h-0.0068
		l-1.9326-2.0523l-3.0098,0.0288l1.2285-2.1811l-0.5781-1.8042l-1.8369,0.4497l-1.9805,3.543l-4.6562,0.0371l3.3789-6.0596
		l-0.2813-0.8872h-0.0029l-0.0947-0.2979l-0.252-0.4643L55.874,29.624h0.0176l-0.418-0.4521l-6.9346-0.0142l2.3057-4.0444h4.0703
		l1.2949-1.3804l-1.2949-1.3755h-2.498l1.4853-2.6133l-0.832-2.6899v-0.0073l-0.0029,0.0073v-0.0073v0.0073l-2.7442,0.6543
		l-1.4834,2.603l-1.2763-2.1523l-1.8516-0.399l-0.5215,1.8262l2.0752,3.4829l-2.3047,4.0503l-3.5547-5.9487l-0.9048-0.2105v0.0074
		l-0.6118-0.1314l-0.9336,0.211V21.04l-0.5986,0.1465l-3.4727,5.9922l-0.0063,0.0073l-2.3462-4.0229l2.0337-3.5191l-0.5415-1.8188
		l-1.8472,0.436l-1.248,2.168l-1.52-2.604l-2.7461-0.6192l-0.0054-0.0063h-0.002h-0.0034l0.0034,0.0146l-0.8046,2.6905
		l1.5214,2.6045l-2.5019,0.0224l-1.27,1.4033l1.3134,1.3599l4.0577-0.0517l2.3535,4.0166l-4.649,0.0649l-2.2778,0.0352H24.393l0,0
		l-0.6294,0.685l0,0l-0.4208,0.4663L23.06,31.4199l0,0l-0.1753,0.5811l3.4561,6.0151l-4.6563,0.0298l-2.0322-3.5274l-1.8418-0.4301
		l-0.5449,1.8188l1.2446,2.1533l-3.0053,0.0142l-1.9121,2.0801l-0.0074-0.0147l0.0074,0.0147h-0.0074h0.0108l1.9272,2.0439
		l3.0083-0.0224l-1.2236,2.1836l0.5801,1.8056l1.8339-0.4541l1.9834-3.5498l4.6602-0.0283l-1.9023,3.4043l-1.4888,2.6562
		l0.4746,1.4893l0.6528,0.7002h-0.0063l0.416,0.4346l2.8164,0.0087l4.1167,0.0127l-2.2974,4.0381h-4.0786l-1.2895,1.3819
		l1.2895,1.3828h2.5073l-1.4912,2.6103l0.8379,2.6924l-0.0092,0.0068h0.0092l0,0h0.001l2.7446-0.6562l1.4805-2.6162l1.2739,2.1582
		l1.8565,0.4023l0.5185-1.8261l-2.0737-3.4854l2.3042-4.0508l3.5488,5.9571l0.9092,0.205l0,0l0.6221,0.1299l1.5176-0.3486
		l3.4716-6.0068l2.3633,4.0195l-2.042,3.5283l0.5459,1.8096l1.8438-0.4268l1.2509-2.167l1.5166,2.5879l2.7491,0.625l0,0h0.0029
		H53.331z M27.3872,47.3618l2.9468-5.249l6.1015-0.0352l1.9199-2.0674l-1.9375-2.0522L30.31,38.0015l-3.0044-5.2369l6.0274-0.0722
		l3.0849,5.2656l2.7486,0.6255l0.0039,0.0083l-0.0039-0.0083h0.0063h-0.0024l0.8037-2.6909l-3.0918-5.2876l3.0332-5.1997
		l3.0815,5.1709l-3.0229,5.3164l0.8286,2.6909l2.749-0.6675l3.0264-5.2969l6.0273,0.0152l-2.9472,5.2505l-6.1065,0.0312
		l-1.9238,2.0786l1.9434,2.0371l6.1123-0.0283l3.0019,5.2285l-6.0273,0.0801l-3.0869-5.2803l-2.7549-0.625l-0.8028,2.7051
		l3.0879,5.2803l-3.0263,5.2109l-3.0767-5.1738l3.0151-5.3174l-0.8276-2.6846l0.002-0.0078l-0.002,0.0078l-0.0054-0.0078
		l-0.0078,0.0078l-2.7373,0.6504l-3.0219,5.3067L27.3872,47.3618z"/>
</g>
</svg>
