<?xml version="1.0" encoding="utf-8"?>
<!-- Generator: Adobe Illustrator 17.1.0, SVG Export Plug-In . SVG Version: 6.00 Build 0)  -->
<!DOCTYPE svg PUBLIC "-//W3C//DTD SVG 1.1//EN" "http://www.w3.org/Graphics/SVG/1.1/DTD/svg11.dtd">
<svg version="1.1" id="snowflake" xmlns="http://www.w3.org/2000/svg" xmlns:xlink="http://www.w3.org/1999/xlink" x="0px" y="0px"
	 viewBox="0 0 79.998 79.9995" enable-background="new 0 0 79.998 79.9995" xml:space="preserve">
<circle id="snowflake-label" fill="#F15B5B" cx="39.9985" cy="39.9997" r="39.9997"/>
<g id="snowflake-snowflake">
	<g>
		<polygon fill="#FCF9F5" points="55.0615,41.9888 55.0683,40.5254 56.2344,40.5342 58.5039,42.8325 58.831,42.5093 
			56.8818,40.5366 57.5156,40.5415 59.374,42.4243 59.7011,42.102 58.164,40.5444 58.7383,40.5478 60.0781,41.9057 60.4043,41.5845 
			59.3877,40.5522 61.7187,40.5674 61.7236,40.0371 59.4013,40.0249 60.4209,39.0171 60.1006,38.6924 60.1006,38.6924 
			58.7539,40.0205 58.1123,40.0156 59.7246,38.4243 59.4013,38.0991 57.4648,40.0112 56.8594,40.0063 58.8613,38.0337 
			58.5381,37.707 56.2138,40.0024 55.0713,39.9961 55.082,38.5195 53.5947,39.9873 53.1943,39.9834 53.2011,38.8506 
			52.7783,38.8472 52.7744,39.4145 52.7695,39.9819 52.4951,39.9795 52.5019,39.1103 52.1621,39.1084 52.1611,39.5615 
			52.1562,39.977 51.8056,39.9741 51.8115,39.3296 51.54,39.3266 51.5371,39.6904 51.5342,39.9741 49.9287,39.9639 49.9365,38.8472 
			49.0097,38.8418 49.0049,39.4092 49.0019,39.9575 46.1465,39.938 44.958,38.7334 43.499,40.1728 44.9365,41.6294 46.1162,40.4668 
			48.999,40.4858 48.998,41.0474 48.9912,41.6294 49.9179,41.6362 49.9238,40.4927 51.5312,40.5029 51.5293,40.7378 
			51.5273,41.1118 51.7978,41.1118 51.8017,40.5029 52.1533,40.5054 52.1504,40.8721 52.1484,41.3364 52.4892,41.3403 
			52.4912,40.5083 52.7676,40.5107 52.7636,41.0522 52.7597,41.6362 53.1836,41.6382 53.1904,40.5132 53.6074,40.5161 		"/>
		<polygon fill="#FCF9F5" points="49.164,28.0889 47.9043,27.3511 48.4902,26.3452 51.6181,25.5273 51.5019,25.084 48.8193,25.7851 
			49.1386,25.2388 51.6982,24.5703 51.583,24.1269 49.4658,24.6811 49.7578,24.1836 51.6035,23.7036 51.4883,23.2602 
			50.083,23.6255 51.2646,21.6118 50.8076,21.3452 49.6347,23.3476 49.2724,21.9629 48.8301,22.0776 48.8301,22.0776 
			49.3086,23.9077 48.9844,24.4595 48.4121,22.2695 47.9678,22.3857 48.6553,25.0181 48.3496,25.5405 47.6396,22.8218 
			47.1963,22.936 48.0215,26.1001 47.4472,27.0825 46.1719,26.3349 46.6992,28.3569 46.497,28.7051 45.5176,28.1308 
			45.3017,28.4961 45.7929,28.7827 46.2812,29.0688 46.1435,29.3061 45.3935,28.8677 45.2226,29.1592 45.6133,29.3887 
			45.9717,29.6001 45.7929,29.9018 45.2363,29.5742 45.0996,29.8091 45.4131,29.9922 45.6572,30.1357 44.8437,31.522 
			43.8828,30.957 43.416,31.7563 43.9033,32.043 44.3779,32.3213 42.9336,34.7847 41.2949,35.2129 41.8105,37.1963 43.7959,36.6777 
			43.3769,35.0762 44.834,32.5869 45.3164,32.8706 45.8203,33.166 46.2881,32.3677 45.3017,31.7886 46.1133,30.4023 
			46.3174,30.5224 46.6396,30.7119 46.7763,30.477 46.25,30.1684 46.4287,29.8657 46.7441,30.0498 47.1465,30.2861 47.3174,29.9946 
			46.5976,29.5742 46.7383,29.3369 47.207,29.6103 47.709,29.9048 47.9228,29.5395 46.9521,28.9707 47.1631,28.6099 		"/>
		<polygon fill="#FCF9F5" points="34.1391,26.2549 32.8677,26.977 32.2925,25.9658 33.1474,22.8501 32.706,22.7261 31.9726,25.4009 
			31.6582,24.8516 32.3594,22.3008 31.917,22.1792 31.3393,24.2895 31.0527,23.7891 31.56,21.9497 31.1172,21.8286 30.7329,23.2251 
			29.5815,21.1992 29.1201,21.4599 30.2676,23.477 28.8862,23.0976 28.7666,23.5386 28.7666,23.5386 30.5884,24.04 30.9057,24.5962 
			28.7236,23.9966 28.6025,24.4375 31.2246,25.1597 31.5249,25.686 28.8154,24.9419 28.6943,25.3843 31.8447,26.248 
			32.4096,27.2388 31.124,27.9702 33.1396,28.5229 33.3369,28.8725 32.353,29.435 32.5615,29.8022 33.0547,29.522 33.5488,29.2417 
			33.6836,29.479 32.9297,29.9087 33.0957,30.2036 33.4902,29.9809 33.8506,29.7744 34.0244,30.0791 33.4634,30.3999 
			33.5976,30.6343 33.9136,30.4556 34.1582,30.3144 34.9526,31.7124 33.9829,32.2632 34.4419,33.0669 34.9336,32.7871 
			35.4111,32.5156 36.8218,34.9985 36.374,36.6313 38.3496,37.1733 38.893,35.1997 37.2949,34.7588 35.8701,32.2544 
			36.3574,31.9785 36.8642,31.6894 36.4067,30.8848 35.4136,31.4497 34.6177,30.0542 34.8227,29.9355 35.1465,29.7524 
			35.0122,29.5176 34.4834,29.8169 34.3095,29.5127 34.6294,29.332 35.0342,29.1025 34.8652,28.8057 34.1421,29.2182 
			34.0078,28.9785 34.478,28.7119 34.9853,28.4238 34.7749,28.0552 33.7973,28.6123 33.5908,28.2485 		"/>
		<polygon fill="#FCF9F5" points="25.0664,38.3174 25.0586,39.7783 23.8916,39.7705 21.6201,37.4722 21.2954,37.7949 
			23.2441,39.7681 22.6108,39.7627 20.751,37.8799 20.4277,38.2021 21.9634,39.7602 21.3882,39.7549 20.0469,38.3984 
			19.7236,38.7207 20.7407,39.7515 18.4062,39.7378 18.4028,40.2656 20.7241,40.2812 19.7055,41.2866 20.0288,41.6128 
			20.0288,41.6118 21.3725,40.2837 22.0136,40.2891 20.4028,41.8794 20.7241,42.2036 22.6611,40.2915 23.2676,40.2969 
			21.2671,42.269 21.5893,42.5972 23.916,40.3003 25.0532,40.3071 25.0454,41.7847 26.5303,40.3174 26.9336,40.3198 
			26.9248,41.4526 27.3506,41.4546 27.354,40.8901 27.3554,40.3223 27.6328,40.3242 27.6264,41.1919 27.9643,41.1938 
			27.9678,40.7417 27.9707,40.3252 28.3213,40.3276 28.3178,40.9741 28.5884,40.9751 28.5913,40.6113 28.5923,40.3301 
			30.1982,40.3403 30.1914,41.4546 31.1172,41.4604 31.1216,40.895 31.124,40.3457 33.9795,40.3638 35.1709,41.5698 
			36.6284,40.1289 35.1889,38.6719 34.0112,39.8349 31.1294,39.8169 31.1318,39.2573 31.1352,38.6743 30.2094,38.668 
			30.2031,39.8115 28.5947,39.8013 28.5971,39.564 28.5991,39.1929 28.3281,39.1899 28.3257,39.7988 27.9731,39.7988 
			27.9756,39.4326 27.9785,38.9658 27.6406,38.9634 27.6343,39.7964 27.3608,39.7934 27.3618,39.2519 27.3672,38.6689 
			26.9438,38.6665 26.936,39.7895 26.5176,39.7886 		"/>
		<polygon fill="#FCF9F5" points="30.9643,52.2153 32.2256,52.9536 31.6357,53.9585 28.5112,54.7768 28.6274,55.2173 
			31.3081,54.519 30.9883,55.063 28.4272,55.7339 28.5429,56.1753 30.6596,55.6225 30.3691,56.1196 28.5268,56.6001 
			28.6411,57.0454 30.0444,56.6782 28.8628,58.6899 29.3193,58.9585 30.4946,56.9546 30.8559,58.3413 31.2978,58.2261 
			31.2978,58.2261 30.8222,56.397 31.143,55.8452 31.7158,58.0347 32.1592,57.9184 31.4707,55.2856 31.7768,54.7612 
			32.4868,57.4809 32.9306,57.3667 32.1054,54.2046 32.6806,53.2222 33.956,53.9673 33.4282,51.9468 33.6313,51.5991 
			34.6098,52.1724 34.8237,51.8052 34.3354,51.52 33.8462,51.2329 33.9829,50.9975 34.7334,51.435 34.9053,51.1421 34.5141,50.9136 
			34.1548,50.7046 34.3325,50.4028 34.8896,50.727 35.0278,50.4956 34.7129,50.313 34.4692,50.1684 35.2832,48.7798 
			36.2427,49.3452 36.7119,48.5454 36.2236,48.2593 35.75,47.9829 37.1933,45.519 38.832,45.0893 38.3154,43.1089 36.3301,43.6274 
			36.7505,45.228 35.2934,47.7143 34.81,47.4311 34.3071,47.1372 33.8384,47.937 34.8261,48.5141 34.0141,49.8999 33.81,49.7827 
			33.4878,49.5923 33.3501,49.8276 33.876,50.1343 33.6992,50.439 33.3838,50.2505 32.9809,50.0181 32.8095,50.3081 33.5263,50.73 
			33.3886,50.9673 32.9204,50.6909 32.4189,50.397 32.206,50.7632 33.1758,51.3306 32.9643,51.6919 		"/>
		<polygon fill="#FCF9F5" points="45.9892,54.0474 47.2588,53.3257 47.8359,54.3364 46.9795,57.4546 47.4209,57.5727 
			48.1562,54.9009 48.4697,55.4507 47.7666,58.0034 48.2109,58.1225 48.7881,56.0122 49.0742,56.5132 48.5683,58.354 
			49.0097,58.4741 49.3935,57.0766 50.5469,59.105 51.0078,58.8423 49.8584,56.8247 51.2412,57.2046 51.3613,56.7632 
			51.3613,56.7632 49.5381,56.2632 49.2217,55.7046 51.4062,56.3042 51.5254,55.8638 48.9013,55.1431 48.6025,54.6147 
			51.3135,55.3618 51.4336,54.9204 48.2822,54.0552 47.7187,53.061 49.0019,52.3315 46.9883,51.7798 46.79,51.4311 47.7744,50.8696 
			47.5654,50.5024 47.0722,50.7807 46.5791,51.062 46.4433,50.8227 47.1982,50.3921 47.0312,50.1001 46.6367,50.3227 
			46.2763,50.5298 46.1045,50.2241 46.664,49.9038 46.5303,49.6684 46.2138,49.8481 45.9707,49.9897 45.1738,48.5913 
			46.1435,48.0395 45.6855,47.2349 45.1914,47.5171 44.7158,47.7866 43.3037,45.3022 43.7539,43.6704 41.7773,43.1284 
			41.2353,45.105 42.832,45.5444 44.2578,48.0474 43.7715,48.3237 43.2636,48.6147 43.7217,49.4175 44.7138,48.852 45.5088,50.2505 
			45.3037,50.3667 44.9804,50.5522 45.1152,50.7876 45.6426,50.4849 45.8154,50.7915 45.498,50.9731 45.0937,51.2016 
			45.2607,51.4966 45.9834,51.0835 46.1201,51.3237 45.6484,51.5923 45.1435,51.8774 45.3525,52.2466 46.3301,51.6919 
			46.5361,52.0532 		"/>
	</g>
	<g>
		<path fill="#FCF9F5" d="M54.3398,48.8599l1.1338,4.3457l0.4443-0.1153l-1.0205-3.9043l1.5049,0.8828l0.9258,3.542l0.4414-0.1162
			l-0.8066-3.0996l1.4336,0.8399l0.6611,2.5283l0.4404-0.1162l-0.5429-2.084l2.8261,1.6552
			c-0.3398,0.9502,0.0313,2.0333,0.9326,2.5625c1.0196,0.5967,2.3311,0.2559,2.9268-0.7636
			c0.5986-1.0215,0.2578-2.3311-0.7627-2.9278c-0.918-0.538-2.0684-0.3144-2.7246,0.4786l-2.8057-1.6465l2.0625-0.5362
			l-0.1162-0.4443l-2.5049,0.6543l-1.5146-0.8867l3.2041-0.836l-0.1152-0.4433l-3.6475,0.9521l-1.4697-0.8593l3.9531-1.0342
			l-0.1152-0.4434l-4.3975,1.1475l-1.8525-1.086c0.33-0.5625,0.6621-1.1269,0.9902-1.6894
			c-3.0137-1.0117-6.0264-2.0166-9.0391-3.0254l-0.0439-0.0264l-0.0078,0.0078c-0.5967-0.1982-1.1934-0.3984-1.792-0.6005
			c2.833,2.5742,5.665,5.1464,8.4971,7.7158c0.3388-0.5762,0.6767-1.1543,1.0156-1.7334L54.3398,48.8599z"/>
		<polygon fill="#FCF9F5" points="61.2939,49.9409 61.2939,49.9409 61.2939,49.9429 		"/>
		<path fill="#FCF9F5" d="M54.8906,32.102l4.332,1.189l0.1211-0.4409l-3.8896-1.0689l1.5156-0.8613l3.5322,0.9707l0.1211-0.4409
			l-3.0908-0.8516l1.4443-0.8198l2.5196,0.6909l0.1211-0.4409L59.54,29.4585l2.8467-1.6201
			c0.6543,0.7661,1.7773,0.9878,2.6865,0.4712c1.0264-0.5845,1.3858-1.8897,0.8018-2.9165c-0.585-1.0264-1.8906-1.3877-2.917-0.8018
			c-0.9229,0.5249-1.3047,1.6323-0.9492,2.5972l-2.8262,1.6069l0.5654-2.0532l-0.4424-0.1226l-0.6855,2.4966l-1.5254,0.8682
			l0.8789-3.1929l-0.4433-0.1216l-0.9971,3.6343l-1.4824,0.8437l1.082-3.9414l-0.4414-0.1211l-1.2031,4.3824l-1.8672,1.0625
			c-0.3242-0.5684-0.6455-1.1377-0.9678-1.7066c-2.3828,2.1065-4.7627,4.2139-7.1416,6.3184l-0.0459,0.0259l0.0068,0.0102
			c-0.4746,0.418-0.9433,0.8359-1.417,1.251c3.6436-1.166,7.2852-2.3345,10.9297-3.5c-0.33-0.583-0.6621-1.166-0.9931-1.7461
			L54.8906,32.102z"/>
		<polygon fill="#FCF9F5" points="60.6152,45.6391 60.6152,45.6391 60.6152,45.6391 		"/>
		<path fill="#FCF9F5" d="M40.4053,23.1518l3.1962-3.1543l-0.3212-0.3266l-2.8707,2.8335l0.0113-1.7437l2.6054-2.5717
			l-0.3212-0.3257l-2.2813,2.25l0.0117-1.6612l1.8584-1.8364l-0.3222-0.3237l-1.5313,1.5127l0.021-3.2754
			c0.9907-0.1821,1.7446-1.0459,1.7515-2.0894c0.0068-1.1816-0.9424-2.1445-2.127-2.1538
			c-1.1802-0.0078-2.1445,0.9439-2.1523,2.1265c-0.0069,1.0615,0.7617,1.9448,1.7754,2.1191l-0.0215,3.251l-1.4961-1.5166
			l-0.3252,0.3237l1.8198,1.8418l-0.0132,1.753l-2.3237-2.3555l-0.3262,0.3213l2.6475,2.6826l-0.0103,1.7051l-2.872-2.9097
			l-0.3262,0.3223l3.1929,3.2334l-0.0137,2.1474c-0.6543-0.0029-1.3067-0.0078-1.9595-0.0122
			c0.6319,3.1148,1.2666,6.2281,1.8999,9.3413l-0.0014,0.0528h0.0117c0.125,0.6181,0.2514,1.2363,0.3779,1.8535
			c0.8115-3.7403,1.6211-7.4776,2.4316-11.2173c-0.6689-0.0029-1.3398-0.0078-2.0087-0.0132L40.4053,23.1518z"/>
		<polygon fill="#FCF9F5" points="56.8261,45.1147 56.8261,45.1147 56.8261,45.1147 		"/>
		<path fill="#FCF9F5" d="M25.6587,31.1426l-1.1353-4.3462l-0.4424,0.1162l1.0176,3.9009l-1.5024-0.8804l-0.9263-3.5415
			l-0.4434,0.1157l0.8086,3.0982l-1.4331-0.8409l-0.6587-2.5254l-0.4423,0.1163l0.5429,2.0839l-2.8257-1.6567
			c0.337-0.9492-0.0337-2.0342-0.935-2.562c-1.0176-0.5967-2.3291-0.2549-2.9263,0.7651c-0.5986,1.0186-0.2563,2.3316,0.7632,2.9273
			c0.9185,0.5366,2.0664,0.3125,2.7241-0.4795l2.8062,1.6455l-2.062,0.5366l0.1162,0.4434l2.5044-0.6524l1.5151,0.8848
			l-3.2046,0.8384l0.1162,0.4433l3.6446-0.9541l1.4726,0.8614l-3.9541,1.0341l0.1162,0.4439l4.3965-1.1504l1.853,1.0859
			c-0.3301,0.565-0.6616,1.128-0.9917,1.6919c3.0142,1.0088,6.0279,2.0171,9.0406,3.0259l0.0454,0.0254l0.0063-0.0103
			c0.5972,0.2002,1.1958,0.4014,1.7925,0.5997c-2.833-2.5704-5.6655-5.1417-8.4976-7.7134
			c-0.3403,0.5776-0.6782,1.1548-1.0161,1.7334L25.6587,31.1426z"/>
		<polygon fill="#FCF9F5" points="55.3652,46.4682 55.3652,46.4682 55.3652,46.4682 		"/>
		<path fill="#FCF9F5" d="M25.1074,47.9009l-4.3315-1.1914l-0.1202,0.4433l3.8897,1.0694l-1.5166,0.8603l-3.5313-0.9707
			l-0.1196,0.4404l3.0874,0.8496l-1.4434,0.8243l-2.5185-0.6934l-0.1211,0.4395l2.0762,0.5712l-2.8467,1.6202
			c-0.6524-0.7657-1.7769-0.9873-2.686-0.4717c-1.0254,0.5849-1.3868,1.8916-0.8013,2.917c0.583,1.0293,1.8926,1.3886,2.9165,0.8027
			c0.9258-0.5244,1.3061-1.6318,0.9502-2.5976l2.8242-1.6094l-0.5635,2.0556l0.4414,0.1211l0.6861-2.497l1.5244-0.8662
			l-0.877,3.1904l0.441,0.124l0.998-3.6367l1.4819-0.8408l-1.082,3.9404l0.4424,0.1211l1.2016-4.3818l1.8677-1.0635
			c0.3237,0.5683,0.6465,1.1367,0.9688,1.707c2.3818-2.1084,4.7612-4.2129,7.1406-6.3213l0.0439-0.0244l-0.0039-0.0078
			c0.4722-0.418,0.9453-0.8359,1.4146-1.2549c-3.6431,1.167-7.2852,2.3359-10.9287,3.5039c0.332,0.583,0.6631,1.1641,0.9931,1.7451
			L25.1074,47.9009z"/>
		<polygon fill="#FCF9F5" points="56.0469,50.771 56.0469,50.771 56.0449,50.771 		"/>
		<path fill="#FCF9F5" d="M39.5932,56.8481l-3.1958,3.1563l0.3213,0.3262l2.8706-2.835l-0.0117,1.7441l-2.605,2.5703l0.3213,0.3282
			l2.2813-2.2491l-0.0108,1.6612l-1.8579,1.834l0.3208,0.3261l1.5313-1.5117l-0.0196,3.2744
			c-0.9892,0.1817-1.7436,1.045-1.75,2.0899c-0.0092,1.1806,0.9439,2.1435,2.1255,2.1504c1.1812,0.0078,2.1441-0.9434,2.1519-2.125
			c0.0068-1.0606-0.7637-1.9444-1.7754-2.1192l0.0205-3.25l1.4961,1.5166l0.3262-0.3242l-1.8194-1.8428l0.0113-1.7539l2.3266,2.3565
			l0.3242-0.3223l-2.6469-2.6797l0.0112-1.7051l2.8711,2.9082l0.3252-0.3222l-3.1919-3.2354l0.0127-2.1465
			c0.6538,0.0059,1.3081,0.0088,1.9604,0.0108c-0.6338-3.1113-1.2675-6.2266-1.9023-9.3399l0.0015-0.0546h-0.0103
			c-0.1255-0.6153-0.2519-1.2325-0.3784-1.8516c-0.811,3.7402-1.6206,7.4775-2.4307,11.2168
			c0.668,0.0068,1.3389,0.0107,2.0103,0.0137L39.5932,56.8481z"/>
		<polygon fill="#FCF9F5" points="59.832,51.2944 59.832,51.2944 59.832,51.2944 		"/>
	</g>
</g>
</svg>
