<?xml version="1.0" encoding="utf-8"?>
<!-- Generator: Adobe Illustrator 17.1.0, SVG Export Plug-In . SVG Version: 6.00 Build 0)  -->
<!DOCTYPE svg PUBLIC "-//W3C//DTD SVG 1.1//EN" "http://www.w3.org/Graphics/SVG/1.1/DTD/svg11.dtd">
<svg version="1.1" id="winter-cap" xmlns="http://www.w3.org/2000/svg" xmlns:xlink="http://www.w3.org/1999/xlink" x="0px" y="0px"
	 viewBox="0 0 79.9995 79.9995" enable-background="new 0 0 79.9995 79.9995" xml:space="preserve">
<circle id="winter-cap-label" fill="#8BD6D0" cx="39.999" cy="39.9997" r="39.9997"/>
<g id="winter-cap-winter-cap">
	<path fill="#F15B5B" d="M57.6421,52.8979h-0.3262C56.5815,36.0864,49.1177,26.564,39.9936,26.564
		c-9.1201,0-16.5849,9.5224-17.3173,26.3339H22.355c-3.023,0-5.4668,2.4473-5.4668,5.4688c0,3.0205,2.4438,5.4658,5.4668,5.4658
		h35.2871c3.0185,0,5.4678-2.4453,5.4678-5.4658C63.1099,55.3452,60.6606,52.8979,57.6421,52.8979z"/>
	<path fill="#FCF9F5" d="M45.1313,21.3061c0-2.8413-2.2988-5.1401-5.1352-5.1401c-2.8345,0-5.1353,2.2988-5.1353,5.1401
		c0,2.835,2.3008,5.1338,5.1353,5.1338C42.8325,26.4399,45.1313,24.1411,45.1313,21.3061z"/>
	<polygon fill="#FCF9F5" points="45.1909,45.1724 48.022,43.5405 49.6645,44.4878 46.8315,46.1216 49.5806,47.7085 48.7593,49.1304 
		46.0102,47.5493 46.0102,50.814 44.3667,49.8667 44.3667,46.5962 40.8203,44.5474 40.8203,48.645 43.6518,50.2778 43.6518,52.1763 
		40.8203,50.5415 40.8203,53.7153 39.1772,53.7153 39.1772,50.5415 36.3476,52.1763 36.3476,50.2778 39.1772,48.645 
		39.1772,44.5493 35.6294,46.5962 35.6294,49.8667 33.9858,50.814 33.9858,47.5493 31.2378,49.1304 30.415,47.7085 33.1636,46.1216 
		30.3354,44.4878 31.9785,43.5405 34.8096,45.1724 38.3555,43.1274 34.8096,41.0766 31.977,42.7134 30.3354,41.7641 
		33.1636,40.1279 30.415,38.542 31.2378,37.1186 33.9858,38.7075 33.9858,35.4365 35.6294,36.3857 35.6294,39.6533 39.1772,41.7016 
		39.1772,37.6055 36.3476,35.9731 36.3476,34.0747 39.1772,35.709 39.1772,32.5312 40.8203,32.5312 40.8203,35.709 43.6518,34.0747 
		43.6518,35.9731 40.8203,37.6055 40.8203,41.7016 44.3667,39.6533 44.3667,36.3857 46.0102,35.4365 46.0102,38.7075 
		48.7593,37.1186 49.5806,38.542 46.8315,40.1279 49.6645,41.7641 48.022,42.7104 45.189,41.0766 41.6421,43.1274 	"/>
</g>
</svg>
