<?xml version="1.0" encoding="utf-8"?>
<!-- Generator: Adobe Illustrator 17.1.0, SVG Export Plug-In . SVG Version: 6.00 Build 0)  -->
<!DOCTYPE svg PUBLIC "-//W3C//DTD SVG 1.1//EN" "http://www.w3.org/Graphics/SVG/1.1/DTD/svg11.dtd">
<svg version="1.1" id="winter-glove" xmlns="http://www.w3.org/2000/svg" xmlns:xlink="http://www.w3.org/1999/xlink" x="0px"
	 y="0px" viewBox="0 0 79.998 79.9965" enable-background="new 0 0 79.998 79.9965" xml:space="preserve">
<circle id="winter-glove-label" fill="#43BFBD" cx="39.9985" cy="39.9982" r="39.9982"/>
<g id="winter-glove-winter-glove">
	<g>
		<path fill="#F15B5B" d="M59.5556,29.7881c-3.8457-2.9625-8.3554,1.0253-10.8867,3.9389
			c-0.1211-0.6933-0.2529-1.4028-0.4062-2.1333c0,0-1.416-21.8203-17.9063-19.0923c0,0-15.3164,1.4414-10.3784,27.2305
			c4.6201,24.1201,17.1719,20.5957,17.1719,20.5957s3.6328-0.5898,6.937-3.8916c4.9746,0.0332,8.1631-7.917,8.1631-7.917
			c1.6855-4.4209,6.1787-8.8823,6.1787-8.8823C63.459,33.2133,59.5556,29.7881,59.5556,29.7881z"/>
		<path fill="#FCF9F5" d="M26.313,55.6977c0,0,9.5381,5.2383,23.5971-2.9433c0,0,2.7608,1.3271,3.3213,4.7109
			c0.6182,3.7598-2.1797,5.9346-2.1797,5.9346s-10.0844,7.3711-23.4965,2.8808c0,0-3.0874-1.9336-3.0738-5.8457
			C24.4922,57.0796,26.313,55.6977,26.313,55.6977z"/>
	</g>
	<path fill="#FCF9F5" d="M44.539,34.7031l-1.1933,1.0234l-0.9346-0.3154l1.8047-1.5776l-1.1807-0.4078l-1.8642,1.5684
		l-0.4478-0.1509l-1.082-5.3315l0.333-0.2935l2.3774,0.7329l0.9336-0.8349l-2.3252-0.7632l0.7393-0.6533l1.542,0.4892l0.9316-0.8349
		l-1.4961-0.5118l0.9825-0.8676l0.0459-0.7945l-0.7998-0.062l-0.9678,0.8535l-0.3145-1.5034l-0.9463,0.8213l0.2891,1.5376
		L40.228,27.479l-0.4624-2.3482l-0.9438,0.8242l0.4228,2.3887l-0.3789,0.3364l-5.1143-1.7148l-0.0957-0.4727l1.8174-1.686
		l-0.2583-1.2236l-1.8198,1.625l-0.1958-0.9624l1.1894-1.0874l-0.2568-1.2256l-1.1914,1.0366l-0.2598-1.2812l-0.6689-0.4327
		l-0.4492,0.6607l0.2563,1.2607l-1.4599-0.478l0.2387,1.229l1.4795,0.5254l0.1973,0.9653l-2.27-0.7768l0.2392,1.228l2.2906,0.8315
		l0.0996,0.4888l-4.045,3.5781l-0.4585-0.1494l-0.5502-2.4248l-1.1954-0.3877l0.5025,2.3936l-0.9341-0.3169l-0.3452-1.5742
		l-1.1934-0.3892l0.3062,1.5508l-1.2432-0.417l-0.7095,0.3594l0.3477,0.7221l1.2227,0.4087l-1.1451,1.0283l1.1836,0.4034
		l1.1895-1.0162l0.9355,0.3096l-1.8042,1.5786l1.1851,0.4053l1.8603-1.564l0.4668,0.1578l1.0747,5.2968l-0.3549,0.313
		l-2.3667-0.7295l-0.9327,0.8345l2.3174,0.7646l-0.7383,0.6509l-1.5361-0.4858l-0.9302,0.8354l1.4947,0.5098l-0.9854,0.8687
		l-0.04,0.7959l0.7983,0.0576l0.9639-0.8555l0.3169,1.5078l0.9448-0.8213l-0.2866-1.5439l0.7407-0.6538l0.4595,2.355l0.9477-0.8223
		l-0.4272-2.3985l0.3432-0.3056l5.1548,1.7285l0.0889,0.4385l-1.814,1.6826l0.2578,1.2266l1.8169-1.6241l0.1958,0.961l-1.187,1.0879
		l0.2564,1.2275l1.1899-1.0381l0.2598,1.2813l0.6694,0.4355l0.4483-0.6601l-0.2564-1.2647l1.4639,0.4785l-0.2437-1.2295
		l-1.4795-0.5224l-0.1953-0.9639l2.2725,0.7744l-0.2393-1.2314l-2.2934-0.8277l-0.0708-0.3506l0.0132-0.0034l-0.0206-0.101
		l4.0625-3.5904l0.4244,0.1363l0.5498,2.413l1.1884,0.3912l-0.497-2.3916l0.9345,0.3134l0.3448,1.5738l1.1933,0.3886l-0.3047-1.5483
		l1.2403,0.4165l0.709-0.3608l-0.3467-0.7222l-1.2237-0.4097l1.1446-1.0244L44.539,34.7031z M33.9697,28.0361l4.0737,1.3662
		l-0.8833,0.7788l-2.9575-0.9917L33.9697,28.0361z M36.3642,33.3838l-0.1694-0.835l0.8535-0.7539l0.3965,1.9541L36.3642,33.3838z
		 M37.0893,34.831l-1.476,1.3042L35.3867,35.02l0.623-0.5542L37.0893,34.831z M34.4394,30.3545l1.8257,0.6098l-0.8579,0.7529
		l-0.7412-0.2485L34.4394,30.3545z M32.852,28.2631l0.2334,1.1534l-2.3491,2.0747l-1.1152-0.3736L32.852,28.2631z M31.8618,31.8711
		l1.46-1.293l0.226,1.1177l-0.6059,0.5385L31.8618,31.8711z M32.5674,33.3105l0.1577,0.7744l-0.8579,0.7525l-0.3828-1.8902
		L32.5674,33.3105z M29.2461,32.1909l1.1108,0.3784l0.6192,3.0498l-0.877,0.7759L29.2461,32.1909z M34.9658,38.6816l-4.1548-1.394
		l0.8848-0.7788l3.0356,1.017L34.9658,38.6816z M34.4956,36.3623l-1.9102-0.6397l0.8579-0.7534l0.8262,0.2778L34.4956,36.3623z
		 M34.685,34.3388L33.7324,34.02l-0.2007-0.9844l0.7534-0.6641l0.9502,0.3179l0.1997,0.9863L34.685,34.3388z M36.0835,38.4546
		l-0.2334-1.1558l2.3637-2.0903l1.1143,0.3735L36.0835,38.4546z M39.6885,34.5029l-1.1167-0.3755l-0.6333-3.1167l0.8833-0.7749
		L39.6885,34.5029z"/>
</g>
</svg>
