<?xml version="1.0" encoding="utf-8"?>
<!-- Generator: Adobe Illustrator 17.1.0, SVG Export Plug-In . SVG Version: 6.00 Build 0)  -->
<!DOCTYPE svg PUBLIC "-//W3C//DTD SVG 1.1//EN" "http://www.w3.org/Graphics/SVG/1.1/DTD/svg11.dtd">
<svg version="1.1" id="xmas-ball" xmlns="http://www.w3.org/2000/svg" xmlns:xlink="http://www.w3.org/1999/xlink" x="0px" y="0px"
	 viewBox="0 0 79.998 79.9995" enable-background="new 0 0 79.998 79.9995" xml:space="preserve">
<circle id="xmas-ball-label" fill="#F2E6D8" cx="39.999" cy="39.9997" r="39.9997"/>
<g id="xmas-ball-xmas-ball">
	<path fill="#43BFBD" d="M14.9092,39.998c0,13.8579,11.2338,25.0933,25.0952,25.0933c13.853,0,25.0835-11.2354,25.0835-25.0933
		c0-13.8535-11.2305-25.0903-25.0835-25.0903C26.143,14.9077,14.9092,26.1445,14.9092,39.998z"/>
	<g>
		<polygon fill="#FCF9F5" points="33.9189,30.603 35.1933,29.7891 36.3691,30.7461 35.9853,29.2807 37.2597,28.4604 35.7451,28.373 
			35.3584,26.9043 34.8061,28.3203 33.2949,28.23 34.4658,29.1933 		"/>
		<polygon fill="#FCF9F5" points="18.5928,44.1968 19.5781,43.56 20.4858,44.3081 20.1899,43.1753 21.1772,42.5376 20.0063,42.4731 
			19.7099,41.3345 19.2817,42.4292 18.1162,42.3618 19.0259,43.103 		"/>
		<polygon fill="#FCF9F5" points="56.3574,33.3457 57.1328,32.8472 57.8535,33.435 57.6162,32.5376 58.3945,32.0405 
			57.4687,31.9892 57.2363,31.0957 56.9004,31.9556 55.9775,31.9014 56.6943,32.4844 		"/>
		<polygon fill="#FCF9F5" points="43.5713,39.0298 44.3525,38.5278 45.0615,39.1133 44.833,38.2197 45.6084,37.7178 
			44.6904,37.6728 44.4482,36.7739 44.1152,37.6328 43.1924,37.5854 43.9062,38.1733 		"/>
		<polygon fill="#FCF9F5" points="44.0967,27.833 44.5644,27.5322 44.998,27.8843 44.8554,27.353 45.3281,27.0488 44.7724,27.0102 
			44.626,26.4736 44.4306,26.9946 43.8681,26.9619 44.2959,27.3169 		"/>
		<polygon fill="#FCF9F5" points="22.5884,27.4307 23.0547,27.1284 23.4863,27.4849 23.3467,26.9429 23.8183,26.6435 
			23.2558,26.6035 23.1167,26.0698 22.9136,26.5893 22.3584,26.5561 22.7846,26.9097 		"/>
		<polygon fill="#FCF9F5" points="32.9336,34.3286 33.4062,34.0283 33.8364,34.3818 33.6919,33.8403 34.1616,33.541 
			33.6094,33.5083 33.4682,32.9682 33.2617,33.4853 32.7099,33.4595 33.1401,33.8091 		"/>
		<polygon fill="#FCF9F5" points="50.3886,33.7212 50.8584,33.4194 51.2881,33.7729 51.1494,33.2339 51.6162,32.9346 
			51.0615,32.896 50.9199,32.3569 50.7138,32.8779 50.1611,32.8472 50.5898,33.2002 		"/>
		<polygon fill="#FCF9F5" points="57.2861,27.0229 57.7549,26.7222 58.1855,27.0747 58.0459,26.5366 58.5156,26.2363 
			57.9619,26.2036 57.8174,25.6597 57.6162,26.1807 57.0556,26.1538 57.4892,26.5005 		"/>
		<polygon fill="#FCF9F5" points="37.688,24.416 38.4619,23.9199 39.1841,24.5063 38.9433,23.6103 39.7256,23.1084 38.7993,23.0561 
			38.562,22.1621 38.2314,23.0249 37.3081,22.9692 38.0234,23.5537 		"/>
		<polygon fill="#FCF9F5" points="28.8408,22.4731 29.5395,22.0278 30.1792,22.5503 29.9673,21.7534 30.667,21.3105 
			29.8418,21.2617 29.6323,20.4531 29.3276,21.228 28.5024,21.1782 29.145,21.708 		"/>
		<polygon fill="#FCF9F5" points="58.6758,45.2182 59.9551,44.397 61.126,45.3589 60.7441,43.8891 62.0185,43.0698 60.5049,42.9858 
			60.1181,41.5181 59.5713,42.9321 58.0508,42.8423 59.2304,43.8022 		"/>
		<polygon fill="#FCF9F5" points="42.4394,20.6606 43.7158,19.8423 44.8896,20.8066 44.5029,19.3349 45.7871,18.5161 
			44.2705,18.4258 43.8838,16.9634 43.334,18.3716 41.8203,18.2891 42.9961,19.2446 		"/>
		<polygon fill="#FCF9F5" points="49.7441,25.3164 50.4424,24.8716 51.082,25.3979 50.8681,24.5908 51.5703,24.1494 
			50.7392,24.0962 50.5332,23.2993 50.2334,24.0698 49.4053,24.019 50.0429,24.54 		"/>
	</g>
	<path fill="#FCF9F5" d="M29.1523,28.8569c-1.1191,1.1709-1.8901,2.6939-2.0962,4.4258c-0.5005,4.2354,2.5298,8.0811,6.77,8.5879
		c1.0347,0.1221,2.0376,0.0351,2.9795-0.2324c-1.6196,1.6963-3.977,2.6347-6.4873,2.3418c-4.2426-0.503-7.2705-4.3443-6.768-8.5821
		C23.9267,32.1865,26.2256,29.6743,29.1523,28.8569z"/>
</g>
</svg>
