<?xml version="1.0" encoding="utf-8"?>
<!-- Generator: Adobe Illustrator 17.1.0, SVG Export Plug-In . SVG Version: 6.00 Build 0)  -->
<!DOCTYPE svg PUBLIC "-//W3C//DTD SVG 1.1//EN" "http://www.w3.org/Graphics/SVG/1.1/DTD/svg11.dtd">
<svg version="1.1" id="xmas-sign" xmlns="http://www.w3.org/2000/svg" xmlns:xlink="http://www.w3.org/1999/xlink" x="0px" y="0px"
	 viewBox="0 0 79.9965 79.9995" enable-background="new 0 0 79.9965 79.9995" xml:space="preserve">
<path id="xmas-sign-label" fill="#8BD6D0" d="M39.997,0C17.9077,0,0,17.9082,0,39.9995c0,22.0918,17.9077,40,39.997,40
	c22.0933,0,39.9995-17.9082,39.9995-40C79.9965,17.9082,62.0903,0,39.997,0z"/>
<g id="xmas-sign-xmas-sign">
	<polygon fill="#FCF9F5" points="62.5766,23.1855 15.5708,23.1855 15.5708,50.6108 62.9897,50.6108 72.3491,37.4751 	"/>
	<rect x="36.9604" y="17.5488" fill="#7C4D46" width="5.25" height="4.4751"/>
	<rect x="36.9604" y="52.0893" fill="#7C4D46" width="5.25" height="18.2842"/>
	<path fill="#F15B5B" d="M26.8838,42.0737l-2.4249-3.6738l-2.4243,3.6738h-2.4111l3.6489-5.5019l-3.3457-5.1021h2.4429
		l2.0928,3.2222l2.0654-3.2222h2.4058l-3.2603,5.061l3.6523,5.543H26.8838z M32.2622,37.7475h-2.9385v-1.894h2.9385V37.7475z
		 M43.5307,42.0464h-2.0195v-6.0249l-1.9063,6.0249h-2.246l-1.8863-5.9444v5.9444h-2.0239V31.522h2.3564l2.6597,7.8564
		l2.6216-7.8564h2.4443V42.0464z M51.9233,42.0464l-0.9326-2.3365h-4.082l-0.8995,2.3365h-2.0986l3.9209-10.5244h2.249
		l3.9473,10.5244H51.9233z M61.021,41.6772c-0.7305,0.5127-1.6133,0.7676-2.6495,0.7676c-1.2402,0-2.2968-0.3447-3.1777-1.0283
		c-0.9697-0.7666-1.4277-1.7734-1.3721-3.0303h2.0411c0,0.7007,0.2636,1.2569,0.7861,1.6592
		c0.4639,0.3735,1.0088,0.5605,1.6484,0.5605c0.4639,0,0.8731-0.1084,1.2276-0.3261c0.3574-0.2207,0.5879-0.5269,0.6894-0.9239
		c0.0244-0.1123,0.041-0.2207,0.041-0.3217c0-0.5567-0.538-0.9976-1.6201-1.3184c-1.7002-0.5229-2.6924-0.855-2.9795-1.0132
		c-1.042-0.5849-1.5263-1.4682-1.4424-2.6538c0.0684-0.9336,0.4834-1.6792,1.2471-2.2241c0.6865-0.4815,1.5186-0.7207,2.5127-0.7207
		c1.1348,0,2.0889,0.3091,2.8623,0.9311c0.8789,0.691,1.2852,1.6206,1.2197,2.7828h-2.0185c0-0.6192-0.2061-1.1036-0.6231-1.4458
		c-0.3632-0.3057-0.7968-0.458-1.3144-0.458c-0.4522,0-0.8438,0.1137-1.1758,0.3354c-0.3301,0.2256-0.5185,0.5352-0.5557,0.915
		c-0.0537,0.5601,0.461,1.0264,1.5538,1.3755c1.7382,0.5664,2.7451,0.9224,3.0195,1.0703c1.0566,0.6192,1.5244,1.5323,1.4131,2.7456
		C62.2592,40.3476,61.8178,41.1255,61.021,41.6772z M47.6411,37.8242h2.6416l-1.3106-3.7939L47.6411,37.8242z"/>
</g>
</svg>
