<?xml version="1.0" encoding="utf-8"?>
<!-- Generator: Adobe Illustrator 17.1.0, SVG Export Plug-In . SVG Version: 6.00 Build 0)  -->
<!DOCTYPE svg PUBLIC "-//W3C//DTD SVG 1.1//EN" "http://www.w3.org/Graphics/SVG/1.1/DTD/svg11.dtd">
<svg version="1.1" id="xmas-stocking-2" xmlns="http://www.w3.org/2000/svg" xmlns:xlink="http://www.w3.org/1999/xlink" x="0px"
	 y="0px" viewBox="0 0 79.9995 79.998" enable-background="new 0 0 79.9995 79.998" xml:space="preserve">
<circle id="xmas-stocking-2-label" fill="#FFB8B8" cx="40" cy="39.999" r="39.999"/>
<g id="xmas-stocking-2-xmas-stocking-2">
	<path fill="#8BD6D0" d="M20.917,19.417c-1.4483-2.9683,18.1474-8.6812,18.1474-8.6812c2.0142,3.9248,7.563,16.874,7.563,16.874
		C50.1274,35.9516,55.979,45,55.979,45c7.2217,9.3115-0.1074,11.6172-0.1074,11.6172c-8.5567,2.581-14.2754,9.4082-14.2754,9.4082
		c-8.3076,7.2773-13.4571,1.5381-13.4571,1.5381c-7.645-8.6094,5.8389-15.5196,5.8389-15.5196
		c9.6885-7.7304-12.2295-31.8911-12.2295-31.8911"/>
	<path fill="#43BFBD" d="M39.3066,10.7607c0.5786,1.1699-3.0415,4.1299-8.0678,6.6074c-5.0362,2.4903-9.586,3.5479-10.1607,2.378
		c-0.5801-1.167,3.0332-4.1299,8.0693-6.6114C34.1777,10.6533,38.7246,9.5908,39.3066,10.7607z"/>
	<path fill="#EF5655" d="M28.7832,55.7314l-0.1499,0.3613c-2.6616,2.8282-4.5415,6.9112-0.4942,11.4708
		c0,0,4.419,4.914,11.67-0.1407l0.3745-0.1142C37.8315,59.5879,29.1514,55.8847,28.7832,55.7314z"/>
	<path fill="#EF5655" d="M55.979,45c0,0-0.6318-0.9824-1.5996-2.5791l-0.0283-0.086c0,0-0.0166,0.0059-0.0205,0.0069
		c-0.0332-0.0537-0.0625-0.1026-0.0948-0.1582c-0.1845,0.1406-0.3496,0.291-0.5205,0.4345
		c-1.9521,0.9893-7.6474,4.9834-4.8535,17.1075l0.7617-0.1748c-0.0078-0.042-0.0127-0.0782-0.0205-0.1182
		c1.8486-1.0986,3.9473-2.1143,6.2686-2.8154C55.8716,56.6172,63.2007,54.3115,55.979,45z"/>
	<g>
		<path fill="#FFFFFF" d="M32.7778,30.0967l3.8887,1.1674l0.7627-3.8296l4.167,1.5147l1.5127-3.7866l3.081,1.7094l0.0684-0.1215
			c-0.1162-0.2671-0.2578-0.5962-0.419-0.9668l-3.1259-1.7354l-1.5606,3.9072l-4.312-1.5649l-0.7729,3.8779l-3.813-1.144
			l-1.0733,3.5708c0.1807,0.292,0.3584,0.583,0.5367,0.8779l0.0146,0.0044L32.7778,30.0967z"/>
		<path fill="#F15B5B" d="M40.2207,26.2368c0.2642,0,0.4849-0.2085,0.4849-0.4756c0-0.2685-0.2207-0.4849-0.4849-0.4849
			c-0.2691,0-0.4805,0.2164-0.4805,0.4849C39.7402,26.0283,39.9516,26.2368,40.2207,26.2368z"/>
		<path fill="#F15B5B" d="M38.6743,29.7021c0.2661,0,0.4829-0.2163,0.4829-0.4785c0-0.2705-0.2168-0.4766-0.4829-0.4766
			c-0.2632,0-0.4849,0.2061-0.4849,0.4766C38.1894,29.4858,38.4111,29.7021,38.6743,29.7021z"/>
		<path fill="#F15B5B" d="M34.8281,29.3257c0.2642,0,0.4776-0.2207,0.4776-0.481c0-0.2681-0.2134-0.4849-0.4776-0.4849
			c-0.2715,0-0.4839,0.2168-0.4839,0.4849C34.3442,29.105,34.5566,29.3257,34.8281,29.3257z"/>
		<path fill="#F15B5B" d="M34.1533,31.9258c0-0.2686-0.2197-0.4859-0.479-0.4859c-0.2671,0-0.4849,0.2173-0.4849,0.4859
			c0,0.2597,0.2178,0.4785,0.4849,0.4785C33.9336,32.4043,34.1533,32.1855,34.1533,31.9258z"/>
		<path fill="#F15B5B" d="M43.6782,27.4004c0.2666,0,0.4834-0.2217,0.4834-0.4878c0-0.2696-0.2168-0.479-0.4834-0.479
			c-0.2656,0-0.4766,0.2094-0.4766,0.479C43.2016,27.1787,43.4126,27.4004,43.6782,27.4004z"/>
		<path fill="#FFFFFF" d="M42.0366,45.2851l0.7031-3.8759l5.1114,1.2255l1.6074-3.9077l3.5556,1.3926
			c-0.2021-0.3486-0.4111-0.7075-0.6259-1.083l-3.3594-1.3154l-1.6465,3.9975l-5.2637-1.2607l-0.7119,3.917l-4.666-0.8711
			l-0.4087,1.376c0.1157,0.8632,0.1499,1.6962,0.0757,2.4824l0.8818-2.961L42.0366,45.2851z"/>
		<path fill="#F15B5B" d="M46.0952,40.0464c0.3213-0.0176,0.5732-0.2495,0.5566-0.5201c-0.0185-0.2587-0.289-0.4536-0.6064-0.4404
			c-0.3242,0.0176-0.5693,0.2485-0.5508,0.5147C45.5093,39.8618,45.7788,40.0703,46.0952,40.0464z"/>
		<path fill="#F15B5B" d="M44.3862,42.6543c-0.3174,0.0215-0.5654,0.249-0.5508,0.5117c0.0205,0.2637,0.2852,0.4736,0.6065,0.4512
			c0.3242-0.0186,0.5693-0.2549,0.5556-0.5186C44.9809,42.8379,44.7085,42.6357,44.3862,42.6543z"/>
		<path fill="#F15B5B" d="M39.1748,43.0566c0.0142,0.2666,0.2886,0.4619,0.6025,0.4356c0.3311-0.0059,0.5786-0.2422,0.5562-0.5098
			c-0.0137-0.2607-0.2852-0.4688-0.6069-0.4453C39.4048,42.5595,39.1572,42.7861,39.1748,43.0566z"/>
		<path fill="#F15B5B" d="M38.5176,45.6933c-0.3282,0.0215-0.5718,0.2491-0.5552,0.5176c0.0185,0.2647,0.2837,0.46,0.6064,0.4492
			c0.3223-0.0224,0.5728-0.2529,0.5523-0.5205C39.1064,45.8789,38.834,45.6758,38.5176,45.6933z"/>
		<path fill="#F15B5B" d="M50.2837,40.0029c-0.3174,0.0117-0.5615,0.249-0.5547,0.5078c0.0244,0.2642,0.2891,0.4737,0.6123,0.4478
			c0.3184-0.0157,0.5615-0.2476,0.5508-0.5117C50.8804,40.1797,50.604,39.9824,50.2837,40.0029z"/>
		<path fill="#FFFFFF" d="M31.4365,22.8921l3.5357,1.792l1.7983-4.6543l4.1055,1.144l1.0014-4.4136
			c-0.0273-0.062-0.0556-0.1225-0.083-0.1845l-0.6416-0.1455l-0.8564,3.7709l-3.9971-1.1132l-1.7436,4.5107L31.06,21.8261
			l-1.8222,4.042l-3.4356-1.3276l-0.1289,0.3345c0.1641,0.207,0.3311,0.4267,0.4995,0.6455l3.4727,1.3437L31.4365,22.8921z"/>
		<path fill="#F15B5B" d="M38.187,22.5595c0.1797-0.229,0.1655-0.5551-0.0337-0.7202c-0.2114-0.1616-0.522-0.1123-0.7153,0.1055
			c-0.1885,0.23-0.1651,0.5508,0.0376,0.7148C37.6816,22.8359,37.9985,22.7856,38.187,22.5595z"/>
		<path fill="#F15B5B" d="M34.4267,21.6694c0.1856-0.2261,0.1709-0.5469-0.0351-0.7173c-0.2075-0.165-0.5254-0.1206-0.7056,0.1055
			c-0.1909,0.2256-0.1723,0.5498,0.0337,0.7168C33.9272,21.9448,34.2397,21.894,34.4267,21.6694z"/>
		<path fill="#F15B5B" d="M31.2817,24.5869c-0.1801,0.23-0.165,0.542,0.0415,0.7148c0.2051,0.1675,0.5166,0.1177,0.7085-0.1059
			c0.187-0.2271,0.1675-0.544-0.041-0.7222C31.7851,24.3115,31.4678,24.3579,31.2817,24.5869z"/>
		<path fill="#F15B5B" d="M28.8398,24.2197c0.1826-0.2227,0.1724-0.5425-0.0341-0.7139c-0.2076-0.164-0.522-0.1259-0.7037,0.1031
			c-0.1909,0.2319-0.1733,0.5498,0.0342,0.7231C28.3345,24.4941,28.6562,24.456,28.8398,24.2197z"/>
		<path fill="#F15B5B" d="M39.7163,18.8745c0.1846-0.2251,0.1689-0.5449-0.0381-0.7163c-0.2065-0.166-0.521-0.125-0.7046,0.1064
			c-0.188,0.2237-0.1758,0.5469,0.0362,0.7139C39.2158,19.1499,39.5283,19.1054,39.7163,18.8745z"/>
		<path fill="#FFFFFF" d="M38.958,36.1167l3.0845,1.7436l1.7929-4.1045l3.628,1.1929l0.9345-3.4409
			c-0.1259-0.2632-0.2558-0.5249-0.3818-0.7901l-0.1963-0.0537l-0.8935,3.2862l-3.5225-1.1587l-1.7285,3.9629l-3.0464-1.7212
			l-1.7871,3.5473l-2.9776-1.3042l-0.0517,0.1167c0.147,0.3003,0.2891,0.6001,0.4282,0.8995l2.9663,1.2988L38.958,36.1167z"/>
		<path fill="#F15B5B" d="M44.9722,36.0259c0.1738-0.1983,0.1738-0.4883,0-0.6441c-0.1856-0.1606-0.4659-0.1289-0.6416,0.0733
			c-0.1729,0.1943-0.1729,0.479,0,0.6347C44.5161,36.2485,44.8013,36.2134,44.9722,36.0259z"/>
		<path fill="#F15B5B" d="M41.6518,35.0898c0.1778-0.1958,0.1778-0.4848,0-0.6426c-0.1728-0.1586-0.4677-0.124-0.6337,0.064
			c-0.1773,0.1973-0.1773,0.4849,0,0.646C41.1968,35.3086,41.479,35.2851,41.6518,35.0898z"/>
		<path fill="#F15B5B" d="M39.3808,38.1357c0.1734-0.1899,0.1705-0.4785-0.0073-0.6347c-0.1802-0.1617-0.4638-0.1338-0.6396,0.062
			c-0.1734,0.1992-0.1734,0.4848,0.0146,0.6357C38.9219,38.3647,39.2036,38.333,39.3808,38.1357z"/>
		<path fill="#F15B5B" d="M36.5693,37.1421c0.1778-0.1846,0.1704-0.4737-0.0049-0.6314c-0.1743-0.164-0.4594-0.1318-0.6386,0.064
			c-0.1695,0.1948-0.1695,0.48,0.0092,0.6357C36.105,37.3672,36.394,37.3393,36.5693,37.1421z"/>
		<path fill="#F15B5B" d="M46.4829,32.7944c0.1797-0.1958,0.1758-0.4775-0.0059-0.6406c-0.1757-0.1592-0.4648-0.1333-0.6357,0.0713
			c-0.1777,0.1909-0.167,0.4785,0.0039,0.6386C46.0229,33.0185,46.3032,32.9927,46.4829,32.7944z"/>
	</g>
</g>
</svg>
