<?xml version="1.0" encoding="utf-8"?>
<!-- Generator: Adobe Illustrator 17.1.0, SVG Export Plug-In . SVG Version: 6.00 Build 0)  -->
<!DOCTYPE svg PUBLIC "-//W3C//DTD SVG 1.1//EN" "http://www.w3.org/Graphics/SVG/1.1/DTD/svg11.dtd">
<svg version="1.1" id="xmas-ball-4" xmlns="http://www.w3.org/2000/svg" xmlns:xlink="http://www.w3.org/1999/xlink" x="0px"
	 y="0px" viewBox="0 0 79.9965 79.9995" enable-background="new 0 0 79.9965 79.9995" xml:space="preserve">
<circle id="xmas-ball-4-label" fill="#7C4D46" cx="39.998" cy="39.9997" r="39.9997"/>
<g id="xmas-ball-4-xmas-ball-4">
	<g>
		<path fill="#F2E6D8" d="M43.4799,27.2056v-3.3457c0-1.0601-0.8691-1.9195-1.9423-1.9195h-3.1988
			c-1.0727,0-1.9458,0.8594-1.9458,1.9195v3.3681c-9.3183,1.6768-16.3857,9.7324-16.3857,19.4277
			c0,10.9141,8.9502,19.7579,19.9897,19.7579c11.0435,0,19.9927-8.8438,19.9927-19.7579
			C59.9897,36.9214,52.8598,28.8325,43.4799,27.2056"/>
		<path fill-rule="evenodd" clip-rule="evenodd" fill="#7C4D46" d="M27.3632,46.5366c0,1.709-1.3979,3.0908-3.1259,3.0908
			c-1.7251,0-3.125-1.3818-3.125-3.0908c0-1.7041,1.3999-3.0869,3.125-3.0869C25.9653,43.4497,27.3632,44.8325,27.3632,46.5366"/>
		<g>
			<path fill="#43BFBD" d="M32.125,50.0757c-1.9707,0-3.5743-1.5889-3.5743-3.5391c0-1.9521,1.6036-3.5391,3.5743-3.5391
				c1.9716,0,3.5766,1.587,3.5766,3.5391C35.7016,48.4868,34.0966,50.0757,32.125,50.0757L32.125,50.0757z M32.125,43.895
				c-1.4746,0-2.6753,1.1846-2.6753,2.6416c0,1.4551,1.2007,2.6387,2.6753,2.6387c1.4785,0,2.6772-1.1836,2.6772-2.6387
				C34.8022,45.0796,33.6035,43.895,32.125,43.895L32.125,43.895z"/>
		</g>
		<path fill-rule="evenodd" clip-rule="evenodd" fill="#F15B5B" d="M43.1684,46.5366c0,1.709-1.3994,3.0908-3.125,3.0908
			c-1.7251,0-3.124-1.3818-3.124-3.0908c0-1.7041,1.3989-3.0869,3.124-3.0869C41.769,43.4497,43.1684,44.8325,43.1684,46.5366"/>
		<g>
			<path fill="#43BFBD" d="M47.9301,50.0757c-1.9726,0-3.5732-1.5889-3.5732-3.5391c0-1.9521,1.6006-3.5391,3.5732-3.5391
				c1.9707,0,3.5762,1.587,3.5762,3.5391C51.5063,48.4868,49.9008,50.0757,47.9301,50.0757L47.9301,50.0757z M47.9301,43.895
				c-1.4746,0-2.6757,1.1846-2.6757,2.6416c0,1.4551,1.2011,2.6387,2.6757,2.6387c1.4756,0,2.6788-1.1836,2.6788-2.6387
				C50.6089,45.0796,49.4057,43.895,47.9301,43.895L47.9301,43.895z"/>
		</g>
		<path fill-rule="evenodd" clip-rule="evenodd" fill="#7C4D46" d="M58.9741,46.5366c0,1.709-1.3994,3.0908-3.126,3.0908
			c-1.7275,0-3.126-1.3818-3.126-3.0908c0-1.7041,1.3985-3.0869,3.126-3.0869C57.5747,43.4497,58.9741,44.8325,58.9741,46.5366"/>
	</g>
	<g>
		<path fill-rule="evenodd" clip-rule="evenodd" fill="#F15B5B" d="M37.4126,20.8398c-3.5474-0.5883-8.1768,3.9224-11.2149-0.3149
			c-1.8862-2.6206,2.0923-5.4297,4.688-5.2412c4.1392,0.2944,6.728,3.0903,9.3374,6.729c-0.02,0.0102,0.0317,0.0395,0.0454,0.0566
			C39.3881,21.9253,38.4814,21.0151,37.4126,20.8398z M30.9756,16.2744c-1.0865,0.1753-2.5352,1.3433-2.2618,2.4111
			c0.4512,1.795,3.4449,1.7827,5.2681,1.7622c1.8262-0.0258,2.9609-0.3847,3.5283-0.5673
			C35.7358,18.2368,33.435,15.8896,30.9756,16.2744z"/>
		<path fill-rule="evenodd" clip-rule="evenodd" fill="#F15B5B" d="M49.8784,13.6973c3.2207-0.8072,6.7431,3.0073,5.041,5.8496
			c-3.0127,5.0659-12.3623,0.8462-16.6011,1.9243C38.5141,21.4917,46.1889,14.6357,49.8784,13.6973z M51.8364,20.4995
			c0.9785-0.5938,1.5254-2.5742,0.6953-3.3721c-2.6055-2.5278-8.3076,1.1177-10.5937,2.5567
			c-1.4551,0.9131-1.1495,0.7553-1.2735,0.8154C44.7524,21.0205,48.4116,22.5522,51.8364,20.4995z"/>
		<path fill-rule="evenodd" clip-rule="evenodd" fill="#F15B5B" d="M39.5254,19.2475c0.8017,0,1.4545,0.71,1.4545,1.5923
			c0,0.8789-0.6528,1.5889-1.4545,1.5889c-0.7974,0-1.4483-0.71-1.4483-1.5889C38.0771,19.9575,38.728,19.2475,39.5254,19.2475z"/>
	</g>
</g>
</svg>
