<?xml version="1.0" encoding="utf-8"?>
<!-- Generator: Adobe Illustrator 17.1.0, SVG Export Plug-In . SVG Version: 6.00 Build 0)  -->
<!DOCTYPE svg PUBLIC "-//W3C//DTD SVG 1.1//EN" "http://www.w3.org/Graphics/SVG/1.1/DTD/svg11.dtd">
<svg version="1.1" id="xmas-ball-6" xmlns="http://www.w3.org/2000/svg" xmlns:xlink="http://www.w3.org/1999/xlink" x="0px"
	 y="0px" viewBox="0 0 79.9995 79.9995" enable-background="new 0 0 79.9995 79.9995" xml:space="preserve">
<circle id="xmas-ball-6-label" fill="#7C4D46" cx="40" cy="39.9997" r="39.9997"/>
<g id="xmas-ball-6-xmas-ball-6">
	<path fill="#F2E6D8" d="M45.3071,14.9785c0.249,0.0874,0.5303,0.3726,0.5957,0.6406l-0.0332,4.2974
		c-0.0693,0.334-0.4209,0.4639-0.6904,0.561h-0.085l-0.0517,2.6411c0.0312,0.418,0.584,0.2222,0.8008,0.3252
		c7.4267,1.628,16.3593,5.0254,18.6162,13.3516c1.4511,4.958,0.5371,10.7539-3.0723,14.4541
		c-5.5303,6.0752-13.2705,7.9873-19.7227,12.333c-0.6045,0.3984-1.1445,1.0117-1.6181,1.5088
		c-2.02-2.1397-4.7193-3.4277-7.2656-4.7051c-7.4117-3.6846-17.7911-8.4453-17.8633-18.4453
		c-0.4375-6.1553,3.4057-11.9766,8.7758-14.8086c3.5279-1.8808,7.2803-3.1714,11.316-3.8081l0.1176-0.1177l0.022-2.6919
		c-0.3662-0.0512-0.751-0.1889-0.9175-0.5229c-0.1225-1.4219-0.0761-3.0435-0.0122-4.5313
		c0.0679-0.2837,0.4199-0.3984,0.6543-0.5302C38.0015,14.9394,41.7808,14.8506,45.3071,14.9785z M44.4917,16.3774l-8.1563-0.0649
		l-0.7212,0.0278l-0.0209,2.6919l8.8798-0.0454L44.4917,16.3774z"/>
	<path fill="#43BFBD" d="M59.27,29.5322c0.4131,0.457,1.0274,0.811,1.3604,1.2998L24.917,30.7495l-5.4136,0.0425
		c0.3374-0.5142,0.8608-0.8955,1.3301-1.2764l2.3257-0.0649L33.79,29.5l4.4468-0.0151l12.2393-0.021L59.27,29.5322z"/>
	<path fill="#F15B5B" d="M64.6558,44.021c-0.3672,1.9707-1.1348,3.7685-2.2178,5.4316h-0.083
		c-1.6172-2.6543-3.2334-5.3095-4.8701-7.9795l-0.3194,0.3975l-5.7246,9.3496l-2.5234,4.1113l-0.875-1.3291l-7.6104-12.4638
		l-0.1133-0.1172l-8.0952,12.8574c-0.1679,0.3379-0.3384,0.668-0.5591,1.001h-0.1152l-3.251-5.3262l-5.2353-8.5488L22.7432,41.77
		l-4.879,7.9014h-0.0795c-1.1431-1.6475-1.981-3.4258-2.3326-5.4024l5.2793-8.4174c0.7647-1.1993,1.5611-2.3619,2.3213-3.5928
		h0.0835l8.3511,13.7085l0.1328,0.1172l6.4517-10.2642l2.2348-3.5439h0.0801l6.9048,11.2397l1.5293,2.5869h0.1172l8.0107-13.062
		l0.4912-0.7471l0.3653,0.4717L64.6558,44.021z"/>
	<path fill="#43BFBD" d="M52.9497,57.1694c-0.8232,0.4278-1.5928,0.9248-2.4492,1.2676l-19.7808-0.0723
		c-1.456,0.4746-2.4658-0.7861-3.6846-1.2304c0.3687-0.0489,0.5191-0.0655,0.837,0.0039l11.3203,0.0049
		C43.6206,57.145,48.2016,57.0972,52.9497,57.1694z"/>
</g>
</svg>
