<?xml version="1.0" encoding="utf-8"?>
<!-- Generator: Adobe Illustrator 17.1.0, SVG Export Plug-In . SVG Version: 6.00 Build 0)  -->
<!DOCTYPE svg PUBLIC "-//W3C//DTD SVG 1.1//EN" "http://www.w3.org/Graphics/SVG/1.1/DTD/svg11.dtd">
<svg version="1.1" id="xmas-ball-2" xmlns="http://www.w3.org/2000/svg" xmlns:xlink="http://www.w3.org/1999/xlink" x="0px"
	 y="0px" viewBox="0 0 79.9995 79.998" enable-background="new 0 0 79.9995 79.998" xml:space="preserve">
<circle id="xmas-ball-2-label" fill="#F2E6D8" cx="40" cy="39.999" r="39.999"/>
<g id="xmas-ball-2-xmas-ball-2">
	<path fill="#43BFBD" d="M40.7563,24.3208c0.4112-0.229,0.6914-0.6553,0.6914-1.1524c0-0.7119-0.581-1.2895-1.3086-1.3173
		c-0.0029-0.063-0.0122-0.1221-0.0122-0.1817c0,0.0596-0.0112,0.1187-0.0146,0.1782c-0.0093,0-0.0195-0.0019-0.0244-0.0019
		c-0.7525,0-1.3643,0.5903-1.3643,1.3227c0,0.5137,0.2974,0.9493,0.7295,1.1739c-3.7285,7.4712-21.8716,11.5937-21.5825,22.4135
		c0.2978,11.4434,22.0478,13.6573,21.9985,22.9571c0.0493-9.2998,21.8257-11.2813,22.2525-22.7217
		C62.522,36.1567,44.3745,31.8471,40.7563,24.3208z"/>
	<g>
		<path fill="#8BD6D0" d="M48.3403,37.4453c0.4746,0.4736,0.4697,1.2392,0,1.709c-0.4707,0.4682-7.7573,6.04-7.7573,6.04
			s5.5776-7.2793,6.0503-7.749C47.104,36.9731,47.8696,36.9761,48.3403,37.4453z"/>
		<path fill="#8BD6D0" d="M47.7475,43.457c-0.2636,0.2676-0.6914,0.2676-0.9628,0c-0.2627-0.2656-0.2627-0.6973,0.0058-0.956
			c0.2656-0.2696,0.6934-0.2696,0.957-0.004C48.0161,42.7636,48.0161,43.1933,47.7475,43.457z"/>
		<path fill="#8BD6D0" d="M45.9448,44.1211c-0.3369,0.125-5.1206,1.2373-5.1206,1.2373s4.3316-2.3272,4.6665-2.4532
			c0.334-0.1201,0.707,0.0469,0.835,0.379C46.4497,43.6201,46.2827,43.9922,45.9448,44.1211z"/>
		<circle fill="#8BD6D0" cx="43.3061" cy="38.6196" r="0.6787"/>
		<path fill="#8BD6D0" d="M42.8569,39.5058c0.3242,0.1475,0.4688,0.5303,0.3223,0.8555c-0.1484,0.3257-2.751,4.4981-2.751,4.4981
			s1.4238-4.7066,1.5752-5.0318C42.146,39.5029,42.5298,39.3584,42.8569,39.5058z"/>
		<path fill="#8BD6D0" d="M40.0669,33.9604c0.6689,0,1.2099,0.5396,1.2099,1.2071c0,0.6655-1.2192,9.7573-1.2192,9.7573
			s-1.1977-9.0928-1.1977-9.7593C38.8599,34.5,39.4018,33.9604,40.0669,33.9604z"/>
		<path fill="#8BD6D0" d="M38.563,39.6596c0.1255,0.3394,1.2397,5.1265,1.2397,5.1265s-2.3213-4.332-2.4521-4.6675
			c-0.124-0.3344,0.0444-0.7075,0.3794-0.8354C38.0615,39.1601,38.439,39.3252,38.563,39.6596z"/>
		<path fill="#8BD6D0" d="M36.938,37.8603c0.271-0.2685,0.7002-0.2685,0.9678,0c0.2626,0.2617,0.2626,0.6963,0,0.9585
			c-0.2676,0.2642-0.7007,0.2642-0.9678-0.001C36.6777,38.5503,36.6777,38.1211,36.938,37.8603z"/>
		<path fill="#8BD6D0" d="M31.7534,37.3432c0.4692-0.4692,1.2329-0.4692,1.7085,0.001c0.4683,0.4727,6.0386,7.7622,6.0386,7.7622
			s-7.2779-5.582-7.7481-6.0566C31.2808,38.5805,31.2808,37.8169,31.7534,37.3432z"/>
		<path fill="#8BD6D0" d="M39.3057,45.1797c0,0-4.7066-1.4229-5.0318-1.5703c-0.3301-0.1465-0.4692-0.5284-0.3208-0.8565
			c0.1411-0.3271,0.5239-0.4717,0.853-0.3223C35.1352,42.5801,39.3057,45.1797,39.3057,45.1797z"/>
		<path fill="#8BD6D0" d="M33.7407,42.3008c0,0.3779-0.3037,0.6845-0.6748,0.6806c-0.3789,0-0.6802-0.3027-0.6802-0.6806
			c0-0.3721,0.3047-0.6758,0.6802-0.6778C33.4394,41.625,33.7407,41.9287,33.7407,42.3008z"/>
		<path fill="#8BD6D0" d="M28.2651,45.6172c0.003-0.6661,0.5366-1.208,1.2071-1.208c0.6709,0,9.7612,1.2168,9.7612,1.2168
			s-9.0938,1.1982-9.7612,1.1982C28.8017,46.8242,28.2651,46.2822,28.2651,45.6172z"/>
		<path fill="#8BD6D0" d="M39.2334,45.8047c0,0-4.3345,2.3261-4.6694,2.4531c-0.3355,0.124-0.711-0.0459-0.834-0.3809
			c-0.1255-0.332,0.0434-0.707,0.3799-0.8349C34.4419,46.9179,39.2334,45.8047,39.2334,45.8047z"/>
		<path fill="#8BD6D0" d="M33.2637,48.6679c-0.2662,0.2627-0.6954,0.2627-0.9595-0.0009c-0.2642-0.2676-0.2642-0.7012,0-0.961
			c0.2661-0.2666,0.6933-0.2666,0.9595,0.002C33.5322,47.9736,33.5298,48.4023,33.2637,48.6679z"/>
		<path fill="#8BD6D0" d="M31.645,53.9297c-0.4653-0.4698-0.4653-1.2354,0.0073-1.7061c0.4727-0.4687,7.7554-6.04,7.7554-6.04
			s-5.5762,7.2793-6.0522,7.7509C32.8862,54.4043,32.1206,54.4033,31.645,53.9297z"/>
		<circle fill="#8BD6D0" cx="36.7471" cy="52.5439" r="0.6787"/>
		<path fill="#8BD6D0" d="M37.1938,51.6562c-0.3208-0.1484-0.4653-0.5293-0.3178-0.8584c0.1435-0.3242,2.7475-4.4951,2.7475-4.4951
			s-1.4228,4.707-1.5644,5.0352C37.9067,51.6621,37.5249,51.8066,37.1938,51.6562z"/>
		<path fill="#8BD6D0" d="M39.9204,57.4189c-0.6665-0.0039-1.2041-0.5439-1.2041-1.206c0-0.67,1.2168-9.7608,1.2168-9.7608
			s1.1992,9.0948,1.1992,9.7617C41.1323,56.8799,40.5893,57.4189,39.9204,57.4189z"/>
		<path fill="#8BD6D0" d="M41.4868,51.5019c-0.123-0.3379-1.2363-5.125-1.2363-5.125s2.3242,4.3321,2.4521,4.667
			c0.126,0.3389-0.0449,0.711-0.3799,0.836C41.9868,52.0039,41.6196,51.8349,41.4868,51.5019z"/>
		<path fill="#8BD6D0" d="M43.1089,53.3027c-0.2617,0.2656-0.6953,0.2656-0.959,0c-0.2627-0.2627-0.2627-0.6943,0-0.957
			c0.2637-0.2686,0.6992-0.2666,0.959,0C43.3774,52.6123,43.3774,53.04,43.1089,53.3027z"/>
		<path fill="#8BD6D0" d="M48.2368,54.0322c-0.4658,0.4727-1.2363,0.4727-1.706,0c-0.4727-0.4746-6.0406-7.7578-6.0406-7.7578
			s7.2808,5.583,7.7505,6.0508C48.7114,52.7988,48.7075,53.5654,48.2368,54.0322z"/>
		<path fill="#8BD6D0" d="M40.749,45.9844c0,0,4.7046,1.4228,5.0347,1.5693c0.3193,0.1494,0.4678,0.5332,0.3193,0.8584
			c-0.1445,0.3203-0.5322,0.4687-0.8564,0.3203C44.9184,48.5869,40.749,45.9844,40.749,45.9844z"/>
		<path fill="#8BD6D0" d="M46.31,48.8613c0-0.3799,0.3028-0.6797,0.6807-0.6797c0.375,0,0.6787,0.3028,0.6787,0.6797
			c0,0.377-0.3037,0.6807-0.6787,0.6836C46.6128,49.542,46.31,49.2373,46.31,48.8613z"/>
		<path fill="#8BD6D0" d="M50.5151,46.9707c-0.667-0.003-9.7588-1.2178-9.7588-1.2178s9.0967-1.2021,9.7647-1.2021
			c0.6621,0,1.2012,0.5449,1.2012,1.2109C51.7222,46.4287,51.1792,46.9707,50.5151,46.9707z"/>
	</g>
	<path fill="#F15B5B" d="M37.2104,23.084l1.5826-0.1128c0.0175-0.0454,0.0297-0.0992,0.0463-0.1485
		c0.0289,0.003,0.0596,0.0103,0.0899,0.0103c0.1391,0,0.2724-0.0259,0.4033-0.0679c4.4141-0.0991,16.2217,0.7158,13.9951-5.3413
		c-1.3955-3.8682-5.1816-2.6343-8.2353-1.2329c-2.1787,1.104-3.5987,2.8042-5.0552,4.5478
		c-0.1929-0.2685-0.4922-0.4672-0.8355-0.5366c0.0865-4.9267-2.4082-11.9184-7.476-9.3784
		c-2.8941,1.4858-2.3433,4.0064-0.9751,6.5361C31.7534,19.1899,34.895,23.4355,37.2104,23.084z M44.5249,17.7973
		c1.9502-0.8969,4.3682-1.686,5.2656,0.7871c1.5235,4.1631-7.3193,3.2476-9.5005,3.4419l-0.0918-0.0498
		c0.0039-0.0102,0.0083-0.0175,0.0083-0.0268C41.6089,20.458,42.6079,18.7661,44.5249,17.7973z M33.1382,13.2378
		c3.747-1.8775,5.5796,3.3471,5.4897,6.9716c-0.6035,0.1319-1.0576,0.6631-1.0576,1.2979c0,0.2578,0.0762,0.4995,0.2105,0.7046
		l-0.6148,0.04c-1.7046,0.2583-4.0117-2.8618-4.748-4.2114C31.4106,16.1836,31.0054,14.3296,33.1382,13.2378z"/>
</g>
</svg>
