<?xml version="1.0" encoding="utf-8"?>
<!-- Generator: Adobe Illustrator 17.1.0, SVG Export Plug-In . SVG Version: 6.00 Build 0)  -->
<!DOCTYPE svg PUBLIC "-//W3C//DTD SVG 1.1//EN" "http://www.w3.org/Graphics/SVG/1.1/DTD/svg11.dtd">
<svg version="1.1" id="xmas-bear" xmlns="http://www.w3.org/2000/svg" xmlns:xlink="http://www.w3.org/1999/xlink" x="0px" y="0px"
	 viewBox="0 0 79.998 79.998" enable-background="new 0 0 79.998 79.998" xml:space="preserve">
<circle id="xmas-bear-label" fill="#43BFBD" cx="39.999" cy="39.999" r="39.999"/>
<g id="xmas-bear-xmas-bear">
	<g>
		<g>
			<path fill="#7C4D46" d="M57.1045,53.3847c0.6943-0.1855,1.1103-0.4199,1.1103-0.4199
				c9.1729-3.8135-8.0322-16.4419-8.0322-16.4419c-0.9941-0.6826-1.8203-0.7016-2.4707-0.4375
				c-0.8662-2.1694-1.5645-3.56-1.5645-3.56l-11.4546-0.2491c0,0-0.7685,1.3755-1.726,3.5206
				c-0.6524-0.315-1.4907-0.355-2.5474,0.3095c0,0-17.7241,11.8799-8.7285,16.0791c0,0,0.4394,0.2725,1.1558,0.4922
				c-2.8208,1.2315-4.8506,3.082-3.9561,5.832c2.2866,7.0772,7.2109,11.1485,18.5806,2.2159c0.7241,0.1269,1.5,0.2168,2.3432,0.2597
				c0.8492-0.0088,1.6338-0.0634,2.3662-0.164c10.9834,9.417,16.0762,5.5507,18.669-1.4219
				C61.8613,56.6806,59.8896,54.7392,57.1045,53.3847z"/>
			<path fill="#7C4D46" d="M40.0415,60.9941c-0.0786,0.002-0.1538-0.0058-0.2271-0.0088c-0.0766,0.003-0.1557,0.001-0.2334,0.0049
				L40.0415,60.9941z"/>
		</g>
		<path opacity="0.75" fill="#D4BBA0" d="M32.1445,40.2436c0,0-2.9477,5.5933-3.2407,10.5083c0,0-4.3911,1.1953-5.1402,1.8594
			c0,0,1.9395-1.6201,4.1714-2.4365C27.935,50.1748,29.3525,44.3652,32.1445,40.2436z"/>
		<path opacity="0.75" fill="#D4BBA0" d="M48.417,40.5869c0,0,2.7099,5.7129,2.7851,10.6416c0,0,4.3389,1.3828,5.0625,2.0684
			c0,0-1.8681-1.6954-4.0644-2.6016C52.2002,50.6953,51.0303,44.8261,48.417,40.5869z"/>
		<g>
			<path fill="#F2E6D8" d="M44.1631,38.5112l-7.8721-0.167c0,0-10.5566,18.979,3.5181,19.7095
				C53.9033,57.9219,44.1631,38.5112,44.1631,38.5112z"/>
			<path fill="#FDDB94" d="M39.9702,58.0615c-0.0566-0.0078-0.1084-0.0078-0.1611-0.0078c-0.0528,0-0.1021,0-0.1558,0
				L39.9702,58.0615z"/>
		</g>
		<path fill="#F2E6D8" d="M26.3481,58.4863c1.6157,2.6963,1.7056,5.6055,0.2114,6.5c-1.4951,0.8926-4.0122-0.5674-5.6269-3.2598
			c-1.6084-2.7031-1.7056-5.6074-0.2095-6.5048C22.2192,54.3291,24.7397,55.789,26.3481,58.4863z"/>
		<path fill="#F2E6D8" d="M53.3594,59.0615c-1.7266,2.623-1.9395,5.5303-0.4805,6.4873c1.4531,0.9541,4.0342-0.3975,5.7539-3.0234
			c1.7275-2.628,1.9433-5.5293,0.4863-6.4844C57.6621,55.082,55.084,56.4336,53.3594,59.0615z"/>
		<path fill="#FDDB94" d="M40.0351,58.0615c-0.0576-0.0059-0.1113-0.0029-0.1611-0.0078c-0.0547,0-0.105,0.0019-0.1548,0
			L40.0351,58.0615z"/>
		<path opacity="0.75" fill="#D4BBA0" d="M40.0991,41.8965c4.3423,0.0869,8.2114-1.9078,10.5464-5.0259
			c-0.293-0.2256-0.4629-0.3477-0.4629-0.3477c-0.9941-0.6826-1.8203-0.7016-2.4707-0.4375c-0.8662-2.1694-1.5645-3.56-1.5645-3.56
			l-11.4546-0.2491c0,0-0.7685,1.3755-1.726,3.5206c-0.6524-0.315-1.4907-0.355-2.5474,0.3095c0,0-0.2158,0.1411-0.581,0.3989
			C32.039,39.6762,35.7949,41.8066,40.0991,41.8965z"/>
		<path fill="#7C4D46" d="M45.7724,21.7519c-0.0927,4.292,3.3116,7.8389,7.6055,7.937c4.2949,0.0874,7.8535-3.3139,7.9414-7.6113
			c0.0938-4.2949-3.3144-7.8442-7.6084-7.9419C49.4209,14.0478,45.8642,17.4526,45.7724,21.7519z"/>
		<path fill="#7C4D46" d="M35.6142,21.5322c-0.0927,4.2959-3.6474,7.6997-7.9394,7.6108c-4.2949-0.0937-7.7017-3.6489-7.6118-7.9433
			c0.0957-4.294,3.6489-7.6987,7.9419-7.6109C32.2973,13.6826,35.7016,17.2412,35.6142,21.5322z"/>
		<path fill="#F2E6D8" d="M33.8862,21.5322c-0.0723,3.3281-2.8301,5.9746-6.165,5.9043c-3.3326-0.0713-5.9766-2.8291-5.9063-6.1636
			c0.0742-3.3301,2.833-5.9765,6.1646-5.9023C31.3086,15.4409,33.958,18.1972,33.8862,21.5322z"/>
		<path fill="#F2E6D8" d="M59.1133,22.1416c-0.0723,3.3325-2.8311,5.9741-6.1651,5.9038c-3.3291-0.0723-5.9785-2.834-5.9062-6.1636
			c0.0732-3.3306,2.833-5.977,6.164-5.9057C56.5429,16.0473,59.1845,18.8042,59.1133,22.1416z"/>
		<path fill="#7C4D46" d="M53.4551,28.5229c-0.1475,7.0498-6.1036,12.6431-13.3106,12.4878
			c-7.2036-0.1523-12.9194-5.9897-12.7729-13.043c0.1508-7.0546,6.1118-12.6489,13.3134-12.496
			C47.8935,15.6284,53.6045,21.4682,53.4551,28.5229z"/>
		<path fill="#F2E6D8" d="M48.1611,33.6372c-0.0898,4.249-3.6836,6.8642-8.0205,6.7695c-4.3354-0.0962-7.7817-2.854-7.6885-7.1059
			c0.0928-4.2442,3.6797-7.6128,8.0161-7.5171C44.8076,25.8716,48.249,29.3916,48.1611,33.6372z"/>
		<path fill="#F15B5B" d="M43.3877,30.0449c-0.0215,0.9482-1.4297,1.6816-3.1524,1.6465c-1.7148-0.0362-3.0888-0.8316-3.0683-1.7764
			c0.0175-0.9473,1.4277-1.6806,3.1425-1.6489C42.0283,28.3052,43.4043,29.1006,43.3877,30.0449z"/>
		<path fill="#000202" d="M35.5215,24.7436c-0.0083,0.5171-0.3716,0.9268-0.8101,0.9195c-0.4331-0.0113-0.7778-0.4366-0.7686-0.9483
			c0.0074-0.5176,0.3765-0.9272,0.8096-0.917C35.186,23.8052,35.5317,24.229,35.5215,24.7436z"/>
		<path fill="#000202" d="M45.5127,24.9575c-0.0127,0.5166,0.332,0.9399,0.7656,0.9492c0.4385,0.0103,0.7988-0.3994,0.8135-0.9155
			c0.0068-0.5147-0.335-0.9409-0.7725-0.9512C45.8847,24.0298,45.5205,24.4414,45.5127,24.9575z"/>
		<path fill="#FFB8B8" d="M41.8779,29.0234c-0.0049,0.1602-0.2705,0.2837-0.6035,0.2788c-0.3291-0.0083-0.5933-0.1445-0.5933-0.3037
			c0.0142-0.1558,0.2837-0.2793,0.6079-0.272C41.6162,28.7314,41.8818,28.8667,41.8779,29.0234z"/>
		<path fill="#FFB8B8" d="M42.4463,29.2812c-0.0049,0.0713-0.0996,0.128-0.2237,0.126c-0.124-0.0063-0.2168-0.0669-0.2168-0.1382
			c0.0039-0.0732,0.1036-0.1269,0.2217-0.1269C42.3486,29.144,42.4463,29.206,42.4463,29.2812z"/>
	</g>
	<g>
		<path fill="#F15B5B" d="M40.7676,66.0517c9.6621-1.1943,10.3125-12.1591,10.3125-12.1591s0.1152-5.4688-4.5079-6.3536
			c-4.2255-0.8066-6.1294,1.794-6.1294,1.794l-0.1064,0.0127c0,0-1.9189-2.6934-6.1284-1.7979
			c-4.8853,1.042-4.5069,6.3574-4.5069,6.3574s0.648,10.9649,10.3101,12.1563L40.7676,66.0517z"/>
		<path fill="#D65B69" d="M39.5112,48.8955c0,0-5.1797-3.3594-8.6792,1.3301c0,0-2.9385,3.8505,1.749,10.9199L33,61.2158
			c0,0-4.1983-6.7217-1.5386-10.708C31.4614,50.5078,33.562,46.6572,39.5112,48.8955z"/>
		<g>
			<path fill="#FEF4E0" d="M36.0425,57.083h-0.774L34.5,55.9199l-0.7696,1.1631h-0.7636l1.1562-1.7451l-1.0625-1.6182h0.7759
				L34.5,54.7422l0.6538-1.0225h0.7646l-1.0327,1.6074L36.0425,57.083z"/>
			<path fill="#FEF4E0" d="M38.2514,55.7109h-2.2099v-0.5976h2.2099V55.7109z"/>
			<path fill="#FEF4E0" d="M41.8261,57.0761h-0.6435V55.164l-0.6016,1.9121h-0.7138l-0.5987-1.8876v1.8876h-0.6396v-3.3378h0.7461
				l0.8457,2.4912l0.8301-2.4912h0.7753V57.0761z"/>
			<path fill="#FEF4E0" d="M45.1523,57.0761h-0.665l-0.2949-0.7431h-1.2979l-0.2832,0.7431h-0.667l1.2432-3.3378h0.7129
				L45.1523,57.0761z M43.9668,55.7353l-0.4141-1.2031l-0.4228,1.2031H43.9668z"/>
			<path fill="#FEF4E0" d="M47.7949,56.2217c-0.0313,0.3125-0.1699,0.5595-0.4238,0.7382
				c-0.2315,0.1592-0.5117,0.2403-0.8389,0.2403c-0.3945,0-0.7305-0.1084-1.0078-0.3252c-0.3086-0.2422-0.4531-0.5655-0.4365-0.959
				h0.6465c0,0.2207,0.0839,0.3935,0.25,0.5254c0.1484,0.1181,0.3203,0.1748,0.5214,0.1748c0.1485,0,0.2764-0.0332,0.3916-0.1006
				c0.1123-0.0693,0.1856-0.168,0.2159-0.2939c0.0107-0.0381,0.0146-0.0704,0.0146-0.1026c0-0.1758-0.1699-0.3154-0.5156-0.418
				c-0.5371-0.165-0.8516-0.2705-0.9434-0.3203c-0.331-0.1855-0.4834-0.4658-0.4541-0.8427
				c0.0176-0.295,0.1504-0.5313,0.3916-0.7041c0.2207-0.1534,0.4844-0.2295,0.7959-0.2295c0.3604,0,0.6631,0.0976,0.9082,0.2929
				c0.2793,0.2246,0.4102,0.5157,0.3897,0.8848h-0.6416c0-0.1953-0.0655-0.3486-0.1963-0.457
				c-0.1172-0.0977-0.2539-0.1465-0.418-0.1465c-0.1455,0-0.2685,0.0361-0.3721,0.1084c-0.1074,0.0703-0.1669,0.166-0.1767,0.289
				c-0.0166,0.1778,0.1455,0.3233,0.4922,0.4356c0.5517,0.1787,0.8691,0.29,0.957,0.3389
				C47.6816,55.5459,47.8291,55.8369,47.7949,56.2217z"/>
		</g>
	</g>
</g>
</svg>
