<?xml version="1.0" encoding="utf-8"?>
<!-- Generator: Adobe Illustrator 17.1.0, SVG Export Plug-In . SVG Version: 6.00 Build 0)  -->
<!DOCTYPE svg PUBLIC "-//W3C//DTD SVG 1.1//EN" "http://www.w3.org/Graphics/SVG/1.1/DTD/svg11.dtd">
<svg version="1.1" id="xmas-gift" xmlns="http://www.w3.org/2000/svg" xmlns:xlink="http://www.w3.org/1999/xlink" x="0px" y="0px"
	 viewBox="0 0 79.9995 79.9965" enable-background="new 0 0 79.9995 79.9965" xml:space="preserve">
<circle id="xmas-gift-label" fill="#8BD6D0" cx="40" cy="39.9982" r="39.9982"/>
<g id="xmas-gift-xmas-gift">
	<g>
		<path fill="#7C4D46" d="M36.4809,43.1264v22.9151l-20.8544-12.042V43.1264H36.4809z M42.8784,66.4106l21.4951-12.4111V43.1264
			H42.8784V66.4106z M64.3735,36.7304V25.8559L42.8784,13.5854v23.145H64.3735z M36.4809,13.9521L15.6265,25.8559v10.8745h20.8544
			V13.9521z"/>
		<polygon fill="#F2E6D8" points="36.4809,13.5854 36.4809,36.7304 15.6265,36.7304 15.6265,43.1264 36.4809,43.1264 
			36.4809,66.4106 42.8784,66.4106 42.8784,43.1264 64.3735,43.1264 64.3735,36.7304 42.8784,36.7304 42.8784,13.5854 		"/>
	</g>
	<g>
		<g>
			<g>
				<path fill="#F15B5B" d="M38.8374,42.06c0,0,12.5273-3.5737,13.6582-4.5332c0,0-0.4541-5.4834-5.9219-8.331l-8.3388,12.7939
					L38.8374,42.06z"/>
				<path fill="#DE3F40" d="M39.1343,42.0122c0,0,10.5039-10.8374,13.3613-4.4854C52.4956,37.5268,46.7817,40.0537,39.1343,42.0122
					L39.1343,42.0122z"/>
			</g>
			<path fill="#F15B5B" d="M40.7871,41.8969c0,0-14.2349-5.0581-15.6069-6.0258c0,0-0.6016-4.4541,5.1587-7.2862l11.018,12.48
				L40.7871,41.8969z"/>
			<path fill="#DE3F40" d="M25.1802,35.8711c0,0-0.2115-7.939,14.6865,5.0688C39.8667,40.9399,33.7466,40.478,25.1802,35.8711z"/>
		</g>
		<g>
			<path fill="#F15B5B" d="M37.5581,40.415c0,0-5.8882,1.0815-8.6431,7.4907c-2.7597,6.4112-6.6474,4.2178-6.6474,4.2178
				s2.5483,1.9209,5.3838,1.0107c0,0,0.0844,2.126-3.4771,2.961c0,0,5.625,0.7119,7.5938-5.5713
				c1.9682-6.2832,9.8242-9.8213,9.8242-9.8213"/>
			<path fill="#F15B5B" d="M42.7602,40.6894c0,0,5.7012,1.8247,7.6182,8.5347c1.915,6.7109,6.0527,5.0332,6.0527,5.0332
				s-2.7753,1.5801-5.4687,0.3135c0,0-0.3545,2.0986,3.0703,3.3818c0,0-5.6719-0.0146-6.8193-6.498
				c-1.1514-6.4815-8.4898-10.9942-8.4898-10.9942"/>
		</g>
	</g>
</g>
</svg>
