<?xml version="1.0" encoding="utf-8"?>
<!-- Generator: Adobe Illustrator 17.1.0, SVG Export Plug-In . SVG Version: 6.00 Build 0)  -->
<!DOCTYPE svg PUBLIC "-//W3C//DTD SVG 1.1//EN" "http://www.w3.org/Graphics/SVG/1.1/DTD/svg11.dtd">
<svg version="1.1" id="xmas-bells-bow" xmlns="http://www.w3.org/2000/svg" xmlns:xlink="http://www.w3.org/1999/xlink" x="0px"
	 y="0px" viewBox="0 0 79.998 79.998" enable-background="new 0 0 79.998 79.998" xml:space="preserve">
<circle id="xmas-bells-bow-label" fill="#8BD6D0" cx="39.9985" cy="39.999" r="39.999"/>
<g id="xmas-bells-bow-xmas-bells-bow">
	<path fill="#FCF9F5" d="M39.5434,38.2573c-0.5395-2.9072,0.0743-5.3711,1.8492-7.3921c0.9628-1.0967,2.1416-1.9014,3.5361-2.4043
		c1.3906-0.5054,2.8105-0.6455,4.2588-0.4175c1.4472,0.231,2.7197,0.8262,3.831,1.7974c0.9561,0.8437,1.6846,1.8364,2.1797,2.9834
		c0.2901,0.6406,0.7656,1.7261,1.4258,3.2676c0.6543,1.5385,1.1748,2.7187,1.5654,3.5449c0.3887,0.8232,0.7871,1.541,1.1895,2.1465
		c0.4062,0.6064,0.8652,1.1318,1.3701,1.5771c1.0342,0.9024,2.5049,1.6211,4.415,2.1504c0.667,0.2002,1.3008,0.3565,1.9121,0.4795
		c0.6104,0.1211,1.2481,0.2754,1.919,0.4512c0.1484,0.043,0.3076,0.1338,0.4678,0.2783c0.4902,0.4268,0.2607,1.1797-0.6846,2.2578
		c-0.9678,1.0986-2.4844,2.3584-4.5664,3.7832c-2.0762,1.4258-4.2266,2.669-6.4443,3.7315
		c-2.2247,1.0605-4.0606,1.6816-5.5264,1.8632c0.1162,1.2198-0.1524,2.2041-0.8047,2.9424
		c-0.4678,0.5371-1.0469,0.8106-1.7393,0.8242c-0.6953,0.0157-1.3701-0.2646-2.0283-0.8427
		c-0.5801-0.5108-1.0527-1.1621-1.4199-1.9649c-0.9014,0.2696-1.96,0.4932-3.1797,0.6807
		c-1.2178,0.1875-2.3555,0.2764-3.4062,0.2607c-1.0513-0.0136-1.7539-0.1787-2.1114-0.4922
		c-0.3667-0.3222-0.3457-0.7578,0.0645-1.3046c0.0903-0.1563,0.2402-0.3555,0.457-0.5977c0.1714-0.1982,0.4282-0.4346,0.7637-0.7119
		c0.334-0.2744,0.5942-0.5176,0.7778-0.7315c0.1763-0.1943,0.3838-0.5127,0.6294-0.9472c1.1514-2.1133,1.7754-3.7549,1.8594-4.9346
		c0.0869-1.1807-0.2266-3.0332-0.9512-5.5547C40.4311,42.4638,39.8974,40.2197,39.5434,38.2573z"/>
	<path fill="#FCF9F5" d="M40.2036,29.56l-0.4233,0.4805c-1.108,1.2642-1.8306,2.5103-2.1641,3.7383
		c-0.3345,1.2246-0.418,2.4067-0.2549,3.541c0.166,1.1304,0.4927,2.5737,0.9824,4.3218c0.4942,1.749,0.8125,3.0888,0.9605,4.0205
		c-0.2281,0.5029-0.7066,1.2949-1.4292,2.3935c-0.7281,1.0987-1.2974,2.0508-1.7056,2.8516
		c-0.4072,0.793-0.7065,1.7432-0.8813,2.8389c-0.1739,1.0976-0.1192,2.3095,0.1694,3.6347c0.0435,0.1641,0.124,0.4834,0.2417,0.9512
		c0.1143,0.4727,0.1899,0.7998,0.2207,0.9824c0.0303,0.1866,0.1045,0.7188,0.2217,1.6055c0.0342,0.1191,0.0063,0.2334-0.085,0.3369
		c-0.3677,0.417-1.7461-0.1152-4.1474-1.5957c-2.3965-1.4756-4.5411-2.96-6.4229-4.4502c-0.6523,0.7432-1.4365,1.1133-2.3516,1.1074
		c-0.9145-0.0088-1.7163-0.3134-2.3994-0.9131c-0.5532-0.4853-0.893-1.0839-1.0249-1.7988c-0.1372-0.7178,0.0191-1.457,0.459-2.2099
		c-1.501-0.8877-3.2095-2.1719-5.1225-3.8516c-1.6167-1.4219-2.8809-2.7168-3.7911-3.8818
		c-0.9091-1.1661-1.1806-1.958-0.8081-2.3809c0.2041-0.2373,0.6978-0.3042,1.4702-0.2031c0.2618,0.0156,0.6246,0.0576,1.0889,0.1201
		c0.4653,0.0644,0.8882,0.1025,1.2778,0.1289c0.3902,0.0234,0.9781,0.0244,1.7735,0.0078c1.0859-0.0664,1.9941-0.2812,2.7168-0.6372
		c0.7265-0.353,1.5088-1.0112,2.3598-1.977c0.9497-1.0845,2.4097-3.127,4.3726-6.1172c0.4502-0.6665,0.8945-1.2544,1.3413-1.7613
		c1.811-2.0673,3.7949-3.125,5.9624-3.1767C34.9668,27.6152,37.4326,28.2436,40.2036,29.56z"/>
	<g>
		<path fill="#F15B5B" d="M29.875,18.0395c-0.3853,0.2198-0.7613,0.5327-1.1177,0.939c-0.9424,1.0742-1.4521,2.4453-1.5371,4.1177
			c-0.082,1.6733,0.1748,3.1372,0.7876,4.396c2.478-2.0415,5.5522-2.4678,9.2143-1.2862c0.3326-1.039,0.5372-1.622,0.6182-1.7519
			c-1.854-0.1489-3.5566-0.9019-5.1074-2.2647C31.4756,21.0884,30.5239,19.7016,29.875,18.0395z"/>
		<path fill="#F15B5B" d="M33.0478,21.7519c1.458,1.2823,3.0806,1.9859,4.8643,2.1201c-0.5083-1.3061-1.2886-2.4257-2.3501-3.354
			c-1.2881-1.1318-2.9492-2.0131-4.9766-2.6425C30.8877,19.2807,31.7055,20.5757,33.0478,21.7519z"/>
		<path fill="#F15B5B" d="M41.2119,22.9785c-1.0137-0.0483-1.8316,0.2773-2.4575,0.9892c-0.6187,0.7027-0.919,1.5376-0.9058,2.503
			c1.2334,0.3305,2.2427,0.7358,3.0156,1.2187c1.4395-0.9604,2.585-1.4824,3.4307-1.561c-0.3105-1.1885-0.7607-2.0327-1.332-2.5371
			C42.5351,23.2158,41.9502,23.0107,41.2119,22.9785z"/>
		<path fill="#F15B5B" d="M47.9463,23.4262c1.3857-0.1586,2.6963-0.4384,3.9365-0.8408c1.2373-0.4033,2.1435-0.9038,2.7178-1.5063
			c-1.8926-0.7881-3.7149-0.9531-5.4629-0.4995c-1.753,0.4541-3.2891,1.4375-4.6162,2.9497
			C45.4189,23.6172,46.5635,23.582,47.9463,23.4262z"/>
		<path fill="#F15B5B" d="M55.2519,21.4887c-1.0996,1.1089-2.7011,1.8624-4.8056,2.2647c-2.1045,0.397-4.1768,0.5435-6.2266,0.4321
			c0.2363,0.314,0.4883,0.8711,0.7607,1.6665c2.9092-0.2964,5.3135,0.3911,7.2071,2.0562c0.7685,0.6655,1.3896,1.4775,1.8681,2.4243
			c0.2393-0.1533,0.4268-0.3042,0.5625-0.4526c0.5284-0.608,0.9473-1.458,1.2598-2.5538c0.3076-1.0976,0.4229-2.1914,0.3418-3.2817
			C56.1328,22.9526,55.8135,22.1015,55.2519,21.4887z"/>
	</g>
</g>
</svg>
