<?xml version="1.0" encoding="utf-8"?>
<!-- Generator: Adobe Illustrator 17.1.0, SVG Export Plug-In . SVG Version: 6.00 Build 0)  -->
<!DOCTYPE svg PUBLIC "-//W3C//DTD SVG 1.1//EN" "http://www.w3.org/Graphics/SVG/1.1/DTD/svg11.dtd">
<svg version="1.1" id="xmas-ball-5" xmlns="http://www.w3.org/2000/svg" xmlns:xlink="http://www.w3.org/1999/xlink" x="0px"
	 y="0px" viewBox="0 0 79.9995 79.9995" enable-background="new 0 0 79.9995 79.9995" xml:space="preserve">
<circle id="xmas-ball-5-label" fill="#F15B5B" cx="40" cy="39.9997" r="39.9997"/>
<g id="xmas-ball-5-xmas-ball-5">
	<path fill="#43BFBD" d="M39.06,22.1924h-3.7236v4.9511c-9.1098,2.1128-15.9092,10.2657-15.9092,20.0162
		c0,11.3593,9.2144,20.5732,20.5699,20.5732c11.3618,0,20.5727-9.2139,20.5727-20.5732c0-9.8174-6.8857-18.0166-16.0928-20.0655
		v-4.9018h-3.9384"/>
	<path fill="#FCF9F5" d="M40.5386,22.1924v-2.5342c-0.0074-0.0132,0.3227-0.1196,0.3227-0.1196
		c1.3003-0.1866,3.1333-1.5132,3.1948-3.5235c0.0391-1.0674-0.3505-2.0635-1.0664-2.7461
		c-0.5449-0.5263-1.5556-1.1176-3.2475-0.9834c-2.1358,0.1704-3.3418,1.2637-3.5855,3.253
		c-0.0464,0.4067,0.2383,0.7758,0.647,0.8256c0.4067,0.0494,0.7778-0.2407,0.8296-0.646c0.1103-0.9335,0.46-1.8139,2.2285-1.956
		c0.9028-0.0703,1.6299,0.1299,2.0996,0.583c0.4111,0.3848,0.6358,0.979,0.6172,1.6226c-0.041,1.1372-1.1494,1.9892-1.9268,2.1015
		c-0.5878,0.0825-1.0283,0.314-1.311,0.6865l-0.2725,1.0088L39.06,22.1924"/>
	<polygon fill="#FCF9F5" points="25.4834,37.5869 27.3418,37.2153 26.7895,36.1382 27.8618,36.6963 28.2329,33.8476 
		28.6006,36.6963 29.7788,36.0361 29.1225,37.2153 30.9785,37.5869 29.1225,37.9541 29.7056,39.0581 28.6006,38.477 
		28.2329,41.3735 27.8618,38.477 26.7734,39.0488 27.3418,37.9541 	"/>
	<polygon fill="#FCF9F5" points="47.1391,54.145 41.8423,51.3442 40.0752,65.2417 38.3081,51.3442 33.0688,54.0825 35.81,48.8413 
		26.894,47.0747 35.81,45.311 33.1274,40.1333 38.3081,42.812 40.0752,29.1543 41.8423,42.812 47.5005,39.6562 44.3413,45.311 
		53.2573,47.0747 44.3413,48.8413 	"/>
	<polygon fill="#FCF9F5" points="55.3911,44.1138 55.0239,47.0132 54.6518,44.1138 53.561,44.6831 54.1284,43.5942 52.269,43.2222 
		54.1284,42.8511 53.5708,41.7778 54.6518,42.3354 55.0239,39.4873 55.3911,42.3354 56.5649,41.6753 55.9106,42.8511 
		57.7661,43.2222 55.9106,43.5942 56.4927,44.6938 	"/>
</g>
</svg>
