<?xml version="1.0" encoding="utf-8"?>
<!-- Generator: Adobe Illustrator 17.1.0, SVG Export Plug-In . SVG Version: 6.00 Build 0)  -->
<!DOCTYPE svg PUBLIC "-//W3C//DTD SVG 1.1//EN" "http://www.w3.org/Graphics/SVG/1.1/DTD/svg11.dtd">
<svg version="1.1" id="xmas-ball-3" xmlns="http://www.w3.org/2000/svg" xmlns:xlink="http://www.w3.org/1999/xlink" x="0px"
	 y="0px" viewBox="0 0 79.9995 79.9965" enable-background="new 0 0 79.9995 79.9965" xml:space="preserve">
<path id="xmas-ball-3-label" fill="#F2E6D8" d="M40,0C17.9097,0,0,17.9077,0,39.997c0,22.0933,17.9097,39.9995,40,39.9995
	c22.0913,0,39.9995-17.9062,39.9995-39.9995C79.9995,17.9077,62.0913,0,40,0z"/>
<g id="xmas-ball-3-xmas-ball-3">
	<path fill="#F15B5B" d="M14.9053,40c0,13.853,11.2378,25.0883,25.0937,25.0883c13.8569,0,25.0943-11.2353,25.0943-25.0883
		c0-13.8594-11.2374-25.0948-25.0943-25.0948C26.1431,14.9052,14.9053,26.1406,14.9053,40z"/>
	<g>
		<path fill="#FFB8B8" d="M24.8818,19.9145l30.2241-0.0107c1.6612,1.2505,3.168,2.6928,4.4737,4.3105l-39.105,0.0108
			C21.7788,22.6093,23.2251,21.1679,24.8818,19.9145z"/>
		<path fill="#8BD6D0" d="M60.019,55.1118H19.9433c-1.4438-1.9033-2.6206-4.0176-3.4804-6.2901h47.0307
			C62.6382,51.0942,61.4634,53.2085,60.019,55.1118z"/>
		<path fill="#43BFBD" d="M61.7934,27.4819l-43.5693,0.0415c-1.5527,2.7134-2.6689,5.8086-3.1196,9.0347
			c1.1025,3.3799,1.9902,5.9746,2.4028,7.25h-2.3535c0.0889,0.5879,0.189,1.1718,0.3208,1.747h49.0083
			c0.1318-0.5752,0.2344-1.1591,0.3281-1.747h-3.5595c1.0625-3.5874,1.0644-13.4112,1.0644-13.4112
			c0.7139,0.8233,1.3721,1.9082,1.876,2.8287C63.6265,31.1933,62.8198,29.27,61.7934,27.4819z M25.1626,43.8081h-7.3828
			c0.1836-4.8355,3.6118-12.9449,3.6118-12.9449C22.3462,35.6914,24.04,41.5854,25.1626,43.8081z M38.1885,43.8081H25.689
			c0.7983-3.8731,6.312-12.5962,6.312-12.5962L38.1885,43.8081z M50.5376,43.8081H39.0342l5.2075-12.5962L50.5376,43.8081z
			 M61.0347,43.8081H51.311l4.3604-13.1822C57.5513,33.1362,60.4507,41.9917,61.0347,43.8081z"/>
	</g>
</g>
</svg>
