<?xml version="1.0" encoding="utf-8"?>
<!-- Generator: Adobe Illustrator 17.1.0, SVG Export Plug-In . SVG Version: 6.00 Build 0)  -->
<!DOCTYPE svg PUBLIC "-//W3C//DTD SVG 1.1//EN" "http://www.w3.org/Graphics/SVG/1.1/DTD/svg11.dtd">
<svg version="1.1" id="xmas-stocking" xmlns="http://www.w3.org/2000/svg" xmlns:xlink="http://www.w3.org/1999/xlink" x="0px"
	 y="0px" viewBox="0 0 79.9995 79.998" enable-background="new 0 0 79.9995 79.998" xml:space="preserve">
<circle id="xmas-stocking-label" fill="#F2E6D8" cx="40" cy="39.999" r="39.999"/>
<g id="xmas-stocking-xmas-stocking">
	<path fill="#F15B5B" d="M31.126,67.7324c-1.4444,0-2.8487-0.3018-4.17-0.8984c-2.4277-1.0977-4.3667-3.1612-5.3198-5.668
		c-2.0346-5.3711,0.6172-11.3672,5.9058-13.3711l9.1391-3.5459V28.1074c0-0.5147,0.4165-0.9321,0.9307-0.9321h18.6357
		c0.5157,0,0.9327,0.4174,0.9327,0.9321v24.002c0.0019,3.0107,0.0078,5.8544-3.6543,7.8007l-18.8155,7.168
		C33.5557,67.5088,32.352,67.7324,31.126,67.7324z"/>
	<path fill="#43BFBD" d="M58.1147,12.2666H35.7505c-0.5142,0-0.9307,0.4179-0.9307,0.9311v14.9097
		c0,0.5146,0.4165,0.9312,0.9307,0.9312h22.3642c0.5137,0,0.9307-0.4166,0.9307-0.9312V13.1977
		C59.0454,12.6845,58.6284,12.2666,58.1147,12.2666z"/>
	<path fill="#FFB8B8" d="M47.4692,61.4648c-2.1582-5.1865-1.0049-8.914,0.3428-11.1289c1.873-3.0771,5.3359-5.1826,9.04-5.4873
		l0.1582,1.8565c-3.124,0.2597-6.039,2.0244-7.6074,4.6015c-1.6074,2.6436-1.6816,5.9111-0.2109,9.4463L47.4692,61.4648z"/>
	<g>
		<path fill="#8BD6D0" d="M39.477,28.1074c-0.5151,0-0.9326-0.4165-0.9326-0.9321V14.1299c0-0.5142,0.4175-0.9322,0.9326-0.9322
			c0.5137,0,0.9327,0.418,0.9327,0.9322v13.0454C40.4097,27.6909,39.9907,28.1074,39.477,28.1074z"/>
		<path fill="#8BD6D0" d="M43.2065,28.1074c-0.5166,0-0.9336-0.4165-0.9336-0.9321V14.1299c0-0.5142,0.417-0.9322,0.9336-0.9322
			c0.5118,0,0.9307,0.418,0.9307,0.9322v13.0454C44.1372,27.6909,43.7183,28.1074,43.2065,28.1074z"/>
		<path fill="#8BD6D0" d="M46.9331,28.1074c-0.5137,0-0.9307-0.4165-0.9307-0.9321V14.1299c0-0.5142,0.417-0.9322,0.9307-0.9322
			c0.5137,0,0.9326,0.418,0.9326,0.9322v13.0454C47.8657,27.6909,47.4468,28.1074,46.9331,28.1074z"/>
		<path fill="#8BD6D0" d="M50.6616,28.1074c-0.5137,0-0.9326-0.4165-0.9326-0.9321V14.1299c0-0.5142,0.4189-0.9322,0.9326-0.9322
			c0.5117,0,0.9326,0.418,0.9326,0.9322v13.0454C51.5942,27.6909,51.1733,28.1074,50.6616,28.1074z"/>
		<path fill="#8BD6D0" d="M54.3882,28.1074c-0.5137,0-0.9326-0.4165-0.9326-0.9321V14.1299c0-0.5142,0.4189-0.9322,0.9326-0.9322
			c0.5136,0,0.9326,0.418,0.9326,0.9322v13.0454C55.3208,27.6909,54.9018,28.1074,54.3882,28.1074z"/>
	</g>
</g>
</svg>
