<?xml version="1.0" encoding="utf-8"?>
<!-- Generator: Adobe Illustrator 17.1.0, SVG Export Plug-In . SVG Version: 6.00 Build 0)  -->
<!DOCTYPE svg PUBLIC "-//W3C//DTD SVG 1.1//EN" "http://www.w3.org/Graphics/SVG/1.1/DTD/svg11.dtd">
<svg version="1.1" id="xmas-tree-2" xmlns="http://www.w3.org/2000/svg" xmlns:xlink="http://www.w3.org/1999/xlink" x="0px"
	 y="0px" viewBox="0 0 79.9965 79.9995" enable-background="new 0 0 79.9965 79.9995" xml:space="preserve">
<circle id="xmas-tree-2-label" fill="#43BFBD" cx="40" cy="39.9997" r="39.9997"/>
<g id="xmas-tree-2-xmas-tree-2">
	<g>
		<rect x="37.5517" y="60.4048" fill="#7C4D46" width="6.52" height="9.3086"/>
		<path opacity="0.2" fill="#8F807F" d="M44.0717,67.8706v-7.4658h-6.52v3.622C39.8349,64.9575,42.0229,66.2485,44.0717,67.8706z"/>
	</g>
	<path fill="#FCF9F5" d="M45.896,50.0522h10.1621c-5.7754-3.0683-9.4746-7.9131-11.8545-12.8823h8.1836
		c-9.9453-5.2895-11.9395-17.3921-12.3389-22.2109H40h-0.0494c-0.4003,4.8188-2.3935,16.9214-12.3398,22.2109h8.1816
		c-2.375,4.9692-6.0786,9.814-11.8525,12.8823h10.1626c-2.7173,4.9112-6.6772,9.5293-12.4448,12.5957H40h18.3403
		C52.5737,59.5815,48.6157,54.9634,45.896,50.0522z"/>
	<g>
		<circle fill="#43BFBD" cx="35.5244" cy="32.7251" r="1.0439"/>
		<circle fill="#43BFBD" cx="43.9438" cy="33.4907" r="1.0439"/>
		<circle fill="#43BFBD" cx="39.7184" cy="27.6191" r="1.0451"/>
		<circle fill="#43BFBD" cx="45.0991" cy="46.3843" r="1.0439"/>
		<path fill="#43BFBD" d="M33.3598,46.0747c0-0.5781,0.4673-1.0469,1.045-1.0469c0.5781,0,1.0454,0.4688,1.0454,1.0469
			c0,0.5752-0.4673,1.0439-1.0454,1.0439C33.8271,47.1186,33.3598,46.6499,33.3598,46.0747z"/>
		<circle fill="#43BFBD" cx="30.737" cy="60.0132" r="1.0442"/>
		<circle fill="#43BFBD" cx="40.0292" cy="53.4761" r="1.0464"/>
		<circle fill="#43BFBD" cx="47.6118" cy="59.2788" r="1.0449"/>
		<circle fill="#43BFBD" cx="39.7869" cy="41.2495" r="1.0457"/>
	</g>
	<path fill="#8BD6D0" d="M39.6699,10.5688c0.2241-0.3764,0.5903-0.3764,0.8149,0l1.0596,1.7837
		c0.2246,0.377,0.7588,0.7647,1.1865,0.8618l2.0264,0.4571c0.4267,0.0967,0.54,0.4468,0.251,0.7768l-1.3702,1.5576
		c-0.288,0.3306-0.4912,0.9585-0.4541,1.396l0.1924,2.0655c0.041,0.4355-0.2558,0.6523-0.6601,0.479l-1.9043-0.8194
		c-0.4053-0.1733-1.0625-0.1733-1.4683,0l-1.9053,0.8194c-0.4023,0.1733-0.6987-0.0435-0.6572-0.479l0.1875-2.0655
		c0.0415-0.4375-0.1631-1.0654-0.4516-1.396l-1.3692-1.5576c-0.289-0.33-0.1753-0.6801,0.2525-0.7768l2.0224-0.4571
		c0.4282-0.0971,0.9614-0.4848,1.1865-0.8618L39.6699,10.5688z"/>
</g>
</svg>
