<?xml version="1.0" encoding="utf-8"?>
<!-- Generator: Adobe Illustrator 17.1.0, SVG Export Plug-In . SVG Version: 6.00 Build 0)  -->
<!DOCTYPE svg PUBLIC "-//W3C//DTD SVG 1.1//EN" "http://www.w3.org/Graphics/SVG/1.1/DTD/svg11.dtd">
<svg version="1.1" id="owl-stamp" xmlns="http://www.w3.org/2000/svg" xmlns:xlink="http://www.w3.org/1999/xlink" x="0px" y="0px"
	 viewBox="0 0 776.9292 1009.9871" enable-background="new 0 0 776.9292 1009.9871" xml:space="preserve">
<g id="owl-stamp-stamp">
	<path id="owl-stamp-stamp_1_" fill="#F3E6D1" d="M776.9292,55.8131h-0.0507c0.0254-0.2265,0.0507-0.4287,0.0507-0.6557
		c0-8.9815-13.9394-10.9683-20.1074-16.8594c-5.0205-6.4775-1.665-15.7871,9.461-28.3257
		c-0.4541-1.6655-14.3936-9.9219-29.0899-9.9722c0,0-0.0244,0.0064-0.0498,0.0064c-0.0381,0-0.0889-0.0064-0.1133-0.0064
		c-6.6982-0.0249-10.1552,4.4278-13.5107,9.0132c-3.4688,4.7432-6.8496,9.6187-13.5479,9.9336l0,0
		c-0.164,0.0196-0.3408,0.0196-0.4922,0.0196c-13.914,0-13.914-18.9664-27.8271-18.9664c-13.8643,0-13.8643,18.9664-27.7402,18.9664
		c-13.9014,0-13.9014-18.9664-27.8028-18.9664c-13.9638,0-13.9638,18.9664-27.9277,18.9664
		c-13.9023,0-13.9023-18.9664-27.8154-18.9664c-13.9268,0-13.9268,18.9664-27.8789,18.9664
		c-13.9385,0-13.9385-18.9664-27.9287-18.9664c-13.9766,0-13.9766,18.9664-27.9415,18.9664
		c-13.9511,0-13.9511-18.9664-27.916-18.9664c-14.0019,0-14.0019,18.9664-27.9785,18.9664
		c-13.9902,0-13.9902-18.9664-27.9795-18.9664c-13.9609,0-13.9609,18.9664-27.8877,18.9664
		c-13.9453,0-13.9453-18.9664-27.8843-18.9664c-13.9584,0-13.9584,18.9664-27.9287,18.9664
		c-13.9458,0-13.9458-18.9664-27.872-18.9664c-14.0025,0-14.0025,18.9664-27.9981,18.9664
		c-13.9643,0-13.9643-18.9664-27.897-18.9664c-13.977,0-13.977,18.9664-27.9604,18.9664S193.3311,0.0001,179.3667,0.0001
		c-13.9707,0-13.9707,18.9664-27.9472,18.9664c-13.9585,0-13.9585-18.9664-27.9605-18.9664
		c-13.9389,0-13.9389,18.9664-27.8969,18.9664c-13.9834,0-13.9834-18.9664-27.9795-18.9664
		c-13.958,0-13.958,18.9664-27.9473,18.9664c-14.2231,0-22.1641-6.125-27.8911-8.7422C8.168,8.5778,0,24.0373,0,32.029
		c0,0.2265,0.0318,0.4472,0.044,0.6748H0.0127c0,1.0087,0.2017,1.917,0.5235,2.7558c0.0127,0.0567,0.019,0.1011,0.0566,0.1641
		c0,0.0127,0,0.0127,0.0064,0.0127c3.1787,8.9121,18.2031,8.9375,21.8862,17.206c0.3091,0.8389,0.4985,1.7412,0.4985,2.7251
		C22.9839,67.0465,0,67.0465,0,78.5133c0,0.3345,0.0318,0.6563,0.063,0.9839H0.0127c0.063,11.2652,22.4224,11.4165,22.9522,22.4668
		C22.4288,113.0583,0,113.2038,0,124.5377c0,0.1324,0.0127,0.2588,0.0318,0.3785C0.0127,125.0485,0,125.1686,0,125.3073
		c0,11.3974,22.4034,11.5361,22.9649,22.6621C22.4034,159.0827,0,159.234,0,170.6061c0,0.1387,0.0127,0.2524,0.0318,0.3662
		C0.0127,171.0983,0,171.193,0,171.3253c0,11.397,22.5171,11.5235,22.9649,22.6997C22.5171,205.2082,0,205.3341,0,216.7379
		c0,0.126,0.0127,0.2271,0.0318,0.334C0.0127,217.1857,0,217.2868,0,217.4c0,11.4415,22.5298,11.5616,22.9649,22.7569
		C22.5298,251.3776,0,251.4909,0,262.9323c0,0.1011,0.0127,0.1958,0.0127,0.3027c0,0.0884-0.0127,0.1831-0.0127,0.29
		c0,11.4483,22.5171,11.5552,22.9649,22.7696C22.5171,297.4713,0,297.591,0,308.9879c0,0.1265,0.0127,0.2403,0.0318,0.3726
		C0.0127,309.4801,0,309.5939,0,309.7199c0,11.3974,22.4727,11.5298,22.9649,22.6684C22.4727,343.5397,0,343.672,0,355.0631
		c0,0.1075,0.0127,0.2334,0.0318,0.3594C0.0127,355.5358,0,355.6369,0,355.7819c0,11.4101,22.5171,11.5234,22.9649,22.7192
		C22.5171,389.6774,0,389.7975,0,401.2135c0,0.0948,0.0127,0.2017,0.0127,0.3155c0,0.1005-0.0127,0.1953-0.0127,0.3281
		c0,11.4223,22.5171,11.561,22.9649,22.769c-0.4478,11.1577-22.7944,11.3155-22.9522,22.6431l0,0v0.0063
		c0,0.0191-0.0127,0.0572-0.0127,0.0884c0,0.1074,0.0127,0.2022,0.0127,0.3028c0,0.1201-0.0127,0.208-0.0127,0.3154
		c0,11.3784,22.2393,11.5615,22.9395,22.5928C22.3594,481.5749,0,481.7389,0,493.0475c0,0.0884,0.0127,0.1514,0.0127,0.2334
		c0,0.0884-0.0127,0.1577-0.0127,0.2461c0,0.1074,0.0127,0.2022,0.0318,0.3345c-0.0191,0.063-0.0191,0.1196-0.0191,0.164l0,0
		c0,0.0191,0,0.0313,0,0.0313c0,0.0317-0.0127,0.0571-0.0127,0.1011c0,11.3281,22.189,11.5297,22.9268,22.498
		C22.1954,527.6051,0,527.7887,0,539.0788c0,0.0879,0.0127,0.2011,0.0127,0.2832c0,0.0947-0.0127,0.1826-0.0127,0.2773h0.0127
		c0,0.0889-0.0127,0.1328-0.0127,0.1963c0,0.1006,0.0127,0.1572,0.0127,0.2461c0,0.0693-0.0127,0.1445-0.0127,0.2139
		c0,11.3408,22.189,11.5361,22.9268,22.4921C22.0313,573.6295,0,573.8502,0,585.153c0,0.1328,0.0127,0.2275,0.0318,0.3535
		C0.0127,585.6452,0,585.7399,0,585.8659c0,0.0879,0.0127,0.1826,0.0127,0.29c0,0.0762-0.0127,0.1826-0.0127,0.2842h0.044
		c0.7446,10.8105,22.4731,11.1387,22.9209,22.1191C22.5171,619.7487,0,619.8561,0,631.279c0,0.1318,0.0127,0.2265,0.0318,0.3339
		C0.0127,631.7262,0,631.8209,0,631.9411c0,11.4218,22.5298,11.542,22.9649,22.7627C22.5298,665.9176,0,666.025,0,677.4792
		c0,0.0888,0.0127,0.1953,0.0127,0.2841c0,0.1133-0.0127,0.2012-0.0127,0.3028c0,11.4287,22.5171,11.5615,22.9649,22.7627
		C22.5171,712.0055,0,712.1315,0,723.5231c0,0.126,0.0127,0.2451,0.0318,0.3848C0.0127,724.0143,0,724.1159,0,724.2672
		c0,11.378,22.4727,11.5038,22.9649,22.6621C22.4727,758.0739,0,758.2125,0,769.5846c0,0.1328,0.0127,0.253,0.0318,0.3662
		C0.0127,770.0768,0,770.1901,0,770.3229c0,11.4033,22.5171,11.5293,22.9649,22.7061C22.5171,804.2243,0,804.3444,0,815.735
		c0,0.1074,0.0127,0.208,0.0127,0.335c0,0.1064-0.0127,0.1953-0.0127,0.2959c0,11.4541,22.5171,11.5674,22.9649,22.7949
		C22.5171,850.3561,0,850.4821,0,861.9235c0,0.0762,0.0127,0.1895,0.0127,0.2969c0,0.1005-0.0127,0.1953-0.0127,0.3086
		c0,11.4355,22.5171,11.5488,22.9649,22.7568C22.5171,896.5065,0,896.6325,0,908.0553c0,0.126,0.0127,0.2022,0.0127,0.3028
		c0,0.1005-0.0127,0.2021-0.0127,0.3154c0,11.4414,22.5171,11.5488,22.9649,22.7373C22.5171,942.6442,0.0127,942.7516,0,954.1989
		h0.044C0.0318,954.401,0,954.6159,0,954.8424c0,8.9561,13.9136,10.9619,20.0884,16.8467
		c5.0332,6.4776,1.6719,15.7871-9.4609,28.3203c0.4795,1.6778,14.4126,9.9278,29.1084,9.9776c0.019,0,0.0317,0,0.0381,0
		c0.0439,0,0.0879,0,0.1196,0c6.6982,0.0195,10.1484-4.4024,13.5229-9.0127c3.4688-4.75,6.837-9.6377,13.5542-9.9278l0,0
		c0.1451-0.0127,0.3155-0.0312,0.4922-0.0312c13.8887,0,13.8887,18.9717,27.7837,18.9717c13.8946,0,13.8946-18.9717,27.7647-18.9717
		c13.8886,0,13.8886,18.9717,27.8086,18.9717c13.9707,0,13.9707-18.9717,27.935-18.9717c13.8887,0,13.8887,18.9717,27.7964,18.9717
		c13.939,0,13.939-18.9717,27.8779-18.9717c13.9581,0,13.9581,18.9717,27.9288,18.9717c13.977,0,13.977-18.9717,27.9414-18.9717
		c13.9643,0,13.9643,18.9717,27.9228,18.9717c13.9956,0,13.9956-18.9717,27.979-18.9717c13.9829,0,13.9829,18.9717,27.9854,18.9717
		c13.9453,0,13.9453-18.9717,27.8872-18.9717c13.9521,0,13.9521,18.9717,27.8916,18.9717c13.9511,0,13.9511-18.9717,27.916-18.9717
		c13.9385,0,13.9385,18.9717,27.8779,18.9717c13.9766,0,13.9766-18.9717,27.9795-18.9717c13.9639,0,13.9639,18.9717,27.9287,18.9717
		c13.9893,0,13.9893-18.9717,27.9541-18.9717c13.9639,0,13.9639,18.9717,27.9287,18.9717c13.9766,0,13.9766-18.9717,27.9532-18.9717
		c13.9648,0,13.9648,18.9717,27.9541,18.9717c13.9521,0,13.9521-18.9717,27.916-18.9717c13.9648,0,13.9648,18.9717,27.9668,18.9717
		c13.9775,0,13.9775-18.9717,27.9541-18.9717c14.2295,0,22.164,6.1308,27.8779,8.7539c3.6083,1.6406,11.7568-13.8252,11.7568-21.791
		c0-0.2334-0.0253-0.4668-0.0253-0.7002h0.0253c-0.0253-0.9904-0.2265-1.9053-0.5293-2.7373
		c-0.0507-0.0762-0.0507-0.1074-0.0507-0.1709c0,0,0-0.0186-0.0254-0.0186c-3.1787-8.9121-18.2031-8.9502-21.8985-17.1875
		c-0.3027-0.8515-0.4921-1.7412-0.4921-2.7246c0-11.4795,22.996-11.4795,22.996-22.9521c0-0.3536-0.0253-0.669-0.0752-0.9903h0.0752
		c-0.0878-11.2646-22.416-11.4414-22.9453-22.4736c0.5293-11.0938,22.9453-11.2139,22.9453-22.5859
		c0-0.1075-0.0253-0.2461-0.0253-0.3663c0-0.1259,0.0253-0.2519,0.0253-0.3719c0-11.4033-22.416-11.5488-22.9453-22.6621
		c0.5293-11.1133,22.9453-11.2774,22.9453-22.6621c0-0.1133-0.0253-0.2461-0.0253-0.3721c0-0.0947,0.0253-0.208,0.0253-0.3525
		c0-11.3663-22.5039-11.4981-22.9453-22.6749c0.4414-11.2079,22.9453-11.3094,22.9453-22.7197c0-0.1191-0.0253-0.2265-0.0253-0.334
		c0-0.1191,0.0253-0.2207,0.0253-0.3339c0-11.4229-22.5419-11.5293-22.9453-22.75c0.4034-11.2208,22.9453-11.335,22.9453-22.7764
		c0-0.0947-0.0253-0.2012-0.0253-0.3086c0-0.0889,0.0253-0.1768,0.0253-0.29c0-11.4229-22.5039-11.5557-22.9453-22.7695
		c0.4414-11.1767,22.9453-11.2969,22.9453-22.6875c0-0.1328-0.0253-0.2461-0.0253-0.3662c0-0.126,0.0253-0.2334,0.0253-0.3721
		c0-11.3906-22.5039-11.5293-22.9453-22.6806c0.4414-11.1319,22.9453-11.252,22.9453-22.6494c0-0.1329-0.0253-0.2334-0.0253-0.3721
		c0-0.1133,0.0253-0.2149,0.0253-0.3408c0-11.4102-22.5039-11.5293-22.9453-22.7246c0.4414-11.1895,22.9453-11.3096,22.9453-22.7002
		c0-0.1202-0.0253-0.2207-0.0253-0.3155c0-0.1259,0.0253-0.2148,0.0253-0.334c0-11.4228-22.5039-11.5683-22.9453-22.789
		c0.4414-11.1514,22.7813-11.3145,22.92-22.624h0.0253c0,0-0.0253,0-0.0253-0.0127c0-0.0254,0.0253-0.0694,0.0253-0.0948
		c0-0.1064-0.0253-0.208-0.0253-0.3087c0-0.1005,0.0253-0.2021,0.0253-0.3349c0-11.3398-22.2392-11.5293-22.9453-22.5352
		c0.5801-11.0312,22.9453-11.1953,22.9453-22.5175c0-0.0694-0.0253-0.126-0.0253-0.2139c0-0.082,0.0253-0.1514,0.0253-0.2462
		c0-0.1074-0.0253-0.2079-0.0253-0.3223c0-0.0752,0-0.1386,0-0.2011h0.0253l-0.0253-0.0196c0-0.0312,0.0253-0.0498,0.0253-0.0947
		c0-11.3276-22.1884-11.5356-22.9335-22.4854c0.7197-10.9492,22.9335-11.1445,22.9335-22.4345c0-0.0948-0.0253-0.1831-0.0253-0.2906
		c0-0.1069,0.0253-0.1826,0.0253-0.2709h-0.0253c0-0.0821,0.0253-0.1329,0.0253-0.2022c0-0.0693-0.0253-0.1572-0.0253-0.2266
		c0-0.0761,0.0253-0.164,0.0253-0.2402c0-11.3213-22.1884-11.5229-22.9335-22.479c0.9208-10.8359,22.9335-11.0693,22.9335-22.3716
		c0-0.1328-0.0253-0.2402-0.0253-0.3408c0-0.145,0.0253-0.2461,0.0253-0.3594c0-0.101-0.0253-0.1958-0.0253-0.2969
		c0-0.082,0.0253-0.1826,0.0253-0.2773h-0.0253c-0.7696-10.8232-22.4786-11.1196-22.92-22.126
		c0.4414-11.1889,22.9453-11.3091,22.9453-22.7124c0-0.1264-0.0253-0.2334-0.0253-0.3408c0-0.1196,0.0253-0.208,0.0253-0.3345
		c0-11.4096-22.5419-11.5234-22.9453-22.75c0.4034-11.2207,22.9453-11.3408,22.9453-22.7758c0-0.1197-0.0253-0.189-0.0253-0.2964
		c0-0.0948,0.0253-0.2017,0.0253-0.2901c0-11.4414-22.5039-11.5674-22.9453-22.7695c0.4414-11.1763,22.9453-11.3154,22.9453-22.6997
		c0-0.1201-0.0253-0.2334-0.0253-0.3657c0-0.1328,0.0253-0.2398,0.0253-0.3721c0-11.3789-22.5039-11.5176-22.9453-22.6689
		c0.4414-11.1446,22.9453-11.2774,22.9453-22.6553c0-0.1201-0.0253-0.2461-0.0253-0.3662c0-0.1197,0.0253-0.2334,0.0253-0.3531
		c0-11.435-22.5039-11.5424-22.9453-22.7187c0.4414-11.1768,22.9453-11.3091,22.9453-22.7129c0-0.1069-0.0253-0.2017-0.0253-0.3149
		c0-0.1138,0.0253-0.2149,0.0253-0.3155c0-11.4414-22.5039-11.5678-22.9453-22.7885c0.4414-11.189,22.9453-11.315,22.9453-22.7315
		c0-0.1069-0.0253-0.2207-0.0253-0.3091c0-0.1133,0.0253-0.2207,0.0253-0.334c0-11.4228-22.5039-11.5361-22.9453-22.7504
		c0.4414-11.2144,22.9453-11.3472,22.9453-22.7696c0-0.1137-0.0253-0.208-0.0253-0.3091c0-0.1132,0.0253-0.1894,0.0253-0.3154
		c0-11.4224-22.5039-11.5547-22.9453-22.7378C754.4253,67.362,776.9039,67.2296,776.9292,55.8131z"/>
	<g id="owl-stamp-background">
		<rect x="53.6875" y="63.8615" fill="#917561" width="669.5542" height="882.2641"/>
		<path fill="#B0A89B" d="M719.3687,67.7467v874.5127H57.5669V67.7467H719.3687 M727.1265,59.9762h-7.7578H57.5669h-7.771v7.7705
			v874.5127v7.7578h7.771h661.8018h7.7578v-7.7578V67.7467V59.9762L727.1265,59.9762z"/>
	</g>
</g>
<g id="owl-stamp-inner-border">
	<path fill="#513E31" d="M680.5542,97.7003c2.1446-0.6562,0.8067-2.851-0.5429-3.8032c-1.3496-0.9399-4.3897-2.498-2.1944-5.7207
		c2.1817-3.2231,8.3633-3.3432,10.7344,0.5293c1.3369,2.1953,2.9776,8.7105-4.9072,16.7271c0,0,0,0-0.9453,0.9965
		c0,0,0,0-0.6055,1.022c0,0,0,0,1.0596,1.1226c0,0,0,0,2.0049-1.7407c7.4052-8.4644,14.0156-7.3418,16.3115-6.1622
		c4.0361,2.0689,4.3896,8.2374,1.3496,10.6656c-3.0527,2.4345-4.8311-0.4795-5.8789-1.7598
		c-1.0469-1.2676-3.3555-2.4282-3.8223-0.2524c-0.4912,2.1762,4.5674,6.6103,9.4365,4.478
		c4.3008-1.8731,6.0547-8.2373,2.1817-14.6455c-3.8721-6.4204-1.8164-10.8926,0.7187-13.0747
		c1.4766-1.2681,3.5703-2.6934,4.5547-4.1568c1.4883-2.2265-0.4414-4.831-2.8886-3.5127c-1.5772,0.8638-3.0274,3.4248-4.3272,5.2032
		c-1.9805,2.6933-6.2949,5.0898-12.9805,1.7158c-6.6982-3.3682-12.8916-1.1416-14.4433,3.2861
		C673.6158,93.632,678.4224,98.3371,680.5542,97.7003z"/>
	<path fill="#513E31" d="M620.3316,175.1349c1.5898-0.8515,3.0273-3.4184,4.3271-5.1973c1.9805-2.6933,6.2823-5.0898,12.9805-1.7094
		c6.6982,3.3681,12.8916,1.1416,14.4434-3.292c1.7412-5.0147-3.0528-9.7134-5.1846-9.0762
		c-2.1318,0.6431-0.7949,2.8569,0.543,3.7969c1.3496,0.9394,4.3896,2.4975,2.1943,5.7207
		c-2.1816,3.2226-8.3633,3.3428-10.7344-0.5298c-1.3506-2.189-2.9775-8.7104,4.9073-16.7207c0,0,0,0,0.958-1.0029
		c0,0,0,0,0.6054-1.022c0,0,0,0-1.0722-1.1162c0,0,0,0-2.0059,1.7344c-7.3915,8.4643-14.0273,7.3354-16.3105,6.1562
		c-4.0362-2.0625-4.3897-8.2373-1.337-10.666c3.0401-2.4282,4.8311,0.4922,5.8789,1.7598c1.0342,1.268,3.3301,2.4287,3.8223,0.2651
		c0.4785-2.1821-4.5801-6.6167-9.4609-4.4849c-4.2891,1.8799-6.043,8.2373-2.1699,14.6397
		c3.872,6.4267,1.8291,10.8989-0.7325,13.081c-1.4756,1.2681-3.5566,2.6997-4.5283,4.1568
		C615.9673,173.8542,617.8843,176.4655,620.3316,175.1349z"/>
	<path fill="#513E31" d="M703.4869,925.6842c-2.712-1.9804-5.0957-6.2949-1.7149-12.9804
		c3.3799-6.6924,1.1348-12.9053-3.293-14.4444c-5.0078-1.7529-9.7255,3.0469-9.0693,5.1856
		c0.6553,2.1377,2.8506,0.8008,3.7969-0.543c0.9336-1.3496,2.4971-4.3965,5.7139-2.2012c3.2294,2.1885,3.3427,8.3701-0.5293,10.7354
		c-2.1827,1.3555-8.7041,2.9765-16.7276-4.9014c0,0,0,0-0.9961-0.9521c0,0,0,0-1.0088-0.6055c0,0,0,0-1.123,1.0537
		c0,0,0,0,1.7285,2.0176c8.4639,7.3984,7.3408,14.0215,6.168,16.3047c-2.0684,4.0428-8.2373,4.3838-10.6719,1.3369
		c-2.4346-3.04,0.4795-4.8184,1.7666-5.8652c1.2607-1.0479,2.4346-3.337,0.252-3.8291c-2.1827-0.4795-6.6104,4.5732-4.4786,9.4482
		c1.8672,4.2959,8.2246,6.0557,14.6455,2.1768c6.4082-3.8731,10.8868-1.8106,13.0694,0.7314
		c1.2734,1.4756,2.6992,3.5693,4.1621,4.541c2.2207,1.4756,4.832-0.4414,3.5068-2.876
		C707.8267,928.4274,705.2662,926.9899,703.4869,925.6842z"/>
	<path fill="#513E31" d="M617.1529,847.5426c2.7119,1.9873,5.0967,6.2891,1.7285,12.9873
		c-3.3809,6.6914-1.1484,12.8916,3.2793,14.4375c5.0205,1.7598,9.7266-3.0468,9.0703-5.1787
		c-0.6309-2.1445-2.8506-0.8076-3.7842,0.5489c-0.9463,1.3437-2.498,4.3837-5.7275,2.1884
		c-3.2168-2.1884-3.3428-8.3574,0.5303-10.7353c2.1943-1.3496,8.7041-2.9639,16.7265,4.9012c0,0,0,0,0.9971,0.9581
		c0,0,0,0,1.0215,0.6064c0,0,0,0,1.122-1.0596c0,0,0,0-1.7402-2.0185c-8.4648-7.3926-7.3418-14.0089-6.1689-16.2979
		c2.082-4.0498,8.25-4.3906,10.6845-1.3506c2.4219,3.0469-0.5039,4.8321-1.7656,5.8721c-1.2617,1.041-2.4346,3.3438-0.2519,3.8291
		c2.1689,0.4854,6.5966-4.5664,4.4775-9.4424c-1.8789-4.2949-8.2373-6.0547-14.6582-2.1816
		c-6.4082,3.8721-10.8857,1.8096-13.0684-0.7256c-1.2617-1.4766-2.6992-3.5703-4.1504-4.542
		c-2.2324-1.4814-4.831,0.4356-3.5068,2.8828C612.8257,844.7926,615.3873,846.237,617.1529,847.5426z"/>
	<path fill="#513E31" d="M704.774,880.6247c9.9785-19.9248,7.7324-53.2969,7.7324-74.1866v-66.9892v-66.9844v-66.9893v-66.9834
		v-66.996v-66.9834v-66.9898v-66.9961v-66.9839h-0.088c-0.1133-40.1709,4.3897-86.1323-32.3945-91.6386
		c-1.1348-13.1568-11.126-23.9737-22.2901-29.5748c-19.9179-9.978-53.2968-7.7456-74.1865-7.7456h-65.0283h-65.0274h-65.0253
		h-65.0347h-65.0283h-65.0279v0.0889c-40.184,0.126-86.1328-4.3774-91.6328,32.4067c-13.1694,1.129-23.9927,11.126-29.581,22.2837
		c-9.9781,19.9248-7.7452,53.2964-7.7452,74.1797v66.9839v66.9961v66.9898v66.9834v66.996v66.9834v66.9893v66.9844v66.9892h0.0879
		c0.1202,40.1778-4.3833,86.1387,32.4136,91.6387c1.1162,13.1631,11.1069,23.9932,22.2774,29.5811
		c19.9243,9.9785,53.2963,7.7461,74.1801,7.7461h65.0279h65.0283h65.0347h65.0253h65.0274h65.0283v-0.0889
		c40.1777-0.126,86.1454,4.3779,91.6454-32.4131C688.3501,901.779,699.1734,891.7946,704.774,880.6247z M103.5909,108.9523
		c2.4599,0.1011,2.4599,0.1011,2.4599,0.1011c8.9624,1.0092,20.9024,6.7549,23.3052,21.5268l0.1768,5.7017
		c-2.7686,0.0312-5.4366-0.2715-7.7198-0.9712c-14.3178-4.3457-18.4238-16.9478-18.2534-25.9546L103.5909,108.9523z
		 M583.5474,932.3571c0,0.0312,0,0.0508,0,0.088h-65.0283h-65.0274h-65.0253h-65.0347h-65.0283h-65.0279
		c-44.2588,0.5429-56.0088,0.7197-74.1108-7.625c-12.4888-5.752-19.4077-17.5215-20.3472-26.5031l4.3267,0.2452
		c10.7915,0,25.6577-8.1426,26.1308-27.8457c6.8628,1.2929,13.8696,4.9189,16.8721,10.3496
		c4.5288,8.2119,3.0527,18.8144-3.3872,25.0468c-11.6558,11.2704-24.5918,0.252-22.0371-5.1406
		c0.208-0.2402,5.998,1.8096,7.373-3.0469c1.23-4.7236-4.6484-6.3643-8.0102-3.1474c-3.3618,3.2109-4.6172,11.7197,4.9829,16.6639
		c9.5933,4.9512,19.1172-2.5732,21.8418-7.4619c0,0-0.8135,10.0352,7.2158,12.085c8.0293,2.0498,7.3228-3.6641,6.1304-3.8281
		c-1.1983-0.1582-3.7525,2.2705-8.294-0.126c-4.5415-2.3975-3.393-8.3954-1.8291-13.6807
		c1.5581-5.292,2.4219-26.6865-18.726-30.7168c-2.1699-0.3593-2.1699-0.3593-2.1699-0.3593
		c-1.211-21.4825-22.5297-23.4629-27.9669-22.6182c-5.4492,0.8457-11.5483,1.1855-13.3144-3.6387
		c-1.7725-4.8125,0.9648-7.0205,0.9648-8.2246c0-1.2178-5.5693-2.6689-4.5976,5.5684c0.9648,8.2314,11.0185,8.749,11.0185,8.749
		c-5.2036,2.0557-13.9267,10.501-10.2998,20.6621c3.6328,10.1738,12.2364,10.0537,15.8565,7.1465
		c3.6455-2.9014,2.7939-8.9561-2.0498-8.3506c-5.0772,2.1504-3.5952,4.3389-3.9922,6.8994
		c-5.6958,1.8106-14.8916-12.4687-2.1763-22.5224c7.0327-5.5635,17.7427-5.6202,25.2798-0.0323
		c4.4844,3.3369,7.0894,9.7071,7.8398,16.0401c-18.0893-0.877-27.3989,12.1406-28.7739,22.4033l-0.3471,6.5908
		c-33.5611-4.5791-29.0513-50.6787-29.316-89.5889c-0.0444,0-0.0571,0-0.101,0v-66.9892v-66.9844v-66.9893v-66.9834v-66.996
		v-66.9834v-66.9898v-66.9961v-66.9839h0.0127c-0.5489-44.2578-0.7256-56.0088,7.6191-74.1103
		c5.7588-12.4883,17.5215-19.4141,26.5156-20.3477l-0.2456,4.3335c0,10.7852,8.1362,25.6641,27.8403,26.1372
		c-1.293,6.856-4.92,13.8506-10.3627,16.8594c-8.1998,4.5415-18.7959,3.0591-25.0337-3.3931
		c-11.2774-11.6372-0.2588-24.5796,5.1406-22.019c0.2329,0.208-1.8169,5.9922,3.04,7.3672
		c4.7305,1.2363,6.3638-4.6485,3.1407-8.0103c-3.1978-3.3618-11.6998-4.6235-16.6514,4.9702
		c-4.9512,9.5996,2.5737,19.1172,7.4682,21.8418c0,0-10.0351-0.8071-12.0913,7.2217c-2.0561,8.042,3.6582,7.336,3.816,6.1436
		c0.1704-1.211-2.2642-3.7593,0.1386-8.294c2.397-4.5415,8.3892-3.3935,13.6807-1.8418
		c5.2856,1.5576,26.6802,2.4219,30.7163-18.7324c0.3599-2.1636,0.3599-2.1636,0.3599-2.1636
		c21.4824-1.1987,23.4692-22.5171,22.6176-27.9604c-0.8574-5.4492-1.1919-11.542,3.6333-13.3208
		c4.8125-1.7788,7.0264,0.9712,8.231,0.9712s2.668-5.5694-5.5757-4.6045c-8.2246,0.9717-8.7417,11.0254-8.7417,11.0254
		c-2.0625-5.21-10.5019-13.9268-20.6689-10.2935c-10.1739,3.6265-10.0479,12.2232-7.1465,15.8565
		c2.9077,3.6264,8.9629,2.7817,8.3511-2.0562c-2.1509-5.0898-4.3394-3.6079-6.8877-3.999
		c-1.8228-5.6826,12.4633-14.8916,22.5107-2.1821c5.563,7.0454,5.626,17.7426,0.0376,25.2797
		c-3.3364,4.5035-9.707,7.1084-16.0391,7.8462c0.8765-18.0766-12.1416-27.3862-22.4038-28.7612l-6.5913-0.3472
		c4.5733-33.5674,50.667-29.0639,89.583-29.3286c0-0.0317,0-0.0508,0-0.0884h65.0279h65.0283h65.0347h65.0253h65.0274h65.0283l0,0
		c44.2646-0.5424,56.0088-0.7192,74.124,7.6255c12.4883,5.752,19.4131,17.5215,20.3467,26.503l-4.3389-0.2456
		c-10.7861,0-25.6582,8.1489-26.1377,27.8466c-6.8496-1.2929-13.8505-4.9199-16.8662-10.3501
		c-4.541-8.2124-3.0527-18.8149,3.4063-25.0464c11.6308-11.2651,24.5732-0.2524,22.0254,5.1402
		c-0.2149,0.227-6.0049-1.8101-7.3799,3.0469c-1.2363,4.7177,4.6553,6.3637,8.0107,3.1469
		c3.3682-3.2168,4.6289-11.7187-4.9707-16.6635c-9.5996-4.9512-19.1113,2.5859-21.8476,7.4614c0,0,0.8193-10.0352-7.2158-12.085
		c-8.0362-2.0498-7.3291,3.6709-6.1309,3.8286c1.1982,0.1578,3.7461-2.2705,8.2881,0.126c4.541,2.3906,3.3926,8.395,1.8291,13.6807
		c-1.5518,5.292-2.4092,26.6924,18.7451,30.7226c2.1572,0.3535,2.1572,0.3535,2.1572,0.3535
		c1.1983,21.4825,22.5293,23.4629,27.9659,22.6177c5.4501-0.8452,11.5429-1.1792,13.3212,3.6397
		c1.7666,4.812-0.9716,7.0136-0.9716,8.2246c0,1.2173,5.5634,2.668,4.6045-5.563c-0.9708-8.2373-11.0372-8.7607-11.0372-8.7607
		c5.21-2.0625,13.9385-10.4957,10.3057-20.6568c-3.6328-10.1675-12.2236-10.0537-15.8564-7.1396
		c-3.6329,2.9077-2.7881,8.9497,2.0556,8.3442c5.084-2.1504,3.5957-4.333,3.999-6.8999
		c5.6768-1.8101,14.8858,12.4692,2.1827,22.5234c-7.0518,5.563-17.7491,5.6197-25.2793,0.0313
		c-4.5039-3.3364-7.1153-9.7066-7.8467-16.0396c18.0771,0.877,27.3867-12.1289,28.7617-22.4033l0.3398-6.5908
		c33.5673,4.5791,29.0644,50.6787,29.3291,89.582c0.038,0,0.0507,0,0.0888,0v66.9839v66.9961v66.9898v66.9834v66.996v66.9834
		v66.9893v66.9844v66.9892c0.542,44.2646,0.7188,56.0088-7.6191,74.1172c-5.7529,12.4883-17.5225,19.4014-26.5166,20.3477
		l0.2529-4.333c0-10.7862-8.1367-25.6524-27.8408-26.1319c1.2871-6.8623,4.9199-13.8564,10.3437-16.8652
		c8.2129-4.5352,18.8213-3.0596,25.0528,3.3867c11.2646,11.6494,0.2519,24.586-5.1465,22.0381
		c-0.2402-0.2207,1.8164-6.0049-3.0401-7.3799c-4.7304-1.2295-6.3701,4.6485-3.1533,8.0108
		c3.2158,3.3613,11.7188,4.623,16.6631-4.9834c4.9453-9.5869-2.5732-19.1104-7.4551-21.8418c0,0,10.0284,0.8193,12.085-7.2158
		c2.043-8.0293-3.6709-7.3223-3.835-6.1241c-0.1513,1.1983,2.2705,3.7461-0.1259,8.2881c-2.3965,4.541-8.3887,3.3994-13.6739,1.8281
		c-5.2988-1.5507-26.6933-2.415-30.7168,18.7334c-0.3662,2.1631-0.3662,2.1631-0.3662,2.1631
		c-21.4824,1.2178-23.4629,22.5293-22.6181,27.9668c0.8457,5.4492,1.1865,11.5488-3.6329,13.3203
		c-4.8183,1.7666-7.0263-0.9707-8.2246-0.9707c-1.2236,0-2.6738,5.5694,5.5635,4.6045c8.2373-0.9717,8.7539-11.0195,8.7539-11.0195
		c2.0567,5.2041,10.4951,13.9209,20.6631,10.2939c10.1671-3.6328,10.0537-12.2296,7.1397-15.8564
		c-2.9014-3.6328-8.9561-2.7881-8.3506,2.0498c2.1445,5.0898,4.3388,3.6016,6.9004,3.999
		c1.8164,5.6885-12.4639,14.8916-22.5176,2.169c-5.5625-7.0323-5.626-17.7422-0.0381-25.2725
		c3.3311-4.4912,9.7139-7.0957,16.0459-7.8408c-0.8828,18.084,12.1357,27.3926,22.4043,28.7676l6.584,0.3535
		C668.5572,936.5954,622.4634,932.0924,583.5474,932.3571z M98.7847,896.2292c0.0947-2.4659,0.0947-2.4659,0.0947-2.4659
		c1.0157-8.9502,6.7676-20.9033,21.5269-23.3056l5.6953-0.1768c0.0503,2.7754-0.2646,5.4434-0.9585,7.7197
		c-4.3393,14.3116-16.9414,18.4307-25.9546,18.2538L98.7847,896.2292z M678.1441,113.7711
		c-0.1006,2.4537-0.1006,2.4537-0.1006,2.4537c-1.0088,8.9497-6.749,20.9023-21.5204,23.3115l-5.7012,0.1704
		c-0.0381-2.7754,0.2647-5.4307,0.9707-7.7202c4.3399-14.3111,16.9414-18.4297,25.9483-18.2534L678.1441,113.7711z
		 M673.3384,901.0348c-2.4599-0.1006-2.4599-0.1006-2.4599-0.1006c-8.9561-1.0088-20.9024-6.7675-23.3116-21.5263l-0.1767-5.6895
		c2.7754-0.0566,5.4492,0.2588,7.7197,0.959c14.3184,4.3389,18.4307,16.9414,18.2539,25.9541L673.3384,901.0348z"/>
	<path fill="#513E31" d="M96.3692,912.3004c-2.1255,0.6495-0.8013,2.8506,0.5488,3.7901c1.3433,0.9404,4.3897,2.498,2.2012,5.7206
		c-2.1948,3.2236-8.3696,3.3428-10.7417-0.5293c-1.3496-2.1885-2.9707-8.7041,4.9072-16.7276c0,0,0,0,0.9463-0.996
		c0,0,0,0,0.6118-1.0098c0,0,0,0-1.0596-1.1289c0,0,0,0-2.0122,1.7344c-7.4047,8.4648-14.021,7.3418-16.3105,6.1689
		c-4.0366-2.0752-4.3838-8.2432-1.3369-10.6719c3.0459-2.4345,4.8247,0.4795,5.872,1.7598
		c1.0469,1.2676,3.3365,2.4346,3.8282,0.2519c0.4731-2.1826-4.5791-6.6103-9.4546-4.4775
		c-4.2954,1.8731-6.0552,8.2305-2.1758,14.6514c3.8726,6.4082,1.8164,10.8867-0.7256,13.0693
		c-1.4819,1.2676-3.5762,2.7051-4.541,4.1563c-1.4824,2.2265,0.4351,4.831,2.876,3.5127c1.583-0.8643,3.0337-3.4248,4.3266-5.2032
		c1.9805-2.7002,6.295-5.0898,12.9869-1.7158c6.686,3.3809,12.8984,1.1416,14.4375-3.2861
		C103.3072,916.3551,98.5137,911.6442,96.3692,912.3004z"/>
	<path fill="#513E31" d="M156.5972,834.8532c-1.5766,0.8574-3.021,3.4178-4.3203,5.1904
		c-1.9932,2.7119-6.2944,5.0967-12.9932,1.7217c-6.6855-3.374-12.8916-1.1416-14.4306,3.2861
		c-1.7598,5.0147,3.0464,9.7256,5.1718,9.0703c2.1504-0.6377,0.8135-2.8515-0.5425-3.791c-1.3501-0.9394-4.3838-2.498-2.1949-5.7207
		c2.1949-3.2226,8.3697-3.3428,10.7413,0.5303c1.3433,2.1885,2.9644,8.7031-4.9072,16.7207c0,0,0,0-0.9463,1.002
		c0,0,0,0-0.6177,1.0225c0,0,0,0,1.0659,1.1162c0,0,0,0,2.0117-1.7344c7.3984-8.4648,14.0151-7.3359,16.3047-6.1689
		c4.043,2.0752,4.3896,8.25,1.3432,10.6787c-3.0336,2.4277-4.8315-0.4863-5.872-1.7598c-1.0347-1.2675-3.3428-2.4414-3.8286-0.2589
		c-0.4795,2.1758,4.5728,6.6036,9.4482,4.4786c4.2954-1.8799,6.0552-8.2373,2.1826-14.6524
		c-3.873-6.414-1.8164-10.8857,0.7188-13.0683c1.4824-1.2676,3.5761-2.7002,4.5415-4.1573
		C160.962,836.1334,159.0445,833.528,156.5972,834.8532z"/>
	<path fill="#513E31" d="M73.4361,84.3034c2.7119,1.9804,5.1025,6.2949,1.728,12.9804c-3.3809,6.6983-1.1479,12.8921,3.2798,14.4439
		c5.0142,1.7471,9.7256-3.0464,9.0762-5.1846c-0.6563-2.1382-2.8511-0.8013-3.7842,0.5425
		c-0.9527,1.3496-2.5166,4.396-5.7334,2.2012c-3.2105-2.1885-3.3306-8.3701,0.5361-10.7412
		c2.1885-1.3438,8.6973-2.9707,16.7266,4.9067c0,0,0,0,0.9902,0.9526c0,0,0,0,1.0156,0.6055c0,0,0,0,1.1226-1.0659
		c0,0,0,0-1.7344-2.0059c-8.4643-7.3984-7.3354-14.0083-6.1684-16.3042c2.0815-4.0429,8.25-4.3965,10.6782-1.3496
		c2.4282,3.0459-0.4859,4.8438-1.7534,5.8779c-1.274,1.0411-2.4473,3.3428-0.2647,3.8223c2.1822,0.4922,6.6035-4.5664,4.4844-9.4355
		c-1.8799-4.3018-8.2314-6.0552-14.6582-2.1827c-6.4019,3.8731-10.8926,1.8106-13.0689-0.7187
		c-1.2675-1.4824-2.6997-3.5762-4.144-4.541c-2.2324-1.5015-4.8374,0.4287-3.5195,2.8633
		C69.1089,81.5597,71.6763,82.9977,73.4361,84.3034z"/>
	<path fill="#513E31" d="M159.7764,162.4381c-2.7124-1.9741-5.0962-6.2822-1.728-12.9804
		c3.3804-6.6919,1.1416-12.8985-3.2803-14.4375c-5.0205-1.7471-9.7256,3.0468-9.0762,5.1845
		c0.6499,2.1324,2.8511,0.795,3.7911-0.542c0.9462-1.3564,2.5102-4.3964,5.7334-2.2011c3.2099,2.1821,3.3364,8.3569-0.5362,10.7348
		c-2.1953,1.3496-8.7041,2.9771-16.7334-4.9072c0,0,0,0-0.9839-0.9521c0,0,0,0-1.022-0.5992c0,0,0,0-1.1289,1.0533
		c0,0,0,0,1.7471,2.0117c8.458,7.3989,7.3291,14.0278,6.1562,16.3169c-2.0752,4.0307-8.2441,4.3774-10.666,1.3374
		c-2.4346-3.0464,0.4795-4.8316,1.7534-5.8784c1.2739-1.0406,2.4351-3.3301,0.2524-3.8223
		c-2.1826-0.4854-6.5976,4.5791-4.478,9.4546c1.873,4.289,8.231,6.0425,14.6519,2.1699c6.4082-3.8794,10.899-1.8227,13.0683,0.7315
		c1.2681,1.476,2.7061,3.5639,4.1567,4.5351c2.2266,1.4819,4.8316-0.4351,3.5132-2.8823
		C164.1031,165.1818,161.5425,163.7375,159.7764,162.4381z"/>
</g>
<g id="owl-stamp-design">
	<g id="owl-stamp-label">
		<g>
			<g>
				<polygon fill="#513E31" points="388.4664,928.5602 64.0318,504.7541 388.4664,80.9606 712.898,504.7541 				"/>
			</g>
		</g>
		<g>
			<polygon fill="#917561" points="446.4146,156.6481 433.6617,140.0094 406.691,477.8156 			"/>
			<polygon fill="#917561" points="475.4029,194.5172 465.0972,181.0573 410.1978,478.4528 			"/>
			<polygon fill="#917561" points="499.7359,226.3312 491.0953,215.0158 413.6675,479.3922 			"/>
			<polygon fill="#917561" points="520.8658,253.9127 513.3599,244.1115 417.0103,480.6413 			"/>
			<polygon fill="#917561" points="539.6871,278.486 532.9888,269.757 420.2144,482.2057 			"/>
			<polygon fill="#917561" points="556.8804,300.9528 550.7496,292.9425 423.2164,484.0661 			"/>
			<polygon fill="#917561" points="572.9644,321.9625 567.2242,314.463 426.0415,486.2042 			"/>
			<polygon fill="#917561" points="588.3033,342.0133 582.816,334.8292 428.6285,488.5949 			"/>
			<polygon fill="#917561" points="603.2515,361.5216 597.8785,354.5016 430.9488,491.1999 			"/>
			<polygon fill="#917561" points="618.0738,380.9103 612.7124,373.8966 432.9927,494.0377 			"/>
			<polygon fill="#917561" points="633.0982,400.5197 627.6226,393.3737 434.7339,497.0275 			"/>
			<polygon fill="#917561" points="648.6138,420.779 642.9117,413.3297 436.1587,500.1876 			"/>
			<polygon fill="#917561" points="664.9371,442.1037 658.8697,434.1881 437.2437,503.442 			"/>
			<polygon fill="#917561" points="682.522,465.0812 675.9117,456.4401 438.0259,506.7975 			"/>
			<polygon fill="#917561" points="701.8853,490.361 694.4927,480.7042 438.4546,510.2096 			"/>
			<polygon fill="#917561" points="702.3775,518.5036 710.4761,507.9264 438.4927,513.6286 			"/>
			<polygon fill="#917561" points="682.4214,544.5719 689.4849,535.3571 438.2281,517.0592 			"/>
			<polygon fill="#917561" points="664.5464,567.9215 670.8658,559.6657 437.5337,520.4401 			"/>
			<polygon fill="#917561" points="648.1724,589.3161 653.9878,581.7223 436.5503,523.7389 			"/>
			<polygon fill="#917561" points="632.8326,609.3483 638.2828,602.2272 435.2378,526.9245 			"/>
			<polygon fill="#917561" points="618.1373,628.5475 623.3716,621.7106 433.5855,529.9645 			"/>
			<polygon fill="#917561" points="603.7945,647.2868 608.9156,640.5817 431.6431,532.859 			"/>
			<polygon fill="#917561" points="589.5142,665.943 594.649,659.2389 429.3843,535.5338 			"/>
			<polygon fill="#917561" points="574.982,684.9098 580.2554,678.0348 426.8999,538.0309 			"/>
			<polygon fill="#917561" points="559.9712,704.5436 565.4712,697.3473 424.1626,540.1881 			"/>
			<polygon fill="#917561" points="544.0894,725.2692 549.9673,717.6061 421.1978,542.194 			"/>
			<polygon fill="#917561" points="526.9585,747.6539 533.3921,739.2467 418.0572,543.8219 			"/>
			<polygon fill="#917561" points="508.0113,772.3913 515.2271,762.9625 414.7769,545.1588 			"/>
			<polygon fill="#917561" points="486.5289,800.4586 494.8667,789.5788 411.3335,546.2624 			"/>
			<polygon fill="#917561" points="461.4634,833.1872 471.3531,820.277 407.8267,546.9938 			"/>
			<polygon fill="#917561" points="431.189,872.7536 443.3999,856.8083 404.2564,547.36 			"/>
			<polygon fill="#917561" points="393.0513,922.5807 408.8482,901.9303 400.6744,547.404 			"/>
			<polygon fill="#917561" points="355.2393,885.1725 368.6363,902.6686 397.0787,547.1325 			"/>
			<polygon fill="#917561" points="324.876,845.5055 335.7373,859.7038 393.5308,546.4831 			"/>
			<polygon fill="#917561" points="299.3882,812.2028 308.5088,824.1237 390.0933,545.5563 			"/>
			<polygon fill="#917561" points="277.2749,783.3219 285.1968,793.6598 386.7505,544.3073 			"/>
			<polygon fill="#917561" points="257.5582,757.5631 264.6163,766.7907 383.5528,542.7301 			"/>
			<polygon fill="#917561" points="239.5445,734.0368 246.0162,742.4762 380.5503,540.8825 			"/>
			<polygon fill="#917561" points="222.6978,712.0241 228.753,719.9401 377.7124,538.7252 			"/>
			<polygon fill="#917561" points="206.627,691.0524 212.4234,698.6022 375.1324,536.3659 			"/>
			<polygon fill="#917561" points="190.9786,670.5915 196.6548,678.0094 372.8179,533.736 			"/>
			<polygon fill="#917561" points="175.4375,650.2946 181.1075,657.6872 370.7554,530.8913 			"/>
			<polygon fill="#917561" points="159.7134,629.7516 165.4971,637.3083 369.0147,527.9079 			"/>
			<polygon fill="#917561" points="143.4849,608.5719 149.5142,616.4245 367.608,524.8053 			"/>
			<polygon fill="#917561" points="126.3853,586.2067 132.7749,594.5573 366.4854,521.5124 			"/>
			<polygon fill="#917561" points="107.9747,562.1569 114.9312,571.2584 365.7286,518.1569 			"/>
			<polygon fill="#917561" points="87.6968,535.6725 95.4922,545.859 365.3501,514.7516 			"/>
			<polygon fill="#917561" points="64.8013,505.776 73.7388,517.4381 365.2745,511.3385 			"/>
			<polygon fill="#917561" points="85.7603,476.3839 77.6807,486.9362 365.5708,507.9079 			"/>
			<polygon fill="#917561" points="105.8741,450.0827 98.6333,459.5558 366.2266,504.527 			"/>
			<polygon fill="#917561" points="124.3228,425.9884 117.669,434.6862 367.1919,501.2282 			"/>
			<polygon fill="#917561" points="141.6241,403.3957 135.3794,411.5636 368.5225,498.0241 			"/>
			<polygon fill="#917561" points="158.1871,381.7619 152.1763,389.6081 370.1753,494.984 			"/>
			<polygon fill="#917561" points="174.3462,360.651 168.4678,368.34 372.1241,492.1017 			"/>
			<polygon fill="#917561" points="190.4551,339.61 184.5577,347.3175 374.3633,489.4084 			"/>
			<polygon fill="#917561" points="206.8033,318.2663 200.7676,326.1442 376.8672,486.9547 			"/>
			<polygon fill="#917561" points="223.7198,296.1466 217.4185,304.3966 379.6045,484.7409 			"/>
			<polygon fill="#917561" points="241.6011,272.797 234.8711,281.5832 382.5562,482.7921 			"/>
			<polygon fill="#917561" points="260.9136,247.5739 253.5406,257.2052 385.6724,481.1271 			"/>
			<polygon fill="#917561" points="282.2579,219.6959 274.0015,230.4879 389.0025,479.7643 			"/>
			<polygon fill="#917561" points="306.4336,188.1027 296.9283,200.528 392.4146,478.7238 			"/>
			<polygon fill="#917561" points="334.6841,151.2047 323.3814,165.9767 395.9312,477.986 			"/>
			<polygon fill="#917561" points="368.813,106.6251 354.8545,124.8595 399.5005,477.5949 			"/>
			<polygon fill="#917561" points="410.5767,109.8356 394.1109,88.3336 403.0962,477.5504 			"/>
		</g>
	</g>
	<g id="owl-stamp-owl">
		<g>
			<path fill="#EBD5B2" d="M374.1109,662.0954l-2.2012-2.3711l2.4976-27.9287c0.5991-6.7237-0.271-12.6651-1.9239-12.7657
				l-0.1069-0.0566c-1.6465-0.1328-3.5449,5.2217-4.144,11.9267l-2.586,29.2032l-1.8672,1.2041
				c-5.872,3.8603-9.8076,8.0547-8.8491,9.3788l0.0567,0.0255c0.833,1.1474,5.122-0.252,10.0224-3.1729
				c-0.2837,6.0117,0.5615,11.3408,2.0879,11.3408h0.0947c1.5137,0,3.2417-5.0331,3.9673-11.1767
				c4.0933,4.1123,7.9785,6.4971,9.0825,5.582l0.044-0.0625C381.5723,672.1686,378.8096,667.1862,374.1109,662.0954z"/>
			<path fill="#EBD5B2" d="M444.4087,648.0436l-2.7119,0.4033l-22.8457-27.456c-5.3232-6.376-10.7471-9.9903-12.374-8.3252
				l-0.0635,0.1201c-1.6523,1.6836,1.1358,7.9277,6.4336,14.3359l22.0625,26.5537l-0.6055,4.5411
				c-1.3115,9.4677-0.7187,17.1123,1.3252,17.0361h0.0879c1.791-0.044,4.1377-6.0859,5.5752-14.0527
				c4.7305,5.2294,9.3731,8.124,10.836,6.6289l0.0634-0.126c1.4258-1.4502-0.6181-6.5723-4.705-12.0908
				c7.1015-1.4258,12.4375-3.8477,12.5136-5.8028v-0.0947C460.0884,647.526,453.0748,646.7379,444.4087,648.0436z"/>
		</g>
		<g>
			<path fill="#EBD5B2" d="M277.8931,473.6779c13.6616,19.124,21.8486,37.3647,21.2241,45.8481
				c0.0943,0.6309,0.1324,1.211,0.0249,1.7842c-0.1196,0.707-0.4541,1.3877-0.914,1.9619c0,0.044-0.0318,0.044-0.0318,0.044
				c-0.2837,0.4414-0.6626,0.7568-1.1098,1.0605c-5.9922,4.3457-24.0562,2.9824-44.6055-3.9492
				c-24.4155-8.1934-43.123-21.148-41.7861-28.8491c0.8266-4.7935,9.0195-6.4839,20.8647-5.1909
				c-10.1987-10.918-15.4526-20.48-12.5639-24.5103c2.5229-3.5195,10.621-2.1318,21.1987,2.958
				c-7.001-13.9077-9.3096-24.6802-5.0332-27.2729C241.689,433.6647,260.8067,449.8493,277.8931,473.6779"/>
			<path fill="#513E31" d="M481.647,443.2897c-0.4414-15.8569,10.3565-52.1553,3.5069-55.3467
				c-5.5254-2.5547-23.0088,0.4981-32.293,7.6631c-17.043-11.9648-39.1436-16.96-64.8301-16.96
				c-24.6548,0-45.835,4.6548-62.3599,15.4844c-9.3476-6.0049-27.979-10.4385-33.8325-7.7265
				c-6.8623,3.2041,4.8062,38.4746,4.3838,54.3056c-0.6499,22.9019-9.1015,41.357-9.7324,64.2403l0.4292-1.1607
				c1.5327,94.7036,42.0254,129.9614,102.0708,129.9614c59.5059,0,98.9014-34.6964,101.0205-127.5332l0.4795,1.2862
				C489.8462,484.6403,482.3033,466.1408,481.647,443.2897"/>
			<path fill="#513E31" d="M448.8873,592.0719c0,35.5547-26.8067,41.168-59.8663,41.168c-33.0878,0-59.9003-5.6133-59.9003-41.168
				c0-35.5918,26.8125-64.416,59.9003-64.416C422.0806,527.6559,448.8873,556.4801,448.8873,592.0719"/>
			<g>
				<path fill="#F88C24" d="M389.0782,586.2692h-0.1324c-5.4687,0-9.7324-4.0928-10.7856-9.1454
					c-0.2334-0.9904,0.2964-2.3145,1.1606-2.5664c0.8638-0.2589,1.7598,0.1631,1.9424,1.1347
					c0.8897,4.125,4.7119,5.5186,7.7012,5.5508c3.4316,0.0625,7.4082-1.7412,8.3291-5.6826c0.2139-1.0029,1.085-1.584,1.9551-1.3184
					c0.8828,0.252,1.3623,1.9424,1.1474,2.9073C399.0718,582.9772,393.7642,586.2692,389.0782,586.2692"/>
				<path fill="#F88C24" d="M354.6783,586.2692h-0.1387c-5.4751,0-9.7012-4.0928-10.792-9.1454
					c-0.1831-0.9904,0.353-2.3145,1.2046-2.5664c0.8516-0.2589,1.728,0.1631,1.9429,1.1347c0.8764,4.125,4.686,5.5186,7.6757,5.5508
					c3.4185,0.0625,7.4493-1.7412,8.3384-5.6826c0.2144-1.0029,1.1226-1.584,1.9805-1.3184
					c0.8516,0.252,1.3872,1.9424,1.1416,2.9073C364.7256,582.9772,359.4146,586.2692,354.6783,586.2692"/>
				<path fill="#F88C24" d="M423.4429,586.2692h-0.1387c-5.4746,0-9.7002-4.0928-10.8105-9.1454
					c-0.2012-0.9904,0.3408-2.3145,1.1982-2.5664c0.8584-0.2589,1.7413,0.1631,1.9678,1.1347
					c0.8584,4.125,4.668,5.5186,7.6953,5.5508c3.3809,0.0625,7.4297-1.7412,8.3135-5.6826c0.2139-1.0029,1.0967-1.584,1.9678-1.3184
					c0.8574,0.252,1.3877,1.9424,1.1347,2.9073C433.4341,582.9772,428.149,586.2692,423.4429,586.2692"/>
				<path fill="#F88C24" d="M405.7076,610.1549h-0.1143c-5.5,0-9.7129-3.1845-10.7949-8.2431
					c-0.2266-0.9717,0.3252-1.8858,1.1699-2.1006c0.8457-0.2589,1.7412,0.3915,1.9561,1.3564
					c0.8828,4.1309,4.6796,5.626,7.6689,5.6699c3.419,0,7.4561-1.7089,8.3389-5.6699c0.2265-0.9648,1.1103-1.539,1.9804-1.2802
					c0.8448,0.2587,1.3623,1.0781,1.1348,2.0556C415.7486,607.7458,410.438,610.1549,405.7076,610.1549"/>
				<path fill="#F88C24" d="M372.4141,610.1549h-0.1069c-5.5127,0-9.7324-3.1845-10.8174-8.2431
					c-0.2144-0.9717,0.3091-1.8858,1.1987-2.1006c0.8579-0.2589,1.7217,0.3915,1.9361,1.3564
					c0.8579,4.1309,4.6801,5.626,7.6826,5.6699c3.4311,0,7.436-1.7089,8.313-5.6699c0.2583-0.9648,1.1289-1.539,1.9804-1.2802
					c0.8765,0.2587,1.3999,1.0781,1.1729,2.0556C382.4366,607.7458,377.1197,610.1549,372.4141,610.1549"/>
			</g>
			<path fill="#EBD5B2" d="M502.2466,471.9308c-14.8349,17.1939-24.2832,34.148-24.3457,42.4419
				c-0.1396,0.5742-0.1894,1.1543-0.1396,1.7471c0.0635,0.7568,0.3164,1.4316,0.7197,2.0566v0.0186
				c0.252,0.4287,0.6182,0.7949,0.9961,1.1162c5.5,4.8887,19.9443,5.9033,40.5312,1.3055
				c24.4346-5.5312,46.9766-16.6762,46.2823-24.3652c-0.4541-4.6733-8.2744-7.2217-19.918-7.1587
				c10.7979-9.6123,16.6768-18.3794,14.1786-22.6367c-2.1826-3.6836-10.1797-3.1348-20.9023,0.7192
				c7.9472-12.8232,11.0508-23.0722,7.0517-26.0302C540.6832,436.6608,520.7779,450.4547,502.2466,471.9308"/>
			<g>
				<path fill="#917561" d="M431.7437,415.5875c-18.7324,0-34.8916,9.8209-42.6973,27.7022
					c-7.8144-17.8813-24.0117-27.7022-42.7319-27.7022c-26.333,0-46.5981,21.8677-46.5981,51.8335
					c0,30.0293,20.2651,51.8589,46.5981,51.8589c18.6948,0,34.8921-9.8076,42.7065-27.7016
					c7.793,17.894,23.9903,27.7964,42.7227,27.7964c26.3398,0,46.6367-21.8868,46.6367-51.9156
					C478.3804,437.4552,458.0835,415.5875,431.7437,415.5875"/>
				<path fill="#EBD5B2" d="M436.2974,504.653c-18.833,0-34.1855-17.4268-34.1855-38.9219
					c0-21.4575,15.3525-38.9351,34.1855-38.9351c18.8467,0,34.1856,17.4776,34.1856,38.9351
					C470.483,487.2262,455.1441,504.653,436.2974,504.653 M436.2974,428.5114c-18.0264,0-32.6719,16.6826-32.6719,37.2197
					c0,20.5049,14.6455,37.2383,32.6719,37.2383s32.6719-16.7334,32.6719-37.2383
					C468.9693,445.194,454.3238,428.5114,436.2974,428.5114"/>
				<path fill="#EBD5B2" d="M341.7735,505.883c-18.8335,0-34.1792-17.4458-34.1792-38.9283
					c0-21.4638,15.3457-38.9414,34.1792-38.9414c18.8525,0,34.1855,17.4776,34.1855,38.9414
					C375.959,488.4372,360.626,505.883,341.7735,505.883 M341.7735,429.735c-18.02,0-32.6909,16.6895-32.6909,37.2197
					c0,20.5362,14.6709,37.2193,32.6909,37.2193s32.6904-16.6831,32.6904-37.2193
					C374.4639,446.4245,359.7935,429.735,341.7735,429.735"/>
				<path fill="#513E31" d="M412.065,482.9938c0,12.356,1.1357-14.3931,20.4863-14.7021
					c17.6475-0.2525,18.8965,27.0581,18.8965,14.7021c0-12.3877-8.8047-22.4541-19.7041-22.4541
					C420.8824,460.5397,412.065,470.6061,412.065,482.9938"/>
				<path fill="#513E31" d="M364.4478,482.9938c0,12.356-1.1475-14.3931-20.5049-14.7021
					c-17.6538-0.2525-18.8901,27.0581-18.8901,14.7021c0-12.3877,8.8301-22.4541,19.6787-22.4541
					C355.5928,460.5397,364.4478,470.6061,364.4478,482.9938"/>
			</g>
			<path fill="#F88C24" d="M398.8199,482.7541c2.0058,1.0913-10.3853,23.8608-10.3853,23.8608s-8.5273-18.1401-9.3979-24.4219
				C383.8433,476.838,393.2974,475.0089,398.8199,482.7541"/>
			<path fill="#513E31" d="M389.0464,476.6295c-47.2729-36.9477-78.2168-35.2954-90.3076-47.437
				c24.5352-28.7104,72.8174-29.644,105.3154-29.644c25.9239,0,59.5293,9.7256,78.0342,31.3848
				C461.2867,430.6056,426.8365,449.7355,389.0464,476.6295"/>
		</g>
	</g>
	<g id="owl-stamp-hat">
		<path fill="#F88C24" d="M254.3228,449.3131c-3.7339-6.4902,29.7388-36.185,32.9238-41.4961
			c8.6787-14.3554,2.6934-100.0273-5.4936-109.8286c-8.0415-9.5747-13.2012-15.0683-19.0796-23.2109
			c-15.7554-21.8862,20.3979-31.5806,33.6557-27.5942c65.4449,19.5585,111.3716,114.54,123.4185,115.581
			c3.6074,0.2964,55.8701,8.5967,54.5957,13.7246C472.8677,382.298,380.1031,505.0319,254.3228,449.3131"/>
		<path fill="#513E31" d="M285.8277,409.6715c0.6621-0.7568-0.0947-7.3921,5.437-24.9765
			c57.8691-6.2759,94.6724-28.6416,110.5571-41.3887c4.7178,6.3071,16.5879,19.0225,16.5879,19.0225
			S367.1919,399.7946,285.8277,409.6715"/>
		<path fill="#EAE0CF" d="M352.4517,398.5392L352.4517,398.5392c-2.6304,0-4.9893-1.9111-5.8154-4.7871l-5.2857-17.9634
			c-0.5424-1.7597-0.4223-3.6963,0.3282-5.3862c0.7128-1.6655,2.018-2.9204,3.5634-3.5386l16.8282-6.3891
			c0.643-0.2461,1.2866-0.3785,1.9614-0.3785c2.6616,0,5.0268,1.9297,5.853,4.8125l5.292,17.938
			c1.0913,3.6958-0.6431,7.7012-3.8979,8.9248l-16.8282,6.4082C353.814,398.4323,353.1456,398.5392,352.4517,398.5392
			 M364.0318,364.3664c-0.2525,0-0.5108,0.0317-0.8008,0.1577l-16.79,6.3891c-0.6372,0.2461-1.1289,0.7569-1.3941,1.4004
			c-0.2964,0.6558-0.3471,1.4444-0.1577,2.1382l5.2856,17.9316c0.3404,1.148,1.2613,1.8858,2.2769,1.8858
			c0.29,0,0.5737-0.0191,0.8198-0.1387l16.8091-6.4082c1.2676-0.4731,1.9614-2.0439,1.5391-3.5195l-5.2608-17.9444
			C366.0313,365.1232,365.0787,364.3664,364.0318,364.3664"/>
	</g>
</g>
<g id="owl-stamp-ribbon">
	<g id="owl-stamp-ribbon_1_">
		<path fill="#BA691B" d="M679.7593,809.567c-16.2353-11.8837-28.0547-30.3447-31.5996-49.4111
			c-1.9297-10.2686-0.9336-19.4394,2.7754-25.8223c0.7061-1.2109,0.7061-2.7002,0.0128-3.9043
			c-0.6943-1.2177-1.9805-1.9803-3.3682-1.9803c0,0-54.2431-0.3477-54.2685-0.3477c-0.794,0-1.5137,0.3281-2.169,0.7891
			c-1.0976-6.8438-1.666-13.624-1.2871-20.0069c0.1641-2.2646,0.3155-4.2578,0.543-6.4082
			c0.1006-1.0908-0.2656-2.1884-1.0098-3.0146c-0.7441-0.8145-1.791-1.2871-2.9013-1.2871l-32.8985,0.0439
			c-0.6054,0.0069-1.1738,0.1641-1.7158,0.4286c-0.6816-6.5214-1.1484-12.9863-1.1982-18.5683
			c-0.0508-1.7969-0.0254-3.9355-0.0254-5.916c0.0254-1.0469-0.3662-2.0684-1.0977-2.8321
			c-0.7568-0.7382-1.7656-1.1797-2.8135-1.1797H230.1089c-1.0341,0-2.0498,0.4229-2.7685,1.1612
			c-0.751,0.7246-1.1485,1.7344-1.1485,2.7812v5.9473c-0.0942,6.6416-0.6303,13.1006-1.2295,18.626
			c-0.5361-0.2647-1.1167-0.4414-1.7348-0.4483l-32.8862-0.0439c-1.1099,0-2.1573,0.4726-2.8951,1.2871
			c-0.7568,0.8262-1.1098,1.9238-1.0092,3.0146c0.2148,2.1505,0.372,4.1436,0.5678,6.3575
			c0.3658,6.3955-0.1958,13.2011-1.3247,20.0576c-0.6367-0.461-1.3623-0.7891-2.1631-0.7891c-0.0254,0-54.205,0.3477-54.205,0.3477
			c-1.4317,0-2.7373,0.7822-3.4248,2.0303c-0.6563,1.2617-0.6119,2.7822,0.164,3.9863c5.3106,8.3574,7.146,18.2343,5.21,28.6035
			c-3.0908,16.5322-15.4912,33.4541-34.0283,46.46c-1.3873,0.9707-1.9864,2.7373-1.4883,4.3769
			c0.5234,1.6152,2.0185,2.7246,3.7275,2.7373l80.7398,0.2334c3.1474,0,6.7109-2.3584,8.8745-5.8594
			c1.5136-2.4277,2.0561-5.1025,1.7217-7.6378c0.1259,0.0186,0.3471,0.0245,0.3471,0.0245c1.4253,0,2.7813-0.8008,3.4624-2.087
			c1.8042-3.4316,4.3081-8.8622,5.5508-13.163c0.29-0.9278,0.126-1.8741-0.2715-2.7442c17.875-0.0381,37.541-0.082,37.541-0.082
			c2.9014-0.0254,7.0074-1.627,9.2784-4.6543c1.1543-1.5518,1.5136-3.3623,1.4819-5.2227c0.3784,0.1446,0.7129,0.4102,1.1167,0.4219
			c0.0503,0,0.1826,0.0195,0.1826,0.0195c1.5957,0,3.0464-0.9902,3.6328-2.4912l6.2256-15.7686
			c0.3975-0.9961,0.252-2.0625-0.1831-3.0273h258.4888c-0.4541,0.9648-0.5801,2.0498-0.1768,3.0527l6.2197,15.7617
			c0.6055,1.4824,2.0684,2.2393,3.67,2.2393c0.0507,0,0.1142,0,0.164-0.0128c0.417-0.0058,0.7324-0.2968,1.085-0.4413
			c-0.0752,1.9493,0.2646,3.8282,1.501,5.4872c2.2714,3.0274,6.3964,4.6104,9.2968,4.6358l37.668,0.082
			c-0.4414,0.9024-0.6055,1.9678-0.3408,2.9395c1.1601,4.0615,3.6709,9.5175,5.4619,12.9609
			c0.6689,1.293,2.0312,2.0938,3.4687,2.0938c0.1016,0,0.2276-0.0059,0.3536-0.0245c-0.3282,2.5352,0.2021,5.1906,1.7158,7.6447
			c2.1826,3.5068,5.7646,5.8525,8.9053,5.8525l0,0l80.7841-0.2334c1.6905-0.0127,3.1914-1.1094,3.7217-2.6924
			C681.689,812.3229,681.1343,810.57,679.7593,809.567z M168.6001,783.9401c0.4039,0.5107,0.8706,0.8896,1.4507,1.123
			c-0.6303-0.1582-1.2485-0.3349-1.81-0.4414C168.3609,784.3942,168.4869,784.1676,168.6001,783.9401z M176.6358,787.4596
			c-2.0435-0.9717-3.9927-1.6904-5.7837-2.1826c0.2461,0.0508,0.4477,0.1836,0.7129,0.1836c0,0,2.043,0,5.3105-0.0195
			c-0.1259,0.2841-0.3662,0.4795-0.4228,0.7568C176.3394,786.6334,176.5665,787.0241,176.6358,787.4596z M247.7569,772.4801
			c0-0.0254-0.0445-0.082-0.0445-0.1015l1.7852-0.4102L247.7569,772.4801z M225.5171,756.3268
			c-1.4819-0.6055-2.9643-1.2109-4.4716-1.7217h4.913c-0.1635,0.3535-0.498,0.6182-0.5673,1.0215
			C225.3409,755.8727,225.5044,756.0807,225.5171,756.3268z M555.8335,754.6051c-1.5263,0.5107-3.0273,1.1348-4.5283,1.7402
			c0-0.252,0.1885-0.4668,0.126-0.7188c-0.0508-0.4033-0.3916-0.668-0.5801-1.0215H555.8335z M605.2955,785.4606
			c0.252,0,0.4668-0.1514,0.706-0.1963c-1.7031,0.4863-3.582,1.1543-5.537,2.0498c0.0244-0.4033,0.2393-0.7812,0.1387-1.2041
			c-0.0508-0.2715-0.3155-0.4033-0.4297-0.6689L605.2955,785.4606z M606.7964,785.0631c0.5801-0.2334,1.0469-0.6123,1.4512-1.123
			c0.126,0.2148,0.2393,0.4541,0.3652,0.6816C608.0582,784.7282,607.4273,784.9049,606.7964,785.0631z"/>
		<g>
			<path fill="#F88C24" d="M547.5962,756.276l-26.4912-0.082l6.2324,15.7744l0.1514-0.4853
				c1.3623-4.3262,8.7295-10.3126,14.4942-12.9991C543.6988,757.6959,545.691,756.9391,547.5962,756.276z"/>
			<path fill="#F88C24" d="M596.7925,786.9801l-16.3603-0.0127c0.0254,0.0948,0.0625,0.1895,0.0752,0.2969
				c0.997,3.5127,3.2295,8.5088,5.1718,12.2168c1.211-4.4463,5.8028-9.8838,10.71-12.2988L596.7925,786.9801z"/>
			<path fill="#F88C24" d="M644.3121,760.8678c-2.1192-11.2959-0.9336-21.2929,3.2421-28.5215l-54.2431-0.3281
				c0.5176,2.9395,0.9844,5.5889,1.5898,8.6348c4.6299,17.3329,10.4824,31.2715,18.96,45.1035l1.0088,1.6465l-5.2979,0.9961
				c-5.122,1.0478-14.4687,4.201-19.0859,13.4599c-1.4766,2.9521-0.2647,5.7021,0.5801,7.0829
				c1.6269,2.6115,4.0996,4.0176,5.5879,4.0176l80.7841-0.2334C660.5728,800.3708,648.0337,780.8815,644.3121,760.8678z"/>
			<path fill="#F88C24" d="M603.1382,777.3424c-8.8047-17.2188-18.5683-45.5703-17.1933-68.749
				c0.1884-2.3144,0.3281-4.333,0.542-6.5215l-32.8985,0.0371c1.4375,19.4014,5.7139,35.9082,13.46,51.8086l0.7441,1.5195
				l-1.666,0.3662c-10.5078,2.252-19.1484,5.9795-28.8867,12.4443c-1.2998,1.0527-4.1631,3.9609-4.7051,5.8652
				c-0.4668,1.5713-0.2021,2.959,0.7188,4.2071c1.4375,1.9238,4.2509,3.0654,6.1679,3.0849l65.8741,0.1319
				C604.564,780.1559,603.8824,778.8317,603.1382,777.3424z"/>
			<path fill="#F88C24" d="M217.1665,750.6813h342.5147c-0.7568-2.0371-1.9932-5.4043-2.9014-8.0918
				c-3.6455-10.6465-6.0556-23.709-7.4179-32.8105c-1.5518-10.085-2.4971-20.9151-2.6241-29.6631
				c-0.0117-1.8164-0.0117-3.9865,0-5.6768v-0.3779H230.1089c0,1.7148,0,4.0996-0.0185,6.0361
				c-0.1768,11.9961-1.7158,23.7461-2.6177,29.6817c-1.1104,7.3671-3.5386,21.413-7.3984,32.8105
				C219.1783,745.277,217.9297,748.6442,217.1665,750.6813z"/>
			<path fill="#F88C24" d="M234.8331,758.484c5.8217,2.6934,13.1948,8.6855,14.5004,12.9737
				c0.0508,0.1582,0.1138,0.3154,0.1641,0.5049l6.2065-15.7686l-26.4594,0.082
				C231.1309,756.9391,233.1177,757.6959,234.8331,758.484z"/>
			<path fill="#F88C24" d="M239.5005,768.1598c-9.6562-6.3838-18.2973-10.1172-28.8115-12.3564l-1.6465-0.3662l0.7383-1.5195
				c7.8525-16.1025,12.0215-32.123,13.4468-51.8086l-32.8862-0.0371c0.2021,2.1885,0.3784,4.2071,0.5488,6.502
				c1.394,23.2363-8.357,51.5566-17.1558,68.7685l-2.1694,4.1944l65.8603-0.1319c1.8926-0.0195,4.7432-1.1611,6.169-3.0908
				c0.914-1.2422,1.1416-2.6299,0.6997-4.1689C243.7139,772.1325,240.7623,769.194,239.5005,768.1598z"/>
			<path fill="#F88C24" d="M180.4581,787.1823c4.9067,2.4344,9.4926,7.8711,10.6972,12.2988
				c1.9741-3.7529,4.2066-8.8047,5.1968-12.1787c0.0127-0.1201,0.0508-0.2402,0.0947-0.335l-16.3989,0.0127L180.4581,787.1823z"/>
			<path fill="#F88C24" d="M167.2378,788.3991l-5.2666-0.9961l1.0157-1.6465c8.4834-13.8506,14.3237-27.7832,18.9531-45.1914
				c0.5932-2.9649,1.0849-5.6074,1.5771-8.5469l-54.1797,0.3281c5.8975,9.2148,7.8716,20.0127,5.7583,31.4297
				c-3.2798,17.6602-16.1909,35.3272-35.6108,48.9502l80.7271,0.2334c1.4946,0,3.9419-1.4062,5.5566-4.0176
				c0.8579-1.375,2.0688-4.1308,0.5806-7.0829C181.7383,792.5817,172.4097,789.4469,167.2378,788.3991z"/>
		</g>
	</g>
	<g id="owl-stamp-text">
		<path fill="#513E31" d="M254.4175,688.6247c0.1323,0,0.1323,0.0625,0.1323,0.1318c0,0.2021-0.0693,0.8076-0.2709,0.8769
			l-1.4888,0.4102c-0.5361,0.1318-0.8198,0.4033-0.8198,0.7441c-0.2652,4.5352-0.5362,14.7404-0.5362,16.1651
			c0,0.6123,0.2017,0.8145,0.6812,0.8839c2.0937,0.2021,6.2251,0.334,9.6059,0.334c0.1324-2.2266-0.1386-16.0332-0.1386-16.8467
			c0-0.8076-0.1328-1.1485-0.7383-1.2803l-1.6904-0.4102c-0.2144-0.0693-0.3467-0.4033-0.3467-0.8769
			c0-0.0693,0-0.1318,0.1323-0.1318h13.7373c0.1323,0,0.1323,0.0625,0.1323,0.1318c0,0.2715-0.0566,0.8076-0.2583,0.8769
			l-1.5581,0.4102c-0.4096,0.0693-0.6113,0.2715-0.6811,0.9463c-0.2017,2.3711-0.8072,14.0019-0.8765,18.2656
			c-0.0757,3.4502-0.4102,17.3887-0.4102,18.4678c0,0.6123,0.1451,0.9463,0.4795,1.085l2.3653,0.8076
			c0.1323,0.0752,0.2016,0.3466,0.2016,0.6806c0,0.0694,0,0.1328-0.1386,0.1328c-0.5992,0-3.1094-0.1328-5.9478-0.1328
			c-3.0464,0-5.8911,0.0694-6.831,0.1328c-0.2144,0-0.2144-0.0634-0.2144-0.1328c0-0.4033,0.145-0.6054,0.3472-0.6806l1.9614-0.8076
			c0.4038-0.1387,0.5425-0.2715,0.5425-0.8077c0.1323-1.7031,0-17.0547-0.0694-18.6064c-3.7212,0.1328-8.1806,0.5361-9.6059,0.6689
			c-0.6118,0.0694-0.814,0.2704-0.814,0.75c-0.1387,2.8389-0.271,15.6299-0.2016,17.3896c0,0.4033,0.2016,0.6748,0.6811,0.8066
			l1.7598,0.6065c0.2588,0.0752,0.4038,0.3466,0.4038,0.6113c0,0.1387,0,0.2021-0.145,0.2021
			c-1.0093-0.0634-3.5196-0.1328-6.3516-0.1328c-2.7119,0-5.1406,0.0694-6.3643,0.1328c-0.1323,0-0.1323-0.0634-0.1323-0.2021
			c0-0.2647,0.0694-0.5361,0.1958-0.6113l2.1001-0.7383c0.4795-0.1387,0.5425-0.2715,0.5425-1.0215
			c0-2.2266-0.1328-15.2832-0.1328-17.8564c0-2.5674-0.2774-17.1182-0.3467-18.7452c0-0.7382-0.1953-1.079-0.6685-1.1415
			l-1.9614-0.4796c-0.2021-0.0693-0.2715-0.6053-0.2715-0.8769c0-0.0693,0-0.1318,0.2022-0.1318H254.4175z"/>
		<path fill="#513E31" d="M290.167,688.486c2.1636,0,3.854,0.0693,5.1407,0.1387c0.271,0.0625,0.4038,0.1318,0.4731,0.2646
			c1.2168,6.9004,5.8779,29.833,7.9155,39.2441c0.0694,0.2706,0.3404,0.7442,0.5425,0.8077l1.6904,0.6054
			c0.271,0.0694,0.4034,0.416,0.4034,0.75c0,0.0694-0.0567,0.1328-0.2017,0.1328c-2.0249-0.0634-3.9233-0.1328-5.8848-0.1328
			c-2.5039,0-4.6045,0.0694-6.9633,0.1328c-0.1387,0-0.1387-0.0634-0.1387-0.1328c0-0.2021,0.0693-0.6806,0.2715-0.75l2.5669-0.6054
			c0.4096-0.0635,0.5361-0.4737,0.4096-1.0098c-0.6806-2.4404-2.4404-8.8682-3.248-12.041c-2.0938,0-7.9849,0.2656-9.6123,0.4668
			c-0.1953,0-0.4038,0.2021-0.4732,0.5429c-0.4096,3.0459-1.2172,8.1866-1.4819,10.6211c-0.1387,1.1485,0.1323,1.3565,0.5991,1.4883
			l2.0308,0.5371c0.2773,0.0694,0.4165,0.416,0.4165,0.75c0,0.1328-0.0693,0.1328-0.2144,0.1328
			c-1.7597-0.0634-3.2358-0.1328-4.8632-0.1328c-1.6963,0-3.1158,0.0694-4.5347,0.1328c-0.1392,0-0.1392-0.0634-0.1392-0.1328
			c0-0.1328,0.0694-0.6806,0.2715-0.75l1.1543-0.4043c0.6055-0.2011,0.8765-0.2646,1.1416-1.3438
			c2.3086-8.4004,7.3164-28.8242,9.48-37.0801c0.4033-1.6269,1.4883-2.2324,3.1787-2.2324H290.167z M287.8584,694.0993
			c-0.1889,0.6748-0.3339,1.2236-0.4038,1.6904c-1.2109,5.752-2.8315,13.333-3.7841,17.793c0,0.2011,0.1328,0.4033,0.2651,0.4795
			c1.6899,0.2011,7.3164,0.6054,8.9311,0.6054c-0.6748-2.9082-2.9077-11.9082-4.3271-18.8086
			c-0.1323-0.5361-0.2017-1.0156-0.4668-1.7597H287.8584z"/>
		<path fill="#513E31" d="M324.6426,688.6247c0.1323,0,0.1323,0.0625,0.1323,0.1318c0,0.4043-0.1323,0.8076-0.2646,0.8076
			l-2.1699,0.4795c-0.7442,0.1318-0.8765,0.4033-0.9458,1.1475c-0.2017,3.1797-0.6118,16.4433-0.7378,19.1425
			c-0.0762,1.836-0.3472,16.3106-0.3472,18.2032c0,0.4726,0.3472,0.5429,0.8833,0.5429c1.0781,0,5.5503-0.4102,7.3101-0.877
			c0.8135-0.2715,1.3496-0.6055,1.7534-1.287l3.7905-5.8848c0.0694-0.0752,0.1323-0.0752,0.2017-0.0752
			c0.2021,0,0.6816,0.4795,0.6816,0.6113l-1.6904,8.458c-0.0693,0.2022-0.2149,0.4043-0.6875,0.4043
			c-0.4038,0-7.9727-0.1328-15.6235-0.1328c-2.504,0-3.8599,0-6.9063,0.1328c-0.1323,0-0.1323-0.0634-0.1323-0.1328
			c0-0.2715,0.1323-0.6806,0.3403-0.75l1.9556-0.4668c0.479-0.1386,0.6875-0.4102,0.6875-1.1484
			c0-2.1699-0.1392-15.4277-0.1392-18.001c0-2.5674-0.0693-16.1025-0.2016-18.5371c0-0.7441-0.1324-1.1474-0.8829-1.3496
			l-1.6904-0.4795c-0.2021-0.0693-0.2715-0.4033-0.2715-0.8076c0-0.0693,0-0.1318,0.1387-0.1318H324.6426z"/>
		<path fill="#513E31" d="M353.4986,688.6247c0.1387,0,0.1387,0.0625,0.1387,0.1318c0,0.4043-0.1387,0.8076-0.271,0.8076
			l-2.1636,0.4795c-0.7505,0.1318-0.8701,0.4033-0.9463,1.1475c-0.208,3.1797-0.6113,16.4433-0.7441,19.1425
			c-0.063,1.836-0.3467,16.3106-0.3467,18.2032c0,0.4726,0.3467,0.5429,0.8828,0.5429c1.0913,0,5.5508-0.4102,7.3164-0.877
			c0.8076-0.2715,1.3437-0.6055,1.7471-1.287l3.7973-5.8848c0.0694-0.0752,0.1323-0.0752,0.2017-0.0752
			c0.208,0,0.6748,0.4795,0.6748,0.6113l-1.6904,8.458c-0.0694,0.2022-0.2017,0.4043-0.6748,0.4043
			c-0.4034,0-7.9849-0.1328-15.6294-0.1328c-2.5039,0-3.8599,0-6.8999,0.1328c-0.1329,0-0.1329-0.0634-0.1329-0.1328
			c0-0.2715,0.1329-0.6806,0.3345-0.75l1.9614-0.4668c0.4732-0.1386,0.6748-0.4102,0.6748-1.1484
			c0-2.1699-0.1323-15.4277-0.1323-18.001c0-2.5674-0.0693-16.1025-0.208-18.5371c0-0.7441-0.1323-1.1474-0.8833-1.3496
			l-1.6836-0.4795c-0.1958-0.0693-0.2651-0.4033-0.2651-0.8076c0-0.0693,0-0.1318,0.1323-0.1318H353.4986z"/>
		<path fill="#513E31" d="M380.273,730.8327c-8.2559,0-12.9297-6.9629-12.9297-18.7393c0-14.4746,5.481-24.0176,15.0933-24.0176
			c8.4458,0,12.9897,7.6504,12.9897,19.1553c0,15.415-5.4209,23.6016-15.0967,23.6016H380.273z M381.6226,729.6159
			c4.1943,0,5.5508-8.3828,5.5508-22.1836c0-9.3408-1.6904-18.2022-5.7588-18.2022c-4.1187,0-5.9478,8.8614-5.9478,22.3907
			c0,9.7451,2.0943,17.9951,6.0865,17.9951H381.6226z"/>
		<path fill="#513E31" d="M414.8658,727.9313c0.1386-0.6807,0.2773-1.2168,0.4033-1.8926
			c1.8291-9.1387,4.4023-22.8066,6.1689-33.2959c0.4034-2.2265,0.6055-2.3652,3.8467-2.6299
			c0.6943-0.0693,1.6904-0.1455,2.0313-0.1455c0.2773,0,0.4795,0.1455,0.5429,0.4795c1.2227,6.4209,4.4024,26.6543,5.9532,35.9961
			c0.0761,0.4727,0.1396,1.0781,0.2783,1.4883h0.3271c0.1524-0.334,0.2149-0.8828,0.2783-1.4258
			c1.627-9.0693,3.6582-23.4756,4.8057-35.1123c0.0635-0.8135,0.0635-1.0781-0.4795-1.2178l-2.6357-0.5421
			c-0.2022-0.0693-0.2774-0.4033-0.2774-0.8769c0-0.0693,0-0.1318,0.1387-0.1318h10.8359c0.126,0,0.126,0.0625,0.126,0.1318
			c0,0.335-0.0635,0.7383-0.2783,0.8076l-1.2734,0.5488c-0.4795,0.1329-0.669,0.4668-0.8204,0.9395
			c-1.8291,7.4492-7.4423,32.0039-8.9179,37.2129c-0.4795,1.8984-0.8203,1.9619-5.084,2.1006h-2.2959
			c-0.4033,0-0.6182-0.2022-0.6807-0.4727c-1.6904-7.6514-3.457-14.8223-4.6679-21.6533c-0.0625-0.6055-0.3282-2.0313-0.4795-3.3174
			h-0.3282c-0.3398,1.6904-0.7441,3.1846-1.1474,4.6738c-0.9463,3.7148-3.583,14.6827-5.0078,19.0098
			c-0.543,1.5576-0.8828,1.6211-5.752,1.7598h-1.8926c-0.3408,0-0.4795-0.1387-0.6181-0.6055
			c-1.6143-7.7891-4.8067-28.1494-6.4971-38.9727c-0.0625-0.4101-0.126-0.6747-0.5293-0.7441l-1.4883-0.4102
			c-0.2021-0.0693-0.2773-0.5419-0.2773-0.8076c0-0.1386,0.0752-0.2011,0.2012-0.2011h14.3427c0.1387,0,0.1387,0.0625,0.1387,0.2011
			c0,0.4043-0.1387,0.7383-0.3408,0.8076l-2.2324,0.4102c-0.4668,0.0693-0.7442,0.4727-0.6807,1.0088
			c0.416,6.2314,2.5098,25.2422,3.5947,34.375c0.0762,0.5361,0.2022,1.5518,0.3408,2.5039H414.8658z"/>
		<path fill="#513E31" d="M473.6246,730.2272c-0.0762,0.2021-0.2022,0.3408-0.543,0.3408c-0.2647,0-1.4883-0.0693-4.0615-0.1387
			c-2.4981-0.0634-6.295-0.1328-11.7696-0.1328c-2.5107,0-5.0205,0.0694-7.039,0.1328c-0.2022,0-0.2022-0.0634-0.2022-0.1328
			c0-0.2715,0.0635-0.6806,0.3408-0.75l2.17-0.6054c0.4668-0.1328,0.7314-0.335,0.7314-1.085
			c0.0762-1.8174,0-16.7715-0.0625-19.3447c-0.0762-2.5674-0.1387-14.7462-0.3408-17.257c-0.0635-0.7382-0.2022-1.079-0.7315-1.2109
			l-1.9804-0.4795c-0.1895,0-0.2656-0.4033-0.2656-0.7383c0-0.1386,0-0.2011,0.1386-0.2011h6.2949
			c5.6768,0,9.7383-0.0694,12.4385-0.1387c2.7119,0,4.0742-0.0762,4.3389-0.0762c0.3408,0,0.4043,0.2774,0.4043,0.6182
			l0.2012,7.5058c0,0.2021-0.542,0.5362-0.7442,0.5362c-0.0625,0-0.126,0-0.2021-0.126c-0.7442-1.9678-1.6143-3.7842-2.4971-5.7529
			c-0.2773-0.542-0.6943-0.6748-1.2236-0.8135c-1.0098-0.2021-5.8155-0.6807-6.7744-0.6113
			c-0.5293,0.0752-0.6055,0.2773-0.6055,0.6113c-0.3281,4.7432-0.6055,15.4277-0.6055,17.2568
			c2.3721,0.1328,8.666,0.4043,10.4951,0.4043c0.126,0,0.126,0.0684,0.126,0.1319c0,0.4736-0.3398,1.0849-0.4658,1.0849
			c-2.5733,0.2715-6.6358,0.4727-9.4111,0.6748c-0.6055,0.0694-0.8067,0.2022-0.8067,0.5489
			c-0.0762,1.9619-0.3408,15.4843-0.3408,17.4521c0,0.6748,0.1387,1.0098,0.6055,1.0098c2.2324,0,6.0927-0.2715,8.3886-0.7383
			c0.6807-0.1387,1.1475-0.5488,1.501-1.085c1.1358-1.6269,2.2207-3.3867,3.1787-5.0078c0.0508-0.1387,0.126-0.1387,0.2022-0.1387
			c0.2011,0,0.6679,0.4161,0.6054,0.6747L473.6246,730.2272z"/>
		<path fill="#513E31" d="M502.8267,730.2272c-0.0752,0.2021-0.2139,0.3408-0.5547,0.3408c-0.2646,0-1.4756-0.0693-4.0615-0.1387
			c-2.4981-0.0634-6.2822-0.1328-11.7695-0.1328c-2.5108,0-5.0078,0.0694-7.0264,0.1328c-0.2148,0-0.2148-0.0634-0.2148-0.1328
			c0-0.2715,0.0761-0.6806,0.3408-0.75l2.1699-0.6054c0.4785-0.1328,0.7441-0.335,0.7441-1.085
			c0.0625-1.8174,0-16.7715-0.0634-19.3447c-0.0752-2.5674-0.1387-14.7462-0.3409-17.257c-0.0625-0.7382-0.2138-1.079-0.7441-1.2109
			l-1.9678-0.4795c-0.2021,0-0.2646-0.4033-0.2646-0.7383c0-0.1386,0-0.2011,0.126-0.2011h6.3076
			c5.6767,0,9.7256-0.0694,12.4375-0.1387c2.7129,0,4.0625-0.0762,4.3271-0.0762c0.3408,0,0.416,0.2774,0.416,0.6182l0.2022,7.5058
			c0,0.2021-0.543,0.5362-0.7569,0.5362c-0.0634,0-0.1259,0-0.1894-0.126c-0.7441-1.9678-1.627-3.7842-2.5107-5.7529
			c-0.2774-0.542-0.6807-0.6748-1.2227-0.8135c-0.9971-0.2021-5.8027-0.6807-6.7617-0.6113
			c-0.543,0.0752-0.6055,0.2773-0.6055,0.6113c-0.3408,4.7432-0.6055,15.4277-0.6055,17.2568
			c2.3584,0.1328,8.6661,0.4043,10.4825,0.4043c0.1259,0,0.1259,0.0684,0.1259,0.1319c0,0.4736-0.3281,1.0849-0.4668,1.0849
			c-2.5732,0.2715-6.622,0.4727-9.3974,0.6748c-0.6182,0.0694-0.8203,0.2022-0.8203,0.5489
			c-0.0625,1.9619-0.3282,15.4843-0.3282,17.4521c0,0.6748,0.127,1.0098,0.5938,1.0098c2.2451,0,6.0928-0.2715,8.4004-0.7383
			c0.6816-0.1387,1.1484-0.5488,1.4892-1.085c1.1475-1.6269,2.2198-3.3867,3.1788-5.0078c0.0625-0.1387,0.1386-0.1387,0.2021-0.1387
			c0.2012,0,0.668,0.4161,0.6055,0.6747L502.8267,730.2272z"/>
		<path fill="#513E31" d="M517.4722,688.6247c0.2656,0,0.4043,0.1318,0.543,0.3339c1.6904,3.6524,9.6748,22.7315,12.3115,28.9572
			c0.4033,0.8066,0.7441,1.6904,1.085,2.7051l0.2646-0.4034v-3.1162c-0.1387-7.0381-0.2012-19.6152-0.7441-25.708
			c-0.0752-0.8135-0.2774-1.0781-0.8828-1.2178l-2.7627-0.6113c-0.2774-0.0693-0.3535-0.4726-0.3535-0.6748
			c0-0.2021,0-0.2646,0.1386-0.2646h10.0166c0.1387,0,0.1387,0.0625,0.1387,0.2011c0,0.2657-0.0762,0.669-0.2773,0.7383
			l-1.8291,0.6113c-0.4668,0.1396-0.669,0.4737-0.7325,1.2812c-0.0752,1.7598-0.6172,12.8603-0.7441,17.5215
			c-0.0752,2.7812-0.2774,17.8681-0.3399,20.7822c0,0.2021-0.0634,0.334-0.3408,0.4668c-0.6054,0.2021-1.8291,0.4033-2.3594,0.4033
			c-0.6181,0-1.0966-0.1318-1.5634-0.8701c-3.3184-5.96-10.3574-20.0322-13.8135-27.001c-0.2647-0.5371-0.6689-1.4892-0.9336-2.0254
			l-0.4033,0.0635c-0.0762,0.877-0.0762,1.4248-0.0762,2.2324c-0.126,5.3428-0.5293,18.537-0.5293,24.7686
			c0,0.6689,0.1895,0.9404,0.668,1.0098l2.9648,0.7382c0.1514,0.0694,0.2901,0.416,0.2901,0.75c0,0.0694,0,0.1328-0.1387,0.1328
			c-1.0215-0.0634-2.7754-0.1328-4.541-0.1328c-1.6905,0-3.1787,0.0694-4.2012,0.1328c-0.126,0-0.126-0.0634-0.126-0.1328
			c0-0.334,0.126-0.6806,0.3408-0.75l2.17-0.6054c0.4033-0.1328,0.5927-0.335,0.5927-1.085
			c0.0752-2.2266-0.2656-14.4756-0.2656-17.793c0-2.5673-0.4668-16.0966-0.6172-18.6064c0-0.7383-0.2529-1.1416-0.9336-1.3438
			l-1.9687-0.5488c-0.2647-0.0693-0.4033-0.4726-0.4033-0.7383c0-0.1386,0-0.2011,0.2021-0.2011H517.4722z"/>
	</g>
</g>
</svg>
