<?xml version="1.0" encoding="utf-8"?>
<!-- Generator: Adobe Illustrator 17.1.0, SVG Export Plug-In . SVG Version: 6.00 Build 0)  -->
<!DOCTYPE svg PUBLIC "-//W3C//DTD SVG 1.1//EN" "http://www.w3.org/Graphics/SVG/1.1/DTD/svg11.dtd">
<svg version="1.1" id="pumpkin-stamp" xmlns="http://www.w3.org/2000/svg" xmlns:xlink="http://www.w3.org/1999/xlink" x="0px"
	 y="0px" viewBox="0 0 776.9204 1009.9973" enable-background="new 0 0 776.9204 1009.9973" xml:space="preserve">
<g id="pumpkin-stamp-stamp">
	<g id="pumpkin-stamp-stamp_1_">
		<path fill="#F3E6D1" d="M776.9204,55.8074h-0.0508c0.0254-0.2115,0.0508-0.4414,0.0508-0.6529
			c0-8.9751-13.9337-10.9648-20.1016-16.8437c-5.0205-6.4776-1.665-15.7998,9.461-28.3384
			c-0.4541-1.6743-14.3936-9.9214-29.0957-9.9722c0,0-0.0254,0-0.044,0c-0.0312,0-0.0947,0-0.1133,0
			c-6.6982-0.0342-10.1552,4.4278-13.5107,9.0196c-3.4756,4.7431-6.8438,9.6191-13.5547,9.9375l0,0
			c-0.1641,0.0156-0.334,0.0156-0.4912,0.0156c-13.9014,0-13.9014-18.9727-27.8154-18.9727
			c-13.8702,0-13.8702,18.9727-27.7334,18.9727c-13.9141,0-13.9141-18.9727-27.8086-18.9727
			c-13.9707,0-13.9707,18.9727-27.9346,18.9727c-13.9082,0-13.9082-18.9727-27.8223-18.9727
			c-13.9199,0-13.9199,18.9727-27.872,18.9727c-13.9385,0-13.9385-18.9727-27.9219-18.9727
			c-13.9776,0-13.9776,18.9727-27.9483,18.9727c-13.957,0-13.957-18.9727-27.9218-18.9727
			c-13.9961,0-13.9961,18.9727-27.9795,18.9727S416.729,0.0002,402.7466,0.0002c-13.9712,0-13.9712,18.9727-27.8912,18.9727
			c-13.9516,0-13.9516-18.9727-27.8911-18.9727c-13.958,0-13.958,18.9727-27.9287,18.9727
			c-13.9453,0-13.9453-18.9727-27.8594-18.9727c-14.0146,0-14.0146,18.9727-28.0044,18.9727
			c-13.9702,0-13.9702-18.9727-27.8969-18.9727c-13.9771,0-13.9771,18.9727-27.9668,18.9727
			c-13.9829,0-13.9829-18.9727-27.9473-18.9727c-13.9707,0-13.9707,18.9727-27.9414,18.9727
			c-13.958,0-13.958-18.9727-27.9604-18.9727c-13.9454,0-13.9454,18.9727-27.9034,18.9727
			c-13.9834,0-13.9834-18.9727-27.9731-18.9727c-13.9639,0-13.9639,18.9727-27.9536,18.9727
			c-14.2232,0-22.1514-6.1338-27.8911-8.7451C8.1679,8.591,0,24.0344,0,32.0354c0,0.2109,0.0254,0.4477,0.0444,0.6592H0.0063
			c0,1.0214,0.2022,1.9267,0.5298,2.7656c0.019,0.0596,0.019,0.1133,0.0503,0.1641c0,0.0092,0,0.0092,0,0.0092
			c3.1855,8.9248,18.2095,8.9439,21.8994,17.1968c0.3086,0.8643,0.4917,1.7441,0.4917,2.7471C22.9775,67.0344,0,67.0344,0,78.4949
			c0,0.353,0.0254,0.6684,0.0571,1.0029H0.0063c0.0635,11.2646,22.4224,11.4067,22.9522,22.4604
			C22.4223,113.0461,0,113.2038,0,124.5412c0,0.1416,0.0063,0.2461,0.0254,0.3877C0.0063,125.0334,0,125.156,0,125.3137
			c0,11.3911,22.3974,11.5298,22.9585,22.6563C22.3974,159.0769,0,159.2156,0,170.5876c0,0.1577,0.0063,0.2808,0.0254,0.3692
			C0.0063,171.0984,0,171.2024,0,171.3254c0,11.3877,22.5107,11.5108,22.9585,22.7066C22.5107,205.2082,0,205.3342,0,216.738
			c0,0.1074,0.0063,0.2305,0.0254,0.3345C0.0063,217.1794,0,217.2834,0,217.3909c0,11.457,22.5298,11.5644,22.9585,22.7597
			C22.5298,251.362,0,251.4851,0,262.9265c0,0.104,0.0063,0.1924,0.0063,0.2993c0,0.1045-0.0063,0.1768-0.0063,0.2998
			c0,11.4414,22.5107,11.5674,22.9585,22.7569C22.5107,297.4587,0,297.5852,0,308.9885c0,0.126,0.0063,0.2461,0.0254,0.3535
			C0.0063,309.4807,0,309.6067,0,309.7077c0,11.4097,22.4668,11.5298,22.9585,22.6934C22.4668,343.5276,0,343.6662,0,355.0569
			c0,0.1201,0.0063,0.2275,0.0254,0.3662C0.0063,355.5491,0,355.6374,0,355.7761c0,11.4224,22.5107,11.5108,22.9585,22.7188
			C22.5107,389.678,0,389.7849,0,401.2014c0,0.1133,0.0063,0.2144,0.0063,0.3213c0,0.1074-0.0063,0.2085-0.0063,0.3154
			c0,11.4414,22.5107,11.5869,22.9585,22.7759c-0.4478,11.1636-22.7945,11.3403-22.9522,22.6558l0,0l0,0
			c0,0.0127-0.0063,0.0693-0.0063,0.1005c0,0.0889,0.0063,0.2022,0.0063,0.3033c0,0.1069-0.0063,0.1953-0.0063,0.3149
			c0,11.3721,22.2397,11.5488,22.9336,22.5679C22.353,481.5749,0,481.7327,0,493.0481c0,0.0884,0.0063,0.145,0.0063,0.2334
			c0,0.0693-0.0063,0.1577-0.0063,0.2461c0,0.0879,0.0063,0.1889,0.0254,0.334c-0.0191,0.0693-0.0191,0.1074-0.0191,0.1577l0,0
			c0,0.019,0,0.0381,0,0.0381c0,0.0312-0.0063,0.0503-0.0063,0.101c0,11.3213,22.1831,11.5166,22.9272,22.4951
			C22.2016,527.6155,0,527.7922,0,539.0823c0,0.0879,0.0063,0.2011,0.0063,0.29c0,0.1006-0.0063,0.1758-0.0063,0.2773h0.0063
			c0,0.0752-0.0063,0.1133-0.0063,0.1895c0,0.1006,0.0063,0.1641,0.0063,0.2393c0,0.0761-0.0063,0.1386-0.0063,0.2275
			c0,11.3271,22.1831,11.5293,22.9272,22.4911C22.0254,573.633,0,573.8479,0,585.1506c0,0.1387,0.0063,0.2393,0.0254,0.3526
			C0.0063,585.6418,0,585.7434,0,585.8694c0,0.0879,0.0063,0.1894,0.0063,0.29c0,0.0879-0.0063,0.1768-0.0063,0.2774h0.0444
			c0.7378,10.8232,22.4663,11.1386,22.9141,22.1386C22.5107,619.7522,0,619.8528,0,631.2825c0,0.1259,0.0063,0.2392,0.0254,0.3271
			C0.0063,631.7239,0,631.8371,0,631.9504c0,11.416,22.5298,11.5293,22.9585,22.7569C22.5298,665.9094,0,666.0354,0,677.4768
			c0,0.0879,0.0063,0.1885,0.0063,0.29c0,0.126-0.0063,0.2012-0.0063,0.3028c0,11.4287,22.5107,11.5547,22.9585,22.7568
			C22.5107,712.0149,0,712.1291,0,723.5198c0,0.1386,0.0063,0.2519,0.0254,0.3916C0.0063,724.0246,0,724.1252,0,724.2766
			c0,11.3662,22.4668,11.5049,22.9585,22.668C22.4668,758.0715,0,758.2228,0,769.6008c0,0.1133,0.0063,0.252,0.0254,0.3662
			C0.0063,770.0803,0,770.1936,0,770.3323c0,11.4033,22.5107,11.5175,22.9585,22.706C22.5107,804.2278,0,804.3411,0,815.7327
			c0,0.1132,0.0063,0.2265,0.0063,0.3408c0,0.0879-0.0063,0.2011-0.0063,0.29c0,11.4658,22.5107,11.5801,22.9585,22.794
			C22.5107,850.3469,0,850.4856,0,861.927c0,0.0879,0.0063,0.1767,0.0063,0.3027c0,0.1016-0.0063,0.1895-0.0063,0.3028
			c0,11.4287,22.5107,11.5546,22.9585,22.7568C22.5107,896.5032,0,896.6428,0,908.0715c0,0.1133,0.0063,0.2012,0.0063,0.2901
			c0,0.1132-0.0063,0.2021-0.0063,0.3154c0,11.4413,22.5107,11.542,22.9585,22.7314C22.5107,942.6477,0.0063,942.7493,0,954.2024
			h0.0508C0.0254,954.4045,0,954.6194,0,954.8459c0,8.9698,13.914,10.9619,20.0888,16.8409
			c5.0269,6.4834,1.6651,15.7929-9.4672,28.3193c0.4858,1.6904,14.4121,9.9404,29.1142,9.9911c0.0127,0,0.0254,0,0.0444,0
			c0.0318,0,0.0757,0,0.1138,0c6.6983,0.0127,10.1543-4.415,13.5161-9.0195c3.4756-4.7432,6.8374-9.625,13.5547-9.9151l0,0
			c0.1514-0.0254,0.315-0.0381,0.4981-0.0381c13.8823,0,13.8823,18.9727,27.7773,18.9727s13.895-18.9727,27.7647-18.9727
			c13.8886,0,13.8886,18.9727,27.8217,18.9727c13.958,0,13.958-18.9727,27.9287-18.9727c13.8824,0,13.8824,18.9727,27.7901,18.9727
			c13.9389,0,13.9389-18.9727,27.8843-18.9727c13.958,0,13.958,18.9727,27.9287,18.9727s13.9707-18.9727,27.935-18.9727
			c13.9707,0,13.9707,18.9727,27.9287,18.9727c13.9893,0,13.9893-18.9727,27.9854-18.9727c13.977,0,13.977,18.9727,27.9795,18.9727
			c13.939,0,13.939-18.9727,27.8779-18.9727c13.958,0,13.958,18.9727,27.8975,18.9727c13.9511,0,13.9511-18.9727,27.916-18.9727
			c13.9453,0,13.9453,18.9727,27.8779,18.9727c13.9903,0,13.9903-18.9727,27.9727-18.9727
			c13.9707,0,13.9707,18.9727,27.9355,18.9727c13.9834,0,13.9834-18.9727,27.9541-18.9727
			c13.9639,0,13.9639,18.9727,27.9346,18.9727c13.9648,0,13.9648-18.9727,27.9414-18.9727c13.9766,0,13.9766,18.9727,27.96,18.9727
			c13.9521,0,13.9521-18.9727,27.916-18.9727c13.9648,0,13.9648,18.9727,27.9668,18.9727c13.9707,0,13.9707-18.9727,27.9541-18.9727
			c14.2226,0,22.164,6.1309,27.872,8.7549c3.6143,1.6397,11.7569-13.8261,11.7569-21.7861c0-0.2393-0.0255-0.4785-0.0255-0.7061
			h0.0255c-0.0195-0.9834-0.2207-1.9043-0.5235-2.7373c-0.038-0.0752-0.0507-0.1132-0.0566-0.164c0,0,0-0.0254-0.0195-0.0254
			c-3.1856-8.918-18.209-8.9434-21.8926-17.1807c-0.3086-0.8701-0.4922-1.7539-0.4922-2.7373
			c0-11.4668,22.9844-11.4668,22.9844-22.9463c0-0.3525-0.0255-0.6679-0.0567-0.9834h0.0567
			c-0.0889-11.2773-22.416-11.4414-22.9395-22.4795c0.5235-11.1132,22.9395-11.2275,22.9395-22.5927
			c0-0.1006-0.0195-0.2393-0.0255-0.3663c0.0059-0.1386,0.0255-0.252,0.0255-0.3652c0-11.4033-22.4043-11.542-22.9395-22.6689
			c0.5352-11.1133,22.9395-11.2647,22.9395-22.6553c0-0.1143-0.0195-0.2529-0.0255-0.3661
			c0.0059-0.1006,0.0255-0.2266,0.0255-0.3535c0-11.378-22.5049-11.5039-22.9395-22.6934
			c0.4346-11.1894,22.9395-11.3027,22.9395-22.7187c0-0.1133-0.0195-0.2149-0.0255-0.3282
			c0.0059-0.1132,0.0255-0.2138,0.0255-0.3398c0-11.4171-22.5303-11.5303-22.9395-22.7324
			c0.4092-11.2266,22.9395-11.3399,22.9395-22.7813c0-0.1016-0.0195-0.2021-0.0195-0.3154c0-0.0889,0.0195-0.1641,0.0195-0.2773
			c0-11.4287-22.5049-11.5683-22.9395-22.7695c0.4346-11.1894,22.9395-11.3027,22.9395-22.6943c0-0.126-0.0195-0.252-0.0255-0.3906
			c0.0059-0.1133,0.0255-0.2149,0.0255-0.3653c0-11.3916-22.4922-11.5176-22.9395-22.6689
			c0.4473-11.126,22.9395-11.252,22.9395-22.6436c0-0.1387-0.0195-0.2392-0.0255-0.3779c0.0059-0.1133,0.0255-0.2149,0.0255-0.3408
			c0-11.416-22.5049-11.5293-22.9395-22.7315c0.4346-11.1894,22.9395-11.3027,22.9395-22.6933c0-0.1143-0.0195-0.2276-0.0195-0.3155
			c0-0.1132,0.0195-0.2275,0.0195-0.3408c0-11.416-22.5049-11.5674-22.9395-22.7695c0.4346-11.1514,22.7813-11.3272,22.92-22.6299
			h0.0195c0-0.0254-0.0195-0.0254-0.0195-0.0254c0-0.0254,0.0195-0.0635,0.0195-0.0889c0-0.1132-0.0195-0.2011-0.0195-0.3027
			c0-0.126,0.0195-0.2012,0.0195-0.3281c0-11.3653-22.2402-11.5547-22.9395-22.5547c0.5801-11.0128,22.9395-11.1885,22.9395-22.5166
			c0-0.0508-0.0195-0.126-0.0195-0.2022c0-0.0878,0.0195-0.1513,0.0195-0.2519c0-0.1016-0.0195-0.2149-0.0255-0.3281
			c0.0059-0.0762,0.0059-0.126,0.0059-0.2022h0.0195l-0.0195-0.0127c0-0.0244,0.0195-0.0498,0.0195-0.1006
			c0-11.3247-22.1826-11.5332-22.9337-22.5014c0.7314-10.9302,22.9337-11.1197,22.9337-22.4224
			c0-0.0884-0.0195-0.1767-0.0195-0.2837c0-0.1196,0.0195-0.1767,0.0195-0.2837h-0.0195c0-0.0635,0.0195-0.1386,0.0195-0.1894
			c0-0.0757-0.0195-0.1641-0.0195-0.2461c0-0.0567,0.0195-0.145,0.0195-0.2334c0-11.3154-22.1826-11.5293-22.9337-22.4727
			c0.9268-10.8423,22.9337-11.0693,22.9337-22.3594c0-0.1386-0.0195-0.2651-0.0255-0.3466
			c0.0059-0.1455,0.0255-0.2461,0.0255-0.3726c0-0.0884-0.0195-0.189-0.0195-0.2773c0-0.0884,0.0195-0.1958,0.0195-0.2837h-0.0255
			c-0.7637-10.8301-22.4795-11.126-22.9141-22.126c0.4346-11.1958,22.9395-11.3218,22.9395-22.7256
			c0-0.1006-0.0195-0.2265-0.0255-0.334c0.0059-0.1074,0.0255-0.208,0.0255-0.3344c0-11.4224-22.5303-11.5298-22.9395-22.7564
			c0.4092-11.1958,22.9395-11.3408,22.9395-22.7568c0-0.1265-0.0195-0.2022-0.0195-0.3028c0-0.1074,0.0195-0.1958,0.0195-0.3027
			c0-11.4414-22.5049-11.5425-22.9395-22.7568c0.4346-11.1953,22.9395-11.3155,22.9395-22.6875
			c0-0.1451-0.0195-0.2647-0.0255-0.3848c0.0059-0.126,0.0255-0.2334,0.0255-0.3721c0-11.372-22.4922-11.5298-22.9395-22.6557
			c0.4473-11.1387,22.9395-11.2808,22.9395-22.6685c0-0.123-0.0195-0.2461-0.0255-0.3721c0.0059-0.104,0.0255-0.227,0.0255-0.3501
			c0-11.4414-22.5049-11.5297-22.9395-22.706c0.4346-11.1958,22.9395-11.3189,22.9395-22.7251c0-0.1045-0.0195-0.2114-0.0195-0.3154
			c0-0.1075,0.0195-0.2115,0.0195-0.3189c0-11.4414-22.5049-11.5644-22.9395-22.7754
			c0.4346-11.1958,22.9395-11.3188,22.9395-22.7251c0-0.123-0.0195-0.2275-0.0195-0.3154c0-0.123,0.0195-0.2305,0.0195-0.3345
			c0-11.4223-22.5049-11.5483-22.9395-22.7597c0.4346-11.2115,22.9395-11.3345,22.9395-22.7759
			c0-0.0879-0.0195-0.1953-0.0195-0.2993c0-0.1075,0.0195-0.1924,0.0195-0.3155c0-11.4257-22.5049-11.5488-22.9395-22.7441
			C754.4155,67.3718,776.9009,67.2297,776.9204,55.8074z"/>
	</g>
	<g id="pumpkin-stamp-background">
		<g>
			<rect x="53.6816" y="63.8494" fill="#513E31" width="669.5571" height="882.267"/>
		</g>
		<g id="pumpkin-stamp-pattern" opacity="0.1">
			<g>
				<polygon points="656.1352,62.6003 591.2085,108.4104 526.3501,62.6003 514.2085,62.6003 449.4575,108.3127 384.7011,62.6003 
					372.5468,62.6003 307.6953,108.4104 242.7807,62.6003 230.6328,62.6003 165.9389,108.2336 101.2446,62.6003 89.1157,62.6003 
					53.6816,87.6213 53.6816,110.6809 95.1709,81.4245 149.5967,119.8518 165.9326,131.3533 165.9389,131.3533 165.9892,131.3533 
					182.2807,119.8518 236.7129,81.4245 307.4936,131.3533 307.6953,131.2742 307.8593,131.3533 378.6206,81.4245 
					449.4077,131.3533 449.4575,131.3342 449.5278,131.3533 520.2759,81.4245 591.0571,131.3533 591.2085,131.2742 
					591.4096,131.3533 662.2094,81.4245 723.2387,124.4719 723.2387,101.3777 668.2895,62.6003 				"/>
			</g>
			<g>
				<polygon points="591.2085,155.1316 520.2759,105.0642 449.4575,155.0466 378.6206,105.0642 307.6953,155.1316 
					236.7129,105.0642 165.9389,155.0022 95.1709,105.0642 53.6816,134.3459 53.6816,157.4211 95.1709,128.1394 149.5967,166.5574 
					165.9326,178.093 165.9389,178.093 165.9892,178.093 182.2807,166.5574 236.7129,128.1394 307.4936,178.093 307.6953,177.9797 
					307.8593,178.093 378.6206,128.1394 449.4077,178.093 449.4575,178.0774 449.5278,178.093 520.2759,128.1394 591.0571,178.093 
					591.2085,177.9797 591.4096,178.093 662.2094,128.1394 723.2387,171.2121 723.2387,148.0925 662.2094,105.0642 				"/>
			</g>
			<g>
				<polygon points="591.2085,201.8752 520.2759,151.7981 449.4575,201.758 378.6206,151.7981 307.6953,201.8752 236.7129,151.7981 
					165.9389,201.7239 95.1709,151.7981 53.6816,181.0862 53.6816,204.1457 95.1709,174.8733 149.5967,213.2976 165.9326,224.8274 
					165.9389,224.8274 165.9892,224.8274 182.2807,213.2976 236.7129,174.8733 307.4936,224.8274 307.6953,224.7043 
					307.8593,224.8274 378.6206,174.8733 449.4077,224.8274 449.4575,224.7922 449.5278,224.8274 520.2759,174.8733 
					591.0571,224.8274 591.2085,224.7043 591.4096,224.8274 662.2094,174.8733 723.2387,217.9368 723.2387,194.8327 
					662.2094,151.7981 				"/>
			</g>
			<g>
				<polygon points="591.2085,248.6155 520.2759,198.5129 449.4575,248.5017 378.6206,198.5129 307.6953,248.6155 
					236.7129,198.5129 165.9389,248.4324 95.1709,198.5129 53.6816,227.801 53.6816,250.8606 95.1709,221.6135 149.5967,260.0378 
					165.9326,271.5422 165.9389,271.5422 165.9892,271.5422 182.2807,260.0378 236.7129,221.6135 307.4936,271.5422 
					307.6953,271.4538 307.8593,271.5422 378.6206,221.6135 449.4077,271.5422 449.4575,271.5359 449.5278,271.5422 
					520.2759,221.6135 591.0571,271.5422 591.2085,271.4538 591.4096,271.5422 662.2094,221.6135 723.2387,264.6516 
					723.2387,241.5574 662.2094,198.5129 				"/>
			</g>
			<g>
				<polygon points="591.2085,295.3523 520.2759,245.219 449.4575,295.2073 378.6206,245.219 307.6953,295.3523 236.7129,245.219 
					165.9389,295.1755 95.1709,245.219 53.6816,274.5383 53.6816,297.6101 95.1709,268.3191 149.5967,306.7619 165.9326,318.2917 
					165.9389,318.2917 165.9892,318.2917 182.2807,306.7619 236.7129,268.3191 307.4936,318.2917 307.6953,318.1848 
					307.8593,318.2917 378.6206,268.3191 449.4077,318.2917 449.4575,318.2605 449.5278,318.2917 520.2759,268.3191 
					591.0571,318.2917 591.2085,318.1848 591.4096,318.2917 662.2094,268.3191 723.2387,311.3977 723.2387,288.2756 
					662.2094,245.219 				"/>
			</g>
			<g>
				<polygon points="591.2085,342.0452 520.2759,291.9714 449.4575,341.9568 378.6206,291.9714 307.6953,342.0452 
					236.7129,291.9714 165.9389,341.9001 95.1709,291.9714 53.6816,321.2624 53.6816,344.3347 95.1709,315.0564 149.5967,353.4929 
					165.9326,364.9973 165.9389,364.9973 165.9892,364.9973 182.2807,353.4929 236.7129,315.0564 307.4936,364.9973 
					307.6953,364.9216 307.8593,364.9973 378.6206,315.0564 449.4077,364.9973 449.4575,364.991 449.5278,364.9973 
					520.2759,315.0564 591.0571,364.9973 591.2085,364.9216 591.4096,364.9973 662.2094,315.0564 723.2387,358.116 
					723.2387,335.0251 662.2094,291.9714 				"/>
			</g>
			<g>
				<polygon points="591.2085,388.7883 520.2759,338.7024 449.4575,388.6877 378.6206,338.7024 307.6953,388.7883 
					236.7129,338.7024 165.9389,388.6243 95.1709,338.7024 53.6816,367.9807 53.6816,391.0588 95.1709,361.7932 149.5967,400.217 
					165.9326,411.7346 165.9389,411.7346 165.9892,411.7346 182.2807,400.217 236.7129,361.7932 307.4936,411.7346 
					307.6953,411.6462 307.8593,411.7346 378.6206,361.7932 449.4077,411.7346 449.4575,411.7092 449.5278,411.7346 
					520.2759,361.7932 591.0571,411.7346 591.2085,411.6462 591.4096,411.7346 662.2094,361.7932 723.2387,404.8469 
					723.2387,381.7561 662.2094,338.7024 				"/>
			</g>
			<g>
				<polygon points="591.2085,435.5129 520.2759,385.4328 449.4575,435.3869 378.6206,385.4328 307.6953,435.5129 
					236.7129,385.4328 165.9389,435.3425 95.1709,385.4328 53.6816,414.699 53.6816,437.7898 95.1709,408.5115 149.5967,446.9416 
					165.9326,458.4714 165.9389,458.4714 165.9892,458.4714 182.2807,446.9416 236.7129,408.5115 307.4936,458.4714 
					307.6953,458.3327 307.8593,458.4714 378.6206,408.5115 449.4077,458.4714 449.4575,458.4714 449.5278,458.4714 
					520.2759,408.5115 591.0571,458.4714 591.2085,458.3327 591.4096,458.4714 662.2094,408.5115 723.2387,451.5901 
					723.2387,428.4993 662.2094,385.4328 				"/>
			</g>
			<g>
				<polygon points="591.2085,482.2624 520.2759,432.1321 449.4575,482.1301 378.6206,432.1321 307.6953,482.2624 
					236.7129,432.1321 165.9389,482.0989 95.1709,432.1321 53.6816,461.4548 53.6816,484.5207 95.1709,455.217 149.5967,493.6853 
					165.9326,505.1833 165.9389,505.1833 165.9892,505.1833 182.2807,493.6853 236.7129,455.217 307.4936,505.1833 
					307.6953,505.095 307.8593,505.1833 378.6206,455.217 449.4077,505.1833 449.4575,505.1833 449.5278,505.1833 520.2759,455.217 
					591.0571,505.1833 591.2085,505.095 591.4096,505.1833 662.2094,455.217 723.2387,498.2956 723.2387,475.2239 
					662.2094,432.1321 				"/>
			</g>
			<g>
				<polygon points="591.2085,529.0149 520.2759,478.8694 449.4575,528.8889 378.6206,478.8694 307.6953,529.0149 
					236.7129,478.8694 165.9389,528.8264 95.1709,478.8694 53.6816,508.1789 53.6816,531.2483 95.1709,501.9665 149.5967,540.3938 
					165.9326,551.9231 165.9389,551.9231 165.9892,551.9231 182.2807,540.3938 236.7129,501.9665 307.4936,551.9231 
					307.6953,551.8098 307.8593,551.9231 378.6206,501.9665 449.4077,551.9231 449.4575,551.8987 449.5278,551.9231 
					520.2759,501.9665 591.0571,551.9231 591.2085,551.8098 591.4096,551.9231 662.2094,501.9665 723.2387,545.0364 
					723.2387,521.926 662.2094,478.8694 				"/>
			</g>
			<g>
				<polygon points="591.2085,575.7024 520.2759,525.5969 449.4575,575.5881 378.6206,525.5969 307.6953,575.7024 
					236.7129,525.5969 165.9389,575.5383 95.1709,525.5969 53.6816,554.9006 53.6816,577.9729 95.1709,548.6946 149.5967,587.1311 
					165.9326,598.6477 165.9389,598.6477 165.9892,598.6477 182.2807,587.1311 236.7129,548.6946 307.4936,598.6477 
					307.6953,598.5598 307.8593,598.6477 378.6206,548.6946 449.4077,598.6477 449.4575,598.6223 449.5278,598.6477 
					520.2759,548.6946 591.0571,598.6477 591.2085,598.5598 591.4096,598.6477 662.2094,548.6946 723.2387,591.76 
					723.2387,568.6633 662.2094,525.5969 				"/>
			</g>
			<g>
				<polygon points="591.2085,622.4387 520.2759,572.3342 449.4575,622.3127 378.6206,572.3342 307.6953,622.4387 
					236.7129,572.3342 165.9389,622.2746 95.1709,572.3342 53.6816,601.6506 53.6816,624.7102 95.1709,595.4192 149.5967,633.8684 
					165.9326,645.3849 165.9389,645.3849 165.9892,645.3849 182.2807,633.8684 236.7129,595.4192 307.4936,645.3849 
					307.6953,645.2844 307.8593,645.3849 378.6206,595.4192 449.4077,645.3849 449.4575,645.3723 449.5278,645.3849 
					520.2759,595.4192 591.0571,645.3849 591.2085,645.2844 591.4096,645.3849 662.2094,595.4192 723.2387,638.4846 
					723.2387,615.3879 662.2094,572.3342 				"/>
			</g>
			<g>
				<polygon points="591.2085,669.1633 520.2759,619.0578 449.4575,669.0373 378.6206,619.0578 307.6953,669.1633 
					236.7129,619.0578 165.9389,669.0119 95.1709,619.0578 53.6816,648.3743 53.6816,671.4592 95.1709,642.1682 149.5967,680.592 
					165.9326,692.1223 165.9389,692.1223 165.9892,692.1223 182.2807,680.592 236.7129,642.1682 307.4936,692.1223 
					307.6953,692.0207 307.8593,692.1223 378.6206,642.1682 449.4077,692.1223 449.4575,692.1096 449.5278,692.1223 
					520.2759,642.1682 591.0571,692.1223 591.2085,692.0207 591.4096,692.1223 662.2094,642.1682 723.2387,685.2473 
					723.2387,662.1116 662.2094,619.0578 				"/>
			</g>
			<g>
				<polygon points="591.2085,715.926 520.2759,665.7825 449.4575,715.7873 378.6206,665.7825 307.6953,715.926 236.7129,665.7825 
					165.9389,715.7366 95.1709,665.7825 53.6816,695.0989 53.6816,718.1584 95.1709,688.8928 149.5967,727.3166 165.9326,738.8342 
					165.9389,738.8342 165.9892,738.8342 182.2807,727.3166 236.7129,688.8928 307.4936,738.8342 307.6953,738.72 
					307.8593,738.8342 378.6206,688.8928 449.4077,738.8342 449.4575,738.7961 449.5278,738.8342 520.2759,688.8928 
					591.0571,738.8342 591.2085,738.72 591.4096,738.8342 662.2094,688.8928 723.2387,731.9465 723.2387,708.8616 
					662.2094,665.7825 				"/>
			</g>
			<g>
				<polygon points="591.2085,762.6125 520.2759,712.5325 449.4575,762.5363 378.6206,712.5325 307.6953,762.6125 
					236.7129,712.5325 165.9389,762.4611 95.1709,712.5325 53.6816,741.8362 53.6816,764.883 95.1709,735.6174 149.5967,774.0412 
					165.9326,785.5705 165.9389,785.5705 165.9892,785.5705 182.2807,774.0412 236.7129,735.6174 307.4936,785.5705 
					307.6953,785.4573 307.8593,785.5705 378.6206,735.6174 449.4077,785.5705 449.4575,785.5705 449.5278,785.5705 
					520.2759,735.6174 591.0571,785.5705 591.2085,785.4573 591.4096,785.5705 662.2094,735.6174 723.2387,778.6965 
					723.2387,755.5988 662.2094,712.5325 				"/>
			</g>
			<g>
				<polygon points="591.2085,809.3498 520.2759,759.257 449.4575,809.2356 378.6206,759.257 307.6953,809.3498 236.7129,759.257 
					165.9389,809.2102 95.1709,759.257 53.6816,788.5354 53.6816,811.6203 95.1709,782.3547 149.5967,820.7912 165.9326,832.2952 
					165.9389,832.2952 165.9892,832.2952 182.2807,820.7912 236.7129,782.3547 307.4936,832.2952 307.6953,832.2073 
					307.8593,832.2952 378.6206,782.3547 449.4077,832.2952 449.4575,832.2825 449.5278,832.2952 520.2759,782.3547 
					591.0571,832.2952 591.2085,832.2073 591.4096,832.2952 662.2094,782.3547 723.2387,825.4202 723.2387,802.3235 
					662.2094,759.257 				"/>
			</g>
			<g>
				<polygon points="591.2085,856.0735 520.2759,805.9817 449.4575,855.9729 378.6206,805.9817 307.6953,856.0735 
					236.7129,805.9817 165.9389,855.9348 95.1709,805.9817 53.6816,835.2599 53.6816,858.3694 95.1709,829.0784 149.5967,867.5149 
					165.9326,879.0198 165.9389,879.0198 165.9892,879.0198 182.2807,867.5149 236.7129,829.0784 307.4936,879.0198 
					307.6953,878.9319 307.8593,879.0198 378.6206,829.0784 449.4077,879.0198 449.4575,879.0198 449.5278,879.0198 
					520.2759,829.0784 591.0571,879.0198 591.2085,878.9319 591.4096,879.0198 662.2094,829.0784 723.2387,872.1575 
					723.2387,849.0481 662.2094,805.9817 				"/>
			</g>
			<g>
				<polygon points="591.2085,902.8235 520.2759,852.7307 449.4575,902.7102 378.6206,852.7307 307.6953,902.8235 
					236.7129,852.7307 165.9389,902.634 95.1709,852.7307 53.6816,882.009 53.6816,905.094 95.1709,875.803 149.5967,914.2395 
					165.9326,925.7825 165.9389,925.7825 165.9892,925.7825 182.2807,914.2395 236.7129,875.803 307.4936,925.7825 
					307.6953,925.6438 307.8593,925.7825 378.6206,875.803 449.4077,925.7825 449.4575,925.7317 449.5278,925.7825 
					520.2759,875.803 591.0571,925.7825 591.2085,925.6438 591.4096,925.7825 662.2094,875.803 723.2387,918.8821 
					723.2387,895.7717 662.2094,852.7307 				"/>
			</g>
			<g>
				<polygon points="446.5444,947.3909 452.3657,947.3909 454.5923,945.8264 444.3305,945.8264 				"/>
			</g>
			<g>
				<polygon points="588.143,947.3909 594.2856,947.3909 596.5063,945.8264 585.9223,945.8264 				"/>
			</g>
			<g>
				<polygon points="163.1069,947.3909 168.771,947.3909 170.9907,945.8264 160.8867,945.8264 				"/>
			</g>
			<g>
				<polygon points="304.6299,947.3909 310.7544,947.3909 312.9746,945.8264 302.4033,945.8264 				"/>
			</g>
			<g>
				<polygon points="596.5063,945.8264 629.2163,945.8264 662.2094,922.5276 695.1899,945.8264 723.2387,945.8264 
					723.2387,942.5598 662.2094,899.4426 				"/>
			</g>
			<g>
				<polygon points="454.5923,945.8264 487.2954,945.8264 520.2759,922.5276 553.2573,945.8264 585.9223,945.8264 
					520.2759,899.4426 				"/>
			</g>
			<g>
				<polygon points="312.9746,945.8264 345.646,945.8264 378.6206,922.5276 411.5952,945.8264 444.3305,945.8264 378.6206,899.4426 
									"/>
			</g>
			<g>
				<polygon points="170.9907,945.8264 203.7446,945.8264 236.7129,922.5276 269.6811,945.8264 302.4033,945.8264 
					236.7129,899.4426 				"/>
			</g>
			<g>
				<polygon points="53.6816,928.759 53.6816,945.8264 62.2026,945.8264 95.1709,922.5276 128.1455,945.8264 160.8867,945.8264 
					95.1709,899.4426 				"/>
			</g>
			<g>
				<polygon points="701.7817,62.6003 723.2387,77.7473 723.2387,62.6003 				"/>
			</g>
			<g>
				<polygon points="307.6953,84.531 307.8593,84.6286 339.0615,62.6003 276.2915,62.6003 307.4936,84.6286 				"/>
			</g>
			<g>
				<polygon points="449.4575,84.613 449.5278,84.6286 480.6919,62.6003 418.1987,62.6003 449.4077,84.6286 				"/>
			</g>
			<g>
				<polygon points="165.9326,84.6286 165.9389,84.6286 165.9892,84.6286 182.2807,73.1179 197.1538,62.6003 134.7241,62.6003 
					149.5967,73.1179 				"/>
			</g>
			<g>
				<polygon points="591.2085,84.531 591.4096,84.6286 622.6313,62.6003 559.8296,62.6003 591.0571,84.6286 				"/>
			</g>
			<g>
				<polygon points="53.6816,62.6003 53.6816,63.966 55.6118,62.6003 				"/>
			</g>
		</g>
		<g>
			<path fill="#B0A89B" d="M719.3657,67.741v874.5034H57.5669V67.741H719.3657 M727.1177,59.9768h-7.752H57.5669h-7.7705v7.7642
				v874.5034v7.7832h7.7705h661.7988h7.752v-7.7832V67.741V59.9768L727.1177,59.9768z"/>
		</g>
	</g>
</g>
<g id="pumpkin-stamp-design">
	<g>
		<path fill="#F88C24" d="M333.4477,644.3879c-57.7685-21.1289-86.1953-74.7285-90.9258-108.4092
			c12.4004,16.4873,34.6333,34.9551,67.1412,46.9512l-0.0318,18.3418l18.2788,0.0381c-1.2426-25.1288-1.4507-57.5859-0.8012-89.4629
			l-14.5572,18.8711l-39.0044-91.9883l43.5459,35.043l11.315-1.69c0.8896-19.4267,2.1255-37.2006,3.646-51.0766
			c3.7339-34.1226,15.4399-51.0132,29.1396-58.7022c-16.1406-5.0898-43.9746-9.6816-66.9648,3.9107
			c-27.3736,16.1846-68.188,64.2085-66.4663,156.9223c1.7285,92.7178,29.4931,134.1817,56.6523,149.1553
			c23.8101,13.1319,61.4644,13.1944,76.2236,6.2315C349.6577,672.9983,339.1308,662.5032,333.4477,644.3879z M441.2583,421.6936
			c-5.0957-53-29.9531-64.8452-51.7578-65.0029c-21.8106-0.1324-46.8062,11.3784-52.6153,64.3154
			c-1.4946,13.7119-2.7182,31.1958-3.5947,50.3447l28.3193-4.2446l-29.499,38.2788c-0.7256,29.1934-0.7002,59.3799,0.1577,84.332
			c13.0435,3.0908,27.3233,5.1846,42.9654,5.8526l-0.0445,18.6953l21.2554,0.0254l0.0322-18.6826
			c16.1778-0.6309,30.9434-2.75,44.3399-5.9795l-0.0254,11.8955h2.2519c1.7979-28.8994,2.3594-67.4121,1.7979-103.5684
			l-22.8584-30.4394l22.1709,3.6079C443.5288,452.3533,442.5512,435.1975,441.2583,421.6936z M363.0986,558.8616l26.0488-50.5625
			l28.8501,50.2343L363.0986,558.8616z M222.7993,523.1243c-1.7349-92.7203,39.0859-140.7315,66.4658-156.9097
			c2.9898-1.7788,6.0806-3.2232,9.209-4.4214c-18.8843-5.418-46.6807-3.0781-68.4976,16.4873
			c-25.8535,23.2109-53.353,58.0776-63.8422,112.5347c-10.4825,54.4604,7.8212,111.4536,37.9887,144.3647
			c24.1758,26.377,61.395,42.8135,82.0957,40.3545c-2.3398-0.9971-4.6167-2.0439-6.7739-3.2422
			C252.2856,657.3058,224.5146,615.842,222.7993,523.1243z M611.1899,493.6662c-9.7637-54.5957-36.7842-89.8413-62.3349-113.3671
			c-21.5528-19.8555-49.3301-22.5679-68.2764-17.3956c3.1152,1.2364,6.1807,2.7247,9.1514,4.5411
			c27.1591,16.5376,67.3369,65.0913,64.3974,157.7734c-2.9453,92.6797-31.2588,133.791-58.6328,148.3857
			c-2.1631,1.1856-4.4531,2.2207-6.8184,3.1788c20.6817,2.7373,58.1036-13.2071,82.6329-39.2686
			C601.893,604.9934,620.9594,548.2649,611.1899,493.6662z M436.9253,645.0071c-2.1192,0.7558-4.2823,1.4756-6.4961,2.1445
			l0.0312-15.8447l-21.2685-0.0381l-0.0254,20.5117c-7.4424,1.0596-15.2315,1.6523-23.4248,1.6397
			c-8.1934-0.0127-15.9824-0.6299-23.419-1.7276l0.044-20.5117l-21.2554-0.0381l-0.0254,15.832
			c-0.7568-0.2402-1.4819-0.4921-2.2202-0.7324c9.9277,29.1026,32.7603,37.5166,48.478,37.6172
			C403.3833,683.9729,426.9477,675.4836,436.9253,645.0071z M549.1577,525.218c2.9453-92.6821-37.2383-141.248-64.3916-157.7861
			c-22.8193-13.9014-50.6983-9.688-66.9141-4.7935c13.6114,7.8716,25.0967,24.9077,28.377,59.0742
			c1.3183,13.6929,2.3086,31.1328,2.9326,50.231l17.2373,2.8135L510.4116,440.3l-40.2148,91.4649l-20.3165-27.0611
			c0.417,34.1509-0.1826,69.7115-1.8662,96.8326l14.0274,0.0254l0.0439-18.3418c32.5645-11.8702,54.8477-30.2491,67.3174-46.6866
			c-4.7305,32.7725-31.9971,84.3545-86.8066,106.3662c-5.7657,19.3887-16.8535,30.3262-28.3643,35.9268
			c14.6709,7.1523,52.3193,7.6064,76.293-5.2227C517.8921,658.9963,546.2055,617.8977,549.1577,525.218z"/>
	</g>
	<g>
		<path fill="#917561" d="M391.9546,334.5959l0.0498-0.1513c3.873-19.8428,21.5654-33.7881,36.33-33.1255
			c-14.9667,1.0722-30.4326,14.8218-34.1728,33.895c-1.6777,6.1055-3.2539,12.4634-5.9224,18.4302
			c0.4229-0.0064,0.8643-0.0254,1.274-0.0127c2.624,0.0127,5.2861,0.208,7.9414,0.5928c0.1064-1.6651,0.2392-3.3238,0.2832-4.9449
			l0.0254-0.126c-0.0879-14.33,4.7812-28.9379,15.1816-33.8071c-10.0225,5.9287-13.6357,19.7671-13.668,34.0215
			c-0.0625,1.6523-0.1513,3.3872-0.2705,5.1216c3.7207,0.6684,7.417,1.7783,11.0186,3.4502
			c-7.8721-6.3706-5.1153-21.7036-2.1699-29.6382c3.1162-8.4141,14.6835-17.9126,26.5478-18.2217
			c-3.4248-3.0781-2.9961-11.1196,0.0938-14.1723c-4.2061-0.0254-12.3116-0.6436-25.7081,6.7294
			c-13.0683,7.1968-20.0571,22.0884-23.6142,38.1534c-1.7915,8.1235-7.3042,12.6523-12.6592,15.459
			c4.3457-1.4952,8.7925-2.2647,13.1572-2.5166C388.5044,347.7532,390.1509,341.1433,391.9546,334.5959z"/>
	</g>
</g>
<g id="pumpkin-stamp-inner-borders">
	<g>
		<path fill="#F88C24" d="M653.3921,876.2825H123.5288V133.6931h529.8633V876.2825L653.3921,876.2825z M128.0317,871.7668h520.8565
			V138.1994H128.0317V871.7668L128.0317,871.7668z"/>
	</g>
	<g>
		<g>
			<g>
				<rect x="202.3823" y="113.3459" fill="#F88C24" width="46.5225" height="2.2168"/>
			</g>
		</g>
		<g>
			<g>
				<rect x="248.9048" y="113.3459" fill="#F88C24" width="46.5224" height="2.2168"/>
			</g>
		</g>
		<g>
			<g>
				<rect x="295.4272" y="113.3459" fill="#F88C24" width="46.5103" height="2.2168"/>
			</g>
		</g>
		<g>
			<g>
				<rect x="341.9375" y="113.3459" fill="#F88C24" width="46.5224" height="2.2168"/>
			</g>
		</g>
		<g>
			<g>
				<rect x="388.4599" y="113.3459" fill="#F88C24" width="46.523" height="2.2168"/>
			</g>
		</g>
		<g>
			<g>
				<rect x="434.9829" y="113.3459" fill="#F88C24" width="46.5224" height="2.2168"/>
			</g>
		</g>
		<g>
			<g>
				<rect x="481.5053" y="113.3459" fill="#F88C24" width="46.5098" height="2.2168"/>
			</g>
		</g>
		<g>
			<g>
				<rect x="528.0151" y="113.3459" fill="#F88C24" width="46.5225" height="2.2168"/>
			</g>
		</g>
		<g>
			<g>
				<rect x="671.5317" y="212.55" fill="#F88C24" width="2.2197" height="48.7398"/>
			</g>
		</g>
		<g>
			<g>
				<rect x="671.5317" y="261.2898" fill="#F88C24" width="2.2197" height="48.7397"/>
			</g>
		</g>
		<g>
			<g>
				<rect x="671.5317" y="310.0295" fill="#F88C24" width="2.2197" height="48.7364"/>
			</g>
		</g>
		<g>
			<g>
				<rect x="671.5317" y="358.7659" fill="#F88C24" width="2.2197" height="48.7426"/>
			</g>
		</g>
		<g>
			<g>
				<rect x="671.5317" y="407.5085" fill="#F88C24" width="2.2197" height="48.7364"/>
			</g>
		</g>
		<g>
			<g>
				<rect x="671.5317" y="456.2449" fill="#F88C24" width="2.2197" height="48.7368"/>
			</g>
		</g>
		<g>
			<g>
				<rect x="671.5317" y="504.9817" fill="#F88C24" width="2.2197" height="48.7461"/>
			</g>
		</g>
		<g>
			<g>
				<rect x="671.5317" y="553.7278" fill="#F88C24" width="2.2197" height="48.7295"/>
			</g>
		</g>
		<g>
			<g>
				<rect x="671.5317" y="602.4573" fill="#F88C24" width="2.2197" height="48.7431"/>
			</g>
		</g>
		<g>
			<g>
				<rect x="671.5317" y="651.2004" fill="#F88C24" width="2.2197" height="48.7422"/>
			</g>
		</g>
		<g>
			<g>
				<rect x="671.5317" y="699.9426" fill="#F88C24" width="2.2197" height="48.7432"/>
			</g>
		</g>
		<g>
			<g>
				<rect x="671.5317" y="748.6857" fill="#F88C24" width="2.2197" height="48.7304"/>
			</g>
		</g>
		<g>
			<g>
				<rect x="528.0151" y="894.4094" fill="#F88C24" width="46.5225" height="2.2207"/>
			</g>
		</g>
		<g>
			<g>
				<rect x="481.5053" y="894.4094" fill="#F88C24" width="46.5098" height="2.2207"/>
			</g>
		</g>
		<g>
			<g>
				<rect x="434.9829" y="894.4094" fill="#F88C24" width="46.5224" height="2.2207"/>
			</g>
		</g>
		<g>
			<g>
				<rect x="388.4599" y="894.4094" fill="#F88C24" width="46.523" height="2.2207"/>
			</g>
		</g>
		<g>
			<g>
				<rect x="341.9375" y="894.4094" fill="#F88C24" width="46.5224" height="2.2207"/>
			</g>
		</g>
		<g>
			<g>
				<rect x="295.4272" y="894.4094" fill="#F88C24" width="46.5103" height="2.2207"/>
			</g>
		</g>
		<g>
			<g>
				<rect x="248.9048" y="894.4094" fill="#F88C24" width="46.5224" height="2.2207"/>
			</g>
		</g>
		<g>
			<g>
				<rect x="202.3823" y="894.4094" fill="#F88C24" width="46.5225" height="2.2207"/>
			</g>
		</g>
		<g>
			<g>
				<rect x="103.1811" y="748.6857" fill="#F88C24" width="2.2075" height="48.7304"/>
			</g>
		</g>
		<g>
			<g>
				<rect x="103.1811" y="699.9426" fill="#F88C24" width="2.2075" height="48.7432"/>
			</g>
		</g>
		<g>
			<g>
				<rect x="103.1811" y="651.2004" fill="#F88C24" width="2.2075" height="48.7422"/>
			</g>
		</g>
		<g>
			<g>
				<rect x="103.1811" y="602.4573" fill="#F88C24" width="2.2075" height="48.7431"/>
			</g>
		</g>
		<g>
			<g>
				<rect x="103.1811" y="553.7278" fill="#F88C24" width="2.2075" height="48.7295"/>
			</g>
		</g>
		<g>
			<g>
				<rect x="103.1811" y="504.9817" fill="#F88C24" width="2.2075" height="48.7461"/>
			</g>
		</g>
		<g>
			<g>
				<rect x="103.1811" y="456.2449" fill="#F88C24" width="2.2075" height="48.7368"/>
			</g>
		</g>
		<g>
			<g>
				<rect x="103.1811" y="407.5085" fill="#F88C24" width="2.2075" height="48.7364"/>
			</g>
		</g>
		<g>
			<g>
				<rect x="103.1811" y="358.7659" fill="#F88C24" width="2.2075" height="48.7426"/>
			</g>
		</g>
		<g>
			<g>
				<rect x="103.1811" y="310.0295" fill="#F88C24" width="2.2075" height="48.7364"/>
			</g>
		</g>
		<g>
			<g>
				<rect x="103.1811" y="261.2898" fill="#F88C24" width="2.2075" height="48.7397"/>
			</g>
		</g>
		<g>
			<g>
				<rect x="103.1811" y="212.55" fill="#F88C24" width="2.2075" height="48.7398"/>
			</g>
		</g>
		<g>
			<g>
				<path fill="#F88C24" d="M642.6128,181.7453c0.5107-2.9741-5.7774-4.4877-6.5157-13.6494
					c-0.0947-5.667,1.0782-9.8989,1.1104-10.3501c0,0,0,0-0.662-1.1006c0,0,0,0-1.0977,0.6529
					c-0.0888,0.3535-1.3818,5.5884-1.1543,11.4414c-0.0634,2.3935,0.0625,7.2441,1.7725,11.0347
					C638.4243,185.0217,642.31,183.4294,642.6128,181.7453z"/>
			</g>
			<g>
				<path fill="#F88C24" d="M643.4575,104.5818c-4.4902-1.7188-7.499-4.1377-8.25-6.6197c0,0,0,0-0.1387-1.6113
					c0,0,0,0,0.5615-1.4067c0,0,0,0,1.3243-0.6685c0,0,0,0,2.6054,0.94c-0.6435-1.3028-1.9111-3.2896-3.3935-4.5035
					c-1.8545-1.5136-2.4346-2.5893-2.586-4.0586c-1.873-1.3657-1.8105-1.3217-2.8066-2.0502
					c-1.8672-0.2994-5.0078-0.1954-6.875,1.1796c-1.9365,1.6871-3.1729,0.1231-3.7217,0.4917
					c-0.8887-1.0815,0.8838-4.2255,6.8623-4.3203c2.5362-0.0439,4.7754,0.1924,6.5098,0.4825c0,0,0,0,1.5635,0.2841
					c0,0,0,0,1.5517,0.4034c0,0,0,0,0.6817,0.2021l0.0752,0.0439c10.5205,3.5381,19.7109,15.314,20.0576,27.3262
					c0.2959,10.3692-3.6201,19.3447-5.7334,23.3848l7.0068-6.5029l0.2842-0.3189l0.126-0.0693l0.0127-0.0093l0.0068-0.0347
					c0.0254-0.0537,2.9395-5.2007,4.585-13.2895c0.7256-3.5196,1.0849-6.5469,1.375-8.9785
					c0.4033-3.4405,0.6943-5.9224,1.7099-7.5689c1.4317-2.3491,3.1465-3.1128,4.4209-3.1128c0,0,0,0,1.1543,0.2559
					c1.3936,1.3877,2.3399,0.8701,3.6201,6.2724c1.3184-2.0307,3.6143-4.7524,7.5245-7.0044
					c3.3242-1.9174,6.8818-2.6928,9.7324-2.9736c2.3398-0.5454,1.0215-0.0347,3.8037-0.9336
					c2.0303-0.7475,3.8349-4.9638,6.8301-2.9927c1.6972,3.1407-2.6866,4.6045-3.6016,6.566
					c-1.0146,2.3051-0.9962,3.0874-1.248,3.7148c-0.5303,2.8164-1.6026,6.2822-3.7969,9.4326
					c-2.5742,3.6865-5.4815,5.749-7.6192,6.8906c4.6983,0.9429,5.6133,3.961,5.9287,4.147c0.498,1.2237,0.0127,3.6426-3.3242,5.314
					c-1.7216,0.8642-4.2256,0.9429-7.6826,1.0566c-2.4531,0.0786-5.5,0.1763-9.0635,0.5991
					c-7.165,0.8262-12.2607,3.3174-13.4404,3.9419l-7.6641,7.1119c3.5957-1.9112,12.4454-5.9668,22.8516-5.9668
					c0,0,0,0,1.1289,0.0185c12.0156,0.3408,23.791,9.5303,27.3174,20.0576l0.0566,0.0596c0,0,0,0,0.2022,0.6973
					c0,0,0,0,0.4033,1.5483c0,0,0,0,0.2715,1.564c0.29,1.7348,0.5293,3.9707,0.4911,6.5063
					c-0.1064,5.9824-3.2354,7.7515-4.3203,6.8623c0.1328-2.3403-1.1416-1.372,0.4922-3.7212
					c1.375-1.8672,1.4697-5.0083,1.1728-6.875c-1.3623-1.8642-1.3242-1.8105-2.0429-2.7973
					c-1.4756-0.1577-2.542-0.7378-4.0557-2.5957c-1.2051-1.479-3.2109-2.7564-4.5156-3.3902
					c1.2295,0.9683,0.6933,3.4693,0.2832,3.9263c0,0,0,0-1.8858,0.5991c0,0,0,0-1.1357-0.1762
					c-2.4912-0.7476-4.9005-3.75-6.6162-8.2374c-2.2832-5.976-5.7461-11.4858-15.4405-11.4858c0,0,0,0-0.5166,0.0098l-0.0439-0.0191
					c-8.6416,1.8384-14.8984,5.667-14.9863,5.7207l-0.416,0.1231c0,0,0,0-1.9805-2.148v-0.3686
					c0.0566-0.0884,3.8223-6.1245,5.7207-14.5479l-0.0195-0.0346C655.0571,110.3718,648.8628,106.6477,643.4575,104.5818z
					 M672.5786,131.3689c6.5849,1.7881,9.5117,6.771,11.416,11.7407c1.7793,4.6738,4.0625,6.8408,5.6074,7.3071
					c0,0,0,0,0.6748,0.104c0,0,0,0,0.9717-0.3086c0,0,0,0-0.8457-2.0942c0,0,0,0-0.5859-1.189c0,0,0,0,0.0625-0.9238l0.3906-0.4575
					h0.4482c1.3692,0,5.1026,2.2266,6.8877,4.4087c0,0,0,0,0.795,0.8833l-0.0254-0.0884c2.0371,0.6748,1.1982,1.6523,3.2353,0.7915
					c0,0,0,0,0.3916-1.8921c-3.5137-9.7163-14.4375-18.1113-25.6455-18.4394c0,0,0,0-1.0596-0.0157c0,0,0,0-1.3632,0.0596
					C673.9341,131.2551,673.9341,131.2551,672.5786,131.3689z M689.3872,100.1794c0,0,0,0-0.0313,1.1099l-25.8154,23.9897
					c2.4473-0.8955,5.8027-1.8383,9.8008-2.3051c3.6396-0.4229,6.7236-0.5269,9.2031-0.5992
					c3.2608-0.104,5.6133-0.1831,7.0381-0.896c2.668-1.3906,1.918-2.9043,2.5615-3.3266c-1.5332-1.416-0.6055-2.8008-7.6826-3.4346
					c0,0,0,0-0.2148-1.5483c2.0185-0.8706,0.7822-0.1133,3.2929-1.479c1.8985-1.107,4.3203-2.9898,6.459-6.0552
					c2.3525-3.3774,3.3301-7.2153,3.7334-10.0225c0.3281-1.75,0.29-2.5449,0.3096-3.2636
					c-1.4824-0.2998-2.5362-0.1612-3.3809-0.1075c-2.8447,0.1578-6.7431,0.7915-10.3066,2.835
					c-6.7168,3.917-7.9219,8.7109-8.3438,9.0732c0,0,0,0-1.5205-0.3437c0.7129-6.3545-2.7119-7.5498-2.7627-7.9565l-0.4414-0.0884
					c-1.9873,1.3906-1.4951,0.1323-3.0908,2.3589c-0.832,1.3559-1.1161,3.7055-1.4951,6.9443
					c-0.2901,2.4565-0.6621,5.519-1.3809,9.1108c-0.8955,4.3555-2.1064,7.8057-3.084,10.1739l26.0547-24.2041
					C688.2895,100.1448,688.2895,100.1448,689.3872,100.1794z M655.7251,114.9827l0.1836-4.2417
					c-0.3223-11.2017-8.7237-22.126-18.4366-25.6363c0,0,0,0-1.8857,0.3784c-1.0596,1.6905,0.959,2.7627,0.7881,3.2388
					l-0.082-0.0185c0,0,0,0,0.8701,0.7915c2.1953,1.788,4.4092,5.5092,4.4092,6.8842c0,0,0,0-0.0694,0.6153l-0.3847,0.23
					c0,0,0,0-2.1133-0.5298c0,0,0,0-2.0869-0.836c0,0,0,0-0.2022,1.6465c0.46,1.5391,2.624,3.8189,7.3037,5.6133
					C648.7368,104.9162,653.9282,107.9592,655.7251,114.9827z"/>
			</g>
			<g>
				<path fill="#F88C24" d="M629.8149,151.6467c0,0,0,0,0.6621-1.0908c0,0,0,0-1.1035-0.6592
					c-2.7881,0.4668-3.2734,0.9429-10.3506,1.1006c-9.1513-0.7319-10.6719-7.0234-13.6357-6.5127
					c-1.6904,0.2998-3.2803,4.1885,1.9492,6.5474c3.8027,1.706,8.6592,1.8291,11.0439,1.7788
					C624.2329,153.0373,629.4809,151.7351,629.8149,151.6467z"/>
			</g>
			<g>
				<path fill="#F88C24" d="M619.3071,171.01c4.1885-4.4526,16.1025-18.0606,16.1025-18.0606s0,0-1.4502,1.3306
					c0,0,0,0-1.4511,1.3374l10.1357-9.6914c0,0,0,0,0.0186-1.1069c0,0,0,0-1.1094-0.0191l-8.5967,8.2217c0,0,0,0,1.2237-1.331
					c0,0-13.6182,11.9082-18.0586,16.0966c-3.9229,3.6958-6.4268,5.8623-5.5245,8.0293l-0.1894,0.167l0.46,0.3247l0.2714,0.3882
					l0.1514-0.1675C613.4536,177.4245,615.6177,174.9333,619.3071,171.01z"/>
			</g>
			<g>
				<path fill="#F88C24" d="M673.7514,209.1535c0,0,0,0,0-1.9204l-0.1201-0.3344c0,0,0,0-2.0996-0.7032c0,0,0,0-1.4316,0.3184
					c-2.0254,0.1924-1.9551,0.1924-3.0401,0.2964l-0.0507,0.0537c-1.6465-0.2363-3.4629-0.8799-4.4786-2.6143
					c-2.125-3.5981-2.624-9.644,2.2959-15.7968l3.7471-4.355c5.3486-5.9951,12.0029-13.4566,12.3242-22.8135
					c0.208-6.0459-1.9052-11.8105-5.7842-15.8315c-3.664-3.7935-8.5205-5.793-14.0459-5.793c-5.4121,0-9.5498,1.479-12.5263,3.8032
					c0,0,0,0-1.1162-1.1797c0,0,0,0-1.1104-1.1982l-0.0762-0.1231c0,0,0,0-1.2929-1.1953c0,0,0,0-1.2989-1.1982
					c2.3271-2.9736,3.8223-7.1113,3.8223-12.5327c0-5.5249-2.0058-10.3848-5.7969-14.0464
					c-4.0234-3.8882-9.788-6.001-15.8369-5.7901c-9.3603,0.3252-16.8154,6.9698-22.8076,12.3213l-4.3516,3.7593
					c-6.1562,4.9194-12.1982,4.4087-15.8066,2.2959c-1.7344-1.022-2.3779-2.832-2.623-4.4878l0.0625-0.0439
					c0.2021-2.0342,0.1953-1.9619,0.3027-3.0371c0,0,0,0,0.3027-1.4444c0,0,0,0,0.0196-1.2929c0,0,0,0-0.7198-0.8008l-0.3525-0.1231
					c0,0,0,0-1.7979,0c0,0,0,0-1.7597,0c0,0,0,0-1.7666,0v0.1231c0,0,0,0,0,1.5674c0,0,0,0,0,0.5263c0,0,0,0,1.6025,0
					c0,0,0,0,1.5889,0c0,0,0,0,0.5234,2.4219c0,2.2266,0.2276,4.0054,1.6533,5.79c0,0,0,0,0.9141,1.1705c0,0,0,0,1.2617,0.9775
					c4.043,2.3843,10.7979,3.0024,17.5723-2.419l4.4209-3.8129c6.1055-5.4463,13.0254-11.6148,21.8174-11.9239
					c5.6201-0.1953,10.9619,1.7598,14.6894,5.3516c3.4756,3.3623,5.3106,7.831,5.3106,12.9175
					c0,12.4634-7.9278,16.8813-14.7207,16.8813c-8.1426,0-11.7823-5.8183-11.7823-11.583c0-2.6142,0.8828-4.8408,2.5606-6.4399
					c1.6719-1.6021,4.0742-2.5005,6.4394-2.3936c1.8545,0.0791,3.6143,0.9053,4.8125,2.271c0,0,0,0,0.8145,1.1758
					c0,0,0,0,0.4911,1.3408c0,0,0,0-0.4911,1.8823c-0.9785,0.9839-5.6016-1.1792-6.4776,1.5738
					c-0.8896,2.747,2.0684,4.6137,4.3204,4.4184c2.125-0.1831,4.1377-1.9521,4.3642-5.27l0.0508-0.2554l-0.0068-0.29l0.0068-0.0786
					l-0.0068-0.0288c0.0888-2.0591-0.5547-3.9956-1.8858-5.5093c-1.4756-1.6807-3.6328-2.709-5.9287-2.7974
					c-2.7812-0.123-5.6201,0.9336-7.5937,2.8164c-1.9932,1.9078-3.0401,4.5318-3.0401,7.5845
					c0,6.5498,4.1309,13.1504,13.3526,13.1504c4.1689,0,8.3564-1.5137,11.4414-4.727c0,0,0,0,1.1797,1.0913c0,0,0,0,1.1787,1.0908
					l0.0195,0.0254c0,0,0,0,1.1797,1.2676c0,0,0,0,1.1855,1.268c-3.2109,3.0811-4.7431,7.2691-4.7431,11.4605
					c0,9.2212,6.5976,13.3398,13.1572,13.3398c3.0527,0,5.6758-1.0469,7.5742-3.0434c1.8926-1.9712,2.9522-4.8062,2.8262-7.5874
					c-0.0947-2.2867-1.1162-4.4532-2.8067-5.9322c-1.5078-1.3183-3.4502-1.9712-5.5068-1.8828h-0.0312h-0.0752h-0.2842
					l-0.2647,0.0347c-3.3056,0.2304-5.0781,2.2549-5.2607,4.3838c-0.1953,2.2514,1.6719,5.1938,4.415,4.3139
					c2.75-0.8828,0.5801-5.4936,1.5703-6.4775c0,0,0,0,1.8926-0.4951c0,0,0,0,1.3242,0.4951c0,0,0,0,1.1924,0.8071
					c1.3623,1.1988,2.1885,2.9488,2.2705,4.8252c0.0948,2.3589-0.7949,4.7686-2.3838,6.44
					c-1.6152,1.6743-3.8408,2.5542-6.4521,2.5542c-5.7656,0-11.5938-3.6456-11.5938-11.7754
					c0-6.7964,4.4278-14.7339,16.8916-14.7339c5.0967,0,9.5557,1.8384,12.917,5.3169c3.583,3.7119,5.5381,9.0635,5.3428,14.6802
					c-0.2969,8.7988-6.4775,15.7177-11.9209,21.8266l-3.8164,4.415c-5.418,6.7774-4.8057,13.5293-2.4092,17.5845
					c0,0,0,0,0.9776,1.249c0,0,0,0,1.167,0.9175c1.791,1.4258,3.5703,1.6529,5.7968,1.6529c0,0,0,0,1.501,0.142
					c0,0,0,0,0.9082,0.3687c0,0,0,0,0,1.5864c0,0,0,0,0,1.583c0,0,0,0,0.5361,0c0,0,0,0,1.5635,0h0.1201c0,0,0,0,0-1.6904
					C673.7514,210.8596,673.7514,210.8596,673.7514,209.1535z"/>
			</g>
		</g>
		<g>
			<g>
				<path fill="#F88C24" d="M605.3491,865.4973c2.9775,0.5039,4.4912-5.7773,13.6494-6.5098
					c5.6572-0.1006,9.8897,1.0723,10.3496,1.1104c0,0,0,0,1.0918-0.669c0,0,0,0-0.6504-1.0966
					c-0.3467-0.0889-5.582-1.3877-11.4414-1.1485c-2.3838-0.0625-7.2344,0.0508-11.0371,1.7666
					C602.0757,861.3088,603.6645,865.1946,605.3491,865.4973z"/>
			</g>
			<g>
				<path fill="#F88C24" d="M682.5122,866.342c1.7158-4.4902,4.1318-7.5058,6.623-8.25c0,0,0,0,1.6016-0.1386c0,0,0,0,1.4131,0.5673
					c0,0,0,0,0.6689,1.3125c0,0,0,0-0.9463,2.6114c1.2998-0.6436,3.2989-1.918,4.5098-3.3936
					c1.5137-1.8545,2.5928-2.4346,4.0615-2.5859c1.3623-1.8799,1.3184-1.8164,2.0498-2.8008
					c0.2901-1.8662,0.1895-5.0078-1.1787-6.875c-1.6904-1.9424-0.1328-3.1787-0.4922-3.7207
					c1.0782-0.8955,4.2198,0.8701,4.3203,6.8622c0.044,2.5352-0.2021,4.7676-0.4921,6.4962c0,0,0,0-0.2774,1.5644
					c0,0,0,0-0.4033,1.5518c0,0,0,0-0.2022,0.6934l-0.0439,0.0634c-3.5381,10.5332-15.3145,19.7168-27.3232,20.0567
					c-10.3692,0.3027-19.3448-3.6074-23.3877-5.7266l6.497,7.001l0.3272,0.29l0.0693,0.126v0.0127l0.0449,0.0127
					c0.0498,0.0255,5.1905,2.9395,13.2891,4.5791c3.5068,0.7188,6.5342,1.085,8.9756,1.375
					c3.4375,0.4033,5.9228,0.6934,7.5683,1.7031c2.3467,1.4375,3.1036,3.1533,3.1036,4.4278c0,0,0,0-0.2461,1.1601
					c-1.3936,1.3877-0.8702,2.334-6.2696,3.6084c2.0313,1.3242,4.7491,3.6201,7.001,7.5303c1.918,3.3301,2.6875,6.875,2.9649,9.7265
					c0.5546,2.3458,0.0439,1.0215,0.9453,3.8096c0.7451,2.0303,4.9521,3.835,2.9902,6.8242
					c-3.1406,1.7032-4.6045-2.6865-6.5664-3.5947c-2.3018-1.0098-3.0898-0.9971-3.7148-1.249
					c-2.8125-0.5303-6.2881-1.6026-9.4288-3.7979c-3.6904-2.5732-5.7529-5.4746-6.8945-7.6191
					c-0.9394,4.7061-3.9668,5.6143-4.1435,5.9297c-1.2237,0.4912-3.6524,0.0117-5.3174-3.3311
					c-0.8643-1.7148-0.9395-4.2129-1.0528-7.6816c-0.082-2.4473-0.1767-5.5-0.5996-9.0576
					c-0.8261-7.1651-3.3301-12.2617-3.9424-13.4473l-7.1142-7.6572c1.9111,3.5957,5.9668,12.4385,5.9668,22.8584
					c0,0,0,0-0.0186,1.122c-0.3408,12.0088-9.5312,23.7911-20.0576,27.3233l-0.0693,0.0508c0,0,0,0-0.6875,0.2011
					c0,0,0,0-1.5576,0.4043c0,0,0,0-1.5586,0.2647c-1.7276,0.3027-3.9668,0.5303-6.503,0.5049
					c-5.9912-0.1133-7.7509-3.2422-6.8681-4.3272c2.3467,0.126,1.3681-1.1474,3.7275,0.4922
					c1.8672,1.375,5.0078,1.4756,6.875,1.1729c1.8672-1.3623,1.8037-1.3243,2.8008-2.043c0.1572-1.4766,0.7372-2.5488,2.5918-4.0625
					c1.4824-1.1983,2.75-3.2041,3.3808-4.5156c-0.9589,1.2363-3.4688,0.706-3.9169,0.29c0,0,0,0-0.5987-1.8926
					c0,0,0,0,0.1758-1.1347c0.751-2.4854,3.7529-4.8946,8.2383-6.6104c5.9785-2.2832,11.4853-5.7519,11.4853-15.4404
					c0,0,0,0-0.0068-0.5166l0.0195-0.0508c-1.8418-8.6406-5.6709-14.8975-5.7207-14.9863l-0.1269-0.4034c0,0,0,0,2.1445-1.9804
					h0.3731c0.082,0.0498,6.1171,3.8096,14.5507,5.7138l0.0313-0.0117C676.7163,877.9348,680.4438,871.7414,682.5122,866.342z
					 M655.7251,895.4563c-1.7842,6.5849-6.7676,9.5244-11.7373,11.417c-4.6739,1.7783-6.8438,4.0742-7.3106,5.6133
					c0,0,0,0-0.1006,0.6679c0,0,0,0,0.3028,0.9717c0,0,0,0,2.1006-0.8447c0,0,0,0,1.1855-0.5811c0,0,0,0,0.921,0.0635l0.46,0.3906
					v0.4424c0,1.375-2.2266,5.1084-4.4082,6.8994c0,0,0,0-0.8838,0.7823l0.082-0.0254c-0.6749,2.0439-1.6455,1.1992-0.7812,3.2421
					c0,0,0,0,1.8916,0.3907c9.7138-3.5186,18.1084-14.4307,18.4296-25.6446c0,0,0,0,0.0127-1.0605c0,0,0,0-0.0566-1.3613
					C655.8325,896.8196,655.8325,896.8196,655.7251,895.4563z M686.9145,912.2717c0,0,0,0-1.1093-0.0381L661.812,886.425
					c0.8896,2.4473,1.8418,5.8028,2.3086,9.8008c0.4228,3.6328,0.5166,6.7236,0.5986,9.1963
					c0.1074,3.2676,0.1836,5.6133,0.8965,7.0391c1.3936,2.6738,2.8945,1.917,3.3174,2.5605
					c1.4248-1.5264,2.8066-0.6055,3.4375-7.6826c0,0,0,0,1.5449-0.2012c0.8701,2.0059,0.126,0.7823,1.4824,3.292
					c1.1162,1.8926,2.9961,4.3145,6.0615,6.459c3.3809,2.3467,7.2149,3.3174,10.0225,3.7217c1.7529,0.3271,2.541,0.29,3.2666,0.3144
					c0.29-1.4756,0.1582-2.5351,0.1074-3.3798c-0.1582-2.8389-0.7949-6.7364-2.8379-10.3067
					c-3.9238-6.7109-8.7168-7.9219-9.0703-8.3379c0,0,0,0,0.3408-1.5263c6.3448,0.706,7.5499-2.712,7.9473-2.7627l0.0879-0.4414
					c-1.3809-1.9932-0.1318-1.501-2.3584-3.0909c-1.3564-0.832-3.6963-1.123-6.9316-1.5009
					c-2.4668-0.2901-5.5323-0.6563-9.1143-1.375c-4.3525-0.8956-7.8027-2.1065-10.1738-3.0782l24.207,26.0489
					C686.9526,911.1741,686.9526,911.1741,686.9145,912.2717z M672.1118,878.6037l4.2451,0.1895
					c11.2012-0.3281,22.126-8.7168,25.6328-18.4434c0,0,0,0-0.3847-1.8789c-1.6846-1.0595-2.7569,0.958-3.2422,0.7823l0.0312-0.0762
					c0,0,0,0-0.7939,0.8701c-1.7852,2.1953-5.5196,4.415-6.8946,4.415c0,0,0,0-0.6054-0.0752l-0.2266-0.3916c0,0,0,0,0.5166-2.1064
					c0,0,0,0,0.8457-2.0937c0,0,0,0-1.6465-0.2022c-1.539,0.4668-3.8154,2.624-5.6133,7.3164
					C682.1782,871.6155,679.1382,876.8118,672.1118,878.6037z"/>
			</g>
			<g>
				<path fill="#F88C24" d="M635.4477,852.6936c0,0,0,0,1.0908,0.668c0,0,0,0,0.6622-1.0977
					c-0.4795-2.7998-0.9463-3.2793-1.1036-10.3564c0.7315-9.1456,7.0264-10.6719,6.503-13.6358
					c-0.2901-1.6904-4.1885-3.2803-6.5469,1.9551c-1.7031,3.7969-1.8291,8.6533-1.7666,11.0381
					C634.06,847.1174,635.3589,852.3655,635.4477,852.6936z"/>
			</g>
			<g>
				<path fill="#F88C24" d="M616.0844,842.1848c4.4532,4.2012,18.0635,16.1094,18.0635,16.1094s0,0-1.3427-1.4512
					c0,0,0,0-1.3252-1.4502l9.6884,10.1416c0,0,0,0,1.1094,0.0127c0,0,0,0,0.0195-1.1094l-8.2246-8.5908c0,0,0,0,1.3301,1.2236
					c0,0-11.9141-13.624-16.0957-18.0644c-3.6963-3.9229-5.8594-6.4209-8.0293-5.5244l-0.1641-0.1895l-0.3339,0.4541l-0.3789,0.2774
					l0.164,0.1513C609.6694,836.3323,612.1606,838.5022,616.0844,842.1848z"/>
			</g>
			<g>
				<path fill="#F88C24" d="M577.9311,896.6301c0,0,0,0,1.9307,0l0.3271-0.1142c0,0,0,0,0.7002-2.1065c0,0,0,0-0.3086-1.4248
					c-0.2021-2.0312-0.1894-1.956-0.2968-3.04l-0.0625-0.0508c0.2392-1.6524,0.8886-3.457,2.623-4.4785
					c3.6016-2.1192,9.6445-2.6241,15.7998,2.2959l4.3526,3.747c5.998,5.3477,13.4472,12.0088,22.8134,12.3243
					c6.0362,0.2138,11.8135-1.9053,15.8311-5.7901c3.7969-3.6582,5.79-8.5146,5.79-14.04c0-5.4121-1.4824-9.5498-3.8095-12.5264
					c0,0,0,0,1.1923-1.1103c0,0,0,0,1.1856-1.1104l0.126-0.0879c0,0,0,0,1.1923-1.2871c0,0,0,0,1.1983-1.2988
					c2.9834,2.3213,7.1211,3.8222,12.5391,3.8222c5.5312,0,10.3876-2.0058,14.0458-5.8027
					c3.8917-4.0244,5.9991-9.7891,5.7842-15.831c-0.3154-9.3604-6.9697-16.8155-12.3115-22.8077l-3.7598-4.3515
					c-4.9257-6.1563-4.415-12.1983-2.2959-15.8067c1.0225-1.7275,2.8321-2.3711,4.4786-2.624l0.0566,0.0635
					c2.0244,0.2021,1.9492,0.1894,3.0342,0.3027c0,0,0,0,1.4443,0.3028c0,0,0,0,1.293,0.0253c0,0,0,0,0.8008-0.7314l0.1259-0.3535
					c0,0,0,0,0-1.791c0,0,0,0,0-1.7539c0,0,0,0,0-1.7784h-0.1259c0,0,0,0-1.5772,0c0,0,0,0-0.5166,0c0,0,0,0,0,1.6016
					c0,0,0,0,0,1.6025c0,0,0,0-2.4219,0.5166c-2.2265,0-4.0058,0.2276-5.79,1.6534c0,0,0,0-1.167,0.9199c0,0,0,0-0.9775,1.249
					c-2.3907,4.0498-3.0157,10.7988,2.415,17.585l3.8037,4.415c5.4492,6.1055,11.624,13.0186,11.9268,21.8106
					c0.1953,5.6259-1.753,10.9746-5.3418,14.6963c-3.3623,3.4687-7.834,5.3105-12.9238,5.3105
					c-12.4571,0-16.879-7.9219-16.879-14.7207c0-8.1367,5.8223-11.7822,11.5811-11.7822c2.6172,0,4.8438,0.8828,6.4453,2.5605
					c1.6026,1.6651,2.4981,4.0742,2.3906,6.4336c-0.0752,1.8672-0.9013,3.6201-2.2705,4.8184c0,0,0,0-1.1855,0.8076
					c0,0,0,0-1.3311,0.4922c0,0,0,0-1.8916-0.4922c-0.9785-0.9717,1.1787-5.588-1.5644-6.4707
					c-2.7569-0.8965-4.6114,2.0683-4.4151,4.3135c0.1827,2.1318,1.9483,4.1377,5.2666,4.3652l0.2578,0.0625l0.2784-0.0128
					l0.082,0.0128l0.0371-0.0128c2.0498,0.0889,3.9932-0.5547,5.5068-1.8788c1.6836-1.4893,2.6993-3.6465,2.8008-5.9414
					c0.1192-2.7755-0.9336-5.6143-2.8261-7.5947c-1.9043-1.9805-4.5225-3.0274-7.5811-3.0274
					c-6.5469,0-13.1572,4.125-13.1572,13.3467c0,4.1748,1.5263,8.3633,4.7363,11.4414c0,0,0,0-1.0977,1.1729c0,0,0,0-1.0908,1.1855
					l-0.0185,0.0127c0,0,0,0-1.2676,1.1855c0,0,0,0-1.2686,1.1866c-3.0898-3.2168-7.2783-4.7432-11.4599-4.7432
					c-9.2207,0-13.3457,6.5977-13.3457,13.1563c0,3.0527,1.0527,5.6767,3.039,7.582c1.9746,1.8916,4.8194,2.9394,7.6006,2.8252
					c2.2832-0.1006,4.4531-1.1221,5.9287-2.8125c1.3184-1.501,1.9619-3.4444,1.8868-5.5127v-0.0254v-0.0762v-0.2773l-0.045-0.2647
					c-0.2334-3.3174-2.2451-5.084-4.3769-5.2724c-2.252-0.1895-5.2031,1.6777-4.3145,4.4277
					c0.8828,2.7373,5.4942,0.5801,6.4776,1.5635c0,0,0,0,0.499,1.8926c0,0,0,0-0.5049,1.3242c0,0,0,0-0.8008,1.1865
					c-1.1982,1.375-2.958,2.1943-4.8252,2.2705c-2.3593,0.1006-4.7685-0.7822-6.4394-2.3848
					c-1.6719-1.6015-2.5547-3.8349-2.5547-6.4462c0-5.7647,3.6455-11.5918,11.7754-11.5918c6.7988,0,14.7344,4.4267,14.7344,16.8906
					c0,5.0957-1.8418,9.5615-5.3174,12.917c-3.7217,3.583-9.0703,5.5381-14.6895,5.3486
					c-8.7861-0.3027-15.7178-6.4844-21.8174-11.9336l-4.415-3.8096c-6.7871-5.4238-13.5294-4.8056-17.585-2.4091
					c0,0,0,0-1.2549,0.9716c0,0,0,0-0.9208,1.1729c-1.4258,1.791-1.6465,3.5703-1.6465,5.79c0,0,0,0-0.1387,1.5137
					c0,0,0,0-0.3652,0.8955c0,0,0,0-1.5957,0c0,0,0,0-1.584,0c0,0,0,0,0,0.543c0,0,0,0,0,1.5635v0.1142c0,0,0,0,1.6972,0
					C576.2348,896.6301,576.2348,896.6301,577.9311,896.6301z"/>
			</g>
		</g>
		<g>
			<g>
				<path fill="#F88C24" d="M134.3076,828.2336c-0.5171,2.9766,5.771,4.4903,6.5029,13.6485
					c0.1069,5.664-1.0723,9.8906-1.0913,10.3447c0,0,0,0,0.6499,1.0967c0,0,0,0,1.0913-0.6553
					c0.0879-0.3408,1.3936-5.5762,1.1665-11.4413c0.0566-2.3848-0.063-7.2285-1.7724-11.0255
					C138.4956,824.9534,134.5976,826.5558,134.3076,828.2336z"/>
			</g>
			<g>
				<path fill="#F88C24" d="M133.4624,905.3967c4.4971,1.7158,7.4995,4.125,8.25,6.6231c0,0,0,0,0.1387,1.6015c0,0,0,0-0.561,1.4131
					c0,0,0,0-1.3247,0.669c0,0,0,0-2.605-0.9463c0.6372,1.2988,1.9111,3.292,3.3872,4.5156
					c1.8604,1.5137,2.4409,2.5859,2.5986,4.0497c1.8667,1.3623,1.7973,1.3242,2.8003,2.0557
					c1.8667,0.29,5.0078,0.1894,6.8624-1.1856c1.9555-1.6904,3.185-0.126,3.7339-0.4922c0.8896,1.085-0.8829,4.2266-6.8687,4.3272
					c-2.5293,0.0381-4.7681-0.2022-6.5029-0.4922c0,0,0,0-1.564-0.2774c0,0,0,0-1.5581-0.4033c0,0,0,0-0.6875-0.2021l-0.063-0.0381
					c-10.5269-3.5449-19.71-15.3145-20.0571-27.3359c-0.2964-10.3692,3.6206-19.3379,5.7207-23.375l-6.9888,6.4843l-0.2959,0.3282
					l-0.1264,0.0751h-0.0064l-0.0063,0.0381c-0.0376,0.0508-2.939,5.1973-4.5982,13.2959
					c-0.7124,3.5069-1.0723,6.5342-1.3623,8.9688c-0.4033,3.4443-0.6934,5.9287-1.709,7.5693
					c-1.4316,2.3584-3.1474,3.1153-4.4277,3.1153c0,0,0,0-1.1607-0.252c-1.3686-1.4004-2.3398-0.8701-3.6079-6.2695
					c-1.3183,2.0312-3.6264,4.7431-7.5244,7.0009c-3.3364,1.917-6.8813,2.6866-9.7256,2.9649
					c-2.3403,0.5547-1.0346,0.0498-3.8037,0.9463c-2.0371,0.7441-3.8408,4.957-6.8242,2.9892
					c-1.7095-3.1416,2.6738-4.6045,3.5889-6.5595c1.0215-2.3086,0.9839-3.0909,1.2485-3.7217
					c0.5298-2.8125,1.6021-6.294,3.8032-9.4356c2.5674-3.6836,5.4751-5.7392,7.6133-6.8877
					c-4.6992-0.9462-5.626-3.9736-5.9355-4.1503c-0.4917-1.2237-0.0059-3.6456,3.3178-5.3106
					c1.7344-0.8574,4.2388-0.9463,7.6949-1.0596c2.4472-0.0752,5.5-0.1767,9.0634-0.5927
					c7.1651-0.8321,12.2676-3.3301,13.4473-3.9483l7.6572-7.1025c-3.5888,1.9053-12.4443,5.9668-22.8452,5.9668
					c0,0,0,0-1.1352-0.0254c-12.0157-0.3399-23.7911-9.5235-27.3296-20.0567l-0.0318-0.0634c0,0,0,0-0.2138-0.6934
					c0,0,0,0-0.4038-1.5517c0,0,0,0-0.2715-1.5645c-0.2901-1.7275-0.5298-3.9609-0.4859-6.4961
					c0.0889-6.0049,3.2422-7.7578,4.3145-6.875c-0.1323,2.3457,1.1416,1.375-0.4922,3.7344
					c-1.375,1.8535-1.4692,5.0078-1.1792,6.8613c1.3686,1.8672,1.3184,1.8047,2.0561,2.8008
					c1.4634,0.1641,2.5357,0.7441,4.0494,2.5986c1.2172,1.4756,3.2104,2.75,4.5161,3.3809
					c-1.2237-0.959-0.6939-3.4688-0.2715-3.9102c0,0,0,0,1.8735-0.6064c0,0,0,0,1.1353,0.1767
					c2.4912,0.7452,4.9009,3.7471,6.6162,8.2373c2.2895,5.9795,5.7397,11.4922,15.4404,11.4922c0,0,0,0,0.5171-0.0127l0.0444,0.0127
					c8.6407-1.8418,14.9102-5.664,14.9859-5.7148l0.4165-0.126c0,0,0,0,1.9863,2.1445l-0.0185,0.3789
					c-0.0508,0.0752-3.816,6.1055-5.708,14.544l0.0058,0.0381C121.8633,899.594,128.0508,903.3284,133.4624,905.3967z
					 M104.3418,878.6037c-6.585-1.7783-9.5113-6.7617-11.4038-11.7314c-1.7974-4.6807-4.0806-6.8379-5.6197-7.3047
					c0,0,0,0-0.6748-0.1133c0,0,0,0-0.959,0.3155c0,0,0,0,0.8326,2.0947c0,0,0,0,0.5805,1.1855c0,0,0,0-0.0571,0.9209
					l-0.3906,0.4541h-0.4483c-1.375,0-5.0962-2.2207-6.8872-4.4023c0,0,0,0-0.7949-0.8839l0.0254,0.0762
					c-2.0308-0.669-1.1982-1.6397-3.2358-0.7823c0,0,0,0-0.3785,1.8926c3.5005,9.7256,14.4248,18.1143,25.6265,18.4297
					c0,0,0,0,1.0537,0.0254c0,0,0,0,1.375-0.0635C102.9858,878.717,102.9858,878.717,104.3418,878.6037z M87.5327,909.7991
					c0,0,0,0,0.0317-1.1094l25.8218-23.9932c-2.4531,0.8955-5.8086,1.8418-9.8076,2.3086c-3.6397,0.416-6.7173,0.5166-9.2022,0.5928
					c-3.2548,0.1133-5.6137,0.1894-7.039,0.9082c-2.6553,1.3877-1.9175,2.8887-2.5674,3.3174
					c1.5264,1.4258,0.6118,2.8008,7.6885,3.4316c0,0,0,0,0.2148,1.5508c-2.0185,0.8712-0.7886,0.1143-3.2925,1.4766
					c-1.9048,1.1103-4.3208,3.0019-6.4585,6.0546c-2.3525,3.3809-3.3305,7.2286-3.7343,10.0293
					c-0.315,1.753-0.2837,2.5479-0.3086,3.2666c1.4692,0.2901,2.5293,0.1514,3.3803,0.1006
					c2.8448-0.1513,6.7427-0.7939,10.3062-2.8252c6.7173-3.9355,7.9219-8.7295,8.3447-9.083c0,0,0,0,1.52,0.3535
					c-0.7129,6.3457,2.7183,7.544,2.7627,7.9473l0.4351,0.0879c2.0059-1.3867,1.501-0.1387,3.0967-2.3584
					c0.833-1.3623,1.1103-3.6963,1.4951-6.9385c0.29-2.4717,0.6494-5.5244,1.3877-9.1074c0.8891-4.3643,2.1001-7.8086,3.084-10.1797
					l-26.0489,24.207C88.643,909.8371,88.643,909.8371,87.5327,909.7991z M121.1948,894.9895l-0.1826,4.2519
					c0.3213,11.2012,8.7163,22.126,18.436,25.6329c0,0,0,0,1.8921-0.3916c1.0532-1.6778-0.9712-2.75-0.7949-3.2295l0.0884,0.0254
					c0,0,0,0-0.8765-0.795c-2.1826-1.791-4.4092-5.5117-4.4092-6.8867c0,0,0,0,0.0693-0.6055l0.3848-0.2402c0,0,0,0,2.1133,0.5303
					c0,0,0,0,2.0879,0.8447c0,0,0,0,0.208-1.6523c-0.4668-1.5391-2.6304-3.8223-7.3037-5.6133
					C128.1831,905.0686,122.98,902.0159,121.1948,894.9895z"/>
			</g>
			<g>
				<path fill="#F88C24" d="M147.0991,858.3323c0,0,0,0-0.6562,1.0849c0,0,0,0,1.104,0.668
					c2.7876-0.4796,3.2608-0.9464,10.3374-1.0977c9.1645,0.7325,10.6845,7.0137,13.6616,6.4971
					c1.6714-0.29,3.2612-4.1885-1.9741-6.5469c-3.8033-1.7031-8.6475-1.8291-11.0376-1.7666
					C152.687,856.9446,147.4458,858.2433,147.0991,858.3323z"/>
			</g>
			<g>
				<path fill="#F88C24" d="M157.6069,838.968c-4.1943,4.4531-16.1025,18.0645-16.1025,18.0645s0,0,1.457-1.337
					c0,0,0,0,1.4444-1.3369l-10.1358,9.6875c0,0,0,0-0.0254,1.1104c0,0,0,0,1.1104,0.0254l8.6094-8.2246c0,0,0,0-1.2236,1.3242
					c0,0,13.6108-11.9082,18.0576-16.0967c3.9356-3.6953,6.4273-5.8525,5.5254-8.0225l0.189-0.164l-0.4605-0.3408l-0.271-0.378
					l-0.1513,0.1768C163.4663,832.5481,161.3027,835.0452,157.6069,838.968z"/>
			</g>
			<g>
				<path fill="#F88C24" d="M103.1811,800.8215c0,0,0,0,0,1.918l0.1011,0.3281c0,0,0,0,2.1064,0.7061c0,0,0,0,1.4317-0.3028
					c2.0249-0.2021,1.9556-0.2021,3.0464-0.3027l0.0381-0.0635c1.6523,0.2403,3.4687,0.8965,4.4843,2.624
					c2.1133,3.5957,2.6241,9.6504-2.2959,15.794l-3.7588,4.3642c-5.3427,5.9922-11.9843,13.4473-12.3183,22.8077
					c-0.2022,6.042,1.8984,11.8066,5.79,15.831c3.6646,3.7969,8.5215,5.7901,14.0464,5.7901c5.4243,0,9.5493-1.4883,12.5327-3.8096
					c0,0,0,0,1.1099,1.1855c0,0,0,0,1.1104,1.1866l0.0757,0.1259c0,0,0,0,1.293,1.1983c0,0,0,0,1.293,1.1982
					c-2.3213,2.9893-3.8096,7.1143-3.8096,12.5391c0,5.5254,1.999,10.3818,5.79,14.0527c4.0239,3.8848,9.7891,5.9912,15.8374,5.7774
					c9.354-0.3155,16.8155-6.9639,22.8072-12.3116l4.3584-3.7597c6.1499-4.9317,12.1982-4.4151,15.7998-2.2959
					c1.7343,1.0224,2.3715,2.8388,2.6113,4.4785l-0.0508,0.0508c-0.1953,2.0302-0.1953,1.955-0.3027,3.04c0,0,0,0-0.3086,1.4375
					c0,0,0,0-0.0127,1.2998c0,0,0,0,0.7187,0.794l0.3599,0.1269c0,0,0,0,1.791,0c0,0,0,0,1.7661,0c0,0,0,0,1.7598,0v-0.1269
					c0,0,0,0,0-1.5635c0,0,0,0,0-0.5303c0,0,0,0-1.6021,0c0,0,0,0-1.5893,0c0,0,0,0-0.5234-2.4092
					c0-2.2324-0.2271-4.0117-1.6529-5.79c0,0,0,0-0.9145-1.1729c0,0,0,0-1.2486-0.9843c-4.0683-2.3838-10.811-3.002-17.5849,2.4218
					l-4.4214,3.8096c-6.1055,5.4375-13.0244,11.6182-21.8233,11.9209c-5.6132,0.1895-10.9682-1.7529-14.6835-5.3486
					c-3.4751-3.3555-5.3105-7.834-5.3105-12.917c0-12.4639,7.9282-16.8779,14.7212-16.8779c8.1431,0,11.7822,5.8144,11.7822,11.58
					c0,2.6114-0.8769,4.8438-2.561,6.4453c-1.6587,1.6026-4.0742,2.4981-6.4331,2.3975c-1.8609-0.0889-3.627-0.9082-4.8188-2.2705
					c0,0,0,0-0.8135-1.1992c0,0,0,0-0.4922-1.3242c0,0,0,0,0.4922-1.8926c0.9775-0.9707,5.6005,1.1865,6.4775-1.5635
					c0.8828-2.75-2.0566-4.6172-4.3208-4.415c-2.1191,0.1757-4.1372,1.955-4.3706,5.2724l-0.0381,0.252v0.2783l-0.0064,0.0752
					l0.0064,0.0381c-0.0884,2.0556,0.5615,3.999,1.8857,5.5127c1.4761,1.6777,3.6397,2.6992,5.9288,2.7998
					c2.7817,0.1269,5.6137-0.9336,7.5942-2.8252c1.9805-1.9053,3.04-4.5283,3.04-7.5811c0-6.5468-4.1313-13.1572-13.3525-13.1572
					c-4.1689,0-8.3506,1.5264-11.4414,4.7432c0,0,0,0-1.1792-1.1104c0,0,0,0-1.1797-1.0849l-0.0063-0.0254c0,0,0,0-1.1919-1.2618
					c0,0,0,0-1.186-1.2734c3.2105-3.0781,4.7432-7.2656,4.7432-11.4541c0-9.2217-6.6099-13.3467-13.1567-13.3467
					c-3.0469,0-5.6768,1.0469-7.5752,3.041c-1.8921,1.9668-2.9522,4.8184-2.8257,7.5938c0.0947,2.296,1.1225,4.4531,2.7939,5.9287
					c1.5142,1.3242,3.4629,1.9678,5.5127,1.8916h0.0376h0.0762h0.2837l0.2524-0.0498c3.3174-0.2275,5.0899-2.2451,5.2725-4.3652
					c0.2021-2.2578-1.6651-5.21-4.4087-4.3135c-2.7564,0.8701-0.5991,5.4872-1.5767,6.4706c0,0,0,0-1.8921,0.4922
					c0,0,0,0-1.331-0.5049c0,0,0,0-1.1861-0.7939c-1.3554-1.1993-2.1884-2.9522-2.2705-4.8194
					c-0.1069-2.3584,0.795-4.7685,2.397-6.4463c1.6021-1.6777,3.8286-2.5478,6.44-2.5478c5.7709,0,11.58,3.6328,11.58,11.7695
					c0,6.7988-4.415,14.7334-16.8784,14.7334c-5.0835,0-9.5557-1.8418-12.9175-5.3105c-3.5947-3.7207-5.5376-9.0821-5.3423-14.6954
					c0.3091-8.7929,6.4781-15.7188,11.9209-21.8115l3.8033-4.4277c5.4306-6.7734,4.8061-13.5225,2.4218-17.584c0,0,0,0-0.9775-1.249
					c0,0,0,0-1.1728-0.9209c-1.7852-1.4258-3.564-1.6397-5.7901-1.6397c0,0,0,0-1.5015-0.1386c0,0,0,0-0.9082-0.3789
					c0,0,0,0,0-1.5899c0,0,0,0,0-1.5889c0,0,0,0-0.5361,0c0,0,0,0-1.5703,0h-0.1011c0,0,0,0,0,1.7032
					C103.1811,799.1194,103.1811,799.1194,103.1811,800.8215z"/>
			</g>
		</g>
		<g>
			<g>
				<path fill="#F88C24" d="M171.5713,144.4846c-2.9644-0.52-4.4908,5.7715-13.649,6.5029
					c-5.6704,0.1045-9.8965-1.0752-10.3506-1.1006c0,0,0,0-1.0908,0.6529c0,0,0,0,0.6494,1.1006
					c0.3467,0.0854,5.582,1.3813,11.4414,1.1606c2.3842,0.0601,7.2343-0.063,11.038-1.769
					C174.8447,148.6731,173.249,144.7751,171.5713,144.4846z"/>
			</g>
			<g>
				<path fill="#F88C24" d="M94.4077,143.6399c-1.7217,4.4873-4.1314,7.4961-6.6226,8.2373c0,0,0,0-1.602,0.1479
					c0,0,0,0-1.4131-0.5708c0,0,0,0-0.6685-1.3213c0,0,0,0,0.9463-2.5957c-1.2993,0.6343-3.2988,1.9112-4.5161,3.3872
					c-1.5137,1.8511-2.5732,2.4317-4.0557,2.5894c-1.3623,1.8667-1.3183,1.8037-2.0371,2.7969
					c-0.3027,1.8672-0.1958,5.0083,1.1729,6.875c1.6841,1.9463,0.1265,3.1758,0.4858,3.7309
					c-1.0786,0.8892-4.2133-0.8798-4.3208-6.8715c-0.0312-2.5357,0.2022-4.7715,0.4922-6.5059c0,0,0,0,0.2715-1.5581
					c0,0,0,0,0.4097-1.5581c0,0,0,0,0.2016-0.6841l0.0445-0.063c3.5385-10.5332,15.3203-19.7231,27.3232-20.0669
					c10.3691-0.2964,19.3442,3.6265,23.3936,5.73l-6.5025-6.9981l-0.3281-0.29l-0.0693-0.1289l0,0l-0.0318-0.019
					c-0.0566-0.0254-5.2036-2.939-13.2895-4.5855c-3.5196-0.7129-6.5469-1.0815-8.9878-1.3657
					c-3.4439-0.4033-5.9224-0.7031-7.5689-1.7153c-2.3525-1.4351-3.1093-3.1412-3.1093-4.4185c0,0,0,0,0.2524-1.1606
					c1.3872-1.3809,0.8765-2.3399,6.2817-3.6172c-2.0434-1.3213-4.7617-3.6172-7.0136-7.5152
					c-1.917-3.3364-2.6866-6.8842-2.9707-9.7348c-0.542-2.3404-0.0313-1.0284-0.9268-3.8003
					c-0.7568-2.0435-4.9639-3.8384-3.0024-6.8311c3.1411-1.6997,4.604,2.6743,6.5722,3.5923
					c2.3081,1.0186,3.0777,0.9932,3.7149,1.2485c2.813,0.5269,6.2822,1.6119,9.4355,3.8033
					c3.6773,2.5766,5.7334,5.4716,6.8814,7.6191c0.9399-4.6987,3.9609-5.6226,4.1504-5.938
					c1.2172-0.4858,3.6455-0.0093,5.3168,3.3237c0.8643,1.7349,0.9336,4.2354,1.0596,7.6856
					c0.0694,2.4536,0.1768,5.5098,0.5864,9.0635c0.8389,7.165,3.3306,12.2675,3.9424,13.4472l7.1211,7.6573
					c-1.9175-3.5889-5.9668-12.4444-5.9668-22.8453c0,0,0,0,0.0186-1.1289c0.3345-12.0122,9.5244-23.7973,20.0512-27.3266
					l0.0693-0.044c0,0,0,0,0.6875-0.2109c0,0,0,0,1.5454-0.3945c0,0,0,0,1.564-0.2837c1.7471-0.2901,3.9736-0.5269,6.5092-0.4824
					c5.9917,0.0976,7.7515,3.2387,6.8687,4.311c-2.3403-0.1231-1.3687,1.1445-3.728-0.4824
					c-1.8667-1.3819-5.0015-1.4698-6.8682-1.1797c-1.8736,1.3623-1.8106,1.3213-2.8071,2.0498
					c-0.145,1.4697-0.7314,2.5356-2.5923,4.0493c-1.4819,1.2144-2.75,3.2104-3.3804,4.5161
					c0.9585-1.2236,3.4688-0.6875,3.9229-0.2744c0,0,0,0,0.5933,1.8828c0,0,0,0-0.1704,1.126
					c-0.7573,2.5005-3.7593,4.9131-8.2437,6.6191c-5.9795,2.2896-11.4859,5.7461-11.4859,15.4375c0,0,0,0,0.0191,0.5264
					l-0.0313,0.0381c1.8413,8.6504,5.6763,14.9072,5.7329,14.9951l0.1138,0.4038c0,0,0,0-2.1382,1.9902l-0.3721-0.0097
					c-0.0883-0.0532-6.1245-3.8189-14.5571-5.7114l-0.0317,0.0097C100.2041,132.031,96.4702,138.2248,94.4077,143.6399z
					 M121.1948,114.5095c1.7852-6.5757,6.7676-9.5054,11.7378-11.4067c4.6738-1.7881,6.8433-4.065,7.3101-5.6075
					c0,0,0,0,0.1011-0.6777c0,0,0,0-0.3091-0.9682c0,0,0,0-2.0938,0.8452c0,0,0,0-1.186,0.58c0,0,0,0-0.9273-0.0693l-0.4541-0.3877
					v-0.4385c0-1.375,2.2266-5.1054,4.415-6.8906c0,0,0,0,0.877-0.8013l-0.082,0.0347c0.6685-2.0434,1.6523-1.1982,0.7822-3.2388
					c0,0,0,0-1.8926-0.3877c-9.7129,3.5035-18.1079,14.4341-18.4297,25.6363c0,0,0,0-0.019,1.0561c0,0,0,0,0.0571,1.3657
					C121.0815,113.1535,121.0815,113.1535,121.1948,114.5095z M90.0117,97.6975c0,0,0,0,1.1099,0.0347l23.9804,25.8217
					c-0.8896-2.4438-1.8354-5.8086-2.2959-9.8105c-0.4228-3.6367-0.5234-6.7178-0.6054-9.1992
					c-0.1075-3.2549-0.1831-5.6138-0.8897-7.0298c-1.3872-2.668-2.9014-1.9268-3.3237-2.5703
					c-1.4253,1.5298-2.8003,0.6054-3.4375,7.6821c0,0,0,0-1.5454,0.2114c-0.8828-2.0053-0.126-0.7724-1.482-3.2924
					c-1.1167-1.8985-2.9961-4.3204-6.0615-6.4585c-3.3677-2.3492-7.209-3.3272-10.022-3.731
					c-1.7539-0.3184-2.5483-0.2837-3.2675-0.2993c-0.2901,1.4697-0.1514,2.5259-0.107,3.3774
					c0.1577,2.835,0.7945,6.7427,2.8443,10.2998c3.917,6.7237,8.7104,7.919,9.0639,8.3418c0,0,0,0-0.3344,1.5323
					c-6.3516-0.7222-7.5562,2.7089-7.9537,2.7626l-0.0883,0.4322c1.3877,1.9961,0.1201,1.5044,2.3593,3.0967
					c1.356,0.8359,3.6958,1.1103,6.9317,1.4887c2.4658,0.2998,5.5312,0.6592,9.1201,1.3906
					c4.3457,0.8956,7.7959,2.1036,10.1675,3.0782L89.9673,98.8074C89.9673,98.8074,89.9673,98.8074,90.0117,97.6975z
					 M104.8149,131.3689l-4.2388-0.1924c-11.2143,0.3247-22.1259,8.7324-25.6455,18.4458c0,0,0,0,0.3848,1.8857
					c1.6904,1.0533,2.7627-0.9682,3.2422-0.7949l-0.0317,0.0884c0,0,0,0,0.7949-0.8799c1.7846-2.1821,5.5185-4.4087,6.8877-4.4087
					c0,0,0,0,0.6181,0.0728l0.2266,0.3843c0,0,0,0-0.5234,2.1225c0,0,0,0-0.8453,2.0845c0,0,0,0,1.6529,0.2021
					c1.5322-0.4668,3.8222-2.6206,5.6069-7.3037C94.7485,138.3572,97.7822,133.157,104.8149,131.3689z"/>
			</g>
			<g>
				<path fill="#F88C24" d="M141.479,157.2727c0,0,0,0-1.0977-0.6621c0,0,0,0-0.6621,1.1103
					c0.4795,2.7813,0.9463,3.2637,1.1104,10.3409c-0.7383,9.1611-7.02,10.6748-6.5156,13.6489
					c0.3027,1.6806,4.1943,3.2734,6.5532-1.9614c1.7031-3.8038,1.8291-8.6509,1.7725-11.0445
					C142.8603,162.8611,141.5674,157.6135,141.479,157.2727z"/>
			</g>
			<g>
				<path fill="#F88C24" d="M160.8364,167.781c-4.4468-4.1914-18.0644-16.0996-18.0644-16.0996s0,0,1.331,1.4443
					c0,0,0,0,1.3369,1.4541l-9.6817-10.1294c0,0,0,0-1.1099-0.0283c0,0,0,0-0.0254,1.1099l8.2246,8.5966c0,0,0,0-1.3306-1.2143
					c0,0,11.914,13.6084,16.1025,18.0615c3.6895,3.9229,5.853,6.4141,8.0293,5.5249l0.1572,0.1768l0.3345-0.4478l0.3784-0.2744
					l-0.164-0.1577C167.2505,173.6311,164.7593,171.4675,160.8364,167.781z"/>
			</g>
			<g>
				<path fill="#F88C24" d="M198.9829,113.3459c0,0,0,0-1.9238,0l-0.3282,0.107c0,0,0,0-0.7002,2.1098c0,0,0,0,0.3155,1.4258
					c0.1953,2.0244,0.1831,1.9644,0.29,3.0459l0.0635,0.0444c-0.2403,1.646-0.8833,3.4595-2.624,4.4781
					c-3.6016,2.1225-9.6441,2.6333-15.7998-2.2862l-4.3521-3.7592c-5.9858-5.3423-13.4536-11.9937-22.8135-12.3213
					c-6.0361-0.2017-11.8135,1.9018-15.8252,5.7837c-3.8032,3.6616-5.8027,8.518-5.8027,14.0463
					c0,5.4214,1.4888,9.5557,3.8159,12.5328c0,0,0,0-1.1919,1.1069c0,0,0,0-1.186,1.1099l-0.126,0.0883c0,0,0,0-1.1919,1.293
					c0,0,0,0-1.1987,1.293c-2.9766-2.3208-7.1143-3.8189-12.5449-3.8189c-5.5254,0-10.3819,2.0059-14.0464,5.7901
					c-3.8789,4.0332-5.9917,9.7949-5.7774,15.8437c0.315,9.354,6.9693,16.8091,12.3179,22.8106l3.7529,4.3486
					c4.9258,6.1499,4.4151,12.1982,2.2959,15.8062c-1.0215,1.725-2.8257,2.3745-4.478,2.6147l-0.0571-0.0635
					c-2.0244-0.1924-1.9551-0.1924-3.0337-0.2993c0,0,0,0-1.4444-0.3061c0,0,0,0-1.2929-0.0093c0,0,0,0-0.8013,0.7221l-0.126,0.3501
					c0,0,0,0,0,1.7974c0,0,0,0,0,1.7598c0,0,0,0,0,1.7597h0.126c0,0,0,0,1.5772,0c0,0,0,0,0.517,0c0,0,0,0,0-1.5927
					c0,0,0,0,0-1.5923c0,0,0,0,2.4224-0.5298c2.2324,0,4.0112-0.2207,5.79-1.6465c0,0,0,0,1.1666-0.9145c0,0,0,0,0.978-1.2583
					c2.3965-4.0557,3.0083-10.7979-2.4097-17.5845l-3.8096-4.4087c-5.4497-6.1089-11.6245-13.0342-11.9272-21.8267
					c-0.1953-5.6137,1.7598-10.9653,5.3486-14.6899c3.3555-3.4658,7.8272-5.3135,12.9112-5.3135
					c12.4629,0,16.8906,7.9375,16.8906,14.7334c0,8.1304-5.8277,11.773-11.5801,11.773c-2.6235,0-4.8501-0.8799-6.4521-2.5513
					c-1.6021-1.6714-2.4913-4.084-2.3843-6.4429c0.0693-1.8638,0.896-3.6235,2.2583-4.8218c0,0,0,0,1.1919-0.8012
					c0,0,0,0,1.3305-0.5015c0,0,0,0,1.8926,0.4922c0.9839,0.9868-1.1797,5.5977,1.564,6.4775
					c2.7563,0.8892,4.6108-2.0595,4.415-4.3115c-0.1762-2.1284-1.9487-4.1372-5.2666-4.374l-0.2583-0.044h-0.2842h-0.0752h-0.0253
					c-2.0625-0.0791-4.0054,0.5645-5.5127,1.8829c-1.6905,1.479-2.712,3.6425-2.8067,5.9316
					c-0.1137,2.7817,0.9336,5.623,2.8257,7.6035c1.8984,1.9805,4.522,3.0278,7.5874,3.0278c6.5469,0,13.1445-4.1186,13.1445-13.3403
					c0-4.1719-1.52-8.3633-4.7305-11.4507c0,0,0,0,1.0913-1.1699c0,0,0,0,1.0972-1.1792l0.019-0.019c0,0,0,0,1.2681-1.1797
					c0,0,0,0,1.2676-1.189c3.0908,3.2139,7.2783,4.7461,11.4604,4.7461c9.2212,0,13.3462-6.6099,13.3462-13.1567
					c0-3.0562-1.0537-5.6768-3.0401-7.5874c-1.9746-1.8926-4.8066-2.9493-7.5879-2.8262c-2.2958,0.1074-4.4531,1.126-5.935,2.8071
					c-1.3247,1.5073-1.9678,3.4595-1.8794,5.5093l-0.0127,0.0283l0.0127,0.0884l-0.0127,0.2808l0.0439,0.2553
					c0.2334,3.3179,2.2456,5.0869,4.3774,5.2696c2.2578,0.1958,5.1968-1.6714,4.3203-4.4151
					c-0.8892-2.7466-5.5-0.5893-6.4775-1.5674c0,0,0,0-0.4917-1.9013c0,0,0,0,0.4917-1.3218c0,0,0,0,0.8071-1.1856
					c1.1987-1.3652,2.9521-2.1918,4.8188-2.2705c2.3531-0.1074,4.7749,0.7823,6.44,2.3838
					c1.6714,1.6026,2.5605,3.8384,2.5605,6.4527c0,5.7617-3.6455,11.58-11.7817,11.58c-6.7993,0-14.7275-4.4277-14.7275-16.8877
					c0-5.0869,1.8291-9.5585,5.3169-12.9111c3.7148-3.5918,9.0635-5.5376,14.6773-5.3423
					c8.8047,0.2998,15.7241,6.4776,21.8296,11.9146l4.415,3.813c6.7803,5.4209,13.5225,4.8061,17.5781,2.4189c0,0,0,0,1.2554-0.9844
					c0,0,0,0,0.9209-1.1635c1.4253-1.7945,1.6524-3.5728,1.6524-5.7901c0,0,0,0,0.1323-1.5136c0,0,0,0,0.3789-0.899c0,0,0,0,1.583,0
					c0,0,0,0,1.583,0c0,0,0,0,0-0.5361c0,0,0,0,0-1.5737v-0.107c0,0,0,0-1.6968,0
					C200.6855,113.3459,200.6855,113.3459,198.9829,113.3459z"/>
			</g>
		</g>
	</g>
</g>
<g id="pumpkin-stamp-text">
	<g>
		<path fill="#EBD5B2" d="M294.4751,199.718c0.2143,0,0.2143,0.1069,0.2143,0.2109c0,0.4229-0.2143,1.1607-0.5298,1.1607
			l-3.1723,0.6343c-0.8389,0.1069-1.1607,0.52-1.1607,1.0468c-0.4228,7.0674-0.7378,24.1602-0.7378,26.0616
			c0,1.1513,0.2144,1.3623,1.1607,1.4697c5.1777,0.104,14.2417,0.3154,18.7827,0.2109c0.2085-3.2666-0.2144-25.6294-0.2144-26.8974
			c0-1.2642-0.3154-1.7847-1.1606-1.8916l-3.166-0.6343c-0.3154-0.104-0.5298-0.6304-0.5298-1.1607c0-0.104,0-0.2109,0.2144-0.2109
			h16.9853c0.2085,0,0.2085,0.1069,0.2085,0.3184c0,0.4228-0.2085,1.0532-0.4228,1.0532l-2.4283,0.5298
			c-0.7378,0.1045-1.0532,0.4228-1.1606,1.9961c-0.3154,3.7939-0.9522,21.3095-1.1602,27.9541
			c-0.1074,4.9546-0.6372,27.6323-0.6372,29.2089c0,1.2681,0.107,1.6905,0.8452,1.9019l3.3804,1.0566
			c0.2144,0,0.4229,0.5264,0.4229,0.9493c0,0.1069,0,0.2114-0.2085,0.2114c-0.9522-0.1045-4.333-0.2114-7.3858-0.2114
			c-3.6894,0-6.8559,0.1069-8.3379,0.2114c-0.3154,0-0.3154-0.1045-0.3154-0.2114c0-0.4229,0.2144-0.8453,0.5298-0.9493
			l3.5889-1.0566c0.6372-0.2114,0.8452-0.4224,0.9521-1.2676c0.2085-2.8447,0-26.3676,0-29.105
			c-4.8564,0.1041-14.5571,0.5201-18.9912,0.7315c-0.8452,0-1.0596,0.3154-1.0596,1.0566
			c-0.208,3.7998-0.6308,23.8413-0.4223,27.5284c0,0.7377,0.3212,1.0561,0.9521,1.1601l4.0117,0.9526
			c0.3213,0.104,0.5293,0.5264,0.5293,0.8418c0,0.2144,0,0.3189-0.208,0.3189c-1.9048-0.1045-4.6484-0.2114-8.5464-0.2114
			c-3.3745,0-6.1176,0.1069-7.7011,0.2114c-0.2144,0-0.2144-0.1045-0.2144-0.3189c0-0.3154,0.2144-0.7378,0.4229-0.8418
			l3.2734-0.9526c0.7441-0.2109,0.9521-0.4224,0.9521-1.583c0-3.4756-0.208-25.5225-0.208-29.5273
			c0-4.0054-0.4228-26.1568-0.4228-27.9512c0-1.1636-0.3213-1.8921-1.2676-1.999l-2.75-0.6343
			c-0.3154-0.104-0.5234-0.6304-0.5234-1.0532c0-0.2115,0-0.3184,0.3154-0.3184H294.4751z"/>
		<path fill="#EBD5B2" d="M348.352,199.6135c1.7979,0,3.4878,0,4.8506,0.1045c0.315,0,0.5293,0.1069,0.6367,0.4224
			c2.523,13.9233,8.7544,44.0849,12.4444,60.7426c0.208,1.0562,0.6308,1.7974,1.2675,1.9014l2.7373,0.8452
			c0.4229,0.1074,0.6309,0.6338,0.6309,1.0567c0,0.1069,0,0.2114-0.3154,0.2114c-2.1065-0.1045-4.8501-0.2114-6.9571-0.2114
			c-3.4814,0-6.4394,0.1069-9.2841,0.2114c-0.208,0-0.208-0.1045-0.208-0.2114c0-0.3155,0.1074-0.9493,0.5297-1.0567l4.3208-0.8452
			c0.7378-0.104,1.0528-0.6338,0.8448-1.479c-1.375-5.3677-3.6958-14.7651-5.0645-19.9248
			c-3.6836,0.1074-12.873,0.3188-16.5508,0.5298c-0.5293,0-0.8447,0.4228-0.9521,1.0469
			c-0.8452,4.6362-2.4282,12.7695-3.166,18.1367c-0.2149,1.375,0.208,1.5864,0.8447,1.6904l4.3208,0.8452
			c0.3154,0.1074,0.6304,0.5298,0.6304,1.0567c0,0.2114-0.107,0.2114-0.315,0.2114c-2.1069-0.1045-4.9575-0.2114-8.0166-0.2114
			c-2.643,0-4.9575,0.1069-6.5346,0.2114c-0.208,0-0.208-0.1045-0.208-0.3189c0-0.3154,0.1074-0.8418,0.4165-0.9492l2.3208-0.6338
			c0.8325-0.3154,1.2553-0.6338,1.6777-1.9018c3.8037-14.0274,11.5049-44.6113,15.5098-59.0518
			c0.4228-1.6904,1.476-2.4287,3.4878-2.4287H348.352z M346.1382,205.2019c-0.3218,1.4697-0.6372,2.9487-0.8453,3.791
			c-2.1127,8.8648-5.1655,21.9429-6.8496,29.1143c-0.1074,0.6338,0,0.8452,0.4165,0.9526
			c3.7906,0.3154,11.8194,0.7378,15.503,0.6304c-1.2676-5.7017-4.9512-21.5171-7.064-30.4859
			c-0.2144-1.1611-0.5298-2.5327-0.9526-4.0024H346.1382z"/>
		<path fill="#EBD5B2" d="M375.7573,201.9348c-0.4229,0-0.7383-0.5264-0.7383-1.1606c0-0.107,0.1074-0.211,0.3154-0.211
			c2.8575-0.4228,9.5938-1.268,16.9922-1.268c12.8545,0,19.4014,7.3764,19.4014,17.3989c0,10.1294-7.8027,21.0976-20.7764,21.0976
			c-0.9521,0-2.4287,0-3.2734-0.2114c-0.1074,3.8003-0.4229,21.4102-0.4229,23.5137c0,1.164,0.3155,1.375,1.0533,1.4795
			l5.4936,1.0561c0.3155,0.1074,0.5303,0.6338,0.5303,1.0567c0,0.1069,0,0.2114-0.2148,0.2114
			c-2.7432-0.1045-6.5469-0.2114-9.6124-0.2114c-2.8378,0-6.3134,0.1069-8.3256,0.2114c-0.208,0-0.208-0.1045-0.208-0.2114
			c0-0.4229,0.1069-0.8453,0.4223-0.9493l3.5889-0.9526c0.7383-0.2109,0.9526-0.4224,0.9526-1.583
			c0.107-4.0049-0.1069-25.6299-0.1069-30.1616c-0.1074-4.2163-0.3154-25.2134-0.3154-27.2129c0-1.1607-0.4229-1.6807-1.4761-1.6807
			L375.7573,201.9348z M390.7368,235.9944c5.2734,0,12.8672-5.377,12.8672-18.3482c0-8.8618-4.9512-16.6606-12.0215-16.6606
			c-2.6367,0-3.0596,0.8452-3.0596,1.8921c-0.5293,11.8198-0.8447,29.2187-0.8447,31.4262c0,1.2676,1.1602,1.6905,2.958,1.6905
			H390.7368z"/>
		<path fill="#EBD5B2" d="M418.9878,201.9348c-0.4229,0-0.7383-0.5264-0.7383-1.1606c0-0.107,0.1074-0.211,0.3154-0.211
			c2.8447-0.4228,9.6055-1.268,16.9795-1.268c12.8662,0,19.4131,7.3764,19.4131,17.3989c0,10.1294-7.8018,21.0976-20.7754,21.0976
			c-0.9531,0-2.4287,0-3.2676-0.2114c-0.1074,3.8003-0.4228,21.4102-0.4228,23.5137c0,1.164,0.3154,1.375,1.0468,1.4795
			l5.4815,1.0561c0.3213,0.1074,0.5293,0.6338,0.5293,1.0567c0,0.1069,0,0.2114-0.208,0.2114
			c-2.75-0.1045-6.5342-0.2114-9.5928-0.2114c-2.8516,0-6.3389,0.1069-8.3389,0.2114c-0.208,0-0.208-0.1045-0.208-0.2114
			c0-0.4229,0.1075-0.8453,0.4229-0.9493l3.583-0.9526c0.7373-0.2109,0.9453-0.4224,0.9453-1.583
			c0.1074-4.0049-0.1006-25.6299-0.1006-30.1616c-0.1074-4.2163-0.3154-25.2134-0.3154-27.2129
			c0-1.1607-0.4229-1.6807-1.4824-1.6807L418.9878,201.9348z M433.9673,235.9944c5.2724,0,12.8671-5.377,12.8671-18.3482
			c0-8.8618-4.9511-16.6606-12.0283-16.6606c-2.6299,0-3.0527,0.8452-3.0527,1.8921c-0.5303,11.8198-0.8389,29.2187-0.8389,31.4262
			c0,1.2676,1.1543,1.6905,2.9522,1.6905H433.9673z"/>
		<path fill="#EBD5B2" d="M502.7104,199.718c0.3213,0,0.3213,0.1069,0.3213,0.2109c0,0.6343-0.2139,1.0567-0.5293,1.1607
			l-1.4697,0.5298c-0.9522,0.2114-1.375,0.6245-1.9053,1.7851c-4.2129,9.6026-10.4443,24.794-13.6045,32.167
			c-0.7314,1.5864-1.0469,2.6431-1.1543,4.4375c-0.3154,5.2695-0.208,18.2437-0.208,21.5078c0,0.9522,0.208,1.1636,0.8457,1.375
			l3.6768,0.8452c0.3154,0.104,0.5303,0.5264,0.5303,0.9493c0,0.1069,0,0.2114-0.3165,0.2114
			c-2.5283-0.1045-5.0517-0.2114-8.0097-0.2114c-2.958,0-6.1182,0.1069-8.0166,0.2114c-0.2139,0-0.2139-0.1045-0.2139-0.2114
			c0-0.4229,0.1065-0.8453,0.5293-0.9493l3.6895-0.9526c0.7382-0.104,0.8457-0.4224,0.8457-1.583
			c0-3.4756-0.3223-17.0835-0.5303-21.1924c-0.1065-1.164-0.5293-2.2173-0.8447-3.1694
			c-3.375-8.5371-9.1709-23.1983-13.5039-33.9619c-0.3155-0.5264-0.9463-1.1538-1.6778-1.2583l-2.0058-0.5298
			c-0.4229-0.104-0.5303-0.7378-0.5303-1.1607c0-0.104,0-0.2109,0.3154-0.2109h17.7178c0.2139,0,0.3154,0.1069,0.3154,0.2109
			c0,0.6343-0.3154,1.1607-0.6308,1.1607l-3.583,0.6343c-0.5293,0.1069-0.9522,0.4223-0.6309,1.3652
			c2.6367,8.7578,6.6416,20.6719,9.2842,28.4805c0.3164,0.7382,0.9463,2.8418,1.2685,4.1093h0.4229
			c0.5234-1.583,1.1601-3.267,1.4756-4.1093c2.9453-8.1236,6.3193-18.2437,8.956-27.9541c0.3223-1.2642,0.2149-1.6807-0.5234-1.7847
			l-3.6963-0.7412c-0.4229,0-0.6367-0.6304-0.6367-1.0532c0-0.2115,0-0.3184,0.3154-0.3184H502.7104z"/>
	</g>
	<g>
		<path fill="#EBD5B2" d="M197.5571,749.4426c0.2148,0,0.2148,0.1133,0.2148,0.2148c0,0.4287-0.2148,1.1602-0.5302,1.1602
			l-3.1597,0.6309c-0.8452,0.1133-1.1606,0.5293-1.1606,1.0596c-0.4229,7.0645-0.7315,24.1573-0.7315,26.0489
			c0,1.1611,0.2017,1.375,1.1543,1.4765c5.1655,0.1133,14.2417,0.3282,18.7705,0.2139c0.2144-3.2666-0.2085-25.6201-0.2085-26.8945
			c0-1.2607-0.3154-1.791-1.1606-1.9043l-3.1597-0.6309c-0.3154-0.1006-0.5298-0.6309-0.5298-1.1602
			c0-0.1016,0-0.2148,0.2144-0.2148h16.9731c0.2144,0,0.2144,0.1133,0.2144,0.3154c0,0.4287-0.2144,1.0596-0.4229,1.0596
			l-2.4218,0.5303c-0.7378,0.1006-1.0596,0.4287-1.1607,2.0049c-0.3154,3.8105-0.9521,21.3066-1.1601,27.9542
			c-0.1011,4.958-0.6309,27.6386-0.6309,29.2158c0,1.2744,0.1069,1.6904,0.8389,1.9043l3.3681,1.0478
			c0.2144,0,0.4224,0.5293,0.4224,0.9454c0,0.1142,0,0.2148-0.208,0.2148c-0.94-0.1006-4.3145-0.2148-7.3736-0.2148
			c-3.6958,0-6.8559,0.1142-8.3378,0.2148c-0.3155,0-0.3155-0.1006-0.3155-0.2148c0-0.4161,0.2144-0.8448,0.5298-0.9454
			l3.5825-1.0478c0.6309-0.2139,0.8452-0.4287,0.9463-1.2734c0.2144-2.8516,0-26.3653,0-29.1016
			c-4.8442,0.1006-14.5576,0.5166-18.979,0.7314c-0.8452,0-1.0469,0.3155-1.0469,1.0596
			c-0.2143,3.7969-0.6372,23.8291-0.4223,27.5244c0,0.7451,0.3149,1.0596,0.9394,1.1612l4.0049,0.9462
			c0.3154,0.1006,0.5239,0.5293,0.5239,0.8448c0,0.2148,0,0.3154-0.2085,0.3154c-1.892-0.1006-4.6357-0.2148-8.54-0.2148
			c-3.374,0-6.124,0.1142-7.6948,0.2148c-0.2144,0-0.2144-0.1006-0.2144-0.3154c0-0.3155,0.2144-0.7442,0.4229-0.8448l3.2671-0.9462
			c0.7378-0.2022,0.9458-0.4161,0.9458-1.5772c0-3.4941-0.208-25.5322-0.208-29.543c0-4.0117-0.4229-26.1504-0.4229-27.9541
			c0-1.1602-0.3149-1.8926-1.2676-2.0059l-2.7373-0.6309c-0.3154-0.1006-0.5298-0.6309-0.5298-1.0596
			c0-0.2021,0-0.3154,0.3218-0.3154H197.5571z"/>
		<path fill="#EBD5B2" d="M251.4468,749.342c1.7851,0,3.4755,0,4.8505,0.1006c0.315,0,0.5293,0.1133,0.6304,0.4287
			c2.5357,13.9268,8.7485,44.0889,12.4443,60.7647c0.2144,1.0468,0.6373,1.791,1.2681,1.8926l2.75,0.8447
			c0.4224,0.1015,0.6304,0.6308,0.6304,1.0469c0,0.1142,0,0.2148-0.3154,0.2148c-2.1128-0.1006-4.8565-0.2148-6.9693-0.2148
			c-3.4756,0-6.4272,0.1142-9.2783,0.2148c-0.208,0-0.208-0.1006-0.208-0.2148c0-0.3155,0.1006-0.9454,0.5234-1.0469l4.3267-0.8447
			c0.7383-0.1016,1.0532-0.6309,0.8389-1.4766c-1.3624-5.3858-3.6832-14.7715-5.0582-19.9434
			c-3.6962,0.1133-12.8671,0.3155-16.5629,0.5303c-0.5298,0-0.8453,0.416-0.9527,1.0596
			c-0.8452,4.6416-2.4155,12.7529-3.1601,18.1396c-0.208,1.375,0.2148,1.5889,0.8457,1.6905l4.3266,0.8447
			c0.3155,0.1015,0.6304,0.5176,0.6304,1.0469c0,0.2148-0.1069,0.2148-0.3149,0.2148c-2.1128-0.1006-4.9576-0.2148-8.0103-0.2148
			c-2.6431,0-4.9639,0.1142-6.5469,0.2148c-0.2148,0-0.2148-0.1006-0.2148-0.3154c0-0.3155,0.1074-0.8448,0.4228-0.9463
			l2.3272-0.6436c0.8452-0.3027,1.2681-0.6172,1.6904-1.8916c3.791-14.0273,11.4922-44.6181,15.5034-59.0615
			c0.4224-1.6904,1.4698-2.4346,3.4751-2.4346H251.4468z M249.2329,754.9426c-0.3218,1.4766-0.6372,2.9521-0.8389,3.7842
			c-2.1128,8.8682-5.1719,21.9503-6.8623,29.1143c-0.1074,0.6435,0,0.8457,0.4229,0.9589
			c3.7968,0.3155,11.8071,0.7325,15.5029,0.6182c-1.2676-5.6885-4.9639-21.5078-7.064-30.4766
			c-0.2143-1.1475-0.5298-2.5225-0.9526-3.999H249.2329z"/>
		<path fill="#EBD5B2" d="M297.4145,749.4426c0.2144,0,0.2144,0.1133,0.2144,0.2148c0,0.4287-0.2144,0.9453-0.5298,1.0596
			l-3.4756,0.7314c-1.0596,0.2148-1.375,1.0596-1.4819,2.2207c-0.4229,6.0166-0.8452,21.3057-1.0532,26.6924
			c-0.1011,4.3261-0.524,29.3154-0.524,31.2207c0,0.9463,0.4229,1.1474,1.1543,1.1474c3.69,0,9.2847-0.3027,13.2896-0.9326
			c1.2676-0.3154,2.1128-0.8457,2.6426-1.9053l4.1064-7.8086c0.1069-0.1005,0.2144-0.1005,0.3213-0.1005
			c0.2085,0,0.8452,0.6308,0.8452,0.832l-2.0054,11.0762c-0.1074,0.5293-0.4228,0.8447-0.8452,0.8447
			c-0.4228,0-2.4223-0.1006-6.2192-0.2012c-3.6963,0-9.0825-0.1142-16.3487-0.1142c-2.6425,0-5.0708,0.1142-8.5459,0.2148
			c-0.2084,0-0.2084-0.1006-0.2084-0.3154c0-0.3155,0.2084-0.8448,0.5234-0.9463l3.4756-0.7315
			c0.7441-0.2148,1.0595-0.5293,1.0595-1.6904c0.107-3.4941-0.1074-25.5322-0.1074-29.543c0-4.0117,0-25.3057-0.208-27.626
			c0-1.1611-0.3218-2.0059-1.375-2.334l-3.0527-0.7314c-0.3154-0.1143-0.4224-0.6309-0.4224-1.0596c0-0.1016,0-0.2148,0.208-0.2148
			H297.4145z"/>
		<path fill="#EBD5B2" d="M337.6987,749.4426c0.2085,0,0.2085,0.1133,0.2085,0.2148c0,0.4287-0.2085,0.9453-0.5298,1.0596
			l-3.4756,0.7314c-1.0532,0.2148-1.3686,1.0596-1.4756,2.2207c-0.4228,6.0166-0.8452,21.3057-1.0595,26.6924
			c-0.1011,4.3261-0.5235,29.3154-0.5235,31.2207c0,0.9463,0.4224,1.1474,1.1602,1.1474c3.6836,0,9.272-0.3027,13.2895-0.9326
			c1.2681-0.3154,2.1128-0.8457,2.6363-1.9053l4.1064-7.8086c0.1006-0.1005,0.208-0.1005,0.3154-0.1005
			c0.2081,0,0.8448,0.6308,0.8448,0.832l-1.999,11.0762c-0.1075,0.5293-0.4229,0.8447-0.8453,0.8447
			c-0.4228,0-2.4223-0.1006-6.2192-0.2012c-3.6958,0-9.0762-0.1142-16.3545-0.1142c-2.6431,0-5.0586,0.1142-8.5342,0.2148
			c-0.2143,0-0.2143-0.1006-0.2143-0.3154c0-0.3155,0.2143-0.8448,0.5298-0.9463l3.4755-0.7315
			c0.7378-0.2148,1.0533-0.5293,1.0533-1.6904c0.1069-3.4941-0.1011-25.5322-0.1011-29.543c0-4.0117,0-25.3057-0.2144-27.626
			c0-1.1611-0.3154-2.0059-1.375-2.334l-3.0527-0.7314c-0.3154-0.1143-0.4224-0.6309-0.4224-1.0596c0-0.1016,0-0.2148,0.2144-0.2148
			H337.6987z"/>
		<path fill="#EBD5B2" d="M375.7573,815.2659c-10.4326,0-17.5093-9.4991-17.5093-29.9473c0-20.4737,7.4995-36.7081,20.6817-36.7081
			c11.9145,0,17.396,12.4502,17.396,30.4766c0,23.627-8.4395,36.1788-20.461,36.1788H375.7573z M377.0249,813.5754
			c7.165,0,11.3911-12.7539,11.3911-33.8574c0-15.0742-2.6431-29.5312-10.2241-29.5312c-8.1367,0-12.0215,16.1348-12.0215,34.3877
			c0,18.2403,4.415,29.001,10.7539,29.001H377.0249z"/>
		<path fill="#EBD5B2" d="M421.4096,812.1125c0.3155-1.1611,0.5293-2.4355,0.8448-3.5957
			c2.958-13.081,9.0634-39.9756,11.8134-54.3184c0.4229-2.0059,0.7383-2.2207,3.375-2.4219
			c0.7442-0.1133,1.7969-0.1133,2.1124-0.1133c0.4228,0,0.6376,0.1133,0.6376,0.4287c1.4698,8.54,7.3731,43.2432,9.9082,56.6397
			c0.2081,1.1601,0.4229,2.3203,0.7383,3.3808h0.3155c0.2148-1.0605,0.4228-2.1201,0.6367-3.2802
			c2.1133-12.9678,5.7969-39.9756,7.2666-55.2647c0.2138-1.4756,0-1.9043-0.7383-2.1191l-4.3076-0.6309
			c-0.3223,0-0.4229-0.6309-0.4229-1.0596c0-0.2021,0-0.3154,0.208-0.3154h14.7588c0.2149,0,0.2149,0.1133,0.2149,0.3154
			c0,0.5303-0.1075,0.959-0.416,1.0596l-2.1133,0.6309c-0.7383,0.2148-1.0537,0.959-1.2676,1.5898
			c-1.6904,8.3379-9.8145,51.9971-11.7061,59.4903c-0.5234,1.8916-1.1611,2.0058-4.9648,2.1064h-2.4277
			c-0.4229,0-0.6309-0.2148-0.7383-0.5303c-1.999-8.7539-6.8496-30.8926-8.5332-40.3916c-0.2149-0.959-0.6377-3.3681-0.9531-6.4336
			h-0.5293c-0.5303,3.2676-1.1602,5.5889-1.5831,7.3799c-1.8984,7.4932-7.7958,31.0068-10.2246,38.1846
			c-0.5293,1.5762-1.0595,1.6904-5.3857,1.791h-2.1074c-0.4219,0-0.5293-0.1006-0.7373-0.6309
			c-2-9.3974-7.1719-49.0459-8.8623-61.5967c-0.1075-0.6309-0.2139-0.959-0.8448-1.0596l-2.5293-0.5303
			c-0.4228,0-0.5234-0.6309-0.5234-1.1602c0-0.1016,0.1006-0.2148,0.3154-0.2148h17.8184c0.2139,0,0.2139,0.1133,0.2139,0.2148
			c0,0.5293-0.2139,1.1602-0.5293,1.1602l-4.1065,0.5303c-0.6367,0.1006-1.0596,0.5293-1.0596,1.2734
			c0.5303,8.8555,3.7969,41.8682,5.4815,55.2647c0.1064,1.1611,0.3213,2.75,0.5293,4.2265H421.4096z"/>
		<path fill="#EBD5B2" d="M505.353,814.219c-0.1074,0.416-0.3154,0.6308-0.8447,0.6308c-0.4229,0-1.8985-0.1142-5.2793-0.2148
			c-3.4883-0.1006-8.8555-0.2148-17.1875-0.2148c-2.75,0-6.0108,0.1142-8.5469,0.2148c-0.2139,0-0.2139-0.1006-0.2139-0.2148
			c0-0.3155,0.1075-0.9454,0.5293-1.0469l3.4883-0.8447c0.6309-0.1016,1.0537-0.5303,1.0537-1.6905
			c0.2139-3.166,0-26.4658,0-30.4765c-0.1074-4.0245-0.1074-24.5733-0.3154-27.0089c-0.1074-1.1602-0.3154-1.6895-1.2686-1.9043
			l-3.166-0.7314c-0.3213-0.1143-0.4218-0.6309-0.4218-1.0596c0-0.2148,0-0.3154,0.208-0.3154c1.8984,0,5.1777,0.1006,8.0166,0.1006
			c16.3418,0,21.6269-0.2012,22.788-0.2012c0.5293,0,0.6309,0.2012,0.6309,0.7314l0.2139,10.5576
			c0,0.417-0.6367,0.8457-0.9522,0.8457c-0.1074,0-0.208,0-0.3154-0.2148c-0.8447-2.7373-1.9043-5.2725-2.8506-8.0225
			c-0.3223-0.8447-1.0596-1.0469-2.1133-1.2617c-2.958-0.3154-9.1709-0.8447-11.1767-0.7441c-0.8448,0-0.9522,0.2148-0.9522,0.6436
			c-0.5293,6.9502-1.0537,24.6738-0.9521,27.7393c6.3388,0.2021,14.0332,0.5175,16.247,0.5175c0.2149,0,0.2149,0.1133,0.2149,0.2139
			c0,0.5303-0.4229,1.375-0.7442,1.375c-2.2138,0.2148-9.6943,0.4297-14.7656,0.7441c-0.9521,0.1016-1.1601,0.417-1.1601,1.1612
			c-0.1075,3.8974-0.5303,25.7334-0.5303,27.7392c0,1.0596,0.2148,1.375,0.9521,1.375c4.6495,0,9.4932-0.2148,14.1348-0.8447
			c1.1611-0.2148,1.8984-0.7451,2.4287-1.6904c1.2676-2.2207,2.5352-4.542,3.6895-6.7617c0.1015-0.2149,0.208-0.2149,0.3154-0.2149
			c0.3154,0,0.9463,0.5303,0.8457,0.959L505.353,814.219z"/>
		<path fill="#EBD5B2" d="M545.8393,814.219c-0.1064,0.416-0.3213,0.6308-0.8447,0.6308c-0.4228,0-1.9043-0.1142-5.2734-0.2148
			c-3.4746-0.1006-8.8614-0.2148-17.1866-0.2148c-2.75,0-6.0234,0.1142-8.5468,0.2148c-0.2139,0-0.2139-0.1006-0.2139-0.2148
			c0-0.3155,0.1064-0.9454,0.5293-1.0469l3.4756-0.8447c0.6367-0.1016,1.0596-0.5303,1.0596-1.6905c0.208-3.166,0-26.4658,0-30.4765
			c-0.1075-4.0245-0.1075-24.5733-0.3223-27.0089c-0.1006-1.1602-0.3145-1.6895-1.2676-1.9043l-3.1533-0.7314
			c-0.3214-0.1143-0.4229-0.6309-0.4229-1.0596c0-0.2148,0-0.3154,0.208-0.3154c1.8985,0,5.1661,0.1006,8.0166,0.1006
			c16.3555,0,21.6153-0.2012,22.7764-0.2012c0.5293,0,0.6367,0.2012,0.6367,0.7314l0.208,10.5576
			c0,0.417-0.6308,0.8457-0.9462,0.8457c-0.1075,0-0.2139,0-0.3213-0.2148c-0.8457-2.7373-1.8926-5.2725-2.8389-8.0225
			c-0.3213-0.8447-1.0596-1.0469-2.1064-1.2617c-2.9581-0.3154-9.1895-0.8447-11.1827-0.7441c-0.8447,0-0.9521,0.2148-0.9521,0.6436
			c-0.5303,6.9502-1.0537,24.6738-0.9531,27.7393c6.333,0.2021,14.0341,0.5175,16.248,0.5175c0.2149,0,0.2149,0.1133,0.2149,0.2139
			c0,0.5303-0.4229,1.375-0.7442,1.375c-2.2148,0.2148-9.707,0.4297-14.7656,0.7441c-0.9531,0.1016-1.1543,0.417-1.1543,1.1612
			c-0.1016,3.8974-0.5234,25.7334-0.5234,27.7392c0,1.0596,0.208,1.375,0.9394,1.375c4.6357,0,9.4922-0.2148,14.1348-0.8447
			c1.1601-0.2148,1.8984-0.7451,2.416-1.6904c1.2676-2.2207,2.5351-4.542,3.7021-6.7617c0.1006-0.2149,0.208-0.2149,0.3155-0.2149
			c0.3154,0,0.9463,0.5303,0.8447,0.959L545.8393,814.219z"/>
		<path fill="#EBD5B2" d="M566.6098,749.4426c0.5235,0,0.6241,0.1133,0.8321,0.5303c2.959,8.1357,14.2422,38.9287,18.455,50.5342
			c0.4229,1.0468,1.0605,2.8379,1.584,4.3134l0.4219-0.3154v-4.6416c-0.1006-11.1767-0.208-41.54-0.5234-46.4092
			c-0.1075-1.2617-0.6367-1.791-1.6905-2.0059l-3.4746-0.7314c-0.4228-0.1143-0.5302-0.4287-0.5302-0.959
			c0-0.2021,0-0.3154,0.208-0.3154h13.8193c0.2148,0,0.2148,0.1133,0.2148,0.3154c0,0.5303-0.2148,0.959-0.5302,1.0596
			l-2.2071,0.6309c-0.9531,0.3281-1.375,0.4287-1.4824,2.334c-0.1074,2.7373-0.7383,20.4609-1.0537,27.3105
			c-0.1074,4.125-0.5293,27.3232-0.7441,33.126c0,0.3154,0,0.416-0.3155,0.5166c-0.6308,0.2148-1.791,0.4297-2.5351,0.4297
			c-0.6309,0-1.1612-0.2149-1.583-0.9463c-4.7432-10.7735-15.4971-36.6074-21.2998-51.5938c-0.417-0.833-0.9463-2.208-1.3692-3.4697
			l-0.5293,0.1016v3.582c-0.208,9.915-0.7383,43.2559-0.7383,48.1123c0,1.0469,0.2081,1.375,0.8448,1.4756l4.542,0.9463
			c0.208,0.1015,0.5166,0.6308,0.5166,1.0469c0,0.1142,0,0.2148-0.208,0.2148c-1.8916-0.1006-4.7432-0.2148-6.7549-0.2148
			c-2.0059,0-4.3203,0.1142-6.1113,0.2148c-0.2149,0-0.2149-0.1006-0.2149-0.3154c0-0.3155,0.2149-0.8448,0.5293-0.9463
			l3.3682-0.8447c0.6377-0.2022,0.9531-0.5303,0.9531-1.6905c0.1064-3.4814-0.208-25.1035-0.208-29.5312
			c0-4.0108-0.4229-25.1026-0.5303-27.5245c0-1.1611-0.4228-1.9053-1.4697-2.2207l-3.0654-0.6309
			c-0.4102-0.1133-0.6241-0.6426-0.6241-1.1729c0-0.2021,0-0.3154,0.3155-0.3154H566.6098z"/>
	</g>
</g>
</svg>
