<?xml version="1.0" encoding="utf-8"?>
<!-- Generator: Adobe Illustrator 17.1.0, SVG Export Plug-In . SVG Version: 6.00 Build 0)  -->
<!DOCTYPE svg PUBLIC "-//W3C//DTD SVG 1.1//EN" "http://www.w3.org/Graphics/SVG/1.1/DTD/svg11.dtd">
<svg version="1.1" id="spider-web-stamp" xmlns="http://www.w3.org/2000/svg" xmlns:xlink="http://www.w3.org/1999/xlink" x="0px"
	 y="0px" viewBox="0 0 776.9204 1010.0001" enable-background="new 0 0 776.9204 1010.0001" xml:space="preserve">
<g id="spider-web-stamp-stamp">
	<path id="spider-web-stamp-stamp_1_" fill="#F3E6D1" d="M776.9204,55.8263h-0.0508c0.0313-0.2305,0.0508-0.4326,0.0508-0.6626
		c0-8.9658-13.9395-10.9556-20.1143-16.8531c-5.0019-6.4775-1.6592-15.7807,9.4678-28.3198
		C765.8315,8.3165,751.893,0.0724,737.1968,0c-0.0186,0-0.0381,0.019-0.0567,0.019C737.1089,0.019,737.0395,0,737.02,0
		c-6.6913-0.0156-10.1611,4.4277-13.5038,9.0225c-3.4815,4.7431-6.8438,9.6191-13.5547,9.934l0,0
		c-0.1572,0.0191-0.334,0.0191-0.4912,0.0191C695.5688,18.9757,695.5688,0,681.6421,0c-13.8506,0-13.8506,18.9756-27.7393,18.9756
		C639.9946,18.9757,639.9946,0,626.1128,0c-13.958,0-13.958,18.9756-27.9346,18.9756C584.27,18.9757,584.27,0,570.3501,0
		c-13.9082,0-13.9082,18.9756-27.8662,18.9756S528.5259,0,514.5493,0c-13.9766,0-13.9766,18.9756-27.9356,18.9756
		C472.6567,18.9757,472.6567,0,458.6792,0c-13.9893,0-13.9893,18.9756-27.9668,18.9756C416.7358,18.9757,416.7358,0,402.7466,0
		c-13.9585,0-13.9585,18.9756-27.9039,18.9756C360.9038,18.9757,360.9038,0,346.9643,0c-13.958,0-13.958,18.9756-27.916,18.9756
		C305.0903,18.9757,305.0903,0,291.1635,0c-14.0083,0-14.0083,18.9756-28.0039,18.9756C249.2016,18.9757,249.2016,0,235.2622,0
		c-13.9771,0-13.9771,18.9756-27.9541,18.9756C193.3374,18.9757,193.3374,0,179.3608,0c-13.958,0-13.958,18.9756-27.935,18.9756
		C137.4487,18.9757,137.4487,0,123.4399,0c-13.9263,0-13.9263,18.9756-27.8843,18.9756C81.5659,18.9757,81.5659,0,67.5703,0
		c-13.958,0-13.958,18.9756-27.9351,18.9756c-14.2231,0-22.1577-6.1338-27.8974-8.7388C8.1489,8.5909,0,24.0528,0,32.0353
		c0,0.2299,0.0127,0.4506,0.0317,0.6777h-0.019c0,1.0029,0.1958,1.9267,0.5112,2.7563c0.0186,0.0503,0.0376,0.104,0.0752,0.167l0,0
		c3.1665,8.9248,18.1968,8.9502,21.874,17.2222c0.3213,0.8359,0.4917,1.7344,0.4917,2.7187C22.9648,67.047,0,67.047,0,78.5226
		c0,0.3344,0.0127,0.6689,0.0508,0.9843H0.0127c0.0571,11.2744,22.4287,11.4258,22.9399,22.46
		C22.4223,113.0743,0,113.2257,0,124.541c0,0.1416,0.0127,0.2739,0.0127,0.3877c0,0.1323-0.0127,0.2461-0.0127,0.3877
		c0,11.4067,22.4038,11.5391,22.9526,22.6528C22.4038,159.0953,0,159.2438,0,170.6158c0,0.1387,0.0127,0.2554,0.0127,0.3687
		c0,0.1137-0.0127,0.2207-0.0127,0.3535c0,11.3877,22.4917,11.52,22.9526,22.6968C22.4917,205.2207,0,205.334,0,216.7408
		c0,0.1323,0.0127,0.2368,0.0127,0.3345c0,0.1133-0.0127,0.2207-0.0127,0.334c0,11.4414,22.5298,11.5552,22.9526,22.7597
		C22.5298,251.3896,0,251.5128,0,262.9449c0,0.104,0.0127,0.1861,0.0127,0.2998c0,0.0884-0.0127,0.1826-0.0127,0.2901
		c0,11.4507,22.4917,11.5551,22.9526,22.7758C22.4917,297.4806,0,297.5938,0,309.001c0,0.123,0.0127,0.2363,0.0127,0.3686
		c0,0.1138-0.0127,0.2368-0.0127,0.3501c0,11.4068,22.4731,11.5391,22.9526,22.6812C22.4731,343.5522,0,343.6847,0,355.0724
		c0,0.1045,0.0127,0.2368,0.0127,0.3535c0,0.123-0.0127,0.2173-0.0127,0.3686c0,11.4068,22.4917,11.5205,22.9526,22.7159
		C22.4917,389.6964,0,389.8097,0,401.2169c0,0.0942,0.0127,0.2173,0.0127,0.3154c0,0.0977-0.0127,0.2017-0.0127,0.334
		c0,11.4224,22.4917,11.5547,22.9526,22.7598c-0.4609,11.1767-22.7949,11.3247-22.9399,22.6435l0,0v0.0186
		c0,0.0156-0.0127,0.0537-0.0127,0.0884c0,0.1137,0.0127,0.1923,0.0127,0.2998c0,0.1133-0.0127,0.2109-0.0127,0.3149
		c0,11.3882,22.227,11.5742,22.9336,22.5928C22.353,481.584,0,481.751,0,493.0602c0,0.0791,0.0127,0.1518,0.0127,0.2397
		c0,0.0791-0.0127,0.1484-0.0127,0.2271c0,0.1137,0.0127,0.2207,0.0127,0.3344c0,0.0723,0,0.1324,0,0.1861l0,0
		c0,0.0156,0,0.0156,0,0.0156c0,0.0381-0.0127,0.063-0.0127,0.0981c0,11.3433,22.1767,11.5391,22.9145,22.4951
		C22.1958,527.6182,0,527.7949,0,539.085c0,0.1005,0.0127,0.208,0.0127,0.2959c0,0.0888-0.0127,0.1767-0.0127,0.2841h0.0127
		c0,0.0625-0.0127,0.1202-0.0127,0.1885c0,0.0889,0.0127,0.1641,0.0127,0.2276c0,0.0887-0.0127,0.1639-0.0127,0.2334
		c0,11.3339,22.1767,11.5234,22.9145,22.498C22.019,573.6357,0,573.876,0,585.166c0,0.1387,0.0127,0.2266,0.0127,0.3526
		c0,0.1386-0.0127,0.2402-0.0127,0.3662c0,0.0693,0.0127,0.1767,0.0127,0.2773c0,0.0879-0.0127,0.1768-0.0127,0.2842h0.0317
		c0.7378,10.8291,22.46,11.1445,22.9209,22.126C22.4917,619.7676,0,619.8555,0,631.2969c0,0.1269,0.0127,0.2275,0.0127,0.3349
		c0,0.1065-0.0127,0.208-0.0127,0.3155c0,11.4218,22.5298,11.5478,22.9526,22.7627C22.5298,665.9365,0,666.0381,0,677.4796
		c0,0.1133,0.0127,0.2139,0.0127,0.3027c0,0.1065-0.0127,0.1953-0.0127,0.3028c0,11.416,22.4917,11.5615,22.9526,22.7695
		C22.4917,712.0176,0,712.1562,0,723.5294c0,0.1445,0.0127,0.2451,0.0127,0.3848c0,0.1132-0.0127,0.2138-0.0127,0.3711
		c0,11.373,22.4731,11.499,22.9526,22.6562C22.4731,758.0997,0,758.2256,0,769.6094c0,0.1201,0.0127,0.2461,0.0127,0.3535
		C0.0127,770.0831,0,770.209,0,770.335c0,11.4033,22.4917,11.5302,22.9526,22.706C22.4917,804.2305,0,804.3564,0,815.7607
		c0,0.0879,0.0127,0.1954,0.0127,0.3155c0,0.1133-0.0127,0.2011-0.0127,0.3027c0,11.46,22.4917,11.5674,22.9526,22.7939
		C22.4917,850.3682,0,850.4883,0,861.9297c0,0.0879,0.0127,0.1953,0.0127,0.3027c0,0.1016-0.0127,0.1895-0.0127,0.3155
		c0,11.4414,22.4917,11.5488,22.9526,22.7568C22.4917,896.5186,0,896.6456,0,908.0674c0,0.1201,0.0127,0.208,0.0127,0.2969
		c0,0.1074-0.0127,0.2138-0.0127,0.3154c0,11.4414,22.4917,11.5488,22.9526,22.7627C22.4917,942.6505,0.0127,942.7764,0,954.2178
		h0.0317C0.0127,954.4072,0,954.6221,0,954.874c0,8.9375,13.9204,10.9434,20.0825,16.8213
		c5.0146,6.4776,1.6714,15.7871-9.4736,28.3262c0.4795,1.6904,14.4375,9.9277,29.1337,9.9785c0,0,0,0,0.0186,0
		c0.0508,0,0.0884,0,0.1201,0c6.6919,0.0127,10.1612-4.4023,13.5352-9.0137c3.4692-4.749,6.831-9.6308,13.5356-9.9277l0,0
		c0.145-0.0186,0.3218-0.0313,0.4981-0.0313c13.9013,0,13.9013,18.9727,27.79,18.9727s13.8887-18.9727,27.7774-18.9727
		c13.8696,0,13.8696,18.9727,27.79,18.9727c13.977,0,13.977-18.9727,27.9536-18.9727c13.8701,0,13.8701,18.9727,27.7773,18.9727
		c13.9395,0,13.9395-18.9727,27.8975-18.9727c13.958,0,13.958,18.9727,27.916,18.9727c13.9771,0,13.9771-18.9727,27.9351-18.9727
		c13.977,0,13.977,18.9727,27.935,18.9727c13.9893,0,13.9893-18.9727,27.9664-18.9727c13.977,0,13.977,18.9727,27.9858,18.9727
		c13.958,0,13.958-18.9727,27.9033-18.9727c13.9395,0,13.9395,18.9727,27.8779,18.9727c13.958,0,13.958-18.9727,27.9161-18.9727
		c13.958,0,13.958,18.9727,27.8847,18.9727c13.9903,0,13.9903-18.9727,27.9668-18.9727c13.9766,0,13.9766,18.9727,27.9346,18.9727
		c13.9902,0,13.9902-18.9727,27.9482-18.9727s13.958,18.9727,27.9346,18.9727c13.9775,0,13.9775-18.9727,27.9541-18.9727
		c13.9766,0,13.9766,18.9727,27.9669,18.9727c13.9453,0,13.9453-18.9727,27.9033-18.9727c13.9707,0,13.9707,18.9727,27.9668,18.9727
		c13.9766,0,13.9766-18.9727,27.9531-18.9727c14.2364,0,22.1582,6.1436,27.8789,8.7608c3.626,1.6338,11.7569-13.832,11.7569-21.792
		c0-0.2451-0.0195-0.4727-0.0195-0.7061h0.0195c-0.0195-0.9834-0.2276-1.8984-0.5235-2.7373
		c-0.0566-0.0752-0.0566-0.1132-0.0761-0.164v-0.0127c-3.1856-8.9307-18.2149-8.9619-21.8926-17.2002
		c-0.3027-0.8447-0.4922-1.7471-0.4922-2.7305c0-11.4726,22.9844-11.4726,22.9844-22.9521c0-0.3467-0.0195-0.669-0.0694-0.9844
		h0.0694c-0.0889-11.2647-22.4229-11.4414-22.9522-22.4795c0.5293-11.0879,22.9522-11.207,22.9522-22.5605
		c0-0.126-0.0195-0.2646-0.0195-0.3721c0-0.1455,0.0195-0.2461,0.0195-0.3848c0-11.4101-22.4229-11.5488-22.9522-22.6562
		c0.5293-11.1065,22.9522-11.2832,22.9522-22.668c0-0.1074-0.0195-0.2529-0.0195-0.3721c0-0.0888,0.0195-0.208,0.0195-0.3535
		c0-11.3721-22.4922-11.4922-22.9522-22.6748c0.46-11.208,22.9522-11.3154,22.9522-22.7188c0-0.126-0.0195-0.2276-0.0195-0.334
		c0-0.1201,0.0195-0.208,0.0195-0.335c0-11.4287-22.5303-11.5294-22.9522-22.7441c0.4219-11.2266,22.9522-11.334,22.9522-22.7754
		c0-0.1074-0.0195-0.208-0.0195-0.2959c0-0.1074,0.0195-0.1963,0.0195-0.3027c0-11.4229-22.4922-11.5684-22.9522-22.7764
		c0.46-11.1572,22.9522-11.2959,22.9522-22.6875c0-0.126-0.0195-0.2266-0.0195-0.3721c0-0.1064,0.0195-0.2266,0.0195-0.3721
		c0-11.3847-22.4922-11.5293-22.9522-22.6679c0.46-11.1387,22.9522-11.2461,22.9522-22.6563c0-0.1387-0.0195-0.2392-0.0195-0.3652
		s0.0195-0.2276,0.0195-0.3535c0-11.4034-22.4922-11.5293-22.9522-22.7061c0.46-11.1894,22.9522-11.334,22.9522-22.7187
		c0-0.1143-0.0195-0.2149-0.0195-0.3223c0-0.1064,0.0195-0.1953,0.0195-0.334c0-11.4228-22.4922-11.542-22.9522-22.7754
		c0.46-11.1455,22.794-11.3213,22.9327-22.6181h0.0195c0,0-0.0195,0-0.0195-0.0186c0-0.0127,0.0195-0.0693,0.0195-0.0889
		c0-0.1259-0.0195-0.2138-0.0195-0.3154c0-0.1064,0.0195-0.1953,0.0195-0.334c0-11.334-22.2462-11.5303-22.9522-22.5488
		c0.5801-11.0186,22.9522-11.1768,22.9522-22.5166c0-0.0508-0.0195-0.1201-0.0195-0.208c0-0.082,0.0195-0.1397,0.0195-0.2461
		c0-0.1016-0.0195-0.2149-0.0195-0.3154c0-0.0694,0-0.1387,0-0.2149h0.0195l-0.0195-0.0127c0-0.0185,0.0195-0.0381,0.0195-0.0879
		c0-11.3281-22.1768-11.5298-22.9337-22.4887c0.7188-10.9556,22.9337-11.1324,22.9337-22.4258c0-0.104-0.0195-0.2017-0.0195-0.2964
		c0-0.1074,0.0195-0.186,0.0195-0.2744h-0.0195c0-0.0786,0.0195-0.1323,0.0195-0.1924c0-0.0879-0.0195-0.167-0.0195-0.2393
		c0-0.0693,0.0195-0.1484,0.0195-0.2368c0-11.3183-22.1768-11.52-22.9337-22.4697c0.9141-10.8423,22.9337-11.0786,22.9337-22.3784
		c0-0.1323-0.0195-0.2393-0.0195-0.353c0-0.1324,0.0195-0.23,0.0195-0.3531c0-0.0947-0.0195-0.2021-0.0195-0.2998
		c0-0.0791,0.0195-0.1826,0.0195-0.2617h-0.0195c-0.7696-10.8423-22.4727-11.126-22.9327-22.126
		c0.46-11.1953,22.9522-11.3281,22.9522-22.7314c0-0.1167-0.0195-0.2114-0.0195-0.3374c0-0.1138,0.0195-0.2017,0.0195-0.3345
		c0-11.4033-22.5303-11.5205-22.9522-22.7407c0.4219-11.2207,22.9522-11.3345,22.9522-22.7759c0-0.1133-0.0195-0.2017-0.0195-0.2998
		c0-0.1035,0.0195-0.2017,0.0195-0.29c0-11.4317-22.4922-11.5645-22.9522-22.7754c0.46-11.1704,22.9522-11.3028,22.9522-22.6905
		c0-0.123-0.0195-0.2368-0.0195-0.3691s0.0195-0.2363,0.0195-0.3691c0-11.3877-22.4922-11.5201-22.9522-22.6714
		c0.46-11.1421,22.9522-11.2744,22.9522-22.6431c0-0.1421-0.0195-0.2559-0.0195-0.3721c0-0.1137,0.0195-0.2368,0.0195-0.3691
		c0-11.4224-22.4922-11.5205-22.9522-22.7061c0.46-11.1767,22.9522-11.309,22.9522-22.7158c0-0.0947-0.0195-0.2021-0.0195-0.3154
		c0-0.1138,0.0195-0.2207,0.0195-0.3184c0-11.4414-22.4922-11.5708-22.9522-22.7949c0.46-11.167,22.9522-11.3086,22.9522-22.7217
		c0-0.1074-0.0195-0.2207-0.0195-0.3095c0-0.1133,0.0195-0.211,0.0195-0.3247c0-11.4224-22.4922-11.5455-22.9522-22.7691
		c0.46-11.2021,22.9522-11.3345,22.9522-22.7568c0-0.1167-0.0195-0.2207-0.0195-0.3184c0-0.0947,0.0195-0.1831,0.0195-0.3154
		c0-11.4258-22.4922-11.5391-22.9522-22.7251C754.4282,67.3712,776.9009,67.2296,776.9204,55.8263z"/>
	<g id="spider-web-stamp-background">
		<rect x="53.6816" y="63.8613" fill="#513E31" width="669.5571" height="882.2774"/>
	</g>
	<path id="spider-web-stamp-border" fill="#B0A89B" d="M719.3471,67.75v874.5156H57.5732V67.75H719.3471 M727.1235,59.9889h-7.7764
		H57.5732h-7.7768V67.75v874.5156v7.7647h7.7768h661.7739h7.7764v-7.7647V67.75V59.9889L727.1235,59.9889z"/>
</g>
<g id="spider-web-stamp-design">
	<path fill="#F88C24" d="M388.4536,270.6905c-129.4131,0-234.3159,104.9058-234.3159,234.3125
		c0,129.4102,104.9028,234.3135,234.3159,234.3135c129.4072,0,234.3096-104.9033,234.3096-234.3135
		C622.7632,375.5963,517.8608,270.6905,388.4536,270.6905z"/>
	<g>
		<g>
			<path fill="#EAE0CF" d="M320.6245,439.9746c0.9437-0.073,1.9009-0.1407,2.8736-0.2019c0.1133-0.4438,0.2633-0.8762,0.462-1.2917
				c-1.3916,0.0829-2.7495,0.1798-4.0838,0.2865c0.1039,0.2061,0.2156,0.4121,0.3517,0.6178
				C320.3637,439.5905,320.4925,439.7779,320.6245,439.9746z"/>
			<path fill="#EAE0CF" d="M325.834,436.1097c-2.1773-1.1937-4.3314-2.3864-6.4604-3.578
				c-0.0193,0.4647-0.0511,0.9251-0.0851,1.3821c1.8527,1.036,3.7222,2.0745,5.6085,3.1153
				C325.1745,436.6971,325.4889,436.392,325.834,436.1097z"/>
			<path fill="#EAE0CF" d="M327.1682,426.0457c-0.8676-6.694-0.2216-12.4877,1.9019-17.6253
				c-0.1757-0.6256-0.3396-1.2467-0.4843-1.8602c-2.5885,5.4676-3.5515,11.643-2.7833,18.7562
				C326.2432,425.5732,326.6974,425.8157,327.1682,426.0457z"/>
			<path fill="#EAE0CF" d="M327.7455,434.9945c0.4045-0.1555,0.8159-0.2684,1.2332-0.3456c-0.6081-2.1491-1.089-4.2156-1.442-6.2033
				c-0.4584-0.1531-0.9195-0.3099-1.3789-0.4823C326.5234,430.2147,327.0488,432.5547,327.7455,434.9945z"/>
			<path fill="#EAE0CF" d="M347.5591,447.7272c-0.2179-0.1133-0.4355-0.2266-0.6529-0.3399
				c-0.2026,0.1551-0.3962,0.3197-0.6103,0.4623c0.1958,0.2109,0.3847,0.4224,0.5991,0.6338
				C347.1098,448.2328,347.3353,447.9799,347.5591,447.7272z"/>
			<path fill="#EAE0CF" d="M353.6739,450.8849c-0.0077,0.01-0.0163,0.0202-0.024,0.0302c0.0174-0.006,0.0362-0.0091,0.0536-0.015
				C353.6936,450.895,353.6839,450.8899,353.6739,450.8849z"/>
			<path fill="#EAE0CF" d="M369.0952,451.5122c-1.1207-3.7567-1.9274-7.3352-2.4231-10.7568
				c-0.4171,0.1535-0.824,0.3098-1.2177,0.4698c0.4669,3.1714,1.2033,6.4691,2.1993,9.8989
				C368.1328,451.248,368.6117,451.3705,369.0952,451.5122z"/>
			<path fill="#EAE0CF" d="M284.251,447.3037c-7.417,3.7539-13.2192,8.7235-18.0746,15.0324
				c0.5346-0.4797,1.3031-1.0673,2.3695-1.7775c0.4046-0.2667,0.8684-0.5321,1.3812-0.795
				c4.1611-4.6137,8.9991-8.3627,14.8663-11.3305c5.6146-2.8306,12.2-4.9501,20.0388-6.4374
				c-0.2738-0.3676-0.5476-0.7478-0.8214-1.1306C296.3435,442.3623,289.8422,444.4799,284.251,447.3037z"/>
			<path fill="#EAE0CF" d="M317.7582,438.9496c-2.1671,0.1991-4.2596,0.4311-6.2776,0.6984
				c0.3302,0.3915,0.6588,0.7726,0.9861,1.1426c1.8165-0.2307,3.7031-0.4297,5.6425-0.6065
				C317.9703,439.772,317.8516,439.3604,317.7582,438.9496z"/>
			<path fill="#EAE0CF" d="M399.7354,739.041c-6.5193-8.3567-12.8065-16.562-18.827-24.5785
				c5.5821,8.0523,11.3813,16.3576,17.2111,24.6399C398.6578,739.0806,399.1981,739.0665,399.7354,739.041z"/>
			<path fill="#EAE0CF" d="M324.7845,468.3531c-1.7961,0.7107-3.5556,1.5653-5.118,2.5907
				c-0.8548,0.5691-1.7466,1.3035-2.659,2.1591c3.5517-1.7819,7.3879-3.3603,11.5293-4.7513
				c0.3945-0.5726,0.8101-1.1231,1.2654-1.6309c-1.0755,0.2831-2.1954,0.6215-3.3197,1.0084
				C325.9098,467.9327,325.3454,468.1418,324.7845,468.3531z"/>
			<path fill="#EAE0CF" d="M482.2182,508.8604c-0.9521-1.9024-1.9238-3.8038-2.8505-5.6866
				c-11.253-22.9175-18.6446-44.3398-16.336-63.4009c2.3203-19.0825,14.2031-35.9609,41.9238-49.9726
				c5.9864-3.0274,12.6905-5.9131,20.1895-8.625c37.8945,1.1636,37.6484-0.104,0-1.2681
				c-20.542-12.0215-33.5479-23.5322-39.2871-35.2544c-7.1584-14.5229-3.3479-29.6957,11.2511-47.2813
				c-0.3751-0.1968-0.7474-0.3982-1.1237-0.593c-14.6451,17.7292-18.6427,33.324-11.2505,48.4354
				c5.7715,11.7256,18.3223,22.9526,37.8057,34.6054c-15.0869-0.4575-30.2744-1.0913-45.2168-1.8828l-0.3721-0.2114
				c-16.6826-10.6309-27.2978-20.7007-32.2304-30.6978c-9.0197-18.3228,0.8563-37.0772,28.5261-60.5108
				c-0.4406-0.1712-0.8845-0.3358-1.3265-0.5043c-27.3493,23.2757-37.6437,42.5048-28.3031,61.561
				c4.9443,10.0503,15.2568,19.8897,31.1699,30.2403c-14.292-0.7569-28.3379-1.6367-41.9307-2.6587l-0.4541-0.3345
				c-13.2197-9.2934-21.8105-18.0576-26.0176-26.5947c-8.8486-18.0069,1.4639-35.7149,29.8028-57.7871l1.0214-0.7915l-1.1982-0.2998
				c9.8038-1.7523,19.7231-3.6108,29.7501-5.5857c-0.7796-0.2724-1.5548-0.5542-2.3381-0.8185
				c-10.2147,2.0055-20.3206,3.8849-30.3016,5.6473c-18.0097-4.9371-30.9753-10.8085-39.83-17.8387
				c-0.6617-0.0134-1.3257-0.0172-1.9888-0.0251c8.6551,7.3026,21.3525,13.3225,38.9682,18.3555
				c-13.1123,2.271-25.9795,4.3492-38.67,6.232c-18.5537-6.1503-30.3699-13.4259-36.9636-22.1852
				c-0.4688,0.0677-0.9406,0.1265-1.4087,0.1971c6.4594,8.9555,17.9204,16.2409,35.6477,22.3919
				c-12.394,1.813-24.5732,3.4502-36.5444,4.8784c-14.9943-5.9547-24.2991-12.7332-29.1478-20.6835
				c-0.4093,0.1185-0.8157,0.2434-1.224,0.3641c4.7603,8.0307,13.7193,14.7473,27.8171,20.6539
				c-11.6118,1.3715-23.0024,2.6049-34.1977,3.6767c-9.5683-4.519-16.0835-9.378-19.9972-14.7759
				c-0.3927,0.1697-0.7839,0.3425-1.1755,0.5143c3.8094,5.3596,9.9523,10.1038,18.763,14.473
				c-10.9116,1.0376-21.6343,1.9019-32.1231,2.6397c-3.5037-1.9233-6.4408-3.8964-8.8495-5.9355
				c-0.381,0.2182-0.7591,0.4408-1.1388,0.6611c2.1657,1.8746,4.7346,3.6797,7.7369,5.4321
				c-6.1924,0.4233-12.3085,0.7889-18.3519,1.1167c-0.7027,0.4593-1.4059,0.9179-2.1034,1.3845
				c7.3626-0.3904,14.838-0.8423,22.4416-1.3723c0.5615,0.2808,1.1231,0.5806,1.7095,0.8799
				c-13.9077,10.0854-18.5181,20.0669-12.728,31.77c1.3183,2.6934,3.185,5.4556,5.5629,8.3447
				c-10.4384-2.6396-20.6313-5.456-30.559-8.3603c-1.5137-2.0093-2.7119-3.9453-3.6075-5.7588
				c-2.1025-4.347-2.5098-8.1898-1.2124-11.8609c-0.5553,0.4554-1.1046,0.9177-1.6556,1.3781
				c-0.752,3.4733-0.2036,7.1242,1.7391,11.0473c0.7442,1.498,1.6778,3.0278,2.7813,4.5952
				c-5.5537-1.6297-11.0091-3.3158-16.3854-5.0357c-0.337,0.3227-0.6665,0.6532-1.0016,0.978
				c6.0384,1.9411,12.1747,3.8458,18.409,5.6944c-3.5699,0.9492-6.6353,2.0591-9.2403,3.3804
				c-0.0503,0.0346-0.0884,0.0346-0.1386,0.0698c-9.3667,4.7178-12.5328,12.3555-10.7227,23.832
				c-5.6905-4.4453-11.145-8.9012-16.4029-13.3516c-0.2639,0.3212-0.5202,0.6489-0.7825,0.9715
				c5.0374,4.2646,10.255,8.5334,15.7093,12.8215c-7.1836-0.3183-12.9043,0.5454-17.5654,2.9043
				c-6.1812,3.1319-10.4199,8.8711-13.6616,17.5659c-1.0824-2.2779-2.1414-4.5284-3.1789-6.7537
				c-0.2608,0.431-0.5113,0.8688-0.7695,1.3017c0.792,1.6956,1.5844,3.3917,2.403,5.1176c-1.4998-0.6594-2.9656-1.226-4.407-1.7177
				c-0.208,0.3626-0.4061,0.7315-0.6123,1.0953c1.8892,0.6318,3.8378,1.4142,5.8581,2.3475
				c2.3086,4.8916,4.7178,9.9087,7.2344,15.0146c1.7788,3.6235,3.6143,7.3037,5.4746,11.0347
				c-0.0503,0.1577-0.1006,0.3183-0.1763,0.457c-11.3437-4.9156-21.1578-6.782-30.245-4.8459
				c-0.1998,0.4718-0.3884,0.9496-0.5853,1.4229c9.154-2.2082,19.0942-0.368,30.9754,4.8488l0.58,0.2646l0.2271-0.6147
				c4.1753,8.2529,8.5405,16.7739,13.0942,25.4878c-0.0693,0.2109-0.1577,0.4385-0.227,0.6494
				c-19.9629-7.9375-36.0147-9.6973-50.9946-2.1475c-1.3452,0.6838-2.6805,1.4645-4.0109,2.2989
				c-0.1511,0.581-0.295,1.1648-0.4417,1.7477c1.6607-1.0957,3.3318-2.069,5.0199-2.9206
				c14.6963-7.4082,30.4522-5.6484,50.566,2.4473l0.5991,0.2109l0.2143-0.6147c0.0191-0.0694,0.0318-0.1231,0.0694-0.1768
				c4.4907,8.5562,9.1709,17.3042,14.0088,26.2261c-0.0699,0.2109-0.1578,0.4414-0.2271,0.6523
				c-24.5039-8.8711-44.0566-9.997-62.1143-0.8798c-4.6674,2.3593-9.2275,5.4023-13.7309,9.1333v1.6396
				c4.6987-3.9956,9.4546-7.1997,14.2729-9.6279c17.8311-8.9976,37.087-7.8687,61.7676,1.1416l0.5615,0.2114l0.2144-0.5806
				c0.0127-0.0883,0.0503-0.1416,0.0693-0.2114c4.9263,9.083,10.0288,18.3232,15.314,27.7241
				c-29.5874-9.7856-52.9307-10.3315-74.2808,0.438c-6.1054,3.1006-12.0595,7.1113-17.9189,12.0791v1.6328
				c6.0737-5.2256,12.1792-9.3974,18.4614-12.5669c21.1797-10.6845,44.2705-10.0854,74.0352-0.1577l0.5986,0.1924
				c6.4971,11.5674,13.2012,23.3623,20.1397,35.2705c-38.7081-11.4922-69.6895-14.5889-97.8008-0.3662
				c-4.4817,2.2544-8.8885,4.9833-13.2302,8.17c0.0812,0.4524,0.1752,0.9004,0.259,1.352c4.4369-3.2812,8.9441-6.09,13.5195-8.399
				c27.9858-14.1474,58.9292-10.9248,98.167,0.8448c8.6411,14.8789,17.5659,29.998,26.7554,45.2422
				c-45.2422-12.1475-84.5811-11.9395-119.2393,5.582c-1.8591,0.9391-3.7038,1.9306-5.5348,2.9737
				c0.1585,0.3843,0.3114,0.7715,0.4718,1.1548c1.8572-1.0556,3.7276-2.0579,5.6118-3.0055
				c34.6206-17.4961,74.0347-17.5849,119.605-5.1406c13.3208,22.0947,27.1026,44.4102,41.2056,66.6621
				c-43.2975-10.4097-87.1774-8.5644-126.7872,5.0628c0.2975,0.3408,0.6012,0.6759,0.9007,1.015
				c39.6358-13.5272,83.5464-15.1997,126.8513-4.5329c11.1834,17.6727,25.2669,37.6342,41.2859,58.9645
				c-17.5649-25.3384-32.9614-48.147-40.2449-59.652c13.5352-53.8955,36.2417-104.1328,86-129.249
				c15.5284-7.8329,33.6934-13.251,55.0567-15.541c9.542,3.8535,19.3633,7.708,29.4482,11.5986
				c0.4414-0.2832,47.753,18.3985,48.1748,18.0957C548.9809,535.7169,492.0005,512.8018,482.2182,508.8604z M433.0718,289.8741
				c0.4414,0.107,0.8955,0.23,1.3564,0.3531c-27.6514,21.7036-38.2861,39.9033-29.1523,58.56
				c4.2255,8.5747,12.5507,17.1084,25.1533,26.1563c-13.7627-1.0562-26.9834-2.2359-39.3897-3.5728l-0.7949-0.6343
				c-10.1035-7.9375-16.8398-15.3296-20.3281-22.4756c-8.1172-16.4589,0.6181-31.9467,25.3301-50.7299l0.9843-0.7569l-1.1797-0.3501
				c-0.246-0.0879-0.4921-0.1762-0.7568-0.23C407.0034,294.2765,419.9204,292.1826,433.0718,289.8741z M391.5132,296.6006
				c0.6494,0.227,1.3173,0.457,2.0048,0.6494c-24.0615,18.4458-33.1064,34.501-24.7304,51.5752
				c3.5385,7.1807,10.0854,14.4497,19.7544,22.1606c-0.107,0.0157-0.1636,0.0694-0.2647,0.0694
				c-13.4663-1.4605-25.9292-3.1157-37.0552-4.8946l0.0567-0.0156l-0.8452-0.7759c-7.3794-6.4589-12.4444-12.498-15.2637-18.269
				c-7.2852-14.8569-0.1074-28.2002,21.0854-43.9526l0.9522-0.6875l-1.0913-0.3877c-0.4414-0.1739-0.8765-0.3501-1.2993-0.4922
				C366.8388,300.1012,379.0688,298.4488,391.5132,296.6006z M352.1743,301.8984c0.7949,0.3155,1.602,0.6153,2.4282,0.9307
				c-20.6123,15.4214-28.124,29.4297-20.543,44.832c2.8384,5.7559,7.7139,11.6529,14.7027,17.938
				c-0.1074,0.0161-0.2334,0.0508-0.3345,0.0884c-4.0684-0.6875-7.9409-1.3906-11.5864-2.1128
				c-8.1113-1.5864-16.1216-3.2388-23.9868-4.9482c-4.9829-4.9639-8.521-9.6089-10.6719-13.9927
				c-6.4585-13.1821-0.7378-24.4312,17.0425-37.3677l0.8955-0.6684l-1.022-0.4229c-0.4033-0.1572-0.8071-0.353-1.23-0.5293
				C329.0835,304.5381,340.5185,303.2862,352.1743,301.8984z M294.6518,366.6905c4.9951-2.5356,11.0376-4.7715,18.1651-6.7773
				h0.0185c7.7959,1.6904,15.7178,3.3086,23.7788,4.8916c2.9204,0.583,5.9859,1.1636,9.19,1.709
				c-7.1465,2.3056-13.378,4.7685-18.6763,7.4458c-0.0884,0.0346-0.1763,0.0884-0.2461,0.123
				c-22.0376,11.1421-28.3071,26.5064-21.7915,50.2881c-9.751-5.667-19.0102-11.2993-27.7964-16.916
				C272.5635,387.4761,277.2939,375.543,294.6518,366.6905z M275.7993,406.4864c-8.9756-5.7207-17.4585-11.4223-25.5381-17.1084
				c-3.2422-15.9638,0.5293-25.3994,13.6553-32.1045c3.8222-1.936,8.4516-3.6108,13.958-5.0869l0.9018-0.249
				c10.2618,2.5703,20.751,5.0366,31.4859,7.3955c-6.2315,1.8828-11.6182,3.9419-16.1592,6.2285
				c-0.0693,0.0376-0.1387,0.0537-0.208,0.1074C276.6445,374.3824,271.3843,387.0537,275.7993,406.4864z M270.8857,340.8336
				c-5.5249-11.3184-1.2109-20.4731,13.1699-30.7856l0.8638-0.6182l-0.9521-0.457c-0.2842-0.1392-0.5489-0.2623-0.795-0.3882
				c10.4956-0.7569,21.2495-1.6524,32.1988-2.69c0.7192,0.334,1.457,0.6685,2.2329,1.003
				c-17.2505,12.6367-23.2866,24.6425-16.5254,38.3007c2.0185,4.1348,5.2099,8.4141,9.5557,12.9205
				c-11.3531-2.482-22.4415-5.0899-33.233-7.8526C274.5127,346.939,272.3491,343.8076,270.8857,340.8336z M235.1548,346.9233
				c2.75-1.4096,6.0932-2.5703,10.0351-3.5571l0.9522-0.2617l-0.0186-0.0381c9.8013,2.854,19.874,5.5977,30.1865,8.2217
				c-5.0014,1.4253-9.3095,3.0088-12.936,4.8408c-0.0884,0.0347-0.1265,0.0693-0.1768,0.0884
				c-13.1128,6.6162-17.3198,16.7202-14.4184,32.123c-8.3067-5.8628-16.1406-11.6718-23.583-17.4809l-0.0191-0.0694
				C223.0639,358.7148,225.7759,351.7104,235.1548,346.9233z M203.6499,416.4835c-1.709-3.3774-3.3804-6.7393-5.0015-10.0508
				c-2.3525-4.8379-4.6802-9.5903-6.8813-14.2388l0.0693-0.2114c3.2607-9.0981,7.3799-14.7495,13.416-17.8115
				c4.749-2.4126,10.8233-3.2231,18.7261-2.6934c7.5874,5.9322,15.56,11.8799,24.0117,17.8467
				c-10.7915-0.3345-19.2246,0.9522-25.9795,4.3677C213.7036,397.8614,208.0337,405.253,203.6499,416.4835z M217.4883,443.5196
				c-4.5601-8.748-8.9439-17.2822-13.1001-25.5381c4.4023-11.6528,9.9653-19.0293,18.1836-23.1635
				c6.831-3.4693,15.5981-4.7022,27.1406-4.1724h0.1577c8.0796,5.667,16.5815,11.3721,25.5254,17.0899
				c-14.6265-0.1231-25.7149,1.5859-34.4629,6.0043C230.1787,419.1768,223.102,428.6816,217.4883,443.5196z M426.1206,524.4396
				c-49.9029,25.2158-72.7857,75.3466-86.3716,128.9335c-14.103-22.2714-27.9165-44.6562-41.2056-66.7314
				c6.8096-24.3656,17.3584-43.6696,32.5251-58.5038c-0.0585-0.165-0.1145-0.321-0.175-0.4941
				c-0.081-0.2308-0.1745-0.5089-0.2754-0.8159c-15.3375,14.8377-26.0588,34.1325-32.977,58.3382
				c-9.1138-15.1631-18.0068-30.1875-26.6104-44.959c8.6302-28.4074,18.2586-48.1268,35.7431-60.885
				c0.519-0.9183,1.0427-1.794,1.5708-2.6271c-19.0423,12.7562-29.2348,32.9491-38.1273,62.018
				c-7.2344-12.4072-14.2354-24.6934-20.9781-36.7183c5.2358-16.1504,10.2796-28.6585,17.313-38.1103
				c-0.8161,0.211-1.3709,0.152-1.3603-0.2307c-6.8091,9.3514-11.746,21.5028-16.7788,36.862
				c-5.2793-9.436-10.4073-18.7295-15.333-27.8281c6.7929-19.3096,15.2636-31.1045,28.7988-37.9507
				c8.1484-4.1192,18.1783-6.4259,30.8245-7.4026c-0.4955-0.4015-0.9899-0.7834-1.4827-1.1366
				c-12.1095,1.0436-21.8557,3.3562-29.9092,7.4132c-13.624,6.8814-22.2461,18.7642-29.0391,37.6167
				c-4.8628-8.9248-9.5239-17.6919-14.0146-26.229c5.6196-15.2758,12.5703-24.7465,23.2173-30.1137
				c8.7861-4.4375,20.1391-6.1436,35.3965-5.8628h0.5673c8.6036,5.4746,17.6543,10.9839,27.1719,16.5278
				c-2.3041,0.0372-4.535,0.1055-6.6976,0.2065c0.5417,0.3786,1.0834,0.7734,1.6248,1.1889c2.1622-0.0843,4.3895-0.139,6.6939-0.162
				h0.4922c3.4449,1.9867,6.9442,3.978,10.4996,5.9761c-0.0257-0.5084-0.067-1.0078-0.1247-1.5001
				c-3.5541-2.0029-7.0456-4.0009-10.476-5.9897c-6.8305-24.3086-1.167-38.8847,21.0474-50.165
				c5.8091-2.9424,12.7471-5.5977,20.8266-8.1143c11.0191,1.8291,23.4253,3.5005,36.8726,5.0142
				c-12.4761,4.084-23.1479,8.1333-31.8769,12.5327c-0.1202,0.0723-0.2461,0.1231-0.3536,0.1763
				c-9.5043,4.8094-16.6897,10.1476-21.3458,16.4834c0.1359,0.4852,0.2847,0.9768,0.4497,1.4767
				c4.5383-6.4972,11.8587-11.9376,21.817-17.0109c9.2212-4.6641,20.751-8.9404,34.3369-13.3237
				c12.4629,1.3906,25.7715,2.6045,39.6416,3.6958c-10.5078,3.6455-19.6601,7.3764-27.4746,11.3183
				c-0.1074,0.0537-0.2148,0.1231-0.3349,0.1768c-25.3416,12.8009-36.6286,28.0826-35.2876,48.9687
				c0.4052-0.1226,0.8281-0.236,1.2493-0.3504c-1.2635-20.3202,9.7476-34.8468,34.9533-47.6501
				c8.4141-4.2607,18.4297-8.291,30.0606-12.2143c13.4472,1.019,27.4052,1.9175,41.5586,2.6743
				c-6.1241,2.2866-11.668,4.6992-16.6319,7.1807c-0.0381,0.019-0.0381,0.019-0.0566,0.0351
				c-24.3086,12.2866-35.0752,27.3892-37.2266,44.7974c-2.0742,17.0044,3.9805,36.084,13.2715,56.8887
				c-6.4548-2.8235-12.7513-5.6278-18.9288-8.419c2.8923,3.1679-1.3263,0.6293-4.3954-1.9889
				c-12.8217-5.8399-25.0523-11.6166-36.7344-17.3504c-0.2038-0.5222-0.3868-1.0316-0.5804-1.5475
				c-0.4585-0.043-0.9215-0.0816-1.3864-0.1189c0.1074,0.2867,0.2037,0.5674,0.3145,0.8558
				c-0.6603-0.3251-1.3097-0.6494-1.9664-0.9742c-1.0306-0.0658-2.0666-0.1158-3.1032-0.1485
				c1.1653,0.58,2.3281,1.1598,3.5051,1.7409c-3.9371,0.2749-7.6966,0.6268-11.3066,1.0492
				c0.4541,0.3542,0.9032,0.7268,1.348,1.1188c3.8818-0.4306,7.9447-0.7786,12.2106-1.042
				c18.4804,9.0634,38.3359,18.269,59.7548,27.6508c-29.038,2.6773-52.8735,8.6441-72.1801,18.4117
				c-10.0751,5.0802-18.9131,11.1964-26.6265,18.3889c0.1329,0.506,0.2572,0.9643,0.371,1.3673
				c7.7326-7.2997,16.6229-13.4893,26.798-18.6273c19.6596-9.9283,44.0751-15.9483,74.0664-18.5
				c14.6142,6.3896,29.8906,12.7788,45.9804,19.3066C458.768,511.4844,441.2212,516.8135,426.1206,524.4396z M433.8091,488.5977
				c-9.5743-21.2427-15.8243-40.5528-13.7305-57.4688c2.1133-16.9668,12.501-31.666,36.6142-43.8643
				c5.6514-2.832,12.0596-5.5595,19.294-8.1142c15.1367,0.7915,30.5205,1.4258,45.835,1.9209
				c-6.377,2.4092-12.167,4.9639-17.4083,7.5845c-0.038,0.0346-0.038,0.0346-0.0566,0.0346
				c-27.916,14.0996-40.2158,31.4038-42.543,50.9219c-2.3584,19.4863,5.1592,41.1201,16.4561,64.1074
				c0.7246,1.479,1.4443,2.9395,2.2012,4.4336C464.1411,501.5718,448.6128,495.0597,433.8091,488.5977z"/>
		</g>
		<path fill="#513E31" d="M332.7036,527.832c-0.0855-0.2729-0.183-0.6057-0.2882-0.9781c-0.1138-0.403-0.2381-0.8613-0.371-1.3673
			c-1.9379-7.3809-5.6707-24.942-4.5508-30.4617c1.4634-7.1304,5.002-17.9189,9.2403-24.8379
			c0.4414,4.314,2.1699,9.1011,5.1596,13.6079c6.7232,10.1738,17.2881,15.0147,23.5703,10.8579
			c6.2818-4.1689,5.9161-15.7715-0.8076-25.9262c-1.7187-2.5855-3.6886-4.8144-5.7706-6.6494
			c-0.4448-0.392-0.8939-0.7646-1.348-1.1188c-1.1251-0.8774-2.2718-1.6513-3.4268-2.2826
			c3.3586-0.5058,7.2805-0.6322,11.2283-0.5075c1.0366,0.0327,2.0726,0.0827,3.1032,0.1485
			c0.5538,0.0353,1.1041,0.0746,1.6519,0.1184c0.4649,0.0373,0.9279,0.0759,1.3864,0.1189
			c3.3554,0.3141,6.5176,0.7739,9.1204,1.3014c6.251,1.2675,24.3086,14.2734,28.1807,17.5849
			c0.0045,0.0039,0.0092,0.0077,0.0137,0.0116c3.0691,2.6182,7.2877,5.1568,4.3954,1.9889
			c-0.7575-0.8298-1.9958-2.0453-3.8788-3.7602c-3.9686-3.5829-23.2687-19.2027-40.2168-24.1685
			c-0.4835-0.1417-0.9624-0.2643-1.4415-0.3881c-5.0722-1.3102-9.8855-1.5991-13.9502-0.2241
			c-0.0174,0.0059-0.0362,0.009-0.0536,0.015c0.0077-0.01,0.0163-0.0202,0.024-0.0302c2.11-2.7194,4.8122-5.6285,7.81-7.646
			c1.088-0.7193,2.4369-1.3908,3.9705-2.0136c0.3937-0.16,0.8006-0.3163,1.2177-0.4698
			c10.7568-3.9564,28.8768-5.7406,33.3616-4.8394c10.5078,2.1475,7.3545-1.3716,2.0058-2.4473
			c-5.3359-1.0908-16.3169,0-27.0014,1.0757c-3.3095,0.3344-6.227,0.8924-8.8474,1.6037c-0.4212,0.1144-0.8441,0.2278-1.2493,0.3504
			c-8.6297,2.6106-13.6627,7.0309-17.3823,11.2287c-0.2238,0.2527-0.4493,0.5056-0.6641,0.7562
			c-0.2144-0.2114-0.4033-0.4229-0.5991-0.6338c0.2141-0.1426,0.4077-0.3072,0.6103-0.4623
			c5.8232-4.4563,6.9669-13.9394,8.8379-23.1588c1.9556-9.5205,14.3682-28.4077,17.6919-30.5903
			c3.2925-2.1821,4.6675-5.6323-1.564-1.4976c-6.2319,4.1182-17.5346,20.8579-20.1582,33.7974
			c-2.4472,12.0376-6.1054,16.0332-9.5932,18.4995c6.2881-9.8931,3.6264-18.6226-3.9234-29.9946
			c-2.9233-4.4223-4.8021-8.28-5.9542-11.7694c-0.165-0.4999-0.3138-0.9915-0.4497-1.4767
			c-2.2011-7.857-0.7107-13.8703,0.6329-20.4253c1.4947-7.4458-1.0722-8.8364-2.5166-1.7095
			c-1.0878,5.3566-4.2304,15.1778-1.3238,27.4982c0.1447,0.6135,0.3086,1.2346,0.4843,1.8602
			c0.9808,3.4915,2.4529,7.1659,4.6047,10.9863c4.4028,7.8335,6.9321,13.7124,5.437,20.4009
			c-0.1577-2.0937-1.23-4.5254-3.3809-7.7641c-2.2853-3.4514-5.6509-4.5758-8.5627-5.9978c-0.4708-0.23-0.925-0.4726-1.3657-0.7293
			c-1.1963-0.6966-2.2621-1.5275-3.0579-2.7246c-2.9077-4.3833-3.7344-2.1821-0.8076,2.2012c1.1756,1.794,2.68,2.5919,4.2208,3.1703
			c0.4594,0.1724,0.9205,0.3292,1.3789,0.4823c1.7736,0.5927,3.4816,1.1931,4.6747,2.9831
			c1.1484,1.7437,2.0625,3.1851,2.6934,4.8408c-1.6388-1.4424-3.8297-2.0085-5.9261-1.6206
			c-0.4173,0.0772-0.8287,0.1901-1.2332,0.3456c-0.4648,0.1787-0.9219,0.3905-1.3554,0.6754
			c-0.201,0.133-0.3736,0.2906-0.5561,0.4398c-0.3451,0.2823-0.6595,0.5873-0.937,0.9194
			c-0.3755,0.4494-0.6895,0.9344-0.9369,1.4519c-0.1987,0.4155-0.3487,0.8479-0.462,1.2917
			c-0.3299,1.2935-0.3137,2.6728,0.123,3.9773c-1.1169-1.07-2.0183-2.3171-2.9966-3.7754c-0.132-0.1968-0.2608-0.3841-0.3965-0.5893
			c-0.1361-0.2057-0.2478-0.4117-0.3517-0.6178c-0.8025-1.5914-0.7109-3.1995-0.5878-4.8537
			c0.034-0.457,0.0658-0.9174,0.0851-1.3821c0.0692-1.6652-0.071-3.3838-1.2774-5.187c-2.8892-4.3994-5.2417-4.5068-2.3404-0.123
			c0.8279,1.2453,1.175,2.6052,1.3432,4.0375c0.0577,0.4923,0.099,0.9917,0.1247,1.5001c0.0997,1.9814,0.0536,4.0739,0.5345,6.1902
			c0.0934,0.4109,0.2121,0.8225,0.351,1.2345c0.3001,0.8902,0.705,1.7814,1.2926,2.6671c2.1441,3.2578,3.961,5.1938,5.8213,6.143
			c-5.0856-0.9163-8.8521-3.791-12.7564-8.2036c-0.3273-0.37-0.6559-0.7511-0.9861-1.1426
			c-0.9479-1.1237-1.9104-2.332-2.9088-3.6245c-2.9048-3.7601-5.9613-6.7207-9.0338-9.0782
			c-0.5414-0.4155-1.0831-0.8103-1.6248-1.1889c-9.9407-6.9472-19.8028-7.8656-25.0153-8.9389
			c-7.1147-1.4409-6.8686,1.4795,0.5801,2.9931c6.1018,1.2292,11.8355,2.1515,17.7427,6.3871
			c0.4928,0.3532,0.9872,0.7351,1.4827,1.1366c3.0878,2.5023,6.2345,5.9754,9.5168,10.9407
			c0.5995,0.903,1.1954,1.7579,1.7906,2.5902c0.2738,0.3828,0.5476,0.763,0.8214,1.1306
			c6.6237,8.8937,13.2846,13.2724,23.4944,11.5746c-3.6269,2.2359-8.7358,4.0684-20.789,1.6211
			c-12.0991-2.4542-30.2033,0.7745-37.6105,4.5722c-0.5128,0.2629-0.9766,0.5283-1.3812,0.795
			c-1.0664,0.7102-1.8349,1.2978-2.3695,1.7775c-0.6842,0.6139-0.9771,1.0469-0.9845,1.3175
			c-0.0106,0.3827,0.5442,0.4417,1.3603,0.2307c0.7826-0.2023,1.8015-0.6506,2.7881-1.3008
			c3.2925-2.1821,25.5195-6.2661,35.0625-4.3301c9.543,1.9365,19.0479,4.7178,25.4375,0.4917v-0.0156
			c0.1196,0.2617,0.2271,0.5459,0.3657,0.8105c-6.7215,2.1422-14.6795,5.8258-21.8614,17.1549
			c-0.5281,0.8331-1.0518,1.7088-1.5708,2.6271c-0.1323,0.2343-0.2652,0.4644-0.3969,0.7044
			c-5.1592,9.4165-10.4575,19.1172-11.5298,24.4658c-1.0908,5.3174,0.9146,9.6152,3.0401-0.9146
			c0.982-4.8159,10.9173-22.7815,19.1203-30.4747c0.9124-0.8556,1.8042-1.59,2.659-2.1591c1.5624-1.0254,3.3219-1.88,5.118-2.5907
			c0.5644-0.2233,1.1312-0.429,1.698-0.624c1.1243-0.3869,2.2442-0.7253,3.3197-1.0084c-0.4553,0.5078-0.8709,1.0583-1.2654,1.6309
			c-10.1822,14.7757-0.6507,50.1607,2.0813,58.4762c0.1009,0.307,0.1944,0.585,0.2754,0.8159
			c0.0605,0.1731,0.1165,0.3292,0.175,0.4941C334.9181,539.0153,334.2134,532.6044,332.7036,527.832z"/>
	</g>
	<path fill="#917561" d="M645.0034,498.8097c-0.5869-8.2373-0.3916-16.5474-1.7227-24.7217
		c-1.3808-8.1524-2.1572-16.4336-4.1181-24.4692c-2.1631-7.982-3.8408-16.1216-6.4903-23.9644
		c-2.9267-7.7358-5.4433-15.6548-8.7988-23.208c-3.6582-7.417-6.9502-15.0396-11.0058-22.249
		c-4.3711-7.023-8.3829-14.292-13.1192-21.0596c-5.0146-6.5664-9.6943-13.4219-15.0742-19.6948
		c-5.6201-6.0552-10.918-12.4444-16.8848-18.149c-6.1875-5.4814-12.0537-11.3627-18.5625-16.4497
		c-6.6924-4.8662-13.082-10.164-20.0576-14.5918c-7.1269-4.1977-13.9961-8.8715-21.3818-12.5927
		c-7.4932-3.4942-14.7901-7.4707-22.4981-10.4732c-7.8017-2.7529-15.4648-5.9761-23.4121-8.247
		c-8.0361-1.9898-15.9892-4.3643-24.1064-5.9473l-24.5547-3.5923l-24.7627-1.2393l-24.7686,1.2393l-24.5542,3.5923
		c-8.1113,1.583-16.0708,3.9575-24.1064,5.9473c-7.9473,2.2709-15.6109,5.4941-23.4067,8.247
		c-7.7139,3.0025-15.0113,6.979-22.504,10.4732c-7.3862,3.7212-14.2485,8.395-21.3818,12.5927
		c-6.9761,4.4278-13.3652,9.7256-20.0576,14.5918c-6.5088,5.087-12.3745,10.9683-18.5557,16.4497
		c-5.9731,5.7046-11.2715,12.0938-16.8911,18.149c-5.3804,6.2729-10.06,13.1284-15.0742,19.6948
		c-4.7368,6.7676-8.7485,14.0366-13.1128,21.0596c-4.062,7.2094-7.3545,14.832-11.0127,22.249
		c-3.3555,7.5532-5.8721,15.4722-8.7988,23.208c-2.6489,7.8428-4.3203,15.9824-6.4902,23.9644
		c-1.9614,8.0356-2.7373,16.3168-4.1187,24.4692c-1.3247,8.1743-1.1353,16.4844-1.7217,24.7217
		c-0.7822,8.2529,0.4414,16.5215,0.6245,24.7715c0.0752,8.2812,1.835,16.412,2.9644,24.6113
		c0.9395,8.2431,3.3174,16.1972,5.336,24.2265c1.772,8.1045,4.8125,15.8252,7.6631,23.5948
		c2.5796,7.8974,6.3013,15.2959,9.9214,22.7441c3.3306,7.5947,7.7329,14.6084,12.0659,21.666
		c4.0557,7.2344,9.1143,13.7813,14.0972,20.3916c4.7236,6.8116,10.4131,12.8291,15.9887,18.9346
		c5.355,6.332,11.5992,11.7627,17.7359,17.3193c5.9292,5.7901,12.6904,10.5713,19.3066,15.5293
		c6.459,5.2032,13.668,9.3028,20.7388,13.6104c6.9253,4.5547,14.5005,7.9219,21.9492,11.5303
		c7.3355,3.872,15.207,6.5087,22.9776,9.3604c7.6948,3.1406,15.7617,5.0205,23.7783,7.0762
		c7.9663,2.3467,16.1596,3.5322,24.3525,4.7246c8.1616,1.5322,16.3989,2.0752,24.668,2.3584c8.2563,0.6689,16.5122,0.6689,24.769,0
		c8.2686-0.2832,16.5059-0.8262,24.667-2.3584c8.1934-1.1924,16.3867-2.3779,24.3526-4.7246
		c8.0166-2.0557,16.0908-3.9355,23.7783-7.0762c7.7715-2.8516,15.6426-5.4883,22.9785-9.3604
		c7.4482-3.6084,15.0234-6.9756,21.9492-11.5303c7.0703-4.3076,14.2793-8.4072,20.7383-13.6104
		c6.6161-4.958,13.3779-9.7392,19.3066-15.5293c6.1368-5.5566,12.3809-10.9873,17.7364-17.3193
		c5.582-6.1055,11.2646-12.123,15.9882-18.9346c4.9834-6.6103,10.0411-13.1572,14.1036-20.3916
		c4.3261-7.0576,8.7294-14.0713,12.0654-21.666c3.6142-7.4482,7.3359-14.8467,9.915-22.7441
		c2.8516-7.7696,5.8916-15.4903,7.6641-23.5948c2.0176-8.0293,4.3954-15.9834,5.3359-24.2265
		c1.1289-8.1992,2.8887-16.3301,2.9639-24.6113C644.5678,515.3312,645.7915,507.0626,645.0034,498.8097z M643.3003,511.1562
		l-10.0606,9.8204l-9.0576-10.2784l9.6572-9.8232L643.3003,511.1562z M623.6089,487.9229c2.9326-3.4439,6.2441-7.0518,8.748-10.7129
		c3.8223,2.9487,6.875,6.0991,10.3252,9.3379l-9.0322,10.7382L623.6089,487.9229z M639.7241,462.1006l-7.9033,11.5552
		l-10.9365-8.354l7.7138-11.5201L639.7241,462.1006z M634.4262,438.0386l-6.7119,12.2583l-11.7314-7.2505l6.5918-12.2173
		L634.4262,438.0386z M626.8257,414.6006l-5.4873,12.8511l-12.3877-6.0738l5.374-12.8134L626.8257,414.6006z M616.9731,392.0078
		l-4.207,13.3179l-12.9297-4.8316l4.1122-13.2734L616.9731,392.0078z M604.977,370.4908l-2.8828,13.6519l-13.3457-3.5572
		l2.8067-13.5952L604.977,370.4908z M590.9751,350.2314l-1.5645,13.8702l-13.6172-2.252l1.4815-13.8096L590.9751,350.2314z
		 M575.0932,331.4171l-0.2334,13.9643l-13.7627-0.9399l0.1387-13.8789L575.0932,331.4171z M557.4829,314.2202l1.0976,13.9199
		l-13.7812,0.3785l-1.1983-13.816L557.4829,314.2202z M538.2837,298.7833l2.4404,13.7622l-13.6865,1.6997l-2.5166-13.6328
		L538.2837,298.7833z M517.7026,285.2726l3.7471,13.4663l-13.4541,3.0083l-3.8281-13.3335L517.7026,285.2726z M495.8921,273.8062
		l5.0332,13.0405l-13.1065,4.2949l-5.0898-12.9014L495.8921,273.8062z M473.06,264.5123l6.2881,12.4888l-12.6338,5.5532
		l-6.3134-12.3652L473.06,264.5123z M449.4389,257.4893l7.4746,11.791l-12.0283,6.7773l-7.4931-11.7314L449.4389,257.4893z
		 M425.2563,252.7964l8.5781,10.9844l-11.3144,7.9375l-8.5908-10.9746L425.2563,252.7964z M400.7534,250.4566l9.5928,10.0664
		l-10.5078,9.0318l-9.5938-10.041L400.7534,250.4566z M376.1484,250.4566l10.5078,9.0572l-9.5932,10.041l-10.5078-9.0318
		L376.1484,250.4566z M351.6445,252.7964l11.3276,7.9473l-8.5903,10.9746l-11.3276-7.9375L351.6445,252.7964z M327.4624,257.4893
		l12.0469,6.8369l-7.4869,11.7314l-12.0405-6.7773L327.4624,257.4893z M303.8413,264.5123l12.665,5.6768l-6.3198,12.3652
		l-12.6397-5.5532L303.8413,264.5123z M281.0093,273.8062l13.1694,4.434l-5.0962,12.9014l-13.1065-4.2949L281.0093,273.8062z
		 M259.1987,285.2726l13.5415,3.1411l-3.8286,13.3335l-13.46-3.0083L259.1987,285.2726z M238.6177,298.7833l13.7626,1.8291
		l-2.5166,13.6328l-13.687-1.6997L238.6177,298.7833z M219.4184,314.2202l13.8824,0.4824l-1.1988,13.816l-13.7876-0.3785
		L219.4184,314.2202z M215.6655,330.5626l0.1387,13.8789l-13.7627,0.9399l-0.2334-13.9643L215.6655,330.5626z M199.626,348.04
		l1.4824,13.8096l-13.6177,2.252l-1.564-13.8702L199.626,348.04z M185.3462,366.9903l2.8066,13.5952l-13.3457,3.5635
		l-2.8828-13.6582L185.3462,366.9903z M172.9463,387.2208l4.1186,13.2734l-12.9365,4.8316l-4.2007-13.3179L172.9463,387.2208z
		 M162.5771,408.5742l5.3736,12.8037l-12.3877,6.0738l-5.4805-12.8511L162.5771,408.5742z M154.3271,430.8292l6.5972,12.2173
		l-11.7315,7.2505l-6.7172-12.2583L154.3271,430.8292z M148.3037,453.7817l7.7134,11.5201l-10.9366,8.354l-7.9033-11.5552
		L148.3037,453.7817z M153.2925,487.9229l-10.0411,9.3632l-9.0322-10.7382c3.4502-3.2388,6.4966-6.3892,10.3252-9.3379
		C147.0547,480.8712,150.3598,484.479,153.2925,487.9229z M152.7187,510.6982l-9.0571,10.2784l-10.0606-9.8204l9.461-10.2812
		L152.7187,510.6982z M135.3232,535.7169l8.5273-11.1514l10.4511,8.8682l-7.9785,11.0937L135.3232,535.7169z M139.4101,560.0186
		c2.1128-4.043,4.8506-8.0605,7.4556-11.9336l11.2139,7.8271l-6.8306,11.8203L139.4101,560.0186z M145.8564,583.8281
		c1.6968-4.2256,4.1187-8.5273,6.2881-12.6269l11.896,6.7177l-5.6455,12.419L145.8564,583.8281z M154.5918,606.8818
		c1.2807-4.3642,3.3115-8.9062,5.0459-13.1757l12.476,5.5244l-4.3964,12.9052L154.5918,606.8818z M165.5351,628.9766
		c0.8452-4.4659,2.4473-9.1836,3.7403-13.5987l12.955,4.2891l-3.1284,13.2705L165.5351,628.9766z M178.5468,649.9033
		c0.4229-4.5283,1.5518-9.3721,2.4224-13.9013l13.3081,3.0214l-1.8418,13.5108L178.5468,649.9033z M193.5268,669.4688
		c-0.0127-4.5537,0.6182-9.4736,1.0659-14.0585l13.5484,1.7158l-0.5488,13.623L193.5268,669.4688z M210.3105,687.4951
		c-0.4477-4.5283-0.3091-9.4668-0.2964-14.0908c4.6172,0.2529,8.9439,0.6182,13.6553,0.4102l0.7695,13.6171L210.3105,687.4951z
		 M228.7534,703.8311l-1.6592-13.9834c4.6109-0.1827,8.9688-0.2588,13.6367-0.9141l2.0684,13.4844L228.7534,703.8311z
		 M248.6777,718.3253l-3.0024-13.75c4.5669-0.6309,8.9062-1.1289,13.4917-2.2324l3.3554,13.2324L248.6777,718.3253z
		 M269.9018,730.8389l-4.3139-13.4092c4.4907-1.0469,8.7607-1.9678,13.2133-3.5068l4.6299,12.8291L269.9018,730.8389z
		 M292.2549,741.2335l-5.5884-12.917c4.3647-1.4951,8.5215-2.8066,12.8105-4.7812l5.8404,12.3242L292.2549,741.2335z
		 M315.5161,749.4327l-6.8179-12.3369c4.2134-1.9297,8.1992-3.5947,12.2739-5.9922l7.0264,11.6944L315.5161,749.4327z
		 M339.4585,755.336c-2.8633-3.5381-5.4429-7.8145-7.9785-11.6553c4.0048-2.3653,7.8085-4.3457,11.6308-7.1084l8.1299,10.918
		L339.4585,755.336z M363.8554,758.9063l-9.0571-10.8867l10.8735-8.1484l9.1392,10.041L363.8554,758.9063z M388.4536,760.1426
		l-10.0537-10.0537l10.0537-9.0635l10.0478,9.0635L388.4536,760.1426z M413.0522,758.9063l-10.9619-8.9941l9.1387-10.041
		l10.8867,8.1484L413.0522,758.9063z M437.4428,755.336l-11.7763-7.8457l8.124-10.918c3.8223,2.7627,7.626,4.7431,11.6309,7.1084
		C442.8852,747.5215,440.3061,751.7979,437.4428,755.336z M461.3852,749.4327l-12.4824-6.6475l7.0264-11.6817
		c4.0742,2.3975,8.0674,4.0498,12.2744,5.9922L461.3852,749.4327z M484.646,741.2335l-13.0616-5.374l5.8467-12.3242
		c4.2823,1.9746,8.4385,3.2861,12.8096,4.7744L484.646,741.2335z M506.9995,730.8389l-13.5166-4.0869l4.6172-12.8291
		c4.4531,1.539,8.7226,2.4599,13.2138,3.5068L506.9995,730.8389z M528.2231,718.3253l-13.8379-2.7627l3.3496-13.2197
		c4.585,1.1035,8.9248,1.6015,13.4912,2.2197L528.2231,718.3253z M548.1548,703.8311l-14.0469-1.4131l2.0625-13.4844
		c4.668,0.6553,9.0264,0.7314,13.6367,0.9141L548.1548,703.8311z M566.5903,687.4951l-14.1152-0.0635l0.7568-13.6171
		c4.7178,0.208,9.0381-0.1573,13.6553-0.4102C566.8999,678.0283,567.0385,682.9669,566.5903,687.4951z M569.3091,670.749
		l-0.5489-13.623l13.5489-1.7158c0.4472,4.5849,1.0839,9.5048,1.0654,14.0585L569.3091,670.749z M584.4653,652.5342l-1.8418-13.5108
		l13.3086-3.0214c0.8711,4.5292,2,9.373,2.4219,13.9013L584.4653,652.5342z M597.8052,632.9376l-3.1348-13.2705l12.9551-4.2891
		c1.3066,4.4082,2.8955,9.1328,3.7402,13.5987L597.8052,632.9376z M609.1841,612.1357l-4.3965-12.9052l12.4756-5.5244
		c1.7353,4.2695,3.7656,8.8115,5.0459,13.1757L609.1841,612.1357z M618.5063,590.3253l-5.6386-12.4063l11.8886-6.7177
		c2.1699,4.0996,4.5918,8.4013,6.2891,12.6269L618.5063,590.3253z M625.6518,567.7197l-6.83-11.8076l11.2138-7.8271
		c2.6055,3.873,5.3428,7.8906,7.4551,11.9336L625.6518,567.7197z M630.5786,544.5273l-7.9796-11.0937l10.4521-8.8682l8.5332,11.1514
		L630.5786,544.5273z M619.1997,544.421c-0.8194,7.5303-3.0332,14.7715-4.8623,22.0879
		c-1.5899,7.4043-4.3965,14.4307-6.9893,21.5137c-2.3086,7.2099-5.7392,13.9395-9.0381,20.7324
		c-3.0146,6.9502-7.0576,13.3271-11.0058,19.7607c-3.6778,6.6162-8.3262,12.5772-12.8672,18.6006
		c-4.2822,6.2442-9.5049,11.7188-14.5889,17.2881c-4.8691,5.7959-10.5957,10.7285-16.1846,15.8057
		c-5.3857,5.3046-11.5927,9.6445-17.6289,14.1728c-5.872,4.7813-12.4697,8.4766-18.915,12.4131
		c-6.3018,4.1943-13.2266,7.2275-20.0195,10.5205c-6.6739,3.5635-13.8633,5.9219-20.9463,8.54
		c-6.9951,2.8819-14.3623,4.5665-21.6787,6.4395c-7.2471,2.1826-14.7276,3.2227-22.2012,4.3076
		c-7.4365,1.4258-14.9609,1.8926-22.5107,2.1445c-7.544,0.6436-15.0811,0.6436-22.6182,0
		c-7.5562-0.2519-15.0811-0.7187-22.5171-2.1445c-7.4683-1.0849-14.9482-2.125-22.2017-4.3076
		c-7.3164-1.873-14.6835-3.5576-21.6782-6.4395c-7.083-2.6181-14.2734-4.9765-20.9468-8.54
		c-6.7929-3.293-13.7182-6.3262-20.019-10.5205c-6.4463-3.9365-13.0435-7.6318-18.9155-12.4131
		c-6.0362-4.5283-12.2427-8.8682-17.6289-14.1728c-5.5884-5.0772-11.3155-10.0098-16.1846-15.8057
		c-5.084-5.5693-10.3062-11.0439-14.5889-17.2881c-4.541-6.0234-9.1899-11.9844-12.8672-18.6006
		c-3.9419-6.4336-7.9912-12.8105-11.0058-19.7607c-3.2988-6.793-6.73-13.5225-9.0386-20.7324
		c-2.5923-7.0829-5.3989-14.1094-6.9819-21.5137c-1.8355-7.3164-4.0493-14.5576-4.8692-22.0879
		c-1.0029-7.4805-2.6748-14.8789-2.7124-22.4541c-0.1196-7.5371-1.3305-15.0811-0.5737-22.6118
		c0.5737-7.5249,0.3276-15.1314,1.5767-22.5772c1.2929-7.4267,1.9487-14.9956,3.7592-22.3183
		c1.9991-7.2691,3.4878-14.7056,5.9034-21.8423c2.706-7.042,4.9575-14.2764,8.0166-21.167
		c3.3745-6.749,6.3388-13.7119,10.0478-20.2842l11.9585-19.2153l13.7622-17.9693l15.4219-16.5727
		c5.6636-4.9732,10.9932-10.3657,16.9287-15.0049c6.1304-4.4087,11.9268-9.2847,18.3096-13.3149
		c6.5092-3.794,12.7597-8.1079,19.5024-11.4854c6.8433-3.1504,13.4849-6.831,20.5112-9.5493
		c7.1211-2.4819,14.0909-5.4556,21.3438-7.5244c7.3291-1.7788,14.5762-3.98,21.9746-5.4214l22.4038-3.2827l22.6177-1.1353
		l22.6182,1.1353l22.3974,3.2827c7.3985,1.4414,14.6455,3.6426,21.9746,5.4214c7.253,2.0688,14.2227,5.0425,21.3438,7.5244
		c7.0322,2.7183,13.6679,6.3989,20.5117,9.5493c6.7422,3.3775,12.9922,7.6914,19.5019,11.4854
		c6.3829,4.0302,12.1788,8.9062,18.3096,13.3149c5.9414,4.6392,11.2647,10.0317,16.9287,15.0049l15.4219,16.5727l13.7617,17.9693
		l11.9658,19.2153c3.7022,6.5723,6.667,13.5352,10.0411,20.2842c3.0585,6.8906,5.3105,14.125,8.0166,21.167
		c2.4218,7.1367,3.9043,14.5732,5.9033,21.8423c1.8164,7.3227,2.4658,14.8916,3.7588,22.3183
		c1.249,7.4458,1.0039,15.0523,1.5771,22.5772c0.7569,7.5307-0.4473,15.0747-0.5732,22.6118
		C621.8745,529.5421,620.2026,536.9404,619.1997,544.421z"/>
</g>
<g id="spider-web-stamp-inner-border">
	<path fill="#917561" d="M673.6694,158.1777v22.3721v22.3814v22.3813v22.3721v22.372v22.3716v22.3784v22.3814v22.3721v22.372
		v22.3716v22.3818v22.3814v22.3721v22.3686v22.3692v22.3779v22.3906v22.3661v22.378v22.3662v22.3779v22.3848v22.372v22.3721v22.3711
		v22.3721v22.3916v22.372v22.3721v22.3711v22.3661v22.3906h-22.832h-22.8076h-22.8135h-22.8135h-22.8262h-22.8134h-22.8135h-22.8262
		H468.311h-22.8144h-22.8135h-22.8252h-22.814h-22.8135h-22.8071h-22.8325h-22.8135h-22.8071h-22.8135h-22.8325h-22.8071h-22.8135
		h-22.8135h-22.8262h-22.8134v-22.3906v-22.3661v-22.3711v-22.3721v-22.372v-22.3916v-22.3721v-22.3711v-22.3721v-22.372v-22.3848
		v-22.3779v-22.3662v-22.378v-22.3661v-22.3906v-22.3779v-22.3692V471.439V449.067v-22.3814v-22.3818v-22.3716v-22.372V337.188
		v-22.3814v-22.3784v-22.3716v-22.372v-22.3721v-22.3813v-22.3814v-22.3721v-22.372v-22.3692l0,0V90.9039H80.7212v22.5327l0,0
		v22.3692v22.372v22.3721v22.3814v22.3813v22.3721v22.372v22.3716v22.3784v22.3814v22.3721v22.372v22.3716v22.3818v22.3814v22.3721
		v22.3686v22.3692v22.3779v22.3906v22.3661v22.378v22.3662v22.3779v22.3848v22.372v22.3721v22.3711v22.3721v22.3916v22.372v22.3721
		v22.3711v22.3661v22.3906v22.5303h22.5293h22.8134h22.8262h22.8135h22.8135h22.8071h22.8325h22.8135h22.8071h22.8135h22.8325
		h22.8071h22.8135h22.814h22.8252h22.8135h22.8144h22.8125h22.8262h22.8135h22.8134h22.8262h22.8135h22.8135h22.8076h22.832h22.5303
		v-22.5303v-22.3906v-22.3661v-22.3711v-22.3721v-22.372v-22.3916v-22.3721v-22.3711v-22.3721v-22.372v-22.3848v-22.3779v-22.3662
		v-22.378v-22.3661v-22.3906v-22.3779v-22.3692V471.439V449.067v-22.3814v-22.3818v-22.3716v-22.372V337.188v-22.3814v-22.3784
		v-22.3716v-22.372v-22.3721v-22.3813v-22.3814v-22.3721v-22.372v-22.3692h-22.5303v22.3692V158.1777z M91.9858,92.6036
		l9.5557,9.5654l-9.5557,9.5586l-9.562-9.5586L91.9858,92.6036z M82.4238,124.6134l9.562-9.4893l9.5557,9.4893l-9.5557,9.4956
		L82.4238,124.6134z M82.4238,146.9918l9.562-9.4956l9.5557,9.4956l-9.5557,9.4985L82.4238,146.9918z M82.4238,169.373l9.562-9.5048
		l9.5557,9.5048l-9.5557,9.4893L82.4238,169.373z M82.4238,191.7451l9.562-9.4956l9.5557,9.4956l-9.5557,9.4893L82.4238,191.7451z
		 M82.4238,214.1172l9.562-9.4863l9.5557,9.4863l-9.5557,9.4858L82.4238,214.1172z M82.4238,236.4889l9.562-9.4859l9.5557,9.4859
		l-9.5557,9.4956L82.4238,236.4889z M82.4238,258.8701l9.562-9.4951l9.5557,9.4951l-9.5557,9.4961L82.4238,258.8701z
		 M82.4238,281.252l9.562-9.5054l9.5557,9.5054l-9.5557,9.4863L82.4238,281.252z M82.4238,303.6241l9.562-9.499l9.5557,9.499
		l-9.5557,9.4859L82.4238,303.6241z M82.4238,325.9927l9.562-9.4864l9.5557,9.4864l-9.5557,9.4892L82.4238,325.9927z
		 M82.4238,348.3647l9.562-9.4863l9.5557,9.4863l-9.5557,9.4986L82.4238,348.3647z M82.4238,370.7462l9.562-9.4956l9.5557,9.4956
		l-9.5557,9.4956L82.4238,370.7462z M82.4238,393.1274l9.562-9.5053l9.5557,9.5053l-9.5557,9.4864L82.4238,393.1274z
		 M82.4238,415.4995l9.562-9.4956l9.5557,9.4956l-9.5557,9.4859L82.4238,415.4995z M82.4238,437.8716l9.562-9.4898l9.5557,9.4898
		l-9.5557,9.4858L82.4238,437.8716z M82.4238,460.2433l9.562-9.4893l9.5557,9.4893l-9.5557,9.4961L82.4238,460.2433z
		 M82.4238,482.625l9.562-9.499l9.5557,9.499l-9.5557,9.4956L82.4238,482.625z M82.4238,505.003l9.562-9.5049l9.5557,9.5049
		l-9.5557,9.4893L82.4238,505.003z M82.4238,527.3779l9.562-9.5107l9.5557,9.5107l-9.5557,9.4864L82.4238,527.3779z
		 M82.4238,549.7441l9.562-9.4863l9.5557,9.4863l-9.5557,9.4922L82.4238,549.7441z M82.4238,572.1221l9.562-9.4864l9.5557,9.4864
		l-9.5557,9.4863L82.4238,572.1221z M82.4238,594.4883l9.562-9.4863l9.5557,9.4863l-9.5557,9.5107L82.4238,594.4883z
		 M82.4238,616.879l9.562-9.499l9.5557,9.499l-9.5557,9.4863L82.4238,616.879z M82.4238,639.2568l9.562-9.5107l9.5557,9.5107
		l-9.5557,9.4864L82.4238,639.2568z M82.4238,661.623l9.562-9.4863l9.5557,9.4863l-9.5557,9.4864L82.4238,661.623z
		 M82.4238,683.9941l9.562-9.4853l9.5557,9.4853l-9.5557,9.4932L82.4238,683.9941z M82.4238,706.3672l9.562-9.4863l9.5557,9.4863
		l-9.5557,9.5049L82.4238,706.3672z M82.4238,728.7578l9.562-9.5058l9.5557,9.5058l-9.5557,9.4863L82.4238,728.7578z
		 M82.4238,751.1299l9.562-9.5059l9.5557,9.5059l-9.5557,9.4854L82.4238,751.1299z M82.4238,773.502l9.562-9.4863l9.5557,9.4863
		l-9.5557,9.4854L82.4238,773.502z M82.4238,795.873l9.562-9.4921l9.5557,9.4921l-9.5557,9.4864L82.4238,795.873z M82.4238,818.2451
		l9.562-9.4853l9.5557,9.4853l-9.5557,9.5049L82.4238,818.2451z M82.4238,840.6367l9.562-9.5117l9.5557,9.5117l-9.5557,9.4863
		L82.4238,840.6367z M82.4238,863.002l9.562-9.4991l9.5557,9.4991l-9.5557,9.4921L82.4238,863.002z M82.4238,885.3799l9.562-9.4854
		l9.5557,9.4854l-9.5557,9.4863L82.4238,885.3799z M91.9858,917.3965l-9.562-9.5625l9.562-9.5742l9.5557,9.5742L91.9858,917.3965z
		 M114.6543,917.3965l-9.6822-9.5625l9.6822-9.5557l9.6816,9.5557L114.6543,917.3965z M137.4677,917.3965l-9.6821-9.5625
		l9.6821-9.5557l9.6816,9.5557L137.4677,917.3965z M160.3003,917.3965l-9.6817-9.5625l9.6817-9.5557l9.6753,9.5557
		L160.3003,917.3965z M183.1069,917.3965l-9.6816-9.5625l9.6816-9.5557l9.6821,9.5557L183.1069,917.3965z M205.9204,917.3965
		l-9.6817-9.5625l9.6817-9.5557l9.6821,9.5557L205.9204,917.3965z M228.7343,917.3965l-9.6821-9.5625l9.6821-9.5557l9.6817,9.5557
		L228.7343,917.3965z M251.56,917.3965l-9.6816-9.5625l9.6816-9.5557l9.6817,9.5557L251.56,917.3965z M274.3735,917.3965
		l-9.6816-9.5625l9.6816-9.5557l9.6821,9.5557L274.3735,917.3965z M297.187,917.3965l-9.6817-9.5625l9.6817-9.5557l9.6821,9.5557
		L297.187,917.3965z M320.0132,917.3965l-9.6817-9.5625l9.6817-9.5557l9.663,9.5557L320.0132,917.3965z M342.8266,917.3965
		l-9.6816-9.5625l9.6816-9.5557l9.6817,9.5557L342.8266,917.3965z M365.6401,917.3965l-9.6816-9.5625l9.6816-9.5557l9.6817,9.5557
		L365.6401,917.3965z M388.4536,917.3965l-9.6817-9.5625l9.6817-9.5557l9.6758,9.5557L388.4536,917.3965z M411.2798,917.3965
		l-9.7002-9.5625l9.7002-9.5557l9.663,9.5557L411.2798,917.3965z M434.0932,917.3965l-9.6816-9.5625l9.6816-9.5557l9.6817,9.5557
		L434.0932,917.3965z M456.9067,917.3965l-9.6816-9.5625l9.6816-9.5557l9.6758,9.5557L456.9067,917.3965z M479.7143,917.3965
		l-9.6816-9.5625l9.6816-9.5557l9.6817,9.5557L479.7143,917.3965z M502.5464,917.3965l-9.6817-9.5625l9.6817-9.5557l9.663,9.5557
		L502.5464,917.3965z M525.3598,917.3965l-9.6816-9.5625l9.6816-9.5557l9.6758,9.5557L525.3598,917.3965z M548.1675,917.3965
		l-9.6817-9.5625l9.6817-9.5557l9.6816,9.5557L548.1675,917.3965z M570.9809,917.3965l-9.6816-9.5625l9.6816-9.5557l9.6817,9.5557
		L570.9809,917.3965z M593.813,917.3965l-9.6817-9.5625l9.6817-9.5557l9.6816,9.5557L593.813,917.3965z M616.6206,917.3965
		l-9.6826-9.5625l9.6826-9.5557l9.6816,9.5557L616.6206,917.3965z M639.4341,917.3965l-9.6817-9.5625l9.6817-9.5557l9.6816,9.5557
		L639.4341,917.3965z M662.2475,917.3965l-9.6816-9.5625l9.6816-9.5557l9.6817,9.5557L662.2475,917.3965z M684.9341,917.3965
		l-9.5743-9.5625l9.5743-9.5557l9.5556,9.5557L684.9341,917.3965z M694.4897,885.3799l-9.5556,9.4863l-9.5547-9.4863l9.5547-9.4854
		L694.4897,885.3799z M694.4897,863.002l-9.5556,9.4921l-9.5547-9.4921l9.5547-9.4864L694.4897,863.002z M694.4897,840.6367
		l-9.5556,9.4863l-9.5547-9.4863l9.5547-9.5117L694.4897,840.6367z M694.4897,818.2451l-9.5556,9.5049l-9.5547-9.5049l9.5547-9.4853
		L694.4897,818.2451z M694.4897,795.873l-9.5556,9.5059l-9.5547-9.5059l9.5547-9.4921L694.4897,795.873z M694.4897,773.502
		l-9.5556,9.4854l-9.5547-9.4854l9.5547-9.4863L694.4897,773.502z M694.4897,751.1299l-9.5556,9.4854l-9.5547-9.4854l9.5547-9.4863
		L694.4897,751.1299z M694.4897,728.7578l-9.5556,9.4863l-9.5547-9.4863l9.5547-9.5058L694.4897,728.7578z M694.4897,706.3672
		l-9.5556,9.5049l-9.5547-9.5049l9.5547-9.4863L694.4897,706.3672z M694.4897,683.9941l-9.5556,9.5059l-9.5547-9.5059l9.5547-9.4853
		L694.4897,683.9941z M694.4897,661.623l-9.5556,9.4864l-9.5547-9.4864l9.5547-9.4863L694.4897,661.623z M694.4897,639.2568
		l-9.5556,9.4864l-9.5547-9.4864l9.5547-9.4922L694.4897,639.2568z M694.4897,616.879l-9.5556,9.4863l-9.5547-9.4863l9.5547-9.499
		L694.4897,616.879z M694.4897,594.4883l-9.5556,9.5107l-9.5547-9.5107l9.5547-9.4863L694.4897,594.4883z M694.4897,572.1221
		l-9.5556,9.499l-9.5547-9.499l9.5547-9.4864L694.4897,572.1221z M694.4897,549.7441l-9.5556,9.4922l-9.5547-9.4922l9.5547-9.4863
		L694.4897,549.7441z M694.4897,527.3779l-9.5556,9.4864l-9.5547-9.4864l9.5547-9.4853L694.4897,527.3779z M694.4897,505.003
		l-9.5556,9.4893l-9.5547-9.4893l9.5547-9.5049L694.4897,505.003z M694.4897,482.625l-9.5556,9.4956l-9.5547-9.4956l9.5547-9.499
		L694.4897,482.625z M694.4897,460.2433l-9.5556,9.4961l-9.5547-9.4961l9.5547-9.4893L694.4897,460.2433z M694.4897,437.8716
		l-9.5556,9.4956l-9.5547-9.4956l9.5547-9.4898L694.4897,437.8716z M694.4897,415.4995l-9.5556,9.4859l-9.5547-9.4859l9.5547-9.4956
		L694.4897,415.4995z M694.4897,393.1274l-9.5556,9.4864l-9.5547-9.4864l9.5547-9.5053L694.4897,393.1274z M694.4897,370.7462
		l-9.5556,9.4956l-9.5547-9.4956l9.5547-9.4956L694.4897,370.7462z M694.4897,348.3647l-9.5556,9.5049l-9.5547-9.5049l9.5547-9.4863
		L694.4897,348.3647z M694.4897,325.9927l-9.5556,9.4985l-9.5547-9.4985l9.5547-9.4864L694.4897,325.9927z M694.4897,303.6241
		l-9.5556,9.4859l-9.5547-9.4859l9.5547-9.499L694.4897,303.6241z M694.4897,281.252l-9.5556,9.4863l-9.5547-9.4863l9.5547-9.5054
		L694.4897,281.252z M694.4897,258.8701l-9.5556,9.4961l-9.5547-9.4961l9.5547-9.4951L694.4897,258.8701z M694.4897,236.4889
		l-9.5556,9.5053l-9.5547-9.5053l9.5547-9.4859L694.4897,236.4889z M694.4897,214.1172l-9.5556,9.4951l-9.5547-9.4951l9.5547-9.4863
		L694.4897,214.1172z M694.4897,191.7451l-9.5556,9.4893l-9.5547-9.4893l9.5547-9.4956L694.4897,191.7451z M694.4897,169.373
		l-9.5556,9.4893l-9.5547-9.4893l9.5547-9.4956L694.4897,169.373z M684.9341,115.124l9.5556,9.4893l-9.5556,9.5049l-9.5547-9.5049
		L684.9341,115.124z M675.3794,146.9918l9.5547-9.4956l9.5556,9.4956l-9.5556,9.4985L675.3794,146.9918z"/>
	<path fill="#917561" d="M696.1997,113.4273V90.8976h-22.5303v0.0063h-22.832h-22.8076h-22.8135h-22.8135h-22.8262h-22.8134
		h-22.8135h-22.8262H468.311h-22.8144h-22.8135h-22.8252h-22.814h-22.8135h-22.8071h-22.8325h-22.8135h-22.8071h-22.8135h-22.8325
		h-22.8071h-22.8135h-22.8135h-22.8262h-22.8134v22.5327h22.8134h22.8262h22.8135h22.8135h22.8071h22.8325h22.8135h22.8071h22.8135
		h22.8325h22.8071h22.8135h22.814h22.8252h22.8135h22.8144h22.8125h22.8262h22.8135h22.8134h22.8262h22.8135h22.8135h22.8076h22.832
		v-0.0093H696.1997z M684.9341,92.6134l9.5556,9.5493l-9.5556,9.5649l-9.5547-9.5649L684.9341,92.6134z M114.6543,111.7276
		l-9.6822-9.5586l9.6822-9.5654l9.6816,9.5654L114.6543,111.7276z M137.4677,111.7276l-9.663-9.5586l9.663-9.5654l9.6816,9.5654
		L137.4677,111.7276z M160.3003,111.7276l-9.6817-9.5586l9.6817-9.5654l9.6753,9.5654L160.3003,111.7276z M183.1069,111.7276
		l-9.6816-9.5586l9.6816-9.5654l9.6821,9.5654L183.1069,111.7276z M205.9204,111.7276l-9.6817-9.5586l9.6817-9.5654l9.6821,9.5654
		L205.9204,111.7276z M228.7343,111.7276l-9.663-9.5586l9.663-9.5654l9.6939,9.5654L228.7343,111.7276z M251.56,111.7276
		l-9.6816-9.5586l9.6816-9.5654l9.6817,9.5654L251.56,111.7276z M274.3735,111.7276l-9.6816-9.5586l9.6816-9.5654l9.6821,9.5654
		L274.3735,111.7276z M297.187,111.7276l-9.6817-9.5586l9.6817-9.5654l9.6821,9.5654L297.187,111.7276z M320.0132,111.7276
		l-9.6817-9.5586l9.6817-9.5654l9.6816,9.5654L320.0132,111.7276z M342.8266,111.7276l-9.6816-9.5586l9.6816-9.5654l9.6817,9.5654
		L342.8266,111.7276z M365.6401,111.7276l-9.6816-9.5586l9.6816-9.5654l9.6817,9.5654L365.6401,111.7276z M388.4536,111.7276
		l-9.6817-9.5586l9.6817-9.5654l9.6758,9.5654L388.4536,111.7276z M411.2798,111.7276l-9.6817-9.5586l9.6817-9.5654l9.6816,9.5654
		L411.2798,111.7276z M434.0932,111.7276l-9.6816-9.5586l9.6816-9.5654l9.6817,9.5654L434.0932,111.7276z M456.9067,111.7276
		l-9.6816-9.5586l9.6816-9.5654l9.6758,9.5654L456.9067,111.7276z M479.7143,111.7276l-9.6816-9.5586l9.6816-9.5654l9.6817,9.5654
		L479.7143,111.7276z M502.5464,111.7276l-9.6817-9.5586l9.6817-9.5654l9.6816,9.5654L502.5464,111.7276z M525.3598,111.7276
		l-9.6816-9.5586l9.6816-9.5654l9.6758,9.5654L525.3598,111.7276z M548.1675,111.7276l-9.6817-9.5586l9.6817-9.5654l9.6816,9.5654
		L548.1675,111.7276z M570.9809,111.7276l-9.6816-9.5586l9.6816-9.5654l9.6817,9.5654L570.9809,111.7276z M593.813,111.7276
		l-9.6817-9.5586l9.6817-9.5654l9.6816,9.5654L593.813,111.7276z M616.6206,111.7276l-9.6826-9.5586l9.6826-9.5654l9.6816,9.5654
		L616.6206,111.7276z M639.4341,111.7276l-9.6817-9.5586l9.6817-9.5654l9.6816,9.5654L639.4341,111.7276z M662.2475,111.7276
		l-9.6631-9.5586l9.6631-9.5654l9.6817,9.5654L662.2475,111.7276z"/>
</g>
<g id="spider-web-stamp-ribbon">
	<g id="spider-web-stamp-ribbon_1_">
		<g>
			<polygon fill="#EBD5B2" points="226.8672,238.1006 153.3242,238.1006 179.7138,209.374 153.3242,175.7623 200.1997,175.7623 
				200.1997,223.5338 226.8672,223.5338 			"/>
			<polygon fill="#EBD5B2" points="623.5766,238.1006 550.0151,238.1006 550.0151,223.5338 574.2221,223.5338 574.2221,175.7623 
				623.5766,175.7623 597.188,209.374 			"/>
			<polygon fill="#EBD5B2" points="206.8354,158.7232 206.8354,171.899 206.8354,216.8893 230.7212,216.8893 546.1616,216.8893 
				567.5805,216.8893 567.5805,171.899 567.5805,158.7232 			"/>
		</g>
	</g>
	<g id="spider-web-stamp-text_1_">
		<path fill="#513E31" d="M254.2221,169.4962c0.1387,0,0.1387,0.063,0.1387,0.123c0,0.2393-0.1387,0.6529-0.3721,0.6529
			l-2.2329,0.3593c-0.5805,0.063-0.8071,0.2994-0.8071,0.5899c-0.3027,3.9956-0.5303,13.6426-0.5303,14.7148
			c0,0.6529,0.1582,0.7759,0.8262,0.8296c3.646,0.0596,10.0352,0.1734,13.2393,0.1226c0.1577-1.8482-0.1451-14.4688-0.1451-15.1909
			c0-0.7032-0.227-1.003-0.8261-1.066l-2.2329-0.3593c-0.2144-0.0537-0.3721-0.3535-0.3721-0.6529c0-0.06,0-0.123,0.1577-0.123
			h11.9712c0.1577,0,0.1577,0.063,0.1577,0.1768c0,0.2456-0.1577,0.5991-0.2964,0.5991l-1.7285,0.2993
			c-0.5107,0.06-0.7378,0.2363-0.8071,1.126c-0.2334,2.1474-0.6685,12.0405-0.8262,15.7871
			c-0.0757,2.8003-0.4414,15.5981-0.4414,16.4936c0,0.7124,0.0693,0.9527,0.5991,1.0752l2.3716,0.5899
			c0.1636,0,0.3027,0.2998,0.3027,0.5361c0,0.0601,0,0.123-0.1391,0.123c-0.668-0.0629-3.065-0.123-5.2095-0.123
			c-2.605,0-4.8442,0.0601-5.8848,0.123c-0.227,0-0.227-0.0629-0.227-0.123c0-0.2363,0.1577-0.4761,0.3721-0.5361l2.5356-0.5899
			c0.4351-0.1225,0.5991-0.2456,0.6685-0.7221c0.1577-1.6021,0-14.8819,0-16.4307c-3.4185,0.06-10.2618,0.2998-13.3965,0.4136
			c-0.5996,0-0.7383,0.1762-0.7383,0.5991c-0.145,2.1445-0.4414,13.4565-0.3027,15.541c0,0.4131,0.2334,0.5991,0.6689,0.6499
			l2.8379,0.5391c0.2085,0.06,0.3662,0.2998,0.3662,0.4731c0,0.1231,0,0.186-0.1577,0.186c-1.3374-0.0629-3.2739-0.123-6.0171-0.123
			c-2.3779,0-4.3144,0.0601-5.4248,0.123c-0.1572,0-0.1572-0.0629-0.1572-0.186c0-0.1733,0.1572-0.4131,0.3027-0.4731l2.3018-0.5391
			c0.5302-0.123,0.6689-0.2368,0.6689-0.896c0-1.9551-0.1387-14.3994-0.1387-16.6699c0-2.252-0.3027-14.7686-0.3027-15.7715
			c0-0.6592-0.2275-1.0723-0.896-1.1353l-1.936-0.3593c-0.2271-0.0537-0.3721-0.3535-0.3721-0.5991c0-0.1138,0-0.1768,0.2334-0.1768
			H254.2221z"/>
		<path fill="#513E31" d="M292.2046,169.4454c1.2675,0,2.4658,0,3.4311,0.0508c0.2144,0,0.3721,0.063,0.4414,0.2461
			c1.7974,7.8525,6.1812,24.8916,8.7862,34.2895c0.1386,0.5992,0.435,1.0215,0.8955,1.0723l1.9174,0.4761
			c0.2964,0.063,0.4605,0.3628,0.4605,0.5991c0,0.0601,0,0.123-0.2334,0.123c-1.4761-0.0629-3.4121-0.123-4.9067-0.123
			c-2.4473,0-4.5415,0.0601-6.5474,0.123c-0.145,0-0.145-0.0629-0.145-0.123c0-0.1768,0.0693-0.5361,0.372-0.5991l3.0464-0.4761
			c0.524-0.0508,0.7383-0.3501,0.5992-0.8267c-0.9712-3.0429-2.6045-8.3413-3.5762-11.2548
			c-2.6045,0.0595-9.0825,0.1762-11.6685,0.29c-0.3911,0-0.5991,0.2461-0.6684,0.5991c-0.5992,2.6206-1.7281,7.2061-2.2393,10.2427
			c-0.1572,0.7764,0.1455,0.8989,0.5996,0.9497l3.0459,0.4761c0.2276,0.063,0.4419,0.2998,0.4419,0.5991
			c0,0.123-0.0693,0.123-0.2143,0.123c-1.4952-0.0629-3.501-0.123-5.6641-0.123c-1.8482,0-3.4883,0.0601-4.6108,0.123
			c-0.1451,0-0.1451-0.0629-0.1451-0.186c0-0.1733,0.0694-0.4731,0.3028-0.5361l1.6338-0.3501
			c0.58-0.1768,0.8828-0.3628,1.1792-1.0757c2.6743-7.9219,8.1176-25.188,10.9497-33.3467
			c0.2963-0.9492,1.0405-1.3623,2.4472-1.3623H292.2046z M290.6528,172.5963c-0.227,0.8354-0.4541,1.6714-0.5928,2.1475
			c-1.5009,4.9985-3.6455,12.3813-4.8437,16.4306c-0.0698,0.3594,0,0.4732,0.3027,0.5361
			c2.6738,0.1763,8.3252,0.4224,10.9302,0.3531c-0.8828-3.2134-3.4878-12.148-4.9829-17.1968
			c-0.1445-0.6626-0.3721-1.4351-0.6685-2.2705H290.6528z"/>
		<path fill="#513E31" d="M324.624,169.4962c0.145,0,0.145,0.063,0.145,0.123c0,0.2393-0.145,0.5391-0.3721,0.5992l-2.4472,0.413
			c-0.7569,0.1167-0.9649,0.5899-1.0532,1.252c-0.2837,3.3872-0.5806,12.0278-0.7378,15.0557
			c-0.0762,2.4472-0.3726,16.5659-0.3726,17.6381c0,0.5269,0.2964,0.6529,0.8267,0.6529c2.6045,0,6.5468-0.1768,9.3662-0.5396
			c0.8955-0.1826,1.4946-0.4824,1.8667-1.0722l2.9013-4.4082c0.0699-0.0538,0.1392-0.0538,0.2144-0.0538
			c0.1582,0,0.5996,0.3531,0.5996,0.4761l-1.4131,6.2476c-0.0693,0.2993-0.2964,0.4761-0.5991,0.4761
			c-0.2964,0-1.7031-0.0538-4.3833-0.1167c-2.6055,0-6.4023-0.0601-11.5234-0.0601c-1.8672,0-3.5767,0.0601-6.0425,0.123
			c-0.1392,0-0.1392-0.0629-0.1392-0.186c0-0.1733,0.1392-0.4731,0.3721-0.5361l2.4473-0.4131
			c0.5239-0.1138,0.7568-0.2998,0.7568-0.959c0.0698-1.9551-0.0879-14.3994-0.0879-16.6699c0-2.252,0-14.2925-0.145-15.5947
			c0-0.6499-0.2271-1.1358-0.9653-1.3121l-2.1631-0.413c-0.2149-0.0601-0.3028-0.3599-0.3028-0.5992c0-0.06,0-0.123,0.1573-0.123
			H324.624z"/>
		<path fill="#513E31" d="M353.0385,169.4962c0.1387,0,0.1387,0.063,0.1387,0.123c0,0.2393-0.1387,0.5391-0.372,0.5992l-2.46,0.413
			c-0.7442,0.1167-0.9717,0.5899-1.041,1.252c-0.2959,3.3872-0.5991,12.0278-0.7378,15.0557
			c-0.0694,2.4472-0.3721,16.5659-0.3721,17.6381c0,0.5269,0.3027,0.6529,0.814,0.6529c2.6045,0,6.5469-0.1768,9.3789-0.5396
			c0.8955-0.1826,1.4756-0.4824,1.8667-1.0722l2.8887-4.4082c0.082-0.0538,0.1577-0.0538,0.227-0.0538
			c0.1577,0,0.5991,0.3531,0.5991,0.4761l-1.4126,6.2476c-0.0884,0.2993-0.2964,0.4761-0.5927,0.4761
			c-0.3028,0-1.7095-0.0538-4.4029-0.1167c-2.605,0-6.3891-0.0601-11.5298-0.0601c-1.8476,0-3.5761,0.0601-6.0171,0.123
			c-0.1635,0-0.1635-0.0629-0.1635-0.186c0-0.1733,0.1635-0.4731,0.3906-0.5361l2.4473-0.4131
			c0.5234-0.1138,0.7382-0.2998,0.7382-0.959c0.0879-1.9551-0.0693-14.3994-0.0693-16.6699c0-2.252,0-14.2925-0.1455-15.5947
			c0-0.6499-0.2271-1.1358-0.9648-1.3121l-2.1636-0.413c-0.2329-0.0601-0.3028-0.3599-0.3028-0.5992c0-0.06,0-0.123,0.1578-0.123
			H353.0385z"/>
		<path fill="#513E31" d="M379.8633,206.6553c-7.3609,0-12.3433-5.3614-12.3433-16.916c0-11.5489,5.2852-20.7164,14.5762-20.7164
			c8.414,0,12.2861,7.023,12.2861,17.2125c0,13.3339-5.9663,20.4199-14.4307,20.4199H379.8633z M380.7588,205.7032
			c5.0713,0,8.042-7.206,8.042-19.1142c0-8.5215-1.8609-16.6704-7.2154-16.6704c-5.7397,0-8.4834,9.1108-8.4834,19.4169
			c0,10.2969,3.1157,16.3677,7.5874,16.3677H380.7588z"/>
		<path fill="#513E31" d="M412.0561,204.8672c0.2266-0.6592,0.3838-1.3623,0.5987-2.0244
			c2.0937-7.3828,6.4082-22.5645,8.3447-30.6631c0.2959-1.1353,0.5049-1.249,2.3711-1.3721
			c0.5117-0.0596,1.2685-0.0596,1.4824-0.0596c0.2969,0,0.4541,0.0596,0.4541,0.2461c1.041,4.8218,5.21,24.4121,6.9883,31.9654
			c0.1582,0.6587,0.3027,1.3178,0.5303,1.9077h0.208c0.164-0.5899,0.3027-1.189,0.4609-1.8384
			c1.4756-7.3325,4.0801-22.5737,5.1211-31.2085c0.1582-0.8262,0-1.0723-0.5107-1.189l-3.0596-0.3593
			c-0.2139,0-0.2832-0.3535-0.2832-0.5991c0-0.1138,0-0.1768,0.1387-0.1768h10.4199c0.1445,0,0.1445,0.063,0.1445,0.1768
			c0,0.2993-0.0752,0.5454-0.3027,0.5991l-1.4756,0.3593c-0.5303,0.1167-0.7568,0.5391-0.9024,0.8892
			c-1.1923,4.7085-6.913,29.3604-8.25,33.5835c-0.372,1.0752-0.832,1.1353-3.5068,1.1982h-1.7031
			c-0.3028,0-0.4414-0.123-0.5293-0.2998c-1.4063-4.9448-4.8252-17.4428-6.0235-22.81c-0.1386-0.5298-0.4355-1.9019-0.6689-3.627
			h-0.3652c-0.3721,1.8482-0.8272,3.1504-1.1104,4.1724c-1.3564,4.2226-5.5127,17.4966-7.2158,21.5425
			c-0.3906,0.8989-0.7568,0.959-3.8027,1.0219h-1.4952c-0.2841,0-0.372-0.0629-0.5107-0.3593
			c-1.4072-5.2984-5.0713-27.689-6.251-34.7725c-0.0693-0.3628-0.1572-0.5391-0.5986-0.5991l-1.7793-0.2993
			c-0.2959,0-0.3848-0.3535-0.3848-0.6529c0-0.06,0.0889-0.123,0.2276-0.123h12.5703c0.1572,0,0.1572,0.063,0.1572,0.123
			c0,0.2994-0.1572,0.6529-0.3721,0.6529l-2.9013,0.2993c-0.4414,0.06-0.7373,0.2998-0.7373,0.7222
			c0.3652,4.9985,2.6738,23.6367,3.8535,31.1899c0.0879,0.6587,0.2265,1.5483,0.3847,2.3838H412.0561z"/>
		<path fill="#513E31" d="M471.2495,206.0563c-0.0693,0.246-0.2266,0.3598-0.5986,0.3598c-0.2969,0-1.3379-0.06-3.7149-0.1138
			c-2.46-0.0629-6.2451-0.123-12.1299-0.123c-1.9297,0-4.2383,0.0601-6.0166,0.123c-0.1582,0-0.1582-0.0629-0.1582-0.123
			c0-0.1768,0.0703-0.5361,0.3731-0.5991l2.459-0.4761c0.4414-0.0508,0.7382-0.2964,0.7382-0.9497
			c0.1641-1.7847,0-14.9448,0-17.2153c-0.0693-2.252-0.0693-13.8697-0.2265-15.2417c-0.0703-0.6529-0.209-0.9493-0.877-1.066
			l-2.2392-0.413c-0.2276-0.0601-0.2969-0.3599-0.2969-0.5992c0-0.123,0-0.1738,0.1396-0.1738c1.3555,0,3.6641,0.0508,5.67,0.0508
			c11.5293,0,15.2382-0.1138,16.0703-0.1138c0.3662,0,0.4355,0.1138,0.4355,0.4136l0.1455,5.957
			c0,0.2398-0.4414,0.4761-0.6689,0.4761c-0.0694,0-0.1446,0-0.2149-0.1138c-0.5986-1.5483-1.3369-2.9829-2.0048-4.5312
			c-0.2276-0.4766-0.7569-0.5899-1.4952-0.7129c-2.0752-0.1768-6.4775-0.4766-7.8847-0.4229c-0.5987,0-0.668,0.1231-0.668,0.3594
			c-0.3721,3.9361-0.7441,13.9331-0.6689,15.6582c4.4658,0.1231,9.8896,0.2998,11.4541,0.2998c0.1455,0,0.1455,0.0596,0.1455,0.1226
			c0,0.2998-0.3028,0.7729-0.5108,0.7729c-1.5703,0.1231-6.8496,0.2393-10.4199,0.4131c-0.6689,0.063-0.8135,0.2398-0.8135,0.6621
			c-0.0888,2.1983-0.3847,14.5196-0.3847,15.6548c0,0.5899,0.1572,0.7759,0.6679,0.7759c3.2744,0,6.7051-0.1138,9.9785-0.4766
			c0.8135-0.1133,1.337-0.4131,1.709-0.9585c0.8955-1.2485,1.7793-2.5512,2.6055-3.8003c0.0693-0.1259,0.1387-0.1259,0.2266-0.1259
			c0.2148,0,0.6689,0.2998,0.581,0.539L471.2495,206.0563z"/>
		<path fill="#513E31" d="M499.8032,206.0563c-0.0762,0.246-0.2334,0.3598-0.5996,0.3598c-0.3027,0-1.3369-0.06-3.7149-0.1138
			c-2.4668-0.0629-6.2509-0.123-12.1289-0.123c-1.9365,0-4.2451,0.0601-6.0175,0.123c-0.1641,0-0.1641-0.0629-0.1641-0.123
			c0-0.1768,0.0762-0.5361,0.3721-0.5991l2.4668-0.4761c0.4414-0.0508,0.7373-0.2964,0.7373-0.9497
			c0.1582-1.7847,0-14.9448,0-17.2153c-0.0694-2.252-0.0694-13.8697-0.2266-15.2417c-0.0693-0.6529-0.2148-0.9493-0.8828-1.066
			l-2.2334-0.413c-0.2334-0.0601-0.3027-0.3599-0.3027-0.5992c0-0.123,0-0.1738,0.1455-0.1738c1.3554,0,3.6582,0.0508,5.664,0.0508
			c11.5293,0,15.2442-0.1138,16.0703-0.1138c0.3731,0,0.4415,0.1138,0.4415,0.4136l0.1396,5.957
			c0,0.2398-0.4424,0.4761-0.6689,0.4761c-0.0694,0-0.1387,0-0.2081-0.1138c-0.5996-1.5483-1.3369-2.9829-2.0058-4.5312
			c-0.2334-0.4766-0.7568-0.5899-1.501-0.7129c-2.0752-0.1768-6.4775-0.4766-7.8848-0.4229c-0.5986,0-0.6679,0.1231-0.6679,0.3594
			c-0.3721,3.9361-0.7383,13.9331-0.669,15.6582c4.4717,0.1231,9.8897,0.2998,11.461,0.2998c0.1386,0,0.1386,0.0596,0.1386,0.1226
			c0,0.2998-0.2968,0.7729-0.5107,0.7729c-1.5645,0.1231-6.8438,0.2393-10.4199,0.4131c-0.669,0.063-0.8076,0.2398-0.8076,0.6621
			c-0.0879,2.1983-0.3907,14.5196-0.3907,15.6548c0,0.5899,0.1573,0.7759,0.668,0.7759c3.2734,0,6.7109-0.1138,9.9844-0.4766
			c0.8076-0.1133,1.3379-0.4131,1.7031-0.9585c0.9023-1.2485,1.7793-2.5512,2.6055-3.8003
			c0.0752-0.1259,0.1445-0.1259,0.2334-0.1259c0.208,0,0.6679,0.2998,0.58,0.539L499.8032,206.0563z"/>
		<path fill="#513E31" d="M514.4419,169.4962c0.372,0,0.4414,0.063,0.58,0.2998c2.1006,4.585,10.0547,21.9678,13.0312,28.5244
			c0.2969,0.5899,0.7383,1.6113,1.1035,2.4375l0.3027-0.1763v-2.624c-0.0693-6.31-0.1386-23.4629-0.372-26.1909
			c-0.0694-0.7222-0.4414-1.0186-1.1797-1.1353l-2.46-0.413c-0.3027-0.0601-0.3711-0.2461-0.3711-0.5454
			c0-0.1138,0-0.1768,0.1387-0.1768h9.751c0.1572,0,0.1572,0.063,0.1572,0.1768c0,0.2993-0.1572,0.5454-0.3848,0.5991
			l-1.5517,0.3593c-0.668,0.1763-0.9649,0.2398-1.0342,1.3121c-0.0879,1.5483-0.5293,11.5454-0.7568,15.4179
			c-0.0694,2.3242-0.3721,15.4214-0.5108,18.6949c0,0.1831,0,0.246-0.2275,0.2998c-0.4414,0.123-1.2676,0.2456-1.7783,0.2456
			c-0.46,0-0.8262-0.1226-1.1289-0.5454c-3.3428-6.0738-10.9307-20.6563-15.0303-29.1143c-0.2842-0.4732-0.669-1.249-0.9717-1.9614
			l-0.3652,0.0595v2.0245c-0.1455,5.5981-0.5117,24.416-0.5117,27.1435c0,0.5996,0.1396,0.773,0.5996,0.8452l3.1855,0.5269
			c0.1572,0.063,0.3652,0.3628,0.3652,0.5991c0,0.0601,0,0.123-0.1386,0.123c-1.3369-0.0629-3.3428-0.123-4.7676-0.123
			c-1.4072,0-3.0469,0.0601-4.3145,0.123c-0.1386,0-0.1386-0.0629-0.1386-0.186c0-0.1733,0.1386-0.4731,0.3652-0.5361l2.3779-0.4761
			c0.461-0.123,0.669-0.2964,0.669-0.9497c0.0879-1.9707-0.1387-14.1689-0.1387-16.6699c0-2.2705-0.3027-14.1695-0.3721-15.541
			c0-0.6499-0.2968-1.0723-1.0341-1.2491l-2.17-0.3628c-0.2968-0.0595-0.4355-0.3593-0.4355-0.6586c0-0.1138,0-0.1768,0.208-0.1768
			H514.4419z"/>
	</g>
</g>
<g id="spider-web-stamp-text-bottom">
	<g id="spider-web-stamp-divider">
		<rect x="128.4922" y="824.666" fill="#EBD5B2" width="101.7749" height="2.6748"/>
		<rect x="165.9448" y="844.332" fill="#EBD5B2" width="64.3223" height="2.6748"/>
		<rect x="546.6216" y="824.666" fill="#EBD5B2" width="101.7871" height="2.6748"/>
		<rect x="546.6216" y="844.332" fill="#EBD5B2" width="64.3349" height="2.6748"/>
	</g>
	<g id="spider-web-stamp-text">
		<path fill="#F88C24" d="M269.7251,854.5001c-7.3731,0-12.356-6.6982-12.356-21.1357s5.2793-25.8916,14.5952-25.8916
			c8.395,0,12.2676,8.7793,12.2676,21.5078c0,16.6699-5.9477,25.5195-14.4375,25.5195H269.7251z M270.6274,853.3076
			c5.0518,0,8.0225-8.9941,8.0225-23.8857c0-10.6338-1.8667-20.8262-7.2154-20.8262c-5.7207,0-8.4834,11.3779-8.4834,24.2578
			c0,12.8662,3.1348,20.4541,7.5879,20.4541H270.6274z"/>
		<path fill="#F88C24" d="M289.4228,833.6602c0-8.7793,2.6743-15.5411,6.459-20.0821c2.9771-3.9424,6.8496-6.1054,10.9492-6.1054
			c2.0059,0,3.4126,0.2265,4.6802,0.9716c0.3027,0.0879,0.3721,0.2959,0.4414,0.668l0.7568,8.3389
			c0.0694,0.3027-0.5297,0.5986-0.8261,0.5986c-0.0694,0-0.1387,0-0.2271-0.088c-0.8833-2.3027-1.7788-4.75-2.75-6.9824
			c-0.227-0.669-0.5234-1.1104-0.8071-1.4131c-0.3848-0.4541-0.9653-0.7568-1.9365-0.7568c-2.3907,0-4.7686,1.8672-6.7046,5.2099
			c-2.4473,4.0996-4.3145,10.6465-4.3145,18.834c0,13.838,5.437,19.4131,10.647,19.4131c0.9522,0,2.4473-0.2266,3.2607-0.4541
			c1.2676-0.3721,2.9898-1.04,4.169-1.6396c0.0693-0.0694,0.3027,0.3027,0.3027,0.7568c0,0.2148-0.0752,0.3721-0.3027,0.4414
			c-1.6333,0.9717-3.4121,1.8672-5.5059,2.6055c-0.8833,0.2959-2.3086,0.5234-4.018,0.5234
			c-8.1109,0-14.2735-7.0703-14.2735-20.7637V833.6602z"/>
		<path fill="#F88C24" d="M343.9179,816.8574c0,0.2276-0.5107,0.4356-0.7377,0.4356c-0.0694,0-0.0694,0-0.1387-0.1387
			l-2.4663-6.4775c-0.2144-0.669-0.5113-0.8077-1.2681-0.9717c-0.7378-0.1387-4.7554-0.5039-6.3892-0.4414
			c-0.3027,4.4531-0.5297,17.3457-0.5991,20.4609c0,4.377-0.372,19.5654-0.372,21.874c0,0.668,0.2334,0.8077,0.7441,0.9707
			l2.7627,0.5811c0.1387,0.0879,0.2964,0.3848,0.2964,0.6807c0,0.2148,0,0.2148-0.1577,0.2148
			c-1.337-0.0693-3.3428-0.1387-6.0171-0.1387c-2.378,0-4.1753,0.0694-5.5821,0.1387c-0.1577,0-0.1577-0.0693-0.1577-0.1387
			c0-0.2275,0.0884-0.6689,0.2969-0.7568l2.6045-0.669c0.4604-0.0751,0.6689-0.2148,0.6689-1.041
			c0-2.4472-0.2085-18.7451-0.2085-21.5644c-0.0883-2.9707-0.227-15.1875-0.3847-20.6123c-1.5513-0.0625-5.1275,0.0761-6.3198,0.372
			c-0.6685,0.1456-1.1099,0.2969-1.337,0.8135l-2.6049,6.5469c-0.0757,0.1582-0.0757,0.1582-0.1451,0.1582
			c-0.2968,0-0.6689-0.2334-0.6689-0.3721l0.3721-8.4834c0-0.372,0.0698-0.5234,0.5112-0.5234
			c0.9648,0,3.0591,0.2969,13.3208,0.2969c9.5244,0,12.2676-0.2969,13.2393-0.2969c0.3657,0,0.4541,0.1514,0.4541,0.5928
			L343.9179,816.8574z"/>
		<path fill="#F88C24" d="M357.4536,854.5001c-7.3735,0-12.356-6.6982-12.356-21.1357s5.2788-25.8916,14.5948-25.8916
			c8.395,0,12.268,8.7793,12.268,21.5078c0,16.6699-5.9541,25.5195-14.4375,25.5195H357.4536z M358.3491,853.3076
			c5.0522,0,8.0293-8.9941,8.0293-23.8857c0-10.6338-1.8672-20.8262-7.2158-20.8262c-5.7207,0-8.4834,11.3779-8.4834,24.2578
			c0,12.8662,3.1289,20.4541,7.5879,20.4541H358.3491z"/>
		<path fill="#F88C24" d="M391.0718,829.6494c0.58,0.0753,1.04,0.1387,1.2548,0.2266c5.6641,0.9717,10.2744,5.7275,10.2744,11.6054
			c0,8.919-8.0419,12.4952-17.2631,12.4952c-1.0406,0-3.0464-0.0694-4.0869-0.0694c-1.4947,0-3.3619,0.0694-5.21,0.1387
			c-0.1577,0-0.1577-0.0693-0.1577-0.1387c0-0.2275,0.0884-0.5996,0.2964-0.6689l2.5356-0.669
			c0.5298-0.0879,0.6685-0.372,0.6685-1.1982c0.0756-2.4473,0-18.5176,0-21.3496c0-4.9141,0-14.3623,0-19.1875
			c0-0.8262-0.2271-1.1983-1.0342-1.1983l-2.605-0.1572c-0.2334,0-0.4414-0.4413-0.4414-0.7383c0-0.0693,0-0.1445,0.208-0.1445
			c2.6807-0.4551,7.5186-0.8203,11.4605-0.8203c9.7514,0,13.6235,4.6045,13.6235,10.4824c0,5.4434-4.6299,9.461-8.2686,10.7988
			c-0.3027,0.0625-0.8134,0.2959-1.2548,0.3653V829.6494z M396.937,841.7783c0-5.8095-4.3838-11.0195-10.7031-11.0195
			c-0.8267,0-1.5645,0-2.0059,0.3027c-0.0884,2.3721-0.3721,19.3389-0.3721,20.751c0,0.5938,0.4414,0.9648,1.5513,0.9648
			c6.106,0,11.5298-2.7431,11.5298-10.9296V841.7783z M386.6753,808.9678c-1.1104,0-1.5708,0.2959-1.6402,1.1093
			c-0.2964,5.3682-0.7378,17.2002-0.7378,19.1299c0.2964,0.2149,0.8072,0.2842,1.1983,0.2842c4.749,0,9.7324-4.081,9.7324-10.7031
			c0-6.7051-3.6455-9.8203-8.4834-9.8203H386.6753z"/>
		<path fill="#F88C24" d="M429.4956,853.7432c-0.0694,0.3027-0.208,0.4668-0.5801,0.4668c-0.2969,0-1.3379-0.0889-3.7275-0.1641
			c-2.4473-0.0693-6.251-0.1387-12.1289-0.1387c-1.918,0-4.2452,0.0694-6.0176,0.1387c-0.1455,0-0.1455-0.0693-0.1455-0.1387
			c0-0.2275,0.0693-0.6689,0.372-0.7568l2.4473-0.5811c0.4541-0.0879,0.7383-0.372,0.7383-1.1982c0.1582-2.2324,0-18.6758,0-21.4951
			c-0.0693-2.8321-0.0693-17.3321-0.2149-19.042c-0.0693-0.8262-0.2265-1.1983-0.8955-1.3555l-2.2324-0.5107
			c-0.2148-0.0694-0.3027-0.4356-0.3027-0.7383c0-0.1572,0-0.2275,0.1572-0.2275c1.3379,0,3.6465,0.0703,5.6514,0.0703
			c11.5302,0,15.2451-0.1455,16.0713-0.1455c0.372,0,0.4414,0.1455,0.4414,0.5175l0.1582,7.4424c0,0.3028-0.461,0.5987-0.669,0.5987
			c-0.0693,0-0.1572,0-0.2275-0.1573c-0.5986-1.9424-1.3369-3.7148-2.0049-5.6513c-0.2334-0.5997-0.7451-0.7442-1.501-0.8955
			c-2.0752-0.2148-6.459-0.5801-7.8847-0.5176c-0.5801,0-0.668,0.1455-0.668,0.4414c-0.3731,4.914-0.7383,17.4082-0.669,19.5781
			c4.4717,0.1387,9.8897,0.3661,11.46,0.3661c0.1582,0,0.1582,0.0753,0.1582,0.1387c0,0.3721-0.3027,0.9707-0.5303,0.9707
			c-1.5634,0.1582-6.8427,0.3027-10.4189,0.5303c-0.669,0.0693-0.8076,0.2959-0.8076,0.8076
			c-0.0762,2.7627-0.3721,18.165-0.3721,19.5771c0,0.7325,0.1387,0.9649,0.668,0.9649c3.2734,0,6.6924-0.1573,9.9658-0.5987
			c0.8262-0.1386,1.3369-0.5107,1.7031-1.1982c0.9014-1.5518,1.7979-3.1855,2.6045-4.75c0.0889-0.1445,0.1582-0.1445,0.2334-0.1445
			c0.2276,0,0.669,0.372,0.5996,0.6679L429.4956,853.7432z"/>
		<path fill="#F88C24" d="M458.6479,819.6016c0,6.4775-4.6806,10.3505-7.5879,11.9834c2.2325,4.1572,6.1807,13.3974,8.4834,19.8554
			c0.2266,0.5996,0.5293,0.9024,0.9707,1.1289l1.9366,0.5811c0.2968,0.0879,0.3662,0.5293,0.3662,0.6807
			c0,0.1455,0,0.2148-0.1387,0.2148c-0.8955-0.0693-2.7627-0.1387-4.541-0.1387c-1.9365,0-3.7149,0.0694-5.582,0.1387
			c-0.1583,0-0.1583-0.0693-0.1583-0.1387c0-0.3027,0.0889-0.6689,0.3028-0.7568l2.164-0.5117
			c0.5108-0.1573,0.9649-0.3721,0.5987-1.0401c-2.0059-4.4023-6.1807-13.0937-9.3155-17.6357
			c-0.1386-0.3027-0.3662-0.3652-0.7382-0.3652c-0.8077,0.0625-2.3018,0.0625-3.2735,0
			c-0.0693,2.9013-0.4414,16.0703-0.4414,17.7734c0,0.7383,0.1446,0.9717,0.5987,1.0352l3.1855,0.7441
			c0.2334,0.0879,0.3027,0.4541,0.3027,0.6807c0,0.1455,0,0.2148-0.1386,0.2148c-1.6397-0.0693-3.6455-0.1387-5.8848-0.1387
			c-2.2324,0-4.0996,0.0694-5.7334,0.1387c-0.1445,0-0.1445-0.0693-0.1445-0.2148c0-0.2266,0.0752-0.5928,0.372-0.6807l2.4659-0.669
			c0.4355-0.0751,0.58-0.372,0.58-1.041c0-2.7431-0.1445-18.0761-0.1445-21.2802c0-2.9707-0.1387-17.919-0.2275-19.1172
			c0-0.8076-0.208-1.1739-0.877-1.2617l-2.3076-0.1456c-0.2969,0-0.5303-0.5234-0.5303-0.8261c0-0.0694,0.0694-0.1387,0.2334-0.1387
			c2.1446-0.3721,6.9131-0.8955,11.9649-0.8955c9.2968,0,13.2392,5.4365,13.2392,11.7568V819.6016z M444.2104,832.3994
			c3.6641,0,8.7862-3.1161,8.7862-12.1982c0-6.251-3.2041-11.3028-8.0293-11.3028c-1.1924,0-2.1631,0.2139-2.2325,1.0342
			c-0.2968,5.4238-0.6689,20.2276-0.6689,21.4951c0,0.9717,0.4414,0.9717,2.0752,0.9717H444.2104z"/>
		<path fill="#F88C24" d="M491.2817,830.6201c0.3652,0,1.4063,0.1387,2.0752,0.2969c5.8779,1.2676,9.0127,5.6514,9.0127,11.0059
			c0,7.8837-6.0361,12.5771-13.623,12.5771c-3.1856,0-6.251-1.2617-7.5186-2.46c-0.3662-0.4414,0-1.4062,0.3027-1.4062
			c0.0879,0,0.0879,0,0.2266,0.0693c1.4951,1.2676,3.6455,2.0059,6.0176,2.0059c4.9131,0,9.1582-3.5078,9.1582-10.2627
			c0-4.9766-3.2041-10.6533-10.8613-10.792c-0.3721,0-0.5108-0.1387-0.5108-0.8955c-0.0879-0.2139,0.0693-0.3027,0.208-0.3027
			c7.291-1.1729,9.9844-5.7139,9.9844-11c0-4.3135-2.3086-7.8077-6.25-7.8077c-3.0654,0-5.5127,2.1563-7.1465,5.1338
			c0,0.1387-0.0693,0.1387-0.1582,0.1387c-0.3027,0-0.8135-0.8955-0.5801-1.4004c1.7793-3.6455,5.418-6.1113,9.6631-6.1113
			c6.25,0,9.751,4.2441,9.751,9.8203c0,4.9131-3.7334,9.0127-7.8838,10.4951c-0.5303,0.2275-1.3379,0.5234-1.8672,0.5928V830.6201z"
			/>
		<path fill="#F88C24" d="M505.77,815.1426c-0.3027,0.0752-0.5996-0.2901-0.7451-0.5938c-0.0694-0.1631,0-0.2265,0.1455-0.3027
			l10.4199-4.7676c0.1572-0.1387,0.2959-0.1387,0.3652-0.1387c0.3028,0,0.3721,0.1387,0.3721,0.4415
			c0,0.3847-0.5801,16.3671-0.668,22.914c-0.0693,6.7803-0.3027,18.6065-0.3027,19.2061c0,0.58,0.5293,0.6679,0.9707,0.8076
			l2.7627,0.4414c0.2149,0.0879,0.4414,0.4541,0.4414,0.7568c0,0.0694-0.0693,0.1387-0.2265,0.1387
			c-1.709-0.0693-3.7149-0.1387-5.8663-0.1387c-2.5351,0-4.7685,0.0694-6.4082,0.1387c-0.1386,0-0.1386-0.0693-0.1386-0.1387
			c0-0.3027,0.1386-0.6689,0.372-0.7568l3.1856-0.5117c0.3847-0.0694,0.7568-0.2959,0.7568-0.7373
			c0-0.9717-0.0693-13.8506-0.1582-18.0078c0-4.6104-0.1445-15.7745-0.3027-18.9786c0-0.5293-0.2959-0.9648-0.7373-0.8076
			L505.77,815.1426z"/>
	</g>
</g>
</svg>
