<?xml version="1.0" encoding="utf-8"?>
<!-- Generator: Adobe Illustrator 17.1.0, SVG Export Plug-In . SVG Version: 6.00 Build 0)  -->
<!DOCTYPE svg PUBLIC "-//W3C//DTD SVG 1.1//EN" "http://www.w3.org/Graphics/SVG/1.1/DTD/svg11.dtd">
<svg version="1.1" id="spookies-stamp" xmlns="http://www.w3.org/2000/svg" xmlns:xlink="http://www.w3.org/1999/xlink" x="0px"
	 y="0px" viewBox="0 0 776.9204 1010.0002" enable-background="new 0 0 776.9204 1010.0002" xml:space="preserve">
<g id="spookies-stamp-stamp">
	<path id="spookies-stamp-stamp_1_" fill="#F3E6D1" d="M776.9204,55.8194h-0.0508c0.0254-0.2207,0.0508-0.4345,0.0508-0.6621
		c0-8.9687-13.9337-10.9682-20.1016-16.8467c-5.0273-6.4775-1.665-15.7871,9.461-28.3388
		c-0.4541-1.6524-14.3995-9.9082-29.0957-9.9717c-0.0059,0-0.0254,0.0127-0.044,0.0127c-0.0312,0-0.0947-0.0127-0.1133-0.0127
		c-6.6982-0.0254-10.1552,4.4277-13.5107,9.0195c-3.4756,4.7368-6.8438,9.625-13.5547,9.9278l0,0
		c-0.1641,0.0185-0.334,0.0312-0.4912,0.0312c-13.9014,0-13.9014-18.9785-27.8214-18.9785
		c-13.8701,0-13.8701,18.9785-27.7275,18.9785c-13.9141,0-13.9141-18.9785-27.8155-18.9785
		c-13.9638,0-13.9638,18.9785-27.9277,18.9785c-13.9082,0-13.9082-18.9785-27.8223-18.9785
		c-13.9257,0-13.9257,18.9785-27.872,18.9785c-13.9385,0-13.9385-18.9785-27.9287-18.9785
		c-13.9708,0-13.9708,18.9785-27.9415,18.9785c-13.957,0-13.957-18.9785-27.9218-18.9785
		c-13.9961,0-13.9961,18.9785-27.9795,18.9785S416.729,0.0001,402.7397,0.0001c-13.9643,0-13.9643,18.9785-27.8843,18.9785
		c-13.9516,0-13.9516-18.9785-27.8911-18.9785c-13.958,0-13.958,18.9785-27.9287,18.9785
		c-13.9453,0-13.9453-18.9785-27.8594-18.9785c-14.0146,0-14.0146,18.9785-28.0044,18.9785
		c-13.9702,0-13.9702-18.9785-27.9033-18.9785c-13.9707,0-13.9707,18.9785-27.9604,18.9785
		c-13.9829,0-13.9829-18.9785-27.9473-18.9785c-13.9707,0-13.9707,18.9785-27.9477,18.9785
		c-13.9581,0-13.9581-18.9785-27.9605-18.9785c-13.939,0-13.939,18.9785-27.897,18.9785c-13.9834,0-13.9834-18.9785-27.979-18.9785
		c-13.958,0-13.958,18.9785-27.9477,18.9785c-14.2232,0-22.1514-6.1367-27.8911-8.7417C8.1616,8.5841,0,24.0372,0,32.0284
		c0,0.2276,0.0254,0.4541,0.0381,0.6875H0.0063c0,1.0029,0.2022,1.9175,0.5298,2.7442c0.0127,0.0693,0.0127,0.1069,0.0503,0.1699
		c0,0.0063,0,0.0063,0.0068,0.0063c3.1787,8.9248,18.2027,8.9439,21.8926,17.2124c0.3027,0.8457,0.4917,1.7349,0.4917,2.7315
		C22.9775,67.0528,0,67.0528,0,78.5133c0,0.3472,0.0254,0.6684,0.0571,0.9839H0.0063
		c0.0635,11.2651,22.4224,11.4287,22.9522,22.4731C22.4223,113.0646,0,113.2101,0,124.544c0,0.1387,0.0063,0.2647,0.0254,0.3848
		C0.0063,125.0548,0,125.1686,0,125.3199c0,11.397,22.3974,11.5298,22.9585,22.6494C22.3974,159.089,0,159.234,0,170.6061
		c0,0.1391,0.0063,0.2651,0.0254,0.3725C0.0063,171.0982,0,171.2052,0,171.3253c0,11.3975,22.5107,11.5234,22.9585,22.706
		C22.5107,205.2145,0,205.3341,0,216.7379c0,0.126,0.0063,0.2397,0.0254,0.3403C0.0063,217.192,0,217.2931,0,217.4
		c0,11.4478,22.5298,11.5679,22.9585,22.769C22.5298,251.3839,0,251.5035,0,262.9386c0,0.1011,0.0063,0.2021,0.0063,0.2964
		c0,0.0947-0.0063,0.1831-0.0063,0.3027c0,11.4419,22.5107,11.5552,22.9585,22.7632C22.5107,297.4713,0,297.6036,0,308.9942
		c0,0.1202,0.0063,0.2461,0.0254,0.3663C0.0063,309.4864,0,309.6065,0,309.7198c0,11.4102,22.4668,11.5425,22.9585,22.6812
		C22.4668,343.546,0,343.6783,0,355.0631c0,0.1138,0.0063,0.2397,0.0254,0.3594C0.0063,355.5489,0,355.6432,0,355.7882
		c0,11.4101,22.5107,11.5176,22.9585,22.7129C22.5107,389.6773,0,389.8038,0,401.2135c0,0.1011,0.0063,0.2143,0.0063,0.3218
		C0.0063,401.63,0,401.7369,0,401.8565c0,11.4356,22.5107,11.5679,22.9585,22.7696c-0.4478,11.1704-22.7945,11.3281-22.9522,22.6435
		l0,0v0.0122c0,0.0127-0.0063,0.0572-0.0063,0.0948c0,0.1074,0.0063,0.1958,0.0063,0.2964c0,0.1201-0.0063,0.2143-0.0063,0.3217
		c0,11.3658,22.2397,11.5611,22.9336,22.5801C22.353,481.5748,0,481.7452,0,493.0538c0,0.0884,0.0063,0.1582,0.0063,0.2275
		c0,0.0879-0.0063,0.1573-0.0063,0.2457c0,0.1074,0.0063,0.2143,0.0254,0.3344c-0.0191,0.0694-0.0191,0.126-0.0191,0.1768l0,0
		c0,0.0185,0,0.0185,0,0.0185c0,0.0445-0.0063,0.0694-0.0063,0.1075c0,11.3339,22.1831,11.5297,22.9209,22.4921
		C22.2016,527.6241,0,527.8009,0,539.0851c0,0.1005,0.0063,0.208,0.0063,0.296c0,0.0887-0.0063,0.1767-0.0063,0.2841h0.0063
		c0,0.0694-0.0063,0.1202-0.0063,0.1885c0,0.0889,0.0063,0.1582,0.0063,0.2344c0,0.0879-0.0063,0.1387-0.0063,0.2266
		c0,11.3339,22.1831,11.5292,22.9209,22.4921C22.0254,573.6358,0,573.8634,0,585.1661c0,0.1192,0.0063,0.2266,0.0254,0.3467
		C0.0063,585.6573,0,585.7589,0,585.8849c0,0.0693,0.0063,0.1767,0.0063,0.2841c0,0.0879-0.0063,0.1758-0.0063,0.2774h0.0381
		c0.7441,10.8291,22.4726,11.1445,22.9204,22.126C22.5107,619.7677,0,619.8556,0,631.297c0,0.1269,0.0063,0.2275,0.0254,0.3349
		C0.0063,631.7384,0,631.8458,0,631.9474c0,11.4218,22.5298,11.5479,22.9585,22.7627C22.5298,665.9181,0,666.044,0,677.4855
		c0,0.1074,0.0063,0.1894,0.0063,0.2773c0,0.126-0.0063,0.2148-0.0063,0.3223c0,11.4218,22.5107,11.5615,22.9585,22.7568
		C22.5107,712.0177,0,712.1446,0,723.5294c0,0.1445,0.0063,0.2451,0.0254,0.3906C0.0063,724.0206,0,724.128,0,724.2853
		c0,11.373,22.4668,11.499,22.9585,22.6562C22.4668,758.0802,0,758.2257,0,769.5978c0,0.1386,0.0063,0.2578,0.0254,0.3652
		C0.0063,770.089,0,770.2091,0,770.3351c0,11.4033,22.5107,11.5302,22.9585,22.7061C22.5107,804.2374,0,804.3565,0,815.7481
		c0,0.1006,0.0063,0.2081,0.0063,0.334c0,0.1006-0.0063,0.1895-0.0063,0.2969c0,11.46,22.5107,11.5674,22.9585,22.794
		C22.5107,850.3683,0,850.4942,0,861.9356c0,0.0821,0.0063,0.1895,0.0063,0.2969c0,0.1074-0.0063,0.1953-0.0063,0.3156
		c0,11.4228,22.5107,11.5488,22.9585,22.7626C22.5107,896.5187,0,896.6456,0,908.0675c0,0.1201,0.0063,0.208,0.0063,0.2969
		c0,0.1074-0.0063,0.2138-0.0063,0.3212c0,11.4415,22.5107,11.543,22.9585,22.7383C22.5107,942.6573,0.0063,942.7579,0,954.2179
		h0.0508C0.0254,954.4142,0,954.6222,0,954.8556c0,8.956,13.914,10.9619,20.0888,16.8398
		c5.0269,6.4776,1.6651,15.7939-9.4672,28.3262c0.4794,1.6846,14.4121,9.9219,29.1142,9.9785c0.0127,0,0.0254,0,0.0381,0
		c0.0381,0,0.082,0,0.1201,0c6.6919,0.0186,10.1543-4.4023,13.5161-9.0137c3.4756-4.749,6.8374-9.625,13.5547-9.9277l0,0
		c0.145-0.0186,0.315-0.0371,0.4981-0.0371c13.8823,0,13.8823,18.9785,27.7773,18.9785s13.895-18.9785,27.7647-18.9785
		c13.8886,0,13.8886,18.9785,27.8217,18.9785c13.958,0,13.958-18.9785,27.9224-18.9785c13.8887,0,13.8887,18.9785,27.7964,18.9785
		c13.9389,0,13.9389-18.9785,27.8779-18.9785c13.958,0,13.958,18.9785,27.9351,18.9785c13.9707,0,13.9707-18.9785,27.935-18.9785
		c13.9707,0,13.9707,18.9785,27.9287,18.9785c13.9893,0,13.9893-18.9785,27.9854-18.9785c13.977,0,13.977,18.9785,27.9795,18.9785
		c13.939,0,13.939-18.9785,27.8779-18.9785c13.958,0,13.958,18.9785,27.8975,18.9785c13.9511,0,13.9511-18.9785,27.916-18.9785
		c13.9453,0,13.9453,18.9785,27.8721,18.9785c13.9961,0,13.9961-18.9785,27.9785-18.9785c13.9707,0,13.9707,18.9785,27.9355,18.9785
		c13.9834,0,13.9834-18.9785,27.9541-18.9785c13.9639,0,13.9639,18.9785,27.9346,18.9785c13.9648,0,13.9648-18.9785,27.9414-18.9785
		c13.9766,0,13.9766,18.9785,27.96,18.9785c13.9453,0,13.9453-18.9785,27.916-18.9785c13.9648,0,13.9648,18.9785,27.9668,18.9785
		c13.9707,0,13.9707-18.9785,27.9541-18.9785c14.2226,0,22.1572,6.1426,27.872,8.7666c3.6143,1.6396,11.7569-13.832,11.7569-21.792
		c0-0.2451-0.0255-0.4727-0.0255-0.6992h0.0255c-0.0195-0.9903-0.2207-1.9053-0.5303-2.75
		c-0.0312-0.0694-0.0439-0.1016-0.0498-0.1582c0,0,0-0.0186-0.0195-0.0186c-3.1856-8.9189-18.209-8.956-21.8926-17.1943
		c-0.3086-0.8447-0.498-1.7403-0.498-2.7305c0-11.4727,22.9902-11.4727,22.9902-22.9521c0-0.3467-0.0255-0.669-0.0635-0.9844h0.0635
		c-0.0889-11.2647-22.416-11.4414-22.9464-22.4795c0.5303-11.0879,22.9464-11.207,22.9464-22.5801
		c0-0.1064-0.0195-0.2451-0.0255-0.3721c0.0059-0.1191,0.0255-0.2451,0.0255-0.3652c0-11.4102-22.4043-11.5488-22.9464-22.6562
		c0.5421-11.126,22.9464-11.2832,22.9464-22.668c0-0.1074-0.0195-0.2461-0.0255-0.3721c0.0059-0.0888,0.0255-0.208,0.0255-0.3535
		c0-11.3721-22.5049-11.4922-22.9464-22.668c0.4414-11.2148,22.9464-11.3222,22.9464-22.7255c0-0.126-0.0195-0.2276-0.0255-0.334
		c0.0059-0.126,0.0255-0.2149,0.0255-0.335c0-11.4219-22.5303-11.5293-22.9464-22.7441
		c0.416-11.2266,22.9464-11.334,22.9464-22.7754c0-0.1074-0.0195-0.208-0.0195-0.3154c0-0.0879,0.0195-0.1768,0.0195-0.2832
		c0-11.4229-22.5049-11.5616-22.9464-22.7764c0.4414-11.1758,22.9464-11.2959,22.9464-22.6875c0-0.126-0.0195-0.2451-0.0255-0.3721
		c0.0059-0.1191,0.0255-0.2266,0.0255-0.3652c0-11.3916-22.4922-11.5303-22.9464-22.6748
		c0.4541-11.1387,22.9464-11.2647,22.9464-22.6494c0-0.1456-0.0195-0.2462-0.0255-0.3721c0.0059-0.1201,0.0255-0.2276,0.0255-0.3535
		c0-11.4034-22.5049-11.5293-22.9464-22.7246c0.4414-11.1895,22.9464-11.3155,22.9464-22.7071c0-0.1006-0.0195-0.208-0.0195-0.3154
		c0-0.1006,0.0195-0.208,0.0195-0.334c0-11.4229-22.5049-11.5615-22.9464-22.7755c0.4414-11.1581,22.7881-11.3154,22.9268-22.618
		h0.0195c0-0.0186-0.0195-0.0186-0.0195-0.0186c0-0.0322,0.0195-0.0693,0.0195-0.0889c0-0.1191-0.0195-0.208-0.0195-0.3154
		c0-0.1064,0.0195-0.1953,0.0195-0.334c0-11.3535-22.2402-11.5303-22.9464-22.5488c0.5869-11.0186,22.9464-11.1768,22.9464-22.5107
		c0-0.0567-0.0195-0.126-0.0195-0.2139c0-0.0889,0.0195-0.1397,0.0195-0.2461c0-0.1016-0.0195-0.208-0.0255-0.3154
		c0.0059-0.0694,0.0059-0.1387,0.0059-0.2079h0.0195l-0.0195-0.0197c0-0.0185,0.0195-0.0381,0.0195-0.0879
		c0-11.3344-22.1895-11.5361-22.9337-22.498c0.7314-10.9497,22.9337-11.1387,22.9337-22.4229c0-0.1069-0.0195-0.1953-0.0195-0.29
		c0-0.1133,0.0195-0.1826,0.0195-0.2837h-0.0195c0-0.0757,0.0195-0.1323,0.0195-0.2017c0-0.0693-0.0195-0.1577-0.0195-0.2275
		c0-0.0693,0.0195-0.1514,0.0195-0.2266c0-11.3281-22.1895-11.5297-22.9337-22.4795c0.921-10.8422,22.9337-11.0693,22.9337-22.372
		c0-0.1387-0.0195-0.2461-0.0255-0.353c0.0059-0.1324,0.0255-0.2461,0.0255-0.3594c0-0.0884-0.0195-0.1831-0.0195-0.2906
		c0-0.0878,0.0195-0.1826,0.0195-0.2709h-0.0255c-0.7637-10.836-22.4795-11.126-22.9209-22.126
		c0.4414-11.1953,22.9464-11.3091,22.9464-22.7251c0-0.1138-0.0195-0.2207-0.0255-0.3281c0.0059-0.1197,0.0255-0.2081,0.0255-0.334
		c0-11.4229-22.5303-11.5362-22.9464-22.7569c0.416-11.2143,22.9464-11.3344,22.9464-22.7758c0-0.1133-0.0195-0.1954-0.0195-0.2901
		c0-0.1011,0.0195-0.2016,0.0195-0.29c0-11.4414-22.5049-11.5679-22.9464-22.7818c0.4414-11.1767,22.9464-11.3154,22.9464-22.6875
		c0-0.1201-0.0195-0.2461-0.0255-0.3662c0.0059-0.1323,0.0255-0.2392,0.0255-0.3779c0-11.3848-22.4922-11.5234-22.9464-22.6621
		c0.4541-11.1455,22.9464-11.2842,22.9464-22.6563c0-0.1323-0.0195-0.2461-0.0255-0.372c0.0059-0.1133,0.0255-0.2271,0.0255-0.3594
		c0-11.4287-22.5049-11.5298-22.9464-22.7061c0.4414-11.1831,22.9464-11.3154,22.9464-22.7129c0-0.1074-0.0195-0.2143-0.0195-0.3281
		c0-0.1133,0.0195-0.2016,0.0195-0.3149c0-11.4419-22.5049-11.5679-22.9464-22.7886c0.4414-11.1763,22.9464-11.3086,22.9464-22.7187
		c0-0.1202-0.0195-0.2207-0.0195-0.3218c0-0.1133,0.0195-0.208,0.0195-0.3345c0-11.4224-22.5049-11.5293-22.9464-22.75
		c0.4414-11.208,22.9464-11.3408,22.9464-22.7632c0-0.1069-0.0195-0.2143-0.0195-0.3091c0-0.1132,0.0195-0.1953,0.0195-0.3217
		c0-11.4224-22.5049-11.5547-22.9464-22.7315C754.4155,67.3746,776.9009,67.2296,776.9204,55.8194z"/>
	<rect x="53.6816" y="63.8678" fill="#513E31" width="669.5513" height="882.271"/>
	<path fill="#B0A89B" d="M719.3657,67.7594v874.5063H57.5605V67.7594H719.3657 M727.1177,59.9825h-7.752H57.5605H49.79v7.7769
		v874.5063v7.7647h7.7705h661.8052h7.752v-7.7647V67.7594V59.9825L727.1177,59.9825z"/>
	<g>
		<polygon fill="#917561" points="658.6714,644.5177 658.6714,587.2599 399.4155,509.1563 		"/>
		<polygon fill="#917561" points="658.6714,823.5939 658.6714,723.9513 397.4731,512.9601 		"/>
		<polygon fill="#917561" points="506.23,877.3517 590.1235,877.3517 394.187,515.7599 		"/>
		<polygon fill="#917561" points="352.893,877.3517 424.311,877.3517 390.0307,517.1349 		"/>
		<polygon fill="#917561" points="186.6899,877.3517 270.8291,877.3517 385.6787,516.8517 		"/>
		<polygon fill="#917561" points="118.4951,724.3048 118.4951,823.1905 381.749,514.9659 		"/>
		<polygon fill="#917561" points="118.4951,588.086 118.4951,645.2052 378.873,511.7618 		"/>
		<polygon fill="#917561" points="118.4951,482.4767 118.4951,531.0362 377.4726,507.7306 		"/>
		<polygon fill="#917561" points="118.4951,368.1256 118.4951,425.3644 377.7632,503.4928 		"/>
		<polygon fill="#917561" points="118.4951,188.9981 118.4951,288.6598 379.6928,499.6642 		"/>
		<polygon fill="#917561" points="270.9238,135.2599 187.0747,135.2599 382.979,496.8634 		"/>
		<polygon fill="#917561" points="424.2798,135.2599 352.8554,135.2599 387.1421,495.5011 		"/>
		<polygon fill="#917561" points="590.4829,135.2599 506.3374,135.2599 391.5063,495.7789 		"/>
		<polygon fill="#917561" points="658.6714,288.294 658.6714,189.421 395.4233,497.671 		"/>
		<polygon fill="#917561" points="658.6714,424.544 658.6714,367.419 398.3061,500.8688 		"/>
		<polygon fill="#917561" points="658.6714,530.1407 658.6714,481.5938 399.7055,504.899 		"/>
	</g>
</g>
<path id="spookies-stamp-inner-border" fill="#917561" d="M169.2309,114.8624c2.2774-3.7656,2.0059-7.7959,0.9151-10.8613
	c2.6552,0.3847,5.1904,4.5918,2.4721,9.9468c5.4053-2.4473,9.3662,0.3969,9.5747,3.1347c-2.9204-1.3056-6.8564-1.8354-10.666,0.271
	c-3.8095,2.1006-6.9946,6.3325-7.9594,5.2857C162.6211,121.6109,166.9477,118.6212,169.2309,114.8624z M179.2973,110.5167
	c0.2085-0.2397,6.3453-7.5879,5.8345-8.1367c-0.4985-0.542-8.1304,5.1787-8.3696,5.3867c-0.8325,0.7002-0.5615,1.7783,0.0947,2.5039
	C177.5254,110.9835,178.5786,111.3238,179.2973,110.5167z M165.6045,129.817h23.8603h23.8482v-0.9585h-23.8482h-23.8603V129.817z
	 M146.979,128.8585h-23.8477v0.9585h23.8477V128.8585z M156.6797,101.1124c0.9585-0.0127,1.9238-0.5552,1.8481-1.6465
	c-0.0254-0.3213-0.8643-2.9829-1.0723-5.8652c-0.2148-5.336-0.0444-6.6358-0.7758-6.6358c-0.732,0-0.5616,1.2998-0.7759,6.6358
	c-0.208,2.8823-1.0532,5.5439-1.085,5.8652C154.7495,100.5699,155.7085,101.1124,156.6797,101.1124z M130.5991,117.0826
	c2.9267-1.3056,6.8559-1.8354,10.6719,0.271c3.8096,2.1006,6.9946,6.3325,7.9536,5.2857c0.9521-1.0284-3.3809-4.0181-5.6577-7.7769
	c-2.2832-3.7656-2.0059-7.7959-0.9146-10.8613c-2.6489,0.3847-5.1973,4.5918-2.4663,9.9468
	C134.7807,111.5006,130.8198,114.3448,130.5991,117.0826z M135.935,110.2706c0.6621-0.7256,0.9336-1.8037,0.0947-2.5039
	c-0.2334-0.208-7.8652-5.9287-8.3702-5.3867c-0.498,0.5488,5.626,7.897,5.8409,8.1367
	C134.2192,111.3238,135.2729,110.9835,135.935,110.2706z M158.6347,128.8897c0-2.4345-1.1289-4.415-2.5166-4.415
	c-1.3813,0-2.5102,1.9805-2.5102,4.415c0,2.441,1.1289,4.4214,2.5102,4.4214C157.5058,133.3111,158.6347,131.3307,158.6347,128.8897
	z M154.7241,109.9361c1.1167,4.2764,0.2715,9.543,1.6719,9.543c1.3999,0,0.5547-5.2666,1.6714-9.543
	c1.1225-4.2827,4.1943-6.8305,7.1206-8.1235c-2.0938-1.7095-6.837-0.7129-8.792,4.9893c-1.9556-5.7022-6.6983-6.6988-8.7925-4.9893
	C150.5366,103.1056,153.6079,105.6534,154.7241,109.9361z M223.0132,101.1124c0.9589-0.0127,1.9238-0.5552,1.8486-1.6465
	c-0.0317-0.3213-0.8643-2.9829-1.085-5.8652c-0.2021-5.336-0.0381-6.6358-0.7636-6.6358c-0.7315,0-0.5674,1.2998-0.7754,6.6358
	c-0.2149,2.8823-1.0596,5.5439-1.0723,5.8652C221.0835,100.5699,222.0547,101.1124,223.0132,101.1124z M229.9009,122.6393
	c0.9589,1.0468,4.144-3.1851,7.9599-5.2857c3.8096-2.1064,7.7451-1.5766,10.6655-0.271c-0.2143-2.7378-4.1753-5.582-9.5869-3.1347
	c2.731-5.355,0.1953-9.5621-2.4599-9.9468c1.0913,3.0654,1.3686,7.0957-0.9209,10.8613
	C233.2817,118.6212,228.9551,121.6109,229.9009,122.6393z M245.6313,110.5167c0.208-0.2397,6.3452-7.5879,5.8345-8.1367
	c-0.5049-0.542-8.1304,5.1787-8.3696,5.3867c-0.8389,0.7002-0.5616,1.7783,0.0942,2.5039
	C243.8589,110.9835,244.9062,111.3238,245.6313,110.5167z M231.9385,129.817h23.854h23.8544v-0.9585h-23.8544h-23.854V129.817z
	 M221.0581,109.9361c1.1162,4.2764,0.2715,9.543,1.6714,9.543c1.4004,0,0.5551-5.2666,1.684-9.543
	c1.1041-4.2827,4.1758-6.8305,7.1084-8.1235c-2.0937-1.7095-6.8369-0.7129-8.7924,4.9893
	c-1.9551-5.7022-6.6983-6.6988-8.7925-4.9893C216.8701,103.1056,219.9419,105.6534,221.0581,109.9361z M196.9331,117.0826
	c2.9199-1.3056,6.8554-1.8354,10.6655,0.271c3.8159,2.1006,7.001,6.3325,7.9595,5.2857c0.959-1.0284-3.3809-4.0181-5.6572-7.7769
	c-2.2832-3.7656-2.0123-7.7959-0.9209-10.8613c-2.6495,0.3847-5.1915,4.5918-2.46,9.9468
	C201.1147,111.5006,197.1538,114.3448,196.9331,117.0826z M202.269,110.2706c0.6558-0.7256,0.9331-1.8037,0.0943-2.5039
	c-0.2398-0.208-7.8653-5.9287-8.3697-5.3867c-0.498,0.5488,5.626,7.897,5.834,8.1367
	C200.5532,111.3238,201.6064,110.9835,202.269,110.2706z M224.9624,128.8897c0-2.4345-1.1226-4.415-2.5039-4.415
	c-1.3941,0-2.5166,1.9805-2.5166,4.415c0,2.441,1.1225,4.4214,2.5166,4.4214C223.8398,133.3111,224.9624,131.3307,224.9624,128.8897
	z M311.959,110.5167c0.2207-0.2397,6.3452-7.5879,5.8403-8.1367c-0.4981-0.542-8.1362,5.1787-8.3696,5.3867
	c-0.8389,0.7002-0.5679,1.7783,0.0947,2.5039C310.1928,110.9835,311.2397,111.3238,311.959,110.5167z M296.2348,122.6393
	c0.959,1.0468,4.1441-3.1851,7.9537-5.2857c3.8159-2.1064,7.7451-1.5766,10.6718-0.271c-0.2143-2.7378-4.1753-5.582-9.5805-3.1347
	c2.7246-5.355,0.1889-9.5621-2.4727-9.9468c1.0908,3.0654,1.375,7.0957-0.9019,10.8613
	C299.6157,118.6212,295.2827,121.6109,296.2348,122.6393z M298.2661,129.817h23.8603h23.8477v-0.9585h-23.8477h-23.8603V129.817z
	 M268.6025,110.2706c0.6685-0.7256,0.9273-1.8037,0.1011-2.5039c-0.2461-0.208-7.8779-5.9287-8.376-5.3867
	c-0.5049,0.5488,5.626,7.897,5.834,8.1367C266.8808,111.3238,267.9404,110.9835,268.6025,110.2706z M289.3408,101.1124
	c0.959-0.0127,1.9302-0.5552,1.8481-1.6465c-0.0127-0.3213-0.8574-2.9829-1.0722-5.8652c-0.208-5.336-0.044-6.6358-0.7759-6.6358
	c-0.7251,0-0.561,1.2998-0.769,6.6358c-0.2149,2.8823-1.0601,5.5439-1.0791,5.8652
	C287.4233,100.5699,288.3823,101.1124,289.3408,101.1124z M263.2666,117.0826c2.9204-1.3056,6.8559-1.8354,10.6655,0.271
	c3.8096,2.1006,6.9951,6.3325,7.96,5.2857c0.9589-1.0284-3.3809-4.0181-5.6641-7.7769c-2.2769-3.7656-2.0059-7.7959-0.9145-10.8613
	c-2.649,0.3847-5.191,4.5918-2.4595,9.9468C267.4482,111.5006,263.4873,114.3448,263.2666,117.0826z M287.3921,109.9361
	c1.1162,4.2764,0.2773,9.543,1.6714,9.543c1.4003,0,0.5615-5.2666,1.6713-9.543c1.1162-4.2827,4.188-6.8305,7.1211-8.1235
	c-2.0942-1.7095-6.8374-0.7129-8.7924,4.9893c-1.9556-5.7022-6.6919-6.6988-8.7925-4.9893
	C283.1977,103.1056,286.269,105.6534,287.3921,109.9361z M291.2964,128.8897c0-2.4345-1.1231-4.415-2.5103-4.415
	c-1.3877,0-2.5171,1.9805-2.5171,4.415c0,2.441,1.1294,4.4214,2.5171,4.4214C290.1733,133.3111,291.2964,131.3307,291.2964,128.8897
	z M378.2925,110.5167c0.2211-0.2397,6.3457-7.5879,5.8471-8.1367c-0.5044-0.542-8.1362,5.1787-8.3823,5.3867
	c-0.8325,0.7002-0.5615,1.7783,0.1006,2.5039C376.5268,110.9835,377.5737,111.3238,378.2925,110.5167z M362.5688,122.6393
	c0.9585,1.0468,4.1436-3.1851,7.9531-5.2857c3.8096-2.1064,7.7457-1.5766,10.6661-0.271c-0.208-2.7378-4.1695-5.582-9.5811-3.1347
	c2.7246-5.355,0.1895-9.5621-2.4658-9.9468c1.0908,3.0654,1.375,7.0957-0.9151,10.8613
	C365.9492,118.6212,361.6162,121.6109,362.5688,122.6393z M364.6059,129.817h23.854h23.8482v-0.9585h-23.8482h-23.854V129.817z
	 M353.7197,109.9361c1.1226,4.2764,0.2837,9.543,1.6714,9.543c1.4004,0,0.5674-5.2666,1.6777-9.543
	c1.1162-4.2827,4.188-6.8305,7.1143-8.1235c-2.0938-1.7095-6.8369-0.7129-8.792,4.9893c-1.9429-5.7022-6.686-6.6988-8.7798-4.9893
	C349.5439,103.1056,352.603,105.6534,353.7197,109.9361z M357.6303,128.8897c0-2.4345-1.1293-4.415-2.5107-4.415
	c-1.3877,0-2.5166,1.9805-2.5166,4.415c0,2.441,1.1289,4.4214,2.5166,4.4214C356.501,133.3111,357.6303,131.3307,357.6303,128.8897z
	 M355.6748,101.1124c0.9585-0.0127,1.9302-0.5552,1.8481-1.6465c-0.019-0.3213-0.8642-2.9829-1.0722-5.8652
	c-0.2144-5.336-0.044-6.6358-0.7759-6.6358c-0.732,0-0.5611,1.2998-0.7759,6.6358c-0.208,2.8823-1.0532,5.5439-1.0723,5.8652
	C353.7573,100.5699,354.7163,101.1124,355.6748,101.1124z M329.6006,117.0826c2.9262-1.3056,6.8559-1.8354,10.6655,0.271
	c3.8159,2.1006,6.9946,6.3325,7.9536,5.2857c0.9585-1.0284-3.3809-4.0181-5.6577-7.7769
	c-2.2769-3.7656-2.0059-7.7959-0.9146-10.8613c-2.6489,0.3847-5.1909,4.5918-2.4663,9.9468
	C333.7822,111.5006,329.8213,114.3448,329.6006,117.0826z M334.9302,110.2706c0.6684-0.7256,0.9335-1.8037,0.1074-2.5039
	c-0.2461-0.208-7.878-5.9287-8.3765-5.3867c-0.5044,0.5488,5.6196,7.897,5.8345,8.1367
	C333.2143,111.3238,334.2739,110.9835,334.9302,110.2706z M422.0083,101.1124c0.9648-0.0127,1.9238-0.5552,1.8545-1.6465
	c-0.0254-0.3213-0.8701-2.9829-1.0782-5.8652c-0.2148-5.336-0.0439-6.6358-0.7763-6.6358c-0.7373,0-0.5606,1.2998-0.7696,6.6358
	c-0.208,2.8823-1.0595,5.5439-1.0908,5.8652C420.0913,100.5699,421.0503,101.1124,422.0083,101.1124z M444.6333,110.5167
	c0.2138-0.2397,6.3379-7.5879,5.834-8.1367c-0.4981-0.542-8.1368,5.1787-8.376,5.3867c-0.8262,0.7002-0.5615,1.7783,0.1064,2.5039
	C442.854,110.9835,443.9077,111.3238,444.6333,110.5167z M430.9331,129.817h23.8603h23.8545v-0.9585h-23.8545h-23.8603V129.817z
	 M395.9409,117.0826c2.9141-1.3056,6.8428-1.8354,10.665,0.271c3.8096,2.1006,6.9951,6.3325,7.9473,5.2857
	c0.959-1.0284-3.3809-4.0181-5.6572-7.7769c-2.2832-3.7656-2-7.7959-0.9151-10.8613c-2.6484,0.3847-5.1845,4.5918-2.4658,9.9468
	C400.1098,111.5006,396.1489,114.3448,395.9409,117.0826z M420.0532,109.9361c1.1162,4.2764,0.2842,9.543,1.6846,9.543
	c1.3877,0,0.542-5.2666,1.6582-9.543c1.1289-4.2827,4.1943-6.8305,7.1211-8.1235c-2.0879-1.7095-6.8311-0.7129-8.7793,4.9893
	c-1.9561-5.7022-6.6983-6.6988-8.793-4.9893C415.8716,103.1056,418.937,105.6534,420.0532,109.9361z M401.2641,110.2706
	c0.6621-0.7256,0.9395-1.8037,0.1075-2.5039c-0.2461-0.208-7.878-5.9287-8.3829-5.3867c-0.498,0.5488,5.626,7.897,5.8409,8.1367
	C399.5552,111.3238,400.602,110.9835,401.2641,110.2706z M423.9634,128.8897c0-2.4345-1.129-4.415-2.5157-4.415
	c-1.3818,0-2.5107,1.9805-2.5107,4.415c0,2.441,1.1289,4.4214,2.5107,4.4214C422.8344,133.3111,423.9634,131.3307,423.9634,128.8897
	z M428.9087,122.6393c0.959,1.0468,4.1377-3.1851,7.9531-5.2857c3.8037-2.1064,7.7392-1.5766,10.6601-0.271
	c-0.2089-2.7378-4.1699-5.582-9.5751-3.1347c2.7187-5.355,0.1835-9.5621-2.4717-9.9468c1.0967,3.0654,1.3681,7.0957-0.9082,10.8613
	C432.2768,118.6212,427.9497,121.6109,428.9087,122.6393z M495.2427,122.6393c0.9462,1.0468,4.1308-3.1851,7.9472-5.2857
	c3.8154-2.1064,7.752-1.5766,10.6719-0.271c-0.2207-2.7378-4.1885-5.582-9.5811-3.1347c2.7246-5.355,0.1827-9.5621-2.4658-9.9468
	c1.0908,3.0654,1.3623,7.0957-0.9277,10.8613C498.6108,118.6212,494.2778,121.6109,495.2427,122.6393z M488.3423,101.1124
	c0.9648-0.0127,1.9365-0.5552,1.8486-1.6465c-0.0195-0.3213-0.8643-2.9829-1.0791-5.8652c-0.208-5.336-0.044-6.6358-0.7695-6.6358
	c-0.7315,0-0.5674,1.2998-0.7754,6.6358c-0.2022,2.8823-1.0469,5.5439-1.0723,5.8652
	C486.4126,100.5699,487.3716,101.1124,488.3423,101.1124z M510.9663,110.5167c0.2148-0.2397,6.3389-7.5879,5.8349-8.1367
	c-0.498-0.542-8.1308,5.1787-8.3759,5.3867c-0.8389,0.7002-0.5557,1.7783,0.1064,2.5039
	C509.188,110.9835,510.2475,111.3238,510.9663,110.5167z M497.2739,129.817h23.8477h23.8603v-0.9585h-23.8603h-23.8477V129.817z
	 M486.393,109.9361c1.1104,4.2764,0.2784,9.543,1.6661,9.543c1.3994,0,0.5605-5.2666,1.6777-9.543
	c1.1094-4.2827,4.1816-6.8305,7.1142-8.1235c-2.0937-1.7095-6.8369-0.7129-8.7919,4.9893
	c-1.9561-5.7022-6.6993-6.6988-8.7862-4.9893C482.1987,103.1056,485.271,105.6534,486.393,109.9361z M462.2739,117.0826
	c2.9209-1.3056,6.8564-1.8354,10.666,0.271c3.8096,2.1006,6.9883,6.3325,7.9473,5.2857c0.9463-1.0284-3.374-4.0181-5.6572-7.7769
	c-2.2832-3.7656-2.0127-7.7959-0.9092-10.8613c-2.6612,0.3847-5.1905,4.5918-2.4717,9.9468
	C466.4438,111.5006,462.4829,114.3448,462.2739,117.0826z M467.604,110.2706c0.6621-0.7256,0.9277-1.8037,0.1006-2.5039
	c-0.2393-0.208-7.878-5.9287-8.3819-5.3867c-0.498,0.5488,5.626,7.897,5.8467,8.1367
	C465.8823,111.3238,466.936,110.9835,467.604,110.2706z M490.2915,128.8897c0-2.4345-1.1231-4.415-2.5039-4.415
	c-1.3946,0-2.5166,1.9805-2.5166,4.415c0,2.441,1.122,4.4214,2.5166,4.4214C489.1684,133.3111,490.2915,131.3307,490.2915,128.8897z
	 M528.5952,117.0826c2.9209-1.3056,6.8564-1.8354,10.6786,0.271c3.7969,2.1006,6.9951,6.3325,7.9473,5.2857
	c0.959-1.0284-3.375-4.0181-5.6514-7.7769c-2.29-3.7656-2.0186-7.7959-0.9268-10.8613c-2.6367,0.3847-5.1855,4.5918-2.4668,9.9468
	C532.7837,111.5006,528.8169,114.3448,528.5952,117.0826z M533.938,110.2706c0.6494-0.7256,0.9336-1.8037,0.0947-2.5039
	c-0.2462-0.208-7.8779-5.9287-8.376-5.3867c-0.5049,0.5488,5.626,7.897,5.834,8.1367
	C532.2221,111.3238,533.2759,110.9835,533.938,110.2706z M556.6255,128.8897c0-2.4345-1.1231-4.415-2.5108-4.415
	s-2.5166,1.9805-2.5166,4.415c0,2.441,1.1289,4.4214,2.5166,4.4214S556.6255,131.3307,556.6255,128.8897z M577.2876,110.5167
	c0.2207-0.2397,6.3457-7.5879,5.8476-8.1367c-0.5049-0.542-8.1435,5.1787-8.3769,5.3867c-0.8321,0.7002-0.5674,1.7783,0.0947,2.5039
	C575.5219,110.9835,576.5747,111.3238,577.2876,110.5167z M561.5698,122.6393c0.959,1.0468,4.1378-3.1851,7.96-5.2857
	c3.8095-2.1064,7.7324-1.5766,10.6533-0.271c-0.208-2.7378-4.169-5.582-9.5742-3.1347c2.7304-5.355,0.1884-9.5621-2.4727-9.9468
	c1.1035,3.0654,1.375,7.0957-0.9023,10.8613C564.9448,118.6212,560.6235,121.6109,561.5698,122.6393z M563.5952,129.817h23.8603
	h23.8477v-0.9585h-23.8477h-23.8603V129.817z M554.6704,101.1124c0.9707-0.0127,1.9297-0.5552,1.8603-1.6465
	c-0.0254-0.3213-0.8701-2.9829-1.0849-5.8652c-0.2022-5.336-0.0313-6.6358-0.7754-6.6358c-0.7256,0-0.5557,1.2998-0.7637,6.6358
	c-0.2148,2.8823-1.0664,5.5439-1.0849,5.8652C552.7524,100.5699,553.7114,101.1124,554.6704,101.1124z M552.7212,109.9361
	c1.1162,4.2764,0.2715,9.543,1.6777,9.543c1.3936,0,0.5488-5.2666,1.6709-9.543c1.1172-4.2827,4.1826-6.8305,7.1152-8.1235
	c-2.0879-1.7095-6.831-0.7129-8.7861,4.9893c-1.9551-5.7022-6.6982-6.6988-8.793-4.9893
	C548.5395,103.1056,551.5981,105.6534,552.7212,109.9361z M627.9038,122.6393c0.9521,1.0468,4.1377-3.1851,7.9541-5.2857
	c3.8154-2.1064,7.7451-1.5766,10.6719-0.271c-0.2207-2.7378-4.1817-5.582-9.5879-3.1347c2.7314-5.355,0.1836-9.5621-2.4659-9.9468
	c1.0909,3.0654,1.375,7.0957-0.914,10.8613C631.2846,118.6212,626.9458,121.6109,627.9038,122.6393z M629.935,129.817h23.8545
	v-0.9585H629.935V129.817z M643.6343,110.5167c0.208-0.2397,6.333-7.5879,5.8339-8.1367c-0.5039-0.542-8.1357,5.1787-8.3818,5.3867
	c-0.833,0.7002-0.5557,1.7783,0.1074,2.5039C641.8559,110.9835,642.9087,111.3238,643.6343,110.5167z M619.061,109.9361
	c1.1104,4.2764,0.2715,9.543,1.6592,9.543c1.4004,0,0.5674-5.2666,1.6836-9.543c1.1103-4.2827,4.1816-6.8305,7.1084-8.1235
	c-2.0938-1.7095-6.8369-0.7129-8.792,4.9893c-1.9492-5.7022-6.6865-6.6988-8.7803-4.9893
	C614.8608,103.1056,617.9448,105.6534,619.061,109.9361z M622.9594,128.8897c0-2.4345-1.1171-4.415-2.5107-4.415
	c-1.3809,0-2.5039,1.9805-2.5039,4.415c0,2.441,1.123,4.4214,2.5039,4.4214C621.8423,133.3111,622.9594,131.3307,622.9594,128.8897z
	 M594.936,117.0826c2.9199-1.3056,6.8555-1.8354,10.6592,0.271c3.8154,2.1006,6.9951,6.3325,7.9531,5.2857
	c0.959-1.0284-3.3681-4.0181-5.6572-7.7769c-2.2774-3.7656-2-7.7959-0.9082-10.8613c-2.6553,0.3847-5.1914,4.5918-2.4727,9.9468
	C599.105,111.5006,595.1567,114.3448,594.936,117.0826z M621.0034,101.1124c0.9717-0.0127,1.9307-0.5552,1.8486-1.6465
	c-0.0195-0.3213-0.8642-2.9829-1.0722-5.8652c-0.2149-5.336-0.044-6.6358-0.7764-6.6358c-0.7315,0-0.5606,1.2998-0.7755,6.6358
	c-0.2021,2.8823-1.0536,5.5439-1.0723,5.8652C619.0864,100.5699,620.0454,101.1124,621.0034,101.1124z M600.2719,110.2706
	c0.6562-0.7256,0.9209-1.8037,0.0948-2.5039c-0.2403-0.208-7.878-5.9287-8.376-5.3867c-0.5049,0.5488,5.6191,7.897,5.8398,8.1367
	C598.5561,111.3238,599.603,110.9835,600.2719,110.2706z M687.6274,165.6109c-1.1035-0.082-1.6396,0.8955-1.6396,1.8794
	c0.0127,0.9839,0.5488,1.9619,1.6396,1.8858c0.3281-0.0186,2.9834-0.8892,5.8721-1.1035c5.3428-0.208,6.6416-0.044,6.6416-0.7823
	c0-0.7441-1.2988-0.58-6.6416-0.7881C690.6108,166.4874,687.9555,165.6231,687.6274,165.6109z M676.8364,146.3482
	c0.7061,0.6812,1.7969,0.9654,2.4911,0.1075c0.2012-0.2461,5.9346-8.0166,5.3799-8.5337c-0.5361-0.5113-7.8906,5.7392-8.1367,5.9477
	C675.77,144.6075,676.1167,145.6798,676.8364,146.3482z M672.2319,154.1314c3.7715-2.3208,7.8018-2.0434,10.8604-0.9331
	c-0.378-2.7124-4.5909-5.292-9.9522-2.5166c2.4473-5.5-0.3848-9.5429-3.1162-9.7514c1.3057,2.977,1.8164,6.9697-0.2773,10.8613
	c-2.1065,3.8916-6.3389,7.1274-5.2979,8.105C665.4829,160.8741,668.479,156.4527,672.2319,154.1314z M670.0239,193.4889
	c2.7314-0.2271,5.5635-4.2574,3.1162-9.7701c5.3613,2.7818,9.5742,0.1959,9.9522-2.5166
	c-3.0586,1.1167-7.0889,1.4004-10.8604-0.9209c-3.7529-2.3334-6.749-6.7421-7.7832-5.7646
	c-1.041,0.9648,3.1914,4.2197,5.2979,8.0923C671.8403,186.5006,671.3296,190.506,670.0239,193.4889z M684.7075,196.4786
	c0.5547-0.5107-5.1786-8.2876-5.3799-8.5337c-0.6943-0.8452-1.7851-0.561-2.4911,0.107c-0.7197,0.6753-1.0665,1.7475-0.2656,2.479
	C676.8169,190.7516,684.1714,196.9894,684.7075,196.4786z M680.2983,167.2003c5.7022-1.9805,6.6924-6.8184,4.9893-8.9502
	c-1.2862,2.9834-3.8477,6.1055-8.1241,7.2534c-4.2763,1.1226-9.5615,0.2778-9.5615,1.6968c0,1.4253,5.2852,0.5737,9.5615,1.709
	c4.2764,1.1357,6.8379,4.2705,8.1241,7.2412C686.9907,174.0187,686.0005,169.1998,680.2983,167.2003z M658.2485,157.6192v-24.3081
	h-0.9648v24.3081H658.2485z M658.2046,164.3556c-2.4346,0-4.4151,1.1479-4.4151,2.5605c0,1.4194,1.9805,2.5611,4.4151,2.5611
	c2.4404,0,4.4209-1.1417,4.4209-2.5611C662.6255,165.5035,660.645,164.3556,658.2046,164.3556z M676.8364,213.9435
	c0.7061,0.6689,1.7969,0.9462,2.4911,0.0947c0.2012-0.2461,5.9346-8.023,5.3799-8.5274c-0.5361-0.5107-7.8906,5.7207-8.1367,5.9478
	C675.77,212.19,676.1167,213.256,676.8364,213.9435z M670.0239,261.0592c2.7314-0.2085,5.5635-4.2573,3.1162-9.7573
	c5.3613,2.7749,9.5742,0.1953,9.9522-2.5108c-3.0586,1.1104-7.0889,1.3941-10.8604-0.9331c-3.7529-2.3213-6.749-6.7363-7.7832-5.771
	c-1.041,0.9834,3.1914,4.2256,5.2979,8.1172C671.8403,254.0768,671.3296,258.0885,670.0239,261.0592z M685.2876,225.8204
	c-1.2862,2.9961-3.8477,6.1182-8.1241,7.2529c-4.2763,1.1485-9.5615,0.2842-9.5615,1.7095s5.2852,0.5615,9.5615,1.7095
	c4.2764,1.1352,6.8379,4.2573,8.1241,7.2471c1.7031-2.1382,0.7129-6.9698-4.9893-8.9566
	C686.0005,232.796,686.9907,227.9649,685.2876,225.8204z M658.2485,200.881v-24.2955h-0.9648v24.2955v24.3086h0.9648V200.881z
	 M684.7075,264.0548c0.5547-0.5044-5.1786-8.2813-5.3799-8.5274c-0.6943-0.8447-1.7851-0.5737-2.4911,0.1075
	c-0.7197,0.6748-1.0665,1.747-0.2656,2.4785C676.8169,258.3341,684.1714,264.5724,684.7075,264.0548z M693.4995,234.2784
	c-2.8887-0.208-5.544-1.0786-5.8721-1.0976c-1.1035-0.0694-1.6396,0.9082-1.6396,1.8857c0.0127,0.9844,0.5488,1.9683,1.6396,1.8799
	c0.3281-0.0191,2.9834-0.877,5.8721-1.0913c5.3428-0.208,6.6416-0.044,6.6416-0.7886
	C700.1411,234.3224,698.8423,234.4991,693.4995,234.2784z M672.2319,221.7018c3.7715-2.3213,7.8018-2.0376,10.8604-0.9209
	c-0.378-2.6997-4.5909-5.292-9.9522-2.5166c2.4473-5.5-0.3848-9.543-3.1162-9.7637c1.3057,2.977,1.8164,6.9883-0.2773,10.8735
	c-2.1065,3.8789-6.3389,7.1275-5.2979,8.105C665.4829,228.4439,668.479,224.0353,672.2319,221.7018z M658.2046,231.9386
	c-2.4346,0-4.4151,1.1538-4.4151,2.5605c0,1.4131,1.9805,2.5547,4.4151,2.5547c2.4404,0,4.4209-1.1416,4.4209-2.5547
	C662.6255,233.0924,660.645,231.9386,658.2046,231.9386z M676.8364,281.5138c0.7061,0.6811,1.7969,0.9521,2.4911,0.1069
	c0.2012-0.2456,5.9346-8.0288,5.3799-8.5337c-0.5361-0.5107-7.8906,5.7271-8.1367,5.9478
	C675.77,279.7726,676.1167,280.8448,676.8364,281.5138z M685.2876,293.4156c-1.2862,2.9707-3.8477,6.1055-8.1241,7.2407
	c-4.2763,1.1353-9.5615,0.2837-9.5615,1.709c0,1.4131,5.2852,0.5743,9.5615,1.7095c4.2764,1.1353,6.8379,4.2637,8.1241,7.2407
	c1.7031-2.1318,0.7129-6.9629-4.9893-8.9502C686.0005,300.3663,686.9907,295.5411,685.2876,293.4156z M684.7075,331.6441
	c0.5547-0.5112-5.1786-8.2876-5.3799-8.5336c-0.6943-0.8453-1.7851-0.5743-2.4911,0.1005c-0.7197,0.669-1.0665,1.7471-0.2656,2.4854
	C676.8169,325.9171,684.1714,332.1549,684.7075,331.6441z M693.4995,301.8609c-2.8887-0.208-5.544-1.0722-5.8721-1.0971
	c-1.1035-0.0821-1.6396,0.9082-1.6396,1.8794c0.0127,0.9775,0.5488,1.9677,1.6396,1.8921c0.3281-0.0254,2.9834-0.8829,5.8721-1.0977
	c5.3428-0.2207,6.6416-0.0439,6.6416-0.7944C700.1411,301.8985,698.8423,302.0753,693.4995,301.8609z M658.2485,268.4703v-24.3086
	h-0.9648v24.3086v24.3018h0.9648V268.4703z M670.0239,328.6417c2.7314-0.2207,5.5635-4.251,3.1162-9.7573
	c5.3613,2.7817,9.5742,0.1958,9.9522-2.5166c-3.0586,1.1162-7.0889,1.4004-10.8604-0.9336
	c-3.7529-2.3208-6.749-6.7359-7.7832-5.7583c-1.041,0.9712,3.1914,4.2197,5.2979,8.0986
	C671.8403,321.6661,671.3296,325.671,670.0239,328.6417z M658.2046,299.5211c-2.4346,0-4.4151,1.1479-4.4151,2.5542
	c0,1.4131,1.9805,2.5674,4.4151,2.5674c2.4404,0,4.4209-1.1543,4.4209-2.5674C662.6255,300.669,660.645,299.5211,658.2046,299.5211z
	 M672.2319,289.2843c3.7715-2.3213,7.8018-2.0313,10.8604-0.9209c-0.378-2.7119-4.5909-5.2979-9.9522-2.5166
	c2.4473-5.5127-0.3848-9.543-3.1162-9.7637c1.3057,2.9771,1.8164,6.9824-0.2773,10.874c-2.1065,3.8789-6.3389,7.127-5.2979,8.0918
	C665.4829,296.0392,668.479,291.6178,672.2319,289.2843z M693.4995,369.4435c-2.8887-0.208-5.544-1.0782-5.8721-1.0972
	c-1.1035-0.0693-1.6396,0.8955-1.6396,1.8794c0.0127,0.9902,0.5488,1.9678,1.6396,1.8857c0.3281-0.0185,2.9834-0.8828,5.8721-1.0908
	c5.3428-0.2207,6.6416-0.0444,6.6416-0.7949C700.1411,369.4815,698.8423,369.6583,693.4995,369.4435z M685.2876,360.9855
	c-1.2862,2.996-3.8477,6.1181-8.1241,7.2534c-4.2763,1.1352-9.5615,0.2837-9.5615,1.7094c0,1.4126,5.2852,0.5616,9.5615,1.7032
	c4.2764,1.1289,6.8379,4.2636,8.1241,7.2529c1.7031-2.1377,0.7129-6.9692-4.9893-8.9561
	C686.0005,367.9552,686.9907,363.1236,685.2876,360.9855z M684.7075,399.2203c0.5547-0.5107-5.1786-8.2812-5.3799-8.5273
	c-0.6943-0.8579-1.7851-0.5738-2.4911,0.101c-0.7197,0.6685-1.0665,1.7471-0.2656,2.4849
	C676.8169,393.4996,684.1714,399.7374,684.7075,399.2203z M658.2485,336.0465v-24.3023h-0.9648v24.3023v24.3081h0.9648V336.0465z
	 M658.2046,367.1036c-2.4346,0-4.4151,1.1416-4.4151,2.5606c0,1.4067,1.9805,2.5546,4.4151,2.5546
	c2.4404,0,4.4209-1.1479,4.4209-2.5546C662.6255,368.2452,660.645,367.1036,658.2046,367.1036z M676.8364,349.0963
	c0.7061,0.6811,1.7969,0.9526,2.4911,0.1074c0.2012-0.2461,5.9346-8.0293,5.3799-8.5405c-0.5361-0.5108-7.8906,5.7334-8.1367,5.9419
	C675.77,347.3429,676.1167,348.4215,676.8364,349.0963z M670.0239,396.2247c2.7314-0.2212,5.5635-4.2578,3.1162-9.7578
	c5.3613,2.769,9.5742,0.1831,9.9522-2.5103c-3.0586,1.1104-7.0889,1.3941-10.8604-0.9331c-3.7529-2.3213-6.749-6.7426-7.7832-5.7714
	c-1.041,0.9775,3.1914,4.226,5.2979,8.1049C671.8403,389.2359,671.3296,393.2535,670.0239,396.2247z M672.2319,356.8668
	c3.7715-2.3208,7.8018-2.0371,10.8604-0.9331c-0.378-2.6934-4.5909-5.2793-9.9522-2.5044c2.4473-5.5-0.3848-9.543-3.1162-9.7637
	c1.3057,2.9771,1.8164,6.9888-0.2773,10.8614c-2.1065,3.8916-6.3389,7.1274-5.2979,8.1049
	C665.4829,363.6095,668.479,359.1944,672.2319,356.8668z M672.2319,424.4493c3.7715-2.3208,7.8018-2.0498,10.8604-0.9209
	c-0.378-2.7119-4.5909-5.2978-9.9522-2.5166c2.4473-5.5122-0.3848-9.5425-3.1162-9.7695c1.3057,2.9834,1.8164,6.9883-0.2773,10.8735
	c-2.1065,3.8726-6.3389,7.1211-5.2979,8.0987C665.4829,431.1856,668.479,426.7833,672.2319,424.4493z M684.7075,466.8097
	c0.5547-0.5113-5.1786-8.2881-5.3799-8.5406c-0.6943-0.8452-1.7851-0.5673-2.4911,0.1011
	c-0.7197,0.6748-1.0665,1.7471-0.2656,2.4912C676.8169,461.0694,684.1714,467.3204,684.7075,466.8097z M685.2876,428.5812
	c-1.2862,2.9707-3.8477,6.1054-8.1241,7.2402c-4.2763,1.1357-9.5615,0.2842-9.5615,1.7095c0,1.4126,5.2852,0.5678,9.5615,1.6967
	c4.2764,1.1416,6.8379,4.2574,8.1241,7.2535c1.7031-2.1319,0.7129-6.9698-4.9893-8.9502
	C686.0005,435.5313,686.9907,430.7003,685.2876,428.5812z M676.8364,416.6788c0.7061,0.669,1.7969,0.9526,2.4911,0.1074
	c0.2012-0.2461,5.9346-8.0293,5.3799-8.54c-0.5361-0.5107-7.8906,5.7334-8.1367,5.9541
	C675.77,414.9254,676.1167,416.004,676.8364,416.6788z M670.0239,463.8072c2.7314-0.2207,5.5635-4.2573,3.1162-9.7573
	c5.3613,2.7686,9.5742,0.1826,9.9522-2.5166c-3.0586,1.1035-7.0889,1.3877-10.8604-0.9336
	c-3.7529-2.3276-6.749-6.7427-7.7832-5.7588c-1.041,0.9717,3.1914,4.2071,5.2979,8.0987
	C671.8403,456.8185,671.3296,460.8238,670.0239,463.8072z M658.2485,403.629v-24.3018h-0.9648v24.3018v24.2959h0.9648V403.629z
	 M658.2046,434.6866c-2.4346,0-4.4151,1.1416-4.4151,2.5542s1.9805,2.5606,4.4151,2.5606c2.4404,0,4.4209-1.148,4.4209-2.5606
	S660.645,434.6866,658.2046,434.6866z M693.4995,437.0265c-2.8887-0.2207-5.544-1.085-5.8721-1.1104
	c-1.1035-0.0693-1.6396,0.9146-1.6396,1.8858c0.0127,0.9843,0.5488,1.9682,1.6396,1.8989c0.3281-0.0318,2.9834-0.896,5.8721-1.1104
	c5.3428-0.208,6.6416-0.0312,6.6416-0.7885C700.1411,437.0641,698.8423,437.2408,693.4995,437.0265z M676.8364,484.2618
	c0.7061,0.6685,1.7969,0.9522,2.4911,0.0947c0.2012-0.246,5.9346-8.0166,5.3799-8.5341c-0.5361-0.5108-7.8906,5.7397-8.1367,5.9477
	C675.77,482.5084,676.1167,483.5802,676.8364,484.2618z M684.7075,534.379c0.5547-0.5107-5.1786-8.2871-5.3799-8.5146
	c-0.6943-0.8643-1.7851-0.5801-2.4911,0.0887c-0.7197,0.6875-1.0665,1.7598-0.2656,2.4971
	C676.8169,528.6583,684.1714,534.8907,684.7075,534.379z M670.0239,531.3897c2.7314-0.2275,5.5635-4.2578,3.1162-9.7509
	c5.3613,2.7627,9.5742,0.1767,9.9522-2.5166c-3.0586,1.1104-7.0889,1.3877-10.8604-0.9336
	c-3.7529-2.3213-6.749-6.7422-7.7832-5.7715c-1.041,0.9775,3.1914,4.2197,5.2979,8.0928
	C671.8403,524.4015,671.3296,528.4122,670.0239,531.3897z M672.2319,492.0323c3.7715-2.3213,7.8018-2.0439,10.8604-0.9336
	c-0.378-2.6992-4.5909-5.292-9.9522-2.5166c2.4473-5.5-0.3848-9.5429-3.1162-9.7509c1.3057,2.977,1.8164,6.9755-0.2773,10.8613
	c-2.1065,3.8916-6.3389,7.1269-5.2979,8.1045C665.4829,498.7745,668.479,494.3536,672.2319,492.0323z M658.2046,502.2564
	c-2.4346,0-4.4151,1.148-4.4151,2.5606c0,1.4194,1.9805,2.561,4.4151,2.561c2.4404,0,4.4209-1.1416,4.4209-2.561
	C662.6255,503.4044,660.645,502.2564,658.2046,502.2564z M685.2876,496.151c-1.2862,2.9897-3.8477,6.1054-8.1241,7.2534
	c-4.2763,1.1226-9.5615,0.2773-9.5615,1.6963c0,1.4258,5.2852,0.5742,9.5615,1.7099c4.2764,1.1348,6.8379,4.2696,8.1241,7.2598
	c1.7031-2.1387,0.7129-6.9697-4.9893-8.9697C686.0005,503.1202,686.9907,498.2828,685.2876,496.151z M658.2485,471.212v-24.3086
	h-0.9648v24.3086v24.3081h0.9648V471.212z M693.4995,504.6026c-2.8887-0.2143-5.544-1.0786-5.8721-1.0908
	c-1.1035-0.082-1.6396,0.8955-1.6396,1.8794c0.0127,0.9839,0.5488,1.9614,1.6396,1.8862c0.3281-0.0195,2.9834-0.8837,5.8721-1.1044
	c5.3428-0.2081,6.6416-0.044,6.6416-0.7818C700.1411,504.6466,698.8423,504.8106,693.4995,504.6026z M684.7075,601.9747
	c0.5547-0.5107-5.1786-8.2939-5.3799-8.54c-0.6943-0.8448-1.7851-0.5801-2.4911,0.1074c-0.7197,0.668-1.0665,1.7402-0.2656,2.4785
	C676.8169,596.2355,684.1714,602.4855,684.7075,601.9747z M676.8364,551.8438c0.7061,0.669,1.7969,0.9463,2.4911,0.1075
	c0.2012-0.252,5.9346-8.0293,5.3799-8.5401c-0.5361-0.5107-7.8906,5.7403-8.1367,5.9483
	C675.77,550.1036,676.1167,551.1563,676.8364,551.8438z M658.2046,569.8517c-2.4346,0-4.4151,1.1416-4.4151,2.5479
	c0,1.4131,1.9805,2.5547,4.4151,2.5547c2.4404,0,4.4209-1.1416,4.4209-2.5547C662.6255,570.9933,660.645,569.8517,658.2046,569.8517
	z M670.0239,598.9601c2.7314-0.2079,5.5635-4.2393,3.1162-9.751c5.3613,2.7685,9.5742,0.1758,9.9522-2.5166
	c-3.0586,1.1094-7.0889,1.3935-10.8604-0.9336c-3.7529-2.3213-6.749-6.7363-7.7832-5.7529c-1.041,0.9658,3.1914,4.207,5.2979,8.0986
	C671.8403,591.9776,671.3296,595.9894,670.0239,598.9601z M685.2876,563.7403c-1.2862,2.9766-3.8477,6.1114-8.1241,7.2344
	c-4.2763,1.1475-9.5615,0.3027-9.5615,1.709c0,1.4258,5.2852,0.5615,9.5615,1.709c4.2764,1.123,6.8379,4.2578,8.1241,7.247
	c1.7031-2.125,0.7129-6.9697-4.9893-8.956C686.0005,570.6974,686.9907,565.8722,685.2876,563.7403z M658.2485,538.7823v-24.29
	h-0.9648v24.29v24.3076h0.9648V538.7823z M672.2319,559.6026c3.7715-2.3213,7.8018-2.038,10.8604-0.915
	c-0.378-2.7061-4.5909-5.2979-9.9522-2.5166c2.4473-5.5059-0.3848-9.5361-3.1162-9.7695c1.3057,2.9765,1.8164,6.9882-0.2773,10.8798
	c-2.1065,3.8731-6.3389,7.127-5.2979,8.0987C665.4829,566.3448,668.479,561.9483,672.2319,559.6026z M693.4995,572.1915
	c-2.8887-0.2266-5.544-1.0723-5.8721-1.1103c-1.1035-0.0694-1.6396,0.915-1.6396,1.8867c0.0127,0.9834,0.5488,1.9677,1.6396,1.8984
	c0.3281-0.0381,2.9834-0.8955,5.8721-1.1103c5.3428-0.208,6.6416-0.0313,6.6416-0.7881
	C700.1411,572.2228,698.8423,572.3995,693.4995,572.1915z M685.2876,631.3165c-1.2862,2.9893-3.8477,6.1055-8.1241,7.2529
	c-4.2763,1.1231-9.5615,0.2774-9.5615,1.7032c0,1.413,5.2852,0.5673,9.5615,1.6904c4.2764,1.1484,6.8379,4.2764,8.1241,7.2529
	c1.7031-2.1318,0.7129-6.9502-4.9893-8.9433C686.0005,638.2853,686.9907,633.4415,685.2876,631.3165z M658.2485,606.3712v-24.3086
	h-0.9648v24.3086v24.3076h0.9648V606.3712z M693.4995,639.7618c-2.8887-0.208-5.544-1.0722-5.8721-1.0919
	c-1.1035-0.0879-1.6396,0.9024-1.6396,1.8867c0.0127,0.9834,0.5488,1.9551,1.6396,1.8858c0.3281-0.0186,2.9834-0.8828,5.8721-1.1104
	c5.3428-0.1953,6.6416-0.0381,6.6416-0.7754C700.1411,639.8185,698.8423,639.9767,693.4995,639.7618z M658.2046,637.422
	c-2.4346,0-4.4151,1.1474-4.4151,2.5732c0,1.4062,1.9805,2.5479,4.4151,2.5479c2.4404,0,4.4209-1.1416,4.4209-2.5479
	C662.6255,638.5694,660.645,637.422,658.2046,637.422z M684.7075,669.545c0.5547-0.5107-5.1786-8.2881-5.3799-8.5342
	c-0.6943-0.8447-1.7851-0.5673-2.4911,0.1006c-0.7197,0.6875-1.0665,1.7481-0.2656,2.4854
	C676.8169,663.8048,684.1714,670.0558,684.7075,669.545z M670.0239,666.5548c2.7314-0.2334,5.5635-4.2637,3.1162-9.7695
	c5.3613,2.7812,9.5742,0.1953,9.9522-2.5165c-3.0586,1.1219-7.0889,1.3876-10.8604-0.9151
	c-3.7529-2.3398-6.749-6.7422-7.7832-5.7773c-1.041,0.9717,3.1914,4.2265,5.2979,8.0986
	C671.8403,659.5665,671.3296,663.5782,670.0239,666.5548z M672.2319,627.1974c3.7715-2.3271,7.8018-2.043,10.8604-0.9336
	c-0.378-2.7119-4.5909-5.2979-9.9522-2.5166c2.4473-5.5127-0.3848-9.543-3.1162-9.751c1.3057,2.9707,1.8164,6.9697-0.2773,10.8613
	c-2.1065,3.8858-6.3389,7.127-5.2979,8.1113C665.4829,633.9396,668.479,629.5187,672.2319,627.1974z M676.8364,619.4142
	c0.7061,0.6875,1.7969,0.9531,2.4911,0.1074c0.2012-0.2461,5.9346-8.0098,5.3799-8.5342c-0.5361-0.5107-7.8906,5.7334-8.1367,5.9482
	C675.77,617.6739,676.1167,618.7462,676.8364,619.4142z M658.2046,704.9981c-2.4346,0-4.4151,1.1602-4.4151,2.5674
	c0,1.4063,1.9805,2.5537,4.4151,2.5537c2.4404,0,4.4209-1.1474,4.4209-2.5537C662.6255,706.1583,660.645,704.9981,658.2046,704.9981
	z M658.2485,673.9474v-24.3086h-0.9648v24.3086v24.3086h0.9648V673.9474z M672.2319,694.7677
	c3.7715-2.3213,7.8018-2.0371,10.8604-0.9141c-0.378-2.713-4.5909-5.2988-9.9522-2.5361c2.4473-5.4873-0.3848-9.5176-3.1162-9.751
	c1.3057,2.9766,1.8164,6.9883-0.2773,10.8613c-2.1065,3.8916-6.3389,7.1465-5.2979,8.1172
	C665.4829,701.5099,668.479,697.1075,672.2319,694.7677z M670.0239,734.1251c2.7314-0.208,5.5635-4.2578,3.1162-9.7695
	c5.3613,2.7812,9.5742,0.1953,9.9522-2.4981c-3.0586,1.1104-7.0889,1.3936-10.8604-0.9336
	c-3.7529-2.3213-6.749-6.7422-7.7832-5.7519c-1.041,0.9648,3.1914,4.207,5.2979,8.0918
	C671.8403,727.1368,671.3296,731.1544,670.0239,734.1251z M693.4995,707.3575c-2.8887-0.2344-5.544-1.0918-5.8721-1.1103
	c-1.1035-0.0694-1.6396,0.914-1.6396,1.8789c0.0127,0.9902,0.5488,1.9746,1.6396,1.8857c0.3281-0.0185,2.9834-0.8828,5.8721-1.0908
	c5.3428-0.2139,6.6416-0.0498,6.6416-0.7949C700.1411,707.3888,698.8423,707.5655,693.4995,707.3575z M676.8364,687.0099
	c0.7061,0.6679,1.7969,0.9464,2.4911,0.1006c0.2012-0.2462,5.9346-8.0225,5.3799-8.5342c-0.5361-0.5108-7.8906,5.7207-8.1367,5.9482
	C675.77,685.2628,676.1167,686.3224,676.8364,687.0099z M684.7075,737.1339c0.5547-0.5234-5.1786-8.2881-5.3799-8.5342
	c-0.6943-0.8447-1.7851-0.5801-2.4911,0.1074c-0.7197,0.669-1.0665,1.7412-0.2656,2.46
	C676.8169,731.4005,684.1714,737.6446,684.7075,737.1339z M685.2876,698.9054c-1.2862,2.9765-3.8477,6.0927-8.1241,7.2343
	c-4.2763,1.1416-9.5615,0.2842-9.5615,1.709c0,1.4258,5.2852,0.5616,9.5615,1.7032c4.2764,1.1289,6.8379,4.2636,8.1241,7.2529
	c1.7031-2.125,0.7129-6.9688-4.9893-8.9561C686.0005,705.8556,686.9907,701.0372,685.2876,698.9054z M684.7075,804.7101
	c0.5547-0.5108-5.1786-8.2881-5.3799-8.5401c-0.6943-0.8387-1.7851-0.5615-2.4911,0.1074c-0.7197,0.668-1.0665,1.7403-0.2656,2.4844
	C676.8169,798.9708,684.1714,805.2208,684.7075,804.7101z M685.2876,766.4815c-1.2862,2.9707-3.8477,6.1055-8.1241,7.2471
	c-4.2763,1.1288-9.5615,0.2646-9.5615,1.709c0,1.4072,5.2852,0.5615,9.5615,1.6904c4.2764,1.1416,6.8379,4.2764,8.1241,7.2539
	c1.7031-2.1318,0.7129-6.9697-4.9893-8.9443C686.0005,773.4317,686.9907,768.6075,685.2876,766.4815z M676.8364,754.5802
	c0.7061,0.6875,1.7969,0.9521,2.4911,0.1064c0.2012-0.2461,5.9346-8.0293,5.3799-8.54c-0.5361-0.5107-7.8906,5.7402-8.1367,5.9541
	C675.77,752.839,676.1167,753.9113,676.8364,754.5802z M672.2319,762.3634c3.7715-2.3281,7.8018-2.0439,10.8604-0.9336
	c-0.378-2.7129-4.5909-5.2988-9.9522-2.5166c2.4473-5.5127-0.3848-9.543-3.1162-9.7705c1.3057,2.9902,1.8164,6.9883-0.2773,10.874
	c-2.1065,3.8916-6.3389,7.1338-5.2979,8.0986C665.4829,769.0987,668.479,764.6837,672.2319,762.3634z M670.0239,801.7013
	c2.7314-0.2139,5.5635-4.2442,3.1162-9.751c5.3613,2.7812,9.5742,0.1894,9.9522-2.5166c-3.0586,1.123-7.0889,1.3877-10.8604-0.9336
	c-3.7529-2.3271-6.749-6.7236-7.7832-5.7578c-1.041,0.9707,3.1914,4.2256,5.2979,8.0976
	C671.8403,794.7315,671.3296,798.7433,670.0239,801.7013z M693.4995,774.9269c-2.8887-0.2079-5.544-1.0723-5.8721-1.0909
	c-1.1035-0.0888-1.6396,0.8955-1.6396,1.8858c0.0127,0.9834,0.5488,1.9492,1.6396,1.8799c0.3281-0.0196,2.9834-0.877,5.8721-1.1104
	c5.3428-0.208,6.6416-0.0312,6.6416-0.7695C700.1411,774.9649,698.8423,775.1417,693.4995,774.9269z M658.2485,741.5362v-24.3086
	h-0.9648v24.3086v24.3086h0.9648V741.5362z M658.2046,772.587c-2.4346,0-4.4151,1.1416-4.4151,2.5547
	c0,1.4248,1.9805,2.5674,4.4151,2.5674c2.4404,0,4.4209-1.1426,4.4209-2.5674C662.6255,773.7286,660.645,772.587,658.2046,772.587z
	 M670.0239,869.2901c2.7314-0.208,5.5635-4.2568,3.1162-9.7695c5.3613,2.7812,9.5742,0.1953,9.9522-2.498
	c-3.0586,1.1104-7.0889,1.3877-10.8604-0.9336c-3.7529-2.3203-6.749-6.7422-7.7832-5.7705
	c-1.041,0.9834,3.1914,4.2188,5.2979,8.1113C671.8403,862.3019,671.3296,866.3136,670.0239,869.2901z M657.2837,852.3937v24.3076
	h0.9648v-24.3076H657.2837z M693.4995,842.5157c-2.8887-0.2265-5.544-1.0908-5.8721-1.1035
	c-1.1035-0.0762-1.6396,0.8954-1.6396,1.8799c0.0127,0.9834,0.5488,1.9736,1.6396,1.8857c0.3281-0.0195,2.9834-0.8828,5.8721-1.0918
	c5.3428-0.2138,6.6416-0.0566,6.6416-0.7939C700.1411,842.5353,698.8423,842.711,693.4995,842.5157z M676.8364,863.8663
	c-0.7197,0.6562-1.0665,1.7471-0.2656,2.4658c0.2461,0.2276,7.6006,6.4776,8.1367,5.9483c0.5547-0.5049-5.1786-8.2686-5.3799-8.5342
	C678.6333,862.9015,677.5425,863.1847,676.8364,863.8663z M658.2485,809.1124v-24.3076h-0.9648v24.3076v24.3086h0.9648V809.1124z
	 M685.2876,834.0519c-1.2862,2.9893-3.8477,6.1054-8.1241,7.2529c-4.2763,1.1416-9.5615,0.2773-9.5615,1.709
	c0,1.4258,5.2852,0.5615,9.5615,1.7031c4.2764,1.1289,6.8379,4.2637,8.1241,7.2539c1.7031-2.1318,0.7129-6.9697-4.9893-8.957
	C686.0005,841.0216,686.9907,836.2022,685.2876,834.0519z M672.2319,829.9327c3.7715-2.3213,7.8018-2.043,10.8604-0.9139
	c-0.378-2.712-4.5909-5.2979-9.9522-2.5363c2.4473-5.4931-0.3848-9.5234-3.1162-9.751c1.3057,2.9776,1.8164,6.9893-0.2773,10.8614
	c-2.1065,3.8916-6.3389,7.1269-5.2979,8.1113C665.4829,836.6759,668.479,832.254,672.2319,829.9327z M658.2046,840.1573
	c-2.4346,0-4.4151,1.1475-4.4151,2.5733c0,1.4062,1.9805,2.5547,4.4151,2.5547c2.4404,0,4.4209-1.1485,4.4209-2.5547
	C662.6255,841.3048,660.645,840.1573,658.2046,840.1573z M676.8364,822.169c0.7061,0.668,1.7969,0.9522,2.4911,0.0879
	c0.2012-0.2275,5.9346-8.0224,5.3799-8.5341c-0.5361-0.4913-7.8906,5.7402-8.1367,5.9669
	C675.77,820.4093,676.1167,821.4815,676.8364,822.169z M620.8022,885.5196c1.3809,0,2.5098-1.9746,2.5098-4.4033
	c0-2.4473-1.1289-4.415-2.5098-4.415c-1.3877,0-2.5166,1.9677-2.5166,4.415C618.2856,883.545,619.4145,885.5196,620.8022,885.5196z
	 M613.3471,887.3478c-0.9589-1.0342-4.1445,3.205-7.9541,5.2988c-3.8095,2.0937-7.7451,1.583-10.665,0.2832
	c0.2139,2.7256,4.1689,5.5635,9.5742,3.1162c-2.7187,5.3486-0.1894,9.5742,2.4727,9.959c-1.0918-3.0586-1.3623-7.1084,0.914-10.874
	C609.9663,891.379,614.2993,888.3888,613.3471,887.3478z M611.3032,880.1837h-23.8477h-23.8603v0.9707h23.8603h23.8477V880.1837z
	 M620.2407,908.8937c-0.9717,0-1.9297,0.5488-1.8477,1.6406c0.0245,0.3154,0.8575,2.9892,1.0723,5.8594
	c0.208,5.3486,0.044,6.6543,0.7754,6.6543c0.7383,0,0.5615-1.3057,0.7755-6.6543c0.2021-2.8702,1.0536-5.544,1.0723-5.8594
	C622.1645,909.4425,621.2055,908.8937,620.2407,908.8937z M597.6098,899.4767c-0.2011,0.2461-6.332,7.588-5.8339,8.1308
	c0.5048,0.549,8.1425-5.1719,8.3828-5.3672c0.832-0.7011,0.5605-1.792-0.1075-2.498
	C599.3891,899.0235,598.3413,898.6827,597.6098,899.4767z M629.935,881.1544h23.8545v-0.9707H629.935V881.1544z M622.1899,900.0577
	c-1.1172-4.2762-0.2773-9.537-1.6719-9.537c-1.3935,0-0.5615,5.2608-1.6718,9.537c-1.1162,4.2764-4.1817,6.8496-7.1075,8.1299
	c2.087,1.709,6.8301,0.7061,8.7793-4.9951c1.9551,5.7012,6.6983,6.7041,8.793,4.9951
	C626.3843,906.9073,623.312,904.3341,622.1899,900.0577z M646.3091,892.9298c-2.9268,1.2998-6.8497,1.8105-10.6602-0.2832
	c-3.8223-2.0938-6.9941-6.333-7.9531-5.2988c-0.9522,1.041,3.374,4.0312,5.6582,7.7832c2.2763,3.7656,2.0049,7.8154,0.9082,10.874
	c2.6553-0.3848,5.1904-4.6104,2.4717-9.959C642.1333,898.4933,646.1069,895.6554,646.3091,892.9298z M640.9848,899.7423
	c-0.6621,0.706-0.9326,1.7969-0.1005,2.498c0.2392,0.1953,7.872,5.9161,8.3701,5.3672c0.5039-0.5428-5.6201-7.8847-5.834-8.1308
	C642.7007,898.6827,641.6411,899.0235,640.9848,899.7423z M547.0063,887.3478c-0.9521-1.0342-4.1377,3.205-7.9472,5.2988
	c-3.8223,2.0937-7.7452,1.583-10.6651,0.2832c0.208,2.7256,4.1817,5.5635,9.5811,3.1162c-2.7383,5.3486-0.1836,9.5742,2.4658,9.959
	c-1.0977-3.0586-1.375-7.1084,0.9141-10.874C543.6382,891.379,547.9653,888.3888,547.0063,887.3478z M554.4614,885.5196
	c1.3876,0,2.5165-1.9746,2.5165-4.4033c0-2.4473-1.1289-4.415-2.5165-4.415c-1.3809,0-2.5098,1.9677-2.5098,4.415
	C551.9516,883.545,553.0805,885.5196,554.4614,885.5196z M553.9067,908.8937c-0.959,0-1.9297,0.5488-1.8476,1.6406
	c0.0185,0.3154,0.8701,2.9892,1.0839,5.8594c0.2022,5.3486,0.0323,6.6543,0.7637,6.6543c0.7315,0,0.5615-1.3057,0.7754-6.6543
	c0.209-2.8702,1.0537-5.544,1.0723-5.8594C555.8364,909.4425,554.8716,908.8937,553.9067,908.8937z M544.9819,880.1837h-23.8603
	h-23.8477v0.9707h23.8477h23.8603V880.1837z M531.2885,899.4767c-0.2207,0.2461-6.3388,7.588-5.8339,8.1308
	c0.498,0.549,8.1298-5.1719,8.3701-5.3672c0.832-0.7011,0.5605-1.792-0.1016-2.498
	C533.0678,899.0235,532.0014,898.6827,531.2885,899.4767z M555.8618,900.0577c-1.1094-4.2762-0.2774-9.537-1.6709-9.537
	c-1.3945,0-0.5557,5.2608-1.6846,9.537c-1.1094,4.2764-4.1816,6.8496-7.1084,8.1299c2.0948,1.709,6.8369,0.7061,8.793-4.9951
	c1.9482,5.7012,6.6913,6.7041,8.7793,4.9951C560.0434,906.9073,556.978,904.3341,555.8618,900.0577z M574.6391,899.7423
	c-0.6504,0.706-0.9209,1.7969-0.0947,2.498c0.2461,0.1953,7.8779,5.9161,8.3887,5.3672c0.498-0.5428-5.6328-7.8847-5.8535-8.1308
	C576.3667,898.6827,575.3071,899.0235,574.6391,899.7423z M579.9809,892.9298c-2.9199,1.2998-6.8554,1.8105-10.6718-0.2832
	c-3.8028-2.0938-6.9883-6.333-7.9473-5.2988c-0.959,1.041,3.3682,4.0312,5.6582,7.7832c2.2764,3.7656,2.0059,7.8154,0.9141,10.874
	c2.6494-0.3848,5.1914-4.6104,2.4726-9.959C575.8052,898.4933,579.7671,895.6554,579.9809,892.9298z M487.5727,908.8937
	c-0.9648,0-1.9238,0.5488-1.8476,1.6406c0.0185,0.3154,0.8642,2.9892,1.0722,5.8594c0.2139,5.3486,0.044,6.6543,0.7754,6.6543
	c0.7383,0,0.5684-1.3057,0.7764-6.6543c0.2012-2.8702,1.0527-5.544,1.0723-5.8594
	C489.4907,909.4425,488.5317,908.8937,487.5727,908.8937z M480.685,887.3478c-0.9707-1.0342-4.1494,3.205-7.9658,5.2988
	c-3.8027,2.0937-7.7392,1.583-10.6592,0.2832c0.2207,2.7256,4.1748,5.5635,9.5743,3.1162c-2.7178,5.3486-0.1827,9.5742,2.4726,9.959
	c-1.0908-3.0586-1.3691-7.1084,0.9082-10.874C477.3052,891.379,481.6313,888.3888,480.685,887.3478z M489.5278,900.0577
	c-1.1162-4.2762-0.2832-9.537-1.6709-9.537c-1.4004,0-0.5615,5.2608-1.6719,9.537c-1.1162,4.2764-4.1875,6.8496-7.1201,8.1299
	c2.0938,1.709,6.8369,0.7061,8.792-4.9951c1.9551,5.7012,6.6856,6.7041,8.792,4.9951
	C493.7163,906.9073,490.6382,904.3341,489.5278,900.0577z M464.9487,899.4767c-0.2148,0.2461-6.3389,7.588-5.834,8.1308
	c0.4981,0.549,8.1358-5.1719,8.3819-5.3672c0.8203-0.7011,0.5556-1.792-0.1133-2.498
	C466.727,899.0235,465.6802,898.6827,464.9487,899.4767z M513.6538,892.9298c-2.9268,1.2998-6.8565,1.8105-10.6719-0.2832
	c-3.8164-2.0938-6.9951-6.333-7.9541-5.2988c-0.958,1.041,3.3809,4.0312,5.6582,7.7832c2.2832,3.7656,1.999,7.8154,0.9082,10.874
	c2.6553-0.3848,5.1904-4.6104,2.4727-9.959C509.4721,898.4933,513.4331,895.6554,513.6538,892.9298z M478.6479,880.1837h-23.8545
	h-23.8603v0.9707h23.8603h23.8545V880.1837z M508.3178,899.7423c-0.6621,0.706-0.9335,1.7969-0.1074,2.498
	c0.2461,0.1953,7.878,5.9161,8.3828,5.3672c0.4981-0.5428-5.6269-7.8847-5.8349-8.1308
	C510.0268,898.6827,508.98,899.0235,508.3178,899.7423z M488.1411,885.5196c1.3808,0,2.4971-1.9746,2.4971-4.4033
	c0-2.4473-1.1163-4.415-2.4971-4.415c-1.3945,0-2.5234,1.9677-2.5234,4.415C485.6177,883.545,486.7466,885.5196,488.1411,885.5196z
	 M414.3452,887.3478c-0.9522-1.0342-4.1504,3.205-7.9473,5.2988c-3.8222,2.0937-7.7578,1.583-10.6719,0.2832
	c0.2149,2.7256,4.1817,5.5635,9.587,3.1162c-2.7373,5.3486-0.1827,9.5742,2.4541,9.959c-1.0918-3.0586-1.3623-7.1084,0.9267-10.874
	C410.9712,891.379,415.3042,888.3888,414.3452,887.3478z M412.3081,880.1837h-23.8482h-23.854v0.9707h23.854h23.8482V880.1837z
	 M421.7944,885.5196c1.3936,0,2.5166-1.9746,2.5166-4.4033c0-2.4473-1.123-4.415-2.5166-4.415c-1.3818,0-2.5039,1.9677-2.5039,4.415
	C419.2905,883.545,420.4126,885.5196,421.7944,885.5196z M421.2387,908.8937c-0.958,0-1.9238,0.5488-1.8476,1.6406
	c0.0185,0.3154,0.8769,2.9892,1.0781,5.8594c0.209,5.3486,0.0449,6.6543,0.7695,6.6543c0.7325,0,0.5684-1.3057,0.7764-6.6543
	c0.2139-2.8702,1.0469-5.544,1.0781-5.8594C423.1694,909.4425,422.2104,908.8937,421.2387,908.8937z M398.6216,899.4767
	c-0.2149,0.2461-6.3457,7.588-5.8409,8.1308c0.4981,0.549,8.1299-5.1719,8.376-5.3672c0.8389-0.7011,0.5674-1.792-0.0947-2.498
	C400.3999,899.0235,399.3335,898.6827,398.6216,899.4767z M441.977,899.7423c-0.6621,0.706-0.9267,1.7969-0.0937,2.498
	c0.2334,0.1953,7.8711,5.9161,8.376,5.3672c0.498-0.5428-5.626-7.8847-5.8467-8.1308
	C443.6997,898.6827,442.646,899.0235,441.977,899.7423z M423.1948,900.0577c-1.1172-4.2762-0.2783-9.537-1.6719-9.537
	c-1.4004,0-0.5615,5.2608-1.6777,9.537c-1.1104,4.2764-4.1817,6.8496-7.1143,8.1299c2.0938,1.709,6.8369,0.7061,8.792-4.9951
	c1.9551,5.7012,6.6983,6.7041,8.7862,4.9951C427.3764,906.9073,424.311,904.3341,423.1948,900.0577z M447.3198,892.9298
	c-2.9326,1.2998-6.8564,1.8105-10.6787-0.2832c-3.8096-2.0938-6.9883-6.333-7.9473-5.2988c-0.958,1.041,3.375,4.0312,5.6641,7.7832
	c2.2773,3.7656,2.0058,7.8154,0.915,10.874c2.6494-0.3848,5.1905-4.6104,2.46-9.959
	C443.1382,898.4933,447.0991,895.6554,447.3198,892.9298z M345.9741,880.1837h-23.8477h-23.8603v0.9707h23.8603h23.8477V880.1837z
	 M348.0112,887.3478c-0.9521-1.0342-4.1372,3.205-7.9473,5.2988c-3.8095,2.0937-7.7451,1.583-10.665,0.2832
	c0.208,2.7256,4.1689,5.5635,9.5742,3.1162c-2.7187,5.3486-0.1894,9.5742,2.4727,9.959c-1.104-3.0586-1.375-7.1084,0.914-10.874
	C344.6372,891.379,348.9702,888.3888,348.0112,887.3478z M332.2807,899.4767c-0.208,0.2461-6.332,7.588-5.8339,8.1308
	c0.5048,0.549,8.1298-5.1719,8.3823-5.3672c0.8325-0.7011,0.5488-1.792-0.1011-2.498
	C334.0595,899.0235,333.0127,898.6827,332.2807,899.4767z M355.4731,885.5196c1.3809,0,2.5103-1.9746,2.5103-4.4033
	c0-2.4473-1.1294-4.415-2.5103-4.415c-1.3877,0-2.5166,1.9677-2.5166,4.415C352.9565,883.545,354.0854,885.5196,355.4731,885.5196z
	 M375.6562,899.7423c-0.6621,0.706-0.9458,1.7969-0.1069,2.498c0.2456,0.1953,7.8774,5.9161,8.376,5.3672
	c0.5044-0.5428-5.6201-7.8847-5.8345-8.1308C377.372,898.6827,376.312,899.0235,375.6562,899.7423z M380.98,892.9298
	c-2.9205,1.2998-6.8501,1.8105-10.6661-0.2832c-3.8159-2.0938-7.0009-6.333-7.9472-5.2988
	c-0.9585,1.041,3.3745,4.0312,5.6577,7.7832c2.2768,3.7656,2.0058,7.8154,0.9082,10.874c2.6558-0.3848,5.1973-4.6104,2.4726-9.959
	C376.8042,898.4933,380.7651,895.6554,380.98,892.9298z M354.9116,908.8937c-0.9712,0-1.9302,0.5488-1.8604,1.6406
	c0.0313,0.3154,0.8702,2.9892,1.0845,5.8594c0.2085,5.3486,0.0445,6.6543,0.7759,6.6543c0.7314,0,0.5615-1.3057,0.7759-6.6543
	c0.208-2.8702,1.0532-5.544,1.0722-5.8594C356.8291,909.4425,355.8706,908.8937,354.9116,908.8937z M356.8667,900.0577
	c-1.1226-4.2762-0.2837-9.537-1.6778-9.537c-1.3935,0-0.561,5.2608-1.6713,9.537c-1.1226,4.2764-4.188,6.8496-7.1207,8.1299
	c2.1001,1.709,6.8433,0.7061,8.792-4.9951c1.9493,5.7012,6.6924,6.7041,8.7862,4.9951
	C361.0425,906.9073,357.9834,904.3341,356.8667,900.0577z M288.5776,908.8937c-0.9648,0-1.9297,0.5488-1.854,1.6406
	c0.0249,0.3154,0.8701,2.9892,1.0786,5.8594c0.2144,5.3486,0.0376,6.6543,0.7754,6.6543c0.7319,0,0.5615-1.3057,0.7759-6.6543
	c0.2017-2.8702,1.0532-5.544,1.0723-5.8594C290.5078,909.4425,289.5366,908.8937,288.5776,908.8937z M281.6777,887.3478
	c-0.9526-1.0342-4.1377,3.205-7.9473,5.2988c-3.8095,2.0937-7.7456,1.583-10.6655,0.2832c0.208,2.7256,4.169,5.5635,9.5742,3.1162
	c-2.7182,5.3486-0.1826,9.5742,2.4727,9.959c-1.0977-3.0586-1.375-7.1084,0.9145-10.874
	C278.3095,891.379,282.6362,888.3888,281.6777,887.3478z M290.5332,900.0577c-1.1167-4.2762-0.2837-9.537-1.6714-9.537
	c-1.4004,0-0.5679,5.2608-1.6719,9.537c-1.1225,4.2764-4.1943,6.8496-7.1206,8.1299c2.0942,1.709,6.8369,0.7061,8.7925-4.9951
	c1.9487,5.7012,6.6982,6.7041,8.7793,4.9951C294.7148,906.9073,291.6494,904.3341,290.5332,900.0577z M279.6469,880.1837h-23.8544
	h-23.854v0.9707h23.854h23.8544V880.1837z M309.3227,899.7423c-0.6626,0.706-0.9399,1.7969-0.1074,2.498
	c0.2461,0.1953,7.8779,5.9161,8.376,5.3672c0.5049-0.5428-5.6196-7.8847-5.834-8.1308
	C311.0381,898.6827,309.9785,899.0235,309.3227,899.7423z M289.1391,885.5196c1.3814,0,2.5103-1.9746,2.5103-4.4033
	c0-2.4473-1.1289-4.415-2.5103-4.415c-1.3877,0-2.5166,1.9677-2.5166,4.415C286.6225,883.545,287.7514,885.5196,289.1391,885.5196z
	 M314.646,892.9298c-2.9204,1.2998-6.8565,1.8105-10.666-0.2832c-3.8096-2.0938-6.9947-6.333-7.9468-5.2988
	c-0.959,1.041,3.3677,4.0312,5.6577,7.7832c2.2768,3.7656,2.0054,7.8154,0.9082,10.874c2.6553-0.3848,5.1904-4.6104,2.4722-9.959
	C310.4643,898.4933,314.438,895.6554,314.646,892.9298z M265.9536,899.4767c-0.2144,0.2461-6.3389,7.588-5.8408,8.1308
	c0.5049,0.549,8.1367-5.1719,8.3828-5.3672c0.8325-0.7011,0.5547-1.792-0.1074-2.498
	C267.726,899.0235,266.6723,898.6827,265.9536,899.4767z M224.1992,900.0577c-1.1162-4.2762-0.2837-9.537-1.6714-9.537
	c-1.4004,0-0.5615,5.2608-1.6841,9.537c-1.104,4.2764-4.1753,6.8496-7.1084,8.1299c2.0943,1.709,6.8374,0.7061,8.7925-4.9951
	c1.9551,5.7012,6.6982,6.7041,8.7798,4.9951C228.3808,906.9073,225.3159,904.3341,224.1992,900.0577z M222.2441,908.8937
	c-0.9653,0-1.9238,0.5488-1.8545,1.6406c0.0254,0.3154,0.8706,2.9892,1.0786,5.8594c0.2144,5.3486,0.0376,6.6543,0.7759,6.6543
	c0.7315,0,0.5674-1.3057,0.7759-6.6543c0.2017-2.8702,1.0532-5.544,1.0723-5.8594
	C224.1743,909.4425,223.2026,908.8937,222.2441,908.8937z M248.312,892.9298c-2.9204,1.2998-6.856,1.8105-10.6655-0.2832
	c-3.8096-2.0938-6.9947-6.333-7.9473-5.2988c-0.9585,1.041,3.3745,4.0312,5.6577,7.7832c2.2832,3.7656,2.0059,7.8154,0.9082,10.874
	c2.6553-0.3848,5.1909-4.6104,2.4727-9.959C244.1303,898.4933,248.104,895.6554,248.312,892.9298z M215.3437,887.3478
	c-0.9458-1.0342-4.1377,3.205-7.9472,5.2988c-3.816,2.0937-7.7452,1.583-10.6656,0.2832c0.2144,2.7256,4.1753,5.5635,9.5743,3.1162
	c-2.7247,5.3486-0.1827,9.5742,2.4726,9.959c-1.0976-3.0586-1.3686-7.1084,0.9082-10.874
	C211.9634,891.379,216.3022,888.3888,215.3437,887.3478z M222.7993,885.5196c1.3935,0,2.5166-1.9746,2.5166-4.4033
	c0-2.4473-1.1231-4.415-2.5166-4.415c-1.3877,0-2.5108,1.9677-2.5108,4.415C220.2885,883.545,221.4116,885.5196,222.7993,885.5196z
	 M242.9824,899.7423c-0.6558,0.706-0.9336,1.7969-0.1011,2.498c0.2461,0.1953,7.878,5.9161,8.3828,5.3672
	c0.4981-0.5428-5.6264-7.8847-5.8344-8.1308C244.6977,898.6827,243.6509,899.0235,242.9824,899.7423z M213.313,880.1837h-23.8482
	h-23.8603v0.9707h23.8603h23.8482V880.1837z M199.6196,899.4767c-0.2144,0.2461-6.3389,7.588-5.834,8.1308
	c0.4981,0.549,8.1299-5.1719,8.376-5.3672c0.8389-0.7011,0.5547-1.792-0.1074-2.498
	C201.3984,899.0235,200.3388,898.6827,199.6196,899.4767z M156.4653,885.5196c1.3936,0,2.5103-1.9746,2.5103-4.4033
	c0-2.4473-1.1167-4.415-2.5103-4.415c-1.3877,0-2.5039,1.9677-2.5039,4.415C153.9614,883.545,155.0776,885.5196,156.4653,885.5196z
	 M133.2856,899.4767c-0.208,0.2461-6.3388,7.588-5.834,8.1308c0.4981,0.549,8.1299-5.1719,8.376-5.3672
	c0.8389-0.7011,0.5552-1.792-0.1006-2.498C135.0644,899.0235,134.0049,898.6827,133.2856,899.4767z M157.8657,900.0577
	c-1.1167-4.2762-0.2778-9.537-1.6719-9.537c-1.3999,0-0.561,5.2608-1.6777,9.537c-1.1099,4.2764-4.1817,6.8496-7.1143,8.1299
	c2.0938,1.709,6.8369,0.7061,8.792-4.9951c1.9556,5.7012,6.6924,6.7041,8.7862,4.9951
	C162.0473,906.9073,158.9756,904.3341,157.8657,900.0577z M146.979,880.1837h-23.8477v0.9707h23.8477V880.1837z M149.0161,887.3478
	c-0.9522-1.0342-4.1377,3.205-7.9595,5.2988c-3.81,2.0937-7.7329,1.583-10.6655,0.2832c0.2207,2.7256,4.1816,5.5635,9.5869,3.1162
	c-2.7314,5.3486-0.1895,9.5742,2.46,9.959c-1.0913-3.0586-1.3623-7.1084,0.9141-10.874
	C145.6357,891.379,149.9751,888.3888,149.0161,887.3478z M176.6484,899.7423c-0.6621,0.706-0.9331,1.7969-0.0942,2.498
	c0.2456,0.1953,7.8711,5.9161,8.376,5.3672c0.5043-0.5428-5.626-7.8847-5.8472-8.1308
	C178.3642,898.6827,177.3169,899.0235,176.6484,899.7423z M181.9843,892.9298c-2.9262,1.2998-6.8559,1.8105-10.6718-0.2832
	c-3.8096-2.0938-6.9947-6.333-7.9473-5.2988c-0.9585,1.041,3.3745,4.0312,5.6641,7.7832c2.2768,3.7656,1.9931,7.8154,0.9018,10.874
	c2.6621-0.3848,5.1973-4.6104,2.4727-9.959C177.8027,898.4933,181.7636,895.6554,181.9843,892.9298z M155.9165,908.8937
	c-0.9712,0-1.9302,0.5488-1.8609,1.6406c0.0254,0.3154,0.8706,2.9892,1.085,5.8594c0.2085,5.3486,0.0317,6.6543,0.7759,6.6543
	c0.7256,0,0.5615-1.3057,0.7695-6.6543c0.2017-2.8702,1.0596-5.544,1.0786-5.8594
	C157.834,909.4425,156.8755,908.8937,155.9165,908.8937z M106.8901,816.5235c-2.7251,0.208-5.5693,4.2383-3.1162,9.751
	c-5.3545-2.7812-9.5742-0.1768-9.9526,2.5166c3.059-1.1094,7.0957-1.3936,10.8549,0.9336c3.7652,2.3213,6.7549,6.7363,7.7955,5.7715
	c1.041-0.9844-3.2041-4.2266-5.2979-8.1172C105.0732,823.4933,105.5903,819.4942,106.8901,816.5235z M91.6323,851.756
	c1.2871-2.9893,3.8477-6.1241,8.124-7.2471c4.2764-1.1475,9.5493-0.2832,9.5493-1.709c0-1.4258-5.2729-0.5801-9.5493-1.709
	c-4.2763-1.1416-6.8369-4.2578-8.124-7.2469c-1.709,2.125-0.7124,6.9687,4.9893,8.956
	C90.9199,844.7862,89.9233,849.6114,91.6323,851.756z M92.2065,813.5274c-0.5488,0.5108,5.1719,8.2754,5.3862,8.5215
	c0.6939,0.8448,1.7725,0.5801,2.4854-0.1074c0.7251-0.668,1.0596-1.7402,0.2583-2.4785
	C100.0971,819.2481,92.749,812.9981,92.2065,813.5274z M89.2925,844.4024c1.0976,0.0684,1.6337-0.8964,1.6337-1.8867
	c-0.0063-0.9834-0.5424-1.9677-1.6337-1.8984c-0.3282,0.0381-2.9834,0.8955-5.8721,1.1103
	c-5.3423,0.208-6.6416,0.0313-6.6416,0.7881c0,0.7442,1.2993,0.5684,6.6416,0.7764
	C86.3091,843.5187,88.9643,844.3644,89.2925,844.4024z M118.6655,852.3937v24.3076h0.9717v-24.3076H118.6655z M100.0781,863.6388
	c-0.7129-0.668-1.7915-0.9453-2.4854-0.0879c-0.2143,0.2334-5.935,8.0097-5.3862,8.5215c0.5425,0.5107,7.8906-5.7207,8.1299-5.9483
	C101.1377,865.38,100.8032,864.3263,100.0781,863.6388z M118.7094,840.5294c-2.4345,0-4.415,1.1416-4.415,2.5547
	c0,1.4062,1.9805,2.5478,4.415,2.5478c2.4415,0,4.4219-1.1416,4.4219-2.5478C123.1313,841.671,121.1509,840.5294,118.7094,840.5294z
	 M104.6762,855.881c-3.7592,2.3212-7.7959,2.0371-10.8549,0.915c0.3784,2.7061,4.5981,5.2979,9.9526,2.5166
	c-2.4531,5.5059,0.3911,9.5361,3.1162,9.7695c-1.2998-2.9765-1.8169-6.9882,0.2837-10.8799
	c2.0938-3.873,6.3389-7.1269,5.2979-8.0986C111.4311,849.1388,108.4414,853.5538,104.6762,855.881z M83.4204,775.7218
	c2.8887,0.208,5.5439,1.0722,5.8721,1.0908c1.0976,0.0889,1.6337-0.9014,1.6337-1.8857c-0.0063-0.9648-0.5424-1.9551-1.6337-1.8857
	c-0.3282,0.0186-2.9834,0.8828-5.8721,1.1104c-5.3423,0.2138-6.6416,0.0381-6.6416,0.7754
	C76.7788,775.6837,78.0781,775.5069,83.4204,775.7218z M92.2065,745.9386c-0.5488,0.5107,5.1719,8.2881,5.3862,8.5342
	c0.6939,0.8447,1.7725,0.5674,2.4854-0.1016c0.7251-0.668,1.0596-1.7471,0.2583-2.4844
	C100.0971,751.6779,92.749,745.4279,92.2065,745.9386z M100.0781,796.0694c-0.7129-0.6875-1.7915-0.9531-2.4854-0.1074
	c-0.2143,0.2461-5.935,8.0293-5.3862,8.5331c0.5425,0.5117,7.8906-5.7334,8.1299-5.9471
	C101.1377,797.8097,100.8032,796.7374,100.0781,796.0694z M118.7094,778.0616c2.4415,0,4.4219-1.1474,4.4219-2.5732
	c0-1.4063-1.9804-2.5479-4.4219-2.5479c-2.4345,0-4.415,1.1416-4.415,2.5479C114.2944,776.9142,116.2749,778.0616,118.7094,778.0616
	z M118.6655,809.1124v24.3086h0.9717v-24.3086v-24.3076h-0.9717V809.1124z M99.7563,776.9327
	c4.2764-1.1415,9.5493-0.2959,9.5493-1.7217c0-1.413-5.2729-0.5683-9.5493-1.7089c-4.2763-1.1299-6.8369-4.2579-8.124-7.2344
	c-1.709,2.1308-0.7124,6.9502,4.9893,8.9433c-5.7017,2.0059-6.6983,6.8311-4.9893,8.9561
	C92.9194,781.1778,95.48,778.0616,99.7563,776.9327z M104.6762,788.2862c-3.7592,2.3272-7.7959,2.043-10.8549,0.9327
	c0.3784,2.6933,4.5981,5.2988,9.9526,2.5175c-2.4531,5.5117,0.3911,9.543,3.1162,9.7696
	c-1.2998-2.9893-1.8169-6.9883,0.2837-10.8799c2.0938-3.8858,6.3389-7.128,5.2979-8.0928
	C111.4311,781.5431,108.4414,785.9649,104.6762,788.2862z M106.8901,748.9279c-2.7251,0.2344-5.5693,4.2646-3.1162,9.7705
	c-5.3545-2.7812-9.5742-0.1953-9.9526,2.5166c3.059-1.1104,7.0957-1.3877,10.8549,0.9141c3.7652,2.3408,6.7549,6.7432,7.7955,5.7783
	c1.041-0.9717-3.2041-4.207-5.2979-8.0986C105.0732,755.9171,105.5903,751.9054,106.8901,748.9279z M83.4204,708.1456
	c2.8887,0.2139,5.5439,1.0723,5.8721,1.0908c1.0976,0.0694,1.6337-0.8955,1.6337-1.8789c-0.0063-0.9902-0.5424-1.9745-1.6337-1.9053
	c-0.3282,0.0381-2.9834,0.9014-5.8721,1.1104c-5.3423,0.2139-6.6416,0.0371-6.6416,0.7949
	C76.7788,708.0948,78.0781,707.9181,83.4204,708.1456z M104.6762,720.7159c-3.7592,2.3214-7.7959,2.0371-10.8549,0.9337
	c0.3784,2.6934,4.5981,5.2793,9.9526,2.5166c-2.4531,5.4872,0.3911,9.5361,3.1162,9.751
	c-1.2998-2.9775-1.8169-6.9697,0.2837-10.8799c2.0938-3.873,6.3389-7.1084,5.2979-8.0986
	C111.4311,713.9737,108.4414,718.3888,104.6762,720.7159z M106.8901,681.3585c-2.7251,0.208-5.5693,4.2568-3.1162,9.7695
	c-5.3545-2.7812-9.5742-0.1953-9.9526,2.4981c3.059-1.1104,7.0957-1.3936,10.8549,0.9336c3.7652,2.3213,6.7549,6.7422,7.7955,5.7705
	c1.041-0.9834-3.2041-4.2256-5.2979-8.0977C105.0732,688.3468,105.5903,684.3292,106.8901,681.3585z M99.7563,709.3438
	c4.2764-1.1289,9.5493-0.2841,9.5493-1.7089c0-1.4258-5.2729-0.5616-9.5493-1.7032c-4.2763-1.1289-6.8369-4.2636-8.124-7.2539
	c-1.709,2.126-0.7124,6.9698,4.9893,8.9571c-5.7017,1.9931-6.6983,6.83-4.9893,8.9619
	C92.9194,713.6017,95.48,710.4855,99.7563,709.3438z M118.7094,710.4855c2.4415,0,4.4219-1.1417,4.4219-2.5674
	c0-1.4063-1.9804-2.5547-4.4219-2.5547c-2.4345,0-4.415,1.1484-4.415,2.5547C114.2944,709.3438,116.2749,710.4855,118.7094,710.4855
	z M100.0781,728.4737c-0.7129-0.6689-1.7915-0.9463-2.4854-0.0879c-0.2143,0.2334-5.935,8.0098-5.3862,8.5205
	c0.5425,0.5118,7.8906-5.7207,8.1299-5.9287C101.1377,730.2403,100.8032,729.1612,100.0781,728.4737z M92.2065,678.3624
	c-0.5488,0.5107,5.1719,8.2754,5.3862,8.5215c0.6939,0.8642,1.7725,0.5801,2.4854-0.0889c0.7251-0.6875,1.0596-1.7597,0.2583-2.498
	C100.0971,684.0831,92.749,677.839,92.2065,678.3624z M118.6655,741.5362v24.3086h0.9717v-24.3086v-24.3086h-0.9717V741.5362z
	 M99.7563,641.7677c4.2764-1.1416,9.5493-0.2969,9.5493-1.7031c0-1.4258-5.2729-0.5674-9.5493-1.709
	c-4.2763-1.1416-6.8369-4.2578-8.124-7.2539c-1.709,2.1318-0.7124,6.957,4.9893,8.963c-5.7017,1.9863-6.6983,6.8115-4.9893,8.9375
	C92.9194,646.0313,95.48,642.8966,99.7563,641.7677z M100.0781,660.9034c-0.7129-0.6678-1.7915-0.9521-2.4854-0.1064
	c-0.2143,0.2461-5.935,8.0293-5.3862,8.54c0.5425,0.5107,7.8906-5.7207,8.1299-5.9541
	C101.1377,662.6446,100.8032,661.5724,100.0781,660.9034z M92.2065,610.7735c-0.5488,0.5108,5.1719,8.2871,5.3862,8.5401
	c0.6939,0.8388,1.7725,0.5615,2.4854-0.1074c0.7251-0.669,1.0596-1.7413,0.2583-2.4854
	C100.0971,616.5128,92.749,610.2628,92.2065,610.7735z M83.4204,640.5567c2.8887,0.208,5.5439,1.0723,5.8721,1.0909
	c1.0976,0.0888,1.6337-0.8954,1.6337-1.8672c-0.0063-0.9834-0.5424-1.9678-1.6337-1.8985
	c-0.3282,0.0196-2.9834,0.8955-5.8721,1.1104c-5.3423,0.208-6.6416,0.0312-6.6416,0.7881
	C76.7788,640.5187,78.0781,640.3419,83.4204,640.5567z M104.6762,653.1202c-3.7592,2.3467-7.7959,2.0439-10.8549,0.9336
	c0.3784,2.7119,4.5981,5.2979,9.9526,2.5166c-2.4531,5.5127,0.3911,9.543,3.1162,9.7704c-1.2998-2.9902-1.8169-6.9892,0.2837-10.874
	c2.0938-3.8916,6.3389-7.1338,5.2979-8.0986C111.4311,646.3849,108.4414,650.7999,104.6762,653.1202z M118.6655,673.9474v24.3086
	h0.9717v-24.3086v-24.3086h-0.9717V673.9474z M106.8901,613.7823c-2.7251,0.2139-5.5693,4.2442-3.1162,9.751
	c-5.3545-2.7627-9.5742-0.1895-9.9526,2.5166c3.059-1.1045,7.0957-1.3877,10.8549,0.9336c3.7652,2.3271,6.7549,6.7422,7.7955,5.7578
	c1.041-0.9707-3.2041-4.206-5.2979-8.0986C105.0732,620.7706,105.5903,616.7589,106.8901,613.7823z M118.7094,642.8966
	c2.4415,0,4.4219-1.1416,4.4219-2.5547c0-1.4258-1.9804-2.5674-4.4219-2.5674c-2.4345,0-4.415,1.1416-4.415,2.5674
	C114.2944,641.755,116.2749,642.8966,118.7094,642.8966z M104.6762,585.5509c-3.7592,2.3203-7.7959,2.0429-10.8549,0.9336
	c0.3784,2.7119,4.5981,5.2978,9.9526,2.5156c-2.4531,5.4941,0.3911,9.543,3.1162,9.752c-1.2998-2.9776-1.8169-6.9698,0.2837-10.8615
	c2.0938-3.8916,6.3389-7.1269,5.2979-8.1113C111.4311,578.8077,108.4414,583.2296,104.6762,585.5509z M100.0781,593.3146
	c-0.7129-0.668-1.7915-0.9522-2.4854-0.088c-0.2143,0.2462-5.935,8.0224-5.3862,8.5146c0.5425,0.5303,7.8906-5.7207,8.1299-5.9287
	C101.1377,595.0743,100.8032,594.0021,100.0781,593.3146z M83.4204,572.9806c2.8887,0.2138,5.5439,1.0781,5.8721,1.0908
	c1.0976,0.0752,1.6337-0.8955,1.6337-1.8799c-0.0063-0.9834-0.5424-1.9736-1.6337-1.8857
	c-0.3282,0.0186-2.9834,0.8828-5.8721,1.0908c-5.3423,0.2148-6.6416,0.0566-6.6416,0.7949
	C76.7788,572.9298,78.0781,572.753,83.4204,572.9806z M106.8901,546.1935c-2.7251,0.2264-5.5693,4.2568-3.1162,9.7695
	c-5.3545-2.7813-9.5742-0.1953-9.9526,2.498c3.059-1.1103,7.0957-1.3877,10.8549,0.9522c3.7652,2.3017,6.7549,6.7236,7.7955,5.7519
	c1.041-0.9834-3.2041-4.2197-5.2979-8.0918C105.0732,553.1817,105.5903,549.17,106.8901,546.1935z M92.2065,543.2032
	c-0.5488,0.5049,5.1719,8.2881,5.3862,8.5342c0.6939,0.8447,1.7725,0.5615,2.4854-0.1074c0.7251-0.6875,1.0596-1.7598,0.2583-2.4785
	C100.0971,548.9239,92.749,542.6925,92.2065,543.2032z M99.7563,574.1788c4.2764-1.123,9.5493-0.2783,9.5493-1.71
	c0-1.4062-5.2729-0.5605-9.5493-1.7031c-4.2763-1.1288-6.8369-4.2635-8.124-7.2529c-1.709,2.1445-0.7124,6.9697,4.9893,8.956
	c-5.7017,1.9932-6.6983,6.8311-4.9893,8.9629C92.9194,578.4552,95.48,575.3263,99.7563,574.1788z M118.7094,575.3263
	c2.4415,0,4.4219-1.1475,4.4219-2.5733c0-1.4062-1.9804-2.5547-4.4219-2.5547c-2.4345,0-4.415,1.1485-4.415,2.5547
	C114.2944,574.1788,116.2749,575.3263,118.7094,575.3263z M118.6655,606.3712v24.3076h0.9717v-24.3076v-24.3086h-0.9717V606.3712z
	 M100.0781,525.7384c-0.7129-0.669-1.7915-0.9522-2.4854-0.1074c-0.2143,0.2529-5.935,8.0293-5.3862,8.54
	c0.5425,0.5107,7.8906-5.7207,8.1299-5.9473C101.1377,527.4981,100.8032,526.4073,100.0781,525.7384z M99.7563,506.5958
	c4.2764-1.1353,9.5493-0.2773,9.5493-1.6968c0-1.4253-5.2729-0.5737-9.5493-1.7094c-4.2763-1.1416-6.8369-4.2637-8.124-7.2471
	c-1.709,2.126-0.7124,6.957,4.9893,8.9565c-5.7017,1.9868-6.6983,6.812-4.9893,8.9439
	C92.9194,510.8653,95.48,507.7306,99.7563,506.5958z M83.4204,505.3912c2.8887,0.2144,5.5439,1.0845,5.8721,1.104
	c1.0976,0.0752,1.6337-0.9087,1.6337-1.8862c-0.0063-0.9776-0.5424-1.9614-1.6337-1.8858
	c-0.3282,0.0191-2.9834,0.8892-5.8721,1.1036c-5.3423,0.2085-6.6416,0.0317-6.6416,0.7822
	C76.7788,505.3595,78.0781,505.1827,83.4204,505.3912z M104.6762,517.9737c-3.7592,2.3282-7.7959,2.0254-10.8549,0.9209
	c0.3784,2.7061,4.5981,5.299,9.9526,2.5166c-2.4531,5.5069,0.3911,9.5371,3.1162,9.7705
	c-1.2998-2.9775-1.8169-6.9882,0.2837-10.8613c2.0938-3.8916,6.3389-7.1465,5.2979-8.1172
	C111.4311,511.2257,108.4414,515.6339,104.6762,517.9737z M92.2065,475.608c-0.5488,0.5112,5.1719,8.2944,5.3862,8.54
	c0.6939,0.8453,1.7725,0.5679,2.4854-0.1069c0.7251-0.6689,1.0596-1.7412,0.2583-2.479
	C100.0971,481.3478,92.749,475.0973,92.2065,475.608z M118.7094,507.7306c2.4415,0,4.4219-1.1407,4.4219-2.5479
	c0-1.4189-1.9804-2.5605-4.4219-2.5605c-2.4345,0-4.415,1.1416-4.415,2.5605C114.2944,506.5899,116.2749,507.7306,118.7094,507.7306
	z M106.8901,478.6105c-2.7251,0.2207-5.5693,4.2573-3.1162,9.7636c-5.3545-2.7817-9.5742-0.1958-9.9526,2.5166
	c3.059-1.1103,7.0957-1.394,10.8549,0.9336c3.7652,2.3208,6.7549,6.7359,7.7955,5.752c1.041-0.9649-3.2041-4.2071-5.2979-8.0987
	C105.0732,485.5924,105.5903,481.5938,106.8901,478.6105z M118.6655,538.7823v24.3076h0.9717v-24.3076v-24.29h-0.9717V538.7823z
	 M99.7563,439.0133c4.2764-1.1353,9.5493-0.2778,9.5493-1.7031c0-1.4195-5.2729-0.5679-9.5493-1.7095
	c-4.2763-1.1289-6.8369-4.2573-8.124-7.2407c-1.709,2.1381-0.7124,6.957,4.9893,8.9502c-5.7017,1.9868-6.6983,6.8305-4.9893,8.9565
	C92.9194,443.2833,95.48,440.1612,99.7563,439.0133z M83.4204,437.8209c2.8887,0.2085,5.5439,1.0723,5.8721,1.0913
	c1.0976,0.0757,1.6337-0.9018,1.6337-1.8857c-0.0063-0.9844-0.5424-1.9619-1.6337-1.8858
	c-0.3282,0.0313-2.9834,0.8828-5.8721,1.0908c-5.3423,0.2207-6.6416,0.0567-6.6416,0.795
	C76.7788,437.777,78.0781,437.6065,83.4204,437.8209z M104.6762,450.3854c-3.7592,2.3271-7.7959,2.0434-10.8549,0.9331
	c0.3784,2.6997,4.5981,5.2793,9.9526,2.5166c-2.4531,5.5,0.3911,9.5429,3.1162,9.7514c-1.2998-2.9712-1.8169-6.976,0.2837-10.8613
	c2.0938-3.8853,6.3389-7.1274,5.2979-8.105C111.4311,443.6427,108.4414,448.0641,104.6762,450.3854z M106.8901,411.0274
	c-2.7251,0.2276-5.5693,4.2637-3.1162,9.7706c-5.3545-2.7818-9.5742-0.1958-9.9526,2.5097
	c3.059-1.1162,7.0957-1.3999,10.8549,0.9336c3.7652,2.3213,6.7549,6.73,7.7955,5.7651c1.041-0.978-3.2041-4.226-5.2979-8.1113
	C105.0732,418.0162,105.5903,414.005,106.8901,411.0274z M92.2065,408.0382c-0.5488,0.5107,5.1719,8.2876,5.3862,8.5337
	c0.6939,0.8452,1.7725,0.5674,2.4854-0.1011c0.7251-0.6811,1.0596-1.7534,0.2583-2.4849
	C100.0971,413.7589,92.749,407.527,92.2065,408.0382z M118.6655,471.212v24.3081h0.9717V471.212v-24.3086h-0.9717V471.212z
	 M100.0781,458.1559c-0.7129-0.6748-1.7915-0.9463-2.4854-0.0948c-0.2143,0.2461-5.935,8.0293-5.3862,8.5274
	c0.5425,0.5112,7.8906-5.7271,8.1299-5.9414C101.1377,459.9093,100.8032,458.837,100.0781,458.1559z M118.7094,440.1612
	c2.4415,0,4.4219-1.1543,4.4219-2.561c0-1.4189-1.9804-2.5605-4.4219-2.5605c-2.4345,0-4.415,1.1416-4.415,2.5605
	C114.2944,439.0069,116.2749,440.1612,118.7094,440.1612z M83.4204,370.2257c2.8887,0.2207,5.5439,1.0849,5.8721,1.1103
	c1.0976,0.0694,1.6337-0.9082,1.6337-1.8798c-0.0063-0.9903-0.5424-1.9742-1.6337-1.8921
	c-0.3282,0.0254-2.9834,0.8891-5.8721,1.0976c-5.3423,0.208-6.6416,0.0376-6.6416,0.7945
	C76.7788,370.1944,78.0781,370.0177,83.4204,370.2257z M100.0781,390.5733c-0.7129-0.6689-1.7915-0.9462-2.4854-0.0947
	c-0.2143,0.2461-5.935,8.0166-5.3862,8.5274c0.5425,0.5107,7.8906-5.7207,8.1299-5.9478
	C101.1377,392.3263,100.8032,391.254,100.0781,390.5733z M118.7094,372.5724c2.4415,0,4.4219-1.1485,4.4219-2.5547
	c0-1.4068-1.9804-2.5606-4.4219-2.5606c-2.4345,0-4.415,1.1538-4.415,2.5606C114.2944,371.4239,116.2749,372.5724,118.7094,372.5724
	z M104.6762,382.815c-3.7592,2.315-7.7959,2.0376-10.8549,0.9146c0.3784,2.7124,4.5981,5.2983,9.9526,2.5166
	c-2.4531,5.5063,0.3911,9.5366,3.1162,9.77c-1.2998-2.977-1.8169-6.9883,0.2837-10.8735c2.0938-3.8789,6.3389-7.1275,5.2979-8.105
	C111.4311,376.0724,108.4414,380.4815,104.6762,382.815z M106.8901,343.4576c-2.7251,0.208-5.5693,4.251-3.1162,9.751
	c-5.3545-2.7749-9.5742-0.1763-9.9526,2.5166c3.059-1.1099,7.0957-1.394,10.8549,0.9336c3.7652,2.3208,6.7549,6.7427,7.7955,5.7651
	c1.041-0.978-3.2041-4.2197-5.2979-8.105C105.0732,350.4337,105.5903,346.4283,106.8901,343.4576z M99.7563,371.4366
	c4.2764-1.1352,9.5493-0.2773,9.5493-1.7031c0-1.4253-5.2729-0.5674-9.5493-1.7026c-4.2763-1.148-6.8369-4.2637-8.124-7.2535
	c-1.709,2.1255-0.7124,6.9698,4.9893,8.9561c-5.7017,1.9932-6.6983,6.8247-4.9893,8.9502
	C92.9194,375.7003,95.48,372.5724,99.7563,371.4366z M118.6655,403.629v24.2959h0.9717V403.629v-24.3018h-0.9717V403.629z
	 M92.2065,340.4552c-0.5488,0.5107,5.1719,8.2817,5.3862,8.5273c0.6939,0.8516,1.7725,0.5806,2.4854-0.1069
	c0.7251-0.6685,1.0596-1.7407,0.2583-2.479C100.0971,346.1822,92.749,339.9381,92.2065,340.4552z M83.4204,302.6559
	c2.8887,0.208,5.5439,1.0722,5.8721,1.0971c1.0976,0.0821,1.6337-0.9018,1.6337-1.8921c-0.0063-0.9775-0.5424-1.9487-1.6337-1.8794
	c-0.3282,0.0254-2.9834,0.8765-5.8721,1.0972c-5.3423,0.2144-6.6416,0.0444-6.6416,0.7822
	C76.7788,302.6178,78.0781,302.4415,83.4204,302.6559z M106.8901,275.8624c-2.7251,0.2334-5.5693,4.2637-3.1162,9.77
	c-5.3545-2.7817-9.5742-0.1894-9.9526,2.5166c3.059-1.1167,7.0957-1.4004,10.8549,0.9273c3.7652,2.3335,6.7549,6.7295,7.7955,5.7646
	c1.041-0.9712-3.2041-4.2197-5.2979-8.0986C105.0732,282.8507,105.5903,278.8458,106.8901,275.8624z M100.0781,323.003
	c-0.7129-0.6811-1.7915-0.9521-2.4854-0.1074c-0.2143,0.2461-5.935,8.0293-5.3862,8.54c0.5425,0.5113,7.8906-5.7392,8.1299-5.9541
	C101.1377,324.7438,100.8032,323.6715,100.0781,323.003z M99.7563,303.8605c4.2764-1.1353,9.5493-0.2901,9.5493-1.7095
	c0-1.4126-5.2729-0.5674-9.5493-1.7027c-4.2763-1.1357-6.8369-4.2705-8.124-7.2534c-1.709,2.1382-0.7124,6.9634,4.9893,8.9561
	c-5.7017,1.9931-6.6983,6.8247-4.9893,8.9502C92.9194,308.1178,95.48,304.9957,99.7563,303.8605z M104.6762,315.2198
	c-3.7592,2.3272-7.7959,2.0562-10.8549,0.9336c0.3784,2.7056,4.5981,5.292,9.9526,2.5166c-2.4531,5.5064,0.3911,9.543,3.1162,9.7637
	c-1.2998-2.9834-1.8169-6.9883,0.2837-10.8677c2.0938-3.8852,6.3389-7.1333,5.2979-8.0981
	C111.4311,308.4898,108.4414,312.8985,104.6762,315.2198z M118.7094,304.9957c2.4415,0,4.4219-1.1416,4.4219-2.561
	c0-1.419-1.9804-2.5606-4.4219-2.5606c-2.4345,0-4.415,1.1416-4.415,2.5606C114.2944,303.8541,116.2749,304.9957,118.7094,304.9957z
	 M118.6655,336.0465v24.3081h0.9717v-24.3081v-24.3023h-0.9717V336.0465z M92.2065,272.8727
	c-0.5488,0.5107,5.1719,8.2876,5.3862,8.54c0.6939,0.8389,1.7725,0.5615,2.4854-0.1069c0.7251-0.669,1.0596-1.7471,0.2583-2.4854
	C100.0971,278.5997,92.749,272.3619,92.2065,272.8727z M104.6762,247.6495c-3.7592,2.3213-7.7959,2.044-10.8549,0.9336
	c0.3784,2.6934,4.5981,5.2793,9.9526,2.5107c-2.4531,5.4996,0.3911,9.5362,3.1162,9.7569
	c-1.2998-2.9766-1.8169-6.9883,0.2837-10.8672c2.0938-3.8853,6.3389-7.1211,5.2979-8.105
	C111.4311,240.9073,108.4414,245.3287,104.6762,247.6495z M106.8901,208.2921c-2.7251,0.2207-5.5693,4.2578-3.1162,9.7578
	c-5.3545-2.769-9.5742-0.1831-9.9526,2.5166c3.059-1.1167,7.0957-1.394,10.8549,0.9268c3.7652,2.3339,6.7549,6.7426,7.7955,5.7651
	c1.041-0.978-3.2041-4.2134-5.2979-8.0986C105.0732,215.2809,105.5903,211.2691,106.8901,208.2921z M99.7563,236.2774
	c4.2764-1.1347,9.5493-0.2773,9.5493-1.7089c0-1.4253-5.2729-0.5616-9.5493-1.7032c-4.2763-1.1352-6.8369-4.2636-8.124-7.247
	c-1.709,2.1259-0.7124,6.9633,4.9893,8.9502c-5.7017,1.9931-6.6983,6.8242-4.9893,8.9628
	C92.9194,240.5416,95.48,237.4132,99.7563,236.2774z M100.0781,255.4205c-0.7129-0.6753-1.7915-0.959-2.4854-0.1074
	c-0.2143,0.2461-5.935,8.0166-5.3862,8.54c0.5425,0.5113,7.8906-5.7334,8.1299-5.9477
	C101.1377,257.1739,100.8032,256.0953,100.0781,255.4205z M118.6655,268.4703v24.3018h0.9717v-24.3018v-24.3086h-0.9717V268.4703z
	 M92.2065,205.2901c-0.5488,0.5108,5.1719,8.294,5.3862,8.5274c0.6939,0.8579,1.7725,0.5801,2.4854-0.0884
	c0.7251-0.6875,1.0596-1.7598,0.2583-2.4912C100.0971,211.0235,92.749,204.7794,92.2065,205.2901z M118.7094,237.4132
	c2.4415,0,4.4219-1.1416,4.4219-2.561c0-1.4063-1.9804-2.5542-4.4219-2.5542c-2.4345,0-4.415,1.1479-4.415,2.5542
	C114.2944,236.2716,116.2749,237.4132,118.7094,237.4132z M83.4204,235.0733c2.8887,0.2207,5.5439,1.0845,5.8721,1.0972
	c1.0976,0.0757,1.6337-0.9018,1.6337-1.8794c-0.0063-0.9844-0.5424-1.9746-1.6337-1.8926
	c-0.3282,0.0254-2.9834,0.8897-5.8721,1.0977c-5.3423,0.2143-6.6416,0.0439-6.6416,0.7949
	C76.7788,235.0289,78.0781,234.8648,83.4204,235.0733z M104.6762,180.0606c-3.7592,2.3277-7.7959,2.0499-10.8549,0.9336
	c0.3784,2.7061,4.5981,5.2984,9.9526,2.5166c-2.4531,5.5064,0.3911,9.5367,3.1162,9.7574
	c-1.2998-2.9771-1.8169-6.9756,0.2837-10.8672c2.0938-3.8853,6.3389-7.1275,5.2979-8.0987
	C111.4311,173.3248,108.4414,177.7335,104.6762,180.0606z M118.7094,169.8302c2.4415,0,4.4219-1.1416,4.4219-2.5479
	c0-1.4189-1.9804-2.5605-4.4219-2.5605c-2.4345,0-4.415,1.1416-4.415,2.5605C114.2944,168.6886,116.2749,169.8302,118.7094,169.8302
	z M106.8901,140.7096c-2.7251,0.2207-5.5693,4.2509-3.1162,9.7636c-5.3545-2.7817-9.5742-0.1953-9.9526,2.5166
	c3.059-1.1225,7.0957-1.394,10.8549,0.9273c3.7652,2.3271,6.7549,6.7422,7.7955,5.7588c1.041-0.9654-3.2041-4.2134-5.2979-8.0987
	C105.0732,147.6915,105.5903,143.693,106.8901,140.7096z M119.6372,157.6192v-24.3081h-0.9717v24.3081H119.6372z M118.6655,200.881
	v24.3086h0.9717V200.881v-24.2955h-0.9717V200.881z M99.7563,168.6949c4.2764-1.1352,9.5493-0.29,9.5493-1.6968
	c0-1.4252-5.2729-0.58-9.5493-1.7089c-4.2763-1.1416-6.8369-4.2637-8.124-7.2471c-1.709,2.1255-0.7124,6.957,4.9893,8.956
	c-5.7017,1.9805-6.6983,6.8121-4.9893,8.9439C92.9194,172.9591,95.48,169.8302,99.7563,168.6949z M83.4204,167.4903
	c2.8887,0.2144,5.5439,1.0723,5.8721,1.104c1.0976,0.0757,1.6337-0.9087,1.6337-1.8862c-0.0063-0.9839-0.5424-1.9614-1.6337-1.8921
	c-0.3282,0.0254-2.9834,0.896-5.8721,1.1099c-5.3423,0.2085-6.6416,0.0317-6.6416,0.7822
	C76.7788,167.4591,78.0781,167.2823,83.4204,167.4903z M100.0781,187.838c-0.7129-0.669-1.7915-0.9526-2.4854-0.1074
	c-0.2143,0.2461-5.935,8.0293-5.3862,8.54c0.5425,0.5107,7.8906-5.727,8.1299-5.9477
	C101.1377,189.5782,100.8032,188.5064,100.0781,187.838z M97.5927,146.2472c0.6939,0.8457,1.7725,0.5678,2.4854-0.107
	c0.7251-0.6684,1.0596-1.7407,0.2583-2.479c-0.2393-0.2143-7.5874-6.4648-8.1299-5.9541
	C91.6577,138.2184,97.3784,146.0016,97.5927,146.2472z M692.6675,95.3854c3.7783-2.731,4.8056-5.1402,4.749-5.6954
	c-2.1133,0.5484-2.0371,0.5928-5.708,4.7427c-2.9639,3.3306-6.2881,4.9893-9.8516,5.8218c-0.499,3.9673-1.1357,5.8975-1.1924,6.1748
	c1.5078-0.353,1.4698-0.498,6.1817-1.1982C687.6723,101.6798,689.3432,98.3497,692.6675,95.3854z M667.438,121.567
	c5.9287-6.7676,11.5107-9.3789,15.9004-9.2593c5.2734,1.249,4.9638,2.9834,6.4082,4.8692c0.4863-0.8389,1.3125-4.9888-2.8438-7.3667
	c-4.1504-2.378-10.0918,0.4731-10.0918,0.4731s2.8447-5.9287,0.4727-10.0854c-2.3653-4.1626-6.5284-3.3238-7.3672-2.8511
	c0.1269,0.3027,4.6933,1.8291,4.8691,6.4082c0.1328,4.4028-2.4785,9.9785-9.2588,15.9136
	c-0.6113,1.7026-0.6113,1.7026-0.6113,1.7026c0.2589,0.5488,0.2589,0.5488,0.2589,0.5488
	C665.9751,121.794,665.9302,121.8067,667.438,121.567z M660.355,130.5738c1.8798-1.8862,2.5478-4.27,1.5009-5.3296
	c-1.0654-1.0537-3.4375-0.3847-5.3232,1.501c-1.8916,1.8921-2.5674,4.2764-1.501,5.3296
	C656.0786,133.1344,658.4692,132.4659,660.355,130.5738z M692.6606,914.6144c-3.3232-2.9766-4.9883-6.3008-5.8281-9.8584
	c-3.9482-0.4913-5.8838-1.1407-6.168-1.1788c0.3535,1.501,0.5049,1.4629,1.1924,6.1807c3.5635,0.8262,6.8877,2.4785,9.8516,5.8096
	c2.7373,3.7842,5.1406,4.8056,5.6953,4.749C696.8677,918.2032,696.8178,918.2794,692.6606,914.6144z M686.9028,900.1837
	c4.1494-2.3594,3.3301-6.5156,2.8438-7.3604c-0.2959,0.126-1.8291,4.6866-6.4082,4.875c-4.3897,0.126-9.9717-2.497-15.9004-9.2587
	c-1.7159-0.6309-1.7159-0.6309-1.7159-0.6309c-0.5546,0.2773-0.5546,0.2773-0.5546,0.2773c0.1386,0.795,0.1328,0.7442,0.3593,2.2579
	c6.7803,5.9296,9.3858,11.5117,9.2588,15.8945c-1.248,5.2793-2.9824,4.9765-4.8691,6.4209
	c0.8388,0.4795,4.9961,1.3056,7.3672-2.8506c2.372-4.1504-0.4727-10.1045-0.4727-10.1045S682.7524,902.5548,686.9028,900.1837z
	 M655.0317,877.9317c-1.0664,1.0596-0.3906,3.4307,1.4951,5.3164c1.8789,1.8985,4.2637,2.5674,5.3233,1.5137
	c1.0527-1.0527,0.3847-3.4492-1.4951-5.3359C658.4692,877.547,656.0786,876.878,655.0317,877.9317z M84.2593,914.6144
	c-3.7969,2.7314-4.8189,5.1406-4.7559,5.7021c2.1133-0.543,2.0312-0.5996,5.7021-4.749c2.9707-3.3311,6.2945-4.9834,9.8584-5.8281
	c0.4917-3.961,1.1348-5.8975,1.1792-6.1622c-1.4946,0.3526-1.4633,0.4913-6.1684,1.1788
	C89.2358,908.3136,87.5766,911.6378,84.2593,914.6144z M109.4887,888.4396c-5.9419,6.7617-11.5175,9.3661-15.9135,9.2587
	c-5.273-1.2675-4.9639-2.9892-6.4146-4.875c-0.4731,0.8448-1.2993,4.9825,2.8511,7.3604
	c4.1562,2.3711,10.0976-0.4795,10.0976-0.4795s-2.8505,5.9541-0.479,10.1045c2.378,4.1562,6.5342,3.3301,7.3604,2.8506
	c-0.1133-0.2959-4.6865-1.8477-4.8691-6.4209c-0.1133-4.3828,2.4912-9.9649,9.2656-15.8945
	c0.6181-1.7276,0.6181-1.7276,0.6181-1.7276c-0.2651-0.543-0.2651-0.543-0.2651-0.543
	C110.9389,888.212,110.9961,888.1935,109.4887,888.4396z M116.5654,879.4259c-1.8862,1.8867-2.561,4.2832-1.4951,5.3174
	c1.0473,1.0722,3.4375,0.3916,5.3237-1.4952c1.8794-1.8857,2.5606-4.2568,1.4946-5.3164
	C120.8413,876.878,118.4575,877.547,116.5654,879.4259z M84.2593,95.379c3.3242,2.9707,4.9892,6.3008,5.8154,9.8521
	c3.9673,0.5107,5.8974,1.1479,6.1748,1.1982c-0.3467-1.501-0.4981-1.4692-1.1856-6.1748c-3.5639-0.8325-6.8877-2.5039-9.8584-5.8218
	c-2.7251-3.7905-5.1406-4.8125-5.6958-4.749C80.0522,91.7965,80.103,91.7145,84.2593,95.379z M90.0117,109.8102
	c-4.1504,2.3779-3.3242,6.5278-2.8447,7.3608c0.3027-0.1201,1.8354-4.6865,6.4082-4.8633c4.396-0.1196,9.9716,2.4854,15.9135,9.2593
	c1.709,0.6182,1.709,0.6182,1.709,0.6182c0.5425-0.2652,0.5425-0.2652,0.5425-0.2652c-0.1196-0.8008-0.1138-0.7505-0.353-2.2514
	c-6.7681-5.9351-9.3789-11.5108-9.2529-15.9136c1.249-5.2725,2.9833-4.9639,4.8627-6.4141
	c-0.8325-0.4668-4.9887-1.3056-7.3667,2.8506c-2.3715,4.1504,0.479,10.0918,0.479,10.0918S94.1679,107.4322,90.0117,109.8102z
	 M121.895,132.0748c1.0596-1.0532,0.3784-3.4375-1.501-5.3296c-1.8862-1.8857-4.2705-2.5547-5.3237-1.501
	c-1.0596,1.0596-0.3911,3.4375,1.4951,5.3296C118.4575,132.4659,120.8413,133.1344,121.895,132.0748z"/>
<g id="spookies-stamp-design">
	<path fill="#F3E6D1" d="M608.9634,488.8976c-12.5645-1.3877-24.1954-12.6651-42.3282-4.2954
		c-38.33,17.6918-53.0195,8.559-53.9531-17.2125c-0.334-9.3286,3.4688-21.6215,6.5156-36.8916
		c4.1875-20.9277-1.3935-25.122-12.5576-29.3095c-11.082-4.1504-34.9238,1.4443-44.2021,27.7265
		c-8.3692,23.709-6.3008,39.856-17.6729,33.8262c-9.8389-5.2163-24.831-19.7549-29.2275-24.1064
		c-0.3594,0.6367,1.0595-6.8438,2.1816-8.5972c1.3565-2.0938,9.1836,2.3779,10.4141,2.9204
		c15.0429,6.585,24.1562-2.876,27.247-7.0391c24.4405-32.8984,18.9034-42.8955,21.1485-47.9287
		c2.7754-6.2509,1.9551-19.54-1.8858-22.082c-0.5048-0.3345-6.124,3.4878-6.2695,3.084c-0.126,0.1455-0.2588,0.3027-0.4101,0.4922
		c-3.3487,4.2636-8.5401,3.9297-15.7491,3.4565l-0.9267-0.0698c-25.0274,1.0283-19.8623,22.1704-42.8838,27.8091
		c-4.4658,1.0913-14.7969-0.7378-19.9878,0.4795c-1.6841,0.4038-3.3745-0.0445-4.7368-1.2427
		c-3.8477-3.3555-4.6045-11.8325-4.169-16.3799c0.2901-3.0781-0.5551-8.3193,0.542-14.3809
		c1.4131-7.7451,1.5391-13.1191,1.0913-22.0566c-1.3178-26.333-17.9438-25.3804-21.9936-25.3994
		c-11.0879-0.0566-27.4302,12.4131-31.2525,20.6816c-2.1001,4.5791-5.6323,11.3028-4.5727,25.0147
		c1.4062,18.3227-0.1133,21.7226-5.645,28.5405c-7.3101,9.0386-11.2525,8.6348-15.3521,7.815
		c-5.1338-1.0284-9.3223-5.4747-11.208-11.8892c-1.5454-5.2476-9.9531-12.1987-16.6953-17.793
		c-5.9229-4.9072-11.0254-9.1391-12.8731-12.8354c-2.643-5.2793-9.9721-8.2373-15.3144-10.3946
		c-1.1353-0.4668-2.2075-0.8955-3.1597-1.3183c-1.6465-0.7315-2.7436-0.9268-3.3681-0.9331c0.29,0.5171,0.7251,1.2612,1.1162,1.8921
		c3.0781,5.0713,9.48,15.6484,7.3545,26.7807c-2.3213,12.2046,5.2221,21.0098,8.0605,24.3335
		c4.1123,4.7813,13.0371,17.0489,7.1338,27.3736c-0.2397,0.4292-0.978,1.7221,0.1826,4.3838
		c3.0337,6.9882,14.7778,14.8032,20.8208,16.2094c6.2061,1.4512,12.5259,13.2456,15.5474,24.1509
		c2.3901,8.603,0.8325,26.0679-7.8906,43.9497c-11.6875,23.9736-37.4717,54.5508-52.7671,62.5049
		c-25.4937,13.2392-25.3741-17.8682-37.7237-0.6182c-0.8955,1.2491,0.8579,3.0274,1.2549,4.7178
		c2.6494,11.4922-9.9902,27.6514-16.7832,36.3682c-1.1484,1.4443-2.1318,2.705-2.7314,3.5507
		c-3.3555,4.7364-4.8501,7.5684,0.4482,14.8916c7.4805,10.3506-4.7622,24.9073-17.5029,34.2364
		c-7.9033,5.79-12.0342,13.5039-13.6807,20.3662c46.3145-6.4082,38.7456,7.1269,49.1275,6.2812
		c69.0712-5.6318,103.1748-43.0156,115.5815-66.2509c18.4424-34.501,33.0562-46.1514,44.2705-53.6122
		c-3.2671,6.7421-5.1279,14.1346-5.1279,22.0693c0,18.1338-16.752,29.3096-36.2857,60.0068
		c-19.5337,30.6983,2.7876,64.1778,8.3697,94.8878c5.5883,30.6846,12.5644,12.5518,9.7636-11.1768
		c-0.164-1.4571-0.6748-3.3047-1.0215-4.9639c-2.416-11.5986-4.7998-23.3184-2.75-35.4277
		c2.0811-12.3252,8.2876-21.7227,15.3897-32.1231c7.7895-11.3535,16.4683-19.6473,27.3613-27.7079
		c8.7227-6.5283,18.9971-7.2851,27.5567-13.8887c13.0244-10.0293,14.9736-28.0234,8.2998-42.1523
		c-0.1573-0.5107,0.082-1.0596,0.581-1.2168c0.46-0.1387,1.002,0.0693,1.1602,0.5801c6.9824,14.9297,4.6924,33.7627-9.0703,44.372
		c-8.4512,6.5538-18.688,7.3418-27.3609,13.7305c-10.7729,7.96-19.3003,16.0908-26.9448,27.3047
		c-6.9316,10.0977-13.0937,19.4453-15.1055,31.2588c-1.8672,10.8926,0.542,21.3506,2.2515,31.8584
		c3.5889-16.1084,24.3081-19.8936,30.3506-40.4483c0.7886-2.6562,2.0942-5.2294,3.8476-7.7265
		c1.9996-16.9541,10.6338-33.5303,26.5279-41.2442c13.4922-6.5468,28.8379-8.7793,39.7363-20.0312
		c9.1328-9.5059,18.6387-21.0166,18.4805-34.6025c0-0.5108,0.4287-0.9522,0.9336-0.9522c0.5107,0,0.9336,0.4414,0.9336,0.9522
		c0.2646,3.7469-0.2403,7.4803-1.8233,10.9619c-6.0547,13.1894-14.4248,25.0341-27.4053,32.7988
		c-11.7441,7.001-24.7685,7.707-35.8564,15.9951c-11.1958,8.3633-16.8784,20.2773-19.1494,33.1133
		c15.7812-18.2217,54.6719-31.9531,81.6855-43.6904c32.0987-13.959,27.3741-51.8399,45.5137-67.1855
		c18.1397-15.333,39.6104-15.1378,61.9316-16.5439c22.334-1.3946,51.6319-18.1338,50.2442-29.291
		c-1.4005-11.1768,2.787-15.3648,12.5508-22.3345C636.8667,490.3106,621.5141,490.3106,608.9634,488.8976z M359.9765,323.7789
		c0.4224-1.8862,2.958-3.0024,5.0269-0.2143c2.0625,2.8002,2.7183,4.6103,2.7183,8.3823c0,3.7651-3.2862,4.2954-5.8594,1.8794
		C359.2954,331.4044,359.5854,325.5196,359.9765,323.7789z M362.354,350.919c2.5107,5.8785,0.997,22.5108-8.2876,21.5772
		c-9.2779-0.9141-9.5869-4.9448-9.5869-10.5078c0-4.3394,7.3667-8.395,8.6093-12.4253
		C354.3188,345.5519,359.8501,345.047,362.354,350.919z M344.1704,327.2164c1.4819-2.3149,3.2925-3.7402,5.1528-2.3403
		c1.8672,1.394,2.5611,5.1152,0.4668,10.6914c-2.0874,5.5815-7.102,2.7495-7.3418,0.8828
		C342.2212,334.5831,342.1455,330.3761,344.1704,327.2164z M415.0014,507.0372c-1.0918,10.9561-13.3339,22.7315-25.292,32.6973
		c-1.7158,1.4443-3.5136,0.6494-1.9873-1.8291c6.1563-9.9658,18.7959-27.4619,20.6817-52.3252c0-0.0947,0.0439-0.4483,0.0947-0.9903
		C411.9048,490.3482,415.8149,498.9259,415.0014,507.0372z M484.06,420.5519c0.6553-3.7154,1.6143-5.3868,4.1309-7.7832
		c2.5166-2.397,4.8252-0.8516,4.9131,1.0781c0.0762,1.7788-0.6426,7.6387-3.5947,9.562
		C486.5639,425.358,483.4223,424.2667,484.06,420.5519z M493.1362,465.8253c-0.2275,3.9609-2.3154,4.415-3.249,2.7881
		c-0.9326-1.6275-5.3477-5.5884-10.7031-4.6548c-5.3487,0.9331-6.7491-0.9336-3.9483-5.1152
		c2.7881-4.1822,2.7881-5.8155,4.1885-9.9908c1.375-4.1313,10.2305-10.0097,12.0908-0.4731
		C493.3755,457.9225,493.3755,461.8644,493.1362,465.8253z M505.1958,429.0035c-0.5557,1.7915-5.9795,3.7276-7.0772-2.1318
		c-1.1103-5.853,0.2276-9.398,2.2959-10.4575c2.0684-1.0533,3.6074,0.6684,4.668,3.2041
		C506.5327,423.0743,505.7378,427.2062,505.1958,429.0035z"/>
	<path fill="#F88C24" d="M245.3667,366.6622c2.4785-13.0244-8.0611-25.4248-8.6856-27.9033
		c-0.6181-2.4854,1.8609-4.3526,7.4429-1.8672c5.582,2.4785,16.1216,5.5757,19.8491,13.0244
		c3.7212,7.4429,26.6358,20.543,29.7324,31.0825c3.1094,10.5459,13.2076,15.3833,24.2203,1.7788
		c6.894-8.5024-3.2735-26.4907,5.3295-47.6645c5.689-14.0464,21.9053-26.3706,35.8379-26.2822
		c12.9615,0.0756,23.8291,9.4546,24.7627,28.0483c0.9268,18.6065-1.041,30.439-1.6465,36.835
		c-0.1323,1.4756-0.1196,3.0966,0.0127,4.7177c14.8731-16.4433,23.9366-38.2475,23.9366-62.1523
		c0-51.2026-41.4961-92.6919-92.6924-92.6919c-51.1836,0-92.6919,41.4893-92.6919,92.6919c0,24.6426,9.6499,47.0337,25.3491,63.6406
		C244.9253,376.0914,244.414,371.6515,245.3667,366.6622z"/>
</g>
<g id="spookies-stamp-ribbon">
	<path fill="#F88C24" d="M256.146,738.3009l1.0468-2.3028l2.2896,1.0538c4.0806,1.8604,8.187,3.6396,12.3369,5.3105l6.4273-15.8252
		c-28.9126-11.7373-55.6748-28.0732-78.0655-48.541c-1.6904,12.1289-2.6933,24.8447-2.624,37.668
		c-12.7783,3.4306-25.9228,5.8398-39.7168,7.5488l-0.1138,0.1328c24.0245,22.0127,51.4678,39.8936,80.7144,53.5684L256.146,738.3009
		z"/>
	<path fill="#F88C24" d="M524.8803,736.3077l2.2706-1.123l1.1289,2.2705l18.8086,38.0713
		c28.8125-14.5957,55.4355-33.8077,78.1035-57.0118c-13.5606-0.9716-26.503-2.624-39.1807-5.3681
		c-0.5615-13.0811-2.3779-26.0674-4.7685-38.2656l-0.1133-0.1016c-21.2051,21.6787-46.7373,39.1123-74.9942,51.4111l6.793,15.6739
		C516.977,740.1046,520.976,738.2628,524.8803,736.3077z"/>
	<path fill="#F88C24" d="M504.4956,749.9318c-20.6065,8.3633-42.2783,14.1719-64.417,17.5527
		c-28.7481,4.3838-58.2476,4.5722-87.2549,0.8574c-21.0786-2.6934-41.874-7.4111-61.9058-14.2227
		c-9.9594-3.374-19.7417-7.1963-29.2534-11.5546l-28.8872,63.0096c100.3301,45.501,219.3364,47.9287,320.7261-1.6592
		l-30.6982-62.1142C516.8139,744.7784,510.6958,747.4269,504.4956,749.9318z"/>
</g>
<g id="spookies-stamp-text">
	<path fill="#513E31" d="M343.2177,802.7989c0.732,0.2901,1.274,0.5362,1.5391,0.6934c6.8247,3.0029,11.9019,9.1904,10.7793,15.5098
		c-1.6401,9.5878-14.5259,11.29-28.0737,6.6543c-1.5137-0.5108-4.3965-1.627-5.8975-2.2012
		c-2.1445-0.8067-4.8437-1.7969-7.5244-2.8447c-0.208-0.0948-0.1704-0.1641-0.1455-0.2334
		c0.0947-0.2334,0.3599-0.5674,0.7065-0.4913c1.2867,0.2774,2.5865,0.542,3.8726,0.8008c0.7695,0.2139,1.0977,0,1.4258-0.8329
		c1.0908-2.4472,7.4048-18.7949,8.54-21.6592c1.9614-4.9765,5.7398-14.5693,7.6699-19.4834
		c0.3277-0.8261,0.2334-1.2988-0.6435-1.6455c-0.9019-0.4287-1.8037-0.8642-2.7061-1.3125
		c-0.2392-0.1006-0.2837-0.6494-0.1513-0.9463c0.0317-0.0752,0.0634-0.1445,0.2968-0.0371
		c3.0147,0.7823,8.2813,2.4092,12.5196,3.7657c10.3882,3.2734,13.7246,8.7607,12.4824,15.1309
		c-1.1353,5.8281-7.8525,8.8809-12.9111,8.9688c-0.3975-0.0312-1.1226,0.0127-1.7159-0.0752
		C343.2622,802.6417,343.2431,802.7228,343.2177,802.7989z M347.6264,817.6397c1.375-6.206-2.9892-12.9677-10.8925-15.5791
		c-1.0342-0.3398-1.9742-0.6621-2.6363-0.5546c-0.9463,2.4218-7.4804,19.7296-8.0039,21.1738
		c-0.2212,0.6182,0.2837,1.2363,1.8985,1.7783c8.8867,3.04,17.6538,1.9551,19.6157-6.7422
		C347.6142,817.6905,347.6206,817.6651,347.6264,817.6397z M344.7002,779.6642c-1.2046-0.4043-1.7974-0.2657-2.17,0.5421
		c-2.1948,5.4305-6.9692,17.4267-7.6757,19.4139c0.29,0.3535,0.9209,0.6621,1.3877,0.8135
		c6.0356,2.0752,13.5039-0.6494,15.1753-7.6758c1.7343-7.1084-1.438-11.3721-6.6353-13.0753
		C344.7568,779.6827,344.7251,779.6642,344.7002,779.6642z"/>
	<path fill="#513E31" d="M378.8354,836.1144c-11.3598-0.6377-17.812-9.209-15.2451-24.6993
		c2.6367-15.5791,10.3882-26.7812,20.4356-26.4023c9.165,0.2705,14.1035,9.3213,15.1376,23.2168
		c1.4258,18.0703-7.0644,28.54-20.2211,27.8848C378.9048,836.1144,378.873,836.1144,378.8354,836.1144z M380.248,834.878
		c7.7832,0.3282,12.104-9.6689,11.6626-25.873c-0.2842-11.6182-2.6308-22.5928-8.5151-22.794
		c-6.2569-0.2656-10.6973,11.6368-12.3247,25.6016c-1.6143,13.9326,2.2138,22.7305,9.0703,23.0586
		C380.1787,834.8712,380.2104,834.878,380.248,834.878z"/>
	<path fill="#513E31" d="M427.4009,832.4874c-11.2071,2.2705-19.584-4.4209-21.003-20.0576
		c-1.3681-15.749,3.293-28.5274,13.1631-30.71c8.9942-2.0556,16.1221,5.4307,20.6318,18.6065
		c5.9541,17.125,0.2706,29.4492-12.6904,32.1426C427.4712,832.4689,427.4331,832.4747,427.4009,832.4874z M428.4614,830.9356
		c7.6563-1.6523,9.3535-12.4248,4.8438-28.0039c-3.211-11.1709-8.2813-21.1865-14.0528-19.8867
		c-6.1494,1.3174-7.4551,13.9572-5.5185,27.8781c1.9482,13.8885,7.8711,21.451,14.6201,20.0322
		C428.3911,830.9552,428.4233,830.9356,428.4614,830.9356z"/>
	<path fill="#513E31" d="M459.146,816.6876c1.9619-0.8008,3.8095-0.1826,4.4531,1.293c0.5166,1.1982-0.335,2.9834-2.4727,3.8535
		c-2.2451,0.915-4.0498,0.3789-4.5664-0.9834c-0.4853-1.293,0.2139-3.1914,2.4854-4.1192
		C459.0766,816.713,459.1147,816.6935,459.146,816.6876z M456.144,812.2091c-0.0947,0.0322-0.2021,0.0762-0.2588-0.0694
		c-5.9355-12.1289-13.1953-28.1113-15.0869-32.8671c-0.499-1.2803-0.789-2.2959,0.8135-3.5439
		c1.0342-0.8515,2.4033-1.9561,2.7881-2.1201c0.2334-0.1064,0.3779,0.0068,0.4795,0.2275
		c2.9258,7.752,8.5713,24.3086,12.5634,37.2256c0.0948,0.2334-0.8896,0.9903-1.1982,1.1104
		C456.2134,812.1837,456.1811,812.1905,456.144,812.2091z"/>
</g>
</svg>
