<?xml version="1.0" encoding="utf-8"?>
<!-- Generator: Adobe Illustrator 17.1.0, SVG Export Plug-In . SVG Version: 6.00 Build 0)  -->
<!DOCTYPE svg PUBLIC "-//W3C//DTD SVG 1.1//EN" "http://www.w3.org/Graphics/SVG/1.1/DTD/svg11.dtd">
<svg version="1.1" id="witch-stamp" xmlns="http://www.w3.org/2000/svg" xmlns:xlink="http://www.w3.org/1999/xlink" x="0px"
	 y="0px" viewBox="0 0 776.9204 1009.9871" enable-background="new 0 0 776.9204 1009.9871" xml:space="preserve">
<g id="witch-stamp-stamp">
	<path id="witch-stamp-stamp_1_" fill="#F3E6D1" d="M776.9204,55.82h-0.0322c0.0322-0.2276,0.0322-0.4356,0.0322-0.6626
		c0-8.9751-13.9209-10.9619-20.1016-16.8467c-4.9951-6.4839-1.6523-15.7871,9.4737-28.3325
		c-0.4415-1.6714-14.3995-9.9151-29.0957-9.9781c0,0-0.0186,0.0064-0.0381,0.0064c-0.0371,0-0.1075-0.0064-0.126-0.0064
		c-6.6856-0.0249-10.1543,4.4278-13.5166,9.0132c-3.4688,4.7432-6.8438,9.625-13.5352,9.9405l0,0
		c-0.1582,0.0185-0.334,0.0185-0.4922,0.0185c-13.9199,0-13.9199-18.9722-27.8281-18.9722
		c-13.8506,0-13.8506,18.9722-27.7392,18.9722c-13.9073,0-13.9073-18.9722-27.7959-18.9722
		c-13.9776,0-13.9776,18.9722-27.9473,18.9722c-13.8887,0-13.8887-18.9722-27.8154-18.9722
		c-13.9014,0-13.9014,18.9722-27.8789,18.9722c-13.9385,0-13.9385-18.9722-27.9161-18.9722
		c-13.9765,0-13.9765,18.9722-27.9345,18.9722c-13.958,0-13.958-18.9722-27.9356-18.9722
		c-13.9951,0-13.9951,18.9722-27.9658,18.9722c-13.9775,0-13.9775-18.9722-27.9736-18.9722
		c-13.9766,0-13.9766,18.9722-27.8965,18.9722c-13.9395,0-13.9395-18.9722-27.8784-18.9722
		c-13.9771,0-13.9771,18.9722-27.9351,18.9722c-13.958,0-13.958-18.9722-27.8657-18.9722
		c-14.0083,0-14.0083,18.9722-28.0044,18.9722c-13.958,0-13.958-18.9722-27.897-18.9722c-13.977,0-13.977,18.9722-27.9731,18.9722
		c-13.9707,0-13.9707-18.9722-27.9473-18.9722c-13.958,0-13.958,18.9722-27.935,18.9722c-13.9581,0-13.9581-18.9722-27.9732-18.9722
		c-13.9199,0-13.9199,18.9722-27.8779,18.9722c-13.9961,0-13.9961-18.9722-27.9854-18.9722
		c-13.977,0-13.977,18.9722-27.9541,18.9722c-14.2231,0-22.1577-6.1308-27.8974-8.7417C8.1616,8.5846,0,24.0373,0,32.029
		c0,0.2265,0.0317,0.4472,0.0508,0.6806H0.0127c0,1.0029,0.1958,1.9175,0.5112,2.75c0.0186,0.0567,0.0376,0.1074,0.0693,0.1704
		c0,0.0064,0,0.0064,0,0.0064c3.1914,8.9184,18.2027,8.9438,21.8985,17.206c0.2968,0.8457,0.4922,1.7412,0.4922,2.7315
		C22.9839,67.0534,0,67.0534,0,78.5133c0,0.3409,0.0317,0.6685,0.0698,0.9903H0.0127c0.0693,11.2588,22.4287,11.416,22.9521,22.4604
		C22.4223,113.0646,0,113.216,0,124.5377c0,0.1451,0.0127,0.2647,0.0317,0.3912C0.0127,125.0485,0,125.1745,0,125.3136
		c0,11.3911,22.4038,11.5298,22.9648,22.6558C22.4038,159.0827,0,159.234,0,170.6061c0,0.1387,0.0127,0.2651,0.0317,0.3662
		C0.0127,171.0983,0,171.2052,0,171.3375c0,11.3848,22.5107,11.5113,22.9648,22.6939C22.5107,205.2082,0,205.3341,0,216.7379
		c0,0.126,0.0127,0.2271,0.0317,0.334C0.0127,217.1857,0,217.2868,0,217.4c0,11.4478,22.5425,11.5616,22.9648,22.7569
		C22.5425,251.3776,0,251.5036,0,262.9323c0,0.1011,0.0127,0.1958,0.0127,0.3091c0,0.0883-0.0127,0.1767-0.0127,0.2836
		c0,11.4605,22.5107,11.5616,22.9648,22.7759C22.5107,297.4713,0,297.6037,0,308.9879c0,0.1265,0.0127,0.2461,0.0317,0.3726
		C0.0127,309.4801,0,309.6061,0,309.7199c0,11.4038,22.4731,11.5298,22.9648,22.6811C22.4731,343.5397,0,343.6847,0,355.0695
		c0,0.1069,0.0127,0.227,0.0317,0.353C0.0127,355.5485,0,355.6432,0,355.7819c0,11.4165,22.5107,11.5234,22.9648,22.7192
		C22.5107,389.6774,0,389.7975,0,401.2135c0,0.0948,0.0127,0.2017,0.0127,0.3155c0,0.1005-0.0127,0.2016-0.0127,0.3281
		c0,11.4287,22.5107,11.561,22.9648,22.769c-0.4541,11.1641-22.7944,11.3218-22.9521,22.6431l0,0v0.0063
		c0,0.0191-0.0127,0.063-0.0127,0.1011c0,0.1011,0.0127,0.1895,0.0127,0.2964c0,0.1138-0.0127,0.2144-0.0127,0.3154
		c0,11.3721,22.2461,11.5674,22.9526,22.5865C22.353,481.5749,0,481.7516,0,493.0602c0,0.0757,0.0127,0.1387,0.0127,0.2207
		c0,0.0884-0.0127,0.1577-0.0127,0.2461c0,0.1074,0.0127,0.208,0.0317,0.3345c-0.019,0.0693-0.019,0.1196-0.019,0.1762l0,0
		c0,0.0191,0,0.0191,0,0.0191c0,0.0317-0.0127,0.0693-0.0127,0.1011c0,11.3403,22.1958,11.5297,22.9336,22.4853
		C22.208,527.612,0,527.7887,0,539.0915c0,0.0878,0.0127,0.1884,0.0127,0.2773c0,0.0879-0.0127,0.1758-0.0127,0.2832h0.0127
		c0,0.0889-0.0127,0.1201-0.0127,0.1953c0,0.0889,0.0127,0.1582,0.0127,0.2461c0,0.0703-0.0127,0.1387-0.0127,0.209
		c0,11.334,22.1958,11.5293,22.9336,22.498C22.019,573.6237,0,573.8502,0,585.153c0,0.1387,0.0127,0.2275,0.0317,0.3535
		C0.0127,585.6452,0,585.7526,0,585.8727c0,0.0879,0.0127,0.1758,0.0127,0.2832c0,0.0879-0.0127,0.1768-0.0127,0.2842h0.0508
		c0.7377,10.8232,22.4599,11.1387,22.914,22.1191C22.5107,619.7555,0,619.862,0,631.2848c0,0.126,0.0127,0.2334,0.0317,0.334
		C0.0127,631.7262,0,631.8336,0,631.9411c0,11.4218,22.5425,11.542,22.9648,22.7754C22.5425,665.9245,0,666.0319,0,677.4918
		c0,0.088,0.0127,0.1768,0.0127,0.2774c0,0.1074-0.0127,0.1953-0.0127,0.3027c0,11.4414,22.5107,11.5615,22.9648,22.7569
		C22.5107,712.0241,0,712.15,0,723.5231c0,0.1387,0.0127,0.2451,0.0317,0.3848C0.0127,724.027,0,724.1159,0,724.279
		c0,11.3662,22.4731,11.5117,22.9648,22.6503C22.4731,758.0865,0,758.2321,0,769.6032c0,0.1201,0.0127,0.2461,0.0317,0.3661
		C0.0127,770.0768,0,770.1969,0,770.3229c0,11.4033,22.5107,11.5293,22.9648,22.7246C22.5107,804.2243,0,804.3444,0,815.735
		c0,0.126,0.0127,0.208,0.0127,0.335c0,0.1064-0.0127,0.1953-0.0127,0.2959c0,11.4599,22.5107,11.5869,22.9648,22.7949
		C22.5107,850.3561,0,850.4821,0,861.9235c0,0.088,0.0127,0.1895,0.0127,0.2969c0,0.1074-0.0127,0.2138-0.0127,0.3154
		c0,11.4414,22.5107,11.5478,22.9648,22.7627C22.5107,896.5065,0,896.652,0,908.0553c0,0.126,0.0127,0.2139,0.0127,0.3155
		c0,0.0878-0.0127,0.1953-0.0127,0.3212c0,11.4229,22.5107,11.5303,22.9648,22.7188C22.5107,942.6442,0.0127,942.7516,0,954.2057
		h0.0508C0.0317,954.401,0,954.6159,0,954.8424c0,8.9561,13.9204,10.9619,20.0825,16.8467
		c5.0332,6.4776,1.6714,15.8067-9.4736,28.3203c0.4921,1.6905,14.4375,9.9463,29.1337,9.9776c0.0186,0,0.0186,0,0.0313,0
		c0.0566,0,0.0884,0,0.126,0c6.686,0.0195,10.1357-4.4024,13.5166-9.0127c3.4692-4.7305,6.831-9.625,13.5356-9.9092l0,0
		c0.1577-0.0186,0.3218-0.0312,0.5108-0.0312c13.8886,0,13.8886,18.9532,27.7964,18.9532c13.8886,0,13.8886-18.9532,27.7583-18.9532
		c13.8886,0,13.8886,18.9532,27.809,18.9532c13.958,0,13.958-18.9532,27.9346-18.9532c13.8887,0,13.8887,18.9532,27.79,18.9532
		c13.9454,0,13.9454-18.9532,27.8848-18.9532c13.958,0,13.958,18.9532,27.916,18.9532c13.9771,0,13.9771-18.9532,27.9478-18.9532
		c13.977,0,13.977,18.9532,27.935,18.9532c13.9956,0,13.9956-18.9532,27.9727-18.9532c13.977,0,13.977,18.9532,27.9853,18.9532
		c13.9395,0,13.9395-18.9532,27.8975-18.9532c13.9395,0,13.9395,18.9532,27.8848,18.9532c13.958,0,13.958-18.9532,27.916-18.9532
		c13.9385,0,13.9385,18.9532,27.8779,18.9532c13.9961,0,13.9961-18.9532,27.9727-18.9532c13.9707,0,13.9707,18.9532,27.9287,18.9532
		c13.9961,0,13.9961-18.9532,27.9541-18.9532c13.9579,0,13.9579,18.9532,27.9346,18.9532c13.9589,0,13.9589-18.9532,27.9355-18.9532
		c13.9893,0,13.9893,18.9532,27.9854,18.9532c13.9394,0,13.9394-18.9532,27.8974-18.9532c13.9766,0,13.9766,18.9532,27.9727,18.9532
		c13.9707,0,13.9707-18.9532,27.9472-18.9532c14.2237,0,22.1641,6.1241,27.8848,8.748c3.6074,1.6339,11.7383-13.8379,11.7383-21.792
		c0-0.2451,0-0.4785,0-0.7061l0,0c0-0.9834-0.208-1.8984-0.5108-2.7431c-0.0507-0.0567-0.0507-0.0889-0.0693-0.1582
		c0,0,0-0.0186-0.0195-0.0186c-3.166-8.9248-18.1963-8.9629-21.8799-17.1816c-0.3154-0.8643-0.4922-1.7598-0.4922-2.7432
		c0-11.4795,22.9717-11.4795,22.9717-22.9394c0-0.3477,0-0.669-0.0508-0.9844h0.0508
		c-0.0694-11.2832-22.4043-11.4413-22.9337-22.4795c0.5294-11.1065,22.9337-11.2266,22.9337-22.5986c0-0.1075,0-0.2266,0-0.3536
		c0-0.1385,0-0.2646,0-0.3846c0-11.4033-22.4043-11.5294-22.9337-22.6553c0.5294-11.1201,22.9337-11.2842,22.9337-22.6689
		c0-0.1075,0-0.2461,0-0.3526c0-0.1074,0-0.2275,0-0.3535c0-11.3721-22.4796-11.5107-22.9337-22.6875
		c0.4541-11.1953,22.9337-11.3154,22.9337-22.7256c0-0.1191,0-0.208,0-0.334c0-0.1191,0-0.208,0-0.3339
		c0-11.4229-22.5108-11.5293-22.9337-22.7383c0.4229-11.2325,22.9337-11.3399,22.9337-22.7813c0-0.1016,0-0.208,0-0.3154
		c0-0.0889,0-0.1768,0-0.2773c0-11.4287-22.4796-11.5684-22.9337-22.7636c0.4541-11.1953,22.9337-11.3156,22.9337-22.7061
		c0-0.1201,0-0.2265,0-0.3662c0-0.126,0-0.2334,0-0.3721c0-11.3906-22.4796-11.5293-22.9337-22.6679
		c0.4541-11.1446,22.9337-11.2647,22.9337-22.6563c0-0.1387,0-0.2265,0-0.3721c0-0.1191,0-0.2079,0-0.3466
		c0-11.4102-22.4796-11.5293-22.9337-22.7246c0.4541-11.1768,22.9337-11.3028,22.9337-22.7071c0-0.1074,0-0.2138,0-0.3213
		c0-0.1005,0-0.1895,0-0.3339c0-11.4043-22.4796-11.5616-22.9337-22.7764c0.4541-11.1387,22.7949-11.3145,22.9337-22.6172l0,0
		c0-0.0195,0-0.0195,0-0.0195c0-0.0127,0-0.0694,0-0.0821c0-0.1074,0-0.2138,0-0.3214c0-0.1005,0-0.1894,0-0.3349
		c0-11.334-22.2334-11.5293-22.9337-22.5479c0.5801-11.0185,22.9337-11.1767,22.9337-22.4922c0-0.0693,0-0.1385,0-0.2264
		c0-0.0762,0-0.1455,0-0.2462c0-0.1074,0-0.1963,0-0.3223c0-0.0693,0-0.1386,0-0.1885l0,0v-0.0195c0-0.0371,0-0.0566,0-0.1074
		c0-11.3276-22.1582-11.5356-22.9151-22.4854c0.7198-10.9492,22.9151-11.1445,22.9151-22.4223c0-0.107,0-0.1953,0-0.3028
		c0-0.1069,0-0.1762,0-0.2646l0,0c0-0.0884,0-0.1392,0-0.2085c0-0.0693,0-0.1572,0-0.2266c0-0.0761,0-0.1513,0-0.2334
		c0-11.3281-22.1582-11.5297-22.9151-22.4731c0.9151-10.8486,22.9151-11.0757,22.9151-22.3721c0-0.145,0-0.2524,0-0.353
		c0-0.1328,0-0.2461,0-0.3594c0-0.101,0-0.1894,0-0.2969c0-0.082,0-0.1826,0-0.2773l0,0
		c-0.7764-10.8232-22.4796-11.1196-22.9337-22.126c0.4541-11.1767,22.9337-11.3091,22.9337-22.7124c0-0.1201,0-0.2207,0-0.3408
		c0-0.1133,0-0.2017,0-0.3345c0-11.4096-22.5108-11.5234-22.9337-22.75c0.4229-11.208,22.9337-11.3344,22.9337-22.7631
		c0-0.1324,0-0.2017,0-0.3091c0-0.0884,0-0.1953,0-0.2837c0-11.4414-22.4796-11.5615-22.9337-22.7759
		c0.4541-11.1763,22.9337-11.3154,22.9337-22.687c0-0.1265,0-0.2461,0-0.3784c0-0.1328,0-0.2398,0-0.3721
		c0-11.3789-22.4796-11.5176-22.9337-22.6621c0.4541-11.1387,22.9337-11.2842,22.9337-22.6499c0-0.126,0-0.2583,0-0.3721
		c0-0.126,0-0.227,0-0.3594c0-11.435-22.4796-11.5297-22.9337-22.7187c0.4541-11.1768,22.9337-11.3091,22.9337-22.7129
		c0-0.0942,0-0.2017,0-0.3149c0-0.1138,0-0.2022,0-0.3155c0-11.4414-22.4796-11.5678-22.9337-22.7885
		c0.4541-11.1763,22.9337-11.315,22.9337-22.7251c0-0.1133,0-0.2207,0-0.3155c0-0.1133,0-0.2143,0-0.334
		c0-11.4228-22.4796-11.5297-22.9337-22.7504c0.4541-11.2144,22.9337-11.3345,22.9337-22.7696c0-0.1069,0-0.208,0-0.3091
		c0-0.1132,0-0.1894,0-0.3154c0-11.4224-22.4796-11.5483-22.9337-22.7314C754.4409,67.3683,776.9204,67.2296,776.9204,55.82z"/>
	<g id="witch-stamp-background_1_">
		<rect x="53.6816" y="63.8615" fill="#513E31" width="669.5513" height="882.2641"/>
		<path fill="#B0A89B" d="M719.3657,67.7467v874.5127H57.5732V67.7467H719.3657 M727.1235,59.9762h-7.7578H57.5732H49.79v7.7705
			v874.5127v7.7774h7.7832h661.7925h7.7578v-7.7774V67.7467V59.9762L727.1235,59.9762z"/>
	</g>
</g>
<g id="witch-stamp-inner-borders-decoration">
	<path fill="#EBD5B2" d="M666.3471,104.758c4.6983,0,8.5332,3.8413,8.5332,8.5527v783.3726c0,4.705-3.8349,8.5585-8.5332,8.5585
		H110.5859c-4.6987,0-8.5527-3.8535-8.5527-8.5585V113.3107c0-4.7114,3.854-8.5527,8.5527-8.5527H666.3471 M666.3471,99.195
		H110.5859c-7.7768,0-14.1157,6.3325-14.1157,14.1157v783.3726c0,7.7832,6.3389,14.122,14.1157,14.122h555.7612
		c7.7764,0,14.0967-6.3388,14.0967-14.122V113.3107C680.4438,105.5275,674.1235,99.195,666.3471,99.195L666.3471,99.195z"/>
	<g>
		<path fill="#F88C24" d="M535.6723,891.7194c-2.4853-3.4317-3.1347-2.8828-1.4257,1.0215
			c3.8349,8.7295-3.3995,14.4687-14.8223,16.1279c-16.2783,2.3398-34.9736-4.8252-49.4043-12.2549
			c-7.291-3.293-14.1348-6.1943-20.9658-9.6943c9.1015,2.252,29.9033,9.5742,31.1396,9.9775
			c7.4805,2.4795,17.5781,4.0498,25.3994,3.8037c7.7071-0.2646,11.8955-2.5039,13.4092-6.4961
			c1.1094-2.9395-1.4062-4.4531-7.2158-4.1191c-9.0635,0.5303-18.4297,3.166-27.3359,2.3398
			c-9.3477-0.8955-17.212-3.0966-26.3702-6.0742c-17.2324-5.6318-22.9336-9.5547-37.8945-7.499
			c-12.0215,1.6777-25.5762,13.1699-31.7007,24.2197c-6.1245-11.0683-19.6977-22.5986-31.751-24.2695
			c-14.9482-2.0752-20.6499,1.8857-37.8813,7.499c-9.1523,2.9893-17.0234,5.1719-26.3838,6.0547
			c-8.8931,0.8457-18.2529-1.7978-27.3359-2.3213c-5.8086-0.3398-8.3067,1.1738-7.2027,4.1319
			c1.501,3.9609,5.708,6.2314,13.397,6.4648c7.8145,0.2588,17.919-1.3242,25.418-3.7842c1.23-0.4101,22.0381-7.7334,31.1391-9.9844
			c-6.8496,3.5069-13.6992,6.4081-20.9843,9.7002c-14.4312,7.4297-33.126,14.6075-49.3921,12.2491
			c-11.4414-1.6719-18.6763-7.3926-14.835-16.1211c1.709-3.8926,1.0532-4.4727-1.4253-1.0225
			c-8.187,11.3916,5.5064,26.2637,25.292,31.4043c29.6568,3.2041,44.9395-7.0459,72.9253-22.5869
			c11.4727-6.0859,27.9663-10.791,39.3384-2.623c-5.1597-0.8585-11.3848-0.0322-16.2476,1.1661
			c-17.0551,4.2197-32.8232,19.9062-47.5761,26.3457c-6.3389,2.7822-5.418,8.1875,2.5859,7.0957
			c12.5708-1.6905,27.1973-15.9131,37.7432-24.7998c4.7304-3.9991,19.1992-10.792,25.8344-5.5821
			c3.8033,3.5381,4.6485,11.2334,1.9932,14.2608c-1.2554,1.4258-3.103,2.4091-4.7178,3.5
			c-1.7788,1.2304-1.6904,2.2334,0.4038,3.1855c4.8062,2.1641,6.2505,4.169,7.6192,7.2725c0.3213,0.6806,0.706,1.4062,1.1289,1.9678
			c0.8076,0.9843,1.1103,0.9843,1.9365-0.1768c0.3652-0.5234,0.7002-1.1221,0.9648-1.7402c1.375-3.0967,2.8194-5.1026,7.626-7.2852
			c2.1123-0.9336,2.2012-1.9365,0.4033-3.1533c-1.6211-1.1104-3.4687-2.0947-4.7177-3.501
			c-2.6553-3.0459-1.8106-10.7412,2.0058-14.2734c6.6348-5.2159,21.085,1.583,25.8408,5.5752
			c10.5459,8.8877,25.1719,23.1103,37.7178,24.8007c8.0293,1.0909,8.9434-4.2949,2.5918-7.0898
			c-14.7529-6.4648-30.5078-22.1133-47.582-26.3516c-4.8379-1.1982-11.0879-2.0244-16.2285-1.1602
			c11.3525-8.1494,27.8652-3.4688,39.3261,2.623c27.9854,15.542,43.2803,25.7852,72.9248,22.5811
			C530.1782,917.9831,543.853,903.11,535.6723,891.7194z"/>
		<path fill="#F88C24" d="M535.6723,92.1559c-2.4853-3.4375-3.1533-2.8696-1.4257,1.0156
			c3.8349,8.7422-3.418,14.4688-14.8223,16.128c-16.2979,2.3462-34.9736-4.8252-49.4043-12.2618
			c-7.291-3.2797-14.1348-6.1875-20.9844-9.6879c9.1016,2.2583,29.9219,9.562,31.1387,9.978
			c7.5,2.4853,17.5976,4.0498,25.4189,3.791c7.7071-0.2461,11.8955-2.4854,13.3897-6.4775c1.1103-2.9458-1.4063-4.4595-7.1963-4.125
			c-9.0635,0.5297-18.4482,3.166-27.3359,2.3398c-9.3663-0.8769-17.212-3.0781-26.3829-6.0737
			c-17.2197-5.6201-22.9209-9.562-37.8818-7.4932c-12.041,1.6714-25.5762,13.1694-31.7007,24.2261
			c-6.1245-11.0694-19.6977-22.6113-31.751-24.2827c-14.9482-2.0752-20.6499,1.8857-37.8813,7.4995
			c-9.1709,2.9892-17.0361,5.1846-26.3838,6.0547c-8.8931,0.8452-18.2529-1.7979-27.3359-2.3213
			c-5.8086-0.334-8.3067,1.1797-7.2027,4.125c1.501,3.9863,5.708,6.2383,13.397,6.4717c7.8145,0.2646,17.919-1.3057,25.3994-3.7847
			c1.2486-0.4097,22.0567-7.7261,31.1577-9.9844c-6.8496,3.5069-13.6992,6.4082-20.9843,9.7007
			c-14.4312,7.4297-33.126,14.6074-49.4048,12.2485c-11.4287-1.6523-18.6636-7.3921-14.8223-16.1211
			c1.709-3.8916,1.0532-4.4594-1.4253-1.0092c-8.187,11.3784,5.5064,26.2509,25.292,31.3974
			c29.6568,3.1983,44.9395-7.0385,72.9253-22.5927c11.4727-6.0674,27.9663-10.7852,39.3384-2.6109
			c-5.1597-0.8706-11.3848-0.0444-16.2476,1.1538c-17.0551,4.2324-32.8232,19.9063-47.5761,26.3648
			c-6.3389,2.7754-5.418,8.1743,2.5859,7.0957c12.5708-1.7095,27.1782-15.9322,37.7432-24.8194
			c4.7304-3.9985,19.1992-10.7915,25.8344-5.5815c3.8033,3.5381,4.6485,11.2329,1.9932,14.2793
			c-1.2554,1.4131-3.103,2.3906-4.7178,3.4883c-1.7788,1.2236-1.6904,2.2324,0.4038,3.1787
			c4.8062,2.1631,6.2505,4.1753,7.6192,7.2724c0.3213,0.6934,0.706,1.4063,1.1289,1.9615c0.8076,0.9965,1.1103,0.9965,1.9365-0.1704
			c0.3652-0.5108,0.7002-1.1226,0.9648-1.7408c1.375-3.0781,2.8194-5.1025,7.626-7.2788c2.1123-0.9394,2.1817-1.936,0.4033-3.1596
			c-1.6211-1.1104-3.4687-2.0816-4.7177-3.5005c-2.6553-3.0469-1.8106-10.7227,2.0058-14.2735
			c6.6348-5.2099,21.085,1.583,25.8223,5.5757c10.5644,8.8931,25.1719,23.1099,37.7363,24.813
			c8.0098,1.0908,8.9434-4.3081,2.5733-7.0957c-14.7344-6.459-30.4893-22.1138-47.5635-26.3521
			c-4.8379-1.2045-11.0879-2.0185-16.2412-1.1669c11.3652-8.1617,27.8593-3.4502,39.3388,2.6303
			c27.9854,15.5347,43.2618,25.7779,72.9248,22.5738C530.1596,118.4132,543.853,103.5407,535.6723,92.1559z"/>
	</g>
</g>
<g id="witch-stamp-witch">
	<g id="witch-stamp-label">
		<path id="witch-stamp-background" fill="#513E31" d="M658.8286,459.9215c0,149.3067-121.043,270.375-270.3809,270.375
			c-149.313,0-270.3437-121.0683-270.3437-270.375c0-149.3061,121.0307-270.3496,270.3437-270.3496
			C537.7856,189.5719,658.8286,310.6154,658.8286,459.9215z"/>
		<g id="witch-stamp-sunburst">
			<path fill="#917561" d="M436.73,193.9557c-4.0303-0.7314-8.1114-1.3686-12.2295-1.9238L401.686,442.7594L436.73,193.9557z"/>
			<path fill="#917561" d="M467.4839,201.3356c-3.8594-1.1797-7.7637-2.3022-11.7061-3.3052l-51.5371,245.1392L467.4839,201.3356z"
				/>
			<path fill="#917561" d="M496.5102,212.0827c-3.6269-1.5767-7.291-3.0713-10.9873-4.4903l-78.7656,236.1763L496.5102,212.0827z"/>
			<path fill="#917561" d="M523.3667,225.6813c-3.3115-1.917-6.6729-3.7651-10.0664-5.5439L409.186,444.57L523.3667,225.6813z"/>
			<path fill="#917561" d="M547.7827,241.5377c-2.9775-2.1694-5.9863-4.3203-9.0635-6.3764L411.5073,445.5602L547.7827,241.5377z"/>
			<path fill="#917561" d="M569.5864,259.2365c-2.6172-2.3843-5.3292-4.7056-8.0732-6.9761L413.6889,446.7521L569.5864,259.2365z"/>
			<path fill="#917561" d="M588.7231,278.3161c-2.29-2.5293-4.6679-4.9766-7.0576-7.4175L415.7514,448.1144L588.7231,278.3161z"/>
			<path fill="#917561" d="M605.2671,298.3854c-1.9678-2.6299-4.0303-5.1846-6.0743-7.7388L417.6186,449.6344L605.2671,298.3854z"/>
			<path fill="#917561" d="M619.2944,319.1305c-1.6523-2.687-3.3613-5.3359-5.1211-7.9599L419.3091,451.2995L619.2944,319.1305z"/>
			<path fill="#917561" d="M630.9507,340.3229c-1.375-2.731-2.7315-5.4434-4.1758-8.1177L420.7846,453.1037L630.9507,340.3229z"/>
			<path fill="#917561" d="M640.3677,361.7614c-1.0723-2.75-2.1514-5.4937-3.3116-8.187L422.0532,455.0148L640.3677,361.7614z"/>
			<path fill="#917561" d="M647.7407,383.3009c-0.8262-2.75-1.6719-5.4682-2.5674-8.1806l-222.0801,81.9189L647.7407,383.3009z"/>
			<path fill="#917561" d="M653.1958,404.8654c-0.5801-2.7437-1.2481-5.4556-1.8789-8.168l-227.4346,62.4107L653.1958,404.8654z"/>
			<path fill="#917561" d="M656.6841,426.4425c-0.334-2.7246-0.6368-5.4682-1.0596-8.1616l-231.1817,42.9717L656.6841,426.4425z"/>
			<path fill="#917561" d="M658.5132,447.9567c-0.1075-2.731-0.3155-5.4307-0.5293-8.1362l-233.2188,23.5957L658.5132,447.9567z"/>
			<path fill="#917561" d="M658.5825,469.3952c0.0889-2.6929,0.1953-5.3863,0.2148-8.0987l-234.0195,4.3018L658.5825,469.3952z"/>
			<path fill="#917561" d="M657.018,490.7897c0.3155-2.668,0.543-5.3799,0.7891-8.0796l-233.2187-14.9165L657.018,490.7897z"/>
			<path fill="#917561" d="M653.7446,512.1149c0.5117-2.6748,0.9844-5.3672,1.4258-8.0547l-231.0742-34.1099L653.7446,512.1149z"/>
			<path fill="#917561" d="M648.6548,533.3258c0.7441-2.6611,1.5009-5.3359,2.1699-8.0293l-227.4541-53.2461L648.6548,533.3258z"/>
			<path fill="#917561" d="M641.811,554.4303c0.9844-2.6367,1.8799-5.3359,2.7822-8.0039l-222.1748-72.3511L641.811,554.4303z"/>
			<path fill="#917561" d="M632.9751,575.3395c1.2295-2.624,2.4277-5.2607,3.5703-7.9228L421.227,476.0182L632.9751,575.3395z"/>
			<path fill="#917561" d="M622.0952,595.9323c1.4951-2.586,3.0088-5.1592,4.4209-7.7764L419.8139,477.86L622.0952,595.9323z"/>
			<path fill="#917561" d="M609.0893,616.1032c1.7784-2.5166,3.5196-5.0332,5.2285-7.6133L418.1802,479.5753L609.0893,616.1032z"/>
			<path fill="#917561" d="M593.8071,635.693c2.0811-2.4336,4.1055-4.8808,6.1113-7.3916L416.3637,481.152L593.8071,635.693z"/>
			<path fill="#917561" d="M576.1528,654.4323c2.3965-2.3145,4.7363-4.6543,7.0449-7.0518L414.3764,482.5524L576.1528,654.4323z"/>
			<path fill="#917561" d="M556.0698,671.9792c2.713-2.1573,5.3682-4.3389,7.9912-6.5655L412.2319,483.8073L556.0698,671.9792z"/>
			<path fill="#917561" d="M533.5591,687.987c3.0273-1.9043,6.0048-3.8662,8.9443-5.9092L409.9428,484.8546L533.5591,687.987z"/>
			<path fill="#917561" d="M508.6899,702.0905c3.3242-1.6651,6.6162-3.3428,9.8516-5.1221l-110.9766-211.25L508.6899,702.0905z"/>
			<path fill="#917561" d="M481.6694,713.7838c3.5889-1.3173,7.1465-2.7177,10.6465-4.1943l-87.249-223.1768L481.6694,713.7838z"/>
			<path fill="#917561" d="M452.8198,722.5133c3.7842-0.9209,7.5498-1.9424,11.2842-3.0273l-61.5908-232.6133L452.8198,722.5133z"/>
			<path fill="#917561" d="M422.6333,728.0768c3.9414-0.5107,7.8838-1.0791,11.7568-1.7353l-34.4639-239.2413L422.6333,728.0768z"/>
			<path fill="#917561" d="M391.6899,730.2145c4.0108-0.0439,8.0225-0.1572,12.002-0.3652l-6.3701-242.7051L391.6899,730.2145z"/>
			<path fill="#917561" d="M360.6069,728.859c3.9736,0.416,7.9727,0.6875,11.9649,0.9268l22.1259-242.8247L360.6069,728.859z"/>
			<path fill="#917561" d="M330.0674,723.901c3.8725,0.8574,7.7578,1.6084,11.6997,2.2959l50.3642-239.6328L330.0674,723.901z"/>
			<path fill="#917561" d="M300.6499,715.6325c3.6963,1.2675,7.4111,2.4726,11.1826,3.576l77.7949-233.2504L300.6499,715.6325z"/>
			<path fill="#917561" d="M272.8598,704.361c3.4693,1.6339,6.9317,3.2296,10.4703,4.7178l103.8686-223.9024L272.8598,704.361z"/>
			<path fill="#917561" d="M247.1074,690.4215c3.1851,1.9434,6.4272,3.8164,9.6816,5.6202l128.0884-211.8809L247.1074,690.4215z"/>
			<path fill="#917561" d="M223.6948,674.2243c2.8696,2.2021,5.7964,4.3457,8.748,6.4463l150.2525-197.6768L223.6948,674.2243z"/>
			<path fill="#917561" d="M202.6977,656.2809c2.5547,2.4024,5.1407,4.7617,7.7832,7.0762l170.1519-181.7446L202.6977,656.2809z"/>
			<path fill="#917561" d="M184.1982,636.9362c2.2202,2.5605,4.4907,5.0967,6.793,7.5683l187.7622-164.4057L184.1982,636.9362z"/>
			<path fill="#917561" d="M168.1274,616.5192c1.9175,2.6933,3.8535,5.3486,5.8657,7.9473L377.0815,478.421L168.1274,616.5192z"/>
			<path fill="#917561" d="M154.4721,595.3083c1.6021,2.7617,3.2354,5.5117,4.9449,8.1933l216.1635-126.8843L154.4721,595.3083z"/>
			<path fill="#917561" d="M143.1001,573.4977c1.3184,2.8379,2.6934,5.6318,4.0996,8.4004L374.313,474.7189L143.1001,573.4977z"/>
			<path fill="#917561" d="M133.9482,551.2575c1.0342,2.8828,2.1445,5.6953,3.2734,8.54l236.0757-87.0781L133.9482,551.2575z"/>
			<path fill="#917561" d="M126.9594,528.7086c0.7569,2.9081,1.6026,5.7842,2.4473,8.6348l243.0772-66.7183L126.9594,528.7086z"/>
			<path fill="#917561" d="M122.0649,505.9459c0.5112,2.9014,0.9844,5.835,1.5645,8.7041l248.312-46.163L122.0649,505.9459z"/>
			<path fill="#917561" d="M119.145,483.0192c0.2461,2.939,0.5234,5.8594,0.8765,8.7734l251.6362-25.4687L119.145,483.0192z"/>
			<path fill="#917561" d="M118.104,460.0226c0,2.9458,0.1264,5.853,0.2148,8.7734l253.2881-4.6547L118.104,460.0226z"/>
			<path fill="#917561" d="M119.145,436.9567c-0.2461,2.9204-0.5107,5.8408-0.6875,8.7861l253.3574,16.2036L119.145,436.9567z"/>
			<path fill="#917561" d="M122.084,413.8595c-0.4917,2.9204-0.9712,5.853-1.375,8.8179l251.5854,37.1245L122.084,413.8595z"/>
			<path fill="#917561" d="M127.0478,390.7936c-0.7568,2.9141-1.4253,5.8535-2.1128,8.8115l248.0596,58.084L127.0478,390.7936z"/>
			<path fill="#917561" d="M134.1938,367.8478c-1.0405,2.8892-2.0054,5.8218-2.958,8.7671l242.73,79.0303L134.1938,367.8478z"/>
			<path fill="#917561" d="M143.6616,345.1417c-1.3565,2.8697-2.6748,5.7457-3.9233,8.6597l235.4199,99.9077L143.6616,345.1417z"/>
			<path fill="#917561" d="M155.456,322.8263c-1.6523,2.8071-3.2925,5.6138-4.8569,8.4834l225.9717,120.564L155.456,322.8263z"/>
			<path fill="#917561" d="M169.7485,301.0661c-1.9868,2.7251-3.9609,5.4497-5.8281,8.2373l214.2842,140.8545L169.7485,301.0661z"/>
			<path fill="#917561" d="M186.5952,280.1325c-2.3086,2.5923-4.6109,5.2158-6.812,7.9028L380.021,448.5875L186.5952,280.1325z"/>
			<path fill="#917561" d="M206.1162,260.3273c-2.6616,2.4409-5.2666,4.939-7.8335,7.4741l183.7251,179.3799L206.1162,260.3273z"/>
			<path fill="#917561" d="M228.3432,242.112c-3.0088,2.2075-5.9477,4.497-8.8681,6.8369l164.6772,196.9834L228.3432,242.112z"/>
			<path fill="#917561" d="M253.1811,225.8834c-3.3427,1.9361-6.6352,3.9356-9.8896,6.0171l143.1313,212.9722L253.1811,225.8834z"/>
			<path fill="#917561" d="M280.4096,212.0827c-3.6455,1.5962-7.2343,3.2485-10.8042,4.9892l119.233,226.9302L280.4096,212.0827z"/>
			<path fill="#917561" d="M309.7324,201.2467c-3.8726,1.1797-7.7261,2.4663-11.561,3.8223l93.1455,238.2773L309.7324,201.2467z"/>
			<path fill="#917561" d="M340.7138,193.8551c-4.0805,0.7315-8.1108,1.5386-12.1479,2.4595l65.3057,246.5522L340.7138,193.8551z"/>
			<path fill="#917561" d="M372.6606,190.0641c-4.1694,0.2334-8.3447,0.5552-12.4634,0.9839l36.2603,251.5728L372.6606,190.0641z"/>
			<path fill="#917561" d="M404.9282,190.1149c-4.1563-0.2461-8.3125-0.3789-12.501-0.4419l6.6543,252.9229L404.9282,190.1149z"/>
		</g>
	</g>
	<g id="witch-stamp-hat">
		<path fill="#513E31" d="M400.9106,389.5451c37.0869,1.955,71.5,9.8393,100.8604,21.9301L394.4331,200.1686L292.7343,402.4811
			C324.4472,392.3708,361.5342,387.4762,400.9106,389.5451z"/>
		<path fill="#513E31" d="M501.771,418.8424c-29.3604-12.0849-63.7735-19.9687-100.8604-21.9243
			c-39.3764-2.0688-76.4634,2.8257-108.1763,12.9365c-58.456,18.6504-98.6274,55.1192-100.9291,98.9869
			c-1.6719,31.7636,15.749,58.9287,46.289,79.4082c4.2446,4.7373,9.1201,7.7519,14.084,8.4521
			c33.7256,18.2598,79.3335,29.7451,131.1353,32.457c111.9418,5.8788,210.2475-31.3593,213.8237-99.0498
			C599.4956,484.8673,560.9839,443.2389,501.771,418.8424z"/>
	</g>
	<g>
		<g>
			<g>
				<polygon fill="#EBD5B2" points="394.1372,222.3385 397.0757,226.9806 402.4057,225.5934 398.9243,229.8444 401.8823,234.4801 
					396.7602,232.4743 393.2534,236.7321 393.5757,231.2321 388.4663,229.2199 393.8022,227.8258 				"/>
				<path fill="#EBD5B2" d="M403.4145,235.7418l-6.4775-2.5356l-4.4209,5.3486l0.4219-6.9253l-6.4585-2.5356l6.7426-1.7407
					l0.4034-6.9258l3.7343,5.8535l6.7364-1.7471l-4.4151,5.3545L403.4145,235.7418L403.4145,235.7418z M396.5649,231.7428
					l3.8037,1.4883l-2.2011-3.4307l2.6044-3.1538l-3.9609,1.0342l-2.2012-3.4438l-0.2275,4.0683l-3.9609,1.0342l3.7841,1.4824
					l-0.2265,4.062L396.5649,231.7428L396.5649,231.7428z"/>
			</g>
		</g>
		<g>
			<g>
				<polygon fill="#EBD5B2" points="415.5063,281.2995 418.8296,286.5216 424.853,284.9635 420.9048,289.7448 424.2348,294.9669 
					418.477,292.7091 414.5532,297.484 414.9067,291.3024 409.1665,289.0382 415.1528,287.4801 				"/>
				<path fill="#EBD5B2" d="M425.9575,296.38l-7.2852-2.851l-4.9453,6.0234l0.4727-7.7959l-7.2529-2.8506l7.5371-1.9551
					l0.4736-7.7959l4.1875,6.5845l7.5684-1.9551l-4.9629,6.0171L425.9575,296.38L425.9575,296.38z M418.268,291.883l4.2764,1.6777
					l-2.4658-3.8599l2.8887-3.5385l-4.4336,1.1416l-2.4668-3.854l-0.2647,4.5732l-4.415,1.1475l4.2383,1.6718l-0.2774,4.585
					L418.268,291.883L418.268,291.883z"/>
			</g>
		</g>
		<g>
			<g>
				<polygon fill="#EBD5B2" points="415.2602,330.1305 418.5835,335.359 424.6069,333.7887 420.646,338.5758 423.9702,343.7858 
					418.2114,341.5338 414.27,346.3151 414.6606,340.1276 408.8833,337.8566 414.8686,336.3053 				"/>
				<path fill="#EBD5B2" d="M425.6987,345.2047l-7.2725-2.851l-4.9638,6.0171l0.4726-7.7891l-7.2656-2.8511l7.5684-1.9614
					l0.4736-7.7896l4.1875,6.5845l7.5566-1.9614l-4.9511,6.0171L425.6987,345.2047L425.6987,345.2047z M418.0034,340.7077
					l4.2764,1.6714l-2.4786-3.8541l2.92-3.538l-4.4532,1.1416l-2.4472-3.8536l-0.2832,4.5792l-4.4346,1.1538l4.2578,1.6587
					l-0.2588,4.5791L418.0034,340.7077L418.0034,340.7077z"/>
			</g>
		</g>
		<g>
			<g>
				<polygon fill="#EBD5B2" points="444.5444,369.7399 447.894,374.9625 453.8735,373.4108 449.9311,378.1793 453.2798,383.4079 
					447.5024,381.15 443.561,385.9245 443.9331,379.7497 438.1548,377.4792 444.1792,375.9215 				"/>
				<path fill="#EBD5B2" d="M454.9643,384.8146l-7.2666-2.8511l-4.9443,6.0425l0.4726-7.8081l-7.2841-2.8511l7.5869-1.9555
					l0.4541-7.7959l4.2265,6.5722l7.5303-1.9551l-4.9443,6.0298L454.9643,384.8146L454.9643,384.8146z M447.2759,380.3302
					l4.2763,1.6778l-2.4668-3.8726l2.9268-3.5386l-4.4404,1.148l-2.46-3.8662l-0.3027,4.5849l-4.4336,1.148l4.2763,1.6777
					l-0.2841,4.5669L447.2759,380.3302L447.2759,380.3302z"/>
			</g>
		</g>
		<g>
			<g>
				<polygon fill="#EBD5B2" points="378.0844,362.3605 381.4272,367.5832 387.4131,366.025 383.4712,370.8063 386.8139,376.0285 
					381.0552,373.7643 377.1133,378.5514 377.4853,372.3639 371.708,370.0871 377.7314,368.5417 				"/>
				<path fill="#EBD5B2" d="M388.5356,377.4538l-7.2846-2.8824l-4.9449,6.0425l0.4727-7.8022l-7.2656-2.8511l7.5498-1.9614
					l0.4726-7.7896l4.1885,6.585l7.5684-1.9741l-4.9639,6.0297L388.5356,377.4538L388.5356,377.4538z M380.8471,372.9381
					l4.2574,1.6905l-2.4659-3.8731l2.9078-3.5381l-4.4341,1.1416l-2.4663-3.854l-0.2837,4.5791l-4.4341,1.148l4.2764,1.6777
					l-0.2774,4.5728L380.8471,372.9381L380.8471,372.9381z"/>
			</g>
		</g>
		<g>
			<g>
				<polygon fill="#EBD5B2" points="316.2671,371.2726 319.5908,376.5016 325.6142,374.9499 321.6533,379.7311 324.9961,384.9596 
					319.2251,382.6764 315.2954,387.4762 315.6675,381.2824 309.8965,379.0182 315.8945,377.4601 				"/>
				<path fill="#EBD5B2" d="M326.7055,386.3659l-7.2534-2.857l-4.9638,6.0235l0.4731-7.7959l-7.2852-2.857l7.5689-1.9492
					l0.4731-7.7959l4.188,6.5723l7.5689-1.9424l-4.9639,6.0171L326.7055,386.3659L326.7055,386.3659z M319.0102,381.8688
					l4.2578,1.6846l-2.4409-3.8731l2.9014-3.5381l-4.4341,1.1475l-2.4663-3.8599l-0.2837,4.5728l-4.4341,1.1479l4.2764,1.6714
					l-0.2778,4.5855L319.0102,381.8688L319.0102,381.8688z"/>
			</g>
		</g>
		<g>
			<g>
				<polygon fill="#EBD5B2" points="354.2871,322.8708 357.6113,328.0866 363.6157,326.5353 359.6733,331.3288 362.9975,336.5387 
					357.2456,334.2804 353.2968,339.0553 353.688,332.8737 347.9106,330.6032 353.915,329.0583 				"/>
				<path fill="#EBD5B2" d="M364.726,337.945l-7.2724-2.8506l-4.9453,6.0361l0.4541-7.7959l-7.2471-2.8637l7.5498-1.9615
					l0.4736-7.7895l4.1875,6.5844l7.5567-1.9614l-4.9512,6.0171L364.726,337.945L364.726,337.945z M357.0307,333.4542l4.2578,1.6841
					l-2.4472-3.8725l2.9072-3.5513l-4.4336,1.1543l-2.4663-3.8535l-0.2837,4.5664l-4.4341,1.1479l4.2574,1.69l-0.2588,4.5732
					L357.0307,333.4542L357.0307,333.4542z"/>
			</g>
		</g>
		<g>
			<g>
				<polygon fill="#EBD5B2" points="372.3637,272.4313 375.7065,277.6598 381.6924,276.1081 377.7632,280.8893 381.0932,286.1178 
					375.3218,283.8346 371.3926,288.6217 371.7646,282.4469 365.9873,280.1828 371.9917,278.6247 				"/>
				<path fill="#EBD5B2" d="M382.8022,287.5182l-7.272-2.8574l-4.9638,6.0303l0.4917-7.7901l-7.2847-2.8696l7.5689-1.9487
					l0.4541-7.7832l4.207,6.5654l7.5557-1.9551l-4.9512,6.0425L382.8022,287.5182L382.8022,287.5182z M375.1074,283.0275
					l4.2764,1.6714l-2.4595-3.8535l2.9014-3.5577l-4.4341,1.1607l-2.4663-3.8726l-0.2837,4.585l-4.4341,1.1543l4.2573,1.6719
					l-0.2583,4.5791L375.1074,283.0275L375.1074,283.0275z"/>
			</g>
		</g>
	</g>
	<g id="witch-stamp-face">
		<path fill="#F3E6D1" d="M410.6811,572.9167c-49.0205,0.9531-53.4926-29.9278-53.7007-39.6915
			c-1.0029,44.0497,8.8682,43.5771,8.8682,43.5771c-48.352,9.3789-55.1826-17.4649-55.1826-17.4649
			c-20.1709,38.4551-27.3359,36.0782-30.1489,56.6456c28.1113,37.8056,73.6816,58.9736,131.0966,51.7197
			c35.1006-4.4404,70.7745-23.1729,93.626-54.6016C489.5913,590.609,426.8022,572.6012,410.6811,572.9167z"/>
		<g id="witch-stamp-eyes">
			<g id="witch-stamp-eye-right">
				<g>
					<path fill="#513E31" d="M460.3003,616.3043c4.0302-2.7245,5.5634-8.666,5.5634-8.666
						c-0.9531,2.586-4.9834,4.7627-8.2949,5.6953c-0.334-0.3339-0.6679-0.6992-1.0342-1.0468
						c3.3428-3.0147,3.8731-7.9151,3.8731-7.9151c-1.0225,2.378-3.9609,4.6045-6.8125,5.336
						c-0.5674-0.4668-1.1787-0.9082-1.8164-1.3496c2.7314-3.0088,2.416-6.4336,2.416-6.4336
						c-0.4795,2.289-3.4502,3.9423-5.6006,4.5976c-5.998-2.8506-13.6933-3.2607-22.126,4.7871
						c-7.9541,7.6006-9.2216,13.208-9.2216,13.208c3.1533-3.9043,11.6689-16.4375,25.999-14.8476
						c14.2041,1.5576,15.7676,13.8574,24.1123,8.5713C466.5825,618.651,463.7124,619.7047,460.3003,616.3043z"/>
				</g>
			</g>
			<g id="witch-stamp-eye-left">
				<g>
					<path fill="#513E31" d="M320.1899,615.7936c-3.9609-2.7939-5.3672-8.7793-5.3672-8.7793
						c0.8955,2.6045,4.8941,4.8565,8.1485,5.8594c0.3344-0.334,0.7065-0.669,1.0537-1.0215
						c-3.2549-3.0781-3.6773-7.9912-3.6773-7.9912c0.9527,2.415,3.8726,4.6855,6.6919,5.4678
						c0.5615-0.4473,1.1924-0.8702,1.8482-1.2862c-2.6743-3.0781-2.2896-6.497-2.2896-6.497
						c0.4414,2.3027,3.3618,3.999,5.5254,4.7177c6.0361-2.7373,13.731-2.9834,22.0059,5.2295
						c7.7959,7.7637,8.9375,13.4024,8.9375,13.4024c-3.0464-3.9668-11.3531-16.6827-25.6958-15.4024
						c-14.2232,1.2803-16.0396,13.5479-24.2769,8.0987C313.8701,617.9958,316.7085,619.1305,320.1899,615.7936z"/>
				</g>
			</g>
		</g>
		<g id="witch-stamp-weaves">
			<g>
				<path fill="#EAE0CF" d="M285.2539,735.3678c-4.9321,0.9649-9.6314-5.9853-11.0064-8.206
					c-2.3589,1.2929-9.7636,4.958-13.5478,1.7158c-2.5547-2.1826,1.936-3.4375,0.1006-9.1396
					c-1.9361-6.0421,13.9267,6.3008,13.9267,6.3008l0.1006,0.2715c4.0181-0.6182,18.8526-2.7187,14.8037,1.0215
					C285.2539,731.4127,288.5591,734.7057,285.2539,735.3678z"/>
			</g>
			<g>
				<path fill="#F88C24" d="M396.0034,648.0055c-4.1943-0.3916-8.502,0.7256-9.6499,2.5098
					c-1.1226,1.7724,1.3559,3.539,5.5444,3.9365c4.1944,0.3848,8.5205-0.7383,9.6309-2.5166
					C402.6704,650.1432,400.1919,648.403,396.0034,648.0055z"/>
				<path fill="#F88C24" d="M445.27,629.6696c-1.1797,0.0762-2.044,1.1924-1.9746,2.2519c0.0889,1.167,1.0723,2.1641,2.2715,2.0938
					c1.1787-0.082,2.1631-1.204,2.0937-2.3965C447.5718,630.5846,446.4682,629.5875,445.27,629.6696z"/>
				<path fill="#F88C24" d="M456.2192,628.945c-1.1982,0.082-2.0625,1.1855-1.9932,2.2519c0.0889,1.1914,1.0723,2.169,2.252,2.0869
					c1.1982-0.082,2.0244-1.1982,1.9551-2.3652C458.3833,629.8717,457.3989,628.8756,456.2192,628.945z"/>
				<path fill="#F88C24" d="M434.478,630.3825c-1.1797,0.0761-2.0244,1.1924-1.9551,2.2392
					c0.0879,1.1924,1.0596,2.1826,2.2393,2.1065c1.1797-0.0821,2.0371-1.1983,1.9678-2.3781
					C436.6411,631.2975,435.6762,630.3004,434.478,630.3825z"/>
				<path fill="#F88C24" d="M451.3442,637.5983c-1.041,0.0566-2.0254,1.1797-1.9365,2.3652
					c0.0693,1.1856,1.1797,2.0313,2.2324,1.9746c1.1797-0.082,2.1826-1.0595,2.0947-2.2461
					C453.6645,638.5006,452.5552,637.4977,451.3442,637.5983z"/>
				<path fill="#F88C24" d="M440.2876,638.3366c-1.1797,0.0693-2.044,1.1855-1.9561,2.3652c0.0889,1.1914,1.0723,2.043,2.252,1.9736
					c1.1982-0.082,2.0439-1.0595,1.9746-2.252C442.4507,639.2448,441.4858,638.2477,440.2876,638.3366z"/>
				<path fill="#F88C24" d="M334.8862,629.4997c-1.1606,0.0058-2.0942,1.0722-2.0752,2.1191c0,1.1924,0.9336,2.2461,2.1128,2.2266
					c1.1792-0.0059,2.2329-1.0655,2.2329-2.252C337.144,630.5407,336.0654,629.4811,334.8862,629.4997z"/>
				<path fill="#F88C24" d="M345.8545,629.4049c-1.1988,0.0127-2.1128,1.0723-2.0943,2.1387c0,1.1787,0.9336,2.2324,2.1133,2.2139
					c1.1919-0.0069,2.0938-1.0596,2.0938-2.252C347.9673,630.4518,347.0337,629.3922,345.8545,629.4049z"/>
				<path fill="#F88C24" d="M324.0625,629.5875c-1.1792,0-2.0938,1.0723-2.0747,2.1133c0,1.1983,0.9331,2.2461,2.1255,2.2325
					c1.1792-0.0186,2.1001-1.0713,2.0815-2.2579C326.2134,630.6159,325.2612,629.569,324.0625,629.5875z"/>
				<path fill="#F88C24" d="M340.5058,637.7624c-1.0595,0.0185-2.1006,1.0722-2.1006,2.2646c0,1.1787,1.0601,2.0996,2.1133,2.0869
					c1.1983-0.0127,2.2578-0.9267,2.2388-2.1123C342.7573,638.8092,341.685,637.7555,340.5058,637.7624z"/>
				<path fill="#F88C24" d="M329.4111,637.8502c-1.1792,0.0197-2.0937,1.0723-2.0937,2.252
					c0.019,1.1924,0.9521,2.1133,2.1318,2.1064c1.1982-0.0186,2.1128-0.9337,2.0937-2.1191
					C331.5239,638.8913,330.6098,637.8317,329.4111,637.8502z"/>
				<path fill="#F88C24" d="M541.5132,731.8483c-11.8643-0.208-17.6358-5.6387-20.1143-9.0449
					c8.1621-0.3214,18.335-8.7793,0.334-36.3799c0,0,14.539-15.0117-4.9317-28.919c0,0,13.6934-9.7324,0.8633-32.2372
					c0,0,3.8731-6.4775,5.6836-17.2755c3.2227-10.3691,5.2471-25.1718,3.5381-44.29c-0.8955-10.2305-2.7812-21.583-6.2129-34.2676
					c-4.2764-15.8252-9.6621-28.7734-17.9687-39.206c-11.1075-13.9453-27.5323-23.3496-53.7578-28.9317
					c-15.7178-3.3554-34.9551-5.3481-58.7208-6.1054c-4.2573-0.126-8.748-0.107-13.4091,0.101
					c-29.6758,1.3247-74.8423,4.2828-102.2349,45.8101c-2.7251,4.1436-3.0972,7.8965-6.9888,18.6006
					c-4.3642,11.9902-9.7129,27.4931-12.9487,39.6972c-0.7568,2.7881-1.4126,5.4375-1.8857,7.7901
					c-3.7847,18.4171,4.188,37.5156,12.4062,49.4678c0.9146,2.8759,2.5547,5.8095,5.1973,8.6601c0,0-15.7554,20.8965-2.3277,34.7529
					c0,0-10.1357,19.0293,4.0498,28.793c0,0-12.4633,25.6895-0.4418,34.7412c0.7573,0.5733,1.7978,1.0215,2.9584,1.3047
					c-8.0419,10.3252-25.4311,14.6211-25.4311,14.6211c9.8394,18.0381,44.2139,20.1582,32.8799,7.1777
					c-8.2373-9.4238-7.607-17.7675-6.6543-21.6718c8.2182,1.3623,21.8232-5.4307,4.1694-36.1602c0,0,15.3516-14.1728-3.3052-29.1523
					c0,0,14.0083-8.8496,2.8633-31.7198c0.1958-0.3154,0.3726-0.6806,0.4102-1.248c0-0.0889,0.0127-0.1514,0.0127-0.2402
					c1.5512-2.8887,5.4555-11.46,3.8725-22.2139c4.106-10.0791,11.9019-15.6992,27.2476-44.9649c0,0,6.8306,26.8438,55.1826,17.4649
					c0,0-9.8711,0.4726-8.8682-43.5771c0.2081,9.7637,4.6802,40.6446,53.7007,39.6915
					c15.0869-0.2959,71.0069,15.4472,90.9512,35.9013c0.668,5.0528,2.7051,10.2178,7.3223,14.6709
					c0,0-14.545,21.7471-0.3536,34.8164c0,0-9.0312,19.5908,5.6641,28.5147c0,0-11.0185,26.3779,1.5137,34.7226
					c1.1103,0.7559,2.7627,1.211,4.5986,1.293c2.2012,12.873-6.2129,28.5908-6.2129,28.5908
					C534.1401,756.2067,558.7446,732.1198,541.5132,731.8483z"/>
			</g>
			<g>
				<path fill="#EAE0CF" d="M514.019,733.5075c5.0205,0.3467,8.7862-7.166,9.8399-9.5498c2.5166,0.9902,10.331,3.665,13.6806-0.044
					c2.2324-2.4912-2.3779-3.1601-1.2871-9.0576c1.1416-6.2246-12.9931,8.0674-12.9931,8.0674l-0.0879,0.2773
					c-4.043-0.1006-19.0225-0.2646-14.5381,2.9268C513.5083,729.6032,510.6762,733.2868,514.019,733.5075z"/>
			</g>
		</g>
	</g>
</g>
<g id="witch-stamp-text">
	<path fill="#EBD5B2" d="M169.395,792.7204c0.1455,0,0.1455,0.0879,0.1455,0.1757c0,0.3731-0.1455,0.9971-0.3535,0.9971
		l-2.1699,0.5361c-0.5801,0.0948-0.7881,0.4541-0.7881,0.9083c-0.2842,6.0234-0.5108,20.6181-0.5108,22.246
		c0,0.9962,0.1387,1.1729,0.7945,1.2608c3.5322,0.082,9.7319,0.2715,12.8291,0.1709c0.1386-2.7754-0.1387-21.874-0.1387-22.959
		c0-1.085-0.2144-1.5322-0.7949-1.627l-2.1636-0.5361c-0.2144-0.0889-0.3721-0.5361-0.3721-0.9971c0-0.0878,0-0.1757,0.1577-0.1757
		h11.5992c0.1455,0,0.1455,0.0879,0.1455,0.2705c0,0.3661-0.1455,0.9023-0.2842,0.9023l-1.6714,0.4473
		c-0.4917,0.0887-0.7251,0.3661-0.7944,1.7158c-0.2085,3.2363-0.6309,18.1904-0.7886,23.8672
		c-0.0693,4.2324-0.4228,23.5957-0.4228,24.9512c0,1.0722,0.0698,1.4443,0.5805,1.6211l2.3018,0.8955
		c0.1455,0,0.2842,0.4609,0.2842,0.8076c0,0.0879,0,0.1894-0.1387,0.1894c-0.6499-0.1015-2.958-0.1894-5.0523-0.1894
		c-2.5166,0-4.6801,0.0879-5.6889,0.1894c-0.2276,0-0.2276-0.1015-0.2276-0.1894c0-0.3467,0.1577-0.7188,0.3721-0.8076
		l2.4473-0.8955c0.4355-0.1768,0.5805-0.3594,0.6499-1.085c0.1386-2.4277,0-22.5234,0-24.8633
		c-3.3116,0.1006-9.9468,0.4609-12.9741,0.6377c-0.5801,0-0.7188,0.2705-0.7188,0.8955
		c-0.1455,3.2481-0.4229,20.3662-0.2842,23.5137c0,0.6367,0.2144,0.9014,0.6494,0.9902l2.7315,0.8067
		c0.208,0.0888,0.3721,0.4609,0.3721,0.7197c0,0.1758,0,0.2773-0.1641,0.2773c-1.2803-0.1015-3.166-0.1894-5.8213-0.1894
		c-2.3086,0-4.1885,0.0879-5.2666,0.1894c-0.1392,0-0.1392-0.1015-0.1392-0.2773c0-0.2588,0.1392-0.6309,0.2837-0.7197
		l2.2329-0.8067c0.5113-0.1767,0.6499-0.3535,0.6499-1.3506c0-2.9707-0.1386-21.7979-0.1386-25.2226
		c0-3.4248-0.2969-22.334-0.2969-23.8662c0-0.9971-0.2144-1.6211-0.8638-1.7159l-1.8672-0.5361
		c-0.2143-0.0889-0.372-0.5361-0.372-0.9023c0-0.1826,0-0.2705,0.2334-0.2705H169.395z"/>
	<path fill="#EBD5B2" d="M206.2358,792.6315c1.23,0,2.3779,0,3.3115,0.0889c0.2271,0,0.3658,0.0879,0.4414,0.3593
		c1.7222,11.8887,5.9795,37.6543,8.4961,51.8838c0.1451,0.8955,0.4229,1.5323,0.8643,1.6211l1.8667,0.7188
		c0.2964,0.0879,0.4419,0.5488,0.4419,0.8955c0,0.0879,0,0.1894-0.2149,0.1894c-1.4443-0.1015-3.3237-0.1894-4.749-0.1894
		c-2.397,0-4.4028,0.0879-6.3579,0.1894c-0.1391,0-0.1391-0.1015-0.1391-0.1894c0-0.2589,0.0698-0.8076,0.3725-0.8955l2.939-0.7188
		c0.5107-0.0888,0.7192-0.5361,0.5801-1.2617c-0.9332-4.5918-2.5166-12.6084-3.4498-17.0303
		c-2.5356,0.0948-8.8051,0.2842-11.3217,0.461c-0.3467,0-0.5801,0.3593-0.6494,0.8955c-0.5806,3.9609-1.6529,10.8926-2.1636,15.4911
		c-0.1387,1.1787,0.1577,1.3555,0.5805,1.4443l2.9581,0.7188c0.208,0.0879,0.4223,0.4599,0.4223,0.8955
		c0,0.1894-0.0693,0.1894-0.2143,0.1894c-1.4444-0.1015-3.3809-0.1894-5.4746-0.1894c-1.7916,0-3.3746,0.0879-4.4659,0.1894
		c-0.145,0-0.145-0.1015-0.145-0.2773c0-0.2588,0.0693-0.7197,0.2837-0.8076l1.6025-0.542
		c0.5611-0.2656,0.8638-0.5303,1.1416-1.6212c2.586-11.9717,7.8526-38.0898,10.5957-50.4336
		c0.2842-1.4375,1.003-2.0752,2.378-2.0752H206.2358z M204.7221,797.4001c-0.208,1.2675-0.4414,2.5292-0.58,3.2421
		c-1.4444,7.5684-3.5196,18.7452-4.6802,24.8692c-0.0693,0.5361,0,0.7256,0.2964,0.8135c2.5859,0.2587,8.061,0.625,10.5776,0.5361
		c-0.8579-4.8692-3.3745-18.3789-4.8188-26.0361c-0.1451-0.9903-0.3536-2.1573-0.6563-3.4248H204.7221z"/>
	<path fill="#EBD5B2" d="M224.9814,794.612c-0.2778,0-0.4922-0.4473-0.4922-0.9961c0-0.0821,0.0694-0.1709,0.2144-0.1709
		c1.9492-0.3653,6.5596-1.085,11.5996-1.085c8.7983,0,13.2515,6.3076,13.2515,14.8662c0,8.6416-5.3169,18.0078-14.1851,18.0078
		c-0.6562,0-1.6592,0-2.2393-0.1767c-0.0693,3.2353-0.2773,18.2851-0.2773,20.0829c0,0.9962,0.208,1.1787,0.7188,1.2676
		l3.7465,0.8955c0.2144,0.0879,0.3531,0.5488,0.3531,0.8955c0,0.0879,0,0.1894-0.1387,0.1894
		c-1.8858-0.1015-4.4717-0.1894-6.5659-0.1894c-1.9361,0-4.314,0.0879-5.6826,0.1894c-0.1451,0-0.1451-0.1015-0.1451-0.1894
		c0-0.3467,0.0694-0.7188,0.2837-0.8076l2.4473-0.8067c0.5107-0.1767,0.6499-0.3535,0.6499-1.3506
		c0.0693-3.4248-0.0698-21.8857-0.0698-25.7589c-0.0694-3.6074-0.2144-21.5262-0.2144-23.2353c0-1.0029-0.2964-1.4453-1.0156-1.4453
		L224.9814,794.612z M235.2241,823.7008c3.5957,0,8.7861-4.5849,8.7861-15.667c0-7.5683-3.3803-14.2296-8.2055-14.2296
		c-1.8101,0-2.0943,0.7198-2.0943,1.6212c-0.3657,10.0918-0.5801,24.9454-0.5801,26.8379c0,1.085,0.795,1.4375,2.0245,1.4375
		H235.2241z"/>
	<path fill="#EBD5B2" d="M254.5561,794.612c-0.2837,0-0.5107-0.4473-0.5107-0.9961c0-0.0821,0.0693-0.1709,0.227-0.1709
		c1.9361-0.3653,6.5469-1.085,11.5992-1.085c8.7861,0,13.2514,6.3076,13.2514,14.8662c0,8.6416-5.3296,18.0078-14.2036,18.0078
		c-0.6309,0-1.6528,0-2.2139-0.1767c-0.0888,3.2353-0.3027,18.2851-0.3027,20.0829c0,0.9962,0.2139,1.1787,0.7251,1.2676
		l3.7466,0.8955c0.2143,0.0879,0.353,0.5488,0.353,0.8955c0,0.0879,0,0.1894-0.1387,0.1894
		c-1.8667-0.1015-4.4721-0.1894-6.5532-0.1894c-1.9492,0-4.3271,0.0879-5.7021,0.1894c-0.1387,0-0.1387-0.1015-0.1387-0.1894
		c0-0.3467,0.0693-0.7188,0.2969-0.8076l2.4472-0.8067c0.4917-0.1767,0.6558-0.3535,0.6558-1.3506
		c0.0693-3.4248-0.0884-21.8857-0.0884-25.7589c-0.0757-3.6074-0.2143-21.5262-0.2143-23.2353c0-1.0029-0.2837-1.4453-1.003-1.4453
		L254.5561,794.612z M264.7802,823.7008c3.608,0,8.7989-4.5849,8.7989-15.667c0-7.5683-3.3931-14.2296-8.2183-14.2296
		c-1.7978,0-2.0942,0.7198-2.0942,1.6212c-0.3531,10.0918-0.5611,24.9454-0.5611,26.8379c0,1.085,0.7881,1.4375,2.0054,1.4375
		H264.7802z"/>
	<path fill="#EBD5B2" d="M311.7759,792.7204c0.2148,0,0.2148,0.0879,0.2148,0.1757c0,0.549-0.1455,0.9082-0.3535,0.9971
		l-1.0215,0.4473c-0.6499,0.1836-0.9336,0.5428-1.2871,1.5331c-2.8823,8.1992-7.146,21.1738-9.2905,27.4746
		c-0.5108,1.3564-0.7251,2.2519-0.7945,3.7842c-0.2275,4.5039-0.1577,15.5791-0.1577,18.373c0,0.8135,0.1577,0.9903,0.5801,1.167
		l2.5166,0.7188c0.227,0.0888,0.3721,0.4609,0.3721,0.8076c0,0.0879,0,0.1894-0.2144,0.1894
		c-1.7407-0.1015-3.4629-0.1894-5.4873-0.1894c-2.0122,0-4.1753,0.0879-5.4746,0.1894c-0.1455,0-0.1455-0.1015-0.1455-0.1894
		c0-0.3467,0.0762-0.7188,0.3725-0.8076l2.5166-0.8067c0.5108-0.0888,0.5801-0.3535,0.5801-1.3506
		c0-2.9707-0.227-14.588-0.3657-18.1015c-0.0757-0.9961-0.3535-1.8985-0.5869-2.7119c-2.3018-7.2852-6.2627-19.8116-9.2207-28.9952
		c-0.2085-0.4541-0.6309-0.9962-1.1416-1.0849l-1.375-0.4473c-0.2842-0.0889-0.3535-0.624-0.3535-0.9971
		c0-0.0878,0-0.1757,0.2143-0.1757h12.1099c0.1391,0,0.2085,0.0879,0.2085,0.1757c0,0.549-0.2085,0.9971-0.4419,0.9971
		l-2.4404,0.5361c-0.3536,0.0948-0.6563,0.3653-0.4229,1.1797c1.7915,7.4678,4.541,17.6543,6.3325,24.3145
		c0.2144,0.624,0.6499,2.4277,0.8643,3.5127h0.2837c0.3657-1.3555,0.7885-2.7881,1.0156-3.5127
		c2.0117-6.9317,4.314-15.5859,6.1309-23.8672c0.208-1.085,0.1386-1.4443-0.3726-1.5322l-2.5166-0.6309
		c-0.2837,0-0.4414-0.5361-0.4414-0.9023c0-0.1826,0-0.2705,0.227-0.2705H311.7759z"/>
	<path fill="#EBD5B2" d="M347.1914,792.7204c0.1391,0,0.1391,0.0879,0.1391,0.1757c0,0.3731-0.1391,0.9971-0.3662,0.9971
		l-2.1699,0.5361c-0.561,0.0948-0.7881,0.4541-0.7881,0.9083c-0.2837,6.0234-0.4922,20.6181-0.4922,22.246
		c0,0.9962,0.1387,1.1729,0.7886,1.2608c3.5195,0.082,9.7197,0.2715,12.8164,0.1709c0.1577-2.7754-0.1387-21.874-0.1387-22.959
		c0-1.085-0.2143-1.5322-0.7949-1.627l-2.1631-0.5361c-0.2143-0.0889-0.3535-0.5361-0.3535-0.9971c0-0.0878,0-0.1757,0.1392-0.1757
		h11.5986c0.1455,0,0.1455,0.0879,0.1455,0.2705c0,0.3661-0.1455,0.9023-0.2842,0.9023l-1.6523,0.4473
		c-0.5107,0.0887-0.7256,0.3661-0.7949,1.7158c-0.208,3.2363-0.6494,18.1904-0.7881,23.8672
		c-0.0757,4.2324-0.4414,23.5957-0.4414,24.9512c0,1.0722,0.0693,1.4443,0.5801,1.6211l2.3022,0.8955
		c0.145,0,0.2837,0.4609,0.2837,0.8076c0,0.0879,0,0.1894-0.1387,0.1894c-0.6499-0.1015-2.958-0.1894-5.0332-0.1894
		c-2.5356,0-4.6865,0.0879-5.708,0.1894c-0.2085,0-0.2085-0.1015-0.2085-0.1894c0-0.3467,0.1392-0.7188,0.3535-0.8076l2.4659-0.8955
		c0.4165-0.1768,0.5615-0.3594,0.6308-1.085c0.1577-2.4277,0-22.5234,0-24.8633c-3.311,0.1006-9.9277,0.4609-12.9551,0.6377
		c-0.5805,0-0.7192,0.2705-0.7192,0.8955c-0.1641,3.2481-0.4414,20.3662-0.3027,23.5137c0,0.6367,0.227,0.9014,0.6499,0.9902
		l2.75,0.8067c0.208,0.0888,0.353,0.4609,0.353,0.7197c0,0.1758,0,0.2773-0.145,0.2773c-1.2993-0.1015-3.1665-0.1894-5.8404-0.1894
		c-2.3086,0-4.1757,0.0879-5.248,0.1894c-0.1577,0-0.1577-0.1015-0.1577-0.2773c0-0.2588,0.1577-0.6309,0.2964-0.7197l2.2392-0.8067
		c0.4922-0.1767,0.6309-0.3535,0.6309-1.3506c0-2.9707-0.1387-21.7979-0.1387-25.2226c0-3.4248-0.2842-22.334-0.2842-23.8662
		c0-0.9971-0.208-1.6211-0.8574-1.7159l-1.8862-0.5361c-0.208-0.0889-0.353-0.5361-0.353-0.9023c0-0.1826,0-0.2705,0.2143-0.2705
		H347.1914z"/>
	<path fill="#EBD5B2" d="M384.0136,792.6315c1.2359,0,2.3965,0,3.3301,0.0889c0.208,0,0.3472,0.0879,0.4224,0.3593
		c1.7412,11.8887,5.9795,37.6543,8.4961,51.8838c0.164,0.8955,0.4414,1.5323,0.8828,1.6211l1.8672,0.7188
		c0.2969,0.0879,0.4414,0.5488,0.4414,0.8955c0,0.0879,0,0.1894-0.2149,0.1894c-1.4433-0.1015-3.3232-0.1894-4.7675-0.1894
		c-2.378,0-4.4024,0.0879-6.3389,0.1894c-0.1387,0-0.1387-0.1015-0.1387-0.1894c0-0.2589,0.0694-0.8076,0.3531-0.8955l2.9585-0.7188
		c0.5039-0.0888,0.7187-0.5361,0.58-1.2617c-0.9531-4.5918-2.5356-12.6084-3.4692-17.0303
		c-2.5166,0.0948-8.7861,0.2842-11.3218,0.461c-0.3467,0-0.561,0.3593-0.6308,0.8955c-0.5801,3.9609-1.6709,10.8926-2.1631,15.4911
		c-0.1451,1.1787,0.1386,1.3555,0.58,1.4443l2.9395,0.7188c0.227,0.0879,0.4414,0.4599,0.4414,0.8955
		c0,0.1894-0.0757,0.1894-0.2144,0.1894c-1.4443-0.1015-3.3935-0.1894-5.475-0.1894c-1.8101,0-3.3931,0.0879-4.4717,0.1894
		c-0.1387,0-0.1387-0.1015-0.1387-0.2773c0-0.2588,0.0693-0.7197,0.2837-0.8076l1.5835-0.542
		c0.5801-0.2656,0.8638-0.5303,1.1601-1.6212c2.586-11.9717,7.8526-38.0898,10.5777-50.4336
		c0.3027-1.4375,1.0215-2.0752,2.3774-2.0752H384.0136z M382.5185,797.4001c-0.227,1.2675-0.4414,2.5292-0.58,3.2421
		c-1.4444,7.5684-3.5386,18.7452-4.6802,24.8692c-0.0757,0.5361,0,0.7256,0.2773,0.8135c2.5864,0.2587,8.0801,0.625,10.5967,0.5361
		c-0.8643-4.8692-3.3936-18.3789-4.8188-26.0361c-0.1641-0.9903-0.3721-2.1573-0.6558-3.4248H382.5185z"/>
	<path fill="#EBD5B2" d="M415.4682,792.7204c0.1387,0,0.1387,0.0879,0.1387,0.1757c0,0.3731-0.1387,0.8077-0.3467,0.9082
		l-2.3779,0.625c-0.7256,0.1827-0.9531,0.9083-1.0225,1.8985c-0.2832,5.1339-0.5605,18.1904-0.7187,22.7881
		c-0.0762,3.6836-0.3535,25.04-0.3535,26.6543c0,0.8144,0.2773,0.9912,0.789,0.9912c2.5166,0,6.3389-0.2656,9.0821-0.8145
		c0.8642-0.2646,1.4443-0.7129,1.7978-1.6211l2.8194-6.6601c0.0693-0.088,0.1386-0.088,0.208-0.088c0.1386,0,0.58,0.5361,0.58,0.713
		l-1.375,9.4726c-0.0693,0.4356-0.2773,0.7129-0.58,0.7129c-0.2774,0-1.6524-0.0879-4.2383-0.1894
		c-2.5362,0-6.2002-0.0879-11.1768-0.0879c-1.7978,0-3.4502,0.0879-5.8281,0.1894c-0.1572,0-0.1572-0.1015-0.1572-0.2773
		c0-0.2588,0.1572-0.7197,0.3652-0.8076l2.3779-0.6309c0.5118-0.1767,0.7256-0.4414,0.7256-1.4385
		c0.0694-2.9707-0.0752-21.7979-0.0752-25.2226c0-3.4248,0-21.6154-0.1386-23.5957c0-0.9903-0.2276-1.709-0.9532-1.9865
		l-2.0752-0.625c-0.2265-0.1005-0.2959-0.5351-0.2959-0.9082c0-0.0878,0-0.1757,0.1387-0.1757H415.4682z"/>
	<path fill="#EBD5B2" d="M442.9995,792.7204c0.1572,0,0.1572,0.0879,0.1572,0.1757c0,0.3731-0.1572,0.8077-0.3721,0.9082
		l-2.3711,0.625c-0.7255,0.1827-0.9335,0.9083-1.0097,1.8985c-0.2959,5.1339-0.5801,18.1904-0.7188,22.7881
		c-0.0693,3.6836-0.372,25.04-0.372,26.6543c0,0.8144,0.3027,0.9912,0.7949,0.9912c2.5351,0,6.3515-0.2656,9.082-0.8145
		c0.8643-0.2646,1.4444-0.7129,1.8106-1.6211l2.8007-6.6601c0.0694-0.088,0.1446-0.088,0.2139-0.088
		c0.1582,0,0.5801,0.5361,0.5801,0.713l-1.375,9.4726c-0.0693,0.4356-0.2832,0.7129-0.5615,0.7129
		c-0.3028,0-1.6582-0.0879-4.2637-0.1894c-2.5156,0-6.1934-0.0879-11.1572-0.0879c-1.8096,0-3.4688,0.0879-5.8409,0.1894
		c-0.1445,0-0.1445-0.1015-0.1445-0.2773c0-0.2588,0.1445-0.7197,0.3535-0.8076l2.377-0.6309
		c0.5117-0.1767,0.7197-0.4414,0.7197-1.4385c0.0693-2.9707-0.0693-21.7979-0.0693-25.2226c0-3.4248,0-21.6154-0.1387-23.5957
		c0-0.9903-0.2148-1.709-0.9336-1.9865l-2.0947-0.625c-0.2139-0.1005-0.2832-0.5351-0.2832-0.9082c0-0.0878,0-0.1757,0.1387-0.1757
		H442.9995z"/>
	<path fill="#EBD5B2" d="M469.0298,848.9245c-7.128,0-11.9532-8.0987-11.9532-25.5762c0-17.4775,5.1094-31.3477,14.1162-31.3477
		c8.1368,0,11.8829,10.628,11.8829,26.0303c0,20.1709-5.752,30.8936-13.9766,30.8936H469.0298z M469.894,847.4801
		c4.9131,0,7.7764-10.8925,7.7764-28.9004c0-12.8857-1.791-25.2227-6.9824-25.2227c-5.5498,0-8.2051,13.7812-8.2051,29.3535
		c0,15.5801,3.0078,24.7695,7.3418,24.7695H469.894z"/>
	<path fill="#EBD5B2" d="M500.2573,846.2311c0.208-0.9971,0.3525-2.0752,0.5801-3.0654
		c2.0058-11.1768,6.1933-34.1475,8.0605-46.3965c0.3028-1.709,0.5108-1.8858,2.3086-2.0625
		c0.5108-0.0947,1.2295-0.0947,1.4444-0.0947c0.2773,0,0.4355,0.0947,0.4355,0.3593c1.002,7.2979,5.0331,36.9297,6.7607,48.3711
		c0.1582,0.9834,0.2969,1.9805,0.5108,2.8887h0.209c0.164-0.9082,0.3027-1.8164,0.4414-2.8008
		c1.4443-11.0693,3.9609-34.1289,4.9638-47.1904c0.1573-1.2686,0-1.6279-0.4921-1.8106l-2.9581-0.5361
		c-0.208,0-0.2773-0.5361-0.2773-0.9023c0-0.1826,0-0.2705,0.1387-0.2705h10.0849c0.1387,0,0.1387,0.0879,0.1387,0.2705
		c0,0.4541-0.0693,0.8134-0.2773,0.9023l-1.4444,0.5361c-0.5107,0.1827-0.7256,0.8077-0.8642,1.3555
		c-1.1602,7.1084-6.7041,44.4102-8.0108,50.7998c-0.3525,1.6143-0.7881,1.7022-3.3799,1.8037h-1.6533
		c-0.2959,0-0.4414-0.1894-0.5107-0.4482c-1.375-7.4805-4.6797-26.3955-5.8399-34.501c-0.1455-0.8135-0.4228-2.8887-0.6377-5.4932
		h-0.3652c-0.3535,2.7881-0.7949,4.7686-1.0791,6.3008c-1.2988,6.4014-5.3291,26.4844-6.9883,32.6084
		c-0.3662,1.3438-0.7187,1.4317-3.6767,1.5332h-1.4444c-0.2783,0-0.3662-0.1015-0.5107-0.5361
		c-1.3506-8.0293-4.8887-41.8936-6.0557-52.6152c-0.0693-0.5303-0.1386-0.8077-0.5615-0.8965l-1.7402-0.4473
		c-0.2842,0-0.3535-0.5361-0.3535-0.9971c0-0.0878,0.0693-0.1757,0.2148-0.1757h12.1787c0.1397,0,0.1397,0.0879,0.1397,0.1757
		c0,0.461-0.1397,0.9971-0.3536,0.9971l-2.8134,0.4473c-0.4229,0.0887-0.7256,0.454-0.7256,1.0849
		c0.373,7.5694,2.6054,35.7559,3.7529,47.1973c0.0693,0.9844,0.208,2.3408,0.3662,3.6084H500.2573z"/>
	<path fill="#EBD5B2" d="M557.6411,848.029c-0.0762,0.3593-0.2149,0.5419-0.5811,0.5419c-0.2832,0-1.3056-0.0947-3.6132-0.1826
		c-2.3721-0.1015-6.0362-0.1894-11.7383-0.1894c-1.8672,0-4.0996,0.0879-5.8282,0.1894c-0.1572,0-0.1572-0.1015-0.1572-0.1894
		c0-0.2589,0.0694-0.8076,0.3721-0.8955l2.3779-0.7188c0.4219-0.0888,0.7188-0.4482,0.7188-1.4443
		c0.1386-2.6934,0-22.5995,0-26.0244c-0.0694-3.4248-0.0694-20.9903-0.2149-23.0596c-0.082-0.9961-0.2265-1.4443-0.876-1.627
		l-2.1513-0.625c-0.2266-0.1005-0.2959-0.5351-0.2959-0.9082c0-0.1757,0-0.2646,0.1387-0.2646c1.3056,0,3.538,0.0889,5.4931,0.0889
		c11.1582,0,14.7656-0.1768,15.5606-0.1768c0.3535,0,0.4218,0.1768,0.4218,0.6367l0.1582,8.9942
		c0,0.3662-0.4414,0.7187-0.6494,0.7187c-0.0693,0-0.1386,0-0.2275-0.1767c-0.5674-2.3399-1.2861-4.503-1.9365-6.8428
		c-0.2139-0.7256-0.7246-0.9023-1.4444-1.0791c-2.0244-0.2704-6.2695-0.7188-7.6377-0.6299c-0.58,0-0.6562,0.1758-0.6562,0.542
		c-0.3467,5.9355-0.7188,21.0723-0.6494,23.6836c4.333,0.1895,9.5937,0.4541,11.1074,0.4541c0.1387,0,0.1387,0.082,0.1387,0.1709
		c0,0.4599-0.2774,1.1797-0.5108,1.1797c-1.5136,0.1758-6.6162,0.3525-10.0859,0.6367c-0.6494,0.0879-0.7881,0.3535-0.7881,0.9834
		c-0.0693,3.331-0.3535,21.9746-0.3535,23.6904c0,0.9024,0.1387,1.167,0.6504,1.167c3.1719,0,6.4765-0.1767,9.6494-0.7256
		c0.7891-0.1767,1.2998-0.624,1.6523-1.4316c0.8643-1.8926,1.7412-3.873,2.5362-5.7646c0.0693-0.1767,0.1386-0.1767,0.208-0.1767
		c0.2138,0,0.6494,0.4413,0.5801,0.8076L557.6411,848.029z"/>
	<path fill="#EBD5B2" d="M585.3237,848.029c-0.0693,0.3593-0.208,0.5419-0.581,0.5419c-0.2774,0-1.2989-0.0947-3.6075-0.1826
		c-2.3779-0.1015-6.0361-0.1894-11.7383-0.1894c-1.8662,0-4.0996,0.0879-5.8271,0.1894c-0.1582,0-0.1582-0.1015-0.1582-0.1894
		c0-0.2589,0.0693-0.8076,0.3721-0.8955l2.372-0.7188c0.4229-0.0888,0.7256-0.4482,0.7256-1.4443c0.1387-2.6934,0-22.5995,0-26.0244
		c-0.0703-3.4248-0.0703-20.9903-0.2148-23.0596c-0.0879-0.9961-0.2276-1.4443-0.877-1.627l-2.1504-0.625
		c-0.2275-0.1005-0.2968-0.5351-0.2968-0.9082c0-0.1757,0-0.2646,0.1386-0.2646c1.3057,0,3.5391,0.0889,5.4942,0.0889
		c11.1572,0,14.7656-0.1768,15.5595-0.1768c0.3536,0,0.4229,0.1768,0.4229,0.6367l0.1582,8.9942
		c0,0.3662-0.4413,0.7187-0.6504,0.7187c-0.0752,0-0.1445,0-0.2334-0.1767c-0.5615-2.3399-1.2803-4.503-1.9365-6.8428
		c-0.208-0.7256-0.7188-0.9023-1.4375-1.0791c-2.0244-0.2704-6.2695-0.7188-7.6445-0.6299c-0.5801,0-0.6495,0.1758-0.6495,0.542
		c-0.3535,5.9355-0.7197,21.0723-0.6494,23.6836c4.3262,0.1895,9.5928,0.4541,11.1065,0.4541c0.1386,0,0.1386,0.082,0.1386,0.1709
		c0,0.4599-0.2832,1.1797-0.5107,1.1797c-1.5137,0.1758-6.6161,0.3525-10.085,0.6367c-0.6494,0.0879-0.788,0.3535-0.788,0.9834
		c-0.0762,3.331-0.3536,21.9746-0.3536,23.6904c0,0.9024,0.1387,1.167,0.6495,1.167c3.166,0,6.4775-0.1767,9.6435-0.7256
		c0.7949-0.1767,1.3057-0.624,1.6592-1.4316c0.8574-1.8926,1.7411-3.873,2.5293-5.7646c0.0752-0.1767,0.1455-0.1767,0.2139-0.1767
		c0.2089,0,0.6503,0.4413,0.581,0.8076L585.3237,848.029z"/>
	<path fill="#EBD5B2" d="M599.5278,792.7204c0.3721,0,0.4414,0.0879,0.5859,0.4599c2.0186,6.9317,9.7325,33.2334,12.6026,43.1416
		c0.2959,0.8965,0.7187,2.4287,1.0908,3.6836l0.2773-0.2715v-3.9609c-0.0693-9.5361-0.1386-35.4844-0.3466-39.6279
		c-0.0752-1.085-0.4414-1.5332-1.167-1.7159l-2.3711-0.625c-0.2842-0.1005-0.3535-0.3593-0.3535-0.8134
		c0-0.1826,0-0.2705,0.1386-0.2705h9.4356c0.1387,0,0.1387,0.0879,0.1387,0.2705c0,0.4541-0.1387,0.8134-0.3526,0.9023
		l-1.5137,0.5361c-0.6503,0.2774-0.9277,0.3653-1.0029,1.9865c-0.0889,2.3398-0.5117,17.4717-0.7197,23.3242
		c-0.0693,3.5195-0.3721,23.331-0.5108,28.2891c0,0.2578,0,0.3593-0.208,0.4472c-0.4414,0.1836-1.2363,0.3594-1.747,0.3594
		c-0.4229,0-0.7881-0.1758-1.0723-0.8066c-3.2353-9.1905-10.5956-31.2657-14.5566-44.044
		c-0.2842-0.7197-0.6504-1.8984-0.9336-2.9707l-0.3662,0.0879v3.0596c-0.1455,8.4638-0.4981,36.9287-0.4981,41.0722
		c0,0.9024,0.1445,1.1739,0.5859,1.2618l3.0977,0.8076c0.1387,0.0879,0.3525,0.5488,0.3525,0.8955c0,0.0879,0,0.1894-0.1445,0.1894
		c-1.2998-0.1015-3.2363-0.1894-4.6113-0.1894s-2.958,0.0879-4.1875,0.1894c-0.1387,0-0.1387-0.1015-0.1387-0.2773
		c0-0.2588,0.1387-0.7197,0.3652-0.8076l2.3086-0.7188c0.4229-0.1767,0.6504-0.4482,0.6504-1.4443
		c0.0684-2.9648-0.1582-21.4395-0.1582-25.2168c0-3.4248-0.2842-21.4385-0.3535-23.5078c0-0.9903-0.2959-1.6212-1.0029-1.8916
		l-2.0938-0.5362c-0.3027-0.0947-0.4414-0.5429-0.4414-0.997c0-0.1826,0-0.2705,0.2276-0.2705H599.5278z"/>
</g>
</svg>
