<?xml version="1.0" encoding="iso-8859-1"?>
<!-- Generator: Adobe Illustrator 17.1.0, SVG Export Plug-In . SVG Version: 6.00 Build 0)  -->
<!DOCTYPE svg PUBLIC "-//W3C//DTD SVG 1.1//EN" "http://www.w3.org/Graphics/SVG/1.1/DTD/svg11.dtd">
<svg version="1.1" id="Capa_1" xmlns="http://www.w3.org/2000/svg" xmlns:xlink="http://www.w3.org/1999/xlink" x="0px" y="0px"
	 viewBox="0 0 452.082 452.082" style="enable-background:new 0 0 452.082 452.082;" xml:space="preserve">
<path style="fill:none;stroke:#000000;stroke-width:20;stroke-linecap:round;stroke-linejoin:round;stroke-miterlimit:10;" d="
	M389.301,96.92v90.922c0,0-20.129-21.065-41.695-24.486C298.275,155.532,246.28,230,226.041,230s-72.234-74.468-121.565-66.644
	c-21.567,3.421-41.695,24.486-41.695,24.486V96.92C31.186,123.051,10,171.091,10,226.041s21.186,102.99,52.781,129.121v-47.218
	c12.893,12.223,47.268,30.129,76.323,34.738c49.33,7.825,59.011-44.303,86.937-44.303s37.607,52.128,86.937,44.303
	c29.055-4.609,63.43-22.515,76.323-34.738v47.218c31.595-26.13,52.781-74.171,52.781-129.121S420.896,123.051,389.301,96.92z
	 M137.28,278.421c-21.338-8.949-33.595-30.424-31.84-52.297l91.46,38.359C182.526,281.064,158.617,287.37,137.28,278.421z
	 M314.802,278.421c-21.338,8.949-45.246,2.643-59.62-13.938l91.46-38.359C348.397,247.997,336.14,269.472,314.802,278.421z"/>
<g>
</g>
<g>
</g>
<g>
</g>
<g>
</g>
<g>
</g>
<g>
</g>
<g>
</g>
<g>
</g>
<g>
</g>
<g>
</g>
<g>
</g>
<g>
</g>
<g>
</g>
<g>
</g>
<g>
</g>
</svg>
