<?xml version="1.0" encoding="iso-8859-1"?>
<!-- Generator: Adobe Illustrator 17.1.0, SVG Export Plug-In . SVG Version: 6.00 Build 0)  -->
<!DOCTYPE svg PUBLIC "-//W3C//DTD SVG 1.1//EN" "http://www.w3.org/Graphics/SVG/1.1/DTD/svg11.dtd">
<svg version="1.1" id="Capa_1" xmlns="http://www.w3.org/2000/svg" xmlns:xlink="http://www.w3.org/1999/xlink" x="0px" y="0px"
	 viewBox="0 0 460 460" style="enable-background:new 0 0 460 460;" xml:space="preserve">
<g>
	<path style="fill:none;stroke:#000000;stroke-width:20;stroke-linecap:round;stroke-linejoin:round;stroke-miterlimit:10;" d="
		M230,91.972c-93.814,0-180.45,77.497-180.45,199.207c0,25.314,3.748,50.561,10.528,74.674
		C159.223,384.314,177.686,317.64,230,317.64s70.777,66.674,169.922,48.214c6.781-24.113,10.528-49.36,10.528-74.674
		C410.45,169.469,323.814,91.972,230,91.972z M145.255,295.581c-24.128-4.939-41.317-24.616-43.939-47.522
		c0,0,62.802-21.351,103.421,21.169C193.091,289.212,169.384,300.519,145.255,295.581z M314.745,295.581
		c-24.128,4.939-47.836-6.368-59.482-26.353c40.619-42.519,103.421-21.169,103.421-21.169
		C356.062,270.964,338.873,290.642,314.745,295.581z"/>
	
		<polyline style="fill:none;stroke:#000000;stroke-width:20;stroke-linecap:round;stroke-linejoin:round;stroke-miterlimit:10;" points="
		82.939,173.101 10,90.916 10,188.566 57.794,228.955 	"/>
	
		<line style="fill:none;stroke:#000000;stroke-width:20;stroke-linecap:round;stroke-linejoin:round;stroke-miterlimit:10;" x1="39.335" y1="168.662" x2="10" y2="139.741"/>
	
		<polyline style="fill:none;stroke:#000000;stroke-width:20;stroke-linecap:round;stroke-linejoin:round;stroke-miterlimit:10;" points="
		402.206,228.955 450,188.566 450,90.916 377.061,173.101 	"/>
	
		<line style="fill:none;stroke:#000000;stroke-width:20;stroke-linecap:round;stroke-linejoin:round;stroke-miterlimit:10;" x1="420.665" y1="168.662" x2="450" y2="139.741"/>
	
		<polyline style="fill:none;stroke:#000000;stroke-width:20;stroke-linecap:round;stroke-linejoin:round;stroke-miterlimit:10;" points="
		263.409,206.523 238.006,140.874 221.994,140.874 196.591,206.523 	"/>
	
		<line style="fill:none;stroke:#000000;stroke-width:20;stroke-linecap:round;stroke-linejoin:round;stroke-miterlimit:10;" x1="207.302" y1="178.843" x2="252.276" y2="178.843"/>
</g>
<g>
</g>
<g>
</g>
<g>
</g>
<g>
</g>
<g>
</g>
<g>
</g>
<g>
</g>
<g>
</g>
<g>
</g>
<g>
</g>
<g>
</g>
<g>
</g>
<g>
</g>
<g>
</g>
<g>
</g>
</svg>
