<?xml version="1.0" encoding="iso-8859-1"?>
<!-- Generator: Adobe Illustrator 17.1.0, SVG Export Plug-In . SVG Version: 6.00 Build 0)  -->
<!DOCTYPE svg PUBLIC "-//W3C//DTD SVG 1.1//EN" "http://www.w3.org/Graphics/SVG/1.1/DTD/svg11.dtd">
<svg version="1.1" id="Capa_1" xmlns="http://www.w3.org/2000/svg" xmlns:xlink="http://www.w3.org/1999/xlink" x="0px" y="0px"
	 viewBox="0 0 460 460" style="enable-background:new 0 0 460 460;" xml:space="preserve">
<g>
	<path style="fill:none;stroke:#000000;stroke-width:20;stroke-linecap:round;stroke-linejoin:round;stroke-miterlimit:10;" d="
		M308.932,216.167c-20.446-19.733-48.271-31.872-78.932-31.872c-30.66,0-58.486,12.139-78.932,31.872"/>
	<path style="fill:none;stroke:#000000;stroke-width:20;stroke-linecap:round;stroke-linejoin:round;stroke-miterlimit:10;" d="
		M123.315,258.635c-4.52,12.257-6.989,25.507-6.989,39.333v122.11L185.435,450v-70.564H150.65V294.98L230,328.55l79.35-33.57v84.456
		h-34.785V450h8.75l60.358-29.922v-122.11c0-13.827-2.469-27.077-6.989-39.333"/>
	<path style="fill:none;stroke:#000000;stroke-width:20;stroke-linecap:round;stroke-linejoin:round;stroke-miterlimit:10;" d="
		M156.49,225.327c-8.642-13.905-16.41-29.512-22.758-46.117c-26.479-69.264-21.388-137.971,9.254-169.085
		c-8.34-0.524-16.459,0.592-24.152,3.533C70.939,31.967,57.685,113.704,89.23,196.223c8.436,22.066,21.146,46.247,34.27,62.481
		l70.282,3.003L230,328.55"/>
	<path style="fill:none;stroke:#000000;stroke-width:20;stroke-linecap:round;stroke-linejoin:round;stroke-miterlimit:10;" d="
		M303.51,225.327c8.642-13.905,16.41-29.512,22.758-46.117c26.479-69.264,21.388-137.971-9.254-169.085
		c8.34-0.524,16.459,0.592,24.152,3.533c47.895,18.31,61.149,100.047,29.604,182.565c-8.436,22.066-21.146,46.247-34.27,62.481
		l-70.282,3.003L230,328.55"/>
	<path style="fill:none;stroke:#000000;stroke-width:20;stroke-linecap:round;stroke-linejoin:round;stroke-miterlimit:10;" d="
		M203.957,226.913c8.124-2.987,16.896-4.618,26.043-4.618c9.143,0,17.913,1.63,26.034,4.615"/>
</g>
<g>
</g>
<g>
</g>
<g>
</g>
<g>
</g>
<g>
</g>
<g>
</g>
<g>
</g>
<g>
</g>
<g>
</g>
<g>
</g>
<g>
</g>
<g>
</g>
<g>
</g>
<g>
</g>
<g>
</g>
</svg>
