<?xml version="1.0" encoding="iso-8859-1"?>
<!-- Generator: Adobe Illustrator 17.1.0, SVG Export Plug-In . SVG Version: 6.00 Build 0)  -->
<!DOCTYPE svg PUBLIC "-//W3C//DTD SVG 1.1//EN" "http://www.w3.org/Graphics/SVG/1.1/DTD/svg11.dtd">
<svg version="1.1" id="Capa_1" xmlns="http://www.w3.org/2000/svg" xmlns:xlink="http://www.w3.org/1999/xlink" x="0px" y="0px"
	 viewBox="0 0 450 450" style="enable-background:new 0 0 450 450;" xml:space="preserve">
<g>
	
		<line style="fill:none;stroke:#000000;stroke-width:20;stroke-linecap:round;stroke-linejoin:round;stroke-miterlimit:10;" x1="343.634" y1="334.689" x2="343.634" y2="440"/>
	
		<line style="fill:none;stroke:#000000;stroke-width:20;stroke-linecap:round;stroke-linejoin:round;stroke-miterlimit:10;" x1="136.366" y1="440" x2="136.366" y2="353.759"/>
	
		<line style="fill:none;stroke:#000000;stroke-width:20;stroke-linecap:round;stroke-linejoin:round;stroke-miterlimit:10;" x1="170" y1="399.391" x2="170" y2="440"/>
	<path style="fill:none;stroke:#000000;stroke-width:20;stroke-linecap:round;stroke-linejoin:round;stroke-miterlimit:10;" d="
		M370.237,107.131v164.715c0,48.35-39.195,87.545-87.545,87.545"/>
	<path style="fill:none;stroke:#000000;stroke-width:20;stroke-linecap:round;stroke-linejoin:round;stroke-miterlimit:10;" d="
		M178.581,106.996V41.943c0-17.641-14.301-31.943-31.943-31.943s-31.943,14.301-31.943,31.943v65.351"/>
	<path style="fill:none;stroke:#000000;stroke-width:20;stroke-linecap:round;stroke-linejoin:round;stroke-miterlimit:10;" d="
		M242.466,107.294V41.943c0-17.641-14.301-31.943-31.943-31.943s-31.943,14.301-31.943,31.943"/>
	<path style="fill:none;stroke:#000000;stroke-width:20;stroke-linecap:round;stroke-linejoin:round;stroke-miterlimit:10;" d="
		M272.995,155.449c0.469,0.02,0.94,0.031,1.414,0.031c17.641,0,31.943-14.301,31.943-31.943V41.943
		C306.352,24.301,292.05,10,274.409,10c-17.641,0-31.943,14.301-31.943,31.943"/>
	<path style="fill:none;stroke:#000000;stroke-width:20;stroke-linecap:round;stroke-linejoin:round;stroke-miterlimit:10;" d="
		M338.294,10c-17.641,0-31.943,14.301-31.943,31.943v81.594c0,17.641,14.301,31.943,31.943,31.943s31.943-14.301,31.943-31.943
		V41.943C370.237,24.301,355.936,10,338.294,10z"/>
	<path style="fill:none;stroke:#000000;stroke-width:20;stroke-linecap:round;stroke-linejoin:round;stroke-miterlimit:10;" d="
		M201.687,107.131c-1.982,3.598-3.109,7.732-3.109,12.129c0,13.904,11.271,25.174,25.174,25.174h18.714V107.55"/>
	<path style="fill:none;stroke:#000000;stroke-width:20;stroke-linecap:round;stroke-linejoin:round;stroke-miterlimit:10;" d="
		M148.381,182.479c0,0,72.325,0,88.469,0c20.806,0,37.674-16.867,37.674-37.674s-16.867-37.674-37.674-37.674
		c-16.143,0-118.686,0-118.686,0c-21.208,0-38.4,17.192-38.4,38.4v126.315c0,48.35,39.195,87.545,87.545,87.545"/>
	<path style="fill:none;stroke:#000000;stroke-width:20;stroke-linecap:round;stroke-linejoin:round;stroke-miterlimit:10;" d="
		M282.17,329.719c0-73.62-51.894-98.052-103.789-103.154v-44.086"/>
	
		<line style="fill:none;stroke:#000000;stroke-width:20;stroke-linecap:round;stroke-linejoin:round;stroke-miterlimit:10;" x1="143.743" y1="56.001" x2="149.533" y2="56.001"/>
	
		<line style="fill:none;stroke:#000000;stroke-width:20;stroke-linecap:round;stroke-linejoin:round;stroke-miterlimit:10;" x1="207.628" y1="56.001" x2="213.419" y2="56.001"/>
	
		<line style="fill:none;stroke:#000000;stroke-width:20;stroke-linecap:round;stroke-linejoin:round;stroke-miterlimit:10;" x1="271.514" y1="56.001" x2="277.304" y2="56.001"/>
	
		<line style="fill:none;stroke:#000000;stroke-width:20;stroke-linecap:round;stroke-linejoin:round;stroke-miterlimit:10;" x1="335.399" y1="85.049" x2="341.19" y2="85.049"/>
	
		<line style="fill:none;stroke:#000000;stroke-width:20;stroke-linecap:round;stroke-linejoin:round;stroke-miterlimit:10;" x1="335.399" y1="56.001" x2="341.19" y2="56.001"/>
</g>
<g>
</g>
<g>
</g>
<g>
</g>
<g>
</g>
<g>
</g>
<g>
</g>
<g>
</g>
<g>
</g>
<g>
</g>
<g>
</g>
<g>
</g>
<g>
</g>
<g>
</g>
<g>
</g>
<g>
</g>
</svg>
