<?xml version="1.0" encoding="iso-8859-1"?>
<!-- Generator: Adobe Illustrator 17.1.0, SVG Export Plug-In . SVG Version: 6.00 Build 0)  -->
<!DOCTYPE svg PUBLIC "-//W3C//DTD SVG 1.1//EN" "http://www.w3.org/Graphics/SVG/1.1/DTD/svg11.dtd">
<svg version="1.1" id="Capa_1" xmlns="http://www.w3.org/2000/svg" xmlns:xlink="http://www.w3.org/1999/xlink" x="0px" y="0px"
	 viewBox="0 0 429.975 429.975" style="enable-background:new 0 0 429.975 429.975;" xml:space="preserve">
<g>
	<path style="fill:none;stroke:#000000;stroke-width:20;stroke-linecap:round;stroke-linejoin:round;stroke-miterlimit:10;" d="
		M338.153,118.158c-33.15-33.163-77.296-51.699-123.166-51.699s-90.016,18.536-123.166,51.699"/>
	<path style="fill:none;stroke:#000000;stroke-width:20;stroke-linecap:round;stroke-linejoin:round;stroke-miterlimit:10;" d="
		M107.993,276.51c-21.338-8.949-33.595-30.424-31.84-52.297l91.46,38.359C153.24,279.153,129.331,285.459,107.993,276.51z"/>
	<path style="fill:none;stroke:#000000;stroke-width:20;stroke-linecap:round;stroke-linejoin:round;stroke-miterlimit:10;" d="
		M197.975,315.18v-74.527L10,25.487v213.923c0,41.846,33.923,75.77,75.77,75.77l52.537,89.307V315.18h153.361v89.307l52.537-89.307
		c41.846,0,75.77-33.923,75.77-75.77V25.487L232,240.653v74.527"/>
	<path style="fill:none;stroke:#000000;stroke-width:20;stroke-linecap:round;stroke-linejoin:round;stroke-miterlimit:10;" d="
		M262.361,262.572l91.46-38.359c1.755,21.874-10.503,43.348-31.84,52.297C300.644,285.459,276.735,279.153,262.361,262.572z"/>
</g>
<g>
</g>
<g>
</g>
<g>
</g>
<g>
</g>
<g>
</g>
<g>
</g>
<g>
</g>
<g>
</g>
<g>
</g>
<g>
</g>
<g>
</g>
<g>
</g>
<g>
</g>
<g>
</g>
<g>
</g>
</svg>
