<?xml version="1.0" encoding="iso-8859-1"?>
<!-- Generator: Adobe Illustrator 17.1.0, SVG Export Plug-In . SVG Version: 6.00 Build 0)  -->
<!DOCTYPE svg PUBLIC "-//W3C//DTD SVG 1.1//EN" "http://www.w3.org/Graphics/SVG/1.1/DTD/svg11.dtd">
<svg version="1.1" id="Capa_1" xmlns="http://www.w3.org/2000/svg" xmlns:xlink="http://www.w3.org/1999/xlink" x="0px" y="0px"
	 viewBox="0 0 460 460" style="enable-background:new 0 0 460 460;" xml:space="preserve">
<g>
	<path style="fill:none;stroke:#000000;stroke-width:20;stroke-linecap:round;stroke-linejoin:round;stroke-miterlimit:10;" d="
		M383.089,96.595c-10.698-12.266-22.846-23.235-36.177-32.639"/>
	<path style="fill:none;stroke:#000000;stroke-width:20;stroke-linecap:round;stroke-linejoin:round;stroke-miterlimit:10;" d="
		M153.784,418.268c11.031,4.47,22.543,7.999,34.439,10.486"/>
	<path style="fill:none;stroke:#000000;stroke-width:20;stroke-linecap:round;stroke-linejoin:round;stroke-miterlimit:10;" d="
		M395.637,85.198c-90.512,89.328-176.904,162.041-239.098,203.487C197.725,226.88,269.79,141.178,358.353,51.283
		c-12.172-8.764-25.038-16.133-38.377-22.106C262.233,85.173,207.725,130.616,167.788,157.23
		c24.796-37.209,65.935-87.067,116.727-140.405C211.761-1.706,131.376,17.497,74.437,74.436
		c-85.915,85.915-85.915,225.212,0,311.127c19.605,19.605,41.99,34.735,65.885,45.392c53.576-51.07,103.682-92.439,141.038-117.333
		c-23.087,34.644-60.342,80.253-106.364,129.427c72.883,18.743,153.501-0.419,210.568-57.486
		C467.978,303.148,471.336,171.615,395.637,85.198z"/>
	<path style="fill:none;stroke:#000000;stroke-width:20;stroke-linecap:round;stroke-linejoin:round;stroke-miterlimit:10;" d="
		M362.565,117.28c58.259,68.364,55.083,171.146-9.528,235.757c-38.748,38.748-91.225,55.401-141.773,49.958"/>
	<path style="fill:none;stroke:#000000;stroke-width:20;stroke-linecap:round;stroke-linejoin:round;stroke-miterlimit:10;" d="
		M282.825,64.174c15.037,4.777,29.554,11.646,43.093,20.61"/>
	<path style="fill:none;stroke:#000000;stroke-width:20;stroke-linecap:round;stroke-linejoin:round;stroke-miterlimit:10;" d="
		M178.025,396.093c-25.998-8.111-50.469-22.464-71.062-43.057c-67.951-67.951-67.951-178.122,0-246.073
		c38.452-38.452,90.423-55.145,140.612-50.079"/>
	
		<line style="fill:none;stroke:#000000;stroke-width:20;stroke-linecap:round;stroke-linejoin:round;stroke-miterlimit:10;" x1="146.574" y1="178.443" x2="111.952" y2="213.066"/>
	
		<line style="fill:none;stroke:#000000;stroke-width:20;stroke-linecap:round;stroke-linejoin:round;stroke-miterlimit:10;" x1="360.779" y1="234.204" x2="372.799" y2="222.183"/>
	
		<line style="fill:none;stroke:#000000;stroke-width:20;stroke-linecap:round;stroke-linejoin:round;stroke-miterlimit:10;" x1="281.36" y1="313.622" x2="339.565" y2="255.417"/>
	<path style="fill:none;stroke:#000000;stroke-width:20;stroke-linecap:round;stroke-linejoin:round;stroke-miterlimit:10;" d="
		M306.695,41.927c-11.393-4.651-23.303-8.296-35.621-10.827"/>
</g>
<g>
</g>
<g>
</g>
<g>
</g>
<g>
</g>
<g>
</g>
<g>
</g>
<g>
</g>
<g>
</g>
<g>
</g>
<g>
</g>
<g>
</g>
<g>
</g>
<g>
</g>
<g>
</g>
<g>
</g>
</svg>
