<?xml version="1.0" encoding="iso-8859-1"?>
<!-- Generator: Adobe Illustrator 17.1.0, SVG Export Plug-In . SVG Version: 6.00 Build 0)  -->
<!DOCTYPE svg PUBLIC "-//W3C//DTD SVG 1.1//EN" "http://www.w3.org/Graphics/SVG/1.1/DTD/svg11.dtd">
<svg version="1.1" id="Capa_1" xmlns="http://www.w3.org/2000/svg" xmlns:xlink="http://www.w3.org/1999/xlink" x="0px" y="0px"
	 viewBox="0 0 460 460" style="enable-background:new 0 0 460 460;" xml:space="preserve">
<g>
	<path style="fill:none;stroke:#000000;stroke-width:20;stroke-linecap:round;stroke-linejoin:round;stroke-miterlimit:10;" d="
		M79.31,213.086c-12.241,3.969-20.765,16.357-18.624,29.293l10.27,62.059c2.363,14.276,15.851,23.934,30.127,21.572
		c0,0,25.633,67.975,33.955,82.429C151.773,437.505,190.908,450,232.553,450h76.886l23.978-129.21l68.077-92.864
		c0-107.202-76.309-175.462-158.941-175.462"/>
	<path style="fill:none;stroke:#000000;stroke-width:20;stroke-linecap:round;stroke-linejoin:round;stroke-miterlimit:10;" d="
		M64.564,201.214l13.694,9.038l23.207,62.514c0,0,13.693-9.784,13.693-65.666c0-56.413,6.246-87.757,44.652-87.757
		c0,0,30.593,35.693,82.744,35.693V10C142.268,10,31.156,82.784,64.564,201.214z"/>
	
		<line style="fill:none;stroke:#000000;stroke-width:20;stroke-linecap:round;stroke-linejoin:round;stroke-miterlimit:10;" x1="262.353" y1="283.81" x2="267.286" y2="317.83"/>
	
		<line style="fill:none;stroke:#000000;stroke-width:20;stroke-linecap:round;stroke-linejoin:round;stroke-miterlimit:10;" x1="206.553" y1="372.095" x2="278.553" y2="372.095"/>
	
		<circle style="fill:none;stroke:#000000;stroke-width:20;stroke-linecap:round;stroke-linejoin:round;stroke-miterlimit:10;" cx="312.701" cy="216.741" r="40.549"/>
	<path style="fill:none;stroke:#000000;stroke-width:20;stroke-linecap:round;stroke-linejoin:round;stroke-miterlimit:10;" d="
		M156.813,223.202c0,15.257,12.368,27.626,27.626,27.626c15.257,0,27.626-12.368,27.626-27.626H156.813z"/>
	
		<line style="fill:none;stroke:#000000;stroke-width:20;stroke-linecap:round;stroke-linejoin:round;stroke-miterlimit:10;" x1="101.083" y1="326.01" x2="101.083" y2="309.02"/>
</g>
<g>
</g>
<g>
</g>
<g>
</g>
<g>
</g>
<g>
</g>
<g>
</g>
<g>
</g>
<g>
</g>
<g>
</g>
<g>
</g>
<g>
</g>
<g>
</g>
<g>
</g>
<g>
</g>
<g>
</g>
</svg>
