<?xml version="1.0" encoding="iso-8859-1"?>
<!-- Generator: Adobe Illustrator 17.1.0, SVG Export Plug-In . SVG Version: 6.00 Build 0)  -->
<!DOCTYPE svg PUBLIC "-//W3C//DTD SVG 1.1//EN" "http://www.w3.org/Graphics/SVG/1.1/DTD/svg11.dtd">
<svg version="1.1" id="Capa_1" xmlns="http://www.w3.org/2000/svg" xmlns:xlink="http://www.w3.org/1999/xlink" x="0px" y="0px"
	 viewBox="0 0 460 460" style="enable-background:new 0 0 460 460;" xml:space="preserve">
<g>
	
		<polyline style="fill:none;stroke:#000000;stroke-width:20;stroke-linecap:round;stroke-linejoin:round;stroke-miterlimit:10;" points="
		274.341,304.026 387.785,304.026 387.785,272.681 270.595,272.681 	"/>
	
		<polyline style="fill:none;stroke:#000000;stroke-width:20;stroke-linecap:round;stroke-linejoin:round;stroke-miterlimit:10;" points="
		150.981,172.151 124.245,19.121 92.394,19.121 119.42,173.809 	"/>
	<path style="fill:none;stroke:#000000;stroke-width:20;stroke-linecap:round;stroke-linejoin:round;stroke-miterlimit:10;" d="
		M142.17,171.856C69.175,171.856,10,231.031,10,304.026s59.175,132.17,132.17,132.17s132.17-59.175,132.17-132.17
		S215.166,171.856,142.17,171.856z M196.679,224.33l-54.509,54.509L87.661,224.33c15.513-10.631,34.283-16.854,54.509-16.854
		S181.167,213.699,196.679,224.33z M45.62,304.026c0-20.226,6.224-38.996,16.854-54.509l54.509,54.509l-54.509,54.509
		C51.844,343.022,45.62,324.252,45.62,304.026z M87.661,383.722l54.509-54.509l54.509,54.509
		c-15.513,10.631-34.283,16.854-54.509,16.854S103.174,394.353,87.661,383.722z M221.866,358.535l-54.509-54.509l54.509-54.509
		c10.631,15.513,16.854,34.283,16.854,54.509C238.721,324.252,232.497,343.022,221.866,358.535z"/>
	
		<line style="fill:none;stroke:#000000;stroke-width:20;stroke-linecap:round;stroke-linejoin:round;stroke-miterlimit:10;" x1="413.091" y1="406.496" x2="450" y2="406.496"/>
	
		<line style="fill:none;stroke:#000000;stroke-width:20;stroke-linecap:round;stroke-linejoin:round;stroke-miterlimit:10;" x1="372.528" y1="304.026" x2="372.528" y2="359.285"/>
	
		<line style="fill:none;stroke:#000000;stroke-width:20;stroke-linecap:round;stroke-linejoin:round;stroke-miterlimit:10;" x1="124.245" y1="19.121" x2="46.723" y2="19.121"/>
	
		<line style="fill:none;stroke:#000000;stroke-width:20;stroke-linecap:round;stroke-linejoin:round;stroke-miterlimit:10;" x1="331.063" y1="171.856" x2="331.063" y2="314.026"/>
	<path style="fill:none;stroke:#000000;stroke-width:20;stroke-linecap:round;stroke-linejoin:round;stroke-miterlimit:10;" d="
		M332.517,140.511H209.908c-17.311,0-31.344,14.033-31.344,31.344h185.298C363.862,154.545,349.828,140.511,332.517,140.511z"/>
	
		<circle style="fill:none;stroke:#000000;stroke-width:20;stroke-linecap:round;stroke-linejoin:round;stroke-miterlimit:10;" cx="372.799" cy="400.082" r="40.797"/>
</g>
<g>
</g>
<g>
</g>
<g>
</g>
<g>
</g>
<g>
</g>
<g>
</g>
<g>
</g>
<g>
</g>
<g>
</g>
<g>
</g>
<g>
</g>
<g>
</g>
<g>
</g>
<g>
</g>
<g>
</g>
</svg>
