<?xml version="1.0" encoding="iso-8859-1"?>
<!-- Generator: Adobe Illustrator 17.1.0, SVG Export Plug-In . SVG Version: 6.00 Build 0)  -->
<!DOCTYPE svg PUBLIC "-//W3C//DTD SVG 1.1//EN" "http://www.w3.org/Graphics/SVG/1.1/DTD/svg11.dtd">
<svg version="1.1" id="Capa_1" xmlns="http://www.w3.org/2000/svg" xmlns:xlink="http://www.w3.org/1999/xlink" x="0px" y="0px"
	 viewBox="0 0 460 460" style="enable-background:new 0 0 460 460;" xml:space="preserve">
<g>
	<path style="fill:none;stroke:#000000;stroke-width:20;stroke-linecap:round;stroke-linejoin:round;stroke-miterlimit:10;" d="
		M328.22,450v-43.829C369.32,375.955,396,327.27,396,272.347c-0.35-145.204-41.796-209.283-41.796-209.283l-54.561,47.217
		c-0.015-0.007-0.03-0.013-0.045-0.02C298.821,108.175,274.738,56.087,230,10c-44.738,46.087-68.82,98.174-69.598,100.261
		c-0.015,0.006-0.03,0.013-0.045,0.02l-54.561-47.217c0,0-41.622,64.079-41.796,209.283c-0.072,59.518,31.28,111.711,78.365,141.011
		V450"/>
	<path style="fill:none;stroke:#000000;stroke-width:20;stroke-linecap:round;stroke-linejoin:round;stroke-miterlimit:10;" d="
		M288.22,450v-61.076c22.535-17.424,37.049-44.719,37.049-75.408V201.89c0-12.423-10.071-22.494-22.494-22.494
		s-22.494,10.071-22.494,22.494v-21.171c0-12.423-10.071-22.494-22.494-22.494c-12.423,0-22.494,10.071-22.494,22.494
		c0-12.423-10.071-22.494-22.494-22.494s-22.494,10.071-22.494,22.494c0-12.423-10.071-22.494-22.494-22.494
		s-22.494,10.071-22.494,22.494c0,0,0.108,59.841,0.265,60.912c-6.496,3.944-10.85,11.064-10.85,19.22v52.665
		c0,35.263,19.159,66.048,47.635,82.521V450"/>
	<path style="fill:none;stroke:#000000;stroke-width:20;stroke-linecap:round;stroke-linejoin:round;stroke-miterlimit:10;" d="
		M258.22,404.536c8.991-2.784,17.413-6.864,25.046-12.022c1.692-1.143,3.345-2.339,4.958-3.586"/>
	<path style="fill:none;stroke:#000000;stroke-width:20;stroke-linecap:round;stroke-linejoin:round;stroke-miterlimit:10;" d="
		M182.365,396.039c6.253,3.617,12.954,6.544,20.001,8.676"/>
	
		<line style="fill:none;stroke:#000000;stroke-width:20;stroke-linecap:round;stroke-linejoin:round;stroke-miterlimit:10;" x1="190.305" y1="180.719" x2="190.305" y2="238.357"/>
	
		<line style="fill:none;stroke:#000000;stroke-width:20;stroke-linecap:round;stroke-linejoin:round;stroke-miterlimit:10;" x1="280.281" y1="238.357" x2="280.281" y2="180.719"/>
	
		<line style="fill:none;stroke:#000000;stroke-width:20;stroke-linecap:round;stroke-linejoin:round;stroke-miterlimit:10;" x1="235.293" y1="180.719" x2="235.293" y2="238.357"/>
	<path style="fill:none;stroke:#000000;stroke-width:20;stroke-linecap:round;stroke-linejoin:round;stroke-miterlimit:10;" d="
		M235.293,238.357c0,12.423,10.071,22.494,22.494,22.494c12.423,0,22.494-10.071,22.494-22.494
		c0,12.423,10.071,22.494,22.494,22.494s22.494-10.071,22.494-22.494"/>
	<path style="fill:none;stroke:#000000;stroke-width:20;stroke-linecap:round;stroke-linejoin:round;stroke-miterlimit:10;" d="
		M145.568,241.609c3.4-2.064,7.39-3.252,11.657-3.252h57.638c12.423,0,22.494,10.071,22.494,22.494s-10.071,22.494-22.494,22.494
		h-35.143l0,35.463l49.254,21.171"/>
</g>
<g>
</g>
<g>
</g>
<g>
</g>
<g>
</g>
<g>
</g>
<g>
</g>
<g>
</g>
<g>
</g>
<g>
</g>
<g>
</g>
<g>
</g>
<g>
</g>
<g>
</g>
<g>
</g>
<g>
</g>
</svg>
