<?xml version="1.0" encoding="iso-8859-1"?>
<!-- Generator: Adobe Illustrator 17.1.0, SVG Export Plug-In . SVG Version: 6.00 Build 0)  -->
<!DOCTYPE svg PUBLIC "-//W3C//DTD SVG 1.1//EN" "http://www.w3.org/Graphics/SVG/1.1/DTD/svg11.dtd">
<svg version="1.1" id="Capa_1" xmlns="http://www.w3.org/2000/svg" xmlns:xlink="http://www.w3.org/1999/xlink" x="0px" y="0px"
	 viewBox="0 0 460 460" style="enable-background:new 0 0 460 460;" xml:space="preserve">
<g>
	<path style="fill:none;stroke:#000000;stroke-width:20;stroke-linecap:round;stroke-linejoin:round;stroke-miterlimit:10;" d="
		M126.449,323.169c7.924,3.743,16.527,6.262,25.666,7.058l-21.637,92.217c73.094,36.728,159.915,36.74,233.018,0.038
		l-26.569-113.464l-0.005-0.013c14.229-13.803,23.084-33.114,23.084-54.503v-76.879"/>
	<path style="fill:none;stroke:#000000;stroke-width:20;stroke-linecap:round;stroke-linejoin:round;stroke-miterlimit:10;" d="
		M360.006,134.626v-23.014V89.761c0-15.304-12.406-27.71-27.71-27.71c-15.304,0-27.711,12.406-27.711,27.71v-17.35
		c0-15.304-12.406-27.71-27.71-27.71c-15.304,0-27.71,12.406-27.71,27.71v-17.35c0-15.304-12.407-27.711-27.711-27.711
		c-15.304,0-27.71,12.407-27.71,27.711v-17.35c0-15.304-12.406-27.711-27.711-27.711c-15.304,0-27.71,12.407-27.71,27.711v70.864
		v51.294h-27.71c-15.304,0-27.711,12.407-27.711,27.71v0.001c0,0,0,52.751,0,66.923c0,11.408,2.527,22.221,7.034,31.927"/>
	<path style="fill:none;stroke:#000000;stroke-width:20;stroke-linecap:round;stroke-linejoin:round;stroke-miterlimit:10;" d="
		M329.308,211.183v43.32c0,12.33-4.887,23.861-13.76,32.468"/>
	<path style="fill:none;stroke:#000000;stroke-width:20;stroke-linecap:round;stroke-linejoin:round;stroke-miterlimit:10;" d="
		M337.762,308.204c-8.488,8.488-18.976,14.976-30.697,18.697"/>
	
		<line style="fill:none;stroke:#000000;stroke-width:20;stroke-linecap:round;stroke-linejoin:round;stroke-miterlimit:10;" x1="138.322" y1="215.29" x2="117.857" y2="215.29"/>
	
		<polygon style="fill:none;stroke:#000000;stroke-width:20;stroke-linecap:round;stroke-linejoin:round;stroke-miterlimit:10;" points="
		130.47,422.44 130.47,422.44 130.47,422.44 	"/>
	
		<line style="fill:none;stroke:#000000;stroke-width:20;stroke-linecap:round;stroke-linejoin:round;stroke-miterlimit:10;" x1="193.743" y1="55.061" x2="193.743" y2="111.753"/>
	
		<line style="fill:none;stroke:#000000;stroke-width:20;stroke-linecap:round;stroke-linejoin:round;stroke-miterlimit:10;" x1="249.164" y1="72.411" x2="249.164" y2="111.753"/>
	
		<line style="fill:none;stroke:#000000;stroke-width:20;stroke-linecap:round;stroke-linejoin:round;stroke-miterlimit:10;" x1="304.585" y1="89.761" x2="304.585" y2="121.986"/>
	<path style="fill:none;stroke:#000000;stroke-width:20;stroke-linecap:round;stroke-linejoin:round;stroke-miterlimit:10;" d="
		M277.51,238.203c0,15.655-9.962,33.463-28.346,33.463s-28.346-17.807-28.346-33.463s9.962-33.463,28.346-33.463
		S277.51,222.547,277.51,238.203z"/>
	
		<line style="fill:none;stroke:#000000;stroke-width:20;stroke-linecap:round;stroke-linejoin:round;stroke-miterlimit:10;" x1="138.322" y1="225.523" x2="138.322" y2="159.869"/>
	<path style="fill:none;stroke:#000000;stroke-width:20;stroke-linecap:round;stroke-linejoin:round;stroke-miterlimit:10;" d="
		M152.177,330.159c2.198,0.191,4.422,0.289,6.67,0.289h20.465"/>
	<path style="fill:none;stroke:#000000;stroke-width:20;stroke-linecap:round;stroke-linejoin:round;stroke-miterlimit:10;" d="
		M377.098,415.144c-4.468,2.59-9.007,5.03-13.602,7.336"/>
	<path style="fill:none;stroke:#000000;stroke-width:20;stroke-linecap:round;stroke-linejoin:round;stroke-miterlimit:10;" d="
		M130.478,422.447c-4.559-2.292-9.072-4.721-13.529-7.304"/>
	<path style="fill:none;stroke:#000000;stroke-width:20;stroke-linecap:round;stroke-linejoin:round;stroke-miterlimit:10;" d="
		M119.883,265.57c-1.154-0.143-2.327-0.225-3.519-0.225c-15.655,0-28.346,12.691-28.346,28.346s12.691,28.346,28.346,28.346
		c15.655,0,28.346-12.691,28.346-28.346c0-1.193-0.082-2.365-0.225-3.519"/>
	
		<line style="fill:none;stroke:#000000;stroke-width:20;stroke-linecap:round;stroke-linejoin:round;stroke-miterlimit:10;" x1="327.788" y1="404.632" x2="316.644" y2="357.04"/>
	<path style="fill:none;stroke:#000000;stroke-width:20;stroke-linecap:round;stroke-linejoin:round;stroke-miterlimit:10;" d="
		M324.496,133.116c-0.917,0.715-1.805,1.486-2.648,2.329c-11.07,11.07-11.07,29.018,0,40.087c11.07,11.07,29.018,11.07,40.087,0
		c11.07-11.07,11.07-29.018,0-40.088c-0.843-0.843-1.731-1.614-2.648-2.329"/>
	<path style="fill:none;stroke:#000000;stroke-width:20;stroke-linecap:round;stroke-linejoin:round;stroke-miterlimit:10;" d="
		M269.075,122.884c-0.917,0.715-1.805,1.486-2.648,2.329c-11.07,11.07-11.07,29.018,0,40.087c11.07,11.07,29.018,11.07,40.087,0
		c11.07-11.07,11.07-29.018,0-40.088c-0.843-0.843-1.731-1.614-2.648-2.329"/>
	<path style="fill:none;stroke:#000000;stroke-width:20;stroke-linecap:round;stroke-linejoin:round;stroke-miterlimit:10;" d="
		M213.655,112.651c-0.917,0.715-1.805,1.486-2.648,2.329c-11.07,11.07-11.07,29.018,0,40.087c11.07,11.07,29.018,11.07,40.087,0
		c11.07-11.07,11.07-29.018,0-40.088c-0.843-0.843-1.731-1.614-2.648-2.329"/>
	<path style="fill:none;stroke:#000000;stroke-width:20;stroke-linecap:round;stroke-linejoin:round;stroke-miterlimit:10;" d="
		M158.87,103.054c-0.917,0.715-1.805,1.486-2.648,2.329c-11.07,11.07-11.07,29.018,0,40.087c11.07,11.07,29.018,11.07,40.087,0
		c11.07-11.07,11.07-29.018,0-40.088c-0.843-0.843-1.731-1.614-2.648-2.329"/>
</g>
<g>
</g>
<g>
</g>
<g>
</g>
<g>
</g>
<g>
</g>
<g>
</g>
<g>
</g>
<g>
</g>
<g>
</g>
<g>
</g>
<g>
</g>
<g>
</g>
<g>
</g>
<g>
</g>
<g>
</g>
</svg>
