<?xml version="1.0" encoding="iso-8859-1"?>
<!-- Generator: Adobe Illustrator 17.1.0, SVG Export Plug-In . SVG Version: 6.00 Build 0)  -->
<!DOCTYPE svg PUBLIC "-//W3C//DTD SVG 1.1//EN" "http://www.w3.org/Graphics/SVG/1.1/DTD/svg11.dtd">
<svg version="1.1" id="Capa_1" xmlns="http://www.w3.org/2000/svg" xmlns:xlink="http://www.w3.org/1999/xlink" x="0px" y="0px"
	 viewBox="0 0 460 460" style="enable-background:new 0 0 460 460;" xml:space="preserve">
<g>
	
		<line style="fill:none;stroke:#000000;stroke-width:20;stroke-linecap:round;stroke-linejoin:round;stroke-miterlimit:10;" x1="58.111" y1="190.528" x2="58.111" y2="228.845"/>
	
		<line style="fill:none;stroke:#000000;stroke-width:20;stroke-linecap:round;stroke-linejoin:round;stroke-miterlimit:10;" x1="401.889" y1="190.528" x2="401.889" y2="228.845"/>
	
		<line style="fill:none;stroke:#000000;stroke-width:20;stroke-linecap:round;stroke-linejoin:round;stroke-miterlimit:10;" x1="58.111" y1="190.528" x2="58.111" y2="228.845"/>
	
		<line style="fill:none;stroke:#000000;stroke-width:20;stroke-linecap:round;stroke-linejoin:round;stroke-miterlimit:10;" x1="126.443" y1="231.065" x2="211.903" y2="261.065"/>
	
		<line style="fill:none;stroke:#000000;stroke-width:20;stroke-linecap:round;stroke-linejoin:round;stroke-miterlimit:10;" x1="248.097" y1="261.065" x2="333.557" y2="231.065"/>
	
		<line style="fill:none;stroke:#000000;stroke-width:20;stroke-linecap:round;stroke-linejoin:round;stroke-miterlimit:10;" x1="401.889" y1="190.528" x2="401.889" y2="228.845"/>
	<path style="fill:none;stroke:#000000;stroke-width:20;stroke-linecap:round;stroke-linejoin:round;stroke-miterlimit:10;" d="
		M259.97,450v-82.43c62.704-13.756,109.781-69.731,109.781-136.505v-40.537h32.138c0-44.263-13.924-82.549-34.166-100.918
		c-20.242,18.369-34.166,56.655-34.166,100.918v40.537c0,50.929-36.956,93.387-85.46,101.971V128.788h22.119
		C270.216,76.687,253.827,31.622,230,10c-23.827,21.622-40.216,66.687-40.216,118.788h22.119v204.248
		c-48.503-8.584-85.46-51.042-85.46-101.971v-40.537c0-44.263-13.924-82.549-34.166-100.918
		c-20.243,18.369-34.166,56.655-34.166,100.918h32.138v40.537c0,66.774,47.077,122.749,109.781,136.505V450"/>
	<path style="fill:none;stroke:#000000;stroke-width:20;stroke-linecap:round;stroke-linejoin:round;stroke-miterlimit:10;" d="
		M179.242,361.277c13.1,5.124,27.156,8.326,41.818,9.256"/>
</g>
<g>
</g>
<g>
</g>
<g>
</g>
<g>
</g>
<g>
</g>
<g>
</g>
<g>
</g>
<g>
</g>
<g>
</g>
<g>
</g>
<g>
</g>
<g>
</g>
<g>
</g>
<g>
</g>
<g>
</g>
</svg>
