<?xml version="1.0" encoding="iso-8859-1"?>
<!-- Generator: Adobe Illustrator 17.1.0, SVG Export Plug-In . SVG Version: 6.00 Build 0)  -->
<!DOCTYPE svg PUBLIC "-//W3C//DTD SVG 1.1//EN" "http://www.w3.org/Graphics/SVG/1.1/DTD/svg11.dtd">
<svg version="1.1" id="Capa_1" xmlns="http://www.w3.org/2000/svg" xmlns:xlink="http://www.w3.org/1999/xlink" x="0px" y="0px"
	 viewBox="0 0 460 460" style="enable-background:new 0 0 460 460;" xml:space="preserve">
<g>
	<path style="fill:none;stroke:#000000;stroke-width:20;stroke-linecap:round;stroke-linejoin:round;stroke-miterlimit:10;" d="
		M230,10C138.542,10,54.082,85.551,54.082,204.204c0,65.62,42.918,162.462,78.424,206.632C155.024,438.85,195.469,450,230,450
		s74.976-11.15,97.495-39.164c35.505-44.169,78.424-141.012,78.424-206.632C405.918,85.551,321.458,10,230,10z"/>
	<path style="fill:none;stroke:#000000;stroke-width:20;stroke-linecap:round;stroke-linejoin:round;stroke-miterlimit:10;" d="
		M252.232,276.174c27.474,9.274,47.264,35.239,47.264,65.842V389.5c3.094-2.658,5.958-5.572,8.525-8.765
		c28.413-35.347,62.759-112.846,62.759-165.358c0-63.063-29.817-110.898-71.284-135.922v50.568c0,30.604-19.79,56.568-47.264,65.842
		"/>
	<path style="fill:none;stroke:#000000;stroke-width:20;stroke-linecap:round;stroke-linejoin:round;stroke-miterlimit:10;" d="
		M207.768,195.865c-27.474-9.274-47.264-35.239-47.264-65.842V79.455c-41.467,25.024-71.284,72.859-71.284,135.922
		c0,52.513,34.346,130.011,62.759,165.358c2.567,3.193,5.431,6.107,8.525,8.765v-47.484c0-30.604,19.79-56.568,47.264-65.842"/>
	<path style="fill:none;stroke:#000000;stroke-width:20;stroke-linecap:round;stroke-linejoin:round;stroke-miterlimit:10;" d="
		M152.771,246.952c-19.683-8.255-30.99-28.065-29.371-48.243l84.369,35.385C194.509,249.39,172.454,255.207,152.771,246.952z"/>
	<path style="fill:none;stroke:#000000;stroke-width:20;stroke-linecap:round;stroke-linejoin:round;stroke-miterlimit:10;" d="
		M308.287,247.38c-20.062,8.414-42.541,2.485-56.055-13.105l85.991-36.066C339.873,218.775,328.349,238.966,308.287,247.38z"/>
	
		<line style="fill:none;stroke:#000000;stroke-width:20;stroke-linecap:round;stroke-linejoin:round;stroke-miterlimit:10;" x1="207.768" y1="296.174" x2="207.768" y2="175.865"/>
	
		<line style="fill:none;stroke:#000000;stroke-width:20;stroke-linecap:round;stroke-linejoin:round;stroke-miterlimit:10;" x1="252.232" y1="296.174" x2="252.232" y2="175.865"/>
</g>
<g>
</g>
<g>
</g>
<g>
</g>
<g>
</g>
<g>
</g>
<g>
</g>
<g>
</g>
<g>
</g>
<g>
</g>
<g>
</g>
<g>
</g>
<g>
</g>
<g>
</g>
<g>
</g>
<g>
</g>
</svg>
