<?xml version="1.0" encoding="iso-8859-1"?>
<!-- Generator: Adobe Illustrator 17.1.0, SVG Export Plug-In . SVG Version: 6.00 Build 0)  -->
<!DOCTYPE svg PUBLIC "-//W3C//DTD SVG 1.1//EN" "http://www.w3.org/Graphics/SVG/1.1/DTD/svg11.dtd">
<svg version="1.1" id="Capa_1" xmlns="http://www.w3.org/2000/svg" xmlns:xlink="http://www.w3.org/1999/xlink" x="0px" y="0px"
	 viewBox="0 0 460 460" style="enable-background:new 0 0 460 460;" xml:space="preserve">
<g>
	<path style="fill:none;stroke:#000000;stroke-width:20;stroke-linecap:round;stroke-linejoin:round;stroke-miterlimit:10;" d="
		M230,10C138.542,10,54.082,85.551,54.082,204.204S138.542,450,230,450s175.918-127.142,175.918-245.796S321.458,10,230,10z"/>
	
		<ellipse transform="matrix(0.9929 -0.1188 0.1188 0.9929 -26.0429 19.6841)" style="fill:none;stroke:#000000;stroke-width:20;stroke-linecap:round;stroke-linejoin:round;stroke-miterlimit:10;" cx="152.073" cy="228.268" rx="61.136" ry="104.987"/>
	
		<ellipse transform="matrix(-0.9929 -0.1188 0.1188 -0.9929 586.5538 491.5032)" style="fill:none;stroke:#000000;stroke-width:20;stroke-linecap:round;stroke-linejoin:round;stroke-miterlimit:10;" cx="307.927" cy="228.268" rx="61.136" ry="104.987"/>
	<path style="fill:none;stroke:#000000;stroke-width:20;stroke-linecap:round;stroke-linejoin:round;stroke-miterlimit:10;" d="
		M153.289,248.8c-18.169-7.62-28.606-25.906-27.112-44.532l77.879,32.663C191.817,251.05,171.458,256.42,153.289,248.8z"/>
	<path style="fill:none;stroke:#000000;stroke-width:20;stroke-linecap:round;stroke-linejoin:round;stroke-miterlimit:10;" d="
		M306.711,248.8c-18.169,7.62-38.528,2.251-50.767-11.868l77.879-32.663C335.318,222.894,324.88,241.179,306.711,248.8z"/>
</g>
<g>
</g>
<g>
</g>
<g>
</g>
<g>
</g>
<g>
</g>
<g>
</g>
<g>
</g>
<g>
</g>
<g>
</g>
<g>
</g>
<g>
</g>
<g>
</g>
<g>
</g>
<g>
</g>
<g>
</g>
</svg>
