<?xml version="1.0" encoding="iso-8859-1"?>
<!-- Generator: Adobe Illustrator 17.1.0, SVG Export Plug-In . SVG Version: 6.00 Build 0)  -->
<!DOCTYPE svg PUBLIC "-//W3C//DTD SVG 1.1//EN" "http://www.w3.org/Graphics/SVG/1.1/DTD/svg11.dtd">
<svg version="1.1" id="Capa_1" xmlns="http://www.w3.org/2000/svg" xmlns:xlink="http://www.w3.org/1999/xlink" x="0px" y="0px"
	 viewBox="0 0 460 460" style="enable-background:new 0 0 460 460;" xml:space="preserve">
<g>
	<path style="fill:none;stroke:#000000;stroke-width:20;stroke-linecap:round;stroke-linejoin:round;stroke-miterlimit:10;" d="
		M307.493,309.088c-34.166,0-55.397,27.142-77.493,27.142s-43.328-27.142-77.493-27.142c-39.098,0-70.736,33.928-70.736,67.5
		s31.638,67.5,70.736,67.5c34.166,0,55.397-27.143,77.493-27.143s43.328,27.143,77.493,27.143c39.098,0,70.736-33.929,70.736-67.5
		S346.591,309.088,307.493,309.088z M165.077,397.844c-18.141-2.47-31.907-16.373-35.045-33.45l77.758,10.588
		C200.2,390.599,183.218,400.315,165.077,397.844z M294.923,397.844c-18.141,2.47-35.123-7.246-42.713-22.862l77.758-10.588
		C326.83,381.472,313.064,395.374,294.923,397.844z"/>
	<path style="fill:none;stroke:#000000;stroke-width:20;stroke-linecap:round;stroke-linejoin:round;stroke-miterlimit:10;" d="
		M372.066,141.917c-0.711-23.663-1.85-47.967-3.662-61.783C366.491,65.547,264.796,15.912,230,15.912S93.509,65.547,91.595,80.134
		c-1.812,13.816-2.951,38.12-3.662,61.783"/>
	<path style="fill:none;stroke:#000000;stroke-width:20;stroke-linecap:round;stroke-linejoin:round;stroke-miterlimit:10;" d="
		M10,206.985c0,35.433,91.631,64.157,220,64.157s220-28.724,220-64.157H10z"/>
	<path style="fill:none;stroke:#000000;stroke-width:20;stroke-linecap:round;stroke-linejoin:round;stroke-miterlimit:10;" d="
		M379.419,206.985c0,0-0.159-31.904-1.156-65.068H81.737c-0.997,33.164-1.156,65.068-1.156,65.068"/>
	<path style="fill:none;stroke:#000000;stroke-width:20;stroke-linecap:round;stroke-linejoin:round;stroke-miterlimit:10;" d="
		M250.696,19.257c0.837,35.736,15.629,81.534,86.722,81.534"/>
	<path style="fill:none;stroke:#000000;stroke-width:20;stroke-linecap:round;stroke-linejoin:round;stroke-miterlimit:10;" d="
		M186.297,79.953c-13.12,12.426-33.247,20.838-63.715,20.838"/>
	<path style="fill:none;stroke:#000000;stroke-width:20;stroke-linecap:round;stroke-linejoin:round;stroke-miterlimit:10;" d="
		M209.304,19.257c-0.255,10.895-1.808,22.726-5.857,33.909"/>
</g>
<g>
</g>
<g>
</g>
<g>
</g>
<g>
</g>
<g>
</g>
<g>
</g>
<g>
</g>
<g>
</g>
<g>
</g>
<g>
</g>
<g>
</g>
<g>
</g>
<g>
</g>
<g>
</g>
<g>
</g>
</svg>
