<?xml version="1.0" encoding="iso-8859-1"?>
<!-- Generator: Adobe Illustrator 17.1.0, SVG Export Plug-In . SVG Version: 6.00 Build 0)  -->
<!DOCTYPE svg PUBLIC "-//W3C//DTD SVG 1.1//EN" "http://www.w3.org/Graphics/SVG/1.1/DTD/svg11.dtd">
<svg version="1.1" id="Capa_1" xmlns="http://www.w3.org/2000/svg" xmlns:xlink="http://www.w3.org/1999/xlink" x="0px" y="0px"
	 viewBox="0 0 460 460" style="enable-background:new 0 0 460 460;" xml:space="preserve">
<g>
	<path style="fill:none;stroke:#000000;stroke-width:20;stroke-linecap:round;stroke-linejoin:round;stroke-miterlimit:10;" d="
		M394.823,424.007c0,14.355-11.637,25.993-25.993,25.993H91.17c-14.355,0-25.993-11.637-25.993-25.993V35.993
		C65.177,21.637,76.815,10,91.17,10h277.66c14.355,0,25.993,11.637,25.993,25.993V424.007z"/>
	
		<polyline style="fill:none;stroke:#000000;stroke-width:20;stroke-linecap:round;stroke-linejoin:round;stroke-miterlimit:10;" points="
		147.191,102.824 122.191,42.824 97.191,102.824 	"/>
	
		<line style="fill:none;stroke:#000000;stroke-width:20;stroke-linecap:round;stroke-linejoin:round;stroke-miterlimit:10;" x1="101.827" y1="94.666" x2="143.792" y2="94.666"/>
	
		<polyline style="fill:none;stroke:#000000;stroke-width:20;stroke-linecap:round;stroke-linejoin:round;stroke-miterlimit:10;" points="
		312.809,357.176 337.809,417.176 362.809,357.176 	"/>
	
		<line style="fill:none;stroke:#000000;stroke-width:20;stroke-linecap:round;stroke-linejoin:round;stroke-miterlimit:10;" x1="359.409" y1="365.334" x2="315.851" y2="365.334"/>
	<path style="fill:none;stroke:#000000;stroke-width:20;stroke-linecap:round;stroke-linejoin:round;stroke-miterlimit:10;" d="
		M188.175,292.22c18.89,0,35.066-11.59,41.825-28.044c6.759,16.454,22.935,28.044,41.825,28.044
		c24.967,0,45.207-20.24,45.207-45.207c0-53.426-87.031-122.513-87.031-122.513s-87.033,69.085-87.033,122.513
		C142.968,271.98,163.208,292.22,188.175,292.22z"/>
	<path style="fill:none;stroke:#000000;stroke-width:20;stroke-linecap:round;stroke-linejoin:round;stroke-miterlimit:10;" d="
		M230,264.175c0,0-4.96,62.326-34.272,71.325h68.543C234.96,326.501,230,264.175,230,264.175z"/>
</g>
<g>
</g>
<g>
</g>
<g>
</g>
<g>
</g>
<g>
</g>
<g>
</g>
<g>
</g>
<g>
</g>
<g>
</g>
<g>
</g>
<g>
</g>
<g>
</g>
<g>
</g>
<g>
</g>
<g>
</g>
</svg>
