<?xml version="1.0" encoding="iso-8859-1"?>
<!-- Generator: Adobe Illustrator 17.1.0, SVG Export Plug-In . SVG Version: 6.00 Build 0)  -->
<!DOCTYPE svg PUBLIC "-//W3C//DTD SVG 1.1//EN" "http://www.w3.org/Graphics/SVG/1.1/DTD/svg11.dtd">
<svg version="1.1" id="Capa_1" xmlns="http://www.w3.org/2000/svg" xmlns:xlink="http://www.w3.org/1999/xlink" x="0px" y="0px"
	 viewBox="0 0 460 460" style="enable-background:new 0 0 460 460;" xml:space="preserve">
<g>
	<path style="fill:none;stroke:#000000;stroke-width:20;stroke-linecap:round;stroke-linejoin:round;stroke-miterlimit:10;" d="
		M406.346,186.724c-0.359-0.06-0.18-0.043-0.002-0.02C398.433,78.252,316.84,10,230,10S61.567,78.252,53.656,186.703
		c0.179-0.023,0.357-0.039-0.002,0.02c-15.801,2.615-27.563,17.677-24.948,33.478l11.367,68.688
		c2.615,15.802,17.544,26.491,33.345,23.876c0,0,20.843,71.705,27.582,91.234c14.149,41,70.5,46,129,46s114.851-5,129-46
		c6.739-19.528,27.582-91.234,27.582-91.234c15.801,2.615,30.731-8.074,33.345-23.876l11.367-68.688
		C433.909,204.4,422.147,189.338,406.346,186.724z"/>
	
		<line style="fill:none;stroke:#000000;stroke-width:20;stroke-linecap:round;stroke-linejoin:round;stroke-miterlimit:10;" x1="194" y1="363.773" x2="266" y2="363.773"/>
	
		<line style="fill:none;stroke:#000000;stroke-width:20;stroke-linecap:round;stroke-linejoin:round;stroke-miterlimit:10;" x1="73.418" y1="312.766" x2="65.218" y2="260.456"/>
	
		<line style="fill:none;stroke:#000000;stroke-width:20;stroke-linecap:round;stroke-linejoin:round;stroke-miterlimit:10;" x1="386.582" y1="312.766" x2="394.781" y2="260.465"/>
	<path style="fill:none;stroke:#000000;stroke-width:20;stroke-linecap:round;stroke-linejoin:round;stroke-miterlimit:10;" d="
		M152.771,256.952c-19.683-8.255-30.99-28.065-29.371-48.243l84.369,35.385C194.509,259.39,172.454,265.207,152.771,256.952z"/>
	<path style="fill:none;stroke:#000000;stroke-width:20;stroke-linecap:round;stroke-linejoin:round;stroke-miterlimit:10;" d="
		M307.23,256.952c19.683-8.255,30.99-28.065,29.371-48.243l-84.369,35.385C265.491,259.39,287.546,265.207,307.23,256.952z"/>
	
		<polyline style="fill:none;stroke:#000000;stroke-width:20;stroke-linecap:round;stroke-linejoin:round;stroke-miterlimit:10;" points="
		156.363,444.222 133.246,339.046 73.418,312.766 	"/>
	
		<polyline style="fill:none;stroke:#000000;stroke-width:20;stroke-linecap:round;stroke-linejoin:round;stroke-miterlimit:10;" points="
		303.639,444.218 326.754,339.046 386.582,312.766 	"/>
	
		<circle style="fill:none;stroke:#000000;stroke-width:20;stroke-linecap:round;stroke-linejoin:round;stroke-miterlimit:10;" cx="146" cy="108.057" r="20.528"/>
	
		<circle style="fill:none;stroke:#000000;stroke-width:20;stroke-linecap:round;stroke-linejoin:round;stroke-miterlimit:10;" cx="314" cy="108.057" r="20.528"/>
	
		<circle style="fill:none;stroke:#000000;stroke-width:20;stroke-linecap:round;stroke-linejoin:round;stroke-miterlimit:10;" cx="230" cy="155.555" r="39.469"/>
</g>
<g>
</g>
<g>
</g>
<g>
</g>
<g>
</g>
<g>
</g>
<g>
</g>
<g>
</g>
<g>
</g>
<g>
</g>
<g>
</g>
<g>
</g>
<g>
</g>
<g>
</g>
<g>
</g>
<g>
</g>
</svg>
