<?xml version="1.0" encoding="iso-8859-1"?>
<!-- Generator: Adobe Illustrator 17.1.0, SVG Export Plug-In . SVG Version: 6.00 Build 0)  -->
<!DOCTYPE svg PUBLIC "-//W3C//DTD SVG 1.1//EN" "http://www.w3.org/Graphics/SVG/1.1/DTD/svg11.dtd">
<svg version="1.1" id="Capa_1" xmlns="http://www.w3.org/2000/svg" xmlns:xlink="http://www.w3.org/1999/xlink" x="0px" y="0px"
	 viewBox="0 0 452 452" style="enable-background:new 0 0 452 452;" xml:space="preserve">
<g>
	<path style="fill:none;stroke:#000000;stroke-width:20;stroke-linecap:round;stroke-linejoin:round;stroke-miterlimit:10;" d="
		M288.838,216.35c-44.831,0-81.173-36.342-81.173-81.173c0-44.831,36.343-81.173,81.173-81.173c19.116,0,36.686,6.612,50.555,17.668
		c-21.458-35.239-60.236-58.77-104.511-58.77c-67.531,0-122.276,54.745-122.276,122.276c0,67.531,54.745,122.276,122.276,122.276
		c44.275,0,83.052-23.532,104.511-58.77C325.524,209.739,307.954,216.35,288.838,216.35z"/>
	<path style="fill:none;stroke:#000000;stroke-width:20;stroke-linecap:round;stroke-linejoin:round;stroke-miterlimit:10;" d="
		M380.915,382.967c-40.723,17.08-86.354,5.045-113.787-26.601l174.554-73.21C445.033,324.902,421.639,365.887,380.915,382.967z"/>
	<path style="fill:none;stroke:#000000;stroke-width:20;stroke-linecap:round;stroke-linejoin:round;stroke-miterlimit:10;" d="
		M367.4,439.099c-49.029-3.097-88.564-37.638-100.271-82.734"/>
	<path style="fill:none;stroke:#000000;stroke-width:20;stroke-linecap:round;stroke-linejoin:round;stroke-miterlimit:10;" d="
		M71.085,382.967c40.723,17.08,86.354,5.045,113.787-26.601l-174.554-73.21C6.967,324.902,30.361,365.887,71.085,382.967z"/>
	<path style="fill:none;stroke:#000000;stroke-width:20;stroke-linecap:round;stroke-linejoin:round;stroke-miterlimit:10;" d="
		M84.6,439.099c49.029-3.097,88.564-37.638,100.271-82.734"/>
</g>
<g>
</g>
<g>
</g>
<g>
</g>
<g>
</g>
<g>
</g>
<g>
</g>
<g>
</g>
<g>
</g>
<g>
</g>
<g>
</g>
<g>
</g>
<g>
</g>
<g>
</g>
<g>
</g>
<g>
</g>
</svg>
