<?xml version="1.0" encoding="iso-8859-1"?>
<!-- Generator: Adobe Illustrator 17.1.0, SVG Export Plug-In . SVG Version: 6.00 Build 0)  -->
<!DOCTYPE svg PUBLIC "-//W3C//DTD SVG 1.1//EN" "http://www.w3.org/Graphics/SVG/1.1/DTD/svg11.dtd">
<svg version="1.1" id="Capa_1" xmlns="http://www.w3.org/2000/svg" xmlns:xlink="http://www.w3.org/1999/xlink" x="0px" y="0px"
	 viewBox="0 0 460 460" style="enable-background:new 0 0 460 460;" xml:space="preserve">
<g>
	
		<line style="fill:none;stroke:#000000;stroke-width:20;stroke-linecap:round;stroke-linejoin:round;stroke-miterlimit:10;" x1="44.293" y1="306.312" x2="415.715" y2="306.312"/>
	<path style="fill:none;stroke:#000000;stroke-width:20;stroke-linecap:round;stroke-linejoin:round;stroke-miterlimit:10;" d="
		M230.004,10C127.439,10,44.293,93.146,44.293,195.711v163.713c0,0,25.425,63.024,66.428,85.167
		c41.918,22.636,94.582-33.094,119.278-33.094s77.36,55.73,119.278,33.094c41.004-22.143,66.428-85.167,66.428-85.167l0.008-163.713
		C415.715,93.146,332.57,10,230.004,10z"/>
	<path style="fill:none;stroke:#000000;stroke-width:20;stroke-linecap:round;stroke-linejoin:round;stroke-miterlimit:10;" d="
		M137.726,396.755c-23.476-9.846-36.962-33.473-35.031-57.539l100.627,42.204C187.508,399.663,161.202,406.601,137.726,396.755z"/>
	<path style="fill:none;stroke:#000000;stroke-width:20;stroke-linecap:round;stroke-linejoin:round;stroke-miterlimit:10;" d="
		M323.211,397.265c-23.928,10.035-50.739,2.964-66.857-15.63l102.562-43.016C360.884,363.148,347.139,387.229,323.211,397.265z"/>
	
		<line style="fill:none;stroke:#000000;stroke-width:20;stroke-linecap:round;stroke-linejoin:round;stroke-miterlimit:10;" x1="415.715" y1="306.312" x2="44.285" y2="306.312"/>
	
		<line style="fill:none;stroke:#000000;stroke-width:20;stroke-linecap:round;stroke-linejoin:round;stroke-miterlimit:10;" x1="44.285" y1="253.2" x2="415.715" y2="253.2"/>
	
		<ellipse style="fill:none;stroke:#000000;stroke-width:20;stroke-linecap:round;stroke-linejoin:round;stroke-miterlimit:10;" cx="230" cy="143.111" rx="55.998" ry="69.889"/>
	
		<ellipse style="fill:none;stroke:#000000;stroke-width:20;stroke-linecap:round;stroke-linejoin:round;stroke-miterlimit:10;" cx="230" cy="158" rx="20.031" ry="25"/>
</g>
<g>
</g>
<g>
</g>
<g>
</g>
<g>
</g>
<g>
</g>
<g>
</g>
<g>
</g>
<g>
</g>
<g>
</g>
<g>
</g>
<g>
</g>
<g>
</g>
<g>
</g>
<g>
</g>
<g>
</g>
</svg>
