<?xml version="1.0" encoding="iso-8859-1"?>
<!-- Generator: Adobe Illustrator 17.1.0, SVG Export Plug-In . SVG Version: 6.00 Build 0)  -->
<!DOCTYPE svg PUBLIC "-//W3C//DTD SVG 1.1//EN" "http://www.w3.org/Graphics/SVG/1.1/DTD/svg11.dtd">
<svg version="1.1" id="Capa_1" xmlns="http://www.w3.org/2000/svg" xmlns:xlink="http://www.w3.org/1999/xlink" x="0px" y="0px"
	 viewBox="0 0 460 460" style="enable-background:new 0 0 460 460;" xml:space="preserve">
<g>
	<path style="fill:none;stroke:#000000;stroke-width:20;stroke-linecap:round;stroke-linejoin:round;stroke-miterlimit:10;" d="
		M414.243,163.521C379.728,76.274,314.998,37.214,230,37.214c-84.998,0-149.728,39.06-184.243,126.307
		c-69.644,74.198-16.095,188.065-16.095,188.065l11.5,71.2H74.51v-71.2c-32.833-81.552,10.749-139.268,10.749-139.268
		S145.908,269.442,230,269.442s144.741-57.123,144.741-57.123s43.582,57.716,10.749,139.268v71.2h33.348l11.5-71.2
		C430.338,351.586,483.887,237.72,414.243,163.521z"/>
	<path style="fill:none;stroke:#000000;stroke-width:20;stroke-linecap:round;stroke-linejoin:round;stroke-miterlimit:10;" d="
		M306.001,122.628c-3.125-28.546-12.214-56.623-27.983-80.744"/>
	<path style="fill:none;stroke:#000000;stroke-width:20;stroke-linecap:round;stroke-linejoin:round;stroke-miterlimit:10;" d="
		M264.312,266.308c26.167-27.506,41.318-69.695,42.808-113.681"/>
	<path style="fill:none;stroke:#000000;stroke-width:20;stroke-linecap:round;stroke-linejoin:round;stroke-miterlimit:10;" d="
		M195.688,266.308c-49.015-51.521-59.377-154.564-13.706-224.424"/>
	<path style="fill:none;stroke:#000000;stroke-width:20;stroke-linecap:round;stroke-linejoin:round;stroke-miterlimit:10;" d="
		M283.321,322.763c-14.724,14.724-38.597,14.724-53.321,0s-14.724-38.597,0-53.321"/>
</g>
<g>
</g>
<g>
</g>
<g>
</g>
<g>
</g>
<g>
</g>
<g>
</g>
<g>
</g>
<g>
</g>
<g>
</g>
<g>
</g>
<g>
</g>
<g>
</g>
<g>
</g>
<g>
</g>
<g>
</g>
</svg>
