<?xml version="1.0" encoding="iso-8859-1"?>
<!-- Generator: Adobe Illustrator 17.1.0, SVG Export Plug-In . SVG Version: 6.00 Build 0)  -->
<!DOCTYPE svg PUBLIC "-//W3C//DTD SVG 1.1//EN" "http://www.w3.org/Graphics/SVG/1.1/DTD/svg11.dtd">
<svg version="1.1" id="Capa_1" xmlns="http://www.w3.org/2000/svg" xmlns:xlink="http://www.w3.org/1999/xlink" x="0px" y="0px"
	 viewBox="0 0 460 460" style="enable-background:new 0 0 460 460;" xml:space="preserve">
<g>
	<path style="fill:none;stroke:#000000;stroke-width:20;stroke-linecap:round;stroke-linejoin:round;stroke-miterlimit:10;" d="
		M406.346,186.724c-0.359-0.06-0.18-0.043-0.002-0.02C398.433,78.252,316.84,10,230,10S61.567,78.252,53.656,186.703
		c0.179-0.023,0.357-0.039-0.002,0.02c-15.801,2.615-27.563,17.677-24.948,33.478l11.367,68.688
		c2.615,15.802,17.544,26.491,33.345,23.876c0,0,20.843,71.705,27.582,91.234c14.149,41,70.5,46,129,46s114.851-5,129-46
		c6.739-19.528,27.582-91.234,27.582-91.234c15.801,2.615,30.731-8.074,33.345-23.876l11.367-68.688
		C433.909,204.4,422.147,189.338,406.346,186.724z"/>
	
		<line style="fill:none;stroke:#000000;stroke-width:20;stroke-linecap:round;stroke-linejoin:round;stroke-miterlimit:10;" x1="73.418" y1="312.766" x2="73.418" y2="293.96"/>
	
		<line style="fill:none;stroke:#000000;stroke-width:20;stroke-linecap:round;stroke-linejoin:round;stroke-miterlimit:10;" x1="386.582" y1="312.766" x2="386.582" y2="293.96"/>
	
		<polyline style="fill:none;stroke:#000000;stroke-width:20;stroke-linecap:round;stroke-linejoin:round;stroke-miterlimit:10;" points="
		303.638,444.218 303.638,444.218 278.081,319.659 379.429,243.609 343.859,119.107 313.18,172.386 230,205.063 146.82,172.386 
		116.141,119.107 80.571,243.609 181.92,319.659 156.364,444.219 	"/>
	<path style="fill:none;stroke:#000000;stroke-width:20;stroke-linecap:round;stroke-linejoin:round;stroke-miterlimit:10;" d="
		M152.771,249.952c-19.683-8.255-30.99-28.065-29.371-48.243l84.369,35.385C194.509,252.39,172.454,258.207,152.771,249.952z"/>
	<path style="fill:none;stroke:#000000;stroke-width:20;stroke-linecap:round;stroke-linejoin:round;stroke-miterlimit:10;" d="
		M308.287,250.38c-20.062,8.414-42.541,2.485-56.055-13.105l85.991-36.066C339.873,221.775,328.349,241.966,308.287,250.38z"/>
	
		<line style="fill:none;stroke:#000000;stroke-width:20;stroke-linecap:round;stroke-linejoin:round;stroke-miterlimit:10;" x1="215" y1="152.627" x2="245" y2="152.627"/>
	
		<line style="fill:none;stroke:#000000;stroke-width:20;stroke-linecap:round;stroke-linejoin:round;stroke-miterlimit:10;" x1="215" y1="116.97" x2="245" y2="116.97"/>
	
		<line style="fill:none;stroke:#000000;stroke-width:20;stroke-linecap:round;stroke-linejoin:round;stroke-miterlimit:10;" x1="215" y1="81.313" x2="245" y2="81.313"/>
	
		<line style="fill:none;stroke:#000000;stroke-width:20;stroke-linecap:round;stroke-linejoin:round;stroke-miterlimit:10;" x1="215" y1="45.657" x2="245" y2="45.657"/>
	
		<line style="fill:none;stroke:#000000;stroke-width:20;stroke-linecap:round;stroke-linejoin:round;stroke-miterlimit:10;" x1="230" y1="10" x2="230" y2="152.627"/>
</g>
<g>
</g>
<g>
</g>
<g>
</g>
<g>
</g>
<g>
</g>
<g>
</g>
<g>
</g>
<g>
</g>
<g>
</g>
<g>
</g>
<g>
</g>
<g>
</g>
<g>
</g>
<g>
</g>
<g>
</g>
</svg>
