<?xml version="1.0" encoding="iso-8859-1"?>
<!-- Generator: Adobe Illustrator 17.1.0, SVG Export Plug-In . SVG Version: 6.00 Build 0)  -->
<!DOCTYPE svg PUBLIC "-//W3C//DTD SVG 1.1//EN" "http://www.w3.org/Graphics/SVG/1.1/DTD/svg11.dtd">
<svg version="1.1" id="Capa_1" xmlns="http://www.w3.org/2000/svg" xmlns:xlink="http://www.w3.org/1999/xlink" x="0px" y="0px"
	 viewBox="0 0 460 460" style="enable-background:new 0 0 460 460;" xml:space="preserve">
<g>
	<path style="fill:none;stroke:#000000;stroke-width:20;stroke-linecap:round;stroke-linejoin:round;stroke-miterlimit:10;" d="
		M69.234,179.452C24.949,219.54,1.621,280.815,12.76,343.984h120.443c-21.242-52.794-15.573-110.38,11.148-156.757"/>
	
		<polyline style="fill:none;stroke:#000000;stroke-width:20;stroke-linecap:round;stroke-linejoin:round;stroke-miterlimit:10;" points="
		301.387,161.161 400.191,161.161 400.191,119.455 233.366,119.455 	"/>
	<path style="fill:none;stroke:#000000;stroke-width:20;stroke-linecap:round;stroke-linejoin:round;stroke-miterlimit:10;" d="
		M51.394,177.605l92.958,9.623H267.5c18.715,0,33.886-15.171,33.886-33.886s-15.171-33.886-33.886-33.886
		s-33.886,15.171-33.886,33.886h-0.248V93.389H450V36.043L93.666,36.043L69.234,179.452"/>
	
		<polyline style="fill:none;stroke:#000000;stroke-width:20;stroke-linecap:round;stroke-linejoin:round;stroke-miterlimit:10;" points="
		135.372,107.175 135.372,153.341 197.8,153.341 	"/>
	
		<line style="fill:none;stroke:#000000;stroke-width:20;stroke-linecap:round;stroke-linejoin:round;stroke-miterlimit:10;" x1="135.372" y1="36.043" x2="135.372" y2="71.609"/>
	<path style="fill:none;stroke:#000000;stroke-width:20;stroke-linecap:round;stroke-linejoin:round;stroke-miterlimit:10;" d="
		M158.901,187.228c-0.943,3.315-1.458,6.809-1.458,10.427c0,21.018,17.039,38.057,38.057,38.057
		c21.018,0,38.057-17.039,38.057-38.057c0-3.617-0.515-7.112-1.458-10.427"/>
	
		<line style="fill:none;stroke:#000000;stroke-width:20;stroke-linecap:round;stroke-linejoin:round;stroke-miterlimit:10;" x1="358.484" y1="171.588" x2="358.484" y2="93.389"/>
	<path style="fill:none;stroke:#000000;stroke-width:20;stroke-linecap:round;stroke-linejoin:round;stroke-miterlimit:10;" d="
		M85.611,83.322c-14.862-14.862-38.958-14.862-53.821,0"/>
	
		<line style="fill:none;stroke:#000000;stroke-width:20;stroke-linecap:round;stroke-linejoin:round;stroke-miterlimit:10;" x1="450" y1="25.616" x2="450" y2="36.043"/>
	<path style="fill:none;stroke:#000000;stroke-width:20;stroke-linecap:round;stroke-linejoin:round;stroke-miterlimit:10;" d="
		M121.055,434.384c-26.893,0-48.694-21.801-48.694-48.694v-10.427"/>
	
		<circle style="fill:none;stroke:#000000;stroke-width:20;stroke-linecap:round;stroke-linejoin:round;stroke-miterlimit:10;" cx="72.361" cy="364.837" r="20.853"/>
	
		<line style="fill:none;stroke:#000000;stroke-width:20;stroke-linecap:round;stroke-linejoin:round;stroke-miterlimit:10;" x1="233.366" y1="93.389" x2="233.366" y2="36.043"/>
	<path style="fill:none;stroke:#000000;stroke-width:20;stroke-linecap:round;stroke-linejoin:round;stroke-miterlimit:10;" d="
		M71.16,283.571c-11.517,0-20.853-9.336-20.853-20.853c0-11.517,9.336-20.853,20.853-20.853s20.853,9.336,20.853,20.853"/>
</g>
<g>
</g>
<g>
</g>
<g>
</g>
<g>
</g>
<g>
</g>
<g>
</g>
<g>
</g>
<g>
</g>
<g>
</g>
<g>
</g>
<g>
</g>
<g>
</g>
<g>
</g>
<g>
</g>
<g>
</g>
</svg>
