<?xml version="1.0" encoding="iso-8859-1"?>
<!-- Generator: Adobe Illustrator 17.1.0, SVG Export Plug-In . SVG Version: 6.00 Build 0)  -->
<!DOCTYPE svg PUBLIC "-//W3C//DTD SVG 1.1//EN" "http://www.w3.org/Graphics/SVG/1.1/DTD/svg11.dtd">
<svg version="1.1" id="Capa_1" xmlns="http://www.w3.org/2000/svg" xmlns:xlink="http://www.w3.org/1999/xlink" x="0px" y="0px"
	 viewBox="0 0 460 460" style="enable-background:new 0 0 460 460;" xml:space="preserve">
<g>
	
		<rect x="10.23" y="172.715" transform="matrix(0.7071 -0.7071 0.7071 0.7071 -98.4539 164.8802)" style="fill:none;stroke:#000000;stroke-width:20;stroke-linecap:round;stroke-linejoin:round;stroke-miterlimit:10;" width="279.141" height="57.14"/>
	
		<line style="fill:none;stroke:#000000;stroke-width:20;stroke-linecap:round;stroke-linejoin:round;stroke-miterlimit:10;" x1="111.053" y1="280.436" x2="70.649" y2="240.033"/>
	
		<rect x="251.053" y="191.536" transform="matrix(0.7071 0.7071 -0.7071 0.7071 316.0275 -100.7445)" style="fill:none;stroke:#000000;stroke-width:20;stroke-linecap:round;stroke-linejoin:round;stroke-miterlimit:10;" width="57.14" height="279.141"/>
	
		<polyline style="fill:none;stroke:#000000;stroke-width:20;stroke-linecap:round;stroke-linejoin:round;stroke-miterlimit:10;" points="
		200.471,369.855 211.411,244.812 229.258,255.777 	"/>
	
		<line style="fill:none;stroke:#000000;stroke-width:20;stroke-linecap:round;stroke-linejoin:round;stroke-miterlimit:10;" x1="208.962" y1="272.807" x2="226.809" y2="283.771"/>
	
		<line style="fill:none;stroke:#000000;stroke-width:20;stroke-linecap:round;stroke-linejoin:round;stroke-miterlimit:10;" x1="206.513" y1="300.802" x2="224.359" y2="311.766"/>
	
		<polyline style="fill:none;stroke:#000000;stroke-width:20;stroke-linecap:round;stroke-linejoin:round;stroke-miterlimit:10;" points="
		240.875,410.259 365.917,399.319 354.953,381.472 	"/>
	
		<line style="fill:none;stroke:#000000;stroke-width:20;stroke-linecap:round;stroke-linejoin:round;stroke-miterlimit:10;" x1="337.923" y1="401.768" x2="326.959" y2="383.921"/>
	
		<line style="fill:none;stroke:#000000;stroke-width:20;stroke-linecap:round;stroke-linejoin:round;stroke-miterlimit:10;" x1="309.928" y1="404.217" x2="298.964" y2="386.371"/>
	<path style="fill:none;stroke:#000000;stroke-width:20;stroke-linecap:round;stroke-linejoin:round;stroke-miterlimit:10;" d="
		M333.14,104.494l-19.736,19.736c-11.95,11.95-11.95,31.324,0,43.274c11.95,11.95,31.324,11.95,43.274,0
		c4.808-4.808,15.37-15.37,20.178-20.178c11.95-11.95,31.324-11.95,43.274,0c11.95,11.95,11.95,31.324,0,43.274
		c-2.745,2.745-41.815,41.815-41.815,41.815"/>
	
		<line style="fill:none;stroke:#000000;stroke-width:20;stroke-linecap:round;stroke-linejoin:round;stroke-miterlimit:10;" x1="235.576" y1="155.913" x2="195.172" y2="115.509"/>
	
		<line style="fill:none;stroke:#000000;stroke-width:20;stroke-linecap:round;stroke-linejoin:round;stroke-miterlimit:10;" x1="324.995" y1="245.331" x2="365.398" y2="285.735"/>
	
		<line style="fill:none;stroke:#000000;stroke-width:20;stroke-linecap:round;stroke-linejoin:round;stroke-miterlimit:10;" x1="240.875" y1="410.259" x2="200.471" y2="369.855"/>
	<path style="fill:none;stroke:#000000;stroke-width:20;stroke-linecap:round;stroke-linejoin:round;stroke-miterlimit:10;" d="
		M248.492,102.593c0,0,80.885-80.885,83.631-83.631c11.95-11.95,31.324-11.95,43.274,0c11.95,11.95,11.95,31.324,0,43.274
		L355.66,81.973"/>
</g>
<g>
</g>
<g>
</g>
<g>
</g>
<g>
</g>
<g>
</g>
<g>
</g>
<g>
</g>
<g>
</g>
<g>
</g>
<g>
</g>
<g>
</g>
<g>
</g>
<g>
</g>
<g>
</g>
<g>
</g>
</svg>
