<?xml version="1.0" encoding="iso-8859-1"?>
<!-- Generator: Adobe Illustrator 17.1.0, SVG Export Plug-In . SVG Version: 6.00 Build 0)  -->
<!DOCTYPE svg PUBLIC "-//W3C//DTD SVG 1.1//EN" "http://www.w3.org/Graphics/SVG/1.1/DTD/svg11.dtd">
<svg version="1.1" id="Capa_1" xmlns="http://www.w3.org/2000/svg" xmlns:xlink="http://www.w3.org/1999/xlink" x="0px" y="0px"
	 viewBox="0 0 460 460" style="enable-background:new 0 0 460 460;" xml:space="preserve">
<g>
	
		<line style="fill:none;stroke:#000000;stroke-width:20;stroke-linecap:round;stroke-linejoin:round;stroke-miterlimit:10;" x1="103.838" y1="365.948" x2="135.113" y2="365.948"/>
	<path style="fill:none;stroke:#000000;stroke-width:20;stroke-linecap:round;stroke-linejoin:round;stroke-miterlimit:10;" d="
		M103.838,319.683v114.68c0,8.637,7.001,15.638,15.638,15.638c8.636,0,15.638-7.001,15.638-15.638v-114.68"/>
	
		<line style="fill:none;stroke:#000000;stroke-width:20;stroke-linecap:round;stroke-linejoin:round;stroke-miterlimit:10;" x1="135.113" y1="408.951" x2="103.838" y2="408.951"/>
	
		<polyline style="fill:none;stroke:#000000;stroke-width:20;stroke-linecap:round;stroke-linejoin:round;stroke-miterlimit:10;" points="
		140.638,250.988 135.308,39.32 119.475,10 103.642,39.32 98.312,250.988 	"/>
	<path style="fill:none;stroke:#000000;stroke-width:20;stroke-linecap:round;stroke-linejoin:round;stroke-miterlimit:10;" d="
		M14.006,193.043c10.751,0,19.547,8.796,19.547,19.547v32.168c0,21.502,17.592,39.094,39.094,39.094h7.734"/>
	<path style="fill:none;stroke:#000000;stroke-width:20;stroke-linecap:round;stroke-linejoin:round;stroke-miterlimit:10;" d="
		M158.569,283.851h7.734c21.502,0,39.094-17.592,39.094-39.094V212.59c0-10.751,8.796-19.547,19.547-19.547"/>
	
		<circle style="fill:none;stroke:#000000;stroke-width:20;stroke-linecap:round;stroke-linejoin:round;stroke-miterlimit:10;" cx="119.475" cy="283.851" r="39.094"/>
	<path style="fill:none;stroke:#000000;stroke-width:20;stroke-linecap:round;stroke-linejoin:round;stroke-miterlimit:10;" d="
		M119.475,293.625c-5.389,0-9.773-4.384-9.773-9.773s4.384-9.773,9.773-9.773c5.389,0,9.773,4.384,9.773,9.773
		S124.864,293.625,119.475,293.625z"/>
	
		<line style="fill:none;stroke:#000000;stroke-width:20;stroke-linecap:round;stroke-linejoin:round;stroke-miterlimit:10;" x1="356.162" y1="94.052" x2="324.887" y2="94.052"/>
	<path style="fill:none;stroke:#000000;stroke-width:20;stroke-linecap:round;stroke-linejoin:round;stroke-miterlimit:10;" d="
		M356.162,140.317V25.638c0-8.637-7.001-15.638-15.638-15.638c-8.636,0-15.638,7.001-15.638,15.638v114.68"/>
	
		<polyline style="fill:none;stroke:#000000;stroke-width:20;stroke-linecap:round;stroke-linejoin:round;stroke-miterlimit:10;" points="
		319.362,209.012 324.692,420.68 340.525,450 356.358,420.68 361.688,209.012 	"/>
	<path style="fill:none;stroke:#000000;stroke-width:20;stroke-linecap:round;stroke-linejoin:round;stroke-miterlimit:10;" d="
		M445.994,266.957c-10.751,0-19.547-8.796-19.547-19.547v-32.168c0-21.502-17.592-39.094-39.094-39.094h-7.734"/>
	<path style="fill:none;stroke:#000000;stroke-width:20;stroke-linecap:round;stroke-linejoin:round;stroke-miterlimit:10;" d="
		M301.431,176.149h-7.734c-21.502,0-39.094,17.592-39.094,39.094v32.168c0,10.751-8.796,19.547-19.547,19.547"/>
	
		<circle style="fill:none;stroke:#000000;stroke-width:20;stroke-linecap:round;stroke-linejoin:round;stroke-miterlimit:10;" cx="340.525" cy="176.149" r="39.094"/>
	<path style="fill:none;stroke:#000000;stroke-width:20;stroke-linecap:round;stroke-linejoin:round;stroke-miterlimit:10;" d="
		M340.525,166.375c5.389,0,9.773,4.384,9.773,9.773s-4.384,9.773-9.773,9.773s-9.773-4.384-9.773-9.773
		S335.136,166.375,340.525,166.375z"/>
</g>
<g>
</g>
<g>
</g>
<g>
</g>
<g>
</g>
<g>
</g>
<g>
</g>
<g>
</g>
<g>
</g>
<g>
</g>
<g>
</g>
<g>
</g>
<g>
</g>
<g>
</g>
<g>
</g>
<g>
</g>
</svg>
