<?xml version="1.0" encoding="iso-8859-1"?>
<!-- Generator: Adobe Illustrator 17.1.0, SVG Export Plug-In . SVG Version: 6.00 Build 0)  -->
<!DOCTYPE svg PUBLIC "-//W3C//DTD SVG 1.1//EN" "http://www.w3.org/Graphics/SVG/1.1/DTD/svg11.dtd">
<svg version="1.1" id="Capa_1" xmlns="http://www.w3.org/2000/svg" xmlns:xlink="http://www.w3.org/1999/xlink" x="0px" y="0px"
	 viewBox="0 0 506.271 506.271" style="enable-background:new 0 0 506.271 506.271;" xml:space="preserve">
<g>
	<path style="fill:none;stroke:#000000;stroke-width:20;stroke-linecap:round;stroke-linejoin:round;stroke-miterlimit:10;" d="
		M123.007,382.391c10.14,1.511,20.838-1.631,28.644-9.436c13.08-13.08,13.08-34.288,0-47.368c-1.989-1.989-3.46-4.376-5.604-5.924"
		/>
	<path style="fill:none;stroke:#000000;stroke-width:20;stroke-linecap:round;stroke-linejoin:round;stroke-miterlimit:10;" d="
		M61.252,318.916c-24.759,62.048-7.743,132.975,41.228,177.354l65.126-65.126c-29.028-20.743-49.568-50.162-59.66-82.912"/>
	<path style="fill:none;stroke:#000000;stroke-width:20;stroke-linecap:round;stroke-linejoin:round;stroke-miterlimit:10;" d="
		M247.045,176.238l-35.508-35.508c0,0-124.141,124.141-139.805,139.805c-15.663,15.663-15.663,41.058,0,56.721
		c15.663,15.663,41.058,15.663,56.721,0c15.663-15.663,97.478-97.478,97.478-97.478l-21.213-21.213L247.045,176.238z"/>
	
		<line style="fill:none;stroke:#000000;stroke-width:20;stroke-linecap:round;stroke-linejoin:round;stroke-miterlimit:10;" x1="163.961" y1="259.322" x2="204.718" y2="218.565"/>
	
		<line style="fill:none;stroke:#000000;stroke-width:20;stroke-linecap:round;stroke-linejoin:round;stroke-miterlimit:10;" x1="229.29" y1="158.484" x2="377.775" y2="10"/>
	
		<polyline style="fill:none;stroke:#000000;stroke-width:20;stroke-linecap:round;stroke-linejoin:round;stroke-miterlimit:10;" points="
		274.329,113.446 370.704,209.821 467.079,113.446 370.704,17.071 	"/>
	
		<line style="fill:none;stroke:#000000;stroke-width:20;stroke-linecap:round;stroke-linejoin:round;stroke-miterlimit:10;" x1="405.399" y1="113.446" x2="336.009" y2="113.446"/>
	
		<line style="fill:none;stroke:#000000;stroke-width:20;stroke-linecap:round;stroke-linejoin:round;stroke-miterlimit:10;" x1="370.704" y1="148.141" x2="370.704" y2="78.751"/>
	
		<line style="fill:none;stroke:#000000;stroke-width:20;stroke-linecap:round;stroke-linejoin:round;stroke-miterlimit:10;" x1="185.174" y1="280.535" x2="128.453" y2="223.814"/>
	
		<line style="fill:none;stroke:#000000;stroke-width:20;stroke-linecap:round;stroke-linejoin:round;stroke-miterlimit:10;" x1="71.732" y1="280.535" x2="107.24" y2="316.043"/>
	
		<line style="fill:none;stroke:#000000;stroke-width:20;stroke-linecap:round;stroke-linejoin:round;stroke-miterlimit:10;" x1="197.394" y1="140.73" x2="204.465" y2="147.801"/>
	
		<line style="fill:none;stroke:#000000;stroke-width:20;stroke-linecap:round;stroke-linejoin:round;stroke-miterlimit:10;" x1="39.192" y1="309.621" x2="59.996" y2="309.621"/>
</g>
<g>
</g>
<g>
</g>
<g>
</g>
<g>
</g>
<g>
</g>
<g>
</g>
<g>
</g>
<g>
</g>
<g>
</g>
<g>
</g>
<g>
</g>
<g>
</g>
<g>
</g>
<g>
</g>
<g>
</g>
</svg>
