<?xml version="1.0" encoding="iso-8859-1"?>
<!-- Generator: Adobe Illustrator 17.1.0, SVG Export Plug-In . SVG Version: 6.00 Build 0)  -->
<!DOCTYPE svg PUBLIC "-//W3C//DTD SVG 1.1//EN" "http://www.w3.org/Graphics/SVG/1.1/DTD/svg11.dtd">
<svg version="1.1" id="Capa_1" xmlns="http://www.w3.org/2000/svg" xmlns:xlink="http://www.w3.org/1999/xlink" x="0px" y="0px"
	 viewBox="0 0 460 460" style="enable-background:new 0 0 460 460;" xml:space="preserve">
<g>
	<path style="fill:none;stroke:#000000;stroke-width:20;stroke-linecap:round;stroke-linejoin:round;stroke-miterlimit:10;" d="
		M10,227.655c0,0,0,43.124,0,105.034s98.497,112.098,220,112.098s220-50.188,220-112.098s0-105.034,0-105.034"/>
	<path style="fill:none;stroke:#000000;stroke-width:20;stroke-linecap:round;stroke-linejoin:round;stroke-miterlimit:10;" d="
		M137.122,126.007C62.037,143.85,10,182.656,10,227.655c0,24.53,15.475,47.216,41.706,65.673"/>
	<path style="fill:none;stroke:#000000;stroke-width:20;stroke-linecap:round;stroke-linejoin:round;stroke-miterlimit:10;" d="
		M87.156,312.904c38.437,16.737,88.32,26.849,142.844,26.849c121.503,0,220-50.188,220-112.098c0-45-52.04-83.807-127.128-101.649"
		/>
	<path style="fill:none;stroke:#000000;stroke-width:20;stroke-linecap:round;stroke-linejoin:round;stroke-miterlimit:10;" d="
		M137.123,155.56c-38.557,13.531-63.561,35.274-63.561,59.79c0,41.032,70.04,74.295,156.438,74.295s156.438-33.263,156.438-74.295
		c0-24.517-25.005-46.26-63.564-59.792"/>
	<path style="fill:none;stroke:#000000;stroke-width:20;stroke-linecap:round;stroke-linejoin:round;stroke-miterlimit:10;" d="
		M137.124,51.706c0,0,0,131.185,0,151.34s41.582,36.493,92.876,36.493s92.876-16.338,92.876-36.493s0-151.34,0-151.34"/>
	<path style="fill:none;stroke:#000000;stroke-width:20;stroke-linecap:round;stroke-linejoin:round;stroke-miterlimit:10;" d="
		M214.28,87.676c5.11,0.343,10.361,0.523,15.72,0.523c51.294,0,92.876-16.338,92.876-36.493c0-20.154-41.582-36.493-92.876-36.493
		c-51.294,0-92.876,16.339-92.876,36.493c0,12.724,16.578,23.926,41.706,30.457"/>
</g>
<g>
</g>
<g>
</g>
<g>
</g>
<g>
</g>
<g>
</g>
<g>
</g>
<g>
</g>
<g>
</g>
<g>
</g>
<g>
</g>
<g>
</g>
<g>
</g>
<g>
</g>
<g>
</g>
<g>
</g>
</svg>
