<?xml version="1.0" encoding="iso-8859-1"?>
<!-- Generator: Adobe Illustrator 17.1.0, SVG Export Plug-In . SVG Version: 6.00 Build 0)  -->
<!DOCTYPE svg PUBLIC "-//W3C//DTD SVG 1.1//EN" "http://www.w3.org/Graphics/SVG/1.1/DTD/svg11.dtd">
<svg version="1.1" id="Capa_1" xmlns="http://www.w3.org/2000/svg" xmlns:xlink="http://www.w3.org/1999/xlink" x="0px" y="0px"
	 viewBox="0 0 441.996 441.996" style="enable-background:new 0 0 441.996 441.996;" xml:space="preserve">
<g>
	<path style="fill:none;stroke:#000000;stroke-width:20;stroke-linecap:round;stroke-linejoin:round;stroke-miterlimit:10;" d="
		M222.549,53.378c26.909,0,39.434,24.946,32.42,64.644c-4.312,24.401-13.86,46.992-27.432,66.584l-33.473-23.968l-32.287,32.287
		l24.134,33.705c-19.889,14.057-42.945,23.932-67.888,28.339c-39.698,7.014-64.643-5.511-64.643-32.42
		c-57.837,57.837-57.838,151.61-0.001,209.448c3.027-16.436,10.896-32.156,23.607-44.867c26.381-26.381,65.714-31.885,97.521-16.551
		c2.238-19.816,10.932-39.042,26.13-54.24c25.366-25.366,61.944-32.662,93.779-21.925c-10.738-31.835-3.442-68.412,21.925-93.779
		c15.198-15.198,34.423-23.891,54.24-26.13c-15.333-31.808-9.83-71.14,16.552-97.521c12.711-12.711,28.431-20.58,44.867-23.607
		C374.158-4.46,280.386-4.459,222.549,53.378z"/>
	
		<line style="fill:none;stroke:#000000;stroke-width:20;stroke-linecap:round;stroke-linejoin:round;stroke-miterlimit:10;" x1="194.063" y1="160.638" x2="169.339" y2="142.934"/>
	
		<line style="fill:none;stroke:#000000;stroke-width:20;stroke-linecap:round;stroke-linejoin:round;stroke-miterlimit:10;" x1="144.072" y1="168.201" x2="161.776" y2="192.924"/>
</g>
<g>
</g>
<g>
</g>
<g>
</g>
<g>
</g>
<g>
</g>
<g>
</g>
<g>
</g>
<g>
</g>
<g>
</g>
<g>
</g>
<g>
</g>
<g>
</g>
<g>
</g>
<g>
</g>
<g>
</g>
</svg>
