<?xml version="1.0" encoding="iso-8859-1"?>
<!-- Generator: Adobe Illustrator 17.1.0, SVG Export Plug-In . SVG Version: 6.00 Build 0)  -->
<!DOCTYPE svg PUBLIC "-//W3C//DTD SVG 1.1//EN" "http://www.w3.org/Graphics/SVG/1.1/DTD/svg11.dtd">
<svg version="1.1" id="Capa_1" xmlns="http://www.w3.org/2000/svg" xmlns:xlink="http://www.w3.org/1999/xlink" x="0px" y="0px"
	 viewBox="0 0 460 460" style="enable-background:new 0 0 460 460;" xml:space="preserve">
<g>
	<path style="fill:none;stroke:#000000;stroke-width:20;stroke-linecap:round;stroke-linejoin:round;stroke-miterlimit:10;" d="
		M230,10C108.497,10,10,108.497,10,230s98.497,220,220,220s220-98.497,220-220S351.503,10,230,10z M411.912,230
		c0,5.637-0.27,11.209-0.772,16.715h-64.771V90.182v0C386.418,123.551,411.912,173.796,411.912,230z M48.088,230
		c0-100.468,81.445-181.913,181.912-181.913c20.746,0,40.676,3.481,59.25,9.877l0,0v0.01L100.509,246.715v57.119H289.25v98.201
		c-18.574,6.396-38.504,9.877-59.25,9.877C129.532,411.913,48.088,330.468,48.088,230z M289.25,246.715H157.363L289.25,114.828
		V246.715z M346.369,369.818v-65.983h49.924C384.875,329.514,367.686,352.056,346.369,369.818z"/>
</g>
<g>
</g>
<g>
</g>
<g>
</g>
<g>
</g>
<g>
</g>
<g>
</g>
<g>
</g>
<g>
</g>
<g>
</g>
<g>
</g>
<g>
</g>
<g>
</g>
<g>
</g>
<g>
</g>
<g>
</g>
</svg>
