<?xml version="1.0" encoding="iso-8859-1"?>
<!-- Generator: Adobe Illustrator 17.1.0, SVG Export Plug-In . SVG Version: 6.00 Build 0)  -->
<!DOCTYPE svg PUBLIC "-//W3C//DTD SVG 1.1//EN" "http://www.w3.org/Graphics/SVG/1.1/DTD/svg11.dtd">
<svg version="1.1" id="Capa_1" xmlns="http://www.w3.org/2000/svg" xmlns:xlink="http://www.w3.org/1999/xlink" x="0px" y="0px"
	 viewBox="0 0 470 470" style="enable-background:new 0 0 470 470;" xml:space="preserve">
<g>
	<path style="fill:none;stroke:#000000;stroke-width:20;stroke-linecap:round;stroke-linejoin:round;stroke-miterlimit:10;" d="
		M254.587,206.287c9.11,0,16.495-7.385,16.495-16.495v-35.59c0-9.11-7.385-16.495-16.495-16.495h-39.175
		c-9.11,0-16.495,7.385-16.495,16.495v35.59c0,9.11,7.385,16.495,16.495,16.495c0,0-22.191,14.301-22.191,44.851
		c0,37.701,18.705,83.184,41.779,83.184s41.779-45.483,41.779-83.184C276.779,220.588,254.587,206.287,254.587,206.287z"/>
	
		<line style="fill:none;stroke:#000000;stroke-width:20;stroke-linecap:round;stroke-linejoin:round;stroke-miterlimit:10;" x1="219.536" y1="137.708" x2="219.536" y2="112.575"/>
	
		<line style="fill:none;stroke:#000000;stroke-width:20;stroke-linecap:round;stroke-linejoin:round;stroke-miterlimit:10;" x1="253.616" y1="138.013" x2="253.616" y2="112.575"/>
	<path style="fill:none;stroke:#000000;stroke-width:20;stroke-linecap:round;stroke-linejoin:round;stroke-miterlimit:10;" d="
		M271.082,164.816l107.396,9.622c0,0,26.622-95.277-22.068-164.438"/>
	<path style="fill:none;stroke:#000000;stroke-width:20;stroke-linecap:round;stroke-linejoin:round;stroke-miterlimit:10;" d="
		M271.082,189.558l55.85,58.582c0,0,17.688,129.895-42.686,211.86"/>
	<path style="fill:none;stroke:#000000;stroke-width:20;stroke-linecap:round;stroke-linejoin:round;stroke-miterlimit:10;" d="
		M271.082,152.445l65.978-14.433c0,0,12.886-80.075-35.051-128.013"/>
	<path style="fill:none;stroke:#000000;stroke-width:20;stroke-linecap:round;stroke-linejoin:round;stroke-miterlimit:10;" d="
		M271.082,177.187l128.014,49.304c0,0,28.684,99.311-22.068,180.933"/>
	<path style="fill:none;stroke:#000000;stroke-width:20;stroke-linecap:round;stroke-linejoin:round;stroke-miterlimit:10;" d="
		M198.918,164.816l-107.396,9.622c0,0-26.622-95.277,22.068-164.438"/>
	<path style="fill:none;stroke:#000000;stroke-width:20;stroke-linecap:round;stroke-linejoin:round;stroke-miterlimit:10;" d="
		M198.918,189.558l-55.85,58.582c0,0-17.688,129.895,42.686,211.86"/>
	<path style="fill:none;stroke:#000000;stroke-width:20;stroke-linecap:round;stroke-linejoin:round;stroke-miterlimit:10;" d="
		M198.918,152.445l-65.978-14.433c0,0-12.886-80.075,35.051-128.013"/>
	<path style="fill:none;stroke:#000000;stroke-width:20;stroke-linecap:round;stroke-linejoin:round;stroke-miterlimit:10;" d="
		M198.918,177.187L70.904,226.491c0,0-28.684,99.311,22.068,180.933"/>
</g>
<g>
</g>
<g>
</g>
<g>
</g>
<g>
</g>
<g>
</g>
<g>
</g>
<g>
</g>
<g>
</g>
<g>
</g>
<g>
</g>
<g>
</g>
<g>
</g>
<g>
</g>
<g>
</g>
<g>
</g>
</svg>
