<?xml version="1.0" encoding="iso-8859-1"?>
<!-- Generator: Adobe Illustrator 17.1.0, SVG Export Plug-In . SVG Version: 6.00 Build 0)  -->
<!DOCTYPE svg PUBLIC "-//W3C//DTD SVG 1.1//EN" "http://www.w3.org/Graphics/SVG/1.1/DTD/svg11.dtd">
<svg version="1.1" id="Capa_1" xmlns="http://www.w3.org/2000/svg" xmlns:xlink="http://www.w3.org/1999/xlink" x="0px" y="0px"
	 viewBox="0 0 471 471" style="enable-background:new 0 0 471 471;" xml:space="preserve">
<g>
	<path style="fill:none;stroke:#000000;stroke-width:20;stroke-linecap:round;stroke-linejoin:round;stroke-miterlimit:10;" d="
		M447.281,235.5c-23.404-34.707-32.739-67.217-28.893-106.932c-36.527-16.109-59.846-39.428-75.956-75.956
		c-39.715,3.846-72.225-5.489-106.932-28.893c-34.707,23.404-67.217,32.739-106.932,28.893
		c-16.109,36.528-39.428,59.846-75.956,75.956c3.846,39.715-5.489,72.225-28.893,106.932
		c23.404,34.707,32.739,67.217,28.893,106.932c36.528,16.109,59.846,39.428,75.956,75.956c39.715-3.846,72.225,5.489,106.932,28.893
		c34.707-23.404,67.217-32.739,106.932-28.893c16.109-36.527,39.428-59.846,75.956-75.956
		C414.542,302.717,423.877,270.207,447.281,235.5z"/>
	<path style="fill:none;stroke:#000000;stroke-width:20;stroke-linecap:round;stroke-linejoin:round;stroke-miterlimit:10;" d="
		M356.518,235.5c-13.374-19.833-18.708-38.41-16.51-61.104c-20.873-9.205-34.198-22.53-43.403-43.403
		c-22.694,2.197-41.271-3.137-61.104-16.51c-19.833,13.374-38.41,18.708-61.104,16.51c-9.205,20.873-22.53,34.198-43.403,43.403
		c2.197,22.694-3.137,41.271-16.51,61.104c13.374,19.833,18.708,38.41,16.51,61.104c20.873,9.205,34.198,22.53,43.403,43.403
		c22.694-2.197,41.271,3.137,61.104,16.51c19.833-13.374,38.41-18.708,61.104-16.51c9.205-20.873,22.53-34.198,43.403-43.403
		C337.81,273.91,343.144,255.333,356.518,235.5z"/>
	
		<line style="fill:none;stroke:#000000;stroke-width:20;stroke-linecap:round;stroke-linejoin:round;stroke-miterlimit:10;" x1="121.641" y1="40.765" x2="349.359" y2="430.235"/>
	
		<line style="fill:none;stroke:#000000;stroke-width:20;stroke-linecap:round;stroke-linejoin:round;stroke-miterlimit:10;" x1="235.5" y1="461" x2="235.5" y2="10"/>
	
		<line style="fill:none;stroke:#000000;stroke-width:20;stroke-linecap:round;stroke-linejoin:round;stroke-miterlimit:10;" x1="121.641" y1="430.235" x2="349.359" y2="40.765"/>
	
		<line style="fill:none;stroke:#000000;stroke-width:20;stroke-linecap:round;stroke-linejoin:round;stroke-miterlimit:10;" x1="430.235" y1="121.641" x2="40.765" y2="349.359"/>
	
		<line style="fill:none;stroke:#000000;stroke-width:20;stroke-linecap:round;stroke-linejoin:round;stroke-miterlimit:10;" x1="461" y1="235.5" x2="10" y2="235.5"/>
	
		<line style="fill:none;stroke:#000000;stroke-width:20;stroke-linecap:round;stroke-linejoin:round;stroke-miterlimit:10;" x1="40.765" y1="121.641" x2="430.235" y2="349.359"/>
</g>
<g>
</g>
<g>
</g>
<g>
</g>
<g>
</g>
<g>
</g>
<g>
</g>
<g>
</g>
<g>
</g>
<g>
</g>
<g>
</g>
<g>
</g>
<g>
</g>
<g>
</g>
<g>
</g>
<g>
</g>
</svg>
