<?xml version="1.0" encoding="iso-8859-1"?>
<!-- Generator: Adobe Illustrator 17.1.0, SVG Export Plug-In . SVG Version: 6.00 Build 0)  -->
<!DOCTYPE svg PUBLIC "-//W3C//DTD SVG 1.1//EN" "http://www.w3.org/Graphics/SVG/1.1/DTD/svg11.dtd">
<svg version="1.1" id="Capa_1" xmlns="http://www.w3.org/2000/svg" xmlns:xlink="http://www.w3.org/1999/xlink" x="0px" y="0px"
	 viewBox="0 0 460 460" style="enable-background:new 0 0 460 460;" xml:space="preserve">
<g>
	<path style="fill:#302188;stroke:#000000;stroke-width:20;stroke-linecap:round;stroke-linejoin:round;stroke-miterlimit:10;" d="
		M268.459,262.634v-54.454h-76.918v54.454c12.139,9.012,24.879,20.023,38.459,34.301l0,0l0,0
		C243.58,282.657,256.32,271.646,268.459,262.634z"/>
	<g>
		<path style="fill:#302188;stroke:#000000;stroke-width:20;stroke-linecap:round;stroke-linejoin:round;stroke-miterlimit:10;" d="
			M331.865,108.518L331.865,108.518v116.341c18.936-10.434,37.363-21.956,56.579-41.484c0,0,0.001-0.001,0.001-0.001
			c-11.525-29.984-31.316-55.867-56.58-74.862V108.518z"/>
		<path style="fill:#302188;stroke:#000000;stroke-width:20;stroke-linecap:round;stroke-linejoin:round;stroke-miterlimit:10;" d="
			M191.541,78.941L191.541,78.941v65.833h76.918V78.928l0,0v-0.005c-12.357-2.864-25.23-4.384-38.459-4.384
			s-26.102,1.52-38.459,4.384V78.941z"/>
		<path style="fill:#302188;stroke:#000000;stroke-width:20;stroke-linecap:round;stroke-linejoin:round;stroke-miterlimit:10;" d="
			M128.135,224.859V108.53v0v-0.018c-25.264,18.995-45.055,44.878-56.58,74.862c0,0,0.001,0.001,0.001,0.001
			C90.772,202.904,109.199,214.425,128.135,224.859z"/>
	</g>
	<path style="fill:#B772ED;stroke:#000000;stroke-width:20;stroke-linecap:round;stroke-linejoin:round;stroke-miterlimit:10;" d="
		M97.879,383.055c50.066,13.739,103.094-35.834,132.121-35.834s82.055,49.573,132.121,35.834
		c47.879-13.139,123.58-101.669,68.76-255.631c-35.833,58.668-66.681,79.618-99.017,97.435V108.518
		c-18.553-13.947-40.053-24.179-63.406-29.591v65.846h-76.918V78.941c-23.353,5.412-44.853,15.641-63.406,29.589v116.329
		c-32.335-17.817-63.183-38.768-99.017-97.435C-25.701,281.386,50,369.916,97.879,383.055z M355.357,272.117
		c1.824,22.736-10.917,45.058-33.095,54.36c-22.179,9.302-47.031,2.747-61.971-14.488L355.357,272.117z M191.541,208.18h76.918
		v54.454c-12.139,9.012-24.879,20.023-38.459,34.301c-13.58-14.278-26.32-25.29-38.459-34.301V208.18z M104.643,272.117
		l95.066,39.872c-14.94,17.235-39.792,23.79-61.971,14.488C115.56,317.174,102.819,294.853,104.643,272.117z"/>
</g>
<g>
</g>
<g>
</g>
<g>
</g>
<g>
</g>
<g>
</g>
<g>
</g>
<g>
</g>
<g>
</g>
<g>
</g>
<g>
</g>
<g>
</g>
<g>
</g>
<g>
</g>
<g>
</g>
<g>
</g>
</svg>
