<?xml version="1.0" encoding="iso-8859-1"?>
<!-- Generator: Adobe Illustrator 17.1.0, SVG Export Plug-In . SVG Version: 6.00 Build 0)  -->
<!DOCTYPE svg PUBLIC "-//W3C//DTD SVG 1.1//EN" "http://www.w3.org/Graphics/SVG/1.1/DTD/svg11.dtd">
<svg version="1.1" id="Capa_1" xmlns="http://www.w3.org/2000/svg" xmlns:xlink="http://www.w3.org/1999/xlink" x="0px" y="0px"
	 viewBox="0 0 460 460" style="enable-background:new 0 0 460 460;" xml:space="preserve">
<g>
	<path style="fill:#59B867;stroke:#000000;stroke-width:20;stroke-linecap:round;stroke-linejoin:round;stroke-miterlimit:10;" d="
		M331.565,10C286,10,250.239,76.644,230,76.644S174,10,128.435,10c-60.102,0-99.102,86.351-88.769,115.018
		C50,153.684,97,189.325,133.063,189.325c43.179,0,69.011-44.303,96.937-44.303s53.758,44.303,96.937,44.303
		c36.063,0,83.063-35.641,93.396-64.307C430.667,96.351,391.667,10,331.565,10z M141.239,125.064
		c-21.338-8.949-33.595-30.424-31.84-52.297l91.46,38.359C186.485,127.708,162.576,134.014,141.239,125.064z M318.761,125.064
		c-21.338,8.949-45.246,2.643-59.62-13.938l91.46-38.359C352.356,94.641,340.099,116.115,318.761,125.064z"/>
	<path style="fill:#FCC324;stroke:#000000;stroke-width:20;stroke-linecap:round;stroke-linejoin:round;stroke-miterlimit:10;" d="
		M230,237.586c-54.041-39.893-56.2,48.36-124.959,37.39c12.727,30.542,72.384,53.405,124.959-11.372
		c52.574,64.777,112.231,41.915,124.959,11.372C286.2,285.945,284.041,197.693,230,237.586z"/>
	<path style="fill:#FCC324;stroke:#000000;stroke-width:20;stroke-linecap:round;stroke-linejoin:round;stroke-miterlimit:10;" d="
		M248.804,343h-37.608c-5.128,26.091-24.474,34.638-39.318,34.638C171.878,426.067,230,450,230,450s58.122-23.933,58.122-72.362
		C273.278,377.638,253.933,369.091,248.804,343z"/>
</g>
<g>
</g>
<g>
</g>
<g>
</g>
<g>
</g>
<g>
</g>
<g>
</g>
<g>
</g>
<g>
</g>
<g>
</g>
<g>
</g>
<g>
</g>
<g>
</g>
<g>
</g>
<g>
</g>
<g>
</g>
</svg>
