<?xml version="1.0" encoding="iso-8859-1"?>
<!-- Generator: Adobe Illustrator 17.1.0, SVG Export Plug-In . SVG Version: 6.00 Build 0)  -->
<!DOCTYPE svg PUBLIC "-//W3C//DTD SVG 1.1//EN" "http://www.w3.org/Graphics/SVG/1.1/DTD/svg11.dtd">
<svg version="1.1" id="Capa_1" xmlns="http://www.w3.org/2000/svg" xmlns:xlink="http://www.w3.org/1999/xlink" x="0px" y="0px"
	 viewBox="0 0 442 442" style="enable-background:new 0 0 442 442;" xml:space="preserve">
<g>
	
		<polygon style="fill:#F8A71B;stroke:#000000;stroke-width:20;stroke-linecap:round;stroke-linejoin:round;stroke-miterlimit:10;" points="
		23.194,143.434 92.055,63.434 349.945,63.434 418.806,143.434 221,373.237 	"/>
	<path style="fill:#FF0000;stroke:#000000;stroke-width:20;stroke-linecap:round;stroke-linejoin:round;stroke-miterlimit:10;" d="
		M354.532,53.434H87.468l-77.468,90l211,245.132l211-245.132L354.532,53.434z M379.223,143.434l-73.698,85.62
		c0.937-6.716,0.478-13.664-1.441-20.591c-8.327-30.043-41.366-39.67-73.318-48.979l-8.492-2.478
		c-21.177-6.168-50.181-14.617-53.172-25.409c-1.289-4.651-0.544-8.46,2.416-12.352c5.44-7.154,20.187-15.507,43.842-15.507
		c28.893,0,58.141,9.116,58.141,26.538c0,11.046,8.954,20,20,20s20-8.954,20-20c0-13.899-4.827-26.473-13.899-36.842h36.584
		L379.223,143.434z M105.815,93.434h35.127c-0.43,0.527-0.854,1.058-1.264,1.597c-10.502,13.809-13.742,30.589-9.125,47.25
		c8.946,32.277,46.979,43.355,80.533,53.129l8.489,2.477c19.42,5.658,43.589,12.7,45.961,21.26c0.979,3.533,0.436,6.305-1.819,9.269
		c-4.591,6.037-17.209,13.087-37.66,13.087c-29.609,0-47.42-9.408-49.711-18.701c-2.644-10.725-13.482-17.276-24.206-14.631
		c-9.843,2.427-16.148,11.757-15.077,21.565l-74.285-86.302L105.815,93.434z M172.827,271.285
		c14.466,6.605,32.58,10.217,53.23,10.217c14.989,0,29.015-2.739,41.005-7.764L221,327.251L172.827,271.285z"/>
</g>
<g>
</g>
<g>
</g>
<g>
</g>
<g>
</g>
<g>
</g>
<g>
</g>
<g>
</g>
<g>
</g>
<g>
</g>
<g>
</g>
<g>
</g>
<g>
</g>
<g>
</g>
<g>
</g>
<g>
</g>
</svg>
