<?xml version="1.0" encoding="iso-8859-1"?>
<!-- Generator: Adobe Illustrator 17.1.0, SVG Export Plug-In . SVG Version: 6.00 Build 0)  -->
<!DOCTYPE svg PUBLIC "-//W3C//DTD SVG 1.1//EN" "http://www.w3.org/Graphics/SVG/1.1/DTD/svg11.dtd">
<svg version="1.1" id="Capa_1" xmlns="http://www.w3.org/2000/svg" xmlns:xlink="http://www.w3.org/1999/xlink" x="0px" y="0px"
	 viewBox="0 0 380.901 380.901" style="enable-background:new 0 0 380.901 380.901;" xml:space="preserve">
<g>
	<path style="fill:#DE021B;stroke:#000000;stroke-width:20;stroke-linecap:round;stroke-linejoin:round;stroke-miterlimit:10;" d="
		M316.359,119.561l10.561-62.137c3.35-19.713-5.83-24.638-20.401-10.945l-39.197,36.836c-23.799-11.9-50.039-18.25-76.871-18.25
		s-53.072,6.35-76.871,18.25L74.383,46.479c-14.571-13.693-23.752-8.768-20.401,10.945l10.561,62.137
		C31.444,154.127,10,203.726,10,264.272c0,25.314,3.748,50.561,10.528,74.674c99.144,18.461,117.608-48.214,169.922-48.214
		s70.778,66.674,169.922,48.214c6.781-24.113,10.528-49.36,10.528-74.674C370.901,203.726,349.456,154.127,316.359,119.561z
		 M101.689,262.473c-21.338-8.949-33.595-30.424-31.84-52.297l91.46,38.359C146.935,265.116,123.027,271.422,101.689,262.473z
		 M279.211,262.473c-21.338,8.949-45.246,2.643-59.62-13.938l91.46-38.359C312.807,232.049,300.549,253.524,279.211,262.473z"/>
	<path style="fill:none;stroke:#000000;stroke-width:20;stroke-linecap:round;stroke-linejoin:round;stroke-miterlimit:10;" d="
		M87.505,99.312c-11.99,8.873-23.012,19.358-32.753,31.325"/>
	<path style="fill:none;stroke:#000000;stroke-width:20;stroke-linecap:round;stroke-linejoin:round;stroke-miterlimit:10;" d="
		M326.149,130.637c-9.741-11.966-20.764-22.452-32.753-31.325"/>
</g>
<g>
</g>
<g>
</g>
<g>
</g>
<g>
</g>
<g>
</g>
<g>
</g>
<g>
</g>
<g>
</g>
<g>
</g>
<g>
</g>
<g>
</g>
<g>
</g>
<g>
</g>
<g>
</g>
<g>
</g>
</svg>
