<?xml version="1.0" encoding="iso-8859-1"?>
<!-- Generator: Adobe Illustrator 17.1.0, SVG Export Plug-In . SVG Version: 6.00 Build 0)  -->
<!DOCTYPE svg PUBLIC "-//W3C//DTD SVG 1.1//EN" "http://www.w3.org/Graphics/SVG/1.1/DTD/svg11.dtd">
<svg version="1.1" id="Capa_1" xmlns="http://www.w3.org/2000/svg" xmlns:xlink="http://www.w3.org/1999/xlink" x="0px" y="0px"
	 viewBox="0 0 387.688 387.688" style="enable-background:new 0 0 387.688 387.688;" xml:space="preserve">
<g>
	<path style="fill:#333333;stroke:#000000;stroke-width:20;stroke-linecap:round;stroke-linejoin:round;stroke-miterlimit:10;" d="
		M318.847,37.338c-0.603,0.761-22.549,28.539-37.988,59.655c-26.372-15.422-56.293-23.719-86.983-23.719
		s-60.611,8.297-86.983,23.719C91.238,65.442,68.876,37.302,68.876,37.302c-90.218,90.218-51.703,285.74-44.922,309.853
		c99.144,18.461,117.608-48.214,169.922-48.214s70.778,66.674,169.922,48.214h-0.064C370.514,323.046,409.02,127.572,318.847,37.338
		z M97.131,283.882c-33.589-10.247-48.493-53.581-31.939-86.522c0,0,73.684-19.725,103.421,53.169
		C161.543,270.302,128.934,293.585,97.131,283.882z M290.621,283.882c-31.803,9.702-64.411-13.581-71.482-33.354
		c29.737-72.894,103.421-53.169,103.421-53.169C339.113,230.302,324.209,273.635,290.621,283.882z"/>
	<path style="fill:none;stroke:#666666;stroke-width:20;stroke-linecap:round;stroke-linejoin:round;stroke-miterlimit:10;" d="
		M203.857,116.592c-3.319-0.275-6.651-0.414-9.987-0.414c-21.722,0-43.256,5.879-62.273,17 M256.143,133.178
		c-6.352-3.714-12.984-6.844-19.81-9.365"/>
	<path style="fill:none;stroke:#000000;stroke-width:20;stroke-linecap:round;stroke-linejoin:round;stroke-miterlimit:10;" d="
		M98.274,80.967c3.834,6.636,7.584,13.659,10.925,20.791"/>
	<path style="fill:none;stroke:#000000;stroke-width:20;stroke-linecap:round;stroke-linejoin:round;stroke-miterlimit:10;" d="
		M289.478,80.968c-3.834,6.636-7.584,13.659-10.925,20.791"/>
</g>
<g>
</g>
<g>
</g>
<g>
</g>
<g>
</g>
<g>
</g>
<g>
</g>
<g>
</g>
<g>
</g>
<g>
</g>
<g>
</g>
<g>
</g>
<g>
</g>
<g>
</g>
<g>
</g>
<g>
</g>
</svg>
