<?xml version="1.0" encoding="iso-8859-1"?>
<!-- Generator: Adobe Illustrator 17.1.0, SVG Export Plug-In . SVG Version: 6.00 Build 0)  -->
<!DOCTYPE svg PUBLIC "-//W3C//DTD SVG 1.1//EN" "http://www.w3.org/Graphics/SVG/1.1/DTD/svg11.dtd">
<svg version="1.1" id="Capa_1" xmlns="http://www.w3.org/2000/svg" xmlns:xlink="http://www.w3.org/1999/xlink" x="0px" y="0px"
	 viewBox="0 0 467.289 467.289" style="enable-background:new 0 0 467.289 467.289;" xml:space="preserve">
<g>
	<path style="fill:#FCC324;stroke:#000000;stroke-width:20;stroke-linecap:round;stroke-linejoin:round;stroke-miterlimit:10;" d="
		M286.552,16.624v93.665H180.737V16.624C106.509,35.661,39.526,107.115,39.526,228.315l106.304,97.29l10,131.684h155.629l10-131.684
		l106.304-97.29C427.763,107.115,360.78,35.661,286.552,16.624z M202.133,234.17l-78.419-5.742v-39.447h78.419V234.17z
		 M343.576,228.428l-78.419,5.742v-45.189h78.419V228.428z"/>
	
		<polyline style="fill:none;stroke:#000000;stroke-width:20;stroke-linecap:round;stroke-linejoin:round;stroke-miterlimit:10;" points="
		150.418,386.016 180.418,396.016 189.035,371.816 278.254,371.816 286.872,396.016 316.872,386.016 	"/>
	
		<line style="fill:none;stroke:#000000;stroke-width:20;stroke-linecap:round;stroke-linejoin:round;stroke-miterlimit:10;" x1="103.714" y1="188.981" x2="363.576" y2="188.981"/>
	
		<polygon style="fill:#ED1B24;stroke:#000000;stroke-width:20;stroke-linecap:round;stroke-linejoin:round;stroke-miterlimit:10;" points="
		155.83,457.289 115.83,457.289 39.526,228.315 145.83,325.606 	"/>
	
		<polygon style="fill:#ED1B24;stroke:#000000;stroke-width:20;stroke-linecap:round;stroke-linejoin:round;stroke-miterlimit:10;" points="
		311.459,457.289 351.459,457.289 427.763,228.315 321.459,325.606 	"/>
	<path style="fill:#ED1B24;stroke:#000000;stroke-width:20;stroke-linecap:round;stroke-linejoin:round;stroke-miterlimit:10;" d="
		M233.645,10c-17.517,0-35.413,2.138-52.907,6.624v93.665h105.815V16.624C269.058,12.138,251.162,10,233.645,10z"/>
</g>
<g>
</g>
<g>
</g>
<g>
</g>
<g>
</g>
<g>
</g>
<g>
</g>
<g>
</g>
<g>
</g>
<g>
</g>
<g>
</g>
<g>
</g>
<g>
</g>
<g>
</g>
<g>
</g>
<g>
</g>
</svg>
