<?xml version="1.0" encoding="iso-8859-1"?>
<!-- Generator: Adobe Illustrator 17.1.0, SVG Export Plug-In . SVG Version: 6.00 Build 0)  -->
<!DOCTYPE svg PUBLIC "-//W3C//DTD SVG 1.1//EN" "http://www.w3.org/Graphics/SVG/1.1/DTD/svg11.dtd">
<svg version="1.1" id="Capa_1" xmlns="http://www.w3.org/2000/svg" xmlns:xlink="http://www.w3.org/1999/xlink" x="0px" y="0px"
	 viewBox="0 0 460 460" style="enable-background:new 0 0 460 460;" xml:space="preserve">
<g>
	<path style="fill:#59B867;stroke:#000000;stroke-width:20;stroke-linecap:round;stroke-linejoin:round;stroke-miterlimit:10;" d="
		M405.509,107.011C372.388,45.349,295.283,10,230,10S87.611,45.349,54.491,107.011C22.334,166.88,76.129,241.456,76.129,241.456
		l8.833,54.686h25.613v-54.686c-25.218-62.636,8.256-106.966,8.256-106.966c43.956,0,111.169,73.874,111.169,73.874
		s67.213-73.874,111.17-73.874c0,0,33.473,44.329,8.256,106.966v54.686h25.613l8.833-54.686
		C383.871,241.456,437.666,166.88,405.509,107.011z"/>
	<path style="fill:#ECEE9A;stroke:#000000;stroke-width:20;stroke-linecap:round;stroke-linejoin:round;stroke-miterlimit:10;" d="
		M230.003,450c57.072,0,81.195-126.361,81.195-126.361s-47.655,20.089-81.195,48.839c-33.54-28.75-81.145-48.839-81.145-48.839
		S172.931,450,230.003,450z"/>
	<path style="fill:none;stroke:#000000;stroke-width:20;stroke-linecap:round;stroke-linejoin:round;stroke-miterlimit:10;" d="
		M230.003,408.933c33.955,0,56.247-22.039,68.735-39.893"/>
	<path style="fill:none;stroke:#000000;stroke-width:20;stroke-linecap:round;stroke-linejoin:round;stroke-miterlimit:10;" d="
		M161.298,369.037c8.745,12.517,22.306,27.091,41.333,34.687"/>
	<path style="fill:none;stroke:#000000;stroke-width:20;stroke-linecap:round;stroke-linejoin:round;stroke-miterlimit:10;" d="
		M230,208.364c34.371-42.948,81.199-139.232,46.12-192.887"/>
	<path style="fill:none;stroke:#000000;stroke-width:20;stroke-linecap:round;stroke-linejoin:round;stroke-miterlimit:10;" d="
		M171.484,64.994C171.083,46.7,174.64,29.61,183.88,15.477"/>
	<path style="fill:none;stroke:#000000;stroke-width:20;stroke-linecap:round;stroke-linejoin:round;stroke-miterlimit:10;" d="
		M230,208.364c-20.501-25.617-45.434-70.209-54.774-113.413"/>
</g>
<g>
</g>
<g>
</g>
<g>
</g>
<g>
</g>
<g>
</g>
<g>
</g>
<g>
</g>
<g>
</g>
<g>
</g>
<g>
</g>
<g>
</g>
<g>
</g>
<g>
</g>
<g>
</g>
<g>
</g>
</svg>
