<?xml version="1.0" encoding="iso-8859-1"?>
<!-- Generator: Adobe Illustrator 17.1.0, SVG Export Plug-In . SVG Version: 6.00 Build 0)  -->
<!DOCTYPE svg PUBLIC "-//W3C//DTD SVG 1.1//EN" "http://www.w3.org/Graphics/SVG/1.1/DTD/svg11.dtd">
<svg version="1.1" id="Capa_1" xmlns="http://www.w3.org/2000/svg" xmlns:xlink="http://www.w3.org/1999/xlink" x="0px" y="0px"
	 viewBox="0 0 460 460" style="enable-background:new 0 0 460 460;" xml:space="preserve">
<g>
	<circle style="fill:#4D4D4D;" cx="230" cy="230" r="203.057"/>
	<path style="fill:none;stroke:#000000;stroke-width:20;stroke-linecap:round;stroke-linejoin:round;stroke-miterlimit:10;" d="
		M383.089,96.595c-10.698-12.266-22.846-23.235-36.177-32.639"/>
	<path style="fill:none;stroke:#000000;stroke-width:20;stroke-linecap:round;stroke-linejoin:round;stroke-miterlimit:10;" d="
		M153.784,418.268c11.031,4.47,22.543,7.999,34.439,10.486"/>
	<path style="fill:#999999;" d="M395.637,85.198c75.699,86.417,72.342,217.951-10.073,300.366
		c-57.067,57.067-137.685,76.229-210.568,57.486c46.022-49.173,83.277-94.782,106.364-129.427
		c-37.357,24.894-87.462,66.263-141.038,117.333c-23.895-10.658-46.28-25.787-65.885-45.392
		c-85.915-85.915-85.915-225.212,0-311.127c56.939-56.939,137.324-76.142,210.078-57.611
		c-50.792,53.337-91.931,103.195-116.728,140.404c39.937-26.614,94.446-72.057,152.188-128.053
		c13.339,5.973,26.205,13.342,38.377,22.106C269.79,141.178,197.725,226.88,156.539,288.685
		C218.732,247.239,305.124,174.526,395.637,85.198z"/>
	<path style="fill:#CCCCCC;" d="M362.547,117.295c-78.256,74.599-151.445,135.029-206.008,171.39
		c36.03-54.068,95.692-126.424,169.357-203.876h0c-13.207-8.741-27.674-15.728-43.074-20.63h0
		c-43.643,39.896-83.796,72.234-115.034,93.051c18.459-27.699,45.979-62.41,79.791-100.345h0c-5.781-0.58-11.645-0.88-17.578-0.88
		c-96.094,0-173.994,77.9-173.994,173.994c0,77.988,51.31,143.989,122.013,166.094c39.102-35.038,74.915-63.528,103.341-82.471
		c-16.662,25.004-40.708,55.72-70.1,89.365h0c6.157,0.66,12.408,1.007,18.74,1.007c96.094,0,173.994-77.9,173.994-173.994
		C403.994,187.004,388.39,147.658,362.547,117.295z"/>
	<path style="fill:none;stroke:#000000;stroke-width:20;stroke-linecap:round;stroke-linejoin:round;stroke-miterlimit:10;" d="
		M395.637,85.198c-90.512,89.328-176.904,162.041-239.098,203.487C197.725,226.88,269.79,141.178,358.353,51.283
		c-12.172-8.764-25.038-16.133-38.377-22.106C262.233,85.173,207.725,130.616,167.788,157.23
		c24.796-37.209,65.935-87.067,116.727-140.405C211.761-1.706,131.376,17.497,74.437,74.436
		c-85.915,85.915-85.915,225.212,0,311.127c19.605,19.605,41.99,34.735,65.885,45.392c53.576-51.07,103.682-92.439,141.038-117.333
		c-23.087,34.644-60.342,80.253-106.364,129.427c72.883,18.743,153.501-0.419,210.568-57.486
		C467.978,303.148,471.336,171.615,395.637,85.198z"/>
	<path style="fill:none;stroke:#000000;stroke-width:20;stroke-linecap:round;stroke-linejoin:round;stroke-miterlimit:10;" d="
		M362.565,117.28c58.259,68.364,55.083,171.146-9.528,235.757c-38.748,38.748-91.225,55.401-141.773,49.958"/>
	<path style="fill:none;stroke:#000000;stroke-width:20;stroke-linecap:round;stroke-linejoin:round;stroke-miterlimit:10;" d="
		M282.825,64.174c15.037,4.777,29.554,11.646,43.093,20.61"/>
	<path style="fill:none;stroke:#000000;stroke-width:20;stroke-linecap:round;stroke-linejoin:round;stroke-miterlimit:10;" d="
		M178.025,396.093c-25.998-8.111-50.469-22.464-71.062-43.057c-67.951-67.951-67.951-178.122,0-246.073
		c38.452-38.452,90.423-55.145,140.612-50.079"/>
	
		<line style="fill:none;stroke:#000000;stroke-width:20;stroke-linecap:round;stroke-linejoin:round;stroke-miterlimit:10;" x1="146.574" y1="178.443" x2="111.952" y2="213.066"/>
	
		<line style="fill:none;stroke:#000000;stroke-width:20;stroke-linecap:round;stroke-linejoin:round;stroke-miterlimit:10;" x1="360.779" y1="234.204" x2="372.799" y2="222.183"/>
	
		<line style="fill:none;stroke:#000000;stroke-width:20;stroke-linecap:round;stroke-linejoin:round;stroke-miterlimit:10;" x1="281.36" y1="313.622" x2="339.565" y2="255.417"/>
	<path style="fill:none;stroke:#000000;stroke-width:20;stroke-linecap:round;stroke-linejoin:round;stroke-miterlimit:10;" d="
		M306.695,41.927c-11.393-4.651-23.303-8.296-35.621-10.827"/>
</g>
<g>
</g>
<g>
</g>
<g>
</g>
<g>
</g>
<g>
</g>
<g>
</g>
<g>
</g>
<g>
</g>
<g>
</g>
<g>
</g>
<g>
</g>
<g>
</g>
<g>
</g>
<g>
</g>
<g>
</g>
</svg>
