<?xml version="1.0" encoding="iso-8859-1"?>
<!-- Generator: Adobe Illustrator 17.1.0, SVG Export Plug-In . SVG Version: 6.00 Build 0)  -->
<!DOCTYPE svg PUBLIC "-//W3C//DTD SVG 1.1//EN" "http://www.w3.org/Graphics/SVG/1.1/DTD/svg11.dtd">
<svg version="1.1" id="Capa_1" xmlns="http://www.w3.org/2000/svg" xmlns:xlink="http://www.w3.org/1999/xlink" x="0px" y="0px"
	 viewBox="0 0 460 460" style="enable-background:new 0 0 460 460;" xml:space="preserve">
<g>
	<path style="fill:#CCCCCC;" d="M169.225,138.788C304.226,3.787,449.955,10.045,449.955,10.045s6.258,145.729-128.742,280.73
		C239.465,372.523,120.092,452.746,54.8,449.928L10.072,405.2C7.254,339.908,87.477,220.535,169.225,138.788z"/>
	
		<line style="fill:none;stroke:#F2F2F2;stroke-width:20;stroke-linecap:round;stroke-linejoin:round;stroke-miterlimit:10;" x1="414.375" y1="12.399" x2="15.823" y2="410.951"/>
	
		<line style="fill:none;stroke:#F2F2F2;stroke-width:20;stroke-linecap:round;stroke-linejoin:round;stroke-miterlimit:10;" x1="447.601" y1="45.625" x2="49.049" y2="444.177"/>
	<path style="fill:none;stroke:#000000;stroke-width:20;stroke-linecap:round;stroke-linejoin:round;stroke-miterlimit:10;" d="
		M169.225,138.788C304.226,3.787,449.955,10.045,449.955,10.045s6.258,145.729-128.742,280.73
		C239.465,372.523,120.092,452.746,54.8,449.928L10.072,405.2C7.254,339.908,87.477,220.535,169.225,138.788z"/>
</g>
<g>
</g>
<g>
</g>
<g>
</g>
<g>
</g>
<g>
</g>
<g>
</g>
<g>
</g>
<g>
</g>
<g>
</g>
<g>
</g>
<g>
</g>
<g>
</g>
<g>
</g>
<g>
</g>
<g>
</g>
</svg>
