<?xml version="1.0" encoding="iso-8859-1"?>
<!-- Generator: Adobe Illustrator 17.1.0, SVG Export Plug-In . SVG Version: 6.00 Build 0)  -->
<!DOCTYPE svg PUBLIC "-//W3C//DTD SVG 1.1//EN" "http://www.w3.org/Graphics/SVG/1.1/DTD/svg11.dtd">
<svg version="1.1" id="Capa_1" xmlns="http://www.w3.org/2000/svg" xmlns:xlink="http://www.w3.org/1999/xlink" x="0px" y="0px"
	 viewBox="0 0 460 460" style="enable-background:new 0 0 460 460;" xml:space="preserve">
<g>
	<path style="fill:#ED1B24;stroke:#000000;stroke-width:20;stroke-linecap:round;stroke-linejoin:round;stroke-miterlimit:10;" d="
		M230,10C126.158,10,41.977,94.18,41.977,198.022V440l125.178,10V276.758c-2.192-0.671-4.385-1.434-6.569-2.316
		c-30.338-12.258-47.519-40.542-38.375-63.175s41.151-31.044,71.489-18.787c17.011,6.873,29.883,18.786,36.299,31.915
		c6.416-13.129,19.287-25.042,36.299-31.915c30.338-12.257,62.345-3.846,71.489,18.787s-8.036,50.917-38.375,63.175
		c-2.184,0.882-4.377,1.645-6.569,2.316V450l125.178-10V198.022C418.023,94.18,333.842,10,230,10z"/>
	<path style="fill:#B772ED;stroke:#000000;stroke-width:20;stroke-linecap:round;stroke-linejoin:round;stroke-miterlimit:10;" d="
		M332.844,410V302.139c14.405-9.005,26.409-20.896,34.75-34.628c13.763-22.657,16.417-48.619,7.281-71.229
		c-10.109-25.022-32.69-42.257-61.083-47.639c5.636-18.44,6.668-36.069,2.945-50.384c-25.964,2.747-56.381,22.982-78.641,55.139
		c-2.948,4.258-5.642,8.578-8.096,12.925c-2.454-4.347-5.148-8.667-8.096-12.925c-22.259-32.157-52.676-52.392-78.641-55.139
		c-3.723,14.315-2.692,31.944,2.945,50.384c-28.394,5.382-50.974,22.617-61.083,47.639c-9.136,22.61-6.481,48.572,7.281,71.229
		c8.34,13.731,20.345,25.623,34.75,34.628V410H41.98v30l125.176,10V276.758c-2.192-0.671-4.385-1.434-6.569-2.316
		c-30.338-12.258-47.519-40.542-38.375-63.175s41.151-31.044,71.489-18.787c17.011,6.873,29.883,18.786,36.299,31.915
		c6.416-13.129,19.287-25.042,36.299-31.915c30.338-12.257,62.345-3.846,71.489,18.787s-8.036,50.917-38.375,63.175
		c-2.184,0.882-4.377,1.645-6.569,2.316V450l125.178-10v-30H332.844z"/>
</g>
<g>
</g>
<g>
</g>
<g>
</g>
<g>
</g>
<g>
</g>
<g>
</g>
<g>
</g>
<g>
</g>
<g>
</g>
<g>
</g>
<g>
</g>
<g>
</g>
<g>
</g>
<g>
</g>
<g>
</g>
</svg>
