<?xml version="1.0" encoding="iso-8859-1"?>
<!-- Generator: Adobe Illustrator 17.1.0, SVG Export Plug-In . SVG Version: 6.00 Build 0)  -->
<!DOCTYPE svg PUBLIC "-//W3C//DTD SVG 1.1//EN" "http://www.w3.org/Graphics/SVG/1.1/DTD/svg11.dtd">
<svg version="1.1" id="Capa_1" xmlns="http://www.w3.org/2000/svg" xmlns:xlink="http://www.w3.org/1999/xlink" x="0px" y="0px"
	 viewBox="0 0 452.486 452.486" style="enable-background:new 0 0 452.486 452.486;" xml:space="preserve">
<g>
	<path style="fill:#FEA621;" d="M328.89,10c-23.522,0-42.59,19.068-42.59,42.59c0-23.522-19.068-42.59-42.59-42.59
		c-23.522,0-42.59,19.068-42.59,42.59c0-23.522-19.068-42.59-42.59-42.59s-42.59,19.068-42.59,42.59v57.19
		c-19.582,1.754-34.932,18.198-34.932,38.237v126.315c0,37.456,23.525,69.411,56.603,81.913v86.241h207.268V337.175
		c16.404-15.911,26.603-38.184,26.603-62.843V52.59C371.48,29.068,352.412,10,328.89,10z"/>
	
		<line style="fill:none;stroke:#000000;stroke-width:20;stroke-linecap:round;stroke-linejoin:round;stroke-miterlimit:10;" x1="344.877" y1="337.175" x2="344.877" y2="442.486"/>
	
		<line style="fill:none;stroke:#000000;stroke-width:20;stroke-linecap:round;stroke-linejoin:round;stroke-miterlimit:10;" x1="137.609" y1="442.486" x2="137.609" y2="356.245"/>
	
		<line style="fill:none;stroke:#000000;stroke-width:20;stroke-linecap:round;stroke-linejoin:round;stroke-miterlimit:10;" x1="171.243" y1="401.877" x2="171.243" y2="442.486"/>
	<path style="fill:none;stroke:#000000;stroke-width:20;stroke-linecap:round;stroke-linejoin:round;stroke-miterlimit:10;" d="
		M371.48,109.617v164.715c0,48.35-39.195,87.545-87.545,87.545"/>
	<path style="fill:none;stroke:#000000;stroke-width:20;stroke-linecap:round;stroke-linejoin:round;stroke-miterlimit:10;" d="
		M201.119,109.617V52.59c0-23.522-19.068-42.59-42.59-42.59s-42.59,19.068-42.59,42.59v57.027"/>
	<path style="fill:none;stroke:#000000;stroke-width:20;stroke-linecap:round;stroke-linejoin:round;stroke-miterlimit:10;" d="
		M274.148,145.166c7.518-7.68,12.152-18.194,12.152-29.79V52.59c0-23.522-19.068-42.59-42.59-42.59
		c-23.522,0-42.59,19.068-42.59,42.59"/>
	<path style="fill:none;stroke:#000000;stroke-width:20;stroke-linecap:round;stroke-linejoin:round;stroke-miterlimit:10;" d="
		M328.89,10c-23.522,0-42.59,19.068-42.59,42.59v62.785c0,23.522,19.068,42.59,42.59,42.59c23.522,0,42.59-19.068,42.59-42.59V52.59
		C371.48,29.068,352.412,10,328.89,10z"/>
	<path style="fill:none;stroke:#000000;stroke-width:20;stroke-linecap:round;stroke-linejoin:round;stroke-miterlimit:10;" d="
		M149.624,205.51c0,0,57.651,0,78.196,0c26.48,0,47.946-21.466,47.946-47.946s-21.467-47.946-47.946-47.946
		c-20.545,0-108.414,0-108.414,0c-21.208,0-38.4,17.192-38.4,38.4v126.315c0,48.35,39.195,87.545,87.545,87.545"/>
	<path style="fill:none;stroke:#000000;stroke-width:20;stroke-linecap:round;stroke-linejoin:round;stroke-miterlimit:10;" d="
		M283.413,332.205c0-63.348-51.894-98.052-103.789-103.154V205.51"/>
	
		<line style="fill:none;stroke:#000000;stroke-width:20;stroke-linecap:round;stroke-linejoin:round;stroke-miterlimit:10;" x1="286.3" y1="90.925" x2="371.48" y2="62.709"/>
	
		<line style="fill:none;stroke:#000000;stroke-width:20;stroke-linecap:round;stroke-linejoin:round;stroke-miterlimit:10;" x1="371.48" y1="115.376" x2="286.3" y2="115.376"/>
	
		<line style="fill:none;stroke:#000000;stroke-width:20;stroke-linecap:round;stroke-linejoin:round;stroke-miterlimit:10;" x1="201.119" y1="83.983" x2="286.3" y2="67.583"/>
	
		<line style="fill:none;stroke:#000000;stroke-width:20;stroke-linecap:round;stroke-linejoin:round;stroke-miterlimit:10;" x1="115.938" y1="59.583" x2="201.119" y2="65.983"/>
	
		<line style="fill:none;stroke:#000000;stroke-width:20;stroke-linecap:round;stroke-linejoin:round;stroke-miterlimit:10;" x1="178.386" y1="109.617" x2="202.796" y2="205.51"/>
	
		<line style="fill:none;stroke:#000000;stroke-width:20;stroke-linecap:round;stroke-linejoin:round;stroke-miterlimit:10;" x1="260.863" y1="268.858" x2="371.48" y2="248.486"/>
	
		<line style="fill:none;stroke:#000000;stroke-width:20;stroke-linecap:round;stroke-linejoin:round;stroke-miterlimit:10;" x1="313.479" y1="259.168" x2="323.099" y2="157.564"/>
	
		<line style="fill:none;stroke:#000000;stroke-width:20;stroke-linecap:round;stroke-linejoin:round;stroke-miterlimit:10;" x1="179.624" y1="229.051" x2="81.006" y2="274.332"/>
</g>
<g>
</g>
<g>
</g>
<g>
</g>
<g>
</g>
<g>
</g>
<g>
</g>
<g>
</g>
<g>
</g>
<g>
</g>
<g>
</g>
<g>
</g>
<g>
</g>
<g>
</g>
<g>
</g>
<g>
</g>
</svg>
