<?xml version="1.0" encoding="iso-8859-1"?>
<!-- Generator: Adobe Illustrator 17.1.0, SVG Export Plug-In . SVG Version: 6.00 Build 0)  -->
<!DOCTYPE svg PUBLIC "-//W3C//DTD SVG 1.1//EN" "http://www.w3.org/Graphics/SVG/1.1/DTD/svg11.dtd">
<svg version="1.1" id="Capa_1" xmlns="http://www.w3.org/2000/svg" xmlns:xlink="http://www.w3.org/1999/xlink" x="0px" y="0px"
	 viewBox="0 0 490.178 490.178" style="enable-background:new 0 0 490.178 490.178;" xml:space="preserve">
<g>
	<path style="fill:#FFBE99;stroke:#000000;stroke-width:20;stroke-linecap:round;stroke-linejoin:round;stroke-miterlimit:10;" d="
		M10,456.089c68.025,0,123.367-55.342,123.367-123.367c0-43.817,0-71.45,0-115.266c0-19.015,15.47-34.484,34.484-34.484
		c19.015,0,34.484,15.469,34.484,34.484c0,43.817,0,71.45,0,115.266c0,68.025,55.342,123.367,123.367,123.367
		c68.024,0,123.367-55.342,123.367-123.367c0-26.229,0-104.918,0-104.918c18.922-14.631,31.109-37.55,31.109-63.319V70.754
		c0-10.432-8.456-18.888-18.888-18.888c-10.432,0-18.888,8.456-18.888,18.888V52.977c0-10.432-8.456-18.888-18.888-18.888
		c-10.432,0-18.888,8.456-18.888,18.888c0-10.432-8.456-18.888-18.888-18.888c-10.432,0-18.888,8.456-18.888,18.888
		c0-10.432-8.456-18.888-18.888-18.888c-10.432,0-18.776,8.456-18.776,18.888c0,0-0.132,50.247,0,51.147
		c-5.455,3.312-9,9.291-9,16.138v44.222c0,29.61,16.088,55.46,39.997,69.292c0,0,0,74.209,0,98.945
		c0,19.015-15.47,34.484-34.484,34.484s-34.483-15.47-34.483-34.484c0-43.817,0-71.45,0-115.266
		c0-68.024-55.343-123.367-123.368-123.367S44.484,149.432,44.484,217.456c0,43.817,0,71.45,0,115.266
		c0,19.015-15.47,34.484-34.484,34.484"/>
	<path style="fill:none;stroke:#000000;stroke-width:20;stroke-linecap:round;stroke-linejoin:round;stroke-miterlimit:10;" d="
		M423.879,240.914c7.55-2.338,14.621-5.764,21.031-10.094c1.421-0.96,2.809-1.964,4.163-3.011"/>
	<path style="fill:none;stroke:#000000;stroke-width:20;stroke-linecap:round;stroke-linejoin:round;stroke-miterlimit:10;" d="
		M360.186,233.779c5.25,3.037,10.877,5.495,16.794,7.285"/>
	
		<line style="fill:none;stroke:#000000;stroke-width:20;stroke-linecap:round;stroke-linejoin:round;stroke-miterlimit:10;" x1="366.852" y1="52.977" x2="366.852" y2="101.375"/>
	
		<line style="fill:none;stroke:#000000;stroke-width:20;stroke-linecap:round;stroke-linejoin:round;stroke-miterlimit:10;" x1="442.403" y1="101.375" x2="442.403" y2="52.977"/>
	
		<line style="fill:none;stroke:#000000;stroke-width:20;stroke-linecap:round;stroke-linejoin:round;stroke-miterlimit:10;" x1="404.628" y1="52.977" x2="404.628" y2="101.375"/>
	<path style="fill:none;stroke:#000000;stroke-width:20;stroke-linecap:round;stroke-linejoin:round;stroke-miterlimit:10;" d="
		M404.628,101.375c0,10.432,8.456,18.888,18.888,18.888s18.888-8.456,18.888-18.888c0,10.432,8.456,18.888,18.888,18.888
		s18.888-8.456,18.888-18.888"/>
	<path style="fill:none;stroke:#000000;stroke-width:20;stroke-linecap:round;stroke-linejoin:round;stroke-miterlimit:10;" d="
		M329.288,104.106c2.855-1.733,6.205-2.731,9.788-2.731h48.397c10.432,0,18.888,8.456,18.888,18.888s-8.456,18.888-18.888,18.888
		h-29.509l0,29.778l41.357,17.777"/>
</g>
<g>
</g>
<g>
</g>
<g>
</g>
<g>
</g>
<g>
</g>
<g>
</g>
<g>
</g>
<g>
</g>
<g>
</g>
<g>
</g>
<g>
</g>
<g>
</g>
<g>
</g>
<g>
</g>
<g>
</g>
</svg>
