<?xml version="1.0" encoding="iso-8859-1"?>
<!-- Generator: Adobe Illustrator 17.1.0, SVG Export Plug-In . SVG Version: 6.00 Build 0)  -->
<!DOCTYPE svg PUBLIC "-//W3C//DTD SVG 1.1//EN" "http://www.w3.org/Graphics/SVG/1.1/DTD/svg11.dtd">
<svg version="1.1" id="Capa_1" xmlns="http://www.w3.org/2000/svg" xmlns:xlink="http://www.w3.org/1999/xlink" x="0px" y="0px"
	 viewBox="0 0 460 460" style="enable-background:new 0 0 460 460;" xml:space="preserve">
<g>
	<path style="fill:#F2F2F2;stroke:#000000;stroke-width:20;stroke-linecap:round;stroke-linejoin:round;stroke-miterlimit:10;" d="
		M230,10C138.542,10,54.082,85.551,54.082,204.204c0,65.62,42.918,162.462,78.424,206.632C155.024,438.85,195.469,450,230,450
		s74.976-11.15,97.495-39.164c35.505-44.169,78.424-141.012,78.424-206.632C405.918,85.551,321.458,10,230,10z"/>
	<path style="fill:#333333;stroke:#000000;stroke-width:20;stroke-linecap:round;stroke-linejoin:round;stroke-miterlimit:10;" d="
		M189.097,148.59c-1.29,0-53.869,0-53.869,0c-17.773,0-32.18,14.407-32.18,32.18s14.408,32.18,32.18,32.18h29.82
		c0,13.282,10.767,24.05,24.05,24.05s24.05-10.767,24.05-24.05v-40.311C213.147,159.357,202.379,148.59,189.097,148.59z"/>
	
		<circle style="fill:#333333;stroke:#000000;stroke-width:20;stroke-linecap:round;stroke-linejoin:round;stroke-miterlimit:10;" cx="128.667" cy="266.953" r="19"/>
	<path style="fill:#333333;stroke:#000000;stroke-width:20;stroke-linecap:round;stroke-linejoin:round;stroke-miterlimit:10;" d="
		M194.813,316.2c-1.867,0-3.669,0.281-5.366,0.8c-3.318-3.32-7.903-5.374-12.968-5.374c-10.125,0-18.334,8.208-18.334,18.334v38.333
		c0,10.125,8.208,18.334,18.334,18.334s18.334-8.208,18.334-18.334c10.125,0,18.334-8.208,18.334-18.334v-15.425
		C213.147,324.408,204.939,316.2,194.813,316.2z"/>
	<path style="fill:#333333;stroke:#000000;stroke-width:20;stroke-linecap:round;stroke-linejoin:round;stroke-miterlimit:10;" d="
		M270.903,148.59c1.29,0,53.869,0,53.869,0c17.773,0,32.18,14.407,32.18,32.18s-14.408,32.18-32.18,32.18h-29.82
		c0,13.282-10.767,24.05-24.05,24.05s-24.05-10.767-24.05-24.05v-40.311C246.853,159.357,257.621,148.59,270.903,148.59z"/>
	
		<circle style="fill:#333333;stroke:#000000;stroke-width:20;stroke-linecap:round;stroke-linejoin:round;stroke-miterlimit:10;" cx="331.333" cy="266.953" r="19"/>
	<path style="fill:#333333;stroke:#000000;stroke-width:20;stroke-linecap:round;stroke-linejoin:round;stroke-miterlimit:10;" d="
		M265.187,316.2c1.867,0,3.669,0.281,5.366,0.8c3.318-3.32,7.903-5.374,12.968-5.374c10.125,0,18.334,8.208,18.334,18.334v38.333
		c0,10.125-8.208,18.334-18.334,18.334c-10.125,0-18.334-8.208-18.334-18.334c-10.125,0-18.334-8.208-18.334-18.334v-15.425
		C246.853,324.408,255.061,316.2,265.187,316.2z"/>
</g>
<g>
</g>
<g>
</g>
<g>
</g>
<g>
</g>
<g>
</g>
<g>
</g>
<g>
</g>
<g>
</g>
<g>
</g>
<g>
</g>
<g>
</g>
<g>
</g>
<g>
</g>
<g>
</g>
<g>
</g>
</svg>
