<?xml version="1.0" encoding="iso-8859-1"?>
<!-- Generator: Adobe Illustrator 17.1.0, SVG Export Plug-In . SVG Version: 6.00 Build 0)  -->
<!DOCTYPE svg PUBLIC "-//W3C//DTD SVG 1.1//EN" "http://www.w3.org/Graphics/SVG/1.1/DTD/svg11.dtd">
<svg version="1.1" id="Capa_1" xmlns="http://www.w3.org/2000/svg" xmlns:xlink="http://www.w3.org/1999/xlink" x="0px" y="0px"
	 viewBox="0 0 460 460" style="enable-background:new 0 0 460 460;" xml:space="preserve">
<g>
	<path style="fill:#333333;stroke:#000000;stroke-width:20;stroke-linecap:round;stroke-linejoin:round;stroke-miterlimit:10;" d="
		M230,10C138.542,10,54.082,85.551,54.082,204.204S138.542,450,230,450s175.918-127.142,175.918-245.796S321.458,10,230,10z"/>
	<path style="fill:#E5E5E5;stroke:#000000;stroke-width:20;stroke-linecap:round;stroke-linejoin:round;stroke-miterlimit:10;" d="
		M177.907,237.666l-43.817-40.859c-6.363-55.271,27.543-115.066,73.35-143.031C157.958,62.942,94.176,101.42,94.176,201.841
		c0,82.036,58.629,129.781,118.647,129.781l-10-122.562L177.907,237.666z"/>
	<path style="fill:#E5E5E5;stroke:#000000;stroke-width:20;stroke-linecap:round;stroke-linejoin:round;stroke-miterlimit:10;" d="
		M282.093,237.666l43.817-40.859c6.363-55.271-27.543-115.066-73.35-143.031c49.482,9.166,113.264,47.644,113.264,148.065
		c0,82.036-58.629,129.781-118.647,129.781l10-122.562L282.093,237.666z"/>
</g>
<g>
</g>
<g>
</g>
<g>
</g>
<g>
</g>
<g>
</g>
<g>
</g>
<g>
</g>
<g>
</g>
<g>
</g>
<g>
</g>
<g>
</g>
<g>
</g>
<g>
</g>
<g>
</g>
<g>
</g>
</svg>
