<?xml version="1.0" encoding="iso-8859-1"?>
<!-- Generator: Adobe Illustrator 17.1.0, SVG Export Plug-In . SVG Version: 6.00 Build 0)  -->
<!DOCTYPE svg PUBLIC "-//W3C//DTD SVG 1.1//EN" "http://www.w3.org/Graphics/SVG/1.1/DTD/svg11.dtd">
<svg version="1.1" id="Capa_1" xmlns="http://www.w3.org/2000/svg" xmlns:xlink="http://www.w3.org/1999/xlink" x="0px" y="0px"
	 viewBox="0 0 460 460" style="enable-background:new 0 0 460 460;" xml:space="preserve">
<g>
	<path style="fill:#FCC324;stroke:#F37D22;stroke-width:20;stroke-linecap:round;stroke-linejoin:round;stroke-miterlimit:10;" d="
		M358.76,65.011l-56.562,48.949c-0.016-0.007-0.031-0.014-0.047-0.021C301.346,111.776,276.38,57.778,230,10
		c-46.38,47.778-71.345,101.776-72.152,103.939c-0.016,0.007-0.031,0.014-0.046,0.021L101.24,65.011c0,0-42.967,66.43-43.33,216.961
		c-0.028,11.833,4.548,60.386,4.548,60.386l65.592,19.136L144.476,450h171.049l16.425-88.506l65.592-19.136
		c0,0,4.577-48.554,4.548-60.386C401.728,131.441,358.76,65.011,358.76,65.011z"/>
	<path style="fill:#FFFFFF;stroke:#F74F10;stroke-width:20;stroke-linecap:round;stroke-linejoin:round;stroke-miterlimit:10;" d="
		M230,136.172c-98.878,0-144.572,85.518-133.808,177.68l63.92,18.648l14.974,80.687h109.83l14.974-80.687l63.919-18.648
		C374.572,221.689,328.878,136.172,230,136.172z M183.252,268.973c-41.851,0-62.921-31.38-43.51-50.79l72.366,32.451
		C212.107,250.634,209.116,268.973,183.252,268.973z M276.748,268.973c-25.865,0-28.855-18.339-28.855-18.339l72.366-32.451
		C339.669,237.593,318.599,268.973,276.748,268.973z"/>
	
		<line style="fill:none;stroke:#F74F10;stroke-width:20;stroke-linecap:round;stroke-linejoin:round;stroke-miterlimit:10;" x1="263.285" y1="364.522" x2="263.285" y2="336.243"/>
	
		<line style="fill:none;stroke:#F74F10;stroke-width:20;stroke-linecap:round;stroke-linejoin:round;stroke-miterlimit:10;" x1="230" y1="364.522" x2="230" y2="336.243"/>
	
		<line style="fill:none;stroke:#F74F10;stroke-width:20;stroke-linecap:round;stroke-linejoin:round;stroke-miterlimit:10;" x1="196.715" y1="364.522" x2="196.715" y2="336.243"/>
	
		<line style="fill:none;stroke:#F74F10;stroke-width:20;stroke-linecap:round;stroke-linejoin:round;stroke-miterlimit:10;" x1="217.458" y1="303.792" x2="217.458" y2="290.383"/>
	
		<line style="fill:none;stroke:#F74F10;stroke-width:20;stroke-linecap:round;stroke-linejoin:round;stroke-miterlimit:10;" x1="242.542" y1="303.792" x2="242.542" y2="290.383"/>
	
		<line style="fill:none;stroke:#F74F10;stroke-width:20;stroke-linecap:round;stroke-linejoin:round;stroke-miterlimit:10;" x1="163.43" y1="350.383" x2="296.57" y2="350.383"/>
</g>
<g>
</g>
<g>
</g>
<g>
</g>
<g>
</g>
<g>
</g>
<g>
</g>
<g>
</g>
<g>
</g>
<g>
</g>
<g>
</g>
<g>
</g>
<g>
</g>
<g>
</g>
<g>
</g>
<g>
</g>
</svg>
