<?xml version="1.0" encoding="iso-8859-1"?>
<!-- Generator: Adobe Illustrator 17.1.0, SVG Export Plug-In . SVG Version: 6.00 Build 0)  -->
<!DOCTYPE svg PUBLIC "-//W3C//DTD SVG 1.1//EN" "http://www.w3.org/Graphics/SVG/1.1/DTD/svg11.dtd">
<svg version="1.1" id="Capa_1" xmlns="http://www.w3.org/2000/svg" xmlns:xlink="http://www.w3.org/1999/xlink" x="0px" y="0px"
	 viewBox="0 0 460 460" style="enable-background:new 0 0 460 460;" xml:space="preserve">
<g>
	
		<polygon style="fill:#B3B3B3;stroke:#000000;stroke-width:20;stroke-linecap:round;stroke-linejoin:round;stroke-miterlimit:10;" points="
		309.961,450 150.039,450 139.924,400.437 320.076,400.437 	"/>
	<path style="fill:#E5E5E5;stroke:#000000;stroke-width:20;stroke-linecap:round;stroke-linejoin:round;stroke-miterlimit:10;" d="
		M230,10c-34.338,0-124.913,67.081-124.913,181.844v208.593h249.826V191.844C354.913,77.081,264.338,10,230,10z"/>
	<path style="fill:#DBB0FC;stroke:#000000;stroke-width:20;stroke-linecap:round;stroke-linejoin:round;stroke-miterlimit:10;" d="
		M354.913,242.169v158.268h67.77C422.683,313.028,392.341,242.169,354.913,242.169z"/>
	<path style="fill:#DBB0FC;stroke:#000000;stroke-width:20;stroke-linecap:round;stroke-linejoin:round;stroke-miterlimit:10;" d="
		M105.087,242.169v158.268h-67.77C37.317,313.028,67.659,242.169,105.087,242.169z"/>
	<circle style="fill:#DE021B;" cx="230" cy="151.609" r="42.483"/>
	
		<line style="fill:none;stroke:#FFFFFF;stroke-width:20;stroke-linecap:round;stroke-linejoin:round;stroke-miterlimit:10;" x1="232.049" y1="149.56" x2="260.04" y2="121.569"/>
	
		<line style="fill:none;stroke:#FFFFFF;stroke-width:20;stroke-linecap:round;stroke-linejoin:round;stroke-miterlimit:10;" x1="199.96" y1="181.649" x2="210.23" y2="171.379"/>
	<path style="fill:#DBB0FC;stroke:#000000;stroke-width:20;stroke-linecap:round;stroke-linejoin:round;stroke-miterlimit:10;" d="
		M229.873,242.169c-10.893,0-19.675,8.831-19.675,19.724l0.077,138.544h39.448l-0.127-138.544
		C249.597,250.999,240.767,242.169,229.873,242.169z"/>
	<path style="fill:#B772ED;stroke:#000000;stroke-width:20;stroke-linecap:round;stroke-linejoin:round;stroke-miterlimit:10;" d="
		M230,10c-20.116,0-59.527,23.031-88.726,65.174c2.857-0.431,5.765-0.674,8.726-0.674c25.492,0,47.565,16.487,58.386,40.538
		c6.333-3.751,13.72-5.912,21.614-5.912s15.281,2.161,21.614,5.912C262.435,90.987,284.508,74.5,310,74.5
		c2.961,0,5.87,0.244,8.726,0.674C289.527,33.031,250.116,10,230,10z"/>
	<path style="fill:#B772ED;stroke:#000000;stroke-width:20;stroke-linecap:round;stroke-linejoin:round;stroke-miterlimit:10;" d="
		M210.198,284.688C200.165,311.044,176.977,329.5,150,329.5c-17.391,0-33.186-7.683-44.913-20.193v91.13h105.111V284.688z"/>
	<path style="fill:#B772ED;stroke:#000000;stroke-width:20;stroke-linecap:round;stroke-linejoin:round;stroke-miterlimit:10;" d="
		M310,329.5c-27.164,0-50.463-18.709-60.382-45.356l0.106,116.293h105.189v-91.13C343.186,321.817,327.391,329.5,310,329.5z"/>
	
		<circle style="fill:none;stroke:#000000;stroke-width:20;stroke-linecap:round;stroke-linejoin:round;stroke-miterlimit:10;" cx="230" cy="151.609" r="42.483"/>
</g>
<g>
</g>
<g>
</g>
<g>
</g>
<g>
</g>
<g>
</g>
<g>
</g>
<g>
</g>
<g>
</g>
<g>
</g>
<g>
</g>
<g>
</g>
<g>
</g>
<g>
</g>
<g>
</g>
<g>
</g>
</svg>
