<?xml version="1.0" encoding="iso-8859-1"?>
<!-- Generator: Adobe Illustrator 17.1.0, SVG Export Plug-In . SVG Version: 6.00 Build 0)  -->
<!DOCTYPE svg PUBLIC "-//W3C//DTD SVG 1.1//EN" "http://www.w3.org/Graphics/SVG/1.1/DTD/svg11.dtd">
<svg version="1.1" id="Capa_1" xmlns="http://www.w3.org/2000/svg" xmlns:xlink="http://www.w3.org/1999/xlink" x="0px" y="0px"
	 viewBox="0 0 460 460" style="enable-background:new 0 0 460 460;" xml:space="preserve">
<g>
	<path style="fill:#80560D;stroke:#000000;stroke-width:20;stroke-linecap:round;stroke-linejoin:round;stroke-miterlimit:10;" d="
		M406.346,186.724c-0.359-0.06-0.18-0.043-0.002-0.02C398.433,78.252,316.84,10,230,10S61.567,78.252,53.656,186.703
		c0.179-0.023,0.357-0.039-0.002,0.02c-15.801,2.615-27.563,17.677-24.948,33.478l11.367,68.688
		c2.615,15.802,17.544,26.491,33.345,23.876c0,0,20.843,71.705,27.582,91.234c14.149,41,70.5,46,129,46s114.851-5,129-46
		c6.739-19.528,27.582-91.234,27.582-91.234c15.801,2.615,30.731-8.074,33.345-23.876l11.367-68.688
		C433.909,204.4,422.147,189.338,406.346,186.724z"/>
	
		<line style="fill:none;stroke:#000000;stroke-width:20;stroke-linecap:round;stroke-linejoin:round;stroke-miterlimit:10;" x1="230" y1="393.773" x2="230" y2="405.832"/>
	
		<line style="fill:none;stroke:#000000;stroke-width:20;stroke-linecap:round;stroke-linejoin:round;stroke-miterlimit:10;" x1="194" y1="363.773" x2="266" y2="363.773"/>
	<path style="fill:#FFFFFF;stroke:#000000;stroke-width:20;stroke-linecap:round;stroke-linejoin:round;stroke-miterlimit:10;" d="
		M132.678,218.265c0,17.673,14.327,32,32,32c17.673,0,32-14.327,32-32H132.678z"/>
	
		<line style="fill:none;stroke:#000000;stroke-width:20;stroke-linecap:round;stroke-linejoin:round;stroke-miterlimit:10;" x1="73.418" y1="312.766" x2="73.418" y2="293.96"/>
	<path style="fill:#333333;stroke:#000000;stroke-width:20;stroke-linecap:round;stroke-linejoin:round;stroke-miterlimit:10;" d="
		M382.461,209.365c0,34.483-29.78,67.063-65.878,67.063s-65.878-32.579-65.878-67.063s30.741-43.938,65.878-43.938
		S382.461,174.882,382.461,209.365z"/>
	
		<line style="fill:none;stroke:#000000;stroke-width:20;stroke-linecap:round;stroke-linejoin:round;stroke-miterlimit:10;" x1="386.582" y1="312.766" x2="386.582" y2="293.96"/>
	
		<line style="fill:none;stroke:#000000;stroke-width:20;stroke-linecap:round;stroke-linejoin:round;stroke-miterlimit:10;" x1="75" y1="107.895" x2="254.119" y2="191.701"/>
	
		<line style="fill:none;stroke:#000000;stroke-width:20;stroke-linecap:round;stroke-linejoin:round;stroke-miterlimit:10;" x1="406.346" y1="186.724" x2="380.769" y2="196.47"/>
</g>
<g>
</g>
<g>
</g>
<g>
</g>
<g>
</g>
<g>
</g>
<g>
</g>
<g>
</g>
<g>
</g>
<g>
</g>
<g>
</g>
<g>
</g>
<g>
</g>
<g>
</g>
<g>
</g>
<g>
</g>
</svg>
