<?xml version="1.0" encoding="iso-8859-1"?>
<!-- Generator: Adobe Illustrator 17.1.0, SVG Export Plug-In . SVG Version: 6.00 Build 0)  -->
<!DOCTYPE svg PUBLIC "-//W3C//DTD SVG 1.1//EN" "http://www.w3.org/Graphics/SVG/1.1/DTD/svg11.dtd">
<svg version="1.1" id="Capa_1" xmlns="http://www.w3.org/2000/svg" xmlns:xlink="http://www.w3.org/1999/xlink" x="0px" y="0px"
	 viewBox="0 0 460 460" style="enable-background:new 0 0 460 460;" xml:space="preserve">
<g>
	<path style="fill:#F8A71B;stroke:#000000;stroke-width:20;stroke-linecap:round;stroke-linejoin:round;stroke-miterlimit:10;" d="
		M429.992,151.175c0,0-51.945-30.412-199.992-30.412S30.008,151.175,30.008,151.175C19.004,158.465,10,175.23,10,188.43V302.16
		c0,13.2,10.757,24.964,23.904,26.143l120.868,10.835c13.147,1.179,26.806-8.26,30.352-20.975c0,0,7.055-32.291,44.876-32.291
		s44.876,32.291,44.876,32.291c3.547,12.714,17.205,22.153,30.352,20.975l120.868-10.835C439.243,327.124,450,314.36,450,301.16
		V188.43C450,175.23,440.996,158.465,429.992,151.175z"/>
	<rect x="59.841" y="192.7" style="fill:#ED1B24;" width="340.319" height="51.998"/>
	
		<line style="fill:none;stroke:#FFFFFF;stroke-width:20;stroke-linecap:round;stroke-linejoin:round;stroke-miterlimit:10;" x1="111.159" y1="244.698" x2="162.682" y2="193.175"/>
	
		<line style="fill:none;stroke:#FFFFFF;stroke-width:20;stroke-linecap:round;stroke-linejoin:round;stroke-miterlimit:10;" x1="171.159" y1="244.698" x2="222.682" y2="193.175"/>
	
		<rect x="59.841" y="192.7" style="fill:none;stroke:#000000;stroke-width:20;stroke-linecap:round;stroke-linejoin:round;stroke-miterlimit:10;" width="340.319" height="51.998"/>
</g>
<g>
</g>
<g>
</g>
<g>
</g>
<g>
</g>
<g>
</g>
<g>
</g>
<g>
</g>
<g>
</g>
<g>
</g>
<g>
</g>
<g>
</g>
<g>
</g>
<g>
</g>
<g>
</g>
<g>
</g>
</svg>
