<?xml version="1.0" encoding="iso-8859-1"?>
<!-- Generator: Adobe Illustrator 17.1.0, SVG Export Plug-In . SVG Version: 6.00 Build 0)  -->
<!DOCTYPE svg PUBLIC "-//W3C//DTD SVG 1.1//EN" "http://www.w3.org/Graphics/SVG/1.1/DTD/svg11.dtd">
<svg version="1.1" id="Capa_1" xmlns="http://www.w3.org/2000/svg" xmlns:xlink="http://www.w3.org/1999/xlink" x="0px" y="0px"
	 viewBox="0 0 459.492 459.492" style="enable-background:new 0 0 459.492 459.492;" xml:space="preserve">
<g>
	<path style="fill:#00335E;stroke:#000000;stroke-width:20;stroke-linecap:round;stroke-linejoin:round;stroke-miterlimit:10;" d="
		M229.746,10C125.904,10,41.724,94.181,41.724,198.022V440l99.836,9.492l7.971-230.886l48.388,33.182l-16.888,11.581l20.36,29.689
		l28.355-19.444l28.355,19.444l20.36-29.689l-16.888-11.581l48.388-33.182l7.971,230.886l0,0L417.769,440V198.022
		C417.769,94.181,333.588,10,229.746,10z"/>
	
		<polygon style="fill:#E5E5E5;stroke:#000000;stroke-width:20;stroke-linecap:round;stroke-linejoin:round;stroke-miterlimit:10;" points="
		314.155,340.303 309.961,218.607 261.573,251.789 278.461,263.37 258.101,293.059 229.746,273.615 201.391,293.059 181.031,263.37 
		197.919,251.789 149.531,218.607 145.337,340.303 	"/>
	<path style="fill:#ED1B24;stroke:#000000;stroke-width:20;stroke-linecap:round;stroke-linejoin:round;stroke-miterlimit:10;" d="
		M417.769,198.022c0-30.464-7.253-59.231-20.115-84.682l-33.234,23.066l-134.674,93.472L95.068,136.404l-33.23-23.063
		c-12.861,25.45-20.115,54.217-20.115,84.682v44.706h77.333L108.731,400v0H41.724v40l99.836,9.492l7.971-230.886l48.388,33.182
		l-16.888,11.581l20.36,29.689l28.355-19.444l28.355,19.444l20.36-29.689l-16.888-11.581l48.388-33.182l7.971,230.886L417.769,440
		v-40h-67.008v0l-10.326-157.271h37.334h39.999V198.022z"/>
</g>
<g>
</g>
<g>
</g>
<g>
</g>
<g>
</g>
<g>
</g>
<g>
</g>
<g>
</g>
<g>
</g>
<g>
</g>
<g>
</g>
<g>
</g>
<g>
</g>
<g>
</g>
<g>
</g>
<g>
</g>
</svg>
