<?xml version="1.0" encoding="iso-8859-1"?>
<!-- Generator: Adobe Illustrator 17.1.0, SVG Export Plug-In . SVG Version: 6.00 Build 0)  -->
<!DOCTYPE svg PUBLIC "-//W3C//DTD SVG 1.1//EN" "http://www.w3.org/Graphics/SVG/1.1/DTD/svg11.dtd">
<svg version="1.1" id="Capa_1" xmlns="http://www.w3.org/2000/svg" xmlns:xlink="http://www.w3.org/1999/xlink" x="0px" y="0px"
	 viewBox="0 0 459.999 459.999" style="enable-background:new 0 0 459.999 459.999;" xml:space="preserve">
<g>
	<path style="fill:#333333;stroke:#000000;stroke-width:20;stroke-linecap:round;stroke-linejoin:round;stroke-miterlimit:10;" d="
		M385.564,74.437c-85.915-85.916-225.212-85.916-311.127,0C91.648,91.648,230.1,230.1,230.1,230.1L385.662,74.538
		C385.629,74.504,385.597,74.47,385.564,74.437z"/>
	<path style="fill:#09D6DE;stroke:#000000;stroke-width:20;stroke-linecap:round;stroke-linejoin:round;stroke-miterlimit:10;" d="
		M74.437,74.437c-85.915,85.916-85.915,225.211,0,311.127c0.033,0.033,0.068,0.065,0.101,0.099L230.1,230.1
		C230.1,230.1,91.648,91.648,74.437,74.437z"/>
	<path style="fill:#333333;stroke:#000000;stroke-width:20;stroke-linecap:round;stroke-linejoin:round;stroke-miterlimit:10;" d="
		M230.1,230.1L74.538,385.662c85.923,85.815,225.144,85.783,311.026-0.099C373.501,373.501,230.1,230.1,230.1,230.1z"/>
	<path style="fill:#09D6DE;stroke:#000000;stroke-width:20;stroke-linecap:round;stroke-linejoin:round;stroke-miterlimit:10;" d="
		M385.662,74.538L230.1,230.1c0,0,143.401,143.401,155.464,155.464C471.446,299.682,471.477,160.461,385.662,74.538z"/>
</g>
<g>
</g>
<g>
</g>
<g>
</g>
<g>
</g>
<g>
</g>
<g>
</g>
<g>
</g>
<g>
</g>
<g>
</g>
<g>
</g>
<g>
</g>
<g>
</g>
<g>
</g>
<g>
</g>
<g>
</g>
</svg>
