<?xml version="1.0" encoding="iso-8859-1"?>
<!-- Generator: Adobe Illustrator 17.1.0, SVG Export Plug-In . SVG Version: 6.00 Build 0)  -->
<!DOCTYPE svg PUBLIC "-//W3C//DTD SVG 1.1//EN" "http://www.w3.org/Graphics/SVG/1.1/DTD/svg11.dtd">
<svg version="1.1" id="Capa_1" xmlns="http://www.w3.org/2000/svg" xmlns:xlink="http://www.w3.org/1999/xlink" x="0px" y="0px"
	 viewBox="0 0 460 460" style="enable-background:new 0 0 460 460;" xml:space="preserve">
<g>
	
		<circle style="fill:#FCC324;stroke:#000000;stroke-width:20;stroke-linecap:round;stroke-linejoin:round;stroke-miterlimit:10;" cx="230" cy="230" r="220"/>
	<path style="fill:#333333;stroke:#000000;stroke-width:20;stroke-linecap:round;stroke-linejoin:round;stroke-miterlimit:10;" d="
		M230,133.097c17.644,0,34.185,4.718,48.434,12.957l42.142-73.041c-58.102-33.523-127.041-31.223-181.255,0.03l42.197,73.039
		C195.778,137.826,212.336,133.097,230,133.097z"/>
	<path style="fill:#333333;stroke:#000000;stroke-width:20;stroke-linecap:round;stroke-linejoin:round;stroke-miterlimit:10;" d="
		M133.097,230.028l-84.365,0.024c0.077,62.578,32.59,123.412,90.692,156.935l42.142-73.041
		C152.6,297.198,133.108,265.891,133.097,230.028z"/>
	<path style="fill:#333333;stroke:#000000;stroke-width:20;stroke-linecap:round;stroke-linejoin:round;stroke-miterlimit:10;" d="
		M326.903,229.972c0,0.009,0,0.019,0,0.028c0,35.855-19.474,67.158-48.421,83.918l42.197,73.039
		c26.686-15.385,49.807-37.781,66.308-66.381c16.501-28.6,24.318-59.825,24.281-90.628L326.903,229.972z"/>
	
		<circle style="fill:#333333;stroke:#000000;stroke-width:20;stroke-linecap:round;stroke-linejoin:round;stroke-miterlimit:10;" cx="230" cy="230" r="58.5"/>
</g>
<g>
</g>
<g>
</g>
<g>
</g>
<g>
</g>
<g>
</g>
<g>
</g>
<g>
</g>
<g>
</g>
<g>
</g>
<g>
</g>
<g>
</g>
<g>
</g>
<g>
</g>
<g>
</g>
<g>
</g>
</svg>
