<?xml version="1.0" encoding="iso-8859-1"?>
<!-- Generator: Adobe Illustrator 17.1.0, SVG Export Plug-In . SVG Version: 6.00 Build 0)  -->
<!DOCTYPE svg PUBLIC "-//W3C//DTD SVG 1.1//EN" "http://www.w3.org/Graphics/SVG/1.1/DTD/svg11.dtd">
<svg version="1.1" id="Capa_1" xmlns="http://www.w3.org/2000/svg" xmlns:xlink="http://www.w3.org/1999/xlink" x="0px" y="0px"
	 viewBox="0 0 460 460" style="enable-background:new 0 0 460 460;" xml:space="preserve">
<g>
	<path style="fill:#70AD46;stroke:#000000;stroke-width:20;stroke-linecap:round;stroke-linejoin:round;stroke-miterlimit:10;" d="
		M387.466,30.042c-38.903,21.456-87.743,21.471-121.217,49.204l-23.437-32.108c-20.438,20.438-31.977,46.404-34.624,73.085
		l-47.321-64.829c-32.666,32.666-49.475,75.182-50.434,117.987l-42.889-58.758c-76.721,76.721-76.721,201.11,0,277.832
		L444.572,15.428C432.291,3.146,417.836,13.293,387.466,30.042z"/>
	<path style="fill:#A1CE57;stroke:#000000;stroke-width:20;stroke-linecap:round;stroke-linejoin:round;stroke-miterlimit:10;" d="
		M444.572,15.428L67.545,392.455c76.721,76.721,201.11,76.721,277.832,0l-58.758-42.889c42.805-0.958,85.321-17.768,117.987-50.433
		l-64.829-47.321c26.681-2.647,52.647-14.185,73.085-34.624l-32.108-23.437c27.734-33.474,27.749-82.314,49.204-121.217
		C446.707,42.165,456.854,27.709,444.572,15.428z"/>
	
		<line style="fill:none;stroke:#000000;stroke-width:20;stroke-linecap:round;stroke-linejoin:round;stroke-miterlimit:10;" x1="10" y1="450" x2="67.545" y2="392.455"/>
	
		<polyline style="fill:none;stroke:#000000;stroke-width:20;stroke-linecap:round;stroke-linejoin:round;stroke-miterlimit:10;" points="
		208.188,120.223 226.747,233.254 339.777,251.812 	"/>
	
		<polyline style="fill:none;stroke:#000000;stroke-width:20;stroke-linecap:round;stroke-linejoin:round;stroke-miterlimit:10;" points="
		277.099,145.329 282.398,177.603 380.754,193.751 	"/>
	
		<line style="fill:none;stroke:#000000;stroke-width:20;stroke-linecap:round;stroke-linejoin:round;stroke-miterlimit:10;" x1="266.249" y1="79.246" x2="271.114" y2="108.881"/>
	
		<polyline style="fill:none;stroke:#000000;stroke-width:20;stroke-linecap:round;stroke-linejoin:round;stroke-miterlimit:10;" points="
		328.862,51.133 340.145,119.855 408.867,131.138 	"/>
	
		<line style="fill:none;stroke:#000000;stroke-width:20;stroke-linecap:round;stroke-linejoin:round;stroke-miterlimit:10;" x1="244.496" y1="342.65" x2="286.619" y2="349.566"/>
	
		<polyline style="fill:none;stroke:#000000;stroke-width:20;stroke-linecap:round;stroke-linejoin:round;stroke-miterlimit:10;" points="
		110.434,173.381 135.281,324.719 208.052,336.667 	"/>
</g>
<g>
</g>
<g>
</g>
<g>
</g>
<g>
</g>
<g>
</g>
<g>
</g>
<g>
</g>
<g>
</g>
<g>
</g>
<g>
</g>
<g>
</g>
<g>
</g>
<g>
</g>
<g>
</g>
<g>
</g>
</svg>
