<?xml version="1.0" encoding="iso-8859-1"?>
<!-- Generator: Adobe Illustrator 17.1.0, SVG Export Plug-In . SVG Version: 6.00 Build 0)  -->
<!DOCTYPE svg PUBLIC "-//W3C//DTD SVG 1.1//EN" "http://www.w3.org/Graphics/SVG/1.1/DTD/svg11.dtd">
<svg version="1.1" id="Capa_1" xmlns="http://www.w3.org/2000/svg" xmlns:xlink="http://www.w3.org/1999/xlink" x="0px" y="0px"
	 viewBox="0 0 461.727 461.727" style="enable-background:new 0 0 461.727 461.727;" xml:space="preserve">
<g>
	<path style="fill:#2D5C34;stroke:#000000;stroke-width:20;stroke-linecap:round;stroke-linejoin:round;stroke-miterlimit:10;" d="
		M230.863,10c-39.22,0-206.216,77.917-206.216,380.614l144.816,30.113h122.8l144.816-30.113C437.079,87.917,270.083,10,230.863,10z
		 M271.301,343.242h-80.876L92.127,277.81c50.916-125.564,73.208-185.977,138.736-185.977S318.684,152.245,369.6,277.81
		L271.301,343.242z"/>
	
		<polygon style="fill:#162E1A;stroke:#000000;stroke-width:20;stroke-linecap:round;stroke-linejoin:round;stroke-miterlimit:10;" points="
		344.982,217.538 282.488,267.496 271.301,343.242 369.6,277.81 	"/>
	
		<polygon style="fill:#162E1A;stroke:#000000;stroke-width:20;stroke-linecap:round;stroke-linejoin:round;stroke-miterlimit:10;" points="
		116.745,217.538 92.127,277.81 190.425,343.242 179.239,267.496 	"/>
	<path style="fill:#B3B3B3;stroke:#000000;stroke-width:20;stroke-linecap:round;stroke-linejoin:round;stroke-miterlimit:10;" d="
		M230.863,91.833c-53.993,0-78.635,41.024-114.118,125.705l62.494,49.958l11.187,75.746h80.876l11.187-75.746l62.494-49.958
		C309.498,132.857,284.856,91.833,230.863,91.833z M212.338,210.552l-46.101-3.303v-33.462l46.101,10.771V210.552z M249.388,210.552
		v-25.993l46.101-10.771v33.462L249.388,210.552z"/>
	
		<line style="fill:none;stroke:#000000;stroke-width:20;stroke-linecap:round;stroke-linejoin:round;stroke-miterlimit:10;" x1="92.127" y1="277.81" x2="92.127" y2="343.242"/>
	
		<line style="fill:none;stroke:#000000;stroke-width:20;stroke-linecap:round;stroke-linejoin:round;stroke-miterlimit:10;" x1="210.454" y1="297.655" x2="250.267" y2="297.655"/>
	
		<line style="fill:none;stroke:#000000;stroke-width:20;stroke-linecap:round;stroke-linejoin:round;stroke-miterlimit:10;" x1="369.6" y1="277.81" x2="369.6" y2="343.242"/>
	
		<circle style="fill:#FDF133;stroke:#000000;stroke-width:20;stroke-linecap:round;stroke-linejoin:round;stroke-miterlimit:10;" cx="169.463" cy="420.727" r="31"/>
	
		<circle style="fill:#FDF133;stroke:#000000;stroke-width:20;stroke-linecap:round;stroke-linejoin:round;stroke-miterlimit:10;" cx="292.263" cy="420.727" r="31"/>
</g>
<g>
</g>
<g>
</g>
<g>
</g>
<g>
</g>
<g>
</g>
<g>
</g>
<g>
</g>
<g>
</g>
<g>
</g>
<g>
</g>
<g>
</g>
<g>
</g>
<g>
</g>
<g>
</g>
<g>
</g>
</svg>
