<?xml version="1.0" encoding="iso-8859-1"?>
<!-- Generator: Adobe Illustrator 17.1.0, SVG Export Plug-In . SVG Version: 6.00 Build 0)  -->
<!DOCTYPE svg PUBLIC "-//W3C//DTD SVG 1.1//EN" "http://www.w3.org/Graphics/SVG/1.1/DTD/svg11.dtd">
<svg version="1.1" id="Capa_1" xmlns="http://www.w3.org/2000/svg" xmlns:xlink="http://www.w3.org/1999/xlink" x="0px" y="0px"
	 viewBox="0 0 460 460" style="enable-background:new 0 0 460 460;" xml:space="preserve">
<g>
	<path style="fill:#CCCCCC;stroke:#000000;stroke-width:20;stroke-linecap:round;stroke-linejoin:round;stroke-miterlimit:10;" d="
		M346.709,287.11c-2.159-6.26-2.569-12.699-1.499-18.79l-61.746,21.295l0.001,58.612l73.647-45.399
		C352.514,298.692,348.868,293.37,346.709,287.11z"/>
	
		<line style="fill:none;stroke:#000000;stroke-width:20;stroke-linecap:round;stroke-linejoin:round;stroke-miterlimit:10;" x1="214.894" y1="71.886" x2="245.106" y2="71.886"/>
	<path style="fill:#CCCCCC;stroke:#000000;stroke-width:20;stroke-linecap:round;stroke-linejoin:round;stroke-miterlimit:10;" d="
		M230,220.452c-6.227,0-12.076-1.61-17.163-4.428l-3,52.62h40.325l-3-52.62C242.076,218.842,236.227,220.452,230,220.452z"/>
	<path style="fill:#CCCCCC;stroke:#000000;stroke-width:20;stroke-linecap:round;stroke-linejoin:round;stroke-miterlimit:10;" d="
		M230,149.513c6.905,0,13.345,1.98,18.796,5.394l-3.689-83.021L230,10l-15.106,61.886l-3.689,83.02
		C216.656,151.493,223.095,149.513,230,149.513z"/>
	
		<circle style="fill:#999999;stroke:#000000;stroke-width:20;stroke-linecap:round;stroke-linejoin:round;stroke-miterlimit:10;" cx="230" cy="184.982" r="35.469"/>
	<path style="fill:#CCCCCC;stroke:#000000;stroke-width:20;stroke-linecap:round;stroke-linejoin:round;stroke-miterlimit:10;" d="
		M377.144,237.457c16.146-2.275,32.168,6.195,39.264,21.121l29.646-108.386l-58.67-75.736l22.592,65.508l-32.835,97.494
		C377.143,237.457,377.144,237.457,377.144,237.457z"/>
	
		<circle style="fill:#999999;stroke:#000000;stroke-width:20;stroke-linecap:round;stroke-linejoin:round;stroke-miterlimit:10;" cx="382.367" cy="274.812" r="37.719"/>
	<path style="fill:#CCCCCC;stroke:#000000;stroke-width:20;stroke-linecap:round;stroke-linejoin:round;stroke-miterlimit:10;" d="
		M113.291,287.11c2.159-6.26,2.569-12.699,1.499-18.79l61.746,21.295l-0.001,58.612l-73.647-45.399
		C107.486,298.692,111.132,293.37,113.291,287.11z"/>
	<path style="fill:#CCCCCC;stroke:#000000;stroke-width:20;stroke-linecap:round;stroke-linejoin:round;stroke-miterlimit:10;" d="
		M82.856,237.457c0,0,0.002,0,0.002,0l-32.835-97.494l22.592-65.508l-58.67,75.736l29.646,108.386
		C50.688,243.651,66.709,235.182,82.856,237.457z"/>
	
		<circle style="fill:#999999;stroke:#000000;stroke-width:20;stroke-linecap:round;stroke-linejoin:round;stroke-miterlimit:10;" cx="77.633" cy="274.812" r="37.719"/>
	
		<rect x="176.537" y="268.643" style="fill:#B3B3B3;stroke:#000000;stroke-width:20;stroke-linecap:round;stroke-linejoin:round;stroke-miterlimit:10;" width="106.927" height="124.112"/>
	
		<line style="fill:none;stroke:#000000;stroke-width:20;stroke-linecap:round;stroke-linejoin:round;stroke-miterlimit:10;" x1="166.255" y1="392.756" x2="293.745" y2="392.756"/>
	
		<rect x="190.531" y="392.756" style="fill:#666666;stroke:#000000;stroke-width:20;stroke-linecap:round;stroke-linejoin:round;stroke-miterlimit:10;" width="78.939" height="57.244"/>
	
		<line style="fill:none;stroke:#000000;stroke-width:20;stroke-linecap:round;stroke-linejoin:round;stroke-miterlimit:10;" x1="209.838" y1="359" x2="209.838" y2="392.756"/>
	
		<line style="fill:none;stroke:#000000;stroke-width:20;stroke-linecap:round;stroke-linejoin:round;stroke-miterlimit:10;" x1="209.838" y1="268.643" x2="209.838" y2="329"/>
</g>
<g>
</g>
<g>
</g>
<g>
</g>
<g>
</g>
<g>
</g>
<g>
</g>
<g>
</g>
<g>
</g>
<g>
</g>
<g>
</g>
<g>
</g>
<g>
</g>
<g>
</g>
<g>
</g>
<g>
</g>
</svg>
