<?xml version="1.0" encoding="iso-8859-1"?>
<!-- Generator: Adobe Illustrator 17.1.0, SVG Export Plug-In . SVG Version: 6.00 Build 0)  -->
<!DOCTYPE svg PUBLIC "-//W3C//DTD SVG 1.1//EN" "http://www.w3.org/Graphics/SVG/1.1/DTD/svg11.dtd">
<svg version="1.1" id="Capa_1" xmlns="http://www.w3.org/2000/svg" xmlns:xlink="http://www.w3.org/1999/xlink" x="0px" y="0px"
	 viewBox="0 0 460 460" style="enable-background:new 0 0 460 460;" xml:space="preserve">
<g>
	<path style="fill:#333333;stroke:#000000;stroke-width:20;stroke-linecap:round;stroke-linejoin:round;stroke-miterlimit:10;" d="
		M302.344,69.197c0-2.916,0.22-5.779,0.627-8.583h-52.397c-25.189,0-45.609,20.42-45.609,45.609h97.379V69.197z"/>
	<path style="fill:#666666;stroke:#000000;stroke-width:20;stroke-linecap:round;stroke-linejoin:round;stroke-miterlimit:10;" d="
		M420.739,69.197c0-32.694-26.504-59.197-59.197-59.197c-32.694,0-59.197,26.503-59.197,59.197v80.71l-139.055,82.01
		c0.399,17.501,4.292,34.138,11.006,49.244L56.597,350.574c-16.756,9.882-22.329,31.477-12.447,48.233
		c9.882,16.756,31.477,22.329,48.233,12.447l127.875-75.416c20.5,13.783,45.177,21.832,71.737,21.832
		c71.103,0,128.744-57.641,128.744-128.744V69.197z"/>
	
		<line style="fill:none;stroke:#000000;stroke-width:20;stroke-linecap:round;stroke-linejoin:round;stroke-miterlimit:10;" x1="302.344" y1="149.907" x2="60" y2="292.833"/>
	
		<line style="fill:none;stroke:#000000;stroke-width:20;stroke-linecap:round;stroke-linejoin:round;stroke-miterlimit:10;" x1="302.971" y1="60.614" x2="349.75" y2="60.614"/>
	
		<line style="fill:none;stroke:#000000;stroke-width:20;stroke-linecap:round;stroke-linejoin:round;stroke-miterlimit:10;" x1="302.971" y1="322.116" x2="302.971" y2="450"/>
	
		<line style="fill:none;stroke:#000000;stroke-width:20;stroke-linecap:round;stroke-linejoin:round;stroke-miterlimit:10;" x1="349.75" y1="344.011" x2="349.75" y2="450"/>
</g>
<g>
</g>
<g>
</g>
<g>
</g>
<g>
</g>
<g>
</g>
<g>
</g>
<g>
</g>
<g>
</g>
<g>
</g>
<g>
</g>
<g>
</g>
<g>
</g>
<g>
</g>
<g>
</g>
<g>
</g>
</svg>
