<?xml version="1.0" encoding="iso-8859-1"?>
<!-- Generator: Adobe Illustrator 17.1.0, SVG Export Plug-In . SVG Version: 6.00 Build 0)  -->
<!DOCTYPE svg PUBLIC "-//W3C//DTD SVG 1.1//EN" "http://www.w3.org/Graphics/SVG/1.1/DTD/svg11.dtd">
<svg version="1.1" id="Capa_1" xmlns="http://www.w3.org/2000/svg" xmlns:xlink="http://www.w3.org/1999/xlink" x="0px" y="0px"
	 viewBox="0 0 460 460" style="enable-background:new 0 0 460 460;" xml:space="preserve">
<g>
	<path style="fill:#70AD46;stroke:#000000;stroke-width:20;stroke-linecap:round;stroke-linejoin:round;stroke-miterlimit:10;" d="
		M230.004,10C127.439,10,44.293,93.146,44.293,195.711v110.601h371.422V195.711C415.715,93.146,332.57,10,230.004,10z"/>
	<path style="fill:#2D5C34;stroke:#000000;stroke-width:20;stroke-linecap:round;stroke-linejoin:round;stroke-miterlimit:10;" d="
		M44.293,306.312v53.112c0,0,25.425,63.025,66.428,85.167c41.918,22.636,94.582-33.094,119.278-33.094s77.36,55.73,119.278,33.094
		c41.004-22.142,66.428-85.167,66.428-85.167v-53.112H44.293z"/>
	<path style="fill:#FFFFFF;stroke:#000000;stroke-width:20;stroke-linecap:round;stroke-linejoin:round;stroke-miterlimit:10;" d="
		M137.726,396.755c-23.476-9.846-36.962-33.473-35.031-57.539l100.627,42.204C187.508,399.663,161.202,406.601,137.726,396.755z"/>
	<path style="fill:#FFFFFF;stroke:#000000;stroke-width:20;stroke-linecap:round;stroke-linejoin:round;stroke-miterlimit:10;" d="
		M323.211,397.265c-23.928,10.035-50.739,2.964-66.857-15.63l102.562-43.016C360.884,363.148,347.139,387.229,323.211,397.265z"/>
	
		<rect x="44.285" y="253.2" style="fill:#162E1A;stroke:#000000;stroke-width:20;stroke-linecap:round;stroke-linejoin:round;stroke-miterlimit:10;" width="371.431" height="53.112"/>
	
		<ellipse style="fill:none;stroke:#000000;stroke-width:20;stroke-linecap:round;stroke-linejoin:round;stroke-miterlimit:10;" cx="230" cy="143.111" rx="55.998" ry="69.889"/>
	
		<ellipse style="fill:none;stroke:#000000;stroke-width:20;stroke-linecap:round;stroke-linejoin:round;stroke-miterlimit:10;" cx="230" cy="158" rx="20.031" ry="25"/>
</g>
<g>
</g>
<g>
</g>
<g>
</g>
<g>
</g>
<g>
</g>
<g>
</g>
<g>
</g>
<g>
</g>
<g>
</g>
<g>
</g>
<g>
</g>
<g>
</g>
<g>
</g>
<g>
</g>
<g>
</g>
</svg>
