<?xml version="1.0" encoding="iso-8859-1"?>
<!-- Generator: Adobe Illustrator 17.1.0, SVG Export Plug-In . SVG Version: 6.00 Build 0)  -->
<!DOCTYPE svg PUBLIC "-//W3C//DTD SVG 1.1//EN" "http://www.w3.org/Graphics/SVG/1.1/DTD/svg11.dtd">
<svg version="1.1" id="Capa_1" xmlns="http://www.w3.org/2000/svg" xmlns:xlink="http://www.w3.org/1999/xlink" x="0px" y="0px"
	 viewBox="0 0 460 460" style="enable-background:new 0 0 460 460;" xml:space="preserve">
<g>
	<path style="fill:#B3B3B3;stroke:#000000;stroke-width:20;stroke-linecap:round;stroke-linejoin:round;stroke-miterlimit:10;" d="
		M366.004,320.232h-70.902c0-14.049-11.389-25.438-25.438-25.438h-79.329c-14.049,0-25.438,11.389-25.438,25.438H93.996
		l-12.47,55.356l83.372,39.265c0,14.049,11.389,25.438,25.438,25.438h79.329c14.049,0,25.438-11.389,25.438-25.438l83.372-39.265
		L366.004,320.232z"/>
	<path style="fill:#B3B3B3;stroke:#000000;stroke-width:20;stroke-linecap:round;stroke-linejoin:round;stroke-miterlimit:10;" d="
		M367.75,156.535C337.129,75.527,285.777,44.876,230,44.876S122.871,75.527,92.25,156.535C62.334,235.682,10,440.29,10,440.29
		h56.952l55.436-246.095h215.226l55.436,246.095H450C450,440.29,397.666,235.682,367.75,156.535z"/>
	
		<line style="fill:none;stroke:#000000;stroke-width:20;stroke-linecap:round;stroke-linejoin:round;stroke-miterlimit:10;" x1="164.898" y1="320.232" x2="164.898" y2="414.853"/>
	
		<line style="fill:none;stroke:#000000;stroke-width:20;stroke-linecap:round;stroke-linejoin:round;stroke-miterlimit:10;" x1="295.102" y1="368.196" x2="295.102" y2="414.853"/>
	
		<line style="fill:none;stroke:#000000;stroke-width:20;stroke-linecap:round;stroke-linejoin:round;stroke-miterlimit:10;" x1="295.102" y1="320.232" x2="295.102" y2="338.196"/>
	
		<polygon style="fill:#666666;stroke:#000000;stroke-width:20;stroke-linecap:round;stroke-linejoin:round;stroke-miterlimit:10;" points="
		365.4,150.535 251.83,150.535 245.83,19.71 214.17,19.71 208.17,150.535 94.6,150.535 28.341,93.708 79.236,194.196 
		380.764,194.196 431.659,98.708 	"/>
</g>
<g>
</g>
<g>
</g>
<g>
</g>
<g>
</g>
<g>
</g>
<g>
</g>
<g>
</g>
<g>
</g>
<g>
</g>
<g>
</g>
<g>
</g>
<g>
</g>
<g>
</g>
<g>
</g>
<g>
</g>
</svg>
