<?xml version="1.0" encoding="iso-8859-1"?>
<!-- Generator: Adobe Illustrator 17.1.0, SVG Export Plug-In . SVG Version: 6.00 Build 0)  -->
<!DOCTYPE svg PUBLIC "-//W3C//DTD SVG 1.1//EN" "http://www.w3.org/Graphics/SVG/1.1/DTD/svg11.dtd">
<svg version="1.1" id="Capa_1" xmlns="http://www.w3.org/2000/svg" xmlns:xlink="http://www.w3.org/1999/xlink" x="0px" y="0px"
	 viewBox="0 0 460 460" style="enable-background:new 0 0 460 460;" xml:space="preserve">
<g>
	<path style="fill:none;stroke:#000000;stroke-width:20;stroke-linecap:round;stroke-linejoin:round;stroke-miterlimit:10;" d="
		M61.341,314.892c5.847,1.114,11.283,4.42,14.967,9.681"/>
	<path style="fill:none;stroke:#000000;stroke-width:20;stroke-linecap:round;stroke-linejoin:round;stroke-miterlimit:10;" d="
		M102.122,360.186c9.25,9.25,24.247,9.25,33.497,0c9.25-9.25,9.25-24.247,0-33.497c-0.649-0.649-7.75-7.995-7.75-7.995"/>
	<path style="fill:#E5E5E5;stroke:#000000;stroke-width:20;stroke-linecap:round;stroke-linejoin:round;stroke-miterlimit:10;" d="
		M148.838,271.452c-4.65-4.65-10.003-8.157-15.71-10.561L89.938,304.08c-34.496,34.496-34.496,90.624,0,125.12
		c8.44,8.44,18.291,14.978,29.278,19.434c7.131,2.892,15.007,1.037,20.126-4.082c1.706-1.706,3.107-3.776,4.07-6.153
		c3.855-9.508-0.727-20.341-10.235-24.196c-6.355-2.577-12.063-6.37-16.968-11.275c-20.009-20.009-20.009-52.567,0-72.576
		l43.189-43.189C156.995,281.455,153.488,276.102,148.838,271.452z"/>
	<path style="fill:#999999;stroke:#000000;stroke-width:20;stroke-linecap:round;stroke-linejoin:round;stroke-miterlimit:10;" d="
		M133.128,260.891L89.938,304.08l26.272,26.272l43.189-43.189c-2.405-5.707-5.911-11.06-10.561-15.71
		C144.188,266.802,138.835,263.295,133.128,260.891z"/>
	<path style="fill:#666666;stroke:#000000;stroke-width:20;stroke-linecap:round;stroke-linejoin:round;stroke-miterlimit:10;" d="
		M384.019,36.272L49.71,201.127c15.07-2.379,31.03,2.227,42.644,13.84c11.614,11.614,16.22,27.574,13.84,42.644
		c15.07-2.379,31.03,2.227,42.644,13.84c11.614,11.614,16.22,27.574,13.84,42.645c15.07-2.38,31.03,2.226,42.644,13.84
		c11.614,11.614,16.22,27.574,13.84,42.645L384.019,36.272z"/>
	
		<polyline style="fill:none;stroke:#000000;stroke-width:20;stroke-linecap:round;stroke-linejoin:round;stroke-miterlimit:10;" points="
		162.678,314.096 384.019,36.272 410.29,10 	"/>
	
		<line style="fill:none;stroke:#000000;stroke-width:20;stroke-linecap:round;stroke-linejoin:round;stroke-miterlimit:10;" x1="189.802" y1="191.002" x2="384.019" y2="36.272"/>
	
		<line style="fill:none;stroke:#000000;stroke-width:20;stroke-linecap:round;stroke-linejoin:round;stroke-miterlimit:10;" x1="106.194" y1="257.612" x2="165.102" y2="210.68"/>
</g>
<g>
</g>
<g>
</g>
<g>
</g>
<g>
</g>
<g>
</g>
<g>
</g>
<g>
</g>
<g>
</g>
<g>
</g>
<g>
</g>
<g>
</g>
<g>
</g>
<g>
</g>
<g>
</g>
<g>
</g>
</svg>
