<?xml version="1.0" encoding="iso-8859-1"?>
<!-- Generator: Adobe Illustrator 17.1.0, SVG Export Plug-In . SVG Version: 6.00 Build 0)  -->
<!DOCTYPE svg PUBLIC "-//W3C//DTD SVG 1.1//EN" "http://www.w3.org/Graphics/SVG/1.1/DTD/svg11.dtd">
<svg version="1.1" id="Capa_1" xmlns="http://www.w3.org/2000/svg" xmlns:xlink="http://www.w3.org/1999/xlink" x="0px" y="0px"
	 viewBox="0 0 460 460" style="enable-background:new 0 0 460 460;" xml:space="preserve">
<g>
	
		<line style="fill:none;stroke:#000000;stroke-width:20;stroke-linecap:round;stroke-linejoin:round;stroke-miterlimit:10;" x1="185.212" y1="367.298" x2="226.927" y2="325.584"/>
	
		<line style="fill:none;stroke:#000000;stroke-width:20;stroke-linecap:round;stroke-linejoin:round;stroke-miterlimit:10;" x1="135.913" y1="234.57" x2="94.199" y2="276.285"/>
	<path style="fill:#E5E5E5;stroke:#000000;stroke-width:20;stroke-linecap:round;stroke-linejoin:round;stroke-miterlimit:10;" d="
		M449.489,12.008c-6.127-6.127-76.454,44.896-76.454,44.896l-111.979,98.03c0,0-57.483,39.978-81.348,50.546
		c-1.309-3.213-3.266-6.224-5.873-8.832c-10.472-10.472-27.45-10.472-37.922,0c-10.472,10.472-10.472,27.45,0,37.922
		c7.874,7.874,19.427,9.826,29.126,5.858c-5.948,33.232-33.522,58.967-67.651,62.083c4.975-8.248,3.927-19.11-3.19-26.227
		c-8.378-8.377-21.96-8.377-30.338,0s-8.378,21.96,0,30.338c8.378,8.377,21.96,8.377,30.338,0l60.675,60.675
		c-8.378,8.377-8.378,21.96,0,30.338s21.96,8.377,30.338,0c8.378-8.377,8.378-21.96,0-30.338
		c-7.117-7.117-17.979-8.164-26.227-3.189c3.116-34.129,28.85-61.703,62.083-67.651c-3.968,9.699-2.016,21.252,5.858,29.126
		c10.472,10.472,27.45,10.472,37.922,0c10.472-10.472,10.472-27.45,0-37.922c-2.607-2.607-5.618-4.564-8.831-5.873
		c10.568-23.864,50.546-81.348,50.546-81.348l98.029-111.978C404.593,88.462,455.616,18.135,449.489,12.008z"/>
	
		<line style="fill:none;stroke:#B3B3B3;stroke-width:20;stroke-linecap:round;stroke-linejoin:round;stroke-miterlimit:10;" x1="253.472" y1="208.025" x2="208.223" y2="253.274"/>
	<path style="fill:#E5E5E5;stroke:#000000;stroke-width:20;stroke-linecap:round;stroke-linejoin:round;stroke-miterlimit:10;" d="
		M87.393,345.323l-72.052,72.052c-7.121,7.121-7.121,18.667,0,25.787c7.121,7.121,18.666,7.121,25.787,0l72.052-72.052
		L87.393,345.323z"/>
	
		<line style="fill:none;stroke:#000000;stroke-width:20;stroke-linecap:round;stroke-linejoin:round;stroke-miterlimit:10;" x1="58.572" y1="440.887" x2="17.616" y2="399.931"/>
	
		<line style="fill:none;stroke:#000000;stroke-width:20;stroke-linecap:round;stroke-linejoin:round;stroke-miterlimit:10;" x1="120.764" y1="378.695" x2="79.808" y2="337.739"/>
</g>
<g>
</g>
<g>
</g>
<g>
</g>
<g>
</g>
<g>
</g>
<g>
</g>
<g>
</g>
<g>
</g>
<g>
</g>
<g>
</g>
<g>
</g>
<g>
</g>
<g>
</g>
<g>
</g>
<g>
</g>
</svg>
