<?xml version="1.0" encoding="iso-8859-1"?>
<!-- Generator: Adobe Illustrator 17.1.0, SVG Export Plug-In . SVG Version: 6.00 Build 0)  -->
<!DOCTYPE svg PUBLIC "-//W3C//DTD SVG 1.1//EN" "http://www.w3.org/Graphics/SVG/1.1/DTD/svg11.dtd">
<svg version="1.1" id="Capa_1" xmlns="http://www.w3.org/2000/svg" xmlns:xlink="http://www.w3.org/1999/xlink" x="0px" y="0px"
	 viewBox="0 0 460 460" style="enable-background:new 0 0 460 460;" xml:space="preserve">
<g>
	
		<rect x="374.431" y="16.264" transform="matrix(0.7071 -0.7071 0.7071 0.7071 68.7869 297.9548)" style="fill:#CCCCCC;stroke:#000000;stroke-width:20;stroke-linecap:round;stroke-linejoin:round;stroke-miterlimit:10;" width="39.249" height="99.361"/>
	
		<line style="fill:none;stroke:#000000;stroke-width:20;stroke-linecap:round;stroke-linejoin:round;stroke-miterlimit:10;" x1="365.865" y1="10" x2="450" y2="94.136"/>
	
		<rect x="309.765" y="89.696" transform="matrix(0.7071 -0.7071 0.7071 0.7071 25.4103 279.9871)" style="fill:#F8A71B;stroke:#000000;stroke-width:20;stroke-linecap:round;stroke-linejoin:round;stroke-miterlimit:10;" width="81.829" height="39.249"/>
	
		<rect x="143.012" y="161.385" transform="matrix(-0.7071 -0.7071 0.7071 -0.7071 123.2755 468.7155)" style="fill:#E5E5E5;stroke:#000000;stroke-width:20;stroke-linecap:round;stroke-linejoin:round;stroke-miterlimit:10;" width="31.399" height="94.882"/>
	
		<rect x="76.515" y="238.923" transform="matrix(0.7071 -0.7071 0.7071 0.7071 -153.8724 205.7258)" style="fill:#E5E5E5;stroke:#000000;stroke-width:20;stroke-linecap:round;stroke-linejoin:round;stroke-miterlimit:10;" width="189.764" height="99.361"/>
	
		<line style="fill:none;stroke:#000000;stroke-width:20;stroke-linecap:round;stroke-linejoin:round;stroke-miterlimit:10;" x1="294.433" y1="235.826" x2="224.174" y2="165.567"/>
	
		<line style="fill:none;stroke:#000000;stroke-width:20;stroke-linecap:round;stroke-linejoin:round;stroke-miterlimit:10;" x1="315.248" y1="215.011" x2="244.989" y2="144.752"/>
	
		<line style="fill:none;stroke:#000000;stroke-width:20;stroke-linecap:round;stroke-linejoin:round;stroke-miterlimit:10;" x1="336.063" y1="194.196" x2="265.804" y2="123.937"/>
	
		<line style="fill:none;stroke:#000000;stroke-width:20;stroke-linecap:round;stroke-linejoin:round;stroke-miterlimit:10;" x1="356.878" y1="173.381" x2="286.619" y2="103.122"/>
	
		<rect x="40.818" y="354.783" transform="matrix(0.7071 -0.7071 0.7071 0.7071 -269.7323 157.735)" style="fill:#E5E5E5;stroke:#000000;stroke-width:20;stroke-linecap:round;stroke-linejoin:round;stroke-miterlimit:10;" width="29.437" height="99.361"/>
	
		<rect x="15.82" y="347.75" transform="matrix(-0.7071 -0.7071 0.7071 -0.7071 -119.7598 700.1443)" style="fill:#CCCCCC;stroke:#000000;stroke-width:20;stroke-linecap:round;stroke-linejoin:round;stroke-miterlimit:10;" width="138.61" height="54.25"/>
	
		<line style="fill:none;stroke:#000000;stroke-width:20;stroke-linecap:round;stroke-linejoin:round;stroke-miterlimit:10;" x1="49.609" y1="377.72" x2="87.97" y2="339.36"/>
	
		<line style="fill:none;stroke:#000000;stroke-width:20;stroke-linecap:round;stroke-linejoin:round;stroke-miterlimit:10;" x1="82.28" y1="410.391" x2="120.64" y2="372.03"/>
</g>
<g>
</g>
<g>
</g>
<g>
</g>
<g>
</g>
<g>
</g>
<g>
</g>
<g>
</g>
<g>
</g>
<g>
</g>
<g>
</g>
<g>
</g>
<g>
</g>
<g>
</g>
<g>
</g>
<g>
</g>
</svg>
