<?xml version="1.0" encoding="iso-8859-1"?>
<!-- Generator: Adobe Illustrator 17.1.0, SVG Export Plug-In . SVG Version: 6.00 Build 0)  -->
<!DOCTYPE svg PUBLIC "-//W3C//DTD SVG 1.1//EN" "http://www.w3.org/Graphics/SVG/1.1/DTD/svg11.dtd">
<svg version="1.1" id="Capa_1" xmlns="http://www.w3.org/2000/svg" xmlns:xlink="http://www.w3.org/1999/xlink" x="0px" y="0px"
	 viewBox="0 0 460 460" style="enable-background:new 0 0 460 460;" xml:space="preserve">
<g>
	
		<rect x="42.411" y="252.004" transform="matrix(-0.7071 -0.7071 0.7071 -0.7071 -76.8933 528.3602)" style="fill:#E5E5E5;stroke:#000000;stroke-width:20;stroke-linecap:round;stroke-linejoin:round;stroke-miterlimit:10;" width="57.14" height="56.203"/>
	
		<rect x="208.516" y="90.582" transform="matrix(0.7071 -0.7071 0.7071 0.7071 -16.3215 198.9005)" style="fill:#E5E5E5;stroke:#000000;stroke-width:20;stroke-linecap:round;stroke-linejoin:round;stroke-miterlimit:10;" width="46.836" height="57.14"/>
	
		<rect x="124.543" y="109.921" transform="matrix(0.7071 0.7071 -0.7071 0.7071 184.8336 -50.2822)" style="fill:#DE021B;stroke:#000000;stroke-width:20;stroke-linecap:round;stroke-linejoin:round;stroke-miterlimit:10;" width="57.14" height="176.103"/>
	
		<rect x="172.233" y="381.826" transform="matrix(-0.7071 -0.7071 0.7071 -0.7071 52.9291 841.7784)" style="fill:#E5E5E5;stroke:#000000;stroke-width:20;stroke-linecap:round;stroke-linejoin:round;stroke-miterlimit:10;" width="57.14" height="56.203"/>
	
		<rect x="338.338" y="220.405" transform="matrix(0.7071 -0.7071 0.7071 0.7071 -70.0957 328.7227)" style="fill:#E5E5E5;stroke:#000000;stroke-width:20;stroke-linecap:round;stroke-linejoin:round;stroke-miterlimit:10;" width="46.836" height="57.14"/>
	
		<rect x="254.365" y="239.744" transform="matrix(0.7071 0.7071 -0.7071 0.7071 314.6557 -104.0563)" style="fill:#DE021B;stroke:#000000;stroke-width:20;stroke-linecap:round;stroke-linejoin:round;stroke-miterlimit:10;" width="57.14" height="176.103"/>
	
		<polyline style="fill:none;stroke:#000000;stroke-width:20;stroke-linecap:round;stroke-linejoin:round;stroke-miterlimit:10;" points="
		200.471,369.855 211.411,244.812 229.258,255.777 	"/>
	
		<line style="fill:none;stroke:#000000;stroke-width:20;stroke-linecap:round;stroke-linejoin:round;stroke-miterlimit:10;" x1="208.962" y1="272.807" x2="226.809" y2="283.771"/>
	
		<line style="fill:none;stroke:#000000;stroke-width:20;stroke-linecap:round;stroke-linejoin:round;stroke-miterlimit:10;" x1="206.513" y1="300.802" x2="224.359" y2="311.766"/>
	
		<polyline style="fill:none;stroke:#000000;stroke-width:20;stroke-linecap:round;stroke-linejoin:round;stroke-miterlimit:10;" points="
		240.875,410.259 365.917,399.319 354.953,381.472 	"/>
	
		<line style="fill:none;stroke:#000000;stroke-width:20;stroke-linecap:round;stroke-linejoin:round;stroke-miterlimit:10;" x1="337.923" y1="401.768" x2="326.959" y2="383.921"/>
	
		<line style="fill:none;stroke:#000000;stroke-width:20;stroke-linecap:round;stroke-linejoin:round;stroke-miterlimit:10;" x1="309.928" y1="404.217" x2="298.964" y2="386.371"/>
	<path style="fill:none;stroke:#000000;stroke-width:20;stroke-linecap:round;stroke-linejoin:round;stroke-miterlimit:10;" d="
		M333.14,104.494l-19.736,19.736c-11.95,11.95-11.95,31.324,0,43.274c11.95,11.95,31.324,11.95,43.274,0
		c4.808-4.808,15.37-15.37,20.178-20.178c11.95-11.95,31.324-11.95,43.274,0c11.95,11.95,11.95,31.324,0,43.274
		c-2.745,2.745-41.815,41.815-41.815,41.815"/>
	<path style="fill:none;stroke:#000000;stroke-width:20;stroke-linecap:round;stroke-linejoin:round;stroke-miterlimit:10;" d="
		M248.492,102.593c0,0,80.885-80.885,83.631-83.631c11.95-11.95,31.324-11.95,43.274,0s11.95,31.324,0,43.274L355.66,81.973"/>
</g>
<g>
</g>
<g>
</g>
<g>
</g>
<g>
</g>
<g>
</g>
<g>
</g>
<g>
</g>
<g>
</g>
<g>
</g>
<g>
</g>
<g>
</g>
<g>
</g>
<g>
</g>
<g>
</g>
<g>
</g>
</svg>
