<?xml version="1.0" encoding="iso-8859-1"?>
<!-- Generator: Adobe Illustrator 17.1.0, SVG Export Plug-In . SVG Version: 6.00 Build 0)  -->
<!DOCTYPE svg PUBLIC "-//W3C//DTD SVG 1.1//EN" "http://www.w3.org/Graphics/SVG/1.1/DTD/svg11.dtd">
<svg version="1.1" id="Capa_1" xmlns="http://www.w3.org/2000/svg" xmlns:xlink="http://www.w3.org/1999/xlink" x="0px" y="0px"
	 viewBox="0 0 460 460" style="enable-background:new 0 0 460 460;" xml:space="preserve">
<g>
	<path style="fill:#FF0000;stroke:#000000;stroke-width:20;stroke-linecap:round;stroke-linejoin:round;stroke-miterlimit:10;" d="
		M119.475,322.945c-5.562,0-10.848-1.169-15.638-3.262v89.268h31.275v-89.268C130.323,321.776,125.037,322.945,119.475,322.945z"/>
	
		<line style="fill:none;stroke:#000000;stroke-width:20;stroke-linecap:round;stroke-linejoin:round;stroke-miterlimit:10;" x1="103.838" y1="365.948" x2="135.113" y2="365.948"/>
	<path style="fill:#E5E5E5;stroke:#000000;stroke-width:20;stroke-linecap:round;stroke-linejoin:round;stroke-miterlimit:10;" d="
		M103.838,408.951v25.412c0,8.636,7.001,15.638,15.638,15.638c8.636,0,15.638-7.001,15.638-15.638v-25.412H103.838z"/>
	<path style="fill:#E5E5E5;stroke:#000000;stroke-width:20;stroke-linecap:round;stroke-linejoin:round;stroke-miterlimit:10;" d="
		M119.475,244.757c7.801,0,15.062,2.294,21.163,6.231l-5.33-211.668L119.475,10l-15.833,29.32l-5.33,211.668
		C104.413,247.051,111.674,244.757,119.475,244.757z"/>
	<path style="fill:none;stroke:#000000;stroke-width:20;stroke-linecap:round;stroke-linejoin:round;stroke-miterlimit:10;" d="
		M14.006,193.043c10.751,0,19.547,8.796,19.547,19.547v32.168c0,21.502,17.592,39.094,39.094,39.094h7.734"/>
	<path style="fill:none;stroke:#000000;stroke-width:20;stroke-linecap:round;stroke-linejoin:round;stroke-miterlimit:10;" d="
		M158.569,283.851h7.734c21.502,0,39.094-17.592,39.094-39.094V212.59c0-10.751,8.796-19.547,19.547-19.547"/>
	
		<circle style="fill:#FFFFFF;stroke:#000000;stroke-width:20;stroke-linecap:round;stroke-linejoin:round;stroke-miterlimit:10;" cx="119.475" cy="283.851" r="39.094"/>
	<path style="fill:#FFFFFF;stroke:#000000;stroke-width:20;stroke-linecap:round;stroke-linejoin:round;stroke-miterlimit:10;" d="
		M119.475,293.625c-5.389,0-9.773-4.384-9.773-9.773s4.384-9.773,9.773-9.773c5.389,0,9.773,4.384,9.773,9.773
		S124.864,293.625,119.475,293.625z"/>
	<path style="fill:#FF0000;stroke:#000000;stroke-width:20;stroke-linecap:round;stroke-linejoin:round;stroke-miterlimit:10;" d="
		M340.525,137.055c5.562,0,10.848,1.169,15.638,3.262V51.049h-31.275v89.268C329.677,138.224,334.963,137.055,340.525,137.055z"/>
	
		<line style="fill:none;stroke:#000000;stroke-width:20;stroke-linecap:round;stroke-linejoin:round;stroke-miterlimit:10;" x1="356.162" y1="94.052" x2="324.887" y2="94.052"/>
	<path style="fill:#E5E5E5;stroke:#000000;stroke-width:20;stroke-linecap:round;stroke-linejoin:round;stroke-miterlimit:10;" d="
		M356.162,51.049V25.638c0-8.636-7.001-15.638-15.638-15.638c-8.636,0-15.638,7.001-15.638,15.638v25.412H356.162z"/>
	<path style="fill:#E5E5E5;stroke:#000000;stroke-width:20;stroke-linecap:round;stroke-linejoin:round;stroke-miterlimit:10;" d="
		M340.525,215.243c-7.801,0-15.062-2.294-21.163-6.231l5.33,211.668L340.525,450l15.833-29.32l5.33-211.668
		C355.587,212.949,348.326,215.243,340.525,215.243z"/>
	<path style="fill:none;stroke:#000000;stroke-width:20;stroke-linecap:round;stroke-linejoin:round;stroke-miterlimit:10;" d="
		M445.994,266.957c-10.751,0-19.547-8.796-19.547-19.547v-32.168c0-21.502-17.592-39.094-39.094-39.094h-7.734"/>
	<path style="fill:none;stroke:#000000;stroke-width:20;stroke-linecap:round;stroke-linejoin:round;stroke-miterlimit:10;" d="
		M301.431,176.149h-7.734c-21.502,0-39.094,17.592-39.094,39.094v32.168c0,10.751-8.796,19.547-19.547,19.547"/>
	
		<circle style="fill:#FFFFFF;stroke:#000000;stroke-width:20;stroke-linecap:round;stroke-linejoin:round;stroke-miterlimit:10;" cx="340.525" cy="176.149" r="39.094"/>
	<path style="fill:#FFFFFF;stroke:#000000;stroke-width:20;stroke-linecap:round;stroke-linejoin:round;stroke-miterlimit:10;" d="
		M340.525,166.375c5.389,0,9.773,4.384,9.773,9.773s-4.384,9.773-9.773,9.773s-9.773-4.384-9.773-9.773
		S335.136,166.375,340.525,166.375z"/>
</g>
<g>
</g>
<g>
</g>
<g>
</g>
<g>
</g>
<g>
</g>
<g>
</g>
<g>
</g>
<g>
</g>
<g>
</g>
<g>
</g>
<g>
</g>
<g>
</g>
<g>
</g>
<g>
</g>
<g>
</g>
</svg>
