<?xml version="1.0" encoding="iso-8859-1"?>
<!-- Generator: Adobe Illustrator 17.1.0, SVG Export Plug-In . SVG Version: 6.00 Build 0)  -->
<!DOCTYPE svg PUBLIC "-//W3C//DTD SVG 1.1//EN" "http://www.w3.org/Graphics/SVG/1.1/DTD/svg11.dtd">
<svg version="1.1" id="Capa_1" xmlns="http://www.w3.org/2000/svg" xmlns:xlink="http://www.w3.org/1999/xlink" x="0px" y="0px"
	 viewBox="0 0 460 460" style="enable-background:new 0 0 460 460;" xml:space="preserve">
<g>
	
		<circle style="fill:none;stroke:#000000;stroke-width:20;stroke-linecap:round;stroke-linejoin:round;stroke-miterlimit:10;" cx="426.114" cy="176.356" r="0.513"/>
	
		<circle style="fill:none;stroke:#000000;stroke-width:20;stroke-linecap:round;stroke-linejoin:round;stroke-miterlimit:10;" cx="447.522" cy="153.207" r="0.513"/>
	
		<circle style="fill:none;stroke:#000000;stroke-width:20;stroke-linecap:round;stroke-linejoin:round;stroke-miterlimit:10;" cx="449.487" cy="122.528" r="0.513"/>
	
		<circle style="fill:none;stroke:#000000;stroke-width:20;stroke-linecap:round;stroke-linejoin:round;stroke-miterlimit:10;" cx="383.286" cy="54.327" r="0.513"/>
	
		<circle style="fill:none;stroke:#000000;stroke-width:20;stroke-linecap:round;stroke-linejoin:round;stroke-miterlimit:10;" cx="405.673" cy="76.714" r="0.513"/>
	
		<circle style="fill:none;stroke:#000000;stroke-width:20;stroke-linecap:round;stroke-linejoin:round;stroke-miterlimit:10;" cx="428.062" cy="99.104" r="0.513"/>
	<path d="M448.464,153.922l-1.233-0.711L448.464,153.922z"/>
	
		<circle style="fill:none;stroke:#000000;stroke-width:20;stroke-linecap:round;stroke-linejoin:round;stroke-miterlimit:10;" cx="283.644" cy="33.886" r="0.513"/>
	
		<circle style="fill:none;stroke:#000000;stroke-width:20;stroke-linecap:round;stroke-linejoin:round;stroke-miterlimit:10;" cx="306.793" cy="12.478" r="0.513"/>
	
		<circle style="fill:none;stroke:#000000;stroke-width:20;stroke-linecap:round;stroke-linejoin:round;stroke-miterlimit:10;" cx="337.472" cy="10.513" r="0.513"/>
	
		<circle style="fill:none;stroke:#000000;stroke-width:20;stroke-linecap:round;stroke-linejoin:round;stroke-miterlimit:10;" cx="360.896" cy="31.938" r="0.513"/>
	<path style="fill:#CAA76A;stroke:#000000;stroke-width:20;stroke-linecap:round;stroke-linejoin:round;stroke-miterlimit:10;" d="
		M309.414,248.59L158.779,399.224c-23.118,23.118,21.165,67.401,44.283,44.283l150.635-150.635L309.414,248.59z"/>
	
		<polygon style="fill:#E5E5E5;stroke:#000000;stroke-width:20;stroke-linecap:round;stroke-linejoin:round;stroke-miterlimit:10;" points="
		275.907,70.844 246.869,41.806 218.307,70.368 210.685,62.746 167.128,106.302 211.411,150.586 254.968,107.029 247.345,99.406 	
		"/>
	<path style="fill:#CAA76A;stroke:#000000;stroke-width:20;stroke-linecap:round;stroke-linejoin:round;stroke-miterlimit:10;" d="
		M167.128,106.302L16.492,256.938c-23.118,23.117,21.165,67.4,44.283,44.283l150.635-150.636L167.128,106.302z"/>
	
		<polygon style="fill:#E5E5E5;stroke:#000000;stroke-width:20;stroke-linecap:round;stroke-linejoin:round;stroke-miterlimit:10;" points="
		418.194,213.131 389.156,184.092 360.594,212.655 352.971,205.032 309.414,248.59 353.697,292.873 397.254,249.315 
		389.632,241.693 	"/>
	
		<line style="fill:none;stroke:#000000;stroke-width:20;stroke-linecap:round;stroke-linejoin:round;stroke-miterlimit:10;" x1="218.307" y1="70.368" x2="225.567" y2="77.628"/>
	
		<line style="fill:none;stroke:#000000;stroke-width:20;stroke-linecap:round;stroke-linejoin:round;stroke-miterlimit:10;" x1="389.632" y1="241.693" x2="382.372" y2="234.433"/>
</g>
<g>
</g>
<g>
</g>
<g>
</g>
<g>
</g>
<g>
</g>
<g>
</g>
<g>
</g>
<g>
</g>
<g>
</g>
<g>
</g>
<g>
</g>
<g>
</g>
<g>
</g>
<g>
</g>
<g>
</g>
</svg>
