<?xml version="1.0" encoding="iso-8859-1"?>
<!-- Generator: Adobe Illustrator 17.1.0, SVG Export Plug-In . SVG Version: 6.00 Build 0)  -->
<!DOCTYPE svg PUBLIC "-//W3C//DTD SVG 1.1//EN" "http://www.w3.org/Graphics/SVG/1.1/DTD/svg11.dtd">
<svg version="1.1" id="Capa_1" xmlns="http://www.w3.org/2000/svg" xmlns:xlink="http://www.w3.org/1999/xlink" x="0px" y="0px"
	 viewBox="0 0 470.198 470.198" style="enable-background:new 0 0 470.198 470.198;" xml:space="preserve">
<g>
	
		<polygon style="fill:#DE021B;stroke:#000000;stroke-width:20;stroke-linecap:round;stroke-linejoin:round;stroke-miterlimit:10;" points="
		147.43,412.04 143.666,290.198 100.359,290.198 96.595,412.04 	"/>
	<path style="fill:#A66C07;stroke:#000000;stroke-width:20;stroke-linecap:round;stroke-linejoin:round;stroke-miterlimit:10;" d="
		M148.666,452.041l-1.236-40H96.595l-1.236,40C95.359,462.918,148.666,462.918,148.666,452.041z"/>
	
		<polyline style="fill:#E5E5E5;stroke:#000000;stroke-width:20;stroke-linecap:round;stroke-linejoin:round;stroke-miterlimit:10;" points="
		143.666,290.198 138.212,40 122.012,10 105.812,40 100.359,290.198 	"/>
	<path style="fill:none;stroke:#000000;stroke-width:20;stroke-linecap:round;stroke-linejoin:round;stroke-miterlimit:10;" d="
		M34.099,197.285v52.913c0,22,18,40,40,40h95.827c22,0,40-18,40-40v-52.913"/>
	
		<line style="fill:none;stroke:#000000;stroke-width:20;stroke-linecap:round;stroke-linejoin:round;stroke-miterlimit:10;" x1="136.175" y1="371.426" x2="146.175" y2="371.426"/>
	
		<line style="fill:none;stroke:#000000;stroke-width:20;stroke-linecap:round;stroke-linejoin:round;stroke-miterlimit:10;" x1="134.921" y1="330.812" x2="144.921" y2="330.812"/>
	
		<polygon style="fill:#DE021B;stroke:#000000;stroke-width:20;stroke-linecap:round;stroke-linejoin:round;stroke-miterlimit:10;" points="
		322.768,58.158 326.532,180 369.839,180 373.604,58.158 	"/>
	<path style="fill:#A66C07;stroke:#000000;stroke-width:20;stroke-linecap:round;stroke-linejoin:round;stroke-miterlimit:10;" d="
		M321.532,18.158l1.236,40h50.835l1.236-40C374.839,7.281,321.532,7.281,321.532,18.158z"/>
	
		<polyline style="fill:#E5E5E5;stroke:#000000;stroke-width:20;stroke-linecap:round;stroke-linejoin:round;stroke-miterlimit:10;" points="
		326.533,180 331.986,430.198 348.186,460.198 364.386,430.198 369.839,180 	"/>
	<path style="fill:none;stroke:#000000;stroke-width:20;stroke-linecap:round;stroke-linejoin:round;stroke-miterlimit:10;" d="
		M436.099,272.913V220c0-22-18-40-40-40h-95.827c-22,0-40,18-40,40v52.913"/>
	
		<line style="fill:none;stroke:#000000;stroke-width:20;stroke-linecap:round;stroke-linejoin:round;stroke-miterlimit:10;" x1="334.023" y1="98.772" x2="324.023" y2="98.772"/>
	
		<line style="fill:none;stroke:#000000;stroke-width:20;stroke-linecap:round;stroke-linejoin:round;stroke-miterlimit:10;" x1="335.277" y1="139.386" x2="325.277" y2="139.386"/>
</g>
<g>
</g>
<g>
</g>
<g>
</g>
<g>
</g>
<g>
</g>
<g>
</g>
<g>
</g>
<g>
</g>
<g>
</g>
<g>
</g>
<g>
</g>
<g>
</g>
<g>
</g>
<g>
</g>
<g>
</g>
</svg>
