<?xml version="1.0" encoding="iso-8859-1"?>
<!-- Generator: Adobe Illustrator 17.1.0, SVG Export Plug-In . SVG Version: 6.00 Build 0)  -->
<!DOCTYPE svg PUBLIC "-//W3C//DTD SVG 1.1//EN" "http://www.w3.org/Graphics/SVG/1.1/DTD/svg11.dtd">
<svg version="1.1" id="Capa_1" xmlns="http://www.w3.org/2000/svg" xmlns:xlink="http://www.w3.org/1999/xlink" x="0px" y="0px"
	 viewBox="0 0 460 460" style="enable-background:new 0 0 460 460;" xml:space="preserve">
<g>
	<path style="fill:#E5E5E5;stroke:#000000;stroke-width:20;stroke-linecap:round;stroke-linejoin:round;stroke-miterlimit:10;" d="
		M20.162,109.522c-13.55,0-13.55,49.068,0,49.068H39.79v-49.068H20.162z"/>
	
		<rect x="98.672" y="109.522" style="fill:#E5E5E5;stroke:#000000;stroke-width:20;stroke-linecap:round;stroke-linejoin:round;stroke-miterlimit:10;" width="127.577" height="117.764"/>
	
		<rect x="285.131" y="188.031" style="fill:#E5E5E5;stroke:#000000;stroke-width:20;stroke-linecap:round;stroke-linejoin:round;stroke-miterlimit:10;" width="82.435" height="39.255"/>
	
		<rect x="285.131" y="109.522" style="fill:#E5E5E5;stroke:#000000;stroke-width:20;stroke-linecap:round;stroke-linejoin:round;stroke-miterlimit:10;" width="164.869" height="49.068"/>
	<g>
		<path style="fill:#E5E5E5;" d="M226.249,295.795c0,5.5,4.5,10,10,10h38.882c5.5,0,10-4.5,10-10v-195.9c0-5.5-4.5-10-10-10h-38.882
			c-5.5,0-10,4.5-10,10V295.795z"/>
		<path style="fill:none;stroke:#000000;stroke-width:20;stroke-linecap:round;stroke-linejoin:round;stroke-miterlimit:10;" d="
			M226.249,295.795c0,5.5,4.5,10,10,10h38.882c5.5,0,10-4.5,10-10v-195.9c0-5.5-4.5-10-10-10h-38.882c-5.5,0-10,4.5-10,10V295.795z"
			/>
	</g>
	<g>
		<path style="fill:#E5E5E5;" d="M39.79,236.913c0,5.5,4.5,10,10,10h38.882c5.5,0,10-4.5,10-10V99.895c0-5.5-4.5-10-10-10H49.79
			c-5.5,0-10,4.5-10,10V236.913z"/>
		<path style="fill:none;stroke:#000000;stroke-width:20;stroke-linecap:round;stroke-linejoin:round;stroke-miterlimit:10;" d="
			M39.79,236.913c0,5.5,4.5,10,10,10h38.882c5.5,0,10-4.5,10-10V99.895c0-5.5-4.5-10-10-10H49.79c-5.5,0-10,4.5-10,10V236.913z"/>
	</g>
	
		<line style="fill:none;stroke:#000000;stroke-width:20;stroke-linecap:round;stroke-linejoin:round;stroke-miterlimit:10;" x1="285.131" y1="119.336" x2="226.249" y2="119.336"/>
	
		<line style="fill:none;stroke:#000000;stroke-width:20;stroke-linecap:round;stroke-linejoin:round;stroke-miterlimit:10;" x1="285.131" y1="148.777" x2="226.249" y2="148.777"/>
	
		<line style="fill:none;stroke:#000000;stroke-width:20;stroke-linecap:round;stroke-linejoin:round;stroke-miterlimit:10;" x1="285.131" y1="178.218" x2="226.249" y2="178.218"/>
	
		<line style="fill:none;stroke:#000000;stroke-width:20;stroke-linecap:round;stroke-linejoin:round;stroke-miterlimit:10;" x1="285.131" y1="207.659" x2="226.249" y2="207.659"/>
	<path style="fill:#E5E5E5;stroke:#000000;stroke-width:20;stroke-linecap:round;stroke-linejoin:round;stroke-miterlimit:10;" d="
		M107.244,370.105l-30.919-50.111c32.427-20.008,51.787-54.666,51.787-92.708h58.882c0,29.127-7.591,57.829-21.953,83.005
		C151.131,334.674,131.146,355.357,107.244,370.105z"/>
	
		<rect x="98.672" y="158.59" style="fill:#09D6DE;stroke:#000000;stroke-width:20;stroke-linecap:round;stroke-linejoin:round;stroke-miterlimit:10;" width="127.577" height="29.441"/>
</g>
<g>
</g>
<g>
</g>
<g>
</g>
<g>
</g>
<g>
</g>
<g>
</g>
<g>
</g>
<g>
</g>
<g>
</g>
<g>
</g>
<g>
</g>
<g>
</g>
<g>
</g>
<g>
</g>
<g>
</g>
</svg>
