<?xml version="1.0" encoding="iso-8859-1"?>
<!-- Generator: Adobe Illustrator 17.1.0, SVG Export Plug-In . SVG Version: 6.00 Build 0)  -->
<!DOCTYPE svg PUBLIC "-//W3C//DTD SVG 1.1//EN" "http://www.w3.org/Graphics/SVG/1.1/DTD/svg11.dtd">
<svg version="1.1" id="Capa_1" xmlns="http://www.w3.org/2000/svg" xmlns:xlink="http://www.w3.org/1999/xlink" x="0px" y="0px"
	 viewBox="0 0 460 460" style="enable-background:new 0 0 460 460;" xml:space="preserve">
<g>
	
		<rect x="346.891" y="119.775" style="fill:#09D6DE;stroke:#000000;stroke-width:20;stroke-linecap:round;stroke-linejoin:round;stroke-miterlimit:10;" width="93.382" height="68.091"/>
	<path style="fill:#666666;stroke:#000000;stroke-width:20;stroke-linecap:round;stroke-linejoin:round;stroke-miterlimit:10;" d="
		M20.073,138.257c-13.431,0-13.431,97.273,0,97.273h19.455v-97.273H20.073z"/>
	
		<rect x="226.273" y="138.257" style="fill:#666666;stroke:#000000;stroke-width:20;stroke-linecap:round;stroke-linejoin:round;stroke-miterlimit:10;" width="89.491" height="97.273"/>
	<path style="fill:#666666;stroke:#000000;stroke-width:20;stroke-linecap:round;stroke-linejoin:round;stroke-miterlimit:10;" d="
		M99.819,235.529c0,30.91-15.736,59.073-42.092,75.336l28.042,28.042c33.326-23.93,52.96-61.936,52.96-103.378H99.819z"/>
	<path style="fill:#A54FE8;stroke:#000000;stroke-width:20;stroke-linecap:round;stroke-linejoin:round;stroke-miterlimit:10;" d="
		M138.728,235.529c0,13.455-2.082,26.543-6.018,38.909h29.994c3.434-12.622,5.205-25.741,5.205-38.909H138.728z"/>
	<path style="fill:none;stroke:#000000;stroke-width:20;stroke-linecap:round;stroke-linejoin:round;stroke-miterlimit:10;" d="
		M240.864,235.529c-13.255,71.073-84.022,116.633-155.096,103.378l-37.257-37.258"/>
	
		<rect x="39.527" y="138.257" style="fill:#09D6DE;stroke:#000000;stroke-width:20;stroke-linecap:round;stroke-linejoin:round;stroke-miterlimit:10;" width="155.618" height="97.273"/>
	<path style="fill:#666666;stroke:#000000;stroke-width:20;stroke-linecap:round;stroke-linejoin:round;stroke-miterlimit:10;" d="
		M315.764,235.529c0,5.35,4.377,9.727,9.727,9.727h11.673c5.35,0,9.727-4.377,9.727-9.727v-107c0-5.35-4.377-9.727-9.727-9.727
		h-11.673c-5.35,0-9.727,4.377-9.727,9.727V235.529z"/>
	<path style="fill:#666666;" d="M255.455,191.757v82.682c0,5.35,4.377,9.727,9.727,9.727h11.673c5.35,0,9.727-4.377,9.727-9.727
		v-82.682"/>
	<path style="fill:#09D6DE;stroke:#000000;stroke-width:20;stroke-linecap:round;stroke-linejoin:round;stroke-miterlimit:10;" d="
		M255.455,191.757v82.682c0,5.35,4.377,9.727,9.727,9.727h11.673c5.35,0,9.727-4.377,9.727-9.727v-82.682H255.455z"/>
	
		<line style="fill:none;stroke:#000000;stroke-width:20;stroke-linecap:round;stroke-linejoin:round;stroke-miterlimit:10;" x1="315.764" y1="191.757" x2="226.273" y2="191.757"/>
	<path style="fill:#666666;stroke:#000000;stroke-width:20;stroke-linecap:round;stroke-linejoin:round;stroke-miterlimit:10;" d="
		M195.146,235.529c0,5.35,4.377,9.727,9.727,9.727h11.673c5.35,0,9.727-4.377,9.727-9.727v-107c0-5.35-4.377-9.727-9.727-9.727
		h-11.673c-5.35,0-9.727,4.377-9.727,9.727V235.529z"/>
	
		<line style="fill:none;stroke:#000000;stroke-width:20;stroke-linecap:round;stroke-linejoin:round;stroke-miterlimit:10;" x1="408.173" y1="235.529" x2="346.891" y2="235.529"/>
	
		<line style="fill:none;stroke:#000000;stroke-width:20;stroke-linecap:round;stroke-linejoin:round;stroke-miterlimit:10;" x1="346.891" y1="153.82" x2="450" y2="153.82"/>
</g>
<g>
</g>
<g>
</g>
<g>
</g>
<g>
</g>
<g>
</g>
<g>
</g>
<g>
</g>
<g>
</g>
<g>
</g>
<g>
</g>
<g>
</g>
<g>
</g>
<g>
</g>
<g>
</g>
<g>
</g>
</svg>
