<?xml version="1.0" encoding="iso-8859-1"?>
<!-- Generator: Adobe Illustrator 17.1.0, SVG Export Plug-In . SVG Version: 6.00 Build 0)  -->
<!DOCTYPE svg PUBLIC "-//W3C//DTD SVG 1.1//EN" "http://www.w3.org/Graphics/SVG/1.1/DTD/svg11.dtd">
<svg version="1.1" id="Capa_1" xmlns="http://www.w3.org/2000/svg" xmlns:xlink="http://www.w3.org/1999/xlink" x="0px" y="0px"
	 viewBox="0 0 472 472" style="enable-background:new 0 0 472 472;" xml:space="preserve">
<g>
	<path style="fill:#FFBE99;stroke:#000000;stroke-width:20;stroke-linecap:round;stroke-linejoin:round;stroke-miterlimit:10;" d="
		M294.22,462v-61.076c22.535-17.424,37.049-44.719,37.049-75.408V213.89c0-12.423-10.071-22.494-22.494-22.494
		c-12.423,0-22.494,10.071-22.494,22.494v-21.171c0-12.423-10.071-22.494-22.494-22.494c-12.423,0-22.494,10.071-22.494,22.494
		c0-12.423-10.071-22.494-22.494-22.494s-22.494,10.071-22.494,22.494c0-12.423-10.071-22.494-22.494-22.494
		s-22.494,10.071-22.494,22.494c0,0,0.108,59.841,0.265,60.912c-6.496,3.944-10.85,11.064-10.85,19.22v52.665
		c0,35.263,19.159,66.048,47.635,82.521V462"/>
	<path style="fill:none;stroke:#000000;stroke-width:20;stroke-linecap:round;stroke-linejoin:round;stroke-miterlimit:10;" d="
		M264.22,416.536c8.991-2.784,17.413-6.864,25.046-12.022c1.692-1.143,3.345-2.339,4.958-3.586"/>
	<path style="fill:none;stroke:#000000;stroke-width:20;stroke-linecap:round;stroke-linejoin:round;stroke-miterlimit:10;" d="
		M188.365,408.039c6.253,3.617,12.954,6.544,20.001,8.676"/>
	
		<line style="fill:none;stroke:#000000;stroke-width:20;stroke-linecap:round;stroke-linejoin:round;stroke-miterlimit:10;" x1="241.293" y1="192.719" x2="241.293" y2="10.883"/>
	<path style="fill:none;stroke:#000000;stroke-width:20;stroke-linecap:round;stroke-linejoin:round;stroke-miterlimit:10;" d="
		M196.304,10c-10.098,57.392-10.098,126.21,0,183.602"/>
	<path style="fill:none;stroke:#000000;stroke-width:20;stroke-linecap:round;stroke-linejoin:round;stroke-miterlimit:10;" d="
		M286.281,10c10.098,57.392,10.098,126.21,0,183.602"/>
	
		<line style="fill:none;stroke:#000000;stroke-width:20;stroke-linecap:round;stroke-linejoin:round;stroke-miterlimit:10;" x1="196.304" y1="192.719" x2="196.304" y2="250.357"/>
	
		<line style="fill:none;stroke:#000000;stroke-width:20;stroke-linecap:round;stroke-linejoin:round;stroke-miterlimit:10;" x1="286.281" y1="250.357" x2="286.281" y2="192.719"/>
	
		<line style="fill:none;stroke:#000000;stroke-width:20;stroke-linecap:round;stroke-linejoin:round;stroke-miterlimit:10;" x1="241.293" y1="192.719" x2="241.293" y2="250.357"/>
	<path style="fill:none;stroke:#000000;stroke-width:20;stroke-linecap:round;stroke-linejoin:round;stroke-miterlimit:10;" d="
		M241.293,250.357c0,12.423,10.071,22.494,22.494,22.494c12.423,0,22.494-10.071,22.494-22.494
		c0,12.423,10.071,22.494,22.494,22.494s22.494-10.071,22.494-22.494"/>
	<path style="fill:none;stroke:#000000;stroke-width:20;stroke-linecap:round;stroke-linejoin:round;stroke-miterlimit:10;" d="
		M151.567,253.609c3.4-2.064,7.39-3.252,11.657-3.252h57.638c12.423,0,22.494,10.071,22.494,22.494s-10.071,22.494-22.494,22.494
		h-35.143l0,35.463l49.254,21.171"/>
</g>
<g>
</g>
<g>
</g>
<g>
</g>
<g>
</g>
<g>
</g>
<g>
</g>
<g>
</g>
<g>
</g>
<g>
</g>
<g>
</g>
<g>
</g>
<g>
</g>
<g>
</g>
<g>
</g>
<g>
</g>
</svg>
