<?xml version="1.0" encoding="iso-8859-1"?>
<!-- Generator: Adobe Illustrator 17.1.0, SVG Export Plug-In . SVG Version: 6.00 Build 0)  -->
<!DOCTYPE svg PUBLIC "-//W3C//DTD SVG 1.1//EN" "http://www.w3.org/Graphics/SVG/1.1/DTD/svg11.dtd">
<svg version="1.1" id="Capa_1" xmlns="http://www.w3.org/2000/svg" xmlns:xlink="http://www.w3.org/1999/xlink" x="0px" y="0px"
	 viewBox="0 0 460 460" style="enable-background:new 0 0 460 460;" xml:space="preserve">
<g>
	
		<polyline style="fill:#CCCCCC;stroke:#000000;stroke-width:20;stroke-linecap:round;stroke-linejoin:round;stroke-miterlimit:10;" points="
		165.336,303.75 146.144,349.848 246.295,450 291.998,430.413 	"/>
	
		<polygon style="fill:#CCCCCC;stroke:#000000;stroke-width:20;stroke-linecap:round;stroke-linejoin:round;stroke-miterlimit:10;" points="
		349.848,146.144 450,246.295 430.413,291.998 303.75,165.336 	"/>
	
		<polyline style="fill:#E5E5E5;stroke:#000000;stroke-width:20;stroke-linecap:round;stroke-linejoin:round;stroke-miterlimit:10;" points="
		197.981,336.395 165.336,303.75 303.75,165.336 430.413,291.998 291.998,430.413 220.179,358.594 	"/>
	
		<circle style="fill:none;stroke:#000000;stroke-width:20;stroke-linecap:round;stroke-linejoin:round;stroke-miterlimit:10;" cx="377.528" cy="291.998" r="0.462"/>
	
		<circle style="fill:none;stroke:#000000;stroke-width:20;stroke-linecap:round;stroke-linejoin:round;stroke-miterlimit:10;" cx="331.825" cy="285.469" r="0.462"/>
	
		<rect x="357.149" y="325.755" transform="matrix(-0.7071 -0.7071 0.7071 -0.7071 370.9992 895.671)" style="fill:#CCCCCC;stroke:#000000;stroke-width:20;stroke-linecap:round;stroke-linejoin:round;stroke-miterlimit:10;" width="27.7" height="90.487"/>
	<path style="fill:#CAA76A;stroke:#000000;stroke-width:20;stroke-linecap:round;stroke-linejoin:round;stroke-miterlimit:10;" d="
		M254.13,214.956L131.676,92.502c-20.297-20.297-59.471,18.877-39.174,39.174L214.956,254.13L254.13,214.956z"/>
	<path style="fill:#E5E5E5;stroke:#000000;stroke-width:20;stroke-linecap:round;stroke-linejoin:round;stroke-miterlimit:10;" d="
		M66.386,105.56l26.116,26.116c-20.297-20.297,18.877-59.471,39.174-39.174L105.56,66.386
		C85.263,46.089,46.089,85.263,66.386,105.56z"/>
	<path style="fill:none;stroke:#000000;stroke-width:20;stroke-linecap:round;stroke-linejoin:round;stroke-miterlimit:10;" d="
		M179.845,219.019c-21.635-21.635-21.635-56.713,0-78.348"/>
	<path style="fill:none;stroke:#000000;stroke-width:20;stroke-linecap:round;stroke-linejoin:round;stroke-miterlimit:10;" d="
		M214.956,254.13c-21.635-21.635-21.635-56.713,0-78.348"/>
	<path style="fill:none;stroke:#000000;stroke-width:20;stroke-linecap:round;stroke-linejoin:round;stroke-miterlimit:10;" d="
		M144.734,183.908c-21.635-21.635-21.635-56.713,0-78.348"/>
	<path style="fill:none;stroke:#000000;stroke-width:20;stroke-linecap:round;stroke-linejoin:round;stroke-miterlimit:10;" d="
		M70.75,70.75c0,0-81.052-30.778-55.915-55.915S70.75,70.75,70.75,70.75z"/>
</g>
<g>
</g>
<g>
</g>
<g>
</g>
<g>
</g>
<g>
</g>
<g>
</g>
<g>
</g>
<g>
</g>
<g>
</g>
<g>
</g>
<g>
</g>
<g>
</g>
<g>
</g>
<g>
</g>
<g>
</g>
</svg>
