<?xml version="1.0" encoding="iso-8859-1"?>
<!-- Generator: Adobe Illustrator 17.1.0, SVG Export Plug-In . SVG Version: 6.00 Build 0)  -->
<!DOCTYPE svg PUBLIC "-//W3C//DTD SVG 1.1//EN" "http://www.w3.org/Graphics/SVG/1.1/DTD/svg11.dtd">
<svg version="1.1" id="Capa_1" xmlns="http://www.w3.org/2000/svg" xmlns:xlink="http://www.w3.org/1999/xlink" x="0px" y="0px"
	 viewBox="0 0 460 460" style="enable-background:new 0 0 460 460;" xml:space="preserve">
<g>
	
		<circle style="fill:#F8A71B;stroke:#000000;stroke-width:20;stroke-linecap:round;stroke-linejoin:round;stroke-miterlimit:10;" cx="230" cy="230" r="220"/>
	
		<circle style="fill:#F37D22;stroke:#000000;stroke-width:20;stroke-linecap:round;stroke-linejoin:round;stroke-miterlimit:10;" cx="230" cy="379.1" r="39.621"/>
	
		<circle style="fill:#F37D22;stroke:#000000;stroke-width:20;stroke-linecap:round;stroke-linejoin:round;stroke-miterlimit:10;" cx="365.626" cy="291.938" r="39.621"/>
	
		<circle style="fill:#F37D22;stroke:#000000;stroke-width:20;stroke-linecap:round;stroke-linejoin:round;stroke-miterlimit:10;" cx="377.582" cy="208.781" r="39.621"/>
	
		<circle style="fill:#F37D22;stroke:#000000;stroke-width:20;stroke-linecap:round;stroke-linejoin:round;stroke-miterlimit:10;" cx="342.682" cy="132.361" r="39.621"/>
	
		<circle style="fill:#F37D22;stroke:#000000;stroke-width:20;stroke-linecap:round;stroke-linejoin:round;stroke-miterlimit:10;" cx="187.994" cy="86.94" r="39.621"/>
	
		<circle style="fill:#F37D22;stroke:#000000;stroke-width:20;stroke-linecap:round;stroke-linejoin:round;stroke-miterlimit:10;" cx="117.318" cy="132.361" r="39.621"/>
	
		<circle style="fill:#F37D22;stroke:#000000;stroke-width:20;stroke-linecap:round;stroke-linejoin:round;stroke-miterlimit:10;" cx="94.374" cy="291.938" r="39.621"/>
	
		<circle style="fill:#F37D22;stroke:#000000;stroke-width:20;stroke-linecap:round;stroke-linejoin:round;stroke-miterlimit:10;" cx="149.391" cy="355.43" r="39.621"/>
	<path style="fill:#F8A71B;stroke:#000000;stroke-width:20;stroke-linecap:round;stroke-linejoin:round;stroke-miterlimit:10;" d="
		M230,339.479c-60.367,0-109.479-49.112-109.479-109.479S169.633,120.521,230,120.521S339.479,169.633,339.479,230
		S290.367,339.479,230,339.479z"/>
	<path style="fill:#FFFFFF;stroke:#000000;stroke-width:20;stroke-linecap:round;stroke-linejoin:round;stroke-miterlimit:10;" d="
		M120.521,230c28.607,26.895,67.115,43.38,109.479,43.38s80.872-16.484,109.479-43.38c-28.607-26.896-67.115-43.38-109.479-43.38
		S149.128,203.104,120.521,230z"/>
	
		<circle style="fill:#FF0000;stroke:#000000;stroke-width:20;stroke-linecap:round;stroke-linejoin:round;stroke-miterlimit:10;" cx="230" cy="230" r="43.38"/>
	<path style="stroke:#000000;stroke-width:20;stroke-linecap:round;stroke-linejoin:round;stroke-miterlimit:10;" d="M230,240.536
		c-5.81,0-10.536-4.727-10.536-10.536s4.727-10.536,10.536-10.536s10.536,4.727,10.536,10.536S235.81,240.536,230,240.536z"/>
	<path style="fill:#F37D22;stroke:#000000;stroke-width:20;stroke-linecap:round;stroke-linejoin:round;stroke-miterlimit:10;" d="
		M348.194,367.948c3.649-10.978,2.488-23.448-4.253-33.938c-11.83-18.408-36.343-23.741-54.752-11.911
		c-18.408,11.83-23.741,36.344-11.911,54.752c10.004,15.567,29.077,21.78,45.859,16.174"/>
	<path style="fill:#F37D22;stroke:#000000;stroke-width:20;stroke-linecap:round;stroke-linejoin:round;stroke-miterlimit:10;" d="
		M284.521,49.359c-0.448-0.149-0.895-0.3-1.352-0.435c-20.996-6.165-43.014,5.858-49.178,26.853
		c-6.165,20.996,5.858,43.014,26.853,49.178c20.996,6.165,43.014-5.858,49.178-26.853c2.367-8.062,2.044-16.272-0.431-23.68"/>
	<path style="fill:#F37D22;stroke:#000000;stroke-width:20;stroke-linecap:round;stroke-linejoin:round;stroke-miterlimit:10;" d="
		M46.99,226.506c5.619,11.205,16.442,19.573,29.79,21.493c21.659,3.114,41.742-11.92,44.856-33.579
		c3.114-21.659-11.92-41.742-33.579-44.856c-17.333-2.492-33.648,6.645-41.073,21.493"/>
</g>
<g>
</g>
<g>
</g>
<g>
</g>
<g>
</g>
<g>
</g>
<g>
</g>
<g>
</g>
<g>
</g>
<g>
</g>
<g>
</g>
<g>
</g>
<g>
</g>
<g>
</g>
<g>
</g>
<g>
</g>
</svg>
