<?xml version="1.0" encoding="iso-8859-1"?>
<!-- Generator: Adobe Illustrator 17.1.0, SVG Export Plug-In . SVG Version: 6.00 Build 0)  -->
<!DOCTYPE svg PUBLIC "-//W3C//DTD SVG 1.1//EN" "http://www.w3.org/Graphics/SVG/1.1/DTD/svg11.dtd">
<svg version="1.1" id="Capa_1" xmlns="http://www.w3.org/2000/svg" xmlns:xlink="http://www.w3.org/1999/xlink" x="0px" y="0px"
	 viewBox="0 0 460 460" style="enable-background:new 0 0 460 460;" xml:space="preserve">
<g>
	<path style="fill:#70AD46;stroke:#000000;stroke-width:20;stroke-linecap:round;stroke-linejoin:round;stroke-miterlimit:10;" d="
		M230,204.394c-121.503,0-220-35.452-220-79.184l0,0c0,0,0,83.488,0,127.22c0,43.733,98.497,79.184,220,79.184
		s220-35.452,220-79.184c0-43.732,0-127.22,0-127.22l0,0C450,168.942,351.503,204.394,230,204.394z"/>
	<path style="fill:#A1CE57;stroke:#000000;stroke-width:20;stroke-linecap:round;stroke-linejoin:round;stroke-miterlimit:10;" d="
		M230,46.025c-121.503,0-220,35.453-220,79.185c0,43.732,98.497,79.184,220,79.184s220-35.452,220-79.184
		C450,81.477,351.503,46.025,230,46.025z M362.167,150.538C325.788,161.734,278.85,167.901,230,167.901
		s-95.788-6.166-132.167-17.362c-52.262-16.085-52.262-34.573,0-50.658C134.212,88.684,181.15,82.518,230,82.518
		s95.788,6.166,132.167,17.363C414.429,115.965,414.429,134.453,362.167,150.538z"/>
	<path style="fill:#70AD46;stroke:#000000;stroke-width:20;stroke-linecap:round;stroke-linejoin:round;stroke-miterlimit:10;" d="
		M230,413.975c-80.489,0-145.972-65.483-145.972-145.972S149.511,122.032,230,122.032s145.972,65.483,145.972,145.972
		S310.489,413.975,230,413.975z"/>
	<path style="fill:#A1CE57;stroke:#000000;stroke-width:20;stroke-linecap:round;stroke-linejoin:round;stroke-miterlimit:10;" d="
		M318.927,331.864c12.931-17.975,20.551-40.026,20.551-63.86c0-60.463-49.015-109.479-109.479-109.479
		c-60.464,0-109.479,49.015-109.479,109.479c0,60.463,49.015,109.479,109.479,109.479c23.834,0,45.885-7.62,63.86-20.551"/>
	<path style="fill:none;stroke:#000000;stroke-width:20;stroke-linecap:round;stroke-linejoin:round;stroke-miterlimit:10;" d="
		M230,315.966c-26.447,0-47.962-21.516-47.962-47.962s21.515-47.962,47.962-47.962s47.962,21.516,47.962,47.962
		S256.447,315.966,230,315.966z"/>
	
		<line style="fill:none;stroke:#000000;stroke-width:20;stroke-linecap:round;stroke-linejoin:round;stroke-miterlimit:10;" x1="176.825" y1="326.392" x2="283.175" y2="326.392"/>
	
		<line style="fill:none;stroke:#000000;stroke-width:20;stroke-linecap:round;stroke-linejoin:round;stroke-miterlimit:10;" x1="176.825" y1="209.615" x2="283.175" y2="209.615"/>
</g>
<g>
</g>
<g>
</g>
<g>
</g>
<g>
</g>
<g>
</g>
<g>
</g>
<g>
</g>
<g>
</g>
<g>
</g>
<g>
</g>
<g>
</g>
<g>
</g>
<g>
</g>
<g>
</g>
<g>
</g>
</svg>
