<?xml version="1.0" encoding="iso-8859-1"?>
<!-- Generator: Adobe Illustrator 17.1.0, SVG Export Plug-In . SVG Version: 6.00 Build 0)  -->
<!DOCTYPE svg PUBLIC "-//W3C//DTD SVG 1.1//EN" "http://www.w3.org/Graphics/SVG/1.1/DTD/svg11.dtd">
<svg version="1.1" id="Capa_1" xmlns="http://www.w3.org/2000/svg" xmlns:xlink="http://www.w3.org/1999/xlink" x="0px" y="0px"
	 viewBox="0 0 460 460" style="enable-background:new 0 0 460 460;" xml:space="preserve">
<g>
	<path style="fill:#CCCCCC;stroke:#000000;stroke-width:20;stroke-linecap:round;stroke-linejoin:round;stroke-miterlimit:10;" d="
		M230,201.787c-121.503,0-220-35.452-220-79.184l0,0c0,0,0,83.488,0,127.22c0,43.733,98.497,79.184,220,79.184
		s220-35.452,220-79.184c0-43.732,0-127.22,0-127.22l0,0C450,166.335,351.503,201.787,230,201.787z"/>
	<path style="fill:#E5E5E5;stroke:#000000;stroke-width:20;stroke-linecap:round;stroke-linejoin:round;stroke-miterlimit:10;" d="
		M230,43.418c-121.503,0-220,35.453-220,79.185c0,43.732,98.497,79.184,220,79.184s220-35.452,220-79.184
		C450,78.871,351.503,43.418,230,43.418z M362.167,147.932C325.788,159.128,278.85,165.294,230,165.294
		s-95.788-6.166-132.167-17.362c-52.262-16.085-52.262-34.573,0-50.658C134.212,86.077,181.15,79.911,230,79.911
		s95.788,6.166,132.167,17.363C414.429,113.359,414.429,131.847,362.167,147.932z"/>
	<path style="fill:#CCCCCC;stroke:#000000;stroke-width:20;stroke-linecap:round;stroke-linejoin:round;stroke-miterlimit:10;" d="
		M84.028,174.579v181.636c0,80.489,291.943,80.489,291.943,0V174.579C375.972,94.09,84.028,94.09,84.028,174.579z"/>
	<path style="fill:#666666;stroke:#000000;stroke-width:20;stroke-linecap:round;stroke-linejoin:round;stroke-miterlimit:10;" d="
		M334.265,247.672v-69.697c-3.316-2.89-12.398-8.481-30.637-13.417c-20.587-5.572-46.735-8.641-73.629-8.641
		s-53.042,3.069-73.629,8.641c-18.238,4.936-27.32,10.526-30.637,13.417v174.844c3.316,2.89,12.398,8.481,30.637,13.417
		c20.587,5.572,46.735,8.64,73.629,8.64s53.042-3.068,73.629-8.64c18.238-4.936,27.32-10.526,30.637-13.417v-69.697"/>
	<path style="fill:#E5E5E5;stroke:#000000;stroke-width:20;stroke-linecap:round;stroke-linejoin:round;stroke-miterlimit:10;" d="
		M230,196.064c-45.702,0-66.822,39.526-61.847,82.124l22.524,8.619v47.922h78.645v-47.922l22.524-8.619
		C296.822,235.59,275.702,196.064,230,196.064z"/>
	
		<line style="fill:none;stroke:#000000;stroke-width:20;stroke-linecap:round;stroke-linejoin:round;stroke-miterlimit:10;" x1="216.892" y1="334.73" x2="216.892" y2="313.997"/>
	
		<line style="fill:none;stroke:#000000;stroke-width:20;stroke-linecap:round;stroke-linejoin:round;stroke-miterlimit:10;" x1="243.108" y1="334.73" x2="243.108" y2="313.997"/>
	
		<line style="fill:#E5E5E5;stroke:#000000;stroke-width:20;stroke-linecap:round;stroke-linejoin:round;stroke-miterlimit:10;" x1="200.663" y1="246.351" x2="208.135" y2="248.969"/>
	
		<line style="fill:#E5E5E5;stroke:#000000;stroke-width:20;stroke-linecap:round;stroke-linejoin:round;stroke-miterlimit:10;" x1="251.865" y1="248.969" x2="259.337" y2="246.351"/>
</g>
<g>
</g>
<g>
</g>
<g>
</g>
<g>
</g>
<g>
</g>
<g>
</g>
<g>
</g>
<g>
</g>
<g>
</g>
<g>
</g>
<g>
</g>
<g>
</g>
<g>
</g>
<g>
</g>
<g>
</g>
</svg>
