<?xml version="1.0" encoding="iso-8859-1"?>
<!-- Generator: Adobe Illustrator 17.1.0, SVG Export Plug-In . SVG Version: 6.00 Build 0)  -->
<!DOCTYPE svg PUBLIC "-//W3C//DTD SVG 1.1//EN" "http://www.w3.org/Graphics/SVG/1.1/DTD/svg11.dtd">
<svg version="1.1" id="Capa_1" xmlns="http://www.w3.org/2000/svg" xmlns:xlink="http://www.w3.org/1999/xlink" x="0px" y="0px"
	 viewBox="0 0 482 482" style="enable-background:new 0 0 482 482;" xml:space="preserve">
<g>
	<path style="fill:#FDF133;stroke:#000000;stroke-width:20;stroke-linecap:round;stroke-linejoin:round;stroke-miterlimit:10;" d="
		M104.169,292.008c0,11-9,20-20,20H30c-11,0-20-9-20-20V189.992c0-11,9-20,20-20h54.169c11,0,20,9,20,20V292.008z"/>
	<g>
		
			<line style="fill:none;stroke:#000000;stroke-width:20;stroke-linecap:round;stroke-linejoin:round;stroke-miterlimit:10;" x1="10" y1="219.992" x2="74.169" y2="219.992"/>
	</g>
	<g>
		
			<line style="fill:none;stroke:#000000;stroke-width:20;stroke-linecap:round;stroke-linejoin:round;stroke-miterlimit:10;" x1="50" y1="219.992" x2="50" y2="239.992"/>
	</g>
	<path style="fill:#FDF133;stroke:#000000;stroke-width:20;stroke-linecap:round;stroke-linejoin:round;stroke-miterlimit:10;" d="
		M377.831,292.008c0,11,9,20,20,20H452c11,0,20-9,20-20V189.992c0-11-9-20-20-20h-54.169c-11,0-20,9-20,20V292.008z"/>
	<g>
		
			<line style="fill:none;stroke:#000000;stroke-width:20;stroke-linecap:round;stroke-linejoin:round;stroke-miterlimit:10;" x1="472" y1="219.992" x2="407.831" y2="219.992"/>
	</g>
	<g>
		
			<line style="fill:none;stroke:#000000;stroke-width:20;stroke-linecap:round;stroke-linejoin:round;stroke-miterlimit:10;" x1="432" y1="219.992" x2="432" y2="239.992"/>
	</g>
	
		<rect x="104.169" y="189.992" style="fill:#F8A71B;stroke:#000000;stroke-width:20;stroke-linecap:round;stroke-linejoin:round;stroke-miterlimit:10;" width="273.661" height="102.016"/>
	
		<rect x="149" y="179.992" style="fill:#FCC324;stroke:#000000;stroke-width:20;stroke-linecap:round;stroke-linejoin:round;stroke-miterlimit:10;" width="184" height="122.016"/>
	<path style="fill:#666666;stroke:#000000;stroke-width:20;stroke-linecap:round;stroke-linejoin:round;stroke-miterlimit:10;" d="
		M266.403,209.95c4.041,4.041,2.176,9.668-4.839,14.575c-6.156,4.307-13.36,6.461-20.564,6.461c-7.204,0-14.408-2.154-20.564-6.461
		c-7.014-4.908-8.879-10.535-4.839-14.575c-21.754,1.903-37.847,21.082-35.944,42.836c6.394-3.605,13.772-5.669,21.635-5.669
		c17.486,0,32.575,10.182,39.712,24.933c7.137-14.751,22.226-24.933,39.712-24.933c7.863,0,15.242,2.063,21.635,5.669
		C304.25,231.032,288.157,211.853,266.403,209.95z"/>
</g>
<g>
</g>
<g>
</g>
<g>
</g>
<g>
</g>
<g>
</g>
<g>
</g>
<g>
</g>
<g>
</g>
<g>
</g>
<g>
</g>
<g>
</g>
<g>
</g>
<g>
</g>
<g>
</g>
<g>
</g>
</svg>
