<?xml version="1.0" encoding="iso-8859-1"?>
<!-- Generator: Adobe Illustrator 17.1.0, SVG Export Plug-In . SVG Version: 6.00 Build 0)  -->
<!DOCTYPE svg PUBLIC "-//W3C//DTD SVG 1.1//EN" "http://www.w3.org/Graphics/SVG/1.1/DTD/svg11.dtd">
<svg version="1.1" id="Capa_1" xmlns="http://www.w3.org/2000/svg" xmlns:xlink="http://www.w3.org/1999/xlink" x="0px" y="0px"
	 viewBox="0 0 460 460" style="enable-background:new 0 0 460 460;" xml:space="preserve">
<g>
	<circle style="fill:#FDF133;" cx="230" cy="230" r="220"/>
	<path style="fill:#ED1B24;stroke:#000000;stroke-width:20;stroke-linecap:round;stroke-linejoin:round;stroke-miterlimit:10;" d="
		M230,10C108.497,10,10,108.497,10,230s98.497,220,220,220s220-98.497,220-220S351.503,10,230,10z M320.731,97.344L230,188.076
		l-90.731-90.731C165.09,79.649,196.333,69.29,230,69.29S294.91,79.649,320.731,97.344z M69.29,230
		c0-33.667,10.36-64.91,28.055-90.731L188.076,230l-90.731,90.731C79.649,294.91,69.29,263.667,69.29,230z M139.269,362.656
		L230,271.924l90.731,90.731C294.91,380.351,263.667,390.71,230,390.71S165.09,380.351,139.269,362.656z M362.656,320.731
		L271.924,230l90.731-90.731C380.351,165.09,390.71,196.333,390.71,230S380.351,294.91,362.656,320.731z"/>
</g>
<g>
</g>
<g>
</g>
<g>
</g>
<g>
</g>
<g>
</g>
<g>
</g>
<g>
</g>
<g>
</g>
<g>
</g>
<g>
</g>
<g>
</g>
<g>
</g>
<g>
</g>
<g>
</g>
<g>
</g>
</svg>
