<?xml version="1.0" encoding="iso-8859-1"?>
<!-- Generator: Adobe Illustrator 17.1.0, SVG Export Plug-In . SVG Version: 6.00 Build 0)  -->
<!DOCTYPE svg PUBLIC "-//W3C//DTD SVG 1.1//EN" "http://www.w3.org/Graphics/SVG/1.1/DTD/svg11.dtd">
<svg version="1.1" id="Capa_1" xmlns="http://www.w3.org/2000/svg" xmlns:xlink="http://www.w3.org/1999/xlink" x="0px" y="0px"
	 viewBox="0 0 460 460" style="enable-background:new 0 0 460 460;" xml:space="preserve">
<g>
	<path style="fill:#FDF133;stroke:#000000;stroke-width:20;stroke-linecap:round;stroke-linejoin:round;stroke-miterlimit:10;" d="
		M313.503,62.966V10h-57.119l-16.696,35.236C236.477,45.084,233.249,45,230,45C118.163,45,27.5,135.662,27.5,247.5
		c0,52.15,19.719,99.69,52.1,135.586L47.893,450l63.207,0l13.893-29.319C155.611,439.286,191.554,450,230,450
		c111.838,0,202.5-90.663,202.5-202.5C432.5,165.435,383.682,94.773,313.503,62.966z M256.384,143.393l-0.003,112.893h-53.49
		L256.384,143.393z M67.052,247.5c0-89.018,68.866-161.652,155.316-165.711L97.853,344.566
		C78.478,317.273,67.052,283.748,67.052,247.5z M230,413.398c-32.779,0-63.292-9.862-88.848-26.82l34.673-73.174h80.555v29.999
		l0.003-0.004v0.004h57.119V105.022c47.582,28.968,79.446,81.931,79.446,142.478C392.949,339.123,319.994,413.398,230,413.398z"/>
	
		<polyline style="fill:none;stroke:#000000;stroke-width:20;stroke-linecap:round;stroke-linejoin:round;stroke-miterlimit:10;" points="
		256.381,343.403 313.503,284.844 256.381,226.285 	"/>
</g>
<g>
</g>
<g>
</g>
<g>
</g>
<g>
</g>
<g>
</g>
<g>
</g>
<g>
</g>
<g>
</g>
<g>
</g>
<g>
</g>
<g>
</g>
<g>
</g>
<g>
</g>
<g>
</g>
<g>
</g>
</svg>
