<?xml version="1.0" encoding="iso-8859-1"?>
<!-- Generator: Adobe Illustrator 17.1.0, SVG Export Plug-In . SVG Version: 6.00 Build 0)  -->
<!DOCTYPE svg PUBLIC "-//W3C//DTD SVG 1.1//EN" "http://www.w3.org/Graphics/SVG/1.1/DTD/svg11.dtd">
<svg version="1.1" xmlns="http://www.w3.org/2000/svg" xmlns:xlink="http://www.w3.org/1999/xlink" x="0px" y="0px"
	 viewBox="0 0 1009.98 1009.98" style="enable-background:new 0 0 1009.98 1009.98;" xml:space="preserve">
<g id="graph-7">
	<g id="label_7_">
		<path style="fill:#FFFFFF;" d="M504.971,1009.98C226.526,1009.98,0,787.355,0,513.707c0-1.868,0.059-3.737,0.124-5.593
			l0.098-3.347l-0.098-2.875C0.059,500.037,0,498.181,0,496.299C0,222.638,226.526,0,504.971,0
			c278.464,0,505.01,222.638,505.01,496.299c0,1.974-0.065,3.934-0.143,5.895l-0.092,3.11l0.092,2.51
			c0.078,1.96,0.143,3.92,0.143,5.894C1009.98,787.355,783.435,1009.98,504.971,1009.98L504.971,1009.98z M504.971,26.766
			c-263.683,0-478.205,210.628-478.205,469.533c0,1.568,0.059,3.11,0.111,4.666l0.111,3.803l-0.111,4.274
			c-0.052,1.555-0.111,3.098-0.111,4.665c0,258.892,214.522,469.507,478.205,469.507c263.708,0,478.243-210.614,478.243-469.507
			c0-1.659-0.065-3.306-0.117-4.953l-0.104-3.45l0.104-4.052c0.052-1.647,0.117-3.293,0.117-4.953
			C983.214,237.394,768.679,26.766,504.971,26.766L504.971,26.766z"/>
	</g>
	<path id="graph-7_4_" style="fill:#FFFFFF;" d="M256.115,290.729h19.794v6.587h-19.794V290.729z M256.115,341.818h19.794v-6.613
		h-19.794V341.818z M256.115,386.319h19.794v-6.613h-19.794V386.319z M256.115,430.808h19.794v-6.587h-19.794V430.808z
		 M256.115,475.31h19.794v-6.574h-19.794V475.31z M753.858,618.721c0,69.177-56.081,125.283-125.258,125.283
		c-69.189,0-125.251-56.106-125.251-125.283c0-18.22,3.967-35.497,10.959-51.115H289.083V265.989h9.07v292.547h42.024V294.01h34.595
		v264.526h29.688V351.698h34.608v206.838h29.661V399.48h34.608v159.056h15.402c4.052-7.372,8.861-14.285,14.246-20.677V312.164
		h34.66v197.179c18.022-10.09,38.803-15.893,60.955-15.893C697.777,493.45,753.858,549.53,753.858,618.721z M690.224,539.808
		c-17.004-13.318-38.359-21.304-61.623-21.304c-55.361,0-100.216,44.867-100.216,100.217c0,52.187,39.914,95.001,90.885,99.706
		l9.331-99.706L690.224,539.808z"/>
</g>
<g id="Layer_1">
</g>
</svg>
