<?xml version="1.0" encoding="iso-8859-1"?>
<!-- Generator: Adobe Illustrator 17.1.0, SVG Export Plug-In . SVG Version: 6.00 Build 0)  -->
<!DOCTYPE svg PUBLIC "-//W3C//DTD SVG 1.1//EN" "http://www.w3.org/Graphics/SVG/1.1/DTD/svg11.dtd">
<svg version="1.1" xmlns="http://www.w3.org/2000/svg" xmlns:xlink="http://www.w3.org/1999/xlink" x="0px" y="0px"
	 viewBox="0 0 1010 1009.98" style="enable-background:new 0 0 1010 1009.98;" xml:space="preserve">
<g id="graph-10">
	<g id="label_10_">
		<path style="fill:#FFFFFF;" d="M504.978,1009.98C226.533,1009.98,0,787.355,0,513.707c0-1.868,0.065-3.737,0.131-5.593
			l0.092-3.347l-0.092-2.862C0.065,500.037,0,498.181,0,496.299C0,222.638,226.533,0,504.978,0C783.455,0,1010,222.638,1010,496.299
			c0,1.856-0.078,3.685-0.156,5.528l-0.106,3.424l0.106,2.941c0.078,1.829,0.156,3.672,0.156,5.515
			C1010,787.355,783.455,1009.98,504.978,1009.98L504.978,1009.98z M504.978,26.766c-263.689,0-478.211,210.628-478.211,469.533
			c0,1.568,0.052,3.123,0.104,4.679l0.118,3.79l-0.118,4.274c-0.052,1.555-0.104,3.098-0.104,4.665
			c0,258.892,214.521,469.507,478.211,469.507c263.708,0,478.257-210.614,478.257-469.507c0-1.477-0.079-2.941-0.131-4.417
			l-0.131-4.039l0.131-4.535c0.052-1.463,0.131-2.941,0.131-4.417C983.234,237.394,768.685,26.766,504.978,26.766L504.978,26.766z"
			/>
	</g>
	<path id="graph-10_4_" style="fill:#FFFFFF;" d="M335.467,431.396V682.63c0,9.109-7.45,16.533-16.52,16.533h-46.266
		c-9.096,0-16.572-7.424-16.572-16.533V431.396c0-9.083,7.476-16.533,16.572-16.533h46.266
		C328.017,414.863,335.467,422.312,335.467,431.396z M425.829,372.309h-46.292c-9.097,0-16.52,7.436-16.52,16.533V682.63
		c0,9.109,7.423,16.533,16.52,16.533h46.292c9.083,0,16.52-7.424,16.52-16.533V388.842
		C442.349,379.746,434.912,372.309,425.829,372.309z M549.25,346.301c0-9.096-7.449-16.533-16.572-16.533h-46.246
		c-9.083,0-16.507,7.437-16.507,16.533v311.274l79.325-94.4V346.301z M648.185,584.348l-32.856-27.786l40.803-14.663V303.747
		c0-9.097-7.449-16.52-16.546-16.52H593.32c-9.097,0-16.546,7.423-16.546,16.52v275.935l43.939,37.143L648.185,584.348z
		 M697.144,540.683l-56.748,20.401l25.773,21.734l-43.966,51.951l-68.118-57.584l-92.734,110.346l41.718,35.235l57.734-68.353
		l67.987,57.44L664,670.161l-0.131-0.104l43.966-51.978l24.675,20.858l10.665-59.335l10.69-59.349L697.144,540.683z"/>
</g>
<g id="Layer_1">
</g>
</svg>
