<?xml version="1.0" encoding="iso-8859-1"?>
<!-- Generator: Adobe Illustrator 17.1.0, SVG Export Plug-In . SVG Version: 6.00 Build 0)  -->
<!DOCTYPE svg PUBLIC "-//W3C//DTD SVG 1.1//EN" "http://www.w3.org/Graphics/SVG/1.1/DTD/svg11.dtd">
<svg version="1.1" xmlns="http://www.w3.org/2000/svg" xmlns:xlink="http://www.w3.org/1999/xlink" x="0px" y="0px"
	 viewBox="0 0 1009.98 1010" style="enable-background:new 0 0 1009.98 1010;" xml:space="preserve">
<g id="graph-19">
	<g id="label_19_">
		<path style="fill:#FFFFFF;" d="M504.971,1010C226.526,1010,0,783.742,0,505.67v-1.372C0,226.232,226.526,0,504.971,0
			c278.464,0,505.01,226.232,505.01,504.298v1.372C1009.98,783.742,783.435,1010,504.971,1010L504.971,1010z M504.971,26.767
			c-263.683,0-478.205,214.221-478.205,477.531l-0.006,1.79C26.766,769,241.288,983.234,504.971,983.234
			c263.708,0,478.243-214.234,478.243-477.564v-1.398C983.214,240.987,768.679,26.767,504.971,26.767L504.971,26.767z"/>
	</g>
	<path id="graph-19_4_" style="fill:#FFFFFF;" d="M528.123,751.016h71.071c6.222,0,11.345-5.097,11.345-11.344v-36.986V296.128
		c0-6.234-5.123-11.318-11.345-11.318h-71.071c-6.221,0-11.351,5.084-11.351,11.318v406.558v36.986
		C516.773,745.919,521.902,751.016,528.123,751.016z M648.623,752.663h71.046c6.247,0,11.357-5.098,11.357-11.345v-36.986V359.933
		c0-6.247-5.11-11.318-11.357-11.318h-71.046c-6.221,0-11.344,5.071-11.344,11.318v344.399v36.986
		C637.279,747.565,642.402,752.663,648.623,752.663z M479.982,395.377H408.91c-6.221,0-11.325,5.097-11.325,11.331v298.826v36.987
		c0,6.246,5.104,11.344,11.325,11.344h71.071c6.247,0,11.345-5.098,11.345-11.344v-36.987V406.708
		C491.326,400.474,486.229,395.377,479.982,395.377z M290.292,752.297h71.059c6.247,0,11.344-5.123,11.344-11.344V703.94V507.513
		c0-6.234-5.097-11.331-11.344-11.331h-71.059c-6.234,0-11.345,5.097-11.345,11.331V703.94v37.014
		C278.947,747.174,284.058,752.297,290.292,752.297z M326.501,447.419c0.131,4.836,2.829,5.777,5.973,2.065l99.707-105.183
		c4.156-2.483,9.566-1.098,12.043,3.084l8.43,14.259c2.464,4.169,5.816,3.83,7.463-0.731l29.844-83.553
		c1.647-4.574-0.96-8.835-5.77-9.475l-85.86-11.671c-4.809-0.667-6.704,2.234-4.241,6.403l7.705,13.03
		c2.47,4.195,2.829,11.187,0.81,15.592L326.501,447.419z"/>
</g>
<g id="Layer_1">
</g>
</svg>
