<?xml version="1.0" encoding="iso-8859-1"?>
<!-- Generator: Adobe Illustrator 17.1.0, SVG Export Plug-In . SVG Version: 6.00 Build 0)  -->
<!DOCTYPE svg PUBLIC "-//W3C//DTD SVG 1.1//EN" "http://www.w3.org/Graphics/SVG/1.1/DTD/svg11.dtd">
<svg version="1.1" xmlns="http://www.w3.org/2000/svg" xmlns:xlink="http://www.w3.org/1999/xlink" x="0px" y="0px"
	 viewBox="0 0 1010 1009.98" style="enable-background:new 0 0 1010 1009.98;" xml:space="preserve">
<g id="graph-16">
	<g id="label_16_">
		<path style="fill:#FFFFFF;" d="M504.978,1009.98C226.533,1009.98,0,785.552,0,509.695l0.131-4.823L0,500.272
			C0,224.428,226.533,0,504.978,0C783.455,0,1010,224.428,1010,500.272c0,1.033-0.052,2.078-0.104,3.111l-0.052,1.712l0.052,1.49
			c0.053,1.032,0.104,2.064,0.104,3.11C1010,785.552,783.455,1009.98,504.978,1009.98L504.978,1009.98z M504.978,26.766
			c-263.689,0-478.211,212.417-478.211,473.506l0.131,4.6l-0.131,4.823c0,261.101,214.521,473.519,478.211,473.519
			c263.708,0,478.257-212.418,478.257-473.519l-0.157-4.6l0.157-4.823C983.234,239.184,768.685,26.766,504.978,26.766
			L504.978,26.766z"/>
	</g>
	<path id="graph-16_4_" style="fill:#FFFFFF;" d="M687.368,715.107v-80.952h37.849v-13.788h-37.849V518.099h37.849v-13.815h-37.849
		V400.84h37.849v-13.802h-37.849v-43.377h-51.677v43.377H381.445V267.139h-97.707v13.619h32.752v104.438h-32.752v13.736h32.752
		v103.536h-32.752v13.788h32.752v103.483h-32.752v13.841h32.752v109.248h409.721v-27.721H687.368z M635.691,620.367h-57.088V518.099
		h57.088V620.367z M479.335,518.099h47.593v102.268h-47.593V518.099z M427.672,620.367h-46.227V518.099h46.227V620.367z
		 M635.691,400.84v103.444h-57.088v-65.439h-51.676v65.439H381.445V400.84H635.691z M381.445,715.107v-80.952h46.227v80.952H381.445
		z M479.335,715.107v-80.952h47.593v80.952H479.335z M578.604,715.107v-80.952h57.088v80.952H578.604z"/>
</g>
<g id="Layer_1">
</g>
</svg>
