<?xml version="1.0" encoding="iso-8859-1"?>
<!-- Generator: Adobe Illustrator 17.1.0, SVG Export Plug-In . SVG Version: 6.00 Build 0)  -->
<!DOCTYPE svg PUBLIC "-//W3C//DTD SVG 1.1//EN" "http://www.w3.org/Graphics/SVG/1.1/DTD/svg11.dtd">
<svg version="1.1" xmlns="http://www.w3.org/2000/svg" xmlns:xlink="http://www.w3.org/1999/xlink" x="0px" y="0px"
	 viewBox="0 0 1009.98 1009.98" style="enable-background:new 0 0 1009.98 1009.98;" xml:space="preserve">
<g id="graph-36">
	<g id="label_72_">
		<path style="fill:#FFFFFF;" d="M504.977,1009.98c-278.431,0-504.951-223.227-504.951-497.606c0-1.477,0.052-2.928,0.104-4.378
			l0.078-2.928l-0.091-2.875C0.052,500.664,0,499.122,0,497.58C0,223.213,226.52,0,504.951,0
			c278.471,0,505.029,223.213,505.029,497.58c0,1.647-0.053,3.268-0.118,4.875l-0.078,2.575l0.078,2.222
			c0.065,1.712,0.118,3.411,0.118,5.123C1009.98,786.754,783.435,1009.98,504.977,1009.98L504.977,1009.98z M504.951,26.766
			c-263.676,0-478.185,211.202-478.185,470.814c0,1.203,0.052,2.392,0.091,3.581l0.118,3.921l-0.184,7.293
			c0,259.625,214.509,470.84,478.185,470.84c263.702,0,478.237-211.215,478.237-470.84c0-1.398-0.052-2.797-0.104-4.195
			l-0.091-3.163l0.091-3.542c0.053-1.294,0.104-2.588,0.104-3.895C983.214,237.968,768.666,26.766,504.951,26.766L504.951,26.766z"
			/>
	</g>
	<g id="graph-36_4_">
		<path style="fill:#FFFFFF;" d="M743.468,694.732H276.941V304.857c0-5.724-4.64-10.429-10.416-10.429
			c-5.725,0-10.391,4.705-10.391,10.429h-0.026v400.291c0,2.731,1.137,5.436,3.084,7.345c1.908,1.947,4.574,3.059,7.332,3.059
			h476.942c5.751,0,10.404-4.679,10.404-10.403C753.872,699.411,749.219,694.732,743.468,694.732z"/>
		<path style="fill:#FFFFFF;" d="M329.899,584.518c-11.096,0-20.153,9.07-20.153,20.153v42.554c0,11.083,9.057,20.153,20.153,20.153
			h38.45c11.083,0,20.127-9.07,20.127-20.153v-42.554c0-11.083-9.044-20.153-20.127-20.153H329.899z"/>
		<path style="fill:#FFFFFF;" d="M429.958,493.397c-11.083,0-20.153,9.07-20.153,20.127v133.7c0,11.083,9.07,20.153,20.153,20.153
			h38.424c11.096,0,20.179-9.07,20.179-20.153v-133.7c0-11.057-9.083-20.127-20.179-20.127H429.958z"/>
		<path style="fill:#FFFFFF;" d="M636.338,450.856c-11.697,0-21.251,9.58-21.251,21.238v174.033
			c0,11.685,9.554,21.251,21.251,21.251h36.241c11.658,0,21.226-9.566,21.226-21.251V472.094c0-11.658-9.567-21.238-21.226-21.238
			H636.338z"/>
		<path style="fill:#FFFFFF;" d="M530.005,534.802c-11.096,0-20.14,9.044-20.14,20.152v92.27c0,11.083,9.044,20.153,20.14,20.153
			h38.438c11.057,0,20.153-9.07,20.153-20.153v-92.27c0-11.108-9.097-20.152-20.153-20.152H530.005z"/>
		<path style="fill:#FFFFFF;" d="M319.783,522.96c3.738,0,7.449-1.307,10.429-3.985h-0.026l116.187-104.909l87.918,81.266
			c3.137,2.901,7.357,4.391,11.632,4.077c4.234-0.261,8.247-2.378,10.926-5.646l91.552-111.914l20.963,20.95l8.312-76.665
			l-76.587,8.377l25.25,25.263l-83.096,101.497l-86.206-79.671c-5.881-5.45-15.017-5.516-20.963-0.118l-126.708,114.41
			c-6.378,5.737-6.861,15.579-1.137,21.943C311.315,521.235,315.522,522.96,319.783,522.96z"/>
	</g>
</g>
<g id="Layer_1">
</g>
</svg>
