<?xml version="1.0" encoding="iso-8859-1"?>
<!-- Generator: Adobe Illustrator 17.1.0, SVG Export Plug-In . SVG Version: 6.00 Build 0)  -->
<!DOCTYPE svg PUBLIC "-//W3C//DTD SVG 1.1//EN" "http://www.w3.org/Graphics/SVG/1.1/DTD/svg11.dtd">
<svg version="1.1" xmlns="http://www.w3.org/2000/svg" xmlns:xlink="http://www.w3.org/1999/xlink" x="0px" y="0px"
	 viewBox="0 0 1009.98 1009.98" style="enable-background:new 0 0 1009.98 1009.98;" xml:space="preserve">
<g id="graph-1">
	<g id="label_1_">
		<path style="fill:#FFFFFF;" d="M504.971,1009.98C226.526,1009.98,0,789.094,0,517.603c0-3.092,0.105-6.169,0.209-9.24l0.124-3.765
			l-0.124-2.999C0.105,498.52,0,495.437,0,492.332C0,220.86,226.526,0,504.971,0c278.464,0,505.01,220.86,505.01,492.332
			c0,3.013-0.092,6.006-0.196,8.992l-0.131,3.999l0.131,3.314c0.104,2.979,0.196,5.966,0.196,8.966
			C1009.98,789.094,783.435,1009.98,504.971,1009.98L504.971,1009.98z M504.971,26.766c-263.683,0-478.205,208.85-478.205,465.566
			c0,2.797,0.098,5.568,0.196,8.339l0.125,3.927l-0.125,4.685c-0.098,2.77-0.196,5.535-0.196,8.319
			c0,256.735,214.522,465.611,478.205,465.611c263.708,0,478.243-208.876,478.243-465.611c0-2.693-0.092-5.365-0.195-8.045
			l-0.131-4.234l0.131-4.927c0.104-2.68,0.195-5.359,0.195-8.064C983.214,235.616,768.679,26.766,504.971,26.766L504.971,26.766z"/>
	</g>
	<g id="graph-1_4_">
		<rect x="256.115" y="464.494" style="fill:#FFFFFF;" width="77.959" height="272.831"/>
		<rect x="535.991" y="464.494" style="fill:#FFFFFF;" width="77.945" height="272.831"/>
		<polygon style="fill:#FFFFFF;" points="675.912,403.244 675.912,737.325 753.858,737.325 753.858,403.251 		"/>
		<rect x="396.043" y="551.727" style="fill:#FFFFFF;" width="77.953" height="185.599"/>
		<path style="fill:#FFFFFF;" d="M295.082,386.62c6.73,0,12.174-5.443,12.174-12.174c0-6.705-5.443-12.161-12.174-12.161
			c-6.698,0-12.161,5.456-12.161,12.161C282.921,381.177,288.384,386.62,295.082,386.62z"/>
		<path style="fill:#FFFFFF;" d="M295.082,413.426c21.499,0,38.992-17.474,38.992-38.979c0-21.486-17.493-38.96-38.992-38.96
			c-21.493,0-38.967,17.474-38.967,38.96C256.115,395.952,273.589,413.426,295.082,413.426z M295.082,351.692
			c12.546,0,22.76,10.22,22.76,22.754c0,12.553-10.214,22.76-22.76,22.76c-12.554,0-22.741-10.207-22.741-22.76
			C272.341,361.912,282.528,351.692,295.082,351.692z"/>
		<path style="fill:#FFFFFF;" d="M435.017,469.193c-6.705,0-12.155,5.443-12.155,12.168c0,6.711,5.45,12.161,12.155,12.161
			c6.711,0,12.181-5.45,12.181-12.161C447.197,474.636,441.728,469.193,435.017,469.193z"/>
		<path style="fill:#FFFFFF;" d="M435.017,442.368c-21.486,0-38.974,17.474-38.974,38.986c0,21.479,17.487,38.954,38.974,38.954
			c21.492,0,38.979-17.474,38.979-38.954C473.996,459.842,456.509,442.368,435.017,442.368z M435.017,504.095
			c-12.54,0-22.747-10.207-22.747-22.741c0-12.553,10.207-22.747,22.747-22.747c12.533,0,22.754,10.194,22.754,22.747
			C457.771,493.888,447.55,504.095,435.017,504.095z"/>
		<path style="fill:#FFFFFF;" d="M574.938,333.428c-6.691,0-12.154,5.437-12.154,12.161c0,6.724,5.463,12.161,12.154,12.161
			c6.732,0,12.181-5.438,12.181-12.161C587.118,338.864,581.669,333.428,574.938,333.428z"/>
		<path style="fill:#FFFFFF;" d="M574.938,306.609c-21.485,0-38.946,17.48-38.946,38.966c0,21.493,17.461,38.98,38.946,38.98
			c21.513,0,38.999-17.487,38.999-38.98C613.937,324.089,596.45,306.609,574.938,306.609z M574.938,368.329
			c-12.546,0-22.74-10.2-22.74-22.754c0-12.546,10.194-22.734,22.74-22.734c12.547,0,22.768,10.188,22.768,22.734
			C597.705,358.129,587.484,368.329,574.938,368.329z"/>
		<path style="fill:#FFFFFF;" d="M335.101,393.874c-3.32,6.828-8.299,12.657-14.442,16.983l72.072,56.61
			c2.378-7.28,6.619-13.71,12.122-18.787L335.101,393.874z"/>
		<path style="fill:#FFFFFF;" d="M538.004,370.44l-77.463,74.443c6.149,4.326,11.142,10.175,14.475,16.983l79.743-76.639
			C548.015,381.778,542.226,376.681,538.004,370.44z"/>
		<path style="fill:#FFFFFF;" d="M701.516,319.365l7.423,23.689l44.24-52.494l-66.275-17.912l7.96,25.46l-80.717,26.341
			c3.424,6.299,5.358,13.481,5.358,21.126c0,0.19-0.026,0.393-0.026,0.575L701.516,319.365z"/>
	</g>
</g>
<g id="Layer_1">
</g>
</svg>
