<?xml version="1.0" encoding="iso-8859-1"?>
<!-- Generator: Adobe Illustrator 17.1.0, SVG Export Plug-In . SVG Version: 6.00 Build 0)  -->
<!DOCTYPE svg PUBLIC "-//W3C//DTD SVG 1.1//EN" "http://www.w3.org/Graphics/SVG/1.1/DTD/svg11.dtd">
<svg version="1.1" xmlns="http://www.w3.org/2000/svg" xmlns:xlink="http://www.w3.org/1999/xlink" x="0px" y="0px"
	 viewBox="0 0 1009.98 1009.98" style="enable-background:new 0 0 1009.98 1009.98;" xml:space="preserve">
<g id="graph-12">
	<g id="label_12_">
		<path style="fill:#FFFFFF;" d="M504.951,1009.98C226.52,1009.98,0,787.355,0,513.694c0-1.869,0.065-3.725,0.131-5.567l0.105-3.372
			l-0.105-2.901C0.065,499.998,0,498.155,0,496.286C0,222.625,226.52,0,504.951,0c278.471,0,505.029,222.625,505.029,496.286
			c0,1.882-0.065,3.737-0.131,5.606l-0.092,3.346l0.092,2.849c0.065,1.869,0.131,3.726,0.131,5.608
			C1009.98,787.355,783.422,1009.98,504.951,1009.98L504.951,1009.98z M504.951,26.766c-263.676,0-478.185,210.628-478.185,469.52
			c0,1.542,0.066,3.058,0.118,4.587l0.118,3.882l-0.118,4.352c-0.052,1.529-0.118,3.046-0.118,4.588
			c0,258.893,214.509,469.519,478.185,469.519c263.715,0,478.263-210.627,478.263-469.519c0-1.568-0.052-3.123-0.104-4.679
			l-0.117-3.777l0.117-4.273c0.053-1.556,0.104-3.11,0.104-4.679C983.214,237.394,768.666,26.766,504.951,26.766L504.951,26.766z"/>
	</g>
	<g id="graph-12_4_">
		<path style="fill:#FFFFFF;" d="M288.233,414.602L391.9,352.287c7.554-4.666,17.617-2.418,22.414,5.045l25.119,39
			c4.823,7.449,15.056,9.958,22.807,5.659l113.6-63.936c7.724-4.352,17.33-1.424,21.434,6.417l5.476,10.691
			c4.039,7.907,11.332,8.272,16.076,0.823l45.809-70.98c4.809-7.462,1.542-14.245-7.241-15.186l-88.114-9.253
			c-8.809-0.902-12.729,4.757-8.664,12.664l7.148,13.932c4.078,7.855,1.02,17.866-6.666,22.231l-88.231,49.651
			c-7.724,4.3-17.944,1.79-22.78-5.673l-25.786-40.07c-4.862-7.45-14.912-9.711-22.414-5.084l-130.603,79.044
			c-7.541,4.613-9.867,14.625-5.201,22.179C270.76,416.954,280.732,419.32,288.233,414.602z"/>
		<path style="fill:#FFFFFF;" d="M327.272,508.623h-48.213c-12.612,0-22.95,10.338-22.95,22.95v194.983
			c0,12.611,10.338,22.95,22.95,22.95h48.213c12.586,0,22.911-10.339,22.911-22.95V531.573
			C350.183,518.961,339.858,508.623,327.272,508.623z"/>
		<path style="fill:#FFFFFF;" d="M461.822,462.802h-48.2c-12.573,0-22.923,10.286-22.923,22.924v240.831
			c0,12.611,10.351,22.95,22.923,22.95h48.2c12.573,0,22.898-10.339,22.898-22.95V485.726
			C484.72,473.088,474.395,462.802,461.822,462.802z"/>
		<path style="fill:#FFFFFF;" d="M596.346,398.565h-48.161c-12.599,0-22.924,10.325-22.924,22.911v305.08
			c0,12.611,10.325,22.95,22.924,22.95h48.161c12.638,0,22.937-10.339,22.937-22.95v-305.08
			C619.282,408.891,608.983,398.565,596.346,398.565z"/>
		<path style="fill:#FFFFFF;" d="M730.896,325.167h-48.148c-12.638,0-22.949,10.325-22.949,22.898v378.491
			c0,12.611,10.311,22.95,22.949,22.95h48.148c12.625,0,22.977-10.339,22.977-22.95V348.065
			C753.872,335.492,743.521,325.167,730.896,325.167z"/>
	</g>
</g>
<g id="Layer_1">
</g>
</svg>
