<?xml version="1.0" encoding="iso-8859-1"?>
<!-- Generator: Adobe Illustrator 17.1.0, SVG Export Plug-In . SVG Version: 6.00 Build 0)  -->
<!DOCTYPE svg PUBLIC "-//W3C//DTD SVG 1.1//EN" "http://www.w3.org/Graphics/SVG/1.1/DTD/svg11.dtd">
<svg version="1.1" xmlns="http://www.w3.org/2000/svg" xmlns:xlink="http://www.w3.org/1999/xlink" x="0px" y="0px"
	 viewBox="0 0 1009.98 1009.98" style="enable-background:new 0 0 1009.98 1009.98;" xml:space="preserve">
<g id="graph-32">
	<g id="label_32_">
		<path style="fill:#FFFFFF;" d="M505.003,1009.98C226.546,1009.98,0,786.768,0,512.413c0-1.568,0.052-3.097,0.105-4.639
			l0.092-2.954l-0.092-2.601C0.052,500.69,0,499.148,0,497.593C0,223.213,226.546,0,505.003,0
			c278.445,0,504.977,223.213,504.977,497.593c0,1.516-0.039,3.019-0.092,4.522l-0.078,3.032l0.078,2.731
			c0.053,1.504,0.092,3.006,0.092,4.535C1009.98,786.768,783.448,1009.98,505.003,1009.98L505.003,1009.98z M505.003,26.766
			c-263.702,0-478.237,211.215-478.237,470.827c0,1.229,0.04,2.431,0.091,3.647l0.104,3.581l-0.104,3.946
			c-0.052,1.203-0.091,2.418-0.091,3.647c0,259.599,214.535,470.801,478.237,470.801c263.689,0,478.211-211.202,478.211-470.801
			l-0.17-7.266l0.17-7.554C983.214,237.981,768.692,26.766,505.003,26.766L505.003,26.766z"/>
	</g>
	<g id="graph-32_4_">
		<path style="fill:#FFFFFF;" d="M729.131,612.983c15.854-32.739,24.741-69.478,24.741-108.32
			c0-131.518-102.047-239.197-231.265-248.241l0.223,95.93c76.312,8.795,135.53,73.672,135.53,152.311
			c0,21.173-4.3,41.391-12.064,59.728L729.131,612.983z"/>
		<path style="fill:#FFFFFF;" d="M299.225,644.716c44.802,65.686,120.239,108.829,205.766,108.829
			c85.565,0,161.067-43.182,205.856-108.947l-83.135-47.899c-27.994,37.248-72.535,61.374-122.722,61.374
			c-50.252,0-94.884-24.204-122.853-61.557L299.225,644.716z"/>
		<path style="fill:#FFFFFF;" d="M364.01,565.175c-7.985-18.559-12.39-38.999-12.39-60.512c0-78.743,59.361-143.633,135.766-152.337
			l-0.262-95.878c-129.1,9.136-231.002,116.789-231.002,248.215c0,39.013,8.952,75.907,24.936,108.751L364.01,565.175z"/>
	</g>
</g>
<g id="Layer_1">
</g>
</svg>
