<?xml version="1.0" encoding="iso-8859-1"?>
<!-- Generator: Adobe Illustrator 17.1.0, SVG Export Plug-In . SVG Version: 6.00 Build 0)  -->
<!DOCTYPE svg PUBLIC "-//W3C//DTD SVG 1.1//EN" "http://www.w3.org/Graphics/SVG/1.1/DTD/svg11.dtd">
<svg version="1.1" xmlns="http://www.w3.org/2000/svg" xmlns:xlink="http://www.w3.org/1999/xlink" x="0px" y="0px"
	 viewBox="0 0 1010 1009.98" style="enable-background:new 0 0 1010 1009.98;" xml:space="preserve">
<g id="graph-34">
	<g id="label_34_">
		<path style="fill:#FFFFFF;" d="M504.978,1009.98C226.533,1009.98,0,786.754,0,512.361c0-1.648,0.053-3.28,0.118-4.927l0.078-2.641
			l-0.078-2.156C0.053,500.952,0,499.279,0,497.566C0,223.213,226.533,0,504.978,0c278.451,0,504.971,223.213,504.971,497.566
			c0,1.503-0.053,2.98-0.104,4.457l-0.079,2.967l0.104,2.784c0.053,1.528,0.131,3.045,0.131,4.587
			C1010,786.754,783.455,1009.98,504.978,1009.98L504.978,1009.98z M504.978,26.766c-263.689,0-478.211,211.202-478.211,470.8
			c0,1.386,0.052,2.758,0.104,4.13l0.092,3.111l-0.092,3.594c-0.052,1.32-0.104,2.64-0.104,3.96
			c0,259.624,214.521,470.852,478.211,470.852c263.708,0,478.257-211.229,478.257-470.852c0-1.163-0.053-2.314-0.105-3.464
			l-0.13-3.907l0.183-7.424C983.182,237.968,768.66,26.766,504.978,26.766L504.978,26.766z"/>
	</g>
	<g id="graph-34_4_">
		<polygon style="fill:#FFFFFF;" points="470.134,349.791 539.815,349.791 505.003,289.436 		"/>
		<polygon style="fill:#FFFFFF;" points="457.705,371.342 416.654,442.479 593.32,442.479 552.256,371.342 		"/>
		<polygon style="fill:#FFFFFF;" points="404.199,464.03 363.096,535.142 646.852,535.142 605.763,464.03 		"/>
		<polygon style="fill:#FFFFFF;" points="350.68,556.719 309.615,627.83 700.359,627.83 659.295,556.719 		"/>
		<polygon style="fill:#FFFFFF;" points="753.865,720.519 712.801,649.395 297.199,649.395 256.109,720.519 		"/>
	</g>
</g>
<g id="Layer_1">
</g>
</svg>
