<?xml version="1.0" encoding="iso-8859-1"?>
<!-- Generator: Adobe Illustrator 17.1.0, SVG Export Plug-In . SVG Version: 6.00 Build 0)  -->
<!DOCTYPE svg PUBLIC "-//W3C//DTD SVG 1.1//EN" "http://www.w3.org/Graphics/SVG/1.1/DTD/svg11.dtd">
<svg version="1.1" xmlns="http://www.w3.org/2000/svg" xmlns:xlink="http://www.w3.org/1999/xlink" x="0px" y="0px"
	 viewBox="0 0 1009.961 1009.98" style="enable-background:new 0 0 1009.961 1009.98;" xml:space="preserve">
<g id="graph-35">
	<g id="label_35_">
		<path style="fill:#FFFFFF;" d="M504.964,1009.98c-278.432,0-504.951-223.227-504.951-497.606c0-1.49,0.052-2.967,0.092-4.443
			l0.078-2.993l-0.078-2.797C0.052,500.625,0,499.109,0,497.566C0,223.213,226.52,0,504.964,0
			c278.451,0,504.997,223.213,504.997,497.566c0,1.49-0.053,2.967-0.105,4.431l-0.105,2.889l0.105,2.862
			c0.053,1.542,0.105,3.084,0.105,4.626C1009.961,786.754,783.415,1009.98,504.964,1009.98L504.964,1009.98z M504.964,26.766
			c-263.676,0-478.198,211.202-478.198,470.8l0.184,7.371l-0.17,7.437c0,259.625,214.509,470.84,478.185,470.84
			c263.708,0,478.23-211.215,478.23-470.84c0-1.202-0.053-2.392-0.079-3.594l-0.13-3.908l0.13-3.973
			c0.026-1.111,0.079-2.209,0.079-3.333C983.194,237.968,768.672,26.766,504.964,26.766L504.964,26.766z"/>
	</g>
	<path id="graph-35_4_" style="fill:#FFFFFF;" d="M300.505,423.999c0-8.195,6.666-14.847,14.873-14.847
		c5.202,0,9.776,2.692,12.429,6.757l99.628-43.051c-0.313-1.189-0.549-2.457-0.549-3.764c0-8.233,6.665-14.833,14.912-14.833
		c8.143,0,14.795,6.561,14.834,14.768l97.648,19.944c2.117-5.607,7.528-9.632,13.854-9.632c4.496,0,8.443,1.999,11.188,5.136
		l101.184-63.125c-0.444-1.412-0.784-2.901-0.784-4.523c0-8.194,6.64-14.847,14.847-14.847c8.208,0,14.873,6.652,14.873,14.847
		c0,8.208-6.665,14.873-14.873,14.873c-4.6,0-8.704-2.144-11.396-5.463L582.119,389.26c0.549,1.542,0.915,3.215,0.915,4.966
		c0,8.182-6.665,14.847-14.899,14.847c-8.104,0-14.689-6.534-14.82-14.638l-97.74-19.97c-2.144,5.515-7.489,9.462-13.775,9.462
		c-4.953,0-9.24-2.405-11.932-6.038l-99.955,43.129c0.209,0.968,0.314,1.961,0.314,2.98c0,8.26-6.652,14.859-14.847,14.859
		C307.171,438.858,300.505,432.259,300.505,423.999z M742.768,686.852H726.98V399.402c0-14.899-12.154-27.054-27.08-27.054h-30.713
		c-14.873,0-27.08,12.154-27.08,27.054v287.449h-34.843V474.917c0-14.899-12.181-27.08-27.106-27.08h-30.687
		c-14.873,0-27.08,12.181-27.08,27.08v211.935h-34.85V451.418c0-14.913-12.193-27.08-27.08-27.08h-30.7
		c-14.886,0-27.106,12.167-27.106,27.08v235.433h-34.817V509.395c0-14.899-12.207-27.08-27.105-27.08h-30.7
		c-14.899,0-27.067,12.181-27.067,27.08v177.457h-17.879c-6.116,0-9.005,4.155-9.005,9.148v3.032c0,4.992,2.889,8.952,9.005,8.952
		h477.682c6.091,0,11.083-4.077,11.083-9.083v-3.006C753.852,690.903,748.859,686.852,742.768,686.852z"/>
</g>
<g id="Layer_1">
</g>
</svg>
