<?xml version="1.0" encoding="iso-8859-1"?>
<!-- Generator: Adobe Illustrator 17.1.0, SVG Export Plug-In . SVG Version: 6.00 Build 0)  -->
<!DOCTYPE svg PUBLIC "-//W3C//DTD SVG 1.1//EN" "http://www.w3.org/Graphics/SVG/1.1/DTD/svg11.dtd">
<svg version="1.1" xmlns="http://www.w3.org/2000/svg" xmlns:xlink="http://www.w3.org/1999/xlink" x="0px" y="0px"
	 viewBox="0 0 1010 1009.961" style="enable-background:new 0 0 1010 1009.961;" xml:space="preserve">
<g id="graph-28">
	<g id="label_28_">
		<path style="fill:#FFFFFF;" d="M504.978,1009.961C226.533,1009.961,0,784.983,0,508.414l0.053-4.443L0,501.566
			C0,225.003,226.533,0,504.978,0C783.455,0,1010,225.003,1010,501.566l-0.078,4.339l0.078,2.51
			C1010,784.983,783.455,1009.961,504.978,1009.961L504.978,1009.961z M504.978,26.766c-263.689,0-478.211,212.993-478.211,474.8
			l0.091,3.254l-0.091,3.594c0,261.801,214.521,474.78,478.211,474.78c263.708,0,478.257-212.979,478.257-474.78l-0.131-3.28
			l0.078-2.366C983.234,239.759,768.685,26.766,504.978,26.766L504.978,26.766z"/>
	</g>
	<path id="graph-28_4_" style="fill:#FFFFFF;" d="M742.782,665.084h-13.827v-236.59h13.932c7.031,0,9.881-4.979,6.404-11.083
		l-51.494-89.173c-3.502-6.077-9.279-6.077-12.781,0l-51.494,89.173c-3.528,6.104-0.653,11.083,6.379,11.083h13.932v236.59h-48.227
		V537.971h13.906c7.031,0,9.906-4.992,6.43-11.109l-51.52-89.153c-3.503-6.09-9.253-6.09-12.782,0l-51.461,89.153
		c-3.516,6.117-0.653,11.109,6.392,11.109h13.912v127.113h-48.22V484.889c0-1.15-0.104-2.195-0.262-3.267h14.181
		c7.019,0,9.92-4.993,6.391-11.057l-51.467-89.186c-3.529-6.09-9.279-6.09-12.795,0l-51.506,89.186
		c-3.503,6.064-0.627,11.057,6.404,11.057h14.193c-0.157,1.072-0.261,2.117-0.261,3.267v180.195h-48.278v-96.923
		c0-1.411-0.144-2.797-0.366-4.156h14.298c7.044,0,9.907-4.993,6.404-11.083l-51.494-89.179c-3.502-6.09-9.279-6.09-12.808,0
		l-51.468,89.179c-3.542,6.09-0.627,11.083,6.404,11.083h14.311c-0.235,1.359-0.405,2.745-0.405,4.156v96.923h-18.637
		c-6.116,0-8.991,4.182-8.991,9.175v3.032c0,4.992,2.875,8.965,8.991,8.965h477.682c6.091,0,11.083-4.077,11.083-9.069v-3.007
		C753.865,669.188,748.873,665.084,742.782,665.084z"/>
</g>
<g id="Layer_1">
</g>
</svg>
