<?xml version="1.0" encoding="iso-8859-1"?>
<!-- Generator: Adobe Illustrator 17.1.0, SVG Export Plug-In . SVG Version: 6.00 Build 0)  -->
<!DOCTYPE svg PUBLIC "-//W3C//DTD SVG 1.1//EN" "http://www.w3.org/Graphics/SVG/1.1/DTD/svg11.dtd">
<svg version="1.1" xmlns="http://www.w3.org/2000/svg" xmlns:xlink="http://www.w3.org/1999/xlink" x="0px" y="0px"
	 viewBox="0 0 1009.98 1009.98" style="enable-background:new 0 0 1009.98 1009.98;" xml:space="preserve">
<g id="graph-14">
	<g id="label_14_">
		<path style="fill:#FFFFFF;" d="M504.977,1009.98C226.533,1009.98,0,785.565,0,509.708l0.131-4.822L0,500.272
			C0,224.428,226.533,0,504.977,0c278.457,0,505.003,224.428,505.003,500.272l-0.118,4.888l0.118,4.548
			C1009.98,785.565,783.435,1009.98,504.977,1009.98L504.977,1009.98z M504.977,26.766c-263.689,0-478.211,212.417-478.211,473.506
			l0.131,4.614l-0.131,4.822c0,261.102,214.522,473.506,478.211,473.506c263.702,0,478.237-212.404,478.237-473.506l-0.117-4.535
			l0.117-4.901C983.214,239.184,768.679,26.766,504.977,26.766L504.977,26.766z"/>
	</g>
	<path id="graph-14_4_" style="fill:#FFFFFF;" d="M724.321,555.308v151.278c0,12.26-9.959,22.166-22.191,22.166h-46.07
		c-12.246,0-22.179-9.906-22.179-22.166V555.308c0-12.285,9.933-22.205,22.179-22.205h46.07
		C714.362,533.103,724.321,543.022,724.321,555.308z M596.868,459.104h-46.03c-12.233,0.013-22.192,9.945-22.192,22.205v225.277l0,0
		c0,12.233,9.959,22.166,22.192,22.166h46.03c12.285,0,22.192-9.933,22.192-22.166V481.309
		C619.061,469.036,609.153,459.116,596.868,459.104z M489.999,386.764h-46.05c-12.233,0.013-22.172,9.946-22.192,22.192V706.56
		c0.02,12.286,9.959,22.192,22.192,22.192h46.05c12.272,0,22.199-9.906,22.199-22.192V408.956
		C512.198,396.71,502.271,386.777,489.999,386.764z M349.935,503.879c-6.287-9.449-12.057-15.801-19.787-15.944
		c-8.443-0.183-15.154,7.449-20.99,15.526l-49.618,62.864l-0.131,0.17c-2.502,3.698-3.293,6.939-3.293,9.593
		c0,2.561,0.758,4.601,1.425,5.907c2.091,3.921,7.234,8.574,19.95,8.574c0,0,3.065,0,6.162,0c0,11.605,0,113.299,0,113.299
		c0,11.239,9.724,20.414,21.669,20.414h48.154c5.672,0,11.057-2.065,15.115-5.803c4.241-3.843,6.567-9.07,6.567-14.611
		c0,0,0-101.693,0-113.299c1.359,0,3.117,0,3.117,0c10.919,0,17.604-2.627,20.5-8.077c1.679-3.163,2.621-8.482-2.594-16.193
		L349.935,503.879z M749.128,303.877l-62.655,5.92c-3.595,0.327-5.28,2.274-3.673,4.313l12.455,15.945
		c-1.006,0.392-1.986,0.889-2.901,1.529l-85.16,60.289L491.307,284.705c-4.326-3.973-10.796-4.653-15.854-1.607L279.386,400.971
		c-6.28,3.777-8.312,11.919-4.535,18.192c2.489,4.156,6.881,6.443,11.397,6.443c2.314,0,4.679-0.614,6.809-1.896l187.539-112.763
		l116.482,107.718c4.64,4.26,11.554,4.718,16.689,1.098l93.904-66.537c1.281-0.889,2.274-1.999,3.137-3.202l16.625,21.316
		c1.607,2.039,3.895,0.902,5.097-2.522l20.977-59.348C754.734,306.06,752.761,303.538,749.128,303.877z"/>
</g>
<g id="Layer_1">
</g>
</svg>
