<?xml version="1.0" encoding="iso-8859-1"?>
<!-- Generator: Adobe Illustrator 17.1.0, SVG Export Plug-In . SVG Version: 6.00 Build 0)  -->
<!DOCTYPE svg PUBLIC "-//W3C//DTD SVG 1.1//EN" "http://www.w3.org/Graphics/SVG/1.1/DTD/svg11.dtd">
<svg version="1.1" xmlns="http://www.w3.org/2000/svg" xmlns:xlink="http://www.w3.org/1999/xlink" x="0px" y="0px"
	 viewBox="0 0 1010 1010" style="enable-background:new 0 0 1010 1010;" xml:space="preserve">
<g id="graph-22">
	<g id="label_22_">
		<path style="fill:#FFFFFF;" d="M504.978,1010C226.533,1010,0,783.742,0,505.657v-1.372C0,226.219,226.533,0,504.978,0
			c278.451,0,504.971,226.219,504.971,504.285l0.052,1.372C1010,783.742,783.455,1010,504.978,1010L504.978,1010z M504.978,26.767
			c-263.689,0-478.211,214.208-478.211,477.518l-0.013,1.778C26.767,769,241.288,983.234,504.978,983.234
			c263.708,0,478.257-214.234,478.257-477.577l-0.053-1.372C983.182,240.975,768.66,26.767,504.978,26.767L504.978,26.767z"/>
	</g>
	<g id="graph-22_4_">
		<path style="fill:#FFFFFF;" d="M505.003,682.768c98.171,0,177.764-79.593,177.764-177.764
			c0-98.178-79.593-177.771-177.764-177.771c-0.418,0-0.81,0.065-1.254,0.065v42.593c-1.255,0.026-2.522,0.183-3.777,0.235
			c1.686-0.079,3.307-0.262,5.032-0.262c74.62,0,135.131,60.485,135.131,135.138c0,74.62-60.512,135.131-135.131,135.131
			c-74.653,0-135.138-60.512-135.138-135.131c0-1.529,0.157-3.006,0.235-4.496c-0.052,1.438-0.235,2.875-0.235,4.339h-42.606
			c0,0.052,0,0.104,0,0.157C327.259,603.175,406.826,682.768,505.003,682.768z"/>
		<path style="fill:#FFFFFF;" d="M505.003,256.109c-0.588,0-1.163,0.039-1.751,0.039v59.688c-1.673,0.013-3.28,0.261-4.992,0.3
			c2.261-0.065,4.47-0.353,6.744-0.353c104.497,0,189.187,84.742,189.187,189.219c0,104.497-84.69,189.187-189.187,189.187
			c-104.503,0-189.193-84.69-189.193-189.187c0-2.667,0.287-5.28,0.392-7.946c-0.104,2.575-0.392,5.097-0.392,7.685h-59.688
			c0,0.104-0.013,0.183-0.013,0.261c0,137.457,111.43,248.862,248.894,248.862c137.457,0,248.862-111.404,248.862-248.862
			C753.865,367.539,642.461,256.109,505.003,256.109z"/>
		<path style="fill:#FFFFFF;" d="M505.003,628.712c68.321,0,123.71-55.414,123.71-123.708c0-68.314-55.389-123.702-123.71-123.702
			c-0.444,0-0.889,0.065-1.293,0.065v46.828c-0.784,0.013-1.529,0.131-2.287,0.17c1.176-0.066,2.378-0.183,3.581-0.183
			c42.417,0,76.842,34.372,76.842,76.822c0,42.417-34.426,76.842-76.842,76.842c-42.45,0-76.848-34.426-76.848-76.842
			c0-0.902,0.131-1.764,0.143-2.64c-0.013,0.81-0.104,1.621-0.104,2.444h-46.88c0,0.091,0,0.144,0,0.196
			C381.314,573.298,436.689,628.712,505.003,628.712z"/>
	</g>
</g>
<g id="Layer_1">
</g>
</svg>
