<?xml version="1.0" encoding="iso-8859-1"?>
<!-- Generator: Adobe Illustrator 17.1.0, SVG Export Plug-In . SVG Version: 6.00 Build 0)  -->
<!DOCTYPE svg PUBLIC "-//W3C//DTD SVG 1.1//EN" "http://www.w3.org/Graphics/SVG/1.1/DTD/svg11.dtd">
<svg version="1.1" xmlns="http://www.w3.org/2000/svg" xmlns:xlink="http://www.w3.org/1999/xlink" x="0px" y="0px"
	 viewBox="0 0 1010 1009.98" style="enable-background:new 0 0 1010 1009.98;" xml:space="preserve">
<g id="graph-4">
	<g id="label_4_">
		<path style="fill:#FFFFFF;" d="M504.978,1009.98C226.533,1009.98,0,789.12,0,517.635c0-2.935,0.105-5.849,0.196-8.757l0.131-4.208
			l-0.131-3.594C0.092,498.174,0,495.279,0,492.358C0,220.874,226.533,0,504.978,0C783.455,0,1010,220.874,1010,492.358
			c0,2.882-0.104,5.737-0.209,8.6l-0.131,4.379l0.131,3.666c0.104,2.861,0.209,5.736,0.209,8.632
			C1010,789.12,783.455,1009.98,504.978,1009.98L504.978,1009.98z M504.978,26.766c-263.689,0-478.211,208.863-478.211,465.592
			c0,2.614,0.091,5.202,0.183,7.79l0.144,4.522l-0.144,5.136c-0.091,2.602-0.183,5.202-0.183,7.829
			c0,256.717,214.521,465.579,478.211,465.579c263.708,0,478.257-208.862,478.257-465.579c0-2.575-0.105-5.123-0.184-7.672
			l-0.156-4.626l0.156-5.345c0.078-2.536,0.184-5.071,0.184-7.633C983.234,235.629,768.685,26.766,504.978,26.766L504.978,26.766z"
			/>
	</g>
	<g id="graph-4_4_">
		<path style="fill:#FFFFFF;" d="M500.665,389.633c62.23,0,113.07,49.52,115.292,111.194h8.731L592.51,533.05l-32.228-32.223h8.494
			c-2.169-35.692-31.889-64.092-68.111-64.092c-37.614,0-68.223,30.622-68.223,68.255c0,37.64,30.609,68.249,68.223,68.249v47.102
			c-63.596,0-115.351-51.729-115.351-115.351C385.314,441.374,437.068,389.633,500.665,389.633z"/>
		<path style="fill:#FFFFFF;" d="M500.665,322.867c99.085,0,179.933,79.534,182.077,178.117h8.626l-32.203,32.223l-32.203-32.223
			h8.678c-2.143-72.614-61.844-131.008-134.974-131.008c-74.444,0-135.021,60.571-135.021,135.014s60.577,135.007,135.021,135.007
			V687.1c-100.399,0-182.11-81.683-182.11-182.109C318.555,404.558,400.265,322.867,500.665,322.867z"/>
		<path style="fill:#FFFFFF;" d="M324.671,329.003c47.024-47.011,109.509-72.888,175.993-72.888
			c66.464,0,128.962,25.877,175.987,72.888c46.057,46.05,71.829,106.993,72.849,171.981h8.73l-32.229,32.223l-32.203-32.223h8.6
			c-2.17-109.418-91.801-197.767-201.734-197.767c-111.26,0-201.766,90.519-201.766,201.772
			c0,111.247,90.506,201.766,201.766,201.766v47.103c-66.484,0-128.969-25.877-175.993-72.889
			c-46.998-47.011-72.901-109.509-72.901-175.98C251.77,438.513,277.674,376.02,324.671,329.003z"/>
	</g>
</g>
<g id="Layer_1">
</g>
</svg>
