<?xml version="1.0" encoding="iso-8859-1"?>
<!-- Generator: Adobe Illustrator 17.1.0, SVG Export Plug-In . SVG Version: 6.00 Build 0)  -->
<!DOCTYPE svg PUBLIC "-//W3C//DTD SVG 1.1//EN" "http://www.w3.org/Graphics/SVG/1.1/DTD/svg11.dtd">
<svg version="1.1" xmlns="http://www.w3.org/2000/svg" xmlns:xlink="http://www.w3.org/1999/xlink" x="0px" y="0px"
	 viewBox="0 0 1009.98 1009.98" style="enable-background:new 0 0 1009.98 1009.98;" xml:space="preserve">
<g id="graph-17">
	<g id="label_17_">
		<path style="fill:#FFFFFF;" d="M504.964,1009.98C226.52,1009.98,0,785.565,0,509.722l0.118-4.94L0,500.298
			C0,224.428,226.52,0,504.964,0c278.471,0,505.017,224.428,505.017,500.298l-0.131,5.045l0.118,4.379
			C1009.968,785.565,783.422,1009.98,504.964,1009.98L504.964,1009.98z M504.964,26.766c-263.676,0-478.198,212.431-478.198,473.532
			l0.118,4.483l-0.118,4.94c0,261.088,214.522,473.492,478.198,473.492c263.702,0,478.237-212.404,478.237-473.492l-0.118-4.366
			l0.131-5.058C983.214,239.197,768.666,26.766,504.964,26.766L504.964,26.766z"/>
	</g>
	<path id="graph-17_4_" style="fill:#FFFFFF;" d="M753.858,400.343c0.209,9.528-6.482,13.605-14.847,9.005l-26.753-14.677
		L603.272,594.464H501.03l-93.891,113.43h-151.03v-38.607h132.877l93.891-113.43h97.498l98.047-179.77l-27.002-14.794
		c-8.338-4.614-8.521-12.416-0.366-17.396l85.422-51.794c8.169-4.953,15.004-1.202,15.227,8.352L753.858,400.343z M718.479,269.165
		h-56.028c-5.149,0-9.319,4.182-9.319,9.345v49.102l74.692-45.298v-3.803C727.824,273.347,723.642,269.165,718.479,269.165z
		 M653.132,529.979v201.505c0,5.149,4.17,9.332,9.319,9.332h56.028c5.162,0,9.345-4.183,9.345-9.332V417.869l-10.456-5.711
		L653.132,529.979z M519.98,504.219h-56.028c-5.162,0-9.332,4.208-9.332,9.358v56.225l22.218-26.806H529.3v-29.419
		C529.3,508.427,525.13,504.219,519.98,504.219z M454.621,670.697v60.786c0,5.149,4.169,9.332,9.332,9.332h56.028
		c5.149,0,9.319-4.183,9.319-9.332V607.337h-22.244L454.621,670.697z M625.255,446.687c-1.62-1.398-3.711-2.274-6.024-2.274h-56.029
		c-5.136,0-9.331,4.183-9.331,9.345v89.238h18.872L625.255,446.687z M610.931,607.337h-57.06v124.147
		c0,5.149,4.195,9.332,9.331,9.332h56.029c5.149,0,9.345-4.183,9.345-9.332v-156.48L610.931,607.337z M321.495,623.87h-56.016
		c-5.176,0-9.371,4.182-9.371,9.344v23.212h74.718v-23.212C330.827,628.052,326.645,623.87,321.495,623.87z M256.109,731.483
		c0,5.149,4.195,9.332,9.371,9.332h56.016c5.149,0,9.331-4.183,9.331-9.332v-10.717h-74.718V731.483z M355.384,720.767v10.717
		c0,5.149,4.169,9.332,9.332,9.332h56.003c5.175,0,9.331-4.183,9.331-9.332v-31.118l-16.859,20.401H355.384z M420.719,599.129
		h-56.003c-5.162,0-9.332,4.183-9.332,9.345v47.952h27.55l44.776-54.107C425.999,600.371,423.542,599.129,420.719,599.129z"/>
</g>
<g id="Layer_1">
</g>
</svg>
