<?xml version="1.0" encoding="iso-8859-1"?>
<!-- Generator: Adobe Illustrator 17.1.0, SVG Export Plug-In . SVG Version: 6.00 Build 0)  -->
<!DOCTYPE svg PUBLIC "-//W3C//DTD SVG 1.1//EN" "http://www.w3.org/Graphics/SVG/1.1/DTD/svg11.dtd">
<svg version="1.1" xmlns="http://www.w3.org/2000/svg" xmlns:xlink="http://www.w3.org/1999/xlink" x="0px" y="0px"
	 viewBox="0 0 1009.98 1009.961" style="enable-background:new 0 0 1009.98 1009.961;" xml:space="preserve">
<g id="graph-26">
	<g id="label_26_">
		<path style="fill:#FFFFFF;" d="M504.977,1009.961C226.533,1009.961,0,784.957,0,508.401l0.059-4.535L0,501.566
			C0,225.003,226.533,0,504.977,0c278.457,0,505.003,225.003,505.003,501.566l-0.053,4.483l0.053,2.352
			C1009.98,784.957,783.435,1009.961,504.977,1009.961L504.977,1009.961z M504.977,26.766c-263.689,0-478.211,212.993-478.211,474.8
			l0.098,3.411l-0.059,2.287c-0.04,262.951,214.482,475.931,478.171,475.931c263.702,0,478.237-212.979,478.237-474.794
			l-0.092-3.267l0.092-3.568C983.214,239.759,768.679,26.766,504.977,26.766L504.977,26.766z"/>
	</g>
	<path id="graph-26_4_" style="fill:#FFFFFF;" d="M517.484,338.093l44.148-76.43c4.248-7.424,11.253-7.424,15.526,0l44.136,76.43
		c4.274,7.424,0.798,13.462-7.763,13.462h-18.494V670.6h-51.284V351.555h-18.506C516.714,351.555,513.211,345.517,517.484,338.093z
		 M746.305,706.253h-21.905v-265.33h18.507c8.548,0,12.05-6.064,7.763-13.488l-44.148-76.43c-4.273-7.397-11.266-7.397-15.526,0
		l-44.148,76.43c-4.261,7.424-0.771,13.488,7.79,13.488h18.479v265.33h-78.077V684.95h-51.284v21.304h-78.083V537.03h18.48
		c8.554,0,12.043-6.038,7.763-13.436l-44.129-76.449c-4.267-7.397-11.272-7.397-15.526,0l-44.155,76.449
		c-4.273,7.398-0.777,13.436,7.77,13.436h18.513v169.224H336.29V606.037h18.486c8.561,0,12.05-6.038,7.783-13.435l-44.143-76.449
		c-4.28-7.411-11.252-7.411-15.552,0l-44.123,76.449c-4.273,7.397-0.791,13.435,7.77,13.435h18.5v100.217h-21.303
		c-3.745,0-6.796,3.032-6.796,6.796v34.007c0,3.764,3.052,6.796,6.796,6.796h482.596c3.737,0,6.782-3.032,6.782-6.796v-34.007
		C753.087,709.286,750.042,706.253,746.305,706.253z"/>
</g>
<g id="Layer_1">
</g>
</svg>
