<?xml version="1.0" encoding="iso-8859-1"?>
<!-- Generator: Adobe Illustrator 17.1.0, SVG Export Plug-In . SVG Version: 6.00 Build 0)  -->
<!DOCTYPE svg PUBLIC "-//W3C//DTD SVG 1.1//EN" "http://www.w3.org/Graphics/SVG/1.1/DTD/svg11.dtd">
<svg version="1.1" xmlns="http://www.w3.org/2000/svg" xmlns:xlink="http://www.w3.org/1999/xlink" x="0px" y="0px"
	 viewBox="0 0 1009.98 1009.961" style="enable-background:new 0 0 1009.98 1009.961;" xml:space="preserve">
<g id="graph-27">
	<g id="label_27_">
		<path style="fill:#FFFFFF;" d="M504.964,1009.961C226.526,1009.961,0,784.957,0,508.375l0.052-4.601L0,501.527
			C0,224.991,226.526,0,504.964,0c278.458,0,505.017,224.991,505.017,501.527l-0.053,4.562l0.053,2.287
			C1009.98,784.957,783.422,1009.961,504.964,1009.961L504.964,1009.961z M504.964,26.766
			c-263.676,0-478.198,212.979-478.198,474.761l0.085,3.438l-0.052,2.195c-0.033,263.029,214.489,476.035,478.165,476.035
			c263.715,0,478.25-213.006,478.25-474.819l-0.092-3.333l0.092-3.516C983.214,239.746,768.679,26.766,504.964,26.766
			L504.964,26.766z"/>
	</g>
	<g id="graph-27_4_">
		<polygon style="fill:#FFFFFF;" points="723.25,296.258 723.25,753.852 643.683,753.852 643.683,296.258 683.467,256.096 		"/>
		<polygon style="fill:#FFFFFF;" points="604.266,407.962 604.266,753.852 524.699,753.852 524.699,407.962 564.482,367.8 		"/>
		<polygon style="fill:#FFFFFF;" points="485.269,465.756 485.269,753.852 405.715,753.852 405.715,465.756 445.479,425.58 		"/>
		<polygon style="fill:#FFFFFF;" points="366.284,629.771 366.284,753.852 286.724,753.852 286.724,629.771 326.514,589.622 		"/>
	</g>
</g>
<g id="Layer_1">
</g>
</svg>
