<?xml version="1.0" encoding="iso-8859-1"?>
<!-- Generator: Adobe Illustrator 17.1.0, SVG Export Plug-In . SVG Version: 6.00 Build 0)  -->
<!DOCTYPE svg PUBLIC "-//W3C//DTD SVG 1.1//EN" "http://www.w3.org/Graphics/SVG/1.1/DTD/svg11.dtd">
<svg version="1.1" xmlns="http://www.w3.org/2000/svg" xmlns:xlink="http://www.w3.org/1999/xlink" x="0px" y="0px"
	 viewBox="0 0 1009.98 1009.98" style="enable-background:new 0 0 1009.98 1009.98;" xml:space="preserve">
<g id="graph-8">
	<g id="label_8_">
		<path style="fill:#FFFFFF;" d="M504.938,1009.98C226.52,1009.98,0,787.343,0,513.681c0-1.881,0.052-3.737,0.118-5.594l0.105-3.358
			l-0.105-2.849C0.052,500.011,0,498.142,0,496.26C0,222.625,226.52,0,504.938,0c278.484,0,505.042,222.625,505.042,496.26
			c0,2.025-0.065,4.025-0.143,6.038l-0.105,3.006l0.105,2.379c0.078,1.999,0.143,3.986,0.143,5.998
			C1009.98,787.343,783.422,1009.98,504.938,1009.98L504.938,1009.98z M504.938,26.766c-263.663,0-478.172,210.614-478.172,469.494
			c0,1.581,0.052,3.137,0.105,4.692l0.117,3.777l-0.117,4.287c-0.053,1.556-0.105,3.097-0.105,4.665
			c0,258.906,214.509,469.533,478.172,469.533c263.728,0,478.276-210.627,478.276-469.533c0-1.672-0.065-3.332-0.117-5.005
			l-0.117-3.372l0.104-3.999c0.065-1.687,0.131-3.359,0.131-5.045C983.214,237.38,768.666,26.766,504.938,26.766L504.938,26.766z"/>
	</g>
	<path id="graph-8_4_" style="fill:#FFFFFF;" d="M753.872,719.63c0,6.979-5.62,12.625-12.586,12.625H268.721
		c-3.346,0-6.548-1.347-8.939-3.699c-2.353-2.339-3.659-5.633-3.659-8.926V290.364c0-7.005,5.594-12.638,12.599-12.638
		c6.94,0,12.586,5.633,12.586,12.638v182.397h14.965c2.548,0,4.613,4.771,4.613,10.547c0,5.725-2.065,10.495-4.613,10.495h-14.965
		v213.241h74.509c-1.281-2.811-2.052-5.842-2.052-8.992V532.515c0-11.906,9.75-21.578,21.643-21.578h32.372
		c11.854,0,21.63,9.672,21.63,21.578v165.537c0,3.15-0.771,6.182-2.091,8.992h65.544c-1.268-2.811-2.026-5.842-2.026-8.992V340.367
		c0-11.893,9.75-21.643,21.656-21.643h32.294c11.893,0,21.67,9.75,21.67,21.643v357.685c0,3.15-0.732,6.182-2.053,8.992h65.505
		c-1.281-2.811-2.052-5.842-2.052-8.992V434.859c0-11.906,9.775-21.643,21.669-21.643h32.32c11.867,0,21.656,9.736,21.656,21.643
		v263.192c0,3.15-0.745,6.182-2.052,8.992h39.836C748.252,707.044,753.872,712.702,753.872,719.63z"/>
</g>
<g id="Layer_1">
</g>
</svg>
