<?xml version="1.0" encoding="iso-8859-1"?>
<!-- Generator: Adobe Illustrator 17.1.0, SVG Export Plug-In . SVG Version: 6.00 Build 0)  -->
<!DOCTYPE svg PUBLIC "-//W3C//DTD SVG 1.1//EN" "http://www.w3.org/Graphics/SVG/1.1/DTD/svg11.dtd">
<svg version="1.1" xmlns="http://www.w3.org/2000/svg" xmlns:xlink="http://www.w3.org/1999/xlink" x="0px" y="0px"
	 viewBox="0 0 1009.98 1009.98" style="enable-background:new 0 0 1009.98 1009.98;" xml:space="preserve">
<g id="graph-6">
	<g id="label_6_">
		<path style="fill:#FFFFFF;" d="M505.003,1009.98C226.546,1009.98,0,789.106,0,517.615c0-2.777,0.092-5.542,0.183-8.306
			l0.144-4.613l-0.13-4.019C0.092,497.913,0,495.143,0,492.346C0,220.867,226.546,0,505.003,0
			c278.445,0,504.977,220.867,504.977,492.346c0,3.051-0.104,6.07-0.209,9.083l-0.131,3.934l0.131,3.183
			c0.104,3.018,0.209,6.038,0.209,9.07C1009.98,789.106,783.448,1009.98,505.003,1009.98L505.003,1009.98z M505.003,26.766
			c-263.702,0-478.237,208.856-478.237,465.58c0,2.489,0.091,4.946,0.17,7.403l0.157,4.954l-0.157,5.535
			c-0.079,2.457-0.17,4.914-0.17,7.378c0,256.736,214.535,465.599,478.237,465.599c263.689,0,478.211-208.862,478.211-465.599
			c0-2.712-0.104-5.411-0.195-8.109l-0.144-4.144l0.144-4.895c0.091-2.698,0.195-5.391,0.195-8.122
			C983.214,235.622,768.692,26.766,505.003,26.766L505.003,26.766z"/>
	</g>
	<path id="graph-6_4_" style="fill:#FFFFFF;" d="M554.001,451.987l66.301-184.796c53.48,19.474,96.139,61.263,116.972,114.07
		L554.001,451.987z M256.109,504.99c0,137.451,111.43,248.854,248.894,248.868l0,0c137.438-0.014,248.843-111.417,248.869-248.868
		l0,0c0-32.184-6.209-62.942-17.317-91.146l-4.195-10.639l-205.883,79.456l74.509-207.635l-10.77-3.92l0,0
		c-26.583-9.698-55.31-14.991-85.213-14.991l0,0C367.539,256.115,256.109,367.532,256.109,504.99L256.109,504.99z M345.295,345.314
		c40.894-40.914,97.288-66.164,159.708-66.164l0,0c23.12,0,45.456,3.482,66.459,9.939l-83.671,233.178l23.485-9.057l207.766-80.188
		l0,0c7.632,22.61,11.788,46.775,11.788,71.967l0,0c-0.013,62.406-25.237,118.774-66.171,159.683l0,0
		c-40.881,40.895-97.263,66.131-159.656,66.157l0,0c-62.419-0.026-118.814-25.263-159.708-66.157l0,0
		c-40.895-40.908-66.132-97.276-66.132-159.683l0,0C279.163,442.59,304.4,386.188,345.295,345.314L345.295,345.314z
		 M517.994,506.362l-10.848-3.888L517.994,506.362L517.994,506.362z"/>
</g>
<g id="Layer_1">
</g>
</svg>
