<?xml version="1.0" encoding="iso-8859-1"?>
<!-- Generator: Adobe Illustrator 17.1.0, SVG Export Plug-In . SVG Version: 6.00 Build 0)  -->
<!DOCTYPE svg PUBLIC "-//W3C//DTD SVG 1.1//EN" "http://www.w3.org/Graphics/SVG/1.1/DTD/svg11.dtd">
<svg version="1.1" xmlns="http://www.w3.org/2000/svg" xmlns:xlink="http://www.w3.org/1999/xlink" x="0px" y="0px"
	 viewBox="0 0 1009.98 1010" style="enable-background:new 0 0 1009.98 1010;" xml:space="preserve">
<g id="graph-21">
	<g id="label_21_">
		<path style="fill:#FFFFFF;" d="M504.977,1010C226.533,1010,0,783.768,0,505.683v-1.385C0,226.232,226.533,0,504.977,0
			c278.457,0,505.003,226.232,505.003,504.298v1.385C1009.98,783.768,783.435,1010,504.977,1010L504.977,1010z M504.977,26.767
			c-263.689,0-478.211,214.221-478.211,477.531v1.62c0,263.082,214.522,477.316,478.211,477.316
			c263.702,0,478.237-214.234,478.237-477.551v-1.398C983.214,240.987,768.679,26.767,504.977,26.767L504.977,26.767z"/>
	</g>
	<path id="graph-21_4_" style="fill:#FFFFFF;" d="M753.858,674.403v30.582H286.717h-30.602v-30.582V350.026h30.602v324.377H753.858z
		 M377.877,502.311c0-11.684-9.561-21.264-21.258-21.264h-26.57c-11.69,0-21.257,9.58-21.257,21.264v151.992h69.085V502.311z
		 M439.95,438.506c-11.69,0-21.258,9.567-21.258,21.251v194.546h69.079V459.757c0-11.684-9.56-21.251-21.258-21.251H439.95z
		 M549.845,481.047c-11.685,0-21.251,9.58-21.251,21.264v151.992h69.085V502.311c0-11.684-9.566-21.264-21.251-21.264H549.845z
		 M686.315,395.965h-26.557c-11.711,0-21.251,9.58-21.251,21.264v237.074h69.071V417.229
		C707.579,405.545,698.026,395.965,686.315,395.965z M354.247,453.902l101.458-81.541l93.251,83.292
		c2.025,1.816,4.56,2.718,7.109,2.718c2.641,0,5.307-0.967,7.371-2.967L676.383,346.34l22.688,22.702h5.881v-64.053h-64.053v5.881
		l20.428,20.44L555.765,433.226l-92.61-82.743c-3.881-3.489-9.704-3.646-13.743-0.366L340.923,437.33
		c-4.587,3.685-5.306,10.377-1.634,14.964C342.975,456.855,349.673,457.587,354.247,453.902z"/>
</g>
<g id="Layer_1">
</g>
</svg>
