<?xml version="1.0" encoding="iso-8859-1"?>
<!-- Generator: Adobe Illustrator 17.1.0, SVG Export Plug-In . SVG Version: 6.00 Build 0)  -->
<!DOCTYPE svg PUBLIC "-//W3C//DTD SVG 1.1//EN" "http://www.w3.org/Graphics/SVG/1.1/DTD/svg11.dtd">
<svg version="1.1" xmlns="http://www.w3.org/2000/svg" xmlns:xlink="http://www.w3.org/1999/xlink" x="0px" y="0px"
	 viewBox="0 0 1009.98 1009.98" style="enable-background:new 0 0 1009.98 1009.98;" xml:space="preserve">
<g id="graph-3">
	<g id="label_3_">
		<path style="fill:#FFFFFF;" d="M504.964,1009.98C226.533,1009.98,0,789.106,0,517.615c0-3.144,0.105-6.254,0.209-9.364
			l0.118-3.647l-0.118-2.914C0.105,498.58,0,495.476,0,492.346C0,220.867,226.533,0,504.964,0
			c278.458,0,505.017,220.867,505.017,492.346c0,3.273-0.118,6.528-0.235,9.782l-0.104,3.261l0.104,2.425
			c0.117,3.254,0.235,6.515,0.235,9.802C1009.98,789.106,783.422,1009.98,504.964,1009.98L504.964,1009.98z M504.964,26.766
			c-263.676,0-478.198,208.856-478.198,465.58c0,2.823,0.105,5.626,0.196,8.436l0.118,3.823l-0.118,4.555
			c-0.091,2.811-0.196,5.62-0.196,8.456c0,256.736,214.522,465.599,478.198,465.599c263.702,0,478.25-208.862,478.25-465.599
			c0-2.967-0.104-5.914-0.209-8.855l-0.117-3.365l0.117-4.222c0.104-2.941,0.209-5.875,0.209-8.828
			C983.214,235.622,768.666,26.766,504.964,26.766L504.964,26.766z"/>
	</g>
	<g id="graph-3_4_">
		<path style="fill:#FFFFFF;" d="M292.586,257.436h-36.477v495.116h2.666l0,0h495.083v-36.517H292.586V257.436z"/>
		<rect x="348.065" y="438.336" style="fill:#FFFFFF;" width="66.98" height="32.628"/>
		<rect x="348.065" y="488.13" style="fill:#FFFFFF;" width="66.98" height="32.634"/>
		<rect x="348.065" y="537.899" style="fill:#FFFFFF;" width="66.98" height="32.646"/>
		<rect x="348.065" y="587.693" style="fill:#FFFFFF;" width="66.98" height="32.608"/>
		<rect x="348.065" y="637.449" style="fill:#FFFFFF;" width="66.98" height="32.634"/>
		<rect x="445.916" y="338.767" style="fill:#FFFFFF;" width="66.968" height="32.641"/>
		<rect x="445.916" y="388.561" style="fill:#FFFFFF;" width="66.968" height="32.588"/>
		<rect x="445.916" y="438.336" style="fill:#FFFFFF;" width="66.968" height="32.628"/>
		<rect x="445.916" y="488.13" style="fill:#FFFFFF;" width="66.968" height="32.634"/>
		<rect x="445.916" y="537.899" style="fill:#FFFFFF;" width="66.968" height="32.646"/>
		<rect x="445.916" y="587.693" style="fill:#FFFFFF;" width="66.968" height="32.608"/>
		<rect x="445.916" y="637.449" style="fill:#FFFFFF;" width="66.968" height="32.634"/>
		<rect x="543.754" y="488.13" style="fill:#FFFFFF;" width="66.981" height="32.634"/>
		<rect x="543.754" y="537.899" style="fill:#FFFFFF;" width="66.981" height="32.646"/>
		<rect x="543.754" y="587.693" style="fill:#FFFFFF;" width="66.981" height="32.608"/>
		<rect x="543.754" y="637.449" style="fill:#FFFFFF;" width="66.981" height="32.634"/>
		<rect x="641.592" y="587.693" style="fill:#FFFFFF;" width="67.007" height="32.608"/>
		<rect x="641.592" y="637.449" style="fill:#FFFFFF;" width="67.007" height="32.634"/>
	</g>
</g>
<g id="Layer_1">
</g>
</svg>
