<?xml version="1.0" encoding="iso-8859-1"?>
<!-- Generator: Adobe Illustrator 17.1.0, SVG Export Plug-In . SVG Version: 6.00 Build 0)  -->
<!DOCTYPE svg PUBLIC "-//W3C//DTD SVG 1.1//EN" "http://www.w3.org/Graphics/SVG/1.1/DTD/svg11.dtd">
<svg version="1.1" xmlns="http://www.w3.org/2000/svg" xmlns:xlink="http://www.w3.org/1999/xlink" x="0px" y="0px"
	 viewBox="0 0 1009.961 1009.98" style="enable-background:new 0 0 1009.961 1009.98;" xml:space="preserve">
<g id="graph-11">
	<g id="label_11_">
		<path style="fill:#FFFFFF;" d="M504.964,1009.98C226.52,1009.98,0,787.355,0,513.707c0-1.986,0.065-3.96,0.13-5.946l0.091-3.058
			l-0.091-2.47C0.065,500.259,0,498.299,0,496.299C0,222.638,226.52,0,504.964,0c278.451,0,504.997,222.638,504.997,496.299
			c0,1.908-0.053,3.803-0.131,5.698l-0.105,3.477l0.105,2.797c0.078,1.816,0.131,3.62,0.131,5.437
			C1009.961,787.355,783.415,1009.98,504.964,1009.98L504.964,1009.98z M504.964,26.766c-263.676,0-478.198,210.628-478.198,469.533
			c0,1.686,0.065,3.346,0.118,5.018l0.104,3.385l-0.104,3.973c-0.053,1.673-0.118,3.346-0.118,5.031
			c0,258.892,214.523,469.507,478.198,469.507c263.708,0,478.23-210.614,478.23-469.507c0-1.477-0.053-2.953-0.104-4.417
			l-0.131-3.803l0.131-4.457c0.052-1.568,0.104-3.15,0.104-4.731C983.194,237.394,768.672,26.766,504.964,26.766L504.964,26.766z"/>
	</g>
	<g id="graph-11_4_">
		<g>
			<path style="fill:#FFFFFF;" d="M309.732,306.518v87.147H730.98v-87.147H309.732z M720.08,382.765H593.019v-65.36H720.08V382.765z
				"/>
			<path style="fill:#FFFFFF;" d="M309.732,584.374v87.16H730.98v-87.16H309.732z M720.08,660.634H593.019v-65.36H720.08V660.634z"
				/>
			<path style="fill:#FFFFFF;" d="M309.732,445.446v87.16H730.98v-87.16H309.732z M720.08,521.706H507.656v-65.36H720.08V521.706z"
				/>
			<polygon style="fill:#FFFFFF;" points="736.548,703.476 285.083,703.476 285.083,294.833 273.452,294.833 273.452,715.159 
				736.548,715.159 			"/>
		</g>
	</g>
</g>
<g id="Layer_1">
</g>
</svg>
