<?xml version="1.0" encoding="iso-8859-1"?>
<!-- Generator: Adobe Illustrator 17.1.0, SVG Export Plug-In . SVG Version: 6.00 Build 0)  -->
<!DOCTYPE svg PUBLIC "-//W3C//DTD SVG 1.1//EN" "http://www.w3.org/Graphics/SVG/1.1/DTD/svg11.dtd">
<svg version="1.1" xmlns="http://www.w3.org/2000/svg" xmlns:xlink="http://www.w3.org/1999/xlink" x="0px" y="0px"
	 viewBox="0 0 1009.98 1010" style="enable-background:new 0 0 1009.98 1010;" xml:space="preserve">
<g id="graph-20">
	<g id="label_20_">
		<path style="fill:#FFFFFF;" d="M504.983,1010C226.533,1010,0,783.768,0,505.683l0.052-1.346C0,226.232,226.533,0,504.983,0
			c278.465,0,504.997,226.232,504.997,504.298v1.385C1009.98,783.768,783.448,1010,504.983,1010L504.983,1010z M504.983,26.767
			c-263.688,0-478.217,214.221-478.217,477.531l-0.02,1.999C26.766,769,241.295,983.234,504.983,983.234
			c263.695,0,478.23-214.234,478.23-477.551v-1.385C983.214,240.987,768.679,26.767,504.983,26.767L504.983,26.767z"/>
	</g>
	<g id="graph-20_4_">
		<g>
			<rect x="256.122" y="351.385" style="fill:#FFFFFF;" width="56.773" height="15.552"/>
			<rect x="256.122" y="446.008" style="fill:#FFFFFF;" width="56.773" height="15.553"/>
			<rect x="256.122" y="540.624" style="fill:#FFFFFF;" width="56.773" height="15.553"/>
			<rect x="256.122" y="635.247" style="fill:#FFFFFF;" width="56.773" height="15.553"/>
		</g>
		<polygon style="fill:#FFFFFF;" points="753.872,743.566 276.745,743.566 276.745,266.434 292.298,266.434 292.298,728.014 
			753.872,728.014 753.872,743.566 		"/>
		<rect x="349.307" y="384.66" style="fill:#FFFFFF;" width="78.495" height="300.826"/>
		<rect x="486.66" y="437.226" style="fill:#FFFFFF;" width="78.462" height="248.261"/>
		<rect x="623.975" y="350.222" style="fill:#FFFFFF;" width="78.481" height="335.265"/>
	</g>
</g>
<g id="Layer_1">
</g>
</svg>
