<?xml version="1.0" encoding="iso-8859-1"?>
<!-- Generator: Adobe Illustrator 17.1.0, SVG Export Plug-In . SVG Version: 6.00 Build 0)  -->
<!DOCTYPE svg PUBLIC "-//W3C//DTD SVG 1.1//EN" "http://www.w3.org/Graphics/SVG/1.1/DTD/svg11.dtd">
<svg version="1.1" xmlns="http://www.w3.org/2000/svg" xmlns:xlink="http://www.w3.org/1999/xlink" x="0px" y="0px"
	 viewBox="0 0 1009.961 1009.98" style="enable-background:new 0 0 1009.961 1009.98;" xml:space="preserve">
<g id="graph-5">
	<g id="label_5_">
		<path style="fill:#FFFFFF;" d="M504.964,1009.98C226.52,1009.98,0,789.106,0,517.615c0-3.045,0.105-6.071,0.209-9.09l0.131-3.921
			l-0.131-3.195C0.105,498.396,0,495.377,0,492.346C0,220.867,226.52,0,504.964,0c278.451,0,504.997,220.867,504.997,492.346
			c0,2.686-0.079,5.358-0.184,8.031l-0.131,4.849l0.131,4.339c0.104,2.673,0.184,5.352,0.184,8.051
			C1009.961,789.106,783.415,1009.98,504.964,1009.98L504.964,1009.98z M504.964,26.766c-263.676,0-478.198,208.856-478.198,465.58
			c0,2.712,0.104,5.404,0.196,8.103l0.143,4.156l-0.143,4.881c-0.092,2.706-0.196,5.404-0.196,8.13
			c0,256.736,214.523,465.599,478.198,465.599c263.708,0,478.23-208.862,478.23-465.599c0-2.398-0.079-4.776-0.157-7.155
			l-0.156-5.234l0.156-5.744c0.078-2.379,0.157-4.751,0.157-7.136C983.194,235.622,768.672,26.766,504.964,26.766L504.964,26.766z"
			/>
	</g>
	<g id="graph-5_4_">
		<path style="fill:#FFFFFF;" d="M268.747,717.003c-6.953,0-12.665,5.672-12.665,12.65c0,6.992,5.712,12.651,12.665,12.651
			c7.005,0,12.677-5.659,12.677-12.651C281.424,722.675,275.752,717.003,268.747,717.003z"/>
		<path style="fill:#FFFFFF;" d="M268.747,684.904c-6.953,0-12.665,5.685-12.665,12.651c0,6.992,5.712,12.677,12.665,12.677
			c7.005,0,12.677-5.685,12.677-12.677C281.424,690.589,275.752,684.904,268.747,684.904z"/>
		<path style="fill:#FFFFFF;" d="M268.747,652.806c-6.953,0-12.665,5.672-12.665,12.651c0,6.978,5.712,12.664,12.665,12.664
			c7.005,0,12.677-5.686,12.677-12.664C281.424,658.478,275.752,652.806,268.747,652.806z"/>
		<path style="fill:#FFFFFF;" d="M268.747,620.72c-6.953,0-12.665,5.659-12.665,12.664c0,6.967,5.712,12.625,12.665,12.625
			c7.005,0,12.677-5.658,12.677-12.625C281.424,626.379,275.752,620.72,268.747,620.72z"/>
		<path style="fill:#FFFFFF;" d="M268.747,588.621c-6.953,0-12.665,5.659-12.665,12.665c0,6.978,5.712,12.65,12.665,12.65
			c7.005,0,12.677-5.672,12.677-12.65C281.424,594.28,275.752,588.621,268.747,588.621z"/>
		<path style="fill:#FFFFFF;" d="M268.747,556.536c-6.953,0-12.665,5.659-12.665,12.638c0,6.992,5.712,12.651,12.665,12.651
			c7.005,0,12.677-5.659,12.677-12.651C281.424,562.195,275.752,556.536,268.747,556.536z"/>
		<path style="fill:#FFFFFF;" d="M268.747,524.438c-6.953,0-12.665,5.659-12.665,12.651c0,6.979,5.712,12.65,12.665,12.65
			c7.005,0,12.677-5.672,12.677-12.65C281.424,530.097,275.752,524.438,268.747,524.438z"/>
		<path style="fill:#FFFFFF;" d="M268.747,492.339c-6.953,0-12.665,5.652-12.665,12.651c0,6.98,5.712,12.664,12.665,12.664
			c7.005,0,12.677-5.685,12.677-12.664C281.424,497.991,275.752,492.339,268.747,492.339z"/>
		<path style="fill:#FFFFFF;" d="M268.747,460.247c-6.953,0-12.665,5.659-12.665,12.645c0,6.992,5.712,12.651,12.665,12.651
			c7.005,0,12.677-5.659,12.677-12.651C281.424,465.906,275.752,460.247,268.747,460.247z"/>
		<path style="fill:#FFFFFF;" d="M268.747,428.148c-6.953,0-12.665,5.679-12.665,12.651c0,6.985,5.712,12.664,12.665,12.664
			c7.005,0,12.677-5.679,12.677-12.664C281.424,433.827,275.752,428.148,268.747,428.148z"/>
		<path style="fill:#FFFFFF;" d="M268.747,396.037c-6.953,0-12.665,5.685-12.665,12.671c0,6.979,5.712,12.651,12.665,12.651
			c7.005,0,12.677-5.672,12.677-12.651C281.424,401.722,275.752,396.037,268.747,396.037z"/>
		<path style="fill:#FFFFFF;" d="M268.747,363.958c-6.953,0-12.665,5.665-12.665,12.645c0,6.992,5.712,12.658,12.665,12.658
			c7.005,0,12.677-5.665,12.677-12.658C281.424,369.623,275.752,363.958,268.747,363.958z"/>
		<path style="fill:#FFFFFF;" d="M268.747,331.859c-6.953,0-12.665,5.659-12.665,12.657c0,6.973,5.712,12.658,12.665,12.658
			c7.005,0,12.677-5.685,12.677-12.658C281.424,337.519,275.752,331.859,268.747,331.859z"/>
		<path style="fill:#FFFFFF;" d="M268.747,299.748c-6.953,0-12.665,5.685-12.665,12.664c0,6.985,5.712,12.657,12.665,12.657
			c7.005,0,12.677-5.672,12.677-12.657C281.424,305.433,275.752,299.748,268.747,299.748z"/>
		<path style="fill:#FFFFFF;" d="M268.747,267.675c-6.953,0-12.665,5.659-12.665,12.639c0,6.985,5.712,12.657,12.665,12.657
			c7.005,0,12.677-5.672,12.677-12.657C281.424,273.334,275.752,267.675,268.747,267.675z"/>
		<path style="fill:#FFFFFF;" d="M300.257,717.003c-6.992,0-12.651,5.672-12.651,12.65c0,6.992,5.659,12.651,12.651,12.651
			c6.992,0,12.665-5.659,12.665-12.651C312.921,722.675,307.249,717.003,300.257,717.003z"/>
		<path style="fill:#FFFFFF;" d="M300.257,684.904c-6.992,0-12.651,5.685-12.651,12.651c0,6.992,5.659,12.677,12.651,12.677
			c6.992,0,12.665-5.685,12.665-12.677C312.921,690.589,307.249,684.904,300.257,684.904z"/>
		<path style="fill:#FFFFFF;" d="M300.257,652.806c-6.992,0-12.651,5.672-12.651,12.651c0,6.978,5.659,12.664,12.651,12.664
			c6.992,0,12.665-5.686,12.665-12.664C312.921,658.478,307.249,652.806,300.257,652.806z"/>
		<path style="fill:#FFFFFF;" d="M300.257,620.72c-6.992,0-12.651,5.659-12.651,12.664c0,6.967,5.659,12.625,12.651,12.625
			c6.992,0,12.665-5.658,12.665-12.625C312.921,626.379,307.249,620.72,300.257,620.72z"/>
		<path style="fill:#FFFFFF;" d="M300.257,588.621c-6.992,0-12.651,5.659-12.651,12.665c0,6.978,5.659,12.65,12.651,12.65
			c6.992,0,12.665-5.672,12.665-12.65C312.921,594.28,307.249,588.621,300.257,588.621z"/>
		<path style="fill:#FFFFFF;" d="M300.257,556.536c-6.992,0-12.651,5.659-12.651,12.638c0,6.992,5.659,12.651,12.651,12.651
			c6.992,0,12.665-5.659,12.665-12.651C312.921,562.195,307.249,556.536,300.257,556.536z"/>
		<path style="fill:#FFFFFF;" d="M300.257,524.438c-6.992,0-12.651,5.659-12.651,12.651c0,6.979,5.659,12.65,12.651,12.65
			c6.992,0,12.665-5.672,12.665-12.65C312.921,530.097,307.249,524.438,300.257,524.438z"/>
		<path style="fill:#FFFFFF;" d="M300.257,492.339c-6.992,0-12.651,5.652-12.651,12.651c0,6.98,5.659,12.664,12.651,12.664
			c6.992,0,12.665-5.685,12.665-12.664C312.921,497.991,307.249,492.339,300.257,492.339z"/>
		<path style="fill:#FFFFFF;" d="M300.257,460.247c-6.992,0-12.651,5.659-12.651,12.645c0,6.992,5.659,12.651,12.651,12.651
			c6.992,0,12.665-5.659,12.665-12.651C312.921,465.906,307.249,460.247,300.257,460.247z"/>
		<path style="fill:#FFFFFF;" d="M300.257,428.148c-6.992,0-12.651,5.679-12.651,12.651c0,6.985,5.659,12.664,12.651,12.664
			c6.992,0,12.665-5.679,12.665-12.664C312.921,433.827,307.249,428.148,300.257,428.148z"/>
		<path style="fill:#FFFFFF;" d="M300.257,396.037c-6.992,0-12.651,5.685-12.651,12.671c0,6.979,5.659,12.651,12.651,12.651
			c6.992,0,12.665-5.672,12.665-12.651C312.921,401.722,307.249,396.037,300.257,396.037z"/>
		<path style="fill:#FFFFFF;" d="M300.257,363.958c-6.992,0-12.651,5.665-12.651,12.645c0,6.992,5.659,12.658,12.651,12.658
			c6.992,0,12.665-5.665,12.665-12.658C312.921,369.623,307.249,363.958,300.257,363.958z"/>
		<path style="fill:#FFFFFF;" d="M331.741,717.003c-6.966,0-12.638,5.672-12.638,12.65c0,6.992,5.672,12.651,12.638,12.651
			c6.992,0,12.678-5.659,12.678-12.651C344.419,722.675,338.733,717.003,331.741,717.003z"/>
		<path style="fill:#FFFFFF;" d="M331.741,684.904c-6.966,0-12.638,5.685-12.638,12.651c0,6.992,5.672,12.677,12.638,12.677
			c6.992,0,12.678-5.685,12.678-12.677C344.419,690.589,338.733,684.904,331.741,684.904z"/>
		<path style="fill:#FFFFFF;" d="M331.741,652.806c-6.966,0-12.638,5.672-12.638,12.651c0,6.978,5.672,12.664,12.638,12.664
			c6.992,0,12.678-5.686,12.678-12.664C344.419,658.478,338.733,652.806,331.741,652.806z"/>
		<path style="fill:#FFFFFF;" d="M331.741,620.72c-6.966,0-12.638,5.659-12.638,12.664c0,6.967,5.672,12.625,12.638,12.625
			c6.992,0,12.678-5.658,12.678-12.625C344.419,626.379,338.733,620.72,331.741,620.72z"/>
		<path style="fill:#FFFFFF;" d="M331.741,588.621c-6.966,0-12.638,5.659-12.638,12.665c0,6.978,5.672,12.65,12.638,12.65
			c6.992,0,12.678-5.672,12.678-12.65C344.419,594.28,338.733,588.621,331.741,588.621z"/>
		<path style="fill:#FFFFFF;" d="M331.741,556.536c-6.966,0-12.638,5.659-12.638,12.638c0,6.992,5.672,12.651,12.638,12.651
			c6.992,0,12.678-5.659,12.678-12.651C344.419,562.195,338.733,556.536,331.741,556.536z"/>
		<path style="fill:#FFFFFF;" d="M331.741,524.438c-6.966,0-12.638,5.659-12.638,12.651c0,6.979,5.672,12.65,12.638,12.65
			c6.992,0,12.678-5.672,12.678-12.65C344.419,530.097,338.733,524.438,331.741,524.438z"/>
		<path style="fill:#FFFFFF;" d="M331.741,492.339c-6.966,0-12.638,5.652-12.638,12.651c0,6.98,5.672,12.664,12.638,12.664
			c6.992,0,12.678-5.685,12.678-12.664C344.419,497.991,338.733,492.339,331.741,492.339z"/>
		<path style="fill:#FFFFFF;" d="M331.741,460.247c-6.966,0-12.638,5.659-12.638,12.645c0,6.992,5.672,12.651,12.638,12.651
			c6.992,0,12.678-5.659,12.678-12.651C344.419,465.906,338.733,460.247,331.741,460.247z"/>
		<path style="fill:#FFFFFF;" d="M363.239,717.003c-6.992,0-12.651,5.672-12.651,12.65c0,6.992,5.659,12.651,12.651,12.651
			c7.005,0,12.665-5.659,12.665-12.651C375.903,722.675,370.244,717.003,363.239,717.003z"/>
		<path style="fill:#FFFFFF;" d="M363.239,684.904c-6.992,0-12.651,5.685-12.651,12.651c0,6.992,5.659,12.677,12.651,12.677
			c7.005,0,12.665-5.685,12.665-12.677C375.903,690.589,370.244,684.904,363.239,684.904z"/>
		<path style="fill:#FFFFFF;" d="M363.239,652.806c-6.992,0-12.651,5.672-12.651,12.651c0,6.978,5.659,12.664,12.651,12.664
			c7.005,0,12.665-5.686,12.665-12.664C375.903,658.478,370.244,652.806,363.239,652.806z"/>
		<path style="fill:#FFFFFF;" d="M363.239,620.72c-6.992,0-12.651,5.659-12.651,12.664c0,6.967,5.659,12.625,12.651,12.625
			c7.005,0,12.665-5.658,12.665-12.625C375.903,626.379,370.244,620.72,363.239,620.72z"/>
		<path style="fill:#FFFFFF;" d="M363.239,588.621c-6.992,0-12.651,5.659-12.651,12.665c0,6.978,5.659,12.65,12.651,12.65
			c7.005,0,12.665-5.672,12.665-12.65C375.903,594.28,370.244,588.621,363.239,588.621z"/>
		<path style="fill:#FFFFFF;" d="M363.239,556.536c-6.992,0-12.651,5.659-12.651,12.638c0,6.992,5.659,12.651,12.651,12.651
			c7.005,0,12.665-5.659,12.665-12.651C375.903,562.195,370.244,556.536,363.239,556.536z"/>
		<path style="fill:#FFFFFF;" d="M363.239,524.438c-6.992,0-12.651,5.659-12.651,12.651c0,6.979,5.659,12.65,12.651,12.65
			c7.005,0,12.665-5.672,12.665-12.65C375.903,530.097,370.244,524.438,363.239,524.438z"/>
		<path style="fill:#FFFFFF;" d="M363.239,492.339c-6.992,0-12.651,5.652-12.651,12.651c0,6.98,5.659,12.664,12.651,12.664
			c7.005,0,12.665-5.685,12.665-12.664C375.903,497.991,370.244,492.339,363.239,492.339z"/>
		<path style="fill:#FFFFFF;" d="M363.239,460.247c-6.992,0-12.651,5.659-12.651,12.645c0,6.992,5.659,12.651,12.651,12.651
			c7.005,0,12.665-5.659,12.665-12.651C375.903,465.906,370.244,460.247,363.239,460.247z"/>
		<path style="fill:#FFFFFF;" d="M363.239,428.148c-6.992,0-12.651,5.679-12.651,12.651c0,6.985,5.659,12.664,12.651,12.664
			c7.005,0,12.665-5.679,12.665-12.664C375.903,433.827,370.244,428.148,363.239,428.148z"/>
		<path style="fill:#FFFFFF;" d="M363.239,396.037c-6.992,0-12.651,5.685-12.651,12.671c0,6.979,5.659,12.651,12.651,12.651
			c7.005,0,12.665-5.672,12.665-12.651C375.903,401.722,370.244,396.037,363.239,396.037z"/>
		<path style="fill:#FFFFFF;" d="M394.749,717.003c-6.992,0-12.638,5.672-12.638,12.65c0,6.992,5.646,12.651,12.638,12.651
			c6.992,0,12.664-5.659,12.664-12.651C407.413,722.675,401.741,717.003,394.749,717.003z"/>
		<path style="fill:#FFFFFF;" d="M394.749,684.904c-6.992,0-12.638,5.685-12.638,12.651c0,6.992,5.646,12.677,12.638,12.677
			c6.992,0,12.664-5.685,12.664-12.677C407.413,690.589,401.741,684.904,394.749,684.904z"/>
		<path style="fill:#FFFFFF;" d="M394.749,652.806c-6.992,0-12.638,5.672-12.638,12.651c0,6.978,5.646,12.664,12.638,12.664
			c6.992,0,12.664-5.686,12.664-12.664C407.413,658.478,401.741,652.806,394.749,652.806z"/>
		<path style="fill:#FFFFFF;" d="M394.749,620.72c-6.992,0-12.638,5.659-12.638,12.664c0,6.967,5.646,12.625,12.638,12.625
			c6.992,0,12.664-5.658,12.664-12.625C407.413,626.379,401.741,620.72,394.749,620.72z"/>
		<path style="fill:#FFFFFF;" d="M394.749,588.621c-6.992,0-12.638,5.659-12.638,12.665c0,6.978,5.646,12.65,12.638,12.65
			c6.992,0,12.664-5.672,12.664-12.65C407.413,594.28,401.741,588.621,394.749,588.621z"/>
		<path style="fill:#FFFFFF;" d="M394.749,556.536c-6.992,0-12.638,5.659-12.638,12.638c0,6.992,5.646,12.651,12.638,12.651
			c6.992,0,12.664-5.659,12.664-12.651C407.413,562.195,401.741,556.536,394.749,556.536z"/>
		<path style="fill:#FFFFFF;" d="M394.749,524.438c-6.992,0-12.638,5.659-12.638,12.651c0,6.979,5.646,12.65,12.638,12.65
			c6.992,0,12.664-5.672,12.664-12.65C407.413,530.097,401.741,524.438,394.749,524.438z"/>
		<path style="fill:#FFFFFF;" d="M394.749,492.339c-6.992,0-12.638,5.652-12.638,12.651c0,6.98,5.646,12.664,12.638,12.664
			c6.992,0,12.664-5.685,12.664-12.664C407.413,497.991,401.741,492.339,394.749,492.339z"/>
		<path style="fill:#FFFFFF;" d="M394.749,460.247c-6.992,0-12.638,5.659-12.638,12.645c0,6.992,5.646,12.651,12.638,12.651
			c6.992,0,12.664-5.659,12.664-12.651C407.413,465.906,401.741,460.247,394.749,460.247z"/>
		<path style="fill:#FFFFFF;" d="M394.749,428.148c-6.992,0-12.638,5.679-12.638,12.651c0,6.985,5.646,12.664,12.638,12.664
			c6.992,0,12.664-5.679,12.664-12.664C407.413,433.827,401.741,428.148,394.749,428.148z"/>
		<path style="fill:#FFFFFF;" d="M394.749,396.037c-6.992,0-12.638,5.685-12.638,12.671c0,6.979,5.646,12.651,12.638,12.651
			c6.992,0,12.664-5.672,12.664-12.651C407.413,401.722,401.741,396.037,394.749,396.037z"/>
		<path style="fill:#FFFFFF;" d="M394.749,363.958c-6.992,0-12.638,5.665-12.638,12.645c0,6.992,5.646,12.658,12.638,12.658
			c6.992,0,12.664-5.665,12.664-12.658C407.413,369.623,401.741,363.958,394.749,363.958z"/>
		<path style="fill:#FFFFFF;" d="M426.233,717.003c-6.979,0-12.625,5.672-12.625,12.65c0,6.992,5.646,12.651,12.625,12.651
			c7.005,0,12.651-5.659,12.651-12.651C438.885,722.675,433.238,717.003,426.233,717.003z"/>
		<path style="fill:#FFFFFF;" d="M426.233,684.904c-6.979,0-12.625,5.685-12.625,12.651c0,6.992,5.646,12.677,12.625,12.677
			c7.005,0,12.651-5.685,12.651-12.677C438.885,690.589,433.238,684.904,426.233,684.904z"/>
		<path style="fill:#FFFFFF;" d="M426.233,652.806c-6.979,0-12.625,5.672-12.625,12.651c0,6.978,5.646,12.664,12.625,12.664
			c7.005,0,12.651-5.686,12.651-12.664C438.885,658.478,433.238,652.806,426.233,652.806z"/>
		<path style="fill:#FFFFFF;" d="M426.233,620.72c-6.979,0-12.625,5.659-12.625,12.664c0,6.967,5.646,12.625,12.625,12.625
			c7.005,0,12.651-5.658,12.651-12.625C438.885,626.379,433.238,620.72,426.233,620.72z"/>
		<path style="fill:#FFFFFF;" d="M426.233,588.621c-6.979,0-12.625,5.659-12.625,12.665c0,6.978,5.646,12.65,12.625,12.65
			c7.005,0,12.651-5.672,12.651-12.65C438.885,594.28,433.238,588.621,426.233,588.621z"/>
		<path style="fill:#FFFFFF;" d="M426.233,556.536c-6.979,0-12.625,5.659-12.625,12.638c0,6.992,5.646,12.651,12.625,12.651
			c7.005,0,12.651-5.659,12.651-12.651C438.885,562.195,433.238,556.536,426.233,556.536z"/>
		<path style="fill:#FFFFFF;" d="M426.233,524.438c-6.979,0-12.625,5.659-12.625,12.651c0,6.979,5.646,12.65,12.625,12.65
			c7.005,0,12.651-5.672,12.651-12.65C438.885,530.097,433.238,524.438,426.233,524.438z"/>
		<path style="fill:#FFFFFF;" d="M426.233,492.339c-6.979,0-12.625,5.652-12.625,12.651c0,6.98,5.646,12.664,12.625,12.664
			c7.005,0,12.651-5.685,12.651-12.664C438.885,497.991,433.238,492.339,426.233,492.339z"/>
		<path style="fill:#FFFFFF;" d="M457.757,717.003c-7.018,0-12.664,5.672-12.664,12.65c0,6.992,5.646,12.651,12.664,12.651
			c6.979,0,12.638-5.659,12.638-12.651C470.395,722.675,464.736,717.003,457.757,717.003z"/>
		<path style="fill:#FFFFFF;" d="M457.757,684.904c-7.018,0-12.664,5.685-12.664,12.651c0,6.992,5.646,12.677,12.664,12.677
			c6.979,0,12.638-5.685,12.638-12.677C470.395,690.589,464.736,684.904,457.757,684.904z"/>
		<path style="fill:#FFFFFF;" d="M457.757,652.806c-7.018,0-12.664,5.672-12.664,12.651c0,6.978,5.646,12.664,12.664,12.664
			c6.979,0,12.638-5.686,12.638-12.664C470.395,658.478,464.736,652.806,457.757,652.806z"/>
		<path style="fill:#FFFFFF;" d="M457.757,620.72c-7.018,0-12.664,5.659-12.664,12.664c0,6.967,5.646,12.625,12.664,12.625
			c6.979,0,12.638-5.658,12.638-12.625C470.395,626.379,464.736,620.72,457.757,620.72z"/>
		<path style="fill:#FFFFFF;" d="M457.757,588.621c-7.018,0-12.664,5.659-12.664,12.665c0,6.978,5.646,12.65,12.664,12.65
			c6.979,0,12.638-5.672,12.638-12.65C470.395,594.28,464.736,588.621,457.757,588.621z"/>
		<path style="fill:#FFFFFF;" d="M489.228,717.003c-6.979,0-12.638,5.672-12.638,12.65c0,6.992,5.659,12.651,12.638,12.651
			c7.005,0,12.638-5.659,12.638-12.651C501.866,722.675,496.233,717.003,489.228,717.003z"/>
		<path style="fill:#FFFFFF;" d="M489.228,684.904c-6.979,0-12.638,5.685-12.638,12.651c0,6.992,5.659,12.677,12.638,12.677
			c7.005,0,12.638-5.685,12.638-12.677C501.866,690.589,496.233,684.904,489.228,684.904z"/>
		<path style="fill:#FFFFFF;" d="M489.228,652.806c-6.979,0-12.638,5.672-12.638,12.651c0,6.978,5.659,12.664,12.638,12.664
			c7.005,0,12.638-5.686,12.638-12.664C501.866,658.478,496.233,652.806,489.228,652.806z"/>
		<path style="fill:#FFFFFF;" d="M489.228,620.72c-6.979,0-12.638,5.659-12.638,12.664c0,6.967,5.659,12.625,12.638,12.625
			c7.005,0,12.638-5.658,12.638-12.625C501.866,626.379,496.233,620.72,489.228,620.72z"/>
		<path style="fill:#FFFFFF;" d="M489.228,588.621c-6.979,0-12.638,5.659-12.638,12.665c0,6.978,5.659,12.65,12.638,12.65
			c7.005,0,12.638-5.672,12.638-12.65C501.866,594.28,496.233,588.621,489.228,588.621z"/>
		<path style="fill:#FFFFFF;" d="M489.228,556.536c-6.979,0-12.638,5.659-12.638,12.638c0,6.992,5.659,12.651,12.638,12.651
			c7.005,0,12.638-5.659,12.638-12.651C501.866,562.195,496.233,556.536,489.228,556.536z"/>
		<path style="fill:#FFFFFF;" d="M489.228,524.438c-6.979,0-12.638,5.659-12.638,12.651c0,6.979,5.659,12.65,12.638,12.65
			c7.005,0,12.638-5.672,12.638-12.65C501.866,530.097,496.233,524.438,489.228,524.438z"/>
		<path style="fill:#FFFFFF;" d="M489.228,492.339c-6.979,0-12.638,5.652-12.638,12.651c0,6.98,5.659,12.664,12.638,12.664
			c7.005,0,12.638-5.685,12.638-12.664C501.866,497.991,496.233,492.339,489.228,492.339z"/>
		<path style="fill:#FFFFFF;" d="M489.228,460.247c-6.979,0-12.638,5.659-12.638,12.645c0,6.992,5.659,12.651,12.638,12.651
			c7.005,0,12.638-5.659,12.638-12.651C501.866,465.906,496.233,460.247,489.228,460.247z"/>
		<path style="fill:#FFFFFF;" d="M489.228,428.148c-6.979,0-12.638,5.679-12.638,12.651c0,6.985,5.659,12.664,12.638,12.664
			c7.005,0,12.638-5.679,12.638-12.664C501.866,433.827,496.233,428.148,489.228,428.148z"/>
		<path style="fill:#FFFFFF;" d="M489.228,396.037c-6.979,0-12.638,5.685-12.638,12.671c0,6.979,5.659,12.651,12.638,12.651
			c7.005,0,12.638-5.672,12.638-12.651C501.866,401.722,496.233,396.037,489.228,396.037z"/>
		<path style="fill:#FFFFFF;" d="M489.228,363.958c-6.979,0-12.638,5.665-12.638,12.645c0,6.992,5.659,12.658,12.638,12.658
			c7.005,0,12.638-5.665,12.638-12.658C501.866,369.623,496.233,363.958,489.228,363.958z"/>
		<path style="fill:#FFFFFF;" d="M489.228,331.859c-6.979,0-12.638,5.659-12.638,12.657c0,6.973,5.659,12.658,12.638,12.658
			c7.005,0,12.638-5.685,12.638-12.658C501.866,337.519,496.233,331.859,489.228,331.859z"/>
		<path style="fill:#FFFFFF;" d="M489.228,299.748c-6.979,0-12.638,5.685-12.638,12.664c0,6.985,5.659,12.657,12.638,12.657
			c7.005,0,12.638-5.672,12.638-12.657C501.866,305.433,496.233,299.748,489.228,299.748z"/>
		<path style="fill:#FFFFFF;" d="M520.719,717.003c-6.973,0-12.645,5.672-12.645,12.65c0,6.992,5.672,12.651,12.645,12.651
			c7.006,0,12.651-5.659,12.651-12.651C533.37,722.675,527.725,717.003,520.719,717.003z"/>
		<path style="fill:#FFFFFF;" d="M520.719,684.904c-6.973,0-12.645,5.685-12.645,12.651c0,6.992,5.672,12.677,12.645,12.677
			c7.006,0,12.651-5.685,12.651-12.677C533.37,690.589,527.725,684.904,520.719,684.904z"/>
		<path style="fill:#FFFFFF;" d="M520.719,652.806c-6.973,0-12.645,5.672-12.645,12.651c0,6.978,5.672,12.664,12.645,12.664
			c7.006,0,12.651-5.686,12.651-12.664C533.37,658.478,527.725,652.806,520.719,652.806z"/>
		<path style="fill:#FFFFFF;" d="M520.719,620.72c-6.973,0-12.645,5.659-12.645,12.664c0,6.967,5.672,12.625,12.645,12.625
			c7.006,0,12.651-5.658,12.651-12.625C533.37,626.379,527.725,620.72,520.719,620.72z"/>
		<path style="fill:#FFFFFF;" d="M520.719,588.621c-6.973,0-12.645,5.659-12.645,12.665c0,6.978,5.672,12.65,12.645,12.65
			c7.006,0,12.651-5.672,12.651-12.65C533.37,594.28,527.725,588.621,520.719,588.621z"/>
		<path style="fill:#FFFFFF;" d="M520.719,556.536c-6.973,0-12.645,5.659-12.645,12.638c0,6.992,5.672,12.651,12.645,12.651
			c7.006,0,12.651-5.659,12.651-12.651C533.37,562.195,527.725,556.536,520.719,556.536z"/>
		<path style="fill:#FFFFFF;" d="M520.719,524.438c-6.973,0-12.645,5.659-12.645,12.651c0,6.979,5.672,12.65,12.645,12.65
			c7.006,0,12.651-5.672,12.651-12.65C533.37,530.097,527.725,524.438,520.719,524.438z"/>
		<path style="fill:#FFFFFF;" d="M520.719,492.339c-6.973,0-12.645,5.652-12.645,12.651c0,6.98,5.672,12.664,12.645,12.664
			c7.006,0,12.651-5.685,12.651-12.664C533.37,497.991,527.725,492.339,520.719,492.339z"/>
		<path style="fill:#FFFFFF;" d="M520.719,460.247c-6.973,0-12.645,5.659-12.645,12.645c0,6.992,5.672,12.651,12.645,12.651
			c7.006,0,12.651-5.659,12.651-12.651C533.37,465.906,527.725,460.247,520.719,460.247z"/>
		<path style="fill:#FFFFFF;" d="M520.719,428.148c-6.973,0-12.645,5.679-12.645,12.651c0,6.985,5.672,12.664,12.645,12.664
			c7.006,0,12.651-5.679,12.651-12.664C533.37,433.827,527.725,428.148,520.719,428.148z"/>
		<path style="fill:#FFFFFF;" d="M520.719,396.037c-6.973,0-12.645,5.685-12.645,12.671c0,6.979,5.672,12.651,12.645,12.651
			c7.006,0,12.651-5.672,12.651-12.651C533.37,401.722,527.725,396.037,520.719,396.037z"/>
		<path style="fill:#FFFFFF;" d="M520.719,363.958c-6.973,0-12.645,5.665-12.645,12.645c0,6.992,5.672,12.658,12.645,12.658
			c7.006,0,12.651-5.665,12.651-12.658C533.37,369.623,527.725,363.958,520.719,363.958z"/>
		<path style="fill:#FFFFFF;" d="M552.217,717.003c-6.979,0-12.651,5.672-12.651,12.65c0,6.992,5.672,12.651,12.651,12.651
			c7.005,0,12.65-5.659,12.65-12.651C564.867,722.675,559.222,717.003,552.217,717.003z"/>
		<path style="fill:#FFFFFF;" d="M552.217,684.904c-6.979,0-12.651,5.685-12.651,12.651c0,6.992,5.672,12.677,12.651,12.677
			c7.005,0,12.65-5.685,12.65-12.677C564.867,690.589,559.222,684.904,552.217,684.904z"/>
		<path style="fill:#FFFFFF;" d="M552.217,652.806c-6.979,0-12.651,5.672-12.651,12.651c0,6.978,5.672,12.664,12.651,12.664
			c7.005,0,12.65-5.686,12.65-12.664C564.867,658.478,559.222,652.806,552.217,652.806z"/>
		<path style="fill:#FFFFFF;" d="M552.217,620.72c-6.979,0-12.651,5.659-12.651,12.664c0,6.967,5.672,12.625,12.651,12.625
			c7.005,0,12.65-5.658,12.65-12.625C564.867,626.379,559.222,620.72,552.217,620.72z"/>
		<path style="fill:#FFFFFF;" d="M552.217,588.621c-6.979,0-12.651,5.659-12.651,12.665c0,6.978,5.672,12.65,12.651,12.65
			c7.005,0,12.65-5.672,12.65-12.65C564.867,594.28,559.222,588.621,552.217,588.621z"/>
		<path style="fill:#FFFFFF;" d="M552.217,556.536c-6.979,0-12.651,5.659-12.651,12.638c0,6.992,5.672,12.651,12.651,12.651
			c7.005,0,12.65-5.659,12.65-12.651C564.867,562.195,559.222,556.536,552.217,556.536z"/>
		<path style="fill:#FFFFFF;" d="M552.217,524.438c-6.979,0-12.651,5.659-12.651,12.651c0,6.979,5.672,12.65,12.651,12.65
			c7.005,0,12.65-5.672,12.65-12.65C564.867,530.097,559.222,524.438,552.217,524.438z"/>
		<path style="fill:#FFFFFF;" d="M552.217,492.339c-6.979,0-12.651,5.652-12.651,12.651c0,6.98,5.672,12.664,12.651,12.664
			c7.005,0,12.65-5.685,12.65-12.664C564.867,497.991,559.222,492.339,552.217,492.339z"/>
		<path style="fill:#FFFFFF;" d="M552.217,460.247c-6.979,0-12.651,5.659-12.651,12.645c0,6.992,5.672,12.651,12.651,12.651
			c7.005,0,12.65-5.659,12.65-12.651C564.867,465.906,559.222,460.247,552.217,460.247z"/>
		<path style="fill:#FFFFFF;" d="M552.217,428.148c-6.979,0-12.651,5.679-12.651,12.651c0,6.985,5.672,12.664,12.651,12.664
			c7.005,0,12.65-5.679,12.65-12.664C564.867,433.827,559.222,428.148,552.217,428.148z"/>
		<path style="fill:#FFFFFF;" d="M583.714,717.003c-6.979,0-12.651,5.672-12.651,12.65c0,6.992,5.672,12.651,12.651,12.651
			c7.005,0,12.651-5.659,12.651-12.651C596.365,722.675,590.719,717.003,583.714,717.003z"/>
		<path style="fill:#FFFFFF;" d="M583.714,684.904c-6.979,0-12.651,5.685-12.651,12.651c0,6.992,5.672,12.677,12.651,12.677
			c7.005,0,12.651-5.685,12.651-12.677C596.365,690.589,590.719,684.904,583.714,684.904z"/>
		<path style="fill:#FFFFFF;" d="M583.714,652.806c-6.979,0-12.651,5.672-12.651,12.651c0,6.978,5.672,12.664,12.651,12.664
			c7.005,0,12.651-5.686,12.651-12.664C596.365,658.478,590.719,652.806,583.714,652.806z"/>
		<path style="fill:#FFFFFF;" d="M583.714,620.72c-6.979,0-12.651,5.659-12.651,12.664c0,6.967,5.672,12.625,12.651,12.625
			c7.005,0,12.651-5.658,12.651-12.625C596.365,626.379,590.719,620.72,583.714,620.72z"/>
		<path style="fill:#FFFFFF;" d="M583.714,588.621c-6.979,0-12.651,5.659-12.651,12.665c0,6.978,5.672,12.65,12.651,12.65
			c7.005,0,12.651-5.672,12.651-12.65C596.365,594.28,590.719,588.621,583.714,588.621z"/>
		<path style="fill:#FFFFFF;" d="M583.714,556.536c-6.979,0-12.651,5.659-12.651,12.638c0,6.992,5.672,12.651,12.651,12.651
			c7.005,0,12.651-5.659,12.651-12.651C596.365,562.195,590.719,556.536,583.714,556.536z"/>
		<path style="fill:#FFFFFF;" d="M583.714,524.438c-6.979,0-12.651,5.659-12.651,12.651c0,6.979,5.672,12.65,12.651,12.65
			c7.005,0,12.651-5.672,12.651-12.65C596.365,530.097,590.719,524.438,583.714,524.438z"/>
		<path style="fill:#FFFFFF;" d="M583.714,492.339c-6.979,0-12.651,5.652-12.651,12.651c0,6.98,5.672,12.664,12.651,12.664
			c7.005,0,12.651-5.685,12.651-12.664C596.365,497.991,590.719,492.339,583.714,492.339z"/>
		<path style="fill:#FFFFFF;" d="M583.714,460.247c-6.979,0-12.651,5.659-12.651,12.645c0,6.992,5.672,12.651,12.651,12.651
			c7.005,0,12.651-5.659,12.651-12.651C596.365,465.906,590.719,460.247,583.714,460.247z"/>
		<path style="fill:#FFFFFF;" d="M583.714,428.148c-6.979,0-12.651,5.679-12.651,12.651c0,6.985,5.672,12.664,12.651,12.664
			c7.005,0,12.651-5.679,12.651-12.664C596.365,433.827,590.719,428.148,583.714,428.148z"/>
		<path style="fill:#FFFFFF;" d="M583.714,396.037c-6.979,0-12.651,5.685-12.651,12.671c0,6.979,5.672,12.651,12.651,12.651
			c7.005,0,12.651-5.672,12.651-12.651C596.365,401.722,590.719,396.037,583.714,396.037z"/>
		<path style="fill:#FFFFFF;" d="M615.211,717.003c-7.005,0-12.651,5.672-12.651,12.65c0,6.992,5.646,12.651,12.651,12.651
			c6.979,0,12.678-5.659,12.678-12.651C627.889,722.675,622.19,717.003,615.211,717.003z"/>
		<path style="fill:#FFFFFF;" d="M615.211,684.904c-7.005,0-12.651,5.685-12.651,12.651c0,6.992,5.646,12.677,12.651,12.677
			c6.979,0,12.678-5.685,12.678-12.677C627.889,690.589,622.19,684.904,615.211,684.904z"/>
		<path style="fill:#FFFFFF;" d="M615.211,652.806c-7.005,0-12.651,5.672-12.651,12.651c0,6.978,5.646,12.664,12.651,12.664
			c6.979,0,12.678-5.686,12.678-12.664C627.889,658.478,622.19,652.806,615.211,652.806z"/>
		<path style="fill:#FFFFFF;" d="M615.211,620.72c-7.005,0-12.651,5.659-12.651,12.664c0,6.967,5.646,12.625,12.651,12.625
			c6.979,0,12.678-5.658,12.678-12.625C627.889,626.379,622.19,620.72,615.211,620.72z"/>
		<path style="fill:#FFFFFF;" d="M615.211,588.621c-7.005,0-12.651,5.659-12.651,12.665c0,6.978,5.646,12.65,12.651,12.65
			c6.979,0,12.678-5.672,12.678-12.65C627.889,594.28,622.19,588.621,615.211,588.621z"/>
		<path style="fill:#FFFFFF;" d="M615.211,556.536c-7.005,0-12.651,5.659-12.651,12.638c0,6.992,5.646,12.651,12.651,12.651
			c6.979,0,12.678-5.659,12.678-12.651C627.889,562.195,622.19,556.536,615.211,556.536z"/>
		<path style="fill:#FFFFFF;" d="M615.211,524.438c-7.005,0-12.651,5.659-12.651,12.651c0,6.979,5.646,12.65,12.651,12.65
			c6.979,0,12.678-5.672,12.678-12.65C627.889,530.097,622.19,524.438,615.211,524.438z"/>
		<path style="fill:#FFFFFF;" d="M615.211,492.339c-7.005,0-12.651,5.652-12.651,12.651c0,6.98,5.646,12.664,12.651,12.664
			c6.979,0,12.678-5.685,12.678-12.664C627.889,497.991,622.19,492.339,615.211,492.339z"/>
		<path style="fill:#FFFFFF;" d="M615.211,460.247c-7.005,0-12.651,5.659-12.651,12.645c0,6.992,5.646,12.651,12.651,12.651
			c6.979,0,12.678-5.659,12.678-12.651C627.889,465.906,622.19,460.247,615.211,460.247z"/>
		<path style="fill:#FFFFFF;" d="M615.211,428.148c-7.005,0-12.651,5.679-12.651,12.651c0,6.985,5.646,12.664,12.651,12.664
			c6.979,0,12.678-5.679,12.678-12.664C627.889,433.827,622.19,428.148,615.211,428.148z"/>
		<path style="fill:#FFFFFF;" d="M615.211,396.037c-7.005,0-12.651,5.685-12.651,12.671c0,6.979,5.646,12.651,12.651,12.651
			c6.979,0,12.678-5.672,12.678-12.651C627.889,401.722,622.19,396.037,615.211,396.037z"/>
		<path style="fill:#FFFFFF;" d="M615.211,363.958c-7.005,0-12.651,5.665-12.651,12.645c0,6.992,5.646,12.658,12.651,12.658
			c6.979,0,12.678-5.665,12.678-12.658C627.889,369.623,622.19,363.958,615.211,363.958z"/>
		<path style="fill:#FFFFFF;" d="M615.211,331.859c-7.005,0-12.651,5.659-12.651,12.657c0,6.973,5.646,12.658,12.651,12.658
			c6.979,0,12.678-5.685,12.678-12.658C627.889,337.519,622.19,331.859,615.211,331.859z"/>
		<path style="fill:#FFFFFF;" d="M646.708,717.003c-7.005,0-12.651,5.672-12.651,12.65c0,6.992,5.646,12.651,12.651,12.651
			c6.979,0,12.678-5.659,12.678-12.651C659.386,722.675,653.688,717.003,646.708,717.003z"/>
		<path style="fill:#FFFFFF;" d="M646.708,684.904c-7.005,0-12.651,5.685-12.651,12.651c0,6.992,5.646,12.677,12.651,12.677
			c6.979,0,12.678-5.685,12.678-12.677C659.386,690.589,653.688,684.904,646.708,684.904z"/>
		<path style="fill:#FFFFFF;" d="M646.708,652.806c-7.005,0-12.651,5.672-12.651,12.651c0,6.978,5.646,12.664,12.651,12.664
			c6.979,0,12.678-5.686,12.678-12.664C659.386,658.478,653.688,652.806,646.708,652.806z"/>
		<path style="fill:#FFFFFF;" d="M646.708,620.72c-7.005,0-12.651,5.659-12.651,12.664c0,6.967,5.646,12.625,12.651,12.625
			c6.979,0,12.678-5.658,12.678-12.625C659.386,626.379,653.688,620.72,646.708,620.72z"/>
		<path style="fill:#FFFFFF;" d="M646.708,588.621c-7.005,0-12.651,5.659-12.651,12.665c0,6.978,5.646,12.65,12.651,12.65
			c6.979,0,12.678-5.672,12.678-12.65C659.386,594.28,653.688,588.621,646.708,588.621z"/>
		<path style="fill:#FFFFFF;" d="M646.708,556.536c-7.005,0-12.651,5.659-12.651,12.638c0,6.992,5.646,12.651,12.651,12.651
			c6.979,0,12.678-5.659,12.678-12.651C659.386,562.195,653.688,556.536,646.708,556.536z"/>
		<path style="fill:#FFFFFF;" d="M646.708,524.438c-7.005,0-12.651,5.659-12.651,12.651c0,6.979,5.646,12.65,12.651,12.65
			c6.979,0,12.678-5.672,12.678-12.65C659.386,530.097,653.688,524.438,646.708,524.438z"/>
		<path style="fill:#FFFFFF;" d="M646.708,492.339c-7.005,0-12.651,5.652-12.651,12.651c0,6.98,5.646,12.664,12.651,12.664
			c6.979,0,12.678-5.685,12.678-12.664C659.386,497.991,653.688,492.339,646.708,492.339z"/>
		<path style="fill:#FFFFFF;" d="M646.708,460.247c-7.005,0-12.651,5.659-12.651,12.645c0,6.992,5.646,12.651,12.651,12.651
			c6.979,0,12.678-5.659,12.678-12.651C659.386,465.906,653.688,460.247,646.708,460.247z"/>
		<path style="fill:#FFFFFF;" d="M678.206,717.003c-6.979,0-12.651,5.672-12.651,12.65c0,6.992,5.672,12.651,12.651,12.651
			c6.979,0,12.625-5.659,12.625-12.651C690.831,722.675,685.185,717.003,678.206,717.003z"/>
		<path style="fill:#FFFFFF;" d="M678.206,684.904c-6.979,0-12.651,5.685-12.651,12.651c0,6.992,5.672,12.677,12.651,12.677
			c6.979,0,12.625-5.685,12.625-12.677C690.831,690.589,685.185,684.904,678.206,684.904z"/>
		<path style="fill:#FFFFFF;" d="M678.206,652.806c-6.979,0-12.651,5.672-12.651,12.651c0,6.978,5.672,12.664,12.651,12.664
			c6.979,0,12.625-5.686,12.625-12.664C690.831,658.478,685.185,652.806,678.206,652.806z"/>
		<path style="fill:#FFFFFF;" d="M678.206,620.72c-6.979,0-12.651,5.659-12.651,12.664c0,6.967,5.672,12.625,12.651,12.625
			c6.979,0,12.625-5.658,12.625-12.625C690.831,626.379,685.185,620.72,678.206,620.72z"/>
		<path style="fill:#FFFFFF;" d="M678.206,588.621c-6.979,0-12.651,5.659-12.651,12.665c0,6.978,5.672,12.65,12.651,12.65
			c6.979,0,12.625-5.672,12.625-12.65C690.831,594.28,685.185,588.621,678.206,588.621z"/>
		<path style="fill:#FFFFFF;" d="M678.206,556.536c-6.979,0-12.651,5.659-12.651,12.638c0,6.992,5.672,12.651,12.651,12.651
			c6.979,0,12.625-5.659,12.625-12.651C690.831,562.195,685.185,556.536,678.206,556.536z"/>
		<path style="fill:#FFFFFF;" d="M678.206,524.438c-6.979,0-12.651,5.659-12.651,12.651c0,6.979,5.672,12.65,12.651,12.65
			c6.979,0,12.625-5.672,12.625-12.65C690.831,530.097,685.185,524.438,678.206,524.438z"/>
		<path style="fill:#FFFFFF;" d="M678.206,492.339c-6.979,0-12.651,5.652-12.651,12.651c0,6.98,5.672,12.664,12.651,12.664
			c6.979,0,12.625-5.685,12.625-12.664C690.831,497.991,685.185,492.339,678.206,492.339z"/>
		<path style="fill:#FFFFFF;" d="M709.729,717.003c-7.032,0-12.678,5.672-12.678,12.65c0,6.992,5.646,12.651,12.678,12.651
			c6.952,0,12.625-5.659,12.625-12.651C722.354,722.675,716.682,717.003,709.729,717.003z"/>
		<path style="fill:#FFFFFF;" d="M709.729,684.904c-7.032,0-12.678,5.685-12.678,12.651c0,6.992,5.646,12.677,12.678,12.677
			c6.952,0,12.625-5.685,12.625-12.677C722.354,690.589,716.682,684.904,709.729,684.904z"/>
		<path style="fill:#FFFFFF;" d="M709.729,652.806c-7.032,0-12.678,5.672-12.678,12.651c0,6.978,5.646,12.664,12.678,12.664
			c6.952,0,12.625-5.686,12.625-12.664C722.354,658.478,716.682,652.806,709.729,652.806z"/>
		<path style="fill:#FFFFFF;" d="M709.729,620.72c-7.032,0-12.678,5.659-12.678,12.664c0,6.967,5.646,12.625,12.678,12.625
			c6.952,0,12.625-5.658,12.625-12.625C722.354,626.379,716.682,620.72,709.729,620.72z"/>
		<path style="fill:#FFFFFF;" d="M709.729,588.621c-7.032,0-12.678,5.659-12.678,12.665c0,6.978,5.646,12.65,12.678,12.65
			c6.952,0,12.625-5.672,12.625-12.65C722.354,594.28,716.682,588.621,709.729,588.621z"/>
		<path style="fill:#FFFFFF;" d="M709.729,556.536c-7.032,0-12.678,5.659-12.678,12.638c0,6.992,5.646,12.651,12.678,12.651
			c6.952,0,12.625-5.659,12.625-12.651C722.354,562.195,716.682,556.536,709.729,556.536z"/>
		<path style="fill:#FFFFFF;" d="M709.729,524.438c-7.032,0-12.678,5.659-12.678,12.651c0,6.979,5.646,12.65,12.678,12.65
			c6.952,0,12.625-5.672,12.625-12.65C722.354,530.097,716.682,524.438,709.729,524.438z"/>
		<path style="fill:#FFFFFF;" d="M709.729,492.339c-7.032,0-12.678,5.652-12.678,12.651c0,6.98,5.646,12.664,12.678,12.664
			c6.952,0,12.625-5.685,12.625-12.664C722.354,497.991,716.682,492.339,709.729,492.339z"/>
		<path style="fill:#FFFFFF;" d="M709.729,460.247c-7.032,0-12.678,5.659-12.678,12.645c0,6.992,5.646,12.651,12.678,12.651
			c6.952,0,12.625-5.659,12.625-12.651C722.354,465.906,716.682,460.247,709.729,460.247z"/>
		<path style="fill:#FFFFFF;" d="M709.729,428.148c-7.032,0-12.678,5.679-12.678,12.651c0,6.985,5.646,12.664,12.678,12.664
			c6.952,0,12.625-5.679,12.625-12.664C722.354,433.827,716.682,428.148,709.729,428.148z"/>
		<path style="fill:#FFFFFF;" d="M741.227,717.003c-7.005,0-12.678,5.672-12.678,12.65c0,6.992,5.673,12.651,12.678,12.651
			c6.979,0,12.625-5.659,12.625-12.651C753.852,722.675,748.205,717.003,741.227,717.003z"/>
		<path style="fill:#FFFFFF;" d="M741.227,684.904c-7.005,0-12.678,5.685-12.678,12.651c0,6.992,5.673,12.677,12.678,12.677
			c6.979,0,12.625-5.685,12.625-12.677C753.852,690.589,748.205,684.904,741.227,684.904z"/>
		<path style="fill:#FFFFFF;" d="M741.227,652.806c-7.005,0-12.678,5.672-12.678,12.651c0,6.978,5.673,12.664,12.678,12.664
			c6.979,0,12.625-5.686,12.625-12.664C753.852,658.478,748.205,652.806,741.227,652.806z"/>
		<path style="fill:#FFFFFF;" d="M741.227,620.72c-7.005,0-12.678,5.659-12.678,12.664c0,6.967,5.673,12.625,12.678,12.625
			c6.979,0,12.625-5.658,12.625-12.625C753.852,626.379,748.205,620.72,741.227,620.72z"/>
		<path style="fill:#FFFFFF;" d="M741.227,588.621c-7.005,0-12.678,5.659-12.678,12.665c0,6.978,5.673,12.65,12.678,12.65
			c6.979,0,12.625-5.672,12.625-12.65C753.852,594.28,748.205,588.621,741.227,588.621z"/>
		<path style="fill:#FFFFFF;" d="M741.227,556.536c-7.005,0-12.678,5.659-12.678,12.638c0,6.992,5.673,12.651,12.678,12.651
			c6.979,0,12.625-5.659,12.625-12.651C753.852,562.195,748.205,556.536,741.227,556.536z"/>
		<path style="fill:#FFFFFF;" d="M741.227,524.438c-7.005,0-12.678,5.659-12.678,12.651c0,6.979,5.673,12.65,12.678,12.65
			c6.979,0,12.625-5.672,12.625-12.65C753.852,530.097,748.205,524.438,741.227,524.438z"/>
		<path style="fill:#FFFFFF;" d="M741.227,492.339c-7.005,0-12.678,5.652-12.678,12.651c0,6.98,5.673,12.664,12.678,12.664
			c6.979,0,12.625-5.685,12.625-12.664C753.852,497.991,748.205,492.339,741.227,492.339z"/>
		<path style="fill:#FFFFFF;" d="M741.227,460.247c-7.005,0-12.678,5.659-12.678,12.645c0,6.992,5.673,12.651,12.678,12.651
			c6.979,0,12.625-5.659,12.625-12.651C753.852,465.906,748.205,460.247,741.227,460.247z"/>
		<path style="fill:#FFFFFF;" d="M741.227,428.148c-7.005,0-12.678,5.679-12.678,12.651c0,6.985,5.673,12.664,12.678,12.664
			c6.979,0,12.625-5.679,12.625-12.664C753.852,433.827,748.205,428.148,741.227,428.148z"/>
		<path style="fill:#FFFFFF;" d="M741.227,396.037c-7.005,0-12.678,5.685-12.678,12.671c0,6.979,5.673,12.651,12.678,12.651
			c6.979,0,12.625-5.672,12.625-12.651C753.852,401.722,748.205,396.037,741.227,396.037z"/>
		<path style="fill:#FFFFFF;" d="M741.227,389.26c6.979,0,12.625-5.665,12.625-12.658c0-6.979-5.646-12.645-12.625-12.645
			c-7.005,0-12.678,5.665-12.678,12.645C728.549,383.595,734.222,389.26,741.227,389.26z"/>
	</g>
</g>
<g id="Layer_1">
</g>
</svg>
