<?xml version="1.0" encoding="iso-8859-1"?>
<!-- Generator: Adobe Illustrator 17.1.0, SVG Export Plug-In . SVG Version: 6.00 Build 0)  -->
<!DOCTYPE svg PUBLIC "-//W3C//DTD SVG 1.1//EN" "http://www.w3.org/Graphics/SVG/1.1/DTD/svg11.dtd">
<svg version="1.1" xmlns="http://www.w3.org/2000/svg" xmlns:xlink="http://www.w3.org/1999/xlink" x="0px" y="0px"
	 viewBox="0 0 1009.98 1009.98" style="enable-background:new 0 0 1009.98 1009.98;" xml:space="preserve">
<g id="graph-9">
	<g id="label_9_">
		<path style="fill:#FFFFFF;" d="M504.964,1009.98C226.533,1009.98,0,787.343,0,513.694c0-1.856,0.065-3.686,0.118-5.516
			l0.091-3.397l-0.091-2.98C0.065,499.972,0,498.142,0,496.286C0,222.625,226.533,0,504.964,0
			c278.458,0,505.017,222.625,505.017,496.286c0,1.908-0.065,3.803-0.143,5.698l-0.092,3.28l0.092,2.719
			c0.078,1.895,0.143,3.79,0.143,5.711C1009.98,787.343,783.422,1009.98,504.964,1009.98L504.964,1009.98z M504.964,26.766
			c-263.676,0-478.198,210.628-478.198,469.52c0,1.568,0.052,3.11,0.105,4.665l0.104,3.83l-0.104,4.247
			c-0.053,1.543-0.105,3.098-0.105,4.666c0,258.893,214.522,469.519,478.198,469.519c263.702,0,478.25-210.627,478.25-469.519
			c0-1.595-0.065-3.163-0.117-4.732l-0.117-3.698l0.117-4.261c0.052-1.568,0.117-3.137,0.117-4.718
			C983.214,237.394,768.666,26.766,504.964,26.766L504.964,26.766z"/>
	</g>
	<path id="graph-9_4_" style="fill:#FFFFFF;" d="M524.28,506.075l223.54,13.475c-2.248,42.462-16.337,81.736-39.013,114.671
		L524.28,506.075z M588.164,263.519L518.151,487.15l235.354,14.206c0.222-4.221,0.353-8.442,0.353-12.703
		C753.858,382.869,684.146,293.344,588.164,263.519z M498.272,503.461l199.584,138.628
		c-43.652,63.438-116.75,105.052-199.584,105.052c-133.739,0-242.164-108.411-242.164-242.164
		c0-133.727,108.424-242.138,242.164-242.138c25.041,0,49.193,3.816,71.921,10.874L498.272,503.461z M481.779,509.786
		l71.125-227.499c-17.227-4.143-37.274-6.561-55.768-6.561c-126.617,0-229.251,102.661-229.251,229.251
		c0,126.629,102.634,229.264,229.251,229.264c73.528,0,138.928-34.621,180.893-88.454L481.779,509.786z"/>
</g>
<g id="Layer_1">
</g>
</svg>
