<?xml version="1.0" encoding="iso-8859-1"?>
<!-- Generator: Adobe Illustrator 17.1.0, SVG Export Plug-In . SVG Version: 6.00 Build 0)  -->
<!DOCTYPE svg PUBLIC "-//W3C//DTD SVG 1.1//EN" "http://www.w3.org/Graphics/SVG/1.1/DTD/svg11.dtd">
<svg version="1.1" xmlns="http://www.w3.org/2000/svg" xmlns:xlink="http://www.w3.org/1999/xlink" x="0px" y="0px"
	 viewBox="0 0 1009.961 1010" style="enable-background:new 0 0 1009.961 1010;" xml:space="preserve">
<g id="graph-24">
	<g id="label_24_">
		<path style="fill:#FFFFFF;" d="M504.99,1010C226.532,1010,0,783.768,0,505.683v-1.385C0,226.232,226.532,0,504.99,0
			c278.452,0,504.971,226.232,504.971,504.298v1.385C1009.961,783.768,783.441,1010,504.99,1010L504.99,1010z M504.99,26.767
			c-263.689,0-478.224,214.221-478.224,477.531v1.424c0,263.278,214.535,477.512,478.224,477.512
			c263.682,0,478.205-214.234,478.205-477.551v-1.385C983.194,240.987,768.672,26.767,504.99,26.767L504.99,26.767z"/>
	</g>
	<g id="graph-24_4_">
		<polygon style="fill:#FFFFFF;" points="274.066,326.488 256.096,326.488 256.096,667.633 256.096,686.4 274.066,686.4 
			749.121,686.4 749.121,667.633 274.066,667.633 		"/>
		<path style="fill:#FFFFFF;" d="M317.391,388.528c6.927,0,13.331-2.222,18.611-5.934l97.236,70.301
			c-0.183,1.372-0.418,2.705-0.418,4.143c0,17.957,14.56,32.452,32.477,32.452c11.789,0,22.009-6.326,27.694-15.762h48.638
			c2.771,15.121,15.944,26.596,31.863,26.596c17.932,0,32.465-14.559,32.465-32.451c0-3.058-0.549-5.973-1.333-8.769l90.676-58.055
			c5.829,5.62,13.749,9.097,22.479,9.097c17.931,0,32.464-14.521,32.464-32.465c0-17.905-14.533-32.464-32.464-32.464
			c-17.932,0-32.465,14.56-32.465,32.464c0,2.719,0.418,5.28,1.046,7.803l-91.199,58.355c-5.75-5.175-13.305-8.43-21.669-8.43
			c-13.749,0-25.459,8.613-30.19,20.741h-45.644c-0.484-17.5-14.756-31.589-32.36-31.589c-9.893,0-18.676,4.561-24.636,11.566
			l-93.316-67.491c1.594-3.868,2.509-8.129,2.509-12.573c0-17.958-14.533-32.464-32.464-32.464
			c-17.905,0-32.464,14.507-32.464,32.464C284.927,373.995,299.486,388.528,317.391,388.528z"/>
		<path style="fill:#FFFFFF;" d="M461.691,630.176c15.54,0,28.504-10.926,31.693-25.537h49.553
			c4.391,12.729,16.336,21.93,30.556,21.93c14.22,0,26.191-9.2,30.557-21.93h86.755c4.392,12.729,16.363,21.93,30.557,21.93
			c17.931,0,32.49-14.533,32.49-32.464c0-17.905-14.56-32.465-32.49-32.465c-15.448,0-28.335,10.874-31.603,25.354h-84.638
			c-3.268-14.48-16.153-25.354-31.628-25.354c-15.448,0-28.387,10.874-31.602,25.354h-49.71
			c-4.417-12.625-16.363-21.747-30.491-21.747c-7.62,0-14.52,2.745-20.062,7.136l-86.206-62.295c0.98-3.098,1.66-6.339,1.66-9.764
			c0-17.931-14.546-32.451-32.478-32.451c-17.905,0-32.438,14.521-32.438,32.451c0,17.932,14.533,32.458,32.438,32.458
			c7.973,0,15.187-2.979,20.833-7.737l85.749,61.897c-1.215,3.397-1.974,6.979-1.974,10.768
			C429.213,615.643,443.746,630.176,461.691,630.176z"/>
	</g>
</g>
<g id="Layer_1">
</g>
</svg>
