<?xml version="1.0" encoding="iso-8859-1"?>
<!-- Generator: Adobe Illustrator 17.1.0, SVG Export Plug-In . SVG Version: 6.00 Build 0)  -->
<!DOCTYPE svg PUBLIC "-//W3C//DTD SVG 1.1//EN" "http://www.w3.org/Graphics/SVG/1.1/DTD/svg11.dtd">
<svg version="1.1" xmlns="http://www.w3.org/2000/svg" xmlns:xlink="http://www.w3.org/1999/xlink" x="0px" y="0px"
	 viewBox="0 0 1009.98 1009.98" style="enable-background:new 0 0 1009.98 1009.98;" xml:space="preserve">
<g id="graph-13">
	<g id="label_13_">
		<path style="fill:#FFFFFF;" d="M504.977,1009.98C226.533,1009.98,0,785.552,0,509.695l0.124-4.823L0,500.272
			C0,224.428,226.533,0,504.977,0c278.457,0,505.003,224.428,505.003,500.272l-0.131,4.94l0.131,4.483
			C1009.98,785.552,783.435,1009.98,504.977,1009.98L504.977,1009.98z M504.977,26.766c-263.689,0-478.211,212.417-478.211,473.506
			l0.125,4.6l-0.125,4.823c0,261.101,214.522,473.519,478.211,473.519c263.702,0,478.237-212.418,478.237-473.519l-0.131-4.483
			l0.131-4.94C983.214,239.184,768.679,26.766,504.977,26.766L504.977,26.766z"/>
	</g>
	<g id="graph-13_4_">
		<path style="fill:#FFFFFF;" d="M493.842,259.389c-131.328,0.249-237.727,106.791-237.727,238.177
			c0,65.647,26.57,125.101,69.543,168.178l168.184-168.178V259.389z"/>
		<path style="fill:#FFFFFF;" d="M515.694,259.389c-0.157,0-0.288,0-0.451,0v238.177l-0.993,0.993l185.148,150.6
			c34.019-41.182,54.46-93.996,54.46-151.593C753.858,366.01,647.225,259.389,515.694,259.389z"/>
		<path style="fill:#FFFFFF;" d="M337.25,680.591c43.123,43.234,102.752,69.987,168.635,69.987
			c73.939,0,140.019-33.693,183.697-86.572L504.454,513.394L337.25,680.591z"/>
	</g>
</g>
<g id="Layer_1">
</g>
</svg>
