<?xml version="1.0" encoding="iso-8859-1"?>
<!-- Generator: Adobe Illustrator 17.1.0, SVG Export Plug-In . SVG Version: 6.00 Build 0)  -->
<!DOCTYPE svg PUBLIC "-//W3C//DTD SVG 1.1//EN" "http://www.w3.org/Graphics/SVG/1.1/DTD/svg11.dtd">
<svg version="1.1" xmlns="http://www.w3.org/2000/svg" xmlns:xlink="http://www.w3.org/1999/xlink" x="0px" y="0px"
	 viewBox="0 0 1009.98 1009.961" style="enable-background:new 0 0 1009.98 1009.961;" xml:space="preserve">
<g id="graph-25">
	<g id="label_25_">
		<path style="fill:#FFFFFF;" d="M504.971,1009.961C226.526,1009.961,0,784.957,0,508.401l0.052-4.613L0,501.566
			C0,225.003,226.526,0,504.971,0c278.464,0,505.01,225.003,505.01,501.566l-0.065,4.457l0.065,2.378
			C1009.98,784.957,783.435,1009.961,504.971,1009.961L504.971,1009.961z M504.971,26.766c-263.683,0-478.205,212.993-478.205,474.8
			l0.085,3.411l-0.052,2.209c-0.033,263.029,214.489,476.009,478.172,476.009c263.708,0,478.243-212.979,478.243-474.794
			l-0.092-3.267l0.092-3.568C983.214,239.759,768.679,26.766,504.971,26.766L504.971,26.766z"/>
	</g>
	<g id="graph-25_4_">
		<rect x="290.449" y="741.802" style="fill:#FFFFFF;" width="435.768" height="34.32"/>
		<rect x="657.497" y="464.475" style="fill:#FFFFFF;" width="36.817" height="263.395"/>
		<rect x="588.766" y="500.886" style="fill:#FFFFFF;" width="36.829" height="226.983"/>
		<rect x="520.085" y="535.645" style="fill:#FFFFFF;" width="36.791" height="192.225"/>
		<rect x="451.373" y="596.182" style="fill:#FFFFFF;" width="36.803" height="131.688"/>
		<rect x="382.653" y="635.443" style="fill:#FFFFFF;" width="36.81" height="92.427"/>
		<rect x="313.947" y="663.229" style="fill:#FFFFFF;" width="36.797" height="64.641"/>
		<path style="fill:#FFFFFF;" d="M621.178,368.781l50.304,19.63l-31.889-154.598l-137.432,93.251l50.311,22.113
			c-87.114,210.986-268.715,300.982-268.715,300.982C553.687,560.999,621.178,368.781,621.178,368.781z"/>
	</g>
</g>
<g id="Layer_1">
</g>
</svg>
