<?xml version="1.0" encoding="iso-8859-1"?>
<!-- Generator: Adobe Illustrator 17.1.0, SVG Export Plug-In . SVG Version: 6.00 Build 0)  -->
<!DOCTYPE svg PUBLIC "-//W3C//DTD SVG 1.1//EN" "http://www.w3.org/Graphics/SVG/1.1/DTD/svg11.dtd">
<svg version="1.1" xmlns="http://www.w3.org/2000/svg" xmlns:xlink="http://www.w3.org/1999/xlink" x="0px" y="0px"
	 viewBox="0 0 1009.98 1010" style="enable-background:new 0 0 1009.98 1010;" xml:space="preserve">
<g id="graph-23">
	<g id="label_23_">
		<path style="fill:#FFFFFF;" d="M504.964,1010C226.533,1010,0.013,783.742,0.013,505.657L0,504.285C0,226.219,226.52,0,504.964,0
			c278.458,0,505.004,226.219,505.004,504.285l0.013,1.372C1009.98,783.742,783.435,1010,504.964,1010L504.964,1010z
			 M504.964,26.767c-263.676,0-478.198,214.208-478.198,477.518l0.013,1.699c0,263.017,214.509,477.251,478.185,477.251
			c263.702,0,478.25-214.234,478.25-477.577l-0.013-1.752C983.201,240.975,768.666,26.767,504.964,26.767L504.964,26.767z"/>
	</g>
	<path id="graph-23_4_" style="fill:#FFFFFF;" d="M497.175,628.791v81.266c0,35.94-19.787,43.809-44.136,43.809h-3.149
		c-24.362,0-44.162-9.672-44.162-43.809v-81.266c0-40.385,19.8-47.756,44.162-47.756h3.149
		C477.388,581.035,497.175,581.976,497.175,628.791z M679.781,359.697h-3.177c-24.322,0-44.096,7.358-44.096,47.756v300.982
		c0,34.164,19.773,43.809,44.096,43.809h3.177c24.335,0,44.148-7.842,44.148-43.809V407.453
		C723.93,360.678,704.116,359.697,679.781,359.697z M568.769,488.823h-3.137c-24.361,0-44.148,7.397-44.148,47.749v171.523
		c0,34.138,19.787,43.809,44.148,43.809h3.137c24.349,0,44.149-7.841,44.149-43.809V536.572
		C612.918,489.816,593.117,488.823,568.769,488.823z M333.362,488.823h-3.163c-24.335,0-44.148,7.397-44.148,47.749v171.523
		c0,34.138,19.813,43.809,44.148,43.809h3.163c24.361,0,44.136-7.841,44.136-43.809V536.572
		C377.498,489.816,357.724,488.823,333.362,488.823z M330.539,443.08l113.757,75.797l248.803-229.755l0,0
		c2.627-2.431,2.797-6.561,0.34-9.174l0,0c-2.418-2.628-6.521-2.797-9.162-0.392L443.002,502.402l-105.235-70.143l0,0
		c-2.993-2.013-7.044-1.176-9.031,1.804l0,0c-1.986,2.979-1.176,7.005,1.817,9.018H330.539L330.539,443.08z M700.509,337.741
		l17.291-81.632l-82.102,18.872L700.509,337.741z"/>
</g>
<g id="Layer_1">
</g>
</svg>
