<?xml version="1.0" encoding="iso-8859-1"?>
<!-- Generator: Adobe Illustrator 17.1.0, SVG Export Plug-In . SVG Version: 6.00 Build 0)  -->
<!DOCTYPE svg PUBLIC "-//W3C//DTD SVG 1.1//EN" "http://www.w3.org/Graphics/SVG/1.1/DTD/svg11.dtd">
<svg version="1.1" xmlns="http://www.w3.org/2000/svg" xmlns:xlink="http://www.w3.org/1999/xlink" x="0px" y="0px"
	 viewBox="0 0 1009.98 1009.961" style="enable-background:new 0 0 1009.98 1009.961;" xml:space="preserve">
<g id="graph-29">
	<g id="label_29_">
		<path style="fill:#FFFFFF;" d="M504.964,1009.961C226.52,1009.961,0,784.957,0,508.401l0.052-4.652L0,501.553
			C0,224.991,226.52,0,504.964,0c278.458,0,505.004,224.991,505.004,501.553l-0.066,2.509l0.079,4.339
			C1009.98,784.957,783.435,1009.961,504.964,1009.961L504.964,1009.961z M504.964,26.766
			c-263.676,0-478.198,212.993-478.198,474.787l0.079,3.424l-0.053,2.156c-0.026,263.082,214.496,476.061,478.172,476.061
			c263.702,0,478.25-212.979,478.25-474.794l-0.104-3.776l0.092-3.071C983.201,239.759,768.666,26.766,504.964,26.766
			L504.964,26.766z"/>
	</g>
	<g id="graph-29_4_">
		<rect x="610.761" y="574.382" style="fill:#FFFFFF;" width="72.393" height="85.448"/>
		<rect x="510.349" y="514.164" style="fill:#FFFFFF;" width="72.313" height="145.666"/>
		<rect x="409.923" y="437.16" style="fill:#FFFFFF;" width="72.326" height="222.671"/>
		<rect x="309.445" y="358.756" style="fill:#FFFFFF;" width="72.353" height="301.074"/>
		<polygon style="fill:#FFFFFF;" points="735.679,335.061 735.679,679.434 256.109,679.434 256.109,698.307 735.679,698.307 
			753.858,698.307 753.858,679.434 753.858,335.061 		"/>
		<polygon style="fill:#FFFFFF;" points="636.626,495.58 618.015,510.245 692.615,521.765 653.381,457.261 646.989,480.629 
			389.365,311.85 389.365,311.746 389.247,311.746 388.934,311.602 388.829,311.746 310.021,311.746 310.021,329.52 383.209,329.52 
					"/>
	</g>
</g>
<g id="Layer_1">
</g>
</svg>
