<?xml version="1.0" encoding="iso-8859-1"?>
<!-- Generator: Adobe Illustrator 17.1.0, SVG Export Plug-In . SVG Version: 6.00 Build 0)  -->
<!DOCTYPE svg PUBLIC "-//W3C//DTD SVG 1.1//EN" "http://www.w3.org/Graphics/SVG/1.1/DTD/svg11.dtd">
<svg version="1.1" xmlns="http://www.w3.org/2000/svg" xmlns:xlink="http://www.w3.org/1999/xlink" x="0px" y="0px"
	 viewBox="0 0 1009.98 1009.98" style="enable-background:new 0 0 1009.98 1009.98;" xml:space="preserve">
<g id="graph-2">
	<g id="label_2_">
		<path style="fill:#FFFFFF;" d="M504.977,1009.98C226.533,1009.98,0,789.106,0,517.622c0-2.98,0.105-5.94,0.209-8.907l0.131-4.078
			l-0.144-3.378C0.105,498.299,0,495.345,0,492.352C0,220.867,226.533,0,504.977,0c278.457,0,505.003,220.867,505.003,492.352
			c0,2.987-0.104,5.947-0.196,8.9l-0.143,4.091l0.143,3.379c0.092,2.96,0.196,5.92,0.196,8.9
			C1009.98,789.106,783.435,1009.98,504.977,1009.98L504.977,1009.98z M504.977,26.766c-263.689,0-478.211,208.863-478.211,465.585
			c0,2.673,0.091,5.319,0.183,7.96l0.143,4.326l-0.143,5.025c-0.092,2.647-0.183,5.294-0.183,7.96
			c0,256.729,214.522,465.592,478.211,465.592c263.702,0,478.237-208.862,478.237-465.592c0-2.66-0.092-5.313-0.183-7.96
			l-0.144-4.319l0.144-5.031c0.091-2.647,0.183-5.287,0.183-7.96C983.214,235.629,768.679,26.766,504.977,26.766L504.977,26.766z"/>
	</g>
	<g id="graph-2_4_">
		<path style="fill:#FFFFFF;" d="M640.572,701.62l-271.452-0.014c-9.07-6.299-17.761-13.199-26.008-20.807l5.175-5.175
			l323.756-0.026C662.216,685.257,651.694,693.922,640.572,701.62z"/>
		<path style="fill:#FFFFFF;" d="M368.205,655.707l25.995-25.983l314.504-0.026c-5.542,9.006-11.672,17.723-18.441,25.996
			L368.205,655.707z"/>
		<path style="fill:#FFFFFF;" d="M680.67,343.256c10.612,11.52,19.97,23.917,28.021,37.013l-65.021-0.013L680.67,343.256z"/>
		<path style="fill:#FFFFFF;" d="M623.765,400.16l95.865,0.006c4.13,8.45,7.776,17.147,10.873,26.028l-132.746-0.02L623.765,400.16z
			"/>
		<path style="fill:#FFFFFF;" d="M577.839,446.08l158.677,0.006c2.143,8.541,3.79,17.219,4.992,26.002l-189.65-0.013L577.839,446.08
			z"/>
		<path style="fill:#FFFFFF;" d="M531.94,491.979l211.477,0.026c0.235,4.306,0.366,8.639,0.366,12.984
			c0,4.339-0.131,8.671-0.366,12.984H505.957L531.94,491.979z"/>
		<path style="fill:#FFFFFF;" d="M486.04,537.886h255.468c-1.202,8.796-2.836,17.474-4.992,25.995H460.044L486.04,537.886z"/>
		<path style="fill:#FFFFFF;" d="M440.126,583.799h290.39c-3.11,8.874-6.744,17.539-10.874,25.981l-305.524,0.026L440.126,583.799z"
			/>
		<path style="fill:#FFFFFF;" d="M335.911,336.035c45.128-45.109,105.13-69.974,168.948-69.974
			c60.499,0,117.547,22.369,161.722,63.119L428.979,566.782c0,0-0.013,0.014-0.013,0.026l-99.733,99.72
			C243.105,572.925,245.156,426.828,335.911,336.035z"/>
		<path style="fill:#FFFFFF;" d="M504.859,743.913c-35.562-0.014-69.935-7.751-101.236-22.389l202.458,0.014
			C574.808,736.176,540.435,743.913,504.859,743.913z"/>
	</g>
</g>
<g id="Layer_1">
</g>
</svg>
