<?xml version="1.0" encoding="iso-8859-1"?>
<!-- Generator: Adobe Illustrator 17.1.0, SVG Export Plug-In . SVG Version: 6.00 Build 0)  -->
<!DOCTYPE svg PUBLIC "-//W3C//DTD SVG 1.1//EN" "http://www.w3.org/Graphics/SVG/1.1/DTD/svg11.dtd">
<svg version="1.1" xmlns="http://www.w3.org/2000/svg" xmlns:xlink="http://www.w3.org/1999/xlink" x="0px" y="0px"
	 viewBox="0 0 1009.98 1009.98" style="enable-background:new 0 0 1009.98 1009.98;" xml:space="preserve">
<g id="graph-15">
	<g id="label_15_">
		<path style="fill:#FFFFFF;" d="M504.971,1009.98C226.526,1009.98,0,785.565,0,509.708l0.131-4.822L0,500.272
			C0,224.428,226.526,0,504.971,0c278.464,0,505.01,224.428,505.01,500.272l-0.118,4.954l0.118,4.482
			C1009.98,785.565,783.435,1009.98,504.971,1009.98L504.971,1009.98z M504.971,26.766c-263.683,0-478.205,212.417-478.205,473.506
			l0.131,4.614l-0.131,4.822c0,261.102,214.522,473.506,478.205,473.506c263.708,0,478.243-212.404,478.243-473.506l-0.117-4.482
			l0.117-4.954C983.214,239.184,768.679,26.766,504.971,26.766L504.971,26.766z"/>
	</g>
	<g id="graph-15_4_">
		<path style="fill:#FFFFFF;" d="M494.195,393.22V256.122c-58.597,2.496-114.305,25.564-157.559,65.255l96.949,96.936
			C450.386,404.46,471.297,395.403,494.195,393.22z"/>
		<path style="fill:#FFFFFF;" d="M616.76,494.194h137.099c-2.51-58.616-25.577-114.318-65.242-157.539l-96.949,96.936
			C605.521,450.386,614.538,471.284,616.76,494.194z"/>
		<path style="fill:#FFFFFF;" d="M576.401,418.313l96.949-96.936c-43.26-39.692-98.935-62.759-157.585-65.255V393.22
			C538.696,395.403,559.581,404.46,576.401,418.313z"/>
		<path style="fill:#FFFFFF;" d="M418.32,433.592l-96.962-96.936c-39.685,43.22-62.733,98.922-65.236,157.539h137.111
			C395.403,471.284,404.467,450.386,418.32,433.592z"/>
		<path style="fill:#FFFFFF;" d="M393.233,515.772H256.122c2.503,58.655,25.551,114.331,65.236,157.565l96.962-96.923
			C404.467,559.581,395.416,538.696,393.233,515.772z"/>
		<path style="fill:#FFFFFF;" d="M433.585,591.667l-96.949,96.962c43.253,39.652,98.961,62.733,157.559,65.242V616.76
			C471.297,614.577,450.386,605.507,433.585,591.667z"/>
		<path style="fill:#FFFFFF;" d="M591.667,576.415l96.949,96.923c39.665-43.234,62.732-98.91,65.242-157.565H616.76
			C614.538,538.696,605.521,559.581,591.667,576.415z"/>
		<path style="fill:#FFFFFF;" d="M515.766,616.76v137.111c58.649-2.509,114.325-25.59,157.585-65.242l-96.949-96.962
			C559.581,605.507,538.696,614.577,515.766,616.76z"/>
	</g>
</g>
<g id="Layer_1">
</g>
</svg>
