<?xml version="1.0" encoding="iso-8859-1"?>
<!-- Generator: Adobe Illustrator 17.1.0, SVG Export Plug-In . SVG Version: 6.00 Build 0)  -->
<!DOCTYPE svg PUBLIC "-//W3C//DTD SVG 1.1//EN" "http://www.w3.org/Graphics/SVG/1.1/DTD/svg11.dtd">
<svg version="1.1" xmlns="http://www.w3.org/2000/svg" xmlns:xlink="http://www.w3.org/1999/xlink" x="0px" y="0px"
	 viewBox="0 0 1009.98 1009.98" style="enable-background:new 0 0 1009.98 1009.98;" xml:space="preserve">
<g id="graph-33">
	<g id="label_33_">
		<path style="fill:#FFFFFF;" d="M504.977,1009.98C226.533,1009.98,0,786.768,0,512.413c0-1.477,0.052-2.94,0.105-4.404l0.078-3.097
			l-0.078-2.876C0.052,500.56,0,499.083,0,497.593C0,223.213,226.533,0,504.977,0c278.457,0,505.003,223.213,505.003,497.593
			c0,1.529-0.053,3.045-0.104,4.548l-0.092,3.019l0.092,2.744c0.052,1.503,0.104,2.993,0.104,4.509
			C1009.98,786.768,783.435,1009.98,504.977,1009.98L504.977,1009.98z M504.977,26.766c-263.689,0-478.211,211.215-478.211,470.827
			l0.183,7.319l-0.183,7.501c0,259.599,214.522,470.801,478.211,470.801c263.702,0,478.237-211.202,478.237-470.801l-0.195-7.253
			l0.195-7.567C983.214,237.981,768.679,26.766,504.977,26.766L504.977,26.766z"/>
	</g>
	<path id="graph-33_4_" style="fill:#FFFFFF;" d="M753.858,704.991v17.121c0,15.579-12.625,28.165-28.164,28.165H284.286
		c-15.565,0-28.177-12.586-28.177-28.165v-17.121c0-13.514,9.541-24.818,22.283-27.55c1.621,8.103,6.339,15.174,12.756,20.218
		c7.96,6.353,18.533,10.025,30.034,10.025h21.473c11.488,0,22.062-3.673,30.034-10.025c6.548-5.188,11.383-12.481,12.873-20.846
		h5.411c1.489,8.365,6.299,15.658,12.86,20.846c7.972,6.353,18.545,10.025,30.033,10.025h21.499
		c11.501,0,22.035-3.673,30.021-10.025c6.561-5.188,11.384-12.481,12.874-20.846h9.423c1.503,8.365,6.312,15.684,12.887,20.846
		c7.959,6.353,18.519,10.025,30.033,10.025h21.473c11.502,0,22.062-3.673,30.034-10.025c6.548-5.162,11.384-12.481,12.873-20.846
		h9.437c1.477,8.365,6.299,15.658,12.873,20.846c7.946,6.353,18.52,10.025,30.033,10.025h21.461
		c11.501,0,22.087-3.673,30.046-10.025c6.404-5.044,11.136-12.115,12.756-20.218C744.317,680.173,753.858,691.478,753.858,704.991z
		 M667.325,342.785c-19.551,0-35.379,12.625-35.379,28.178v288.456c0,15.565,15.828,28.164,35.379,28.164h21.474
		c19.552,0,35.379-12.599,35.379-28.164V370.963c0-15.553-15.827-28.178-35.379-28.178H667.325z M550.603,449.432
		c-19.539,0-35.393,12.639-35.393,28.191v181.796c0,15.565,15.853,28.164,35.393,28.164h21.473
		c19.539,0,35.393-12.599,35.393-28.164V477.623c0-15.552-15.853-28.191-35.393-28.191H550.603z M433.879,406.185
		c-19.552,0-35.379,12.599-35.379,28.164v225.069c0,15.565,15.827,28.164,35.379,28.164h21.486
		c19.526,0,35.379-12.599,35.379-28.164V434.35c0-15.565-15.853-28.164-35.379-28.164H433.879z M321.182,687.583h21.473
		c19.552,0,35.393-12.599,35.393-28.164V513.185c0-15.592-15.84-28.178-35.393-28.178h-21.473
		c-19.552,0-35.392,12.586-35.392,28.178v146.234C285.79,674.984,301.63,687.583,321.182,687.583z M304.296,473.741
		c5.92,0,10.73-4.81,10.73-10.717c0-0.811-0.091-1.568-0.261-2.327l113.155-81.762c1.555,0.862,3.307,1.411,5.201,1.411
		c3.49,0,6.548-1.686,8.522-4.234l109.339,36.66c1.098,4.745,5.332,8.338,10.442,8.338c5.934,0,10.743-4.822,10.743-10.73
		c0-0.967-0.17-1.882-0.405-2.757l99.171-106.228l17.056,16.258l4.156-44.554l-44.292,6.273l16.519,15.762l-98.491,105.497
		c-1.347-0.641-2.862-0.994-4.457-0.994c-3.477,0-6.534,1.673-8.495,4.235l-109.365-36.673c-1.098-4.744-5.345-8.312-10.442-8.312
		c-5.907,0-10.717,4.81-10.717,10.743c0,0.653,0.065,1.333,0.196,1.999l-113.364,81.906c-1.477-0.784-3.137-1.254-4.94-1.254
		c-5.921,0-10.756,4.783-10.756,10.743C293.54,468.932,298.375,473.741,304.296,473.741z"/>
</g>
<g id="Layer_1">
</g>
</svg>
