<?xml version="1.0" encoding="iso-8859-1"?>
<!-- Generator: Adobe Illustrator 17.1.0, SVG Export Plug-In . SVG Version: 6.00 Build 0)  -->
<!DOCTYPE svg PUBLIC "-//W3C//DTD SVG 1.1//EN" "http://www.w3.org/Graphics/SVG/1.1/DTD/svg11.dtd">
<svg version="1.1" xmlns="http://www.w3.org/2000/svg" xmlns:xlink="http://www.w3.org/1999/xlink" x="0px" y="0px"
	 viewBox="0 0 1009.98 1009.98" style="enable-background:new 0 0 1009.98 1009.98;" xml:space="preserve">
<g id="graph-31">
	<g id="label_31_">
		<path style="fill:#FFFFFF;" d="M504.971,1009.98C226.526,1009.98,0,786.768,0,512.388c0-1.49,0.052-2.954,0.098-4.431l0.085-3.071
			l-0.085-2.875C0.052,500.546,0,499.069,0,497.593C0,223.213,226.526,0,504.971,0c278.464,0,505.01,223.213,505.01,497.593
			c0,1.477-0.039,2.94-0.092,4.404l-0.078,3.098l0.078,2.875c0.053,1.464,0.092,2.928,0.092,4.418
			C1009.98,786.768,783.435,1009.98,504.971,1009.98L504.971,1009.98z M504.971,26.766c-263.683,0-478.205,211.215-478.205,470.827
			l0.183,7.293l-0.183,7.502c0,259.611,214.522,470.826,478.205,470.826c263.708,0,478.243-211.215,478.243-470.826l-0.17-7.293
			l0.17-7.502C983.214,237.981,768.679,26.766,504.971,26.766L504.971,26.766z"/>
	</g>
	<path id="graph-31_4_" style="fill:#FFFFFF;" d="M753.858,695.922v24.792c0,10.194-10.481,18.559-23.316,18.559H279.438
		c-12.841,0-23.322-8.364-23.322-18.559v-24.792c0-10.221,10.481-18.585,23.322-18.585h20.343c-0.013-0.274-0.078-0.497-0.078-0.81
		V531.874c0-11.684,9.534-21.225,21.179-21.225h52.932c11.645,0,21.179,9.541,21.179,21.225v144.652c0,0.313-0.078,0.536-0.078,0.81
		h9.958c-0.013-0.274-0.079-0.497-0.079-0.81V454.241c0-11.684,9.521-21.225,21.18-21.225h52.931
		c11.651,0,21.186,9.541,21.186,21.225v222.285c0,0.313-0.071,0.536-0.078,0.81h9.952c-0.013-0.274-0.085-0.497-0.085-0.81v-384.66
		c0-11.632,9.541-21.172,21.185-21.172h52.944c11.632,0,21.173,9.541,21.173,21.172v384.66c0,0.313-0.078,0.536-0.092,0.81h9.959
		c-0.013-0.274-0.078-0.497-0.078-0.81V380.085c0-11.632,9.527-21.172,21.185-21.172h52.932c11.645,0,21.172,9.54,21.172,21.172
		v296.441c0,0.313-0.065,0.536-0.078,0.81h20.361C743.377,677.337,753.858,685.701,753.858,695.922z M439.101,388.79l11.423,20.689
		c5.47,9.893,12.475,9.109,15.611-1.751l16.65-57.832c3.137-10.848-3.183-22.284-14.023-25.407l-57.846-16.651
		c-10.834-3.136-15.252,2.405-9.782,12.259l8.09,14.69c-7.907,3.999-76.482,41.639-41.312,123.363
		C367.911,458.149,371.793,408.472,439.101,388.79z"/>
</g>
<g id="Layer_1">
</g>
</svg>
