<?xml version="1.0" encoding="iso-8859-1"?>
<!-- Generator: Adobe Illustrator 17.1.0, SVG Export Plug-In . SVG Version: 6.00 Build 0)  -->
<!DOCTYPE svg PUBLIC "-//W3C//DTD SVG 1.1//EN" "http://www.w3.org/Graphics/SVG/1.1/DTD/svg11.dtd">
<svg version="1.1" xmlns="http://www.w3.org/2000/svg" xmlns:xlink="http://www.w3.org/1999/xlink" x="0px" y="0px"
	 viewBox="0 0 1009.961 1009.98" style="enable-background:new 0 0 1009.961 1009.98;" xml:space="preserve">
<g id="graph-18">
	<g id="label_18_">
		<path style="fill:#FFFFFF;" d="M504.99,1009.98C226.532,1009.98,0,785.565,0,509.708l0.117-4.822L0,500.272
			C0,224.428,226.532,0,504.99,0c278.452,0,504.971,224.428,504.971,500.272l-0.131,4.954l0.131,4.482
			C1009.961,785.565,783.441,1009.98,504.99,1009.98L504.99,1009.98z M504.99,26.766c-263.689,0-478.224,212.417-478.224,473.506
			l0.118,4.614l-0.118,4.822c0,261.102,214.535,473.506,478.224,473.506c263.682,0,478.205-212.404,478.205-473.506l-0.131-4.482
			l0.131-4.954C983.194,239.184,768.672,26.766,504.99,26.766L504.99,26.766z"/>
	</g>
	<g id="graph-18_4_">
		<path style="fill:#FFFFFF;" d="M589.386,361.814h-58.446c-12.893,0-23.361,10.455-23.361,23.368v338.956
			c0,12.912,10.468,23.354,23.361,23.354h58.446c12.913,0,23.368-10.442,23.368-23.354V385.183
			C612.754,372.27,602.299,361.814,589.386,361.814z"/>
		<path style="fill:#FFFFFF;" d="M449.157,455.326h-58.473c-12.899,0-23.368,10.456-23.368,23.355v87.579
			c42.476,10.979,73.895,49.454,73.895,95.368c0,36.868-20.258,68.954-50.252,85.865h58.198c12.887,0,23.342-10.442,23.342-23.354
			V478.681C472.499,465.782,462.044,455.326,449.157,455.326z"/>
		<path style="fill:#FFFFFF;" d="M337.309,656.321v-77.488c-43.756,2.757-78.416,39.012-78.416,83.474
			c0,16.232,4.691,31.314,12.677,44.149l65.739-47.573V656.321z"/>
		<path style="fill:#FFFFFF;" d="M367.316,582.439c-5.999-1.843-12.233-3.124-18.716-3.581v77.463h18.716h58.76
			C423.593,621.334,399.624,592.425,367.316,582.439z"/>
		<path style="fill:#FFFFFF;" d="M727.686,262.474h-58.421c-12.912,0-23.394,10.455-23.394,23.368v438.31
			c0,12.899,10.482,23.342,23.394,23.342h58.421c12.913,0,23.368-10.442,23.368-23.342v-438.31
			C751.055,272.929,740.6,262.474,727.686,262.474z"/>
		<path style="fill:#FFFFFF;" d="M348.601,667.613v0.013h-4.13l-66.379,48.03c15.37,18.571,38.568,30.399,64.524,30.399
			c11.004,0,21.46-2.143,31.066-5.985c29.262-11.71,50.331-39.496,52.421-72.444l-58.786-0.013H348.601z"/>
	</g>
</g>
<g id="Layer_1">
</g>
</svg>
