<?xml version="1.0" encoding="iso-8859-1"?>
<!-- Generator: Adobe Illustrator 17.1.0, SVG Export Plug-In . SVG Version: 6.00 Build 0)  -->
<!DOCTYPE svg PUBLIC "-//W3C//DTD SVG 1.1//EN" "http://www.w3.org/Graphics/SVG/1.1/DTD/svg11.dtd">
<svg version="1.1" xmlns="http://www.w3.org/2000/svg" xmlns:xlink="http://www.w3.org/1999/xlink" x="0px" y="0px"
	 viewBox="0 0 1009.961 1009.961" style="enable-background:new 0 0 1009.961 1009.961;" xml:space="preserve">
<g id="graph-30">
	<g id="label_30_">
		<path style="fill:#FFFFFF;" d="M504.964,1009.961C226.52,1009.961,0,784.983,0,508.414l0.052-4.496L0,501.579
			C0,225.003,226.52,0,504.964,0c278.451,0,504.997,225.003,504.997,501.579l-0.053,4.574l0.053,2.262
			C1009.961,784.983,783.415,1009.961,504.964,1009.961L504.964,1009.961z M504.964,26.766
			c-263.676,0-478.198,213.006-478.198,474.813l0.079,3.254l-0.079,3.581c0,261.801,214.523,474.78,478.198,474.78
			c263.708,0,478.23-212.979,478.23-474.78l-0.079-3.424l0.053-2.222C983.194,239.772,768.672,26.766,504.964,26.766L504.964,26.766
			z"/>
	</g>
	<path id="graph-30_4_" style="fill:#FFFFFF;" d="M295.003,658.549V530.103c0-8.939,7.332-16.304,16.324-16.304h46.867
		c8.992,0,16.311,7.364,16.311,16.304v128.446c0,8.992-7.319,16.285-16.311,16.285h-46.867
		C302.335,674.834,295.003,667.541,295.003,658.549z M424.796,436.324c-8.979,0-16.311,7.357-16.311,16.311v205.915
		c0,8.992,7.332,16.285,16.311,16.285h46.893c8.965,0,16.311-7.293,16.311-16.285V452.634c0-8.953-7.345-16.311-16.311-16.311
		H424.796z M538.284,330.356c-8.966,0-16.311,7.332-16.311,16.297v311.895c0,8.992,7.345,16.285,16.311,16.285h46.867
		c8.991,0,16.311-7.293,16.311-16.285V346.654c0-8.966-7.319-16.297-16.311-16.297H538.284z M635.442,489.333v169.216
		c0,8.992,7.345,16.285,16.337,16.285h46.893c8.94,0,16.285-7.293,16.285-16.285V489.333c0-8.94-7.345-16.285-16.285-16.285h-46.893
		C642.787,473.048,635.442,480.393,635.442,489.333z M715.977,686.571H293.997c-8.979,0-16.311,7.345-16.311,16.311v34.66
		c0,8.966,7.332,16.311,16.311,16.311h421.979c8.966,0,16.311-7.345,16.311-16.311v-34.66
		C732.287,693.915,724.942,686.571,715.977,686.571z M331.192,489.856c8.247,0,14.951-6.691,14.951-14.952
		c0-0.418-0.065-0.797-0.117-1.203l96.1-64.367c1.647,0.64,3.411,1.02,5.28,1.02c8.233,0,14.951-6.692,14.951-14.938
		c0-1.229-0.209-2.378-0.471-3.529l91.088-107.261c1.908,0.85,3.973,1.372,6.194,1.372c1.308,0,2.536-0.209,3.738-0.536
		l94.779,133.531c-1.464,2.326-2.352,5.07-2.352,8.024c0,8.233,6.691,14.925,14.926,14.925c8.26,0,14.951-6.692,14.951-14.925
		c0-8.286-6.691-14.952-14.951-14.952c-0.81,0-1.568,0.105-2.353,0.235l-95.434-134.511c0.993-2.039,1.648-4.3,1.648-6.717
		c0-8.286-6.666-14.978-14.952-14.978c-8.26,0-14.951,6.692-14.951,14.978c0,1.438,0.288,2.836,0.68,4.169l-90.774,106.882
		c-2.039-1.032-4.3-1.66-6.717-1.66c-8.26,0-14.978,6.692-14.978,14.952c0,1.804,0.392,3.477,0.967,5.084l-93.316,62.472
		c-2.497-1.869-5.542-3.02-8.887-3.02c-8.233,0-14.951,6.718-14.951,14.952C316.241,483.164,322.959,489.856,331.192,489.856z"/>
</g>
<g id="Layer_1">
</g>
</svg>
