<?xml version="1.0" encoding="iso-8859-1"?>
<!-- Generator: Adobe Illustrator 17.1.0, SVG Export Plug-In . SVG Version: 6.00 Build 0)  -->
<!DOCTYPE svg PUBLIC "-//W3C//DTD SVG 1.1//EN" "http://www.w3.org/Graphics/SVG/1.1/DTD/svg11.dtd">
<svg version="1.1" id="Capa_1" xmlns="http://www.w3.org/2000/svg" xmlns:xlink="http://www.w3.org/1999/xlink" x="0px" y="0px"
	 viewBox="0 0 460 460" style="enable-background:new 0 0 460 460;" xml:space="preserve">
<g>
	<path d="M278.459,262.623v-54.454c0-5.523-4.478-10-10-10h-76.918c-5.522,0-10,4.477-10,10v54.454c0,3.165,1.498,6.143,4.039,8.029
		c12.895,9.573,25.054,20.42,37.174,33.164c1.888,1.985,4.507,3.108,7.246,3.108s5.358-1.124,7.246-3.108
		c12.12-12.743,24.279-23.591,37.174-33.164C276.961,268.765,278.459,265.788,278.459,262.623z M258.459,257.648
		c-9.779,7.533-19.177,15.781-28.459,24.983c-9.282-9.202-18.68-17.45-28.459-24.983v-39.48h56.918V257.648z"/>
	<path d="M440.302,124.059c-1.293-3.631-4.558-6.196-8.392-6.593c-3.847-0.4-7.555,1.446-9.563,4.734
		c-10.733,17.574-20.982,31.605-30.901,43.11c-12.438-25.424-30.727-47.627-53.571-64.803c-0.03-0.023-0.064-0.039-0.094-0.061
		c-20.066-15.065-42.577-25.573-66.912-31.235c-0.052-0.013-0.101-0.03-0.152-0.042c-26.582-6.161-54.852-6.161-81.434,0
		c-0.195,0.045-0.384,0.103-0.574,0.159c-24.126,5.674-46.448,16.11-66.36,31.034c-0.073,0.052-0.152,0.091-0.224,0.145
		c-22.845,17.176-41.134,39.379-53.571,64.802c-9.919-11.504-20.167-25.536-30.9-43.109c-2.01-3.289-5.729-5.134-9.563-4.734
		c-3.834,0.397-7.099,2.961-8.392,6.593C5.186,164.817-1.362,203.877,0.235,240.154c1.383,31.393,8.751,60.103,21.9,85.332
		c21.138,40.559,51.619,61.308,73.097,67.202c6.681,1.833,13.75,2.763,21.01,2.763c0.002,0-0.001,0,0.001,0
		c27.487,0,53.423-12.781,76.302-24.055C207.347,364.1,221.329,357.21,230,357.21c8.67,0,22.652,6.89,37.456,14.186
		c22.88,11.275,48.813,24.055,76.302,24.055c7.26,0,14.329-0.93,21.01-2.763c21.478-5.894,51.959-26.643,73.097-67.202
		c13.149-25.229,20.518-53.939,21.9-85.332C461.362,203.877,454.813,164.817,440.302,124.059z M376.645,180.932
		c-11.885,11.351-23.384,19.601-34.781,26.594v-77.243C356.617,144.757,368.434,161.925,376.645,180.932z M258.459,87.078v47.685
		h-56.918V87.078C220.27,83.721,239.728,83.721,258.459,87.078z M118.136,130.283v77.243c-11.396-6.992-22.894-15.242-34.778-26.592
		C91.567,161.928,103.381,144.758,118.136,130.283z M420.129,316.242c-18.186,34.894-44.04,52.599-60.654,57.158
		c-4.957,1.36-10.245,2.05-15.717,2.05c-22.827,0-46.54-11.686-67.462-21.995C258.607,344.738,243.33,337.21,230,337.21
		c-13.331,0-28.607,7.528-46.296,16.246c-20.921,10.31-44.633,21.995-67.462,21.995c-5.473,0-10.76-0.69-15.717-2.05
		c-16.614-4.56-42.469-22.265-60.654-57.158c-16.889-32.406-31.037-86.69-7.76-165.731c32.898,48.245,61.962,66.986,91.198,83.096
		c3.097,1.706,6.867,1.651,9.912-0.149c3.046-1.799,4.914-5.073,4.914-8.61V113.605c13.381-9.44,27.924-16.667,43.405-21.577v52.735
		c0,5.523,4.478,10,10,10h76.918c5.522,0,10-4.477,10-10V92.015c15.479,4.909,30.021,12.136,43.405,21.579v111.255
		c0,3.537,1.868,6.811,4.914,8.61c3.046,1.799,6.813,1.855,9.912,0.149c29.236-16.11,58.3-34.851,91.198-83.096
		C451.166,229.552,437.017,283.837,420.129,316.242z"/>
	<path d="M360.556,263.564c-2.737-1.667-6.11-1.92-9.067-0.68l-95.066,39.872c-2.956,1.24-5.139,3.822-5.869,6.944
		c-0.73,3.122,0.081,6.405,2.181,8.827c12.214,14.09,29.92,22.172,48.58,22.172c8.536,0,16.885-1.686,24.815-5.012
		c25.67-10.766,41.421-36.639,39.195-64.381C365.069,268.11,363.296,265.231,360.556,263.564z M318.394,317.244
		c-5.468,2.293-11.214,3.456-17.08,3.456c-7.815,0-15.388-2.057-22.014-5.85l64.797-27.177
		C340.683,300.734,331.382,311.797,318.394,317.244z"/>
	<path d="M203.577,302.756l-95.066-39.872c-2.957-1.24-6.329-0.987-9.067,0.68c-2.739,1.667-4.513,4.546-4.769,7.742
		c-2.226,27.742,13.525,53.615,39.196,64.381c7.93,3.325,16.278,5.012,24.814,5.012c18.66,0,36.366-8.081,48.58-22.172
		c2.1-2.423,2.911-5.705,2.181-8.827C208.716,306.578,206.533,303.996,203.577,302.756z M158.685,320.699
		c-5.866,0-11.612-1.163-17.079-3.455c-12.988-5.447-22.29-16.51-25.704-29.572l64.797,27.177
		C174.073,318.642,166.501,320.699,158.685,320.699z"/>
</g>
<g>
</g>
<g>
</g>
<g>
</g>
<g>
</g>
<g>
</g>
<g>
</g>
<g>
</g>
<g>
</g>
<g>
</g>
<g>
</g>
<g>
</g>
<g>
</g>
<g>
</g>
<g>
</g>
<g>
</g>
</svg>
