<?xml version="1.0" encoding="iso-8859-1"?>
<!-- Generator: Adobe Illustrator 17.1.0, SVG Export Plug-In . SVG Version: 6.00 Build 0)  -->
<!DOCTYPE svg PUBLIC "-//W3C//DTD SVG 1.1//EN" "http://www.w3.org/Graphics/SVG/1.1/DTD/svg11.dtd">
<svg version="1.1" id="Capa_1" xmlns="http://www.w3.org/2000/svg" xmlns:xlink="http://www.w3.org/1999/xlink" x="0px" y="0px"
	 viewBox="0 0 460 460" style="enable-background:new 0 0 460 460;" xml:space="preserve">
<g>
	<path d="M361.903,238.591c-0.708-0.24-17.587-5.893-39.831-5.893c-29.925,0-55.528,10.243-74.04,29.621
		c-3.079,3.222-3.653,8.092-1.41,11.943c11.672,20.03,33.428,32.473,56.777,32.473c4.458,0,8.95-0.457,13.35-1.357
		c27.829-5.696,48.674-28.274,51.869-56.181C369.154,244.521,366.358,240.106,361.903,238.591z M312.739,285.784
		c-3.083,0.631-6.225,0.951-9.339,0.951c-13.603,0-26.417-6.045-34.987-16.162c14.111-11.868,32.121-17.875,53.659-17.875
		c10.024,0,18.828,1.365,24.875,2.643C342.082,270.64,329.165,282.422,312.739,285.784z"/>
	<path d="M137.928,232.698c-22.24,0-39.123,5.652-39.83,5.893c-4.456,1.515-7.252,5.93-6.717,10.605
		c3.195,27.908,24.04,50.485,51.869,56.181c4.4,0.901,8.892,1.357,13.35,1.357c23.35,0,45.105-12.443,56.777-32.473
		c2.244-3.85,1.669-8.72-1.41-11.943C193.456,242.941,167.853,232.698,137.928,232.698z M156.6,286.735
		c-3.114,0-6.257-0.32-9.339-0.951c-16.43-3.363-29.35-15.152-34.213-30.458c6.016-1.274,14.784-2.628,24.88-2.628
		c21.538,0,39.548,6.007,53.659,17.875C183.018,280.689,170.203,286.735,156.6,286.735z"/>
	<path d="M453.55,81.567c-3.88-1.474-8.271-0.396-11.03,2.711l-64.564,72.748c-4.751-6.322-9.867-12.35-15.356-18.037
		c-17.534-18.166-38.016-32.361-60.876-42.193C278.853,86.96,254.721,81.972,230,81.972s-48.853,4.988-71.724,14.824
		c-22.861,9.832-43.342,24.028-60.876,42.193c-5.489,5.687-10.604,11.715-15.356,18.037L17.479,84.278
		c-2.757-3.106-7.146-4.185-11.03-2.711C2.567,83.042,0,86.763,0,90.916v97.65c0,2.944,1.297,5.738,3.545,7.638l43.036,36.368
		c-4.635,18.639-7.032,38.305-7.032,58.608c0,25.622,3.668,51.657,10.902,77.381c1.031,3.665,4.053,6.427,7.796,7.124
		c12.116,2.256,23.766,3.4,34.626,3.4c42.61,0,68.875-17.529,89.98-31.614c16.603-11.08,29.716-19.831,47.146-19.831
		s30.546,8.752,47.151,19.832c21.106,14.083,47.374,31.61,89.974,31.613c0.004,0,0.006,0,0.01,0c10.854,0,22.502-1.144,34.617-3.4
		c3.743-0.697,6.765-3.459,7.796-7.124c7.234-25.724,10.902-51.759,10.902-77.381c0-20.302-2.397-39.969-7.032-58.608l43.036-36.368
		c2.249-1.9,3.545-4.694,3.545-7.638v-97.65C460,86.763,457.433,83.042,453.55,81.567z M20,183.924v-20.28l12.313,12.14
		c1.948,1.921,4.485,2.879,7.021,2.879c2.583,0,5.165-0.995,7.122-2.979c3.877-3.933,3.833-10.264-0.1-14.142L20,135.557v-18.308
		l50.514,56.917c-7.046,11.752-12.953,24.313-17.651,37.53L20,183.924z M391.931,357.071c-8.678,1.337-16.995,2.013-24.795,2.013
		c-0.003,0-0.006,0-0.009,0c-36.541-0.002-58.062-14.362-78.875-28.249C270.375,318.907,253.49,307.64,230,307.64
		c-23.491,0-40.373,11.267-58.248,23.195c-20.811,13.888-42.33,28.249-78.878,28.249c-7.806,0-16.126-0.676-24.805-2.013
		c-5.655-21.974-8.519-44.108-8.519-65.892c0-20.893,2.544-40.146,7.163-57.721c0.609-1.204,0.955-2.495,1.046-3.799
		c5.178-18.242,12.619-34.619,21.802-49.067c0.005-0.004,0.01-0.008,0.015-0.012c1.367-1.213,2.313-2.719,2.847-4.338
		c33.048-48.733,86.307-74.27,137.576-74.27s104.528,25.537,137.576,74.27c0.534,1.619,1.481,3.125,2.847,4.338
		c0.005,0.004,0.01,0.008,0.015,0.012c9.184,14.448,16.624,30.825,21.802,49.067c0.091,1.304,0.437,2.596,1.046,3.799
		c4.62,17.575,7.163,36.828,7.163,57.721C400.45,312.963,397.586,335.098,391.931,357.071z M407.137,211.695
		c-4.698-13.216-10.604-25.778-17.651-37.53L440,117.249v18.308l-26.355,25.985c-3.933,3.878-3.978,10.209-0.1,14.142
		c1.957,1.985,4.538,2.979,7.122,2.979c2.535,0,5.072-0.958,7.021-2.879L440,163.643v20.28L407.137,211.695z"/>
	<path d="M254.083,210.132c1.534,3.965,5.318,6.394,9.329,6.394c1.2,0,2.42-0.218,3.606-0.677c5.15-1.993,7.71-7.784,5.717-12.935
		l-25.402-65.649c-1.491-3.852-5.196-6.391-9.326-6.391h-16.013c-4.13,0-7.835,2.539-9.326,6.391l-25.402,65.649
		c-1.993,5.151,0.567,10.942,5.717,12.935c5.15,1.993,10.942-0.567,12.935-5.718l8.237-21.288h31.69L254.083,210.132z
		 M221.894,168.843l6.953-17.969h2.307l6.953,17.969H221.894z"/>
</g>
<g>
</g>
<g>
</g>
<g>
</g>
<g>
</g>
<g>
</g>
<g>
</g>
<g>
</g>
<g>
</g>
<g>
</g>
<g>
</g>
<g>
</g>
<g>
</g>
<g>
</g>
<g>
</g>
<g>
</g>
</svg>
