<?xml version="1.0" encoding="iso-8859-1"?>
<!-- Generator: Adobe Illustrator 17.1.0, SVG Export Plug-In . SVG Version: 6.00 Build 0)  -->
<!DOCTYPE svg PUBLIC "-//W3C//DTD SVG 1.1//EN" "http://www.w3.org/Graphics/SVG/1.1/DTD/svg11.dtd">
<svg version="1.1" id="Capa_1" xmlns="http://www.w3.org/2000/svg" xmlns:xlink="http://www.w3.org/1999/xlink" x="0px" y="0px"
	 viewBox="0 0 460 460" style="enable-background:new 0 0 460 460;" xml:space="preserve">
<path d="M450,133.477c5.523,0,10-4.477,10-10c0-5.14-3.879-9.369-8.868-9.932l4.521-33.55c0.385-2.859-0.483-5.745-2.382-7.917
	c-1.899-2.172-4.643-3.418-7.528-3.418c-52.327,0-113.433,23.868-113.433,91.135v2.044c-18.028-27.641-46.984-47.71-81.134-53.677
	L239.192,80.19c-1.576-3.677-5.191-6.062-9.192-6.062s-7.616,2.385-9.192,6.062l-11.984,27.972
	c-34.15,5.968-63.106,26.036-81.134,53.677v-2.044c0-67.267-61.105-91.135-113.433-91.135c-2.885,0-5.629,1.246-7.528,3.418
	c-1.899,2.172-2.768,5.058-2.382,7.917l4.521,33.55C3.879,114.108,0,118.337,0,123.477c0,5.523,4.477,10,10,10h1.554l3.163,23.472
	c-4.989,0.563-8.868,4.792-8.868,9.932c0,5.523,4.477,10,10,10h1.554l3.163,23.472c-4.989,0.563-8.868,4.792-8.868,9.932
	c0,5.523,4.477,10,10,10h1.554l3.163,23.472c-4.989,0.563-8.868,4.792-8.868,9.932c0,5.523,4.477,10,10,10H29.1l4.681,34.739
	c0.669,4.962,4.904,8.665,9.911,8.665h22.401c5.01,47.284,45.13,84.248,93.721,84.248c5.523,0,10-4.477,10-10v-42.124
	c0-5.523-4.477-10-10-10c-17.713,0-32.124-14.411-32.124-32.124v-58.628h68.653l4.838,26.851c0.858,4.762,5.002,8.227,9.841,8.227
	h37.953c4.839,0,8.983-3.465,9.841-8.227l4.839-26.851h68.653v58.628c0,17.713-14.411,32.124-32.124,32.124c-5.523,0-10,4.477-10,10
	v42.124c0,5.523,4.477,10,10,10c48.59,0,88.71-36.964,93.721-84.248h22.401c5.007,0,9.242-3.703,9.911-8.665l4.681-34.739h1.554
	c5.523,0,10-4.477,10-10c0-5.14-3.879-9.369-8.868-9.932l3.163-23.472h1.554c5.523,0,10-4.477,10-10c0-5.14-3.879-9.369-8.868-9.932
	l3.163-23.472h1.554c5.523,0,10-4.477,10-10c0-5.14-3.879-9.369-8.868-9.932l3.163-23.472H450z M149.814,348.254v22.415
	c-36.228-4.899-64.248-36.027-64.248-73.577c0-5.523-4.477-10-10-10H52.435l-3.154-23.404H64.75c5.523,0,10-4.477,10-10
	s-4.477-10-10-10H46.586l-3.154-23.404H64.75c5.523,0,10-4.477,10-10s-4.477-10-10-10H40.737l-3.154-23.404H64.75
	c5.523,0,10-4.477,10-10s-4.477-10-10-10H34.888l-3.154-23.404H64.75c5.523,0,10-4.477,10-10s-4.477-10-10-10H29.04l-3.277-24.32
	c26.751,2.192,81.928,13.631,81.928,70.638v137.298C107.69,322.415,125.84,343.577,149.814,348.254z M255.297,218.464
	c-4.839,0-8.983,3.465-9.841,8.227l-4.838,26.851h-21.235l-4.838-26.851c-0.858-4.762-5.002-8.227-9.841-8.227h-76.349
	c4.598-46.906,41.2-85.328,88.72-91.324c3.521-0.444,6.542-2.721,7.94-5.983L230,109.521l4.985,11.636
	c1.397,3.262,4.419,5.539,7.94,5.983c47.521,5.995,84.122,44.418,88.72,91.324H255.297z M425.112,156.881H395.25
	c-5.523,0-10,4.477-10,10s4.477,10,10,10h27.167l-3.154,23.404H395.25c-5.523,0-10,4.477-10,10s4.477,10,10,10h21.318l-3.154,23.404
	H395.25c-5.523,0-10,4.477-10,10s4.477,10,10,10h15.469l-3.154,23.404h-23.132c-5.523,0-10,4.477-10,10
	c0,37.549-28.02,68.678-64.248,73.577v-22.415c23.974-4.677,42.124-25.839,42.124-51.161V159.795
	c0-57.006,55.177-68.446,81.928-70.638l-3.277,24.32h-35.71c-5.523,0-10,4.477-10,10s4.477,10,10,10h33.015L425.112,156.881z"/>
<g>
</g>
<g>
</g>
<g>
</g>
<g>
</g>
<g>
</g>
<g>
</g>
<g>
</g>
<g>
</g>
<g>
</g>
<g>
</g>
<g>
</g>
<g>
</g>
<g>
</g>
<g>
</g>
<g>
</g>
</svg>
