<?xml version="1.0" encoding="iso-8859-1"?>
<!-- Generator: Adobe Illustrator 17.1.0, SVG Export Plug-In . SVG Version: 6.00 Build 0)  -->
<!DOCTYPE svg PUBLIC "-//W3C//DTD SVG 1.1//EN" "http://www.w3.org/Graphics/SVG/1.1/DTD/svg11.dtd">
<svg version="1.1" id="Capa_1" xmlns="http://www.w3.org/2000/svg" xmlns:xlink="http://www.w3.org/1999/xlink" x="0px" y="0px"
	 viewBox="0 0 460 460" style="enable-background:new 0 0 460 460;" xml:space="preserve">
<g>
	<path d="M395.629,79.261c-6.186-38.147-24.26-64.763-50.893-74.944c-8.875-3.392-18.407-4.796-28.35-4.172
		c-3.909,0.245-7.314,2.75-8.714,6.409c-1.398,3.658-0.532,7.797,2.216,10.588c13.285,13.491,21.521,36.156,23.19,63.822
		c1.787,29.622-3.799,62.36-16.152,94.676c-3.258,8.523-6.919,16.79-10.927,24.758c-21.646-16.91-48.183-26.103-76-26.103
		c-27.817,0-54.354,9.193-76,26.103c-4.007-7.968-7.668-16.236-10.927-24.759c-12.354-32.315-17.939-65.054-16.152-94.676
		c1.669-27.666,9.904-50.331,23.19-63.822c2.749-2.791,3.614-6.929,2.216-10.588c-1.399-3.659-4.805-6.164-8.714-6.409
		c-9.94-0.625-19.475,0.78-28.35,4.172C88.631,14.498,70.557,41.114,64.371,79.261c-5.87,36.195-0.358,79.001,15.518,120.532
		c8.609,22.521,20.451,44.672,32.262,60.563c-3.868,12.12-5.825,24.746-5.825,37.612v122.11c0,3.987,2.368,7.593,6.027,9.177
		l69.108,29.922c1.273,0.551,2.625,0.823,3.972,0.823c1.923,0,3.835-0.554,5.49-1.641c2.815-1.849,4.511-4.991,4.511-8.359v-70.564
		c0-5.523-4.477-10-10-10H160.65v-59.367l65.453,27.691c0.006,0.003,0.012,0.004,0.018,0.007c0.043,0.018,0.089,0.031,0.132,0.048
		c0.003,0.001,0.005,0.002,0.008,0.003c0.133,0.054,0.268,0.099,0.402,0.147c0.196,0.069,0.391,0.136,0.59,0.193
		c0.07,0.02,0.138,0.043,0.208,0.061c0.112,0.03,0.225,0.052,0.338,0.078c0.216,0.049,0.433,0.087,0.651,0.121
		c0.089,0.014,0.175,0.037,0.264,0.049c0.065,0.008,0.13,0.013,0.196,0.02c0.288,0.031,0.576,0.046,0.865,0.053
		c0.072,0.002,0.143,0.013,0.215,0.013c0.003,0,0.006-0.001,0.009-0.001s0.006,0.001,0.009,0.001c0.071,0,0.142-0.011,0.212-0.013
		c0.29-0.006,0.58-0.021,0.869-0.053c0.064-0.007,0.129-0.012,0.193-0.02c0.088-0.011,0.173-0.034,0.26-0.048
		c0.221-0.035,0.441-0.073,0.659-0.122c0.112-0.025,0.224-0.048,0.335-0.078c0.068-0.018,0.135-0.04,0.203-0.06
		c0.202-0.058,0.401-0.125,0.6-0.196c0.132-0.047,0.263-0.091,0.394-0.144c0.009-0.003,0.017-0.006,0.026-0.009
		c0.038-0.015,0.077-0.026,0.114-0.042c0.007-0.003,0.014-0.005,0.021-0.008l65.453-27.691v59.367h-24.785c-5.522,0-10,4.477-10,10
		V450c0,5.523,4.478,10,10,10h8.751c1.541,0,3.061-0.356,4.441-1.041l60.358-29.922c3.404-1.688,5.559-5.159,5.559-8.959v-122.11
		c0-12.865-1.958-25.492-5.826-37.612c11.812-15.89,23.653-38.042,32.263-60.562C395.986,158.262,401.498,115.456,395.629,79.261z
		 M154.547,285.77c-3.088-1.306-6.625-0.978-9.421,0.874c-2.795,1.852-4.476,4.982-4.476,8.335v84.456c0,5.523,4.477,10,10,10
		h24.785v45.337l-49.108-21.262V297.968c0-9.887,1.4-19.593,4.12-28.959l57.243,2.446l19.92,36.764L154.547,285.77z
		 M333.674,413.874l-49.109,24.345v-48.784h24.785c5.522,0,10-4.477,10-10V294.98c0-3.353-1.681-6.483-4.476-8.335
		c-2.795-1.853-6.334-2.181-9.421-0.874l-53.064,22.449l19.92-36.764l57.244-2.446c2.721,9.366,4.12,19.072,4.12,28.959V413.874z
		 M361.429,192.652c-7.961,20.825-19.231,41.911-29.979,56.258l-65.658,2.806c-3.514,0.15-6.69,2.135-8.365,5.227L230,307.559
		l-27.426-50.616c-1.676-3.092-4.852-5.077-8.366-5.227l-65.658-2.806c-10.749-14.347-22.018-35.433-29.979-56.258
		C83.934,154.364,78.8,115.231,84.113,82.462c4.894-30.177,18.037-51.055,37.075-58.978c-8.061,15.353-12.91,34.391-14.23,56.275
		c-1.957,32.443,4.071,68.067,17.434,103.021c5.058,13.232,11.013,25.921,17.737,37.874c0.153,0.305,0.324,0.603,0.511,0.894
		c1.74,3.065,3.517,6.094,5.358,9.057c2.915,4.691,9.082,6.13,13.771,3.215c4.691-2.915,6.13-9.081,3.215-13.772
		c-0.389-0.626-0.764-1.268-1.148-1.9c18.574-15.434,41.784-23.854,66.165-23.854c24.381,0,47.59,8.42,66.165,23.854
		c-0.384,0.631-0.759,1.274-1.148,1.9c-2.915,4.691-1.476,10.856,3.215,13.772c4.69,2.916,10.857,1.476,13.771-3.215
		c1.842-2.964,3.62-5.995,5.361-9.062c0.18-0.281,0.344-0.57,0.493-0.864c6.73-11.961,12.69-24.657,17.752-37.899
		c13.362-34.955,19.392-70.579,17.435-103.022c-1.32-21.884-6.17-40.922-14.23-56.275c19.037,7.924,32.181,28.801,37.074,58.978
		C381.2,115.231,376.065,154.364,361.429,192.652z"/>
	<path d="M259.484,217.524c-9.44-3.47-19.36-5.229-29.484-5.229c-10.128,0-20.051,1.76-29.494,5.233
		c-5.184,1.906-7.84,7.653-5.935,12.837c1.488,4.045,5.314,6.552,9.387,6.552c1.146,0,2.312-0.198,3.45-0.617
		c7.226-2.657,14.827-4.004,22.592-4.004c7.762,0,15.36,1.346,22.584,4.001c5.188,1.906,10.932-0.753,12.836-5.936
		C267.325,225.176,264.668,219.429,259.484,217.524z"/>
</g>
<g>
</g>
<g>
</g>
<g>
</g>
<g>
</g>
<g>
</g>
<g>
</g>
<g>
</g>
<g>
</g>
<g>
</g>
<g>
</g>
<g>
</g>
<g>
</g>
<g>
</g>
<g>
</g>
<g>
</g>
</svg>
