<?xml version="1.0" encoding="iso-8859-1"?>
<!-- Generator: Adobe Illustrator 17.1.0, SVG Export Plug-In . SVG Version: 6.00 Build 0)  -->
<!DOCTYPE svg PUBLIC "-//W3C//DTD SVG 1.1//EN" "http://www.w3.org/Graphics/SVG/1.1/DTD/svg11.dtd">
<svg version="1.1" id="Capa_1" xmlns="http://www.w3.org/2000/svg" xmlns:xlink="http://www.w3.org/1999/xlink" x="0px" y="0px"
	 viewBox="0 0 380.9 380.9" style="enable-background:new 0 0 380.9 380.9;" xml:space="preserve">
<g>
	<path d="M165.176,239.313l-91.459-38.359c-2.957-1.241-6.329-0.987-9.067,0.68c-2.738,1.667-4.512,4.546-4.768,7.742
		c-2.155,26.853,13.092,51.896,37.94,62.318c7.675,3.219,15.757,4.852,24.02,4.852c18.062,0,35.201-7.822,47.023-21.461
		c2.1-2.422,2.911-5.705,2.181-8.827S168.133,240.553,165.176,239.313z M121.841,256.546c-5.593,0-11.072-1.108-16.285-3.295
		c-12.136-5.09-20.896-15.321-24.306-27.449l60.905,25.544C136.001,254.721,129.029,256.546,121.841,256.546z"/>
	<path d="M307.184,200.954l-91.459,38.359c-2.957,1.24-5.14,3.822-5.87,6.944s0.081,6.405,2.181,8.827
		c11.822,13.639,28.962,21.461,47.023,21.461c8.263,0,16.345-1.632,24.02-4.852c24.848-10.422,40.095-35.465,37.94-62.318
		c-0.256-3.196-2.03-6.075-4.768-7.742C313.512,199.967,310.14,199.713,307.184,200.954z M275.344,253.251
		c-5.213,2.187-10.692,3.295-16.285,3.295c-7.188,0-14.16-1.825-20.315-5.2l60.905-25.544
		C296.24,237.93,287.479,248.161,275.344,253.251z"/>
	<path d="M334.246,124.79c-0.113-0.156-0.219-0.315-0.342-0.466c-1.836-2.255-3.736-4.45-5.667-6.615
		c-0.399-0.448-0.789-0.903-1.192-1.348l9.732-57.262c1.878-11.05,0.541-19.365-3.975-24.713c-3.083-3.651-7.459-5.662-12.321-5.662
		c-6.418,0-13.42,3.522-20.812,10.469l-34.221,32.159c-23.581-10.672-49.361-16.286-74.999-16.286s-51.418,5.614-74.999,16.286
		l-34.22-32.159c-7.392-6.946-14.394-10.468-20.812-10.468c-4.863,0-9.239,2.011-12.322,5.663
		c-4.516,5.348-5.853,13.662-3.975,24.713l9.732,57.262c-0.404,0.446-0.796,0.903-1.196,1.352c-1.929,2.163-3.828,4.357-5.663,6.61
		c-0.122,0.15-0.228,0.309-0.34,0.464C16.466,162.171,0,211.063,0,264.272c0,25.622,3.668,51.657,10.902,77.381
		c1.031,3.665,4.053,6.427,7.796,7.124c12.116,2.256,23.766,3.4,34.626,3.4c42.609,0,68.875-17.529,89.98-31.614
		c16.602-11.08,29.716-19.831,47.146-19.831s30.546,8.751,47.151,19.832c21.106,14.083,47.374,31.61,89.974,31.613
		c0.004,0,0.006,0,0.01,0c10.854,0,22.501-1.144,34.617-3.4c3.743-0.697,6.765-3.459,7.796-7.124
		c7.234-25.724,10.902-51.759,10.902-77.381C380.9,211.065,364.435,162.174,334.246,124.79z M352.381,330.164
		c-8.678,1.337-16.995,2.013-24.795,2.013c-0.003,0-0.006,0-0.009,0c-36.541-0.002-58.062-14.362-78.875-28.25
		c-17.877-11.929-34.763-23.195-58.252-23.195c-23.491,0-40.374,11.267-58.248,23.195c-20.811,13.888-42.33,28.25-78.878,28.25
		c-7.806,0-16.126-0.676-24.805-2.013C22.864,308.19,20,286.056,20,264.272c0-51.801,16.928-98.937,47.776-133.465
		c0.389-0.435,0.774-0.875,1.168-1.305c0.629-0.69,1.27-1.369,1.91-2.048c6.958-7.379,14.517-14.122,22.6-20.104
		c4.439-3.285,5.375-9.547,2.089-13.987c-3.285-4.439-9.547-5.375-13.987-2.089c-3.521,2.606-6.945,5.35-10.285,8.201L63.84,55.748
		c-0.396-2.334-0.537-4.122-0.551-5.461c1.107,0.752,2.52,1.857,4.246,3.479l39.197,36.836c3.054,2.871,7.572,3.531,11.321,1.657
		c22.495-11.249,47.53-17.194,72.398-17.194s49.903,5.946,72.398,17.194c3.749,1.874,8.267,1.212,11.321-1.657l39.197-36.836
		c1.726-1.622,3.138-2.727,4.245-3.479c-0.014,1.338-0.154,3.126-0.551,5.461l-7.432,43.727c-3.34-2.852-6.764-5.596-10.285-8.201
		c-4.438-3.285-10.701-2.35-13.987,2.089c-3.286,4.439-2.35,10.702,2.089,13.987c8.082,5.982,15.641,12.724,22.599,20.103
		c0.641,0.68,1.282,1.36,1.912,2.051c0.391,0.429,0.775,0.866,1.162,1.299c30.851,34.529,47.781,81.667,47.781,133.47
		C360.9,286.056,358.037,308.19,352.381,330.164z"/>
</g>
<g>
</g>
<g>
</g>
<g>
</g>
<g>
</g>
<g>
</g>
<g>
</g>
<g>
</g>
<g>
</g>
<g>
</g>
<g>
</g>
<g>
</g>
<g>
</g>
<g>
</g>
<g>
</g>
<g>
</g>
</svg>
