<?xml version="1.0" encoding="iso-8859-1"?>
<!-- Generator: Adobe Illustrator 17.1.0, SVG Export Plug-In . SVG Version: 6.00 Build 0)  -->
<!DOCTYPE svg PUBLIC "-//W3C//DTD SVG 1.1//EN" "http://www.w3.org/Graphics/SVG/1.1/DTD/svg11.dtd">
<svg version="1.1" id="Capa_1" xmlns="http://www.w3.org/2000/svg" xmlns:xlink="http://www.w3.org/1999/xlink" x="0px" y="0px"
	 viewBox="0 0 460 460" style="enable-background:new 0 0 460 460;" xml:space="preserve">
<g>
	<path d="M215.971,164.494c0.729-4.474-1.642-8.879-5.778-10.734l-96.657-43.344c-3.787-1.697-8.228-0.881-11.163,2.054
		c-12.427,12.428-15.936,29.288-9.386,45.102c10.017,24.183,39.288,39.808,74.572,39.808
		C201.61,197.379,214.116,175.868,215.971,164.494z M167.56,177.379c-30.892,0-50.433-13.792-56.095-27.462
		c-1.945-4.697-3.042-11.259,0.954-18.084l80.429,36.067C189.247,172.383,181.994,177.379,167.56,177.379z"/>
	<path d="M368.147,58.404C334.142,20.196,286.372,0,230,0S125.858,20.196,91.853,58.404
		c-40.846,45.895-59.256,115.175-50.508,190.077c0.487,4.17,3.527,7.592,7.611,8.567l96.696,23.076V450c0,5.523,4.477,10,10,10
		h148.695c5.523,0,10-4.477,10-10V280.124l96.696-23.076c4.084-0.975,7.124-4.396,7.611-8.567
		C427.403,173.579,408.994,104.298,368.147,58.404z M399.519,239.236l-97.492,23.266c-4.502,1.075-7.679,5.098-7.679,9.727V440
		h-17.174V282.461c0-5.523-4.477-10-10-10s-10,4.477-10,10V440H240V272.457c0-5.523-4.477-10-10-10s-10,4.477-10,10V440h-17.174
		V282.461c0-5.523-4.477-10-10-10s-10,4.477-10,10V440h-17.174V272.229c0-4.629-3.176-8.652-7.679-9.727l-97.492-23.266
		C54.258,172.698,70.977,111.942,106.792,71.7C136.895,37.877,179.5,20,230,20s93.105,17.877,123.208,51.7
		C389.023,111.942,405.742,172.698,399.519,239.236z"/>
	<path d="M346.464,110.415l-96.657,43.344c-4.136,1.855-6.507,6.26-5.778,10.734c1.855,11.374,14.361,32.885,48.411,32.885
		c35.284,0,64.555-15.625,74.572-39.808c6.55-15.814,3.042-32.674-9.386-45.102C354.693,109.534,350.25,108.718,346.464,110.415z
		 M348.535,149.917c-5.662,13.669-25.203,27.462-56.095,27.462c-14.435,0-21.687-4.996-25.288-9.479l80.429-36.067
		C351.577,138.658,350.48,145.22,348.535,149.917z"/>
	<path d="M219.542,189.304c-5.455-0.854-10.572,2.875-11.428,8.331l-5.002,31.917c-0.855,5.457,2.875,10.573,8.331,11.428
		c0.524,0.082,1.046,0.122,1.561,0.122c4.84,0,9.094-3.521,9.867-8.453l5.002-31.917
		C228.729,195.275,224.999,190.159,219.542,189.304z"/>
	<path d="M251.885,197.635c-0.855-5.456-5.966-9.185-11.428-8.331c-5.456,0.855-9.186,5.971-8.331,11.428l5.002,31.917
		c0.773,4.932,5.027,8.453,9.867,8.453c0.514,0,1.036-0.04,1.561-0.122c5.456-0.855,9.186-5.971,8.331-11.428L251.885,197.635z"/>
</g>
<g>
</g>
<g>
</g>
<g>
</g>
<g>
</g>
<g>
</g>
<g>
</g>
<g>
</g>
<g>
</g>
<g>
</g>
<g>
</g>
<g>
</g>
<g>
</g>
<g>
</g>
<g>
</g>
<g>
</g>
</svg>
