<?xml version="1.0" encoding="iso-8859-1"?>
<!-- Generator: Adobe Illustrator 17.1.0, SVG Export Plug-In . SVG Version: 6.00 Build 0)  -->
<!DOCTYPE svg PUBLIC "-//W3C//DTD SVG 1.1//EN" "http://www.w3.org/Graphics/SVG/1.1/DTD/svg11.dtd">
<svg version="1.1" id="Capa_1" xmlns="http://www.w3.org/2000/svg" xmlns:xlink="http://www.w3.org/1999/xlink" x="0px" y="0px"
	 viewBox="0 0 460 460" style="enable-background:new 0 0 460 460;" xml:space="preserve">
<g>
	<path d="M414.319,102.279c-16.583-30.873-44.199-57.069-79.862-75.755c-17.707-9.277-36.725-16.272-55.96-20.751
		c-0.139-0.034-0.277-0.071-0.417-0.099C261.988,1.958,245.75,0,230,0s-31.988,1.958-48.08,5.674
		c-0.141,0.028-0.279,0.066-0.419,0.1c-19.235,4.479-38.252,11.473-55.958,20.75C89.88,45.21,62.264,71.406,45.681,102.279
		c-32.055,59.68,12.129,130.02,20.938,143.014l8.471,52.443c0.782,4.844,4.965,8.405,9.872,8.405h25.612c5.522,0,10-4.477,10-10
		v-54.686c0-1.28-0.245-2.548-0.724-3.735c-9.497-23.588-11.244-47.051-5.192-69.737c2.817-10.564,6.77-18.528,9.393-23.091
		c32.638,4.819,81.602,51.586,98.553,70.201c0.055,0.06,0.116,0.112,0.172,0.17c0.047,0.049,0.09,0.101,0.138,0.149
		c0.024,0.024,0.045,0.052,0.07,0.076c0.063,0.062,0.135,0.117,0.2,0.177c0.12,0.112,0.243,0.22,0.368,0.326
		c0.069,0.058,0.131,0.122,0.202,0.179c0.01,0.008,0.02,0.014,0.029,0.021c0.078,0.063,0.16,0.118,0.24,0.177
		c0.088,0.066,0.176,0.13,0.265,0.193c0.11,0.077,0.22,0.151,0.332,0.223c0.102,0.065,0.205,0.128,0.309,0.189
		c0.053,0.031,0.105,0.065,0.159,0.095c0.155,0.088,0.313,0.167,0.472,0.246c0.091,0.045,0.181,0.093,0.273,0.135
		c0.347,0.16,0.7,0.298,1.059,0.415c0.038,0.012,0.077,0.022,0.116,0.034c0.243,0.076,0.489,0.145,0.736,0.202
		c0.048,0.011,0.096,0.023,0.145,0.034c0.048,0.01,0.097,0.017,0.145,0.027c0.243,0.049,0.487,0.088,0.732,0.118
		c0.06,0.007,0.118,0.02,0.178,0.026c0.024,0.002,0.048,0.003,0.071,0.005c0.327,0.032,0.654,0.053,0.981,0.053
		c0.002,0,0.005,0,0.007,0s0.005,0,0.007,0c0.326,0,0.653-0.021,0.979-0.053c0.025-0.002,0.05-0.003,0.075-0.005
		c0.06-0.006,0.118-0.019,0.178-0.026c0.243-0.03,0.485-0.069,0.726-0.117c0.05-0.01,0.1-0.017,0.149-0.028
		c0.049-0.011,0.097-0.023,0.146-0.034c0.245-0.057,0.488-0.124,0.729-0.2c0.04-0.013,0.081-0.023,0.121-0.036
		c0.358-0.117,0.71-0.255,1.057-0.414c0.093-0.043,0.184-0.091,0.276-0.137c0.158-0.079,0.316-0.158,0.471-0.246
		c0.052-0.03,0.103-0.062,0.155-0.092c0.105-0.062,0.209-0.125,0.313-0.191c0.112-0.072,0.223-0.147,0.333-0.224
		c0.088-0.061,0.174-0.125,0.26-0.189c0.081-0.06,0.164-0.116,0.244-0.18c0.01-0.008,0.02-0.014,0.029-0.021
		c0.072-0.057,0.134-0.122,0.204-0.18c0.124-0.105,0.245-0.212,0.364-0.323c0.065-0.061,0.138-0.117,0.202-0.179
		c0.023-0.023,0.043-0.049,0.066-0.073c0.048-0.048,0.091-0.1,0.138-0.149c0.056-0.059,0.118-0.111,0.174-0.172
		c16.955-18.62,65.935-65.402,98.573-70.206c6.849,11.87,22.677,46.888,4.181,92.831c-0.479,1.188-0.724,2.455-0.724,3.735v54.686
		c0,5.523,4.478,10,10,10h25.612c4.907,0,9.09-3.561,9.872-8.405l8.471-52.443C402.19,232.299,446.374,161.959,414.319,102.279z
		 M118.831,124.49c-3.136,0-6.091,1.471-7.98,3.974c-1.492,1.977-35.939,48.748-10.276,114.896v42.782h-7.098l-7.476-46.28
		c-0.248-1.536-0.852-2.993-1.762-4.255c-0.502-0.695-49.803-70.125-20.939-123.863c21.178-39.428,61.061-66.548,102.453-80.58
		c-3.102,10.273-4.538,21.652-4.266,34.05c0.12,5.447,4.572,9.781,9.994,9.781c0.074,0,0.148-0.001,0.224-0.002
		c5.521-0.121,9.899-4.695,9.778-10.217c-0.348-15.849,2.58-29.394,8.687-40.354C203.859,21.485,217.345,20,230,20
		c12.655,0,26.14,1.484,39.829,4.42c14.71,26.361,8.142,62.361-0.246,88.456c-9.939,30.924-25.814,59.302-39.584,78.815
		c-18.003-25.529-37.275-63.124-44.999-98.853c-1.168-5.398-6.492-8.83-11.888-7.661c-5.398,1.167-8.828,6.489-7.661,11.887
		c4.286,19.822,11.497,39.364,19.881,57.205C159.113,134.5,136.783,124.49,118.831,124.49z M375.761,235.606
		c-0.91,1.262-1.514,2.719-1.762,4.255l-7.476,46.28h-7.098V243.36c25.662-66.148-8.783-112.919-10.275-114.896
		c-1.89-2.503-4.845-3.974-7.98-3.974c-17.965,0-40.312,10.023-66.553,29.818c5.253-11.175,10.069-23.06,14.007-35.312
		c10.952-34.073,12.79-63.939,5.597-87.842c41.401,14.029,81.296,41.152,102.479,80.589
		C425.472,165.311,376.256,234.917,375.761,235.606z"/>
	<path d="M317.488,315.864c-2.867-2.319-6.777-2.871-10.175-1.44c-1.88,0.793-43.788,18.612-77.311,45.109
		c-33.516-26.496-75.379-44.314-77.258-45.107c-3.396-1.433-7.307-0.881-10.175,1.437c-2.867,2.318-4.227,6.026-3.536,9.648
		c0.254,1.331,6.366,32.977,19.762,65.153C177.951,436.672,201.909,460,230.003,460c28.093,0,52.058-23.327,71.23-69.334
		c13.408-32.175,19.533-63.821,19.787-65.152C321.712,321.892,320.354,318.184,317.488,315.864z M230.003,440
		c-16.115,0-29.5-14.027-39.828-31.099c2.869,1.545,5.785,2.927,8.749,4.11c1.216,0.485,2.47,0.715,3.704,0.715
		c3.971,0,7.729-2.382,9.29-6.295c2.048-5.129-0.45-10.947-5.58-12.995c-16.687-6.662-28.692-19.757-36.036-29.999
		c-2.834-8.359-5.137-16.234-6.92-22.886c16.443,8.31,40.836,21.995,60.113,38.519c3.744,3.21,9.271,3.21,13.016,0
		c19.249-16.5,43.689-30.2,60.16-38.52c-1.784,6.649-4.091,14.524-6.933,22.89c-11.483,16.005-30.973,34.492-59.735,34.492
		c-5.522,0-10,4.477-10,10s4.478,10,10,10c15.365,0,28.564-3.918,39.772-9.913C259.441,426.051,246.077,440,230.003,440z"/>
</g>
<g>
</g>
<g>
</g>
<g>
</g>
<g>
</g>
<g>
</g>
<g>
</g>
<g>
</g>
<g>
</g>
<g>
</g>
<g>
</g>
<g>
</g>
<g>
</g>
<g>
</g>
<g>
</g>
<g>
</g>
</svg>
