<?xml version="1.0" encoding="iso-8859-1"?>
<!-- Generator: Adobe Illustrator 17.1.0, SVG Export Plug-In . SVG Version: 6.00 Build 0)  -->
<!DOCTYPE svg PUBLIC "-//W3C//DTD SVG 1.1//EN" "http://www.w3.org/Graphics/SVG/1.1/DTD/svg11.dtd">
<svg version="1.1" id="Capa_1" xmlns="http://www.w3.org/2000/svg" xmlns:xlink="http://www.w3.org/1999/xlink" x="0px" y="0px"
	 viewBox="0 0 460.001 460.001" style="enable-background:new 0 0 460.001 460.001;" xml:space="preserve">
<g>
	<path d="M403.159,78.609c-1.815-2.072-4.406-3.304-7.159-3.404c-2.753-0.102-5.426,0.94-7.387,2.876
		c-1.568,1.548-3.136,3.088-4.704,4.627c-6.988-7.299-14.484-14.102-22.425-20.34c1.33-1.355,2.658-2.711,3.994-4.067
		c2.049-2.08,3.087-4.952,2.841-7.861c-0.246-2.91-1.751-5.566-4.121-7.272c-12.542-9.031-26.045-16.809-40.133-23.118
		c-3.735-1.671-8.111-0.9-11.049,1.948c-2.879,2.792-5.756,5.556-8.631,8.307c-4.72-1.758-9.509-3.348-14.349-4.767
		c0.575-0.606,1.145-1.21,1.723-1.817c2.449-2.571,3.351-6.249,2.368-9.662c-0.982-3.413-3.7-6.048-7.142-6.925
		C268.396,2.401,249.224,0.001,230,0.001c-61.436,0-119.194,23.924-162.635,67.365C23.924,110.807,0,168.565,0,230.001
		c0,61.435,23.924,119.193,67.365,162.635c20.041,20.04,43.216,36.006,68.883,47.454c3.703,1.652,8.038,0.903,10.973-1.895
		c2.948-2.811,5.886-5.586,8.817-8.342c4.42,1.635,8.901,3.125,13.426,4.464c-0.591,0.633-1.177,1.265-1.771,1.899
		c-2.413,2.579-3.287,6.239-2.3,9.629s3.69,6.009,7.11,6.889c18.745,4.821,38.089,7.266,57.495,7.267c0.008,0,0.004,0,0.012,0
		c61.424,0,119.184-23.926,162.624-67.365c41.543-41.544,65.428-96.748,67.253-155.442
		C461.705,178.765,441.558,122.445,403.159,78.609z M289.116,320.01l57.521-57.521c3.905-3.905,3.905-10.237,0-14.143
		c-3.905-3.904-10.237-3.904-14.143,0l-57.521,57.521c-28.235,18.902-62.499,46.171-99.298,78.904
		c-23.036-8.085-44.254-21.419-61.64-38.806C83.059,314.99,66,273.806,66,230.001c0-43.806,17.059-84.99,48.035-115.965
		c30.128-30.128,70.161-47.054,112.171-47.987c-27.4,31.64-50.31,60.983-66.74,85.638c-2.643,3.966-2.12,9.246,1.25,12.617
		c3.371,3.37,8.651,3.893,12.617,1.25c31.089-20.718,70.402-52.434,111.859-90.028c8.638,3.079,16.989,6.888,24.977,11.368
		c-68.315,72.539-126.014,142.321-161.951,196.248c-2.644,3.966-2.12,9.246,1.25,12.617c3.371,3.37,8.651,3.893,12.617,1.25
		c54.77-36.499,125.758-95.325,199.451-164.97c47.989,64.38,41.968,156.392-15.57,213.929
		c-30.549,30.55-71.181,47.502-113.775,48.021C255.254,366.765,274.729,341.498,289.116,320.01z M369.589,96.668
		c-59.685,57.74-118.371,109.06-168.866,147.835c38.524-50.164,89.455-108.45,146.719-167.717
		C355.316,82.833,362.724,89.485,369.589,96.668z M321.976,41.149c7.158,3.489,14.129,7.395,20.851,11.683
		c-6.244,6.395-12.411,12.783-18.512,19.159c-7.306-4.367-14.904-8.215-22.743-11.522c3.912-3.645,7.837-7.339,11.768-11.071
		c0.028-0.025,0.054-0.052,0.082-0.078C316.271,46.617,319.122,43.896,321.976,41.149z M287.967,45.811
		c-24.457,22.788-48.408,43.747-70.606,61.823c16.766-20.597,36.044-42.71,57.145-65.526
		C279.032,43.176,283.524,44.414,287.967,45.811z M138.369,419.02c-21.037-10.194-40.141-23.806-56.861-40.527
		c-81.879-81.879-81.879-215.106,0-296.984C121.171,41.844,173.907,20.001,230,20.001c11.745,0,23.468,0.981,35.023,2.924
		c-7.407,7.938-14.602,15.802-21.568,23.565c-53.47-3.922-105.543,15.384-143.562,53.403C65.14,134.646,46,180.852,46,230.001
		c0,49.148,19.14,95.354,53.893,130.108c16.953,16.953,37.162,30.476,59.141,39.684C152.204,406.043,145.31,412.454,138.369,419.02z
		 M172.695,414.401c3.928-3.594,7.833-7.134,11.71-10.611c0.236-0.196,0.467-0.399,0.685-0.616
		c16.167-14.483,31.848-27.912,46.736-40.029c-14.072,17.289-29.916,35.662-47.078,54.571
		C180.699,416.742,176.677,415.637,172.695,414.401z M378.493,378.493c-39.664,39.665-92.395,61.508-148.481,61.508
		c-0.003,0-0.007,0-0.011,0c-11.988,0-23.949-1.021-35.731-3.044c0.441-0.481,0.877-0.961,1.317-1.442
		c0.058-0.063,0.117-0.125,0.173-0.189c6.745-7.381,13.302-14.692,19.645-21.902c4.948,0.394,9.883,0.592,14.798,0.592
		c48.605-0.001,95.089-19.09,129.905-53.906c32.924-32.924,52.017-76.666,53.762-123.167c1.616-43.078-11.743-84.896-37.755-118.793
		c6.253-6.002,12.517-12.067,18.788-18.206C460.315,182.693,453.922,303.064,378.493,378.493z"/>
	<path d="M153.645,171.373c-3.905-3.905-10.237-3.905-14.142,0l-34.622,34.623c-3.905,3.905-3.905,10.237,0,14.142
		c1.953,1.953,4.512,2.929,7.071,2.929s5.119-0.977,7.071-2.929l34.622-34.623C157.551,181.609,157.55,175.278,153.645,171.373z"/>
	<path d="M360.779,244.204c2.559,0,5.119-0.977,7.071-2.929l12.021-12.021c3.905-3.905,3.905-10.237,0-14.143
		c-3.905-3.904-10.237-3.904-14.143,0l-12.021,12.021c-3.905,3.905-3.905,10.237,0,14.143
		C355.66,243.228,358.22,244.204,360.779,244.204z"/>
</g>
<g>
</g>
<g>
</g>
<g>
</g>
<g>
</g>
<g>
</g>
<g>
</g>
<g>
</g>
<g>
</g>
<g>
</g>
<g>
</g>
<g>
</g>
<g>
</g>
<g>
</g>
<g>
</g>
<g>
</g>
</svg>
