<?xml version="1.0" encoding="iso-8859-1"?>
<!-- Generator: Adobe Illustrator 17.1.0, SVG Export Plug-In . SVG Version: 6.00 Build 0)  -->
<!DOCTYPE svg PUBLIC "-//W3C//DTD SVG 1.1//EN" "http://www.w3.org/Graphics/SVG/1.1/DTD/svg11.dtd">
<svg version="1.1" id="Capa_1" xmlns="http://www.w3.org/2000/svg" xmlns:xlink="http://www.w3.org/1999/xlink" x="0px" y="0px"
	 viewBox="0 0 460 460" style="enable-background:new 0 0 460 460;" xml:space="preserve">
<g>
	<path d="M360.204,93.049c-29.11-30.158-67.023-47.777-107.652-50.267V10c0-5.523-4.477-10-10-10
		C176.596,0,111.564,29.613,76.874,75.443c-27.729,36.632-35.314,81.062-21.937,128.485c0.652,2.311,2.113,4.309,4.116,5.631
		l3.257,2.15c-8.839,8.139-13.493,20.209-11.492,32.302l10.27,62.059c1.579,9.54,6.778,17.894,14.64,23.523
		c5.538,3.965,11.928,6.244,18.557,6.693c6.946,18.216,24.903,64.667,32.084,77.141C143.41,443.025,182.111,460,232.551,460h76.886
		c4.819,0,8.953-3.437,9.832-8.175l23.561-126.965l66.727-91.022c1.257-1.715,1.935-3.786,1.935-5.912
		C411.492,175.214,393.277,127.314,360.204,93.049z M92.82,87.514c29.314-38.728,83.354-64.515,139.731-67.269v124.297
		c-40.653-4.032-64.911-31.431-65.151-31.707c-1.899-2.217-4.673-3.492-7.592-3.492c-22.308,0-37.759,9.688-45.924,28.793
		c-7.671,17.95-8.729,43.753-8.729,68.963c0,17.333-1.364,29.757-3.094,38.545l-14.431-38.873c-0.739-1.991-2.094-3.695-3.867-4.866
		l-10.536-6.954C62.959,155.132,69.702,118.055,92.82,87.514z M325.35,314.877c-0.889,1.212-1.493,2.609-1.767,4.087L301.123,440
		h-68.571c-43.091,0-75.476-13.322-88.849-36.551c-6.306-10.953-25.085-59.356-32.621-79.265V309.02c0-5.523-4.477-10-10-10
		s-10,4.477-10,10v6.286c-1.3-0.493-2.549-1.142-3.709-1.972c-3.519-2.52-5.846-6.258-6.552-10.528l-10.27-62.059
		c-0.738-4.459,0.752-9.032,3.691-12.578l17.848,48.077c1.084,2.919,3.466,5.167,6.444,6.081c0.961,0.294,1.949,0.439,2.931,0.439
		c2.061,0,4.098-0.637,5.814-1.864c4.194-2.997,17.878-17.176,17.878-73.802c0-57.106,6.965-75.779,30.52-77.604
		c9.902,9.772,40.422,35.54,86.876,35.54c5.523,0,10-4.477,10-10V62.833c68.381,5.026,137.466,61.355,138.917,161.852
		L325.35,314.877z"/>
	<path d="M257.388,319.265c0.722,4.979,4.997,8.566,9.884,8.566c0.478,0,0.961-0.035,1.448-0.105
		c5.466-0.792,9.254-5.866,8.461-11.332l-4.933-34.02c-0.793-5.466-5.866-9.249-11.332-8.461c-5.466,0.792-9.254,5.866-8.461,11.332
		L257.388,319.265z"/>
	<path d="M278.551,362.095h-72c-5.523,0-10,4.477-10,10s4.477,10,10,10h72c5.523,0,10-4.477,10-10S284.074,362.095,278.551,362.095z
		"/>
	<path d="M262.151,216.741c0,27.873,22.676,50.549,50.549,50.549s50.549-22.676,50.549-50.549s-22.676-50.549-50.549-50.549
		S262.151,188.868,262.151,216.741z M343.248,216.741c0,16.845-13.704,30.549-30.549,30.549s-30.549-13.704-30.549-30.549
		s13.704-30.549,30.549-30.549S343.248,199.896,343.248,216.741z"/>
	<path d="M222.063,223.202c0-5.523-4.477-10-10-10h-55.251c-5.523,0-10,4.477-10,10c0,20.747,16.879,37.626,37.626,37.626
		C205.184,260.828,222.063,243.949,222.063,223.202z M184.437,240.828c-6.008,0-11.324-3.022-14.508-7.626h29.015
		C195.761,237.806,190.445,240.828,184.437,240.828z"/>
</g>
<g>
</g>
<g>
</g>
<g>
</g>
<g>
</g>
<g>
</g>
<g>
</g>
<g>
</g>
<g>
</g>
<g>
</g>
<g>
</g>
<g>
</g>
<g>
</g>
<g>
</g>
<g>
</g>
<g>
</g>
</svg>
