<?xml version="1.0" encoding="iso-8859-1"?>
<!-- Generator: Adobe Illustrator 17.1.0, SVG Export Plug-In . SVG Version: 6.00 Build 0)  -->
<!DOCTYPE svg PUBLIC "-//W3C//DTD SVG 1.1//EN" "http://www.w3.org/Graphics/SVG/1.1/DTD/svg11.dtd">
<svg version="1.1" id="Capa_1" xmlns="http://www.w3.org/2000/svg" xmlns:xlink="http://www.w3.org/1999/xlink" x="0px" y="0px"
	 viewBox="0 0 460.005 460.005" style="enable-background:new 0 0 460.005 460.005;" xml:space="preserve">
<path d="M459.946,9.618c-0.223-5.185-4.376-9.338-9.562-9.562c-0.129-0.005-1.323-0.054-3.481-0.054
	c-5.205,0-16.901,0.302-33.351,2.438c-0.369,0.03-0.736,0.076-1.1,0.147c-18.205,2.424-42.035,7.076-69.271,15.976
	c-66.895,21.858-127.8,59.929-181.027,113.155c-42.06,42.06-83.143,93.517-112.715,141.176
	C25.943,310.762-1.693,364.529,0.081,405.634c0.108,2.501,1.15,4.87,2.919,6.64l44.728,44.728c1.77,1.77,4.139,2.812,6.64,2.919
	c1.252,0.054,2.541,0.082,3.831,0.082c41.391,0,94.317-27.74,131.428-51.011c46.885-29.4,97.423-69.91,138.657-111.143
	c71.247-71.247,103.241-145.531,117.536-195.301C461.401,48.3,460.012,11.172,459.946,9.618z M438.105,40.981L49.049,430.037
	l-19.083-19.083l389.059-389.06c8.616-1.036,15.664-1.52,20.816-1.734C439.626,25.294,439.144,32.342,438.105,40.981z
	 M66.433,283.44c28.798-46.412,68.842-96.558,109.863-137.579c50.981-50.982,109.219-87.415,173.096-108.287
	c12.701-4.15,24.582-7.321,35.417-9.75L20.601,392.033C23.784,364.4,39.697,326.528,66.433,283.44z M314.141,283.706
	c-40.216,40.217-89.473,79.706-135.139,108.341c-43.985,27.582-82.861,44.104-111.034,47.355L432.178,75.191
	c-1.541,6.876-3.381,14.175-5.581,21.835C412.954,144.531,382.368,215.479,314.141,283.706z"/>
<g>
</g>
<g>
</g>
<g>
</g>
<g>
</g>
<g>
</g>
<g>
</g>
<g>
</g>
<g>
</g>
<g>
</g>
<g>
</g>
<g>
</g>
<g>
</g>
<g>
</g>
<g>
</g>
<g>
</g>
</svg>
