<?xml version="1.0" encoding="iso-8859-1"?>
<!-- Generator: Adobe Illustrator 17.1.0, SVG Export Plug-In . SVG Version: 6.00 Build 0)  -->
<!DOCTYPE svg PUBLIC "-//W3C//DTD SVG 1.1//EN" "http://www.w3.org/Graphics/SVG/1.1/DTD/svg11.dtd">
<svg version="1.1" id="Capa_1" xmlns="http://www.w3.org/2000/svg" xmlns:xlink="http://www.w3.org/1999/xlink" x="0px" y="0px"
	 viewBox="0 0 460 460" style="enable-background:new 0 0 460 460;" xml:space="preserve">
<g>
	<path d="M124.055,296.955l-54.509-54.509c-2.103-2.103-5.025-3.155-7.993-2.886c-2.961,0.274-5.646,1.852-7.327,4.305
		c-12.172,17.761-18.605,38.565-18.605,60.162c0,21.597,6.434,42.401,18.605,60.162c1.681,2.453,4.366,4.03,7.327,4.305
		c0.309,0.028,0.616,0.042,0.923,0.042c2.639,0,5.187-1.045,7.07-2.929l54.509-54.509C127.96,307.192,127.96,300.86,124.055,296.955
		z M64.537,342.331c-5.86-11.843-8.917-24.884-8.917-38.305s3.057-26.461,8.917-38.305l38.304,38.305L64.537,342.331z"/>
	<path d="M214.795,242.446l-54.509,54.509c-3.905,3.905-3.905,10.237,0,14.142l54.509,54.509c1.884,1.884,4.432,2.929,7.07,2.929
		c0.307,0,0.614-0.014,0.923-0.042c2.961-0.274,5.646-1.852,7.327-4.305c12.172-17.761,18.605-38.565,18.605-60.162
		c0-21.597-6.434-42.4-18.605-60.162c-1.681-2.453-4.366-4.031-7.327-4.305C219.828,239.29,216.898,240.344,214.795,242.446z
		 M228.721,304.026c0,13.421-3.057,26.462-8.916,38.305L181.5,304.026l38.304-38.305
		C225.664,277.564,228.721,290.604,228.721,304.026z"/>
	<path d="M135.099,285.91c1.953,1.953,4.512,2.929,7.071,2.929c2.559,0,5.118-0.977,7.071-2.929l6.154-6.154
		c0.002-0.002,0.004-0.004,0.007-0.007l48.349-48.348c2.103-2.103,3.16-5.032,2.886-7.993c-0.273-2.961-1.852-5.646-4.304-7.327
		c-17.762-12.172-38.565-18.605-60.163-18.605c-21.597,0-42.4,6.434-60.162,18.605c-2.452,1.681-4.03,4.366-4.304,7.327
		c-0.274,2.961,0.783,5.89,2.886,7.993L135.099,285.91z M142.17,217.476c13.422,0,26.462,3.056,38.306,8.917l-36.291,36.29h-4.03
		l-36.29-36.29C115.708,220.532,128.749,217.476,142.17,217.476z"/>
	<path d="M149.241,322.142c-1.876-1.875-4.419-2.929-7.071-2.929s-5.195,1.054-7.071,2.929l-54.509,54.51
		c-2.103,2.103-3.16,5.032-2.886,7.993c0.273,2.961,1.852,5.646,4.304,7.327c17.762,12.172,38.565,18.605,60.162,18.605
		c21.598,0,42.401-6.434,60.163-18.605c2.452-1.681,4.03-4.366,4.304-7.327c0.274-2.961-0.783-5.89-2.886-7.993L149.241,322.142z
		 M142.17,390.577c-13.421,0-26.462-3.056-38.305-8.917l38.305-38.305l38.306,38.305
		C168.632,387.521,155.592,390.577,142.17,390.577z"/>
	<path d="M450,396.496h-26.544c-1.619-23.07-18.7-41.936-40.928-46.265v-36.204h5.256c5.522,0,10-4.477,10-10v-31.344
		c0-5.523-4.478-10-10-10h-46.722v-80.826h22.799c5.522,0,10-4.477,10-10c0-22.797-18.547-41.344-41.344-41.344H209.908
		c-20.269,0-37.166,14.666-40.667,33.941c-3.205-0.62-6.446-1.136-9.722-1.536L134.096,17.4c-0.008-0.043-0.02-0.085-0.028-0.128
		c-0.031-0.163-0.069-0.323-0.107-0.484c-0.035-0.145-0.07-0.289-0.111-0.431c-0.045-0.158-0.096-0.313-0.148-0.468
		c-0.049-0.144-0.101-0.285-0.156-0.425c-0.057-0.144-0.115-0.287-0.179-0.428c-0.066-0.148-0.137-0.292-0.21-0.435
		c-0.064-0.127-0.129-0.254-0.199-0.378c-0.087-0.154-0.18-0.303-0.275-0.452c-0.068-0.107-0.134-0.216-0.206-0.32
		c-0.114-0.165-0.236-0.322-0.358-0.479c-0.065-0.083-0.125-0.168-0.192-0.249c-0.176-0.211-0.362-0.414-0.555-0.61
		c-0.021-0.021-0.039-0.045-0.06-0.066c-0.213-0.213-0.436-0.414-0.667-0.606c-0.092-0.076-0.189-0.145-0.284-0.219
		c-0.144-0.112-0.287-0.224-0.438-0.327c-0.116-0.081-0.238-0.154-0.358-0.23c-0.136-0.086-0.272-0.171-0.412-0.25
		c-0.131-0.074-0.265-0.142-0.399-0.21c-0.138-0.07-0.276-0.137-0.417-0.201c-0.14-0.063-0.281-0.122-0.425-0.178
		c-0.144-0.057-0.29-0.11-0.438-0.16c-0.144-0.049-0.289-0.097-0.436-0.14c-0.157-0.046-0.317-0.084-0.477-0.123
		c-0.142-0.034-0.282-0.069-0.427-0.097c-0.184-0.035-0.371-0.06-0.558-0.085c-0.125-0.017-0.249-0.039-0.376-0.051
		c-0.288-0.027-0.578-0.042-0.872-0.044c-0.029,0-0.057-0.004-0.085-0.004H46.723c-5.522,0-10,4.477-10,10s4.478,10,10,10h37.267
		l23.922,136.918C46.014,181.411,0,237.442,0,304.026c0,78.393,63.777,142.17,142.17,142.17c75.031,0,136.665-58.426,141.814-132.17
		h37.078c0,5.523,4.478,10,10,10s10-4.477,10-10h21.466v36.304c-23.103,4.763-40.526,25.261-40.526,49.752
		c0,28.01,22.788,50.797,50.798,50.797c22.266,0,41.219-14.407,48.06-34.384H450c5.522,0,10-4.477,10-10
		S455.522,396.496,450,396.496z M209.908,150.512h122.609c8.158,0,15.262,4.601,18.853,11.344H191.056
		C194.646,155.113,201.75,150.512,209.908,150.512z M321.063,181.856v80.826h-42.86c-10.398-34.144-33.323-62.876-63.401-80.826
		H321.063z M104.292,29.121h11.549l23.198,132.775c-3.847,0.083-7.659,0.316-11.426,0.7L104.292,29.121z M142.17,426.196
		C74.806,426.196,20,371.391,20,304.026c0-67.365,54.806-122.17,122.17-122.17c67.365,0,122.171,54.805,122.171,122.17
		C264.341,371.391,209.535,426.196,142.17,426.196z M283.984,294.026c-0.267-3.824-0.68-7.608-1.245-11.344h38.324v11.344H283.984z
		 M341.063,282.682h36.722v11.344h-36.722V282.682z M372.8,430.879c-16.982,0-30.798-13.815-30.798-30.797
		c0-16.981,13.815-30.797,30.798-30.797c16.981,0,30.797,13.815,30.797,30.797C403.597,417.064,389.781,430.879,372.8,430.879z"/>
</g>
<g>
</g>
<g>
</g>
<g>
</g>
<g>
</g>
<g>
</g>
<g>
</g>
<g>
</g>
<g>
</g>
<g>
</g>
<g>
</g>
<g>
</g>
<g>
</g>
<g>
</g>
<g>
</g>
<g>
</g>
</svg>
