<?xml version="1.0" encoding="iso-8859-1"?>
<!-- Generator: Adobe Illustrator 17.1.0, SVG Export Plug-In . SVG Version: 6.00 Build 0)  -->
<!DOCTYPE svg PUBLIC "-//W3C//DTD SVG 1.1//EN" "http://www.w3.org/Graphics/SVG/1.1/DTD/svg11.dtd">
<svg version="1.1" id="Capa_1" xmlns="http://www.w3.org/2000/svg" xmlns:xlink="http://www.w3.org/1999/xlink" x="0px" y="0px"
	 viewBox="0 0 452.486 452.486" style="enable-background:new 0 0 452.486 452.486;" xml:space="preserve">
<g>
	<path d="M171.243,391.877c-5.523,0-10,4.477-10,10v40.609c0,5.523,4.477,10,10,10s10-4.477,10-10v-40.609
		C181.243,396.354,176.766,391.877,171.243,391.877z"/>
	<path d="M381.48,62.513V52.59C381.48,23.592,357.889,0,328.89,0c-17.503,0-33.026,8.603-42.59,21.793
		C276.735,8.603,261.212,0,243.709,0s-33.026,8.603-42.59,21.793C191.554,8.603,176.032,0,158.529,0
		c-28.999,0-52.59,23.592-52.59,52.59v48.948c-20.154,5.849-34.933,24.465-34.933,46.479v126.315c0,0.083,0.003,0.164,0.003,0.247
		c0.001,0.03,0,0.059,0.001,0.089c0.133,39.03,23.305,72.728,56.599,88.188v79.63c0,5.523,4.477,10,10,10s10-4.477,10-10v-72.88
		c6.749,1.482,13.755,2.271,20.942,2.271c5.523,0,10-4.477,10-10s-4.477-10-10-10c-40.64,0-74.055-31.432-77.268-71.26
		l90.002-41.324c26.906,3.198,53.655,14.858,71.343,35.229c0.385,0.56,0.822,1.077,1.307,1.542
		c11.983,14.47,19.478,33.152,19.478,56.14c0,5.523,4.477,10,10,10s10-4.477,10-10c0-20.83-5.192-39.892-15.199-56.375l37.086-6.83
		c0.036-0.007,0.072-0.013,0.108-0.02l46.073-8.485v13.836c0,42.758-34.787,77.545-77.545,77.545c-5.523,0-10,4.477-10,10
		s4.477,10,10,10c18.657,0,36.105-5.269,50.941-14.391v85c0,5.523,4.477,10,10,10s10-4.477,10-10V341.209
		c16.483-17.475,26.604-41.015,26.604-66.877V115.375v-5.758V62.562C381.48,62.546,381.481,62.53,381.48,62.513z M328.89,147.966
		c-14.482,0-26.783-9.498-31.014-22.59h62.029C355.673,138.468,343.372,147.966,328.89,147.966z M210.57,195.51l-19.319-75.893
		h36.569c20.924,0,37.946,17.022,37.946,37.946s-17.022,37.947-37.946,37.947H210.57z M191.119,75.26v8.576c0,0.018,0,0.036,0,0.054
		v15.728h-65.181V70.362L191.119,75.26z M361.48,105.375H296.3v-7.229l65.181-21.591V105.375z M276.3,91.072
		c0,0.016,0,0.032,0,0.049v24.255c0,3-0.413,5.938-1.195,8.756c-10.507-14.816-27.779-24.514-47.285-24.514h-16.701v-7.376
		L276.3,79.692V91.072z M328.89,20c17.97,0,32.59,14.62,32.59,32.59v2.897L296.3,77.078v-9.347c0-0.018,0-0.036,0-0.054V52.59
		C296.3,34.62,310.92,20,328.89,20z M243.709,20c17.97,0,32.59,14.62,32.59,32.59v6.734l-65.181,12.549V52.59
		C211.119,34.62,225.739,20,243.709,20z M158.529,20c17.97,0,32.59,14.62,32.59,32.59v2.613l-65.092-4.891
		C127.201,33.402,141.325,20,158.529,20z M119.406,119.617h51.207l19.319,75.893h-40.308c-5.523,0-10,4.477-10,10s4.477,10,10,10h20
		v7.129l-78.618,36.098V148.017C91.006,132.357,103.746,119.617,119.406,119.617z M257.608,251.299
		c-18.101-16.029-41.976-26.882-67.984-31.038v-4.751h13.107c0.019,0,0.039,0.002,0.058,0.002c0.013,0,0.026-0.002,0.039-0.002
		h24.992c31.952,0,57.946-25.995,57.946-57.947c0-3.261-0.285-6.456-0.805-9.572c0.466-0.588,0.924-1.18,1.363-1.785
		c6.401,8.812,15.463,15.563,26,19.071l-8.088,85.425l-39.683,7.308C262.356,255.698,260.045,253.458,257.608,251.299z
		 M324.682,246.937l7.488-79.083c11.031-0.683,21.147-4.781,29.311-11.249v83.555L324.682,246.937z"/>
</g>
<g>
</g>
<g>
</g>
<g>
</g>
<g>
</g>
<g>
</g>
<g>
</g>
<g>
</g>
<g>
</g>
<g>
</g>
<g>
</g>
<g>
</g>
<g>
</g>
<g>
</g>
<g>
</g>
<g>
</g>
</svg>
