<?xml version="1.0" encoding="iso-8859-1"?>
<!-- Generator: Adobe Illustrator 17.1.0, SVG Export Plug-In . SVG Version: 6.00 Build 0)  -->
<!DOCTYPE svg PUBLIC "-//W3C//DTD SVG 1.1//EN" "http://www.w3.org/Graphics/SVG/1.1/DTD/svg11.dtd">
<svg version="1.1" id="Capa_1" xmlns="http://www.w3.org/2000/svg" xmlns:xlink="http://www.w3.org/1999/xlink" x="0px" y="0px"
	 viewBox="0 0 490.178 490.178" style="enable-background:new 0 0 490.178 490.178;" xml:space="preserve">
<path d="M461.291,41.866c-3.658,0-7.159,0.683-10.383,1.929c-3.846-11.441-14.672-19.706-27.393-19.706
	c-7.215,0-13.819,2.658-18.888,7.047c-5.068-4.389-11.673-7.047-18.888-7.047s-13.819,2.658-18.888,7.047
	c-5.068-4.389-11.673-7.047-18.888-7.047c-15.867,0-28.776,12.959-28.776,28.862c-0.07,27.19-0.075,40.074-0.044,46.32
	c-5.688,5.372-8.955,12.872-8.955,20.991v44.222c0,30.059,15.186,58.216,39.997,74.836l0.001,93.401
	c0,13.501-10.983,24.484-24.484,24.484c-13.5,0-24.483-10.983-24.483-24.484V217.456c0-73.539-59.829-133.367-133.368-133.367
	c-73.539,0-133.367,59.828-133.367,133.367v115.266c0,13.501-10.984,24.484-24.484,24.484c-5.523,0-10,4.477-10,10s4.477,10,10,10
	c24.529,0,44.484-19.956,44.484-44.484V217.456c0-62.511,50.856-113.367,113.367-113.367c62.511,0,113.368,50.856,113.368,113.367
	v115.266c0,24.529,19.955,44.484,44.483,44.484s44.484-19.956,44.484-44.484l-0.001-83.374c1.29,0.456,2.588,0.891,3.897,1.288
	c0.966,0.292,1.94,0.431,2.9,0.431c4.292,0,8.26-2.786,9.567-7.106c1.6-5.286-1.389-10.868-6.675-12.468
	c-5.103-1.544-10.035-3.684-14.664-6.359c-0.007-0.004-0.012-0.009-0.019-0.013c-21.592-12.491-35.005-35.726-35.005-60.636v-44.222
	c0-3.066,1.484-5.819,3.969-7.437c0.106-0.059,0.215-0.109,0.319-0.172c1.378-0.837,2.969-1.279,4.6-1.279h48.396
	c4.9,0,8.888,3.987,8.888,8.888s-3.987,8.888-8.888,8.888h-29.509c-5.522,0-10,4.477-10,10v29.778c0,3.997,2.379,7.609,6.051,9.187
	l41.357,17.777c1.287,0.554,2.627,0.815,3.944,0.815c3.876,0,7.564-2.267,9.192-6.053c2.181-5.074-0.164-10.956-5.238-13.136
	l-35.307-15.177v-13.191h19.509c12.89,0,23.832-8.488,27.539-20.167c2.689,0.83,5.544,1.279,8.503,1.279
	c7.215,0,13.819-2.658,18.888-7.047c5.068,4.389,11.673,7.047,18.888,7.047c3.101,0,6.086-0.497,8.888-1.405v35.627
	c0,21.834-9.923,42.029-27.226,55.408c-0.02,0.016-0.038,0.034-0.058,0.05c-1.164,0.898-2.369,1.77-3.583,2.59
	c-5.682,3.838-11.869,6.808-18.393,8.829c-5.275,1.634-8.228,7.235-6.594,12.511c1.329,4.291,5.282,7.044,9.55,7.044
	c0.979,0,1.977-0.145,2.962-0.45c4.195-1.299,8.282-2.903,12.232-4.799v87.055c0,62.511-50.856,113.367-113.367,113.367
	s-113.367-50.856-113.367-113.367V217.456c0-24.528-19.956-44.484-44.484-44.484c-24.528,0-44.484,19.956-44.484,44.484v115.266
	c0,62.511-50.856,113.367-113.367,113.367c-5.523,0-10,4.477-10,10s4.477,10,10,10c73.539,0,133.367-59.828,133.367-133.367V217.456
	c0-13.5,10.983-24.484,24.484-24.484s24.484,10.983,24.484,24.484v115.266c0,73.539,59.828,133.367,133.367,133.367
	S459.07,406.261,459.07,332.722V232.541c19.832-17.13,31.108-41.661,31.108-68.056V70.754
	C490.178,54.825,477.219,41.866,461.291,41.866z M339.188,52.977c0-4.901,3.938-8.888,8.776-8.888c4.9,0,8.888,3.987,8.888,8.888
	v38.397H339.13C339.129,80.419,339.158,64.44,339.188,52.977z M387.473,91.375h-10.621V52.977c0-4.901,3.987-8.888,8.888-8.888
	s8.888,3.987,8.888,8.888v39.295C392.339,91.687,389.942,91.375,387.473,91.375z M423.515,110.263c-4.9,0-8.888-3.987-8.888-8.888
	V52.977c0-4.901,3.987-8.888,8.888-8.888s8.888,3.987,8.888,8.888v17.777v30.621C432.403,106.276,428.416,110.263,423.515,110.263z
	 M461.291,110.263c-4.9,0-8.888-3.987-8.888-8.888V70.754c0-4.901,3.987-8.888,8.888-8.888s8.888,3.987,8.888,8.888v30.621
	C470.178,106.276,466.191,110.263,461.291,110.263z"/>
<g>
</g>
<g>
</g>
<g>
</g>
<g>
</g>
<g>
</g>
<g>
</g>
<g>
</g>
<g>
</g>
<g>
</g>
<g>
</g>
<g>
</g>
<g>
</g>
<g>
</g>
<g>
</g>
<g>
</g>
</svg>
