<?xml version="1.0" encoding="iso-8859-1"?>
<!-- Generator: Adobe Illustrator 17.1.0, SVG Export Plug-In . SVG Version: 6.00 Build 0)  -->
<!DOCTYPE svg PUBLIC "-//W3C//DTD SVG 1.1//EN" "http://www.w3.org/Graphics/SVG/1.1/DTD/svg11.dtd">
<svg version="1.1" id="Capa_1" xmlns="http://www.w3.org/2000/svg" xmlns:xlink="http://www.w3.org/1999/xlink" x="0px" y="0px"
	 viewBox="0 0 460 460" style="enable-background:new 0 0 460 460;" xml:space="preserve">
<g>
	<path d="M392.635,67.366C349.193,23.924,291.436,0,230,0S110.807,23.924,67.365,67.366C23.924,110.807,0,168.565,0,230
		s23.924,119.193,67.365,162.634C110.807,436.076,168.564,460,230,460s119.193-23.924,162.635-67.366
		C436.076,349.193,460,291.435,460,230S436.076,110.807,392.635,67.366z M230,440c-115.794,0-210-94.206-210-210S114.206,20,230,20
		s210,94.206,210,210S345.794,440,230,440z"/>
	<path d="M268.155,78.981C265.572,60.229,249.451,45.737,230,45.737c-19.45,0-35.57,14.491-38.155,33.243
		c-31.956,8.069-60.875,26.337-82.015,51.953C86.895,158.724,74.264,193.907,74.264,230c0,85.874,69.863,155.737,155.736,155.737
		S385.736,315.874,385.736,230C385.736,158.511,336.75,96.249,268.155,78.981z M230,65.737c10.216,0,18.526,8.311,18.526,18.526
		c0,0.615-0.033,1.223-0.092,1.823c-0.003,0.026-0.003,0.052-0.005,0.079c-0.955,9.325-8.855,16.624-18.429,16.624
		c-10.216,0-18.526-8.311-18.526-18.526S219.784,65.737,230,65.737z M230,365.737c-74.846,0-135.736-60.891-135.736-135.737
		c0-61.362,41.633-115.159,100.138-131.019c5.794,13.961,19.566,23.808,35.598,23.808c16.033,0,29.805-9.848,35.599-23.81
		C324.153,114.833,365.736,168.5,365.736,230C365.736,304.846,304.846,365.737,230,365.737z"/>
	<path d="M230,155c-41.355,0-75,33.645-75,75s33.645,75,75,75s75-33.645,75-75S271.355,155,230,155z M230,285
		c-30.327,0-55-24.673-55-55s24.673-55,55-55s55,24.673,55,55S260.327,285,230,285z"/>
</g>
<g>
</g>
<g>
</g>
<g>
</g>
<g>
</g>
<g>
</g>
<g>
</g>
<g>
</g>
<g>
</g>
<g>
</g>
<g>
</g>
<g>
</g>
<g>
</g>
<g>
</g>
<g>
</g>
<g>
</g>
</svg>
