<?xml version="1.0" encoding="iso-8859-1"?>
<!-- Generator: Adobe Illustrator 17.1.0, SVG Export Plug-In . SVG Version: 6.00 Build 0)  -->
<!DOCTYPE svg PUBLIC "-//W3C//DTD SVG 1.1//EN" "http://www.w3.org/Graphics/SVG/1.1/DTD/svg11.dtd">
<svg version="1.1" id="Capa_1" xmlns="http://www.w3.org/2000/svg" xmlns:xlink="http://www.w3.org/1999/xlink" x="0px" y="0px"
	 viewBox="0 0 460 460" style="enable-background:new 0 0 460 460;" xml:space="preserve">
<path d="M412.026,284.588c-12.283-28.684-28.749-46.426-47.113-51.144v-41.6c0-66.462-28.288-113.09-52.019-140.503
	C286.726,21.112,252.639,0,230,0s-56.726,21.112-82.894,51.341c-23.731,27.413-52.019,74.042-52.019,140.503v41.6
	c-18.365,4.718-34.831,22.459-47.113,51.144c-13.321,31.109-20.657,72.251-20.657,115.849c0,5.523,4.477,10,10,10h94.442
	L140.242,452c0.95,4.656,5.046,8,9.798,8H309.96c4.752,0,8.848-3.344,9.798-8l8.482-41.563h94.442c5.523,0,10-4.477,10-10
	C432.683,356.839,425.347,315.697,412.026,284.588z M320.082,390.437c-0.015,0-0.029,0-0.044,0h-60.323l-0.066-72.297
	c13.547,13.501,31.317,21.36,50.351,21.36c12.325,0,24.246-3.303,34.913-9.512v60.449H320.082z M139.993,390.437
	c-0.036,0-0.071,0-0.107,0h-24.799v-60.449c10.667,6.21,22.588,9.512,34.913,9.512c18.943,0,36.682-7.817,50.23-21.244l0.04,72.181
	H139.993z M220.27,390.437l-0.072-128.544c0-5.362,4.34-9.724,9.675-9.724c5.362,0,9.724,4.362,9.724,9.733l0.117,128.535H220.27z
	 M230,20c14.209,0,42.791,15.572,67.773,44.431c0.288,0.332,0.578,0.68,0.867,1.018c-21.065,3.514-39.691,16.709-51.499,36.567
	c-5.376-1.864-11.139-2.89-17.141-2.89s-11.765,1.026-17.141,2.89c-11.809-19.858-30.435-33.053-51.499-36.567
	c0.289-0.338,0.58-0.686,0.867-1.018C187.209,35.572,215.791,20,230,20z M262.483,151.609c0,17.911-14.572,32.482-32.483,32.482
	c-5.318,0-10.337-1.293-14.772-3.568l2.074-2.073c3.905-3.905,3.906-10.237,0-14.142c-3.905-3.905-10.237-3.905-14.142,0
	l-2.074,2.074c-2.275-4.436-3.568-9.454-3.568-14.772c0-17.911,14.572-32.483,32.483-32.483c5.318,0,10.337,1.293,14.772,3.568
	l-19.794,19.794c-3.905,3.905-3.905,10.237,0,14.143c1.953,1.953,4.512,2.929,7.071,2.929s5.119-0.976,7.071-2.929l19.794-19.794
	C261.19,141.272,262.483,146.291,262.483,151.609z M115.087,191.844c0-46.276,15.1-81.921,31.842-107.232
	c1.039-0.07,2.067-0.113,3.071-0.113c18.369,0,35.25,10.383,45.561,27.557c-11.044,9.629-18.043,23.784-18.043,39.552
	c0,14.138,5.63,26.979,14.753,36.426c0.195,0.235,0.399,0.465,0.619,0.685c0.221,0.221,0.452,0.426,0.688,0.622
	c9.446,9.122,22.286,14.75,36.423,14.75c28.939,0,52.483-23.543,52.483-52.482c0-14.133-5.625-26.969-14.742-36.415
	c-0.198-0.239-0.406-0.473-0.63-0.697c-0.224-0.224-0.459-0.432-0.698-0.631c-0.642-0.62-1.301-1.223-1.974-1.81
	C274.75,94.883,291.631,84.5,310,84.5c1.004,0,2.032,0.042,3.071,0.113c16.742,25.311,31.842,60.956,31.842,107.232v113.309
	c-9.879,9.271-22.14,14.347-34.913,14.347c-21.695,0-41.303-14.563-50.384-37.243l-0.019-20.364
	c0-16.39-13.334-29.724-29.724-29.724c-16.363,0-29.675,13.334-29.675,29.729l0.012,20.839C191.044,305.126,171.506,319.5,150,319.5
	c-12.773,0-25.034-5.076-34.913-14.347V191.844z M95.087,254.786v135.651H47.451C49.386,318.775,71.904,266.751,95.087,254.786z
	 M301.795,440H158.205l-6.033-29.563h58.105h0.005h39.443h0.009h58.095L301.795,440z M364.913,390.437V254.786
	c23.183,11.965,45.701,63.989,47.636,135.651H364.913z"/>
<g>
</g>
<g>
</g>
<g>
</g>
<g>
</g>
<g>
</g>
<g>
</g>
<g>
</g>
<g>
</g>
<g>
</g>
<g>
</g>
<g>
</g>
<g>
</g>
<g>
</g>
<g>
</g>
<g>
</g>
</svg>
