<?xml version="1.0" encoding="iso-8859-1"?>
<!-- Generator: Adobe Illustrator 17.1.0, SVG Export Plug-In . SVG Version: 6.00 Build 0)  -->
<!DOCTYPE svg PUBLIC "-//W3C//DTD SVG 1.1//EN" "http://www.w3.org/Graphics/SVG/1.1/DTD/svg11.dtd">
<svg version="1.1" id="Capa_1" xmlns="http://www.w3.org/2000/svg" xmlns:xlink="http://www.w3.org/1999/xlink" x="0px" y="0px"
	 viewBox="0 0 460 460" style="enable-background:new 0 0 460 460;" xml:space="preserve">
<g>
	<path d="M435.515,142.839c-0.153-0.102-0.311-0.2-0.47-0.293c-2.217-1.298-56-31.782-205.045-31.782S27.172,141.248,24.955,142.545
		c-0.159,0.093-0.316,0.191-0.47,0.293C10.755,151.935,0,171.961,0,188.43V302.16c0,18.276,14.809,34.472,33.012,36.103
		l120.867,10.835c1.031,0.093,2.084,0.14,3.129,0.14c17.007,0,33.235-12.204,37.749-28.388c0.051-0.183,0.097-0.367,0.137-0.552
		c0.013-0.058,1.478-6.042,6.278-12.013c6.623-8.236,16.322-12.412,28.828-12.412c28.495,0,34.53,22,35.106,24.425
		c0.04,0.186,0.086,0.37,0.137,0.552c4.514,16.183,20.742,28.387,37.749,28.388c0.001,0,0.002,0,0.003,0
		c1.043,0,2.095-0.047,3.126-0.14l120.867-10.835C444.883,336.659,460,319.668,460,301.16V188.43
		C460,171.961,449.245,151.935,435.515,142.839z M440,301.16c0,8.299-7.053,16.488-14.797,17.183l-120.867,10.835
		c-0.44,0.04-0.893,0.06-1.343,0.06c-8.001,0-16.213-6.057-18.423-13.546c-3.207-13.973-18.578-39.819-54.57-39.819
		s-51.363,25.846-54.57,39.819c-2.21,7.489-10.422,13.546-18.422,13.546c-0.451,0-0.903-0.02-1.344-0.06L34.797,318.342
		C26.776,317.624,20,310.213,20,302.16V188.43c0-9.817,7.103-23.147,15.265-28.739c3.647-1.993,55.675-28.928,194.735-28.928
		c138.123,0,191.23,27.055,194.754,28.94C432.908,165.302,440,178.62,440,188.43V301.16z"/>
	<path d="M400.159,182.7H59.841c-5.522,0-10,4.477-10,10v51.998c0,5.523,4.478,10,10,10h340.318c5.522,0,10-4.477,10-10V192.7
		C410.159,187.177,405.682,182.7,400.159,182.7z M135.301,234.698l31.997-31.998h31.716l-31.997,31.998H135.301z M69.841,202.7
		h69.174l-31.997,31.998H69.841V202.7z M390.159,234.698H195.301l31.997-31.998h162.861V234.698z"/>
</g>
<g>
</g>
<g>
</g>
<g>
</g>
<g>
</g>
<g>
</g>
<g>
</g>
<g>
</g>
<g>
</g>
<g>
</g>
<g>
</g>
<g>
</g>
<g>
</g>
<g>
</g>
<g>
</g>
<g>
</g>
</svg>
