<?xml version="1.0" encoding="iso-8859-1"?>
<!-- Generator: Adobe Illustrator 17.1.0, SVG Export Plug-In . SVG Version: 6.00 Build 0)  -->
<!DOCTYPE svg PUBLIC "-//W3C//DTD SVG 1.1//EN" "http://www.w3.org/Graphics/SVG/1.1/DTD/svg11.dtd">
<svg version="1.1" id="Capa_1" xmlns="http://www.w3.org/2000/svg" xmlns:xlink="http://www.w3.org/1999/xlink" x="0px" y="0px"
	 viewBox="0 0 459.493 459.493" style="enable-background:new 0 0 459.493 459.493;" xml:space="preserve">
<path d="M407.004,109.821c-0.232-0.616-0.529-1.215-0.891-1.792C373.285,43.955,306.553,0,229.746,0S86.208,43.955,53.38,108.03
	c-0.362,0.577-0.659,1.176-0.891,1.792c-13.278,26.576-20.765,56.528-20.765,88.201V440c0,5.156,3.92,9.467,9.053,9.955
	l99.836,9.492c2.74,0.263,5.474-0.623,7.546-2.442c2.071-1.819,3.299-4.413,3.395-7.168l3.437-99.534h149.512l3.436,99.534
	c0.095,2.755,1.323,5.349,3.395,7.168c1.833,1.61,4.181,2.487,6.599,2.487c0.315,0,0.631-0.015,0.947-0.045l99.836-9.492
	c5.133-0.488,9.053-4.799,9.053-9.955V198.022C427.769,166.35,420.282,136.397,407.004,109.821z M407.769,390l-47.643,0
	l-9.012-137.271h56.655V390z M229.746,20c66.265,0,124.183,36.397,154.83,90.245l-154.83,107.461L74.916,110.245
	C105.564,56.397,163.481,20,229.746,20z M51.724,252.728h56.655L99.367,390H51.724V252.728z M155.681,330.303l3.216-93.149
	l21.34,14.634l-4.862,3.334c-2.187,1.5-3.689,3.807-4.175,6.415c-0.486,2.607,0.083,5.301,1.583,7.488l20.36,29.689
	c3.124,4.555,9.349,5.716,13.902,2.591l22.699-15.566l22.7,15.566c4.553,3.124,10.778,1.964,13.902-2.591l20.36-29.689
	c1.5-2.188,2.07-4.881,1.583-7.488c-0.486-2.607-1.988-4.915-4.175-6.415l-4.861-3.334l21.34-14.634l3.216,93.149H155.681z
	 M327.56,438.532l-7.604-220.271c-0.126-3.647-2.229-6.937-5.487-8.582c-3.257-1.645-7.153-1.384-10.163,0.68l-48.388,33.182
	c-2.719,1.865-4.345,4.95-4.345,8.247s1.625,6.382,4.345,8.247l8.641,5.925l-9.049,13.196l-20.108-13.789
	c-3.407-2.337-7.903-2.337-11.311,0l-20.108,13.789l-9.049-13.196l8.641-5.925c2.719-1.865,4.344-4.95,4.344-8.247
	c0-3.297-1.625-6.382-4.345-8.247l-48.388-33.182c-3.01-2.064-6.905-2.325-10.163-0.68s-5.361,4.934-5.487,8.582l-7.605,220.271
	l-80.208-7.626V410l57.008,0c5.269,0,9.633-4.088,9.979-9.345l10.325-157.271c0.181-2.76-0.789-5.472-2.68-7.491
	c-1.891-2.019-4.533-3.165-7.299-3.165H51.724v-34.706c0-24.711,5.066-48.26,14.205-69.669l158.115,109.741
	c1.714,1.19,3.708,1.785,5.702,1.785s3.987-0.595,5.702-1.785l158.115-109.741c9.14,21.409,14.205,44.958,14.205,69.669v34.706
	h-67.333c-2.766,0-5.408,1.146-7.299,3.165c-1.891,2.019-2.861,4.73-2.68,7.491l10.325,157.272c0.345,5.257,4.71,9.345,9.979,9.345
	h57.008v20.906L327.56,438.532z"/>
<g>
</g>
<g>
</g>
<g>
</g>
<g>
</g>
<g>
</g>
<g>
</g>
<g>
</g>
<g>
</g>
<g>
</g>
<g>
</g>
<g>
</g>
<g>
</g>
<g>
</g>
<g>
</g>
<g>
</g>
</svg>
