<?xml version="1.0" encoding="iso-8859-1"?>
<!-- Generator: Adobe Illustrator 17.1.0, SVG Export Plug-In . SVG Version: 6.00 Build 0)  -->
<!DOCTYPE svg PUBLIC "-//W3C//DTD SVG 1.1//EN" "http://www.w3.org/Graphics/SVG/1.1/DTD/svg11.dtd">
<svg version="1.1" id="Capa_1" xmlns="http://www.w3.org/2000/svg" xmlns:xlink="http://www.w3.org/1999/xlink" x="0px" y="0px"
	 viewBox="0 0 460 460" style="enable-background:new 0 0 460 460;" xml:space="preserve">
<g>
	<path d="M359.451,55.662c-17.117-17.733-37.112-31.591-59.429-41.19C277.693,4.869,254.135,0,230,0s-47.693,4.869-70.022,14.472
		c-22.317,9.599-42.312,23.457-59.429,41.19c-36.414,37.725-56.467,90.479-56.467,148.542c0,59.534,20.215,122.632,55.463,173.117
		C136.229,429.865,183.778,460,230,460s93.771-30.135,130.456-82.678c35.248-50.485,55.463-113.583,55.463-173.117
		C415.918,146.141,395.865,93.387,359.451,55.662z M344.057,365.873C311.166,412.981,269.594,440,230,440
		s-81.166-27.019-114.057-74.127C83.469,319.36,64.082,258.923,64.082,204.205C64.082,84.559,149.567,20,230,20
		s165.918,64.559,165.918,184.205C395.918,258.923,376.531,319.36,344.057,365.873z"/>
	<path d="M143.911,113.768c-1.831,0-3.682,0.11-5.5,0.328c-39.606,4.739-64.631,58.602-56.971,122.624
		c7.234,60.458,41.107,106.048,78.793,106.048c1.832,0,3.682-0.11,5.5-0.328c19.895-2.38,36.679-17.164,47.26-41.627
		c9.8-22.658,13.249-51.423,9.71-80.996C215.471,159.359,181.597,113.768,143.911,113.768z M194.638,292.873
		c-7.638,17.658-18.747,28.209-31.28,29.708c-1.033,0.124-2.084,0.186-3.124,0.186c-26.663,0-53.101-39.667-58.935-88.424
		c-6.117-51.123,11.966-97.096,39.488-100.389c1.033-0.124,2.083-0.186,3.124-0.186c26.663,0,53.101,39.667,58.935,88.424
		c0.142,1.185,0.257,2.364,0.374,3.544l-73.176-30.69c-2.956-1.241-6.329-0.987-9.067,0.68c-2.739,1.667-4.512,4.546-4.768,7.742
		c-1.886,23.507,11.461,45.43,33.212,54.553c6.718,2.818,13.793,4.247,21.027,4.247c12.207,0,23.923-4.097,33.397-11.452
		C203.021,266.289,199.909,280.687,194.638,292.873z M184.158,239.43c-4.277,1.852-8.935,2.838-13.71,2.838
		c-4.564,0-9.036-0.905-13.292-2.69c-8.876-3.723-15.541-10.815-18.833-19.372L184.158,239.43z"/>
	<path d="M321.588,114.096c-1.818-0.217-3.668-0.328-5.5-0.328c-37.686,0-71.56,45.591-78.793,106.048
		c-3.539,29.573-0.09,58.338,9.71,80.996c10.581,24.463,27.365,39.247,47.26,41.627c1.817,0.217,3.667,0.328,5.5,0.328
		c0.002,0,0.001,0,0.003,0c37.683,0,71.556-45.591,78.79-106.048C386.219,172.698,361.195,118.835,321.588,114.096z
		 M358.701,234.343c-5.834,48.759-32.272,88.427-58.934,88.424c-1.042,0-2.093-0.063-3.125-0.186
		c-12.533-1.5-23.642-12.05-31.28-29.708c-5.271-12.187-8.383-26.584-9.207-42.057c9.474,7.355,21.19,11.452,33.397,11.452
		c7.234,0,14.309-1.429,21.027-4.247c21.751-9.123,35.098-31.046,33.212-54.553c-0.256-3.196-2.029-6.075-4.768-7.742
		c-2.739-1.667-6.111-1.92-9.067-0.68l-73.176,30.69c0.117-1.18,0.232-2.36,0.374-3.544c5.834-48.757,32.272-88.424,58.935-88.424
		c1.04,0,2.091,0.063,3.124,0.186C346.734,137.248,364.818,183.22,358.701,234.343z M275.842,239.43l45.834-19.223
		c-3.292,8.556-9.957,15.649-18.833,19.372c-4.256,1.785-8.728,2.69-13.292,2.69C284.777,242.268,280.119,241.282,275.842,239.43z"
		/>
</g>
<g>
</g>
<g>
</g>
<g>
</g>
<g>
</g>
<g>
</g>
<g>
</g>
<g>
</g>
<g>
</g>
<g>
</g>
<g>
</g>
<g>
</g>
<g>
</g>
<g>
</g>
<g>
</g>
<g>
</g>
</svg>
