<?xml version="1.0" encoding="iso-8859-1"?>
<!-- Generator: Adobe Illustrator 17.1.0, SVG Export Plug-In . SVG Version: 6.00 Build 0)  -->
<!DOCTYPE svg PUBLIC "-//W3C//DTD SVG 1.1//EN" "http://www.w3.org/Graphics/SVG/1.1/DTD/svg11.dtd">
<svg version="1.1" id="Capa_1" xmlns="http://www.w3.org/2000/svg" xmlns:xlink="http://www.w3.org/1999/xlink" x="0px" y="0px"
	 viewBox="0 0 460 460" style="enable-background:new 0 0 460 460;" xml:space="preserve">
<g>
	<path d="M392.635,67.366C349.193,23.924,291.436,0,230,0S110.807,23.924,67.365,67.366C23.924,110.807,0,168.565,0,230
		s23.924,119.193,67.365,162.634C110.807,436.076,168.564,460,230,460s119.193-23.924,162.635-67.366
		C436.076,349.193,460,291.435,460,230S436.076,110.807,392.635,67.366z M230,440c-115.794,0-210-94.206-210-210S114.206,20,230,20
		s210,94.206,210,210S345.794,440,230,440z"/>
	<path d="M172.858,151.084c1.328,2.298,3.515,3.974,6.078,4.659c0.85,0.227,1.717,0.339,2.581,0.339
		c1.744,0,3.475-0.457,5.011-1.346c13.152-7.615,28.185-11.64,43.472-11.64c15.271,0,30.288,4.016,43.428,11.614
		c2.299,1.329,5.03,1.689,7.592,1.003c2.563-0.686,4.749-2.363,6.076-4.662l42.143-73.041c1.325-2.297,1.684-5.027,0.996-7.588
		c-0.687-2.562-2.363-4.746-4.661-6.071c-29.052-16.762-62.039-25.623-95.396-25.623c-33.597,0-66.741,8.87-95.85,25.651
		c-2.3,1.326-3.978,3.51-4.665,6.074c-0.687,2.563-0.327,5.294,1,7.592L172.858,151.084z M230.177,58.729
		c26.533,0,52.811,6.267,76.595,18.201l-32.234,55.868c-13.905-6.369-29.119-9.701-44.537-9.701
		c-15.438,0-30.672,3.342-44.593,9.727l-32.273-55.862C176.991,65.008,203.425,58.729,230.177,58.729z"/>
	<path d="M186.572,305.289c-26.808-15.5-43.466-44.34-43.475-75.264c-0.001-2.652-1.055-5.195-2.931-7.07
		c-1.875-1.874-4.418-2.927-7.069-2.927c-0.001,0-0.002,0-0.003,0l-84.365,0.024c-2.653,0.001-5.198,1.056-7.073,2.935
		c-1.875,1.877-2.927,4.424-2.924,7.078c0.041,32.974,8.646,65.574,24.883,94.275c16.734,29.578,41.22,54.236,70.812,71.309
		c1.574,0.908,3.292,1.34,4.987,1.34c3.457,0,6.819-1.794,8.672-5.004l42.143-73.041
		C192.986,314.163,191.35,308.052,186.572,305.289z M135.907,373.072c-44.996-29.625-73.632-79.182-76.868-133.023l64.534-0.018
		c2.934,30.869,19.282,59.17,44.573,77.164L135.907,373.072z"/>
	<path d="M411.268,219.948c-0.001,0-0.002,0-0.003,0l-84.365,0.024c-5.521,0.001-9.997,4.479-9.997,10c0,0.042,0,0.086,0.001,0.13
		c-0.036,30.875-16.672,59.668-43.432,75.162c-4.776,2.766-6.409,8.878-3.648,13.657l42.196,73.039
		c1.853,3.207,5.213,4.999,8.669,4.999c1.694,0,3.411-0.431,4.984-1.338c28.979-16.706,53.176-40.928,69.977-70.047
		c16.801-29.12,25.659-62.191,25.618-95.638C421.261,224.417,416.786,219.948,411.268,219.948z M378.325,315.578
		c-13.368,23.17-31.961,42.876-54.134,57.469l-32.288-55.889c25.281-18.007,41.613-46.318,44.53-77.19l64.551-0.018
		C399.448,266.449,391.694,292.407,378.325,315.578z"/>
	<path d="M298.5,230c0-37.771-30.729-68.5-68.5-68.5s-68.5,30.729-68.5,68.5s30.729,68.5,68.5,68.5S298.5,267.771,298.5,230z
		 M230,278.5c-26.743,0-48.5-21.757-48.5-48.5s21.757-48.5,48.5-48.5s48.5,21.757,48.5,48.5S256.743,278.5,230,278.5z"/>
</g>
<g>
</g>
<g>
</g>
<g>
</g>
<g>
</g>
<g>
</g>
<g>
</g>
<g>
</g>
<g>
</g>
<g>
</g>
<g>
</g>
<g>
</g>
<g>
</g>
<g>
</g>
<g>
</g>
<g>
</g>
</svg>
