<?xml version="1.0" encoding="iso-8859-1"?>
<!-- Generator: Adobe Illustrator 17.1.0, SVG Export Plug-In . SVG Version: 6.00 Build 0)  -->
<!DOCTYPE svg PUBLIC "-//W3C//DTD SVG 1.1//EN" "http://www.w3.org/Graphics/SVG/1.1/DTD/svg11.dtd">
<svg version="1.1" id="Capa_1" xmlns="http://www.w3.org/2000/svg" xmlns:xlink="http://www.w3.org/1999/xlink" x="0px" y="0px"
	 viewBox="0 0 460 460" style="enable-background:new 0 0 460 460;" xml:space="preserve">
<g>
	<path d="M441.015,181.93c-11.912-30.292-29.047-57.146-50.929-79.816c-21.174-21.936-45.905-39.078-73.508-50.949
		C288.969,39.291,259.84,33.27,230,33.27s-58.969,6.021-86.578,17.895c-27.603,11.871-52.334,29.013-73.508,50.949
		c-21.882,22.67-39.017,49.524-50.929,79.816C6.387,213.963,0,249.024,0,286.138c0,7.32,0.253,14.781,0.753,22.175
		c0.239,3.545,2.342,6.696,5.522,8.279l170.919,85.036c0.012,0.006,0.025,0.012,0.037,0.019l48.314,24.037
		c1.403,0.698,2.929,1.047,4.455,1.047s3.052-0.349,4.455-1.047l48.311-24.036c0.013-0.007,0.027-0.013,0.041-0.02l170.918-85.036
		c3.181-1.583,5.283-4.734,5.522-8.279c0.5-7.394,0.753-14.854,0.753-22.174C460,249.024,453.613,213.963,441.015,181.93z
		 M439.625,301.268l-153.984,76.61l-4.452-24.634c-0.982-5.436-6.188-9.044-11.619-8.063c-5.435,0.982-9.044,6.185-8.063,11.619
		l5.486,30.355L230,405.561l-36.994-18.405l22.449-124.219c0.002-0.012,0.004-0.024,0.007-0.037l0.017-0.097
		c0.01-0.055,0.012-0.109,0.021-0.164c0.03-0.182,0.057-0.363,0.077-0.546c0.009-0.083,0.019-0.165,0.026-0.248
		c0.006-0.067,0.007-0.133,0.011-0.199c0.009-0.146,0.014-0.291,0.016-0.437c0.002-0.113,0.007-0.226,0.005-0.339
		c-0.001-0.048,0-0.097-0.002-0.145c-0.005-0.161-0.02-0.321-0.032-0.481c-0.007-0.095-0.01-0.189-0.02-0.284
		c-0.002-0.02-0.006-0.039-0.008-0.058c-0.015-0.129-0.036-0.256-0.056-0.384c-0.02-0.129-0.038-0.258-0.062-0.387
		c-0.011-0.055-0.022-0.109-0.033-0.164c-0.023-0.11-0.05-0.219-0.077-0.328c-0.031-0.126-0.065-0.252-0.101-0.377
		c-0.022-0.075-0.042-0.151-0.066-0.226c-0.024-0.077-0.047-0.153-0.073-0.229c-0.049-0.143-0.105-0.283-0.16-0.424
		c-0.031-0.079-0.06-0.158-0.092-0.236c-0.018-0.043-0.033-0.087-0.052-0.13c-0.021-0.047-0.046-0.092-0.067-0.139
		c-0.077-0.169-0.156-0.338-0.243-0.503c-0.004-0.008-0.008-0.017-0.012-0.024c-0.023-0.043-0.049-0.085-0.073-0.128
		c-0.046-0.083-0.095-0.164-0.143-0.246c-0.075-0.128-0.149-0.256-0.229-0.381c-0.039-0.06-0.08-0.118-0.12-0.177
		c-0.049-0.072-0.099-0.142-0.15-0.213c-0.076-0.106-0.154-0.211-0.234-0.315c-0.065-0.083-0.13-0.166-0.197-0.247
		c-0.041-0.05-0.082-0.099-0.124-0.147c-0.023-0.027-0.043-0.055-0.066-0.081l-57.397-65.16v-84.404
		c0-3.522-1.854-6.785-4.879-8.589c-3.026-1.804-6.778-1.882-9.876-0.208c-26.037,14.073-48.624,34.691-65.319,59.626
		c-18.383,27.454-29.663,59.558-33.528,95.42c-0.227,2.104,0.22,4.226,1.276,6.061c17.759,30.849,58.132,53.242,95.999,53.247
		c0.006,0,0.006,0,0.012,0c18.949,0,35.928-5.434,49.959-15.7l-15.031,83.17l-153.984-76.61C20.126,296.203,20,291.135,20,286.138
		C20,134.885,128.197,53.27,230,53.27s210,81.615,210,232.868C440,291.135,439.874,296.203,439.625,301.268z M138.242,199.641
		l31.115,35.323l-45.842-19.226c-3.394-1.422-7.294-0.867-10.156,1.446c-2.861,2.314-4.221,6.012-3.539,9.628
		c5.476,29.048,20.355,50.021,41.896,59.056c2,0.839,4.049,1.553,6.122,2.165c-6.489,1.761-12.791,2.374-18.408,2.374
		c-0.003,0-0.006,0-0.01,0c-29.524-0.004-61.974-17.231-77.006-40.504c6.673-54.083,32.989-99.441,73.331-127.224v70.352
		C135.746,195.465,136.633,197.815,138.242,199.641z M159.452,267.425c-11.999-5.033-19.408-15.002-23.971-24.98l54.646,22.918
		c-4.207,3.244-9.839,5.042-16.296,5.042C169.073,270.405,164.101,269.375,159.452,267.425z"/>
	<path d="M319.009,96.054c-3.099-1.674-6.85-1.596-9.876,0.208c-3.025,1.804-4.879,5.067-4.879,8.589v84.404l-57.397,65.16
		c-0.023,0.026-0.043,0.054-0.066,0.081c-0.042,0.048-0.083,0.098-0.124,0.147c-0.067,0.081-0.132,0.164-0.197,0.247
		c-0.081,0.104-0.158,0.209-0.234,0.315c-0.051,0.071-0.101,0.141-0.15,0.213c-0.04,0.06-0.081,0.117-0.12,0.177
		c-0.081,0.125-0.155,0.253-0.229,0.381c-0.048,0.082-0.097,0.163-0.143,0.246c-0.024,0.043-0.05,0.085-0.073,0.128
		c-0.004,0.008-0.008,0.017-0.012,0.024c-0.087,0.166-0.166,0.334-0.243,0.503c-0.021,0.047-0.046,0.092-0.067,0.139
		c-0.019,0.043-0.034,0.087-0.052,0.13c-0.033,0.078-0.062,0.157-0.092,0.236c-0.055,0.141-0.111,0.281-0.16,0.424
		c-0.026,0.076-0.049,0.152-0.073,0.229c-0.023,0.075-0.044,0.15-0.066,0.226c-0.036,0.125-0.07,0.251-0.101,0.378
		c-0.027,0.108-0.053,0.216-0.076,0.326c-0.012,0.055-0.023,0.109-0.034,0.165c-0.025,0.128-0.043,0.258-0.062,0.388
		c-0.019,0.127-0.041,0.254-0.056,0.383c-0.002,0.02-0.006,0.039-0.008,0.058c-0.01,0.094-0.012,0.189-0.02,0.284
		c-0.013,0.16-0.028,0.32-0.032,0.481c-0.001,0.048-0.001,0.097-0.002,0.145c-0.002,0.113,0.003,0.226,0.005,0.339
		c0.003,0.146,0.007,0.292,0.016,0.437c0.004,0.066,0.006,0.132,0.011,0.199c0.007,0.083,0.017,0.165,0.026,0.248
		c0.02,0.183,0.047,0.364,0.077,0.546c0.009,0.055,0.011,0.109,0.021,0.164l0.017,0.097c0.002,0.012,0.004,0.024,0.007,0.037
		l11.541,63.864c0.874,4.834,5.084,8.224,9.829,8.224c0.59,0,1.189-0.053,1.79-0.161c5.435-0.982,9.044-6.185,8.063-11.619
		l-5.157-28.537c14.032,10.267,31.014,15.701,49.97,15.701c37.864,0,78.237-22.394,96-53.247c1.056-1.834,1.503-3.957,1.276-6.061
		c-3.865-35.862-15.145-67.966-33.528-95.42C367.633,130.745,345.046,110.126,319.009,96.054z M286.17,270.405
		c-6.457,0-12.09-1.798-16.296-5.042l54.646-22.918c-4.563,9.978-11.972,19.948-23.971,24.98
		C295.899,269.375,290.927,270.405,286.17,270.405z M397.585,249.903c-15.034,23.276-47.484,40.504-77.005,40.504
		c-5.619,0-11.924-0.613-18.416-2.375c2.072-0.611,4.12-1.325,6.119-2.164c21.542-9.035,36.421-30.008,41.896-59.056
		c0.682-3.616-0.678-7.314-3.539-9.628s-6.763-2.868-10.156-1.446l-45.842,19.226l31.115-35.323c1.608-1.826,2.496-4.176,2.496-6.61
		v-70.352C364.597,150.462,390.912,195.821,397.585,249.903z"/>
</g>
<g>
</g>
<g>
</g>
<g>
</g>
<g>
</g>
<g>
</g>
<g>
</g>
<g>
</g>
<g>
</g>
<g>
</g>
<g>
</g>
<g>
</g>
<g>
</g>
<g>
</g>
<g>
</g>
<g>
</g>
</svg>
