<?xml version="1.0" encoding="iso-8859-1"?>
<!-- Generator: Adobe Illustrator 17.1.0, SVG Export Plug-In . SVG Version: 6.00 Build 0)  -->
<!DOCTYPE svg PUBLIC "-//W3C//DTD SVG 1.1//EN" "http://www.w3.org/Graphics/SVG/1.1/DTD/svg11.dtd">
<svg version="1.1" id="Capa_1" xmlns="http://www.w3.org/2000/svg" xmlns:xlink="http://www.w3.org/1999/xlink" x="0px" y="0px"
	 viewBox="0 0 461.727 461.727" style="enable-background:new 0 0 461.727 461.727;" xml:space="preserve">
<g>
	<path d="M419.88,200.341c-15.139-46.408-36.485-86.734-63.445-119.858C308.711,21.85,254.085,0,230.864,0
		c-23.222,0-77.848,21.85-125.571,80.483c-26.96,33.124-48.307,73.45-63.446,119.858c-18.048,55.326-27.199,119.343-27.199,190.272
		c0,4.738,3.325,8.826,7.964,9.791l105.895,22.02c0.894,21.823,18.919,39.303,40.957,39.303c19.159,0,35.285-13.211,39.761-31
		h43.278c4.476,17.789,20.603,31,39.761,31c22.038,0,40.063-17.48,40.957-39.303l105.895-22.02c4.639-0.964,7.964-5.052,7.964-9.791
		C447.079,319.684,437.928,255.667,419.88,200.341z M169.463,441.727c-11.58,0-21-9.42-21-21s9.42-21,21-21s21,9.42,21,21
		S181.043,441.727,169.463,441.727z M292.264,441.727c-11.579,0-21-9.42-21-21s9.421-21,21-21s21,9.42,21,21
		S303.843,441.727,292.264,441.727z M329.151,402.843c-6.655-13.671-20.688-23.116-36.887-23.116c-19.159,0-35.285,13.211-39.761,31
		h-43.278c-4.476-17.789-20.603-31-39.761-31c-16.199,0-30.232,9.445-36.887,23.116l-97.888-20.355
		c1.569-153.397,47.487-241.921,86.115-289.379C165.763,37.87,214.369,20,230.864,20c16.494,0,65.1,17.87,110.06,73.108
		c38.628,47.458,84.546,135.982,86.115,289.379L329.151,402.843z"/>
	<path d="M374.058,262.181c-24.275-59.949-41.813-103.263-62.019-132.982c-22.271-32.758-47.306-47.366-81.176-47.366
		s-58.906,14.608-81.176,47.366c-20.205,29.719-37.744,73.034-62.019,132.983l-4.745,11.713c-0.009,0.021-0.017,0.042-0.026,0.064
		l-0.037,0.092c-0.046,0.113-0.08,0.228-0.122,0.342c-0.059,0.163-0.123,0.323-0.174,0.49c-0.088,0.288-0.162,0.577-0.223,0.867
		c-0.02,0.094-0.031,0.19-0.048,0.286c-0.04,0.22-0.076,0.44-0.101,0.661c-0.011,0.1-0.016,0.201-0.024,0.301
		c-0.018,0.223-0.031,0.445-0.034,0.667c-0.001,0.048-0.007,0.095-0.007,0.144v65.433c0,5.523,4.477,10,10,10s10-4.477,10-10
		v-46.764l82.757,55.088c0.037,0.025,0.079,0.042,0.116,0.065c0.371,0.24,0.754,0.462,1.155,0.652
		c0.014,0.006,0.028,0.011,0.042,0.018c0.401,0.188,0.817,0.344,1.243,0.478c0.048,0.015,0.095,0.032,0.143,0.046
		c0.423,0.125,0.856,0.222,1.297,0.291c0.063,0.01,0.125,0.017,0.187,0.026c0.443,0.061,0.89,0.102,1.346,0.102
		c0.007,0,0.013-0.001,0.02-0.001h80.861c0.006,0,0.013,0.001,0.02,0.001c0.455,0,0.902-0.041,1.344-0.102
		c0.063-0.009,0.127-0.016,0.19-0.026c0.44-0.069,0.872-0.165,1.294-0.29c0.05-0.015,0.098-0.033,0.148-0.048
		c0.423-0.133,0.836-0.288,1.235-0.475c0.016-0.007,0.032-0.013,0.048-0.021c0.399-0.189,0.78-0.41,1.15-0.648
		c0.039-0.025,0.082-0.042,0.12-0.068l82.758-55.088v46.764c0,5.523,4.478,10,10,10s10-4.477,10-10V277.81
		c0-0.048-0.007-0.094-0.007-0.142c-0.003-0.225-0.016-0.45-0.034-0.675c-0.008-0.098-0.013-0.196-0.024-0.292
		c-0.025-0.228-0.063-0.455-0.104-0.682c-0.016-0.088-0.026-0.177-0.045-0.264c-0.062-0.293-0.136-0.584-0.225-0.874
		c-0.046-0.151-0.104-0.295-0.157-0.443c-0.046-0.128-0.085-0.258-0.137-0.385l-0.043-0.106c-0.006-0.014-0.011-0.028-0.017-0.043
		L374.058,262.181z M230.864,101.833c46.678,0,69.364,35.673,101.973,112.611l-56.594,45.241c-1.976,1.579-3.279,3.848-3.648,6.35
		l-9.925,67.208h-63.613l-9.925-67.208c-0.37-2.502-1.673-4.771-3.648-6.35l-56.593-45.24
		C161.5,137.506,184.186,101.833,230.864,101.833z M106.207,269.688c5.176-12.782,10.038-24.789,14.672-36.043l49.042,39.204
		l7.326,49.608l-72.789-48.453L106.207,269.688z M284.479,322.457l7.326-49.607l49.043-39.205
		c4.634,11.254,9.497,23.261,14.672,36.042l1.749,4.318L284.479,322.457z"/>
	<path d="M249.388,220.552c0.238,0,0.477-0.008,0.716-0.025l46.101-3.303c5.231-0.375,9.285-4.729,9.285-9.975v-33.461
		c0-3.052-1.394-5.938-3.785-7.834s-5.521-2.597-8.49-1.903l-46.101,10.771c-4.524,1.057-7.725,5.091-7.725,9.738v25.994
		c0,2.776,1.154,5.428,3.187,7.319C244.432,219.6,246.869,220.552,249.388,220.552z M259.389,192.492l26.101-6.098v11.546
		l-26.101,1.87V192.492z"/>
	<path d="M165.522,217.224l46.101,3.303c0.239,0.017,0.478,0.025,0.715,0.025c2.519,0,4.957-0.952,6.813-2.681
		c2.032-1.892,3.186-4.543,3.186-7.319v-25.994c0-4.646-3.2-8.681-7.725-9.738l-46.101-10.771c-2.972-0.694-6.099,0.007-8.49,1.903
		c-2.391,1.897-3.785,4.782-3.785,7.834v33.461C156.237,212.495,160.29,216.849,165.522,217.224z M176.237,186.393l26.101,6.099
		v7.318l-26.101-1.87V186.393z"/>
	<path d="M200.454,297.655c0,5.523,4.477,10,10,10h39.813c5.522,0,10-4.477,10-10s-4.478-10-10-10h-39.813
		C204.931,287.655,200.454,292.132,200.454,297.655z"/>
</g>
<g>
</g>
<g>
</g>
<g>
</g>
<g>
</g>
<g>
</g>
<g>
</g>
<g>
</g>
<g>
</g>
<g>
</g>
<g>
</g>
<g>
</g>
<g>
</g>
<g>
</g>
<g>
</g>
<g>
</g>
</svg>
