<?xml version="1.0" encoding="iso-8859-1"?>
<!-- Generator: Adobe Illustrator 17.1.0, SVG Export Plug-In . SVG Version: 6.00 Build 0)  -->
<!DOCTYPE svg PUBLIC "-//W3C//DTD SVG 1.1//EN" "http://www.w3.org/Graphics/SVG/1.1/DTD/svg11.dtd">
<svg version="1.1" id="Capa_1" xmlns="http://www.w3.org/2000/svg" xmlns:xlink="http://www.w3.org/1999/xlink" x="0px" y="0px"
	 viewBox="0 0 460 460" style="enable-background:new 0 0 460 460;" xml:space="preserve">
<g>
	<path d="M328.618,354.486l-77.758,10.587c-3.177,0.433-5.953,2.362-7.467,5.189c-1.513,2.827-1.579,6.208-0.178,9.091
		c8.524,17.54,26.614,28.874,46.085,28.874c2.317,0,4.662-0.159,6.971-0.474c22.022-2.998,39.516-19.696,43.531-41.551
		c0.58-3.153-0.388-6.394-2.602-8.712C334.986,355.17,331.798,354.057,328.618,354.486z M293.573,387.936
		c-1.418,0.193-2.855,0.291-4.272,0.291c-6.526,0-12.799-2.091-17.988-5.753l42.307-5.76
		C308.726,382.718,301.648,386.836,293.573,387.936z"/>
	<path d="M307.493,299.088c-21.535,0-38.486,9.446-52.106,17.036c-9.731,5.423-18.136,10.106-25.387,10.106
		s-15.655-4.683-25.387-10.106c-13.62-7.59-30.571-17.036-52.106-17.036c-21.143,0-41.41,8.543-57.068,24.057
		c-15.041,14.902-23.668,34.382-23.668,53.443s8.627,38.541,23.668,53.443c15.658,15.514,35.926,24.057,57.068,24.057
		c21.535,0,38.486-9.447,52.107-17.037c9.73-5.423,18.135-10.106,25.386-10.106s15.655,4.684,25.386,10.106
		c13.621,7.59,30.572,17.037,52.107,17.037c21.143,0,41.41-8.543,57.068-24.057c15.041-14.903,23.668-34.382,23.668-53.443
		s-8.627-38.541-23.668-53.443C348.903,307.632,328.636,299.088,307.493,299.088z M307.493,434.088
		c-16.339,0-29.572-7.375-42.371-14.507c-11.66-6.499-22.675-12.636-35.122-12.636s-23.462,6.138-35.122,12.636
		c-12.799,7.132-26.032,14.507-42.371,14.507c-34.762,0-60.736-30.357-60.736-57.5c0-27.143,25.975-57.5,60.736-57.5
		c16.339,0,29.573,7.375,42.371,14.507c11.661,6.498,22.675,12.635,35.122,12.635s23.461-6.138,35.122-12.635
		c12.798-7.132,26.032-14.507,42.371-14.507c34.762,0,60.736,30.357,60.736,57.5C368.229,403.731,342.255,434.088,307.493,434.088z"
		/>
	<path d="M209.14,365.073l-77.758-10.587c-3.183-0.43-6.368,0.684-8.583,3.003c-2.214,2.319-3.182,5.559-2.602,8.712
		c4.016,21.855,21.509,38.553,43.53,41.551c2.31,0.314,4.654,0.474,6.972,0.474c19.471,0,37.561-11.333,46.085-28.874
		c1.401-2.883,1.335-6.264-0.178-9.091C215.093,367.436,212.316,365.506,209.14,365.073z M170.699,388.227
		c-1.417,0-2.854-0.098-4.273-0.291c-8.075-1.099-15.151-5.217-20.045-11.223l42.307,5.76
		C183.498,386.135,177.226,388.227,170.699,388.227z"/>
	<path d="M450,196.985h-60.665c-0.125-12.074-0.42-33.535-1.077-55.369c-0.125-4.171-2.796-7.673-6.492-9.058
		c-0.862-24.774-2.019-42.836-3.448-53.726c-0.542-4.135-2.192-16.717-62.501-45.316C302.161,27.041,255.613,5.912,230,5.912
		c-25.614,0-72.162,21.129-85.818,27.605C83.873,62.116,82.223,74.698,81.681,78.833c-1.429,10.89-2.585,28.952-3.448,53.726
		c-3.696,1.385-6.367,4.887-6.492,9.058c-0.657,21.833-0.952,43.295-1.077,55.369H10c-5.522,0-10,4.477-10,10
		c0,22.493,23.861,41.494,69.005,54.949c41.559,12.386,98.734,19.208,160.995,19.208s119.437-6.821,160.995-19.208
		C436.139,248.479,460,229.478,460,206.985C460,201.462,455.522,196.985,450,196.985z M156.742,49.718
		c14.82-6.861,29.077-12.567,41.391-16.673c-0.884,6.006-2.239,11.605-4.089,16.715c-1.881,5.193,0.805,10.927,5.997,12.808
		c1.125,0.407,2.274,0.601,3.404,0.601c4.091,0,7.93-2.529,9.403-6.598c3.195-8.822,5.204-18.657,6.038-29.295
		c4.383-0.891,8.14-1.364,11.114-1.364c2.971,0,6.724,0.472,11.103,1.362c1.641,21.17,7.937,38.772,18.789,52.385
		c16.47,20.658,42.554,31.132,77.527,31.132c5.522,0,10-4.477,10-10s-4.478-10-10-10c-44.642,0-69.995-19.422-75.571-57.752
		c12.318,4.106,26.582,9.815,41.409,16.679c32.481,15.038,51.745,28.164,55.382,32.893c1.257,10.21,2.295,26.762,3.096,49.306
		H98.266c0.8-22.544,1.839-39.096,3.096-49.306C104.998,77.881,124.262,64.755,156.742,49.718z M91.462,151.917h277.076
		c0.463,18.042,0.69,34.866,0.796,45.068H90.666C90.772,186.782,90.999,169.958,91.462,151.917z M385.282,242.767
		C345.527,254.616,290.38,261.142,230,261.142s-115.527-6.525-155.282-18.375c-27.793-8.283-43.26-17.667-50.194-25.782h410.953
		C428.542,225.1,413.075,234.484,385.282,242.767z"/>
	<path d="M122.581,110.791c30.323,0,54.073-7.933,70.593-23.578c4.01-3.797,4.182-10.127,0.384-14.137
		c-3.798-4.009-10.127-4.183-14.138-0.384c-12.68,12.009-31.803,18.099-56.839,18.099c-5.522,0-10,4.477-10,10
		S117.059,110.791,122.581,110.791z"/>
</g>
<g>
</g>
<g>
</g>
<g>
</g>
<g>
</g>
<g>
</g>
<g>
</g>
<g>
</g>
<g>
</g>
<g>
</g>
<g>
</g>
<g>
</g>
<g>
</g>
<g>
</g>
<g>
</g>
<g>
</g>
</svg>
