<?xml version="1.0" encoding="iso-8859-1"?>
<!-- Generator: Adobe Illustrator 17.1.0, SVG Export Plug-In . SVG Version: 6.00 Build 0)  -->
<!DOCTYPE svg PUBLIC "-//W3C//DTD SVG 1.1//EN" "http://www.w3.org/Graphics/SVG/1.1/DTD/svg11.dtd">
<svg version="1.1" id="Capa_1" xmlns="http://www.w3.org/2000/svg" xmlns:xlink="http://www.w3.org/1999/xlink" x="0px" y="0px"
	 viewBox="0 0 460 460" style="enable-background:new 0 0 460 460;" xml:space="preserve">
<path d="M361.547,0c-31.718,0-58.5,21.458-66.641,50.614h-44.325c-30.663,0-55.609,24.946-55.609,55.609c0,5.522,4.478,10,10,10
	h87.38v27.972l-133.963,79.007c-0.111,0.063-0.222,0.127-0.329,0.193L54.926,284.22c-4.757,2.806-6.339,8.937-3.533,13.693
	c2.806,4.756,8.936,6.34,13.693,3.533l89.559-52.818c1.371,9.672,3.759,19.131,7.146,28.3L51.523,341.961
	c-10.404,6.136-17.797,15.957-20.815,27.653s-1.301,23.868,4.836,34.273c6.136,10.404,15.957,17.797,27.653,20.815
	c3.769,0.972,7.584,1.453,11.377,1.453c7.978-0.001,15.843-2.13,22.896-6.289l122.585-72.296
	c21.66,13.168,46.4,20.099,71.947,20.099c0.326,0,0.651-0.01,0.977-0.012V450c0,5.522,4.478,10,10,10s10-4.478,10-10v-83.914
	c9.256-1.41,18.214-3.737,26.778-6.886V450c0,5.522,4.478,10,10,10s10-4.478,10-10V349.962
	c42.326-23.788,70.989-69.124,70.989-121.036V69.196C430.746,31.041,399.704,0,361.547,0z M216.4,96.224
	c4.333-14.782,18.017-25.609,34.181-25.609h41.77v25.609H216.4z M410.746,228.926c0,58.32-42.261,106.955-97.768,116.889v-23.698
	c0-5.522-4.478-10-10-10s-10,4.478-10,10v25.542c-0.326,0.002-0.65,0.012-0.977,0.012c-23.694,0-46.571-6.961-66.157-20.131
	c-3.196-2.148-7.343-2.272-10.66-0.314L87.309,402.641c-5.804,3.422-12.593,4.379-19.115,2.696
	c-6.523-1.684-12.001-5.807-15.424-11.609c-3.423-5.804-4.38-12.593-2.697-19.116c1.684-6.523,5.807-12.001,11.61-15.424
	l117.697-69.414c4.376-2.58,6.121-8.032,4.059-12.674c-5.592-12.583-8.905-25.888-9.877-39.628l133.869-78.951
	c3.049-1.798,4.92-5.073,4.92-8.613v-43.684V70.614h37.405c5.522,0,10-4.478,10-10s-4.478-10-10-10h-33.75
	C323.353,32.675,340.994,20,361.547,20c27.128,0,49.198,22.069,49.198,49.196V228.926z"/>
<g>
</g>
<g>
</g>
<g>
</g>
<g>
</g>
<g>
</g>
<g>
</g>
<g>
</g>
<g>
</g>
<g>
</g>
<g>
</g>
<g>
</g>
<g>
</g>
<g>
</g>
<g>
</g>
<g>
</g>
</svg>
