<?xml version="1.0" encoding="iso-8859-1"?>
<!-- Generator: Adobe Illustrator 17.1.0, SVG Export Plug-In . SVG Version: 6.00 Build 0)  -->
<!DOCTYPE svg PUBLIC "-//W3C//DTD SVG 1.1//EN" "http://www.w3.org/Graphics/SVG/1.1/DTD/svg11.dtd">
<svg version="1.1" id="Capa_1" xmlns="http://www.w3.org/2000/svg" xmlns:xlink="http://www.w3.org/1999/xlink" x="0px" y="0px"
	 viewBox="0 0 460 460" style="enable-background:new 0 0 460 460;" xml:space="preserve">
<g>
	<path d="M433.702,192.485c-4.695-6.208-10.924-10.862-18.005-13.549c-5.233-50.527-26.754-95.944-61.04-128.505
		C320.412,17.91,276.142,0,230,0s-90.412,17.91-124.657,50.432c-34.286,32.561-55.807,77.978-61.04,128.505
		c-7.08,2.686-13.31,7.34-18.005,13.549c-6.516,8.615-9.165,19.038-7.458,29.349l11.367,68.688
		c2.984,18.035,17.826,31.354,35.801,32.55c5.559,19.015,20.026,68.214,25.539,84.19c7.518,21.783,25.911,36.841,54.669,44.754
		c2.426,0.667,4.915,1.264,7.433,1.826c0.366,0.104,0.738,0.188,1.116,0.25C178.526,459.234,205.866,460,230,460
		c24.151,0,51.512-0.767,75.285-5.918c0.343-0.058,0.68-0.135,1.013-0.227c2.536-0.565,5.044-1.166,7.487-1.838
		c28.758-7.913,47.151-22.971,54.669-44.755c5.513-15.976,19.98-65.176,25.539-84.189c17.973-1.197,32.816-14.516,35.801-32.55
		l11.367-68.688C442.866,211.523,440.218,201.101,433.702,192.485z M110.453,400.738c-4.326-12.537-14.726-47.492-21.405-70.185
		l35.523,15.604l18.404,83.737C127.055,424.025,115.335,414.883,110.453,400.738z M349.547,400.737
		c-4.881,14.145-16.601,23.288-32.521,29.156l18.404-83.736l35.523-15.604C364.272,353.246,353.873,388.201,349.547,400.737z
		 M421.428,218.568l-11.367,68.688c-1.117,6.747-5.64,12.125-11.637,14.53l6.235-39.773c0.855-5.456-2.875-10.573-8.331-11.428
		c-5.459-0.863-10.573,2.874-11.428,8.33l-7.352,46.896l-54.817,24.078c-2.925,1.284-5.06,3.889-5.746,7.009l-21.697,98.72
		C275.855,439.158,253.146,440,230,440c-23.146,0-45.855-0.842-65.289-4.381l-21.698-98.72c-0.686-3.12-2.821-5.725-5.746-7.009
		L82.45,305.812l-7.353-46.905c-0.855-5.456-5.969-9.193-11.428-8.33c-5.456,0.854-9.186,5.972-8.331,11.428l6.237,39.782
		c-5.996-2.404-10.52-7.783-11.636-14.53l-11.367-68.688c-0.802-4.844,0.504-9.822,3.678-14.019
		c3.188-4.216,7.939-7.117,13.042-7.961c6.036-1.003,8.903-6.275,8.536-10.728c-0.012-0.143-0.027-0.285-0.044-0.426
		C72.585,77.957,155.725,20,230,20s157.415,57.957,166.216,165.436c-0.018,0.141-0.033,0.283-0.044,0.426
		c-0.367,4.452,2.5,9.725,8.542,10.729c5.097,0.843,9.849,3.744,13.037,7.96C420.924,208.746,422.23,213.725,421.428,218.568z"/>
	<path d="M266,353.773h-72c-5.523,0-10,4.478-10,10s4.477,10,10,10h72c5.523,0,10-4.478,10-10S271.523,353.773,266,353.773z"/>
	<path d="M215.324,250.645c2.1-2.423,2.911-5.705,2.181-8.827s-2.913-5.704-5.87-6.944l-84.369-35.386
		c-2.957-1.239-6.328-0.987-9.067,0.68c-2.738,1.667-4.512,4.546-4.768,7.742c-2.015,25.105,12.24,48.521,35.471,58.265
		c7.176,3.01,14.732,4.535,22.458,4.535C188.247,270.709,204.271,263.396,215.324,250.645z M171.36,250.709
		c-5.056,0-10.009-1.002-14.722-2.979c-10.447-4.382-18.126-12.977-21.499-23.253l53.137,22.286
		C183.078,249.331,177.301,250.709,171.36,250.709z"/>
	<path d="M341.801,200.167c-2.739-1.667-6.11-1.919-9.067-0.68l-84.369,35.386c-2.957,1.24-5.14,3.822-5.87,6.944
		s0.081,6.405,2.181,8.827c11.053,12.751,27.078,20.064,43.964,20.064h0c7.726,0,15.281-1.525,22.457-4.535
		c23.231-9.744,37.486-33.158,35.472-58.265C346.313,204.714,344.54,201.834,341.801,200.167z M303.362,247.73
		c-4.713,1.977-9.667,2.979-14.722,2.979c-5.94,0-11.718-1.378-16.917-3.945l53.137-22.286
		C321.488,234.754,313.808,243.349,303.362,247.73z"/>
	<path d="M146,138.585c16.833,0,30.528-13.694,30.528-30.527S162.833,77.529,146,77.529s-30.528,13.695-30.528,30.528
		S129.167,138.585,146,138.585z M146,97.529c5.805,0,10.528,4.723,10.528,10.528c0,5.805-4.723,10.527-10.528,10.527
		s-10.528-4.723-10.528-10.527C135.473,102.252,140.195,97.529,146,97.529z"/>
	<path d="M314,138.585c16.833,0,30.528-13.694,30.528-30.527S330.833,77.529,314,77.529s-30.528,13.695-30.528,30.528
		S297.167,138.585,314,138.585z M314,97.529c5.805,0,10.528,4.723,10.528,10.528c0,5.805-4.723,10.527-10.528,10.527
		s-10.528-4.723-10.528-10.527C303.473,102.252,308.195,97.529,314,97.529z"/>
	<path d="M230,205.023c27.277,0,49.469-22.191,49.469-49.469S257.278,106.086,230,106.086s-49.469,22.191-49.469,49.469
		S202.723,205.023,230,205.023z M230,126.086c16.25,0,29.469,13.22,29.469,29.469S246.25,185.023,230,185.023
		s-29.469-13.22-29.469-29.469S213.751,126.086,230,126.086z"/>
</g>
<g>
</g>
<g>
</g>
<g>
</g>
<g>
</g>
<g>
</g>
<g>
</g>
<g>
</g>
<g>
</g>
<g>
</g>
<g>
</g>
<g>
</g>
<g>
</g>
<g>
</g>
<g>
</g>
<g>
</g>
</svg>
