<?xml version="1.0" encoding="iso-8859-1"?>
<!-- Generator: Adobe Illustrator 17.1.0, SVG Export Plug-In . SVG Version: 6.00 Build 0)  -->
<!DOCTYPE svg PUBLIC "-//W3C//DTD SVG 1.1//EN" "http://www.w3.org/Graphics/SVG/1.1/DTD/svg11.dtd">
<svg version="1.1" id="Capa_1" xmlns="http://www.w3.org/2000/svg" xmlns:xlink="http://www.w3.org/1999/xlink" x="0px" y="0px"
	 viewBox="0 0 452.014 452.014" style="enable-background:new 0 0 452.014 452.014;" xml:space="preserve">
<g>
	<path d="M347.941,203.891c2.522-4.143,1.709-9.497-1.929-12.703c-3.638-3.206-9.053-3.342-12.845-0.317
		c-12.711,10.131-28.038,15.486-44.323,15.486c-39.245,0-71.173-31.928-71.173-71.173S249.6,64.01,288.845,64.01
		c16.285,0,31.611,5.355,44.323,15.487c1.828,1.457,4.031,2.181,6.232,2.181c0.007,0,0.017,0,0.021,0c5.523,0,10-4.478,10-10
		c0-2.128-0.665-4.102-1.798-5.723c-11.575-18.81-27.794-34.551-46.94-45.548C280.75,8.958,258,2.907,234.89,2.907
		c-72.938,0-132.276,59.339-132.276,132.276S161.952,267.46,234.89,267.46c23.11,0,45.861-6.051,65.792-17.5
		C320.004,238.861,336.347,222.931,347.941,203.891z M122.613,135.184c0-61.909,50.367-112.276,112.276-112.276
		c24.698,0,47.974,7.882,66.983,22.046c-4.301-0.625-8.655-0.943-13.028-0.943c-50.273,0-91.173,40.9-91.173,91.174
		c0,50.272,40.9,91.173,91.173,91.173c4.373,0,8.728-0.318,13.029-0.943c-19.009,14.164-42.286,22.047-66.984,22.047
		C172.98,247.46,122.613,197.093,122.613,135.184z"/>
	<path d="M451.658,282.362c-0.256-3.196-2.029-6.075-4.768-7.742c-2.739-1.667-6.11-1.92-9.067-0.68l-174.554,73.21
		c-0.066,0.028-0.127,0.065-0.192,0.095c-0.242,0.107-0.477,0.223-0.706,0.347c-0.096,0.052-0.191,0.103-0.285,0.158
		c-0.255,0.149-0.501,0.31-0.739,0.48c-0.06,0.042-0.122,0.081-0.181,0.125c-0.594,0.443-1.132,0.946-1.608,1.501
		c-0.068,0.079-0.13,0.163-0.195,0.244c-0.16,0.199-0.315,0.402-0.459,0.612c-0.073,0.106-0.143,0.215-0.212,0.324
		c-0.128,0.203-0.248,0.411-0.362,0.623c-0.059,0.11-0.119,0.219-0.174,0.332c-0.128,0.261-0.242,0.529-0.346,0.801
		c-0.025,0.065-0.055,0.127-0.079,0.193c-0.127,0.351-0.233,0.709-0.32,1.075c-0.003,0.012-0.008,0.023-0.011,0.035
		c-0.011,0.046-0.014,0.092-0.024,0.138c-0.067,0.304-0.12,0.612-0.159,0.923c-0.012,0.101-0.02,0.201-0.029,0.302
		c-0.025,0.268-0.039,0.537-0.041,0.809c-0.001,0.112-0.002,0.224,0.001,0.335c0.006,0.259,0.025,0.518,0.052,0.778
		c0.012,0.115,0.02,0.23,0.035,0.345c0.036,0.263,0.089,0.526,0.147,0.79c0.022,0.102,0.038,0.205,0.063,0.305
		c0.005,0.021,0.008,0.042,0.013,0.064c13.149,50.653,57.081,86.902,109.32,90.202c0.215,0.014,0.428,0.02,0.64,0.02
		c5.235,0,9.636-4.072,9.97-9.37c0.348-5.512-3.838-10.262-9.35-10.61c-29.962-1.892-56.65-16.774-73.971-39.621
		c14.885,7.314,31.408,11.242,48.395,11.242c14.558,0,28.799-2.877,42.329-8.552C428.583,373.828,455.455,329.689,451.658,282.362z
		 M377.054,373.752c-11.067,4.642-22.706,6.995-34.593,6.995c-21.245,0-41.604-7.508-57.633-20.951l146.915-61.618
		C429.173,331.263,408.423,360.596,377.054,373.752z"/>
	<path d="M194.78,357.726c0.016-0.115,0.024-0.229,0.036-0.345c0.027-0.26,0.046-0.519,0.052-0.777
		c0.003-0.112,0.002-0.225,0.001-0.337c-0.003-0.271-0.017-0.54-0.041-0.808c-0.009-0.101-0.017-0.201-0.029-0.302
		c-0.038-0.311-0.092-0.619-0.159-0.923c-0.01-0.046-0.013-0.092-0.024-0.138c-0.003-0.012-0.008-0.023-0.011-0.035
		c-0.087-0.365-0.193-0.724-0.32-1.075c-0.024-0.066-0.054-0.128-0.079-0.193c-0.105-0.272-0.219-0.54-0.346-0.801
		c-0.055-0.113-0.115-0.222-0.174-0.332c-0.114-0.212-0.233-0.42-0.362-0.623c-0.069-0.109-0.139-0.218-0.212-0.324
		c-0.144-0.21-0.299-0.413-0.459-0.612c-0.065-0.081-0.127-0.165-0.195-0.244c-0.476-0.555-1.014-1.059-1.608-1.501
		c-0.059-0.044-0.121-0.083-0.181-0.125c-0.239-0.17-0.484-0.331-0.739-0.48c-0.094-0.055-0.189-0.105-0.285-0.158
		c-0.23-0.124-0.465-0.24-0.706-0.347c-0.066-0.029-0.126-0.067-0.192-0.095L14.191,273.94c-2.957-1.24-6.33-0.987-9.067,0.68
		c-2.739,1.667-4.512,4.546-4.768,7.742c-3.797,47.327,23.075,91.466,66.868,109.833c13.527,5.674,27.769,8.551,42.328,8.552
		c0.004,0,0.004,0,0.008,0c16.984,0,33.505-3.928,48.388-11.241c-17.322,22.846-44.009,37.728-73.971,39.62
		c-5.512,0.349-9.698,5.099-9.35,10.61c0.334,5.298,4.735,9.37,9.97,9.37c0.212,0,0.426-0.006,0.64-0.02
		c52.239-3.3,96.171-39.549,109.32-90.202c0.006-0.021,0.008-0.042,0.013-0.064c0.026-0.101,0.041-0.204,0.063-0.305
		C194.691,358.252,194.744,357.989,194.78,357.726z M109.553,380.747c-11.889,0-23.528-2.354-34.594-6.995
		c-31.369-13.156-52.119-42.489-54.689-75.574l146.916,61.618c-16.029,13.445-36.384,20.952-57.626,20.951
		C109.558,380.747,109.555,380.747,109.553,380.747z"/>
</g>
<g>
</g>
<g>
</g>
<g>
</g>
<g>
</g>
<g>
</g>
<g>
</g>
<g>
</g>
<g>
</g>
<g>
</g>
<g>
</g>
<g>
</g>
<g>
</g>
<g>
</g>
<g>
</g>
<g>
</g>
</svg>
