<?xml version="1.0" encoding="iso-8859-1"?>
<!-- Generator: Adobe Illustrator 17.1.0, SVG Export Plug-In . SVG Version: 6.00 Build 0)  -->
<!DOCTYPE svg PUBLIC "-//W3C//DTD SVG 1.1//EN" "http://www.w3.org/Graphics/SVG/1.1/DTD/svg11.dtd">
<svg version="1.1" id="Capa_1" xmlns="http://www.w3.org/2000/svg" xmlns:xlink="http://www.w3.org/1999/xlink" x="0px" y="0px"
	 viewBox="0 0 460 460" style="enable-background:new 0 0 460 460;" xml:space="preserve">
<g>
	<path d="M207.189,372.198l-100.627-42.204c-2.957-1.239-6.329-0.987-9.067,0.68s-4.512,4.546-4.768,7.742
		c-2.336,29.111,14.194,56.262,41.132,67.561c8.321,3.49,17.082,5.26,26.04,5.26c19.581,0,38.163-8.48,50.98-23.267
		c2.1-2.422,2.911-5.705,2.181-8.827S210.146,373.438,207.189,372.198z M159.898,391.236c-6.287,0-12.446-1.246-18.304-3.703
		c-14.295-5.996-24.423-18.339-27.83-32.831l70.738,29.669C177.164,388.815,168.674,391.236,159.898,391.236z"/>
	<path d="M364.115,330.077c-2.736-1.667-6.108-1.92-9.067-0.68l-102.563,43.016c-2.956,1.24-5.139,3.822-5.869,6.944
		s0.081,6.405,2.182,8.827c13.027,15.028,31.913,23.647,51.814,23.647c9.104,0,18.009-1.798,26.466-5.346
		c27.379-11.482,44.18-39.077,41.806-68.667C368.628,334.624,366.854,331.744,364.115,330.077z M319.343,388.043
		c-5.995,2.515-12.297,3.789-18.73,3.789c-9.108,0-17.917-2.548-25.498-7.222l72.791-30.529
		C344.506,369.069,334.092,381.857,319.343,388.043z"/>
	<path d="M425.709,306.188l0.003-52.914c0-0.025,0.004-0.049,0.004-0.074s-0.004-0.049-0.004-0.074l0.003-57.416
		C425.715,87.796,337.92,0,230.004,0S34.293,87.796,34.293,195.711v57.325c-0.001,0.056-0.008,0.109-0.008,0.165
		s0.007,0.109,0.008,0.165v52.782c-0.001,0.056-0.008,0.109-0.008,0.165s0.007,0.109,0.008,0.165v52.948
		c0,1.282,0.247,2.552,0.726,3.741c1.093,2.71,27.276,66.64,70.951,90.225c8.122,4.386,17.109,6.61,26.711,6.61
		c23.82,0,47.838-13.724,67.137-24.75c11.833-6.762,24.069-13.753,30.181-13.753s18.349,6.991,30.183,13.753
		c19.299,11.026,43.317,24.749,67.135,24.75c0.002,0,0.002,0,0.004,0c9.6,0,18.586-2.225,26.709-6.61
		c43.675-23.585,69.857-87.515,70.95-90.225c0.48-1.188,0.727-2.459,0.727-3.74l0.002-52.989c0-0.042,0.006-0.082,0.006-0.124
		S425.71,306.229,425.709,306.188z M54.293,263.2h351.419l-0.002,33.111H54.293V263.2z M230.004,20
		c96.887,0,175.71,78.823,175.71,175.71l-0.002,47.49H54.293v-47.489C54.293,98.823,133.116,20,230.004,20z M344.526,435.792
		c-5.243,2.831-10.871,4.208-17.205,4.208c-0.001,0-0.002,0-0.003,0c-18.508-0.001-39.071-11.75-57.214-22.115
		c-15.391-8.794-28.682-16.388-40.104-16.388s-24.714,7.594-40.104,16.388C171.754,428.251,151.191,440,132.681,440
		c-6.336,0-11.965-1.377-17.208-4.208c-33.713-18.205-56.868-68.479-61.18-78.4v-41.08h351.416l-0.002,41.079
		C401.39,367.322,378.237,417.588,344.526,435.792z"/>
	<path d="M230,223c36.392,0,65.998-35.838,65.998-79.889S266.391,63.223,230,63.223c-36.391,0-65.998,35.838-65.998,79.889
		S193.609,223,230,223z M230,83.223c25.363,0,45.998,26.866,45.998,59.889S255.363,203,230,203s-45.998-26.866-45.998-59.889
		S204.636,83.223,230,83.223z"/>
	<path d="M230,193c16.56,0,30.031-15.701,30.031-35S246.559,123,230,123c-16.559,0-30.031,15.701-30.031,35S213.441,193,230,193z
		 M230,143c5.344,0,10.031,7.01,10.031,15s-4.688,15-10.031,15s-10.031-7.01-10.031-15S224.656,143,230,143z"/>
</g>
<g>
</g>
<g>
</g>
<g>
</g>
<g>
</g>
<g>
</g>
<g>
</g>
<g>
</g>
<g>
</g>
<g>
</g>
<g>
</g>
<g>
</g>
<g>
</g>
<g>
</g>
<g>
</g>
<g>
</g>
</svg>
