<?xml version="1.0" encoding="iso-8859-1"?>
<!-- Generator: Adobe Illustrator 17.1.0, SVG Export Plug-In . SVG Version: 6.00 Build 0)  -->
<!DOCTYPE svg PUBLIC "-//W3C//DTD SVG 1.1//EN" "http://www.w3.org/Graphics/SVG/1.1/DTD/svg11.dtd">
<svg version="1.1" id="Capa_1" xmlns="http://www.w3.org/2000/svg" xmlns:xlink="http://www.w3.org/1999/xlink" x="0px" y="0px"
	 viewBox="0 0 460 460" style="enable-background:new 0 0 460 460;" xml:space="preserve">
<g>
	<path d="M427.334,256.284h-62.933c-4.766-17.575-7.684-39.553-8.683-65.481c-0.125-3.258-1.805-6.096-4.303-7.829
		c-1.645-71.571,11.169-147.233,11.303-148.016c0.772-4.501-1.602-8.953-5.77-10.819C354.747,23.153,302.204,0,230,0
		S105.253,23.153,103.052,24.139c-4.168,1.866-6.542,6.318-5.77,10.819c0.134,0.783,12.947,76.445,11.303,148.016
		c-2.498,1.733-4.178,4.571-4.303,7.829c-0.998,25.928-3.916,47.906-8.682,65.481H32.666c-15.841,0-28.729,12.887-28.729,28.728
		s12.888,28.729,28.729,28.729h394.668c15.841,0,28.729-12.888,28.729-28.729S443.175,256.284,427.334,256.284z M230,20
		c53.025,0,95.533,13.595,111.721,19.6c-3.277,21.421-11.504,81.827-10.349,141.588H128.629
		c1.155-59.761-7.073-120.167-10.349-141.587C134.474,33.593,176.979,20,230,20z M123.802,201.188h212.396
		c1.229,20.945,3.767,39.383,7.567,55.097h-227.53C120.036,240.569,122.575,222.132,123.802,201.188z M427.334,293.74H32.666
		c-4.813,0-8.729-3.916-8.729-8.729s3.916-8.728,8.729-8.728h70.29c0.017,0,0.034,0,0.052,0h253.87c0.016,0,0.033,0.002,0.049,0.002
		c0.017,0,0.034-0.002,0.051-0.002h70.358c4.813,0,8.729,3.915,8.729,8.728S432.146,293.74,427.334,293.74z"/>
	<path d="M207.679,342.302c-0.248-0.232-0.51-0.454-0.786-0.664c-0.144-0.11-0.296-0.203-0.444-0.304
		c-11.005-8.249-24.664-13.141-39.445-13.141c-36.339,0-65.902,29.564-65.902,65.903c0,20.996,9.881,39.716,25.225,51.793
		c0.249,0.232,0.511,0.455,0.788,0.665c0.217,0.165,0.439,0.319,0.665,0.464c10.968,8.15,24.542,12.98,39.225,12.98
		c36.339,0,65.902-29.563,65.902-65.902C232.906,373.1,223.024,354.379,207.679,342.302z M167.004,440
		c-6.833,0-13.315-1.512-19.148-4.201l21.632-28.448c3.343-4.396,2.489-10.67-1.907-14.013c-4.396-3.345-10.672-2.488-14.013,1.907
		l-21.622,28.436c-6.758-7.996-10.844-18.319-10.844-29.584c0-25.312,20.592-45.903,45.902-45.903c6.833,0,13.315,1.512,19.147,4.2
		l-11.542,15.179c-3.343,4.396-2.489,10.67,1.907,14.013c1.809,1.376,3.936,2.041,6.045,2.041c3.018,0,6.001-1.361,7.968-3.948
		l11.533-15.167c6.758,7.997,10.844,18.32,10.844,29.585C212.906,419.408,192.314,440,167.004,440z"/>
</g>
<g>
</g>
<g>
</g>
<g>
</g>
<g>
</g>
<g>
</g>
<g>
</g>
<g>
</g>
<g>
</g>
<g>
</g>
<g>
</g>
<g>
</g>
<g>
</g>
<g>
</g>
<g>
</g>
<g>
</g>
</svg>
