<?xml version="1.0" encoding="iso-8859-1"?>
<!-- Generator: Adobe Illustrator 17.1.0, SVG Export Plug-In . SVG Version: 6.00 Build 0)  -->
<!DOCTYPE svg PUBLIC "-//W3C//DTD SVG 1.1//EN" "http://www.w3.org/Graphics/SVG/1.1/DTD/svg11.dtd">
<svg version="1.1" id="Capa_1" xmlns="http://www.w3.org/2000/svg" xmlns:xlink="http://www.w3.org/1999/xlink" x="0px" y="0px"
	 viewBox="0 0 460 460" style="enable-background:new 0 0 460 460;" xml:space="preserve">
<path d="M459.688,437.813c-0.388-1.517-38.568-150.512-68.107-242.651l48.903-91.75c2.222-4.169,1.223-9.324-2.395-12.362
	c-3.62-3.039-8.87-3.128-12.591-0.218l-56.043,43.837c-13.086-28.49-29.626-51.222-49.278-67.68
	c-18.582-15.562-39.925-25.544-63.534-29.777l-0.824-17.959c-0.245-5.339-4.645-9.542-9.989-9.542h-31.66
	c-5.345,0-9.745,4.203-9.989,9.542l-0.824,17.959c-23.608,4.232-44.951,14.215-63.533,29.777
	c-19.523,16.35-35.975,38.888-49.021,67.116L34.851,86.117c-3.621-3.104-8.931-3.223-12.684-0.276
	c-3.752,2.945-4.903,8.13-2.748,12.386l49.037,96.818C38.913,287.175,0.7,436.295,0.312,437.813c-0.766,2.992-0.105,6.17,1.789,8.61
	c1.895,2.439,4.81,3.867,7.899,3.867h56.952c4.676,0,8.728-3.24,9.755-7.803l11.836-52.542l66.979,31.544
	c3.116,16.378,17.542,28.8,34.814,28.8h79.329c17.272,0,31.698-12.422,34.814-28.8l66.979-31.544l11.836,52.542
	c1.027,4.563,5.079,7.803,9.755,7.803H450c3.089,0,6.004-1.428,7.899-3.867C459.793,443.982,460.454,440.805,459.688,437.813z
	 M350.121,140.535h-88.739l-3.795-82.754C297.197,66.401,328.244,94.167,350.121,140.535z M202.414,57.781l-3.795,82.754H109.88
	C131.756,94.167,162.802,66.401,202.414,57.781z M88.09,158.126c0.014,0.012,0.029,0.022,0.043,0.034
	c0.152,0.129,0.312,0.25,0.473,0.37c0.094,0.071,0.188,0.142,0.284,0.209c0.143,0.1,0.291,0.193,0.441,0.286
	c0.128,0.08,0.257,0.157,0.389,0.23c0.132,0.074,0.266,0.145,0.402,0.213c0.165,0.083,0.332,0.159,0.501,0.232
	c0.078,0.034,0.152,0.075,0.231,0.107c0.044,0.018,0.089,0.029,0.133,0.046c0.17,0.066,0.344,0.124,0.518,0.18
	c0.124,0.041,0.247,0.084,0.372,0.119c0.166,0.047,0.334,0.084,0.502,0.122c0.136,0.031,0.271,0.067,0.407,0.092
	c0.15,0.028,0.302,0.044,0.453,0.065c0.153,0.021,0.305,0.048,0.458,0.062c0.13,0.012,0.262,0.012,0.394,0.019
	c0.167,0.008,0.334,0.023,0.5,0.023c0.004,0,0.009-0.001,0.013-0.001H208.17c5.345,0,9.745-4.203,9.989-9.542l5.563-121.283h12.557
	l5.563,121.283c0.245,5.339,4.645,9.542,9.989,9.542h113.553c0.009,0,0.017,0.002,0.026,0.002c0.139,0,0.278-0.014,0.417-0.02
	c0.146-0.006,0.291-0.008,0.436-0.021c0.15-0.013,0.299-0.037,0.449-0.056c0.146-0.02,0.292-0.037,0.436-0.063
	c0.142-0.025,0.283-0.058,0.424-0.089c0.156-0.035,0.311-0.071,0.465-0.113c0.131-0.036,0.262-0.076,0.392-0.117
	c0.165-0.052,0.327-0.109,0.489-0.17c0.076-0.029,0.153-0.049,0.228-0.08c0.048-0.019,0.091-0.044,0.138-0.064
	c0.176-0.075,0.349-0.157,0.521-0.242c0.114-0.056,0.23-0.107,0.341-0.167c0.157-0.085,0.309-0.181,0.462-0.274
	c0.264-0.161,0.517-0.332,0.762-0.513c0.063-0.047,0.129-0.088,0.19-0.137l0.083-0.065c0.042-0.033,0.085-0.065,0.127-0.099
	l28.85-22.565l-25.858,48.513H85.381l-25.425-50.198L88.09,158.126z M303.666,310.232c-4.327-14.686-17.933-25.438-34.001-25.438
	h-79.329c-16.068,0-29.674,10.752-34.001,25.438h-49.835l23.886-106.036h199.23l23.886,106.036H303.666z M58.954,430.29h-36.04
	c9.7-37.313,39.411-150.088,63.614-226.095h23.356l-25.682,114.01c-0.001,0.005-0.003,0.011-0.004,0.016l-12.39,55.003
	c-0.003,0.013-0.006,0.026-0.009,0.04L58.954,430.29z M101.994,330.232h52.904v68.858l-61.853-29.13L101.994,330.232z
	 M305.102,399.089v-30.894c0-5.522-4.477-10-10-10s-10,4.478-10,10v46.657c0,8.513-6.925,15.438-15.438,15.438h-79.329
	c-8.512,0-15.438-6.925-15.438-15.438v-94.621c0-8.513,6.925-15.438,15.438-15.438h79.329c8.512,0,15.438,6.925,15.438,15.438
	v17.964c0,5.522,4.477,10,10,10s10-4.478,10-10v-7.964h52.904l8.949,39.728L305.102,399.089z M401.046,430.29l-12.846-57.026
	c-0.003-0.013-0.006-0.026-0.009-0.04l-12.39-55.003c-0.001-0.005-0.003-0.011-0.004-0.016l-25.682-114.01h23.356
	c24.204,76.006,53.914,188.782,63.614,226.095H401.046z"/>
<g>
</g>
<g>
</g>
<g>
</g>
<g>
</g>
<g>
</g>
<g>
</g>
<g>
</g>
<g>
</g>
<g>
</g>
<g>
</g>
<g>
</g>
<g>
</g>
<g>
</g>
<g>
</g>
<g>
</g>
</svg>
