<?xml version="1.0" encoding="iso-8859-1"?>
<!-- Generator: Adobe Illustrator 17.1.0, SVG Export Plug-In . SVG Version: 6.00 Build 0)  -->
<!DOCTYPE svg PUBLIC "-//W3C//DTD SVG 1.1//EN" "http://www.w3.org/Graphics/SVG/1.1/DTD/svg11.dtd">
<svg version="1.1" id="Capa_1" xmlns="http://www.w3.org/2000/svg" xmlns:xlink="http://www.w3.org/1999/xlink" x="0px" y="0px"
	 viewBox="0 0 464.773 464.773" style="enable-background:new 0 0 464.773 464.773;" xml:space="preserve">
<g>
	<path d="M197.452,231.951l-21.209-10c-4.996-2.358-10.955-0.215-13.31,4.78c-2.355,4.995-0.215,10.954,4.78,13.31l21.209,10
		c1.378,0.65,2.829,0.957,4.258,0.957c3.75,0,7.346-2.12,9.052-5.737C204.588,240.265,202.448,234.306,197.452,231.951z"/>
	<path d="M288.354,221.951l-21.209,10c-4.996,2.355-7.136,8.314-4.78,13.31c1.706,3.617,5.301,5.737,9.052,5.737
		c1.429,0,2.88-0.308,4.258-0.957l21.209-10c4.996-2.355,7.136-8.314,4.78-13.31C299.309,221.736,293.35,219.597,288.354,221.951z"
		/>
	<path d="M458.515,99.488c5.121-2.069,7.596-7.897,5.527-13.018c-1.535-3.799-5.14-6.136-8.99-6.248l3.112-30.3
		c0.289-2.814-0.628-5.621-2.524-7.722c-1.896-2.101-4.593-3.3-7.423-3.3c-23.692,0-50.935,1.457-74.413,18.855
		c-28.546,21.154-43.02,61.1-43.02,118.726v11.921c-3.892-5.547-8.352-10.737-13.389-15.552
		c-18.321-17.512-40.84-27.079-57.283-34.064c-7.989-3.395-17.932-7.619-19.918-10.174c-0.025-0.033-0.055-0.061-0.081-0.093
		c-0.168-0.21-0.346-0.411-0.53-0.606c-0.06-0.064-0.116-0.134-0.178-0.196c-0.248-0.251-0.509-0.488-0.782-0.712
		c-0.06-0.048-0.124-0.09-0.184-0.138c-0.22-0.171-0.445-0.336-0.68-0.49c-0.09-0.059-0.184-0.112-0.276-0.168
		c-0.215-0.13-0.433-0.255-0.659-0.37c-0.099-0.05-0.198-0.097-0.299-0.144c-0.228-0.107-0.461-0.205-0.698-0.294
		c-0.101-0.038-0.201-0.076-0.303-0.111c-0.244-0.083-0.494-0.154-0.746-0.219c-0.1-0.026-0.198-0.055-0.299-0.077
		c-0.265-0.059-0.535-0.103-0.807-0.14c-0.091-0.013-0.181-0.032-0.273-0.042c-0.361-0.04-0.727-0.063-1.098-0.063
		c-0.371,0-0.737,0.023-1.098,0.063c-0.092,0.01-0.182,0.029-0.274,0.042c-0.272,0.038-0.541,0.081-0.805,0.14
		c-0.102,0.022-0.201,0.051-0.301,0.077c-0.252,0.064-0.5,0.136-0.744,0.219c-0.103,0.035-0.204,0.073-0.305,0.112
		c-0.236,0.089-0.468,0.187-0.695,0.292c-0.101,0.047-0.202,0.095-0.301,0.146c-0.224,0.114-0.442,0.238-0.656,0.368
		c-0.093,0.057-0.187,0.11-0.279,0.169c-0.234,0.152-0.458,0.317-0.677,0.488c-0.061,0.048-0.126,0.09-0.187,0.14
		c-0.273,0.223-0.534,0.461-0.782,0.711c-0.062,0.063-0.118,0.132-0.178,0.196c-0.184,0.196-0.363,0.396-0.53,0.606
		c-0.026,0.032-0.056,0.06-0.081,0.093c-1.986,2.555-11.929,6.779-19.918,10.174c-16.443,6.985-38.962,16.553-57.283,34.064
		c-4.961,4.742-9.363,9.847-13.213,15.299v-11.668c0-57.626-14.474-97.571-43.02-118.726C67.491,40.358,40.248,38.901,16.556,38.901
		c-2.83,0-5.527,1.199-7.423,3.3c-1.896,2.101-2.813,4.907-2.524,7.722l3.112,30.301c-3.85,0.111-7.456,2.447-8.99,6.247
		c-2.069,5.12,0.406,10.948,5.527,13.018l5.678,2.293l2.848,27.726c-4.209,0.201-7.996,3.065-9.166,7.352
		c-1.456,5.327,1.684,10.826,7.011,12.281l4.292,1.172l2.927,28.492c-4.522,0.306-8.414,3.665-9.188,8.332
		c-0.903,5.448,2.781,10.598,8.229,11.501l3.047,0.505l2.974,28.954c-4.792,0.41-8.718,4.243-9.095,9.195
		c-0.419,5.507,3.706,10.311,9.212,10.729l1.945,0.148l3.001,29.219c-5.018,0.536-8.927,4.781-8.927,9.94c0,5.522,4.477,10,10,10
		h0.975l4.021,39.149c0.524,5.101,4.82,8.979,9.948,8.979h26.162c1.287,21.975,6.872,40.913,16.343,55.207
		c8.951,13.509,21.197,22.631,33.597,25.026c0.63,0.122,1.265,0.182,1.897,0.182c2.303,0,4.559-0.797,6.365-2.287
		c2.302-1.899,3.635-4.729,3.635-7.713V272.014l64.016,31.677l25.792,41.647c0.024,0.039,0.054,0.072,0.079,0.11
		c0.187,0.292,0.387,0.575,0.602,0.846c0.029,0.036,0.054,0.076,0.083,0.111c0.241,0.295,0.502,0.572,0.775,0.837
		c0.079,0.077,0.162,0.147,0.243,0.221c0.208,0.189,0.423,0.37,0.646,0.542c0.092,0.07,0.183,0.14,0.277,0.207
		c0.266,0.19,0.542,0.367,0.827,0.531c0.045,0.026,0.087,0.055,0.132,0.081c0.343,0.189,0.698,0.358,1.064,0.508
		c0.058,0.023,0.118,0.042,0.177,0.064c0.301,0.116,0.609,0.218,0.924,0.306c0.102,0.028,0.204,0.054,0.306,0.079
		c0.286,0.069,0.576,0.125,0.87,0.169c0.105,0.016,0.208,0.035,0.313,0.048c0.389,0.046,0.782,0.076,1.183,0.076
		s0.794-0.03,1.183-0.076c0.105-0.013,0.209-0.032,0.313-0.048c0.295-0.044,0.585-0.1,0.87-0.169
		c0.103-0.025,0.205-0.051,0.306-0.079c0.315-0.087,0.622-0.189,0.924-0.306c0.059-0.022,0.118-0.041,0.177-0.064
		c0.366-0.149,0.722-0.318,1.064-0.508c0.045-0.024,0.086-0.054,0.131-0.079c0.286-0.164,0.562-0.342,0.829-0.533
		c0.093-0.066,0.184-0.136,0.275-0.205c0.225-0.172,0.441-0.354,0.65-0.544c0.08-0.073,0.162-0.143,0.24-0.218
		c0.274-0.266,0.535-0.544,0.778-0.84c0.026-0.032,0.048-0.067,0.074-0.099c0.22-0.275,0.423-0.563,0.613-0.86
		c0.023-0.037,0.052-0.069,0.075-0.106l25.792-41.647l64.191-31.764v143.944c0,2.984,1.333,5.813,3.635,7.713
		c1.807,1.491,4.062,2.287,6.365,2.287c0.631,0,1.267-0.06,1.897-0.182c12.4-2.396,24.646-11.518,33.597-25.026
		c9.471-14.294,15.056-33.232,16.343-55.207h26.162c5.127,0,9.424-3.878,9.948-8.979l4.021-39.149h0.975c5.523,0,10-4.478,10-10
		c0-5.16-3.909-9.405-8.927-9.94l3.001-29.219l1.945-0.148c5.507-0.419,9.631-5.223,9.212-10.729
		c-0.377-4.952-4.308-8.785-9.095-9.195l2.974-28.954l3.047-0.505c5.449-0.903,9.133-6.053,8.229-11.501
		c-0.774-4.667-4.664-8.026-9.188-8.332l2.927-28.492l4.292-1.172c5.328-1.455,8.467-6.954,7.011-12.281
		c-1.17-4.285-4.956-7.149-9.166-7.351l2.848-27.727L458.515,99.488z M385.712,73.825c15.958-11.826,35.926-14.281,51.412-14.79
		l-2.95,28.715l-45.823,18.51c-3.78,1.527-6.254,5.195-6.254,9.272c0,14.013-0.507,26.893-1.519,38.671
		c-0.053,0.371-0.087,0.746-0.098,1.124c-1.363,15.282-3.597,28.667-6.706,40.206c-0.166,0.463-0.291,0.941-0.388,1.429
		c-5.182,18.545-12.703,32.161-22.602,41.017v-61.497C350.784,125.539,362.535,91.001,385.712,73.825z M79.061,73.825
		c23.176,17.176,34.928,51.714,34.928,102.657v61.497c-9.899-8.856-17.42-22.472-22.602-41.017
		c-0.096-0.488-0.222-0.966-0.388-1.429c-3.109-11.538-5.342-24.923-6.706-40.206c-0.011-0.378-0.045-0.753-0.098-1.124
		c-1.012-11.779-1.519-24.659-1.519-38.671c0-4.077-2.475-7.745-6.254-9.272L30.599,87.75l-2.95-28.715
		C43.135,59.544,63.103,61.999,79.061,73.825z M62.715,122.293c0.08,6.93,0.286,13.581,0.617,19.966l-27.917-7.626l-2.504-24.378
		L62.715,122.293z M65.01,163.45c0.891,8.22,2.039,15.924,3.45,23.134l-28.188-4.674l-2.665-25.946L65.01,163.45z M73.775,207.738
		c0.415,1.31,0.837,2.607,1.275,3.876c2.661,7.705,5.808,14.648,9.397,20.872l-39.288-2.99l-2.769-26.962L73.775,207.738z
		 M91.865,335.457c0-5.522-4.477-10-10-10H55.016l-2.889-28.128h29.738c5.523,0,10-4.478,10-10s-4.477-10-10-10H50.072
		l-2.837-27.618l54.546,4.151c3.795,3.264,7.866,6.055,12.207,8.372v137.374C103.613,390.757,91.865,371.783,91.865,335.457z
		 M255.161,287.033c-1.674,0.829-3.083,2.109-4.066,3.698l-8.796,14.203v-94.402c0-5.522-4.477-10-10-10s-10,4.478-10,10v94.401
		l-8.795-14.202c-0.984-1.589-2.393-2.869-4.067-3.698l-75.136-37.179c2.735-60.681,46.081-79.097,78.005-92.66
		c3.616-1.537,6.941-2.954,9.992-4.343v27.681c0,5.522,4.477,10,10,10s10-4.478,10-10v-27.68c3.052,1.388,6.376,2.806,9.992,4.342
		c31.925,13.563,75.271,31.979,78.005,92.66L255.161,287.033z M414.701,277.329h-31.793c-5.523,0-10,4.478-10,10s4.477,10,10,10
		h29.738l-2.889,28.128h-26.849c-5.523,0-10,4.478-10,10c0,36.326-11.748,55.3-22.124,64.151V262.235
		c4.341-2.317,8.412-5.108,12.207-8.372l54.546-4.151L414.701,277.329z M419.614,229.496l-39.288,2.99
		c3.589-6.224,6.736-13.167,9.397-20.872c0.438-1.27,0.861-2.566,1.275-3.876l31.385-5.204L419.614,229.496z M424.502,181.91
		l-28.188,4.674c1.411-7.21,2.559-14.914,3.45-23.134l27.404-7.486L424.502,181.91z M429.358,134.633l-27.917,7.626
		c0.331-6.385,0.537-13.036,0.617-19.966l29.804-12.039L429.358,134.633z"/>
</g>
<g>
</g>
<g>
</g>
<g>
</g>
<g>
</g>
<g>
</g>
<g>
</g>
<g>
</g>
<g>
</g>
<g>
</g>
<g>
</g>
<g>
</g>
<g>
</g>
<g>
</g>
<g>
</g>
<g>
</g>
</svg>
