<?xml version="1.0" encoding="iso-8859-1"?>
<!-- Generator: Adobe Illustrator 17.1.0, SVG Export Plug-In . SVG Version: 6.00 Build 0)  -->
<!DOCTYPE svg PUBLIC "-//W3C//DTD SVG 1.1//EN" "http://www.w3.org/Graphics/SVG/1.1/DTD/svg11.dtd">
<svg version="1.1" id="Capa_1" xmlns="http://www.w3.org/2000/svg" xmlns:xlink="http://www.w3.org/1999/xlink" x="0px" y="0px"
	 viewBox="0 0 459.974 459.974" style="enable-background:new 0 0 459.974 459.974;" xml:space="preserve">
<path d="M422.829,158.078c-17.575-43.606-43.225-76.832-76.256-98.771c-19.485-12.942-41.614-22-66.132-27.124
	c-0.266-0.067-0.535-0.123-0.806-0.167c-15.607-3.199-32.174-4.814-49.648-4.814c-17.472,0-34.037,1.615-49.642,4.813
	c-0.274,0.045-0.546,0.102-0.816,0.169c-24.516,5.124-46.643,14.182-66.127,27.123c-33.031,21.939-58.681,55.165-76.257,98.771
	C7.517,190.534-4.753,234.924,1.656,286.596c4.303,34.688,15.552,61.621,18.334,67.889l11.287,69.883
	c0.783,4.845,4.965,8.405,9.872,8.405h33.348c5.523,0,10-4.478,10-10v-71.2c0-1.279-0.246-2.548-0.724-3.734
	C71.12,316.41,68.83,285.13,76.967,254.868c3.166-11.773,7.385-21.112,10.732-27.402c18.831,14.866,64.589,45.819,124.543,51.157
	c-2.158,5.491-3.299,11.39-3.299,17.467c0,12.742,4.962,24.722,13.972,33.731c9.3,9.3,21.516,13.949,33.732,13.949
	c12.216,0,24.432-4.649,33.731-13.949c3.905-3.905,3.905-10.237,0-14.143c-3.906-3.904-10.236-3.904-14.143,0
	c-10.801,10.804-28.378,10.803-39.179,0c-5.232-5.232-8.114-12.189-8.114-19.589c0-6.125,1.979-11.943,5.627-16.735
	c66.399-1.537,117.531-35.962,137.711-51.896c9.778,18.388,26.994,63.064,3.919,120.38c-0.478,1.187-0.724,2.455-0.724,3.734v71.2
	c0,5.522,4.478,10,10,10h33.348c4.907,0,9.09-3.561,9.872-8.405l11.287-69.883c2.782-6.268,14.03-33.2,18.334-67.889
	C464.727,234.924,452.458,190.534,422.829,158.078z M84.404,202.341c-2.831,0.239-5.427,1.672-7.139,3.938
	c-0.492,0.651-12.13,16.255-19.347,42.419c-6.516,23.627-10.591,60.859,6.578,104.786v59.289H49.664l-10.143-62.795
	c-0.148-0.915-0.426-1.813-0.819-2.652c-0.128-0.275-12.915-27.906-17.266-63.738c-5.676-46.752,4.955-84.85,31.599-113.235
	c0.862-0.919,1.543-1.993,2.007-3.165c22.172-56.048,57.906-92.645,106.629-109.401c-14.584,30.928-21.044,66.991-18.331,103.907
	c2.393,32.554,11.964,63.193,27.011,87.752c-47.01-15.599-77.835-44.031-78.25-44.419C90.034,203.078,87.236,202.101,84.404,202.341
	z M438.537,283.588c-4.351,35.832-17.137,63.463-17.261,63.729c-0.397,0.845-0.675,1.74-0.823,2.661l-10.143,62.795h-14.833v-59.289
	c17.169-43.927,13.094-81.159,6.577-104.786c-7.217-26.164-18.854-41.768-19.347-42.419c-1.71-2.264-4.305-3.69-7.131-3.933
	c-2.825-0.248-5.628,0.73-7.697,2.671c-0.42,0.395-31.216,28.8-78.186,44.405c16.443-26.754,26.191-60.515,27.408-96.469
	c0.187-5.521-4.136-10.146-9.656-10.333c-5.507-0.157-10.146,4.138-10.332,9.655c-1.406,41.503-15.149,79.439-37.828,104.712
	c-9.376,1.548-19.166,2.441-29.298,2.441c-10.132,0-19.922-0.893-29.298-2.441c-44.827-49.933-50.535-144.212-12.582-206.108
	c13.173-2.448,27.134-3.678,41.88-3.678c14.745,0,28.706,1.23,41.879,3.678c12.911,21.008,21.256,46.085,24.182,72.824
	c0.561,5.12,4.893,8.913,9.928,8.913c0.364,0,0.731-0.02,1.101-0.061c5.49-0.601,9.453-5.538,8.853-11.028
	c-2.48-22.664-8.52-44.308-17.669-63.755c48.745,16.75,84.493,53.351,106.672,109.415c0.464,1.172,1.145,2.246,2.008,3.165
	C433.582,198.738,444.212,236.836,438.537,283.588z"/>
<g>
</g>
<g>
</g>
<g>
</g>
<g>
</g>
<g>
</g>
<g>
</g>
<g>
</g>
<g>
</g>
<g>
</g>
<g>
</g>
<g>
</g>
<g>
</g>
<g>
</g>
<g>
</g>
<g>
</g>
</svg>
