<?xml version="1.0" encoding="iso-8859-1"?>
<!-- Generator: Adobe Illustrator 17.1.0, SVG Export Plug-In . SVG Version: 6.00 Build 0)  -->
<!DOCTYPE svg PUBLIC "-//W3C//DTD SVG 1.1//EN" "http://www.w3.org/Graphics/SVG/1.1/DTD/svg11.dtd">
<svg version="1.1" id="Capa_1" xmlns="http://www.w3.org/2000/svg" xmlns:xlink="http://www.w3.org/1999/xlink" x="0px" y="0px"
	 viewBox="0 0 444 444" style="enable-background:new 0 0 444 444;" xml:space="preserve">
<path d="M443.757,312.165L392.435,83.427c-2.332-12.864-9.507-24.069-20.224-31.573c-10.783-7.551-23.862-10.45-36.826-8.164
	c-5.439,0.959-9.071,6.146-8.112,11.584c0.959,5.438,6.151,9.074,11.584,8.111c7.706-1.359,15.475,0.364,21.882,4.852
	c6.407,4.486,10.684,11.199,12.042,18.902c0.027,0.151,0.057,0.303,0.091,0.453l43.453,193.666
	c-6.701-15.104-17.841-28.069-31.896-37.465c-0.05-0.04-0.095-0.084-0.146-0.123c-0.432-0.328-0.885-0.604-1.349-0.853
	c-14.923-9.57-32.973-15.179-52.401-15.179c-45.052,0-82.705,30.142-91.081,69.971c-5.466-2.1-11.368-3.204-17.453-3.204
	s-11.988,1.104-17.453,3.204c-4.643-22.078-18.279-41.179-37.189-53.819c-0.049-0.039-0.093-0.082-0.143-0.12
	c-0.43-0.327-0.882-0.602-1.343-0.849c-14.924-9.572-32.976-15.182-52.406-15.182c-38.643,0-71.841,22.177-85.791,53.62
	L71.128,87.592c0.034-0.15,0.064-0.302,0.091-0.453c1.358-7.703,5.635-14.416,12.042-18.902s14.176-6.21,21.882-4.852
	c5.437,0.965,10.625-2.672,11.584-8.111c0.959-5.438-2.673-10.625-8.112-11.584c-12.964-2.286-26.042,0.612-36.826,8.164
	c-10.717,7.504-17.893,18.709-20.224,31.573L0.243,312.165c-0.665,2.963,0.053,6.068,1.951,8.438
	c1.897,2.371,4.77,3.751,7.807,3.751h11.263c3.077,24.922,17.505,46.662,38.321,60.573c0.046,0.036,0.086,0.077,0.132,0.112
	c0.46,0.35,0.941,0.653,1.437,0.912c14.906,9.535,32.923,15.122,52.312,15.122c49.436,0,89.965-36.292,92.675-81.853
	c4.523-3.125,10.028-4.815,15.859-4.815s11.335,1.689,15.859,4.815c1.61,27.062,16.561,50.853,38.798,65.711
	c0.044,0.035,0.084,0.074,0.129,0.108c0.459,0.349,0.939,0.652,1.434,0.91c14.906,9.536,32.924,15.123,52.315,15.123
	c47.563,0,86.878-33.595,92.203-76.718H434c3.037,0,5.909-1.38,7.807-3.751C443.705,318.234,444.422,315.128,443.757,312.165z
	 M113.466,381.072c-11.769,0-22.885-2.587-32.734-7.148l46.16-60.704c3.343-4.396,2.489-10.67-1.907-14.013
	c-4.396-3.344-10.67-2.488-14.013,1.907l-47.142,61.996c-14.252-12.187-23.187-29.529-23.187-48.756
	c0-36.788,32.668-66.717,72.824-66.717c11.769,0,22.885,2.587,32.734,7.148l-15.103,19.862c-3.343,4.396-2.489,10.67,1.907,14.013
	c1.809,1.376,3.936,2.041,6.045,2.041c3.017,0,6-1.361,7.967-3.948l16.086-21.154c14.253,12.186,23.188,29.529,23.188,48.756
	C186.29,351.143,153.621,381.072,113.466,381.072z M330.534,381.072c-11.769,0-22.885-2.587-32.734-7.148l46.16-60.704
	c3.343-4.396,2.489-10.67-1.907-14.013c-4.396-3.344-10.67-2.488-14.013,1.907l-47.143,61.997
	c-14.252-12.187-23.188-29.529-23.188-48.756c0-36.788,32.669-66.717,72.824-66.717c11.769,0,22.885,2.587,32.734,7.148
	l-15.103,19.862c-3.343,4.396-2.489,10.67,1.907,14.013c1.809,1.376,3.936,2.041,6.045,2.041c3.017,0,6-1.361,7.967-3.948
	l16.086-21.154c14.252,12.187,23.187,29.529,23.187,48.756C403.358,351.143,370.69,381.072,330.534,381.072z"/>
<g>
</g>
<g>
</g>
<g>
</g>
<g>
</g>
<g>
</g>
<g>
</g>
<g>
</g>
<g>
</g>
<g>
</g>
<g>
</g>
<g>
</g>
<g>
</g>
<g>
</g>
<g>
</g>
<g>
</g>
</svg>
