<?xml version="1.0" encoding="iso-8859-1"?>
<!-- Generator: Adobe Illustrator 17.1.0, SVG Export Plug-In . SVG Version: 6.00 Build 0)  -->
<!DOCTYPE svg PUBLIC "-//W3C//DTD SVG 1.1//EN" "http://www.w3.org/Graphics/SVG/1.1/DTD/svg11.dtd">
<svg version="1.1" id="Capa_1" xmlns="http://www.w3.org/2000/svg" xmlns:xlink="http://www.w3.org/1999/xlink" x="0px" y="0px"
	 viewBox="0 0 442.001 442.001" style="enable-background:new 0 0 442.001 442.001;" xml:space="preserve">
<g>
	<path d="M440.04,57.267c-0.292-0.394-0.615-0.77-0.969-1.124L385.858,2.929c-2.831-2.83-7.075-3.699-10.792-2.211L326.892,20.03
		l-9.476-9.476c-3.904-3.904-10.237-3.904-14.142,0L250.038,63.79c-3.905,3.905-3.905,10.237,0,14.143l7.071,7.071L85.003,257.11
		l-7.071-7.071c-3.904-3.904-10.237-3.904-14.142,0l-53.236,53.236c-3.905,3.905-3.905,10.237,0,14.143l9.476,9.476L0.719,375.066
		c-1.49,3.716-0.62,7.961,2.21,10.792l53.214,53.214c1.912,1.912,4.469,2.929,7.073,2.929c1.251,0,2.513-0.234,3.719-0.718
		l48.172-19.313l9.476,9.477c3.904,3.904,10.237,3.904,14.142,0l53.236-53.236c3.905-3.905,3.905-10.237,0-14.143l-7.071-7.071
		l172.106-172.105l7.071,7.071c1.952,1.952,4.512,2.929,7.071,2.929s5.119-0.977,7.071-2.929l53.236-53.236
		c3.905-3.905,3.905-10.237,0-14.143l-9.476-9.476l19.312-48.173c0.559-1.393,0.786-2.861,0.702-4.301
		C441.872,60.714,441.208,58.844,440.04,57.267z M406.59,99.726L381.503,74.64l23.89-23.891l14.869,14.869L406.59,99.726z
		 M355.433,48.571c-0.002-0.002-0.004-0.004-0.006-0.007s-0.005-0.004-0.007-0.006l-13.146-13.146l34.108-13.674l14.869,14.869
		l-23.89,23.891L355.433,48.571z M310.346,31.767l7.071,7.072l16.796,16.796l-39.094,39.094l-16.796-16.796l0,0c0,0,0,0,0,0
		l-7.071-7.071L310.346,31.767z M70.862,271.251l7.067,7.066c0.002,0.002,0.003,0.003,0.004,0.005s0.003,0.003,0.005,0.004
		l54.802,54.802l-39.094,39.094l-23.867-23.867l22.045-22.045c3.905-3.905,3.905-10.237,0-14.143
		c-3.905-3.904-10.237-3.904-14.143,0l-22.045,22.045l-16.793-16.793c-0.001-0.001-0.002-0.002-0.003-0.003l-7.071-7.071
		L70.862,271.251z M35.411,342.274l13.15,13.15c0.001,0.001,0.002,0.002,0.002,0.002c0.002,0.002,0.003,0.002,0.004,0.003
		l11.931,11.931l-23.891,23.891l-14.869-14.869L35.411,342.274z M65.618,420.263L50.75,405.394l23.891-23.891l11.927,11.926
		c0.002,0.002,0.004,0.005,0.007,0.007s0.005,0.004,0.007,0.007l13.146,13.146L65.618,420.263z M131.655,410.234l-7.071-7.072
		l-16.796-16.796l39.094-39.094l16.796,16.796l0,0c0,0,0,0,0,0l7.071,7.071L131.655,410.234z M170.749,342.854l-16.795-16.794
		c-0.001-0.001-0.001-0.001-0.002-0.002c0,0-0.001-0.001-0.002-0.001l-54.805-54.805L271.252,99.146l16.795,16.794
		c0.001,0.001,0.001,0.001,0.002,0.002s0.001,0.001,0.002,0.001l54.805,54.805L170.749,342.854z M371.139,170.749l-7.067-7.066
		c-0.002-0.002-0.003-0.003-0.004-0.005s-0.003-0.003-0.005-0.004l-54.802-54.802l39.094-39.094l23.867,23.867l-22.045,22.045
		c-3.905,3.905-3.905,10.237,0,14.143c1.953,1.952,4.512,2.929,7.071,2.929s5.119-0.977,7.071-2.929l22.045-22.045l16.793,16.793
		c0.001,0.001,0.002,0.002,0.003,0.003l7.071,7.071L371.139,170.749z"/>
	<path d="M279.215,181.962h-58.353c-2.652,0-5.196,1.054-7.071,2.929l-26.886,26.885c-3.905,3.905-3.906,10.237,0,14.143
		c3.906,3.904,10.238,3.905,14.142,0l23.957-23.956h30.068l-84.324,84.323l-15.035-15.034l21.213-21.213
		c3.905-3.905,3.905-10.237,0-14.143c-3.905-3.904-10.237-3.904-14.143,0l-28.284,28.284c-3.905,3.905-3.905,10.237,0,14.143
		l29.177,29.177c1.953,1.952,4.512,2.929,7.071,2.929s5.119-0.977,7.071-2.929l108.466-108.466c2.86-2.86,3.715-7.161,2.167-10.898
		C286.906,184.399,283.259,181.962,279.215,181.962z"/>
</g>
<g>
</g>
<g>
</g>
<g>
</g>
<g>
</g>
<g>
</g>
<g>
</g>
<g>
</g>
<g>
</g>
<g>
</g>
<g>
</g>
<g>
</g>
<g>
</g>
<g>
</g>
<g>
</g>
<g>
</g>
</svg>
