<?xml version="1.0" encoding="iso-8859-1"?>
<!-- Generator: Adobe Illustrator 17.1.0, SVG Export Plug-In . SVG Version: 6.00 Build 0)  -->
<!DOCTYPE svg PUBLIC "-//W3C//DTD SVG 1.1//EN" "http://www.w3.org/Graphics/SVG/1.1/DTD/svg11.dtd">
<svg version="1.1" id="Capa_1" xmlns="http://www.w3.org/2000/svg" xmlns:xlink="http://www.w3.org/1999/xlink" x="0px" y="0px"
	 viewBox="0 0 459.975 459.975" style="enable-background:new 0 0 459.975 459.975;" xml:space="preserve">
<g>
	<path d="M197.775,143.328h-52.428v-36.166c0-5.522-4.477-10-10-10s-10,4.478-10,10v46.166c0,5.522,4.477,10,10,10h62.428
		c5.523,0,10-4.478,10-10S203.298,143.328,197.775,143.328z"/>
	<path d="M449.975,15.604c-5.522,0-10,4.478-10,10v0.427H93.64c-4.875,0-9.039,3.515-9.858,8.32L78.33,66.354
		c-6.103-2.738-12.765-4.19-19.655-4.19c-12.836,0-24.905,4.999-33.981,14.075c-3.905,3.905-3.905,10.237,0,14.143
		c1.953,1.952,4.512,2.929,7.071,2.929s5.119-0.977,7.071-2.929c5.299-5.3,12.345-8.218,19.839-8.218
		c5.845,0,11.413,1.782,16.096,5.078l-13.849,81.287l-8.525-0.883c-5.49-0.563-10.408,3.425-10.977,8.918
		c-0.476,4.601,2.252,8.785,6.377,10.36c-16.215,18.318-28.876,39.696-37.04,62.794c-10.823,30.625-13.545,63.818-7.873,95.99
		c0.843,4.779,4.995,8.264,9.848,8.264h30.725c-1.274,3.378-1.976,7.034-1.976,10.853c0,13.746,9.038,25.417,21.481,29.394
		c4.149,28.33,28.602,50.153,58.065,50.153c5.523,0,10-4.478,10-10s-4.477-10-10-10c-18.583,0-34.144-13.17-37.85-30.666
		c11.678-4.399,20.01-15.684,20.01-28.881c0-3.818-0.702-7.475-1.976-10.853h31.965c3.322,0,6.427-1.649,8.286-4.402
		c1.86-2.752,2.231-6.249,0.991-9.33c-18.116-45.026-16.115-94.694,5.189-137.98c2.332,24.339,22.89,43.439,47.83,43.439
		c26.499,0,48.057-21.559,48.057-48.057c0-0.143-0.006-0.285-0.007-0.427h23.951c17.856,0,33.245-10.725,40.091-26.066h40.893v0.427
		c0,5.522,4.478,10,10,10s10-4.478,10-10v-0.427h31.706c5.522,0,10-4.478,10-10v-41.706c0-5.522-4.478-10-10-10h-31.706v-6.066
		h81.516c5.522,0,10-4.478,10-10V36.03V25.604C459.975,20.081,455.497,15.604,449.975,15.604z M83.189,364.824
		c0,2.248-0.687,4.337-1.862,6.072c-1.62-3.338-5.032-5.645-8.991-5.645s-7.371,2.307-8.991,5.645
		c-1.175-1.734-1.862-3.824-1.862-6.072c0-5.984,4.869-10.853,10.853-10.853S83.189,358.84,83.189,364.824z M21.33,333.972
		c-6.81-53.615,12.044-106.668,51.373-144.118l55.94,5.791c-9.915,20.937-16.041,43.739-17.847,66.759
		c-1.916,24.413,0.832,48.424,8.169,71.567H21.33z M223.531,197.642c0,15.471-12.586,28.057-28.057,28.057
		s-28.057-12.586-28.057-28.057c0-0.143,0.013-0.284,0.015-0.427h56.083C223.519,197.358,223.531,197.499,223.531,197.642z
		 M267.475,177.215H158.683c-0.024,0-0.049,0-0.073,0h-13.767l-63.983-6.623L102.081,46.03h23.266v25.565c0,5.522,4.477,10,10,10
		s10-4.478,10-10V46.03h77.994v47.346v59.952c0,5.522,4.477,10,10,10h0.248c5.522,0,10-4.478,10-10
		c0-13.171,10.715-23.886,23.886-23.886s23.887,10.715,23.887,23.886S280.646,177.215,267.475,177.215z M311.306,151.149
		c-0.392-7.979-2.933-15.397-7.043-21.706h44.196v21.706H311.306z M390.165,129.443v21.706h-21.706v-21.706H390.165z
		 M348.459,109.443H243.341v-6.066h105.118V109.443z M439.975,83.376H243.341V46.03h196.634V83.376z"/>
	<path d="M71.135,231.853c-17.012,0-30.853,13.841-30.853,30.853c0,17.013,13.841,30.854,30.853,30.854c5.523,0,10-4.478,10-10
		s-4.477-10-10-10c-5.984,0-10.853-4.869-10.853-10.854s4.869-10.853,10.853-10.853c5.985,0,10.854,4.868,10.854,10.853
		c0,5.522,4.477,10,10,10s10-4.478,10-10C101.989,245.693,88.148,231.853,71.135,231.853z"/>
</g>
<g>
</g>
<g>
</g>
<g>
</g>
<g>
</g>
<g>
</g>
<g>
</g>
<g>
</g>
<g>
</g>
<g>
</g>
<g>
</g>
<g>
</g>
<g>
</g>
<g>
</g>
<g>
</g>
<g>
</g>
</svg>
