<?xml version="1.0" encoding="iso-8859-1"?>
<!-- Generator: Adobe Illustrator 17.1.0, SVG Export Plug-In . SVG Version: 6.00 Build 0)  -->
<!DOCTYPE svg PUBLIC "-//W3C//DTD SVG 1.1//EN" "http://www.w3.org/Graphics/SVG/1.1/DTD/svg11.dtd">
<svg version="1.1" id="Capa_1" xmlns="http://www.w3.org/2000/svg" xmlns:xlink="http://www.w3.org/1999/xlink" x="0px" y="0px"
	 viewBox="0 0 460.004 460.004" style="enable-background:new 0 0 460.004 460.004;" xml:space="preserve">
<path d="M417.364,2.928c-3.906-3.904-10.236-3.904-14.143,0l-25.105,25.104L45.29,192.158c-4.433,2.187-6.604,7.283-5.108,11.994
	s6.209,7.625,11.091,6.853c2.04-0.322,4.122-0.485,6.189-0.485c10.515,0,20.396,4.091,27.823,11.52
	c8.871,8.871,12.996,21.586,11.034,34.013c-0.01,0.061-0.009,0.123-0.018,0.184c-0.035,0.251-0.058,0.503-0.074,0.756
	c-0.007,0.113-0.019,0.225-0.022,0.337c-0.021,0.727,0.038,1.456,0.176,2.175c0.016,0.085,0.039,0.168,0.057,0.252
	c0.06,0.275,0.13,0.548,0.214,0.818c0.03,0.098,0.064,0.194,0.097,0.291c0.087,0.253,0.185,0.503,0.294,0.751
	c0.043,0.097,0.084,0.194,0.13,0.291c0.116,0.243,0.245,0.481,0.382,0.717c0.052,0.089,0.099,0.18,0.154,0.268
	c0.162,0.26,0.34,0.513,0.529,0.761c0.039,0.051,0.072,0.106,0.112,0.157c0.009,0.011,0.015,0.023,0.024,0.034
	c0.184,0.231,0.384,0.441,0.583,0.651c0.058,0.061,0.107,0.128,0.167,0.188c0.003,0.002,0.005,0.004,0.008,0.007
	c0.85,0.85,1.825,1.517,2.871,1.999c0.044,0.021,0.091,0.035,0.135,0.055c0.302,0.134,0.607,0.257,0.919,0.359
	c0.1,0.033,0.204,0.056,0.305,0.086c0.26,0.077,0.521,0.15,0.786,0.206c0.131,0.027,0.265,0.043,0.397,0.066
	c0.241,0.04,0.481,0.079,0.724,0.101c0.144,0.014,0.289,0.017,0.434,0.024c0.166,0.008,0.331,0.027,0.498,0.027
	c0.087,0,0.175-0.008,0.262-0.011c0.074-0.002,0.149-0.005,0.223-0.009c0.344-0.017,0.688-0.047,1.031-0.1
	c0.012-0.002,0.024-0.001,0.037-0.003c0.022-0.003,0.045-0.006,0.068-0.009c0.006-0.001,0.012-0.001,0.017-0.002
	c1.653-0.257,3.334-0.406,5.012-0.452L82.87,297.008c-3.644,3.644-6.938,7.507-9.891,11.544c-3.032-1.645-6.323-2.829-9.763-3.484
	c-5.428-1.033-10.661,2.525-11.696,7.95c-1.034,5.426,2.525,10.662,7.95,11.696c1.193,0.227,2.34,0.61,3.416,1.132
	c-16.475,36.299-9.824,80.616,19.983,110.424c9.391,9.391,20.355,16.667,32.592,21.629c3.491,1.416,7.141,2.104,10.757,2.104
	c7.433-0.001,14.724-2.908,20.2-8.384c2.71-2.712,4.818-5.896,6.264-9.465c2.869-7.074,2.811-14.841-0.163-21.871
	s-8.508-12.481-15.581-15.349c-5.106-2.071-9.701-5.127-13.654-9.08c-5.539-5.538-9.173-12.271-10.903-19.377
	c2.142,0.418,4.317,0.628,6.492,0.628c8.626,0,17.252-3.284,23.819-9.851c6.362-6.362,9.866-14.822,9.866-23.819
	c0-8.998-3.504-17.457-9.859-23.813c-0.101-0.102-0.391-0.399-0.799-0.818l11.359-11.359c-0.045,1.695-0.189,3.395-0.456,5.089
	c-0.011,0.067-0.01,0.134-0.02,0.201c-0.037,0.272-0.065,0.546-0.08,0.819c-0.007,0.125-0.01,0.25-0.011,0.375
	c-0.004,0.243,0.002,0.485,0.016,0.728c0.007,0.126,0.013,0.253,0.025,0.379c0.026,0.271,0.066,0.54,0.113,0.808
	c0.015,0.086,0.024,0.173,0.042,0.259c0.073,0.355,0.165,0.707,0.276,1.053c0.018,0.056,0.042,0.109,0.061,0.165
	c0.099,0.29,0.21,0.576,0.335,0.857c0.04,0.089,0.085,0.176,0.128,0.265c0.118,0.246,0.246,0.486,0.385,0.722
	c0.053,0.09,0.107,0.179,0.163,0.267c0.147,0.233,0.306,0.459,0.473,0.681c0.059,0.078,0.115,0.157,0.176,0.233
	c0.195,0.243,0.404,0.477,0.625,0.704c0.036,0.037,0.066,0.079,0.102,0.115c0.008,0.008,0.016,0.014,0.024,0.021
	c0.256,0.254,0.526,0.499,0.815,0.729c0.012,0.009,0.024,0.017,0.036,0.026c0.029,0.023,0.061,0.043,0.091,0.066
	c0.259,0.2,0.525,0.383,0.797,0.554c0.072,0.045,0.145,0.088,0.219,0.132c0.274,0.162,0.552,0.311,0.836,0.445
	c0.036,0.017,0.07,0.036,0.105,0.052c0.339,0.154,0.683,0.289,1.032,0.403c0.031,0.01,0.063,0.018,0.094,0.028
	c0.313,0.099,0.629,0.181,0.947,0.248c0.068,0.014,0.135,0.029,0.204,0.042c0.354,0.067,0.709,0.121,1.066,0.149
	c0.008,0.001,0.017,0,0.025,0.001c0.258,0.02,0.516,0.032,0.774,0.032c0.065,0,0.13-0.009,0.195-0.011
	c0.175-0.003,0.349-0.016,0.524-0.029c0.207-0.015,0.413-0.033,0.618-0.06c0.076-0.01,0.153-0.01,0.229-0.022
	c2.041-0.322,4.124-0.486,6.191-0.486c10.514,0,20.394,4.091,27.821,11.52c8.871,8.871,12.996,21.586,11.034,34.014
	c-0.771,4.883,2.142,9.596,6.853,11.091c1.002,0.318,2.021,0.471,3.025,0.471c3.722,0,7.247-2.089,8.969-5.579L392.26,42.173
	l25.104-25.103C421.269,13.166,421.269,6.833,417.364,2.928z M82.591,196.063L305.174,86.302l-121.6,96.878
	c-4.319,3.441-5.031,9.732-1.59,14.053c1.975,2.479,4.888,3.769,7.828,3.769c2.184,0,4.383-0.712,6.225-2.179L321.133,99.16
	L170.442,288.307c-0.468-1.468-0.994-2.916-1.575-4.343c-0.143-0.425-0.313-0.843-0.515-1.249
	c-2.93-6.766-7.115-13.009-12.44-18.333c-6.799-6.8-14.964-11.733-23.874-14.571l39.298-31.309c4.319-3.441,5.031-9.732,1.59-14.053
	c-3.441-4.318-9.731-5.031-14.053-1.59l-43.42,34.592c-2.375-11.062-7.86-21.388-16.026-29.554
	C94.462,202.93,88.77,198.954,82.591,196.063z M116.213,316.208l-12.129-12.129l30.953-30.953c2.406,1.533,4.667,3.331,6.732,5.396
	c2.058,2.058,3.849,4.33,5.379,6.75L116.213,316.208z M129.424,423.47c2.123,0.86,3.784,2.496,4.676,4.605
	c0.893,2.11,0.91,4.441,0.049,6.565c-0.437,1.076-1.067,2.032-1.874,2.839c-2.444,2.444-6.096,3.185-9.297,1.887
	c-9.741-3.951-18.478-9.751-25.965-17.238c-28.199-28.2-30.385-72.687-6.605-103.44l12.249,12.249
	c-17.167,23.943-15.014,57.562,6.485,79.062C114.998,415.854,121.821,420.387,129.424,423.47z M128.551,333.76
	c2.584,2.585,4.008,6.021,4.008,9.677s-1.424,7.092-4.009,9.677c-4.284,4.284-10.722,5.121-15.857,2.525
	c1.833-6.676,5.355-12.981,10.591-18.217l4.473-4.473C128.145,333.348,128.432,333.642,128.551,333.76z M224.199,337.763
	c-2.888-6.214-6.856-11.951-11.803-16.897c-8.213-8.214-18.418-13.708-29.524-16.064L333.99,115.118L224.199,337.763z"/>
<g>
</g>
<g>
</g>
<g>
</g>
<g>
</g>
<g>
</g>
<g>
</g>
<g>
</g>
<g>
</g>
<g>
</g>
<g>
</g>
<g>
</g>
<g>
</g>
<g>
</g>
<g>
</g>
<g>
</g>
</svg>
