<?xml version="1.0" encoding="iso-8859-1"?>
<!-- Generator: Adobe Illustrator 17.1.0, SVG Export Plug-In . SVG Version: 6.00 Build 0)  -->
<!DOCTYPE svg PUBLIC "-//W3C//DTD SVG 1.1//EN" "http://www.w3.org/Graphics/SVG/1.1/DTD/svg11.dtd">
<svg version="1.1" id="Capa_1" xmlns="http://www.w3.org/2000/svg" xmlns:xlink="http://www.w3.org/1999/xlink" x="0px" y="0px"
	 viewBox="0 0 460 460" style="enable-background:new 0 0 460 460;" xml:space="preserve">
<path d="M430.357,168.708v-17.789H450c5.522,0,10-4.478,10-10v-37.053c0-5.522-4.478-10-10-10h-19.643V76.077
	c0-5.522-4.478-10-10-10h-165.11c-73.187,0-182.337,20.18-220.361,40.74c-3.23,1.746-5.243,5.123-5.243,8.796v33.832H10
	c-5.522,0-10,4.478-10,10v37.053c0,5.522,4.478,10,10,10h19.643v10.688c0,5.522,4.478,10,10,10h62.535c5.522,0,10-4.478,10-10
	v-10.688h35.579v10.688c0,5.522,4.478,10,10,10h90.453c5.522,0,10-4.478,10-10v-20.688v-17.79h9.98l15.503,102.584H87.811
	c-5.522,0-10,4.478-10,10v6.546H58.168c-5.522,0-10,4.478-10,10v37.053c0,5.522,4.478,10,10,10h19.643v6.545
	c0,5.219,3.998,9.504,9.099,9.96c52.389,13.486,119.877,22.527,168.338,22.527h165.11c5.522,0,10-4.478,10-10v-17.789H450
	c5.522,0,10-4.478,10-10v-37.053c0-5.522-4.478-10-10-10h-19.643v-17.789c0-5.522-4.478-10-10-10h-15.334L389.52,178.708h30.838
	C425.88,178.708,430.357,174.23,430.357,168.708z M440,113.866v17.053h-9.643v-17.053H440z M20,186.498v-17.053h9.643v17.053H20z
	 M112.178,186.498v-17.053h35.579v17.053H112.178z M238.21,207.187h-70.453v-10.688v-37.053v-27.053h70.453v36.315v27.79V207.187z
	 M68.168,334.891v-17.053h9.643v17.053H68.168z M440,329.081v17.053h-9.643v-17.053H440z M386.533,292.786
	c0.739,4.891,4.942,8.506,9.888,8.506h13.937v26.315H204.072c-5.522,0-10,4.478-10,10s4.478,10,10,10h206.285v26.315h-155.11
	c-45.149,0-107.445-8.126-157.437-20.408v-52.223h26.788v10.688c0,5.522,4.478,10,10,10s10-4.478,10-10v-10.688h26.316v10.688
	c0,5.522,4.478,10,10,10s10-4.478,10-10v-10.688h26.315v10.688c0,5.522,4.478,10,10,10s10-4.478,10-10v-10.688h58.088
	c0.359,0,0.713-0.021,1.062-0.058c0.072-0.008,0.143-0.023,0.215-0.033c0.279-0.036,0.557-0.078,0.828-0.136
	c0.081-0.018,0.16-0.042,0.24-0.062c0.259-0.063,0.515-0.13,0.766-0.212c0.091-0.03,0.179-0.066,0.269-0.099
	c0.233-0.084,0.464-0.172,0.689-0.272c0.103-0.046,0.202-0.097,0.303-0.146c0.204-0.1,0.406-0.203,0.602-0.316
	c0.111-0.064,0.219-0.131,0.328-0.2c0.178-0.111,0.352-0.228,0.522-0.35c0.113-0.082,0.225-0.164,0.335-0.25
	c0.159-0.125,0.313-0.255,0.464-0.389c0.106-0.094,0.213-0.188,0.315-0.287c0.152-0.146,0.296-0.301,0.439-0.457
	c0.066-0.073,0.14-0.138,0.204-0.213c0.021-0.025,0.038-0.052,0.059-0.077c0.167-0.198,0.323-0.406,0.474-0.616
	c0.047-0.065,0.1-0.127,0.145-0.194c0.39-0.571,0.721-1.185,0.988-1.832c0.024-0.06,0.043-0.121,0.066-0.181
	c0.101-0.259,0.194-0.52,0.273-0.789c0.029-0.098,0.05-0.197,0.076-0.296c0.06-0.23,0.117-0.46,0.161-0.696
	c0.025-0.131,0.041-0.263,0.06-0.396c0.03-0.204,0.057-0.408,0.074-0.616c0.013-0.157,0.018-0.313,0.024-0.471
	c0.004-0.12,0.018-0.237,0.018-0.357c0-0.073-0.009-0.144-0.011-0.216c-0.003-0.157-0.013-0.313-0.024-0.469
	c-0.014-0.205-0.032-0.407-0.058-0.608c-0.009-0.066-0.009-0.133-0.019-0.2l-9.462-62.611h25.765c5.522,0,10-4.478,10-10
	s-4.478-10-10-10h-28.788l-4.304-28.479h80.875L386.533,292.786z M410.357,158.708h-32.463H276.792H258.21v-26.315h81.588
	c5.522,0,10-4.478,10-10s-4.478-10-10-10H157.757c-5.522,0-10,4.478-10,10v27.053h-45.579c-5.522,0-10,4.478-10,10v37.053v10.688
	H49.643v-85.36c36.836-16.703,133.956-35.749,205.604-35.749h155.11v26.315h-39.065c-5.522,0-10,4.478-10,10s4.478,10,10,10h39.065
	V158.708z"/>
<g>
</g>
<g>
</g>
<g>
</g>
<g>
</g>
<g>
</g>
<g>
</g>
<g>
</g>
<g>
</g>
<g>
</g>
<g>
</g>
<g>
</g>
<g>
</g>
<g>
</g>
<g>
</g>
<g>
</g>
</svg>
