<?xml version="1.0" encoding="iso-8859-1"?>
<!-- Generator: Adobe Illustrator 17.1.0, SVG Export Plug-In . SVG Version: 6.00 Build 0)  -->
<!DOCTYPE svg PUBLIC "-//W3C//DTD SVG 1.1//EN" "http://www.w3.org/Graphics/SVG/1.1/DTD/svg11.dtd">
<svg version="1.1" id="Capa_1" xmlns="http://www.w3.org/2000/svg" xmlns:xlink="http://www.w3.org/1999/xlink" x="0px" y="0px"
	 viewBox="0 0 460.008 460.008" style="enable-background:new 0 0 460.008 460.008;" xml:space="preserve">
<g>
	<path d="M456.561,4.94c-1.569-1.569-4.354-3.439-8.706-3.439c-3.722,0-10.652,0-47.511,24.36
		c-17.159,11.341-33.022,22.837-33.181,22.952c-0.247,0.179-0.485,0.369-0.715,0.569l-111.553,97.658
		c-4.839,3.35-47.029,32.434-71.393,45.419c-0.81-0.999-1.676-1.96-2.596-2.88c-6.954-6.953-16.199-10.782-26.032-10.782
		s-19.079,3.829-26.032,10.782c-11.903,11.903-13.924,29.992-6.087,44.01l-29.705,29.705c-4.302-2.146-9.072-3.29-14.02-3.29
		c-8.401,0-16.299,3.271-22.24,9.212c-5.94,5.941-9.212,13.84-9.212,22.24c0,8.401,3.272,16.3,9.212,22.24
		c5.94,5.94,13.839,9.212,22.24,9.212c4.949,0,9.724-1.136,14.027-3.283l48.817,48.817c-2.148,4.303-3.283,9.078-3.283,14.027
		c0,8.4,3.271,16.299,9.212,22.24c5.94,5.94,13.839,9.212,22.24,9.212s16.299-3.271,22.24-9.212c5.94-5.941,9.212-13.84,9.212-22.24
		c0-4.948-1.143-9.718-3.29-14.02l29.696-29.696c5.434,3.053,11.583,4.687,17.986,4.687c9.834,0,19.079-3.83,26.033-10.783
		c6.953-6.953,10.783-16.198,10.783-26.032s-3.83-19.079-10.783-26.032c-0.92-0.92-1.88-1.785-2.879-2.596
		c12.984-24.358,42.07-66.553,45.419-71.393l97.657-111.553c0.201-0.229,0.391-0.468,0.57-0.715
		c0.129-0.178,13.038-17.991,25.023-36.331c7.133-10.916,12.583-19.936,16.199-26.809C457.877,23.655,463.875,12.255,456.561,4.94z
		 M88.826,297.35c-0.254,0.421-0.474,0.855-0.661,1.301c-0.364,0.275-0.71,0.577-1.037,0.903c-2.163,2.163-5.039,3.354-8.098,3.354
		c-3.059,0-5.935-1.191-8.098-3.354c-2.163-2.163-3.354-5.038-3.354-8.098c0-3.059,1.191-5.935,3.354-8.098
		c2.163-2.163,5.039-3.354,8.098-3.354c3.058,0,5.933,1.191,8.095,3.353c0.001,0.001,0.002,0.002,0.003,0.003
		c0.001,0.001,0.002,0.001,0.002,0.002C90.851,287.085,91.548,292.837,88.826,297.35z M107.194,277.437l29.693-29.693
		c4.389,2.465,9.245,4.006,14.326,4.504c-7.409,17.826-22.394,31.599-40.772,37.476
		C110.209,285.477,109.116,281.292,107.194,277.437z M178.142,390.568c-2.163,2.163-5.039,3.354-8.098,3.354
		s-5.935-1.191-8.098-3.354c-2.163-2.163-3.354-5.039-3.354-8.098c0-3.06,1.191-5.935,3.354-8.098
		c0.326-0.326,0.628-0.673,0.903-1.037c0.445-0.187,0.88-0.406,1.302-0.661c1.781-1.073,3.83-1.642,5.927-1.642
		c3.046,0,5.908,1.186,8.062,3.337c0.001,0.001,0.001,0.001,0.002,0.002c0.001,0.001,0.002,0.001,0.003,0.002
		c2.161,2.163,3.352,5.037,3.352,8.095S180.304,388.405,178.142,390.568z M171.771,351.078c5.873-18.38,19.644-33.371,37.467-40.784
		c0.5,5.006,2.033,9.881,4.523,14.317l-29.695,29.694C180.268,352.412,176.102,351.307,171.771,351.078z M396.766,82.224
		L299.04,193.857c-0.245,0.279-0.474,0.572-0.686,0.877c-1.654,2.38-40.649,58.551-51.479,83.009
		c-1.095,2.473-1.142,5.283-0.13,7.791c1.012,2.508,2.997,4.499,5.501,5.52c2.071,0.843,3.932,2.082,5.532,3.683
		c6.556,6.556,6.556,17.224,0,23.779c-3.176,3.177-7.398,4.926-11.89,4.926c-4.491,0-8.714-1.749-11.89-4.926
		c-4.806-4.806-6.248-11.977-3.673-18.269c1.381-3.376,0.814-7.236-1.479-10.072c-2.292-2.836-5.945-4.199-9.539-3.558
		c-33.308,5.962-59.673,31.033-67.932,63.043l-39.534-39.534c32.01-8.258,57.08-34.623,63.042-67.932
		c0.643-3.59-0.721-7.245-3.557-9.538c-2.835-2.294-6.696-2.861-10.072-1.479c-2.028,0.829-4.175,1.25-6.382,1.25
		c-4.491,0-8.713-1.749-11.888-4.924c-6.556-6.556-6.556-17.225,0-23.78c3.176-3.176,7.398-4.925,11.89-4.925
		c4.491,0,8.714,1.749,11.89,4.925c1.6,1.601,2.839,3.462,3.683,5.533c1.02,2.504,3.011,4.489,5.519,5.501
		c2.508,1.011,5.318,0.965,7.792-0.13c24.458-10.831,80.629-49.825,83.008-51.479c0.305-0.212,0.598-0.441,0.877-0.686
		l111.633-97.729c17.777-12.881,38.338-26.696,52.665-35.175C423.464,43.887,409.647,64.447,396.766,82.224z"/>
	<path d="M246.401,200.957l-45.25,45.25c-3.905,3.905-3.905,10.237,0,14.143c1.953,1.952,4.512,2.929,7.071,2.929
		s5.119-0.977,7.071-2.929l45.25-45.25c3.905-3.905,3.905-10.237,0-14.143C256.638,197.053,250.306,197.053,246.401,200.957z"/>
	<path d="M86.88,330.671c-3.905-3.904-10.237-3.904-14.143,0c-3.905,3.905-3.905,10.237,0,14.143l0.514,0.514l-48.05,48.049
		l-0.513-0.513c-3.905-3.904-10.237-3.904-14.143,0c-3.905,3.905-3.905,10.237,0,14.143l0.513,0.513l-2.789,2.789
		C2.937,415.641,0,422.73,0,430.272s2.937,14.632,8.27,19.965s12.423,8.27,19.965,8.27c7.542,0,14.632-2.937,19.964-8.27
		l2.789-2.789l0.513,0.514c1.953,1.952,4.512,2.929,7.071,2.929s5.119-0.977,7.071-2.929c3.905-3.905,3.905-10.237,0-14.143
		l-0.513-0.513l48.05-48.05l0.513,0.513c1.953,1.952,4.512,2.929,7.071,2.929s5.119-0.977,7.071-2.929
		c3.905-3.905,3.905-10.237,0-14.143L86.88,330.671z M34.057,436.095c-1.555,1.556-3.623,2.412-5.822,2.412
		c-2.2,0-4.267-0.856-5.822-2.412c-3.211-3.21-3.211-8.435,0-11.645l2.789-2.789l11.645,11.645L34.057,436.095z M50.988,419.163
		l-11.645-11.645l48.05-48.05l11.645,11.645L50.988,419.163z"/>
</g>
<g>
</g>
<g>
</g>
<g>
</g>
<g>
</g>
<g>
</g>
<g>
</g>
<g>
</g>
<g>
</g>
<g>
</g>
<g>
</g>
<g>
</g>
<g>
</g>
<g>
</g>
<g>
</g>
<g>
</g>
</svg>
