<?xml version="1.0" encoding="iso-8859-1"?>
<!-- Generator: Adobe Illustrator 17.1.0, SVG Export Plug-In . SVG Version: 6.00 Build 0)  -->
<!DOCTYPE svg PUBLIC "-//W3C//DTD SVG 1.1//EN" "http://www.w3.org/Graphics/SVG/1.1/DTD/svg11.dtd">
<svg version="1.1" id="Capa_1" xmlns="http://www.w3.org/2000/svg" xmlns:xlink="http://www.w3.org/1999/xlink" x="0px" y="0px"
	 viewBox="0 0 498.254 498.254" style="enable-background:new 0 0 498.254 498.254;" xml:space="preserve">
<g>
	<path d="M487.57,10.684c-12.299-12.299-33.335-16.162-49.749,0.251L231.313,217.443c-1.519-1.519-3.496-2.538-5.672-2.843
		c-3.108-0.432-6.24,0.614-8.458,2.832l-20.506,20.506h0c-3.905-3.904-10.237-3.904-14.143,0c-3.905,3.905-3.905,10.237,0,14.143h0
		l-44.893,44.893c-0.003,0.002-0.006,0.005-0.008,0.007c-0.003,0.003-0.005,0.005-0.007,0.008L2.93,431.685
		c-3.905,3.905-3.905,10.237,0,14.143l24.746,24.747c0.001,0,0.002,0.001,0.002,0.002s0.002,0.001,0.003,0.002l24.746,24.747
		c1.875,1.875,4.419,2.929,7.071,2.929s5.196-1.054,7.071-2.929l165.463-165.463c1.953,1.952,4.512,2.929,7.071,2.929
		c2.559,0,5.118-0.977,7.071-2.929c3.905-3.905,3.906-10.236,0.001-14.143l20.506-20.506c3.157-3.157,3.838-8.024,1.67-11.928
		l-1.388-2.498L487.319,60.433C503.732,44.02,499.869,22.982,487.57,10.684z M59.498,474.111l-10.606-10.606l47.376-47.376
		c3.905-3.905,3.905-10.237,0-14.143c-3.905-3.904-10.237-3.904-14.143,0l-47.376,47.376l-10.606-10.606l120.562-120.562
		l35.355,35.356L59.498,474.111z M194.202,339.408l-35.355-35.356l44.896-44.896c0.002-0.001,0.004-0.003,0.006-0.005
		s0.003-0.004,0.005-0.005l18.198-18.198l25.254,45.457L194.202,339.408z M473.177,46.29L256.862,262.605l-15.152-27.273
		L451.964,25.077c8.014-8.016,16.571-5.144,21.464-0.252C478.321,29.719,481.191,38.276,473.177,46.29z"/>
	<path d="M142.229,363.096l-7.071-7.071c-3.904-3.903-10.236-3.904-14.142,0c-3.905,3.905-3.906,10.236,0,14.143l7.071,7.071
		c1.953,1.952,4.512,2.929,7.071,2.929c2.559,0,5.118-0.977,7.071-2.929C146.134,373.333,146.135,367.002,142.229,363.096z"/>
	<path d="M113.945,377.237c-3.905-3.904-10.237-3.904-14.143,0c-3.905,3.905-3.905,10.237,0,14.143l7.071,7.071
		c1.953,1.952,4.512,2.929,7.071,2.929s5.119-0.977,7.071-2.929c3.905-3.905,3.905-10.237,0-14.143L113.945,377.237z"/>
</g>
<g>
</g>
<g>
</g>
<g>
</g>
<g>
</g>
<g>
</g>
<g>
</g>
<g>
</g>
<g>
</g>
<g>
</g>
<g>
</g>
<g>
</g>
<g>
</g>
<g>
</g>
<g>
</g>
<g>
</g>
</svg>
