<?xml version="1.0" encoding="iso-8859-1"?>
<!-- Generator: Adobe Illustrator 17.1.0, SVG Export Plug-In . SVG Version: 6.00 Build 0)  -->
<!DOCTYPE svg PUBLIC "-//W3C//DTD SVG 1.1//EN" "http://www.w3.org/Graphics/SVG/1.1/DTD/svg11.dtd">
<svg version="1.1" id="Capa_1" xmlns="http://www.w3.org/2000/svg" xmlns:xlink="http://www.w3.org/1999/xlink" x="0px" y="0px"
	 viewBox="0 0 459.98 459.98" style="enable-background:new 0 0 459.98 459.98;" xml:space="preserve">
<g>
	<path d="M275.755,129.846c3.905-3.905,3.905-10.237,0-14.143l-13.131-13.131c19.761-19.761,74.314-74.313,76.559-76.56
		c8.031-8.029,21.1-8.032,29.133-0.001c8.031,8.032,8.031,21.102,0,29.133l-19.737,19.737c-3.905,3.905-3.905,10.237,0,14.143
		c3.906,3.904,10.236,3.904,14.143,0l19.737-19.738c15.828-15.829,15.828-41.586-0.001-57.416
		c-15.828-15.828-41.585-15.828-57.417,0.002c-2.246,2.246-56.798,56.797-76.559,76.558L235.351,75.3
		c-1.876-1.875-4.419-2.929-7.071-2.929s-5.195,1.054-7.071,2.929L23.827,272.682c-3.905,3.905-3.905,10.237,0,14.143l40.403,40.404
		c1.876,1.875,4.419,2.929,7.071,2.929s5.195-1.054,7.071-2.929L275.755,129.846z M228.28,96.513l26.262,26.262l-18.976,18.976
		l-26.262-26.262L228.28,96.513z M111.042,266.274l-26.261-26.262l110.38-110.38l26.262,26.262L111.042,266.274z M71.301,306.015
		L45.04,279.754l25.599-25.599L96.9,280.417L71.301,306.015z"/>
	<path d="M427.19,197.651c7.669-7.668,11.893-17.863,11.893-28.708s-4.224-21.04-11.892-28.708
		c-15.831-15.831-41.588-15.829-57.417,0l-20.178,20.178c-8.032,8.032-21.102,8.031-29.132,0c-3.891-3.891-6.033-9.063-6.033-14.565
		s2.143-10.675,6.033-14.565l19.736-19.736c3.905-3.905,3.905-10.237,0-14.143c-3.906-3.904-10.236-3.904-14.143,0l-19.736,19.736
		c-15.829,15.83-15.829,41.586,0,57.416c15.831,15.831,41.588,15.829,57.417,0l20.178-20.178c8.032-8.032,21.101-8.03,29.133,0
		c3.891,3.891,6.033,9.063,6.033,14.565s-2.143,10.675-6.035,14.567c-2.003,2.003-23.352,23.352-34.743,34.742l-13.131-13.131
		c-1.876-1.875-4.419-2.929-7.071-2.929s-5.195,1.054-7.071,2.929L212.818,343.335l2.236-25.563l4.06,2.495
		c1.633,1.003,3.439,1.48,5.225,1.48c3.36,0,6.643-1.693,8.53-4.767c2.891-4.706,1.42-10.864-3.286-13.755l-12.58-7.729l0.5-5.719
		l4.061,2.495c1.633,1.003,3.439,1.48,5.225,1.48c3.36,0,6.643-1.693,8.53-4.767c2.891-4.705,1.42-10.863-3.286-13.755l-12.58-7.729
		l0.5-5.719l4.061,2.494c4.707,2.893,10.864,1.42,13.755-3.286s1.42-10.864-3.286-13.755l-17.847-10.964
		c-2.954-1.815-6.636-1.969-9.73-0.412c-3.096,1.559-5.164,4.608-5.466,8.062l-10.622,121.415l-37.168,37.168
		c-3.905,3.905-3.905,10.237,0,14.143l40.403,40.404c1.876,1.875,4.419,2.929,7.071,2.929s5.195-1.054,7.071-2.929l37.168-37.168
		l121.416-10.623c3.452-0.302,6.502-2.37,8.061-5.466c1.558-3.096,1.402-6.777-0.412-9.73l-10.964-17.847
		c-2.891-4.705-9.048-6.179-13.755-3.286c-4.706,2.891-6.177,9.049-3.286,13.755l2.494,4.061l-5.719,0.5l-7.729-12.581
		c-2.89-4.704-9.049-6.178-13.755-3.286c-4.706,2.891-6.177,9.049-3.286,13.755l2.495,4.061l-5.719,0.5l-7.729-12.581
		c-2.892-4.706-9.051-6.178-13.755-3.286c-4.706,2.892-6.177,9.05-3.286,13.755l2.495,4.061l-25.564,2.237l138.214-138.213
		c3.905-3.905,3.905-10.237,0-14.143l-13.131-13.131C403.838,221.004,425.188,199.655,427.19,197.651z M324.984,259.453
		l26.261,26.262L240.865,396.096l-26.261-26.262L324.984,259.453z M201.124,435.838l-26.262-26.262l25.599-25.599l26.261,26.262
		L201.124,435.838z M365.388,271.573l-26.261-26.262l18.975-18.975l26.262,26.262L365.388,271.573z"/>
</g>
<g>
</g>
<g>
</g>
<g>
</g>
<g>
</g>
<g>
</g>
<g>
</g>
<g>
</g>
<g>
</g>
<g>
</g>
<g>
</g>
<g>
</g>
<g>
</g>
<g>
</g>
<g>
</g>
<g>
</g>
</svg>
