<?xml version="1.0" encoding="iso-8859-1"?>
<!-- Generator: Adobe Illustrator 17.1.0, SVG Export Plug-In . SVG Version: 6.00 Build 0)  -->
<!DOCTYPE svg PUBLIC "-//W3C//DTD SVG 1.1//EN" "http://www.w3.org/Graphics/SVG/1.1/DTD/svg11.dtd">
<svg version="1.1" id="Capa_1" xmlns="http://www.w3.org/2000/svg" xmlns:xlink="http://www.w3.org/1999/xlink" x="0px" y="0px"
	 viewBox="0 0 460 460" style="enable-background:new 0 0 460 460;" xml:space="preserve">
<g>
	<path d="M392.635,67.365C350.231,24.961,294.184,1.167,234.393,0.054C232.932,0.021,231.468,0,230,0s-2.932,0.021-4.393,0.054
		C165.816,1.167,109.769,24.961,67.365,67.365C23.924,110.807,0,168.564,0,230s23.924,119.193,67.365,162.635S168.564,460,230,460
		s119.193-23.924,162.635-67.365S460,291.436,460,230S436.076,110.807,392.635,67.365z M365.972,126.777
		c0,58.877-60.997,106.777-135.972,106.777s-135.972-47.9-135.972-106.777c0-57.81,58.808-105.033,131.912-106.726
		C227.292,20.026,228.643,20,230,20s2.708,0.026,4.06,0.052C307.164,21.744,365.972,68.967,365.972,126.777z M230,440
		c-115.794,0-210-94.206-210-210c0-27.204,5.201-53.215,14.659-77.094c2.707,14.994,7.757,29.549,15.129,43.493
		c5.4,10.214,11.994,19.962,19.597,28.974c1.979,2.345,4.804,3.552,7.648,3.552c2.277,0,4.567-0.773,6.443-2.356
		c4.222-3.562,4.756-9.871,1.195-14.092c-6.683-7.92-12.471-16.475-17.202-25.425c-10.051-19.011-15.147-39.29-15.147-60.274
		c0-3.028,0.113-6.084,0.329-9.117c9.545-15.015,20.945-28.737,33.872-40.852c-8.189,15.564-12.495,32.479-12.495,49.969
		c0,34.292,16.517,66.391,46.507,90.383c29.337,23.47,68.212,36.395,109.465,36.395s80.128-12.925,109.465-36.395
		c29.99-23.992,46.507-56.091,46.507-90.383c0-17.489-4.306-34.405-12.495-49.969c12.927,12.115,24.327,25.837,33.872,40.852
		c0.216,3.033,0.329,6.089,0.329,9.117c0,20.984-5.097,41.264-15.147,60.274c-9.148,17.305-22.011,32.789-38.229,46.022
		c-2.243,1.831-3.583,4.544-3.673,7.438c-1.5,48.441-10.865,94.844-26.37,130.658c-2.194,5.068,0.136,10.955,5.204,13.149
		c1.294,0.561,2.642,0.826,3.968,0.826c3.866,0,7.548-2.256,9.182-6.03c15.998-36.951,25.838-84.198,27.846-133.483
		c16.661-14.282,30.023-30.826,39.755-49.233c7.372-13.944,12.423-28.499,15.129-43.493C434.799,176.786,440,202.796,440,230
		C440,345.794,345.794,440,230,440z"/>
	<path d="M132.857,110.994c0,43.954,43.578,79.714,97.143,79.714s97.143-35.76,97.143-79.714c0-43.955-43.578-79.715-97.143-79.715
		S132.857,67.039,132.857,110.994z M307.143,110.994c0,32.927-34.606,59.714-77.143,59.714s-77.143-26.787-77.143-59.714
		S187.464,51.279,230,51.279S307.143,78.067,307.143,110.994z"/>
	<path d="M343.01,253.839c-2.711-4.813-8.81-6.516-13.62-3.808c-29.314,16.505-63.683,25.229-99.39,25.229c-5.522,0-10,4.478-10,10
		v123.033c0,5.522,4.478,10,10,10s10-4.478,10-10V295.051c35.551-1.495,69.659-10.958,99.202-27.592
		C344.015,264.749,345.72,258.651,343.01,253.839z"/>
	<path d="M200.111,273.185c-35.143-4.934-67.349-18.446-93.145-39.082c-0.427-0.341-0.853-0.686-1.275-1.03
		c-3.034-2.475-7.233-2.953-10.749-1.217c-3.512,1.734-5.688,5.36-5.566,9.275c1.575,50.902,11.523,99.906,28.012,137.985
		c1.634,3.773,5.315,6.029,9.182,6.029c1.326,0,2.675-0.266,3.969-0.826c5.068-2.194,7.397-8.082,5.203-13.15
		c-13.279-30.669-22.056-69.099-25.246-109.922c25.418,16.404,55.071,27.284,86.835,31.744c5.466,0.758,10.525-3.045,11.294-8.513
		C209.392,279.009,205.58,273.953,200.111,273.185z"/>
	<path d="M230.102,201.609c-5.802,0-10.521,4.72-10.521,10.521s4.72,10.521,10.521,10.521s10.521-4.72,10.521-10.521
		S235.903,201.609,230.102,201.609z"/>
	<path d="M113.442,108.432c-5.802,0-10.521,4.72-10.521,10.521s4.72,10.521,10.521,10.521s10.521-4.72,10.521-10.521
		S119.244,108.432,113.442,108.432z"/>
	<path d="M346.558,129.365c5.802,0,10.521-4.72,10.521-10.521s-4.72-10.521-10.521-10.521s-10.521,4.72-10.521,10.521
		S340.756,129.365,346.558,129.365z"/>
</g>
<g>
</g>
<g>
</g>
<g>
</g>
<g>
</g>
<g>
</g>
<g>
</g>
<g>
</g>
<g>
</g>
<g>
</g>
<g>
</g>
<g>
</g>
<g>
</g>
<g>
</g>
<g>
</g>
<g>
</g>
</svg>
