<?xml version="1.0" encoding="iso-8859-1"?>
<!-- Generator: Adobe Illustrator 17.1.0, SVG Export Plug-In . SVG Version: 6.00 Build 0)  -->
<!DOCTYPE svg PUBLIC "-//W3C//DTD SVG 1.1//EN" "http://www.w3.org/Graphics/SVG/1.1/DTD/svg11.dtd">
<svg version="1.1" id="Capa_1" xmlns="http://www.w3.org/2000/svg" xmlns:xlink="http://www.w3.org/1999/xlink" x="0px" y="0px"
	 viewBox="0 0 441.988 441.988" style="enable-background:new 0 0 441.988 441.988;" xml:space="preserve">
<path d="M440.354,129.636c0.002-0.057,0.009-0.113,0.01-0.169l1.623-84.737c0.088-4.613-2.991-8.688-7.453-9.862L337.246,9.267
	c-0.017-0.005-0.034-0.009-0.051-0.014l-0.077-0.02c-0.032-0.008-0.064-0.01-0.096-0.018c-0.377-0.095-0.764-0.165-1.158-0.216
	c-0.115-0.015-0.23-0.029-0.345-0.041c-0.098-0.009-0.193-0.027-0.291-0.034c-0.302-0.019-0.601-0.019-0.897-0.012
	c-0.041,0.001-0.081-0.003-0.121-0.001c-0.426,0.016-0.843,0.067-1.254,0.135c-0.124,0.02-0.246,0.045-0.369,0.07
	c-0.353,0.072-0.7,0.16-1.04,0.269c-0.057,0.018-0.117,0.025-0.174,0.045L205.098,52.099l-52.421,6.36
	c-2.05,0.248-3.972,1.125-5.503,2.51L6.44,188.249c-2.335,2.112-3.54,5.201-3.25,8.336l5.031,54.492L0.014,365.069
	c-0.005,0.063,0.003,0.126-0.001,0.189c-0.017,0.331-0.018,0.661-0.003,0.992c0.005,0.105,0.007,0.21,0.015,0.314
	c0.031,0.4,0.082,0.8,0.162,1.195c0.011,0.055,0.028,0.108,0.04,0.163c0.076,0.347,0.172,0.688,0.284,1.027
	c0.032,0.096,0.065,0.189,0.099,0.284c0.126,0.343,0.268,0.68,0.432,1.009c0.018,0.037,0.033,0.076,0.052,0.113
	c0.186,0.361,0.398,0.713,0.631,1.055c0.055,0.081,0.116,0.156,0.173,0.235c0.18,0.247,0.371,0.487,0.576,0.722
	c0.088,0.1,0.176,0.199,0.268,0.296c0.06,0.063,0.112,0.131,0.174,0.192c0.174,0.175,0.359,0.332,0.543,0.49
	c0.06,0.052,0.114,0.108,0.175,0.158c0.322,0.267,0.659,0.504,1.004,0.724c0.028,0.018,0.051,0.039,0.079,0.057l92.396,57.292
	c0.053,0.033,0.112,0.056,0.166,0.087c0.297,0.178,0.601,0.338,0.912,0.481c0.083,0.038,0.165,0.079,0.25,0.115
	c0.383,0.165,0.772,0.309,1.169,0.422c0.057,0.017,0.115,0.027,0.172,0.042c0.343,0.093,0.689,0.164,1.039,0.22
	c0.113,0.018,0.226,0.035,0.34,0.049c0.391,0.048,0.784,0.08,1.177,0.082c0.015,0,0.031,0.003,0.046,0.003
	c0.301,0,0.604-0.014,0.905-0.041l126.66-11.515c0.008-0.001,0.015-0.003,0.023-0.003c0.345-0.032,0.688-0.083,1.028-0.15
	c0.063-0.013,0.123-0.031,0.185-0.045c0.275-0.061,0.548-0.129,0.818-0.212c0.092-0.028,0.181-0.064,0.272-0.096
	c0.235-0.08,0.468-0.165,0.698-0.263c0.1-0.043,0.196-0.091,0.294-0.137c0.212-0.099,0.422-0.203,0.629-0.317
	c0.107-0.06,0.21-0.123,0.314-0.186c0.186-0.113,0.369-0.229,0.549-0.355c0.116-0.081,0.228-0.165,0.341-0.25
	c0.157-0.12,0.311-0.244,0.462-0.375c0.121-0.104,0.239-0.211,0.356-0.321c0.064-0.062,0.133-0.114,0.197-0.178
	c0.072-0.072,0.133-0.15,0.203-0.225c0.109-0.116,0.216-0.232,0.32-0.354c0.135-0.157,0.261-0.317,0.384-0.481
	c0.053-0.069,0.112-0.133,0.163-0.204l201.321-282.289c0.012-0.017,0.022-0.035,0.034-0.052c0.076-0.108,0.147-0.221,0.219-0.333
	c0.075-0.116,0.15-0.232,0.22-0.351c0.071-0.12,0.137-0.242,0.203-0.365c0.064-0.12,0.125-0.24,0.184-0.362
	c0.06-0.124,0.118-0.248,0.173-0.375c0.059-0.137,0.113-0.275,0.166-0.414c0.044-0.116,0.09-0.23,0.13-0.348
	c0.076-0.223,0.142-0.45,0.202-0.678c0.013-0.049,0.027-0.096,0.039-0.145c0.064-0.261,0.116-0.526,0.159-0.792
	c0.004-0.025,0.011-0.05,0.015-0.075c0.009-0.056,0.009-0.111,0.017-0.167c0.031-0.226,0.054-0.453,0.07-0.682
	C440.344,129.841,440.35,129.738,440.354,129.636z M420.586,117.657l-13.134-2.015c-5.459-0.827-10.563,2.909-11.401,8.368
	c-0.837,5.459,2.909,10.563,8.368,11.401l8.372,1.284L227.763,396.139l-42.148-42.148l55.538-55.538
	c0.945-0.945,1.691-2.071,2.194-3.31l46.584-114.749l42.772-55.984l38.109,5.846c0.514,0.078,1.024,0.116,1.528,0.116
	c4.854,0,9.114-3.539,9.872-8.484c0.837-5.459-2.909-10.563-8.368-11.401l-34.908-5.354l4.821-73.47l78.082,20.546L420.586,117.657z
	 M25.98,363.936l128.468-128.468l1.865,6.255c1.293,4.34,5.271,7.146,9.579,7.146c0.946,0,1.908-0.136,2.861-0.42
	c5.292-1.577,8.304-7.147,6.726-12.439l-3.901-13.085l92.122-31.087l-38.121,93.904l-27.173,27.173l-13.214-44.323
	c-1.577-5.292-7.146-8.304-12.44-6.726c-5.292,1.578-8.304,7.147-6.726,12.44l16.303,54.685l-17.925,17.926
	c-0.001,0-0.002,0.001-0.003,0.002s-0.002,0.002-0.002,0.002l-63.482,63.481L25.98,363.936z M171.472,368.133l35.405,35.405
	l-77.891,7.081L171.472,368.133z M158.236,77.931l33.211-4.028l-13.459,32.082l-69,57.026c-4.257,3.519-4.856,9.821-1.337,14.078
	c1.978,2.394,4.834,3.63,7.713,3.63c2.244,0,4.501-0.751,6.365-2.292l70.897-58.595c1.247-1.03,2.225-2.348,2.851-3.84
	l19.323-46.061l108.815-36.77l-5.039,76.792l-43.498,56.936l-119.038,40.17c-0.084,0.028-0.163,0.068-0.246,0.099
	c-0.22,0.081-0.435,0.166-0.646,0.261c-0.117,0.052-0.232,0.106-0.346,0.163c-0.225,0.111-0.444,0.231-0.658,0.357
	c-0.095,0.057-0.189,0.111-0.282,0.17c-0.237,0.151-0.465,0.313-0.686,0.482c-0.064,0.049-0.131,0.094-0.194,0.145
	c-0.297,0.238-0.581,0.489-0.846,0.757L21.889,339.742l6.032-83.785l67.6-55.869c4.257-3.519,4.856-9.821,1.337-14.078
	c-3.519-4.259-9.822-4.855-14.079-1.338l-56.309,46.537l-2.907-31.48L158.236,77.931z"/>
<g>
</g>
<g>
</g>
<g>
</g>
<g>
</g>
<g>
</g>
<g>
</g>
<g>
</g>
<g>
</g>
<g>
</g>
<g>
</g>
<g>
</g>
<g>
</g>
<g>
</g>
<g>
</g>
<g>
</g>
</svg>
