<?xml version="1.0" encoding="iso-8859-1"?>
<!-- Generator: Adobe Illustrator 17.1.0, SVG Export Plug-In . SVG Version: 6.00 Build 0)  -->
<!DOCTYPE svg PUBLIC "-//W3C//DTD SVG 1.1//EN" "http://www.w3.org/Graphics/SVG/1.1/DTD/svg11.dtd">
<svg version="1.1" id="Capa_1" xmlns="http://www.w3.org/2000/svg" xmlns:xlink="http://www.w3.org/1999/xlink" x="0px" y="0px"
	 viewBox="0 0 460 460" style="enable-background:new 0 0 460 460;" xml:space="preserve">
<g>
	<path d="M234.944,193.043c0-5.522-4.477-10-10-10c-16.292,0-29.547,13.255-29.547,29.547v32.167
		c0,15.629-12.389,28.414-27.862,29.063c-2.332-11.188-8.483-20.987-17.023-27.975l-5.207-206.776c-0.04-1.573-0.45-3.115-1.198-4.5
		l-15.833-29.32C126.528,2.016,123.149,0,119.475,0s-7.053,2.016-8.799,5.248l-15.833,29.32c-0.748,1.385-1.158,2.927-1.198,4.5
		l-5.207,206.776c-8.54,6.987-14.691,16.787-17.023,27.975c-15.473-0.648-27.862-13.434-27.862-29.063V212.59
		c0-16.292-13.255-29.547-29.547-29.547c-5.523,0-10,4.478-10,10s4.477,10,10,10c5.264,0,9.547,4.283,9.547,9.547v32.167
		c0,26.652,21.352,48.396,47.847,49.063c2.785,13.452,11.093,24.904,22.437,31.88v108.663c0,14.137,11.501,25.638,25.638,25.638
		s25.638-11.501,25.638-25.638V325.699c11.344-6.976,19.652-18.428,22.437-31.88c26.495-0.666,47.847-22.41,47.847-49.063V212.59
		c0-5.264,4.283-9.547,9.547-9.547C230.467,203.043,234.944,198.565,234.944,193.043z M113.579,41.965l5.896-10.919l5.896,10.919
		l4.885,193.999c-3.472-0.781-7.077-1.207-10.781-1.207s-7.309,0.426-10.781,1.207L113.579,41.965z M125.113,398.951h-11.275
		v-23.003h11.275V398.951z M119.475,440c-3.108,0-5.638-2.529-5.638-5.638v-15.411h11.275v15.411
		C125.113,437.471,122.583,440,119.475,440z M125.113,355.948h-11.275v-23.337c1.851,0.213,3.73,0.334,5.638,0.334
		s3.786-0.121,5.638-0.334V355.948z M119.475,312.945c-16.042,0-29.094-13.052-29.094-29.094c0-16.043,13.051-29.095,29.094-29.095
		s29.094,13.052,29.094,29.095C148.569,299.894,135.518,312.945,119.475,312.945z"/>
	<path d="M119.475,264.078c-10.903,0-19.773,8.87-19.773,19.773s8.87,19.773,19.773,19.773s19.773-8.87,19.773-19.773
		S130.378,264.078,119.475,264.078z"/>
	<path d="M445.994,256.957c-5.264,0-9.547-4.283-9.547-9.547v-32.167c0-26.652-21.352-48.396-47.847-49.062
		c-2.785-13.453-11.093-24.905-22.437-31.88V25.638C366.163,11.501,354.662,0,340.525,0s-25.638,11.501-25.638,25.638v108.663
		c-11.344,6.975-19.652,18.428-22.437,31.88c-26.495,0.666-47.847,22.41-47.847,49.062v32.167c0,5.264-4.283,9.547-9.547,9.547
		c-5.523,0-10,4.478-10,10s4.477,10,10,10c16.292,0,29.547-13.255,29.547-29.547v-32.167c0-15.629,12.389-28.414,27.862-29.063
		c2.332,11.188,8.483,20.987,17.023,27.975l5.207,206.776c0.04,1.573,0.45,3.115,1.198,4.5l15.833,29.32
		c1.746,3.232,5.125,5.248,8.799,5.248s7.053-2.016,8.799-5.248l15.833-29.32c0.748-1.385,1.158-2.927,1.198-4.5l5.207-206.776
		c8.54-6.987,14.691-16.787,17.023-27.975c15.473,0.648,27.862,13.434,27.862,29.063v32.167c0,16.292,13.255,29.547,29.547,29.547
		c5.523,0,10-4.478,10-10S451.517,256.957,445.994,256.957z M340.525,20c3.108,0,5.638,2.529,5.638,5.638v58.414h-11.275V25.638
		C334.887,22.529,337.417,20,340.525,20z M334.887,104.052h11.275v23.336c-1.851-0.212-3.73-0.333-5.638-0.333
		s-3.786,0.121-5.638,0.333V104.052z M340.525,147.055c16.042,0,29.094,13.052,29.094,29.094c0,16.043-13.051,29.095-29.094,29.095
		s-29.094-13.052-29.094-29.095C311.431,160.106,324.482,147.055,340.525,147.055z M346.421,418.035l-5.896,10.919l-5.896-10.919
		l-4.885-193.999c3.472,0.781,7.077,1.207,10.781,1.207s7.309-0.426,10.781-1.207L346.421,418.035z"/>
	<path d="M340.525,195.922c10.903,0,19.773-8.87,19.773-19.773s-8.87-19.773-19.773-19.773s-19.773,8.87-19.773,19.773
		S329.622,195.922,340.525,195.922z"/>
</g>
<g>
</g>
<g>
</g>
<g>
</g>
<g>
</g>
<g>
</g>
<g>
</g>
<g>
</g>
<g>
</g>
<g>
</g>
<g>
</g>
<g>
</g>
<g>
</g>
<g>
</g>
<g>
</g>
<g>
</g>
</svg>
