<?xml version="1.0" encoding="iso-8859-1"?>
<!-- Generator: Adobe Illustrator 17.1.0, SVG Export Plug-In . SVG Version: 6.00 Build 0)  -->
<!DOCTYPE svg PUBLIC "-//W3C//DTD SVG 1.1//EN" "http://www.w3.org/Graphics/SVG/1.1/DTD/svg11.dtd">
<svg version="1.1" id="Capa_1" xmlns="http://www.w3.org/2000/svg" xmlns:xlink="http://www.w3.org/1999/xlink" x="0px" y="0px"
	 viewBox="0 0 506.271 506.271" style="enable-background:new 0 0 506.271 506.271;" xml:space="preserve">
<g>
	<path d="M474.15,106.375l-89.304-89.304c3.905-3.905,3.905-10.237,0-14.143c-3.906-3.904-10.236-3.904-14.143,0L229.291,144.341
		l-10.682-10.683c-1.875-1.875-4.419-2.929-7.071-2.929s-5.195,1.054-7.071,2.929c-3.906-3.904-10.236-3.904-14.143,0
		c-3.905,3.905-3.905,10.237,0,14.143L64.661,273.463c-7.404,7.403-11.995,16.568-13.788,26.157H39.192c-5.522,0-10,4.478-10,10
		s4.478,10,10,10h11.092c-23.585,64.326-5.625,137.746,45.48,184.061c1.91,1.73,4.313,2.59,6.714,2.59
		c2.564,0,5.125-0.981,7.072-2.929l65.127-65.127c2.078-2.078,3.137-4.966,2.895-7.896c-0.242-2.929-1.761-5.604-4.151-7.312
		c-12.523-8.949-23.567-19.854-32.749-32.172c6.737-2.059,12.972-5.731,18.051-10.811c16.52-16.521,16.94-43.129,1.274-60.171
		l73.006-73.006c3.905-3.905,3.905-10.237,0-14.143l-14.142-14.142l35.255-35.255c3.905-3.905,3.905-10.237,0-14.143l-10.683-10.683
		l30.896-30.896l89.304,89.304c1.953,1.952,4.512,2.929,7.071,2.929s5.118-0.977,7.071-2.929l96.375-96.375
		C478.055,116.612,478.055,110.28,474.15,106.375z M171.032,280.535l-49.65,49.65c-4.254,4.254-9.557,7.077-15.325,8.23
		c-0.036,0.007-0.073,0.014-0.109,0.021c-1.908,0.375-3.867,0.567-5.855,0.567c-8.042,0-15.603-3.132-21.289-8.818
		c-9.261-9.261-11.21-23.101-5.859-34.296l27.224,27.225c1.953,1.952,4.512,2.929,7.071,2.929s5.118-0.977,7.071-2.929
		c3.905-3.905,3.905-10.237,0-14.143l-28.437-28.437l42.578-42.578L171.032,280.535z M102.355,482.252
		C66.707,445.53,52.394,392.8,63.945,343.574c0.24,0.251,0.47,0.508,0.716,0.754c9.464,9.464,22.048,14.676,35.432,14.676
		c0.314,0,0.626-0.018,0.939-0.022c3.461,9.54,7.769,18.738,12.849,27.478c0.32,0.716,0.719,1.39,1.193,2.009
		c9.914,16.532,22.569,31.368,37.414,43.652L102.355,482.252z M144.58,365.883c-4.214,4.214-9.693,6.592-15.499,6.849
		c-3.183-5.849-5.983-11.914-8.369-18.153c5.445-2.46,10.461-5.899,14.812-10.251l10.297-10.297
		C153.7,343.251,153.299,357.165,144.58,365.883z M185.174,266.392l-7.07-7.07l26.614-26.614l7.07,7.07L185.174,266.392z
		 M197.647,211.494l-33.686,33.686l-21.366-21.365l68.941-68.941l21.366,21.366L197.647,211.494z M370.704,195.678l-82.232-82.232
		l82.232-82.232l82.232,82.232L370.704,195.678z"/>
	<path d="M370.704,68.751c-5.522,0-10,4.478-10,10v24.694h-24.694c-5.522,0-10,4.478-10,10s4.478,10,10,10h24.694v24.695
		c0,5.522,4.478,10,10,10s10-4.478,10-10v-24.695h24.695c5.522,0,10-4.478,10-10s-4.478-10-10-10h-24.695V78.751
		C380.704,73.229,376.226,68.751,370.704,68.751z"/>
</g>
<g>
</g>
<g>
</g>
<g>
</g>
<g>
</g>
<g>
</g>
<g>
</g>
<g>
</g>
<g>
</g>
<g>
</g>
<g>
</g>
<g>
</g>
<g>
</g>
<g>
</g>
<g>
</g>
<g>
</g>
</svg>
