<?xml version="1.0" encoding="iso-8859-1"?>
<!-- Generator: Adobe Illustrator 17.1.0, SVG Export Plug-In . SVG Version: 6.00 Build 0)  -->
<!DOCTYPE svg PUBLIC "-//W3C//DTD SVG 1.1//EN" "http://www.w3.org/Graphics/SVG/1.1/DTD/svg11.dtd">
<svg version="1.1" id="Capa_1" xmlns="http://www.w3.org/2000/svg" xmlns:xlink="http://www.w3.org/1999/xlink" x="0px" y="0px"
	 viewBox="0 0 460.032 460.032" style="enable-background:new 0 0 460.032 460.032;" xml:space="preserve">
<g>
	<path d="M426.146,165.859c-2.808,0-5.448,1.094-7.425,3.071c-1.991,1.986-3.088,4.629-3.088,7.442c0,2.813,1.097,5.455,3.079,7.434
		c1.986,1.985,4.626,3.079,7.434,3.079s5.448-1.094,7.425-3.071c1.991-1.986,3.088-4.629,3.088-7.441
		c0-2.813-1.097-5.456-3.079-7.435C431.594,166.952,428.954,165.859,426.146,165.859z"/>
	<path d="M447.554,142.709c-2.804,0-5.441,1.091-7.435,3.079c-4.099,4.1-4.099,10.769-0.009,14.859
		c1.987,1.991,4.63,3.088,7.443,3.088c2.817,0,5.463-1.1,7.425-3.071c1.991-1.986,3.088-4.629,3.088-7.441
		c0-2.813-1.097-5.456-3.079-7.435C453.002,143.803,450.362,142.709,447.554,142.709z"/>
	<path d="M449.518,133.057c2.808,0,5.448-1.094,7.425-3.071c1.991-1.986,3.088-4.629,3.088-7.441c0-2.813-1.097-5.456-3.062-7.417
		c-1.988-1.997-4.634-3.097-7.451-3.097c-2.813,0-5.457,1.097-7.435,3.079c-4.099,4.1-4.099,10.769,0.009,14.876
		C444.077,131.966,446.715,133.057,449.518,133.057z"/>
	<path d="M383.317,64.857c2.804,0,5.441-1.091,7.452-3.097c4.07-4.09,4.07-10.744-0.026-14.86c-1.985-1.979-4.622-3.07-7.426-3.07
		c-2.803,0-5.44,1.091-7.451,3.097c-4.07,4.09-4.07,10.744,0.026,14.859C377.877,63.766,380.514,64.857,383.317,64.857z"/>
	<path d="M405.704,87.243c2.808,0,5.448-1.094,7.425-3.071c1.991-1.986,3.088-4.629,3.088-7.441c0-2.813-1.097-5.456-3.062-7.417
		c-1.988-1.997-4.634-3.097-7.451-3.097c-2.813,0-5.457,1.097-7.435,3.079c-4.099,4.1-4.099,10.769,0.009,14.876
		C400.264,86.153,402.901,87.243,405.704,87.243z"/>
	<path d="M428.094,109.633c2.808,0,5.448-1.094,7.425-3.071c1.991-1.986,3.088-4.629,3.088-7.441c0-2.813-1.097-5.456-3.062-7.417
		c-1.988-1.997-4.634-3.097-7.451-3.097c-2.813,0-5.457,1.097-7.435,3.079c-4.099,4.1-4.099,10.769,0.009,14.876
		C422.653,108.542,425.29,109.633,428.094,109.633z"/>
	<path d="M283.676,44.415c2.808,0,5.448-1.094,7.443-3.088c4.084-4.095,4.084-10.757-0.009-14.86
		c-1.986-1.985-4.626-3.079-7.434-3.079c-2.804,0-5.441,1.091-7.452,3.097c-4.07,4.09-4.07,10.744,0.026,14.859
		C278.235,43.324,280.872,44.415,283.676,44.415z"/>
	<path d="M306.825,23.007c2.813,0,5.456-1.097,7.434-3.079c4.099-4.1,4.099-10.769-0.009-14.876
		c-1.985-1.98-4.622-3.071-7.425-3.071c-2.804,0-5.441,1.091-7.426,3.071c-1.991,1.986-3.088,4.629-3.088,7.442
		c0,2.813,1.097,5.455,3.071,7.425C301.369,21.91,304.012,23.007,306.825,23.007z"/>
	<path d="M337.504,21.042c2.813,0,5.456-1.097,7.434-3.079c4.099-4.1,4.099-10.769-0.009-14.876
		c-1.985-1.98-4.622-3.071-7.425-3.071c-2.804,0-5.441,1.091-7.426,3.071c-1.991,1.986-3.088,4.629-3.088,7.442
		c0,2.813,1.097,5.455,3.071,7.425C332.048,19.945,334.691,21.042,337.504,21.042z"/>
	<path d="M360.928,42.467c2.803,0,5.44-1.091,7.451-3.097c4.07-4.09,4.07-10.744-0.026-14.859c-1.985-1.98-4.622-3.071-7.425-3.071
		c-2.804,0-5.441,1.091-7.443,3.088c-4.084,4.095-4.084,10.757,0.018,14.869C355.487,41.376,358.124,42.467,360.928,42.467z"/>
	<path d="M262.071,99.975l-0.552-0.553l21.491-21.49c1.875-1.876,2.929-4.419,2.929-7.071s-1.054-5.195-2.929-7.071l-29.039-29.038
		c-3.904-3.905-10.236-3.904-14.142,0l-21.491,21.491l-0.552-0.552c-3.905-3.904-10.237-3.904-14.142,0l-43.552,43.552
		c-0.002,0.002-0.003,0.003-0.005,0.005s-0.003,0.003-0.005,0.005L9.452,249.883c-9.776,9.777-12.097,23.321-6.365,37.16
		c7.244,17.492,25.416,30.685,42.27,30.687c0.001,0,0.002,0,0.004,0c8.566,0,16.353-3.258,22.517-9.421l194.192-194.192
		C265.975,110.211,265.976,103.88,262.071,99.975z M53.736,294.166c-2.398,2.398-5.137,3.563-8.375,3.563c0,0-0.001,0-0.002,0
		c-8.782-0.001-19.678-8.399-23.794-18.339c-2.592-6.258-1.909-11.427,2.029-15.365l143.564-143.564l30.141,30.141L53.736,294.166z
		 M211.443,136.459l-30.141-30.141l29.415-29.415l0.547,0.547c0.002,0.001,0.003,0.003,0.005,0.005l7.26,7.26
		c1.953,1.952,4.512,2.929,7.071,2.929s5.119-0.977,7.071-2.929c3.905-3.905,3.905-10.237,0-14.143l-0.189-0.188l14.42-14.42
		l14.896,14.896l-21.491,21.49c-3.905,3.905-3.906,10.237,0,14.143l0.552,0.552L211.443,136.459z"/>
	<path d="M396.258,177.037c-1.875-1.875-4.419-2.929-7.071-2.929c-2.652,0-5.196,1.054-7.071,2.929l-21.491,21.491l-0.551-0.552
		c-1.875-1.875-4.419-2.929-7.071-2.929c-2.652,0-5.196,1.054-7.071,2.929L151.74,392.169c-9.777,9.777-12.097,23.322-6.365,37.162
		c7.244,17.491,25.416,30.684,42.269,30.685c0.002,0,0.002,0,0.004,0c8.567,0,16.354-3.258,22.518-9.421l150.63-150.63
		c0.002-0.002,0.003-0.003,0.005-0.005s0.003-0.003,0.005-0.005l43.553-43.553c1.875-1.876,2.929-4.419,2.929-7.071
		s-1.054-5.196-2.929-7.071l-0.551-0.551l21.491-21.491c3.905-3.905,3.905-10.237,0-14.143L396.258,177.037z M196.022,436.452
		c-2.398,2.398-5.138,3.563-8.375,3.563h-0.001c-8.781-0.001-19.677-8.398-23.793-18.337c-2.592-6.259-1.909-11.429,2.03-15.367
		l143.563-143.563l30.141,30.141L196.022,436.452z M389.663,227.567l-0.188-0.188c-3.905-3.904-10.237-3.904-14.142,0
		c-3.905,3.906-3.905,10.237,0,14.143l7.25,7.249c0.003,0.004,0.006,0.008,0.009,0.011l0.551,0.551l-29.415,29.415l-30.141-30.141
		l29.415-29.415l0.551,0.552c1.875,1.875,4.419,2.929,7.071,2.929s5.196-1.054,7.071-2.929l21.491-21.491l14.896,14.896
		L389.663,227.567z"/>
</g>
<g>
</g>
<g>
</g>
<g>
</g>
<g>
</g>
<g>
</g>
<g>
</g>
<g>
</g>
<g>
</g>
<g>
</g>
<g>
</g>
<g>
</g>
<g>
</g>
<g>
</g>
<g>
</g>
<g>
</g>
</svg>
