<?xml version="1.0" encoding="iso-8859-1"?>
<!-- Generator: Adobe Illustrator 17.1.0, SVG Export Plug-In . SVG Version: 6.00 Build 0)  -->
<!DOCTYPE svg PUBLIC "-//W3C//DTD SVG 1.1//EN" "http://www.w3.org/Graphics/SVG/1.1/DTD/svg11.dtd">
<svg version="1.1" id="Capa_1" xmlns="http://www.w3.org/2000/svg" xmlns:xlink="http://www.w3.org/1999/xlink" x="0px" y="0px"
	 viewBox="0 0 459.949 459.949" style="enable-background:new 0 0 459.949 459.949;" xml:space="preserve">
<path d="M459.095,35.378c-1.77-7.58-6.3-15.311-12.757-21.768S432.15,2.623,424.57,0.854c-9.92-2.313-19.089,0.113-25.814,6.838
	l-108.651,108.65c-1.021-0.344-2.096-0.534-3.194-0.534c-2.652,0-5.195,1.054-7.071,2.929L118.473,280.104
	c-1.875,1.876-2.929,4.419-2.929,7.071c0,1.098,0.19,2.173,0.535,3.194L7.806,398.642c-12.241,12.241-9.876,32.376,5.624,47.876
	c8.863,8.863,19.238,13.432,28.79,13.431c7.153-0.001,13.845-2.564,19.087-7.806L169.579,343.87
	c1.035,0.348,2.114,0.533,3.195,0.533c2.559,0,5.119-0.977,7.071-2.929l122.007-122.007l0.001-0.001c0,0,0.001-0.001,0.001-0.001
	l39.358-39.357c1.875-1.876,2.929-4.419,2.929-7.071c0-1.098-0.19-2.173-0.535-3.194l108.651-108.65
	C458.981,54.467,461.41,45.3,459.095,35.378z M272.929,220.107h-66.174l40.798-40.798l33.087,33.087L272.929,220.107z
	 M212.132,280.904l-33.087-33.087l7.71-7.71h66.174L212.132,280.904z M47.164,438c-5.089,5.084-14.717-0.75-19.592-5.624
	c-4.875-4.875-10.711-14.504-5.624-19.592L129.48,305.253l25.216,25.215L47.164,438z M172.774,320.262l-33.087-33.087l25.216-25.216
	l33.087,33.087L172.774,320.262z M294.782,198.253l-33.087-33.087l25.215-25.216l33.087,33.087L294.782,198.253z M438.114,47.05
	L330.205,154.959l-25.216-25.216L412.898,21.834c4.875-4.872,14.423,1.045,19.298,5.918C437.07,32.627,442.988,42.177,438.114,47.05
	z"/>
<g>
</g>
<g>
</g>
<g>
</g>
<g>
</g>
<g>
</g>
<g>
</g>
<g>
</g>
<g>
</g>
<g>
</g>
<g>
</g>
<g>
</g>
<g>
</g>
<g>
</g>
<g>
</g>
<g>
</g>
</svg>
