<?xml version="1.0" encoding="iso-8859-1"?>
<!-- Generator: Adobe Illustrator 17.1.0, SVG Export Plug-In . SVG Version: 6.00 Build 0)  -->
<!DOCTYPE svg PUBLIC "-//W3C//DTD SVG 1.1//EN" "http://www.w3.org/Graphics/SVG/1.1/DTD/svg11.dtd">
<svg version="1.1" id="Capa_1" xmlns="http://www.w3.org/2000/svg" xmlns:xlink="http://www.w3.org/1999/xlink" x="0px" y="0px"
	 viewBox="0 0 470.199 470.199" style="enable-background:new 0 0 470.199 470.199;" xml:space="preserve">
<g>
	<path d="M209.926,187.285c-5.522,0-10,4.478-10,10v52.914c0,16.542-13.458,30-30,30h-16.475l-5.24-240.417
		c-0.035-1.585-0.445-3.139-1.199-4.534l-16.2-30C129.065,2.016,125.688,0,122.013,0s-7.053,2.016-8.799,5.248l-16.2,30
		c-0.754,1.396-1.164,2.949-1.199,4.534l-5.24,240.417H74.1c-16.542,0-30-13.458-30-30v-52.914c0-5.522-4.478-10-10-10
		s-10,4.478-10,10v52.914c0,27.57,22.43,50,50,50h15.946l-4.682,151.533c-0.003,0.103-0.005,0.206-0.005,0.309
		c0,11.709,13.017,18.157,36.653,18.157s36.653-6.448,36.653-18.157c0-0.103-0.002-0.206-0.005-0.309l-4.682-151.533h15.946
		c27.57,0,50-22.43,50-50v-52.914C219.926,191.763,215.448,187.285,209.926,187.285z M134.608,320.828
		c-5.376,0.168-9.686,4.568-9.686,9.984c0,5.522,4.478,10,10,10h0.303l0.637,20.63c-5.377,0.167-9.688,4.567-9.688,9.984
		c0,5.522,4.478,10,10,10h0.305l0.637,20.614h-30.208l3.146-101.842h23.915L134.608,320.828z M115.758,42.629l6.255-11.583
		l6.255,11.583l5.178,237.57H110.58L115.758,42.629z M122.013,450.198c-7.985,0-13.604-1.033-16.532-1.928l0.81-26.229h31.444
		l0.81,26.229C135.617,449.165,129.998,450.198,122.013,450.198z"/>
	<path d="M396.1,170h-15.946l4.682-151.533c0.003-0.103,0.005-0.206,0.005-0.309c0-11.709-13.017-18.157-36.653-18.157
		s-36.653,6.448-36.653,18.157c0,0.103,0.002,0.206,0.005,0.309L316.22,170h-15.946c-27.57,0-50,22.43-50,50v52.914
		c0,5.522,4.478,10,10,10s10-4.478,10-10V220c0-16.542,13.458-30,30-30h16.475l5.24,240.417c0.035,1.585,0.445,3.139,1.199,4.534
		l16.2,30c1.746,3.232,5.124,5.248,8.799,5.248s7.053-2.016,8.799-5.248l16.2-30c0.754-1.396,1.164-2.949,1.199-4.534L379.625,190
		H396.1c16.542,0,30,13.458,30,30v52.914c0,5.522,4.478,10,10,10s10-4.478,10-10V220C446.1,192.43,423.67,170,396.1,170z
		 M336.229,170l-0.637-20.629c5.376-0.168,9.686-4.568,9.686-9.984c0-5.522-4.478-10-10-10h-0.303l-0.637-20.63
		c5.377-0.167,9.688-4.567,9.688-9.984c0-5.522-4.478-10-10-10h-0.305l-0.637-20.614h30.208L360.144,170H336.229z M348.187,20.001
		c7.985,0,13.604,1.033,16.532,1.928l-0.81,26.229h-31.444l-0.81-26.229C334.582,21.034,340.201,20.001,348.187,20.001z
		 M354.441,427.57l-6.255,11.583l-6.255-11.583L336.754,190h22.865L354.441,427.57z"/>
</g>
<g>
</g>
<g>
</g>
<g>
</g>
<g>
</g>
<g>
</g>
<g>
</g>
<g>
</g>
<g>
</g>
<g>
</g>
<g>
</g>
<g>
</g>
<g>
</g>
<g>
</g>
<g>
</g>
<g>
</g>
</svg>
