<?xml version="1.0" encoding="iso-8859-1"?>
<!-- Generator: Adobe Illustrator 17.1.0, SVG Export Plug-In . SVG Version: 6.00 Build 0)  -->
<!DOCTYPE svg PUBLIC "-//W3C//DTD SVG 1.1//EN" "http://www.w3.org/Graphics/SVG/1.1/DTD/svg11.dtd">
<svg version="1.1" id="Capa_1" xmlns="http://www.w3.org/2000/svg" xmlns:xlink="http://www.w3.org/1999/xlink" x="0px" y="0px"
	 viewBox="0 0 460 460" style="enable-background:new 0 0 460 460;" xml:space="preserve">
<path d="M450.273,143.82v-24.059c0-5.522-4.477-10-10-10h-93.382c-0.917,0-1.8,0.134-2.643,0.364
	c-2.202-0.851-4.585-1.337-7.084-1.337h-11.673c-10.786,0-19.566,8.703-19.714,19.454h-69.518
	c-0.148-10.751-8.928-19.454-19.713-19.454h-11.673c-10.785,0-19.565,8.703-19.713,19.454H20.073
	c-13.083,0-16.212,16.991-17.389,23.389C0.953,161.031,0,173.549,0,186.879c0,13.329,0.953,25.848,2.684,35.247
	c1.177,6.397,4.306,23.389,17.389,23.389H89.19c-2.631,20.851-13.439,39.604-30.262,52.396l-3.346-3.347
	c-3.905-3.902-10.237-3.904-14.142,0c-3.905,3.905-3.906,10.237,0,14.143l37.257,37.258c0.063,0.063,0.138,0.112,0.202,0.174
	c0.248,0.235,0.505,0.457,0.772,0.663c0.104,0.081,0.208,0.16,0.315,0.236c0.309,0.22,0.628,0.418,0.956,0.6
	c0.074,0.041,0.145,0.088,0.22,0.127c0.413,0.214,0.838,0.4,1.274,0.554c0.073,0.026,0.15,0.043,0.224,0.066
	c0.361,0.118,0.726,0.216,1.097,0.292c0.06,0.013,0.116,0.036,0.177,0.047c8.928,1.665,17.896,2.488,26.809,2.488
	c28.167,0,55.772-8.218,79.76-24.036c26.07-17.19,45.098-41.604,54.952-70.043v17.292c0,10.878,8.85,19.728,19.727,19.728h11.673
	c10.877,0,19.727-8.85,19.727-19.728v-28.909h11.934c3.436,5.811,9.75,9.728,16.976,9.728h11.673c7.226,0,13.539-3.917,16.975-9.728
	h54.034c5.523,0,10-4.478,10-10s-4.477-10-10-10h-51.282v-27.663h83.382c5.523,0,10-4.478,10-10v-24.06
	c5.396-0.146,9.727-4.556,9.727-9.986S455.668,143.966,450.273,143.82z M205.146,128.789h11.127v106.454h-11.127V128.789z
	 M29.527,225.515h-5.48C22.161,220.055,20,206.32,20,186.879c0-19.441,2.161-33.177,4.047-38.637h5.48V225.515z M49.527,225.515
	v-77.272h135.619v77.272H49.527z M157.537,245.515c-0.462,6.352-1.355,12.671-2.691,18.909h-9.101
	c1.298-6.177,2.169-12.492,2.619-18.909H157.537z M86.615,325.598l-13.439-13.44c20.563-16.521,33.509-40.348,36.139-66.643h18.996
	c-0.704,8.564-2.309,16.904-4.765,24.914c-0.274,0.627-0.489,1.285-0.63,1.972C116.183,293.029,103.769,311.372,86.615,325.598z
	 M110.021,331.216c13.215-13.495,23.32-29.377,29.887-46.792h22.796c4.512,0,8.465-3.021,9.649-7.375
	c2.808-10.323,4.555-20.893,5.231-31.534h10.313c3.436,5.811,9.749,9.728,16.975,9.728h11.673c3.301,0,6.409-0.825,9.146-2.265
	C208.164,300.194,161.618,331.585,110.021,331.216z M245.455,225.515h-4.69c-0.043,0-0.086-0.001-0.13,0h-4.363v-23.772h9.182
	V225.515z M276.582,274.152h-11.127v-72.409h11.127V274.152z M305.764,225.515h-9.182v-23.772h9.182V225.515z M305.764,181.743
	h-19.182h-31.127h-19.182v-33.5h69.491V181.743z M336.891,187.852v47.391h-11.127V128.789h11.127V187.852z M430.273,177.852h-73.382
	v-14.046h73.382V177.852z M430.273,143.806h-73.382v-14.045h73.382V143.806z"/>
<g>
</g>
<g>
</g>
<g>
</g>
<g>
</g>
<g>
</g>
<g>
</g>
<g>
</g>
<g>
</g>
<g>
</g>
<g>
</g>
<g>
</g>
<g>
</g>
<g>
</g>
<g>
</g>
<g>
</g>
</svg>
