<?xml version="1.0" encoding="iso-8859-1"?>
<!-- Generator: Adobe Illustrator 17.1.0, SVG Export Plug-In . SVG Version: 6.00 Build 0)  -->
<!DOCTYPE svg PUBLIC "-//W3C//DTD SVG 1.1//EN" "http://www.w3.org/Graphics/SVG/1.1/DTD/svg11.dtd">
<svg version="1.1" id="Capa_1" xmlns="http://www.w3.org/2000/svg" xmlns:xlink="http://www.w3.org/1999/xlink" x="0px" y="0px"
	 viewBox="0 0 460.006 460.006" style="enable-background:new 0 0 460.006 460.006;" xml:space="preserve">
<g>
	<path d="M457.078,239.227L356.926,139.076c-2.864-2.864-7.174-3.719-10.915-2.16l-45.983,19.145
		c-0.028,0.011-0.056,0.023-0.084,0.034l-0.032,0.014c-0.048,0.02-0.092,0.046-0.139,0.066c-0.246,0.106-0.491,0.219-0.73,0.347
		c-0.058,0.03-0.112,0.067-0.168,0.1c-0.226,0.126-0.451,0.256-0.668,0.401c-0.086,0.058-0.165,0.124-0.25,0.184
		c-0.18,0.129-0.362,0.255-0.536,0.397c-0.256,0.209-0.502,0.431-0.736,0.665l-42.549,42.549L112.638,59.318
		c-7.647-7.646-18.292-10.357-29.198-7.433c-2.859,0.766-5.668,1.915-8.372,3.355c-2.545-5.646-5.944-12.688-9.952-19.781
		C51.637,11.601,38.575,0.003,25.182,0.003c-4.401,0-10.994,1.347-17.412,7.764c-8.181,8.182-8.452,16.647-7.237,22.31
		c2.59,12.078,14.665,23.901,36.915,36.144c6.413,3.528,12.678,6.537,17.796,8.844c-1.441,2.704-2.59,5.513-3.356,8.372
		c-2.923,10.909-0.213,21.552,7.433,29.198l26.02,26.02c0.032,0.032,0.064,0.064,0.096,0.097c0.019,0.018,0.037,0.036,0.055,0.054
		l52.157,52.157c0.007,0.007,0.013,0.015,0.02,0.021c0.003,0.004,0.007,0.007,0.011,0.01l63.14,63.141l-42.549,42.549
		c-0.234,0.234-0.455,0.479-0.664,0.734c-0.156,0.19-0.296,0.39-0.437,0.588c-0.047,0.066-0.099,0.129-0.144,0.196
		c-0.156,0.232-0.296,0.473-0.43,0.715c-0.023,0.041-0.049,0.08-0.071,0.121c-0.133,0.248-0.25,0.503-0.361,0.759
		c-0.017,0.039-0.038,0.075-0.054,0.114l-0.011,0.026c-0.013,0.031-0.026,0.062-0.039,0.093l-19.143,45.979
		c-1.557,3.74-0.704,8.05,2.161,10.915L239.23,457.075c1.914,1.914,4.473,2.929,7.073,2.929c1.328,0,2.667-0.265,3.938-0.809
		l45.518-19.508c0.01-0.004,0.019-0.008,0.029-0.012l0.157-0.067c0.086-0.037,0.167-0.083,0.251-0.122
		c0.187-0.087,0.374-0.172,0.557-0.271c0.106-0.058,0.208-0.123,0.312-0.185c0.172-0.101,0.344-0.199,0.51-0.312
		c0.13-0.087,0.252-0.185,0.377-0.277c0.132-0.098,0.268-0.19,0.396-0.296c0.253-0.208,0.496-0.427,0.728-0.658l30.144-30.145
		l12.516,12.517c1.875,1.875,4.419,2.929,7.071,2.929s5.195-1.054,7.071-2.929l63.984-63.984c1.875-1.876,2.929-4.419,2.929-7.071
		s-1.054-5.196-2.929-7.071l-12.516-12.516l30.144-30.145c0.232-0.231,0.45-0.476,0.658-0.728c0.108-0.131,0.202-0.27,0.303-0.404
		c0.091-0.123,0.186-0.242,0.271-0.368c0.115-0.172,0.217-0.349,0.321-0.525c0.058-0.099,0.12-0.194,0.174-0.296
		c0.102-0.188,0.19-0.381,0.279-0.573c0.037-0.08,0.081-0.156,0.115-0.237l0.063-0.147c0.006-0.014,0.012-0.027,0.018-0.042
		l19.506-45.514C460.808,246.479,459.969,242.118,457.078,239.227z M20.088,25.882c-0.142-0.661-0.379-1.77,1.825-3.973
		c1.265-1.266,2.365-1.906,3.269-1.906c3.042,0,11.188,5.289,22.418,25.112c1.035,1.826,2.028,3.657,2.975,5.464
		C35.306,42.489,21.581,32.844,20.088,25.882z M79.667,104.696l-6.204-6.204c-1.66-1.66-3.7-4.49-2.256-9.879
		c1.01-3.771,3.455-7.6,6.59-10.744c0.042-0.042,0.085-0.081,0.126-0.123c3.136-3.111,6.943-5.537,10.693-6.542
		c1.288-0.345,2.428-0.491,3.442-0.491c3.231,0,5.174,1.484,6.437,2.748l6.174,6.174c-5.187,2.154-10.257,5.553-14.868,10.164
		C85.352,94.248,81.889,99.367,79.667,104.696z M118.572,143.6l-19.048-19.048c-6.355-6.449,0.104-16.295,4.42-20.611
		c3.655-3.656,8.029-6.169,11.999-6.895c4.653-0.849,7.175,1.036,8.668,2.53c0.019,0.018,0.037,0.036,0.055,0.054l6.473,6.473
		C122.978,117.238,118.799,130.391,118.572,143.6z M215.749,190.714l24.245,24.245l-24.245,24.245
		c-4.559-7.188-7.013-15.525-7.013-24.245S211.189,197.902,215.749,190.714z M153.653,178.682l-1.846-1.847
		c-15.268-15.271-17.35-38.797-6.273-56.336l20.713,20.714C158.282,152.046,153.891,165.022,153.653,178.682z M188.764,213.792
		l-1.841-1.841l-0.001-0.001c-8.575-8.574-13.297-19.976-13.297-32.103c0-8.719,2.453-17.057,7.013-24.245l20.721,20.722
		C193.394,187.157,189.002,200.132,188.764,213.792z M348.807,398.646l-5.445-5.445l49.841-49.841l5.445,5.444L348.807,398.646z
		 M386.142,322.137c-0.003,0.003-0.007,0.006-0.01,0.009s-0.006,0.007-0.009,0.01l-63.964,63.965
		c-0.003,0.003-0.007,0.006-0.01,0.009s-0.006,0.007-0.009,0.01l-30.135,30.136l-64.748-64.749c-3.906-3.903-10.237-3.903-14.142,0
		c-3.905,3.905-3.906,10.237,0,14.143l61.375,61.375l-25.904,11.102l-90.63-90.63l10.878-26.128l22.083,22.083
		c1.953,1.952,4.512,2.929,7.071,2.929c2.559,0,5.119-0.977,7.071-2.929c3.905-3.905,3.906-10.237,0-14.143l-25.574-25.574
		l42.542-42.543c0.002-0.002,0.005-0.004,0.007-0.006l39.174-39.174c0.003-0.003,0.005-0.006,0.008-0.009l42.541-42.54
		l112.521,112.52L386.142,322.137z M427.047,274.486L321.389,168.829l26.129-10.878l90.63,90.631L427.047,274.486z"/>
	<path d="M377.535,302.463c2.794,0,5.421-1.088,7.379-3.046c1.984-1.974,3.079-4.603,3.083-7.401c0.004-2.8-1.085-5.432-3.065-7.412
		c-1.976-1.977-4.603-3.064-7.396-3.064c-2.795,0-5.422,1.088-7.418,3.084c-4.057,4.079-4.048,10.707,0.021,14.775
		C372.113,301.375,374.74,302.463,377.535,302.463z"/>
	<path d="M331.831,295.934c2.794,0,5.421-1.088,7.397-3.064c4.078-4.078,4.078-10.716-0.001-14.795
		c-1.976-1.976-4.603-3.063-7.396-3.063s-5.421,1.088-7.397,3.064c-4.078,4.078-4.078,10.716,0.001,14.795
		C326.411,294.846,329.038,295.934,331.831,295.934z"/>
</g>
<g>
</g>
<g>
</g>
<g>
</g>
<g>
</g>
<g>
</g>
<g>
</g>
<g>
</g>
<g>
</g>
<g>
</g>
<g>
</g>
<g>
</g>
<g>
</g>
<g>
</g>
<g>
</g>
<g>
</g>
</svg>
