<?xml version="1.0" encoding="iso-8859-1"?>
<!-- Generator: Adobe Illustrator 17.1.0, SVG Export Plug-In . SVG Version: 6.00 Build 0)  -->
<!DOCTYPE svg PUBLIC "-//W3C//DTD SVG 1.1//EN" "http://www.w3.org/Graphics/SVG/1.1/DTD/svg11.dtd">
<svg version="1.1" id="Capa_1" xmlns="http://www.w3.org/2000/svg" xmlns:xlink="http://www.w3.org/1999/xlink" x="0px" y="0px"
	 viewBox="0 0 460 460" style="enable-background:new 0 0 460 460;" xml:space="preserve">
<g>
	<path d="M92.707,342.473c-2.746-2.744-6.397-4.256-10.279-4.256c-3.883,0-7.534,1.512-10.284,4.26
		c-5.666,5.67-5.665,14.893,0.002,20.561c2.747,2.746,6.398,4.259,10.282,4.259c3.883,0,7.534-1.513,10.281-4.259
		C98.376,357.369,98.377,348.147,92.707,342.473z"/>
	<path d="M107.663,362.614c-3.883,0-7.534,1.512-10.284,4.26c-5.665,5.668-5.665,14.892,0.004,20.563
		c2.746,2.744,6.397,4.256,10.28,4.256c3.882,0,7.533-1.512,10.283-4.26c5.665-5.668,5.665-14.892-0.004-20.563
		C115.197,364.126,111.545,362.614,107.663,362.614z"/>
	<path d="M220.465,314.041c3.884,0,7.535-1.512,10.279-4.256c2.747-2.746,4.261-6.398,4.261-10.283s-1.514-7.537-4.257-10.279
		c-2.746-2.747-6.398-4.261-10.283-4.261c-3.883,0-7.534,1.513-10.281,4.259c-5.669,5.669-5.669,14.894,0.002,20.564
		C212.932,312.529,216.583,314.041,220.465,314.041z"/>
	<path d="M246.141,288.366c3.885,0,7.537-1.514,10.279-4.257c2.747-2.746,4.261-6.398,4.261-10.283s-1.514-7.537-4.259-10.281
		c-2.746-2.746-6.397-4.258-10.281-4.258s-7.535,1.512-10.279,4.256c-2.747,2.746-4.261,6.398-4.261,10.283
		s1.514,7.537,4.257,10.279C238.604,286.853,242.256,288.366,246.141,288.366z"/>
	<path d="M271.817,262.691c3.882,0,7.533-1.512,10.283-4.26c5.665-5.668,5.665-14.892-0.004-20.563
		c-2.746-2.744-6.397-4.256-10.279-4.256c-3.884,0-7.535,1.512-10.281,4.258c-5.669,5.67-5.669,14.894,0,20.563
		C264.281,261.179,267.933,262.691,271.817,262.691z"/>
	<path d="M297.492,237.015c3.882,0,7.533-1.512,10.283-4.26c5.666-5.67,5.665-14.893-0.002-20.561
		c-2.747-2.746-6.398-4.259-10.281-4.259c-3.884,0-7.535,1.513-10.282,4.259c-5.667,5.668-5.668,14.891,0.002,20.564
		C289.958,235.503,293.61,237.015,297.492,237.015z"/>
	<path d="M323.167,211.34c3.885,0,7.537-1.514,10.279-4.257c2.747-2.746,4.261-6.398,4.261-10.283s-1.514-7.537-4.257-10.279
		c-2.746-2.747-6.398-4.261-10.283-4.261s-7.537,1.514-10.281,4.259c-5.669,5.669-5.669,14.894-0.002,20.561
		C315.63,209.826,319.282,211.34,323.167,211.34z"/>
	<path d="M142.295,360.744c-3.885,0-7.537,1.514-10.281,4.259c-5.669,5.669-5.669,14.894-0.002,20.561
		c2.746,2.747,6.398,4.261,10.283,4.261s7.537-1.514,10.279-4.257c2.747-2.746,4.261-6.398,4.261-10.283s-1.514-7.537-4.257-10.279
		C149.832,362.258,146.18,360.744,142.295,360.744z"/>
	<path d="M183.628,350.879c0-3.883-1.513-7.534-4.259-10.281c-2.746-2.746-6.397-4.258-10.281-4.258s-7.535,1.512-10.281,4.258
		c-2.746,2.747-4.259,6.398-4.259,10.281c0,3.885,1.514,7.537,4.257,10.279c2.746,2.747,6.398,4.261,10.283,4.261
		s7.537-1.514,10.279-4.257C182.115,358.416,183.628,354.764,183.628,350.879z"/>
	<path d="M194.783,339.724c3.885,0,7.537-1.514,10.281-4.259c5.667-5.668,5.668-14.891,0-20.563
		c-2.746-2.746-6.397-4.258-10.281-4.258s-7.535,1.512-10.281,4.258c-2.746,2.747-4.259,6.398-4.259,10.281
		c0,3.885,1.514,7.537,4.257,10.279C187.246,338.21,190.899,339.724,194.783,339.724z"/>
	<path d="M399.606,223.953c-3.885,0-7.537,1.514-10.279,4.257c-2.747,2.746-4.261,6.398-4.261,10.283s1.514,7.537,4.257,10.279
		c2.746,2.747,6.398,4.261,10.283,4.261s7.537-1.514,10.279-4.257c2.747-2.746,4.261-6.398,4.261-10.283s-1.514-7.537-4.257-10.279
		C407.143,225.467,403.49,223.953,399.606,223.953z"/>
	<path d="M334.303,171.124c0,3.885,1.514,7.537,4.257,10.279c2.746,2.747,6.398,4.261,10.283,4.261s7.537-1.514,10.281-4.259
		c5.667-5.668,5.668-14.891,0-20.563c-2.746-2.746-6.397-4.258-10.281-4.258s-7.535,1.512-10.281,4.258
		C335.816,163.59,334.303,167.241,334.303,171.124z"/>
	<path d="M425.241,198.318c-3.884,0-7.535,1.512-10.281,4.258c-5.669,5.67-5.669,14.894,0,20.563
		c2.746,2.746,6.397,4.258,10.281,4.258c3.882,0,7.533-1.512,10.283-4.26c5.665-5.668,5.665-14.892-0.004-20.563
		C432.775,199.83,429.123,198.318,425.241,198.318z"/>
	<path d="M374.538,159.969c3.885,0,7.537-1.514,10.279-4.257c2.747-2.746,4.261-6.398,4.261-10.283s-1.514-7.537-4.257-10.279
		c-2.746-2.747-6.398-4.261-10.283-4.261s-7.537,1.514-10.281,4.259c-5.669,5.669-5.669,14.894-0.002,20.561
		C367.001,158.455,370.654,159.969,374.538,159.969z"/>
	<path d="M455.741,173.298c-2.746-2.746-6.397-4.258-10.281-4.258c-3.882,0-7.533,1.512-10.283,4.26
		c-5.666,5.67-5.665,14.893,0.002,20.561c2.747,2.746,6.398,4.259,10.281,4.259c3.885,0,7.537-1.514,10.279-4.257
		c2.747-2.746,4.261-6.398,4.261-10.283C460,179.696,458.488,176.045,455.741,173.298z"/>
	<path d="M407.241,147.147c3.884,0,7.535-1.512,10.281-4.258c5.669-5.67,5.669-14.894,0-20.563
		c-2.746-2.746-6.397-4.258-10.281-4.258c-3.882,0-7.533,1.512-10.283,4.26c-5.665,5.668-5.665,14.892,0.004,20.563
		C399.708,145.635,403.36,147.147,407.241,147.147z"/>
	<path d="M438.161,163.789c3.884,0,7.535-1.512,10.281-4.258c5.669-5.67,5.669-14.894,0-20.563
		c-2.746-2.746-6.397-4.258-10.281-4.258s-7.535,1.512-10.281,4.258c-5.669,5.67-5.669,14.894,0,20.563
		C430.626,162.277,434.278,163.789,438.161,163.789z"/>
	<path d="M225.728,109.48c3.905-3.905,3.905-10.237,0-14.143l-39.163-39.164c-1.875-1.875-4.419-2.929-7.071-2.929
		s-5.195,1.054-7.071,2.929L35.038,193.558c-0.003,0.003-0.005,0.005-0.008,0.008s-0.005,0.006-0.007,0.008L2.929,225.667
		c-3.905,3.905-3.905,10.237,0,14.143l39.163,39.163c1.876,1.875,4.419,2.929,7.071,2.929s5.195-1.054,7.071-2.929L225.728,109.48z
		 M179.493,77.387l25.021,25.021l-17.958,17.958l-25.021-25.021L179.493,77.387z M49.163,257.759l-25.021-25.021l17.958-17.959
		l12.832,12.832c1.953,1.952,4.512,2.929,7.071,2.929s5.118-0.977,7.071-2.929c3.905-3.905,3.905-10.237,0-14.143l-12.832-12.832
		l91.149-91.148l25.021,25.021L49.163,257.759z"/>
	<path d="M364.663,234.273c-3.906-3.904-10.236-3.904-14.143,0L181.028,403.766c-3.905,3.905-3.905,10.237,0,14.143l39.163,39.163
		c1.953,1.953,4.512,2.929,7.071,2.929c2.559,0,5.119-0.977,7.071-2.929l169.494-169.493c1.875-1.876,2.929-4.419,2.929-7.071
		s-1.054-5.196-2.929-7.071L364.663,234.273z M227.262,435.859l-25.021-25.021l17.959-17.959l12.831,12.832
		c1.953,1.952,4.512,2.929,7.071,2.929c2.559,0,5.118-0.977,7.071-2.929c3.905-3.905,3.905-10.237,0-14.143l-12.831-12.832
		l91.148-91.148l25.021,25.021L227.262,435.859z M364.655,298.465l-25.021-25.021l17.958-17.959l25.021,25.021L364.655,298.465z"/>
	<path d="M160.498,224.995c-3.885,0-7.537,1.514-10.281,4.259c-5.667,5.668-5.668,14.891,0,20.563
		c2.746,2.746,6.397,4.258,10.281,4.258s7.535-1.512,10.281-4.258c2.746-2.747,4.259-6.398,4.259-10.281
		c0-3.885-1.514-7.537-4.257-10.279C168.035,226.509,164.383,224.995,160.498,224.995z"/>
	<path d="M186.174,228.4c3.885,0,7.537-1.514,10.281-4.259c5.669-5.669,5.669-14.894,0.002-20.561
		c-2.746-2.747-6.398-4.261-10.283-4.261s-7.537,1.514-10.279,4.257c-2.747,2.746-4.261,6.398-4.261,10.283
		s1.514,7.537,4.257,10.279C178.637,226.886,182.289,228.4,186.174,228.4z"/>
	<path d="M211.85,173.645c-3.883,0-7.534,1.512-10.284,4.26c-5.666,5.67-5.665,14.893,0.002,20.561
		c2.747,2.746,6.398,4.259,10.282,4.259c3.883,0,7.534-1.513,10.281-4.259c5.667-5.668,5.668-14.891-0.002-20.564
		C219.383,175.156,215.732,173.645,211.85,173.645z"/>
	<path d="M237.525,147.969c-3.882,0-7.533,1.512-10.283,4.26c-5.665,5.668-5.665,14.892,0.004,20.563
		c2.746,2.744,6.397,4.256,10.279,4.256c3.884,0,7.535-1.512,10.281-4.258c5.669-5.67,5.669-14.894,0-20.563
		C245.06,149.481,241.408,147.969,237.525,147.969z"/>
	<path d="M263.2,122.293c-3.885,0-7.537,1.514-10.279,4.257c-2.747,2.746-4.261,6.398-4.261,10.283s1.514,7.537,4.259,10.281
		c2.746,2.746,6.397,4.258,10.281,4.258s7.535-1.512,10.279-4.256c2.747-2.746,4.261-6.398,4.261-10.283s-1.514-7.537-4.257-10.279
		C270.738,123.807,267.085,122.293,263.2,122.293z"/>
	<path d="M74.435,327.986c2.746,2.746,6.397,4.258,10.281,4.258s7.535-1.512,10.279-4.256c2.747-2.746,4.261-6.398,4.261-10.283
		s-1.514-7.537-4.257-10.279c-2.746-2.747-6.398-4.261-10.283-4.261s-7.537,1.514-10.279,4.257
		c-2.747,2.746-4.261,6.398-4.261,10.283S71.69,325.242,74.435,327.986z"/>
	<path d="M109.121,276.372c-3.885,0-7.537,1.514-10.279,4.257c-2.747,2.746-4.261,6.398-4.261,10.283s1.514,7.537,4.257,10.279
		c2.746,2.747,6.398,4.261,10.283,4.261c3.883,0,7.534-1.513,10.281-4.259c5.669-5.669,5.669-14.894,0-20.563
		C116.656,277.885,113.004,276.372,109.121,276.372z"/>
	<path d="M145.098,275.498c5.669-5.669,5.669-14.894-0.002-20.564c-2.746-2.744-6.397-4.256-10.279-4.256
		c-3.884,0-7.535,1.512-10.279,4.256c-2.747,2.746-4.261,6.398-4.261,10.283s1.514,7.537,4.257,10.279
		c2.746,2.747,6.398,4.261,10.283,4.261C138.699,279.757,142.351,278.244,145.098,275.498z"/>
	<path d="M221.507,74.935c3.885,0,7.537-1.514,10.279-4.257c2.747-2.746,4.261-6.398,4.261-10.283s-1.514-7.537-4.257-10.279
		c-2.746-2.747-6.398-4.261-10.283-4.261s-7.537,1.514-10.279,4.257c-2.747,2.746-4.261,6.398-4.261,10.283
		s1.514,7.537,4.257,10.279C213.97,73.421,217.622,74.935,221.507,74.935z"/>
	<path d="M288.876,96.618c-3.884,0-7.535,1.512-10.279,4.256c-2.747,2.746-4.261,6.398-4.261,10.283s1.514,7.537,4.257,10.279
		c2.746,2.747,6.398,4.261,10.283,4.261c3.883,0,7.534-1.513,10.281-4.259c5.669-5.669,5.669-14.894-0.002-20.564
		C296.409,98.13,292.758,96.618,288.876,96.618z"/>
	<path d="M247.143,49.299c3.883,0,7.534-1.513,10.281-4.259c5.667-5.668,5.668-14.891-0.002-20.564
		c-2.746-2.744-6.397-4.256-10.279-4.256c-3.883,0-7.534,1.512-10.284,4.26c-5.666,5.67-5.665,14.893,0.002,20.561
		C239.608,47.786,243.259,49.299,247.143,49.299z"/>
	<path d="M314.572,100.001c3.884,0,7.535-1.512,10.279-4.256c2.747-2.746,4.261-6.398,4.261-10.283s-1.514-7.537-4.257-10.279
		c-2.746-2.747-6.398-4.261-10.283-4.261s-7.537,1.514-10.279,4.257c-2.747,2.746-4.261,6.398-4.261,10.283
		s1.514,7.537,4.259,10.281C307.036,98.489,310.688,100.001,314.572,100.001z"/>
	<path d="M276.421,29.079c3.882,0,7.533-1.512,10.283-4.26c5.666-5.67,5.665-14.893-0.002-20.561C283.955,1.513,280.304,0,276.421,0
		c-3.885,0-7.537,1.514-10.279,4.257c-2.747,2.746-4.261,6.398-4.261,10.283c0,3.883,1.513,7.534,4.259,10.281
		C268.886,27.568,272.537,29.079,276.421,29.079z"/>
	<path d="M317.114,63.042c2.746,2.744,6.397,4.256,10.28,4.256c3.882,0,7.533-1.512,10.283-4.26
		c5.666-5.67,5.665-14.893-0.002-20.561c-2.747-2.746-6.398-4.259-10.281-4.259c-3.884,0-7.535,1.513-10.282,4.259
		C311.445,48.146,311.444,57.368,317.114,63.042z"/>
	<path d="M310.751,36.379c3.883,0,7.534-1.513,10.281-4.259c5.669-5.669,5.669-14.894,0-20.563
		c-2.747-2.746-6.398-4.259-10.281-4.259c-3.884,0-7.535,1.513-10.282,4.259c-5.669,5.669-5.669,14.894,0,20.563
		C303.216,34.866,306.867,36.379,310.751,36.379z"/>
</g>
<g>
</g>
<g>
</g>
<g>
</g>
<g>
</g>
<g>
</g>
<g>
</g>
<g>
</g>
<g>
</g>
<g>
</g>
<g>
</g>
<g>
</g>
<g>
</g>
<g>
</g>
<g>
</g>
<g>
</g>
</svg>
