<?xml version="1.0" encoding="iso-8859-1"?>
<!-- Generator: Adobe Illustrator 17.1.0, SVG Export Plug-In . SVG Version: 6.00 Build 0)  -->
<!DOCTYPE svg PUBLIC "-//W3C//DTD SVG 1.1//EN" "http://www.w3.org/Graphics/SVG/1.1/DTD/svg11.dtd">
<svg version="1.1" id="Capa_1" xmlns="http://www.w3.org/2000/svg" xmlns:xlink="http://www.w3.org/1999/xlink" x="0px" y="0px"
	 viewBox="0 0 460 460" style="enable-background:new 0 0 460 460;" xml:space="preserve">
<g>
	<path d="M388.95,59.809C346.338,44.471,289.889,36.024,230,36.024S113.662,44.471,71.05,59.809C25.233,76.3,0,99.526,0,125.209
		V252.43c0,28.267,29.689,52.911,83.684,69.608c22.025,59.451,79.3,101.938,146.316,101.938
		c67.012,0,124.284-42.482,146.312-101.928C430.333,305.354,460,280.729,460,252.43V125.209C460,99.526,434.767,76.3,388.95,59.809z
		 M230,56.024c123.756,0,210,36.461,210,69.185c0,19.784-31.889,40.681-81.835,54.018c-3.433-4.941-7.143-9.675-11.109-14.179
		c6.271-1.532,12.308-3.185,18.052-4.952c19.857-6.111,46.255-16.377,46.255-34.887s-26.398-28.775-46.255-34.887
		C327.802,78.841,279.82,72.518,230,72.518s-97.802,6.323-135.108,17.805c-19.857,6.111-46.255,16.377-46.255,34.887
		s26.398,28.775,46.255,34.887c5.743,1.768,11.78,3.42,18.052,4.951c-3.966,4.504-7.676,9.238-11.109,14.18
		C51.888,165.89,20,144.992,20,125.209C20,92.485,106.244,56.024,230,56.024z M130.016,148.395
		c-10.401-2.149-20.218-4.638-29.241-7.414c-26.038-8.014-31.154-14.335-32.017-15.771c0.863-1.437,5.979-7.758,32.017-15.771
		C136.227,98.526,182.12,92.518,230,92.518s93.773,6.009,129.225,16.92c26.038,8.014,31.154,14.335,32.017,15.771
		c-0.863,1.437-5.979,7.758-32.017,15.771c-9.025,2.777-18.843,5.266-29.241,7.414c-27.092-22.685-61.968-36.362-99.984-36.362
		C191.984,112.032,157.107,125.71,130.016,148.395z M20,252.43v-89.57c15.488,13.539,39.61,25.235,71.131,34.174
		c-10.93,21.301-17.102,45.429-17.102,70.971c0,10.515,1.053,20.787,3.046,30.725C41.475,285.74,20,268.578,20,252.43z M230,403.976
		c-74.975,0-135.972-60.997-135.972-135.972c0-26.326,7.529-50.923,20.534-71.767c0.054-0.08,0.103-0.164,0.154-0.246
		c24.062-38.381,66.739-63.959,115.284-63.959c74.975,0,135.972,60.997,135.972,135.972S304.975,403.976,230,403.976z
		 M382.927,298.725c1.993-9.936,3.045-20.207,3.045-30.721c0-25.542-6.172-49.67-17.102-70.971
		c31.521-8.938,55.643-20.634,71.131-34.173v89.569C440,268.611,418.548,285.734,382.927,298.725z"/>
	<path d="M230,148.525c-65.881,0-119.479,53.598-119.479,119.479S164.119,387.482,230,387.482c25.198,0,49.3-7.758,69.7-22.435
		c4.483-3.225,5.503-9.474,2.278-13.957c-3.226-4.482-9.475-5.501-13.958-2.277c-16.977,12.213-37.04,18.669-58.021,18.669
		c-54.853,0-99.479-44.626-99.479-99.479s44.626-99.479,99.479-99.479s99.479,44.626,99.479,99.479
		c0,20.979-6.456,41.043-18.669,58.021c-3.225,4.483-2.205,10.732,2.278,13.958c4.484,3.226,10.733,2.205,13.958-2.278
		c14.676-20.401,22.434-44.503,22.434-69.7C349.479,202.123,295.881,148.525,230,148.525z"/>
	<path d="M293.175,209.615c0-5.522-4.477-10-10-10H176.825c-5.523,0-10,4.478-10,10s4.477,10,10,10h21.319
		c-15.713,10.379-26.106,28.189-26.106,48.389s10.393,38.01,26.106,48.389h-21.319c-5.523,0-10,4.478-10,10s4.477,10,10,10h106.351
		c5.523,0,10-4.478,10-10s-4.477-10-10-10h-21.319c15.713-10.379,26.106-28.189,26.106-48.389s-10.393-38.01-26.106-48.389h21.319
		C288.698,219.615,293.175,215.138,293.175,209.615z M230,305.966c-20.932,0-37.962-17.029-37.962-37.962
		s17.03-37.962,37.962-37.962s37.962,17.029,37.962,37.962S250.932,305.966,230,305.966z"/>
</g>
<g>
</g>
<g>
</g>
<g>
</g>
<g>
</g>
<g>
</g>
<g>
</g>
<g>
</g>
<g>
</g>
<g>
</g>
<g>
</g>
<g>
</g>
<g>
</g>
<g>
</g>
<g>
</g>
<g>
</g>
</svg>
