<?xml version="1.0" encoding="iso-8859-1"?>
<!-- Generator: Adobe Illustrator 17.1.0, SVG Export Plug-In . SVG Version: 6.00 Build 0)  -->
<!DOCTYPE svg PUBLIC "-//W3C//DTD SVG 1.1//EN" "http://www.w3.org/Graphics/SVG/1.1/DTD/svg11.dtd">
<svg version="1.1" id="Capa_1" xmlns="http://www.w3.org/2000/svg" xmlns:xlink="http://www.w3.org/1999/xlink" x="0px" y="0px"
	 viewBox="0 0 460 460" style="enable-background:new 0 0 460 460;" xml:space="preserve">
<g>
	<path d="M388.95,57.201C346.339,41.864,289.889,33.418,230,33.418S113.661,41.864,71.05,57.201C25.233,73.692,0,96.919,0,122.603
		v127.221c0,26.408,26.224,49.856,74.028,66.442v39.949c0,48.609,78.336,70.367,155.972,70.367s155.972-21.758,155.972-70.367
		v-39.949C433.776,299.68,460,276.231,460,249.823V122.603C460,96.919,434.767,73.692,388.95,57.201z M230,53.418
		c123.756,0,210,36.461,210,69.185c0,15.859-20.146,32.443-54.53,45.368c-0.858-5.564-2.812-10.737-5.705-15.535
		c16.081-6.31,31.62-15.638,31.598-29.861c-0.029-18.493-26.413-28.751-46.255-34.858C327.802,76.234,279.82,69.911,230,69.911
		s-97.802,6.323-135.108,17.805c-19.842,6.107-46.226,16.365-46.255,34.858c-0.022,14.224,15.517,23.552,31.598,29.861
		c-2.892,4.798-4.846,9.971-5.705,15.534C40.138,155.044,20,138.476,20,122.603C20,89.879,106.244,53.418,230,53.418z
		 M94.891,136.473c-20.941-7.099-25.339-12.55-26.133-13.87c0.863-1.436,5.977-7.757,32.017-15.771
		C136.227,95.92,182.12,89.911,230,89.911s93.773,6.009,129.225,16.92c26.041,8.015,31.155,14.336,32.018,15.771
		c-0.793,1.32-5.191,6.771-26.133,13.87c-28.436-22.051-81.935-32.261-135.109-32.261S123.327,114.422,94.891,136.473z M20,249.823
		v-89.518c12.506,10.913,30.694,20.644,54.028,28.74v105.953C39.943,282.103,20,265.619,20,249.823z M326.905,392.104
		c-25.029,9.2-60.35,14.478-96.905,14.478s-71.876-5.277-96.905-14.478c-17.822-6.552-39.066-18.097-39.066-35.89v-47.074v-0.002
		V181.921v-0.002v-7.34c0-7.389,3.67-13.696,9.23-19.021c0.406-0.318,0.783-0.674,1.137-1.055
		c7.788-6.964,18.772-12.165,28.699-15.814c25.029-9.2,60.35-14.478,96.905-14.478s71.876,5.277,96.905,14.478
		c9.915,3.645,20.884,8.838,28.67,15.789c0.353,0.382,0.733,0.733,1.138,1.054c5.576,5.329,9.259,11.646,9.259,19.047v134.56v0.002
		v47.074C365.972,374.008,344.727,385.553,326.905,392.104z M385.972,294.999V189.047c23.332-8.097,41.521-17.83,54.028-28.746
		v89.522C440,265.619,420.057,282.103,385.972,294.999z"/>
	<path d="M340.836,170.438c-3.087-2.69-12.636-9.589-34.595-15.531c-21.417-5.796-48.493-8.988-76.241-8.988
		s-54.824,3.192-76.241,8.988c-21.959,5.942-31.508,12.841-34.595,15.531c-2.179,1.898-3.429,4.647-3.429,7.538v174.844
		c0,2.891,1.251,5.641,3.431,7.539c3.087,2.69,12.638,9.588,34.594,15.529c21.417,5.796,48.493,8.988,76.241,8.988
		s54.824-3.192,76.241-8.988c21.956-5.941,31.507-12.839,34.594-15.529c2.18-1.898,3.431-4.648,3.431-7.539v-69.697
		c0-5.522-4.477-10-10-10s-10,4.478-10,10v64.493c-3.762,2.205-10.934,5.635-23.249,8.968c-19.762,5.348-44.983,8.293-71.017,8.293
		s-51.254-2.945-71.017-8.293c-12.315-3.333-19.487-6.763-23.249-8.968V183.18c3.762-2.206,10.933-5.636,23.249-8.969
		c19.762-5.348,44.983-8.293,71.017-8.293s51.254,2.945,71.017,8.293c12.316,3.333,19.487,6.763,23.249,8.969v64.492
		c0,5.522,4.477,10,10,10s10-4.478,10-10v-69.696C344.266,175.085,343.015,172.336,340.836,170.438z"/>
	<path d="M190.677,344.729h78.646c5.523,0,10-4.478,10-10v-41.041l16.098-6.16c3.477-1.331,5.927-4.482,6.359-8.18
		c3.244-27.772-3.714-53.608-19.089-70.883c-13.043-14.655-31.264-22.402-52.69-22.402s-39.647,7.747-52.69,22.402
		c-15.375,17.274-22.333,43.11-19.089,70.883c0.432,3.697,2.882,6.849,6.359,8.18l16.098,6.16v41.041
		C180.677,340.252,185.154,344.729,190.677,344.729z M177.575,271.087c-1.085-19.748,4.139-37.486,14.675-49.324
		c9.271-10.417,21.972-15.699,37.75-15.699s28.479,5.282,37.75,15.699c10.536,11.838,15.76,29.576,14.675,49.324l-16.676,6.381
		c-3.871,1.481-6.426,5.196-6.426,9.34v37.922h-6.215v-10.732c0-5.522-4.477-10-10-10s-10,4.478-10,10v10.732h-6.215v-10.732
		c0-5.522-4.477-10-10-10s-10,4.478-10,10v10.732h-6.215v-37.922c0-4.144-2.556-7.858-6.426-9.34L177.575,271.087z"/>
	<path d="M204.829,258.406c1.094,0.384,2.209,0.565,3.307,0.565c4.129,0,7.995-2.578,9.438-6.696
		c1.826-5.212-0.918-10.918-6.131-12.744l-7.472-2.618c-5.212-1.828-10.918,0.919-12.744,6.131s0.918,10.918,6.131,12.744
		L204.829,258.406z"/>
	<path d="M251.865,258.972c1.097,0,2.213-0.183,3.307-0.565l7.472-2.618c5.212-1.826,7.957-7.532,6.131-12.744
		s-7.532-7.955-12.744-6.131l-7.472,2.618c-5.212,1.826-7.957,7.532-6.131,12.744C243.87,256.394,247.735,258.972,251.865,258.972z"
		/>
</g>
<g>
</g>
<g>
</g>
<g>
</g>
<g>
</g>
<g>
</g>
<g>
</g>
<g>
</g>
<g>
</g>
<g>
</g>
<g>
</g>
<g>
</g>
<g>
</g>
<g>
</g>
<g>
</g>
<g>
</g>
</svg>
