<?xml version="1.0" encoding="iso-8859-1"?>
<!-- Generator: Adobe Illustrator 17.1.0, SVG Export Plug-In . SVG Version: 6.00 Build 0)  -->
<!DOCTYPE svg PUBLIC "-//W3C//DTD SVG 1.1//EN" "http://www.w3.org/Graphics/SVG/1.1/DTD/svg11.dtd">
<svg version="1.1" id="Capa_1" xmlns="http://www.w3.org/2000/svg" xmlns:xlink="http://www.w3.org/1999/xlink" x="0px" y="0px"
	 viewBox="0 0 460 460" style="enable-background:new 0 0 460 460;" xml:space="preserve">
<g>
	<path d="M404.751,389.58c-20.373-44.261-18.938-74.314-17.12-112.365c0.577-12.08,1.174-24.572,1.174-38.624
		c0-40.094-11.046-77.083-31.943-106.969c-18.971-27.129-44.916-47.181-75.202-58.176L238.468,4.681C236.639,1.769,233.44,0,230,0
		s-6.639,1.769-8.468,4.681L178.34,73.446c-30.284,10.994-56.229,31.046-75.2,58.174c-20.898,29.886-31.944,66.876-31.944,106.971
		c0,14.052,0.597,26.544,1.174,38.624c1.817,38.051,3.253,68.104-17.12,112.365c-1.185,2.574-1.222,5.529-0.103,8.132
		s3.289,4.608,5.972,5.52l165.667,56.238c1.043,0.354,2.129,0.53,3.215,0.53s2.172-0.177,3.215-0.53l165.667-56.238
		c2.683-0.911,4.853-2.917,5.972-5.52S405.936,392.154,404.751,389.58z M230,28.801l28.411,45.234
		c-10.917,3.09-20.76,9.178-28.411,17.594c-7.652-8.416-17.494-14.504-28.411-17.594L230,28.801z M230,439.439L77.838,387.785
		c17.762-43.369,16.246-75.145,14.509-111.524c-0.566-11.846-1.151-24.096-1.151-37.67c0-69.046,37.364-126.45,95.326-146.806
		c13.815,0.528,26.349,7.939,33.479,19.771v123.63c0,5.522,4.478,10,10,10s10-4.478,10-10v-123.63
		c7.13-11.831,19.664-19.242,33.479-19.771c57.961,20.357,95.326,77.762,95.326,146.806c0,13.574-0.585,25.824-1.151,37.67
		c-1.737,36.38-3.253,68.155,14.509,111.524L230,439.439z"/>
	<path d="M205.932,242.26l-87.674-36.771c-2.956-1.24-6.328-0.987-9.067,0.68c-2.738,1.667-4.512,4.547-4.768,7.742
		c-2.079,25.921,12.639,50.095,36.622,60.153c7.409,3.107,15.21,4.683,23.187,4.683c17.434,0,33.978-7.551,45.39-20.716
		c2.1-2.423,2.911-5.705,2.181-8.827S208.889,243.5,205.932,242.26z M164.231,258.747c-5.307,0-10.505-1.052-15.451-3.126
		c-11.235-4.712-19.422-14.07-22.817-25.213l56.779,23.813C177.092,257.163,170.756,258.747,164.231,258.747z"/>
	<path d="M350.81,206.169c-2.738-1.666-6.109-1.92-9.067-0.68l-87.674,36.771c-2.957,1.24-5.14,3.822-5.87,6.944
		s0.081,6.404,2.181,8.827c11.412,13.165,27.956,20.716,45.39,20.716c7.977,0,15.777-1.575,23.186-4.683
		c23.984-10.059,38.702-34.232,36.623-60.153C355.321,210.716,353.548,207.836,350.81,206.169z M311.219,255.621
		c-4.945,2.074-10.144,3.126-15.45,3.126c-6.524,0-12.86-1.584-18.511-4.525l56.779-23.813
		C330.642,241.551,322.455,250.909,311.219,255.621z"/>
	<path d="M230,257.778c-5.522,0-10,4.478-10,10V419.63c0,5.522,4.478,10,10,10s10-4.478,10-10V267.778
		C240,262.256,235.522,257.778,230,257.778z"/>
</g>
<g>
</g>
<g>
</g>
<g>
</g>
<g>
</g>
<g>
</g>
<g>
</g>
<g>
</g>
<g>
</g>
<g>
</g>
<g>
</g>
<g>
</g>
<g>
</g>
<g>
</g>
<g>
</g>
<g>
</g>
</svg>
