<?xml version="1.0" encoding="iso-8859-1"?>
<!-- Generator: Adobe Illustrator 17.1.0, SVG Export Plug-In . SVG Version: 6.00 Build 0)  -->
<!DOCTYPE svg PUBLIC "-//W3C//DTD SVG 1.1//EN" "http://www.w3.org/Graphics/SVG/1.1/DTD/svg11.dtd">
<svg version="1.1" id="Capa_1" xmlns="http://www.w3.org/2000/svg" xmlns:xlink="http://www.w3.org/1999/xlink" x="0px" y="0px"
	 viewBox="0 0 460 460" style="enable-background:new 0 0 460 460;" xml:space="preserve">
<g>
	<path d="M293.077,105.589c-3.737-1.546-8.038-0.691-10.898,2.168L150.292,239.644c-2.86,2.86-3.716,7.161-2.168,10.898
		c1.548,3.736,5.194,6.173,9.239,6.173H289.25c5.523,0,10-4.478,10-10V114.828C299.25,110.783,296.813,107.137,293.077,105.589z
		 M279.25,236.715h-97.745l97.745-97.745V236.715z"/>
	<path d="M292.506,48.51C272.425,41.595,251.396,38.088,230,38.088C124.179,38.088,38.087,124.18,38.087,230
		c0,105.821,86.092,191.913,191.913,191.913c21.392,0,42.422-3.507,62.506-10.422c4.035-1.39,6.744-5.188,6.744-9.455v-98.201
		c0-5.522-4.477-10-10-10H110.509v-42.978L296.321,65.046c1.875-1.876,2.929-4.429,2.929-7.081
		C299.25,53.697,296.542,49.899,292.506,48.51z M93.438,239.644c-1.875,1.876-2.929,4.419-2.929,7.071v57.12c0,5.522,4.477,10,10,10
		H279.25v80.913c-15.928,4.758-32.461,7.165-49.25,7.165c-94.793,0-171.913-77.12-171.913-171.913S135.207,58.088,230,58.088
		c13.65,0,27.13,1.591,40.252,4.742L93.438,239.644z"/>
	<path d="M392.635,67.365C349.193,23.924,291.436,0,230,0C168.565,0,110.807,23.924,67.366,67.365C23.924,110.807,0,168.564,0,230
		s23.924,119.193,67.366,162.635C110.807,436.076,168.565,460,230,460c61.436,0,119.193-23.924,162.635-67.365
		C436.076,349.193,460,291.436,460,230S436.076,110.807,392.635,67.365z M230,440c-115.794,0-210-94.206-210-210S114.206,20,230,20
		s210,94.206,210,210S345.794,440,230,440z"/>
	<path d="M396.293,293.835H346.37c-5.523,0-10,4.478-10,10v65.983c0,3.88,2.245,7.41,5.758,9.056
		c1.354,0.634,2.801,0.944,4.24,0.944c2.296,0,4.57-0.79,6.403-2.317c22.561-18.799,40.771-42.867,52.66-69.603
		c1.375-3.094,1.093-6.673-0.752-9.512C402.834,295.548,399.679,293.835,396.293,293.835z M356.37,346.521v-32.687h23.731
		C373.51,325.586,365.52,336.587,356.37,346.521z"/>
	<path d="M352.771,82.5c-2.98-2.484-7.129-3.018-10.643-1.373c-3.514,1.646-5.758,5.176-5.758,9.056v156.532c0,5.522,4.477,10,10,10
		h64.771c5.171,0,9.489-3.942,9.958-9.092c0.54-5.92,0.813-11.849,0.813-17.623C421.913,172.873,396.711,119.111,352.771,82.5z
		 M401.778,236.715H356.37V113.446c29.17,31.583,45.543,72.977,45.543,116.554C401.913,232.215,401.868,234.457,401.778,236.715z"/>
</g>
<g>
</g>
<g>
</g>
<g>
</g>
<g>
</g>
<g>
</g>
<g>
</g>
<g>
</g>
<g>
</g>
<g>
</g>
<g>
</g>
<g>
</g>
<g>
</g>
<g>
</g>
<g>
</g>
<g>
</g>
</svg>
