<?xml version="1.0" encoding="utf-8"?>
<!-- Generator: Adobe Illustrator 17.1.0, SVG Export Plug-In . SVG Version: 6.00 Build 0)  -->
<!DOCTYPE svg PUBLIC "-//W3C//DTD SVG 1.1//EN" "http://www.w3.org/Graphics/SVG/1.1/DTD/svg11.dtd">
<svg version="1.1" id="love-stamp-22" xmlns="http://www.w3.org/2000/svg" xmlns:xlink="http://www.w3.org/1999/xlink" x="0px"
	 y="0px" viewBox="0 0 1009.9956 1009.9956" enable-background="new 0 0 1009.9956 1009.9956" xml:space="preserve">
<g id="love-stamp-22-stamp">
	<path fill="#FEFEFB" d="M986.7769,134.5542c0-12.8418,10.08-23.2373,23.2188-23.2373V90.4263
		c-13.1387,0-23.2188-10.4155-23.2188-23.2378c0-12.8222,10.08-23.2182,23.2188-23.2182V22.8238c0,0-0.3555,0-0.4346,0
		c-6.1152,0-12.1904-2.3867-16.5107-6.7071C988.7895,11.836,986.2446,5.8394,986.1851,0h-20.6338
		c0,12.4078-10.3955,23.2378-23.2178,23.2378c-12.8027,0-23.1983-10.83-23.1983-23.2378h-20.8906
		c0,12.4078-10.3956,23.2378-23.2178,23.2378c-12.8223,0-23.1982-10.83-23.1982-23.2378H830.938
		c0,12.4078-10.3955,23.2378-23.2178,23.2378c-12.8223,0-23.1982-10.83-23.1982-23.2378h-20.8907
		c0,12.4078-10.3955,23.2378-23.2177,23.2378c-12.8223,0-23.2188-10.83-23.2188-23.2378h-20.8896
		c0,12.4078-10.376,23.2378-23.1983,23.2378c-12.8222,0-23.2187-10.83-23.2187-23.2378h-20.8897
		c0,12.4078-10.3759,23.2378-23.1982,23.2378S582.5815,12.4078,582.5815,0h-20.8896c0,12.4078-10.3965,23.2378-23.1983,23.2378
		c-12.8222,0-23.2187-10.83-23.2187-23.2378h-20.8901c0,12.4078-10.396,23.2378-23.2183,23.2378
		c-12.8022,0-23.1982-10.83-23.1982-23.2378h-20.8902c0,12.4078-10.396,23.2378-23.2182,23.2378
		c-12.8023,0-23.1983-10.83-23.1983-23.2378h-20.8901c0,12.4078-10.396,23.2378-23.2183,23.2378
		c-12.8222,0-23.1982-10.83-23.1982-23.2378h-20.8902c0,12.4078-10.396,23.2378-23.2182,23.2378
		c-12.8223,0-23.2178-10.83-23.2178-23.2378h-20.8711c0,12.4078-10.3955,23.2378-23.2178,23.2378
		c-12.8222,0-23.2177-10.83-23.2177-23.2378h-20.8907c0,12.4078-10.3759,23.2378-23.1982,23.2378S111.4155,12.4078,111.4155,0
		H90.5249c0,12.4078-10.3955,23.2378-23.1982,23.2378c-12.8223,0-23.2178-10.83-23.2178-23.2378h-20.792
		c-0.0591,5.8394-2.5249,11.836-6.7861,16.1167c-4.3199,4.3204-10.3169,6.7461-16.4322,6.7461C0.0791,22.8628,0,22.8238,0,22.8238
		v20.5547c12.7632,0,23.1987,10.396,23.1987,23.2382c0,12.8218-10.4355,23.2178-23.1987,23.2178v20.9102
		c12.7632,0,23.1987,10.3955,23.1987,23.2177c0,12.8223-10.4355,23.2383-23.1987,23.2383v20.8897
		c12.7632,0,23.1987,10.416,23.1987,23.2383c0,12.8222-10.4355,23.2177-23.1987,23.2177v20.9102
		c12.7632,0,23.1987,10.3955,23.1987,23.2178c0,12.8422-10.4355,23.2382-23.1987,23.2382v20.9102
		c12.7632,0,23.1987,10.3955,23.1987,23.2178c0,12.8222-10.4355,23.2177-23.1987,23.2177v20.9102
		c12.7632,0,23.1987,10.396,23.1987,23.2378c0,12.8223-10.4355,23.2183-23.1987,23.2183v20.9101
		c12.7632,0,23.1987,10.3955,23.1987,23.2178c0,12.8222-10.4355,23.2378-23.1987,23.2378v20.8901
		c12.7632,0,23.1987,10.3965,23.1987,23.2383c0,12.8223-10.4355,23.2178-23.1987,23.2178v20.9101
		c12.7632,0,23.1987,10.3955,23.1987,23.2178c0,12.8223-10.4355,23.2383-23.1987,23.2383v20.8906
		c12.7632,0,23.1987,10.3955,23.1987,23.2373c0,12.8223-10.4355,23.2178-23.1987,23.2178v20.9101
		c12.7632,0,23.1987,10.3965,23.1987,23.2178c0,12.8428-10.4355,23.2383-23.1987,23.2383v20.8896
		c12.7632,0,23.1987,10.4161,23.1987,23.2383c0,12.8223-10.4355,23.2178-23.1987,23.2178v20.9102
		c12.7632,0,23.1987,10.3955,23.1987,23.2382c0,12.8213-10.4355,23.2178-23.1987,23.2178v20.9102
		c12.7632,0,23.1987,10.3955,23.1987,23.2177c0,12.8223-10.4355,23.2178-23.1987,23.2178v21.0088c0,0,0.0791,0,0.0986,0
		c6.1153,0,12.1123,2.6631,16.4322,7.0029c4.3007,4.3008,6.7666,10.6719,6.7861,16.5117h20.792
		c0-13.1386,10.3955-23.2188,23.2178-23.2188c12.8027,0,23.1982,10.0801,23.1982,23.2188h20.8906
		c0-13.1386,10.3955-23.2188,23.2178-23.2188s23.1982,10.0801,23.1982,23.2188h20.8907c0-13.1386,10.3955-23.2188,23.2177-23.2188
		c12.8223,0,23.2178,10.0801,23.2178,23.2188h20.8711c0-13.1386,10.3955-23.2188,23.2178-23.2188
		c12.8222,0,23.2182,10.0801,23.2182,23.2188h20.8902c0-13.1386,10.376-23.2188,23.1982-23.2188
		c12.8223,0,23.2183,10.0801,23.2183,23.2188h20.8901c0-13.1386,10.396-23.2188,23.1983-23.2188
		c12.8222,0,23.2182,10.0801,23.2182,23.2188h20.8902c0-13.1386,10.396-23.2188,23.1982-23.2188
		c12.8223,0,23.2183,10.0801,23.2183,23.2188h20.8901c0-13.1386,10.3965-23.2188,23.2187-23.2188
		c12.8018,0,23.1983,10.0801,23.1983,23.2188h20.8896c0-13.1386,10.3965-23.2188,23.2188-23.2188s23.1982,10.0801,23.1982,23.2188
		h20.8897c0-13.1386,10.3965-23.2188,23.2187-23.2188c12.8223,0,23.1983,10.0801,23.1983,23.2188h20.8896
		c0-13.1386,10.3965-23.2188,23.2188-23.2188c12.8222,0,23.2177,10.0801,23.2177,23.2188h20.8907
		c0-13.1386,10.3759-23.2188,23.1982-23.2188c12.8223,0,23.2178,10.0801,23.2178,23.2188h20.8906
		c0-13.1386,10.376-23.2188,23.1982-23.2188c12.8222,0,23.2178,10.0801,23.2178,23.2188h20.8906
		c0-13.1386,10.3956-23.2188,23.1983-23.2188c12.8223,0,23.2178,10.0801,23.2178,23.2188h20.6338
		c0.0195-5.8398,2.4863-12.2109,6.7861-16.5117c4.3203-4.3398,10.4746-6.9043,16.5898-6.9043c0.0791,0,0.4346-0.0986,0.4346-0.0781
		V966.064c-13.1387,0-23.2188-10.3955-23.2188-23.2178c0-12.8418,10.08-23.2373,23.2188-23.2373v-20.9101
		c-13.1387,0-23.2188-10.3965-23.2188-23.2188c0-12.8222,10.08-23.2373,23.2188-23.2373v-20.8906
		c-13.1387,0-23.2188-10.3954-23.2188-23.2372c0-12.8223,10.08-23.2188,23.2188-23.2188v-20.9102
		c-13.1387,0-23.2188-10.3955-23.2188-23.2178c0-12.8213,10.08-23.2373,23.2188-23.2373v-20.8906
		c-13.1387,0-23.2188-10.416-23.2188-23.2373c0-12.8223,10.08-23.2188,23.2188-23.2188v-20.9092
		c-13.1387,0-23.2188-10.3964-23.2188-23.2187c0-12.8419,10.08-23.2373,23.2188-23.2373v-20.9102
		c-13.1387,0-23.2188-10.3955-23.2188-23.2177c0-12.8223,10.08-23.2188,23.2188-23.2188v-20.9101
		c-13.1387,0-23.2188-10.3956-23.2188-23.2178c0-12.8418,10.08-23.2378,23.2188-23.2378v-20.9097
		c-13.1387,0-23.2188-10.3965-23.2188-23.2182c0-12.8423,10.08-23.2183,23.2188-23.2183v-20.9102
		c-13.1387,0-23.2188-10.3955-23.2188-23.2373c0-12.8222,10.08-23.2182,23.2188-23.2182v-20.9102
		c-13.1387,0-23.2188-10.396-23.2188-23.2182c0-12.8418,10.08-23.2374,23.2188-23.2374v-20.8906
		c-13.1387,0-23.2188-10.4155-23.2188-23.2378c0-12.8217,10.08-23.2182,23.2188-23.2182v-20.9097
		C996.8569,157.7725,986.7769,147.3765,986.7769,134.5542z"/>
	<g>
		<rect x="81.6675" y="81.2339" fill="#EC7175" width="846.3447" height="846.9756"/>
		<path opacity="0.05" d="M920.1411,89.1246v831.1943H89.5386V89.1246H920.1411 M935.9028,73.3628H73.7768v862.7168h862.126V73.3628
			L935.9028,73.3628z"/>
	</g>
</g>
<g id="love-stamp-22-heart-beat">
	<path fill="#FEFEFB" d="M567.2944,542.1031c-38.497,15.4658-53.9131,36.3359-53.9131,36.3359s-15.416-20.8701-53.9321-36.3359
		c-45.1636-18.2071-51.0224-89.5977,3.7778-102.8833c22.1827-5.3658,39.0684,2.7124,50.1543,18.2768
		c11.0567-15.5644,27.9522-23.6426,50.1651-18.2768C618.3159,452.5054,612.438,523.896,567.2944,542.1031z"/>
	<g>
		<path fill="#9F5F5E" d="M382.1411,410.6065c-0.7988-0.8482-1.6767-1.6177-2.5937-2.2095
			c-6.4209-4.4087-15.1797-3.9057-21.0186,1.6865c-54.6621,52.1866-56.6348,139.1016-4.4189,193.7832
			c6.4013,6.668,16.9453,6.9043,23.6128,0.5332c6.687-6.372,6.914-16.9648,0.5424-23.5937
			c-39.4433-41.3262-37.9443-107.0947,3.3238-146.5869C388.2759,427.8575,388.4932,417.3135,382.1411,410.6065z"/>
		<path fill="#9F5F5E" d="M277.8081,505.1851c1.085-46.8799,20.3281-90.4951,54.208-122.8467
			c6.6382-6.4111,6.8848-16.9551,0.4932-23.6318c-0.7691-0.8486-1.647-1.5781-2.5742-2.21
			c-6.3614-4.4385-15.1993-3.9253-21.0381,1.667c-40.3213,38.5557-63.2139,90.4951-64.4859,146.272
			c-1.2622,55.7573,19.253,108.6831,57.7788,149.0229c6.4307,6.7071,16.9649,6.9043,23.6421,0.5332
			c6.6577-6.3515,6.8946-16.9648,0.523-23.6523C293.9639,596.4888,276.7134,552.065,277.8081,505.1851z"/>
		<path fill="#9F5F5E" d="M210.2251,503.6167c1.4795-64.8603,28.1299-125.3027,75.0791-170.1406
			c6.6675-6.4111,6.9043-16.9648,0.5322-23.6621c-0.8086-0.8184-1.6865-1.5684-2.6035-2.1894
			c-6.3818-4.4288-15.1699-3.9161-21.0088,1.6865c-53.4189,51.0127-83.7192,119.7597-85.396,193.5561
			c-1.6865,73.856,25.4673,143.9048,76.4795,197.3433c6.4312,6.668,16.9746,6.8848,23.6519,0.4736
			c6.6382-6.332,6.914-16.9248,0.5132-23.6318C232.6538,630.1421,208.7554,568.5367,210.2251,503.6167z"/>
		<path fill="#9F5F5E" d="M651.4663,410.0835c-5.8291-5.5922-14.6172-6.0952-21.0176-1.6865
			c-0.9277,0.5918-1.7861,1.3613-2.6045,2.2095c-6.3623,6.707-6.125,17.251,0.542,23.6128
			c41.2881,39.4922,42.7871,105.2607,3.334,146.5869c-6.3613,6.6288-6.1445,17.2217,0.543,23.5937
			c6.6679,6.3711,17.2109,6.1348,23.6025-0.5332C708.1011,549.1851,706.1089,462.2701,651.4663,410.0835z"/>
		<path fill="#9F5F5E" d="M701.0884,358.1636c-5.8291-5.5923-14.6768-6.1055-21.0283-1.667c-0.9572,0.6319-1.8243,1.3614-2.584,2.21
			c-6.3916,6.6767-6.1348,17.2207,0.5127,23.6318c33.8701,32.3516,53.1035,75.9668,54.1884,122.8467
			c1.0957,46.8799-16.166,91.3037-48.5371,125.1543c-6.3906,6.6875-6.1445,17.3008,0.5137,23.6523
			c6.6768,6.3711,17.2305,6.1739,23.6318-0.5332c38.5362-40.3398,59.0616-93.2656,57.7989-149.0229
			C764.312,448.6587,741.4097,396.7193,701.0884,358.1636z"/>
		<path fill="#9F5F5E" d="M747.771,309.3111c-5.8486-5.6026-14.6563-6.1153-21.0283-1.6865c-0.917,0.621-1.7754,1.371-2.6035,2.1894
			c-6.3622,6.6973-6.125,17.251,0.5518,23.6621c46.9395,44.8379,73.5898,105.2803,75.0596,170.1406
			c1.4892,64.92-22.4092,126.5254-67.2471,173.4356c-6.3916,6.707-6.125,17.2997,0.5225,23.6318
			c6.6767,6.4112,17.2314,6.1944,23.6318-0.4736c51.043-53.4385,78.1963-123.4873,76.5195-197.3433
			C831.5005,429.0708,801.1714,360.3238,747.771,309.3111z"/>
	</g>
</g>
</svg>
