<?xml version="1.0" encoding="utf-8"?>
<!-- Generator: Adobe Illustrator 17.1.0, SVG Export Plug-In . SVG Version: 6.00 Build 0)  -->
<!DOCTYPE svg PUBLIC "-//W3C//DTD SVG 1.1//EN" "http://www.w3.org/Graphics/SVG/1.1/DTD/svg11.dtd">
<svg version="1.1" id="love-stamp-1" xmlns="http://www.w3.org/2000/svg" xmlns:xlink="http://www.w3.org/1999/xlink" x="0px"
	 y="0px" viewBox="0 0 1010.0005 1009.9956" enable-background="new 0 0 1010.0005 1009.9956" xml:space="preserve">
<g id="love-stamp-1-stamp">
	<path fill="#FEFEFB" d="M986.7818,134.5445c0-12.8321,10.08-23.2276,23.2187-23.2276V90.4165
		c-13.1387,0-23.2187-10.4057-23.2187-23.228c0-12.8222,10.08-23.228,23.2187-23.228V22.8238c0,0-0.3555,0-0.4346,0
		c-6.1152,0-12.1904-2.3867-16.5107-6.7071C988.7944,11.836,986.2495,5.8394,986.19,0h-20.6339
		c0,12.4078-10.3954,23.2378-23.2178,23.2378c-12.8027,0-23.1983-10.83-23.1983-23.2378h-20.8906
		c0,12.4078-10.3955,23.2378-23.2177,23.2378c-12.8223,0-23.1983-10.83-23.1983-23.2378h-20.8906
		c0,12.4078-10.3955,23.2378-23.2178,23.2378c-12.8223,0-23.1982-10.83-23.1982-23.2378h-20.8907
		c0,12.4078-10.3955,23.2378-23.2177,23.2378c-12.8223,0-23.2188-10.83-23.2188-23.2378h-20.8896
		c0,12.4078-10.376,23.2378-23.1982,23.2378c-12.8222,0-23.2188-10.83-23.2188-23.2378h-20.8896
		c0,12.4078-10.3759,23.2378-23.1982,23.2378c-12.8223,0-23.2188-10.83-23.2188-23.2378h-20.8896
		c0,12.4078-10.3965,23.2378-23.1983,23.2378c-12.8222,0-23.2187-10.83-23.2187-23.2378H494.395
		c0,12.4078-10.3965,23.2378-23.2187,23.2378c-12.812,0-23.1983-10.83-23.1983-23.2378h-20.8901
		c0,12.4078-10.396,23.2378-23.2183,23.2378c-12.812,0-23.208-10.83-23.208-23.2378h-20.8803
		c0,12.4078-10.396,23.2378-23.2183,23.2378c-12.8223,0-23.208-10.83-23.208-23.2378h-20.8906
		c0,12.4078-10.3858,23.2378-23.208,23.2378c-12.8223,0-23.2178-10.83-23.2178-23.2378h-20.8809
		c0,12.4078-10.3955,23.2378-23.208,23.2378c-12.8222,0-23.2178-10.83-23.2178-23.2378h-20.8906
		c0,12.4078-10.3857,23.2378-23.1982,23.2378c-12.8223,0-23.2178-10.83-23.2178-23.2378H90.5347
		c0,12.4078-10.3955,23.2378-23.208,23.2378S44.1187,12.4078,44.1187,0h-20.792c-0.0591,5.8394-2.5249,11.836-6.7862,16.1167
		c-4.3198,4.3204-10.3164,6.7461-16.4316,6.7461C0.0791,22.8628,0,22.8238,0,22.8238v20.5547
		c12.773,0,23.2085,10.396,23.2085,23.228S12.773,89.8345,0,89.8345v20.9102c12.773,0,23.2085,10.3955,23.2085,23.2177
		c0,12.8223-10.4355,23.2281-23.2085,23.2281v20.8999c12.773,0,23.2085,10.4062,23.2085,23.2383
		c0,12.8222-10.4355,23.2177-23.2085,23.2177v20.9102c12.773,0,23.2085,10.3955,23.2085,23.2178
		c0,12.832-10.4355,23.2382-23.2085,23.2382v20.8999c12.773,0,23.2085,10.396,23.2085,23.2281
		c0,12.8222-10.4355,23.2177-23.2085,23.2177v20.9102c12.773,0,23.2085,10.396,23.2085,23.228
		c0,12.8321-10.4355,23.2281-23.2085,23.2281v20.9003c12.773,0,23.2085,10.4053,23.2085,23.2276
		c0,12.8222-10.4355,23.228-23.2085,23.228v20.8999c12.773,0,23.2085,10.3965,23.2085,23.2383
		c0,12.8223-10.4355,23.2178-23.2085,23.2178v20.9101c12.773,0,23.2085,10.3955,23.2085,23.2178
		c0,12.8223-10.4355,23.2383-23.2085,23.2383v20.8906c12.773,0,23.2085,10.3955,23.2085,23.2373
		c0,12.8223-10.4355,23.2178-23.2085,23.2178v20.9101c12.773,0,23.2085,10.3965,23.2085,23.2178
		c0,12.8428-10.4355,23.2383-23.2085,23.2383v20.8896c12.773,0,23.2085,10.4161,23.2085,23.2383
		c0,12.8223-10.4355,23.2178-23.2085,23.2178v20.9102c12.773,0,23.2085,10.3955,23.2085,23.2382
		c0,12.8213-10.4355,23.2178-23.2085,23.2178v20.9102c12.773,0,23.2085,10.3955,23.2085,23.2177
		c0,12.8223-10.4355,23.2178-23.2085,23.2178v21.0088c0,0,0.0791,0,0.1089,0c6.1152,0,12.102,2.6631,16.4219,7.0029
		c4.3008,4.3008,6.7763,10.6719,6.7959,16.5117h20.792c0-13.1386,10.3955-23.2188,23.208-23.2188s23.208,10.0801,23.208,23.2188
		h20.8906c0-13.1386,10.3955-23.2188,23.2178-23.2188c12.8125,0,23.1982,10.0801,23.1982,23.2188h20.8906
		c0-13.1386,10.3956-23.2188,23.2178-23.2188c12.8125,0,23.208,10.0801,23.208,23.2188h20.8809
		c0-13.1386,10.3955-23.2188,23.2178-23.2188c12.8222,0,23.208,10.0801,23.208,23.2188h20.8906
		c0-13.1386,10.3857-23.2188,23.208-23.2188c12.8223,0,23.2183,10.0801,23.2183,23.2188h20.8803
		c0-13.1386,10.396-23.2188,23.208-23.2188c12.8223,0,23.2183,10.0801,23.2183,23.2188h20.8901
		c0-13.1386,10.3863-23.2188,23.1983-23.2188c12.8222,0,23.2187,10.0801,23.2187,23.2188h20.8848
		c0-13.1386,10.3965-23.2188,23.2187-23.2188c12.8018,0,23.1983,10.0801,23.1983,23.2188h20.8896
		c0-13.1386,10.3965-23.2188,23.2188-23.2188c12.8223,0,23.1982,10.0801,23.1982,23.2188h20.8896
		c0-13.1386,10.3965-23.2188,23.2188-23.2188c12.8223,0,23.1982,10.0801,23.1982,23.2188h20.8896
		c0-13.1386,10.3965-23.2188,23.2188-23.2188c12.8221,0,23.2177,10.0801,23.2177,23.2188h20.8907
		c0-13.1386,10.3759-23.2188,23.1982-23.2188c12.8223,0,23.2178,10.0801,23.2178,23.2188h20.8906
		c0-13.1386,10.376-23.2188,23.1983-23.2188c12.8222,0,23.2177,10.0801,23.2177,23.2188h20.8906
		c0-13.1386,10.3956-23.2188,23.1983-23.2188c12.8223,0,23.2178,10.0801,23.2178,23.2188H986.19
		c0.0195-5.8398,2.4863-12.2109,6.7861-16.5117c4.3203-4.3398,10.4746-6.9043,16.5898-6.9043c0.0791,0,0.4346-0.0986,0.4346-0.0781
		V966.064c-13.1387,0-23.2187-10.3955-23.2187-23.2178c0-12.8418,10.08-23.2373,23.2187-23.2373v-20.9101
		c-13.1387,0-23.2187-10.3965-23.2187-23.2188c0-12.8222,10.08-23.2373,23.2187-23.2373v-20.8906
		c-13.1387,0-23.2187-10.3954-23.2187-23.2372c0-12.8223,10.08-23.2188,23.2187-23.2188v-20.9102
		c-13.1387,0-23.2187-10.3955-23.2187-23.2178c0-12.8213,10.08-23.2373,23.2187-23.2373v-20.8906
		c-13.1387,0-23.2187-10.416-23.2187-23.2373c0-12.8223,10.08-23.2188,23.2187-23.2188v-20.9092
		c-13.1387,0-23.2187-10.3964-23.2187-23.2187c0-12.8419,10.08-23.2373,23.2187-23.2373v-20.9102
		c-13.1387,0-23.2187-10.3955-23.2187-23.2177c0-12.8223,10.08-23.2188,23.2187-23.2188v-20.9101
		c-13.1387,0-23.2187-10.3956-23.2187-23.2276c0-12.832,10.08-23.228,23.2187-23.228v-20.9097
		c-13.1387,0-23.2187-10.3965-23.2187-23.2182c0-12.8423,10.08-23.2281,23.2187-23.2281v-20.9004
		c-13.1387,0-23.2187-10.4052-23.2187-23.2373c0-12.8222,10.08-23.2182,23.2187-23.2182v-20.9102
		c-13.1387,0-23.2187-10.396-23.2187-23.2182c0-12.8418,10.08-23.2374,23.2187-23.2374v-20.9003
		c-13.1387,0-23.2187-10.4058-23.2187-23.2281c0-12.8217,10.08-23.2182,23.2187-23.2182v-20.9097
		C996.8618,157.7725,986.7818,147.3765,986.7818,134.5445z"/>
	<g>
		<rect x="81.6773" y="81.2339" fill="#EC7175" width="846.3398" height="846.9756"/>
		<path opacity="0.05" d="M920.146,89.1246v831.1943H89.5484V89.1246H920.146 M935.9077,73.3628H73.7866v862.7168h862.121V73.3628
			L935.9077,73.3628z"/>
	</g>
</g>
<g id="love-stamp-1-arrows-text">
	<g id="love-stamp-1-arrows">
		<path id="love-stamp-1-arrow-left_1_" fill="#9F5F5E" d="M277.7886,725.441l472.0986-472.1182l6.7852,6.7905L284.5542,732.2066
			L277.7886,725.441z M749.0581,252.4986l-70.956,5.7754l-31.1281,31.1132l70.9561-5.7548L749.0581,252.4986z M720.5933,363.0015
			l31.1279-31.1382l5.7803-70.9458l-31.1281,31.1328L720.5933,363.0015z M296.1538,703.9195l88.8872-88.8877l-39.0781,3.1562
			l-5.2866,5.3067l-12.4082,0.9863l-2.9195,2.9395l12.4278-1.0264l-11.6582,11.6387l-12.4278,1.0263l-2.9389,2.8994l12.4272-0.9863
			l-11.6382,11.6387l-12.4277,0.9863l-2.9394,2.9492l12.4277-0.9863l-11.6192,11.6289l-12.4277,1.0059l-2.939,2.9394l12.4273-1.0263
			l-11.6382,11.6591l-12.4077,0.9864l-2.9395,2.9384l12.4278-1.0058l-11.6582,11.6386l-12.4277,1.0254l-2.9004,2.9004
			l12.4082-0.9961l-7.831,7.8409L296.1538,703.9195z M303.4526,753.4722l7.2002-7.2197l-0.9077,11.2441l2.8804-2.9102
			l0.9463-11.2432l11.6587-11.6689l-0.9468,11.2636l2.939-2.9384l0.9272-11.2442l11.6192-11.6387l-0.9278,11.2637l2.959-2.9394
			l0.9077-11.2442l11.6387-11.6582l-0.9077,11.2637l2.9394-2.9395l0.9273-11.2441l11.6386-11.6387l-0.9272,11.2442l2.8994-2.9287
			l0.9278-11.2549l11.6582-11.6377l-0.9473,11.2539l2.959-2.9492l0.9077-11.2442l5.8979-5.9179l3.1763-39.0586l-88.8872,88.8877
			L303.4526,753.4722z"/>
		<path id="love-stamp-1-arrow-left" fill="#9F5F5E" d="M725.4263,732.2066L253.3277,260.1133l6.7656-6.7905L732.2114,725.441
			L725.4263,732.2066z M292.0503,283.6324l70.9761,5.7548l-31.148-31.1132l-70.956-5.7754L292.0503,283.6324z M283.6275,292.0503
			l-31.129-31.1328l5.7803,70.9458l31.1284,31.1382L283.6275,292.0503z M752.9243,707.0953l-7.8506-7.8409l12.4279,0.9961
			l-2.9199-2.9004l-12.4278-1.0254l-11.6377-11.6386l12.4268,1.0058l-2.9385-2.9384l-12.4277-0.9864l-11.6191-11.6591
			l12.4081,1.0263l-2.9199-2.9394l-12.4277-1.0059l-11.6387-11.6289l12.4277,0.9863l-2.9589-2.9492l-12.4082-0.9863
			l-11.6387-11.6387l12.4277,0.9863l-2.9394-2.8994l-12.4268-1.0263l-11.6387-11.6387l12.4279,1.0264l-2.9395-2.9395
			l-12.4082-0.9863l-5.2861-5.3067l-39.0586-3.1562l88.8867,88.8877L752.9243,707.0953z M703.3911,714.3746l-88.8867-88.8877
			l3.1563,39.0586l5.9179,5.9179l0.9073,11.2442l2.9189,2.9492l-0.9268-11.2539l11.6582,11.6377l0.9073,11.2549l2.9199,2.9287
			l-0.9072-11.2442l11.6385,11.6387l0.9073,11.2441l2.9394,2.9395l-0.8877-11.2637l11.6387,11.6582l0.9072,11.2442l2.9395,2.9394
			l-0.9278-11.2637l11.6192,11.6387l0.9277,11.2442l2.9385,2.9384l-0.9268-11.2636l11.6387,11.6689l0.9473,11.2432l2.8788,2.9102
			l-0.9062-11.2441l7.2188,7.2197L703.3911,714.3746z"/>
	</g>
	<g id="love-stamp-1-text">
		<path fill="#FEFEFB" d="M711.3023,491.6626c-4.7149-25.1611-30.6358-22.1528-45.4112-3.8071
			c-14.7949-18.3457-40.6758-21.354-45.4492,3.8071c-4.3594,23.169,45.4297,49.8487,45.4492,49.8487
			C665.8911,541.5113,715.7007,514.8316,711.3023,491.6626z"/>
		<path fill="#FEFEFB" d="M344.1089,487.8555c-14.7754-18.3457-40.6665-21.354-45.4307,3.8071
			c-4.3789,23.169,45.4307,49.8487,45.4307,49.8487c0.0195,0,49.7891-26.6797,45.4395-49.8487
			C384.814,466.5015,358.9038,469.5098,344.1089,487.8555z"/>
		<path fill="#FEFEFB" d="M511.8726,655.5796h6.8203v34.0186c0,1.8935-0.6904,3.5107-2.0127,4.8428
			c-1.3018,1.3212-2.9434,1.9726-4.8076,1.9726h-9.5186c-1.874,0-3.4912-0.6514-4.833-1.9726
			c-1.3213-1.3321-1.9922-2.9493-1.9922-4.8428v-34.0186h6.8252v-13.6113h-27.2422v13.6113h6.8057v34.0186
			c0,2.8701,0.5527,5.5137,1.5981,7.999c1.0747,2.4561,2.5249,4.6055,4.399,6.46c1.8247,1.8447,3.9843,3.2949,6.4604,4.3701
			c2.4556,1.084,5.0991,1.5879,7.979,1.5879h9.5186c2.7812,0,5.4199-0.5039,7.9248-1.5879
			c2.5059-1.0753,4.6758-2.5255,6.5097-4.3701c1.835-1.8545,3.295-4.0039,4.3789-6.46c1.086-2.4853,1.5977-5.1289,1.5977-7.999
			v-34.0186h6.8066v-13.6113h-27.2177V655.5796z"/>
		<polygon fill="#FEFEFB" points="520.7251,354.4405 513.9146,354.4405 513.9146,313.587 520.7251,313.587 520.7251,299.9756 
			493.5073,299.9756 493.5073,313.587 500.313,313.587 500.313,354.4405 493.5073,354.4405 493.5073,368.0415 520.7251,368.0415 		
			"/>
	</g>
</g>
</svg>
