<?xml version="1.0" encoding="utf-8"?>
<!-- Generator: Adobe Illustrator 17.1.0, SVG Export Plug-In . SVG Version: 6.00 Build 0)  -->
<!DOCTYPE svg PUBLIC "-//W3C//DTD SVG 1.1//EN" "http://www.w3.org/Graphics/SVG/1.1/DTD/svg11.dtd">
<svg version="1.1" id="love-stamp-21" xmlns="http://www.w3.org/2000/svg" xmlns:xlink="http://www.w3.org/1999/xlink" x="0px"
	 y="0px" viewBox="0 0 1009.9956 1009.9956" enable-background="new 0 0 1009.9956 1009.9956" xml:space="preserve">
<g id="love-stamp-21-stamp">
	<path fill="#FEFEFB" d="M986.7769,134.5347c0-12.8223,10.08-23.2178,23.2188-23.2178V90.4068
		c-13.1387,0-23.2188-10.396-23.2188-23.2183c0-12.8222,10.08-23.2378,23.2188-23.2378V22.8238c0,0-0.3555,0-0.4346,0
		c-6.1152,0-12.1904-2.3867-16.5107-6.7071C988.7895,11.836,986.2446,5.8394,986.1851,0h-20.6338
		c0,12.4078-10.3955,23.2378-23.2178,23.2378c-12.8027,0-23.1983-10.83-23.1983-23.2378h-20.8906
		c0,12.4078-10.3956,23.2378-23.2178,23.2378c-12.8223,0-23.1982-10.83-23.1982-23.2378H830.938
		c0,12.4078-10.3955,23.2378-23.2178,23.2378c-12.8223,0-23.1982-10.83-23.1982-23.2378h-20.8907
		c0,12.4078-10.3955,23.2378-23.2177,23.2378c-12.8223,0-23.2188-10.83-23.2188-23.2378h-20.8896
		c0,12.4078-10.376,23.2378-23.1983,23.2378c-12.8125,0-23.209-10.83-23.209-23.2378h-20.8896
		c0,12.4078-10.3857,23.2378-23.208,23.2378S582.5913,12.4078,582.5913,0h-20.8896c0,12.4078-10.3956,23.2378-23.2081,23.2378
		c-12.8222,0-23.2187-10.83-23.2187-23.2378H494.395c0,12.4078-10.3965,23.2378-23.2182,23.2378
		c-12.8125,0-23.1988-10.83-23.1988-23.2378h-20.8896c0,12.4078-10.3965,23.2378-23.2188,23.2378
		c-12.812,0-23.208-10.83-23.208-23.2378h-20.8804c0,12.4078-10.396,23.2378-23.2182,23.2378
		c-12.8223,0-23.208-10.83-23.208-23.2378h-20.8902c0,12.4078-10.3862,23.2378-23.2085,23.2378
		c-12.8222,0-23.2177-10.83-23.2177-23.2378h-20.8809c0,12.4078-10.3955,23.2378-23.208,23.2378
		c-12.8223,0-23.2178-10.83-23.2178-23.2378h-20.8906c0,12.4078-10.3857,23.2378-23.1982,23.2378
		c-12.8223,0-23.2178-10.83-23.2178-23.2378H90.5347c0,12.4078-10.3955,23.2378-23.208,23.2378S44.1186,12.4078,44.1186,0H23.3267
		c-0.0591,5.8394-2.5249,11.836-6.7862,16.1167c-4.3198,4.3204-10.3164,6.7461-16.4316,6.7461C0.0791,22.8628,0,22.8238,0,22.8238
		v20.5547c12.7729,0,23.2085,10.396,23.2085,23.2182c0,12.8418-10.4356,23.2378-23.2085,23.2378v20.9102
		c12.7729,0,23.2085,10.3955,23.2085,23.2177c0,12.8223-10.4356,23.2183-23.2085,23.2183v20.9097
		c12.7729,0,23.2085,10.3965,23.2085,23.2383c0,12.8222-10.4356,23.2177-23.2085,23.2177v20.9102
		c12.7729,0,23.2085,10.3955,23.2085,23.2178c0,12.8222-10.4356,23.2382-23.2085,23.2382v20.8902
		c12.7729,0,23.2085,10.396,23.2085,23.2378c0,12.8222-10.4356,23.2177-23.2085,23.2177v20.9102
		c12.7729,0,23.2085,10.396,23.2085,23.2183c0,12.8418-10.4356,23.2378-23.2085,23.2378v20.8901
		c12.7729,0,23.2085,10.4155,23.2085,23.2378c0,12.8222-10.4356,23.2178-23.2085,23.2178v20.9101
		c12.7729,0,23.2085,10.3965,23.2085,23.2383c0,12.8223-10.4356,23.2178-23.2085,23.2178v20.8906
		c12.7729,0,23.2085,10.3954,23.2085,23.2372c0,12.8223-10.4356,23.2188-23.2085,23.2188v20.9102
		c12.7729,0,23.2085,10.3955,23.2085,23.2178c0,12.8213-10.4356,23.2373-23.2085,23.2373v20.8906
		c12.7729,0,23.2085,10.416,23.2085,23.2373c0,12.8223-10.4356,23.2178-23.2085,23.2178v20.9102
		c12.7729,0,23.2085,10.3965,23.2085,23.2188c0,12.8418-10.4356,23.2372-23.2085,23.2372v20.9102
		c12.7729,0,23.2085,10.3955,23.2085,23.2177c0,12.8223-10.4356,23.2188-23.2085,23.2188v20.9101
		c12.7729,0,23.2085,10.3955,23.2085,23.2373c0,12.8223-10.4356,23.2178-23.2085,23.2178v21.0088c0,0,0.0791,0,0.1089,0
		c6.1152,0,12.102,2.6631,16.4219,6.9834c4.3007,4.3008,6.7763,10.6914,6.7959,16.5312h20.7919
		c0-13.1386,10.3956-23.2382,23.2081-23.2382s23.208,10.0996,23.208,23.2382h20.8906c0-13.1386,10.3955-23.2382,23.2178-23.2382
		c12.8125,0,23.1982,10.0996,23.1982,23.2382h20.8906c0-13.1386,10.3955-23.2382,23.2178-23.2382
		c12.8125,0,23.208,10.0996,23.208,23.2382h20.8809c0-13.1386,10.3955-23.2382,23.2177-23.2382
		c12.8223,0,23.2085,10.0996,23.2085,23.2382h20.8902c0-13.1386,10.3857-23.2382,23.208-23.2382
		c12.8222,0,23.2182,10.0996,23.2182,23.2382h20.8804c0-13.1386,10.396-23.2382,23.208-23.2382
		c12.8223,0,23.2188,10.0996,23.2188,23.2382h20.8896c0-13.1386,10.3863-23.2382,23.1988-23.2382
		c12.8217,0,23.2182,10.0996,23.2182,23.2382h20.8799c0-13.1386,10.3965-23.2382,23.2187-23.2382
		c12.8125,0,23.2081,10.0996,23.2081,23.2382h20.8896c0-13.1386,10.3867-23.2382,23.209-23.2382s23.208,10.0996,23.208,23.2382
		h20.8896c0-13.1386,10.3965-23.2382,23.209-23.2382c12.8223,0,23.1983,10.0996,23.1983,23.2382h20.8896
		c0-13.1386,10.3965-23.2382,23.2188-23.2382c12.8222,0,23.2177,10.0996,23.2177,23.2382h20.8907
		c0-13.1386,10.3759-23.2382,23.1982-23.2382c12.8223,0,23.2178,10.0996,23.2178,23.2382h20.8906
		c0-13.1386,10.376-23.2382,23.1982-23.2382c12.8222,0,23.2178,10.0996,23.2178,23.2382h20.8906
		c0-13.1386,10.3956-23.2382,23.1983-23.2382c12.8223,0,23.2178,10.0996,23.2178,23.2382h20.6338
		c0.0195-5.8398,2.4863-12.2304,6.7861-16.5312c4.3203-4.3203,10.4746-6.8848,16.5898-6.8848c0.0791,0,0.4346-0.0986,0.4346-0.0986
		v-20.4365c-13.1387,0-23.2188-10.3955-23.2188-23.2178c0-12.8418,10.08-23.2178,23.2188-23.2178v-20.9101
		c-13.1387,0-23.2188-10.3965-23.2188-23.2383c0-12.8223,10.08-23.2178,23.2188-23.2178v-20.9101
		c-13.1387,0-23.2188-10.3955-23.2188-23.2178c0-12.8418,10.08-23.2383,23.2188-23.2383v-20.8906
		c-13.1387,0-23.2188-10.415-23.2188-23.2372c0-12.8223,10.08-23.2178,23.2188-23.2178v-20.9102
		c-13.1387,0-23.2188-10.3964-23.2188-23.2177c0-12.8428,10.08-23.2383,23.2188-23.2383v-20.8896
		c-13.1387,0-23.2188-10.416-23.2188-23.2382c0-12.8223,10.08-23.2178,23.2188-23.2178v-20.9102
		c-13.1387,0-23.2188-10.3955-23.2188-23.2177c0-12.8223,10.08-23.2188,23.2188-23.2188v-20.9101
		c-13.1387,0-23.2188-10.3956-23.2188-23.2374c0-12.8222,10.08-23.2182,23.2188-23.2182v-20.9097
		c-13.1387,0-23.2188-10.3965-23.2188-23.2182c0-12.8423,10.08-23.2378,23.2188-23.2378v-20.8907
		c-13.1387,0-23.2188-10.415-23.2188-23.2373c0-12.8222,10.08-23.2182,23.2188-23.2182v-20.9102
		c-13.1387,0-23.2188-10.396-23.2188-23.2182c0-12.8418,10.08-23.2374,23.2188-23.2374v-20.9101
		c-13.1387,0-23.2188-10.396-23.2188-23.2183c0-12.8217,10.08-23.2182,23.2188-23.2182v-20.9097
		C996.8569,157.7725,986.7769,147.3765,986.7769,134.5347z"/>
	<g>
		<rect x="81.6772" y="81.2339" fill="#91D0D2" width="846.335" height="846.9551"/>
		<path opacity="0.05" d="M920.1411,89.1246v831.1943H89.5483V89.1246H920.1411 M935.9028,73.3628H73.7871v862.7168h862.1157
			V73.3628L935.9028,73.3628z"/>
	</g>
</g>
<g id="love-stamp-21-love-heart">
	<g id="love-stamp-21-love">
		<path fill="#FEFEFB" d="M504.9878,356.2207l-92.5371,148.7769l-89.252-154.2412l92.5366-148.7573L504.9878,356.2207z
			 M439.8906,426.8218v-83.9165l-12.1616,52.7095h-17.083v-89.4004l10.1787-36.6523h-34.1953l9.833,36.9677v83.9361l-9.833,36.3559
			H439.8906z"/>
		<path fill="#FEFEFB" d="M686.7964,356.2207l-92.5567,148.7769l-89.2519-154.2412l92.5371-148.7573L686.7964,356.2207z
			 M606.2436,423.1919c3.3829-5.8584,6.0567-12.7236,8.0196-20.6142c3.5107-13.7295,5.2461-30.6944,5.2461-50.9141
			c0-17.1421-1.8047-34.6196-5.4639-52.3935c-4.9512-23.4346-11.6777-35.1719-20.1797-35.1719
			c-6.293,0-12.1025,7.4961-17.4286,22.4487c-6.0762,17.5562-9.0938,40.084-9.0938,67.563c0,18.3848,1.7462,34.4424,5.2666,48.1719
			c2.2003,7.8711,4.9218,14.7558,8.1865,20.6142c4.2412,7.6543,8.4922,11.501,12.7236,11.501
			C597.771,434.397,602.0122,430.6685,606.2436,423.1919z M601.5093,316.2349c1.1045,10.2974,1.6377,20.792,1.6377,31.5034
			c0,11.3228-0.4737,21.8174-1.4405,31.5034c-1.6865,16.3731-4.4287,24.5591-8.1865,24.5591c-3.8857,0-6.6671-8.186-8.3643-24.5591
			c-0.9561-9.4687-1.459-19.9834-1.459-31.5034c0-10.4946,0.5517-21.0088,1.6367-31.5034
			c1.8047-16.5703,4.5664-24.8555,8.1865-24.8555C597.1499,291.3794,599.813,299.6646,601.5093,316.2349z"/>
		<path fill="#FEFEFB" d="M504.9878,659.2193l-92.5371,148.7763l-89.252-154.2207l92.5366-148.7773L504.9878,659.2193z
			 M423.5376,703.7613l11.2832-102.1231l7.8213-29.0771h-25.457l8.5712,34.0869l-7.9692,70.5615l-10.6128-70.6992l9.2813-33.9492
			h-34.5411l10.1788,36.9677l13.6211,94.2325l-6.3418,26.0586h31.0791L423.5376,703.7613z"/>
		<path fill="#FEFEFB" d="M686.7964,659.2193l-92.5567,148.7763l-89.2519-154.2207l92.5371-148.7773L686.7964,659.2193z
			 M621.3345,729.8199v-75.4532l-11.086,44.2461h-19.4502v-33.9297h10.711l7.6445,20.8907v-70.8965l-7.6445,18.7988h-10.711
			v-34.8564h19.4502l10.3565,42.1162v-68.1748h-53.9815l9.9912,36.9677v83.9355l-9.9912,36.3555H621.3345z"/>
	</g>
	<path id="love-stamp-21-heart" fill="#EC7175" d="M548.0708,470.733c-22.1533-21.0484-43.1621,18.7792-43.1621,18.7792
		s-20.8701-39.8276-43.0137-18.7792c-26.3144,24.9931,40.6963,72.9482,43.0137,74.5859v0.0791c0,0,0.0498,0,0.0693-0.0205
		c0.0196,0.0205,0.0391,0.0205,0.0391,0.0205v-0.0791C507.3354,543.6812,574.4155,495.7261,548.0708,470.733z"/>
</g>
</svg>
