<?xml version="1.0" encoding="utf-8"?>
<!-- Generator: Adobe Illustrator 17.1.0, SVG Export Plug-In . SVG Version: 6.00 Build 0)  -->
<!DOCTYPE svg PUBLIC "-//W3C//DTD SVG 1.1//EN" "http://www.w3.org/Graphics/SVG/1.1/DTD/svg11.dtd">
<svg version="1.1" id="love-stamp-31" xmlns="http://www.w3.org/2000/svg" xmlns:xlink="http://www.w3.org/1999/xlink" x="0px"
	 y="0px" viewBox="0 0 1009.9956 1009.9956" enable-background="new 0 0 1009.9956 1009.9956" xml:space="preserve">
<g id="love-stamp-31-stamp">
	<path fill="#FEFEFB" d="M986.7769,134.5347c0-12.8223,10.08-23.2178,23.2188-23.2178V90.4068
		c-13.1387,0-23.2188-10.396-23.2188-23.2183c0-12.8222,10.08-23.2378,23.2188-23.2378V22.8238c0,0-0.3555,0-0.4346,0
		c-6.1152,0-12.1904-2.3867-16.5107-6.7071C988.7895,11.836,986.2446,5.8394,986.1851,0h-20.6338
		c0,12.4078-10.3955,23.2378-23.2178,23.2378c-12.8027,0-23.1983-10.83-23.1983-23.2378h-20.8906
		c0,12.4078-10.3956,23.2378-23.2178,23.2378c-12.8223,0-23.1982-10.83-23.1982-23.2378H830.938
		c0,12.4078-10.3955,23.2378-23.2178,23.2378c-12.8223,0-23.1982-10.83-23.1982-23.2378h-20.8907
		c0,12.4078-10.3955,23.2378-23.2177,23.2378c-12.8223,0-23.2188-10.83-23.2188-23.2378h-20.8896
		c0,12.4078-10.376,23.2378-23.1983,23.2378c-12.8125,0-23.209-10.83-23.209-23.2378h-20.8896
		c0,12.4078-10.3857,23.2378-23.208,23.2378S582.5913,12.4078,582.5913,0h-20.8896c0,12.4078-10.3956,23.2378-23.2081,23.2378
		c-12.8222,0-23.2187-10.83-23.2187-23.2378H494.395c0,12.4078-10.3965,23.2378-23.2182,23.2378
		c-12.8125,0-23.1988-10.83-23.1988-23.2378h-20.8896c0,12.4078-10.3965,23.2378-23.2188,23.2378
		c-12.812,0-23.208-10.83-23.208-23.2378h-20.8804c0,12.4078-10.396,23.2378-23.2182,23.2378
		c-12.8223,0-23.208-10.83-23.208-23.2378h-20.8902c0,12.4078-10.3862,23.2378-23.2085,23.2378
		c-12.8222,0-23.2177-10.83-23.2177-23.2378h-20.8809c0,12.4078-10.3955,23.2378-23.208,23.2378
		c-12.8223,0-23.2178-10.83-23.2178-23.2378h-20.8906c0,12.4078-10.3857,23.2378-23.1982,23.2378
		c-12.8223,0-23.2178-10.83-23.2178-23.2378H90.5347c0,12.4078-10.3955,23.2378-23.208,23.2378S44.1186,12.4078,44.1186,0H23.3267
		c-0.0591,5.8394-2.5249,11.836-6.7862,16.1167c-4.3198,4.3204-10.3164,6.7461-16.4316,6.7461C0.0791,22.8628,0,22.8238,0,22.8238
		v20.5547c12.7729,0,23.2085,10.396,23.2085,23.2182c0,12.8418-10.4356,23.2378-23.2085,23.2378v20.9102
		c12.7729,0,23.2085,10.3955,23.2085,23.2177c0,12.8223-10.4356,23.2183-23.2085,23.2183v20.9097
		c12.7729,0,23.2085,10.3965,23.2085,23.2383c0,12.8222-10.4356,23.2177-23.2085,23.2177v20.9102
		c12.7729,0,23.2085,10.3955,23.2085,23.2178c0,12.8222-10.4356,23.2382-23.2085,23.2382v20.8902
		c12.7729,0,23.2085,10.396,23.2085,23.2378c0,12.8222-10.4356,23.2177-23.2085,23.2177v20.9102
		c12.7729,0,23.2085,10.396,23.2085,23.2183c0,12.8418-10.4356,23.2378-23.2085,23.2378v20.8901
		c12.7729,0,23.2085,10.4155,23.2085,23.2378c0,12.8222-10.4356,23.2178-23.2085,23.2178v20.9101
		c12.7729,0,23.2085,10.3965,23.2085,23.2383c0,12.8223-10.4356,23.2178-23.2085,23.2178v20.8906
		c12.7729,0,23.2085,10.3954,23.2085,23.2372c0,12.8223-10.4356,23.2188-23.2085,23.2188v20.9102
		c12.7729,0,23.2085,10.3955,23.2085,23.2178c0,12.8213-10.4356,23.2373-23.2085,23.2373v20.8906
		c12.7729,0,23.2085,10.416,23.2085,23.2373c0,12.8223-10.4356,23.2178-23.2085,23.2178v20.9102
		c12.7729,0,23.2085,10.3965,23.2085,23.2188c0,12.8418-10.4356,23.2372-23.2085,23.2372v20.9102
		c12.7729,0,23.2085,10.3955,23.2085,23.2177c0,12.8223-10.4356,23.2188-23.2085,23.2188v20.9101
		c12.7729,0,23.2085,10.3955,23.2085,23.2373c0,12.8223-10.4356,23.2178-23.2085,23.2178v21.0088c0,0,0.0791,0,0.1089,0
		c6.1152,0,12.102,2.6631,16.4219,6.9834c4.3007,4.3008,6.7763,10.6914,6.7959,16.5312h20.7919
		c0-13.1386,10.3956-23.2382,23.2081-23.2382s23.208,10.0996,23.208,23.2382h20.8906c0-13.1386,10.3955-23.2382,23.2178-23.2382
		c12.8125,0,23.1982,10.0996,23.1982,23.2382h20.8906c0-13.1386,10.3955-23.2382,23.2178-23.2382
		c12.8125,0,23.208,10.0996,23.208,23.2382h20.8809c0-13.1386,10.3955-23.2382,23.2177-23.2382
		c12.8223,0,23.2085,10.0996,23.2085,23.2382h20.8902c0-13.1386,10.3857-23.2382,23.208-23.2382
		c12.8222,0,23.2182,10.0996,23.2182,23.2382h20.8804c0-13.1386,10.396-23.2382,23.208-23.2382
		c12.8223,0,23.2188,10.0996,23.2188,23.2382h20.8896c0-13.1386,10.3863-23.2382,23.1988-23.2382
		c12.8217,0,23.2182,10.0996,23.2182,23.2382h20.8799c0-13.1386,10.3965-23.2382,23.2187-23.2382
		c12.8125,0,23.2081,10.0996,23.2081,23.2382h20.8896c0-13.1386,10.3867-23.2382,23.209-23.2382s23.208,10.0996,23.208,23.2382
		h20.8896c0-13.1386,10.3965-23.2382,23.209-23.2382c12.8223,0,23.1983,10.0996,23.1983,23.2382h20.8896
		c0-13.1386,10.3965-23.2382,23.2188-23.2382c12.8222,0,23.2177,10.0996,23.2177,23.2382h20.8907
		c0-13.1386,10.3759-23.2382,23.1982-23.2382c12.8223,0,23.2178,10.0996,23.2178,23.2382h20.8906
		c0-13.1386,10.376-23.2382,23.1982-23.2382c12.8222,0,23.2178,10.0996,23.2178,23.2382h20.8906
		c0-13.1386,10.3956-23.2382,23.1983-23.2382c12.8223,0,23.2178,10.0996,23.2178,23.2382h20.6338
		c0.0195-5.8398,2.4863-12.2304,6.7861-16.5312c4.3203-4.3203,10.4746-6.8848,16.5898-6.8848c0.0791,0,0.4346-0.0986,0.4346-0.0986
		v-20.4365c-13.1387,0-23.2188-10.3955-23.2188-23.2178c0-12.8418,10.08-23.2178,23.2188-23.2178v-20.9101
		c-13.1387,0-23.2188-10.3965-23.2188-23.2383c0-12.8223,10.08-23.2178,23.2188-23.2178v-20.9101
		c-13.1387,0-23.2188-10.3955-23.2188-23.2178c0-12.8418,10.08-23.2383,23.2188-23.2383v-20.8906
		c-13.1387,0-23.2188-10.415-23.2188-23.2372c0-12.8223,10.08-23.2178,23.2188-23.2178v-20.9102
		c-13.1387,0-23.2188-10.3964-23.2188-23.2177c0-12.8428,10.08-23.2383,23.2188-23.2383v-20.8896
		c-13.1387,0-23.2188-10.416-23.2188-23.2382c0-12.8223,10.08-23.2178,23.2188-23.2178v-20.9102
		c-13.1387,0-23.2188-10.3955-23.2188-23.2177c0-12.8223,10.08-23.2188,23.2188-23.2188v-20.9101
		c-13.1387,0-23.2188-10.3956-23.2188-23.2374c0-12.8222,10.08-23.2182,23.2188-23.2182v-20.9097
		c-13.1387,0-23.2188-10.3965-23.2188-23.2182c0-12.8423,10.08-23.2378,23.2188-23.2378v-20.8907
		c-13.1387,0-23.2188-10.415-23.2188-23.2373c0-12.8222,10.08-23.2182,23.2188-23.2182v-20.9102
		c-13.1387,0-23.2188-10.396-23.2188-23.2182c0-12.8418,10.08-23.2374,23.2188-23.2374v-20.9101
		c-13.1387,0-23.2188-10.396-23.2188-23.2183c0-12.8217,10.08-23.2182,23.2188-23.2182v-20.9097
		C996.8569,157.7725,986.7769,147.3765,986.7769,134.5347z"/>
	<g>
		<rect x="81.6772" y="81.2339" fill="#91D0D2" width="846.335" height="846.9551"/>
		<path opacity="0.05" d="M920.1411,89.1246v831.1943H89.5483V89.1246H920.1411 M935.9028,73.3628H73.7871v862.7168h862.1157
			V73.3628L935.9028,73.3628z"/>
	</g>
</g>
<g id="love-stamp-31-target-heart">
	<g id="love-stamp-31-target">
		<path fill="#FEFEFB" d="M767.6753,489.9263h-10.3369c-7.5157-127.6103-109.6397-229.7344-237.25-237.2598v-10.3168
			c0-8.3248-6.7666-15.1006-15.0908-15.1006c-8.3145,0-15.0708,6.7758-15.0708,15.1006v10.3168
			c-127.6207,7.5254-229.7544,109.6495-237.2701,237.2598h-10.3169c-8.3442,0-15.0908,6.7471-15.0908,15.0713
			c0,8.3545,6.7466,15.0908,15.0908,15.0908h10.3169c7.5156,127.6104,109.6494,229.7539,237.2701,237.25v10.3369
			c0,8.3243,6.7563,15.0713,15.0708,15.0713c8.3242,0,15.0908-6.747,15.0908-15.0713v-10.3369
			c127.6103-7.4961,229.7343-109.6396,237.25-237.25h10.3369c8.334,0,15.0713-6.7363,15.0713-15.0908
			C782.7466,496.6534,776.0093,489.9263,767.6753,489.9263z M631.8589,520.0884h98.3359
			c-7.4765,112.4805-97.626,202.6299-210.1064,210.1065v-98.3164c0-8.3448-6.7666-15.1104-15.0908-15.1104
			c-8.3145,0-15.0708,6.7656-15.0708,15.1104v98.3164c-112.4805-7.4766-202.6499-97.626-210.107-210.1065h98.3369
			c8.334,0,15.0909-6.7363,15.0909-15.0908c0-8.3242-6.7569-15.0713-15.0909-15.0713h-98.3369
			c7.4571-112.4697,97.6265-202.6494,210.107-210.0864v98.3169c0,8.3242,6.7563,15.0805,15.0708,15.0805
			c8.3242,0,15.0908-6.7563,15.0908-15.0805v-98.3169c112.4804,7.437,202.6299,97.6167,210.1064,210.0864h-98.3359
			c-8.3252,0-15.0908,6.7271-15.0908,15.0713C616.7681,513.3521,623.5337,520.0884,631.8589,520.0884z"/>
		<path fill="#FEFEFB" d="M479.6392,351.5259v-24.4804C400.5264,338.23,337.9936,400.7828,326.769,479.8858h24.5
			C362.0991,414.2857,414.019,362.3755,479.6392,351.5259z"/>
		<path fill="#FEFEFB" d="M351.269,530.8199h-24.5c11.2246,79.1025,73.7574,141.6552,152.8702,152.8398v-24.4805
			C414.019,648.3296,362.0991,596.4302,351.269,530.8199z"/>
		<path fill="#FEFEFB" d="M530.563,659.1792v24.4805c79.1133-11.1846,141.6562-73.7373,152.8701-152.8398h-24.5098
			C648.0933,596.4302,596.1929,648.3296,530.563,659.1792z"/>
		<path fill="#FEFEFB" d="M683.4331,479.8858c-11.2139-79.103-73.7568-141.6558-152.8701-152.8403v24.4804
			c65.6299,10.8496,117.5303,62.7598,128.3603,128.3599H683.4331z"/>
		<path fill="#FEFEFB" d="M597.5835,504.9976c0-51.1113-41.4453-92.5762-92.5859-92.5762
			c-51.1309,0-92.5762,41.4649-92.5762,92.5762c0,51.1504,41.4453,92.5957,92.5762,92.5957
			C556.1382,597.5933,597.5835,556.148,597.5835,504.9976z"/>
	</g>
	<path id="love-stamp-31-heart" fill="#EC7175" d="M542.6558,453.3931c-16.669-4.0439-29.3438,2.0322-37.6485,13.6904
		c-8.3047-11.6582-21.0185-17.7343-37.6474-13.6904c-41.1299,9.9619-36.731,63.5391-2.8409,77.1895
		c28.9092,11.6591,40.4883,27.2822,40.4883,27.2822s11.5606-15.6231,40.4688-27.2822
		C579.3667,516.9322,583.7651,463.355,542.6558,453.3931z"/>
</g>
</svg>
