<?xml version="1.0" encoding="utf-8"?>
<!-- Generator: Adobe Illustrator 17.1.0, SVG Export Plug-In . SVG Version: 6.00 Build 0)  -->
<!DOCTYPE svg PUBLIC "-//W3C//DTD SVG 1.1//EN" "http://www.w3.org/Graphics/SVG/1.1/DTD/svg11.dtd">
<svg version="1.1" id="love-stamp-28" xmlns="http://www.w3.org/2000/svg" xmlns:xlink="http://www.w3.org/1999/xlink" x="0px"
	 y="0px" viewBox="0 0 1009.9956 1009.9956" enable-background="new 0 0 1009.9956 1009.9956" xml:space="preserve">
<g id="love-stamp-28-stamp">
	<path fill="#FEFEFB" d="M986.7769,134.5542c0-12.8418,10.08-23.2373,23.2188-23.2373V90.4263
		c-13.1387,0-23.2188-10.4155-23.2188-23.2378c0-12.8222,10.08-23.2182,23.2188-23.2182V22.8238c0,0-0.3555,0-0.4346,0
		c-6.1152,0-12.1904-2.3867-16.5107-6.7071C988.7895,11.836,986.2446,5.8394,986.1851,0h-20.6338
		c0,12.4078-10.3955,23.2378-23.2178,23.2378c-12.8027,0-23.1983-10.83-23.1983-23.2378h-20.8906
		c0,12.4078-10.3956,23.2378-23.2178,23.2378c-12.8223,0-23.1982-10.83-23.1982-23.2378H830.938
		c0,12.4078-10.3955,23.2378-23.2178,23.2378c-12.8223,0-23.1982-10.83-23.1982-23.2378h-20.8907
		c0,12.4078-10.3955,23.2378-23.2177,23.2378c-12.8223,0-23.2188-10.83-23.2188-23.2378h-20.8896
		c0,12.4078-10.376,23.2378-23.1983,23.2378c-12.8222,0-23.2187-10.83-23.2187-23.2378h-20.8897
		c0,12.4078-10.3759,23.2378-23.1982,23.2378S582.5815,12.4078,582.5815,0h-20.8896c0,12.4078-10.3965,23.2378-23.1983,23.2378
		c-12.8222,0-23.2187-10.83-23.2187-23.2378h-20.8901c0,12.4078-10.396,23.2378-23.2183,23.2378
		c-12.8022,0-23.1982-10.83-23.1982-23.2378h-20.8902c0,12.4078-10.396,23.2378-23.2182,23.2378
		c-12.8023,0-23.1983-10.83-23.1983-23.2378h-20.8901c0,12.4078-10.396,23.2378-23.2183,23.2378
		c-12.8222,0-23.1982-10.83-23.1982-23.2378h-20.8902c0,12.4078-10.396,23.2378-23.2182,23.2378
		c-12.8223,0-23.2178-10.83-23.2178-23.2378h-20.8711c0,12.4078-10.3955,23.2378-23.2178,23.2378
		c-12.8222,0-23.2177-10.83-23.2177-23.2378h-20.8907c0,12.4078-10.3759,23.2378-23.1982,23.2378S111.4155,12.4078,111.4155,0
		H90.5249c0,12.4078-10.3955,23.2378-23.1982,23.2378c-12.8223,0-23.2178-10.83-23.2178-23.2378h-20.792
		c-0.0591,5.8394-2.5249,11.836-6.7861,16.1167c-4.3199,4.3204-10.3169,6.7461-16.4322,6.7461C0.0791,22.8628,0,22.8238,0,22.8238
		v20.5547c12.7632,0,23.1987,10.396,23.1987,23.2382c0,12.8218-10.4355,23.2178-23.1987,23.2178v20.9102
		c12.7632,0,23.1987,10.3955,23.1987,23.2177c0,12.8223-10.4355,23.2383-23.1987,23.2383v20.8897
		c12.7632,0,23.1987,10.416,23.1987,23.2383c0,12.8222-10.4355,23.2177-23.1987,23.2177v20.9102
		c12.7632,0,23.1987,10.3955,23.1987,23.2178c0,12.8422-10.4355,23.2382-23.1987,23.2382v20.9102
		c12.7632,0,23.1987,10.3955,23.1987,23.2178c0,12.8222-10.4355,23.2177-23.1987,23.2177v20.9102
		c12.7632,0,23.1987,10.396,23.1987,23.2378c0,12.8223-10.4355,23.2183-23.1987,23.2183v20.9101
		c12.7632,0,23.1987,10.3955,23.1987,23.2178c0,12.8222-10.4355,23.2378-23.1987,23.2378v20.8901
		c12.7632,0,23.1987,10.3965,23.1987,23.2383c0,12.8223-10.4355,23.2178-23.1987,23.2178v20.9101
		c12.7632,0,23.1987,10.3955,23.1987,23.2178c0,12.8223-10.4355,23.2383-23.1987,23.2383v20.8906
		c12.7632,0,23.1987,10.3955,23.1987,23.2373c0,12.8223-10.4355,23.2178-23.1987,23.2178v20.9101
		c12.7632,0,23.1987,10.3965,23.1987,23.2178c0,12.8428-10.4355,23.2383-23.1987,23.2383v20.8896
		c12.7632,0,23.1987,10.4161,23.1987,23.2383c0,12.8223-10.4355,23.2178-23.1987,23.2178v20.9102
		c12.7632,0,23.1987,10.3955,23.1987,23.2382c0,12.8213-10.4355,23.2178-23.1987,23.2178v20.9102
		c12.7632,0,23.1987,10.3955,23.1987,23.2177c0,12.8223-10.4355,23.2178-23.1987,23.2178v21.0088c0,0,0.0791,0,0.0986,0
		c6.1153,0,12.1123,2.6631,16.4322,7.0029c4.3007,4.3008,6.7666,10.6719,6.7861,16.5117h20.792
		c0-13.1386,10.3955-23.2188,23.2178-23.2188c12.8027,0,23.1982,10.0801,23.1982,23.2188h20.8906
		c0-13.1386,10.3955-23.2188,23.2178-23.2188s23.1982,10.0801,23.1982,23.2188h20.8907c0-13.1386,10.3955-23.2188,23.2177-23.2188
		c12.8223,0,23.2178,10.0801,23.2178,23.2188h20.8711c0-13.1386,10.3955-23.2188,23.2178-23.2188
		c12.8222,0,23.2182,10.0801,23.2182,23.2188h20.8902c0-13.1386,10.376-23.2188,23.1982-23.2188
		c12.8223,0,23.2183,10.0801,23.2183,23.2188h20.8901c0-13.1386,10.396-23.2188,23.1983-23.2188
		c12.8222,0,23.2182,10.0801,23.2182,23.2188h20.8902c0-13.1386,10.396-23.2188,23.1982-23.2188
		c12.8223,0,23.2183,10.0801,23.2183,23.2188h20.8901c0-13.1386,10.3965-23.2188,23.2187-23.2188
		c12.8018,0,23.1983,10.0801,23.1983,23.2188h20.8896c0-13.1386,10.3965-23.2188,23.2188-23.2188s23.1982,10.0801,23.1982,23.2188
		h20.8897c0-13.1386,10.3965-23.2188,23.2187-23.2188c12.8223,0,23.1983,10.0801,23.1983,23.2188h20.8896
		c0-13.1386,10.3965-23.2188,23.2188-23.2188c12.8222,0,23.2177,10.0801,23.2177,23.2188h20.8907
		c0-13.1386,10.3759-23.2188,23.1982-23.2188c12.8223,0,23.2178,10.0801,23.2178,23.2188h20.8906
		c0-13.1386,10.376-23.2188,23.1982-23.2188c12.8222,0,23.2178,10.0801,23.2178,23.2188h20.8906
		c0-13.1386,10.3956-23.2188,23.1983-23.2188c12.8223,0,23.2178,10.0801,23.2178,23.2188h20.6338
		c0.0195-5.8398,2.4863-12.2109,6.7861-16.5117c4.3203-4.3398,10.4746-6.9043,16.5898-6.9043c0.0791,0,0.4346-0.0986,0.4346-0.0781
		V966.064c-13.1387,0-23.2188-10.3955-23.2188-23.2178c0-12.8418,10.08-23.2373,23.2188-23.2373v-20.9101
		c-13.1387,0-23.2188-10.3965-23.2188-23.2188c0-12.8222,10.08-23.2373,23.2188-23.2373v-20.8906
		c-13.1387,0-23.2188-10.3954-23.2188-23.2372c0-12.8223,10.08-23.2188,23.2188-23.2188v-20.9102
		c-13.1387,0-23.2188-10.3955-23.2188-23.2178c0-12.8213,10.08-23.2373,23.2188-23.2373v-20.8906
		c-13.1387,0-23.2188-10.416-23.2188-23.2373c0-12.8223,10.08-23.2188,23.2188-23.2188v-20.9092
		c-13.1387,0-23.2188-10.3964-23.2188-23.2187c0-12.8419,10.08-23.2373,23.2188-23.2373v-20.9102
		c-13.1387,0-23.2188-10.3955-23.2188-23.2177c0-12.8223,10.08-23.2188,23.2188-23.2188v-20.9101
		c-13.1387,0-23.2188-10.3956-23.2188-23.2178c0-12.8418,10.08-23.2378,23.2188-23.2378v-20.9097
		c-13.1387,0-23.2188-10.3965-23.2188-23.2182c0-12.8423,10.08-23.2183,23.2188-23.2183v-20.9102
		c-13.1387,0-23.2188-10.3955-23.2188-23.2373c0-12.8222,10.08-23.2182,23.2188-23.2182v-20.9102
		c-13.1387,0-23.2188-10.396-23.2188-23.2182c0-12.8418,10.08-23.2374,23.2188-23.2374v-20.8906
		c-13.1387,0-23.2188-10.4155-23.2188-23.2378c0-12.8217,10.08-23.2182,23.2188-23.2182v-20.9097
		C996.8569,157.7725,986.7769,147.3765,986.7769,134.5542z"/>
	<g>
		<rect x="81.6675" y="81.2339" fill="#9F5F5E" width="846.3447" height="846.9756"/>
		<path opacity="0.05" d="M920.1411,89.1246v831.1943H89.5386V89.1246H920.1411 M935.9028,73.3628H73.7768v862.7168h862.126V73.3628
			L935.9028,73.3628z"/>
	</g>
</g>
<g id="love-stamp-28-heart-lock-key">
	<path fill="#FEFEFB" d="M793.103,541.9654c9.9414-7.5752,14.8936-17.6944,14.8936-30.3096
		c0-10.6035-3.7481-19.5596-11.2051-26.8682c-7.4463-7.2885-16.3232-10.9179-26.5713-10.9179
		c-10.6426,0-19.6572,3.6294-27.1046,10.9179c-7.4658,7.3086-11.1846,16.2647-11.1846,26.8682v22.3789H545.98
		c-5.3262,0-7.96,2.6631-7.96,7.9307c0,4.9707,2.6338,7.456,7.96,7.456h13.414v34.3242h-18.8984v17.418h37.7959v-22.3887h18.8779
		v22.3887h37.8057v-17.418h-18.9072v-34.3242h115.8632v22.3701c0,10.6524,3.7188,19.5889,11.1846,26.8672
		c7.4473,7.2989,16.4619,10.9287,27.1046,10.9287c10.248,0,19.125-3.6298,26.5713-10.9287
		c7.457-7.2783,11.2051-16.2148,11.2051-26.8672C807.9966,559.5611,803.0444,549.6187,793.103,541.9654z M785.8726,587.7105
		c-4.4777,4.3203-9.6856,6.4902-15.6524,6.4902c-6.332,0-11.6875-2.1699-16.1758-6.4902c-4.4785-4.2998-6.7265-9.6065-6.7265-15.919
		v-22.3701h22.9023c5.9668,0,11.1747,2.1699,15.6524,6.4903c4.4687,4.2812,6.707,9.6074,6.707,15.8798
		C792.5796,578.104,790.3413,583.4107,785.8726,587.7105z M785.8726,527.565c-4.4777,4.3193-9.6856,6.4697-15.6524,6.4697h-22.9023
		v-22.3789c0-6.2832,2.248-11.6094,6.7265-15.9102c4.4883-4.3095,9.8438-6.4599,16.1758-6.4599
		c5.9668,0,11.1747,2.1504,15.6524,6.4599c4.4687,4.3008,6.707,9.627,6.707,15.9102
		C792.5796,517.938,790.3413,523.2642,785.8726,527.565z"/>
	<path fill="#EC7175" d="M441.1626,448.4517v-42.8755c0-27.5278-9.7051-50.9927-29.0767-70.374
		c-19.3911-19.4009-42.8559-29.0864-70.3442-29.0864c-27.5483,0-50.9932,9.6855-70.3843,29.0864
		c-19.3911,19.3813-29.0962,42.8462-29.0962,70.374v43.6943c-5.5039,3.4322-10.751,7.3482-15.6338,12.23
		c-16.4218,16.4131-24.6279,36.2178-24.6279,59.3965c0,34.502,18.71,72.1201,56.1807,112.875
		c22.8925,24.5401,49.2373,47.4033,79.0634,68.6279c1.6573,0.9864,3.4917,1.4805,5.4747,1.4805
		c1.6464,0,3.3037-0.4941,4.9707-1.4805c29.8261-21.2246,56.1909-44.0878,79.0634-68.6279
		c37.4312-40.7549,56.1812-78.373,56.1812-112.875c0-23.1787-8.2261-42.9834-24.6089-59.3965
		C453.0185,456.1944,447.189,452.0318,441.1626,448.4517z M358.3706,607.733h-32.8145l7.1602-54.879
		c-7.5747-4.0048-11.3325-9.9423-11.3325-17.9316c0-5.543,2.0713-10.3164,6.2632-14.3018
		c4.1523-3.9843,9.0346-5.9863,14.6074-5.9863c5.5727,0,10.3467,2.002,14.3115,5.9863c3.9844,3.9854,5.9971,8.7588,5.9971,14.3018
		c0,7.9893-3.6006,13.9268-10.7608,17.9316L358.3706,607.733z M398.8892,436.8726c-6.3125,0-13.7696,2.3374-22.3799,6.9629
		c-6.628,3.9951-13.2559,7.96-19.8941,11.9443c-1.9526,1.3321-4.5273,3.6695-7.6933,6.9639
		c-3.1363,3.314-5.3755,4.9707-6.7071,4.9707c-1.0063,0-2.9589-1.6567-5.977-4.9707c-2.9785-3.2944-5.6318-5.6318-7.94-6.9639
		c-6.6479-3.9843-13.2758-7.9492-19.8842-11.9443c-8.295-4.6255-15.7617-6.9629-22.3994-6.9629
		c-7.9102,0-15.2388,1.3311-22.3501,3.2051v-34.5015c0-21.561,7.5947-39.9556,22.8628-55.1948
		c15.249-15.2285,33.6337-22.8926,55.2148-22.8926c21.5117,0,39.916,7.6641,55.1748,22.8926
		c15.2383,15.2392,22.853,33.6338,22.853,55.1948v34.0679C413.1313,438.0064,406.2471,436.8726,398.8892,436.8726z"/>
</g>
</svg>
