<?xml version="1.0" encoding="utf-8"?>
<!-- Generator: Adobe Illustrator 17.1.0, SVG Export Plug-In . SVG Version: 6.00 Build 0)  -->
<!DOCTYPE svg PUBLIC "-//W3C//DTD SVG 1.1//EN" "http://www.w3.org/Graphics/SVG/1.1/DTD/svg11.dtd">
<svg version="1.1" id="love-stamp-17" xmlns="http://www.w3.org/2000/svg" xmlns:xlink="http://www.w3.org/1999/xlink" x="0px"
	 y="0px" viewBox="0 0 1009.9956 1009.9956" enable-background="new 0 0 1009.9956 1009.9956" xml:space="preserve">
<g id="love-stamp-17-stamp">
	<path fill="#FEFEFB" d="M986.7769,134.5445c0-12.8321,10.08-23.2276,23.2188-23.2276V90.4165
		c-13.1387,0-23.2188-10.4057-23.2188-23.228c0-12.8222,10.08-23.228,23.2188-23.228V22.8238c0,0-0.3555,0-0.4346,0
		c-6.1152,0-12.1904-2.3867-16.5107-6.7071C988.7895,11.836,986.2446,5.8394,986.1851,0h-20.6338
		c0,12.4078-10.3955,23.2378-23.2178,23.2378c-12.8027,0-23.1983-10.83-23.1983-23.2378h-20.8906
		c0,12.4078-10.3956,23.2378-23.2178,23.2378c-12.8223,0-23.1982-10.83-23.1982-23.2378H830.938
		c0,12.4078-10.3955,23.2378-23.2178,23.2378c-12.8223,0-23.1982-10.83-23.1982-23.2378h-20.8907
		c0,12.4078-10.3955,23.2378-23.2177,23.2378c-12.8223,0-23.2188-10.83-23.2188-23.2378h-20.8896
		c0,12.4078-10.376,23.2378-23.1983,23.2378c-12.8222,0-23.2187-10.83-23.2187-23.2378h-20.8897
		c0,12.4078-10.3759,23.2378-23.1982,23.2378S582.5815,12.4078,582.5815,0h-20.8896c0,12.4078-10.3965,23.2378-23.1983,23.2378
		c-12.8222,0-23.2187-10.83-23.2187-23.2378h-20.8901c0,12.4078-10.396,23.2378-23.2183,23.2378
		c-12.8022,0-23.1982-10.83-23.1982-23.2378h-20.8902c0,12.4078-10.396,23.2378-23.2182,23.2378
		c-12.8023,0-23.1983-10.83-23.1983-23.2378h-20.8901c0,12.4078-10.396,23.2378-23.2183,23.2378
		c-12.8222,0-23.1982-10.83-23.1982-23.2378h-20.8902c0,12.4078-10.396,23.2378-23.2182,23.2378
		c-12.8223,0-23.2178-10.83-23.2178-23.2378h-20.8711c0,12.4078-10.3955,23.2378-23.2178,23.2378
		c-12.8222,0-23.2177-10.83-23.2177-23.2378h-20.8907c0,12.4078-10.3759,23.2378-23.1982,23.2378S111.4155,12.4078,111.4155,0
		H90.5249c0,12.4078-10.3955,23.2378-23.1982,23.2378c-12.8223,0-23.2178-10.83-23.2178-23.2378h-20.792
		c-0.0591,5.8394-2.5249,11.836-6.7861,16.1167c-4.3199,4.3204-10.3169,6.7461-16.4322,6.7461C0.0791,22.8628,0,22.8238,0,22.8238
		v20.5547c12.7632,0,23.1987,10.396,23.1987,23.228S12.7632,89.8345,0,89.8345v20.9102c12.7632,0,23.1987,10.3955,23.1987,23.2177
		c0,12.8223-10.4355,23.2281-23.1987,23.2281v20.8999c12.7632,0,23.1987,10.4062,23.1987,23.2383
		c0,12.8222-10.4355,23.2177-23.1987,23.2177v20.9102c12.7632,0,23.1987,10.3955,23.1987,23.2178
		c0,12.832-10.4355,23.2382-23.1987,23.2382v20.8999c12.7632,0,23.1987,10.396,23.1987,23.2281
		c0,12.8222-10.4355,23.2177-23.1987,23.2177v20.9102c12.7632,0,23.1987,10.396,23.1987,23.228
		c0,12.8321-10.4355,23.2281-23.1987,23.2281v20.9003c12.7632,0,23.1987,10.4053,23.1987,23.2276
		c0,12.8222-10.4355,23.228-23.1987,23.228v20.8999c12.7632,0,23.1987,10.3965,23.1987,23.2383
		c0,12.8223-10.4355,23.2178-23.1987,23.2178v20.9101c12.7632,0,23.1987,10.3955,23.1987,23.2178
		c0,12.8223-10.4355,23.2383-23.1987,23.2383v20.8906c12.7632,0,23.1987,10.3955,23.1987,23.2373
		c0,12.8223-10.4355,23.2178-23.1987,23.2178v20.9101c12.7632,0,23.1987,10.3965,23.1987,23.2178
		c0,12.8428-10.4355,23.2383-23.1987,23.2383v20.8896c12.7632,0,23.1987,10.4161,23.1987,23.2383
		c0,12.8223-10.4355,23.2178-23.1987,23.2178v20.9102c12.7632,0,23.1987,10.3955,23.1987,23.2382
		c0,12.8213-10.4355,23.2178-23.1987,23.2178v20.9102c12.7632,0,23.1987,10.3955,23.1987,23.2177
		c0,12.8223-10.4355,23.2178-23.1987,23.2178v21.0088c0,0,0.0791,0,0.0986,0c6.1153,0,12.1123,2.6631,16.4322,7.0029
		c4.3007,4.3008,6.7666,10.6719,6.7861,16.5117h20.792c0-13.1386,10.3955-23.2188,23.2178-23.2188
		c12.8027,0,23.1982,10.0801,23.1982,23.2188h20.8906c0-13.1386,10.3955-23.2188,23.2178-23.2188s23.1982,10.0801,23.1982,23.2188
		h20.8907c0-13.1386,10.3955-23.2188,23.2177-23.2188c12.8223,0,23.2178,10.0801,23.2178,23.2188h20.8711
		c0-13.1386,10.3955-23.2188,23.2178-23.2188c12.8222,0,23.2182,10.0801,23.2182,23.2188h20.8902
		c0-13.1386,10.376-23.2188,23.1982-23.2188c12.8223,0,23.2183,10.0801,23.2183,23.2188h20.8901
		c0-13.1386,10.396-23.2188,23.1983-23.2188c12.8222,0,23.2182,10.0801,23.2182,23.2188h20.8902
		c0-13.1386,10.396-23.2188,23.1982-23.2188c12.8223,0,23.2183,10.0801,23.2183,23.2188h20.8901
		c0-13.1386,10.3965-23.2188,23.2187-23.2188c12.8018,0,23.1983,10.0801,23.1983,23.2188h20.8896
		c0-13.1386,10.3965-23.2188,23.2188-23.2188s23.1982,10.0801,23.1982,23.2188h20.8897c0-13.1386,10.3965-23.2188,23.2187-23.2188
		c12.8223,0,23.1983,10.0801,23.1983,23.2188h20.8896c0-13.1386,10.3965-23.2188,23.2188-23.2188
		c12.8222,0,23.2177,10.0801,23.2177,23.2188h20.8907c0-13.1386,10.3759-23.2188,23.1982-23.2188
		c12.8223,0,23.2178,10.0801,23.2178,23.2188h20.8906c0-13.1386,10.376-23.2188,23.1982-23.2188
		c12.8222,0,23.2178,10.0801,23.2178,23.2188h20.8906c0-13.1386,10.3956-23.2188,23.1983-23.2188
		c12.8223,0,23.2178,10.0801,23.2178,23.2188h20.6338c0.0195-5.8398,2.4863-12.2109,6.7861-16.5117
		c4.3203-4.3398,10.4746-6.9043,16.5898-6.9043c0.0791,0,0.4346-0.0986,0.4346-0.0781V966.064
		c-13.1387,0-23.2188-10.3955-23.2188-23.2178c0-12.8418,10.08-23.2373,23.2188-23.2373v-20.9101
		c-13.1387,0-23.2188-10.3965-23.2188-23.2188c0-12.8222,10.08-23.2373,23.2188-23.2373v-20.8906
		c-13.1387,0-23.2188-10.3954-23.2188-23.2372c0-12.8223,10.08-23.2188,23.2188-23.2188v-20.9102
		c-13.1387,0-23.2188-10.3955-23.2188-23.2178c0-12.8213,10.08-23.2373,23.2188-23.2373v-20.8906
		c-13.1387,0-23.2188-10.416-23.2188-23.2373c0-12.8223,10.08-23.2188,23.2188-23.2188v-20.9092
		c-13.1387,0-23.2188-10.3964-23.2188-23.2187c0-12.8419,10.08-23.2373,23.2188-23.2373v-20.9102
		c-13.1387,0-23.2188-10.3955-23.2188-23.2177c0-12.8223,10.08-23.2188,23.2188-23.2188v-20.9101
		c-13.1387,0-23.2188-10.3956-23.2188-23.2276c0-12.832,10.08-23.228,23.2188-23.228v-20.9097
		c-13.1387,0-23.2188-10.3965-23.2188-23.2182c0-12.8423,10.08-23.2281,23.2188-23.2281v-20.9004
		c-13.1387,0-23.2188-10.4052-23.2188-23.2373c0-12.8222,10.08-23.2182,23.2188-23.2182v-20.9102
		c-13.1387,0-23.2188-10.396-23.2188-23.2182c0-12.8418,10.08-23.2374,23.2188-23.2374v-20.9003
		c-13.1387,0-23.2188-10.4058-23.2188-23.2281c0-12.8217,10.08-23.2182,23.2188-23.2182v-20.9097
		C996.8569,157.7725,986.7769,147.3765,986.7769,134.5445z"/>
	<g>
		<rect x="81.6675" y="81.2339" fill="#EC7175" width="846.3447" height="846.9756"/>
		<path opacity="0.05" d="M920.1411,89.1246v831.1943H89.5386V89.1246H920.1411 M935.9028,73.3628H73.7768v862.7168h862.126V73.3628
			L935.9028,73.3628z"/>
	</g>
</g>
<g id="love-stamp-17-striped-heart">
	<path id="love-stamp-17-color" fill="#FEFEFB" d="M660.7476,420.0162h121.249c-1.0059,8.6601-2.7715,17.3295-5.2471,25.9501
		H660.7476V420.0162z M659.6733,445.9663h1.0743v-25.9501h-1.0743h-154.123v25.9501H659.6733z M504.4556,445.9663h1.0947v-25.9501
		h-1.0947H350.3325v25.9501H504.4556z M350.3325,445.9663v-25.9501h-1.0752h-121.209c1.0352,8.6601,2.8799,17.3095,5.4541,25.9501
		h115.7549H350.3325z M660.7476,347.5113h109.2656c-4.3692-9.2022-9.7647-17.9312-16.0479-25.9405h-93.2177V347.5113z
		 M660.7476,347.5113v-25.9405h-1.0743h-112.875c-7.6543,8.0093-14.5781,16.7188-20.6338,25.9405h133.5088H660.7476z
		 M350.3325,347.5113h133.5186c-6.0659-9.2217-12.9805-17.9312-20.6338-25.9405H350.3325V347.5113z M350.3325,347.5113v-25.9405
		h-1.0752h-93.2075c-6.2925,8.0093-11.6782,16.7383-16.0571,25.9405h109.2646H350.3325z M660.7476,396.7388h121.999
		c-0.4932-8.7978-1.9239-17.4873-4.1826-25.9404H660.7476V396.7388z M659.6733,396.7388h1.0743v-25.9404h-1.0743H513.2036
		c-2.9482,6.352-5.5127,12.8418-7.6533,19.4306v6.5098H659.6733z M350.3325,396.7388h154.1231h1.0947v-6.5098
		c-0.1777,0.5328-0.375,1.0557-0.543,1.5879c-2.2485-7.1211-5.02-14.1631-8.206-21.0185H350.3325V396.7388z M350.3325,396.7388
		v-25.9404h-1.0752H231.4311c-2.249,8.4531-3.6689,17.1426-4.1821,25.9404h122.0083H350.3325z M660.7476,272.3438v25.9399h69.8613
		c-19.5488-15.1792-43.4278-24.8349-69.6143-25.9399H660.7476z M660.7476,298.2837v-25.9399h-1.0743h-8.4922
		c-28.3281,1.0552-54.5048,10.6919-76.9531,25.9399h85.4453H660.7476z M350.3325,298.2837h85.4453
		c-22.4394-15.248-48.6259-24.8847-76.9531-25.9399h-8.4922V298.2837z M350.3325,298.2837v-25.9399h-1.0752h-0.2368
		c-26.1968,1.105-50.0659,10.7607-69.6147,25.9399h69.8515H350.3325z M505.5503,692.1031h56.7432
		c10.1298-7.9395,21.1269-16.6192,32.6279-25.9502h-89.3711V692.1031z M505.5503,692.1031v-25.9502h-1.0947h-85.8599
		c11.5991,9.331,22.6855,18.0107,32.8843,25.9502h52.9756H505.5503z M660.7476,544.4214h60.7089
		c6.8545-8.5224,13.3448-17.1816,19.3614-25.9404h-80.0703V544.4214z M659.6733,544.4214h1.0743V518.481h-1.0743h-154.123v25.9404
		H659.6733z M504.4556,544.4214h1.0947V518.481h-1.0947H350.3325v25.9404H504.4556z M350.3325,544.4214V518.481h-1.0752h-78.7876
		c6.1548,8.7589,12.8023,17.418,19.8052,25.9404h58.9824H350.3325z M505.5503,642.8755h117.3916
		c9.7158-8.3047,19.5693-16.9541,29.3633-25.9404H505.5503V642.8755z M505.5503,642.8755v-25.9404h-1.0947H360.5903
		c9.9219,8.9863,19.8838,17.6357,29.7178,25.9404h114.1475H505.5503z M660.7476,593.648h15.9492
		c8.5019-8.4326,16.8066-17.0928,24.8066-25.9492h-40.7558V593.648z M659.6733,593.648h1.0743v-25.9492h-1.0743h-154.123v25.9492
		H659.6733z M504.4556,593.648h1.0947v-25.9492h-1.0947H350.3325v25.9492H504.4556z M350.3325,593.648v-25.9492h-1.0752h-38.6445
		c8.1474,8.8467,16.5903,17.5068,25.2207,25.9492h13.4238H350.3325z M660.7476,495.1939h94.6874
		c4.8925-8.5811,9.2324-17.2412,12.9501-25.9502H660.7476V495.1939z M659.6733,495.1939h1.0743v-25.9502h-1.0743h-154.123v25.9502
		H659.6733z M504.4556,495.1939h1.0947v-25.9502h-1.0947H350.3325v25.9502H504.4556z M350.3325,495.1939v-25.9502h-1.0752h-107.105
		c3.8369,8.6992,8.3052,17.3691,13.3252,25.9502h93.7798H350.3325z M505.5503,736.064c0.5127,0.542,1.0156,1.0742,1.459,1.5879
		c4.5869-5.1786,13.5918-12.7334,25.5859-22.2715h-27.0449V736.064z M504.4556,715.3804h-23.1099
		c10.8989,8.6406,19.2925,15.6231,24.2046,20.6836v-20.6836H504.4556z"/>
</g>
</svg>
