<?xml version="1.0" encoding="utf-8"?>
<!-- Generator: Adobe Illustrator 17.1.0, SVG Export Plug-In . SVG Version: 6.00 Build 0)  -->
<!DOCTYPE svg PUBLIC "-//W3C//DTD SVG 1.1//EN" "http://www.w3.org/Graphics/SVG/1.1/DTD/svg11.dtd">
<svg version="1.1" id="love-stamp-11" xmlns="http://www.w3.org/2000/svg" xmlns:xlink="http://www.w3.org/1999/xlink" x="0px"
	 y="0px" viewBox="0 0 1009.9956 1009.9956" enable-background="new 0 0 1009.9956 1009.9956" xml:space="preserve">
<g id="love-stamp-11-stamp">
	<path fill="#FEFEFB" d="M986.7769,134.5347c0-12.8223,10.08-23.2178,23.2188-23.2178V90.4068
		c-13.1387,0-23.2188-10.396-23.2188-23.2183c0-12.832,10.08-23.2378,23.2188-23.2378V22.814c0,0-0.3555,0.0098-0.4346,0.0098
		c-6.1152,0-12.1904-2.397-16.5107-6.7168c-4.2608-4.271-6.8057-10.2676-6.8652-16.107h-20.6338
		c0,12.4078-10.3955,23.2281-23.2178,23.2281c-12.8027,0-23.1983-10.8203-23.1983-23.2281h-20.8906
		c0,12.4078-10.3956,23.2281-23.2178,23.2281c-12.8223,0-23.1982-10.8203-23.1982-23.2281H830.938
		c0,12.4078-10.3955,23.2281-23.2178,23.2281c-12.8223,0-23.1982-10.8203-23.1982-23.2281h-20.8907
		c0,12.4078-10.3955,23.2281-23.2177,23.2281c-12.8223,0-23.2188-10.8203-23.2188-23.2281h-20.8896
		c0,12.4078-10.376,23.2281-23.1983,23.2281c-12.8222,0-23.2187-10.8203-23.2187-23.2281h-20.8897
		c0,12.4078-10.3759,23.2281-23.1982,23.2281S582.5815,12.4078,582.5815,0h-20.8896c0,12.4078-10.3965,23.2281-23.1983,23.2281
		c-12.8222,0-23.2187-10.8203-23.2187-23.2281h-20.8901c0,12.4078-10.396,23.2281-23.1983,23.2281
		c-12.8222,0-23.2182-10.8203-23.2182-23.2281h-20.8902c0,12.4078-10.396,23.2281-23.1982,23.2281
		c-12.8223,0-23.2183-10.8203-23.2183-23.2281h-20.8901c0,12.4078-10.396,23.2281-23.2183,23.2281
		C323.751,23.2281,313.355,12.4078,313.355,0h-20.8902c0,12.4078-10.396,23.2281-23.2182,23.2281
		c-12.8023,0-23.1983-10.8203-23.1983-23.2281h-20.8906c0,12.4078-10.3955,23.2281-23.2178,23.2281
		c-12.8222,0-23.1982-10.8203-23.1982-23.2281h-20.8906c0,12.4078-10.3955,23.2281-23.2178,23.2281S111.4155,12.4078,111.4155,0
		H90.5249c0,12.4078-10.3955,23.2281-23.1982,23.2281C54.5044,23.2281,44.1089,12.4078,44.1089,0h-20.792
		c-0.0591,5.8394-2.5249,11.836-6.7861,16.107c-4.3199,4.3198-10.3169,6.7558-16.4322,6.7558C0.0791,22.8628,0,22.8238,0,22.8238
		v20.5547c12.7632,0,23.1987,10.396,23.1987,23.2182c0,12.8321-10.4355,23.2378-23.1987,23.2378v20.9004
		c12.7632,0,23.1987,10.3955,23.1987,23.2275c0,12.8223-10.4355,23.2183-23.1987,23.2183v20.9097
		c12.7632,0,23.1987,10.3965,23.1987,23.2285S12.7632,224.5464,0,224.5464v20.9004c12.7632,0,23.1987,10.4053,23.1987,23.2276
		c0,12.8222-10.4355,23.2285-23.1987,23.2285v20.8999c12.7632,0,23.1987,10.396,23.1987,23.228S12.7632,359.2583,0,359.2583v20.9102
		c12.7632,0,23.1987,10.396,23.1987,23.2183c0,12.832-10.4355,23.228-23.1987,23.228v20.8999
		c12.7632,0,23.1987,10.4058,23.1987,23.2378c0,12.8222-10.4355,23.2178-23.1987,23.2178v20.9101
		c12.7632,0,23.1987,10.3965,23.1987,23.2285c0,12.8223-10.4355,23.2276-23.1987,23.2276v20.9004
		c12.7632,0,23.1987,10.3955,23.1987,23.2275c0,12.8223-10.4355,23.2285-23.1987,23.2285v20.9004
		c12.7632,0,23.1987,10.3955,23.1987,23.2275c0,12.8223-10.4355,23.2276-23.1987,23.2276v20.9004
		c12.7632,0,23.1987,10.4062,23.1987,23.2275c0,12.832-10.4355,23.2285-23.1987,23.2285v20.8994
		c12.7632,0,23.1987,10.4063,23.1987,23.2286c0,12.832-10.4355,23.2275-23.1987,23.2275v20.9102
		c12.7632,0,23.1987,10.3955,23.1987,23.2275c0,12.8223-10.4355,23.2187-23.1987,23.2187v20.9102
		c12.7632,0,23.1987,10.3955,23.1987,23.2275c0,12.8223-10.4355,23.2178-23.1987,23.2178v21.0088c0,0,0.0791,0,0.0986,0
		c6.1153,0,12.1123,2.6631,16.4322,6.9932c4.3007,4.3007,6.7666,10.6816,6.7861,16.5214h20.792
		c0-13.1386,10.3955-23.2285,23.2178-23.2285c12.8027,0,23.1982,10.0899,23.1982,23.2285h20.8906
		c0-13.1386,10.3955-23.2285,23.2178-23.2285s23.2178,10.0899,23.2178,23.2285h20.8906c0-13.1386,10.376-23.2285,23.1982-23.2285
		c12.8223,0,23.2178,10.0899,23.2178,23.2285h20.8906c0-13.1386,10.396-23.2285,23.1983-23.2285
		c12.8222,0,23.2182,10.0899,23.2182,23.2285h20.8902c0-13.1386,10.396-23.2285,23.1982-23.2285
		c12.8223,0,23.2183,10.0899,23.2183,23.2285h20.8901c0-13.1386,10.396-23.2285,23.2183-23.2285
		c12.8022,0,23.1982,10.0899,23.1982,23.2285h20.8902c0-13.1386,10.396-23.2285,23.2182-23.2285
		c12.8023,0,23.1983,10.0899,23.1983,23.2285h20.8901c0-13.1386,10.3965-23.2285,23.2187-23.2285
		c12.8018,0,23.1983,10.0899,23.1983,23.2285h20.8896c0-13.1386,10.3965-23.2285,23.2188-23.2285s23.1982,10.0899,23.1982,23.2285
		h20.8897c0-13.1386,10.3965-23.2285,23.2187-23.2285c12.8223,0,23.1983,10.0899,23.1983,23.2285h20.8896
		c0-13.1386,10.3965-23.2285,23.2188-23.2285c12.8222,0,23.2177,10.0899,23.2177,23.2285h20.8907
		c0-13.1386,10.3759-23.2285,23.1982-23.2285c12.8223,0,23.2178,10.0899,23.2178,23.2285h20.8906
		c0-13.1386,10.376-23.2285,23.1982-23.2285c12.8222,0,23.2178,10.0899,23.2178,23.2285h20.8906
		c0-13.1386,10.3956-23.2285,23.1983-23.2285c12.8223,0,23.2178,10.0899,23.2178,23.2285h20.6338
		c0.0195-5.8398,2.4863-12.2207,6.7861-16.5214c4.3203-4.3301,10.4746-6.8946,16.5898-6.8946c0.0791,0,0.4346-0.0986,0.4346-0.0888
		v-20.4366c-13.1387,0-23.2188-10.3955-23.2188-23.2177c0-12.8418,10.08-23.2276,23.2188-23.2276v-20.9101
		c-13.1387,0-23.2188-10.3965-23.2188-23.2285c0-12.8223,10.08-23.2276,23.2188-23.2276v-20.9004
		c-13.1387,0-23.2188-10.3955-23.2188-23.2275c0-12.832,10.08-23.2285,23.2188-23.2285v-20.9005
		c-13.1387,0-23.2188-10.4053-23.2188-23.2275c0-12.8222,10.08-23.2275,23.2188-23.2275v-20.9004
		c-13.1387,0-23.2188-10.4062-23.2188-23.2275c0-12.833,10.08-23.2285,23.2188-23.2285v-20.8995
		c-13.1387,0-23.2188-10.4062-23.2188-23.2285c0-12.832,10.08-23.2275,23.2188-23.2275v-20.9102
		c-13.1387,0-23.2188-10.3955-23.2188-23.2177c0-12.8321,10.08-23.2286,23.2188-23.2286v-20.9101
		c-13.1387,0-23.2188-10.3955-23.2188-23.2276c0-12.8222,10.08-23.2182,23.2188-23.2182v-20.9097
		c-13.1387,0-23.2188-10.3965-23.2188-23.2285s10.08-23.2275,23.2188-23.2275v-20.9004c-13.1387,0-23.2188-10.4053-23.2188-23.2276
		c0-12.8222,10.08-23.2285,23.2188-23.2285v-20.8999c-13.1387,0-23.2188-10.396-23.2188-23.228
		c0-12.832,10.08-23.2276,23.2188-23.2276v-20.9101c-13.1387,0-23.2188-10.396-23.2188-23.2183
		c0-12.832,10.08-23.228,23.2188-23.228v-20.8999C996.8569,157.7725,986.7769,147.3667,986.7769,134.5347z"/>
	<g>
		<rect x="81.6675" y="81.2339" fill="#91D0D2" width="846.3447" height="846.9658"/>
		<path opacity="0.05" d="M920.1411,89.1246v831.1943H89.5386V89.1246H920.1411 M935.9028,73.3531H73.7768v862.7265h862.126V73.3531
			L935.9028,73.3531z"/>
	</g>
</g>
<g id="love-stamp-11-hearts">
	<path fill="#FEFEFB" d="M740.3052,437.6519L684.9624,483.94l-62.3359-53.5283l-0.6114-0.6504
		c-6.3711-7.023-13.7988-16.8863-14.706-30.813c-0.9571-12.8521,3.5205-25.3882,12.625-35.1724
		c9.626-10.3564,23.2773-16.3037,37.4306-16.3037c9.9815,0,19.5782,2.9785,27.7159,8.4526
		c8.1171-5.4741,17.6844-8.4526,27.6766-8.4526c6.2031,0,12.2404,1.3311,17.9512,3.4815
		c-9.3018-11.7764-21.6016-22.9024-37.4512-33.17c-8.4433-5.4643-16.6982-9.3896-24.7959-12.2597l-25.2207,21.0771l-27.7549-23.8887
		c-30.5761,7.585-56.625,29.7281-76.1738,52.0977c3.1172,7.7822,4.5176,16.1367,3.916,24.668
		c-1.4404,20.5747-14.125,34.2846-28.1308,47.6201l-69.4268,57.956l-78.4814-67.4448l-0.6021-0.6411
		c-7.8017-8.5713-16.9253-20.5645-18.188-37.4707c-1.0947-15.7412,4.3696-30.9502,15.4365-42.8159
		c11.7666-12.6548,28.4356-19.9038,45.7061-19.9038c3.2842,0,6.5098,0.2661,9.6855,0.7793
		c-31.0888-19.5987-69.3388-27.1441-111.6123,0.2265c-101.9267,66.0537-59.3369,167.1817,11.4219,253.7315
		c2.2686-6.0459,5.7007-11.7276,10.3262-16.6885c4.1724-4.4775,9.0742-8.127,14.4101-10.9385l-32.5483-27.9131l-0.6509-0.7295
		c-5.1093-5.6718-11.0664-13.6606-11.915-25.1416c-0.7691-10.8496,2.959-21.2451,10.5146-29.3525
		c7.9395-8.5322,19.1543-13.4141,30.7832-13.4141c7.4859,0,14.6563,1.9922,20.8702,5.6807
		c6.2636-3.6885,13.3847-5.6807,20.8408-5.6807c11.6587,0,22.8633,4.8819,30.813,13.3843
		c7.5551,8.1177,11.2641,18.5327,10.5141,29.2935c-0.9668,14.0849-9.4785,23.2773-18.1284,31.5039l-21.7876,18.168
		c5.5332,1.5683,10.8096,3.955,15.5537,7.2294c8.6602-5.9873,18.9771-9.3007,29.8067-9.3007
		c14.8837,0,29.2348,6.2627,39.374,17.1513c2.8017,2.9991,5.0503,6.293,7.0029,9.7256c1.0654-1.5488,2.1309-3.1064,3.4424-4.5176
		c7.6045-8.2158,18.3755-12.8808,29.54-12.8808c7.043,0,13.7696,1.834,19.6289,5.1777c5.8975-3.3437,12.6143-5.1777,19.5977-5.1777
		c0.2568,0,0.5127,0.0791,0.7695,0.0791l-26.7588-22.9824l-0.6025-0.6602c-6.125-6.6973-13.2559-16.1465-14.2715-29.6982
		c-0.8779-12.625,3.502-24.816,12.3486-34.3243c9.3409-10.0605,22.5577-15.8007,36.2276-15.8007
		c9.5976,0,18.7793,2.8012,26.5723,7.9697c7.8115-5.1685,16.9843-7.9697,26.5615-7.9697c13.6601,0,26.8574,5.7402,36.1777,15.7417
		c8.8672,9.4687,13.2568,21.6596,12.3984,34.3139c-1.1337,16.5215-11.4023,27.5489-21.7978,37.4112l-50.0859,41.8203
		c1.7265,4.8037,2.4561,9.9228,2.0615,15.1504c-0.8281,13.4726-9.3301,22.5966-17.2305,30.0927l-42.1455,35.2315l-46.9492-40.4697
		l-0.5723-0.6016c-0.9863-1.0742-2.0517-2.3574-3.1167-3.708c-4.5766,9.3701-11.895,16.9648-19.332,24.0166l-43.2207,36.0995
		c5.415,4.8135,10.7114,9.4102,15.8599,13.8184c0.4443-7.545,3.3535-14.6963,8.6997-20.4561
		c6.6284-7.1016,16.018-11.1953,25.7529-11.1953c5.5332,0,10.8594,1.292,15.6138,3.7285
		c4.7929-2.4365,10.1289-3.7285,15.6425-3.7285c9.7056,0,19.0752,4.0635,25.7237,11.165
		c6.3515,6.8067,9.5078,15.5547,8.8965,24.6485c-0.8878,11.9443-8.0684,19.6777-14.7354,26l-23.4355,19.5683
		c5.3164,3.9453,8.3642,6.0957,8.3642,6.0957S747.2886,563.9205,753.6987,422.896
		C749.7935,428.2915,745.0884,433.1148,740.3052,437.6519z"/>
	<g>
		<path fill="#EC7175" d="M466.6099,590.8472c1.519-21.3047-17.0635-38.6045-38.1709-38.6045
			c-12.0723,0-22.8233,5.6807-29.8067,14.5381c-6.9927-8.8574-17.7138-14.5381-29.8066-14.5381
			c-0.3155,0-0.6113,0.0889-0.9268,0.0986c-4.0635,0.0987-7.9892,0.9073-11.7178,2.1895
			c-13.6308,4.6855-24.0761,16.501-25.3388,30.9902c-0.1475,1.7559-0.3648,3.502-0.2266,5.3262
			c0.6612,8.9951,4.9712,16.0371,11.8164,23.5635l56.2002,48.2411l4.4585-3.7188l44.148-36.8496
			C458.4731,611.4615,465.8013,602.8316,466.6099,590.8472z"/>
		<path fill="#EC7175" d="M547.0249,561.7212c-7.9492,0-14.9922,3.669-19.6377,9.5381c-4.5469-5.8691-11.5986-9.5381-19.5889-9.5381
			c-13.8769,0-26.0483,11.3428-25.0322,25.3389c0.375,5.8984,3.2251,10.5635,7.7324,15.4355l36.8887,31.8086l31.957-26.6601
			c7.417-7.0127,12.2305-12.7031,12.7334-20.584C573.1128,573.064,560.8823,561.7212,547.0249,561.7212z"/>
		<path fill="#EC7175" d="M634.6694,299.9805l8.709,7.4961l7.6836-6.4111l21.1865-17.6949
			c6.7266-6.332,11.0567-11.4902,11.5401-18.5429c0.8877-12.6446-10.1094-22.9512-22.6758-22.9512
			c-7.1699,0-13.5225,3.3828-17.7344,8.6201c-4.1123-5.2373-10.4551-8.6201-17.625-8.6201
			c-12.5264,0-23.6025,10.3066-22.7148,22.9512c0.4043,5.3359,2.9492,9.4687,7.0224,13.957L634.6694,299.9805z"/>
		<path fill="#EC7175" d="M377.3677,407.1148l68.4306,58.7851l59.229-49.3652c13.6304-13.0195,22.5972-23.5439,23.6421-38.082
			c0.2365-3.4424,0.0196-6.7862-0.5429-10.0215c-3.7276-21.1465-23.7012-37.0264-46.002-37.0264
			c-11.9341,0-22.7739,4.6162-31.0195,12.1319c-1.8936,1.7358-3.7085,3.5703-5.3067,5.5825
			c-8.4824-10.8101-21.5605-17.7144-36.2568-17.7144c-25.6841,0-48.3994,21.0879-46.5645,47.0479
			C363.7759,389.3609,369.0527,397.982,377.3677,407.1148z"/>
		<path fill="#EC7175" d="M712.7573,362.0596c-11.166,0-21.1865,5.3755-27.6572,13.5327
			c-6.5293-8.1572-16.5205-13.5327-27.7354-13.5327c-19.6171,0-36.9375,16.1362-35.4775,35.9517
			c0.542,8.3047,4.5762,14.9228,10.9385,21.8867l52.2744,44.8872l45.1348-37.687c10.4345-9.9326,17.2802-17.981,18.04-29.0869
			C749.6948,378.1958,732.4038,362.0596,712.7573,362.0596z"/>
		<path fill="#EC7175" d="M360.8071,539.2427l1.4004-1.1738l32.5982-27.1533c7.8906-7.5059,13.059-13.5518,13.6313-21.916
			c1.0449-14.9131-11.9546-27.045-26.7695-27.045c-8.4131,0-15.958,4.0044-20.8604,10.1592
			c-4.8427-6.1548-12.4082-10.1592-20.8506-10.1592c-14.7461,0-27.8046,12.1319-26.7392,27.045
			c0.4731,6.2334,3.4717,11.2045,8.2256,16.5009l38.4272,32.9434L360.8071,539.2427z"/>
		<path fill="#EC7175" d="M607.8716,458.3247c-10.751,0-20.3184,5.0899-26.5723,12.9307
			c-6.1837-7.8408-15.7705-12.9307-26.5615-12.9307c-18.7598,0-35.3594,15.4463-33.9981,34.4327
			c0.5821,7.9795,4.4082,14.2724,10.4844,20.9297l50.0752,43.0332l43.2998-36.1387c10.0215-9.4981,16.5312-17.1719,17.29-27.8242
			C643.1811,473.771,626.6704,458.3247,607.8716,458.3247z"/>
		<path fill="#EC7175" d="M495.6274,665.5708c-6.3125,0-11.9736,3.0088-15.6626,7.6143c-3.6098-4.6055-9.2915-7.6143-15.5937-7.6143
			c-11.0269,0-20.8013,9.084-20.0322,20.2198c0.3549,4.7539,2.5942,8.4238,6.1938,12.3388l26.6504,22.9522l2.7817,2.3867
			l0.1578-0.1279l25.3388-21.1475c5.8682-5.5723,9.7549-10.1387,10.2178-16.4023
			C516.4292,674.6548,506.6548,665.5708,495.6274,665.5708z"/>
		<path fill="#EC7175" d="M369.102,723.8628c-4.3593,0-8.1669,2.042-10.7314,5.2276c-2.5244-3.1856-6.3613-5.2276-10.6719-5.2276
			c-7.5752,0-14.2817,6.2237-13.7295,13.8672c0.2071,3.2559,1.7754,5.7803,4.2119,8.4824l20.1895,17.3691l17.4878-14.627
			c4.0142-3.8164,6.6479-6.8945,6.9341-11.2246C383.3442,730.0865,376.6675,723.8628,369.102,723.8628z"/>
	</g>
</g>
</svg>
