<?xml version="1.0" encoding="utf-8"?>
<!-- Generator: Adobe Illustrator 17.1.0, SVG Export Plug-In . SVG Version: 6.00 Build 0)  -->
<!DOCTYPE svg PUBLIC "-//W3C//DTD SVG 1.1//EN" "http://www.w3.org/Graphics/SVG/1.1/DTD/svg11.dtd">
<svg version="1.1" id="love-stamp-19" xmlns="http://www.w3.org/2000/svg" xmlns:xlink="http://www.w3.org/1999/xlink" x="0px"
	 y="0px" viewBox="0 0 1009.9956 1009.9956" enable-background="new 0 0 1009.9956 1009.9956" xml:space="preserve">
<g id="love-stamp-19-stamp">
	<path fill="#FEFEFB" d="M986.7769,134.5347c0-12.8223,10.08-23.2178,23.2188-23.2178V90.4068
		c-13.1387,0-23.2188-10.396-23.2188-23.2183c0-12.8222,10.08-23.2378,23.2188-23.2378V22.8238c0,0-0.3555,0-0.4346,0
		c-6.1152,0-12.1904-2.3867-16.5107-6.7071C988.7895,11.836,986.2446,5.8394,986.1851,0h-20.6338
		c0,12.4078-10.3955,23.2378-23.2178,23.2378c-12.8027,0-23.1983-10.83-23.1983-23.2378h-20.8906
		c0,12.4078-10.3956,23.2378-23.2178,23.2378c-12.8223,0-23.1982-10.83-23.1982-23.2378H830.938
		c0,12.4078-10.3955,23.2378-23.2178,23.2378c-12.8223,0-23.1982-10.83-23.1982-23.2378h-20.8907
		c0,12.4078-10.3955,23.2378-23.2177,23.2378c-12.8223,0-23.2188-10.83-23.2188-23.2378h-20.8896
		c0,12.4078-10.376,23.2378-23.1983,23.2378c-12.8222,0-23.2187-10.83-23.2187-23.2378h-20.8897
		c0,12.4078-10.3759,23.2378-23.1982,23.2378S582.5815,12.4078,582.5815,0h-20.8896c0,12.4078-10.3965,23.2378-23.1983,23.2378
		c-12.8222,0-23.2187-10.83-23.2187-23.2378h-20.8901c0,12.4078-10.396,23.2378-23.2183,23.2378
		c-12.8022,0-23.1982-10.83-23.1982-23.2378h-20.8902c0,12.4078-10.396,23.2378-23.2182,23.2378
		c-12.8023,0-23.1983-10.83-23.1983-23.2378h-20.8901c0,12.4078-10.396,23.2378-23.2183,23.2378
		c-12.8222,0-23.1982-10.83-23.1982-23.2378h-20.8902c0,12.4078-10.396,23.2378-23.2182,23.2378
		c-12.8223,0-23.2178-10.83-23.2178-23.2378h-20.8711c0,12.4078-10.3955,23.2378-23.2178,23.2378
		c-12.8222,0-23.2177-10.83-23.2177-23.2378h-20.8907c0,12.4078-10.3759,23.2378-23.1982,23.2378S111.4155,12.4078,111.4155,0
		H90.5249c0,12.4078-10.3955,23.2378-23.1982,23.2378c-12.8223,0-23.2178-10.83-23.2178-23.2378h-20.792
		c-0.0591,5.8394-2.5249,11.836-6.7861,16.1167c-4.3199,4.3204-10.3169,6.7461-16.4322,6.7461C0.0791,22.8628,0,22.8238,0,22.8238
		v20.5547c12.7632,0,23.1987,10.396,23.1987,23.2182c0,12.8418-10.4355,23.2378-23.1987,23.2378v20.9102
		c12.7632,0,23.1987,10.3955,23.1987,23.2177c0,12.8223-10.4355,23.2183-23.1987,23.2183v20.9097
		c12.7632,0,23.1987,10.3965,23.1987,23.2383c0,12.8222-10.4355,23.2177-23.1987,23.2177v20.9102
		c12.7632,0,23.1987,10.3955,23.1987,23.2178c0,12.8222-10.4355,23.2382-23.1987,23.2382v20.8902
		c12.7632,0,23.1987,10.396,23.1987,23.2378c0,12.8222-10.4355,23.2177-23.1987,23.2177v20.9102
		c12.7632,0,23.1987,10.396,23.1987,23.2183c0,12.8418-10.4355,23.2378-23.1987,23.2378v20.8901
		c12.7632,0,23.1987,10.4155,23.1987,23.2378c0,12.8222-10.4355,23.2178-23.1987,23.2178v20.9101
		c12.7632,0,23.1987,10.3965,23.1987,23.2383c0,12.8223-10.4355,23.2178-23.1987,23.2178v20.9101
		c12.7632,0,23.1987,10.3955,23.1987,23.2178c0,12.8223-10.4355,23.2383-23.1987,23.2383v20.8906
		c12.7632,0,23.1987,10.3955,23.1987,23.2373c0,12.8223-10.4355,23.2178-23.1987,23.2178v20.9101
		c12.7632,0,23.1987,10.3965,23.1987,23.2178c0,12.8428-10.4355,23.2383-23.1987,23.2383v20.8896
		c12.7632,0,23.1987,10.4161,23.1987,23.2383c0,12.8223-10.4355,23.2178-23.1987,23.2178v20.9102
		c12.7632,0,23.1987,10.3955,23.1987,23.2382c0,12.8213-10.4355,23.2178-23.1987,23.2178v20.9102
		c12.7632,0,23.1987,10.3955,23.1987,23.2177c0,12.8223-10.4355,23.2178-23.1987,23.2178v21.0088c0,0,0.0791,0,0.0986,0
		c6.1153,0,12.1123,2.6631,16.4322,7.0029c4.3007,4.3008,6.7666,10.6719,6.7861,16.5117h20.792
		c0-13.1386,10.3955-23.2188,23.2178-23.2188c12.8027,0,23.1982,10.0801,23.1982,23.2188h20.8906
		c0-13.1386,10.3955-23.2188,23.2178-23.2188s23.1982,10.0801,23.1982,23.2188h20.8907c0-13.1386,10.3955-23.2188,23.2177-23.2188
		c12.8223,0,23.2178,10.0801,23.2178,23.2188h20.8711c0-13.1386,10.3955-23.2188,23.2178-23.2188
		c12.8222,0,23.2182,10.0801,23.2182,23.2188h20.8902c0-13.1386,10.376-23.2188,23.1982-23.2188
		c12.8223,0,23.2183,10.0801,23.2183,23.2188h20.8901c0-13.1386,10.396-23.2188,23.1983-23.2188
		c12.8222,0,23.2182,10.0801,23.2182,23.2188h20.8902c0-13.1386,10.396-23.2188,23.1982-23.2188
		c12.8223,0,23.2183,10.0801,23.2183,23.2188h20.8901c0-13.1386,10.3965-23.2188,23.2187-23.2188
		c12.8018,0,23.1983,10.0801,23.1983,23.2188h20.8896c0-13.1386,10.3965-23.2188,23.2188-23.2188s23.1982,10.0801,23.1982,23.2188
		h20.8897c0-13.1386,10.3965-23.2188,23.2187-23.2188c12.8223,0,23.1983,10.0801,23.1983,23.2188h20.8896
		c0-13.1386,10.3965-23.2188,23.2188-23.2188c12.8222,0,23.2177,10.0801,23.2177,23.2188h20.8907
		c0-13.1386,10.3759-23.2188,23.1982-23.2188c12.8223,0,23.2178,10.0801,23.2178,23.2188h20.8906
		c0-13.1386,10.376-23.2188,23.1982-23.2188c12.8222,0,23.2178,10.0801,23.2178,23.2188h20.8906
		c0-13.1386,10.3956-23.2188,23.1983-23.2188c12.8223,0,23.2178,10.0801,23.2178,23.2188h20.6338
		c0.0195-5.8398,2.4863-12.2109,6.7861-16.5117c4.3203-4.3398,10.4746-6.9043,16.5898-6.9043c0.0791,0,0.4346-0.0986,0.4346-0.0781
		V966.064c-13.1387,0-23.2188-10.3955-23.2188-23.2178c0-12.8418,10.08-23.2373,23.2188-23.2373v-20.9101
		c-13.1387,0-23.2188-10.3965-23.2188-23.2188c0-12.8222,10.08-23.2373,23.2188-23.2373v-20.8906
		c-13.1387,0-23.2188-10.3954-23.2188-23.2372c0-12.8223,10.08-23.2188,23.2188-23.2188v-20.9102
		c-13.1387,0-23.2188-10.3955-23.2188-23.2178c0-12.8213,10.08-23.2373,23.2188-23.2373v-20.8906
		c-13.1387,0-23.2188-10.416-23.2188-23.2373c0-12.8223,10.08-23.2188,23.2188-23.2188v-20.9092
		c-13.1387,0-23.2188-10.3964-23.2188-23.2187c0-12.8419,10.08-23.2373,23.2188-23.2373v-20.9102
		c-13.1387,0-23.2188-10.3955-23.2188-23.2177c0-12.8223,10.08-23.2188,23.2188-23.2188v-20.9101
		c-13.1387,0-23.2188-10.3956-23.2188-23.2374c0-12.8222,10.08-23.2182,23.2188-23.2182v-20.9097
		c-13.1387,0-23.2188-10.3965-23.2188-23.2182c0-12.8423,10.08-23.2378,23.2188-23.2378v-20.8907
		c-13.1387,0-23.2188-10.415-23.2188-23.2373c0-12.8222,10.08-23.2182,23.2188-23.2182v-20.9102
		c-13.1387,0-23.2188-10.396-23.2188-23.2182c0-12.8418,10.08-23.2374,23.2188-23.2374v-20.9101
		c-13.1387,0-23.2188-10.396-23.2188-23.2183c0-12.8217,10.08-23.2182,23.2188-23.2182v-20.9097
		C996.8569,157.7725,986.7769,147.3765,986.7769,134.5347z"/>
	<g>
		<rect x="81.6675" y="81.2339" fill="#EC7175" width="846.3447" height="846.9756"/>
		<path opacity="0.05" d="M920.1411,89.1246v831.1943H89.5386V89.1246H920.1411 M935.9028,73.3628H73.7768v862.7168h862.126V73.3628
			L935.9028,73.3628z"/>
	</g>
</g>
<g id="love-stamp-19-trumpet">
	<g>
		<path fill="#9F5F5E" d="M646.772,431.2408c-2.8799-0.6905-5.958,1.1045-7.1016,4.2607
			c-15.959,44.542-64.8213,76.1738-121.6533,78.7285l-276.8657,0.1572c-3.3882,0-6.1451,3.2159-6.1451,7.1807v4.4785H223.999
			v-10.9687l-47.2495-13.917v9.1924v60.2148l47.2495-16.333v-10.287h11.0073v5.0791c0,3.9648,2.7569,7.1611,6.1451,7.1611h47.1958
			c-8.9117,10.6719-14.4253,25.1905-14.4253,41.2285c0,32.5684,22.7592,59.0801,50.7119,59.0801h22.2856v8.3838
			c0,5.4248,3.7779,9.8535,8.4434,9.8535c4.6699,0,8.4624-4.4287,8.4624-9.8535v-8.3838h14.5976v8.3838
			c0,5.4248,3.7779,9.8535,8.4527,9.8535c4.6655,0,8.458-4.4287,8.458-9.8535v-8.3838h11.1255v7.9307
			c0,5.4346,3.7827,9.8437,8.4477,9.8437c4.6656,0,8.4483-4.4091,8.4483-9.8437v-7.9307h14.2177v7.9307
			c0,5.4346,3.7774,9.8437,8.4629,9.8437c4.6504,0,8.4229-4.4091,8.4229-9.8437v-7.9307h24.8652
			c27.9522,0,50.7071-26.5117,50.7071-59.0801c0-16.038-5.5137-30.5566-14.42-41.2285h2.6231
			c55.668,2.959,104.3135,33.9492,120.8447,77.5547c1.0059,2.584,3.1953,4.251,5.6416,4.251h1.0459
			c3.412,0,6.1543-3.1953,6.1543-7.1611V438.2632C651.9204,434.8306,649.6323,431.9009,646.772,431.2408z M211.7046,543.523
			c-4.981,1.7266-14.7403,5.0995-22.666,7.832c0-9.7646,0-22.3105,0-31.7988c7.7578,2.2881,17.4384,5.1484,22.666,6.6875
			C211.7046,531.7271,211.7046,538.2271,211.7046,543.523z M235.0063,538.5816c-3.7334,0-7.7719,0-11.0073,0v-7.1602
			c3.2354,0,7.2739,0,11.0073,0V538.5816z M346.9194,642.1851h-22.2856c-21.1665,0-38.4077-20.0908-38.4077-44.7686
			c0-18.5039,9.6416-34.3837,23.3564-41.2285h37.3369V642.1851z M378.4228,642.1851h-14.5976V556.188h14.5976V642.1851z
			 M406.459,642.1851h-11.1255V556.188h11.1255V642.1851z M437.5727,642.1851H423.355V556.188h14.2177V642.1851z M517.7212,597.4165
			c0,24.6778-17.2261,44.7686-38.3975,44.7686h-24.8652V556.188h39.9165C508.0952,563.0328,517.7212,578.9126,517.7212,597.4165z
			 M639.6304,607.3287c-23.9278-37.3526-69.7325-62.7002-121.1396-64.9893c0,0-7.9453-0.0195-20.9394-0.0294
			c-11.6289-0.0293-27.356-0.0684-45.3711-0.0986c-4.0049,0-8.1075-0.0098-12.2998-0.0196c-6.1299,0-12.4126-0.0097-18.8487-0.0195
			c-4.0337-0.0098-8.1172-0.0098-12.2353-0.0303c-5.3799,0-10.7998-0.0195-16.2593-0.0195c-3.7627,0-7.5308-0.0195-11.3032-0.0195
			c-6.791-0.0196-13.562-0.0293-20.2588-0.0391c-3.7583,0-7.4863,0-11.1802-0.0195c-15.0762-0.0205-29.521-0.0596-42.6343-0.0791
			c-28.6328-0.0303-50.7016-0.0791-57.8081-0.0791c-0.9468-0.0196-1.6665-0.0196-2.061-0.0196c0-5.0605,0-8.0683,0-13.1386
			c0.3945,0,1.1143,0,2.061,0c26.9317,0,268.8813,0,268.8813,0c51.9004-2.4551,97.5273-27.8731,121.3965-65.3037
			C639.6304,496.1011,639.6304,576.4663,639.6304,607.3287z"/>
		<path fill="#9F5F5E" d="M351.6636,502.3052h9.4687c3.7481,0,6.7862-4.0146,6.7862-8.956c0-4.961-3.0381-8.9458-6.7862-8.9458
			h-9.4687c-3.7627,0-6.7954,3.9848-6.7954,8.9458C344.8682,498.2906,347.9009,502.3052,351.6636,502.3052z"/>
		<path fill="#9F5F5E" d="M382.9009,502.7486h9.4736c3.7578,0,6.7861-4.0039,6.7861-8.9356c0-4.9614-3.0283-8.9658-6.7861-8.9658
			h-9.4736c-3.753,0-6.7959,4.0044-6.7959,8.9658C376.105,498.7447,379.1479,502.7486,382.9009,502.7486z"/>
		<path fill="#9F5F5E" d="M410.5425,502.9659h9.4883c3.7529,0,6.7861-4.0044,6.7861-8.9556c0-4.9517-3.0332-8.9561-6.7861-8.9561
			h-9.4883c-3.7432,0-6.7661,4.0044-6.7661,8.9561C403.7764,498.9615,406.7993,502.9659,410.5425,502.9659z"/>
		<path fill="#9F5F5E" d="M439.7524,502.5318h9.4883c3.7334,0,6.7764-4.0244,6.7764-8.9561c0-4.9609-3.043-8.9555-6.7764-8.9555
			h-9.4883c-3.7578,0-6.7959,3.9946-6.7959,8.9555C432.9565,498.5074,435.9946,502.5318,439.7524,502.5318z"/>
	</g>
	<g>
		<path fill="#FEFEFB" d="M740.9067,415.0943c-6.2431,0-11.915,2.4463-16.1269,6.4209c-4.2217-4.0044-9.9317-6.48-16.2051-6.48
			c-12.999,0-23.5332,10.5435-23.5332,23.5337c0,8.2554,4.2412,15.4951,10.6719,19.6968l28.9775,23.81h0.5137v-0.0595
			l31.4043-25.7823l-0.0791-0.0195c4.8525-4.3106,7.9101-10.5737,7.9101-17.5566
			C764.4399,425.6578,753.9058,415.0943,740.9067,415.0943z"/>
		<path fill="#FEFEFB" d="M833.2456,328.4854c0-18.523-14.9922-33.5151-33.4951-33.5151c-8.8965,0-16.9453,3.4912-22.9619,9.1328
			c-6.0059-5.7007-14.1035-9.2315-23.0596-9.2315c-18.5039,0-33.4756,15.002-33.4756,33.4854
			c0,11.7568,6.0361,22.0542,15.1895,28.041l41.2275,33.8906h0.75v-0.0889l44.6406-36.7109l-0.0595-0.0098
			C828.8862,347.3438,833.2456,338.4273,833.2456,328.4854z"/>
	</g>
</g>
</svg>
