<?xml version="1.0" encoding="utf-8"?>
<!-- Generator: Adobe Illustrator 17.1.0, SVG Export Plug-In . SVG Version: 6.00 Build 0)  -->
<!DOCTYPE svg PUBLIC "-//W3C//DTD SVG 1.1//EN" "http://www.w3.org/Graphics/SVG/1.1/DTD/svg11.dtd">
<svg version="1.1" id="love-stamp-9" xmlns="http://www.w3.org/2000/svg" xmlns:xlink="http://www.w3.org/1999/xlink" x="0px"
	 y="0px" viewBox="0 0 1009.9956 1009.9956" enable-background="new 0 0 1009.9956 1009.9956" xml:space="preserve">
<g id="love-stamp-9-stamp">
	<path fill="#FEFEFB" d="M986.7769,134.5445c0-12.8321,10.08-23.2276,23.2188-23.2276V90.4165
		c-13.1387,0-23.2188-10.4057-23.2188-23.228c0-12.8222,10.08-23.228,23.2188-23.228V22.8238c0,0-0.3555,0-0.4346,0
		c-6.1152,0-12.1904-2.3867-16.5107-6.7071C988.7895,11.836,986.2446,5.8394,986.1851,0h-20.6338
		c0,12.4078-10.3955,23.2378-23.2178,23.2378c-12.8027,0-23.1983-10.83-23.1983-23.2378h-20.8906
		c0,12.4078-10.3956,23.2378-23.2178,23.2378c-12.8223,0-23.1982-10.83-23.1982-23.2378H830.938
		c0,12.4078-10.3955,23.2378-23.2178,23.2378c-12.8223,0-23.1982-10.83-23.1982-23.2378h-20.8907
		c0,12.4078-10.3955,23.2378-23.2177,23.2378c-12.8223,0-23.2188-10.83-23.2188-23.2378h-20.8896
		c0,12.4078-10.376,23.2378-23.1983,23.2378c-12.8222,0-23.2187-10.83-23.2187-23.2378h-20.8897
		c0,12.4078-10.3759,23.2378-23.1982,23.2378S582.5815,12.4078,582.5815,0h-20.8896c0,12.4078-10.3965,23.2378-23.1983,23.2378
		c-12.8222,0-23.2187-10.83-23.2187-23.2378h-20.8901c0,12.4078-10.396,23.2378-23.2183,23.2378
		c-12.8022,0-23.1982-10.83-23.1982-23.2378h-20.8902c0,12.4078-10.396,23.2378-23.2182,23.2378
		c-12.8023,0-23.1983-10.83-23.1983-23.2378h-20.8901c0,12.4078-10.396,23.2378-23.2183,23.2378
		c-12.8222,0-23.1982-10.83-23.1982-23.2378h-20.8902c0,12.4078-10.396,23.2378-23.2182,23.2378
		c-12.8223,0-23.2178-10.83-23.2178-23.2378h-20.8711c0,12.4078-10.3955,23.2378-23.2178,23.2378
		c-12.8222,0-23.2177-10.83-23.2177-23.2378h-20.8907c0,12.4078-10.3759,23.2378-23.1982,23.2378S111.4155,12.4078,111.4155,0
		H90.5249c0,12.4078-10.3955,23.2378-23.1982,23.2378c-12.8223,0-23.2178-10.83-23.2178-23.2378h-20.792
		c-0.0591,5.8394-2.5249,11.836-6.7861,16.1167c-4.3199,4.3204-10.3169,6.7461-16.4322,6.7461C0.0791,22.8628,0,22.8238,0,22.8238
		v20.5547c12.7632,0,23.1987,10.396,23.1987,23.228S12.7632,89.8345,0,89.8345v20.9102c12.7632,0,23.1987,10.3955,23.1987,23.2177
		c0,12.8223-10.4355,23.2281-23.1987,23.2281v20.8999c12.7632,0,23.1987,10.4062,23.1987,23.2383
		c0,12.8222-10.4355,23.2177-23.1987,23.2177v20.9102c12.7632,0,23.1987,10.3955,23.1987,23.2178
		c0,12.832-10.4355,23.2382-23.1987,23.2382v20.8999c12.7632,0,23.1987,10.396,23.1987,23.2281
		c0,12.8222-10.4355,23.2177-23.1987,23.2177v20.9102c12.7632,0,23.1987,10.396,23.1987,23.228
		c0,12.8321-10.4355,23.2281-23.1987,23.2281v20.9003c12.7632,0,23.1987,10.4053,23.1987,23.2276
		c0,12.8222-10.4355,23.228-23.1987,23.228v20.8999c12.7632,0,23.1987,10.3965,23.1987,23.2383
		c0,12.8223-10.4355,23.2178-23.1987,23.2178v20.9101c12.7632,0,23.1987,10.3955,23.1987,23.2178
		c0,12.8223-10.4355,23.2383-23.1987,23.2383v20.8906c12.7632,0,23.1987,10.3955,23.1987,23.2373
		c0,12.8223-10.4355,23.2178-23.1987,23.2178v20.9101c12.7632,0,23.1987,10.3965,23.1987,23.2178
		c0,12.8428-10.4355,23.2383-23.1987,23.2383v20.8896c12.7632,0,23.1987,10.4161,23.1987,23.2383
		c0,12.8223-10.4355,23.2178-23.1987,23.2178v20.9102c12.7632,0,23.1987,10.3955,23.1987,23.2382
		c0,12.8213-10.4355,23.2178-23.1987,23.2178v20.9102c12.7632,0,23.1987,10.3955,23.1987,23.2177
		c0,12.8223-10.4355,23.2178-23.1987,23.2178v21.0088c0,0,0.0791,0,0.0986,0c6.1153,0,12.1123,2.6631,16.4322,7.0029
		c4.3007,4.3008,6.7666,10.6719,6.7861,16.5117h20.792c0-13.1386,10.3955-23.2188,23.2178-23.2188
		c12.8027,0,23.1982,10.0801,23.1982,23.2188h20.8906c0-13.1386,10.3955-23.2188,23.2178-23.2188s23.1982,10.0801,23.1982,23.2188
		h20.8907c0-13.1386,10.3955-23.2188,23.2177-23.2188c12.8223,0,23.2178,10.0801,23.2178,23.2188h20.8711
		c0-13.1386,10.3955-23.2188,23.2178-23.2188c12.8222,0,23.2182,10.0801,23.2182,23.2188h20.8902
		c0-13.1386,10.376-23.2188,23.1982-23.2188c12.8223,0,23.2183,10.0801,23.2183,23.2188h20.8901
		c0-13.1386,10.396-23.2188,23.1983-23.2188c12.8222,0,23.2182,10.0801,23.2182,23.2188h20.8902
		c0-13.1386,10.396-23.2188,23.1982-23.2188c12.8223,0,23.2183,10.0801,23.2183,23.2188h20.8901
		c0-13.1386,10.3965-23.2188,23.2187-23.2188c12.8018,0,23.1983,10.0801,23.1983,23.2188h20.8896
		c0-13.1386,10.3965-23.2188,23.2188-23.2188s23.1982,10.0801,23.1982,23.2188h20.8897c0-13.1386,10.3965-23.2188,23.2187-23.2188
		c12.8223,0,23.1983,10.0801,23.1983,23.2188h20.8896c0-13.1386,10.3965-23.2188,23.2188-23.2188
		c12.8222,0,23.2177,10.0801,23.2177,23.2188h20.8907c0-13.1386,10.3759-23.2188,23.1982-23.2188
		c12.8223,0,23.2178,10.0801,23.2178,23.2188h20.8906c0-13.1386,10.376-23.2188,23.1982-23.2188
		c12.8222,0,23.2178,10.0801,23.2178,23.2188h20.8906c0-13.1386,10.3956-23.2188,23.1983-23.2188
		c12.8223,0,23.2178,10.0801,23.2178,23.2188h20.6338c0.0195-5.8398,2.4863-12.2109,6.7861-16.5117
		c4.3203-4.3398,10.4746-6.9043,16.5898-6.9043c0.0791,0,0.4346-0.0986,0.4346-0.0781V966.064
		c-13.1387,0-23.2188-10.3955-23.2188-23.2178c0-12.8418,10.08-23.2373,23.2188-23.2373v-20.9101
		c-13.1387,0-23.2188-10.3965-23.2188-23.2188c0-12.8222,10.08-23.2373,23.2188-23.2373v-20.8906
		c-13.1387,0-23.2188-10.3954-23.2188-23.2372c0-12.8223,10.08-23.2188,23.2188-23.2188v-20.9102
		c-13.1387,0-23.2188-10.3955-23.2188-23.2178c0-12.8213,10.08-23.2373,23.2188-23.2373v-20.8906
		c-13.1387,0-23.2188-10.416-23.2188-23.2373c0-12.8223,10.08-23.2188,23.2188-23.2188v-20.9092
		c-13.1387,0-23.2188-10.3964-23.2188-23.2187c0-12.8419,10.08-23.2373,23.2188-23.2373v-20.9102
		c-13.1387,0-23.2188-10.3955-23.2188-23.2177c0-12.8223,10.08-23.2188,23.2188-23.2188v-20.9101
		c-13.1387,0-23.2188-10.3956-23.2188-23.2276c0-12.832,10.08-23.228,23.2188-23.228v-20.9097
		c-13.1387,0-23.2188-10.3965-23.2188-23.2182c0-12.8423,10.08-23.2281,23.2188-23.2281v-20.9004
		c-13.1387,0-23.2188-10.4052-23.2188-23.2373c0-12.8222,10.08-23.2182,23.2188-23.2182v-20.9102
		c-13.1387,0-23.2188-10.396-23.2188-23.2182c0-12.8418,10.08-23.2374,23.2188-23.2374v-20.9003
		c-13.1387,0-23.2188-10.4058-23.2188-23.2281c0-12.8217,10.08-23.2182,23.2188-23.2182v-20.9097
		C996.8569,157.7725,986.7769,147.3765,986.7769,134.5445z"/>
	<g>
		<rect x="81.6675" y="81.2339" fill="#EC7175" width="846.3447" height="846.9756"/>
		<path opacity="0.05" d="M920.1411,89.1246v831.1943H89.5386V89.1246H920.1411 M935.9028,73.3628H73.7768v862.7168h862.126V73.3628
			L935.9028,73.3628z"/>
	</g>
</g>
<path id="love-stamp-9-icon" fill-rule="evenodd" clip-rule="evenodd" fill="#FEFEFB" d="M508.5093,720.4009
	c-12.7632,24.2432-25.5655,36.3555-51.0918,36.3555c-28.1895,0-51.0918-21.6982-51.0918-48.4775
	c0-48.4873,51.0918-96.9854,102.1836-145.4921c51.1015,48.5068,102.1924,97.0048,102.1924,145.4921
	c0,26.7793-22.882,48.4775-51.0909,48.4775C534.0444,756.7563,521.2915,744.6441,508.5093,720.4009z M320.2397,615.7515
	c-27.4003,1.0654-44.3056-3.9648-57.0488-26.0488c-14.124-24.4502-6.7466-55.125,16.4317-68.5
	c41.998-24.2632,109.5214-4.251,177.1044,15.7422c-16.4912,68.4902-32.9433,136.9804-74.9013,161.2343
	c-23.1983,13.4043-53.439,4.418-67.5435-20.0029C301.519,656.0533,305.6025,638.9507,320.2397,615.7515z M337.2832,605.898
	c-18.5034,0.7012-29.8853-2.6719-38.4863-17.5859c-9.5279-16.4913-4.5767-37.2041,11.0864-46.2383
	c28.3271-16.3731,73.9346-2.8799,119.5225,10.6328c-11.106,46.2383-22.1924,92.4775-50.5586,108.8301
	c-15.6236,9.0351-36.0406,2.9892-45.5684-13.5118C324.6387,633.1011,327.4204,621.5513,337.2832,605.898z M316.689,400.3687
	c-14.6172-23.208-18.7007-40.3311-5.918-62.4443c14.1045-24.4214,44.3447-33.397,67.5234-20.003
	c41.9981,24.2539,58.4497,92.7442,74.8819,161.2344c-67.5235,19.9932-135.0674,40.0156-177.0645,15.752
	c-23.1787-13.3848-30.5566-44.0694-16.4326-68.5103C272.4424,404.2842,289.3286,399.2935,316.689,400.3687z M333.7524,410.2022
	c-9.8632-15.6626-12.625-27.2227-4.0048-42.126c9.5083-16.5015,29.9453-22.5571,45.6079-13.5024
	c28.3271,16.353,39.3935,62.5918,50.539,108.811c-45.5879,13.5122-91.1953,27.0054-119.5229,10.6519
	c-15.6626-9.0342-20.6338-29.7666-11.1055-46.2383C303.8862,412.8653,315.2685,409.482,333.7524,410.2022z M501.4863,289.6143
	c12.7632-24.2437,25.5464-36.3755,51.0816-36.3755c28.209,0,51.0918,21.7188,51.0918,48.4873
	c0,48.4878-51.0918,96.9854-102.1734,145.4927c-51.1113-48.5073-102.2026-97.0049-102.2026-145.4927
	c0-26.7685,22.9023-48.4873,51.0913-48.4873C475.9409,253.2388,488.7036,265.3706,501.4863,289.6143z M501.4863,309.3013
	c8.6206-16.373,17.2407-24.54,34.482-24.54c19.0555,0,34.4824,14.6572,34.4824,32.7265c0,32.7261-34.4824,65.4522-68.9644,98.208
	c-34.4819-32.7558-68.9834-65.4819-68.9834-98.208c0-18.0693,15.4458-32.7265,34.5015-32.7265
	C484.2456,284.7613,492.8657,292.9283,501.4863,309.3013z M689.7554,394.2632c27.4101-1.0654,44.2959,3.9453,57.0693,26.0586
	c14.085,24.4414,6.7168,55.106-16.4424,68.4903c-42.0176,24.2441-109.5312,4.2314-177.0742-15.7515
	c16.4512-68.4902,32.8838-136.981,74.8809-161.2442c23.1992-13.3647,53.4199-4.4184,67.5439,20.0123
	C708.4956,353.962,704.4028,371.0845,689.7554,394.2632z M672.7124,404.0967c18.4932-0.7099,29.8848,2.6734,38.5254,17.606
	c9.5078,16.4912,4.5273,37.2041-11.0957,46.2192c-28.3574,16.3828-73.9649,2.8902-119.5527-10.6323
	c11.1259-46.2393,22.2021-92.458,50.5585-108.8311c15.6534-9.0351,36.0606-2.979,45.5879,13.5127
	C685.3472,376.9038,682.5854,388.4634,672.7124,404.0967z M693.3061,609.6363c14.6172,23.1992,18.7012,40.3213,5.9483,62.4345
	c-14.1143,24.4512-44.375,33.3975-67.544,20.0225c-42.0078-24.2637-58.4589-92.7344-74.8808-161.2441
	c67.543-19.9825,135.0566-40.0049,177.0742-15.7422c23.1786,13.375,30.5264,44.0595,16.4316,68.501
	C737.5727,605.7115,720.7065,610.7222,693.3061,609.6363z M676.2339,599.7935c9.8828,15.6631,12.6347,27.2324,4.0137,42.1553
	c-9.5274,16.4912-29.9249,22.5273-45.5782,13.4931c-28.3564-16.3632-39.4433-62.5927-50.5586-108.831
	c45.5879-13.4932,91.1661-26.9961,119.5225-10.6328c15.6533,9.0351,20.6338,29.748,11.0967,46.2382
	C706.1186,597.1402,694.727,600.523,676.2339,599.7935z M508.5093,700.6939c-8.6011,16.373-17.2412,24.5596-34.502,24.5596
	c-19.0161,0-34.4814-14.6661-34.4814-32.7266c0-32.7354,34.4814-65.4717,68.9834-98.2079
	c34.5009,32.7363,69.0029,65.4726,69.0029,98.2079c0,18.0605-15.4658,32.7266-34.502,32.7266
	C525.7495,725.2535,517.1392,717.0669,508.5093,700.6939z"/>
</svg>
