<?xml version="1.0" encoding="utf-8"?>
<!-- Generator: Adobe Illustrator 17.1.0, SVG Export Plug-In . SVG Version: 6.00 Build 0)  -->
<!DOCTYPE svg PUBLIC "-//W3C//DTD SVG 1.1//EN" "http://www.w3.org/Graphics/SVG/1.1/DTD/svg11.dtd">
<svg version="1.1" id="love-stamp-25" xmlns="http://www.w3.org/2000/svg" xmlns:xlink="http://www.w3.org/1999/xlink" x="0px"
	 y="0px" viewBox="0 0 1009.9956 1009.9956" enable-background="new 0 0 1009.9956 1009.9956" xml:space="preserve">
<g id="love-stamp-25-stamp">
	<path fill="#FEFEFB" d="M986.7769,134.5542c0-12.8418,10.08-23.2373,23.2188-23.2373V90.4263
		c-13.1387,0-23.2188-10.4155-23.2188-23.2378c0-12.8222,10.08-23.2182,23.2188-23.2182V22.8238c0,0-0.3555,0-0.4346,0
		c-6.1152,0-12.1904-2.3867-16.5107-6.7071C988.7895,11.836,986.2446,5.8394,986.1851,0h-20.6338
		c0,12.4078-10.3955,23.2378-23.2178,23.2378c-12.8027,0-23.1983-10.83-23.1983-23.2378h-20.8906
		c0,12.4078-10.3956,23.2378-23.2178,23.2378c-12.8223,0-23.1982-10.83-23.1982-23.2378H830.938
		c0,12.4078-10.3955,23.2378-23.2178,23.2378c-12.8223,0-23.1982-10.83-23.1982-23.2378h-20.8907
		c0,12.4078-10.3955,23.2378-23.2177,23.2378c-12.8223,0-23.2188-10.83-23.2188-23.2378h-20.8896
		c0,12.4078-10.376,23.2378-23.1983,23.2378c-12.8222,0-23.2187-10.83-23.2187-23.2378h-20.8897
		c0,12.4078-10.3759,23.2378-23.1982,23.2378S582.5815,12.4078,582.5815,0h-20.8896c0,12.4078-10.3965,23.2378-23.1983,23.2378
		c-12.8222,0-23.2187-10.83-23.2187-23.2378h-20.8901c0,12.4078-10.396,23.2378-23.2183,23.2378
		c-12.8022,0-23.1982-10.83-23.1982-23.2378h-20.8902c0,12.4078-10.396,23.2378-23.2182,23.2378
		c-12.8023,0-23.1983-10.83-23.1983-23.2378h-20.8901c0,12.4078-10.396,23.2378-23.2183,23.2378
		c-12.8222,0-23.1982-10.83-23.1982-23.2378h-20.8902c0,12.4078-10.396,23.2378-23.2182,23.2378
		c-12.8223,0-23.2178-10.83-23.2178-23.2378h-20.8711c0,12.4078-10.3955,23.2378-23.2178,23.2378
		c-12.8222,0-23.2177-10.83-23.2177-23.2378h-20.8907c0,12.4078-10.3759,23.2378-23.1982,23.2378S111.4155,12.4078,111.4155,0
		H90.5249c0,12.4078-10.3955,23.2378-23.1982,23.2378c-12.8223,0-23.2178-10.83-23.2178-23.2378h-20.792
		c-0.0591,5.8394-2.5249,11.836-6.7861,16.1167c-4.3199,4.3204-10.3169,6.7461-16.4322,6.7461C0.0791,22.8628,0,22.8238,0,22.8238
		v20.5547c12.7632,0,23.1987,10.396,23.1987,23.2382c0,12.8218-10.4355,23.2178-23.1987,23.2178v20.9102
		c12.7632,0,23.1987,10.3955,23.1987,23.2177c0,12.8223-10.4355,23.2383-23.1987,23.2383v20.8897
		c12.7632,0,23.1987,10.416,23.1987,23.2383c0,12.8222-10.4355,23.2177-23.1987,23.2177v20.9102
		c12.7632,0,23.1987,10.3955,23.1987,23.2178c0,12.8422-10.4355,23.2382-23.1987,23.2382v20.9102
		c12.7632,0,23.1987,10.3955,23.1987,23.2178c0,12.8222-10.4355,23.2177-23.1987,23.2177v20.9102
		c12.7632,0,23.1987,10.396,23.1987,23.2378c0,12.8223-10.4355,23.2183-23.1987,23.2183v20.9101
		c12.7632,0,23.1987,10.3955,23.1987,23.2178c0,12.8222-10.4355,23.2378-23.1987,23.2378v20.8901
		c12.7632,0,23.1987,10.3965,23.1987,23.2383c0,12.8223-10.4355,23.2178-23.1987,23.2178v20.9101
		c12.7632,0,23.1987,10.3955,23.1987,23.2178c0,12.8223-10.4355,23.2383-23.1987,23.2383v20.8906
		c12.7632,0,23.1987,10.3955,23.1987,23.2373c0,12.8223-10.4355,23.2178-23.1987,23.2178v20.9101
		c12.7632,0,23.1987,10.3965,23.1987,23.2178c0,12.8428-10.4355,23.2383-23.1987,23.2383v20.8896
		c12.7632,0,23.1987,10.4161,23.1987,23.2383c0,12.8223-10.4355,23.2178-23.1987,23.2178v20.9102
		c12.7632,0,23.1987,10.3955,23.1987,23.2382c0,12.8213-10.4355,23.2178-23.1987,23.2178v20.9102
		c12.7632,0,23.1987,10.3955,23.1987,23.2177c0,12.8223-10.4355,23.2178-23.1987,23.2178v21.0088c0,0,0.0791,0,0.0986,0
		c6.1153,0,12.1123,2.6631,16.4322,7.0029c4.3007,4.3008,6.7666,10.6719,6.7861,16.5117h20.792
		c0-13.1386,10.3955-23.2188,23.2178-23.2188c12.8027,0,23.1982,10.0801,23.1982,23.2188h20.8906
		c0-13.1386,10.3955-23.2188,23.2178-23.2188s23.1982,10.0801,23.1982,23.2188h20.8907c0-13.1386,10.3955-23.2188,23.2177-23.2188
		c12.8223,0,23.2178,10.0801,23.2178,23.2188h20.8711c0-13.1386,10.3955-23.2188,23.2178-23.2188
		c12.8222,0,23.2182,10.0801,23.2182,23.2188h20.8902c0-13.1386,10.376-23.2188,23.1982-23.2188
		c12.8223,0,23.2183,10.0801,23.2183,23.2188h20.8901c0-13.1386,10.396-23.2188,23.1983-23.2188
		c12.8222,0,23.2182,10.0801,23.2182,23.2188h20.8902c0-13.1386,10.396-23.2188,23.1982-23.2188
		c12.8223,0,23.2183,10.0801,23.2183,23.2188h20.8901c0-13.1386,10.3965-23.2188,23.2187-23.2188
		c12.8018,0,23.1983,10.0801,23.1983,23.2188h20.8896c0-13.1386,10.3965-23.2188,23.2188-23.2188s23.1982,10.0801,23.1982,23.2188
		h20.8897c0-13.1386,10.3965-23.2188,23.2187-23.2188c12.8223,0,23.1983,10.0801,23.1983,23.2188h20.8896
		c0-13.1386,10.3965-23.2188,23.2188-23.2188c12.8222,0,23.2177,10.0801,23.2177,23.2188h20.8907
		c0-13.1386,10.3759-23.2188,23.1982-23.2188c12.8223,0,23.2178,10.0801,23.2178,23.2188h20.8906
		c0-13.1386,10.376-23.2188,23.1982-23.2188c12.8222,0,23.2178,10.0801,23.2178,23.2188h20.8906
		c0-13.1386,10.3956-23.2188,23.1983-23.2188c12.8223,0,23.2178,10.0801,23.2178,23.2188h20.6338
		c0.0195-5.8398,2.4863-12.2109,6.7861-16.5117c4.3203-4.3398,10.4746-6.9043,16.5898-6.9043c0.0791,0,0.4346-0.0986,0.4346-0.0781
		V966.064c-13.1387,0-23.2188-10.3955-23.2188-23.2178c0-12.8418,10.08-23.2373,23.2188-23.2373v-20.9101
		c-13.1387,0-23.2188-10.3965-23.2188-23.2188c0-12.8222,10.08-23.2373,23.2188-23.2373v-20.8906
		c-13.1387,0-23.2188-10.3954-23.2188-23.2372c0-12.8223,10.08-23.2188,23.2188-23.2188v-20.9102
		c-13.1387,0-23.2188-10.3955-23.2188-23.2178c0-12.8213,10.08-23.2373,23.2188-23.2373v-20.8906
		c-13.1387,0-23.2188-10.416-23.2188-23.2373c0-12.8223,10.08-23.2188,23.2188-23.2188v-20.9092
		c-13.1387,0-23.2188-10.3964-23.2188-23.2187c0-12.8419,10.08-23.2373,23.2188-23.2373v-20.9102
		c-13.1387,0-23.2188-10.3955-23.2188-23.2177c0-12.8223,10.08-23.2188,23.2188-23.2188v-20.9101
		c-13.1387,0-23.2188-10.3956-23.2188-23.2178c0-12.8418,10.08-23.2378,23.2188-23.2378v-20.9097
		c-13.1387,0-23.2188-10.3965-23.2188-23.2182c0-12.8423,10.08-23.2183,23.2188-23.2183v-20.9102
		c-13.1387,0-23.2188-10.3955-23.2188-23.2373c0-12.8222,10.08-23.2182,23.2188-23.2182v-20.9102
		c-13.1387,0-23.2188-10.396-23.2188-23.2182c0-12.8418,10.08-23.2374,23.2188-23.2374v-20.8906
		c-13.1387,0-23.2188-10.4155-23.2188-23.2378c0-12.8217,10.08-23.2182,23.2188-23.2182v-20.9097
		C996.8569,157.7725,986.7769,147.3765,986.7769,134.5542z"/>
	<g>
		<rect x="81.6675" y="81.2339" fill="#9F5F5E" width="846.3447" height="846.9756"/>
		<path opacity="0.05" d="M920.1411,89.1246v831.1943H89.5386V89.1246H920.1411 M935.9028,73.3628H73.7768v862.7168h862.126V73.3628
			L935.9028,73.3628z"/>
	</g>
</g>
<g id="love-stamp-25-lesbian-couple">
	<g>
		<path fill="none" d="M672.7515,512.356c1.4005,1.6964,2.9688,3.6689,4.6757,5.9971c-1.0263-2.9395-2.0722-5.8301-3.0488-8.7588
			C673.856,510.521,673.2944,511.4087,672.7515,512.356z"/>
		<path fill="none" d="M568.3589,509.5445c0,0-2.0908,5.9677-3.1563,8.9658c1.7754-2.3272,3.3828-4.3789,4.8233-6.1544
			C569.4644,511.4087,568.9019,510.4624,568.3589,509.5445z"/>
		<path fill="#FEFEFB" d="M390.4756,389.6768c23.7803,0,43.0288-19.2534,43.0288-43.0234c0-4.1226-0.7647-8.0191-1.8399-11.7964
			l-13.8183-18.5625c-0.0195,0.0195-0.1182,0.0888-0.148,0.1377c-1.7309,0.75-4.8081-3.8858-4.8081-3.8858l0.6407-1.0058
			l-23.42-4.3799c0,0-0.1972-1.3809-0.143-3.4717c-23.5288,0.2861-42.4908,19.3911-42.4908,42.9644
			C347.477,370.4234,366.7056,389.6768,390.4756,389.6768z"/>
		<path fill="#FEFEFB" d="M491.6284,589.6636c0.1919-0.75,0.3447-1.4795,0.4287-2.0908c0.9717-6.707,2.7027-13.6514,4.3794-20.3585
			c1.2622-5.0693,2.52-10.0596,3.3784-14.7744c0.271-1.4005,0.5176-2.7422,0.774-4.1231
			c-1.5386-8.2451-3.1412-16.4521-4.774-24.7177c-2.8505-14.3604-5.8784-28.7212-9.1035-43.0328
			c-2.1011-9.518-3.9702-19.4306-6.8008-28.9487c-5.6816-19.1347-16.1167-34.896-34.4326-43.7925
			c-16.6445-8.1176-35.8086-10.8891-54.164-10.8891c-15.3418,0-29.5996,1.9433-41.9532,5.563
			c-17.665,5.1587-32.4746,14.8344-41.1001,31.5034c-7.0278,13.4927-9.6757,28.5439-13.1528,43.2007
			c-6.0361,25.4765-11.1992,51.3081-15.8696,77.1108c-1.9781,11.0469-6.0904,23.6123-7.6685,34.7578
			c-0.5625,3.9063-3.3584,11.5996,0.3399,14.1836c5.5879,3.8467,14.7309,3.5117,19.8994-0.7305
			c4.6997-3.8662,6.1299-10.1982,7.8755-15.7216c2.185-7.0225,4.5522-13.9864,6.9292-20.8897
			c5.1631-15.1699,10.5634-30.2607,15.8798-45.3906c2.9292-8.2559,5.7994-16.5117,8.6397-24.8262
			c1.4009-4.1723,2.8603-8.3345,4.2959-12.4971c0.3398-0.9467,1.7607-3.4321,1.5483-4.4775
			c1.7657,8.5215,5.8443,21.6792,15.3619,34.4619c-7.5206,7.9307-42.959,48.6455-48.4034,118.3789
			c-0.0791,0.6309,0.1475,1.2422,0.5225,1.6963c0.4336,0.4737,0.9814,0.7295,1.6274,0.7295l44.2217,1.1045l23.5982,170.9893
			c0.1474,1.1045,1.1093,1.913,2.2138,1.913c0,0,23.0703,0,23.1045,0h5.6568c1.1098,0,2.0366-0.8281,2.185-1.913l23.5781-171.0088
			l44.251-1.0645c0.6016-0.0205,1.1836-0.2763,1.5928-0.7305c0.4736-0.4736,0.6465-1.0449,0.582-1.6767
			c-5.4443-69.7725-40.9077-110.5078-48.4629-118.418c9.543-12.7827,13.6455-25.9404,15.3867-34.4619
			c4.7886,13.8872,9.4141,27.834,14.42,41.6816c7.7031,21.4825,14.8144,43.1817,22.4883,64.6836
			c1.2377,3.3731,6.7363,16.3331,8.8325,19.253c0.4931,0.6904,1.312,1.2226,2.2387,1.6963
			C489.3989,600.2769,490.8091,593.5103,491.6284,589.6636z"/>
		<path fill="#91D0D2" d="M431.6645,334.857l0.9024,1.2226c0,0,19.5391-5.9966,13.8828-26.0781l-22.4883-0.6113l0.0293-0.0196
			c-0.6211-5.1093-4.4726-5.1787-5.5283-5.1093l-10.9873-21.0283c-15.1699,2.8007-17.3789,14.5185-17.5073,20.456
			c0.1821,0,0.3354-0.0688,0.5078-0.0688C410.1333,303.6202,426.4863,316.8667,431.6645,334.857z"/>
		<path fill="#91D0D2" d="M390.1108,307.1607l23.42,4.3799l-0.6407,1.0058c0,0,3.0772,4.6358,4.8081,3.8858
			c0.0298-0.0489,0.1285-0.1182,0.148-0.1377l13.8183,18.5625c-5.1782-17.9903-21.5312-31.2368-41.1889-31.2368
			c-0.1724,0-0.3257,0.0688-0.5078,0.0688C389.9136,305.7798,390.1108,307.1607,390.1108,307.1607z"/>
		<path fill="#FEFEFB" d="M664.4175,346.6534c0-4.1226-0.7793-8.0191-1.8545-11.7964l-13.8086-18.5625
			c-0.04,0.0195-0.1475,0.0888-0.168,0.1377c-1.7256,0.75-4.7928-3.8858-4.7928-3.8858l0.6308-1.0058l-23.4346-4.3799
			c0,0-0.1582-1.3809-0.1191-3.4717c-23.5332,0.2861-42.4805,19.3911-42.4805,42.9644c0,18.7797,12.0723,34.5805,28.8496,40.4389
			c4.8926-0.3945,9.8438-0.6504,14.9532-0.6504c4.6455,0,9.0938,0.2559,13.4922,0.6114
			C652.3745,381.1353,664.4175,365.3736,664.4175,346.6534z"/>
		<path fill="#FEFEFB" d="M607.2397,387.0923c4.4688,1.5586,9.1729,2.5845,14.1446,2.5845c5.0498,0,9.8134-1.0454,14.3008-2.6235
			c-4.3985-0.3555-8.8467-0.6114-13.4922-0.6114C617.0835,386.4419,612.1323,386.6978,607.2397,387.0923z"/>
		<path fill="#FEFEFB" d="M606.3325,397.7447c-9.3214,0.8681-18.1387,2.4067-26.0781,4.7544
			c-17.665,5.1587-32.4502,14.8344-41.1201,31.5034c-7.0127,13.4927-9.6563,28.5439-13.1573,43.2007
			c-5.997,25.4765-11.1709,51.3081-15.8505,77.1108c-1.1836,6.707-3.1563,13.9863-4.8872,21.1465
			c0.8188,4.4785,1.7758,8.916,2.5942,13.375c0.7402,3.7285,2.2588,11.6582,0.2119,15.1494
			c-0.2568,0.4346-0.6758,0.7891-1.0752,1.124c5.2871,1.5782,11.7275,0.7305,15.7422-2.584
			c4.7041-3.8662,6.1543-10.1982,7.8603-15.7216c2.21-7.0225,4.5577-13.9864,6.9639-20.8897
			c5.1387-15.1699,10.5342-30.2607,15.8495-45.3906c2.8907-8.2559,5.8301-16.5117,8.6309-24.8262
			c1.4394-4.1723,2.8896-8.3345,4.3203-12.4971c0.3252-0.9467,1.7656-3.4321,1.5488-4.4775
			c1.7549,8.5215,5.8086,21.6792,15.376,34.4619c-7.5254,7.9307-42.9639,48.6455-48.4482,118.3789
			c-0.0684,0.6309,0.1679,1.2422,0.5527,1.6963c0.4141,0.4737,0.9961,0.7295,1.6074,0.7295l44.2266,1.1045l23.5937,170.9893
			c0.1475,1.1045,1.1241,1.913,2.2188,1.913c0,0,23.0801,0,23.0996,0h5.6816c1.1045,0,2.041-0.8281,2.1602-1.913l23.6123-171.0088
			l44.207-1.0645c0.6406-0.0205,1.1934-0.2763,1.6172-0.7305c0.4639-0.4736,0.6318-1.0449,0.5723-1.6767
			c-5.4844-69.7725-40.9033-110.5078-48.458-118.418c9.5478-12.7827,13.6504-25.9404,15.3769-34.4619
			c4.8029,13.8872,9.4385,27.834,14.4005,41.6816c7.7129,21.4825,14.873,43.1817,22.5469,64.6836
			c1.2226,3.3731,6.6973,16.3331,8.8086,19.253c2.9092,4.122,15.5137,4.3994,18.3154-0.3555
			c2.0322-3.4911,0.5225-11.4209-0.2168-15.1494c-1.1445-5.958-2.5352-11.8955-3.4131-17.9121
			c-2.3867-15.8799-5.4834-31.5821-8.6201-47.3242c-2.8408-14.3604-5.8584-28.7212-9.084-43.0328
			c-2.1212-9.518-3.9756-19.4306-6.7861-28.9487c-5.7305-19.1347-16.1162-34.896-34.4522-43.7925
			c-12.2207-5.9672-25.8418-9.0151-39.4824-10.2182c-4.9413,1.4795-10.0703,2.5444-15.5146,2.5444
			C616.1265,400.1514,611.1362,399.1656,606.3325,397.7447z"/>
		<path fill="#FEFEFB" d="M507.8335,588.8355c-0.8184-4.459-1.7754-8.8965-2.5942-13.375
			c-1.1392,4.6161-2.1846,9.2129-2.8062,13.6113c-0.5522,3.9063-3.314,11.5996,0.375,14.1836
			c1.2378,0.8477,2.668,1.4004,4.1621,1.8535c0.3994-0.3349,0.8184-0.6894,1.0752-1.124
			C510.0923,600.4937,508.5737,592.564,507.8335,588.8355z"/>
		<path fill="#FEFEFB" d="M606.3325,397.7447c4.8036,1.4209,9.7939,2.4067,15.0518,2.4067c5.4443,0,10.5732-1.0649,15.5146-2.5444
			c-4.912-0.4541-9.834-0.6709-14.706-0.6709C616.7378,396.9361,611.4907,397.2417,606.3325,397.7447z"/>
		<path fill="#91D0D2" d="M662.563,334.857l0.8974,1.2226c0,0,19.5098-5.9966,13.8975-26.0781l-22.4785-0.6113l0.0293-0.0196
			c-0.6406-5.1093-4.4776-5.1787-5.5332-5.1093l-10.9971-21.0283c-15.1895,2.8007-17.3984,14.5185-17.5078,20.456
			c0.168,0,0.3457-0.0688,0.5137-0.0688C641.021,303.6202,657.4145,316.8667,662.563,334.857z"/>
		<path fill="#91D0D2" d="M620.9897,307.1607l23.4346,4.3799l-0.6308,1.0058c0,0,3.0673,4.6358,4.7928,3.8858
			c0.0205-0.0489,0.1281-0.1182,0.168-0.1377l13.8086,18.5625c-5.1485-17.9903-21.542-31.2368-41.1787-31.2368
			c-0.168,0-0.3457,0.0688-0.5137,0.0688C620.8315,305.7798,620.9897,307.1607,620.9897,307.1607z"/>
	</g>
	<path fill="#EC7175" d="M544.7856,207.8184c-19.539-13.7983-39.3637,3.3931-39.3637,3.3931s-19.5093-17.5762-39.2954-4.1621
		c-11.0616,7.476-17.3887,23.0009-9.5127,40.1826c1.8545,4.123,4.542,8.2656,8.1567,12.4668
		c8.4038,9.7846,21.9214,19.6084,42.1899,28.3867c18.5137-8.749,31.0498-18.6021,38.9297-28.3867
		c3.3741-4.2012,5.8789-8.3438,7.6836-12.4668C560.7847,230.5435,555.5269,215.4234,544.7856,207.8184z"/>
</g>
</svg>
