<?xml version="1.0" encoding="utf-8"?>
<!-- Generator: Adobe Illustrator 17.1.0, SVG Export Plug-In . SVG Version: 6.00 Build 0)  -->
<!DOCTYPE svg PUBLIC "-//W3C//DTD SVG 1.1//EN" "http://www.w3.org/Graphics/SVG/1.1/DTD/svg11.dtd">
<svg version="1.1" id="love-stamp-34" xmlns="http://www.w3.org/2000/svg" xmlns:xlink="http://www.w3.org/1999/xlink" x="0px"
	 y="0px" viewBox="0 0 1009.9956 1009.9956" enable-background="new 0 0 1009.9956 1009.9956" xml:space="preserve">
<g id="love-stamp-34-stamp">
	<path fill="#FEFEFB" d="M986.7769,134.5445c0-12.8321,10.08-23.2276,23.2188-23.2276V90.4165
		c-13.1387,0-23.2188-10.4057-23.2188-23.228c0-12.8222,10.08-23.228,23.2188-23.228V22.8238c0,0-0.3555,0-0.4346,0
		c-6.1152,0-12.1904-2.3867-16.5107-6.7071C988.7895,11.836,986.2446,5.8394,986.1851,0h-20.6338
		c0,12.4078-10.3955,23.2378-23.2178,23.2378c-12.8027,0-23.1983-10.83-23.1983-23.2378h-20.8906
		c0,12.4078-10.3956,23.2378-23.2178,23.2378c-12.8223,0-23.1982-10.83-23.1982-23.2378H830.938
		c0,12.4078-10.3955,23.2378-23.2178,23.2378c-12.8223,0-23.1982-10.83-23.1982-23.2378h-20.8907
		c0,12.4078-10.3955,23.2378-23.2177,23.2378c-12.8223,0-23.2188-10.83-23.2188-23.2378h-20.8896
		c0,12.4078-10.376,23.2378-23.1983,23.2378c-12.8222,0-23.2187-10.83-23.2187-23.2378h-20.8897
		c0,12.4078-10.3759,23.2378-23.1982,23.2378S582.5815,12.4078,582.5815,0h-20.8896c0,12.4078-10.3965,23.2378-23.1983,23.2378
		c-12.8222,0-23.2187-10.83-23.2187-23.2378h-20.8901c0,12.4078-10.396,23.2378-23.2183,23.2378
		c-12.8022,0-23.1982-10.83-23.1982-23.2378h-20.8902c0,12.4078-10.396,23.2378-23.2182,23.2378
		c-12.8023,0-23.1983-10.83-23.1983-23.2378h-20.8901c0,12.4078-10.396,23.2378-23.2183,23.2378
		c-12.8222,0-23.1982-10.83-23.1982-23.2378h-20.8902c0,12.4078-10.396,23.2378-23.2182,23.2378
		c-12.8223,0-23.2178-10.83-23.2178-23.2378h-20.8711c0,12.4078-10.3955,23.2378-23.2178,23.2378
		c-12.8222,0-23.2177-10.83-23.2177-23.2378h-20.8907c0,12.4078-10.3759,23.2378-23.1982,23.2378S111.4155,12.4078,111.4155,0
		H90.5249c0,12.4078-10.3955,23.2378-23.1982,23.2378c-12.8223,0-23.2178-10.83-23.2178-23.2378h-20.792
		c-0.0591,5.8394-2.5249,11.836-6.7861,16.1167c-4.3199,4.3204-10.3169,6.7461-16.4322,6.7461C0.0791,22.8628,0,22.8238,0,22.8238
		v20.5547c12.7632,0,23.1987,10.396,23.1987,23.228S12.7632,89.8345,0,89.8345v20.9102c12.7632,0,23.1987,10.3955,23.1987,23.2177
		c0,12.8223-10.4355,23.2281-23.1987,23.2281v20.8999c12.7632,0,23.1987,10.4062,23.1987,23.2383
		c0,12.8222-10.4355,23.2177-23.1987,23.2177v20.9102c12.7632,0,23.1987,10.3955,23.1987,23.2178
		c0,12.832-10.4355,23.2382-23.1987,23.2382v20.8999c12.7632,0,23.1987,10.396,23.1987,23.2281
		c0,12.8222-10.4355,23.2177-23.1987,23.2177v20.9102c12.7632,0,23.1987,10.396,23.1987,23.228
		c0,12.8321-10.4355,23.2281-23.1987,23.2281v20.9003c12.7632,0,23.1987,10.4053,23.1987,23.2276
		c0,12.8222-10.4355,23.228-23.1987,23.228v20.8999c12.7632,0,23.1987,10.3965,23.1987,23.2383
		c0,12.8223-10.4355,23.2178-23.1987,23.2178v20.9101c12.7632,0,23.1987,10.3955,23.1987,23.2178
		c0,12.8223-10.4355,23.2383-23.1987,23.2383v20.8906c12.7632,0,23.1987,10.3955,23.1987,23.2373
		c0,12.8223-10.4355,23.2178-23.1987,23.2178v20.9101c12.7632,0,23.1987,10.3965,23.1987,23.2178
		c0,12.8428-10.4355,23.2383-23.1987,23.2383v20.8896c12.7632,0,23.1987,10.4161,23.1987,23.2383
		c0,12.8223-10.4355,23.2178-23.1987,23.2178v20.9102c12.7632,0,23.1987,10.3955,23.1987,23.2382
		c0,12.8213-10.4355,23.2178-23.1987,23.2178v20.9102c12.7632,0,23.1987,10.3955,23.1987,23.2177
		c0,12.8223-10.4355,23.2178-23.1987,23.2178v21.0088c0,0,0.0791,0,0.0986,0c6.1153,0,12.1123,2.6631,16.4322,7.0029
		c4.3007,4.3008,6.7666,10.6719,6.7861,16.5117h20.792c0-13.1386,10.3955-23.2188,23.2178-23.2188
		c12.8027,0,23.1982,10.0801,23.1982,23.2188h20.8906c0-13.1386,10.3955-23.2188,23.2178-23.2188s23.1982,10.0801,23.1982,23.2188
		h20.8907c0-13.1386,10.3955-23.2188,23.2177-23.2188c12.8223,0,23.2178,10.0801,23.2178,23.2188h20.8711
		c0-13.1386,10.3955-23.2188,23.2178-23.2188c12.8222,0,23.2182,10.0801,23.2182,23.2188h20.8902
		c0-13.1386,10.376-23.2188,23.1982-23.2188c12.8223,0,23.2183,10.0801,23.2183,23.2188h20.8901
		c0-13.1386,10.396-23.2188,23.1983-23.2188c12.8222,0,23.2182,10.0801,23.2182,23.2188h20.8902
		c0-13.1386,10.396-23.2188,23.1982-23.2188c12.8223,0,23.2183,10.0801,23.2183,23.2188h20.8901
		c0-13.1386,10.3965-23.2188,23.2187-23.2188c12.8018,0,23.1983,10.0801,23.1983,23.2188h20.8896
		c0-13.1386,10.3965-23.2188,23.2188-23.2188s23.1982,10.0801,23.1982,23.2188h20.8897c0-13.1386,10.3965-23.2188,23.2187-23.2188
		c12.8223,0,23.1983,10.0801,23.1983,23.2188h20.8896c0-13.1386,10.3965-23.2188,23.2188-23.2188
		c12.8222,0,23.2177,10.0801,23.2177,23.2188h20.8907c0-13.1386,10.3759-23.2188,23.1982-23.2188
		c12.8223,0,23.2178,10.0801,23.2178,23.2188h20.8906c0-13.1386,10.376-23.2188,23.1982-23.2188
		c12.8222,0,23.2178,10.0801,23.2178,23.2188h20.8906c0-13.1386,10.3956-23.2188,23.1983-23.2188
		c12.8223,0,23.2178,10.0801,23.2178,23.2188h20.6338c0.0195-5.8398,2.4863-12.2109,6.7861-16.5117
		c4.3203-4.3398,10.4746-6.9043,16.5898-6.9043c0.0791,0,0.4346-0.0986,0.4346-0.0781V966.064
		c-13.1387,0-23.2188-10.3955-23.2188-23.2178c0-12.8418,10.08-23.2373,23.2188-23.2373v-20.9101
		c-13.1387,0-23.2188-10.3965-23.2188-23.2188c0-12.8222,10.08-23.2373,23.2188-23.2373v-20.8906
		c-13.1387,0-23.2188-10.3954-23.2188-23.2372c0-12.8223,10.08-23.2188,23.2188-23.2188v-20.9102
		c-13.1387,0-23.2188-10.3955-23.2188-23.2178c0-12.8213,10.08-23.2373,23.2188-23.2373v-20.8906
		c-13.1387,0-23.2188-10.416-23.2188-23.2373c0-12.8223,10.08-23.2188,23.2188-23.2188v-20.9092
		c-13.1387,0-23.2188-10.3964-23.2188-23.2187c0-12.8419,10.08-23.2373,23.2188-23.2373v-20.9102
		c-13.1387,0-23.2188-10.3955-23.2188-23.2177c0-12.8223,10.08-23.2188,23.2188-23.2188v-20.9101
		c-13.1387,0-23.2188-10.3956-23.2188-23.2276c0-12.832,10.08-23.228,23.2188-23.228v-20.9097
		c-13.1387,0-23.2188-10.3965-23.2188-23.2182c0-12.8423,10.08-23.2281,23.2188-23.2281v-20.9004
		c-13.1387,0-23.2188-10.4052-23.2188-23.2373c0-12.8222,10.08-23.2182,23.2188-23.2182v-20.9102
		c-13.1387,0-23.2188-10.396-23.2188-23.2182c0-12.8418,10.08-23.2374,23.2188-23.2374v-20.9003
		c-13.1387,0-23.2188-10.4058-23.2188-23.2281c0-12.8217,10.08-23.2182,23.2188-23.2182v-20.9097
		C996.8569,157.7725,986.7769,147.3765,986.7769,134.5445z"/>
	<g>
		<rect x="81.6675" y="81.2339" fill="#91D0D2" width="846.3447" height="846.9756"/>
		<path opacity="0.05" d="M920.1411,89.1246v831.1943H89.5386V89.1246H920.1411 M935.9028,73.3628H73.7768v862.7168h862.126V73.3628
			L935.9028,73.3628z"/>
	</g>
</g>
<g id="love-stamp-34-love">
	<path fill="#9F5F5E" d="M292.0015,558.3384v34.7178h-115.252v-176.127h39.7686v141.4092H292.0015z"/>
	<path fill="#9F5F5E" d="M565.9526,593.0562l-69.2007-176.127h42.7671l48.0733,132.8575l48.3105-132.8575h41.001l-69.9394,176.127
		H565.9526z"/>
	<path fill="#9F5F5E" d="M736.1226,449.8921v38.2491h85.041v32.9531h-85.041v39.0088h97.123v32.9531H696.3843v-176.127h134.1201
		v32.9629H736.1226z"/>
	<path fill="#EC7175" d="M461.6782,424.0992c-45.5283-28.6031-79.833,37.5595-79.833,37.5595s-34.3042-66.1626-79.8721-37.5595
		c-28.7514,18.0796-29.6689,42.6982-18.1093,67.5537c23.3857,50.2334,97.9814,101.4238,97.9814,101.4238
		s74.5957-51.1904,97.9815-101.4238C491.3862,466.7974,490.4692,442.1788,461.6782,424.0992z"/>
</g>
</svg>
