<?xml version="1.0" encoding="utf-8"?>
<!-- Generator: Adobe Illustrator 17.1.0, SVG Export Plug-In . SVG Version: 6.00 Build 0)  -->
<!DOCTYPE svg PUBLIC "-//W3C//DTD SVG 1.1//EN" "http://www.w3.org/Graphics/SVG/1.1/DTD/svg11.dtd">
<svg version="1.1" id="love-stamp-15" xmlns="http://www.w3.org/2000/svg" xmlns:xlink="http://www.w3.org/1999/xlink" x="0px"
	 y="0px" viewBox="0 0 1009.9956 1009.9956" enable-background="new 0 0 1009.9956 1009.9956" xml:space="preserve">
<g id="love-stamp-15-stamp">
	<path fill="#FEFEFB" d="M986.7769,134.5445c0-12.8321,10.08-23.2276,23.2188-23.2276V90.4165
		c-13.1387,0-23.2188-10.4057-23.2188-23.228c0-12.8222,10.08-23.228,23.2188-23.228V22.8238c0,0-0.3555,0-0.4346,0
		c-6.1152,0-12.1904-2.3867-16.5107-6.7071C988.7895,11.836,986.2446,5.8394,986.1851,0h-20.6338
		c0,12.4078-10.3955,23.2378-23.2178,23.2378c-12.8027,0-23.1983-10.83-23.1983-23.2378h-20.8906
		c0,12.4078-10.3956,23.2378-23.2178,23.2378c-12.8223,0-23.1982-10.83-23.1982-23.2378H830.938
		c0,12.4078-10.3955,23.2378-23.2178,23.2378c-12.8223,0-23.1982-10.83-23.1982-23.2378h-20.8907
		c0,12.4078-10.3955,23.2378-23.2177,23.2378c-12.8223,0-23.2188-10.83-23.2188-23.2378h-20.8896
		c0,12.4078-10.376,23.2378-23.1983,23.2378c-12.8222,0-23.2187-10.83-23.2187-23.2378h-20.8897
		c0,12.4078-10.3759,23.2378-23.1982,23.2378S582.5815,12.4078,582.5815,0h-20.8896c0,12.4078-10.3965,23.2378-23.1983,23.2378
		c-12.8222,0-23.2187-10.83-23.2187-23.2378h-20.8901c0,12.4078-10.396,23.2378-23.2183,23.2378
		c-12.8022,0-23.1982-10.83-23.1982-23.2378h-20.8902c0,12.4078-10.396,23.2378-23.2182,23.2378
		c-12.8023,0-23.1983-10.83-23.1983-23.2378h-20.8901c0,12.4078-10.396,23.2378-23.2183,23.2378
		c-12.8222,0-23.1982-10.83-23.1982-23.2378h-20.8902c0,12.4078-10.396,23.2378-23.2182,23.2378
		c-12.8223,0-23.2178-10.83-23.2178-23.2378h-20.8711c0,12.4078-10.3955,23.2378-23.2178,23.2378
		c-12.8222,0-23.2177-10.83-23.2177-23.2378h-20.8907c0,12.4078-10.3759,23.2378-23.1982,23.2378S111.4155,12.4078,111.4155,0
		H90.5249c0,12.4078-10.3955,23.2378-23.1982,23.2378c-12.8223,0-23.2178-10.83-23.2178-23.2378h-20.792
		c-0.0591,5.8394-2.5249,11.836-6.7861,16.1167c-4.3199,4.3204-10.3169,6.7461-16.4322,6.7461C0.0791,22.8628,0,22.8238,0,22.8238
		v20.5547c12.7632,0,23.1987,10.396,23.1987,23.228S12.7632,89.8345,0,89.8345v20.9102c12.7632,0,23.1987,10.3955,23.1987,23.2177
		c0,12.8223-10.4355,23.2281-23.1987,23.2281v20.8999c12.7632,0,23.1987,10.4062,23.1987,23.2383
		c0,12.8222-10.4355,23.2177-23.1987,23.2177v20.9102c12.7632,0,23.1987,10.3955,23.1987,23.2178
		c0,12.832-10.4355,23.2382-23.1987,23.2382v20.8999c12.7632,0,23.1987,10.396,23.1987,23.2281
		c0,12.8222-10.4355,23.2177-23.1987,23.2177v20.9102c12.7632,0,23.1987,10.396,23.1987,23.228
		c0,12.8321-10.4355,23.2281-23.1987,23.2281v20.9003c12.7632,0,23.1987,10.4053,23.1987,23.2276
		c0,12.8222-10.4355,23.228-23.1987,23.228v20.8999c12.7632,0,23.1987,10.3965,23.1987,23.2383
		c0,12.8223-10.4355,23.2178-23.1987,23.2178v20.9101c12.7632,0,23.1987,10.3955,23.1987,23.2178
		c0,12.8223-10.4355,23.2383-23.1987,23.2383v20.8906c12.7632,0,23.1987,10.3955,23.1987,23.2373
		c0,12.8223-10.4355,23.2178-23.1987,23.2178v20.9101c12.7632,0,23.1987,10.3965,23.1987,23.2178
		c0,12.8428-10.4355,23.2383-23.1987,23.2383v20.8896c12.7632,0,23.1987,10.4161,23.1987,23.2383
		c0,12.8223-10.4355,23.2178-23.1987,23.2178v20.9102c12.7632,0,23.1987,10.3955,23.1987,23.2382
		c0,12.8213-10.4355,23.2178-23.1987,23.2178v20.9102c12.7632,0,23.1987,10.3955,23.1987,23.2177
		c0,12.8223-10.4355,23.2178-23.1987,23.2178v21.0088c0,0,0.0791,0,0.0986,0c6.1153,0,12.1123,2.6631,16.4322,7.0029
		c4.3007,4.3008,6.7666,10.6719,6.7861,16.5117h20.792c0-13.1386,10.3955-23.2188,23.2178-23.2188
		c12.8027,0,23.1982,10.0801,23.1982,23.2188h20.8906c0-13.1386,10.3955-23.2188,23.2178-23.2188s23.1982,10.0801,23.1982,23.2188
		h20.8907c0-13.1386,10.3955-23.2188,23.2177-23.2188c12.8223,0,23.2178,10.0801,23.2178,23.2188h20.8711
		c0-13.1386,10.3955-23.2188,23.2178-23.2188c12.8222,0,23.2182,10.0801,23.2182,23.2188h20.8902
		c0-13.1386,10.376-23.2188,23.1982-23.2188c12.8223,0,23.2183,10.0801,23.2183,23.2188h20.8901
		c0-13.1386,10.396-23.2188,23.1983-23.2188c12.8222,0,23.2182,10.0801,23.2182,23.2188h20.8902
		c0-13.1386,10.396-23.2188,23.1982-23.2188c12.8223,0,23.2183,10.0801,23.2183,23.2188h20.8901
		c0-13.1386,10.3965-23.2188,23.2187-23.2188c12.8018,0,23.1983,10.0801,23.1983,23.2188h20.8896
		c0-13.1386,10.3965-23.2188,23.2188-23.2188s23.1982,10.0801,23.1982,23.2188h20.8897c0-13.1386,10.3965-23.2188,23.2187-23.2188
		c12.8223,0,23.1983,10.0801,23.1983,23.2188h20.8896c0-13.1386,10.3965-23.2188,23.2188-23.2188
		c12.8222,0,23.2177,10.0801,23.2177,23.2188h20.8907c0-13.1386,10.3759-23.2188,23.1982-23.2188
		c12.8223,0,23.2178,10.0801,23.2178,23.2188h20.8906c0-13.1386,10.376-23.2188,23.1982-23.2188
		c12.8222,0,23.2178,10.0801,23.2178,23.2188h20.8906c0-13.1386,10.3956-23.2188,23.1983-23.2188
		c12.8223,0,23.2178,10.0801,23.2178,23.2188h20.6338c0.0195-5.8398,2.4863-12.2109,6.7861-16.5117
		c4.3203-4.3398,10.4746-6.9043,16.5898-6.9043c0.0791,0,0.4346-0.0986,0.4346-0.0781V966.064
		c-13.1387,0-23.2188-10.3955-23.2188-23.2178c0-12.8418,10.08-23.2373,23.2188-23.2373v-20.9101
		c-13.1387,0-23.2188-10.3965-23.2188-23.2188c0-12.8222,10.08-23.2373,23.2188-23.2373v-20.8906
		c-13.1387,0-23.2188-10.3954-23.2188-23.2372c0-12.8223,10.08-23.2188,23.2188-23.2188v-20.9102
		c-13.1387,0-23.2188-10.3955-23.2188-23.2178c0-12.8213,10.08-23.2373,23.2188-23.2373v-20.8906
		c-13.1387,0-23.2188-10.416-23.2188-23.2373c0-12.8223,10.08-23.2188,23.2188-23.2188v-20.9092
		c-13.1387,0-23.2188-10.3964-23.2188-23.2187c0-12.8419,10.08-23.2373,23.2188-23.2373v-20.9102
		c-13.1387,0-23.2188-10.3955-23.2188-23.2177c0-12.8223,10.08-23.2188,23.2188-23.2188v-20.9101
		c-13.1387,0-23.2188-10.3956-23.2188-23.2276c0-12.832,10.08-23.228,23.2188-23.228v-20.9097
		c-13.1387,0-23.2188-10.3965-23.2188-23.2182c0-12.8423,10.08-23.2281,23.2188-23.2281v-20.9004
		c-13.1387,0-23.2188-10.4052-23.2188-23.2373c0-12.8222,10.08-23.2182,23.2188-23.2182v-20.9102
		c-13.1387,0-23.2188-10.396-23.2188-23.2182c0-12.8418,10.08-23.2374,23.2188-23.2374v-20.9003
		c-13.1387,0-23.2188-10.4058-23.2188-23.2281c0-12.8217,10.08-23.2182,23.2188-23.2182v-20.9097
		C996.8569,157.7725,986.7769,147.3765,986.7769,134.5445z"/>
	<g>
		<rect x="81.6675" y="81.2339" fill="#9F5F5E" width="846.3447" height="846.9756"/>
		<path opacity="0.05" d="M920.1411,89.1246v831.1943H89.5386V89.1246H920.1411 M935.9028,73.3628H73.7768v862.7168h862.126V73.3628
			L935.9028,73.3628z"/>
	</g>
</g>
<g>
	<path fill="#EC7175" d="M740.8081,369.1563l-14.6475-14.6123l13.9268-11.8457c0.9277-0.9175,3.0283-1.3911,6.2539-1.3911
		c2.3281,0,4.793,0.7993,7.3379,2.4218c2.5449,1.6324,3.8174,3.6148,3.8174,5.918c0,2.3574-0.6807,4.2066-2.0713,5.5972
		L740.8081,369.1563z"/>
	<path fill="#EC7175" d="M726.1606,420.7163l15.3282-11.8359c0.4736-0.4585,1.1533-0.7099,2.0713-0.7099c0.9462,0,1.8535,0,2.7812,0
		c2.3281,0,4.793,0.9418,7.3379,2.8007c2.5449,1.8252,3.8174,3.9453,3.8174,6.2588c0,2.3272-1.835,5.2173-5.5733,8.7041
		c-3.7177,3.4961-7.417,6.6182-11.1152,9.4141L726.1606,420.7163z"/>
	<path fill="#EC7175" d="M267.8267,401.897c-0.4737,0.4736-1.1641,0.6807-2.1011,0.6807c-0.9175,0-1.6274,0.1533-2.0713,0.3847
		c-0.4834,0.2071-0.9565,0.3204-1.3911,0.3204c-6.5093,0-9.7642-2.9834-9.7642-9.044c0-2.8164,0.4731-4.8877,1.4204-6.2783
		l17.3985-14.6172l13.2168,13.2266L267.8267,401.897z"/>
	<path fill="#EC7175" d="M267.8267,468.0796c-0.9473,0.9219-3.0186,1.3955-6.2735,1.3955c-6.0361,0-9.0542-2.9931-9.0542-9.0546
		c0-2.7813,0.4731-4.877,1.4204-6.2774l17.3985-14.6226l13.2168,13.232L267.8267,468.0796z"/>
	<path fill="#EC7175" d="M267.8267,534.2622c-1.4009,0.917-3.4722,1.3604-6.2735,1.3604c-6.0361,0-9.0542-2.5439-9.0542-7.6338
		c0-3.2451,0.4731-5.5625,1.4204-6.9736l17.3985-14.6319l13.2168,13.2315L267.8267,534.2622z"/>
	<path fill="#EC7175" d="M260.1528,355.9248c-1.8545-1.3808-2.7812-3.4819-2.7812-6.2778c0-3.6938,1.1636-6.0166,3.4717-6.9487
		c2.3276-0.9175,4.665-1.3911,6.9834-1.3911c3.2548,0,5.582,0.6904,6.9731,2.0913l38.9893,39.0044
		c2.3471,1.8642,3.5014,4.8769,3.5014,9.0195c0,4.6802-2.5742,6.9834-7.664,6.9834c-3.2549,0-5.5625-0.439-6.983-1.3906
		L260.1528,355.9248z"/>
	<path fill="#EC7175" d="M260.1528,422.8072c-0.9072-0.9366-1.6177-2.209-2.0908-3.8218c-0.4443-1.6323-0.6904-2.9146-0.6904-3.8267
		c0-3.2549,1.1636-5.3462,3.4717-6.2783c2.3276-0.9516,4.665-1.4101,6.9834-1.4101c3.2548,0,5.3457,0.4785,6.2627,1.4101
		l39.6997,39.6748c2.3471,1.8936,3.5014,4.917,3.5014,9.084c0,2.333-0.7002,4.2856-2.0713,5.918
		c-1.3906,1.6225-3.2841,2.4218-5.5927,2.4218c-2.8008,0-5.1289-0.6806-6.983-2.0712L260.1528,422.8072z"/>
	<path fill="#EC7175" d="M260.1528,488.9898c-0.9072-0.9522-1.6177-2.2095-2.0908-3.8418
		c-0.4443-1.6226-0.6904-2.9146-0.6904-3.8272c0-3.2744,1.1636-5.3457,3.4717-6.2876c2.3276-0.9126,4.665-1.3857,6.9834-1.3857
		c3.2548,0,5.3457,0.4731,6.2627,1.3857l39.6997,40.4195c2.3471,1.8642,3.5014,4.8428,3.5014,9.0547
		c0,5.1093-2.5742,7.6533-7.664,7.6533c-2.8008,0-5.1289-0.71-6.983-2.0908L260.1528,488.9898z"/>
	<path fill="#EC7175" d="M305.4546,369.1563l-13.9761-14.6123l13.9761-11.8457c0.917-0.9175,2.9883-1.3911,6.2431-1.3911
		c2.3379,0,4.794,0.7993,7.3389,2.4218c2.5444,1.6519,3.8164,3.6148,3.8164,5.918c0,2.3574-0.4829,3.9697-1.3906,4.897
		L305.4546,369.1563z"/>
	<path fill="#EC7175" d="M305.4546,435.3482l-13.9761-14.6319l14.6567-11.8359c0.917-0.4585,1.8741-0.7099,2.8008-0.7099
		c0.9278,0,1.8448,0,2.7617,0c2.3379,0,4.7544,0.9418,7.3389,2.8007c2.5444,1.8448,3.8164,3.9453,3.8164,6.2588
		c0,2.7862-0.7099,4.6406-2.0713,5.5772L305.4546,435.3482z"/>
	<path fill="#EC7175" d="M305.4546,501.5308l-13.9761-13.9517l14.6567-12.5459c0.917-0.4438,1.8741-0.6806,2.8008-0.6806
		c0.9278,0,1.8448,0,2.7617,0c2.3379,0,4.7544,0.9516,7.3389,2.7817c2.5444,1.8643,3.8164,3.9649,3.8164,6.2774
		c0,2.7866-0.7099,4.6259-2.0713,5.5781L305.4546,501.5308z"/>
	<path fill="#EC7175" d="M340.272,468.0796c-1.4107,0.9219-3.482,1.3955-6.2632,1.3955c-2.3477,0-4.5371-0.8037-6.6284-2.456
		c-2.0713-1.6319-3.1363-4.2608-3.1363-8.0137c0-2.7568,0.9468-4.3891,2.7818-4.8623l16.708-14.6226l13.2265,13.232
		L340.272,468.0796z"/>
	<path fill="#EC7175" d="M340.272,601.105c-1.4107,0.9668-3.482,1.4102-6.2632,1.4102c-2.3477,0-4.5371-0.8184-6.6284-2.4551
		c-2.0713-1.6279-3.1363-4.2812-3.1363-7.9805c0-2.7812,0.9468-4.4277,2.7818-4.8916l16.708-14.6172l13.2265,13.2168
		L340.272,601.105z"/>
	<path fill="#EC7175" d="M340.272,335.0298c-1.4107,0.4781-3.482,0.6856-6.2632,0.6856c-4.646,0-7.6734-1.628-9.0542-4.8531
		c0-1.3911,0-3.1362,0-5.2373c0-2.0962,0.7099-3.5756,2.0713-4.5273l16.708-14.6274l13.2265,13.2368L340.272,335.0298z"/>
	<path fill="#EC7175" d="M340.272,401.897c-0.937,0-1.9825,0.2422-3.127,0.6807c-1.1836,0.4736-2.229,0.7051-3.1362,0.7051
		c-2.3477,0-4.4185-1.0303-6.273-3.126c-1.8642-2.0713-2.7812-4.2959-2.7812-6.5987c0-2.7817,0.7099-4.6455,2.0713-5.5976
		l16.708-14.6172l13.2265,13.2266L340.272,401.897z"/>
	<path fill="#EC7175" d="M340.272,534.2622c-1.8545,0.917-3.9551,1.3604-6.2632,1.3604c-6.0366,0-9.0542-2.7617-9.0542-8.334
		c0-0.917,0-1.9531,0-3.1367c0-1.1641,0.7099-2.1895,2.0713-3.1367l16.708-14.6319l13.2265,13.2315L340.272,534.2622z"/>
	<path fill="#EC7175" d="M332.5884,290.4478c-1.8345-1.8447-2.7813-4.626-2.7813-8.3394c0-3.2548,1.5088-5.3413,4.5171-6.2729
		c3.0278-0.9175,5.7207-1.4107,8.0191-1.4107c1.8442,0,3.2548,0.4932,4.2114,1.4107l39.6997,38.9941
		c2.2978,2.3428,3.4619,5.7998,3.4619,10.4453c0,4.6456-2.7812,6.9781-8.3447,6.9781c-2.7813,0-4.8819-0.439-6.2725-1.3907
		L332.5884,290.4478z"/>
	<path fill="#EC7175" d="M332.5884,356.6153c-1.8345-1.8491-2.7813-4.3941-2.7813-7.6343c0-2.8057,1.1836-4.7783,3.4912-5.9424
		c2.3081-1.1592,4.6065-1.7314,6.9737-1.7314c3.6982,0,6.5097,0.9326,8.354,2.7968l37.6284,38.2989
		c2.2978,1.8642,3.4619,4.8769,3.4619,9.0195c0,4.6802-2.7812,6.9834-8.3447,6.9834c-2.7813,0-4.8819-0.439-6.2725-1.3906
		L332.5884,356.6153z"/>
	<path fill="#EC7175" d="M332.5884,423.4976c-0.9273-0.9365-1.5977-2.1895-2.0713-3.832c-0.4536-1.6123-0.71-3.1211-0.71-4.5069
		c0-2.8164,1.3018-4.7793,3.876-5.958c2.5151-1.1386,4.9414-1.7304,7.3086-1.7304c0.4341,0,1.2432,0,2.3867,0
		c1.1836,0,2.2197,0.4785,3.1763,1.4101l39.6997,39.6748c2.2978,1.8936,3.4619,4.917,3.4619,9.084
		c0,5.5581-2.5449,8.3398-7.6343,8.3398c-3.2944,0-5.5923-0.6806-6.9829-2.0712L332.5884,423.4976z"/>
	<path fill="#EC7175" d="M332.5884,489.6705c-0.9273-0.9273-1.5977-2.1998-2.0713-3.8223c-0.4736-1.6323-0.71-3.1367-0.71-4.5274
		c0-2.7959,1.3018-4.7587,3.876-5.9277c2.5151-1.1538,4.9414-1.7456,7.3086-1.7456c0.4341,0,1.2432,0,2.3867,0
		c1.1836,0,2.2197,0.4731,3.1763,1.3857l39.6997,40.4195c2.2978,1.8642,3.4619,4.8428,3.4619,9.0547
		c0,5.1093-2.5449,7.6533-7.6343,7.6533c-3.2944,0-5.5923-0.71-6.9829-2.0908L332.5884,489.6705z"/>
	<path fill="#EC7175" d="M333.2983,556.5328c-2.3076-1.8438-3.4912-4.625-3.4912-8.334c0-2.8213,1.1836-4.794,3.4912-5.9571
		c2.3081-1.1445,4.6065-1.7363,6.9737-1.7363c3.6982,0,6.7168,1.1445,9.0644,3.4912l36.918,37.628
		c2.2978,1.8447,3.4619,4.8632,3.4619,9.0546c0,5.5635-2.5449,8.3448-7.6343,8.3448c-3.2944,0-5.3657-0.4346-6.2729-1.3809
		L333.2983,556.5328z"/>
	<path fill="#EC7175" d="M377.8804,302.313l-13.9366-13.9511l13.9366-11.8262c0.9072-0.937,3.018-1.4102,6.2729-1.4102
		c2.3081,0,4.7642,0.8184,7.3086,2.4556c2.5747,1.6177,3.8467,3.5952,3.8467,5.918c0,2.3227-0.4732,3.9301-1.4302,4.8628
		L377.8804,302.313z"/>
	<path fill="#EC7175" d="M377.8804,369.1563l-13.9366-14.6123l13.9366-11.8457c0.9072-0.9175,3.018-1.3911,6.2729-1.3911
		c2.3081,0,4.7642,0.7993,7.3086,2.4218c2.5747,1.6519,3.8467,3.6148,3.8467,5.918c0,2.3574-0.4732,3.9697-1.4302,4.897
		L377.8804,369.1563z"/>
	<path fill="#EC7175" d="M377.8804,435.3482l-13.9366-14.6319l15.3272-11.8359c0.4736-0.4585,1.1543-0.7099,2.1006-0.7099
		c0.9179,0,1.8545,0,2.7817,0c2.7818,0,5.3262,0.9418,7.6538,2.8007c2.3179,1.8252,3.5015,3.9453,3.5015,6.2588
		c0,2.7862-0.7202,4.6406-2.1011,5.5772L377.8804,435.3482z"/>
	<path fill="#EC7175" d="M377.8804,501.5308l-13.9366-13.9517l15.3272-12.5459c0.4736-0.4438,1.1543-0.6806,2.1006-0.6806
		c0.9179,0,1.8545,0,2.7817,0c2.7818,0,5.3262,0.9175,7.6538,2.7817c2.3179,1.8443,3.5015,3.9649,3.5015,6.2774
		c0,2.7866-0.7202,4.6259-2.1011,5.5781L377.8804,501.5308z"/>
	<path fill="#EC7175" d="M377.8804,568.3687l-13.9366-14.6074l15.3272-12.5362c0.4736-0.4541,1.1543-0.7197,2.1006-0.7197
		c0.9179,0,1.8545,0,2.7817,0c2.7818,0,5.3262,0.9473,7.6538,2.8106c2.3179,1.8349,3.5015,3.9453,3.5015,6.2832
		c0,2.7812-0.7202,4.6455-2.1011,5.5429L377.8804,568.3687z"/>
	<path fill="#EC7175" d="M412.7368,335.0298c-2.3672,1.4004-4.2412,2.1104-5.602,2.1104c-3.2549,0-5.6714-1.1836-7.2989-3.4961
		c-1.6274-2.333-2.4262-4.853-2.4262-7.6592c0-2.313,0.6806-3.9355,2.0713-4.8872l16.708-14.6274l13.2363,13.2368L412.7368,335.0298
		z"/>
	<path fill="#EC7175" d="M411.3169,468.7603c-0.4736,0.9468-1.8643,1.3906-4.1821,1.3906c-2.7818,0-5.1089-1.1494-6.9439-3.4619
		c-1.874-2.333-2.7812-4.6455-2.7812-6.9487c0-2.7818,0.6806-4.6455,2.0713-5.5972l16.708-14.6226l13.2363,13.232L411.3169,468.7603
		z"/>
	<path fill="#EC7175" d="M411.3169,534.9429c-0.4736,0.9561-1.1836,1.4004-2.1109,1.4004c-0.9077,0-1.6176,0-2.0712,0
		c-3.2549,0-5.6714-1.0361-7.2989-3.1367c-1.6274-2.1006-2.4262-4.3008-2.4262-6.6377c0-2.3086,0.6806-4.1426,2.0713-5.5537
		l16.708-14.6319l13.2363,13.2315L411.3169,534.9429z"/>
	<path fill="#EC7175" d="M411.3169,601.7955c-0.4736,0.957-1.8643,1.4003-4.1821,1.4003c-2.7818,0-5.1089-1.124-6.9439-3.4619
		c-1.874-2.3281-2.7812-4.6455-2.7812-6.9726c0-2.3086,0.6806-4.1826,2.0713-5.5733l16.708-14.6172l13.2363,13.2168
		L411.3169,601.7955z"/>
	<path fill="#EC7175" d="M411.3169,667.9878c-0.4736,0.9571-1.8643,1.4004-4.1821,1.4004c-2.7818,0-5.1089-1.164-6.9439-3.4619
		c-1.874-2.3476-2.7812-4.8926-2.7812-7.6933c0-2.3077,0.6806-3.9454,2.0713-4.8721l16.708-14.6172l13.2363,13.2363
		L411.3169,667.9878z"/>
	<path fill="#EC7175" d="M412.7368,401.897c-0.9565,0-1.8935,0.2422-2.8105,0.6807c-0.9571,0.4736-1.8643,0.7051-2.7915,0.7051
		c-2.3277,0-4.399-1.0303-6.2632-3.126c-1.8643-2.0713-2.7813-4.2959-2.7813-6.5987c0-3.2548,0.6807-5.3261,2.1006-6.2783
		l15.9981-13.9365l13.2363,13.2266L412.7368,401.897z"/>
	<path fill="#EC7175" d="M405.0435,290.4478c-1.834-2.7764-2.7618-5.5776-2.7618-8.3394c0-2.7963,1.0459-4.769,3.1172-5.9331
		c2.0713-1.1386,4.5274-1.7505,7.3379-1.7505c0.9077,0,1.9531,0,3.0972,0c1.164,0,1.9927,0.4932,2.456,1.4107l41.1001,39.7041
		c1.8345,2.3379,2.7813,5.5581,2.7813,9.7353c0,4.6456-2.7813,6.9781-8.3443,6.9781c-3.2846,0-5.3559-0.439-6.2729-1.3907
		L405.0435,290.4478z"/>
	<path fill="#EC7175" d="M405.0435,356.6153c-1.834-2.7617-2.7618-5.3164-2.7618-7.6343c0-2.8057,1.1348-4.7783,3.4722-5.9424
		c2.3081-1.1592,4.6157-1.7314,6.9829-1.7314c2.2686,0,4.6162,0.6904,6.9439,2.0913l39.7094,40.395
		c1.8345,1.3857,2.7813,3.7285,2.7813,6.9829c0,5.0845-2.7813,7.6294-8.3443,7.6294c-3.2846,0-5.3559-0.439-6.2729-1.3906
		L405.0435,356.6153z"/>
	<path fill="#EC7175" d="M405.0435,423.4976c-0.917-0.9365-1.627-2.1895-2.1006-3.832c-0.4439-1.6123-0.6612-3.1211-0.6612-4.5069
		c0-2.8164,1.1348-4.7793,3.4722-5.958c2.3081-1.1435,4.6157-1.7304,6.9829-1.7304c0.9077,0,1.9531,0,3.0972,0
		c1.164,0,1.9927,0.4785,2.456,1.4101l41.1001,41.0952c1.8345,1.3858,2.7813,3.7281,2.7813,6.9829
		c0,6.0069-2.5445,9.0205-7.6636,9.0205c-3.2549,0-5.5532-0.6806-6.9536-2.0712L405.0435,423.4976z"/>
	<path fill="#EC7175" d="M405.0435,489.6705c-0.917-0.9273-1.627-2.1797-2.1006-3.8223c-0.4439-1.6123-0.6612-3.1367-0.6612-4.5274
		c0-2.7959,1.1348-4.7587,3.4722-5.9277c2.3081-1.1538,4.6157-1.7456,6.9829-1.7456c0.9077,0,1.9531,0,3.0972,0
		c1.164,0,1.9927,0.4731,2.456,1.3857l41.1001,41.1197c1.4004,1.3613,2.2193,2.6533,2.4463,3.8174
		c0.2461,1.164,0.335,2.6923,0.335,4.5371c0,5.1093-2.5445,7.6533-7.6636,7.6533c-3.2549,0-5.5532-0.71-6.9536-2.0908
		L405.0435,489.6705z"/>
	<path fill="#EC7175" d="M405.7539,556.5328c-2.3374-2.2881-3.4722-5.0889-3.4722-8.334c0-2.8213,1.1348-4.794,3.4722-5.9571
		c2.3081-1.1445,4.6157-1.7363,6.9829-1.7363c2.7422,0,5.3262,0.9473,7.6245,2.8106l39.0288,39.0097
		c1.4004,1.3809,2.2193,2.6729,2.4463,3.7969c0.2461,1.1837,0.335,2.6934,0.335,4.5566c0,5.5635-2.5445,8.3448-7.6636,8.3448
		c-3.2549,0-5.1186-0.4346-5.5532-1.3809L405.7539,556.5328z"/>
	<path fill="#EC7175" d="M405.0435,622.7056c-0.917-0.9268-1.627-2.1797-2.1006-3.8174c-0.4439-1.6074-0.6612-3.1367-0.6612-4.5371
		c0-2.7812,1.1348-4.7344,3.4722-5.918c2.3081-1.1436,4.6157-1.7353,6.9829-1.7353c2.2686,0,4.6162,0.6807,6.9439,2.1006
		l39.7094,39.6992c1.8345,1.8643,2.7813,4.626,2.7813,8.3545c0,5.583-2.5445,8.3643-7.6636,8.3643
		c-3.2549,0-5.1186-0.4541-5.5532-1.4208L405.0435,622.7056z"/>
	<path fill="#EC7175" d="M450.2964,302.313l-13.8877-13.9511l13.8877-11.8262c0.9565-0.937,2.1103-1.4102,3.5307-1.4102
		c2.3081,0,5.2081,0.5718,8.67,1.7505c3.521,1.1441,5.2373,3.3779,5.2373,6.6231c0,1.8491-0.4732,3.7231-1.3907,5.5776
		L450.2964,302.313z"/>
	<path fill="#EC7175" d="M450.2964,369.1563l-13.8877-14.6123l13.8877-11.8457c0.9565-0.9175,2.1103-1.3911,3.5307-1.3911
		c2.3081,0,5.2081,0.5722,8.67,1.7314c3.521,1.1641,5.2373,3.3877,5.2373,6.6084c0,1.8838-0.4732,3.7481-1.3907,5.5972
		L450.2964,369.1563z"/>
	<path fill="#EC7175" d="M450.2964,435.3482l-13.8877-14.6319l15.3174-11.8359c0.4443-0.4585,1.2334-0.7099,2.417-0.7099
		c1.1635,0,1.9921,0,2.4658,0c2.3076,0,4.7734,0.9418,7.2988,2.8007c2.5547,1.8448,3.8267,3.9453,3.8267,6.2588
		c0,2.7862-0.4732,4.6406-1.3907,5.5772L450.2964,435.3482z"/>
	<path fill="#EC7175" d="M450.2964,501.5308l-13.8877-13.9517l15.3174-12.5459c0.4443-0.4438,1.2334-0.6806,2.417-0.6806
		c1.1635,0,1.9921,0,2.4658,0c2.3076,0,4.7734,0.9516,7.2988,2.7817c2.5547,1.8643,3.8267,3.9649,3.8267,6.2774
		c0,2.7866-0.4732,4.6259-1.3907,5.5781L450.2964,501.5308z"/>
	<path fill="#EC7175" d="M450.2964,568.3687l-13.8877-14.6074l15.3174-12.5362c0.4443-0.4541,1.2334-0.7197,2.417-0.7197
		c1.1635,0,1.9921,0,2.4658,0c2.3076,0,4.7734,0.9473,7.2988,2.8106c2.5547,1.8349,3.8267,3.9453,3.8267,6.2832
		c0,2.7812-0.4732,4.6455-1.3907,5.5429L450.2964,568.3687z"/>
	<path fill="#EC7175" d="M450.2964,634.5611l-13.8877-14.6172l15.3174-11.8652c0.4443-0.4541,1.2334-0.7002,2.417-0.7002
		c1.1635,0,1.9921,0,2.4658,0c2.3076,0,4.7734,0.9267,7.2988,2.8007c2.5547,1.8643,3.8267,3.9454,3.8267,6.2735
		c0,2.7812-0.4732,4.6445-1.3907,5.5625L450.2964,634.5611z"/>
	<path fill="#EC7175" d="M483.772,468.7603c-0.4834,0.9468-1.1836,1.3906-2.1104,1.3906c-0.9077,0-1.6181,0-2.0713,0
		c-3.2749,0-5.7011-1.1494-7.3286-3.4619c-1.6274-2.333-2.436-4.6455-2.436-6.9487c0-2.7818,0.6904-4.6455,2.1103-5.5972
		l16.6787-14.6226l13.2266,13.232L483.772,468.7603z"/>
	<path fill="#EC7175" d="M483.772,534.9429c-0.4834,0.9561-1.1836,1.4004-2.1104,1.4004c-0.9077,0-1.6181,0-2.0713,0
		c-3.2749,0-5.7011-1.0361-7.3286-3.1367c-1.5981-2.0811-2.436-4.3008-2.436-6.6377c0-2.3086,0.6904-4.1426,2.1103-5.5537
		l16.6787-14.6319l13.2266,13.2315L483.772,534.9429z"/>
	<path fill="#EC7175" d="M483.772,601.7955c-0.4834,0.957-1.1836,1.4003-2.1104,1.4003c-0.9077,0-1.6181,0-2.0713,0
		c-3.2749,0-5.7011-1.124-7.3286-3.4619c-1.6274-2.3281-2.436-4.6455-2.436-6.9726c0-2.3086,0.6904-4.1826,2.1103-5.5733
		l16.6787-14.6172l13.2266,13.2168L483.772,601.7955z"/>
	<path fill="#EC7175" d="M483.772,667.9878c-0.4834,0.9571-1.1836,1.4004-2.1104,1.4004c-0.9077,0-1.6181,0-2.0713,0
		c-3.2749,0-5.7011-1.164-7.3286-3.4619c-1.6274-2.3476-2.436-4.8926-2.436-7.6933c0-2.3077,0.6904-3.9454,2.1103-4.8721
		l16.6787-14.6172l13.2266,13.2363L483.772,667.9878z"/>
	<path fill="#EC7175" d="M483.772,734.1792c-0.4834,0.918-1.1836,1.3809-2.1104,1.3809c-0.9077,0-1.6181,0-2.0713,0
		c-3.2749,0-5.7011-1.0547-7.3286-3.1357c-1.5981-2.1006-2.436-4.3008-2.436-6.6182c0-2.3086,0.6904-4.1719,2.1103-5.5527
		l16.6787-14.6573l13.2266,13.2559L483.772,734.1792z"/>
	<path fill="#EC7175" d="M485.1333,401.897c-0.9175,0-1.8447,0.2422-2.7813,0.6807c-0.9179,0.4736-1.5981,0.7051-2.0712,0.7051
		c-2.7818,0-5.0899-1.0303-6.9639-3.126c-1.8545-2.0713-2.8008-4.2959-2.8008-6.5987c0-3.2548,0.71-5.3261,2.0908-6.2783
		l16.0078-13.9365l13.2266,13.2266L485.1333,401.897z"/>
	<path fill="#EC7175" d="M476.7886,355.9248c-1.4004-1.3808-2.0713-3.4819-2.0713-6.2778c0-3.2207,1.1445-5.4443,3.4922-6.6084
		c2.2685-1.1592,4.6157-1.7314,6.9238-1.7314c3.2549,0,5.5923,0.6904,6.9829,2.0913l40.4097,40.395
		c1.3906,1.3857,2.1006,3.7285,2.1006,6.9829c0,5.0845-2.8105,7.6294-8.373,7.6294c-2.7822,0-4.8828-0.439-6.2734-1.3906
		L476.7886,355.9248z"/>
	<path fill="#EC7175" d="M476.7886,422.8072c-0.9268-0.9366-1.5186-2.209-1.7456-3.8218c-0.2369-1.6323-0.3257-2.9146-0.3257-3.8267
		c0-2.8164,1.1445-4.7793,3.4922-5.958c2.2685-1.1386,4.6157-1.7304,6.9238-1.7304c3.2549,0,5.1094,0.4785,5.5923,1.4101
		l41.8003,41.0952c1.3906,1.3858,2.1006,3.7281,2.1006,6.9829c0,6.0069-2.8105,9.0205-8.373,9.0205
		c-2.7822,0-4.8828-0.6806-6.2734-2.0712L476.7886,422.8072z"/>
	<path fill="#EC7175" d="M476.7886,488.9898c-0.9268-0.9522-1.5186-2.2095-1.7456-3.8418
		c-0.2369-1.6226-0.3257-2.9146-0.3257-3.8272c0-2.7959,1.1445-4.7587,3.4922-5.9277c2.3076-1.1538,4.6157-1.7456,6.9238-1.7456
		c3.2549,0,5.1094,0.4731,5.5923,1.3857l41.0903,41.1197c1.8643,1.8642,2.8105,4.6259,2.8105,8.3545
		c0,5.1093-2.5743,7.6533-7.6631,7.6533c-3.2549,0-5.5928-0.71-6.9834-2.0908L476.7886,488.9898z"/>
	<path fill="#EC7175" d="M477.499,555.8531c-1.8642-1.8653-2.7817-4.1924-2.7817-6.9541c0-3.2647,1.1445-5.4942,3.4922-6.6573
		c2.2685-1.1445,4.6157-1.7363,6.9238-1.7363c3.2549,0,5.7993,0.9473,7.6934,2.8106l38.9892,39.0097
		c1.8643,1.8438,2.8105,4.625,2.8105,8.3535c0,2.3379-0.71,4.2911-2.1006,5.918c-1.3907,1.6377-3.4912,2.4268-6.2725,2.4268
		c-0.4443,0-1.2724,0-2.4561,0c-1.125,0-1.9532-0.4346-2.4268-1.3809L477.499,555.8531z"/>
	<path fill="#EC7175" d="M476.7886,622.0152c-0.9268-0.918-1.4795-2.1895-1.7456-3.8272c-0.2369-1.6074-0.3257-2.9189-0.3257-3.8369
		c0-2.7812,1.1445-4.7344,3.4922-5.918c2.2685-1.1436,4.6157-1.7353,6.9238-1.7353c3.2549,0,5.5923,0.6807,6.9829,2.1006
		l39.6997,39.6992c1.8643,1.8643,2.8105,4.626,2.8105,8.3545c0,5.583-2.5743,8.3643-7.6631,8.3643c-0.9473,0-1.9824,0-3.166,0
		c-1.125,0-1.9532-0.4541-2.4268-1.4208L476.7886,622.0152z"/>
	<path fill="#EC7175" d="M476.7886,688.1871c-0.9268-0.8965-1.4795-2.209-1.7456-3.836c-0.2369-1.5976-0.3257-2.8711-0.3257-3.8076
		c0-2.8008,1.1445-4.7734,3.4922-5.918c2.3076-1.164,4.6157-1.7754,6.9238-1.7754c3.2549,0,5.5923,0.7002,6.9829,2.1202
		l39.6997,40.3808c1.8643,1.8643,2.8105,4.4287,2.8105,7.6738c0,5.5821-2.5743,8.3633-7.6631,8.3633c-0.9473,0-1.9824,0-3.166,0
		c-1.125,0-1.9532-0.4726-2.4268-1.4199L476.7886,688.1871z"/>
	<path fill="#EC7175" d="M522.7612,369.1563L508.854,354.544l13.9072-11.8457c0.9473-0.9175,1.8643-1.3911,2.8115-1.3911
		c0.917,0,3.5801,0.4736,7.9795,1.3911c4.418,0.9321,6.6377,3.2549,6.6377,6.9487c0,3.2744-0.9472,5.5972-2.8115,6.9683
		L522.7612,369.1563z"/>
	<path fill="#EC7175" d="M522.7612,435.3482l-13.9072-14.6319l15.3271-11.8359c0.918-0.4585,2.545-0.7099,4.8536-0.7099
		c2.338,0,4.7636,0.7988,7.338,2.4409c2.5449,1.6421,3.8173,3.8271,3.8173,6.6186c0,0.9414-0.2373,2.0957-0.7197,3.4863
		c-0.4346,1.3907-1.1445,2.3228-2.0918,2.7813L522.7612,435.3482z"/>
	<path fill="#EC7175" d="M522.7612,501.5308l-13.9072-13.9517l15.3271-12.5459c0.918-0.4438,2.545-0.6806,4.8536-0.6806
		c2.338,0,4.7929,0.7744,7.338,2.4311c2.5449,1.6426,3.8173,3.8272,3.8173,6.628c0,0.9423-0.2373,2.0766-0.7197,3.4873
		c-0.4346,1.3906-1.1445,2.3222-2.0918,2.7715L522.7612,501.5308z"/>
	<path fill="#EC7175" d="M522.7612,568.3687l-13.9072-14.6074l15.3271-12.5362c0.918-0.4541,2.545-0.7197,4.8536-0.7197
		c2.338,0,4.7929,0.8281,7.338,2.4561c2.5449,1.5976,3.8173,3.8173,3.8173,6.6377c0,0.9072-0.2373,2.0615-0.7197,3.4619
		c-0.4346,1.4111-1.1445,2.3281-2.0918,2.792L522.7612,568.3687z"/>
	<path fill="#EC7175" d="M522.7612,634.5611l-13.9072-14.6172l15.3271-11.8652c0.918-0.4541,2.545-0.7002,4.8536-0.7002
		c2.338,0,4.7636,0.8281,7.338,2.455c2.5449,1.6182,3.8173,3.7979,3.8173,6.6192c0,0.9267-0.2373,2.1006-0.7197,3.4912
		c-0.4346,1.3808-1.1445,2.2978-2.0918,2.7617L522.7612,634.5611z"/>
	<path fill="#EC7175" d="M522.7612,701.4234l-13.9072-14.6172l15.3271-12.5352c0.918-0.4843,2.545-0.7207,4.8536-0.7207
		c2.338,0,4.7929,0.8282,7.338,2.4561c2.5449,1.6377,3.8173,3.8174,3.8173,6.6377c0,0.918-0.2373,2.0615-0.7197,3.4629
		c-0.4346,1.4101-1.1445,2.3271-2.0918,2.791L522.7612,701.4234z"/>
	<path fill="#EC7175" d="M557.5884,335.0298c-2.3369,1.4004-4.1817,2.1104-5.5733,2.1104c-2.7812,0-5.0791-1.0703-6.9433-3.1416
		c-1.8643-2.0957-2.8203-4.5274-2.8203-7.333c0-0.4488,0-1.1294,0-2.0713c0-0.9224,0.2462-1.6323,0.7197-2.106l18.0986-16.018
		l13.2266,13.2368L557.5884,335.0298z"/>
	<path fill="#EC7175" d="M556.8686,468.7603c-0.9179,0.9468-2.5351,1.3906-4.8535,1.3906c-2.7812,0-5.1181-1.1494-6.9433-3.4619
		c-1.8643-2.333-2.8203-4.6455-2.8203-6.9487c0-2.7818,0.4727-4.6455,1.4296-5.5972l17.3887-14.6226l13.2266,13.232
		L556.8686,468.7603z"/>
	<path fill="#EC7175" d="M556.8686,534.9429c-0.9179,0.9561-2.5351,1.4004-4.8535,1.4004c-2.7812,0-5.0791-1.0361-6.9433-3.1367
		c-1.8643-2.1006-2.8203-4.3008-2.8203-6.6377c0-2.3086,0.4727-3.9063,1.4296-4.8428l17.3887-15.3428l13.2266,13.2315
		L556.8686,534.9429z"/>
	<path fill="#EC7175" d="M556.8686,601.7955c-0.9179,0.957-2.5351,1.4003-4.8535,1.4003c-2.7812,0-5.1181-1.124-6.9433-3.4619
		c-1.8643-2.3281-2.8203-4.6455-2.8203-6.9726c0-2.3086,0.4727-3.9453,1.4296-4.8731l17.3887-15.3174l13.2266,13.2168
		L556.8686,601.7955z"/>
	<path fill="#EC7175" d="M556.8686,667.9878c-0.9179,0.9571-2.5351,1.4004-4.8535,1.4004c-2.7812,0-5.0791-1.164-6.9433-3.4619
		c-1.8643-2.3476-2.8203-4.6748-2.8203-6.9932c0-0.4433,0-1.1445,0-2.0811c0-0.9268,0.2462-1.6074,0.7197-2.1104l18.0986-15.998
		l13.2266,13.2363L556.8686,667.9878z"/>
	<path fill="#EC7175" d="M557.5884,401.897c-0.4541,0.4736-1.1533,0.6807-2.0713,0.6807c-0.4736,0-0.8379,0.1533-1.0654,0.3847
		c-0.2461,0.2071-0.5919,0.3204-1.045,0.3204h-0.6806c-3.2451,0-5.7012-1.0303-7.3379-3.126
		c-1.6182-2.0713-2.417-4.5274-2.417-7.3091c0-2.7813,0.7099-4.6157,2.1006-5.5679l15.998-13.9365l13.2266,13.2266L557.5884,401.897
		z"/>
	<path fill="#EC7175" d="M549.9448,289.7671c-1.8945-1.8642-2.8017-4.4189-2.8017-7.6587c0-2.7963,1.1543-4.769,3.4814-5.9331
		c2.3184-1.1386,4.627-1.7505,6.9639-1.7505c0.917,0,1.9824,0,3.1269,0c1.1533,0,2.2285,0.4932,3.1358,1.4107l40.4199,39.7041
		c1.835,2.3379,2.7715,5.5581,2.7715,9.7353c0,4.6456-2.7715,6.9781-8.3633,6.9781c-2.792,0-4.8828-0.439-6.2441-1.3907
		L549.9448,289.7671z"/>
	<path fill="#EC7175" d="M549.9448,355.9248c-1.8945-1.3808-2.8017-3.4819-2.8017-6.2778c0-3.6938,1.1543-6.0166,3.4814-6.9487
		c2.3184-0.9175,4.627-1.3911,6.9639-1.3911c3.2549,0,5.5527,0.6904,6.9736,2.0913l40.419,40.395
		c1.3916,1.3857,2.0615,3.7285,2.0615,6.9829c0,5.0845-2.7715,7.6294-8.3633,7.6294c-2.792,0-4.8828-0.439-6.2441-1.3906
		L549.9448,355.9248z"/>
	<path fill="#EC7175" d="M549.9448,422.8072c-0.9375-0.9366-1.6474-2.209-2.1211-3.8218c-0.4531-1.6323-0.6806-2.9146-0.6806-3.8267
		c0-3.2549,1.1543-5.3261,3.4814-6.2783c2.3184-0.9316,4.627-1.4101,6.9639-1.4101c3.2549,0,5.3554,0.4785,6.2627,1.4101
		l41.1299,41.0952c1.3916,1.3858,2.0615,3.7281,2.0615,6.9829c0,6.0069-2.7715,9.0205-8.3633,9.0205
		c-2.3086,0-4.4092-0.6806-6.2441-2.0712L549.9448,422.8072z"/>
	<path fill="#EC7175" d="M549.9448,488.9898c-0.9375-0.9522-1.6474-2.2095-2.1211-3.8418
		c-0.4531-1.6226-0.6806-2.9146-0.6806-3.8272c0-3.2744,1.1543-5.3457,3.4814-6.2876c2.3184-0.9126,4.627-1.3857,6.9639-1.3857
		c3.2549,0,5.3554,0.4731,6.2627,1.3857l40.4199,41.1197c1.835,1.8642,2.7715,4.6259,2.7715,8.3545
		c0,5.1093-2.5352,7.6533-7.6533,7.6533c-2.7823,0-5.1192-0.71-6.9541-2.0908L549.9448,488.9898z"/>
	<path fill="#EC7175" d="M549.9448,555.8531c-1.8945-1.8653-2.8017-4.1924-2.8017-6.9541c0-3.2647,1.1543-5.4942,3.4814-6.6573
		c2.3184-1.1445,4.627-1.7363,6.9639-1.7363c3.2549,0,5.79,0.9473,7.6933,2.8106l38.9893,39.0097
		c1.835,1.8438,2.7715,4.625,2.7715,8.3535c0,2.3379-0.6699,4.2911-2.0615,5.918c-1.42,1.6377-3.4913,2.4268-6.3018,2.4268
		c-0.4443,0-1.1543,0-2.0723,0c-0.9463,0-1.8633-0.4346-2.8105-1.3809L549.9448,555.8531z"/>
	<path fill="#EC7175" d="M549.9448,622.0152c-0.9375-0.918-1.6474-2.1895-2.1211-3.8272c-0.4531-1.6074-0.6806-2.9189-0.6806-3.8369
		c0-3.2451,1.1543-5.3262,3.4814-6.2724c2.3184-0.917,4.627-1.3809,6.9639-1.3809c3.2549,0,5.5527,0.6807,6.9736,2.1006
		l39.709,39.6992c1.835,1.8643,2.7715,4.626,2.7715,8.3545c0,5.583-2.5352,8.3643-7.6533,8.3643c-0.9171,0-1.8643,0-2.7823,0
		c-0.9463,0-1.8633-0.4541-2.8105-1.4208L549.9448,622.0152z"/>
	<path fill="#EC7175" d="M595.8872,302.313l-14.5977-13.9511l13.9268-11.8262c0.918-0.937,2.7813-1.4102,5.5635-1.4102
		c2.3369,0,4.8721,0.71,7.6631,2.1006c2.7812,1.3858,4.1728,3.4863,4.1728,6.273c0,3.2548-0.9277,5.5776-2.7822,6.9487
		L595.8872,302.313z"/>
	<path fill="#EC7175" d="M595.8872,369.1563l-14.5977-14.6123l13.9268-11.8457c0.918-0.9175,2.7813-1.3911,5.5635-1.3911
		c2.3369,0,4.8721,0.6904,7.6631,2.0913c2.7812,1.396,4.1728,3.4673,4.1728,6.2485c0,3.2744-0.9277,5.5972-2.7822,6.9683
		L595.8872,369.1563z"/>
	<path fill="#EC7175" d="M595.8872,435.3482l-14.5977-14.6319l13.9268-11.8359c1.3906-0.4585,3.4629-0.7099,6.2734-0.7099
		c2.3077,0,4.7539,0.7988,7.3086,2.4409c2.545,1.6323,3.8174,3.8271,3.8174,6.6186c0,0.9414-0.2471,2.0957-0.6805,3.4863
		c-0.4738,1.3907-1.1837,2.3228-2.1016,2.7813L595.8872,435.3482z"/>
	<path fill="#EC7175" d="M595.8872,501.5308l-14.5977-13.9517l13.9268-12.5459c1.3906-0.4438,3.4629-0.6806,6.2734-0.6806
		c2.3077,0,4.7539,0.7744,7.3086,2.4311c2.5743,1.6231,3.8174,3.8272,3.8174,6.628c0,0.9423-0.2471,2.0766-0.6805,3.4873
		c-0.4738,1.3906-1.1837,2.3222-2.1016,2.7715L595.8872,501.5308z"/>
	<path fill="#EC7175" d="M595.8872,568.3687l-14.5977-14.6074l13.9268-11.8555c1.3906-0.917,3.4629-1.4004,6.2734-1.4004
		c2.3077,0,4.7539,0.8281,7.3086,2.4561c2.5743,1.5976,3.8174,3.8173,3.8174,6.6377c0,3.7089-0.9277,5.79-2.7822,6.2539
		L595.8872,568.3687z"/>
	<path fill="#EC7175" d="M595.8872,634.5611l-14.5977-14.6172l13.9268-11.8652c1.3906-0.4541,3.4629-0.7002,6.2734-0.7002
		c2.3077,0,4.7344,0.8281,7.3086,2.455c2.545,1.6182,3.8174,3.7979,3.8174,6.6192c0,0.9267-0.2471,2.1006-0.6805,3.4912
		c-0.4738,1.3808-1.1837,2.2978-2.1016,2.7617L595.8872,634.5611z"/>
	<path fill="#EC7175" d="M630.0337,335.0298c-2.3272,1.4004-4.1621,2.1104-5.5527,2.1104c-2.7813,0-5.1192-1.0703-6.9639-3.1416
		c-1.8535-2.0957-2.8008-4.5274-2.8008-7.333c0-0.4488,0-1.1294,0-2.0713c0-0.9224,0.2266-1.6323,0.6807-2.106l18.0986-16.018
		l13.2568,13.2368L630.0337,335.0298z"/>
	<path fill="#EC7175" d="M629.3237,468.7603c-0.9072,0.9468-2.7715,1.3906-5.5527,1.3906c-2.3379,0-4.4092-1.1494-6.2539-3.4619
		c-1.8936-2.333-2.8008-4.6455-2.8008-6.9487c0-2.7818,0.4336-4.6455,1.3906-5.5972l17.3887-14.6226l13.2568,13.232
		L629.3237,468.7603z"/>
	<path fill="#EC7175" d="M629.3237,534.9429c-0.9072,0.9561-2.7715,1.4004-5.5527,1.4004c-2.3379,0-4.4092-1.0361-6.2539-3.1367
		c-1.8535-2.1006-2.8008-4.3008-2.8008-6.6377c0-2.3086,0.4336-3.9063,1.3906-4.8428l17.3887-15.3428l13.2568,13.2315
		L629.3237,534.9429z"/>
	<path fill="#EC7175" d="M629.3237,601.7955c-0.9072,0.957-2.7715,1.4003-5.5527,1.4003c-2.3379,0-4.4092-1.124-6.2539-3.4619
		c-1.8936-2.3281-2.8008-4.6455-2.8008-6.9726c0-2.3086,0.4336-3.9453,1.3906-4.8731l17.3887-15.3174l13.2568,13.2168
		L629.3237,601.7955z"/>
	<path fill="#EC7175" d="M630.0337,401.897c-0.9072,0.4736-1.6172,0.6807-2.0713,0.6807c-0.9365,0-1.5283,0.1533-1.7754,0.3847
		c-0.2266,0.2071-0.5518,0.3204-1.0254,0.3204c-6.5097,0-9.7646-3.2447-9.7646-9.7247c0-0.9521,0-1.8691,0-2.7817
		c0-0.9517,0.2265-1.8638,0.7099-2.8159l17.3887-14.6172l13.2568,13.2266L630.0337,401.897z"/>
	<path fill="#EC7175" d="M622.3804,289.7671c-1.8643-1.8642-2.791-4.4189-2.791-7.6587c0-2.7963,1.1533-4.769,3.5009-5.9331
		c2.2979-1.1386,4.6162-1.7505,6.9434-1.7505c0.917,0,1.9531,0,3.1367,0c1.1641,0,2.1895,0.4932,3.1465,1.4107l39.6992,38.9941
		c2.3281,2.3428,3.4911,5.7998,3.4911,10.4453c0,4.6456-2.5742,6.9781-7.6728,6.9781c-3.2451,0-5.583-0.439-6.9737-1.3907
		L622.3804,289.7671z"/>
	<path fill="#EC7175" d="M622.3804,355.9248c-1.8643-1.3808-2.791-3.4819-2.791-6.2778c0-3.6938,1.1533-6.0166,3.5009-6.9487
		c2.2979-0.9175,4.6162-1.3911,6.9434-1.3911c3.2549,0,5.5635,0.6904,6.9639,2.0913l41.1191,41.1001
		c0.918,0.9272,1.3906,3.2549,1.3906,6.9238c0,4.6802-2.5742,6.9834-7.6728,6.9834c-3.2451,0-5.583-0.439-6.9737-1.3906
		L622.3804,355.9248z"/>
	<path fill="#EC7175" d="M622.3804,422.8072c-0.9473-0.9366-1.6377-2.209-2.0713-3.8218c-0.4737-1.6323-0.7197-2.9146-0.7197-3.8267
		c0-3.2549,1.1533-5.3261,3.5009-6.2783c2.2979-0.9316,4.6162-1.4101,6.9434-1.4101c3.2549,0,5.3262,0.4785,6.2832,1.4101
		l41.7998,41.7759c0.918,0.9126,1.3906,2.0962,1.3906,3.4868c0,1.4004,0,2.5742,0,3.4961c0,5.5581-2.5742,8.3398-7.6728,8.3398
		c-2.7715,0-5.1094-0.6806-6.9737-2.0712L622.3804,422.8072z"/>
	<path fill="#EC7175" d="M622.3804,488.9898c-0.9473-0.9522-1.6377-2.2095-2.0713-3.8418
		c-0.4737-1.6226-0.7197-2.9146-0.7197-3.8272c0-3.2744,1.1533-5.3457,3.5009-6.2876c2.2979-0.9126,4.6162-1.3857,6.9434-1.3857
		c3.2549,0,5.3262,0.4731,6.2832,1.3857l41.7998,42.481c0.918,0.9365,1.3906,3.2646,1.3906,6.9932
		c0,5.1093-2.5742,7.6533-7.6728,7.6533c-2.7715,0-5.1094-0.71-6.9737-2.0908L622.3804,488.9898z"/>
	<path fill="#EC7175" d="M623.0903,555.8531c-2.3476-1.3809-3.5009-3.709-3.5009-6.9541c0-3.2647,1.1533-5.4942,3.5009-6.6573
		c2.2979-1.1445,4.6162-1.7363,6.9434-1.7363c3.2549,0,5.7998,0.9473,7.6738,2.8106l40.4092,40.3906
		c0.918,0.9267,1.3906,2.081,1.3906,3.4814c0,1.3907,0,2.5742,0,3.4912c0,5.5635-2.5742,8.3448-7.6728,8.3448
		c-0.9375,0-1.8545,0-2.7715,0c-0.9473,0-1.8936-0.4346-2.8115-1.3809L623.0903,555.8531z"/>
	<path fill="#EC7175" d="M668.353,302.313l-14.6172-13.9511l13.9063-11.8262c0.9473-0.937,3.0088-1.4102,6.3027-1.4102
		c2.3087,0,4.7344,0.8184,7.3087,2.4556c2.5156,1.6177,3.7881,3.5952,3.7881,5.918c0,2.3227-0.6514,4.1723-2.0518,5.5776
		L668.353,302.313z"/>
	<path fill="#EC7175" d="M668.353,369.1563l-14.6172-14.6123l13.9063-11.8457c0.9473-0.9175,3.0088-1.3911,6.3027-1.3911
		c2.3087,0,4.7344,0.7993,7.3087,2.4218c2.5449,1.6519,3.7881,3.6148,3.7881,5.918c0,2.3574-0.6514,4.2066-2.0518,5.5972
		L668.353,369.1563z"/>
	<path fill="#EC7175" d="M668.353,435.3482l-14.6172-14.6319l14.6172-11.8359c0.9171-0.4585,1.8633-0.7099,2.7813-0.7099
		c0.9464,0,1.8633,0,2.8105,0c2.3087,0,4.7344,0.9418,7.3087,2.8007c2.5449,1.8448,3.7881,3.9453,3.7881,6.2588
		c0,2.7862-0.6514,4.6406-2.0518,5.5772L668.353,435.3482z"/>
	<path fill="#EC7175" d="M668.353,501.5308l-14.6172-13.9517l14.6172-12.5459c0.9171-0.4438,1.8633-0.6806,2.7813-0.6806
		c0.9464,0,1.8633,0,2.8105,0c2.3087,0,4.7344,0.9175,7.3087,2.7817c2.5156,1.8443,3.7881,3.9649,3.7881,6.2774
		c0,2.7866-0.6514,4.6259-2.0518,5.5781L668.353,501.5308z"/>
	<path fill="#EC7175" d="M668.353,568.3687l-14.6172-14.6074l14.6172-12.5362c0.9171-0.4541,1.8633-0.7197,2.7813-0.7197
		c0.9464,0,1.8633,0,2.8105,0c2.3087,0,4.7344,0.9473,7.3087,2.8106c2.5156,1.8349,3.7881,3.9453,3.7881,6.2832
		c0,2.7812-0.6514,4.6455-2.0518,5.5429L668.353,568.3687z"/>
	<path fill="#EC7175" d="M701.0688,468.7603c-0.9169,0.9468-2.3271,1.3906-4.1718,1.3906c-2.7715,0-5.1192-1.1494-6.9834-3.4619
		c-1.8242-2.333-2.7422-4.6455-2.7422-6.9487c0-2.7818,0.6806-4.6455,2.0713-5.5972l16.7187-14.6226l13.2461,13.232
		L701.0688,468.7603z"/>
	<path fill="#EC7175" d="M701.0688,534.9429c-0.9169,0.9561-2.5341,1.4004-4.872,1.4004c-2.7813,0-4.9717-1.0361-6.6084-3.1367
		c-1.6182-2.0811-2.417-4.3008-2.417-6.6377c0-2.3086,0.6806-4.1426,2.0713-5.5537l16.7187-14.6319l13.2461,13.2315
		L701.0688,534.9429z"/>
	<path fill="#EC7175" d="M702.4692,401.897c-0.9463,0.4736-1.6074,0.6807-2.081,0.6807c-0.9365,0-1.5283,0.1533-1.7363,0.3847
		c-0.2462,0.2071-0.5919,0.3204-1.045,0.3204c-6.5097,0-9.7549-2.9834-9.7549-9.044c0-0.9175,0-2.1011,0-3.4624
		c0-1.4253,0.4639-2.5444,1.3907-3.4966l16.7187-13.9365l13.2461,13.2266L702.4692,401.897z"/>
	<path fill="#EC7175" d="M694.8257,356.6153c-1.8643-1.8491-2.8008-4.3941-2.8008-7.6343c0-2.8057,1.1436-4.7783,3.4814-5.9424
		c2.3174-1.1592,4.6456-1.7314,6.9629-1.7314c3.7188,0,6.5,0.9326,8.335,2.7968l39.7383,40.3946
		c0.9472,0.9272,1.3808,3.2549,1.3808,6.9238c0,4.6802-2.7714,6.9834-8.3632,6.9834c-2.752,0-4.8829-0.439-6.2441-1.3906
		L694.8257,356.6153z"/>
	<path fill="#EC7175" d="M694.8257,423.4976c-0.9375-0.9365-1.6172-2.1895-2.0918-3.832c-0.4824-1.6123-0.709-3.1211-0.709-4.5069
		c0-2.8164,1.2715-4.7793,3.8457-5.958c2.5352-1.1386,4.9912-1.7304,7.3086-1.7304c0.4346,0,1.2725,0,2.456,0
		c1.1153,0,2.1504,0.4785,3.127,1.4101l41.7803,41.7759c0.9472,0.9126,1.3808,2.0962,1.3808,3.4868c0,1.4004,0,2.5742,0,3.4961
		c0,5.5581-2.5341,8.3398-7.6533,8.3398c-3.2549,0-5.5928-0.6806-6.954-2.0712L694.8257,423.4976z"/>
	<path fill="#EC7175" d="M694.8257,489.6705c-0.9375-0.9273-1.6572-2.1797-2.0918-3.8223c-0.4824-1.6123-0.709-3.1367-0.709-4.5274
		c0-2.7959,1.2715-4.7587,3.8457-5.9277c2.5352-1.1538,4.9912-1.7456,7.3086-1.7456c0.4346,0,1.2725,0,2.456,0
		c1.1153,0,2.1504,0.4731,3.127,1.3857l41.7803,42.481c0.9472,0.9365,1.3808,3.2646,1.3808,6.9932
		c0,5.1093-2.5341,7.6533-7.6533,7.6533c-3.2549,0-5.5928-0.71-6.954-2.0908L694.8257,489.6705z"/>
	<path fill="#EC7175" d="M726.1606,487.5791l15.3282-12.5459c0.4736-0.4438,1.1533-0.6806,2.0713-0.6806c0.9462,0,1.8535,0,2.7812,0
		c2.3281,0,4.793,0.9175,7.3379,2.7817c2.5449,1.8443,3.8174,3.9649,3.8174,6.2774c0,2.3281-1.835,5.2177-5.5733,8.6948
		c-3.7177,3.4917-7.417,6.5981-11.1152,9.4243L726.1606,487.5791z"/>
</g>
</svg>
