<?xml version="1.0" encoding="utf-8"?>
<!-- Generator: Adobe Illustrator 17.1.0, SVG Export Plug-In . SVG Version: 6.00 Build 0)  -->
<!DOCTYPE svg PUBLIC "-//W3C//DTD SVG 1.1//EN" "http://www.w3.org/Graphics/SVG/1.1/DTD/svg11.dtd">
<svg version="1.1" id="love-stamp-36" xmlns="http://www.w3.org/2000/svg" xmlns:xlink="http://www.w3.org/1999/xlink" x="0px"
	 y="0px" viewBox="0 0 1009.9956 1009.9956" enable-background="new 0 0 1009.9956 1009.9956" xml:space="preserve">
<g>
	<g id="love-stamp-36-stamp">
		<path fill="#FEFEFB" d="M986.7769,134.5542c0-12.8418,10.08-23.2373,23.2188-23.2373V90.4263
			c-13.1387,0-23.2188-10.4155-23.2188-23.2378c0-12.8222,10.08-23.2182,23.2188-23.2182V22.8238c0,0-0.3555,0-0.4346,0
			c-6.1152,0-12.1904-2.3867-16.5107-6.7071C988.7895,11.836,986.2446,5.8394,986.1851,0h-20.6338
			c0,12.4078-10.3955,23.2378-23.2178,23.2378c-12.8027,0-23.1983-10.83-23.1983-23.2378h-20.8906
			c0,12.4078-10.3956,23.2378-23.2178,23.2378c-12.8223,0-23.1982-10.83-23.1982-23.2378H830.938
			c0,12.4078-10.3955,23.2378-23.2178,23.2378c-12.8223,0-23.1982-10.83-23.1982-23.2378h-20.8907
			c0,12.4078-10.3955,23.2378-23.2177,23.2378c-12.8223,0-23.2188-10.83-23.2188-23.2378h-20.8896
			c0,12.4078-10.376,23.2378-23.1983,23.2378c-12.8222,0-23.2187-10.83-23.2187-23.2378h-20.8897
			c0,12.4078-10.3759,23.2378-23.1982,23.2378S582.5815,12.4078,582.5815,0h-20.8896c0,12.4078-10.3965,23.2378-23.1983,23.2378
			c-12.8222,0-23.2187-10.83-23.2187-23.2378h-20.8901c0,12.4078-10.396,23.2378-23.2183,23.2378
			c-12.8022,0-23.1982-10.83-23.1982-23.2378h-20.8902c0,12.4078-10.396,23.2378-23.2182,23.2378
			c-12.8023,0-23.1983-10.83-23.1983-23.2378h-20.8901c0,12.4078-10.396,23.2378-23.2183,23.2378
			c-12.8222,0-23.1982-10.83-23.1982-23.2378h-20.8902c0,12.4078-10.396,23.2378-23.2182,23.2378
			c-12.8223,0-23.2178-10.83-23.2178-23.2378h-20.8711c0,12.4078-10.3955,23.2378-23.2178,23.2378
			c-12.8222,0-23.2177-10.83-23.2177-23.2378h-20.8907c0,12.4078-10.3759,23.2378-23.1982,23.2378S111.4155,12.4078,111.4155,0
			H90.5249c0,12.4078-10.3955,23.2378-23.1982,23.2378c-12.8223,0-23.2178-10.83-23.2178-23.2378h-20.792
			c-0.0591,5.8394-2.5249,11.836-6.7861,16.1167c-4.3199,4.3204-10.3169,6.7461-16.4322,6.7461C0.0791,22.8628,0,22.8238,0,22.8238
			v20.5547c12.7632,0,23.1987,10.396,23.1987,23.2382c0,12.8218-10.4355,23.2178-23.1987,23.2178v20.9102
			c12.7632,0,23.1987,10.3955,23.1987,23.2177c0,12.8223-10.4355,23.2383-23.1987,23.2383v20.8897
			c12.7632,0,23.1987,10.416,23.1987,23.2383c0,12.8222-10.4355,23.2177-23.1987,23.2177v20.9102
			c12.7632,0,23.1987,10.3955,23.1987,23.2178c0,12.8422-10.4355,23.2382-23.1987,23.2382v20.9102
			c12.7632,0,23.1987,10.3955,23.1987,23.2178c0,12.8222-10.4355,23.2177-23.1987,23.2177v20.9102
			c12.7632,0,23.1987,10.396,23.1987,23.2378c0,12.8223-10.4355,23.2183-23.1987,23.2183v20.9101
			c12.7632,0,23.1987,10.3955,23.1987,23.2178c0,12.8222-10.4355,23.2378-23.1987,23.2378v20.8901
			c12.7632,0,23.1987,10.3965,23.1987,23.2383c0,12.8223-10.4355,23.2178-23.1987,23.2178v20.9101
			c12.7632,0,23.1987,10.3955,23.1987,23.2178c0,12.8223-10.4355,23.2383-23.1987,23.2383v20.8906
			c12.7632,0,23.1987,10.3955,23.1987,23.2373c0,12.8223-10.4355,23.2178-23.1987,23.2178v20.9101
			c12.7632,0,23.1987,10.3965,23.1987,23.2178c0,12.8428-10.4355,23.2383-23.1987,23.2383v20.8896
			c12.7632,0,23.1987,10.4161,23.1987,23.2383c0,12.8223-10.4355,23.2178-23.1987,23.2178v20.9102
			c12.7632,0,23.1987,10.3955,23.1987,23.2382c0,12.8213-10.4355,23.2178-23.1987,23.2178v20.9102
			c12.7632,0,23.1987,10.3955,23.1987,23.2177c0,12.8223-10.4355,23.2178-23.1987,23.2178v21.0088c0,0,0.0791,0,0.0986,0
			c6.1153,0,12.1123,2.6631,16.4322,7.0029c4.3007,4.3008,6.7666,10.6719,6.7861,16.5117h20.792
			c0-13.1386,10.3955-23.2188,23.2178-23.2188c12.8027,0,23.1982,10.0801,23.1982,23.2188h20.8906
			c0-13.1386,10.3955-23.2188,23.2178-23.2188s23.1982,10.0801,23.1982,23.2188h20.8907c0-13.1386,10.3955-23.2188,23.2177-23.2188
			c12.8223,0,23.2178,10.0801,23.2178,23.2188h20.8711c0-13.1386,10.3955-23.2188,23.2178-23.2188
			c12.8222,0,23.2182,10.0801,23.2182,23.2188h20.8902c0-13.1386,10.376-23.2188,23.1982-23.2188
			c12.8223,0,23.2183,10.0801,23.2183,23.2188h20.8901c0-13.1386,10.396-23.2188,23.1983-23.2188
			c12.8222,0,23.2182,10.0801,23.2182,23.2188h20.8902c0-13.1386,10.396-23.2188,23.1982-23.2188
			c12.8223,0,23.2183,10.0801,23.2183,23.2188h20.8901c0-13.1386,10.3965-23.2188,23.2187-23.2188
			c12.8018,0,23.1983,10.0801,23.1983,23.2188h20.8896c0-13.1386,10.3965-23.2188,23.2188-23.2188s23.1982,10.0801,23.1982,23.2188
			h20.8897c0-13.1386,10.3965-23.2188,23.2187-23.2188c12.8223,0,23.1983,10.0801,23.1983,23.2188h20.8896
			c0-13.1386,10.3965-23.2188,23.2188-23.2188c12.8222,0,23.2177,10.0801,23.2177,23.2188h20.8907
			c0-13.1386,10.3759-23.2188,23.1982-23.2188c12.8223,0,23.2178,10.0801,23.2178,23.2188h20.8906
			c0-13.1386,10.376-23.2188,23.1982-23.2188c12.8222,0,23.2178,10.0801,23.2178,23.2188h20.8906
			c0-13.1386,10.3956-23.2188,23.1983-23.2188c12.8223,0,23.2178,10.0801,23.2178,23.2188h20.6338
			c0.0195-5.8398,2.4863-12.2109,6.7861-16.5117c4.3203-4.3398,10.4746-6.9043,16.5898-6.9043c0.0791,0,0.4346-0.0986,0.4346-0.0781
			V966.064c-13.1387,0-23.2188-10.3955-23.2188-23.2178c0-12.8418,10.08-23.2373,23.2188-23.2373v-20.9101
			c-13.1387,0-23.2188-10.3965-23.2188-23.2188c0-12.8222,10.08-23.2373,23.2188-23.2373v-20.8906
			c-13.1387,0-23.2188-10.3954-23.2188-23.2372c0-12.8223,10.08-23.2188,23.2188-23.2188v-20.9102
			c-13.1387,0-23.2188-10.3955-23.2188-23.2178c0-12.8213,10.08-23.2373,23.2188-23.2373v-20.8906
			c-13.1387,0-23.2188-10.416-23.2188-23.2373c0-12.8223,10.08-23.2188,23.2188-23.2188v-20.9092
			c-13.1387,0-23.2188-10.3964-23.2188-23.2187c0-12.8419,10.08-23.2373,23.2188-23.2373v-20.9102
			c-13.1387,0-23.2188-10.3955-23.2188-23.2177c0-12.8223,10.08-23.2188,23.2188-23.2188v-20.9101
			c-13.1387,0-23.2188-10.3956-23.2188-23.2178c0-12.8418,10.08-23.2378,23.2188-23.2378v-20.9097
			c-13.1387,0-23.2188-10.3965-23.2188-23.2182c0-12.8423,10.08-23.2183,23.2188-23.2183v-20.9102
			c-13.1387,0-23.2188-10.3955-23.2188-23.2373c0-12.8222,10.08-23.2182,23.2188-23.2182v-20.9102
			c-13.1387,0-23.2188-10.396-23.2188-23.2182c0-12.8418,10.08-23.2374,23.2188-23.2374v-20.8906
			c-13.1387,0-23.2188-10.4155-23.2188-23.2378c0-12.8217,10.08-23.2182,23.2188-23.2182v-20.9097
			C996.8569,157.7725,986.7769,147.3765,986.7769,134.5542z"/>
		<g>
			<rect x="81.6675" y="81.2339" fill="#9F5F5E" width="846.3447" height="846.9756"/>
			<path opacity="0.05" d="M920.1411,89.1246v831.1943H89.5386V89.1246H920.1411 M935.9028,73.3628H73.7768v862.7168h862.126
				V73.3628L935.9028,73.3628z"/>
		</g>
	</g>
</g>
<g id="love-stamp-36-heart-be-mine">
	<g id="love-stamp-36-heart-balloon">
		<g>
			<path fill="#EC7175" d="M660.7085,224.586c-76.4395-54.0405-154.0537,13.2954-154.0537,13.2954
				s-45.0156-40.3604-100.9404-35.4678c-16.9454,1.4795-34.837,6.9531-52.8472,19.1543
				c-43.2105,29.294-68.0171,90.041-37.2437,157.2891c7.3384,15.9687,17.7735,32.3808,31.8975,48.7734
				c14.9922,17.3887,34.3638,34.7979,58.1934,51.8809c28.5737,20.4756,63.6967,40.459,106.9179,59.1797
				c72.4844-34.2852,121.5742-72.752,152.4258-111.0606c13.1973-16.3926,22.9717-32.8047,29.9355-48.7734
				C723.3198,313.5132,702.8052,254.314,660.7085,224.586z"/>
		</g>
		<g>
			<path fill="#91D0D2" d="M496.8608,531.0562c-6.4409,0.0195-11.6484,5.2471-11.6289,11.6777
				c0,6.4512,5.2075,11.6787,11.6387,11.6787l7.7324-0.0195l-19.6865,34.126l54.1387-0.0195l-19.7061-34.1065l7.7617-0.0205
				c6.461,0,11.6582-5.2266,11.6582-11.6777c0-6.4112-5.2265-11.6387-11.6777-11.6387h-10.3369h-9.3604H496.8608z"/>
			<path fill="#91D0D2" d="M518.2241,583.8247c0.0293-0.0595,0.0293-0.0986,0.0391-0.1376h-9.5371
				c-0.71,3.748-1.6573,10.1582-1.6573,18.6806c0,12.3096,1.9727,28.9776,9.3799,47.8955
				c6.5391,16.7871,8.8086,30.043,8.8086,41.6035c0,14.3604-3.541,26.3741-7.2793,39.4922
				c-3.6103,12.7237-5.8788,25.585-5.8788,39.0186c0,12.0137,1.8145,24.4814,5.9278,37.6181l8.9062-2.7812
				c-3.8564-12.2891-5.4932-23.75-5.4932-34.8369c0-12.3878,2.042-24.3419,5.5137-36.4541
				c3.6983-13.0196,7.6338-26.0977,7.6338-42.0567c0-12.8027-2.5449-27.3408-9.4492-44.9961
				c-6.9434-17.7148-8.7481-33.1601-8.7481-44.5029c0-6.293,0.5723-11.3037,1.1046-14.6963
				C517.7808,585.9546,518.0464,584.6529,518.2241,583.8247z"/>
		</g>
	</g>
	<g id="love-stamp-36-be-mine">
		<path fill="#FEFEFB" d="M474.4712,267.7378c14.7651,0,23.9575,6.4209,23.9575,16.7574c0,7.2788-4.4185,12.9209-11.5991,14.7553
			c8.6103,1.6177,13.9863,8.1475,13.9863,16.9649c0,11.4809-9.6758,18.5625-25.2895,18.5625h-31.9078v-67.0401H474.4712z
			 M458.7588,294.7432h14.9331c5.6811,0,9.2119-2.772,9.2119-7.4663c0-4.5869-3.5308-7.1807-9.2119-7.1807h-14.9331V294.7432z
			 M458.7588,322.4292h14.9331c7.2002,0,11.5205-2.9589,11.5205-8.1469c0-4.8726-4.3203-7.8511-11.5205-7.8511h-14.9331V322.4292z"
			/>
		<path fill="#FEFEFB" d="M529.3892,280.2837v14.5479h32.371v12.5664h-32.371v14.8535h36.9872v12.5264h-52.1172v-67.0401h51.0625
			v12.5459H529.3892z"/>
		<path fill="#FEFEFB" d="M437.9477,430.649v-45.2134l-17.8134,38.3877h-9.8828l-17.813-38.3877v45.2134h-13.69v-67.0606h16.9546
			l19.5196,41.0015l19.4599-41.0015h16.8565v67.0606H437.9477z"/>
		<path fill="#FEFEFB" d="M468.8394,430.649v-67.0606h15.1201v67.0606H468.8394z"/>
		<path fill="#FEFEFB" d="M548.1597,430.649l-32.4805-43.0235v43.0235H501.23v-67.0606h13.789l32.5684,43.0928v-43.0928h14.3701
			v67.0606H548.1597z"/>
		<path fill="#FEFEFB" d="M594.2895,376.1246v14.5585h32.3711v12.5557h-32.3711v14.8638h36.9581v12.5464h-52.1075v-67.0606h51.0616
			v12.5362H594.2895z"/>
	</g>
</g>
</svg>
