<?xml version="1.0" encoding="utf-8"?>
<!-- Generator: Adobe Illustrator 17.1.0, SVG Export Plug-In . SVG Version: 6.00 Build 0)  -->
<!DOCTYPE svg PUBLIC "-//W3C//DTD SVG 1.1//EN" "http://www.w3.org/Graphics/SVG/1.1/DTD/svg11.dtd">
<svg version="1.1" id="love-stamp-5" xmlns="http://www.w3.org/2000/svg" xmlns:xlink="http://www.w3.org/1999/xlink" x="0px"
	 y="0px" viewBox="0 0 1010.0005 1009.9956" enable-background="new 0 0 1010.0005 1009.9956" xml:space="preserve">
<g id="love-stamp-5-stamp">
	<path fill="#FEFEFB" d="M986.7818,134.5396c0-12.8272,10.08-23.228,23.2187-23.228V90.4117
		c-13.1387,0-23.2187-10.4009-23.2187-23.2281c0-12.8271,10.08-23.228,23.2187-23.228V22.814c0,0-0.3555,0.0049-0.4346,0.0049
		c-6.1152,0-12.1904-2.3921-16.5107-6.7119C988.7944,11.836,986.2495,5.8394,986.19,0h-20.6339
		c0,12.4078-10.3954,23.2281-23.2178,23.2281c-12.8027,0-23.1983-10.8203-23.1983-23.2281h-20.8906
		c0,12.4078-10.3955,23.2281-23.2177,23.2281c-12.8223,0-23.1983-10.8203-23.1983-23.2281h-20.8906
		c0,12.4078-10.3955,23.2281-23.2178,23.2281c-12.8223,0-23.1982-10.8203-23.1982-23.2281h-20.8907
		c0,12.4078-10.3955,23.2281-23.2177,23.2281c-12.8223,0-23.2188-10.8203-23.2188-23.2281h-20.8896
		c0,12.4078-10.376,23.2281-23.1982,23.2281c-12.8222,0-23.2188-10.8203-23.2188-23.2281h-20.8896
		c0,12.4078-10.3759,23.2281-23.1982,23.2281c-12.8223,0-23.2188-10.8203-23.2188-23.2281h-20.8896
		c0,12.4078-10.3965,23.2281-23.1983,23.2281c-12.8222,0-23.2187-10.8203-23.2187-23.2281H494.395
		c0,12.4078-10.3965,23.2281-23.2085,23.2281c-12.8222,0-23.2182-10.8203-23.2182-23.2281h-20.8902
		c0,12.4078-10.3862,23.2281-23.1982,23.2281c-12.8223,0-23.2183-10.8203-23.2183-23.2281h-20.8901
		c0,12.4078-10.396,23.2281-23.2085,23.2281c-12.812,0-23.208-10.8203-23.208-23.2281h-20.8906
		c0,12.4078-10.3955,23.2281-23.208,23.2281c-12.8126,0-23.2081-10.8203-23.2081-23.2281h-20.8907
		c0,12.4078-10.3955,23.2281-23.2177,23.2281c-12.8125,0-23.1983-10.8203-23.1983-23.2281h-20.8906
		c0,12.4078-10.3955,23.2281-23.2178,23.2281c-12.8125,0-23.208-10.8203-23.208-23.2281H90.5444
		c0,12.4078-10.3955,23.2281-23.2177,23.2281c-12.8223,0-23.208-10.8203-23.208-23.2281h-20.792
		c-0.0591,5.8394-2.5249,11.836-6.7959,16.107c-4.3199,4.3198-10.3067,6.7558-16.4121,6.7558C0.0791,22.8628,0,22.8189,0,22.8189
		v20.5547c12.7632,0,23.2085,10.4009,23.2085,23.228c0,12.8272-10.4453,23.228-23.2085,23.228v20.9053
		c12.7632,0,23.2085,10.3955,23.2085,23.2227c0,12.8271-10.4453,23.228-23.2085,23.228v20.9048
		c12.7632,0,23.2085,10.4013,23.2085,23.2285c0,12.8271-10.4453,23.2275-23.2085,23.2275v20.9004
		c12.7632,0,23.2085,10.4004,23.2085,23.2276c0,12.8271-10.4453,23.2285-23.2085,23.2285v20.9048
		c12.7632,0,23.2085,10.396,23.2085,23.2231c0,12.8272-10.4453,23.2275-23.2085,23.2275v20.9053
		c12.7632,0,23.2085,10.4009,23.2085,23.228c0,12.8272-10.4453,23.2232-23.2085,23.2232v20.9053
		c12.7632,0,23.2085,10.4004,23.2085,23.2275S12.7632,493.9756,0,493.9756v20.9048c12.7632,0,23.2085,10.3965,23.2085,23.2285
		c0,12.8223-10.4453,23.2276-23.2085,23.2276v20.9004c12.7632,0,23.2085,10.3955,23.2085,23.2275
		c0,12.8223-10.4453,23.2285-23.2085,23.2285v20.9004c12.7632,0,23.2085,10.3955,23.2085,23.2275
		c0,12.8223-10.4453,23.2276-23.2085,23.2276v20.9004c12.7632,0,23.2085,10.4062,23.2085,23.2275
		c0,12.832-10.4453,23.2285-23.2085,23.2285v20.8994c12.7632,0,23.2085,10.4063,23.2085,23.2286
		c0,12.832-10.4453,23.2275-23.2085,23.2275v20.9102c12.7632,0,23.2085,10.3955,23.2085,23.2275
		c0,12.8223-10.4453,23.2187-23.2085,23.2187v20.9102c12.7632,0,23.2085,10.3955,23.2085,23.2275
		c0,12.8223-10.4453,23.2178-23.2085,23.2178v21.0088c0,0,0.0791,0,0.1187,0c6.1054,0,12.0922,2.6631,16.4121,6.9932
		c4.3008,4.3007,6.7763,10.6816,6.8056,16.5214h20.7823c0-13.1386,10.3857-23.2285,23.208-23.2285
		c12.8222,0,23.2177,10.0899,23.2177,23.2285h20.8809c0-13.1386,10.3955-23.2285,23.208-23.2285
		c12.8223,0,23.2178,10.0899,23.2178,23.2285h20.8906c0-13.1386,10.3858-23.2285,23.1983-23.2285
		c12.8222,0,23.2177,10.0899,23.2177,23.2285h20.8907c0-13.1386,10.3955-23.2285,23.2081-23.2285
		c12.8125,0,23.208,10.0899,23.208,23.2285h20.8906c0-13.1386,10.396-23.2285,23.208-23.2285
		c12.8125,0,23.2085,10.0899,23.2085,23.2285h20.8901c0-13.1386,10.396-23.2285,23.2183-23.2285
		c12.812,0,23.1982,10.0899,23.1982,23.2285h20.8902c0-13.1386,10.396-23.2285,23.2182-23.2285
		c12.812,0,23.2085,10.0899,23.2085,23.2285h20.8848c0-13.1386,10.3965-23.2285,23.2187-23.2285
		c12.8018,0,23.1983,10.0899,23.1983,23.2285h20.8896c0-13.1386,10.3965-23.2285,23.2188-23.2285
		c12.8223,0,23.1982,10.0899,23.1982,23.2285h20.8896c0-13.1386,10.3965-23.2285,23.2188-23.2285
		c12.8223,0,23.1982,10.0899,23.1982,23.2285h20.8896c0-13.1386,10.3965-23.2285,23.2188-23.2285
		c12.8221,0,23.2177,10.0899,23.2177,23.2285h20.8907c0-13.1386,10.3759-23.2285,23.1982-23.2285
		c12.8223,0,23.2178,10.0899,23.2178,23.2285h20.8906c0-13.1386,10.376-23.2285,23.1983-23.2285
		c12.8222,0,23.2177,10.0899,23.2177,23.2285h20.8906c0-13.1386,10.3956-23.2285,23.1983-23.2285
		c12.8223,0,23.2178,10.0899,23.2178,23.2285H986.19c0.0195-5.8398,2.4863-12.2207,6.7861-16.5214
		c4.3203-4.3301,10.4746-6.8946,16.5898-6.8946c0.0791,0,0.4346-0.0986,0.4346-0.0888v-20.4366
		c-13.1387,0-23.2187-10.3955-23.2187-23.2177c0-12.8418,10.08-23.2276,23.2187-23.2276v-20.9101
		c-13.1387,0-23.2187-10.3965-23.2187-23.2285c0-12.8223,10.08-23.2276,23.2187-23.2276v-20.9004
		c-13.1387,0-23.2187-10.3955-23.2187-23.2275c0-12.832,10.08-23.2285,23.2187-23.2285v-20.9005
		c-13.1387,0-23.2187-10.4053-23.2187-23.2275c0-12.8222,10.08-23.2275,23.2187-23.2275v-20.9004
		c-13.1387,0-23.2187-10.4062-23.2187-23.2275c0-12.833,10.08-23.2285,23.2187-23.2285v-20.8995
		c-13.1387,0-23.2187-10.4062-23.2187-23.2285c0-12.832,10.08-23.2275,23.2187-23.2275v-20.9102
		c-13.1387,0-23.2187-10.3955-23.2187-23.2177c0-12.8321,10.08-23.2286,23.2187-23.2286v-20.9101
		c-13.1387,0-23.2187-10.3955-23.2187-23.2227c0-12.8271,10.08-23.228,23.2187-23.228v-20.9048
		c-13.1387,0-23.2187-10.4013-23.2187-23.2285c0-12.832,10.08-23.2227,23.2187-23.2227v-20.9052
		c-13.1387,0-23.2187-10.4004-23.2187-23.2276c0-12.8271,10.08-23.2285,23.2187-23.2285v-20.8999
		c-13.1387,0-23.2187-10.4009-23.2187-23.228c0-12.832,10.08-23.2276,23.2187-23.2276v-20.9052
		c-13.1387,0-23.2187-10.4009-23.2187-23.2281c0-12.8271,10.08-23.2231,23.2187-23.2231v-20.9048
		C996.8618,157.7676,986.7818,147.3667,986.7818,134.5396z"/>
	<g>
		<rect x="81.6675" y="81.2339" fill="#9F5F5E" width="846.3496" height="846.9658"/>
		<path opacity="0.05" d="M920.146,89.1197v831.1992H89.5484V89.1197H920.146 M935.9077,73.3531H73.7969v862.7265h862.1108V73.3531
			L935.9077,73.3531z"/>
	</g>
</g>
<g id="love-stamp-5-lips">
	<path fill="#EC7175" d="M201.999,478.6924c0,0,53.5572-20.1704,142.7803-95.4761c0,0,72.1597-66.1723,146.5479-1.9677
		c0,0,11.7573,19.1738,45.4741-4.606c0,0,59.338-47.9204,132.1875,1.1099c0,0,94.2529,83.7978,139.0128,93.0493
		c0,0-31.3458,22.7793-116.0714,0.9468c0,0-62.5918-22.9815-106.8379,2.5547c0,0-35.8633,20.1704-85.6182,17.5664
		c0,0-30.4277,5.3706-83.6103-20.5645c0,0-25.832-16.4375-96.6499,6.5488C319.2139,477.854,235.5542,502.5025,201.999,478.6924z"/>
	<path fill="#EC7175" d="M223.9351,503.0494c0,0,52.9853,7.3925,125.8745-10.8345c0,0,46.9292-10.3071,84.2026,9.02
		c0,0,78.1465,36.5674,166.25-6.416c0,0,29.8848-17.0191,81.7071-9.6807c0,0,65.9843,23.1983,98.4345,13.9121
		c0,0-47.5205,122.1856-211.4873,151.9336c0,0-108.126,26.8272-225.5674-34.956
		C343.3491,616.0279,267.5108,579.5738,223.9351,503.0494z"/>
</g>
</svg>
