<?xml version="1.0" encoding="utf-8"?>
<!-- Generator: Adobe Illustrator 17.1.0, SVG Export Plug-In . SVG Version: 6.00 Build 0)  -->
<!DOCTYPE svg PUBLIC "-//W3C//DTD SVG 1.1//EN" "http://www.w3.org/Graphics/SVG/1.1/DTD/svg11.dtd">
<svg version="1.1" id="love-stamp-3" xmlns="http://www.w3.org/2000/svg" xmlns:xlink="http://www.w3.org/1999/xlink" x="0px"
	 y="0px" viewBox="0 0 1009.9956 1009.9956" enable-background="new 0 0 1009.9956 1009.9956" xml:space="preserve">
<g id="love-stamp-3-stamp">
	<path fill="#FEFEFB" d="M986.7769,134.5347c0-12.8223,10.08-23.2178,23.2188-23.2178V90.4068
		c-13.1387,0-23.2188-10.396-23.2188-23.2183c0-12.832,10.08-23.2378,23.2188-23.2378V22.814c0,0-0.3555,0.0098-0.4346,0.0098
		c-6.1152,0-12.1904-2.397-16.5107-6.7168c-4.2608-4.271-6.8057-10.2676-6.8652-16.107h-20.6338
		c0,12.4078-10.3955,23.2281-23.2178,23.2281c-12.8027,0-23.1983-10.8203-23.1983-23.2281h-20.8906
		c0,12.4078-10.3956,23.2281-23.2178,23.2281c-12.8223,0-23.1982-10.8203-23.1982-23.2281H830.938
		c0,12.4078-10.3955,23.2281-23.2178,23.2281c-12.8223,0-23.1982-10.8203-23.1982-23.2281h-20.8907
		c0,12.4078-10.3955,23.2281-23.2177,23.2281c-12.8223,0-23.2188-10.8203-23.2188-23.2281h-20.8896
		c0,12.4078-10.376,23.2281-23.1983,23.2281c-12.8125,0-23.209-10.8203-23.209-23.2281h-20.8896
		c0,12.4078-10.3857,23.2281-23.208,23.2281S582.5913,12.4078,582.5913,0h-20.8896c0,12.4078-10.3956,23.2281-23.2081,23.2281
		c-12.8222,0-23.2187-10.8203-23.2187-23.2281H494.395c0,12.4078-10.3965,23.2281-23.2182,23.2281
		c-12.8125,0-23.1988-10.8203-23.1988-23.2281h-20.8896c0,12.4078-10.3965,23.2281-23.2188,23.2281
		c-12.812,0-23.208-10.8203-23.208-23.2281h-20.8804c0,12.4078-10.396,23.2281-23.2182,23.2281
		c-12.8223,0-23.208-10.8203-23.208-23.2281h-20.8902c0,12.4078-10.3862,23.2281-23.2085,23.2281
		c-12.8222,0-23.2177-10.8203-23.2177-23.2281h-20.8809c0,12.4078-10.3955,23.2281-23.208,23.2281
		c-12.8223,0-23.2178-10.8203-23.2178-23.2281h-20.8906c0,12.4078-10.3857,23.2281-23.1982,23.2281
		c-12.8223,0-23.2178-10.8203-23.2178-23.2281H90.5347c0,12.4078-10.3955,23.2281-23.208,23.2281S44.1186,12.4078,44.1186,0H23.3267
		c-0.0591,5.8394-2.5249,11.836-6.7862,16.107c-4.3198,4.3198-10.3164,6.7558-16.4316,6.7558C0.0791,22.8628,0,22.8238,0,22.8238
		v20.5547c12.7729,0,23.2085,10.396,23.2085,23.2182c0,12.8321-10.4356,23.2378-23.2085,23.2378v20.9004
		c12.7729,0,23.2085,10.3955,23.2085,23.2275c0,12.8223-10.4356,23.2183-23.2085,23.2183v20.9097
		c12.7729,0,23.2085,10.3965,23.2085,23.2285S12.7729,224.5464,0,224.5464v20.9004c12.7729,0,23.2085,10.4053,23.2085,23.2276
		c0,12.8222-10.4356,23.2285-23.2085,23.2285v20.8999c12.7729,0,23.2085,10.396,23.2085,23.228S12.7729,359.2583,0,359.2583v20.9102
		c12.7729,0,23.2085,10.396,23.2085,23.2183c0,12.832-10.4356,23.228-23.2085,23.228v20.8999
		c12.7729,0,23.2085,10.4058,23.2085,23.2378c0,12.8222-10.4356,23.2178-23.2085,23.2178v20.9101
		c12.7729,0,23.2085,10.3965,23.2085,23.2285c0,12.8223-10.4356,23.2276-23.2085,23.2276v20.9004
		c12.7729,0,23.2085,10.3955,23.2085,23.2275c0,12.8223-10.4356,23.2285-23.2085,23.2285v20.9004
		c12.7729,0,23.2085,10.3955,23.2085,23.2275c0,12.8223-10.4356,23.2276-23.2085,23.2276v20.9004
		c12.7729,0,23.2085,10.4062,23.2085,23.2275c0,12.832-10.4356,23.2285-23.2085,23.2285v20.8994
		c12.7729,0,23.2085,10.4063,23.2085,23.2286c0,12.832-10.4356,23.2275-23.2085,23.2275v20.9102
		c12.7729,0,23.2085,10.3955,23.2085,23.2275c0,12.8223-10.4356,23.2187-23.2085,23.2187v20.9102
		c12.7729,0,23.2085,10.3955,23.2085,23.2275c0,12.8223-10.4356,23.2178-23.2085,23.2178v21.0088c0,0,0.0791,0,0.1089,0
		c6.1152,0,12.102,2.6631,16.4219,6.9932c4.3007,4.3007,6.7763,10.6816,6.7959,16.5214h20.7919
		c0-13.1386,10.3956-23.2285,23.2081-23.2285s23.208,10.0899,23.208,23.2285h20.8906c0-13.1386,10.3955-23.2285,23.2178-23.2285
		c12.8125,0,23.1982,10.0899,23.1982,23.2285h20.8906c0-13.1386,10.3955-23.2285,23.2178-23.2285
		c12.8125,0,23.208,10.0899,23.208,23.2285h20.8809c0-13.1386,10.3955-23.2285,23.2177-23.2285
		c12.8223,0,23.2085,10.0899,23.2085,23.2285h20.8902c0-13.1386,10.3857-23.2285,23.208-23.2285
		c12.8222,0,23.2182,10.0899,23.2182,23.2285h20.8804c0-13.1386,10.396-23.2285,23.208-23.2285
		c12.8223,0,23.2188,10.0899,23.2188,23.2285h20.8896c0-13.1386,10.3863-23.2285,23.1988-23.2285
		c12.8217,0,23.2182,10.0899,23.2182,23.2285h20.8799c0-13.1386,10.3965-23.2285,23.2187-23.2285
		c12.8125,0,23.2081,10.0899,23.2081,23.2285h20.8896c0-13.1386,10.3867-23.2285,23.209-23.2285s23.208,10.0899,23.208,23.2285
		h20.8896c0-13.1386,10.3965-23.2285,23.209-23.2285c12.8223,0,23.1983,10.0899,23.1983,23.2285h20.8896
		c0-13.1386,10.3965-23.2285,23.2188-23.2285c12.8222,0,23.2177,10.0899,23.2177,23.2285h20.8907
		c0-13.1386,10.3759-23.2285,23.1982-23.2285c12.8223,0,23.2178,10.0899,23.2178,23.2285h20.8906
		c0-13.1386,10.376-23.2285,23.1982-23.2285c12.8222,0,23.2178,10.0899,23.2178,23.2285h20.8906
		c0-13.1386,10.3956-23.2285,23.1983-23.2285c12.8223,0,23.2178,10.0899,23.2178,23.2285h20.6338
		c0.0195-5.8398,2.4863-12.2207,6.7861-16.5214c4.3203-4.3301,10.4746-6.8946,16.5898-6.8946c0.0791,0,0.4346-0.0986,0.4346-0.0888
		v-20.4366c-13.1387,0-23.2188-10.3955-23.2188-23.2177c0-12.8418,10.08-23.2276,23.2188-23.2276v-20.9101
		c-13.1387,0-23.2188-10.3965-23.2188-23.2285c0-12.8223,10.08-23.2276,23.2188-23.2276v-20.9004
		c-13.1387,0-23.2188-10.3955-23.2188-23.2275c0-12.832,10.08-23.2285,23.2188-23.2285v-20.9005
		c-13.1387,0-23.2188-10.4053-23.2188-23.2275c0-12.8222,10.08-23.2275,23.2188-23.2275v-20.9004
		c-13.1387,0-23.2188-10.4062-23.2188-23.2275c0-12.833,10.08-23.2285,23.2188-23.2285v-20.8995
		c-13.1387,0-23.2188-10.4062-23.2188-23.2285c0-12.832,10.08-23.2275,23.2188-23.2275v-20.9102
		c-13.1387,0-23.2188-10.3955-23.2188-23.2177c0-12.8321,10.08-23.2286,23.2188-23.2286v-20.9101
		c-13.1387,0-23.2188-10.3955-23.2188-23.2276c0-12.8222,10.08-23.2182,23.2188-23.2182v-20.9097
		c-13.1387,0-23.2188-10.3965-23.2188-23.2285s10.08-23.2275,23.2188-23.2275v-20.9004c-13.1387,0-23.2188-10.4053-23.2188-23.2276
		c0-12.8222,10.08-23.2285,23.2188-23.2285v-20.8999c-13.1387,0-23.2188-10.396-23.2188-23.228
		c0-12.832,10.08-23.2276,23.2188-23.2276v-20.9101c-13.1387,0-23.2188-10.396-23.2188-23.2183
		c0-12.832,10.08-23.228,23.2188-23.228v-20.8999C996.8569,157.7725,986.7769,147.3667,986.7769,134.5347z"/>
	<g>
		<rect x="81.6772" y="81.2339" fill="#91D0D2" width="846.335" height="846.9658"/>
		<path opacity="0.05" d="M920.1411,89.1246v831.1943H89.5483V89.1246H920.1411 M935.9028,73.3531H73.7871v862.7265h862.1157
			V73.3531L935.9028,73.3531z"/>
	</g>
</g>
<g id="love-stamp-3-cupid">
	<path fill="#FEFEFB" d="M657.8882,434.8902l-1.5781-6.0762c-1.6779-6.3516-6.9835-8.3047-16.0381-5.957
		c-1.7754,0.4634-4.5567,1.4497-8.2559,2.8896c-3.708,1.4102-6.4892,2.4068-8.2851,2.8897c-4.0342,1.0556-6.46,0.2173-7.1504-2.4854
		c-0.3448-1.3906-0.3947-3.018-0.2277-4.9809c0.2277-1.9825,0.2373-3.4224-0.0097-4.3394l-1.2227-1.8843
		c-1.2422-1.105-2.377-1.7754-3.4023-1.9624l-2.0323,0.542c-1.1142,1.2432-1.8144,2.3379-2.0117,3.3633
		c-0.208,2.9297-1.3808,6.6084-3.6006,11.0371c-2.209,4.478-4.6844,7.0425-7.3974,7.7529
		c-4.0733,1.0547-10.3369,2.3272-18.8877,3.8267c-8.5215,1.4795-14.8145,2.7617-18.8789,3.8267l-1.3409,0.3554
		c-0.4834-1.7954-0.6904-6.352-0.6611-13.5918c0.4736-2.0019-0.838-8.9062-3.8955-20.6338
		c5.168-2.3081,11.3721-7.644,18.5918-16.0376c7.2002-8.374,11.876-15.7417,14.085-22.0937
		c2.1104-2.959,4.7539-6.7661,7.8712-11.4609c7.4658-12.0533,11.451-22.7154,11.914-31.9869
		c0.4346-0.1279,0.8486-0.4531,1.1543-1.0449c0.4141-3.9555,3.8467-9.3701,10.1885-16.373
		c6.3916-6.9639,9.2812-11.5401,8.6894-13.7989c-0.6806-2.7026-2.8603-3.6103-6.4697-2.663l-10.4453,4.1816l-1.7754-3.8857
		c-1.1543-4.5079-1.3808-10.9581-0.6611-19.3321c0.7002-8.3642,0.582-14.331-0.3545-17.9316
		c-0.7109-2.7515-2.8604-3.6192-6.4805-2.6826l-0.1777-0.6709l-0.8281-0.5225c-0.5723-0.3154-1.3125-0.3452-2.2295-0.1084
		c-2.2295,0.582-4.5567,6.3418-7.042,17.3296c-2.4268,11.0269-3.4522,18.1284-3.0772,21.4233
		c1.1045,9.8433,2.0908,16.3531,2.9092,19.4698c-3.876,9.2021-12.1709,18.0888-24.8555,26.6699
		c-7.8711,4.9316-16.0566,13.3349-24.5195,25.1909c-3.1074,4.6455-4.2217,6.855-3.3535,6.6382
		c-3.1367,0.8086-7.7031,0.8183-13.7002-0.0498c-6.0068-0.8086-9.3213-2.377-9.8926-4.606
		c-0.7197-2.7514,1.6172-5.9673,6.8545-9.7744c6.9834-4.7241,10.7705-7.6142,11.4609-8.7881
		c2.2198-2.4458,4.5274-4.853,6.8057-7.1904c2.2686-2.2388,2.8604-5.6616,1.6768-10.1787c-0.71-2.6831-2.545-5.938-5.4444-9.7647
		c-2.9091-3.8169-4.6845-6.8647-5.2763-9.104c0.4238-0.1279,0.6699-0.2661,0.6113-0.5127
		c-0.0791-0.2563,0.0889-0.6411,0.4238-1.2031l0.1182-2.1699c-0.7295-2.7026-3.7774-4.4482-9.3008-5.2178
		c-5.4736-0.7197-8.5117-1.3413-9.1728-1.9233c-0.6114-0.5425-2.0909-5.3262-4.4581-14.3609
		c-1.7363-6.7563-6.1152-12.3584-13.0195-16.8364l-5.957-3.521c-0.2569-0.8979-0.375-2.2886-0.4146-4.2412
		c0-1.8838-0.1674-3.2949-0.3945-4.2021c-0.9272-3.6099-3.2349-7.92-6.9634-12.9898c-3.748-5.0796-7.2002-7.1704-10.3564-6.352
		c-0.4239,0.1284-1.9136,2.6728-4.4878,7.664c-2.5444,5.0205-5.9673,8.5611-10.2378,10.6323
		c-11.2539,4.813-22.4688,9.8042-33.6836,14.9234c-11.1846,5.0596-19.0947,14.459-23.75,28.1689
		c-2.4268,1.6377-5.1885,4.9712-8.1865,10.1104c0.039,5.7598-0.3946,14.0547-1.4893,24.914l-4.0937,11.9444
		c-1.5386,5.208-1.9532,9.1826-1.2627,11.8755c0.9472,3.6001,3.9062,5.2475,8.9067,4.9018
		c4.9419-0.3252,8.0879,1.9824,9.3804,6.9541c0.5918,2.2583,0.6113,6.105,0.1084,11.4903c0.0293,1.9726,0.2461,3.8271,0.7002,5.6318
		c0.8281,3.1465,2.6035,4.3696,5.3261,3.6689c1.3614-0.3642,2.4659-1.124,3.3438-2.3471c0.917-1.1441,1.8242-1.8838,2.6924-2.1109
		c1.3711-0.3447,3.7285,2.19,7.0425,7.5459l7.7231,10.2574c2.6528,2.7026,4.3887,3.9453,5.3159,3.7085
		c2.6929-0.71,4.3198-2.8208,4.853-6.3614c0.7593-2.5547,2.4854-4.2119,5.1875-4.9121c-0.414,0.1084,1.2134,0.8779,4.9317,2.2783
		l0.1973,0.7198l0.6904-0.1773l0.6611-0.1772l-0.1777-0.7202c1.9233-1.9136,3.7973-4.833,5.6914-8.6597l0.6509-3.0977l0.5029-0.8281
		c1.3315-0.3452,2.6333,0.7891,3.7578,3.3828c0.8286,3.127,1.1441,5.2276,0.9077,6.2041
		c-2.1108,3.0283-5.2871,7.4268-9.5381,13.3745c-1.4497,3.7183-4.1328,8.9956-8.1767,15.8208
		c-1.8838,1.9629-4.2114,3.2549-6.9043,3.9551c-8.1465,2.1104-13.335-1.3115-15.6826-10.3564
		c-1.2818-4.9414-3.6592-8.4229-7.0816-10.4453c-14.9228-12.9502-41.7807-14.3907-80.5825-4.3003
		c-5.4053,1.4106-13.3057,3.9653-23.6523,7.6147c-10.356,3.6592-18.2862,6.1841-23.6914,7.585
		c-6.3125,1.6567-15.4751,2.9585-27.4986,3.935c-12.043,0.9766-20.9692,2.1997-26.8476,3.7085
		c-6.3521,1.6573-8.8374,4.961-7.5357,9.9229c0.9375,3.6191,5.543,6.4009,13.7295,8.3437c8.2266,1.9629,14.519,2.624,18.8985,1.9434
		c4.4287-0.7002,6.5195-0.4736,6.2925,0.5224l0.5425,2.0518c0.3452,1.3516-0.7197,3.6885-3.2451,6.9434
		c-2.4756,3.3437-3.3535,6.5693-2.5249,9.7451c1.1738,4.458,3.5708,6.2632,7.1704,5.3262c0.8975-0.2364,1.7954-1.0455,2.6143-2.4854
		c0.8086-1.4204,1.6962-2.2192,2.5937-2.4561l0.8779,3.3536c0.4737,1.8046,1.4497,3.7382,2.9493,5.7304
		c1.499,2.042,5.375,2.2295,11.7075,0.5821l0.7002,2.7324c0.582,2.2187,1.2329,3.7578,1.894,4.5469
		c2.7617,3.1264,5.9077,4.2212,9.5376,3.2841c0.9072-0.2368,1.8838-0.7099,2.8701-1.4599c0.9961-0.71,1.9624-1.2622,2.8701-1.499
		l0.1973,0.7197l1.2134,4.7148c1.6372,4.3892,4.6948,6.0166,9.2021,4.8428c1.815-0.4736,2.7813-1.46,2.8409-2.8897l0.7002,2.6631
		l0.1777,0.6807c1.1738,4.5073,3.7969,6.2529,7.8706,5.1875c2.2983-0.6016,3.6099-1.9033,3.9946-3.9351
		c0.4541-2.0024,0.9273-3.1167,1.3614-3.2251c0.8876-0.227,2.643,2.6534,5.1679,8.7784c2.5742,6.0654,6.7666,8.3339,12.625,6.8056
		c2.249-0.5918,3.7974-1.9336,4.6953-4.1328c0.8877-2.1211,1.7754-3.3144,2.6924-3.5605l1.9136,7.4463
		c1.5288,5.8486,5.4546,7.9502,11.7866,6.3027c3.6099-0.9463,6.2139-3.3926,7.8018-7.417c1.6074-4.0244,2.8408-6.1646,3.748-6.3916
		c0.917-0.2363,2.2783,3.1367,4.0928,10.1299c1.8252,6.9931,5.8984,9.6758,12.1816,8.0185
		c3.6592-0.9463,6.3223-3.1757,7.9991-6.7861c1.7558-3.5898,2.8408-5.4248,3.2548-5.5332c0.9468-0.2461,2.1895,2.7812,3.8267,9.084
		c0.2368,0.9472,1.2427,2.4863,3.0181,4.6953c1.7954,2.1309,3.0576,2.9394,3.8271,2.2187c1.6172,0.5235,3.0576,0.6319,4.4092,0.2764
		c6.332-1.6474,11.293-7.5849,14.8437-17.9014c3.5904-10.3466,6.7071-15.8701,9.4297-16.58c2.377-0.1089,3.9053,0.187,4.5957,0.9961
		c5.1685,8.7685,8.9366,17.6552,11.2539,26.6992l0.2071,0.6806c0.9277,3.6104,0.6709,7.2793-0.7393,10.9981
		c-3.5903,2.8506-8.2754,7.1904-13.9565,13.0195c-3.689,6.253-7.5357,13.0684-11.6978,20.3867
		c-4.123,7.3194-9.0937,11.7471-14.9531,13.2764c-4.9116,3.2149-12.4273,8.7578-22.3892,16.669
		c-4.9116,7.081-12.9209,17.083-23.9677,30.083c-6.4898,6.5293-13.0391,12.792-19.6675,18.8476
		c-5.2666,5.711-11.0469,13.9961-17.3789,24.7578c-1.5581,1.4004-3.9156,3.4317-7.042,6.1739
		c-0.3555,0.5625-3.7876,3.1367-10.2974,7.7031c-5.0303,2.7812-6.8257,7.1015-5.2866,13c1.6372,6.3222,7.042,11.3623,16.2349,15.248
		c7.8315,2.3086,15.3667,4.4287,22.6264,6.3819c1.5977,0.542,7.21,3.6591,16.8858,9.3105c5.9082,4.2412,12.25,5.5137,19.0161,3.7588
		c8.5713-2.2393,12.1518-6.0859,10.7607-11.4912c-0.7002-2.6924-2.5151-4.0244-5.4145-4.0049
		c-2.8604,0.0098-5.5337-0.1084-8.0489-0.4336c-2.5048-0.3154-6.707-2.2285-12.664-5.7109
		c-5.9678-3.5215-9.2324-6.1836-9.6856-7.9893c-1.5195-5.8291,5.2471-15.0908,20.2588-27.666
		c13.4531-11.1953,23.5337-17.9121,30.1817-20.1211c-4.0738,1.0557,1.5781-2.1103,17.0434-9.498
		c11.5298-5.4444,24.3721-9.9717,38.3091-13.5918c20.3179-5.2871,32.144-12.6651,35.4482-22.2217l13.3848,18.1973
		c4.2305,5.1484,16.0967,13.6308,35.4971,25.4082c-0.7197,2.623-2.0313,7.0322-3.7774,13.2949
		c-3.8857,16.4424-5.9179,31.6318-6.1445,45.6172c0.1475,15.4463-3.6494,26.7402-11.3926,34.0683
		c-6.4795,6.4805-9.1426,12.0234-7.9795,16.541c0.9571,3.6289,2.8018,6.0254,5.5137,7.209
		c3.8369-0.0488,9.7744,0.6221,17.8037,1.875c3.0576,0.6602,10.4151,4.793,22.0244,12.3379
		c9.0742,5.3467,16.3233,7.2988,21.7383,5.8887c9.0352-2.3574,12.7334-6.6572,11.0859-13.0098
		c0.2374,0.9473-5.1972-1.4101-16.2832-6.9531c-11.0664-5.4844-17.8427-13.0488-20.3085-22.5176
		c-2.1212-8.0976,3.1367-23.1982,15.6826-45.292c17.4775-30.9902,24.1748-54.1885,20.1699-69.5068
		c0.7002,2.6641-3.0381-5.2373-11.2344-23.8096c-0.8087-3.126-6.9433-13.2656-18.3848-30.29
		c-11.372-16.9942-18.4833-30.9414-21.3144-41.751c-2.21-8.542-0.8389-21.6992,4.2119-39.3643
		c0.9961-1.7255,2.0908-4.9116,3.2842-9.5376c7.2197-1.8837,17.4775-6.9536,30.7236-15.2387
		c13.2666-8.2656,19.6582-12.3487,19.1641-12.2403c3.1758-0.8085,8.3945-1.1543,15.6533-1.1738
		c7.2295,0.0889,12.625-0.3647,16.2354-1.292C654.8599,447.2583,659.771,442.149,657.8882,434.8902z"/>
	<path fill="#EC7175" d="M774.5601,283.9234c-30.754-41.3076-82.8124-19.3321-82.8124-19.3321s-28.1592-49.0009-77.6231-34.7382
		c-27.5781,7.9594-50.9141,35.4975-46.2881,75.8779c1.085,9.6064,3.7676,19.9629,8.374,30.9404
		c10.7012,25.6348,31.7793,54.751,67.3457,86.2149c43.7735-5.5625,75.9766-17.3101,98.6622-32.0752
		c9.6855-6.3321,17.5957-13.2168,23.9677-20.3975C792.1265,341.0806,791.4849,306.6285,774.5601,283.9234z"/>
</g>
</svg>
