<?xml version="1.0" encoding="utf-8"?>
<!-- Generator: Adobe Illustrator 17.1.0, SVG Export Plug-In . SVG Version: 6.00 Build 0)  -->
<!DOCTYPE svg PUBLIC "-//W3C//DTD SVG 1.1//EN" "http://www.w3.org/Graphics/SVG/1.1/DTD/svg11.dtd">
<svg version="1.1" id="love-stamp-23" xmlns="http://www.w3.org/2000/svg" xmlns:xlink="http://www.w3.org/1999/xlink" x="0px"
	 y="0px" viewBox="0 0 1009.9956 1009.9956" enable-background="new 0 0 1009.9956 1009.9956" xml:space="preserve">
<g id="love-stamp-23-stamp">
	<path fill="#FEFEFB" d="M986.7769,134.5347c0-12.8223,10.08-23.2178,23.2188-23.2178V90.4068
		c-13.1387,0-23.2188-10.396-23.2188-23.2183c0-12.8222,10.08-23.2378,23.2188-23.2378V22.8238c0,0-0.3555,0-0.4346,0
		c-6.1152,0-12.1904-2.3867-16.5107-6.7071C988.7895,11.836,986.2446,5.8394,986.1851,0h-20.6338
		c0,12.4078-10.3955,23.2378-23.2178,23.2378c-12.8027,0-23.1983-10.83-23.1983-23.2378h-20.8906
		c0,12.4078-10.3956,23.2378-23.2178,23.2378c-12.8223,0-23.1982-10.83-23.1982-23.2378H830.938
		c0,12.4078-10.3955,23.2378-23.2178,23.2378c-12.8223,0-23.1982-10.83-23.1982-23.2378h-20.8907
		c0,12.4078-10.3955,23.2378-23.2177,23.2378c-12.8223,0-23.2188-10.83-23.2188-23.2378h-20.8896
		c0,12.4078-10.376,23.2378-23.1983,23.2378c-12.8222,0-23.2187-10.83-23.2187-23.2378h-20.8897
		c0,12.4078-10.3759,23.2378-23.1982,23.2378S582.5815,12.4078,582.5815,0h-20.8896c0,12.4078-10.3965,23.2378-23.1983,23.2378
		c-12.8222,0-23.2187-10.83-23.2187-23.2378h-20.8901c0,12.4078-10.396,23.2378-23.2183,23.2378
		c-12.8022,0-23.1982-10.83-23.1982-23.2378h-20.8902c0,12.4078-10.396,23.2378-23.2182,23.2378
		c-12.8023,0-23.1983-10.83-23.1983-23.2378h-20.8901c0,12.4078-10.396,23.2378-23.2183,23.2378
		c-12.8222,0-23.1982-10.83-23.1982-23.2378h-20.8902c0,12.4078-10.396,23.2378-23.2182,23.2378
		c-12.8223,0-23.2178-10.83-23.2178-23.2378h-20.8711c0,12.4078-10.3955,23.2378-23.2178,23.2378
		c-12.8222,0-23.2177-10.83-23.2177-23.2378h-20.8907c0,12.4078-10.3759,23.2378-23.1982,23.2378S111.4155,12.4078,111.4155,0
		H90.5249c0,12.4078-10.3955,23.2378-23.1982,23.2378c-12.8223,0-23.2178-10.83-23.2178-23.2378h-20.792
		c-0.0591,5.8394-2.5249,11.836-6.7861,16.1167c-4.3199,4.3204-10.3169,6.7461-16.4322,6.7461C0.0791,22.8628,0,22.8238,0,22.8238
		v20.5547c12.7632,0,23.1987,10.396,23.1987,23.2182c0,12.8418-10.4355,23.2378-23.1987,23.2378v20.9102
		c12.7632,0,23.1987,10.3955,23.1987,23.2177c0,12.8223-10.4355,23.2183-23.1987,23.2183v20.9097
		c12.7632,0,23.1987,10.3965,23.1987,23.2383c0,12.8222-10.4355,23.2177-23.1987,23.2177v20.9102
		c12.7632,0,23.1987,10.3955,23.1987,23.2178c0,12.8222-10.4355,23.2382-23.1987,23.2382v20.8902
		c12.7632,0,23.1987,10.396,23.1987,23.2378c0,12.8222-10.4355,23.2177-23.1987,23.2177v20.9102
		c12.7632,0,23.1987,10.396,23.1987,23.2183c0,12.8418-10.4355,23.2378-23.1987,23.2378v20.8901
		c12.7632,0,23.1987,10.4155,23.1987,23.2378c0,12.8222-10.4355,23.2178-23.1987,23.2178v20.9101
		c12.7632,0,23.1987,10.3965,23.1987,23.2383c0,12.8223-10.4355,23.2178-23.1987,23.2178v20.9101
		c12.7632,0,23.1987,10.3955,23.1987,23.2178c0,12.8223-10.4355,23.2383-23.1987,23.2383v20.8906
		c12.7632,0,23.1987,10.3955,23.1987,23.2373c0,12.8223-10.4355,23.2178-23.1987,23.2178v20.9101
		c12.7632,0,23.1987,10.3965,23.1987,23.2178c0,12.8428-10.4355,23.2383-23.1987,23.2383v20.8896
		c12.7632,0,23.1987,10.4161,23.1987,23.2383c0,12.8223-10.4355,23.2178-23.1987,23.2178v20.9102
		c12.7632,0,23.1987,10.3955,23.1987,23.2382c0,12.8213-10.4355,23.2178-23.1987,23.2178v20.9102
		c12.7632,0,23.1987,10.3955,23.1987,23.2177c0,12.8223-10.4355,23.2178-23.1987,23.2178v21.0088c0,0,0.0791,0,0.0986,0
		c6.1153,0,12.1123,2.6631,16.4322,7.0029c4.3007,4.3008,6.7666,10.6719,6.7861,16.5117h20.792
		c0-13.1386,10.3955-23.2188,23.2178-23.2188c12.8027,0,23.1982,10.0801,23.1982,23.2188h20.8906
		c0-13.1386,10.3955-23.2188,23.2178-23.2188s23.1982,10.0801,23.1982,23.2188h20.8907c0-13.1386,10.3955-23.2188,23.2177-23.2188
		c12.8223,0,23.2178,10.0801,23.2178,23.2188h20.8711c0-13.1386,10.3955-23.2188,23.2178-23.2188
		c12.8222,0,23.2182,10.0801,23.2182,23.2188h20.8902c0-13.1386,10.376-23.2188,23.1982-23.2188
		c12.8223,0,23.2183,10.0801,23.2183,23.2188h20.8901c0-13.1386,10.396-23.2188,23.1983-23.2188
		c12.8222,0,23.2182,10.0801,23.2182,23.2188h20.8902c0-13.1386,10.396-23.2188,23.1982-23.2188
		c12.8223,0,23.2183,10.0801,23.2183,23.2188h20.8901c0-13.1386,10.3965-23.2188,23.2187-23.2188
		c12.8018,0,23.1983,10.0801,23.1983,23.2188h20.8896c0-13.1386,10.3965-23.2188,23.2188-23.2188s23.1982,10.0801,23.1982,23.2188
		h20.8897c0-13.1386,10.3965-23.2188,23.2187-23.2188c12.8223,0,23.1983,10.0801,23.1983,23.2188h20.8896
		c0-13.1386,10.3965-23.2188,23.2188-23.2188c12.8222,0,23.2177,10.0801,23.2177,23.2188h20.8907
		c0-13.1386,10.3759-23.2188,23.1982-23.2188c12.8223,0,23.2178,10.0801,23.2178,23.2188h20.8906
		c0-13.1386,10.376-23.2188,23.1982-23.2188c12.8222,0,23.2178,10.0801,23.2178,23.2188h20.8906
		c0-13.1386,10.3956-23.2188,23.1983-23.2188c12.8223,0,23.2178,10.0801,23.2178,23.2188h20.6338
		c0.0195-5.8398,2.4863-12.2109,6.7861-16.5117c4.3203-4.3398,10.4746-6.9043,16.5898-6.9043c0.0791,0,0.4346-0.0986,0.4346-0.0781
		V966.064c-13.1387,0-23.2188-10.3955-23.2188-23.2178c0-12.8418,10.08-23.2373,23.2188-23.2373v-20.9101
		c-13.1387,0-23.2188-10.3965-23.2188-23.2188c0-12.8222,10.08-23.2373,23.2188-23.2373v-20.8906
		c-13.1387,0-23.2188-10.3954-23.2188-23.2372c0-12.8223,10.08-23.2188,23.2188-23.2188v-20.9102
		c-13.1387,0-23.2188-10.3955-23.2188-23.2178c0-12.8213,10.08-23.2373,23.2188-23.2373v-20.8906
		c-13.1387,0-23.2188-10.416-23.2188-23.2373c0-12.8223,10.08-23.2188,23.2188-23.2188v-20.9092
		c-13.1387,0-23.2188-10.3964-23.2188-23.2187c0-12.8419,10.08-23.2373,23.2188-23.2373v-20.9102
		c-13.1387,0-23.2188-10.3955-23.2188-23.2177c0-12.8223,10.08-23.2188,23.2188-23.2188v-20.9101
		c-13.1387,0-23.2188-10.3956-23.2188-23.2374c0-12.8222,10.08-23.2182,23.2188-23.2182v-20.9097
		c-13.1387,0-23.2188-10.3965-23.2188-23.2182c0-12.8423,10.08-23.2378,23.2188-23.2378v-20.8907
		c-13.1387,0-23.2188-10.415-23.2188-23.2373c0-12.8222,10.08-23.2182,23.2188-23.2182v-20.9102
		c-13.1387,0-23.2188-10.396-23.2188-23.2182c0-12.8418,10.08-23.2374,23.2188-23.2374v-20.9101
		c-13.1387,0-23.2188-10.396-23.2188-23.2183c0-12.8217,10.08-23.2182,23.2188-23.2182v-20.9097
		C996.8569,157.7725,986.7769,147.3765,986.7769,134.5347z"/>
	<g>
		<rect x="81.6675" y="81.2339" fill="#9F5F5E" width="846.3447" height="846.9756"/>
		<path opacity="0.05" d="M920.1411,89.1246v831.1943H89.5386V89.1246H920.1411 M935.9028,73.3628H73.7768v862.7168h862.126V73.3628
			L935.9028,73.3628z"/>
	</g>
</g>
<g id="love-stamp-23-married-couple">
	<g>
		<polygon fill="#FEFEFB" points="652.0776,594.8716 720.8843,449.7437 545.5649,449.7437 545.5649,453.1665 499.8984,775.8814 
			499.4253,775.8814 499.4253,782.7466 726.8022,782.7466 		"/>
		<path fill="#FEFEFB" d="M425.4702,267.5503c-35.0342,0-63.4302,28.4063-63.4302,63.46c0,35.0244,28.396,63.4404,63.4302,63.4404
			c35.0542,0,63.46-28.416,63.46-63.4404C488.9302,295.9566,460.5244,267.5503,425.4702,267.5503z"/>
		<path fill="#FEFEFB" d="M557.105,370.3247c0,33.003,26.7392,59.7715,59.7617,59.7715c33.0117,0,59.7715-26.7685,59.7715-59.7715
			c0-33.0214-26.7598-59.7807-59.7715-59.7807C583.8442,310.544,557.105,337.3033,557.105,370.3247z"/>
		<path fill="#FEFEFB" d="M524.813,380.0308c1.9033-0.1186,3.3535-1.7559,3.206-3.6494
			c-0.0107-0.3945-2.289-38.5459,22.2012-64.7822c15.4463-16.501,38.2109-24.875,67.6914-24.875
			c88.9072,0,93.918,90.4062,94.1055,94.2431c0.0693,1.8448,1.6074,3.2847,3.4228,3.2847c0.0586,0,0.1084,0,0.1573,0
			c1.8945-0.0786,3.3632-1.6768,3.2949-3.5903c-0.0596-1.0059-5.4551-100.812-100.9805-100.812
			c-31.4434,0-55.914,9.104-72.7012,27.0649c-26.5224,28.376-24.165,68.2432-24.0468,69.9399
			C521.2915,378.7486,523.0181,380.188,524.813,380.0308z"/>
		<rect x="417.6294" y="445.8184" fill="#FEFEFB" width="15.7217" height="15.7417"/>
		<rect x="417.6294" y="476.7691" fill="#FEFEFB" width="15.7217" height="15.7319"/>
		<rect x="417.6294" y="507.7007" fill="#FEFEFB" width="15.7217" height="15.7412"/>
		<polyline fill="#F9F6EC" points="352.6011,510.8462 324.2935,486.731 355.7373,465.7417 375.6811,482.5191 352.6011,510.8462 		
			"/>
	</g>
	<g>
		<path fill="#91D0D2" d="M610.5835,612.566c0,0-12.5752-71.3106-39.8379-138.4405c-27.291-67.0996-69.2295-62.9072-69.2295-62.9072
			s-11.8359,0-38.7031,0c5.7695,6.2334,9.3301,13.9072,9.3301,22.3301v108.456c0,20.4561-20.1797,37.0069-45.0747,37.0069
			c-24.9048,0-45.0948-16.5508-45.0948-37.0069v-108.456c0-8.4229,3.5708-16.0967,9.3501-22.3301h-21.9453
			c-94.3813,0-85.998,54.5234-85.998,54.5234v247.5079c0,77.5849,50.352,39.8476,50.352,39.8476l14.6865,27.2617h151.0064
			l46.1396-123.7441C614.7651,656.6148,610.5835,612.566,610.5835,612.566z M352.6011,510.8462l-28.3076-24.1152l31.4438-20.9893
			l19.9438,16.7774L352.6011,510.8462z M567.5796,596.8443c-10.4746,2.0908-56.6348,0-56.6348,0l1.0654-45.0947h51.3682
			c0,0,22.0342,10.4941,22.0342,23.0605C585.4126,587.3951,578.064,594.7339,567.5796,596.8443z"/>
		<path fill="#EC7175" d="M512.937,266.899c6.0274,2.4072,9.1143,3.2451,12.3301,4.6357c7.7031,3.334,10.4746,5.5928,10.4746,5.5928
			s7.4658-12.5957,9.2412-14.8643c3.7188-4.7241,5.3857-7.2788,5.3857-7.2788c2.2979-3.2348,3.1563-6.0166,3.4815-8.4824
			c0.8779-7.0425-2.1797-12.25-5.4248-15.3276c-3.0576-2.919-6.3418-3.6094-6.3418-3.6094
			c-4.9024-0.9668-8.0879,0.3945-10.5342,2.1499c-5.0791,3.6294-6.0459,10.2378-6.0459,10.2378
			c-3.6592-3.7676-6.2139-4.8721-8.877-5.3653c-2.6436-0.5029-6.0362-0.0791-8.6006,1.3614
			c-4.6856,2.6035-6.461,7.5747-6.461,7.5747c-1.4492,5.2275-0.7588,9.143,1.0362,13.7593
			C505.106,263.7037,512.937,266.899,512.937,266.899z"/>
	</g>
</g>
</svg>
