<?xml version="1.0" encoding="utf-8"?>
<!-- Generator: Adobe Illustrator 17.1.0, SVG Export Plug-In . SVG Version: 6.00 Build 0)  -->
<!DOCTYPE svg PUBLIC "-//W3C//DTD SVG 1.1//EN" "http://www.w3.org/Graphics/SVG/1.1/DTD/svg11.dtd">
<svg version="1.1" id="love-stamp-26" xmlns="http://www.w3.org/2000/svg" xmlns:xlink="http://www.w3.org/1999/xlink" x="0px"
	 y="0px" viewBox="0 0 1009.9956 1009.9956" enable-background="new 0 0 1009.9956 1009.9956" xml:space="preserve">
<g id="love-stamp-26-stamp">
	<path fill="#FEFEFB" d="M986.7769,134.5347c0-12.8223,10.08-23.2178,23.2188-23.2178V90.4068
		c-13.1387,0-23.2188-10.396-23.2188-23.2183c0-12.8222,10.08-23.2378,23.2188-23.2378V22.8238c0,0-0.3555,0-0.4346,0
		c-6.1152,0-12.1904-2.3867-16.5107-6.7071C988.7895,11.836,986.2446,5.8394,986.1851,0h-20.6338
		c0,12.4078-10.3955,23.2378-23.2178,23.2378c-12.8027,0-23.1983-10.83-23.1983-23.2378h-20.8906
		c0,12.4078-10.3956,23.2378-23.2178,23.2378c-12.8223,0-23.1982-10.83-23.1982-23.2378H830.938
		c0,12.4078-10.3955,23.2378-23.2178,23.2378c-12.8223,0-23.1982-10.83-23.1982-23.2378h-20.8907
		c0,12.4078-10.3955,23.2378-23.2177,23.2378c-12.8223,0-23.2188-10.83-23.2188-23.2378h-20.8896
		c0,12.4078-10.376,23.2378-23.1983,23.2378c-12.8125,0-23.209-10.83-23.209-23.2378h-20.8896
		c0,12.4078-10.3857,23.2378-23.208,23.2378S582.5913,12.4078,582.5913,0h-20.8896c0,12.4078-10.3956,23.2378-23.2081,23.2378
		c-12.8222,0-23.2187-10.83-23.2187-23.2378H494.395c0,12.4078-10.3965,23.2378-23.2182,23.2378
		c-12.8125,0-23.1988-10.83-23.1988-23.2378h-20.8896c0,12.4078-10.3965,23.2378-23.2188,23.2378
		c-12.812,0-23.208-10.83-23.208-23.2378h-20.8804c0,12.4078-10.396,23.2378-23.2182,23.2378
		c-12.8223,0-23.208-10.83-23.208-23.2378h-20.8902c0,12.4078-10.3862,23.2378-23.2085,23.2378
		c-12.8222,0-23.2177-10.83-23.2177-23.2378h-20.8809c0,12.4078-10.3955,23.2378-23.208,23.2378
		c-12.8223,0-23.2178-10.83-23.2178-23.2378h-20.8906c0,12.4078-10.3857,23.2378-23.1982,23.2378
		c-12.8223,0-23.2178-10.83-23.2178-23.2378H90.5347c0,12.4078-10.3955,23.2378-23.208,23.2378S44.1186,12.4078,44.1186,0H23.3267
		c-0.0591,5.8394-2.5249,11.836-6.7862,16.1167c-4.3198,4.3204-10.3164,6.7461-16.4316,6.7461C0.0791,22.8628,0,22.8238,0,22.8238
		v20.5547c12.7729,0,23.2085,10.396,23.2085,23.2182c0,12.8418-10.4356,23.2378-23.2085,23.2378v20.9102
		c12.7729,0,23.2085,10.3955,23.2085,23.2177c0,12.8223-10.4356,23.2183-23.2085,23.2183v20.9097
		c12.7729,0,23.2085,10.3965,23.2085,23.2383c0,12.8222-10.4356,23.2177-23.2085,23.2177v20.9102
		c12.7729,0,23.2085,10.3955,23.2085,23.2178c0,12.8222-10.4356,23.2382-23.2085,23.2382v20.8902
		c12.7729,0,23.2085,10.396,23.2085,23.2378c0,12.8222-10.4356,23.2177-23.2085,23.2177v20.9102
		c12.7729,0,23.2085,10.396,23.2085,23.2183c0,12.8418-10.4356,23.2378-23.2085,23.2378v20.8901
		c12.7729,0,23.2085,10.4155,23.2085,23.2378c0,12.8222-10.4356,23.2178-23.2085,23.2178v20.9101
		c12.7729,0,23.2085,10.3965,23.2085,23.2383c0,12.8223-10.4356,23.2178-23.2085,23.2178v20.8906
		c12.7729,0,23.2085,10.3954,23.2085,23.2372c0,12.8223-10.4356,23.2188-23.2085,23.2188v20.9102
		c12.7729,0,23.2085,10.3955,23.2085,23.2178c0,12.8213-10.4356,23.2373-23.2085,23.2373v20.8906
		c12.7729,0,23.2085,10.416,23.2085,23.2373c0,12.8223-10.4356,23.2178-23.2085,23.2178v20.9102
		c12.7729,0,23.2085,10.3965,23.2085,23.2188c0,12.8418-10.4356,23.2372-23.2085,23.2372v20.9102
		c12.7729,0,23.2085,10.3955,23.2085,23.2177c0,12.8223-10.4356,23.2188-23.2085,23.2188v20.9101
		c12.7729,0,23.2085,10.3955,23.2085,23.2373c0,12.8223-10.4356,23.2178-23.2085,23.2178v21.0088c0,0,0.0791,0,0.1089,0
		c6.1152,0,12.102,2.6631,16.4219,6.9834c4.3007,4.3008,6.7763,10.6914,6.7959,16.5312h20.7919
		c0-13.1386,10.3956-23.2382,23.2081-23.2382s23.208,10.0996,23.208,23.2382h20.8906c0-13.1386,10.3955-23.2382,23.2178-23.2382
		c12.8125,0,23.1982,10.0996,23.1982,23.2382h20.8906c0-13.1386,10.3955-23.2382,23.2178-23.2382
		c12.8125,0,23.208,10.0996,23.208,23.2382h20.8809c0-13.1386,10.3955-23.2382,23.2177-23.2382
		c12.8223,0,23.2085,10.0996,23.2085,23.2382h20.8902c0-13.1386,10.3857-23.2382,23.208-23.2382
		c12.8222,0,23.2182,10.0996,23.2182,23.2382h20.8804c0-13.1386,10.396-23.2382,23.208-23.2382
		c12.8223,0,23.2188,10.0996,23.2188,23.2382h20.8896c0-13.1386,10.3863-23.2382,23.1988-23.2382
		c12.8217,0,23.2182,10.0996,23.2182,23.2382h20.8799c0-13.1386,10.3965-23.2382,23.2187-23.2382
		c12.8125,0,23.2081,10.0996,23.2081,23.2382h20.8896c0-13.1386,10.3867-23.2382,23.209-23.2382s23.208,10.0996,23.208,23.2382
		h20.8896c0-13.1386,10.3965-23.2382,23.209-23.2382c12.8223,0,23.1983,10.0996,23.1983,23.2382h20.8896
		c0-13.1386,10.3965-23.2382,23.2188-23.2382c12.8222,0,23.2177,10.0996,23.2177,23.2382h20.8907
		c0-13.1386,10.3759-23.2382,23.1982-23.2382c12.8223,0,23.2178,10.0996,23.2178,23.2382h20.8906
		c0-13.1386,10.376-23.2382,23.1982-23.2382c12.8222,0,23.2178,10.0996,23.2178,23.2382h20.8906
		c0-13.1386,10.3956-23.2382,23.1983-23.2382c12.8223,0,23.2178,10.0996,23.2178,23.2382h20.6338
		c0.0195-5.8398,2.4863-12.2304,6.7861-16.5312c4.3203-4.3203,10.4746-6.8848,16.5898-6.8848c0.0791,0,0.4346-0.0986,0.4346-0.0986
		v-20.4365c-13.1387,0-23.2188-10.3955-23.2188-23.2178c0-12.8418,10.08-23.2178,23.2188-23.2178v-20.9101
		c-13.1387,0-23.2188-10.3965-23.2188-23.2383c0-12.8223,10.08-23.2178,23.2188-23.2178v-20.9101
		c-13.1387,0-23.2188-10.3955-23.2188-23.2178c0-12.8418,10.08-23.2383,23.2188-23.2383v-20.8906
		c-13.1387,0-23.2188-10.415-23.2188-23.2372c0-12.8223,10.08-23.2178,23.2188-23.2178v-20.9102
		c-13.1387,0-23.2188-10.3964-23.2188-23.2177c0-12.8428,10.08-23.2383,23.2188-23.2383v-20.8896
		c-13.1387,0-23.2188-10.416-23.2188-23.2382c0-12.8223,10.08-23.2178,23.2188-23.2178v-20.9102
		c-13.1387,0-23.2188-10.3955-23.2188-23.2177c0-12.8223,10.08-23.2188,23.2188-23.2188v-20.9101
		c-13.1387,0-23.2188-10.3956-23.2188-23.2374c0-12.8222,10.08-23.2182,23.2188-23.2182v-20.9097
		c-13.1387,0-23.2188-10.3965-23.2188-23.2182c0-12.8423,10.08-23.2378,23.2188-23.2378v-20.8907
		c-13.1387,0-23.2188-10.415-23.2188-23.2373c0-12.8222,10.08-23.2182,23.2188-23.2182v-20.9102
		c-13.1387,0-23.2188-10.396-23.2188-23.2182c0-12.8418,10.08-23.2374,23.2188-23.2374v-20.9101
		c-13.1387,0-23.2188-10.396-23.2188-23.2183c0-12.8217,10.08-23.2182,23.2188-23.2182v-20.9097
		C996.8569,157.7725,986.7769,147.3765,986.7769,134.5347z"/>
	<g>
		<rect x="81.6772" y="81.2339" fill="#91D0D2" width="846.335" height="846.9551"/>
		<path opacity="0.05" d="M920.1411,89.1246v831.1943H89.5483V89.1246H920.1411 M935.9028,73.3628H73.7871v862.7168h862.1157
			V73.3628L935.9028,73.3628z"/>
	</g>
</g>
<g id="love-stamp-26-hand-heart">
	<path fill="#FEFEFB" d="M737.3159,474.4615c-9.7637,6.5092-41.2578,27.518-67.2471,44.7588
		c-16.6396,11.0468-31.0791,20.5546-36.0205,23.7509c-11.0859,7.1016-27.9726,8.6397-40.1338,7.2588
		c-4.3496-0.4922-8.1074-1.3213-10.79-2.4258c-3.6396-1.5195-11.0957-4.7939-19.4307-8.4629
		c-4.705-2.1104-9.6953-4.3203-14.4394-6.4111c-10.2783-4.5566-19.3418-8.542-21.7393-9.4287
		c-9.9218-3.6699-15.6816-24.8652-6.9531-35.4687c4.1426-5.0103,20.9492-26.6407,38.5947-49.8291
		c3.2549-4.2803,6.5391-8.5909,9.7647-12.8614c16.4814-21.7978,31.8584-42.5698,36.4648-50.0659
		C615.811,358.3316,602.5845,344,582.02,355.6289c-10.8799,6.1348-40.6562,26.7491-66.4092,44.858
		c-5.1582,3.6494-10.1494,7.1806-14.7851,10.455c-3.2256,2.2784-6.2139,4.399-9.0152,6.4014
		c-11.3032,8.0581-19.0361,13.5913-19.0361,13.5913s-3.5703,2.2984-9.4097,4.5274c-4.7734,1.7753-11.0664,3.4521-18.1777,3.8168
		c-1.6865,0.0889-3.4028,0.168-5.188,0.0889c-10.3462-0.4536-23.001-1.4004-34.6694-2.3076
		c-1.874-0.1387-3.669-0.2764-5.4736-0.4146c-5.9083-0.434-11.3331-0.8383-15.9297-1.1245
		c-3.2349-0.2168-6.1543-0.3945-8.3438-0.4638c-28.3867-0.9366-52.2558,7.7627-69.9897,25.1416
		c-3.6494,3.5508-6.9732,7.5356-10.0806,11.8066c-1.3311,1.854-2.7515,3.5801-3.9648,5.5527
		c-6.4307,10.2481-37.875,87.6055-64.2984,154.3399v27.8144h122.0474c6.3227-28.5439,11.9844-54.1494,12.4971-56.4179
		c1.144-5.2471,17.4775-11.1651,17.4775-11.1651s173.4551,39.71,193.418,44.1084c19.9531,4.419,33.3671-2.959,47.7089-15.8203
		c8.5508-7.6543,119.5323-114.5713,132.7588-127.6699C766.3931,479.669,753.354,463.7203,737.3159,474.4615z"/>
	<g>
		<path fill="#EC7175" d="M761.0669,360.7183c-34.9854-24.7373-70.5518,6.0957-70.5518,6.0957s-34.9648-31.5234-70.4033-7.4766
			c-19.7861,13.4141-31.1289,41.2188-17.0732,72.002c3.3535,7.3574,8.1562,14.834,14.6269,22.3594
			c15.0811,17.5078,39.2852,35.123,75.5822,50.8452c33.1992-15.6826,55.6971-33.3179,69.8115-50.8452
			c6.0361-7.5254,10.5244-15.002,13.7099-22.3594C789.73,401.4336,780.3296,374.3003,761.0669,360.7183z"/>
	</g>
</g>
</svg>
