<?xml version="1.0" encoding="utf-8"?>
<!-- Generator: Adobe Illustrator 17.1.0, SVG Export Plug-In . SVG Version: 6.00 Build 0)  -->
<!DOCTYPE svg PUBLIC "-//W3C//DTD SVG 1.1//EN" "http://www.w3.org/Graphics/SVG/1.1/DTD/svg11.dtd">
<svg version="1.1" id="love-stamp-24" xmlns="http://www.w3.org/2000/svg" xmlns:xlink="http://www.w3.org/1999/xlink" x="0px"
	 y="0px" viewBox="0 0 1009.9956 1009.9956" enable-background="new 0 0 1009.9956 1009.9956" xml:space="preserve">
<g id="love-stamp-24-stamp">
	<path fill="#FEFEFB" d="M986.7769,134.5542c0-12.8418,10.08-23.2373,23.2188-23.2373V90.4263
		c-13.1387,0-23.2188-10.4155-23.2188-23.2378c0-12.8222,10.08-23.2182,23.2188-23.2182V22.8238c0,0-0.3555,0-0.4346,0
		c-6.1152,0-12.1904-2.3867-16.5107-6.7071C988.7895,11.836,986.2446,5.8394,986.1851,0h-20.6338
		c0,12.4078-10.3955,23.2378-23.2178,23.2378c-12.8027,0-23.1983-10.83-23.1983-23.2378h-20.8906
		c0,12.4078-10.3956,23.2378-23.2178,23.2378c-12.8223,0-23.1982-10.83-23.1982-23.2378H830.938
		c0,12.4078-10.3955,23.2378-23.2178,23.2378c-12.8223,0-23.1982-10.83-23.1982-23.2378h-20.8907
		c0,12.4078-10.3955,23.2378-23.2177,23.2378c-12.8223,0-23.2188-10.83-23.2188-23.2378h-20.8896
		c0,12.4078-10.376,23.2378-23.1983,23.2378c-12.8222,0-23.2187-10.83-23.2187-23.2378h-20.8897
		c0,12.4078-10.3759,23.2378-23.1982,23.2378S582.5815,12.4078,582.5815,0h-20.8896c0,12.4078-10.3965,23.2378-23.1983,23.2378
		c-12.8222,0-23.2187-10.83-23.2187-23.2378h-20.8901c0,12.4078-10.396,23.2378-23.2183,23.2378
		c-12.8022,0-23.1982-10.83-23.1982-23.2378h-20.8902c0,12.4078-10.396,23.2378-23.2182,23.2378
		c-12.8023,0-23.1983-10.83-23.1983-23.2378h-20.8901c0,12.4078-10.396,23.2378-23.2183,23.2378
		c-12.8222,0-23.1982-10.83-23.1982-23.2378h-20.8902c0,12.4078-10.396,23.2378-23.2182,23.2378
		c-12.8223,0-23.2178-10.83-23.2178-23.2378h-20.8711c0,12.4078-10.3955,23.2378-23.2178,23.2378
		c-12.8222,0-23.2177-10.83-23.2177-23.2378h-20.8907c0,12.4078-10.3759,23.2378-23.1982,23.2378S111.4155,12.4078,111.4155,0
		H90.5249c0,12.4078-10.3955,23.2378-23.1982,23.2378c-12.8223,0-23.2178-10.83-23.2178-23.2378h-20.792
		c-0.0591,5.8394-2.5249,11.836-6.7861,16.1167c-4.3199,4.3204-10.3169,6.7461-16.4322,6.7461C0.0791,22.8628,0,22.8238,0,22.8238
		v20.5547c12.7632,0,23.1987,10.396,23.1987,23.2382c0,12.8218-10.4355,23.2178-23.1987,23.2178v20.9102
		c12.7632,0,23.1987,10.3955,23.1987,23.2177c0,12.8223-10.4355,23.2383-23.1987,23.2383v20.8897
		c12.7632,0,23.1987,10.416,23.1987,23.2383c0,12.8222-10.4355,23.2177-23.1987,23.2177v20.9102
		c12.7632,0,23.1987,10.3955,23.1987,23.2178c0,12.8422-10.4355,23.2382-23.1987,23.2382v20.9102
		c12.7632,0,23.1987,10.3955,23.1987,23.2178c0,12.8222-10.4355,23.2177-23.1987,23.2177v20.9102
		c12.7632,0,23.1987,10.396,23.1987,23.2378c0,12.8223-10.4355,23.2183-23.1987,23.2183v20.9101
		c12.7632,0,23.1987,10.3955,23.1987,23.2178c0,12.8222-10.4355,23.2378-23.1987,23.2378v20.8901
		c12.7632,0,23.1987,10.3965,23.1987,23.2383c0,12.8223-10.4355,23.2178-23.1987,23.2178v20.9101
		c12.7632,0,23.1987,10.3955,23.1987,23.2178c0,12.8223-10.4355,23.2383-23.1987,23.2383v20.8906
		c12.7632,0,23.1987,10.3955,23.1987,23.2373c0,12.8223-10.4355,23.2178-23.1987,23.2178v20.9101
		c12.7632,0,23.1987,10.3965,23.1987,23.2178c0,12.8428-10.4355,23.2383-23.1987,23.2383v20.8896
		c12.7632,0,23.1987,10.4161,23.1987,23.2383c0,12.8223-10.4355,23.2178-23.1987,23.2178v20.9102
		c12.7632,0,23.1987,10.3955,23.1987,23.2382c0,12.8213-10.4355,23.2178-23.1987,23.2178v20.9102
		c12.7632,0,23.1987,10.3955,23.1987,23.2177c0,12.8223-10.4355,23.2178-23.1987,23.2178v21.0088c0,0,0.0791,0,0.0986,0
		c6.1153,0,12.1123,2.6631,16.4322,7.0029c4.3007,4.3008,6.7666,10.6719,6.7861,16.5117h20.792
		c0-13.1386,10.3955-23.2188,23.2178-23.2188c12.8027,0,23.1982,10.0801,23.1982,23.2188h20.8906
		c0-13.1386,10.3955-23.2188,23.2178-23.2188s23.1982,10.0801,23.1982,23.2188h20.8907c0-13.1386,10.3955-23.2188,23.2177-23.2188
		c12.8223,0,23.2178,10.0801,23.2178,23.2188h20.8711c0-13.1386,10.3955-23.2188,23.2178-23.2188
		c12.8222,0,23.2182,10.0801,23.2182,23.2188h20.8902c0-13.1386,10.376-23.2188,23.1982-23.2188
		c12.8223,0,23.2183,10.0801,23.2183,23.2188h20.8901c0-13.1386,10.396-23.2188,23.1983-23.2188
		c12.8222,0,23.2182,10.0801,23.2182,23.2188h20.8902c0-13.1386,10.396-23.2188,23.1982-23.2188
		c12.8223,0,23.2183,10.0801,23.2183,23.2188h20.8901c0-13.1386,10.3965-23.2188,23.2187-23.2188
		c12.8018,0,23.1983,10.0801,23.1983,23.2188h20.8896c0-13.1386,10.3965-23.2188,23.2188-23.2188s23.1982,10.0801,23.1982,23.2188
		h20.8897c0-13.1386,10.3965-23.2188,23.2187-23.2188c12.8223,0,23.1983,10.0801,23.1983,23.2188h20.8896
		c0-13.1386,10.3965-23.2188,23.2188-23.2188c12.8222,0,23.2177,10.0801,23.2177,23.2188h20.8907
		c0-13.1386,10.3759-23.2188,23.1982-23.2188c12.8223,0,23.2178,10.0801,23.2178,23.2188h20.8906
		c0-13.1386,10.376-23.2188,23.1982-23.2188c12.8222,0,23.2178,10.0801,23.2178,23.2188h20.8906
		c0-13.1386,10.3956-23.2188,23.1983-23.2188c12.8223,0,23.2178,10.0801,23.2178,23.2188h20.6338
		c0.0195-5.8398,2.4863-12.2109,6.7861-16.5117c4.3203-4.3398,10.4746-6.9043,16.5898-6.9043c0.0791,0,0.4346-0.0986,0.4346-0.0781
		V966.064c-13.1387,0-23.2188-10.3955-23.2188-23.2178c0-12.8418,10.08-23.2373,23.2188-23.2373v-20.9101
		c-13.1387,0-23.2188-10.3965-23.2188-23.2188c0-12.8222,10.08-23.2373,23.2188-23.2373v-20.8906
		c-13.1387,0-23.2188-10.3954-23.2188-23.2372c0-12.8223,10.08-23.2188,23.2188-23.2188v-20.9102
		c-13.1387,0-23.2188-10.3955-23.2188-23.2178c0-12.8213,10.08-23.2373,23.2188-23.2373v-20.8906
		c-13.1387,0-23.2188-10.416-23.2188-23.2373c0-12.8223,10.08-23.2188,23.2188-23.2188v-20.9092
		c-13.1387,0-23.2188-10.3964-23.2188-23.2187c0-12.8419,10.08-23.2373,23.2188-23.2373v-20.9102
		c-13.1387,0-23.2188-10.3955-23.2188-23.2177c0-12.8223,10.08-23.2188,23.2188-23.2188v-20.9101
		c-13.1387,0-23.2188-10.3956-23.2188-23.2178c0-12.8418,10.08-23.2378,23.2188-23.2378v-20.9097
		c-13.1387,0-23.2188-10.3965-23.2188-23.2182c0-12.8423,10.08-23.2183,23.2188-23.2183v-20.9102
		c-13.1387,0-23.2188-10.3955-23.2188-23.2373c0-12.8222,10.08-23.2182,23.2188-23.2182v-20.9102
		c-13.1387,0-23.2188-10.396-23.2188-23.2182c0-12.8418,10.08-23.2374,23.2188-23.2374v-20.8906
		c-13.1387,0-23.2188-10.4155-23.2188-23.2378c0-12.8217,10.08-23.2182,23.2188-23.2182v-20.9097
		C996.8569,157.7725,986.7769,147.3765,986.7769,134.5542z"/>
	<g>
		<rect x="81.6675" y="81.2339" fill="#91D0D2" width="846.3447" height="846.9756"/>
		<path opacity="0.05" d="M920.1411,89.1246v831.1943H89.5386V89.1246H920.1411 M935.9028,73.3628H73.7768v862.7168h862.126V73.3628
			L935.9028,73.3628z"/>
	</g>
</g>
<g id="love-stamp-24-gay-couple">
	<g>
		<path fill="#FEFEFB" d="M417.5405,398.6524c24.9639,0,45.2129-20.2593,45.2129-45.2134c0-24.9736-20.249-45.1934-45.2129-45.1934
			c-24.9638,0-45.2231,20.2198-45.2231,45.1934C372.3174,378.3931,392.5767,398.6524,417.5405,398.6524z"/>
		<path fill="#FEFEFB" d="M466.8467,416.7417c-27.5381-8.7783-56.3487-7.2793-56.3487-7.2793
			c-65.3637,1.9331-82.0522,27.5777-84.6958,32.5684c-0.1279,0.2368-0.3252,0.375-0.4336,0.5918
			c-8.4331,12.7236-11.0961,28.5244-12.0234,43.4971c-0.5127,8.4228-0.6211,16.9843-0.2666,25.4072
			c1.2822,32.9824,4.2412,64.6045,8.0586,97.3896c0.7295,6.0762,2.0317,13.2959,2.5449,19.3916
			c0.1675,2.17,1.9922,3.8663,4.1621,3.8858l13.6309,0.375c2.2978,0.0596,4.2412-1.6572,4.4287-3.9453
			c0,0,3.1367-111.0801,3.1563-112.1055c0.0986-3.748,0.2763-7.4961,0.3452-11.2637c0.0493-2.2885-0.0689-4.6953,0.4731-7.0029
			c0.5723-2.4463,2.4268-4.498,4.7149-2.5059c1.144,1.0064,1.2724,5.6026,1.3017,7.792c0.1777,8.7393,0.2173,16.8077,0.3159,24.2041
			c0.355,33.0821,1.6963,54.9385,2.7813,83.3448c1.105,28.4062,2.1802,56.8515,3.2651,85.2578
			c0.917,24.2637,1.834,48.5273,2.791,72.8301c0.4043,11.1259,0.8282,22.2519,1.253,33.3574
			c0.0293,0.4541,0.039,0.8681,0.0488,1.3418c0.0693,2.3076,2.0024,4.122,4.3794,4.122l23.6719-0.3544
			c2.2387-0.0401,4.0737-1.7559,4.2309-4.0049l13.2862-189.8867h11.2343l13.2754,189.8867c0.168,2.249,1.9927,3.9648,4.2315,4.0049
			l23.6718,0.3544c2.377,0,4.3106-1.8145,4.3892-4.122c0.0103-0.4737,0.02-0.8877,0.0493-1.3418
			c0.4238-11.1055,0.8384-22.2315,1.292-33.3574c0.8975-24.3028,1.835-48.5664,2.752-72.8301
			c1.0947-28.4063,2.1601-56.8516,3.2646-85.2578c0.0195-0.2364,0.0195-0.4336,0.0298-0.6709
			c-4.4287-38.0127-6.9243-68.3321-8.0982-98.0996c-0.3745-9.0342-0.2758-18.2862,0.2959-27.4395
			c0.8877-14.2817,3.4327-35.3691,15.2881-53.3008l0.4444-0.6308c1.0156-1.7364,2.6631-3.9854,4.6748-6.4112
			C481.8979,421.0415,474.4712,418.4576,466.8467,416.7417z"/>
		<path fill="#FEFEFB" d="M567.146,390.8999c7.2197,4.8721,15.9189,7.7525,25.3086,7.7525c9.1836,0,17.6953-2.7818,24.8164-7.4761
			c12.2695-8.0879,20.4072-21.9756,20.4072-37.7373c0-24.9736-20.249-45.1934-45.2236-45.1934
			c-24.9629,0-45.2129,20.2198-45.2129,45.1934C547.2417,369.0035,555.1421,382.7525,567.146,390.8999z"/>
		<path fill="#FEFEFB" d="M696.6499,486.1197c-0.917-14.9727-3.5801-30.7735-12.0137-43.4971
			c-9.7939-14.7949-25.9795-22.0938-42.8652-25.8809c-7.0518-2.249-14.1631-3.8076-20.8906-4.8925
			c-19.4991-3.2154-35.4678-2.3868-35.4678-2.3868c-8.2549,0.2564-15.7217,0.8682-22.4688,1.7754
			c-35.7539,4.7935-51.7714,17.6158-58.4096,25.3877c-2.0713,2.4463-3.2749,4.3794-3.8169,5.4053
			c-0.1187,0.2368-0.3257,0.375-0.4444,0.5918c-8.413,12.7236-11.0859,28.5244-12.0131,43.4971
			c-0.503,8.4228-0.6119,16.9843-0.2662,25.4072c1.2823,32.9824,4.2413,64.6045,8.0582,97.3896
			c0.7202,6.0762,2.0415,13.2959,2.5546,19.3916c0.1675,2.17,1.9922,3.8663,4.1524,3.8858l2.2388,0.0791l11.3828,0.2959
			c2.3076,0.0596,4.2402-1.6572,4.4375-3.9453c0,0,3.1367-111.0801,3.166-112.1055c0.0791-3.748,0.2568-7.4961,0.3457-11.2637
			c0.039-2.2885-0.0889-4.6953,0.4541-7.0029c0.5713-2.4463,2.4463-4.498,4.7139-2.5059c1.1445,1.0064,1.2928,5.6026,1.3125,7.792
			c0.1777,8.7393,0.2168,16.8077,0.3056,24.2041c0.374,33.0821,1.6963,54.9385,2.8008,83.3448
			c1.0947,28.4062,2.1699,56.8515,3.2646,85.2578c0.8985,24.2637,1.835,48.5273,2.7813,72.8301
			c0.4043,11.1259,0.8389,22.2519,1.2725,33.3574c0.0205,0.4541,0.0302,0.8681,0.04,1.3418c0.0684,2.3076,2.002,4.122,4.3691,4.122
			l23.6817-0.3544c2.2285-0.0401,4.0732-1.7559,4.2217-4.0049l13.2959-189.8867h11.2343l13.2754,189.8867
			c0.168,2.249,1.9922,3.9648,4.2315,4.0049l23.6513,0.3544c2.377,0,4.3203-1.8145,4.4092-4.122
			c0.0098-0.4737,0.0195-0.8877,0.0401-1.3418c0.4335-11.1055,0.8281-22.2315,1.2812-33.3574
			c0.9277-24.3028,1.835-48.5664,2.7725-72.8301c1.0849-28.4063,2.1591-56.8516,3.2548-85.2578
			c1.0948-28.4063,2.4161-50.2627,2.7911-83.3448c0.0791-7.3964,0.1377-15.4648,0.2861-24.2041
			c0.0488-2.1894,0.1768-6.7856,1.3213-7.792c2.289-1.9921,4.1523,0.0596,4.7246,2.5059c0.5332,2.3076,0.4336,4.7144,0.4736,7.0029
			c0.0694,3.7676,0.2364,7.5157,0.3448,11.2637c0.0096,1.0254,3.166,112.1055,3.166,112.1055
			c0.1777,2.2881,2.1113,4.0049,4.4091,3.9453l13.6407-0.375c2.1806-0.0195,3.9658-1.7158,4.1631-3.8858
			c0.5127-6.0957,1.8145-13.3154,2.5244-19.3916c3.8467-32.7851,6.7763-64.4072,8.0879-97.3896
			C697.2612,503.104,697.1733,494.5425,696.6499,486.1197z"/>
	</g>
	<path fill="#EC7175" d="M544.7856,207.8184c-19.539-13.7886-39.354,3.4126-39.354,3.4126s-19.4995-17.5957-39.2954-4.1816
		c-11.0464,7.476-17.3789,23.0205-9.498,40.1826c1.8447,4.123,4.5273,8.2656,8.1372,12.4668
		c8.4233,9.7846,21.9165,19.6084,42.1753,28.3867c18.5234-8.7588,31.0693-18.6021,38.9394-28.3867
		c3.3741-4.2012,5.8692-8.3438,7.6739-12.4668C560.7847,230.5435,555.5366,215.4331,544.7856,207.8184z"/>
</g>
</svg>
