<?xml version="1.0" encoding="utf-8"?>
<!-- Generator: Adobe Illustrator 17.1.0, SVG Export Plug-In . SVG Version: 6.00 Build 0)  -->
<!DOCTYPE svg PUBLIC "-//W3C//DTD SVG 1.1//EN" "http://www.w3.org/Graphics/SVG/1.1/DTD/svg11.dtd">
<svg version="1.1" id="love-stamp-33" xmlns="http://www.w3.org/2000/svg" xmlns:xlink="http://www.w3.org/1999/xlink" x="0px"
	 y="0px" viewBox="0 0 1009.9956 1009.9956" enable-background="new 0 0 1009.9956 1009.9956" xml:space="preserve">
<g id="love-stamp-33-stamp">
	<path fill="#FEFEFB" d="M986.7769,134.5542c0-12.8418,10.08-23.2373,23.2188-23.2373V90.4263
		c-13.1387,0-23.2188-10.4155-23.2188-23.2378c0-12.8222,10.08-23.2182,23.2188-23.2182V22.8238c0,0-0.3555,0-0.4346,0
		c-6.1152,0-12.1904-2.3867-16.5107-6.7071C988.7895,11.836,986.2446,5.8394,986.1851,0h-20.6338
		c0,12.4078-10.3955,23.2378-23.2178,23.2378c-12.8027,0-23.1983-10.83-23.1983-23.2378h-20.8906
		c0,12.4078-10.3956,23.2378-23.2178,23.2378c-12.8223,0-23.1982-10.83-23.1982-23.2378H830.938
		c0,12.4078-10.3955,23.2378-23.2178,23.2378c-12.8223,0-23.1982-10.83-23.1982-23.2378h-20.8907
		c0,12.4078-10.3955,23.2378-23.2177,23.2378c-12.8223,0-23.2188-10.83-23.2188-23.2378h-20.8896
		c0,12.4078-10.376,23.2378-23.1983,23.2378c-12.8222,0-23.2187-10.83-23.2187-23.2378h-20.8897
		c0,12.4078-10.3759,23.2378-23.1982,23.2378S582.5815,12.4078,582.5815,0h-20.8896c0,12.4078-10.3965,23.2378-23.1983,23.2378
		c-12.8222,0-23.2187-10.83-23.2187-23.2378h-20.8901c0,12.4078-10.396,23.2378-23.2183,23.2378
		c-12.8022,0-23.1982-10.83-23.1982-23.2378h-20.8902c0,12.4078-10.396,23.2378-23.2182,23.2378
		c-12.8023,0-23.1983-10.83-23.1983-23.2378h-20.8901c0,12.4078-10.396,23.2378-23.2183,23.2378
		c-12.8222,0-23.1982-10.83-23.1982-23.2378h-20.8902c0,12.4078-10.396,23.2378-23.2182,23.2378
		c-12.8223,0-23.2178-10.83-23.2178-23.2378h-20.8711c0,12.4078-10.3955,23.2378-23.2178,23.2378
		c-12.8222,0-23.2177-10.83-23.2177-23.2378h-20.8907c0,12.4078-10.3759,23.2378-23.1982,23.2378S111.4155,12.4078,111.4155,0
		H90.5249c0,12.4078-10.3955,23.2378-23.1982,23.2378c-12.8223,0-23.2178-10.83-23.2178-23.2378h-20.792
		c-0.0591,5.8394-2.5249,11.836-6.7861,16.1167c-4.3199,4.3204-10.3169,6.7461-16.4322,6.7461C0.0791,22.8628,0,22.8238,0,22.8238
		v20.5547c12.7632,0,23.1987,10.396,23.1987,23.2382c0,12.8218-10.4355,23.2178-23.1987,23.2178v20.9102
		c12.7632,0,23.1987,10.3955,23.1987,23.2177c0,12.8223-10.4355,23.2383-23.1987,23.2383v20.8897
		c12.7632,0,23.1987,10.416,23.1987,23.2383c0,12.8222-10.4355,23.2177-23.1987,23.2177v20.9102
		c12.7632,0,23.1987,10.3955,23.1987,23.2178c0,12.8422-10.4355,23.2382-23.1987,23.2382v20.9102
		c12.7632,0,23.1987,10.3955,23.1987,23.2178c0,12.8222-10.4355,23.2177-23.1987,23.2177v20.9102
		c12.7632,0,23.1987,10.396,23.1987,23.2378c0,12.8223-10.4355,23.2183-23.1987,23.2183v20.9101
		c12.7632,0,23.1987,10.3955,23.1987,23.2178c0,12.8222-10.4355,23.2378-23.1987,23.2378v20.8901
		c12.7632,0,23.1987,10.3965,23.1987,23.2383c0,12.8223-10.4355,23.2178-23.1987,23.2178v20.9101
		c12.7632,0,23.1987,10.3955,23.1987,23.2178c0,12.8223-10.4355,23.2383-23.1987,23.2383v20.8906
		c12.7632,0,23.1987,10.3955,23.1987,23.2373c0,12.8223-10.4355,23.2178-23.1987,23.2178v20.9101
		c12.7632,0,23.1987,10.3965,23.1987,23.2178c0,12.8428-10.4355,23.2383-23.1987,23.2383v20.8896
		c12.7632,0,23.1987,10.4161,23.1987,23.2383c0,12.8223-10.4355,23.2178-23.1987,23.2178v20.9102
		c12.7632,0,23.1987,10.3955,23.1987,23.2382c0,12.8213-10.4355,23.2178-23.1987,23.2178v20.9102
		c12.7632,0,23.1987,10.3955,23.1987,23.2177c0,12.8223-10.4355,23.2178-23.1987,23.2178v21.0088c0,0,0.0791,0,0.0986,0
		c6.1153,0,12.1123,2.6631,16.4322,7.0029c4.3007,4.3008,6.7666,10.6719,6.7861,16.5117h20.792
		c0-13.1386,10.3955-23.2188,23.2178-23.2188c12.8027,0,23.1982,10.0801,23.1982,23.2188h20.8906
		c0-13.1386,10.3955-23.2188,23.2178-23.2188s23.1982,10.0801,23.1982,23.2188h20.8907c0-13.1386,10.3955-23.2188,23.2177-23.2188
		c12.8223,0,23.2178,10.0801,23.2178,23.2188h20.8711c0-13.1386,10.3955-23.2188,23.2178-23.2188
		c12.8222,0,23.2182,10.0801,23.2182,23.2188h20.8902c0-13.1386,10.376-23.2188,23.1982-23.2188
		c12.8223,0,23.2183,10.0801,23.2183,23.2188h20.8901c0-13.1386,10.396-23.2188,23.1983-23.2188
		c12.8222,0,23.2182,10.0801,23.2182,23.2188h20.8902c0-13.1386,10.396-23.2188,23.1982-23.2188
		c12.8223,0,23.2183,10.0801,23.2183,23.2188h20.8901c0-13.1386,10.3965-23.2188,23.2187-23.2188
		c12.8018,0,23.1983,10.0801,23.1983,23.2188h20.8896c0-13.1386,10.3965-23.2188,23.2188-23.2188s23.1982,10.0801,23.1982,23.2188
		h20.8897c0-13.1386,10.3965-23.2188,23.2187-23.2188c12.8223,0,23.1983,10.0801,23.1983,23.2188h20.8896
		c0-13.1386,10.3965-23.2188,23.2188-23.2188c12.8222,0,23.2177,10.0801,23.2177,23.2188h20.8907
		c0-13.1386,10.3759-23.2188,23.1982-23.2188c12.8223,0,23.2178,10.0801,23.2178,23.2188h20.8906
		c0-13.1386,10.376-23.2188,23.1982-23.2188c12.8222,0,23.2178,10.0801,23.2178,23.2188h20.8906
		c0-13.1386,10.3956-23.2188,23.1983-23.2188c12.8223,0,23.2178,10.0801,23.2178,23.2188h20.6338
		c0.0195-5.8398,2.4863-12.2109,6.7861-16.5117c4.3203-4.3398,10.4746-6.9043,16.5898-6.9043c0.0791,0,0.4346-0.0986,0.4346-0.0781
		V966.064c-13.1387,0-23.2188-10.3955-23.2188-23.2178c0-12.8418,10.08-23.2373,23.2188-23.2373v-20.9101
		c-13.1387,0-23.2188-10.3965-23.2188-23.2188c0-12.8222,10.08-23.2373,23.2188-23.2373v-20.8906
		c-13.1387,0-23.2188-10.3954-23.2188-23.2372c0-12.8223,10.08-23.2188,23.2188-23.2188v-20.9102
		c-13.1387,0-23.2188-10.3955-23.2188-23.2178c0-12.8213,10.08-23.2373,23.2188-23.2373v-20.8906
		c-13.1387,0-23.2188-10.416-23.2188-23.2373c0-12.8223,10.08-23.2188,23.2188-23.2188v-20.9092
		c-13.1387,0-23.2188-10.3964-23.2188-23.2187c0-12.8419,10.08-23.2373,23.2188-23.2373v-20.9102
		c-13.1387,0-23.2188-10.3955-23.2188-23.2177c0-12.8223,10.08-23.2188,23.2188-23.2188v-20.9101
		c-13.1387,0-23.2188-10.3956-23.2188-23.2178c0-12.8418,10.08-23.2378,23.2188-23.2378v-20.9097
		c-13.1387,0-23.2188-10.3965-23.2188-23.2182c0-12.8423,10.08-23.2183,23.2188-23.2183v-20.9102
		c-13.1387,0-23.2188-10.3955-23.2188-23.2373c0-12.8222,10.08-23.2182,23.2188-23.2182v-20.9102
		c-13.1387,0-23.2188-10.396-23.2188-23.2182c0-12.8418,10.08-23.2374,23.2188-23.2374v-20.8906
		c-13.1387,0-23.2188-10.4155-23.2188-23.2378c0-12.8217,10.08-23.2182,23.2188-23.2182v-20.9097
		C996.8569,157.7725,986.7769,147.3765,986.7769,134.5542z"/>
	<g>
		<rect x="81.6675" y="81.2339" fill="#9F5F5E" width="846.3447" height="846.9756"/>
		<path opacity="0.05" d="M920.1411,89.1246v831.1943H89.5386V89.1246H920.1411 M935.9028,73.3628H73.7768v862.7168h862.126V73.3628
			L935.9028,73.3628z"/>
	</g>
</g>
<g id="love-stamp-33-loving-couple">
	<path fill="#FEFEFB" d="M452.7524,255.7535c0,30.1425-24.4707,54.623-54.6523,54.623s-54.6426-24.4805-54.6426-54.623
		c0-30.1812,24.461-54.6421,54.6426-54.6421S452.7524,225.5723,452.7524,255.7535z"/>
	<path fill="#91D0D2" d="M524.0337,416.0904c-1.1045-18.0694-4.3399-37.1846-14.499-52.5611
		c-11.8555-17.872-31.4141-26.6899-51.8213-31.2661c-33.2984-10.623-68.1153-8.8081-68.1153-8.8081
		c-79.0244,2.3472-99.185,33.3374-102.3808,39.3936c-0.1475,0.2466-0.3848,0.4341-0.5322,0.6806
		c-10.1788,15.3765-13.4043,34.4917-14.5289,52.5611c-0.6215,10.1987-0.7397,20.5351-0.3256,30.7339
		c1.5683,39.8671,5.1289,78.0971,9.7646,117.728c0.8584,7.2988,2.4365,16.037,3.0674,23.415
		c0.2075,2.624,2.4072,4.6553,5.0205,4.7149l16.4912,0.4531c2.7617,0.079,5.1094-2.0117,5.3462-4.793
		c0,0,3.7974-134.2588,3.8267-135.5014c0.0986-4.5269,0.3159-9.0445,0.4145-13.5913c0.0396-2.7715-0.0986-5.7012,0.5425-8.4434
		c0.7002-2.9785,2.959-5.4639,5.7012-3.0674c1.3906,1.2334,1.5581,6.7959,1.5879,9.4395
		c0.1972,10.5634,0.2763,20.3183,0.375,29.2539c0.4336,39.9951,2.0512,66.4189,3.373,100.7236
		c1.3213,34.3438,2.6235,68.6875,3.9453,103.0313c1.1045,29.3535,2.229,58.6865,3.3731,88.039
		c0.4931,13.4531,1.0058,26.8877,1.519,40.3213c0.0195,0.5518,0.0396,1.0654,0.0591,1.6172
		c0.0889,2.7822,2.4067,4.9912,5.2969,4.9912l28.603-0.4141c2.7026-0.04,4.9219-2.1699,5.1089-4.873l16.0674-229.4775h13.5722
		l16.0567,229.4775c0.1972,2.7031,2.4072,4.833,5.1093,4.873l28.6036,0.4141c2.8798,0,5.208-2.209,5.3066-4.9912
		c0.0098-0.5518,0.0293-1.0654,0.0591-1.6172c0.5127-13.4336,1.0058-26.8682,1.5386-40.3213
		c1.1142-29.3525,2.2392-58.6855,3.3632-88.039c1.3116-34.3438,2.604-68.6875,3.9453-103.0313
		c1.3116-34.3047,2.9097-60.7285,3.3829-100.7236c0.0888-8.9356,0.1484-18.6905,0.3256-29.2539
		c0.0591-2.6436,0.1973-8.2061,1.5982-9.4395c2.7417-2.3965,5.0205,0.0889,5.7207,3.0674c0.6113,2.7422,0.5029,5.6719,0.5517,8.4434
		c0.0889,4.5468,0.2862,9.0644,0.4249,13.5913c0.0195,1.2426,3.8164,135.5014,3.8164,135.5014
		c0.2275,2.7813,2.5546,4.8721,5.3261,4.793l16.502-0.4531c2.6133-0.0596,4.793-2.0909,5.0293-4.7149
		c0.6221-7.3779,2.2002-16.1162,3.0586-23.415c4.6552-39.6309,8.1758-77.8609,9.7734-117.728
		C524.7632,436.6255,524.6753,426.2891,524.0337,416.0904z"/>
	<path fill="#FEFEFB" d="M658.8843,321.6006c0,25.0132-20.2696,45.2525-45.2627,45.2525c-25.003,0-45.2627-20.2393-45.2627-45.2525
		c0-25.0034,20.2597-45.2719,45.2627-45.2719C638.6147,276.3287,658.8843,296.5972,658.8843,321.6006z"/>
	<path fill="#EC7175" d="M707.7261,432.0591c-6.0059-20.1308-16.9541-36.7505-36.2373-46.1006
		c-17.5069-8.5122-37.7071-11.4511-57.0284-11.4511c-16.1269,0-31.1484,2.0512-44.1386,5.8584
		c-18.5821,5.4248-34.1367,15.6235-43.25,33.1699c-7.3975,14.1933-10.169,30.0141-13.8379,45.4502
		c-6.3428,26.8379-11.7969,54.001-16.689,81.125c-2.0913,11.6582-6.4209,24.875-8.0776,36.5928
		c-0.5918,4.122-3.5215,12.2304,0.3745,14.9326c5.8193,4.0634,15.4951,3.709,20.9399-0.7696
		c4.9307-4.0634,6.46-10.7304,8.2744-16.5507c2.2989-7.377,4.7842-14.6954,7.2891-21.9942
		c5.4356-15.9394,11.126-31.8193,16.709-47.7187c3.0674-8.709,6.1152-17.4185,9.0937-26.1573
		c1.4991-4.3789,3.0274-8.7587,4.5372-13.1474c0.3447-0.9863,1.8437-3.6299,1.6269-4.7149
		c1.835,8.9854,6.1348,22.8135,16.166,36.2671c-7.9297,8.3443-45.2129,51.19-50.9726,124.5923
		c-0.0497,0.6514,0.1875,1.3018,0.5918,1.7754c0.4337,0.5127,1.0351,0.7695,1.6865,0.7695l46.5537,1.1641l24.8164,179.9248
		c0.168,1.1836,1.1641,2.0322,2.3477,2.0322c0,0,24.2734,0,24.2929,0h5.9766c1.1641,0,2.1406-0.8681,2.2988-2.0322l24.8154-179.9648
		l46.5547-1.1045c0.6514-0.0196,1.2432-0.2764,1.7061-0.7696c0.4639-0.4931,0.6416-1.124,0.5918-1.7754
		c-5.7598-73.4218-43.0527-116.2675-51.002-124.6118c10.0401-13.4536,14.3506-27.2817,16.1953-36.2671
		c5.0293,14.6075,9.9219,29.2842,15.1495,43.8521c8.1074,22.6167,15.624,45.4595,23.701,68.0659
		c1.2823,3.5898,7.0723,17.2012,9.292,20.2988c3.0664,4.3203,16.3233,4.6162,19.2617-0.3945
		c2.1407-3.6895,0.543-12.0332-0.2265-15.959c-1.1836-6.2734-2.6631-12.5058-3.6094-18.8388
		c-2.4961-16.7081-5.7705-33.2198-9.0547-49.7793c-2.998-15.1407-6.1738-30.251-9.5381-45.3018
		C712.6675,452.5054,710.7056,442.0704,707.7261,432.0591z"/>
	<path fill="#EC7175" d="M657.9077,310.4751l-15.4854-20.831c-0.0497,0.0195-0.1485,0.1181-0.1875,0.1377
		c-1.8155,0.8086-5.0497-4.0635-5.0497-4.0635l0.6796-1.0654l-24.6474-4.6157c0,0-3.3242-21.2261,18.2763-25.1714l11.5694,22.1338
		c1.1045-0.0791,5.1592,0,5.8096,5.3847h-0.0098l23.6719,0.6314C678.4526,304.1724,657.9077,310.4751,657.9077,310.4751z"/>
</g>
</svg>
