<?xml version="1.0" encoding="utf-8"?>
<!-- Generator: Adobe Illustrator 17.1.0, SVG Export Plug-In . SVG Version: 6.00 Build 0)  -->
<!DOCTYPE svg PUBLIC "-//W3C//DTD SVG 1.1//EN" "http://www.w3.org/Graphics/SVG/1.1/DTD/svg11.dtd">
<svg version="1.1" id="love-stamp-32" xmlns="http://www.w3.org/2000/svg" xmlns:xlink="http://www.w3.org/1999/xlink" x="0px"
	 y="0px" viewBox="0 0 1009.9956 1009.9956" enable-background="new 0 0 1009.9956 1009.9956" xml:space="preserve">
<g id="love-stamp-32-stamp">
	<path fill="#FEFEFB" d="M986.7769,134.5347c0-12.8223,10.08-23.2178,23.2188-23.2178V90.4068
		c-13.1387,0-23.2188-10.396-23.2188-23.2183c0-12.8222,10.08-23.2378,23.2188-23.2378V22.8238c0,0-0.3555,0-0.4346,0
		c-6.1152,0-12.1904-2.3867-16.5107-6.7071C988.7895,11.836,986.2446,5.8394,986.1851,0h-20.6338
		c0,12.4078-10.3955,23.2378-23.2178,23.2378c-12.8027,0-23.1983-10.83-23.1983-23.2378h-20.8906
		c0,12.4078-10.3956,23.2378-23.2178,23.2378c-12.8223,0-23.1982-10.83-23.1982-23.2378H830.938
		c0,12.4078-10.3955,23.2378-23.2178,23.2378c-12.8223,0-23.1982-10.83-23.1982-23.2378h-20.8907
		c0,12.4078-10.3955,23.2378-23.2177,23.2378c-12.8223,0-23.2188-10.83-23.2188-23.2378h-20.8896
		c0,12.4078-10.376,23.2378-23.1983,23.2378c-12.8222,0-23.2187-10.83-23.2187-23.2378h-20.8897
		c0,12.4078-10.3759,23.2378-23.1982,23.2378S582.5815,12.4078,582.5815,0h-20.8896c0,12.4078-10.3965,23.2378-23.1983,23.2378
		c-12.8222,0-23.2187-10.83-23.2187-23.2378h-20.8901c0,12.4078-10.396,23.2378-23.2183,23.2378
		c-12.8022,0-23.1982-10.83-23.1982-23.2378h-20.8902c0,12.4078-10.396,23.2378-23.2182,23.2378
		c-12.8023,0-23.1983-10.83-23.1983-23.2378h-20.8901c0,12.4078-10.396,23.2378-23.2183,23.2378
		c-12.8222,0-23.1982-10.83-23.1982-23.2378h-20.8902c0,12.4078-10.396,23.2378-23.2182,23.2378
		c-12.8223,0-23.2178-10.83-23.2178-23.2378h-20.8711c0,12.4078-10.3955,23.2378-23.2178,23.2378
		c-12.8222,0-23.2177-10.83-23.2177-23.2378h-20.8907c0,12.4078-10.3759,23.2378-23.1982,23.2378S111.4155,12.4078,111.4155,0
		H90.5249c0,12.4078-10.3955,23.2378-23.1982,23.2378c-12.8223,0-23.2178-10.83-23.2178-23.2378h-20.792
		c-0.0591,5.8394-2.5249,11.836-6.7861,16.1167c-4.3199,4.3204-10.3169,6.7461-16.4322,6.7461C0.0791,22.8628,0,22.8238,0,22.8238
		v20.5547c12.7632,0,23.1987,10.396,23.1987,23.2182c0,12.8418-10.4355,23.2378-23.1987,23.2378v20.9102
		c12.7632,0,23.1987,10.3955,23.1987,23.2177c0,12.8223-10.4355,23.2183-23.1987,23.2183v20.9097
		c12.7632,0,23.1987,10.3965,23.1987,23.2383c0,12.8222-10.4355,23.2177-23.1987,23.2177v20.9102
		c12.7632,0,23.1987,10.3955,23.1987,23.2178c0,12.8222-10.4355,23.2382-23.1987,23.2382v20.8902
		c12.7632,0,23.1987,10.396,23.1987,23.2378c0,12.8222-10.4355,23.2177-23.1987,23.2177v20.9102
		c12.7632,0,23.1987,10.396,23.1987,23.2183c0,12.8418-10.4355,23.2378-23.1987,23.2378v20.8901
		c12.7632,0,23.1987,10.4155,23.1987,23.2378c0,12.8222-10.4355,23.2178-23.1987,23.2178v20.9101
		c12.7632,0,23.1987,10.3965,23.1987,23.2383c0,12.8223-10.4355,23.2178-23.1987,23.2178v20.9101
		c12.7632,0,23.1987,10.3955,23.1987,23.2178c0,12.8223-10.4355,23.2383-23.1987,23.2383v20.8906
		c12.7632,0,23.1987,10.3955,23.1987,23.2373c0,12.8223-10.4355,23.2178-23.1987,23.2178v20.9101
		c12.7632,0,23.1987,10.3965,23.1987,23.2178c0,12.8428-10.4355,23.2383-23.1987,23.2383v20.8896
		c12.7632,0,23.1987,10.4161,23.1987,23.2383c0,12.8223-10.4355,23.2178-23.1987,23.2178v20.9102
		c12.7632,0,23.1987,10.3955,23.1987,23.2382c0,12.8213-10.4355,23.2178-23.1987,23.2178v20.9102
		c12.7632,0,23.1987,10.3955,23.1987,23.2177c0,12.8223-10.4355,23.2178-23.1987,23.2178v21.0088c0,0,0.0791,0,0.0986,0
		c6.1153,0,12.1123,2.6631,16.4322,7.0029c4.3007,4.3008,6.7666,10.6719,6.7861,16.5117h20.792
		c0-13.1386,10.3955-23.2188,23.2178-23.2188c12.8027,0,23.1982,10.0801,23.1982,23.2188h20.8906
		c0-13.1386,10.3955-23.2188,23.2178-23.2188s23.1982,10.0801,23.1982,23.2188h20.8907c0-13.1386,10.3955-23.2188,23.2177-23.2188
		c12.8223,0,23.2178,10.0801,23.2178,23.2188h20.8711c0-13.1386,10.3955-23.2188,23.2178-23.2188
		c12.8222,0,23.2182,10.0801,23.2182,23.2188h20.8902c0-13.1386,10.376-23.2188,23.1982-23.2188
		c12.8223,0,23.2183,10.0801,23.2183,23.2188h20.8901c0-13.1386,10.396-23.2188,23.1983-23.2188
		c12.8222,0,23.2182,10.0801,23.2182,23.2188h20.8902c0-13.1386,10.396-23.2188,23.1982-23.2188
		c12.8223,0,23.2183,10.0801,23.2183,23.2188h20.8901c0-13.1386,10.3965-23.2188,23.2187-23.2188
		c12.8018,0,23.1983,10.0801,23.1983,23.2188h20.8896c0-13.1386,10.3965-23.2188,23.2188-23.2188s23.1982,10.0801,23.1982,23.2188
		h20.8897c0-13.1386,10.3965-23.2188,23.2187-23.2188c12.8223,0,23.1983,10.0801,23.1983,23.2188h20.8896
		c0-13.1386,10.3965-23.2188,23.2188-23.2188c12.8222,0,23.2177,10.0801,23.2177,23.2188h20.8907
		c0-13.1386,10.3759-23.2188,23.1982-23.2188c12.8223,0,23.2178,10.0801,23.2178,23.2188h20.8906
		c0-13.1386,10.376-23.2188,23.1982-23.2188c12.8222,0,23.2178,10.0801,23.2178,23.2188h20.8906
		c0-13.1386,10.3956-23.2188,23.1983-23.2188c12.8223,0,23.2178,10.0801,23.2178,23.2188h20.6338
		c0.0195-5.8398,2.4863-12.2109,6.7861-16.5117c4.3203-4.3398,10.4746-6.9043,16.5898-6.9043c0.0791,0,0.4346-0.0986,0.4346-0.0781
		V966.064c-13.1387,0-23.2188-10.3955-23.2188-23.2178c0-12.8418,10.08-23.2373,23.2188-23.2373v-20.9101
		c-13.1387,0-23.2188-10.3965-23.2188-23.2188c0-12.8222,10.08-23.2373,23.2188-23.2373v-20.8906
		c-13.1387,0-23.2188-10.3954-23.2188-23.2372c0-12.8223,10.08-23.2188,23.2188-23.2188v-20.9102
		c-13.1387,0-23.2188-10.3955-23.2188-23.2178c0-12.8213,10.08-23.2373,23.2188-23.2373v-20.8906
		c-13.1387,0-23.2188-10.416-23.2188-23.2373c0-12.8223,10.08-23.2188,23.2188-23.2188v-20.9092
		c-13.1387,0-23.2188-10.3964-23.2188-23.2187c0-12.8419,10.08-23.2373,23.2188-23.2373v-20.9102
		c-13.1387,0-23.2188-10.3955-23.2188-23.2177c0-12.8223,10.08-23.2188,23.2188-23.2188v-20.9101
		c-13.1387,0-23.2188-10.3956-23.2188-23.2374c0-12.8222,10.08-23.2182,23.2188-23.2182v-20.9097
		c-13.1387,0-23.2188-10.3965-23.2188-23.2182c0-12.8423,10.08-23.2378,23.2188-23.2378v-20.8907
		c-13.1387,0-23.2188-10.415-23.2188-23.2373c0-12.8222,10.08-23.2182,23.2188-23.2182v-20.9102
		c-13.1387,0-23.2188-10.396-23.2188-23.2182c0-12.8418,10.08-23.2374,23.2188-23.2374v-20.9101
		c-13.1387,0-23.2188-10.396-23.2188-23.2183c0-12.8217,10.08-23.2182,23.2188-23.2182v-20.9097
		C996.8569,157.7725,986.7769,147.3765,986.7769,134.5347z"/>
	<g>
		<rect x="81.6675" y="81.2339" fill="#EC7175" width="846.3447" height="846.9756"/>
		<path opacity="0.05" d="M920.1411,89.1246v831.1943H89.5386V89.1246H920.1411 M935.9028,73.3628H73.7768v862.7168h862.126V73.3628
			L935.9028,73.3628z"/>
	</g>
</g>
<g id="love-stamp-32-ringed-hearts">
	<g id="love-stamp-32-heart-right">
		<path id="love-stamp-32-color_3_" fill="#91D0D2" d="M302.3579,418.5957c0.6016,0,1.2324,0,1.8838,0.0396
			c10.8984,0.2168,21.5703,2.3477,31.7397,6.0361c2.9986,17.4976,9.3306,34.6992,18.0494,51.3086
			c-9.8731-6.2529-21.3042-10.1396-33.5938-10.3955c-0.3457,0-0.7695,0-1.1445,0c-32.0752,0-57.0879,28.5933-57.0879,59.1787
			c0,66.3008,109.7085,133.8242,124.04,149.961c8.2852-9.3106,48.9312-36.0596,81.8252-69.5752
			c13.167-13.4737,25.1514-28.0313,33.1992-42.9639c6.6875-12.3096,10.7911-24.9541,10.7911-37.4219
			c0-30.5957-24.9937-59.1787-57.0791-59.1787c-0.3843,0-0.7691,0-1.1539,0c-11.895,0.2266-22.9711,3.876-32.6469,9.8037
			c-6.4707-10.6914-11.5699-21.6103-14.795-32.5683c18.2667-14.8145,40.5381-23.731,63.6768-24.1846
			c0.5918-0.0396,1.2725-0.0396,1.8643-0.0396l0,0c24.9145,0,48.3095,10.3863,65.9453,29.2544
			c16.708,17.8526,26.2461,41.7217,26.2461,65.5606c0,24.3721-9.3301,49.6221-28.3565,76.5293
			c-7.1805,10.1787-15.7226,20.5742-25.6543,31.2471c-3.1855,3.4316-6.4507,6.7851-9.7451,10.0996
			c-26.0781,26.0195-55.2832,48.7441-75.4141,64.3671c-9.7353,7.5752-20.7519,16.0967-23.3759,19.0362l-15.5645,17.5566
			L370.4434,714.69c-2.604-2.8994-13.3052-11.2442-22.7447-18.6612c-48.0635-37.539-137.5029-107.3906-137.5029-182.6181
			C210.1958,462.0137,252.3804,418.5957,302.3579,418.5957z"/>
	</g>
	<g id="love-stamp-32-heart-left">
		<path id="love-stamp-32-color_2_" fill="#FEFEFB" d="M455.3462,277.7486c0.8286,0,1.6572,0.02,2.4756,0.02
			c42.2441,0.9077,82.2597,23.021,109.0879,57.6606c26.8574-34.6396,66.8925-56.7529,109.1367-57.6606
			c0.8086,0,1.6269-0.02,2.4551-0.02h0.0195c32.6973,0,63.5293,13.6806,86.7285,38.5063
			c21.9551,23.4546,34.5508,54.8989,34.5508,86.2637c0,44.1772-23.2676,90.5444-71.0947,141.8335
			c-37.0958,39.749-82.2003,74.7627-112.046,97.9424c-12.7832,9.9023-27.292,21.2051-30.7245,25.0722l-20.5059,23.0791
			l-20.4561-23.0791c-3.4228-3.8271-17.497-14.8545-29.9345-24.5605c-4.6553-3.6094-9.5869-7.4561-14.6768-11.5195
			c3.2944-3.3145,6.5596-6.668,9.7451-10.0996c9.9317-10.6729,18.4737-21.0684,25.6543-31.2471
			c14.4688,11.3232,25.6046,19.8838,29.9746,24.8349c18.878-21.2646,165.5645-111.3061,165.5645-197.3232
			c0-40.2715-32.9043-77.9097-75.1192-77.9097c-0.4931,0-0.9765,0-1.5185,0.0298c-41.8008,0.8877-76.0068,33.5347-87.7529,70.7188
			c-11.7079-37.1841-45.8848-69.8311-87.7437-70.7188c-0.4634-0.0298-1.0161-0.0298-1.4995-0.0298
			c-42.2246,0-75.1279,37.6382-75.1279,77.9097c0,8.4429,1.3906,16.9253,3.8466,25.3682
			c3.2251,10.958,8.3243,21.8769,14.795,32.5683c19.4697,32.2334,51.1504,62.4141,80.0888,86.7969
			c-8.0478,14.9326-20.0322,29.4902-33.1992,42.9639c-41.7021-35.0938-88.2461-79.8526-114.039-129.169
			c-8.7188-16.6094-15.0508-33.811-18.0494-51.3086c-1.2426-7.3379-1.9135-14.7158-1.9135-22.1528
			C334.0679,334.8765,389.5884,277.7486,455.3462,277.7486z"/>
	</g>
	<g id="love-stamp-32-color">
		<path id="love-stamp-32-color_1_" fill="#91D0D2" d="M501.269,562.1851c12.4082,10.4551,24.293,19.7656,34.4922,27.7549
			c-7.1805,10.1787-15.7226,20.5742-25.6543,31.2471c-3.1855,3.4316-6.4507,6.7851-9.7451,10.0996
			c-10.0996-7.9502-21.0088-16.6885-32.292-26.1377C481.2368,591.6753,493.2212,577.1177,501.269,562.1851z"/>
	</g>
</g>
</svg>
