<?xml version="1.0" encoding="utf-8"?>
<!-- Generator: Adobe Illustrator 17.1.0, SVG Export Plug-In . SVG Version: 6.00 Build 0)  -->
<!DOCTYPE svg PUBLIC "-//W3C//DTD SVG 1.1//EN" "http://www.w3.org/Graphics/SVG/1.1/DTD/svg11.dtd">
<svg version="1.1" id="love-stamp-8" xmlns="http://www.w3.org/2000/svg" xmlns:xlink="http://www.w3.org/1999/xlink" x="0px"
	 y="0px" viewBox="0 0 1009.9956 1009.9956" enable-background="new 0 0 1009.9956 1009.9956" xml:space="preserve">
<g id="love-stamp-8-stamp">
	<path fill="#FEFEFB" d="M986.7769,134.5347c0-12.8223,10.08-23.2178,23.2188-23.2178V90.4068
		c-13.1387,0-23.2188-10.396-23.2188-23.2183c0-12.832,10.08-23.2378,23.2188-23.2378V22.814c0,0-0.3555,0.0098-0.4346,0.0098
		c-6.1152,0-12.1904-2.397-16.5107-6.7168c-4.2608-4.271-6.8057-10.2676-6.8652-16.107h-20.6338
		c0,12.4078-10.3955,23.2281-23.2178,23.2281c-12.8027,0-23.1983-10.8203-23.1983-23.2281h-20.8906
		c0,12.4078-10.3956,23.2281-23.2178,23.2281c-12.8223,0-23.1982-10.8203-23.1982-23.2281H830.938
		c0,12.4078-10.3955,23.2281-23.2178,23.2281c-12.8223,0-23.1982-10.8203-23.1982-23.2281h-20.8907
		c0,12.4078-10.3955,23.2281-23.2177,23.2281c-12.8223,0-23.2188-10.8203-23.2188-23.2281h-20.8896
		c0,12.4078-10.376,23.2281-23.1983,23.2281c-12.8125,0-23.209-10.8203-23.209-23.2281h-20.8896
		c0,12.4078-10.3857,23.2281-23.208,23.2281S582.5913,12.4078,582.5913,0h-20.8896c0,12.4078-10.3956,23.2281-23.2081,23.2281
		c-12.8222,0-23.2187-10.8203-23.2187-23.2281H494.395c0,12.4078-10.3965,23.2281-23.2182,23.2281
		c-12.8125,0-23.1988-10.8203-23.1988-23.2281h-20.8896c0,12.4078-10.3965,23.2281-23.2188,23.2281
		c-12.812,0-23.208-10.8203-23.208-23.2281h-20.8804c0,12.4078-10.396,23.2281-23.2182,23.2281
		c-12.8223,0-23.208-10.8203-23.208-23.2281h-20.8902c0,12.4078-10.3862,23.2281-23.2085,23.2281
		c-12.8222,0-23.2177-10.8203-23.2177-23.2281h-20.8809c0,12.4078-10.3955,23.2281-23.208,23.2281
		c-12.8223,0-23.2178-10.8203-23.2178-23.2281h-20.8906c0,12.4078-10.3857,23.2281-23.1982,23.2281
		c-12.8223,0-23.2178-10.8203-23.2178-23.2281H90.5347c0,12.4078-10.3955,23.2281-23.208,23.2281S44.1186,12.4078,44.1186,0H23.3267
		c-0.0591,5.8394-2.5249,11.836-6.7862,16.107c-4.3198,4.3198-10.3164,6.7558-16.4316,6.7558C0.0791,22.8628,0,22.8238,0,22.8238
		v20.5547c12.7729,0,23.2085,10.396,23.2085,23.2182c0,12.8321-10.4356,23.2378-23.2085,23.2378v20.9004
		c12.7729,0,23.2085,10.3955,23.2085,23.2275c0,12.8223-10.4356,23.2183-23.2085,23.2183v20.9097
		c12.7729,0,23.2085,10.3965,23.2085,23.2285S12.7729,224.5464,0,224.5464v20.9004c12.7729,0,23.2085,10.4053,23.2085,23.2276
		c0,12.8222-10.4356,23.2285-23.2085,23.2285v20.8999c12.7729,0,23.2085,10.396,23.2085,23.228S12.7729,359.2583,0,359.2583v20.9102
		c12.7729,0,23.2085,10.396,23.2085,23.2183c0,12.832-10.4356,23.228-23.2085,23.228v20.8999
		c12.7729,0,23.2085,10.4058,23.2085,23.2378c0,12.8222-10.4356,23.2178-23.2085,23.2178v20.9101
		c12.7729,0,23.2085,10.3965,23.2085,23.2285c0,12.8223-10.4356,23.2276-23.2085,23.2276v20.8906
		c12.7729,0,23.2085,10.3954,23.2085,23.2372c0,12.8223-10.4356,23.2188-23.2085,23.2188v20.9102
		c12.7729,0,23.2085,10.3955,23.2085,23.2178c0,12.8213-10.4356,23.2373-23.2085,23.2373v20.8906
		c12.7729,0,23.2085,10.416,23.2085,23.2373c0,12.8223-10.4356,23.2178-23.2085,23.2178v20.9102
		c12.7729,0,23.2085,10.3965,23.2085,23.2188c0,12.8418-10.4356,23.2372-23.2085,23.2372v20.9102
		c12.7729,0,23.2085,10.3955,23.2085,23.2177c0,12.8223-10.4356,23.2188-23.2085,23.2188v20.9101
		c12.7729,0,23.2085,10.3955,23.2085,23.2373c0,12.8223-10.4356,23.2178-23.2085,23.2178v21.0088c0,0,0.0791,0,0.1089,0
		c6.1152,0,12.102,2.6631,16.4219,6.9834c4.3007,4.3008,6.7763,10.6914,6.7959,16.5312h20.7919
		c0-13.1386,10.3956-23.2382,23.2081-23.2382s23.208,10.0996,23.208,23.2382h20.8906c0-13.1386,10.3955-23.2382,23.2178-23.2382
		c12.8125,0,23.1982,10.0996,23.1982,23.2382h20.8906c0-13.1386,10.3955-23.2382,23.2178-23.2382
		c12.8125,0,23.208,10.0996,23.208,23.2382h20.8809c0-13.1386,10.3955-23.2382,23.2177-23.2382
		c12.8223,0,23.2085,10.0996,23.2085,23.2382h20.8902c0-13.1386,10.3857-23.2382,23.208-23.2382
		c12.8222,0,23.2182,10.0996,23.2182,23.2382h20.8804c0-13.1386,10.396-23.2382,23.208-23.2382
		c12.8223,0,23.2188,10.0996,23.2188,23.2382h20.8896c0-13.1386,10.3863-23.2382,23.1988-23.2382
		c12.8217,0,23.2182,10.0996,23.2182,23.2382h20.8799c0-13.1386,10.3965-23.2382,23.2187-23.2382
		c12.8125,0,23.2081,10.0996,23.2081,23.2382h20.8896c0-13.1386,10.3867-23.2382,23.209-23.2382s23.208,10.0996,23.208,23.2382
		h20.8896c0-13.1386,10.3965-23.2382,23.209-23.2382c12.8223,0,23.1983,10.0996,23.1983,23.2382h20.8896
		c0-13.1386,10.3965-23.2382,23.2188-23.2382c12.8222,0,23.2177,10.0996,23.2177,23.2382h20.8907
		c0-13.1386,10.3759-23.2382,23.1982-23.2382c12.8223,0,23.2178,10.0996,23.2178,23.2382h20.8906
		c0-13.1386,10.376-23.2382,23.1982-23.2382c12.8222,0,23.2178,10.0996,23.2178,23.2382h20.8906
		c0-13.1386,10.3956-23.2382,23.1983-23.2382c12.8223,0,23.2178,10.0996,23.2178,23.2382h20.6338
		c0.0195-5.8398,2.4863-12.2304,6.7861-16.5312c4.3203-4.3203,10.4746-6.8848,16.5898-6.8848c0.0791,0,0.4346-0.0986,0.4346-0.0986
		v-20.4365c-13.1387,0-23.2188-10.3955-23.2188-23.2178c0-12.8418,10.08-23.2178,23.2188-23.2178v-20.9101
		c-13.1387,0-23.2188-10.3965-23.2188-23.2383c0-12.8223,10.08-23.2178,23.2188-23.2178v-20.9101
		c-13.1387,0-23.2188-10.3955-23.2188-23.2178c0-12.8418,10.08-23.2383,23.2188-23.2383v-20.8906
		c-13.1387,0-23.2188-10.415-23.2188-23.2372c0-12.8223,10.08-23.2178,23.2188-23.2178v-20.9102
		c-13.1387,0-23.2188-10.3964-23.2188-23.2177c0-12.8428,10.08-23.2383,23.2188-23.2383v-20.8896
		c-13.1387,0-23.2188-10.416-23.2188-23.2382c0-12.8223,10.08-23.2178,23.2188-23.2178v-20.9102
		c-13.1387,0-23.2188-10.3955-23.2188-23.2177c0-12.8321,10.08-23.2286,23.2188-23.2286v-20.9101
		c-13.1387,0-23.2188-10.3955-23.2188-23.2276c0-12.8222,10.08-23.2182,23.2188-23.2182v-20.9097
		c-13.1387,0-23.2188-10.3965-23.2188-23.2285s10.08-23.2275,23.2188-23.2275v-20.9004c-13.1387,0-23.2188-10.4053-23.2188-23.2276
		c0-12.8222,10.08-23.2285,23.2188-23.2285v-20.8999c-13.1387,0-23.2188-10.396-23.2188-23.228
		c0-12.832,10.08-23.2276,23.2188-23.2276v-20.9101c-13.1387,0-23.2188-10.396-23.2188-23.2183
		c0-12.832,10.08-23.228,23.2188-23.228v-20.8999C996.8569,157.7725,986.7769,147.3667,986.7769,134.5347z"/>
	<g>
		<rect x="81.6772" y="81.2339" fill="#91D0D2" width="846.335" height="846.9551"/>
		<path opacity="0.05" d="M920.1411,89.1246v831.1943H89.5483V89.1246H920.1411 M935.9028,73.3531H73.7871v862.7265h862.1157
			V73.3531L935.9028,73.3531z"/>
	</g>
</g>
<g id="love-stamp-8-bird-house">
	<g>
		<path fill="#EC7175" d="M692.2905,470.2251H317.7344l-1.4698,1.6075c0.8287,10.9726,10.0308,19.6377,21.2847,19.6377
			c1.2236,0,2.417-0.1431,3.5606-0.3404c5.3261-0.8926,9.9721-3.7036,13.1875-7.7427c3.916,4.9219,9.9619,8.0831,16.7378,8.0831
			c6.7861,0,12.8422-3.1612,16.7475-8.0831c3.9356,4.9219,9.9619,8.0831,16.7383,8.0831c6.7959,0,12.8516-3.1612,16.7578-8.0831
			c3.9053,4.9219,9.9517,8.0831,16.7476,8.0831c6.7856,0,12.832-3.1612,16.7475-8.0831c3.9258,4.9219,9.9424,8.0831,16.7285,8.0831
			c6.7954,0,12.8418-3.1612,16.7676-8.0831c3.9151,4.9219,9.9419,8.0831,16.7373,8.0831c6.7764,0,12.8223-3.1612,16.7578-8.0831
			c3.9063,4.9219,9.9424,8.0831,16.7285,8.0831c6.8047,0,12.8321-3.1612,16.7471-8.0831c3.916,4.9219,9.9424,8.0831,16.7383,8.0831
			s12.832-3.1612,16.748-8.0831c3.9053,4.9219,9.9522,8.0831,16.7374,8.0831c6.8154,0,12.8222-3.1612,16.748-8.0831
			c3.9062,4.9219,9.9521,8.0831,16.7578,8.0831c6.7852,0,12.8125-3.1612,16.7275-8.0831c3.2159,4.0391,7.8614,6.8501,13.1875,7.7427
			c1.1436,0.1973,2.3272,0.3404,3.5606,0.3404c11.2637,0,20.4756-8.6651,21.2949-19.6475l18.8194,20.6191L692.2905,470.2251z"/>
		<polygon fill="#EC7175" points="578.1636,742.0601 553.771,715.8833 529.3892,742.0601 505.0171,715.8833 480.6157,742.0601 
			456.2339,715.8833 431.8325,742.0601 407.4507,715.8833 380.0503,745.2661 407.4507,774.6587 431.8325,748.5112 
			456.2339,774.6587 480.6157,748.5112 505.0171,774.6587 529.3892,748.5112 553.771,774.6587 578.1636,748.5112 602.5747,774.6587 
			629.9448,745.2661 602.5747,715.8833 		"/>
	</g>
	<path fill="#FEFEFB" d="M647.1567,777.7847l5.4444-72.5234H357.4043l5.4546,72.5234h-35.5474v16.502h36.7896h281.8027h0.0098
		h36.7802v-16.502H647.1567L647.1567,777.7847z M602.5747,774.6587l-24.4111-26.1475l-24.3926,26.1475l-24.3818-26.1475
		l-24.3721,26.1475l-24.4014-26.1475l-24.3818,26.1475l-24.4014-26.1475l-24.3818,26.1475l-27.4004-29.3926l27.4004-29.3828
		l24.3818,26.1768l24.4014-26.1768l24.3818,26.1768l24.4014-26.1768l24.3721,26.1768l24.3818-26.1768l24.3926,26.1768
		l24.4111-26.1768l27.3701,29.3828L602.5747,774.6587z"/>
	<g>
		<polygon fill="#9F5F5E" points="505.0371,264.9663 317.7344,470.2251 692.2905,470.2251 		"/>
		<path fill="#FEFEFB" d="M425.6772,597.5738c0,43.7236,35.587,79.33,79.3399,79.33c43.7344,0,79.3203-35.6064,79.3203-79.33
			c0-43.7627-35.5859-79.3203-79.3203-79.3203C461.2642,518.2535,425.6772,553.8111,425.6772,597.5738z M571.0913,597.5738
			c0,36.4355-29.6592,66.1035-66.0742,66.1035c-36.4541,0-66.1128-29.668-66.1128-66.1035
			c0-36.4444,29.6587-66.1133,66.1128-66.1133C541.4321,531.4605,571.0913,561.1294,571.0913,597.5738z"/>
	</g>
	<path fill="#91D0D2" d="M505.0171,531.4605c-36.4541,0-66.1128,29.6689-66.1128,66.1133c0,36.4355,29.6587,66.1035,66.1128,66.1035
		c36.415,0,66.0742-29.668,66.0742-66.1035C571.0913,561.1294,541.4321,531.4605,505.0171,531.4605z"/>
	<g>
		<path fill="#9F5F5E" d="M655.6977,483.3872c-3.915,4.9219-9.9423,8.0831-16.7275,8.0831c-6.8057,0-12.8516-3.1612-16.7578-8.0831
			c-3.9258,4.9219-9.9326,8.0831-16.748,8.0831c-6.7852,0-12.8322-3.1612-16.7374-8.0831c-3.916,4.9219-9.9521,8.0831-16.748,8.0831
			s-12.8223-3.1612-16.7383-8.0831c-3.915,4.9219-9.9424,8.0831-16.7471,8.0831c-6.7861,0-12.8222-3.1612-16.7285-8.0831
			c-3.9355,4.9219-9.9814,8.0831-16.7578,8.0831c-6.7954,0-12.8222-3.1612-16.7373-8.0831
			c-3.9258,4.9219-9.9722,8.0831-16.7676,8.0831c-6.7861,0-12.8027-3.1612-16.7285-8.0831
			c-3.9155,4.9219-9.9619,8.0831-16.7475,8.0831c-6.7959,0-12.8423-3.1612-16.7476-8.0831
			c-3.9062,4.9219-9.9619,8.0831-16.7578,8.0831c-6.7764,0-12.8027-3.1612-16.7383-8.0831
			c-3.9053,4.9219-9.9614,8.0831-16.7475,8.0831c-6.7759,0-12.8218-3.1612-16.7378-8.0831
			c-3.2154,4.0391-7.8614,6.8501-13.1875,7.7427c0.0791,0,0.1484,0,0.2275-0.0146l21.5215,286.6694l-5.4546-72.5234h295.1968
			l-5.4444,72.5234l0,0l21.5215-286.6694c0.0695,0.0146,0.1279,0.0146,0.207,0.0146
			C663.5591,490.2373,658.9136,487.4263,655.6977,483.3872z M505.0171,676.9038c-43.7529,0-79.3399-35.6064-79.3399-79.33
			c0-43.7627,35.587-79.3203,79.3399-79.3203c43.7344,0,79.3203,35.5576,79.3203,79.3203
			C584.3374,641.2974,548.7515,676.9038,505.0171,676.9038z"/>
		<polygon fill="#EC7175" points="505.0371,215.709 252.499,492.4419 297.4556,492.4419 316.2646,471.8326 317.7344,470.2251 
			505.0371,264.9663 692.2905,470.2251 712.5601,492.4419 757.4966,492.4419 		"/>
	</g>
	<path fill="#EC7175" d="M545.7329,362.8638c-1.7656-3.1318-4.0537-5.9873-6.835-8.2558c-4.123-3.3682-9.5087-5.3653-14.8046-4.8824
		c-4.8731,0.4536-9.42,2.9292-12.9317,6.3125c-2.6621,2.5449-4.7334,5.6123-6.2431,8.9707
		c-1.5582-3.3383-3.6885-6.3716-6.3809-8.872c-3.5806-3.3287-8.1572-5.7354-13.0293-6.1001
		c-5.3066-0.4146-10.6626,1.667-14.7363,5.0942c-2.7618,2.3179-4.9707,5.2075-6.7071,8.3589
		c-2.9589,5.3608-4.4775,11.7617-2.9785,17.6997c0.8389,3.2749,2.5547,6.2827,4.5869,8.9702
		c3.0274,3.9756,6.7954,7.3584,10.4844,10.7363c4.7149,4.3301,9.3897,8.7539,13.6504,13.5425
		c5.8291,6.5786,10.7905,13.9068,14.8838,21.689l0.0098,3.0722c0.247-0.5224,0.5327-1.0302,0.789-1.5478
		c0.2471,0.5176,0.543,1.0107,0.8086,1.5283l-0.0391-3.0674c3.9551-7.8413,8.7979-15.2436,14.5479-21.9062
		c4.1621-4.8672,8.7686-9.3506,13.4141-13.7593c3.6494-3.437,7.3486-6.8599,10.3173-10.9038
		c2.0118-2.7222,3.6983-5.7402,4.4678-9.0396C550.4077,374.5464,548.7808,368.1802,545.7329,362.8638z"/>
</g>
</svg>
