<?xml version="1.0" encoding="utf-8"?>
<!-- Generator: Adobe Illustrator 17.1.0, SVG Export Plug-In . SVG Version: 6.00 Build 0)  -->
<!DOCTYPE svg PUBLIC "-//W3C//DTD SVG 1.1//EN" "http://www.w3.org/Graphics/SVG/1.1/DTD/svg11.dtd">
<svg version="1.1" id="love-stamp-16" xmlns="http://www.w3.org/2000/svg" xmlns:xlink="http://www.w3.org/1999/xlink" x="0px"
	 y="0px" viewBox="0 0 1009.9956 1009.9956" enable-background="new 0 0 1009.9956 1009.9956" xml:space="preserve">
<g id="love-stamp-16-stamp">
	<path fill="#FEFEFB" d="M986.7769,134.5347c0-12.8223,10.08-23.2178,23.2188-23.2178V90.4068
		c-13.1387,0-23.2188-10.396-23.2188-23.2183c0-12.832,10.08-23.2378,23.2188-23.2378V22.814c0,0-0.3555,0.0098-0.4346,0.0098
		c-6.1152,0-12.1904-2.397-16.5107-6.7168c-4.2608-4.271-6.8057-10.2676-6.8652-16.107h-20.6338
		c0,12.4078-10.3955,23.2281-23.2178,23.2281c-12.8027,0-23.1983-10.8203-23.1983-23.2281h-20.8906
		c0,12.4078-10.3956,23.2281-23.2178,23.2281c-12.8223,0-23.1982-10.8203-23.1982-23.2281H830.938
		c0,12.4078-10.3955,23.2281-23.2178,23.2281c-12.8223,0-23.1982-10.8203-23.1982-23.2281h-20.8907
		c0,12.4078-10.3955,23.2281-23.2177,23.2281c-12.8223,0-23.2188-10.8203-23.2188-23.2281h-20.8896
		c0,12.4078-10.376,23.2281-23.1983,23.2281c-12.8222,0-23.2187-10.8203-23.2187-23.2281h-20.8897
		c0,12.4078-10.3759,23.2281-23.1982,23.2281S582.5815,12.4078,582.5815,0h-20.8896c0,12.4078-10.3965,23.2281-23.1983,23.2281
		c-12.8222,0-23.2187-10.8203-23.2187-23.2281h-20.8901c0,12.4078-10.396,23.2281-23.1983,23.2281
		c-12.8222,0-23.2182-10.8203-23.2182-23.2281h-20.8902c0,12.4078-10.396,23.2281-23.1982,23.2281
		c-12.8223,0-23.2183-10.8203-23.2183-23.2281h-20.8901c0,12.4078-10.396,23.2281-23.2183,23.2281
		C323.751,23.2281,313.355,12.4078,313.355,0h-20.8902c0,12.4078-10.396,23.2281-23.2182,23.2281
		c-12.8023,0-23.1983-10.8203-23.1983-23.2281h-20.8906c0,12.4078-10.3955,23.2281-23.2178,23.2281
		c-12.8222,0-23.1982-10.8203-23.1982-23.2281h-20.8906c0,12.4078-10.3955,23.2281-23.2178,23.2281S111.4155,12.4078,111.4155,0
		H90.5249c0,12.4078-10.3955,23.2281-23.1982,23.2281C54.5044,23.2281,44.1089,12.4078,44.1089,0h-20.792
		c-0.0591,5.8394-2.5249,11.836-6.7861,16.107c-4.3199,4.3198-10.3169,6.7558-16.4322,6.7558C0.0791,22.8628,0,22.8238,0,22.8238
		v20.5547c12.7632,0,23.1987,10.396,23.1987,23.2182c0,12.8321-10.4355,23.2378-23.1987,23.2378v20.9004
		c12.7632,0,23.1987,10.3955,23.1987,23.2275c0,12.8223-10.4355,23.2183-23.1987,23.2183v20.9097
		c12.7632,0,23.1987,10.3965,23.1987,23.2285S12.7632,224.5464,0,224.5464v20.9004c12.7632,0,23.1987,10.4053,23.1987,23.2276
		c0,12.8222-10.4355,23.2285-23.1987,23.2285v20.8999c12.7632,0,23.1987,10.396,23.1987,23.228S12.7632,359.2583,0,359.2583v20.9102
		c12.7632,0,23.1987,10.396,23.1987,23.2183c0,12.832-10.4355,23.228-23.1987,23.228v20.8999
		c12.7632,0,23.1987,10.4058,23.1987,23.2378c0,12.8222-10.4355,23.2178-23.1987,23.2178v20.9101
		c12.7632,0,23.1987,10.3965,23.1987,23.2285c0,12.8223-10.4355,23.2276-23.1987,23.2276v20.9004
		c12.7632,0,23.1987,10.3955,23.1987,23.2275c0,12.8223-10.4355,23.2285-23.1987,23.2285v20.9004
		c12.7632,0,23.1987,10.3955,23.1987,23.2275c0,12.8223-10.4355,23.2276-23.1987,23.2276v20.9004
		c12.7632,0,23.1987,10.4062,23.1987,23.2275c0,12.832-10.4355,23.2285-23.1987,23.2285v20.8994
		c12.7632,0,23.1987,10.4063,23.1987,23.2286c0,12.832-10.4355,23.2275-23.1987,23.2275v20.9102
		c12.7632,0,23.1987,10.3955,23.1987,23.2275c0,12.8223-10.4355,23.2187-23.1987,23.2187v20.9102
		c12.7632,0,23.1987,10.3955,23.1987,23.2275c0,12.8223-10.4355,23.2178-23.1987,23.2178v21.0088c0,0,0.0791,0,0.0986,0
		c6.1153,0,12.1123,2.6631,16.4322,6.9932c4.3007,4.3007,6.7666,10.6816,6.7861,16.5214h20.792
		c0-13.1386,10.3955-23.2285,23.2178-23.2285c12.8027,0,23.1982,10.0899,23.1982,23.2285h20.8906
		c0-13.1386,10.3955-23.2285,23.2178-23.2285s23.2178,10.0899,23.2178,23.2285h20.8906c0-13.1386,10.376-23.2285,23.1982-23.2285
		c12.8223,0,23.2178,10.0899,23.2178,23.2285h20.8906c0-13.1386,10.396-23.2285,23.1983-23.2285
		c12.8222,0,23.2182,10.0899,23.2182,23.2285h20.8902c0-13.1386,10.396-23.2285,23.1982-23.2285
		c12.8223,0,23.2183,10.0899,23.2183,23.2285h20.8901c0-13.1386,10.396-23.2285,23.2183-23.2285
		c12.8022,0,23.1982,10.0899,23.1982,23.2285h20.8902c0-13.1386,10.396-23.2285,23.2182-23.2285
		c12.8023,0,23.1983,10.0899,23.1983,23.2285h20.8901c0-13.1386,10.3965-23.2285,23.2187-23.2285
		c12.8018,0,23.1983,10.0899,23.1983,23.2285h20.8896c0-13.1386,10.3965-23.2285,23.2188-23.2285s23.1982,10.0899,23.1982,23.2285
		h20.8897c0-13.1386,10.3965-23.2285,23.2187-23.2285c12.8223,0,23.1983,10.0899,23.1983,23.2285h20.8896
		c0-13.1386,10.3965-23.2285,23.2188-23.2285c12.8222,0,23.2177,10.0899,23.2177,23.2285h20.8907
		c0-13.1386,10.3759-23.2285,23.1982-23.2285c12.8223,0,23.2178,10.0899,23.2178,23.2285h20.8906
		c0-13.1386,10.376-23.2285,23.1982-23.2285c12.8222,0,23.2178,10.0899,23.2178,23.2285h20.8906
		c0-13.1386,10.3956-23.2285,23.1983-23.2285c12.8223,0,23.2178,10.0899,23.2178,23.2285h20.6338
		c0.0195-5.8398,2.4863-12.2207,6.7861-16.5214c4.3203-4.3301,10.4746-6.8946,16.5898-6.8946c0.0791,0,0.4346-0.0986,0.4346-0.0888
		v-20.4366c-13.1387,0-23.2188-10.3955-23.2188-23.2177c0-12.8418,10.08-23.2276,23.2188-23.2276v-20.9101
		c-13.1387,0-23.2188-10.3965-23.2188-23.2285c0-12.8223,10.08-23.2276,23.2188-23.2276v-20.9004
		c-13.1387,0-23.2188-10.3955-23.2188-23.2275c0-12.832,10.08-23.2285,23.2188-23.2285v-20.9005
		c-13.1387,0-23.2188-10.4053-23.2188-23.2275c0-12.8222,10.08-23.2275,23.2188-23.2275v-20.9004
		c-13.1387,0-23.2188-10.4062-23.2188-23.2275c0-12.833,10.08-23.2285,23.2188-23.2285v-20.8995
		c-13.1387,0-23.2188-10.4062-23.2188-23.2285c0-12.832,10.08-23.2275,23.2188-23.2275v-20.9102
		c-13.1387,0-23.2188-10.3955-23.2188-23.2177c0-12.8321,10.08-23.2286,23.2188-23.2286v-20.9101
		c-13.1387,0-23.2188-10.3955-23.2188-23.2276c0-12.8222,10.08-23.2182,23.2188-23.2182v-20.9097
		c-13.1387,0-23.2188-10.3965-23.2188-23.2285s10.08-23.2275,23.2188-23.2275v-20.9004c-13.1387,0-23.2188-10.4053-23.2188-23.2276
		c0-12.8222,10.08-23.2285,23.2188-23.2285v-20.8999c-13.1387,0-23.2188-10.396-23.2188-23.228
		c0-12.832,10.08-23.2276,23.2188-23.2276v-20.9101c-13.1387,0-23.2188-10.396-23.2188-23.2183
		c0-12.832,10.08-23.228,23.2188-23.228v-20.8999C996.8569,157.7725,986.7769,147.3667,986.7769,134.5347z"/>
	<g>
		<rect x="81.6675" y="81.2339" fill="#91D0D2" width="846.3447" height="846.9658"/>
		<path opacity="0.05" d="M920.1411,89.1246v831.1943H89.5386V89.1246H920.1411 M935.9028,73.3531H73.7768v862.7265h862.126V73.3531
			L935.9028,73.3531z"/>
	</g>
</g>
<g id="love-stamp-16-heart-wings">
	<path fill="#FEFEFB" d="M801.644,497.3931c0,0-37.4209-30.2109-58.3505-46.998c-20.96-16.8072-38.9209,1.6865-38.9209,1.6865
		l-12.9395,10.8887c-0.1582,30.8027-12.6055,61.123-33.5947,88.4433c81.4111,58.1738,42.0468-15.4746,42.0468-15.4746
		c110.6954,58.7051,49.3858-21.7685,49.3858-21.7685C858.4468,554.4322,801.644,497.3931,801.644,497.3931z"/>
	<path fill="#FEFEFB" d="M305.6025,452.0816c0,0-17.9311-18.4937-38.8808-1.6865c-20.9497,16.7871-58.3609,46.998-58.3609,46.998
		s-56.8222,57.0391,52.3741,16.7774c0,0-61.3199,80.4736,49.3652,21.7685c0,0-39.5908,74.0527,42.708,14.9922
		c-20.6836-26.7793-33.1699-56.6548-33.7715-87.5464L305.6025,452.0816z"/>
	<path fill="#EC7175" d="M506.6352,414.2955c-53.6958-81.0167-172.0346-59.3272-172.5278,46.1499
		c0,0.9765,0.0591,1.9428,0.0689,2.9394c0.6015,30.8916,13.0888,60.7671,33.7817,87.5464
		c31.5425,40.8926,82.0815,74.6348,138.2036,93.9277c55.9541-19.2343,105.5371-53.0742,136.5274-93.4453
		c20.9882-27.3203,33.4355-57.6406,33.5938-88.4433c0-0.2071,0.0391-0.4336,0.0391-0.6407
		C676.3218,366.3111,568.6753,326.7593,506.6352,414.2955z"/>
</g>
</svg>
