<?xml version="1.0" encoding="utf-8"?>
<!-- Generator: Adobe Illustrator 17.1.0, SVG Export Plug-In . SVG Version: 6.00 Build 0)  -->
<!DOCTYPE svg PUBLIC "-//W3C//DTD SVG 1.1//EN" "http://www.w3.org/Graphics/SVG/1.1/DTD/svg11.dtd">
<svg version="1.1" id="love-stamp-4" xmlns="http://www.w3.org/2000/svg" xmlns:xlink="http://www.w3.org/1999/xlink" x="0px"
	 y="0px" viewBox="0 0 1010.0005 1009.9956" enable-background="new 0 0 1010.0005 1009.9956" xml:space="preserve">
<g id="love-stamp-4-stamp">
	<path fill="#FEFEFB" d="M986.7818,134.5396c0-12.8272,10.08-23.228,23.2187-23.228V90.4117
		c-13.1387,0-23.2187-10.4009-23.2187-23.2281c0-12.8271,10.08-23.228,23.2187-23.228V22.814c0,0-0.3555,0.0049-0.4346,0.0049
		c-6.1152,0-12.1904-2.3921-16.5107-6.7119C988.7944,11.836,986.2495,5.8394,986.19,0h-20.6339
		c0,12.4078-10.3954,23.2281-23.2178,23.2281c-12.8027,0-23.1983-10.8203-23.1983-23.2281h-20.8906
		c0,12.4078-10.3955,23.2281-23.2177,23.2281c-12.8223,0-23.1983-10.8203-23.1983-23.2281h-20.8906
		c0,12.4078-10.3955,23.2281-23.2178,23.2281c-12.8223,0-23.1982-10.8203-23.1982-23.2281h-20.8907
		c0,12.4078-10.3955,23.2281-23.2177,23.2281c-12.8223,0-23.2188-10.8203-23.2188-23.2281h-20.8896
		c0,12.4078-10.376,23.2281-23.1982,23.2281c-12.8222,0-23.2188-10.8203-23.2188-23.2281h-20.8896
		c0,12.4078-10.3759,23.2281-23.1982,23.2281c-12.8223,0-23.2188-10.8203-23.2188-23.2281h-20.8896
		c0,12.4078-10.3965,23.2281-23.1983,23.2281c-12.8222,0-23.2187-10.8203-23.2187-23.2281H494.395
		c0,12.4078-10.3965,23.2281-23.2085,23.2281c-12.8222,0-23.2182-10.8203-23.2182-23.2281h-20.8902
		c0,12.4078-10.3862,23.2281-23.1982,23.2281c-12.8223,0-23.2183-10.8203-23.2183-23.2281h-20.8901
		c0,12.4078-10.396,23.2281-23.2085,23.2281c-12.812,0-23.208-10.8203-23.208-23.2281h-20.8906
		c0,12.4078-10.3955,23.2281-23.208,23.2281c-12.8126,0-23.2081-10.8203-23.2081-23.2281h-20.8907
		c0,12.4078-10.3955,23.2281-23.2177,23.2281c-12.8125,0-23.1983-10.8203-23.1983-23.2281h-20.8906
		c0,12.4078-10.3955,23.2281-23.2178,23.2281c-12.8125,0-23.208-10.8203-23.208-23.2281H90.5347
		c0,12.4078-10.3955,23.2281-23.208,23.2281S44.1187,12.4078,44.1187,0h-20.792c-0.0591,5.8394-2.5249,11.836-6.7862,16.107
		c-4.3198,4.3198-10.3164,6.7558-16.4316,6.7558C0.0791,22.8628,0,22.8189,0,22.8189v20.5547
		c12.773,0,23.2085,10.4009,23.2085,23.228c0,12.8272-10.4355,23.228-23.2085,23.228v20.9053
		c12.773,0,23.2085,10.3955,23.2085,23.2227c0,12.8271-10.4355,23.228-23.2085,23.228v20.9048
		c12.773,0,23.2085,10.4013,23.2085,23.2285c0,12.8271-10.4355,23.2275-23.2085,23.2275v20.9004
		c12.773,0,23.2085,10.4004,23.2085,23.2276c0,12.8271-10.4355,23.2285-23.2085,23.2285v20.9048
		c12.773,0,23.2085,10.396,23.2085,23.2231c0,12.8272-10.4355,23.2275-23.2085,23.2275v20.9053
		c12.773,0,23.2085,10.4009,23.2085,23.228c0,12.8272-10.4355,23.2232-23.2085,23.2232v20.9053
		c12.773,0,23.2085,10.4004,23.2085,23.2275S12.773,493.9756,0,493.9756v20.9048c12.773,0,23.2085,10.3965,23.2085,23.2285
		c0,12.8223-10.4355,23.2276-23.2085,23.2276v20.9004c12.773,0,23.2085,10.3955,23.2085,23.2275
		c0,12.8223-10.4355,23.2285-23.2085,23.2285v20.9004c12.773,0,23.2085,10.3955,23.2085,23.2275
		c0,12.8223-10.4355,23.2276-23.2085,23.2276v20.9004c12.773,0,23.2085,10.4062,23.2085,23.2275
		c0,12.832-10.4355,23.2285-23.2085,23.2285v20.8994c12.773,0,23.2085,10.4063,23.2085,23.2286
		c0,12.832-10.4355,23.2275-23.2085,23.2275v20.9102c12.773,0,23.2085,10.3955,23.2085,23.2275
		c0,12.8223-10.4355,23.2187-23.2085,23.2187v20.9102c12.773,0,23.2085,10.3955,23.2085,23.2275
		c0,12.8223-10.4355,23.2178-23.2085,23.2178v21.0088c0,0,0.0791,0,0.1089,0c6.1152,0,12.102,2.6631,16.4219,6.9932
		c4.3008,4.3007,6.7763,10.6816,6.7959,16.5214h20.792c0-13.1386,10.3955-23.2285,23.208-23.2285s23.208,10.0899,23.208,23.2285
		h20.8906c0-13.1386,10.3955-23.2285,23.208-23.2285c12.8223,0,23.2178,10.0899,23.2178,23.2285h20.8906
		c0-13.1386,10.3858-23.2285,23.1983-23.2285c12.8222,0,23.2177,10.0899,23.2177,23.2285h20.8907
		c0-13.1386,10.3955-23.2285,23.2081-23.2285c12.8125,0,23.208,10.0899,23.208,23.2285h20.8906
		c0-13.1386,10.396-23.2285,23.208-23.2285c12.8125,0,23.2085,10.0899,23.2085,23.2285h20.8901
		c0-13.1386,10.396-23.2285,23.2183-23.2285c12.812,0,23.1982,10.0899,23.1982,23.2285h20.8902
		c0-13.1386,10.396-23.2285,23.2182-23.2285c12.812,0,23.2085,10.0899,23.2085,23.2285h20.8848
		c0-13.1386,10.3965-23.2285,23.2187-23.2285c12.8018,0,23.1983,10.0899,23.1983,23.2285h20.8896
		c0-13.1386,10.3965-23.2285,23.2188-23.2285c12.8223,0,23.1982,10.0899,23.1982,23.2285h20.8896
		c0-13.1386,10.3965-23.2285,23.2188-23.2285c12.8223,0,23.1982,10.0899,23.1982,23.2285h20.8896
		c0-13.1386,10.3965-23.2285,23.2188-23.2285c12.8221,0,23.2177,10.0899,23.2177,23.2285h20.8907
		c0-13.1386,10.3759-23.2285,23.1982-23.2285c12.8223,0,23.2178,10.0899,23.2178,23.2285h20.8906
		c0-13.1386,10.376-23.2285,23.1983-23.2285c12.8222,0,23.2177,10.0899,23.2177,23.2285h20.8906
		c0-13.1386,10.3956-23.2285,23.1983-23.2285c12.8223,0,23.2178,10.0899,23.2178,23.2285H986.19
		c0.0195-5.8398,2.4863-12.2207,6.7861-16.5214c4.3203-4.3301,10.4746-6.8946,16.5898-6.8946c0.0791,0,0.4346-0.0986,0.4346-0.0888
		v-20.4366c-13.1387,0-23.2187-10.3955-23.2187-23.2177c0-12.8418,10.08-23.2276,23.2187-23.2276v-20.9101
		c-13.1387,0-23.2187-10.3965-23.2187-23.2285c0-12.8223,10.08-23.2276,23.2187-23.2276v-20.9004
		c-13.1387,0-23.2187-10.3955-23.2187-23.2275c0-12.832,10.08-23.2285,23.2187-23.2285v-20.9005
		c-13.1387,0-23.2187-10.4053-23.2187-23.2275c0-12.8222,10.08-23.2275,23.2187-23.2275v-20.9004
		c-13.1387,0-23.2187-10.4062-23.2187-23.2275c0-12.833,10.08-23.2285,23.2187-23.2285v-20.8995
		c-13.1387,0-23.2187-10.4062-23.2187-23.2285c0-12.832,10.08-23.2275,23.2187-23.2275v-20.9102
		c-13.1387,0-23.2187-10.3955-23.2187-23.2177c0-12.8321,10.08-23.2286,23.2187-23.2286v-20.9101
		c-13.1387,0-23.2187-10.3955-23.2187-23.2227c0-12.8271,10.08-23.228,23.2187-23.228v-20.9048
		c-13.1387,0-23.2187-10.4013-23.2187-23.2285c0-12.832,10.08-23.2227,23.2187-23.2227v-20.9052
		c-13.1387,0-23.2187-10.4004-23.2187-23.2276c0-12.8271,10.08-23.2285,23.2187-23.2285v-20.8999
		c-13.1387,0-23.2187-10.4009-23.2187-23.228c0-12.832,10.08-23.2276,23.2187-23.2276v-20.9052
		c-13.1387,0-23.2187-10.4009-23.2187-23.2281c0-12.8271,10.08-23.2231,23.2187-23.2231v-20.9048
		C996.8618,157.7676,986.7818,147.3667,986.7818,134.5396z"/>
	<g>
		<rect x="81.6773" y="81.2339" fill="#EC7175" width="846.3398" height="846.9658"/>
		<path opacity="0.05" d="M920.146,89.1197v831.1992H89.5484V89.1197H920.146 M935.9077,73.3531H73.7866v862.7265h862.121V73.3531
			L935.9077,73.3531z"/>
	</g>
</g>
<path id="love-stamp-4-key" fill="#9F5F5E" d="M663.8989,386.146c0-43.8574-35.5468-79.4287-79.4178-79.4287
	c0-43.916-35.5869-79.4682-79.4834-79.4682c-43.8716,0-79.4385,35.5522-79.4385,79.4682c-43.8716,0-79.458,35.5713-79.458,79.4287
	c0,43.9058,35.5864,79.458,79.458,79.458c24.4805,0,46.1103-11.3085,60.6885-28.707v345.8496h37.5342v-39.8281h63.539v-37.5391
	h-27.9521v-28.0019h46.9297v-62.5723h-82.5166V436.897c14.5781,17.3985,36.1787,28.707,60.6992,28.707
	C628.3521,465.604,663.8989,430.0518,663.8989,386.146z M504.9976,408.5796c0,0-101.1377-63.1196-48.4483-93.2568
	c27.6465-15.791,48.4483,20.7227,48.4483,20.7227s20.8564-36.5137,48.4531-20.7227
	C606.1802,345.46,504.9976,408.5796,504.9976,408.5796z"/>
</svg>
