<?xml version="1.0" encoding="utf-8"?>
<!-- Generator: Adobe Illustrator 17.1.0, SVG Export Plug-In . SVG Version: 6.00 Build 0)  -->
<!DOCTYPE svg PUBLIC "-//W3C//DTD SVG 1.1//EN" "http://www.w3.org/Graphics/SVG/1.1/DTD/svg11.dtd">
<svg version="1.1" id="love-stamp-14" xmlns="http://www.w3.org/2000/svg" xmlns:xlink="http://www.w3.org/1999/xlink" x="0px"
	 y="0px" viewBox="0 0 1009.9956 1009.9956" enable-background="new 0 0 1009.9956 1009.9956" xml:space="preserve">
<g id="love-stamp-14-stamp">
	<path fill="#FEFEFB" d="M986.7769,134.5445c0-12.8321,10.08-23.2276,23.2188-23.2276V90.4165
		c-13.1387,0-23.2188-10.4057-23.2188-23.228c0-12.8222,10.08-23.228,23.2188-23.228V22.8238c0,0-0.3555,0-0.4346,0
		c-6.1152,0-12.1904-2.3867-16.5107-6.7071C988.7895,11.836,986.2446,5.8394,986.1851,0h-20.6338
		c0,12.4078-10.3955,23.2378-23.2178,23.2378c-12.8027,0-23.1983-10.83-23.1983-23.2378h-20.8906
		c0,12.4078-10.3956,23.2378-23.2178,23.2378c-12.8223,0-23.1982-10.83-23.1982-23.2378H830.938
		c0,12.4078-10.3955,23.2378-23.2178,23.2378c-12.8223,0-23.1982-10.83-23.1982-23.2378h-20.8907
		c0,12.4078-10.3955,23.2378-23.2177,23.2378c-12.8223,0-23.2188-10.83-23.2188-23.2378h-20.8896
		c0,12.4078-10.376,23.2378-23.1983,23.2378c-12.8222,0-23.2187-10.83-23.2187-23.2378h-20.8897
		c0,12.4078-10.3759,23.2378-23.1982,23.2378S582.5815,12.4078,582.5815,0h-20.8896c0,12.4078-10.3965,23.2378-23.1983,23.2378
		c-12.8222,0-23.2187-10.83-23.2187-23.2378h-20.8901c0,12.4078-10.396,23.2378-23.2183,23.2378
		c-12.8022,0-23.1982-10.83-23.1982-23.2378h-20.8902c0,12.4078-10.396,23.2378-23.2182,23.2378
		c-12.8023,0-23.1983-10.83-23.1983-23.2378h-20.8901c0,12.4078-10.396,23.2378-23.2183,23.2378
		c-12.8222,0-23.1982-10.83-23.1982-23.2378h-20.8902c0,12.4078-10.396,23.2378-23.2182,23.2378
		c-12.8223,0-23.2178-10.83-23.2178-23.2378h-20.8711c0,12.4078-10.3955,23.2378-23.2178,23.2378
		c-12.8222,0-23.2177-10.83-23.2177-23.2378h-20.8907c0,12.4078-10.3759,23.2378-23.1982,23.2378S111.4155,12.4078,111.4155,0
		H90.5249c0,12.4078-10.3955,23.2378-23.1982,23.2378c-12.8223,0-23.2178-10.83-23.2178-23.2378h-20.792
		c-0.0591,5.8394-2.5249,11.836-6.7861,16.1167c-4.3199,4.3204-10.3169,6.7461-16.4322,6.7461C0.0791,22.8628,0,22.8238,0,22.8238
		v20.5547c12.7632,0,23.1987,10.396,23.1987,23.228S12.7632,89.8345,0,89.8345v20.9102c12.7632,0,23.1987,10.3955,23.1987,23.2177
		c0,12.8223-10.4355,23.2281-23.1987,23.2281v20.8999c12.7632,0,23.1987,10.4062,23.1987,23.2383
		c0,12.8222-10.4355,23.2177-23.1987,23.2177v20.9102c12.7632,0,23.1987,10.3955,23.1987,23.2178
		c0,12.832-10.4355,23.2382-23.1987,23.2382v20.8999c12.7632,0,23.1987,10.396,23.1987,23.2281
		c0,12.8222-10.4355,23.2177-23.1987,23.2177v20.9102c12.7632,0,23.1987,10.396,23.1987,23.228
		c0,12.8321-10.4355,23.2281-23.1987,23.2281v20.9003c12.7632,0,23.1987,10.4053,23.1987,23.2276
		c0,12.8222-10.4355,23.228-23.1987,23.228v20.8999c12.7632,0,23.1987,10.3965,23.1987,23.2383
		c0,12.8223-10.4355,23.2178-23.1987,23.2178v20.9101c12.7632,0,23.1987,10.3955,23.1987,23.2178
		c0,12.8223-10.4355,23.2383-23.1987,23.2383v20.8906c12.7632,0,23.1987,10.3955,23.1987,23.2373
		c0,12.8223-10.4355,23.2178-23.1987,23.2178v20.9101c12.7632,0,23.1987,10.3965,23.1987,23.2178
		c0,12.8428-10.4355,23.2383-23.1987,23.2383v20.8896c12.7632,0,23.1987,10.4161,23.1987,23.2383
		c0,12.8223-10.4355,23.2178-23.1987,23.2178v20.9102c12.7632,0,23.1987,10.3955,23.1987,23.2382
		c0,12.8213-10.4355,23.2178-23.1987,23.2178v20.9102c12.7632,0,23.1987,10.3955,23.1987,23.2177
		c0,12.8223-10.4355,23.2178-23.1987,23.2178v21.0088c0,0,0.0791,0,0.0986,0c6.1153,0,12.1123,2.6631,16.4322,7.0029
		c4.3007,4.3008,6.7666,10.6719,6.7861,16.5117h20.792c0-13.1386,10.3955-23.2188,23.2178-23.2188
		c12.8027,0,23.1982,10.0801,23.1982,23.2188h20.8906c0-13.1386,10.3955-23.2188,23.2178-23.2188s23.1982,10.0801,23.1982,23.2188
		h20.8907c0-13.1386,10.3955-23.2188,23.2177-23.2188c12.8223,0,23.2178,10.0801,23.2178,23.2188h20.8711
		c0-13.1386,10.3955-23.2188,23.2178-23.2188c12.8222,0,23.2182,10.0801,23.2182,23.2188h20.8902
		c0-13.1386,10.376-23.2188,23.1982-23.2188c12.8223,0,23.2183,10.0801,23.2183,23.2188h20.8901
		c0-13.1386,10.396-23.2188,23.1983-23.2188c12.8222,0,23.2182,10.0801,23.2182,23.2188h20.8902
		c0-13.1386,10.396-23.2188,23.1982-23.2188c12.8223,0,23.2183,10.0801,23.2183,23.2188h20.8901
		c0-13.1386,10.3965-23.2188,23.2187-23.2188c12.8018,0,23.1983,10.0801,23.1983,23.2188h20.8896
		c0-13.1386,10.3965-23.2188,23.2188-23.2188s23.1982,10.0801,23.1982,23.2188h20.8897c0-13.1386,10.3965-23.2188,23.2187-23.2188
		c12.8223,0,23.1983,10.0801,23.1983,23.2188h20.8896c0-13.1386,10.3965-23.2188,23.2188-23.2188
		c12.8222,0,23.2177,10.0801,23.2177,23.2188h20.8907c0-13.1386,10.3759-23.2188,23.1982-23.2188
		c12.8223,0,23.2178,10.0801,23.2178,23.2188h20.8906c0-13.1386,10.376-23.2188,23.1982-23.2188
		c12.8222,0,23.2178,10.0801,23.2178,23.2188h20.8906c0-13.1386,10.3956-23.2188,23.1983-23.2188
		c12.8223,0,23.2178,10.0801,23.2178,23.2188h20.6338c0.0195-5.8398,2.4863-12.2109,6.7861-16.5117
		c4.3203-4.3398,10.4746-6.9043,16.5898-6.9043c0.0791,0,0.4346-0.0986,0.4346-0.0781V966.064
		c-13.1387,0-23.2188-10.3955-23.2188-23.2178c0-12.8418,10.08-23.2373,23.2188-23.2373v-20.9101
		c-13.1387,0-23.2188-10.3965-23.2188-23.2188c0-12.8222,10.08-23.2373,23.2188-23.2373v-20.8906
		c-13.1387,0-23.2188-10.3954-23.2188-23.2372c0-12.8223,10.08-23.2188,23.2188-23.2188v-20.9102
		c-13.1387,0-23.2188-10.3955-23.2188-23.2178c0-12.8213,10.08-23.2373,23.2188-23.2373v-20.8906
		c-13.1387,0-23.2188-10.416-23.2188-23.2373c0-12.8223,10.08-23.2188,23.2188-23.2188v-20.9092
		c-13.1387,0-23.2188-10.3964-23.2188-23.2187c0-12.8419,10.08-23.2373,23.2188-23.2373v-20.9102
		c-13.1387,0-23.2188-10.3955-23.2188-23.2177c0-12.8223,10.08-23.2188,23.2188-23.2188v-20.9101
		c-13.1387,0-23.2188-10.3956-23.2188-23.2276c0-12.832,10.08-23.228,23.2188-23.228v-20.9097
		c-13.1387,0-23.2188-10.3965-23.2188-23.2182c0-12.8423,10.08-23.2281,23.2188-23.2281v-20.9004
		c-13.1387,0-23.2188-10.4052-23.2188-23.2373c0-12.8222,10.08-23.2182,23.2188-23.2182v-20.9102
		c-13.1387,0-23.2188-10.396-23.2188-23.2182c0-12.8418,10.08-23.2374,23.2188-23.2374v-20.9003
		c-13.1387,0-23.2188-10.4058-23.2188-23.2281c0-12.8217,10.08-23.2182,23.2188-23.2182v-20.9097
		C996.8569,157.7725,986.7769,147.3765,986.7769,134.5445z"/>
	<g>
		<rect x="81.6675" y="81.2339" fill="#EC7175" width="846.3447" height="846.9756"/>
		<path opacity="0.05" d="M920.1411,89.1246v831.1943H89.5386V89.1246H920.1411 M935.9028,73.3628H73.7768v862.7168h862.126V73.3628
			L935.9028,73.3628z"/>
	</g>
</g>
<path id="love-stamp-14-dots-heart" fill="#FEFEFB" d="M247.2026,504.2828c-12.3193-29.3531-19.7661-60.6592-19.9536-93.4346
	c0-1.4102,0.1382-2.7324,0.1382-4.1524c1.9033-0.207,3.8169-0.375,5.7598-0.375c27.6269,0,50.0166,22.3897,50.0166,49.9873
	C283.1636,479.0621,267.9644,498.2266,247.2026,504.2828z M283.1636,317.4732c0-9.9522-2.9492-19.1944-7.9595-26.9663
	c-20.6929,18.6416-36.0991,44.7788-43.3291,76.894c0.4243,0.0196,0.8481,0.0586,1.272,0.0586
	C260.7739,367.4698,283.1636,345.0704,283.1636,317.4732z M419.6807,595.2066c0-27.6074-22.3892-50.0156-49.9869-50.0156
	c-27.6269,0-50.0459,22.4082-50.0459,50.0156c0,9.3701,2.6534,18.1484,7.1407,25.6445c5.7304,5.9375,11.54,11.7373,17.3989,17.3008
	c7.4961,4.4375,16.1855,7.0421,25.5161,7.0421C397.2915,645.1939,419.6807,622.8238,419.6807,595.2066z M369.6938,506.3345
	c27.5977,0,49.9869-22.3896,49.9869-50.0264c0-27.5976-22.3892-49.9873-49.9869-49.9873c-27.6269,0-50.0459,22.3897-50.0459,49.9873
	C319.6479,483.9449,342.0669,506.3345,369.6938,506.3345z M369.6938,367.4698c27.5977,0,49.9869-22.3994,49.9869-49.9966
	c0-27.6074-22.3892-49.9971-49.9869-49.9971c-27.6269,0-50.0459,22.3897-50.0459,49.9971
	C319.6479,345.0704,342.0669,367.4698,369.6938,367.4698z M506.2407,684.0747c-23.7016,0-43.5166,16.4717-48.685,38.6045
	c25.4965,14.3213,44.1772,21.3047,49.059,19.5684c4.8731,1.6973,23.2188-5.3457,48.2618-19.6475
	C549.6685,700.5064,529.8628,684.0747,506.2407,684.0747z M506.2407,645.1939c27.5967,0,49.9971-22.3701,49.9971-49.9873
	c0-27.6172-22.4004-50.0156-49.9971-50.0156c-27.6172,0-50.0561,22.3984-50.0561,50.0156
	C456.1846,622.8238,478.6235,645.1939,506.2407,645.1939z M506.2407,506.3345c27.5967,0,49.9971-22.3896,49.9971-50.0264
	c0-27.5976-22.4004-49.9873-49.9971-49.9873c-27.6172,0-50.0561,22.3897-50.0561,49.9873
	C456.1846,483.9449,478.6235,506.3345,506.2407,506.3345z M506.2407,367.4698c27.5967,0,49.9971-22.3994,49.9971-49.9966
	c0-8.9756-2.3877-17.3789-6.5401-24.6582c-15.5839,11.875-30.7333,26.8081-45.0253,45.0752
	c-13.7295-17.2022-28.2583-31.375-43.1123-42.8262c-3.4229,6.7266-5.3755,14.3115-5.3755,22.4092
	C456.1846,345.0704,478.6235,367.4698,506.2407,367.4698z M642.7769,545.191c-27.6465,0-50.0363,22.4082-50.0363,50.0156
	c0,27.6172,22.3897,49.9873,50.0363,49.9873c7.6933,0,14.9335-1.7959,21.4726-4.8926c8.0879-7.7129,16.0967-15.8203,23.9082-24.2432
	c2.9297-6.3525,4.6064-13.3945,4.6064-20.8515C692.7642,567.5894,670.3843,545.191,642.7769,545.191z M642.7769,506.3345
	c27.6074,0,49.9872-22.3896,49.9872-50.0264c0-27.5976-22.3799-49.9873-49.9872-49.9873c-27.6465,0-50.0363,22.3897-50.0363,49.9873
	C592.7407,483.9449,615.1304,506.3345,642.7769,506.3345z M642.7769,367.4698c27.6074,0,49.9872-22.3994,49.9872-49.9966
	c0-27.6074-22.3799-49.9971-49.9872-49.9971c-27.6465,0-50.0363,22.3897-50.0363,49.9971
	C592.7407,345.0704,615.1304,367.4698,642.7769,367.4698z M729.2778,456.3081c0,21.9356,14.1241,40.5176,33.7617,47.2745
	c12.4971-30.024,19.8838-61.9908,19.7071-95.4366c0-0.5429-0.0498-1.0752-0.0498-1.6474c-1.1436-0.0596-2.2481-0.1778-3.4024-0.1778
	C751.687,406.3208,729.2778,428.7105,729.2778,456.3081z M778.4067,367.4205c-6.9541-31.6216-21.8076-57.3946-41.6425-76.1739
	c-4.7247,7.6441-7.4864,16.5996-7.4864,26.2266C729.2778,344.7745,751.1938,366.9078,778.4067,367.4205z"/>
</svg>
