<?xml version="1.0" encoding="utf-8"?>
<!-- Generator: Adobe Illustrator 17.1.0, SVG Export Plug-In . SVG Version: 6.00 Build 0)  -->
<!DOCTYPE svg PUBLIC "-//W3C//DTD SVG 1.1//EN" "http://www.w3.org/Graphics/SVG/1.1/DTD/svg11.dtd">
<svg version="1.1" id="love-stamp-27" xmlns="http://www.w3.org/2000/svg" xmlns:xlink="http://www.w3.org/1999/xlink" x="0px"
	 y="0px" viewBox="0 0 1009.9956 1009.9956" enable-background="new 0 0 1009.9956 1009.9956" xml:space="preserve">
<g id="love-stamp-27-stamp">
	<path fill="#FEFEFB" d="M986.7769,134.5542c0-12.8418,10.08-23.2373,23.2188-23.2373V90.4263
		c-13.1387,0-23.2188-10.4155-23.2188-23.2378c0-12.8222,10.08-23.2182,23.2188-23.2182V22.8238c0,0-0.3555,0-0.4346,0
		c-6.1152,0-12.1904-2.3867-16.5107-6.7071C988.7895,11.836,986.2446,5.8394,986.1851,0h-20.6338
		c0,12.4078-10.3955,23.2378-23.2178,23.2378c-12.8027,0-23.1983-10.83-23.1983-23.2378h-20.8906
		c0,12.4078-10.3956,23.2378-23.2178,23.2378c-12.8223,0-23.1982-10.83-23.1982-23.2378H830.938
		c0,12.4078-10.3955,23.2378-23.2178,23.2378c-12.8223,0-23.1982-10.83-23.1982-23.2378h-20.8907
		c0,12.4078-10.3955,23.2378-23.2177,23.2378c-12.8223,0-23.2188-10.83-23.2188-23.2378h-20.8896
		c0,12.4078-10.376,23.2378-23.1983,23.2378c-12.8222,0-23.2187-10.83-23.2187-23.2378h-20.8897
		c0,12.4078-10.3759,23.2378-23.1982,23.2378S582.5815,12.4078,582.5815,0h-20.8896c0,12.4078-10.3965,23.2378-23.1983,23.2378
		c-12.8222,0-23.2187-10.83-23.2187-23.2378h-20.8901c0,12.4078-10.396,23.2378-23.2183,23.2378
		c-12.8022,0-23.1982-10.83-23.1982-23.2378h-20.8902c0,12.4078-10.396,23.2378-23.2182,23.2378
		c-12.8023,0-23.1983-10.83-23.1983-23.2378h-20.8901c0,12.4078-10.396,23.2378-23.2183,23.2378
		c-12.8222,0-23.1982-10.83-23.1982-23.2378h-20.8902c0,12.4078-10.396,23.2378-23.2182,23.2378
		c-12.8223,0-23.2178-10.83-23.2178-23.2378h-20.8711c0,12.4078-10.3955,23.2378-23.2178,23.2378
		c-12.8222,0-23.2177-10.83-23.2177-23.2378h-20.8907c0,12.4078-10.3759,23.2378-23.1982,23.2378S111.4155,12.4078,111.4155,0
		H90.5249c0,12.4078-10.3955,23.2378-23.1982,23.2378c-12.8223,0-23.2178-10.83-23.2178-23.2378h-20.792
		c-0.0591,5.8394-2.5249,11.836-6.7861,16.1167c-4.3199,4.3204-10.3169,6.7461-16.4322,6.7461C0.0791,22.8628,0,22.8238,0,22.8238
		v20.5547c12.7632,0,23.1987,10.396,23.1987,23.2382c0,12.8218-10.4355,23.2178-23.1987,23.2178v20.9102
		c12.7632,0,23.1987,10.3955,23.1987,23.2177c0,12.8223-10.4355,23.2383-23.1987,23.2383v20.8897
		c12.7632,0,23.1987,10.416,23.1987,23.2383c0,12.8222-10.4355,23.2177-23.1987,23.2177v20.9102
		c12.7632,0,23.1987,10.3955,23.1987,23.2178c0,12.8422-10.4355,23.2382-23.1987,23.2382v20.9102
		c12.7632,0,23.1987,10.3955,23.1987,23.2178c0,12.8222-10.4355,23.2177-23.1987,23.2177v20.9102
		c12.7632,0,23.1987,10.396,23.1987,23.2378c0,12.8223-10.4355,23.2183-23.1987,23.2183v20.9101
		c12.7632,0,23.1987,10.3955,23.1987,23.2178c0,12.8222-10.4355,23.2378-23.1987,23.2378v20.8901
		c12.7632,0,23.1987,10.3965,23.1987,23.2383c0,12.8223-10.4355,23.2178-23.1987,23.2178v20.9101
		c12.7632,0,23.1987,10.3955,23.1987,23.2178c0,12.8223-10.4355,23.2383-23.1987,23.2383v20.8906
		c12.7632,0,23.1987,10.3955,23.1987,23.2373c0,12.8223-10.4355,23.2178-23.1987,23.2178v20.9101
		c12.7632,0,23.1987,10.3965,23.1987,23.2178c0,12.8428-10.4355,23.2383-23.1987,23.2383v20.8896
		c12.7632,0,23.1987,10.4161,23.1987,23.2383c0,12.8223-10.4355,23.2178-23.1987,23.2178v20.9102
		c12.7632,0,23.1987,10.3955,23.1987,23.2382c0,12.8213-10.4355,23.2178-23.1987,23.2178v20.9102
		c12.7632,0,23.1987,10.3955,23.1987,23.2177c0,12.8223-10.4355,23.2178-23.1987,23.2178v21.0088c0,0,0.0791,0,0.0986,0
		c6.1153,0,12.1123,2.6631,16.4322,7.0029c4.3007,4.3008,6.7666,10.6719,6.7861,16.5117h20.792
		c0-13.1386,10.3955-23.2188,23.2178-23.2188c12.8027,0,23.1982,10.0801,23.1982,23.2188h20.8906
		c0-13.1386,10.3955-23.2188,23.2178-23.2188s23.1982,10.0801,23.1982,23.2188h20.8907c0-13.1386,10.3955-23.2188,23.2177-23.2188
		c12.8223,0,23.2178,10.0801,23.2178,23.2188h20.8711c0-13.1386,10.3955-23.2188,23.2178-23.2188
		c12.8222,0,23.2182,10.0801,23.2182,23.2188h20.8902c0-13.1386,10.376-23.2188,23.1982-23.2188
		c12.8223,0,23.2183,10.0801,23.2183,23.2188h20.8901c0-13.1386,10.396-23.2188,23.1983-23.2188
		c12.8222,0,23.2182,10.0801,23.2182,23.2188h20.8902c0-13.1386,10.396-23.2188,23.1982-23.2188
		c12.8223,0,23.2183,10.0801,23.2183,23.2188h20.8901c0-13.1386,10.3965-23.2188,23.2187-23.2188
		c12.8018,0,23.1983,10.0801,23.1983,23.2188h20.8896c0-13.1386,10.3965-23.2188,23.2188-23.2188s23.1982,10.0801,23.1982,23.2188
		h20.8897c0-13.1386,10.3965-23.2188,23.2187-23.2188c12.8223,0,23.1983,10.0801,23.1983,23.2188h20.8896
		c0-13.1386,10.3965-23.2188,23.2188-23.2188c12.8222,0,23.2177,10.0801,23.2177,23.2188h20.8907
		c0-13.1386,10.3759-23.2188,23.1982-23.2188c12.8223,0,23.2178,10.0801,23.2178,23.2188h20.8906
		c0-13.1386,10.376-23.2188,23.1982-23.2188c12.8222,0,23.2178,10.0801,23.2178,23.2188h20.8906
		c0-13.1386,10.3956-23.2188,23.1983-23.2188c12.8223,0,23.2178,10.0801,23.2178,23.2188h20.6338
		c0.0195-5.8398,2.4863-12.2109,6.7861-16.5117c4.3203-4.3398,10.4746-6.9043,16.5898-6.9043c0.0791,0,0.4346-0.0986,0.4346-0.0781
		V966.064c-13.1387,0-23.2188-10.3955-23.2188-23.2178c0-12.8418,10.08-23.2373,23.2188-23.2373v-20.9101
		c-13.1387,0-23.2188-10.3965-23.2188-23.2188c0-12.8222,10.08-23.2373,23.2188-23.2373v-20.8906
		c-13.1387,0-23.2188-10.3954-23.2188-23.2372c0-12.8223,10.08-23.2188,23.2188-23.2188v-20.9102
		c-13.1387,0-23.2188-10.3955-23.2188-23.2178c0-12.8213,10.08-23.2373,23.2188-23.2373v-20.8906
		c-13.1387,0-23.2188-10.416-23.2188-23.2373c0-12.8223,10.08-23.2188,23.2188-23.2188v-20.9092
		c-13.1387,0-23.2188-10.3964-23.2188-23.2187c0-12.8419,10.08-23.2373,23.2188-23.2373v-20.9102
		c-13.1387,0-23.2188-10.3955-23.2188-23.2177c0-12.8223,10.08-23.2188,23.2188-23.2188v-20.9101
		c-13.1387,0-23.2188-10.3956-23.2188-23.2178c0-12.8418,10.08-23.2378,23.2188-23.2378v-20.9097
		c-13.1387,0-23.2188-10.3965-23.2188-23.2182c0-12.8423,10.08-23.2183,23.2188-23.2183v-20.9102
		c-13.1387,0-23.2188-10.3955-23.2188-23.2373c0-12.8222,10.08-23.2182,23.2188-23.2182v-20.9102
		c-13.1387,0-23.2188-10.396-23.2188-23.2182c0-12.8418,10.08-23.2374,23.2188-23.2374v-20.8906
		c-13.1387,0-23.2188-10.4155-23.2188-23.2378c0-12.8217,10.08-23.2182,23.2188-23.2182v-20.9097
		C996.8569,157.7725,986.7769,147.3765,986.7769,134.5542z"/>
	<g>
		<rect x="81.6675" y="81.2339" fill="#EC7175" width="846.3447" height="846.9756"/>
		<path opacity="0.05" d="M920.1411,89.1246v831.1943H89.5386V89.1246H920.1411 M935.9028,73.3628H73.7768v862.7168h862.126V73.3628
			L935.9028,73.3628z"/>
	</g>
</g>
<g id="love-stamp-27-cupid-arrow">
	<path fill="#9F5F5E" d="M355.3428,269.3257c-1.5484,13.2559,6.7661,30.5562,19.352,46.5445l83.8272,220.6899l-144.2793,62.4932
		c-40.9126-8.6006-75.7295,2.7822-80.0108,12.8818c-3.0967,7.3574,3.0283,14.873,7.0127,18.7402l-13.9956,6.0557l2.5645,5.918
		l13.6411-5.918c-0.0298,5.3262,0.9072,15.9785,8.8369,18.8975c10.4648,3.8671,43.3096-14.2227,65.1172-50.9336l143.4014-62.1182
		l65.2558,171.8369c-1.5195,25.7432,2.9883,51.585,15.041,62.9082c3.3438,3.708,9.7842,8.7188,20.417,9.4092
		c-0.0292,0.1182,0.4044-0.375,0.5031-0.4541c0.0594,0,0.5224-0.4531,0.5625-0.4336l0.0097,0.0391l-0.3847,0.4345
		c0.1972,0,0.1972,0.2168,0.3847,0.2364l-0.1289,0.3554l0.0596-0.1972c0.2568,0.0195,0.4443,0.0595,0.6904,0.0595
		c-0.0889,0.2754-0.1279,0.6895-0.3652,0.5713c0,0.4346,0.6015,0.0596,0.4941,0.7305c0.3154,0.2363,0.0488-0.415,0.2363-0.6514
		l-0.247,0.0791c-0.1573-0.3554,0-0.5127,0.0595-0.6904c0.1582,0,0.3252,0,0.4737,0c-0.0498,0.1777-0.1485,0.335-0.2471,0.2764
		c0.1582,0.1572,0.0986,0.4931,0,0.749c0.1582,0.079,0.5332,0.2764,0.4736-0.1182l-0.0498-0.0986
		c0-0.2764,0.1094-0.3555,0.1582-0.4736c0.2471,0,0.0987,0.4345,0.1387,0.6318c0.3945,0.1777,0.0684-0.9668,0.4043-0.9277
		l0.0488,0.1972c0.0694-0.1181,0.1778-0.1972,0.2364-0.2363c0.04-0.0391,0.0693-0.0391,0.0898-0.0391
		c-0.0205,0.0391-0.0498,0.0782-0.0791,0.1768c0.1973,0.2959-0.1289,0.6709-0.1973,0.9668l0.6114-0.5723
		c0.039,0.1582,0.2168,0.8682,0.3252,0.375l-0.0586-0.0595c0.2558-0.1573,0.167-0.71,0.3847-0.5127
		c0.0196,0.1181-0.0302,0.3359-0.0595,0.4345c0.207,0.1377,0.167-0.3164,0.2861-0.4345c0.1973,0.0986-0.0791,0.5722,0.0684,0.7099
		c0.2177-0.5322,0.3554,0.0996,0.5429,0.0596c-0.0693-0.5518,0.296-0.8682,0.3555-1.2432c0.0977-0.0195,0.1572-0.0195,0.2266-0.0195
		c-0.0196,0.2373-0.0497,0.4736,0,0.6904h-0.3456c0.1191,0.9864,0.701-0.6709,1.0058,0.3946
		c0.2079,0.04,0.1387-0.0987,0.5625,0.3359l-0.1474-0.8291c0.2167,0.1582,0.3251,0.6318,0.3251,0.7891
		c0.1182-0.0782,0.2168-0.0782,0.336-0.0391c-0.0205,0.1378-0.0401,0.2363-0.1192,0.2959c0.2168,0.4736,0.2373,0.2764,0.2764,0.0391
		c0.0498-0.2364,0.1475-0.2168,0.2666-0.2364l-0.0596,0.3545c0.0596-0.0976,0.168-0.2168,0.1377-0.3545
		c0.0498-0.0195,0.0996-0.04,0.1289-0.0986c-0.0498-0.1387-0.207-0.6514-0.3847-0.8486c0.4736,0.3154,0.7793,0.0595,1.2724,0.6904
		c0.0391,0.2568-0.0693,0.6113-0.0205,0.6318c0.2276,0.0791,0.3457-0.3945,0.2774-0.75c0.0293-0.0595,0.0683-0.0595,0.0976-0.0595
		c0.0694,0.2177,0.1485,0.415,0.2569,0.4541c0.0293,0.0791,0.0791,0.1181,0.1377,0.1582c-0.0586-0.6905,0.375-0.4346,0.3847-0.7696
		c-0.0986-0.04-0.1972-0.0195-0.2851,0.0391c0.0586-0.4932,0.0683-1.0254,0.2656-0.71c-0.1777,0.5127,0.4434,0.6514,0.0596,0.9278
		c0.4931,0.789,0.039-0.6514,0.414-0.4151l0.4043,0.4541c0.1084,0.4932-0.582-0.0791-0.0693,0.6709
		c-0.2656,0.0791-0.6904,0.1377-0.8877,0.6309l0.6904,0.0596c0.375-0.3946,0.8389-0.5332,1.3028-0.6905
		c0.4727-0.1777,0.877-0.4345,1.0546-1.0654h-0.0292c0-0.0596-0.0293-0.1387-0.0792-0.3154l0.0792,0.0986v-0.4141
		c0.3251,0.3741,0.6503,0.3741,1.0253,0.6309c-0.2656-0.2363-0.2656-0.2363-0.414-0.5918
		c-0.1182-0.4736-0.1778-0.6904,0.1084-0.6113c0.1377,0.3545-0.0196,0.3945,0.2568,0.6113
		c-0.1582-0.1387-0.1582-0.4141-0.0791-0.4932c0.2168,0.1778,0.4541,0.1182,0.5723,0.4541c0,0.1377-0.1084,0.0391-0.168,0
		c-0.0195,0.1182,0.375,0.1973,0.2861,0.5518l0.2071-0.1973c0.2763,0.2168,0.0888,0.4541,0.2168,0.6114
		c0.3261-0.3946,0.207-1.2227,0.4345-1.6172c0.0791,0.1972,0.4043,0.9072,0.3155,0.7099c0.3847,0.0791,0.2265-1.0654,0.4629-1.2822
		c0.0898,0.2373-0.0782,0.2168-0.1377,0.3555c1.0947-0.2178,1.8252-0.6319,3.1074-0.5918l-0.2764-0.8291l0.5421,0.2568
		c1.1943-0.2373,1.5195-1.2432,2.0615-2.1504c0.1875-0.2568,0.5528,0.2569,0.8389,0.2764c0.5615-0.4932-0.0303-1.2227,0.2168-1.874
		c0.1475,0.2363,0.6113,0.789,0.8281,0.5517c-0.1572-0.1767-0.4238-0.4336-0.207-0.4922l0.1387,0.2364
		c0.4044,0.0586,0.2168-0.2959,0.5615-0.4932c0.3359-0.5527,0.1484-1.4209-0.4336-2.249c0.3057-0.4336,0.7695,0.4541,0.957,0.4336
		c-0.4541,0.2177,0,0.3164,0.2168,0.5332c-0.1083-0.2959-0.1385-0.5918,0.463-0.4336c0.0898-0.2764,0.168-0.4151-0.0587-0.8291
		c0.1182,0.2168-0.2265,0.2168-0.4238-0.0196c0.3057-0.1376,0.3154-0.789,0.9863-0.4931c0.375-1.3418,0.9171-2.8408,1.0742-4.2813
		c-0.3252-0.2949-0.1767,0.1582-0.414,0c-0.4336-0.4336,0.2959-0.2754-0.0684-0.5918l0.3945,0.1582
		c0.0987-0.414-0.6015-0.9072-0.957-1.3213c0.4434,0.0987,0.3945-0.3154,0.6611,0.0586c-0.0595-0.1972,1.962-0.374,1.5782-0.5517
		l-1.9043,0.1777c-0.2168-0.04-0.0586-0.2969-0.2168-0.2568c0.375-0.1582,0.8193-0.375,0.8388-0.4932
		c0.4629-0.0596,0.3545,0.2559,0.3545,0.4141c0.8096,0.0596,0.5332-0.5528,1.2432-0.2959c-0.1182-0.375-0.4043,0.0596-0.7002-0.1778
		l0.1572-0.3154l-0.2558,0.2363c-0.2266-0.2558-0.8291-0.3349-0.4043-0.6699l-0.8086-0.3164
		c0.6308-0.0586,0.1181-0.2558,0.2363-0.4336l0.4141,0.0791c-0.0293-0.2373,0.0595-0.3349,0.2959-0.4931
		c0.5722,0.0791-0.128,0.1972,0.4238,0.2363l0.1484-0.2755c-0.3652,0.0391-0.6416-0.1191-0.8486,0.0781
		c-0.6904-0.1777-1.2422-0.2558-1.2617-0.8281c0.5918-0.3555,0.5918,0.2168,1.1631,0.0586
		c0.1972-0.6895-1.6573-0.5713-1.6367-0.9268c0.1865-0.4541-0.3654-0.3545-0.5031-0.7685c0.4434,0.0586,0.3946-0.375,0.7686-0.5332
		l0.4736,0.0791c-0.1582-0.0987-0.039-0.2569,0.2764-0.2959c-0.542,0.1181-0.6319-0.4737-0.9668-0.6905l-0.4434,0.1572
		c-0.2177-0.1973-0.6025-0.4531-0.5332-0.7295c-0.2363-0.3154-0.6308-0.1182-1.2031-0.2568
		c0.3848-0.2559,0.8682-0.375,1.4004-0.4727c-0.207,0.1572-0.0293,0.2949-0.1475,0.4727c0.542,0.3555,1.5977,0.4941,1.4893,1.0264
		c1.164-0.04-0.1973-0.2959,0.1377-0.6123c0.0693-0.0195,0.1084,0,0.1084,0.0205c0-0.0205,0-0.04,0.0107-0.0596
		c0.1973,0.1191,0.4337,0.375,1.0156,0.2959c-0.1679-0.2764-1.1835,0.04-0.7597-0.4336c-0.375-0.1777,0.4433-0.6318,0.4931-0.7891
		c-0.4834-0.0986-1.3711,0.1377-1.3017-0.3154h0.6504c-0.1084-0.4941-0.9766,0.0391-1.0742-0.4141
		c-0.0206,0.1572-0.6514,0.0391-0.5821,0.3145c-0.3652-0.0195-0.5234-0.335-0.4248-0.5918c-0.1181-0.0586-0.207,0.04-0.414,0.0996
		c-0.3848,0.375,0.5322,0.2559-0.0293,0.6504h0.7197c-0.168,0.2959-0.7197,0.4541-1.0254,0.3945
		c0.0488,0.0596,0.1572,0.0986,0.0488,0.1777c-1.0156,0.3154,0.2862-0.3945-0.5918-0.2363l0.1192,0.1572
		c-0.0498,0-0.0694,0.0205-0.0996,0.04c-0.0098-0.1387-0.0391-0.2764-0.0684-0.375c0.0586-0.2168,0.1182-0.2363,0-0.4736
		c-0.04,0-0.0596,0.04-0.0791,0.04c-0.0195-0.04-0.0293-0.1387-0.04-0.1973c0.0792-0.0801,0.1777-0.1387,0.3261-0.1777
		l0.2959,0.2363c0.3448-0.2959-0.3349-0.3359-0.3847-0.5127c0.0595-0.0596,0.0986-0.0791,0.1377-0.1182
		c-0.0391,0.0391-0.0782,0.0586-0.1377,0.0586c0.0195-0.0586,0.0595-0.0986,0.1679-0.1582
		c-0.0205-0.1768-0.4052-0.3145-0.2861-0.5117l-0.375,0.1377c0-0.04-0.0293-0.0986-0.0293-0.1377
		c0.1475-0.0996,0.2959-0.1973,0.4141-0.2373c0.6904-0.1777,0.1279,0.3154,0.3945,0.4141c0.6016-0.335-0.0498-0.374,0.2363-0.8877
		c0.7598-0.1182,0.1485,0.4141,0.8184,0.2568c0-0.335-0.5127-0.2373-0.4531-0.5918c0.3349-0.0791,0.4736,0.1973,0.8974,0.0391
		l0.1084-0.2764c0.2169,0.4941,0.8184-0.4336,1.1348-0.0781c0.2168-0.2959-0.6416-0.0596-0.3164-0.4932
		c-0.2656,0.1973-0.7393,0.6309-1.1045,0.4736l0.0986-0.375c0.2863-0.2568,0.8488,0.0195,1.0557-0.2764l-0.3555-0.2168
		c-0.1973,0.0791-0.2462,0.2764-0.5714,0.3154c0.167-0.2568-0.9179,0.0195-1.2929-0.0195
		c-0.0489-0.1582-0.0489-0.2959,0.1582-0.4541c-0.7598-0.1182-0.9766-0.6113-1.6866-0.6514c0.503,0,0.6514-0.3545,0.8682-0.6504
		c0.2266,0.2168,0.8672-0.0986,1.252-0.3154c-0.167-0.1387-0.8672,0.0791-1.0352,0.2363c0.1084-0.3945-0.5127,0.0791-0.2168-0.3945
		c0.1182-0.2764,0.6309-0.2568,0.8281-0.4336c-0.1474-0.3154-0.7695,0.3154-0.8281-0.0791
		c0.0781-0.0391,0.1182-0.0195,0.2168-0.0986c0.0391-0.2764-0.375-0.2959-0.7002-0.1377c0.6904-0.6914-0.3848-0.4736,0.375-0.9082
		c-0.4736-0.2959-0.3555,0.3359-0.6611,0.4141c-0.4239,0.0205-0.3653-0.4727-0.3252-0.6309
		c0.0791,0.0791,0.3447,0.0596,0.2861,0.2363l0.4434-0.4336c0-0.7891-1.3418,0.4541-1.253-0.335
		c0.4248,0.0391,0.4248-0.1973,0.8682-0.3359c-0.1777,0.04-0.3252-0.4531-0.5225,0.0596c-0.1084-0.2168-0.1084-0.4141-0.1377-0.5918
		c-0.2968-0.0391-0.5722-0.0986-0.9472,0.0791c-0.1485-0.3154,0.0293-0.75,0.1084-1.0459
		c-0.7696-0.1973-0.6807-1.1836-1.5489-1.3213l0.0098,0.0586c-0.3349-0.4531-0.3447,0.75-0.7686,0.3555
		c0.5517-0.5127,0.088-0.5918,0.1875-1.0059c-0.336-0.7891-1.293-0.3555-1.5391-1.125c0.0791-0.1182,0.1582-0.2959,0.2764-0.2363
		c-0.2764-0.4736-0.4932-0.375-1.1446-0.8877l0.0596-0.0791c0.2656-0.3154-1.2822-0.5518-2.042-0.6709
		c0.0986-0.0586,0.2471-0.2959,0.3252-0.375c-0.2851-0.2949-0.8281-0.6113-1.331-0.0781c-0.1583-0.8291-0.335,0.1182-0.6514-0.75
		c0-0.1377,0.0791-0.0791,0.1191-0.0986c-0.1972-0.335-0.415-0.3154-0.6816-0.4932c-0.7891,0.2764-1.1338,1.1641-1.7656,0.75
		c0.1582-0.9863,0.4843-0.1582,0.6914-0.9277c-0.2071,0.1387-0.375,0.2959-0.5332,0.04c0.2265-0.3945,0.0986-0.2568,0.247-0.5918
		c-0.1084-0.2959-0.8388,0.9268-0.789,0.8281c-0.0498,0.1777-0.0498,0.2959,0.1084,0.2959
		c-0.2666,0.5723-0.711-0.0791-1.0948,0.1182c0.1182,0.04,0.4336,0.2959,0.2364,0.75c-0.4239-0.2959-0.7198,0.6514-1.0459,1.0254
		c-0.3643-0.5127,0.3847-0.8086,0.3945-1.5381c-0.0195-0.2373-0.3945-0.8877-0.1768-1.1445
		c-0.3847-0.1973-1.3418,0.3154-1.3515,0.4736l0.0293-0.2168c-0.0293,0.1182-0.7891,0.9463-1.1631,0.5322l0.3447,0.2764
		c-0.0791,0.0986-0.2363,0.0596-0.375,0.4541c0.0303-0.3555-0.2363-0.6318-0.1377-0.9082
		c-0.2168,1.0459-1.0254,0.6709-1.2031,1.6973c-0.1387-0.2764-0.04-0.7109-0.0303-0.9668c0.3057,0.0986,0.3946,0.2959,0.5332-0.1191
		c-0.2177,0.0205-0.4248-0.2559-0.3847-0.5127c-0.2276,0.6904-0.7696,0.9668-0.8389,1.6572
		c-0.1875-0.3154-0.375-0.4932-0.3545-1.0654c-0.7002,0.415,0.4932,1.6963-0.3154,1.7363c-0.3946-0.4932,0.3056-0.75-0.2276-0.8877
		l0.0791-0.0986c-0.5224-1.3809-0.1279,1.0459-0.5527,1.0459c-0.1475-0.75,0.207-0.5723-0.1182-1.1055
		c-0.3847,0.2568-0.3545,1.4004-0.7587,1.2432v-0.3555c-0.2276,0.1182-0.7208,0.04-0.9375,0.1582
		c-0.0391-0.1582-0.0197-0.1377,0.0195-0.1777c-0.5029-0.1973-0.0781,0.4141-0.5918,0c0,0.0596-0.0098,0.0986-0.0098,0.1777v0.1973
		c0.257,0.2168,0.7003,0.4932,0.8184,0.0195c-0.0586,0.2568,0.0595,0.4736,0.207,0.71c-5.6611,2.0918-9.0537,7.0234-8.6201,11.0078
		c0.4736,4.5566,0.3252,8.2256,2.8701,11.4014c-2.7119-1.6962-5.8584-5.8584-10.3066-15.0508
		c-2.9785-6.1943-4.2715-14.5585-3.8467-24.6386c0-0.1572,0.0391-0.2959,0.0596-0.4337c0-0.2372,0-0.4736-0.0204-0.75
		c0.2275-4.3193,0.7695-8.9561,1.5878-13.8877c0.0303,0,0.0303,0,0.0498-0.0391c0,0.0391-0.0195,0.0391-0.0498,0.0391
		c0.1182-0.5918,0.2178-1.1836,0.3155-1.7754c0.2666-0.0977,0.7011-0.9463,0.3164-0.335c-0.0791-0.0791-0.1387-0.0791-0.2471,0
		c0.0205-0.1181,0.0498-0.2363,0.0693-0.3349c0.0889,0,0.1377,0.0586,0.1778,0.2558l0.1279-0.9863
		c0.4346-0.5322,0.3652,0.4932,0.6016,0.2959c0.1084-1.1836-0.1182-2.0713-0.2364-2.998c0.0791-0.3946,0.1768-0.8086,0.2666-1.2237
		c0.2754,0.0996,0.5616,0.1973,0.4336,0.1387c0.335-0.6904,0.168-1.5977,0.0791-2.5059c0.1084-0.414,0.2071-0.8476,0.3057-1.2617
		c1.2617-3.5703,2.3174-6.6084,4.1621-9.8047l-0.4337-1.2421l0.8477-0.7891c1.8838-3.6895,2.5351-6.8457,3.748-10.6328
		c0.3947-1.1641,0.799-0.4737,1.2324-0.9072c1.086-2.5049,0.4844-3.4522,1.293-5.879c0.0684,0.3946,0.5127,1.2432,0.9863,0.2373
		c-0.1582-0.3164-0.4443-0.5722-0.0498-1.1835l0.1084,0.4335c0.5918-0.4335,0.4834-1.124,1.1348-2.288
		c0.8975-2.17,1.252-4.4385,1.1934-6.5694c0.8974-1.8935,0.7099,0.5332,1.0352,0.2569c-0.8672,1.2226-0.2656,0.9863-0.1378,1.3808
		c0.0889-0.7695,0.3546-1.6963,1.0459-1.8349c0.3947-0.9864,0.6113-1.42,0.6699-2.5645c-0.0195,0.5723-0.5029,0.8682-0.5517,0.2764
		c0.542-0.71,1.2627-2.8408,1.8935-2.4268c1.9532-4.7344,4.4776-9.8428,6.7862-14.7949c0.0693-1.0059-0.4248,0.5723-0.4444,0
		c0.1387-1.4199,0.6905-0.8281,0.7989-1.9727l0.1777,0.5723c0.7305-1.4199,0.7988-3.2744,1.1348-4.832
		c0.2949,0.4336,0.8867-0.9864,0.5615,0.2949c0.2666-0.71,2.4951-0.6699,2.3877-1.3613l-2.0625-0.0586
		c-0.167-0.1387,0.415-1.0254,0.2373-0.9864c0.6318-0.4335,1.3808-0.9863,1.5781-1.3808c0.5225,0-0.0791,1.0058-0.3447,1.5586
		c0.6699,0.4336,1.3906-1.6964,1.6465-0.5528c0.4638-1.3017-0.4532,0-0.3653-0.8476l0.6612-1.0059l-0.6514,0.71
		c0.2275-0.9863-0.1572-1.5586,0.7998-2.5645l-0.0986-1.539c0.6308,0.1377,0.542-0.8682,0.9863-1.4405l0.1572,0.5723
		c0.3848-0.8476,0.6416-1.124,1.0948-1.5381c0.2666,0.71-0.4825,0.6905-0.1182,1.124l0.6416-0.8281
		c-0.3262-0.1582-0.3066-0.8681-0.8086-0.2959c-0.1973-1.1445-0.4736-1.8545,0.6309-3.9853
		c1.0156-0.7295-0.0293,1.2822,0.7197,1.1445c1.3115-2.1309-0.0986-3.4326,0.582-4.6953c1.0361-1.5587,0.4736-1.6964,1.2432-3.4121
		c0.1279,0.7099,0.9668-1.0059,1.4892-1.125l0.0586,0.8486c0.1084-0.4931,0.4151-0.8486,0.6123-0.8086
		c-0.2861-0.415,0.6895-2.4267,0.9766-3.6103h-0.5234c0.2959-0.9864,0.6113-2.3867,1.1543-3.334
		c0.0889-0.1973,0.1181-0.375,0.1679-0.5322c0.3545-0.71,0.7002-1.4405,1.0255-2.17c0.1182,0.0791,0.2363,0.1973,0.335,0.2959
		c-0.3946,0.2959-0.5713,1.0059-1.0059,1.5782c-0.4637,1.9921-0.1971,3.8662-1.2724,5.582c0.671,1.2831,0.4443-1.2813,1.2335-1.9922
		c0.0585,0.0596,0.0389,0.1191,0.0195,0.1973c0.039-0.0782,0.0986-0.1377,0.1474-0.1973c-0.207,0.7109-0.5322,1.8545-0.0488,2.2891
		c0.3848-1.1641-0.6904-1.3028,0.3848-2.4268c0.1875-1.1641,1.4004-1.6182,1.7558-2.1894c-0.0791-0.8682-0.9179-1.2627,0-2.8604
		l0.2754,0.9863c0.8682-1.874-0.4726-1.2627,0.3555-3.0185c-0.375,0.6123-0.3252-0.8086-0.8682,0.3154
		c-0.0693-0.71,0.4444-2.0117,1.0264-2.8799c0.0293-0.2363-0.0986-0.1972-0.2568-0.2363c0.0888-0.1581,0.1582-0.335,0.2265-0.5127
		l0.6221-0.5527c-0.1973,0-0.2373-0.1182-0.2373-0.3155c0.2373-0.5127,0.4639-1.0263,0.6807-1.5781
		c0.207,0.1377,0.3261,0.4932,0.4043,0.8682l-0.128,0.1377c0.3155,0,0.3448,0.1181,0.7491-0.4541
		c-0.0977-0.5518-0.6993-0.335-0.9659-0.71c0.1866-0.4141,0.3741-0.8486,0.5323-1.2432c0.2861-0.5117,0.4736-1.3603,1.1445-2.2675
		c0.4434,0.8867-0.7207,1.7353-0.2168,2.3271c0.6016-1.1435,0.2559-1.6767,0.9463-2.8799c0.2471,0.2959-0.2363,1.5391,0.2168,1.6368
		l0.5127-0.7491c-0.7686,2.0323,1.0068,0,0.5429,1.6573c0.5723-0.6309-0.1582-1.2823,0.7198-2.1504
		c-0.4141,0.1582-1.3018,0.789-1.1631-0.3155l0.6601-1.0654c0.5332-0.3555,0.2471,1.499,0.8184,0.8486l0.2568-1.3017
		c-0.2168-0.0401-0.542,0.4922-0.7002,0.0195c0.503-0.5918-0.3252-1.4404-0.3154-2.3867c0.2568-0.6318,0.4932-1.1445,0.8184-1.2628
		c0-1.5781,0.542-3.2949,0.6709-4.8135c0.0586-0.1387,0.1084-0.2763,0.1377-0.414c0.2275,0.3154,0.7304-0.375,1.1445-0.8086
		c-0.3057,1.2422,0.3447,1.4785,0.7988,1.5576c0.1778-0.8086-0.3447-1.499-0.6904-1.2031c0.6904-1.1436-0.1777-0.9864,0.6406-1.9131
		c0.4346-0.6514,0.5332,0.5322,0.8389,0.375c0.4639-1.3223-0.6709-0.6123-0.0791-2.0518c0.0596,0.1182,0.0596,0.2764,0.2168,0.1973
		c0.3847-0.7696,0.3262-1.6963,0.0303-1.9932c1.1142-0.5713,0.5615-2.3867,1.3808-2.0312c0.2764-1.9727-0.543,0.1972-0.75-0.2569
		c-0.1671-0.8877,0.5322-2.249,0.75-2.6826c-0.0791,0.4736,0.0488,0.9668-0.2178,1.3809l0.711-0.2364
		c1.0156-2.3086-0.9668-1.8544,0.1084-4.0439c0.0097,1.2822,0.3447,0.5128,0.6211,1.2031
		c-0.0596-0.3945,0.5322-2.1504-0.1778-1.1836c0.2569-0.8486,0.503-1.4209,0.75-1.9922c-0.0498-0.8291-0.0097-1.6962-0.3252-2.2295
		c0.3643-1.2031,0.9766-2.0117,1.3506-2.5449c0.128-2.6426,1.3615-4.832,1.4405-7.6338l-0.0694,0.1973
		c0.0889-0.3545,0.1084-0.5723,0.0889-0.6904c0.2266-0.8477,0.4433-1.6963,0.6308-2.5449c0.0206,0,0.0303,0,0.0303-0.0196
		c0.2266-0.6709,0.3848-1.3418,0.4531-1.9922c0.3848-1.5781,0.7403-3.1367,1.0655-4.7148c0.0195,0.1182,0.0195,0.2168,0,0.3555
		c0.5918-1.8545,0.7002-3.3936,1.0654-5.0704l0.0693,0.0791c0.6797-1.6767,0.8086-3.3339,0.8975-5.0693
		c0.167-0.8682,0.3252-1.7363,0.4834-2.584c0.0293,0.0391,0.0586,0.0782,0.0781,0.1377c0.3164-1.0654,0.6612-2.624,0.6016-3.7881
		c0.2178-1.3213,0.4443-2.6035,0.6416-3.8662c0.0596-0.0986,0.0693-0.1767,0.1475-0.3349c0.1484-0.0987,0.0791,0.2558,0.0791,0.3945
		c0.4443-1.0255,0.4736-1.7755,0.7099-2.8408c0-0.7295-0.0977-1.3018-0.207-1.835c0.0888-0.4726,0.1484-0.9267,0.207-1.4199
		c0.1094-0.1378,0.207-0.5527,0.3262-0.2559c0,0.4336-0.2666,0.6504-0.3945,1.045c0.4726,0.9863,0.2753-1.8536,0.6503-0.4727
		c0.0694-0.3945,0.0098-0.7109-0.0293-1.0264l-0.4931,0.3545c0.0596-0.3545,0.1181-0.709,0.168-1.0644
		c-0.0206,0.3349,0.0292,0.5918,0.3154,0.6504c-0.1084-0.5723-0.2168-1.084,0.1387-1.8145
		c0.3046,0.5332,0.2265,0.1387,0.5517,0.5127c0.2861-0.4541-0.4238-1.9922-0.582-2.3867c0.2763-1.9131,0.4834-3.7481,0.7002-5.4639
		c0.1084,0.0391,0.207,0.1572,0.247,0.335c0.2461-0.9766-0.1972-1.9229-0.2861-2.7813c0.5723-4.9121,1.4004-6.9438,0.7002-10.6718
		l0,0l0.3154,0.1084c0.0791-1.0752,0.2666-1.608,0.2666-1.608l-0.4736-0.0297c0-0.1475,0.0293-0.2862,0.0293-0.4239l0.0195-0.0791
		c0,0,0.0098,0,0.0098-0.0195h-0.0488h-0.128h-0.3252H613.02c-1.1837,0-2.3281-0.0195-3.1964,0.1084l-1.1738-0.1084
		c0.1191-0.207,0.4639-0.375,0.6816-0.4932c1.7061,0.2564,2.0606,0.4932,3.3731,0.1973c-1.46-0.1084-2.3975-0.4932-2.0127-0.6904
		c-1.0156,0.2168-2.3672,0.2959-3.5303,0.4336l-0.8585,0.0888l-0.168,0.0098c-0.0595,0-0.0986,0.0498-0.1572,0.0498l-0.2275,0.0688
		c-0.0293,0-0.0391,0-0.0694,0.0201l-1.4785-0.1485c-0.2373-0.1875-0.375-0.4043-0.2275-0.6806c-1.0752,0-1.1934,0.247-1.085,0.5332
		l-1.1445-0.0987c-0.6602-0.7104-0.9463-0.5131-1.2715-0.1386l-1.332-0.128c-0.0586-0.0493-0.0684-0.059-0.1475-0.1181
		c-0.1484,0-0.2861,0.0293-0.4345,0.0591l-6.46-0.6607l-10.0703-7.8711l111.2275-48.1719
		c-7.7529,8.837-9.0254,19.6573-5.287,29.6289c5.3067,14.1045,21.3145,21.0582,36.0801,15.5049
		c17.4873-6.5688,26.8183-20.9687,35.0342-35.2314c7.8213-13.6699,20.6533-39.8076,23.6621-46.4556l-0.0987-0.2563
		c-6.6582-3.0186-33.5644-14.3614-48.458-19.4903c-15.5449-5.3061-32.0752-9.9716-49.5537-3.4121
		c-14.498,5.4444-22.3885,20.9492-16.9745,35.2901c3.6299,9.706,11.294,16.896,22.2422,18.8486l-113.6445,49.2275l-8.1465-6.3418
		l-1.2334-21.9853c0.0889-0.0689,0.1182-0.1377,0.1084-0.2764l-0.1084,0.0596v-0.0396c0.543-0.5918,0.04-0.8676,0.9668-1.2822
		c0.1875,0.0396,0.0596,0.3745,0.0791,0.4932c0.0791-0.0591,0.1875-0.1187,0.2461-0.1284c0.0596-0.0689,0.1387-0.1084,0.1972-0.1675
		c0.0791-0.1084,0.129-0.1973,0.1875-0.2959c0.0889-0.1973,0.1192-0.3745,0.375-0.6314c0.9473-0.4834-0.1181,0.7696,0.7002,0.4043
		c0.71-1.1338,1.6866-1.0058,2.5547-1.6269c-0.5722-0.2764,1.0157-1.6968,1.3116-2.3574l0.9668-0.6416
		c-0.0684,0.3159-0.0587,0.5917,0.2568,0.6118l-1.7061,1.144c0.8379,0.6314,3.1856-2.9394,4.9112-2.791
		c0.9267-0.5723,0.6318-0.5625,2.6142-1.292l-0.789-0.5229c0.2558-0.1285,0.4727-0.1675,0.6796-0.2271
		c0.0997-0.0195,0.1583-0.0195,0.2666-0.0195c0.1084-0.0396,0.1778-0.0396,0.2764-0.0591c0.3252-0.02,0.5331,0.0195,0.5918,0.0786
		c0.6611-0.5225,1.2529-0.917,1.9434-1.3608c-0.0596,0.207-0.2071,0.4438-0.5821,0.769c1.3116-0.3252,1.4102-0.769,1.46-1.1045
		c0.0488-0.0791,0.1084-0.168,0.167-0.2563c0-0.0201,0-0.0396,0.0098-0.0591l0,0l-0.0098,0.039
		c0.1191-0.1972,0.2666-0.3745,0.4736-0.5224l0.2276-0.1875h0.207c0.0391,0,0.0684,0.0098,0.0488,0l-0.0097-0.0591l-0.1778-0.6216
		c0.2071,0.2862,0.424,0.6016,0.6211,0.8975c-0.2461-0.5718-0.5517-1.2725-0.7391-1.3511
		c-0.0499-0.1084-0.0988-0.1875-0.1182-0.3057l0.0488-0.02c-0.0683-0.1377-0.1084-0.2563-0.1875-0.3945
		c-0.0293-0.0889-0.0781-0.1973-0.0683-0.2564c0,0,0,0.0201,0,0.0591c-0.0303-0.0591-0.0596-0.0786-0.0596-0.1181
		c0-0.0591,0-0.0987-0.0693-0.0987l0,0c-0.4141-0.6806-0.7393-1.3115-1.1241-1.9726c-0.1084-0.2168-0.2568-0.4141-0.3652-0.6114
		l-0.1182-0.375c-0.0693-0.2861-0.1679-0.5224-0.2168-0.789c-0.1386-0.5523-0.247-1.0654-0.3154-1.6572
		c0.2656-0.0293,0.9365,0.6709,0.8574,0.4345c-0.3545-1.0849-1.3017-1.9531-1.5879-1.7168
		c-0.1377-0.1875-0.2363-0.3545-0.3154-0.5029c0.1084-0.2861,0.1875-0.6211-0.0098-1.1143c0-0.1484-0.0292-0.3457-0.1972-0.6709
		c-0.7695,0-1.499-1.9921-2.0117-2.2089c0.1875,0.4531,0.4922,0.9863,0.8183,1.499c-0.8183-0.5527-1.6767-0.9273-1.7168-1.6963
		c1.2237,1.1436-0.2851-1.8447,1.1543,0.1572c-0.1473-1.9428-1.0058-0.4731-1.706-2.1499l-0.3555-1.1836
		c0.5029-0.1186,1.2529,1.4693,1.2529,1.1343l-0.4834-0.6611c0.7598,0.4931,2.2198,3.2451,3.6104,4.6557
		c-0.5235-1.1538-1.1153-2.3276-1.707-3.4721c-1.5479-1.9131-3.0567-4.1621-4.6553-6.253
		c-1.5879-2.0908-3.2549-3.9848-4.9903-5.1782l0.0987,0.1284c-0.0987-0.04-0.4248,0.0391-0.4248,0.0786l-0.0098-0.207
		l-0.7588-0.3745c-0.2275-0.9966-1.2628-2.3379-1.963-3.6797c0.375,0.898,0.3848,0.898,0.167,1.2236
		c-0.493,0.1973-0.749,0.2168-1.5088-0.8876c0.2666-0.2569,0.8184,0.3745,0.3653-0.5723c0.207,0.5224-0.2764,0.355-0.711-0.0493
		c-0.3545-0.7202-1.1728-1.687-0.917-1.9234c0.3057,0.1778,0.3946,0.4737,0.5225,0.6612c0.3066,0.207-0.7295-1.2432,0.1875-0.6905
		l-1.0156-0.9375c-0.335-0.7695,0.6904,0.0694,0.6308-0.2959c-1.7754-1.499-3.1953-1.7358-4.832-2.998
		c0.1973-0.0596,0.7686-0.6314,0.6113-0.4834c-0.9863-1.292-3.0674-1.7363-4.4482-2.9097c0.3838,0.0196,0.8086,0.5425,1.2627,0.8286
		c-3.8174-3.9848-7.2403-6.934-10.8399-10.7509l-1.5488-0.1973l-0.75-1.2529c-4.0234-3.7579-7.7617-5.7798-12.2109-8.4229
		c-1.4004-0.8584-0.502-1.0161-1.0352-1.6079c-2.9297-2.0122-4.1816-1.6968-7.1601-3.2549c0.5322,0.02,1.5781-0.1772,0.3349-0.9663
		c-0.3349,0.0786-0.7003,0.3154-1.421-0.2764l0.543,0.0098c-0.543-0.7397-1.4199-0.8584-2.8701-1.8447
		c-2.6924-1.4893-5.583-2.357-8.2354-2.6826c-2.3877-1.3018,0.6505-0.6709,0.2656-1.0552c1.5782,1.1343,1.253,0.4634,1.7754,0.4043
		c-1.0254-0.2564-2.1797-0.6704-2.3769-1.4204c-1.3018-0.6114-1.874-0.9073-3.3145-1.1441
		c0.7403,0.0987,1.1446,0.6704,0.4346,0.6118c-0.9668-0.6904-3.7383-1.7065-3.2939-2.2983l-4.7051-2.0024
		c-1.5879-0.6807-3.1861-1.3809-4.7837-2.1202l-9.6763-4.4487c-1.2422-0.1577,0.7598,0.5132,0.0498,0.4536
		c-1.7558-0.2563-1.1245-0.769-2.5449-1.0254l0.71-0.1186c-1.8443-0.9072-4.1226-1.1831-6.0752-1.7163
		c0.4829-0.2759-1.3023-1.0449,0.2758-0.5718c-0.9077-0.355-1.0849-2.7026-1.9331-2.6631l0.1377,2.19
		c-0.1181,0.1572-1.292-0.5723-1.2226-0.375c-0.5918-0.71-1.3418-1.5782-1.874-1.8252c-0.0494-0.5616,1.2426,0.1875,1.9628,0.5625
		c0.4634-0.6905-2.2392-1.6573-0.8584-1.8247c-1.5976-0.6216,0.0396,0.4931-1.0058,0.2861l-1.292-0.8091l0.917,0.75
		c-1.2329-0.3354-1.8936,0.0195-3.1953-1.1245l-1.9141-0.0786c0.1289-0.6514-1.0947-0.6904-1.8242-1.2139l0.7002-0.0884
		c-1.0947-0.5424-1.46-0.8481-2.0322-1.3808c0.8486-0.1973,0.9077,0.5918,1.4111,0.2759l-1.085-0.7593
		c-0.1679,0.3257-1.0556,0.1875-0.3061,0.8091c-1.3809,0.0293-2.229,0.2461-4.9317-1.2134
		c-0.9467-1.1836,1.5782,0.1972,1.3511-0.6118c-2.7021-1.6568-4.1719-0.3545-5.8091-1.2622
		c-1.9926-1.3023-2.1303-0.7496-4.271-1.8345c0.8584-0.0195-1.2724-1.1836-1.4697-1.7363l1.0361,0.0693
		c-0.602-0.207-1.0952-0.5723-1.0063-0.7988c-0.5029,0.2363-3.0376-1.1045-4.4878-1.6177l0.0098,0.5425
		c-1.1934-0.4639-2.9292-1.0557-4.0635-1.8247c-1.874-0.8384-1.6768-0.2466-3.314-0.5328
		c-0.5425-0.8085-0.2173-1.2031,0.3057-1.5185c0.3452,0.4731,1.2231,0.7793,1.9526,1.3511c2.4658,0.8579,4.6953,0.937,6.8555,2.3569
		c1.5283-0.5127-1.5879-0.71-2.4956-1.6567c0.0591-0.0396,0.1577-0.0201,0.2466,0c-0.0889-0.0396-0.1875-0.0987-0.2466-0.1578
		c0.8677,0.3155,2.2886,0.8682,2.7817,0.4336c-1.4209-0.6015-1.5293,0.5132-2.999-0.8476c-1.4004-0.3652-1.9526-1.7461-2.6826-2.21
		c-1.0254-0.0786-1.5186,0.7305-3.4717-0.5718l1.2227-0.059c-2.3077-1.3116-1.5484,0.2168-3.6885-0.9864
		c0.7295,0.4932-1.0357,0.1377,0.4043,0.9668c-0.8877-0.0888-2.4658-0.8974-3.5015-1.7168c-0.3745-0.0786-0.1875,0.168-0.3745,0.336
		c1.085,1.1045,2.2485,0.749,2.9785,1.874l1.2427-0.0889c1.0649,0.8975,0.9272,1.4497,0.0493,1.292
		c0.3452,0.1377,0.6904,0.2266,0.8779,0.4639c-0.2959,1.0547-1.2431-1.1152-2.101-0.5625l0.8979,0.3945
		c0.0196,0.8281-2.2788-0.5527-3.3535-1.2129c-1.0557-0.9765-2.1113-1.707-1.9629-2.2002l1.7456,0.7696
		c-0.6509-0.8482-2.2095-1.0059-3.1562-1.5586c-0.0396-0.0987-0.0987-0.2168-0.1973-0.2959c0.0396,0.0791,0.0396,0.1386,0.02,0.1582
		c-0.1972-0.128-0.3554-0.2959-0.4345-0.4932c-0.8282-0.4736-2.209-0.9272-2.8995-1.519l-0.1381,0.4536l0.2465-0.1577
		c0.7598,0.4536,1.6377,1.2822,0.917,1.2231c-1.8935-0.73-1.8144-1.6572-2.0312-2.2295c0.7295-0.3745,1.6767,0.9668,2.6826,1.3023
		c-0.207-0.8975-1.7363-1.105-3.2744-2.5054c1.0649-0.2363,2.0312,1.2031,2.7812,0.8286c-1.3613-0.937-2.0019-0.6904-3.4131-1.7456
		c0.375-0.168,1.8448,0.6406,1.9629,0.207l-0.8476-0.7299c2.3867,1.3315,0.039-1.065,1.9824-0.1382
		c-0.7104-0.7691-1.5195-0.1675-2.5059-1.292c0.1778,0.4834,0.8682,1.5683-0.4731,1.0947l-1.2036-0.9663
		c-0.3843-0.6216,1.7856,0.1479,1.0654-0.6216l-1.5386-0.6015c-0.059,0.2167,0.5523,0.7099-0.02,0.7099
		c-0.6904-0.6807-1.7554-0.0591-2.8603-0.3349c-0.7691-0.4737-1.3409-0.8682-1.4693-1.2432
		c-2.2387-0.6016-4.6259-2.0908-6.687-2.6431c1.4199,0.3355,0.3447-0.6904-0.1777-1.4204c1.4101,0.7793,1.7851,0.2168,1.9233-0.2168
		c-0.8681-0.4639-1.7754-0.227-1.4897,0.2363c-1.2227-1.0849-1.2129-0.1772-2.1499-1.3608
		c-0.6704-0.6606,0.7397-0.3159,0.6015-0.6904c-1.4594-0.9766-0.8383,0.4536-2.3569-0.7202
		c0.1279-0.0098,0.2959,0.0297,0.2461-0.1475c-0.8086-0.6807-1.9033-1.0063-2.2783-0.8486
		c-0.4238-1.3413-2.6333-1.6172-1.9531-2.229c-2.2188-1.1836,0.04,0.6118-0.542,0.5717c-1.0752-0.2461-2.4463-1.5483-2.8604-2.0019
		c0.5225,0.3349,1.124,0.4536,1.5283,0.8974l-0.0883-0.8085c-2.2984-2.0909-2.4068,0.039-4.5572-2.1109
		c1.46,0.6314,0.7105-0.0889,1.5684,0c-0.4732-0.1186-2.2588-1.6372-1.4004-0.4341c-0.8584-0.6904-1.4302-1.2329-1.9922-1.7754
		c-0.9375-0.4043-1.9038-0.8974-2.604-0.9267c-1.2036-0.9966-1.8442-2.0518-2.2388-2.7227
		c-2.8803-1.7158-4.5273-4.123-7.1015-6.2431l0.1181,0.207c-1.6377-1.9727,0.1778,1.4199-1.5976-0.6113
		c0.789-0.2373-0.6905-1.5586-0.9077-2.4756c-0.8287-1.3809-1.7261-2.4463-2.5542-3.5215c-0.8189-1.1143-1.5684-2.2295-2.0025-3.669
		c0.148-0.04,0.4732-0.0986,0.73,0.4043c-0.7891-2.101-1.7754-3.3042-2.0811-5.7504l0.1182,0.0493
		c-0.0693-0.8975-0.2861-1.4302-0.4639-2.1602c-0.0986-0.4834-0.1377-0.3945-0.1772-0.5322
		c-0.0396-0.0889-0.1089-0.1777-0.148-0.2764c-0.207-0.4341-0.5327-1.1142-0.6411-1.874c0.1084,0.207,0.4244,0.5625,0.5523,0.73
		c0.0888-0.1577,0.1577-0.3159,0.1479-0.6509c-0.0395-0.3257-0.1479-0.8486-0.4834-1.7949c0.2173,0.2168,0.3355,0.3252,0.375,0.2959
		c0.0591,0.1181,0.0591,0.1181,0.0493,0.0786c0.0098,0,0.0098,0,0.0689,0.1479c0.0791,0.1377,0.2173,0.4239,0.4341,0.8975
		c0.1181,0.2959,0.0591,0.1777,0.0591,0.2168c0.1577,0.3555,0.1577,0.582,0.2368,0.6904c0.0791,0.1382,0.0195,0.2959,0.1382,0.4146
		l0.0097,0.0298c0.6905-0.6021,0.3745-0.4834,0.7202-0.6021c0.0787-0.0195,0.2461-0.0884,0.3448-0.0884
		c0.0498,0,0.1186-0.0102,0.1777,0c0.0195-0.0102,0.1284,0.0293,0.2271,0.0489l0.2958,0.0986
		c0.7496,0.2471,1.6275,0.543,2.7222,0.8286c0.0293,0.5327-0.7002,0.4736-1.4599,0.2764c-0.7691-0.1778-1.5186-0.5132-1.7359-0.1577
		c0.9863,0.2168,1.815,0.2959,3.0777,0.789c-0.8877,0.2168-0.2173,0.2168-0.8682,0.4634c0.4932,0.2564,1.6372,0.2271,2.5644,0
		c0.9268-0.1973,1.6768-0.562,1.6768-0.4834c0.0391-0.1973-0.2959-0.2759-1.2231-0.3154c0.5717-0.2564,1.687-0.2564,2.9589-0.375
		c1.2427-0.1382,2.604-0.4341,3.5806-0.9273c-0.3257,0.1187-1.0361,0.3159-1.5781,0.3257
		c-0.5625,0.0298-0.9175-0.0688-0.5918-0.3745c1.4101-0.2373,2.229-0.7793,2.8306-1.3516c0.6015-0.5722,1.0356-1.1836,1.6767-1.8144
		c1.105-0.4639,0.8779-0.0596,0.4341,0.5322c-0.4341,0.5723-1.1836,1.2822-0.8189,1.499c0.5035,0.0201,1.7261-0.039,0.8682,0.7696
		c1.1148-0.5225,1.9136-1.2227,2.604-1.9434c0.6807-0.7393,1.2525-1.4893,1.9033-2.2783l0.1084,0.1875
		c0.9668-1.0454,1.6866-2.3574,2.3184-3.5703c0.6211-1.2129,1.1435-2.3965,1.854-3.3042c-0.2759,0.3159-0.5132,0.6509-0.769,0.9663
		c0.1181-0.4732,0.769-1.6172,0.7099-2.4658c0.2168,0.1972,0.9863-0.8877,1.1441-0.6905c-0.0494-0.3545-0.0396-0.8379,0.059-1.4004
		c0.1084-0.6411,0.2569-1.4199,0.3653-2.2089c0.2363-1.5586,0.2265-3.2159-0.2666-3.8868c0.2763-0.7099,0.7099-0.1377,0.9272,0.1089
		c-0.0591,0.8877-0.2173,1.4693-0.2959,1.9527c-0.0786,0.4638-0.0889,0.8388,0.02,1.3515c0.2959-1.4404,0.6016-2.5254,0.8477-2.2685
		c-0.2559-0.8086-0.4634-2.0713-0.7891-3.2056c-0.3349-1.1343-0.8086-2.0913-1.2031-2.3574
		c0.0693-1.065-0.1377-2.0913,0.5127-1.9331c-0.4531-1.0259-0.7988-1.3418-0.9863-1.3614
		c-0.1973,0.0196-0.2759,0.3355-0.3545,0.6314c-0.0791,0.2563-0.1778,0.5425-0.3555,0.4731
		c-0.1875-0.0986-0.4336-0.5322-0.9766-1.5581c-0.2661-1.0454,0.1382-0.7104,0.4639-0.3745
		c0.3252,0.3155,0.5723,0.5323-0.0791-0.8188l0.3555,0.4243c0.0786-1.3023-0.4146-1.519-1.0064-1.6279
		c-0.5717-0.0987-1.3022-0.1084-2.0219-1.0352c0.3847-0.75,1.4892,0.9663,0.8779-0.6904c-0.8086-0.8091-1.6274-1.1446-2.377-1.4795
		c-0.7597-0.375-1.4697-0.7105-2.2197-1.4795l0.4736-0.0596c-0.5424-0.3945-1.3115-1.0454-2.1303-1.6469
		c-0.8091-0.6016-1.6568-1.1739-2.2486-1.4893c0.0293-0.1577,0.1773-0.0591,0.4239,0.0591
		c-1.0059-0.8086-1.3116-0.8184-1.5288-0.8482c-0.2173-0.0493-0.3453-0.0986-1.1734-0.8091
		c-0.2275,0.0201-0.4638,0.0396-0.7207,0.0791c0.918,0.6905,2.3872,1.9532,3.7481,2.2881c-0.6802-0.1577-0.3745,0.316-0.0586,0.8682
		c0.3545,0.5522,0.7099,1.1836,0.2758,1.2627l0.355-0.0791c0.523,0.7397,1.1045,1.4795,1.6963,2.229
		c-5.6318-5.0303-13.7886-7.0815-22.3496-1.312C357.8975,253.0118,355.5303,263.3482,355.3428,269.3257z M569.4341,788.0523
		l-0.0098,0.1582L569.4341,788.0523L569.4341,788.0523z M569.4741,786.4351c0,0.0791,0,0.1582-0.0205,0.2363
		c-0.0889-0.0586-0.1475-0.1377-0.1865-0.2363C569.355,786.4351,569.4243,786.4351,569.4741,786.4351z M565.7944,786.771
		c-0.0683,0.2168-0.2265,0.0782-0.3945,0C565.5386,786.771,565.6763,786.771,565.7944,786.771z M564.3745,786.8101
		c-0.168,0.2168-0.3262,0.4932-0.4443,0.2363c-0.0489-0.0781-0.0489-0.1572-0.0489-0.2363
		C564.0483,786.8101,564.2065,786.8101,564.3745,786.8101z M584.3081,761.5991c0.0293,0.0791-0.0293,0.1973-0.1387,0.3164
		c0-0.1191-0.0293-0.1777-0.0488-0.2764L584.3081,761.5991z M584.4165,444.0035c-0.0293,0.1577-0.0293,0.3354-0.0293,0.5127
		c-0.0107-0.1578-0.0498-0.2759-0.0791-0.4336L584.4165,444.0035z M583.8442,444.398l0.0303,0.1182
		c-0.0596,0.02-0.1191,0.0595-0.1484,0.0791c-0.0987,0.0395-0.1973,0.0791-0.2764,0.0888
		c-0.0488,0.0493-0.0791,0.0493-0.1182,0.0689L583.8442,444.398z M588.4604,609.3511c-0.2666,0.3154-0.5029,0.5127-0.7099,0.5518
		c0.167-0.3741,0.3545-0.7686,0.5322-1.1241L588.4604,609.3511z M531.6577,680.9781c-1.5976,5.4834-2.8799,11.3613-3.8467,17.3984
		l-60.2739-158.6992l88.3159-38.25C570.855,555.9507,540.8306,649.8296,531.6577,680.9781z M410.2612,349.0005
		c29.9351,19.7661,128.2617,80.8789,139.3975,136.8623l2.0713-0.7295l-2.0615,0.7691c1.6269,2.9097,3.0078,6.0464,4.2216,9.3501
		l-88.6416,38.4072l-76.9726-202.6494C395.269,337.875,402.7749,344.0689,410.2612,349.0005z M371.1929,266.4058
		c-0.0591,0-0.0987,0.02-0.1182,0c-0.4141-0.0688-0.7495-0.4141-1.0156-0.8184c0-0.0195-0.0298-0.0293-0.0298-0.0493
		c0.0688-0.9765,0.2368-1.7851,0.4536-2.4858C370.542,264.2657,370.7886,265.3804,371.1929,266.4058z"/>
</g>
</svg>
