<?xml version="1.0" encoding="utf-8"?>
<!-- Generator: Adobe Illustrator 17.1.0, SVG Export Plug-In . SVG Version: 6.00 Build 0)  -->
<!DOCTYPE svg PUBLIC "-//W3C//DTD SVG 1.1//EN" "http://www.w3.org/Graphics/SVG/1.1/DTD/svg11.dtd">
<svg version="1.1" id="love-stamp-18" xmlns="http://www.w3.org/2000/svg" xmlns:xlink="http://www.w3.org/1999/xlink" x="0px"
	 y="0px" viewBox="0 0 1009.9956 1009.9956" enable-background="new 0 0 1009.9956 1009.9956" xml:space="preserve">
<g id="love-stamp-18-stamp">
	<path fill="#FEFEFB" d="M986.7769,134.5445c0-12.8321,10.08-23.2276,23.2188-23.2276V90.4165
		c-13.1387,0-23.2188-10.4057-23.2188-23.228c0-12.8222,10.08-23.228,23.2188-23.228V22.8238c0,0-0.3555,0-0.4346,0
		c-6.1152,0-12.1904-2.3867-16.5107-6.7071C988.7895,11.836,986.2446,5.8394,986.1851,0h-20.6338
		c0,12.4078-10.3955,23.2378-23.2178,23.2378c-12.8027,0-23.1983-10.83-23.1983-23.2378h-20.8906
		c0,12.4078-10.3956,23.2378-23.2178,23.2378c-12.8223,0-23.1982-10.83-23.1982-23.2378H830.938
		c0,12.4078-10.3955,23.2378-23.2178,23.2378c-12.8223,0-23.1982-10.83-23.1982-23.2378h-20.8907
		c0,12.4078-10.3955,23.2378-23.2177,23.2378c-12.8223,0-23.2188-10.83-23.2188-23.2378h-20.8896
		c0,12.4078-10.376,23.2378-23.1983,23.2378c-12.8222,0-23.2187-10.83-23.2187-23.2378h-20.8897
		c0,12.4078-10.3759,23.2378-23.1982,23.2378S582.5815,12.4078,582.5815,0h-20.8896c0,12.4078-10.3965,23.2378-23.1983,23.2378
		c-12.8222,0-23.2187-10.83-23.2187-23.2378h-20.8901c0,12.4078-10.396,23.2378-23.2183,23.2378
		c-12.8022,0-23.1982-10.83-23.1982-23.2378h-20.8902c0,12.4078-10.396,23.2378-23.2182,23.2378
		c-12.8023,0-23.1983-10.83-23.1983-23.2378h-20.8901c0,12.4078-10.396,23.2378-23.2183,23.2378
		c-12.8222,0-23.1982-10.83-23.1982-23.2378h-20.8902c0,12.4078-10.396,23.2378-23.2182,23.2378
		c-12.8223,0-23.2178-10.83-23.2178-23.2378h-20.8711c0,12.4078-10.3955,23.2378-23.2178,23.2378
		c-12.8222,0-23.2177-10.83-23.2177-23.2378h-20.8907c0,12.4078-10.3759,23.2378-23.1982,23.2378S111.4155,12.4078,111.4155,0
		H90.5249c0,12.4078-10.3955,23.2378-23.1982,23.2378c-12.8223,0-23.2178-10.83-23.2178-23.2378h-20.792
		c-0.0591,5.8394-2.5249,11.836-6.7861,16.1167c-4.3199,4.3204-10.3169,6.7461-16.4322,6.7461C0.0791,22.8628,0,22.8238,0,22.8238
		v20.5547c12.7632,0,23.1987,10.396,23.1987,23.228S12.7632,89.8345,0,89.8345v20.9102c12.7632,0,23.1987,10.3955,23.1987,23.2177
		c0,12.8223-10.4355,23.2281-23.1987,23.2281v20.8999c12.7632,0,23.1987,10.4062,23.1987,23.2383
		c0,12.8222-10.4355,23.2177-23.1987,23.2177v20.9102c12.7632,0,23.1987,10.3955,23.1987,23.2178
		c0,12.832-10.4355,23.2382-23.1987,23.2382v20.8999c12.7632,0,23.1987,10.396,23.1987,23.2281
		c0,12.8222-10.4355,23.2177-23.1987,23.2177v20.9102c12.7632,0,23.1987,10.396,23.1987,23.228
		c0,12.8321-10.4355,23.2281-23.1987,23.2281v20.9003c12.7632,0,23.1987,10.4053,23.1987,23.2276
		c0,12.8222-10.4355,23.228-23.1987,23.228v20.8999c12.7632,0,23.1987,10.3965,23.1987,23.2383
		c0,12.8223-10.4355,23.2178-23.1987,23.2178v20.9101c12.7632,0,23.1987,10.3955,23.1987,23.2178
		c0,12.8223-10.4355,23.2383-23.1987,23.2383v20.8906c12.7632,0,23.1987,10.3955,23.1987,23.2373
		c0,12.8223-10.4355,23.2178-23.1987,23.2178v20.9101c12.7632,0,23.1987,10.3965,23.1987,23.2178
		c0,12.8428-10.4355,23.2383-23.1987,23.2383v20.8896c12.7632,0,23.1987,10.4161,23.1987,23.2383
		c0,12.8223-10.4355,23.2178-23.1987,23.2178v20.9102c12.7632,0,23.1987,10.3955,23.1987,23.2382
		c0,12.8213-10.4355,23.2178-23.1987,23.2178v20.9102c12.7632,0,23.1987,10.3955,23.1987,23.2177
		c0,12.8223-10.4355,23.2178-23.1987,23.2178v21.0088c0,0,0.0791,0,0.0986,0c6.1153,0,12.1123,2.6631,16.4322,7.0029
		c4.3007,4.3008,6.7666,10.6719,6.7861,16.5117h20.792c0-13.1386,10.3955-23.2188,23.2178-23.2188
		c12.8027,0,23.1982,10.0801,23.1982,23.2188h20.8906c0-13.1386,10.3955-23.2188,23.2178-23.2188s23.1982,10.0801,23.1982,23.2188
		h20.8907c0-13.1386,10.3955-23.2188,23.2177-23.2188c12.8223,0,23.2178,10.0801,23.2178,23.2188h20.8711
		c0-13.1386,10.3955-23.2188,23.2178-23.2188c12.8222,0,23.2182,10.0801,23.2182,23.2188h20.8902
		c0-13.1386,10.376-23.2188,23.1982-23.2188c12.8223,0,23.2183,10.0801,23.2183,23.2188h20.8901
		c0-13.1386,10.396-23.2188,23.1983-23.2188c12.8222,0,23.2182,10.0801,23.2182,23.2188h20.8902
		c0-13.1386,10.396-23.2188,23.1982-23.2188c12.8223,0,23.2183,10.0801,23.2183,23.2188h20.8901
		c0-13.1386,10.3965-23.2188,23.2187-23.2188c12.8018,0,23.1983,10.0801,23.1983,23.2188h20.8896
		c0-13.1386,10.3965-23.2188,23.2188-23.2188s23.1982,10.0801,23.1982,23.2188h20.8897c0-13.1386,10.3965-23.2188,23.2187-23.2188
		c12.8223,0,23.1983,10.0801,23.1983,23.2188h20.8896c0-13.1386,10.3965-23.2188,23.2188-23.2188
		c12.8222,0,23.2177,10.0801,23.2177,23.2188h20.8907c0-13.1386,10.3759-23.2188,23.1982-23.2188
		c12.8223,0,23.2178,10.0801,23.2178,23.2188h20.8906c0-13.1386,10.376-23.2188,23.1982-23.2188
		c12.8222,0,23.2178,10.0801,23.2178,23.2188h20.8906c0-13.1386,10.3956-23.2188,23.1983-23.2188
		c12.8223,0,23.2178,10.0801,23.2178,23.2188h20.6338c0.0195-5.8398,2.4863-12.2109,6.7861-16.5117
		c4.3203-4.3398,10.4746-6.9043,16.5898-6.9043c0.0791,0,0.4346-0.0986,0.4346-0.0781V966.064
		c-13.1387,0-23.2188-10.3955-23.2188-23.2178c0-12.8418,10.08-23.2373,23.2188-23.2373v-20.9101
		c-13.1387,0-23.2188-10.3965-23.2188-23.2188c0-12.8222,10.08-23.2373,23.2188-23.2373v-20.8906
		c-13.1387,0-23.2188-10.3954-23.2188-23.2372c0-12.8223,10.08-23.2188,23.2188-23.2188v-20.9102
		c-13.1387,0-23.2188-10.3955-23.2188-23.2178c0-12.8213,10.08-23.2373,23.2188-23.2373v-20.8906
		c-13.1387,0-23.2188-10.416-23.2188-23.2373c0-12.8223,10.08-23.2188,23.2188-23.2188v-20.9092
		c-13.1387,0-23.2188-10.3964-23.2188-23.2187c0-12.8419,10.08-23.2373,23.2188-23.2373v-20.9102
		c-13.1387,0-23.2188-10.3955-23.2188-23.2177c0-12.8223,10.08-23.2188,23.2188-23.2188v-20.9101
		c-13.1387,0-23.2188-10.3956-23.2188-23.2276c0-12.832,10.08-23.228,23.2188-23.228v-20.9097
		c-13.1387,0-23.2188-10.3965-23.2188-23.2182c0-12.8423,10.08-23.2281,23.2188-23.2281v-20.9004
		c-13.1387,0-23.2188-10.4052-23.2188-23.2373c0-12.8222,10.08-23.2182,23.2188-23.2182v-20.9102
		c-13.1387,0-23.2188-10.396-23.2188-23.2182c0-12.8418,10.08-23.2374,23.2188-23.2374v-20.9003
		c-13.1387,0-23.2188-10.4058-23.2188-23.2281c0-12.8217,10.08-23.2182,23.2188-23.2182v-20.9097
		C996.8569,157.7725,986.7769,147.3765,986.7769,134.5445z"/>
	<g>
		<rect x="81.6675" y="81.2339" fill="#9F5F5E" width="846.3447" height="846.9756"/>
		<path opacity="0.05" d="M920.1411,89.1246v831.1943H89.5386V89.1246H920.1411 M935.9028,73.3628H73.7768v862.7168h862.126V73.3628
			L935.9028,73.3628z"/>
	</g>
</g>
<g id="love-stamp-18-glasses-heart">
	<path id="love-stamp-18-icon" fill="#FEFEFB" d="M474.8159,406.6763c6.707,77.6382-14.2519,138.9873-14.2519,138.9873
		c-8.0782,24.0371-19.2627,39.7891-40.3702,52.5713c-9.538,5.7598-19.1543,7.96-27.4003,8.4922
		C377.6831,625.98,370.917,654.732,370.917,654.732l-28.3862,123.9414c20.2587,7.5449,46.6328,23.9765,46.6328,23.9765
		c2.1406,1.667,1.7461,3.3243,1.4502,4.1426c-0.9571,2.3086-6.9932,0.5723-6.9932,0.5723
		c-46.6133-15.8301-106.168-24.5195-106.168-24.5195c-3.146-0.7305-3.6689-1.5782-3.6689-2.9786
		c0-2.4072,2.4067-2.6533,2.4067-2.6533c17.3198-4.3105,49.6909-1.3613,55.2144-0.7793l27.2817-127.9365
		c4.4385-20.7715,3.4722-38.5947,2.1499-48.9805c-6.0166-3.205-12.4668-7.4668-19.0556-16.58
		c-18.1084-25.043-16.7081-56.2696-16.7081-56.2696c2.959-75.0053,45.3907-143.4707,45.3907-143.4707
		c16.9248,5.3653,41.4843,11.6387,52.0381,14.0156C464.0259,406.5479,474.8159,406.6763,474.8159,406.6763z M733.7456,772.2915
		c-17.4678-3.7979-49.7695,0.1182-55.2246,0.8282l-31-127.0772c-5.0596-20.625-4.5957-38.4765-3.5703-48.8828
		c5.9277-3.3926,12.2304-7.8516,18.5332-17.1523c17.418-25.5557,15.0615-56.7432,15.0615-56.7432
		c-5.1094-74.8716-49.5137-142.0601-49.5137-142.0601c-16.7773,5.8194-41.1396,12.8272-51.624,15.5152
		c-41.2676,10.5537-52.0391,10.9726-52.0391,10.9726c-4.4179,77.7764,18.3262,138.5147,18.3262,138.5147
		c8.7589,23.8193,20.4365,39.206,41.8897,51.3769c9.665,5.4942,19.3712,7.3975,27.6562,7.7032
		c15.6436,18.8193,23.2276,47.3339,23.2276,47.3339l31.9863,123.0635c-20.002,8.1074-45.8828,25.3291-45.8828,25.3291
		c-2.0723,1.7461-1.6573,3.4024-1.3223,4.1817c0.9961,2.2783,6.9834,0.3652,6.9834,0.3652
		c46.1104-17.1719,105.4375-27.5781,105.4375-27.5781c3.127-0.8477,3.5713-1.7256,3.5312-3.126
		C736.1226,772.4888,733.7456,772.2915,733.7456,772.2915z"/>
	<path fill="#EC7175" d="M556.3159,288.9141c8.8672-7.2056,13.375-14.2476,16.1172-20.8511
		c7.9004-18.8584,3.4023-35.5766-3.1963-46.5888c-6.2822-10.4405-14.8546-14.8789-14.8546-14.8789
		c-12.8613-6.4258-22.7148-5.104-30.8418-2.1353c-16.8857,6.1987-24.5986,23.8052-24.5986,23.8052
		c-7.2002-13.2715-13.4932-18.272-20.4468-21.709c-6.9731-3.4033-16.6987-4.8135-24.9048-2.8013
		c-14.9721,3.6245-23.7109,16.0376-23.7109,16.0376c-8.0088,13.3643-9.0742,24.752-7.6543,38.94
		c2.0127,19.6919,21.2656,34.561,21.2656,34.561c14.8936,11.2441,22.7842,15.9634,30.625,22.271
		c18.7896,15.1103,24.7666,23.5239,24.7666,23.5239s30.3096-29.2002,36.9678-34.1269
		C549.7769,294.7134,556.3159,288.9141,556.3159,288.9141z"/>
</g>
</svg>
