<?xml version="1.0" encoding="utf-8"?>
<!-- Generator: Adobe Illustrator 17.1.0, SVG Export Plug-In . SVG Version: 6.00 Build 0)  -->
<!DOCTYPE svg PUBLIC "-//W3C//DTD SVG 1.1//EN" "http://www.w3.org/Graphics/SVG/1.1/DTD/svg11.dtd">
<svg version="1.1" id="love-stamp-6" xmlns="http://www.w3.org/2000/svg" xmlns:xlink="http://www.w3.org/1999/xlink" x="0px"
	 y="0px" viewBox="0 0 1010.0005 1009.9956" enable-background="new 0 0 1010.0005 1009.9956" xml:space="preserve">
<g id="love-stamp-6-stamp">
	<path fill="#FEFEFB" d="M986.7818,134.5347c0-12.8223,10.08-23.2178,23.2187-23.2178V90.4068
		c-13.1387,0-23.2187-10.396-23.2187-23.2183c0-12.8222,10.08-23.2378,23.2187-23.2378V22.8238c0,0-0.3555,0-0.4346,0
		c-6.1152,0-12.1904-2.3867-16.5107-6.7071C988.7944,11.836,986.2495,5.8394,986.19,0h-20.6339
		c0,12.4078-10.3954,23.2378-23.2178,23.2378c-12.8027,0-23.1983-10.83-23.1983-23.2378h-20.8906
		c0,12.4078-10.3955,23.2378-23.2177,23.2378c-12.8223,0-23.1983-10.83-23.1983-23.2378h-20.8906
		c0,12.4078-10.3955,23.2378-23.2178,23.2378c-12.8223,0-23.1982-10.83-23.1982-23.2378h-20.8907
		c0,12.4078-10.3955,23.2378-23.2177,23.2378c-12.8223,0-23.2188-10.83-23.2188-23.2378h-20.8896
		c0,12.4078-10.376,23.2378-23.1982,23.2378c-12.8222,0-23.2188-10.83-23.2188-23.2378h-20.8896
		c0,12.4078-10.3759,23.2378-23.1982,23.2378c-12.8223,0-23.2188-10.83-23.2188-23.2378h-20.8896
		c0,12.4078-10.3965,23.2378-23.1983,23.2378c-12.8222,0-23.2187-10.83-23.2187-23.2378h-20.875
		c0,12.4078-10.396,23.2378-23.2183,23.2378c-12.8222,0-23.2182-10.83-23.2182-23.2378h-20.8902
		c0,12.4078-10.3764,23.2378-23.1982,23.2378c-12.8223,0-23.2183-10.83-23.2183-23.2378h-20.8901
		c0,12.4078-10.396,23.2378-23.1987,23.2378c-12.8218,0-23.2178-10.83-23.2178-23.2378h-20.8906
		c0,12.4078-10.3955,23.2378-23.1983,23.2378c-12.8223,0-23.2178-10.83-23.2178-23.2378h-20.8907
		c0,12.4078-10.3955,23.2378-23.2177,23.2378c-12.8028,0-23.1983-10.83-23.1983-23.2378h-20.8906
		c0,12.4078-10.3955,23.2378-23.2178,23.2378c-12.8027,0-23.1982-10.83-23.1982-23.2378H90.5444
		c0,12.4078-10.3955,23.2378-23.2177,23.2378c-12.8028,0-23.1983-10.83-23.1983-23.2378h-20.792
		c-0.059,5.8394-2.5249,11.836-6.7856,16.1167c-4.3203,4.3204-10.3169,6.7461-16.4321,6.7461C0.0791,22.8628,0,22.8238,0,22.8238
		v20.5547c12.7827,0,23.2183,10.396,23.2183,23.2182c0,12.8418-10.4356,23.2378-23.2183,23.2378v20.9102
		c12.7827,0,23.2183,10.3955,23.2183,23.2177c0,12.8223-10.4356,23.2183-23.2183,23.2183v20.9097
		c12.7827,0,23.2183,10.3965,23.2183,23.2383c0,12.8222-10.4356,23.2177-23.2183,23.2177v20.9102
		c12.7827,0,23.2183,10.3955,23.2183,23.2178c0,12.8222-10.4356,23.2382-23.2183,23.2382v20.8902
		c12.7827,0,23.2183,10.396,23.2183,23.2378c0,12.8222-10.4356,23.2177-23.2183,23.2177v20.9102
		c12.7827,0,23.2183,10.396,23.2183,23.2183c0,12.8418-10.4356,23.2378-23.2183,23.2378v20.8901
		c12.7827,0,23.2183,10.4155,23.2183,23.2378c0,12.8222-10.4356,23.2178-23.2183,23.2178v20.9101
		c12.7827,0,23.2183,10.3965,23.2183,23.2383c0,12.8223-10.4356,23.2178-23.2183,23.2178v20.9101
		c12.7827,0,23.2183,10.3955,23.2183,23.2178c0,12.8223-10.4356,23.2383-23.2183,23.2383v20.8906
		c12.7827,0,23.2183,10.3955,23.2183,23.2373c0,12.8223-10.4356,23.2178-23.2183,23.2178v20.9101
		c12.7827,0,23.2183,10.3965,23.2183,23.2178c0,12.8428-10.4356,23.2383-23.2183,23.2383v20.8896
		c12.7827,0,23.2183,10.4161,23.2183,23.2383c0,12.8223-10.4356,23.2178-23.2183,23.2178v20.9102
		c12.7827,0,23.2183,10.3955,23.2183,23.2382c0,12.8213-10.4356,23.2178-23.2183,23.2178v20.9102
		c12.7827,0,23.2183,10.3955,23.2183,23.2177c0,12.8223-10.4356,23.2178-23.2183,23.2178v21.0088c0,0,0.0791,0,0.1187,0
		c6.1152,0,12.0922,2.6631,16.4121,7.0029c4.3008,4.3008,6.7861,10.6719,6.8056,16.5117h20.792
		c0-13.1386,10.3955-23.2188,23.1983-23.2188c12.8222,0,23.2177,10.0801,23.2177,23.2188h20.8907
		c0-13.1386,10.3955-23.2188,23.1982-23.2188c12.8223,0,23.2178,10.0801,23.2178,23.2188h20.8906
		c0-13.1386,10.3955-23.2188,23.1983-23.2188c12.8222,0,23.2177,10.0801,23.2177,23.2188h20.8907
		c0-13.1386,10.3955-23.2188,23.2178-23.2188c12.8028,0,23.1983,10.0801,23.1983,23.2188h20.8906
		c0-13.1386,10.396-23.2188,23.2178-23.2188c12.8027,0,23.1987,10.0801,23.1987,23.2188h20.8901
		c0-13.1386,10.396-23.2188,23.2183-23.2188c12.8218,0,23.1982,10.0801,23.1982,23.2188h20.8902
		c0-13.1386,10.396-23.2188,23.2182-23.2188c12.8223,0,23.2183,10.0801,23.2183,23.2188h20.875
		c0-13.1386,10.3965-23.2188,23.2187-23.2188c12.8018,0,23.1983,10.0801,23.1983,23.2188h20.8896
		c0-13.1386,10.3965-23.2188,23.2188-23.2188c12.8223,0,23.1982,10.0801,23.1982,23.2188h20.8896
		c0-13.1386,10.3965-23.2188,23.2188-23.2188c12.8223,0,23.1982,10.0801,23.1982,23.2188h20.8896
		c0-13.1386,10.3965-23.2188,23.2188-23.2188c12.8221,0,23.2177,10.0801,23.2177,23.2188h20.8907
		c0-13.1386,10.3759-23.2188,23.1982-23.2188c12.8223,0,23.2178,10.0801,23.2178,23.2188h20.8906
		c0-13.1386,10.376-23.2188,23.1983-23.2188c12.8222,0,23.2177,10.0801,23.2177,23.2188h20.8906
		c0-13.1386,10.3956-23.2188,23.1983-23.2188c12.8223,0,23.2178,10.0801,23.2178,23.2188H986.19
		c0.0195-5.8398,2.4863-12.2109,6.7861-16.5117c4.3203-4.3398,10.4746-6.9043,16.5898-6.9043c0.0791,0,0.4346-0.0986,0.4346-0.0781
		V966.064c-13.1387,0-23.2187-10.3955-23.2187-23.2178c0-12.8418,10.08-23.2373,23.2187-23.2373v-20.9101
		c-13.1387,0-23.2187-10.3965-23.2187-23.2188c0-12.8222,10.08-23.2373,23.2187-23.2373v-20.8906
		c-13.1387,0-23.2187-10.3954-23.2187-23.2372c0-12.8223,10.08-23.2188,23.2187-23.2188v-20.9102
		c-13.1387,0-23.2187-10.3955-23.2187-23.2178c0-12.8213,10.08-23.2373,23.2187-23.2373v-20.8906
		c-13.1387,0-23.2187-10.416-23.2187-23.2373c0-12.8223,10.08-23.2188,23.2187-23.2188v-20.9092
		c-13.1387,0-23.2187-10.3964-23.2187-23.2187c0-12.8419,10.08-23.2373,23.2187-23.2373v-20.9102
		c-13.1387,0-23.2187-10.3955-23.2187-23.2177c0-12.8223,10.08-23.2188,23.2187-23.2188v-20.9101
		c-13.1387,0-23.2187-10.3956-23.2187-23.2374c0-12.8222,10.08-23.2182,23.2187-23.2182v-20.9097
		c-13.1387,0-23.2187-10.3965-23.2187-23.2182c0-12.8423,10.08-23.2378,23.2187-23.2378v-20.8907
		c-13.1387,0-23.2187-10.415-23.2187-23.2373c0-12.8222,10.08-23.2182,23.2187-23.2182v-20.9102
		c-13.1387,0-23.2187-10.396-23.2187-23.2182c0-12.8418,10.08-23.2374,23.2187-23.2374v-20.9101
		c-13.1387,0-23.2187-10.396-23.2187-23.2183c0-12.8217,10.08-23.2182,23.2187-23.2182v-20.9097
		C996.8618,157.7725,986.7818,147.3765,986.7818,134.5347z"/>
	<g>
		<rect x="81.6875" y="81.2339" fill="#91D0D2" width="846.3296" height="846.9756"/>
		<path opacity="0.05" d="M920.146,89.1246v831.1943H89.5581V89.1246H920.146 M935.9077,73.3628H73.7969v862.7168h862.1108V73.3628
			L935.9077,73.3628z"/>
	</g>
</g>
<g id="love-stamp-6-post-horn">
	<g>
		<path fill="#FEFEFB" d="M556.3306,522.6128c0,0,1.9727,52.8282-31.7793,79.1231c0-20.4951-2.8799-47.2842-14.8389-67.2276
			c-30.6943-50.0654-100.6445-73.4023-151.8935-40.9126c-38.6739,19.9439-55.1358,65.3931-55.1358,106.9371
			c-23.3066-20.4961-27.8638-55.2139-34.1958-83.6602c-13.0688-2.248-23.8691-2.248-36.9575,0
			c2.8408,8.6016,0,22.8242,2.8408,33.0625c14.2227,81.2921,79.6358,157.5352,160.4351,178.0508
			c-5.6616,5.7207-16.4917,10.2383-23.376,17.6152c-8.502,9.7061-12.4673,21.0684-12.4673,34.166
			c13.4336-0.4922,28.4063,0.3946,41.5835-0.1572c4.1821-0.1777,8.2066-0.4736,11.8755-1.0264
			c0.4141-2.623,0.4932-5.247,0.4141-7.8701c-0.2266-12.3887-3.9746-25.1904,0.75-38.7627
			c15.9384-1.7363,29.5498,2.8408,45.4892,1.1045c4.6748,5.5635,5.6416,13.7295,5.5723,22.3311
			c-0.0889,9.1328-1.3213,18.6602-0.4043,26.0587c13.1777-1.5987,25.5654,0.9463,37.9341,1.2422
			c5.1489,0.1972,10.2973-0.0391,15.5102-1.2422c0-13.0391-3.9902-23.9288-11.9297-32.9835
			c-51.2495-20.4755,11.3575-16.5107,23.292-24.46c92.7139-23.2773,167.8321-108.1016,183.1992-201.3486
			C654.2329,524.3882,556.3306,522.6128,556.3306,522.6128z M477.854,614.2037c-10.8496,23.2968-35.2807,44.9755-62.6015,43.7724
			c-27.292-0.5723-50.0069-17.083-63.1744-39.8076c-13.5522-24.4609-5.0302-51.7822,7.9893-73.954
			c15.998-17.5566,35.2808-24.4805,57.4731-26.1378c22.2217,4.5361,44.4043,14.2227,56.3877,35.8232
			C483.5352,570.4302,484.6499,596.0152,477.854,614.2037z"/>
		<rect x="556.7056" y="497.3638" fill="#FEFEFB" width="156.2334" height="18.0303"/>
	</g>
	<g>
		<path fill="#EC7175" d="M697.0991,341.8404c-28.5244-20.1411-57.4238,4.9609-57.4238,4.9609s-28.4658-25.6543-57.3643-6.0859
			c-16.0976,10.9482-25.3486,33.5747-13.8681,58.6469c2.7217,5.9771,6.6279,12.0533,11.8955,18.2076
			c12.2891,14.2324,31.9766,28.5937,61.5459,41.3862c27.0254-12.7632,45.3115-27.1235,56.832-41.3862
			c4.9121-6.1543,8.5615-12.2305,11.1651-18.2076C720.4556,375.0005,712.7818,352.9068,697.0991,341.8404z"/>
		<path fill="#EC7175" d="M765.8657,233.3052c-20.3584-14.3711-41.0312,3.5703-41.0312,3.5703s-20.3184-18.3554-40.9326-4.3593
			c-11.5205,7.7919-18.1289,23.9873-9.9229,41.8789c1.9336,4.2812,4.7344,8.6206,8.5029,12.9902
			c8.7784,10.1885,22.8233,20.4365,43.9502,29.5996c19.293-9.1338,32.3711-19.3916,40.5977-29.5996
			c3.4912-4.3696,6.1152-8.709,7.9687-12.9902C782.5337,256.9966,777.0698,241.2349,765.8657,233.3052z"/>
	</g>
</g>
</svg>
