<?xml version="1.0" encoding="utf-8"?>
<!-- Generator: Adobe Illustrator 17.1.0, SVG Export Plug-In . SVG Version: 6.00 Build 0)  -->
<!DOCTYPE svg PUBLIC "-//W3C//DTD SVG 1.1//EN" "http://www.w3.org/Graphics/SVG/1.1/DTD/svg11.dtd">
<svg version="1.1" id="love-stamp-12" xmlns="http://www.w3.org/2000/svg" xmlns:xlink="http://www.w3.org/1999/xlink" x="0px"
	 y="0px" viewBox="0 0 1009.9956 1009.9956" enable-background="new 0 0 1009.9956 1009.9956" xml:space="preserve">
<g id="love-stamp-12-stamp">
	<path fill="#FEFEFB" d="M986.7769,134.5396c0-12.8272,10.08-23.228,23.2188-23.228V90.4117
		c-13.1387,0-23.2188-10.4009-23.2188-23.2281c0-12.8271,10.08-23.228,23.2188-23.228V22.814c0,0-0.3555,0.0049-0.4346,0.0049
		c-6.1152,0-12.1904-2.3921-16.5107-6.7119c-4.2608-4.271-6.8057-10.2676-6.8652-16.107h-20.6338
		c0,12.4078-10.3955,23.2281-23.2178,23.2281c-12.8027,0-23.1983-10.8203-23.1983-23.2281h-20.8906
		c0,12.4078-10.3956,23.2281-23.2178,23.2281c-12.8223,0-23.1982-10.8203-23.1982-23.2281H830.938
		c0,12.4078-10.3955,23.2281-23.2178,23.2281c-12.8223,0-23.1982-10.8203-23.1982-23.2281h-20.8907
		c0,12.4078-10.3955,23.2281-23.2177,23.2281c-12.8223,0-23.2188-10.8203-23.2188-23.2281h-20.8896
		c0,12.4078-10.376,23.2281-23.1983,23.2281c-12.8222,0-23.2187-10.8203-23.2187-23.2281h-20.8897
		c0,12.4078-10.3759,23.2281-23.1982,23.2281S582.5815,12.4078,582.5815,0h-20.8896c0,12.4078-10.3965,23.2281-23.1983,23.2281
		c-12.8222,0-23.2187-10.8203-23.2187-23.2281h-20.8901c0,12.4078-10.396,23.2281-23.208,23.2281
		c-12.8125,0-23.2085-10.8203-23.2085-23.2281h-20.8902c0,12.4078-10.396,23.2281-23.2085,23.2281
		c-12.812,0-23.208-10.8203-23.208-23.2281h-20.8901c0,12.4078-10.396,23.2281-23.2183,23.2281
		c-12.8125,0-23.1982-10.8203-23.1982-23.2281h-20.8902c0,12.4078-10.396,23.2281-23.2182,23.2281
		c-12.8125,0-23.208-10.8203-23.208-23.2281h-20.8809c0,12.4078-10.3955,23.2281-23.2178,23.2281
		c-12.8222,0-23.208-10.8203-23.208-23.2281h-20.8906c0,12.4078-10.3857,23.2281-23.208,23.2281S111.4155,12.4078,111.4155,0
		H90.5347c0,12.4078-10.3955,23.2281-23.208,23.2281C54.5044,23.2281,44.1089,12.4078,44.1089,0h-20.792
		c-0.0591,5.8394-2.5249,11.836-6.7861,16.107c-4.3199,4.3198-10.3169,6.7558-16.4219,6.7558C0.0791,22.8628,0,22.8189,0,22.8189
		v20.5547c12.7632,0,23.1987,10.4009,23.1987,23.228c0,12.8272-10.4355,23.228-23.1987,23.228v20.9053
		c12.7632,0,23.1987,10.3955,23.1987,23.2227c0,12.8271-10.4355,23.228-23.1987,23.228v20.9048
		c12.7632,0,23.1987,10.4013,23.1987,23.2285c0,12.8271-10.4355,23.2275-23.1987,23.2275v20.9004
		c12.7632,0,23.1987,10.4004,23.1987,23.2276c0,12.8271-10.4355,23.2285-23.1987,23.2285v20.9048
		c12.7632,0,23.1987,10.396,23.1987,23.2231c0,12.8272-10.4355,23.2275-23.1987,23.2275v20.9053
		c12.7632,0,23.1987,10.4009,23.1987,23.228c0,12.8272-10.4355,23.2232-23.1987,23.2232v20.9053
		c12.7632,0,23.1987,10.4004,23.1987,23.2275S12.7632,493.9756,0,493.9756v20.9048c12.7632,0,23.1987,10.3965,23.1987,23.2285
		c0,12.8223-10.4355,23.2276-23.1987,23.2276v20.9004c12.7632,0,23.1987,10.3955,23.1987,23.2275
		c0,12.8223-10.4355,23.2285-23.1987,23.2285v20.9004c12.7632,0,23.1987,10.3955,23.1987,23.2275
		c0,12.8223-10.4355,23.2276-23.1987,23.2276v20.9004c12.7632,0,23.1987,10.4062,23.1987,23.2275
		c0,12.832-10.4355,23.2285-23.1987,23.2285v20.8994c12.7632,0,23.1987,10.4063,23.1987,23.2286
		c0,12.832-10.4355,23.2275-23.1987,23.2275v20.9102c12.7632,0,23.1987,10.3955,23.1987,23.2275
		c0,12.8223-10.4355,23.2187-23.1987,23.2187v20.9102c12.7632,0,23.1987,10.3955,23.1987,23.2275
		c0,12.8223-10.4355,23.2178-23.1987,23.2178v21.0088c0,0,0.0791,0,0.1089,0c6.105,0,12.102,2.6631,16.4219,6.9932
		c4.3007,4.3007,6.7666,10.6816,6.7959,16.5214h20.7822c0-13.1386,10.3955-23.2285,23.2178-23.2285
		c12.8125,0,23.208,10.0899,23.208,23.2285h20.8808c0-13.1386,10.3955-23.2285,23.2178-23.2285s23.208,10.0899,23.208,23.2285
		h20.8906c0-13.1386,10.3858-23.2285,23.208-23.2285c12.8223,0,23.2178,10.0899,23.2178,23.2285h20.8809
		c0-13.1386,10.3955-23.2285,23.208-23.2285c12.8222,0,23.2182,10.0899,23.2182,23.2285h20.8902
		c0-13.1386,10.3857-23.2285,23.1982-23.2285c12.8223,0,23.2183,10.0899,23.2183,23.2285h20.8901
		c0-13.1386,10.396-23.2285,23.208-23.2285c12.8125,0,23.2085,10.0899,23.2085,23.2285h20.8902
		c0-13.1386,10.396-23.2285,23.2085-23.2285c12.812,0,23.208,10.0899,23.208,23.2285h20.8901
		c0-13.1386,10.3965-23.2285,23.2187-23.2285c12.8018,0,23.1983,10.0899,23.1983,23.2285h20.8896
		c0-13.1386,10.3965-23.2285,23.2188-23.2285s23.1982,10.0899,23.1982,23.2285h20.8897c0-13.1386,10.3965-23.2285,23.2187-23.2285
		c12.8223,0,23.1983,10.0899,23.1983,23.2285h20.8896c0-13.1386,10.3965-23.2285,23.2188-23.2285
		c12.8222,0,23.2177,10.0899,23.2177,23.2285h20.8907c0-13.1386,10.3759-23.2285,23.1982-23.2285
		c12.8223,0,23.2178,10.0899,23.2178,23.2285h20.8906c0-13.1386,10.376-23.2285,23.1982-23.2285
		c12.8222,0,23.2178,10.0899,23.2178,23.2285h20.8906c0-13.1386,10.3956-23.2285,23.1983-23.2285
		c12.8223,0,23.2178,10.0899,23.2178,23.2285h20.6338c0.0195-5.8398,2.4863-12.2207,6.7861-16.5214
		c4.3203-4.3301,10.4746-6.8946,16.5898-6.8946c0.0791,0,0.4346-0.0986,0.4346-0.0888v-20.4366
		c-13.1387,0-23.2188-10.3955-23.2188-23.2177c0-12.8418,10.08-23.2276,23.2188-23.2276v-20.9101
		c-13.1387,0-23.2188-10.3965-23.2188-23.2285c0-12.8223,10.08-23.2276,23.2188-23.2276v-20.9004
		c-13.1387,0-23.2188-10.3955-23.2188-23.2275c0-12.832,10.08-23.2285,23.2188-23.2285v-20.9005
		c-13.1387,0-23.2188-10.4053-23.2188-23.2275c0-12.8222,10.08-23.2275,23.2188-23.2275v-20.9004
		c-13.1387,0-23.2188-10.4062-23.2188-23.2275c0-12.833,10.08-23.2285,23.2188-23.2285v-20.8995
		c-13.1387,0-23.2188-10.4062-23.2188-23.2285c0-12.832,10.08-23.2275,23.2188-23.2275v-20.9102
		c-13.1387,0-23.2188-10.3955-23.2188-23.2177c0-12.8321,10.08-23.2286,23.2188-23.2286v-20.9101
		c-13.1387,0-23.2188-10.3955-23.2188-23.2227c0-12.8271,10.08-23.228,23.2188-23.228v-20.9048
		c-13.1387,0-23.2188-10.4013-23.2188-23.2285c0-12.832,10.08-23.2227,23.2188-23.2227v-20.9052
		c-13.1387,0-23.2188-10.4004-23.2188-23.2276c0-12.8271,10.08-23.2285,23.2188-23.2285v-20.8999
		c-13.1387,0-23.2188-10.4009-23.2188-23.228c0-12.832,10.08-23.2276,23.2188-23.2276v-20.9052
		c-13.1387,0-23.2188-10.4009-23.2188-23.2281c0-12.8271,10.08-23.2231,23.2188-23.2231v-20.9048
		C996.8569,157.7676,986.7769,147.3667,986.7769,134.5396z"/>
	<g>
		<rect x="81.6675" y="81.2339" fill="#EC7175" width="846.3447" height="846.9658"/>
		<path opacity="0.05" d="M920.1411,89.1197v831.1992H89.5386V89.1197H920.1411 M935.9028,73.3531H73.7871v862.7265h862.1157
			V73.3531L935.9028,73.3531z"/>
	</g>
</g>
<g id="love-stamp-12-hearts-clover">
	<path fill="#FEFEFB" d="M744.2202,504.5489c2.3281-1.1441,4.5176-2.3228,6.6484-3.5855c0.71-0.4092,1.3409-0.8677,2.0313-1.292
		c1.3613-0.8481,2.7227-1.7109,3.9853-2.5937c0.7491-0.5127,1.46-1.0752,2.17-1.628c1.124-0.8378,2.2285-1.6767,3.2549-2.5444
		c0.7294-0.5869,1.4199-1.2182,2.0908-1.8296c0.9463-0.8481,1.8935-1.7212,2.7812-2.5888c0.6514-0.6514,1.2823-1.3169,1.8936-1.9532
		c0.8486-0.8974,1.6181-1.7851,2.4062-2.7075c0.5723-0.6855,1.125-1.3657,1.6778-2.0664c0.71-0.9175,1.4004-1.8686,2.0703-2.8159
		c0.4941-0.7002,0.9863-1.4053,1.4209-2.1055c0.6318-0.9912,1.2236-1.9878,1.7949-2.9839c0.3945-0.7104,0.8096-1.4008,1.1836-2.1108
		c0.5527-1.0552,1.0264-2.1304,1.5185-3.2051c0.3165-0.6709,0.6319-1.3418,0.9278-2.0127c0.4931-1.208,0.9267-2.416,1.3418-3.6396
		c0.1767-0.5718,0.414-1.1192,0.6113-1.6866c0.5322-1.79,1.0254-3.5996,1.4199-5.4145c0.0391-0.2124,0.0596-0.4341,0.0987-0.6411
		c0.3349-1.6177,0.6318-3.2207,0.8486-4.8428c0.0781-0.6562,0.1182-1.312,0.1777-1.9824c0.1377-1.169,0.2364-2.3574,0.2949-3.5264
		c0.0401-0.7695,0.0401-1.5386,0.0401-2.3027c0.0195-1.085,0.039-2.1504,0-3.2256c-0.0401-0.8184-0.0986-1.6226-0.1582-2.4414
		c-0.0586-1.0156-0.1377-2.0366-0.2363-3.0527c-0.0987-0.8379-0.2168-1.6768-0.335-2.5147
		c-0.1582-0.9766-0.3164-1.9775-0.5137-2.9541c-0.1377-0.8335-0.3154-1.6865-0.5127-2.5254
		c-0.1971-0.9614-0.4541-1.9228-0.7099-2.875c-0.2168-0.8481-0.4541-1.6767-0.71-2.5146c-0.2764-0.9326-0.5918-1.8496-0.9072-2.7866
		c-0.2969-0.8238-0.5723-1.6719-0.8887-2.5005c-0.3546-0.9024-0.7296-1.795-1.124-2.6875c-0.3545-0.814-0.6904-1.6377-1.0459-2.4268
		c-0.4336-0.8877-0.8867-1.7505-1.3213-2.6382c-0.4141-0.7788-0.8086-1.5879-1.2432-2.3471
		c-0.5117-0.962-1.1035-1.8692-1.6757-2.8116c-0.8488-1.3906-1.7559-2.7568-2.6837-4.1025
		c-0.5323-0.7451-1.0254-1.5044-1.5782-2.2393c-0.5918-0.7841-1.2422-1.5337-1.873-2.3027
		c-0.5332-0.6904-1.086-1.3711-1.6572-2.0371c-0.6514-0.7495-1.3418-1.4697-2.0323-2.2095
		c-0.5722-0.6216-1.164-1.2475-1.7754-1.8638c-0.7295-0.7153-1.4795-1.4008-2.2089-2.0761
		c-0.6319-0.5869-1.2626-1.169-1.8946-1.7217c-0.789-0.6655-1.5576-1.3018-2.3672-1.9326
		c-0.6699-0.5181-1.3408-1.0508-2.0312-1.5489c-0.8281-0.6064-1.6572-1.208-2.4854-1.7802
		c-0.7304-0.4785-1.4209-0.9322-2.1504-1.3906c-0.8681-0.5528-1.7363-1.085-2.663-1.5879c-0.71-0.4292-1.46-0.8238-2.209-1.2134
		c-0.9473-0.4883-1.8545-0.9566-2.7823-1.4058c-0.789-0.355-1.5781-0.6855-2.3662-1.0156c-0.9472-0.419-1.914-0.8438-2.9004-1.2031
		c-0.789-0.3008-1.5976-0.5479-2.3867-0.8042c-1.0459-0.355-2.0517-0.7202-3.0976-1.0059l-0.0196-0.0102l0,0
		c-5.7402-1.6172-11.7763-2.5245-18.0693-2.6036c-33.456-0.3945-57.2266,9.3555-98.2773,48.2066
		c-44.9961,42.5991-71.5088,74.9111-99.8155,84.0395c8.9356-28.3618,41.0508-55.1255,83.3243-100.4126
		c38.5458-41.3217,48.1718-65.1665,47.5214-98.5879c-1.3027-67.6713-98.1786-105.5366-136.9023-32.228v-0.0195
		c-0.5723,1.1045-1.1738,2.1299-1.7256,3.2695c-42.856-80.6074-138.5195-35.6211-137.2075,32.4649
		c0.6313,33.4262,14.7158,61.8569,52.0972,96.3291c4.2612,3.9209,8.3642,7.6635,12.3886,11.3178
		c31.9273,29.1016,55.9541,50.2139,68.3916,71.2471c3.4912,5.8882,6.0557,11.7915,7.6338,17.8574
		c-0.6308,0.1382-1.2519,0.291-1.8838,0.4195c-0.8379-0.1534-1.667-0.3355-2.4951-0.5279c0,0,0,0,0-0.0097
		c-1.8447-0.4536-3.689-0.9815-5.5234-1.6128c-0.0293-0.0293-0.0396-0.0293-0.0791-0.0293c-1.8242-0.6514-3.6494-1.376-5.4839-2.21
		c-0.0195,0-0.0396-0.0098-0.0493-0.0195c-21.6104-9.794-43.3291-32.5586-74.1026-62.3604
		c-0.1279-0.1377-0.2563-0.2563-0.3945-0.3799c-2.3174-2.2685-4.7144-4.5615-7.1606-6.8891c-0.73-0.7105-1.4498-1.3858-2.1998-2.106
		c-3.0078-2.875-6.0952-5.7944-9.291-8.7783c-41.3369-38.585-65.1958-48.1523-98.6025-47.5254
		c-68.668,1.3262-106.7402,101.1172-28.9785,138.6319c-80.6021,42.8564-35.626,138.5195,32.4697,137.208
		c33.4268-0.6416,61.8525-14.7159,96.3047-52.0977c2.979-3.2158,5.8491-6.3525,8.6601-9.4492
		c1.2725-1.3711,2.4659-2.6924,3.7085-4.0635c2.5943-2.831,5.1089-5.6221,7.5747-8.334c1.3614-1.4902,2.7227-2.9687,4.044-4.4394
		c1.4502-1.5782,2.8408-3.1065,4.2612-4.6543c1.085-1.1836,2.1797-2.378,3.2349-3.541c1.3808-1.4903,2.7031-2.9297,4.0439-4.3604
		c1.0264-1.1142,2.0518-2.209,3.0777-3.2939c1.3217-1.3907,2.6235-2.7813,3.9253-4.1524c0.9668-0.9765,1.914-1.9629,2.831-2.9297
		c1.3115-1.3418,2.5938-2.6425,3.8565-3.9257c0.9072-0.8975,1.7949-1.8145,2.6826-2.6827c1.2627-1.2529,2.5254-2.456,3.7778-3.6689
		c0.8579-0.8086,1.7066-1.6074,2.5444-2.416c1.253-1.1446,2.4859-2.2891,3.7188-3.3731c0.8184-0.7402,1.6274-1.4209,2.4365-2.1308
		c1.2422-1.0655,2.4654-2.1114,3.6983-3.1172c0.7695-0.6309,1.5288-1.2324,2.2983-1.834c1.2524-0.957,2.4854-1.9337,3.7183-2.8408
		c0.7202-0.5323,1.4404-1.0059,2.1797-1.5244c1.2529-0.877,2.5351-1.7559,3.7675-2.5586c0.6709-0.4151,1.3418-0.7852,2.003-1.1895
		c1.3212-0.7832,2.623-1.5683,3.9253-2.2637c0.5327-0.2802,1.0454-0.5019,1.5781-0.7685c4.9511-2.4907,9.9419-4.335,15.0903-5.4649
		c0.9668-0.1972,1.9434-0.4043,2.9199-0.5566c0.8682,0.1328,1.7354,0.2656,2.5645,0.4434c0.1777,0.8388,0.3349,1.6865,0.4736,2.5254
		c-0.5137,3.25-1.3027,6.4697-2.3867,9.6357c-2.9893,8.912-8.1377,17.5322-15.1406,26.4785
		c-0.0591,0.0781-0.1084,0.1572-0.1875,0.2363c-1.3809,1.7461-2.8208,3.502-4.3399,5.2871
		c-0.0195,0.0293-0.0786,0.0987-0.1181,0.1377c-13.7295,16.0674-33.1602,33.4463-56.7432,55.2637
		c-0.0986,0.0986-0.207,0.1875-0.3057,0.2764c-3.1269,2.9199-6.3125,5.8584-9.5673,8.916
		c-30.8326,28.8496-45.6275,53.4199-49.9673,80.0898l0,0c0,0,0,0.0196,0,0.0489c-0.4043,2.4765-0.7202,4.9619-0.9273,7.4668
		c-0.0488,0.4238-0.0986,0.7988-0.1279,1.2129c-0.1973,2.6045-0.3452,5.2177-0.375,7.8711
		c-0.8281,68.0761,95.1606,112.3818,137.4248,31.4736c1.0645,2.1797,2.1895,4.2411,3.3535,6.2431
		c0.3545,0.582,0.6904,1.125,1.0449,1.7168c0.8877,1.459,1.795,2.8799,2.752,4.2305c0.3555,0.4941,0.6904,1.0068,1.0459,1.5
		c1.2529,1.7354,2.5547,3.4121,3.8955,5c0.1973,0.1973,0.375,0.3945,0.5723,0.6123c1.164,1.3906,2.3867,2.6729,3.6298,3.8955
		c0.4336,0.4336,0.8682,0.8486,1.3018,1.2529c1.085,1.0459,2.1895,2.0421,3.334,2.998c0.375,0.3154,0.7695,0.6514,1.1445,0.957
		c1.4785,1.1836,2.9785,2.2881,4.5166,3.3233c0.3555,0.2373,0.71,0.4541,1.0654,0.6816c1.2227,0.7891,2.4463,1.5186,3.6885,2.209
		c0.5332,0.2959,1.0656,0.582,1.5988,0.8574c1.2031,0.6221,2.4062,1.2041,3.6484,1.7364c0.4346,0.1875,0.8682,0.414,1.3027,0.5918
		c1.5782,0.6513,3.1758,1.2333,4.793,1.7558c0.5332,0.168,1.1055,0.3252,1.6572,0.4932c1.124,0.3154,2.249,0.6308,3.3535,0.8974
		c0.71,0.1485,1.3809,0.3057,2.0518,0.4434c1.1045,0.2275,2.249,0.3945,3.373,0.5723c0.6309,0.0986,1.2627,0.1972,1.9141,0.2959
		c1.4785,0.1679,2.9785,0.2861,4.4775,0.3652c0.8282,0.0294,1.6377,0.0596,2.4268,0.0596c0.8672,0.0195,1.7158,0.0195,2.584,0
		c0.8672-0.0401,1.7558-0.0498,2.6621-0.1094c0.75-0.0391,1.5195-0.1182,2.2891-0.1973c1.7558-0.167,3.5107-0.374,5.247-0.6992
		c0.5518-0.0596,1.085-0.1387,1.6172-0.2471c1.085-0.1972,2.1505-0.4443,3.1768-0.6806c0.5127-0.1485,1.0058-0.2461,1.499-0.3848
		c1.124-0.2959,2.249-0.582,3.373-0.9268c0-0.0205,0-0.0205,0-0.0205c2.7217-0.8183,5.3262-1.7949,7.9297-2.9189
		c0.0401-0.0195,0.0987-0.04,0.1387-0.0497c1.2627-0.5421,2.4854-1.124,3.708-1.7256c0.1192-0.0791,0.2568-0.1377,0.3945-0.2168
		c23.5137-11.8262,41.5049-35.4385,41.8594-64.4658c0.3947-33.4171-9.3691-57.207-48.2303-98.2676
		c-2.8018-2.959-5.543-5.7998-8.2266-8.6016c-1.1836-1.1933-2.3076-2.3671-3.4717-3.5605c-1.499-1.5576-2.998-3.0869-4.4775-4.5956
		c-1.3418-1.3712-2.6436-2.713-3.9649-4.0244c-1.2832-1.292-2.5254-2.5645-3.7676-3.8272
		c-33.3584-33.7324-56.832-56.4179-61.7636-81.5634c0.1181-0.6265,0.2558-1.2676,0.4043-1.8838
		c26.7783,6.7705,50.3711,32.8193,85.7207,71.1777c1.2236,1.3115,2.4072,2.5742,3.6699,3.9453
		c3.748,4.0635,7.6133,8.2461,11.6582,12.5752c34.7383,37.1357,63.2627,51.0127,96.6992,51.417
		C780.8335,642.8062,825.1382,546.8179,744.2202,504.5489z"/>
	<path fill="#91D0D2" d="M468.0698,345.5435c1.874-1.8984,3.6885-3.7134,5.4839-5.4985c0.4732-0.4883,0.9468-0.9468,1.4399-1.4253
		c1.4893-1.5088,2.9688-2.9737,4.3892-4.4038c1.2134-1.1939,2.397-2.3775,3.541-3.5362c0.4146-0.414,0.8286-0.8086,1.2232-1.2134
		c3.0078-3.0522,5.8193-5.9375,8.3637-8.6894c0.1578-0.1772,0.2959-0.3203,0.4341-0.4883c1.1045-1.2031,2.1699-2.3672,3.166-3.5405
		c0.2071-0.2271,0.4244-0.4634,0.6216-0.7105c0.9663-1.124,1.8936-2.2485,2.7617-3.3486c0.148-0.1675,0.2857-0.3496,0.4244-0.5078
		c6.0459-7.7524,9.5478-14.79,9.7148-22.3447c0-0.3653,0-0.7105,0.0195-1.0752l0.0498,2.6631
		c1.252,17.0039,18.7696,29.1753,43.6446,53.5424c15.9589,15.6036,24.9345,30.4331,25.25,46.6089
		c0.6308,32.9629-45.6866,54.7456-66.4385,15.7266c-4.1631,8.6553-9.9424,14.2031-16.3731,17.4531
		c-0.6904,0.3452-1.4008,0.7598-2.1108,1.0503c-1.4795,0.6118-2.979,1.085-4.4976,1.46c-0.7793,0.1972-1.5781,0.2807-2.3476,0.4091
		c-0.8877,0.1382-1.7949,0.2813-2.6826,0.3599c-0.8086,0.0693-1.6377,0.0742-2.4659,0.0938c-0.8876,0-1.7656-0.0391-2.663-0.1182
		c-0.7696-0.0542-1.5684-0.1035-2.3477-0.2217c-1.0059-0.1435-2.0117-0.3652-3.0181-0.5918
		c-0.6313-0.1631-1.2622-0.2617-1.9135-0.4346c-1.5284-0.4433-3.0381-0.996-4.5176-1.6416c-0.5918-0.2666-1.1734-0.582-1.7754-0.893
		c-0.9463-0.478-1.8936-0.9663-2.8008-1.5239c-0.6113-0.3599-1.2031-0.7496-1.7558-1.1392
		c-0.8877-0.6065-1.7554-1.2671-2.6036-1.9575c-0.4931-0.3897-0.9863-0.794-1.4795-1.2134
		c-1.0556-0.9712-2.0517-1.9824-2.9985-3.0674c-0.1973-0.227-0.4145-0.4048-0.5918-0.6265c-1.105-1.3115-2.0913-2.727-2.9985-4.187
		c-0.2862-0.4585-0.5127-0.937-0.7696-1.3955c-0.6113-1.0752-1.1635-2.1899-1.6469-3.3384
		c-0.2466-0.5527-0.4732-1.1396-0.6704-1.7119c-0.4346-1.1836-0.7696-2.372-1.0557-3.6093c-0.1377-0.543-0.2959-1.085-0.3945-1.6475
		c-0.335-1.79-0.5723-3.6348-0.6114-5.5479C444.7534,377.0913,452.7422,361.0586,468.0698,345.5435z"/>
	<path fill="#91D0D2" d="M398.3564,569.5621c-16.1757,0.3164-32.2329-7.6436-47.7378-23.001
		c-24.9345-24.668-39.0092-41.2031-55.6982-41.5684c-0.3647,0-0.7197,0-1.085,0l2.6734-0.0693
		c16.9941-1.2422,29.1753-18.7842,53.5376-43.6592c15.5937-15.9341,30.4375-24.9097,46.6133-25.2207
		c32.9731-0.6309,54.7412,45.6865,15.7221,66.4243C450.0298,520.6206,431.5854,568.941,398.3564,569.5621z"/>
	<path fill="#91D0D2" d="M567.1948,590.5708c0.5137,0.4834,1.0459,0.9278,1.5391,1.4307c0.9863,0.9961,1.9336,2.0313,2.8008,3.1162
		c0.375,0.5029,0.75,1.0069,1.125,1.5391c0.6505,0.917,1.2822,1.8642,1.8535,2.8506c0.2969,0.4726,0.5918,0.9472,0.8486,1.4394
		c0.75,1.4404,1.4209,2.9297,1.9727,4.4785c0.1582,0.4043,0.2568,0.8184,0.375,1.2422c0.414,1.2725,0.7695,2.584,1.0058,3.916
		c0.1182,0.5127,0.1973,1.0254,0.2764,1.5293c0.2559,1.7549,0.4336,3.541,0.3945,5.3848
		c-0.1582,13.1182-6.0957,25.3984-16.7285,37.9541l0,0c-1.2031,1.3809-2.4258,2.7813-3.708,4.1816
		c-1.4209,1.5586-2.8603,3.0967-4.4385,4.6553c-24.7168,24.5303-42.1758,36.8399-43.29,53.8242l-0.0391,2.6729
		c0-0.3555-0.0097-0.71,0-1.0557c-0.4931-16.708-17.1128-30.6543-41.9682-55.4219c-1.4795-1.4688-2.8404-2.9688-4.1822-4.458
		c-1.1045-1.2324-2.1699-2.4853-3.1953-3.7275c-10.5737-12.832-16.1367-26.0391-15.959-39.3848
		c0.3848-33.248,48.5664-51.998,66.9815-14.498c1.2519-2.3877,2.5937-4.4981,4.0039-6.4512
		c0.6514-0.8877,1.3711-1.6074,2.0517-2.3867c0.7989-0.9375,1.5489-1.9531,2.3975-2.7617c0.9072-0.8975,1.8731-1.627,2.8594-2.3867
		c0.6318-0.5137,1.2627-1.1055,1.9336-1.5586c1.0654-0.7305,2.1699-1.2823,3.2549-1.8643
		C542.2017,578.0943,557.0161,581.4771,567.1948,590.5708z"/>
	<path fill="#91D0D2" d="M724.8296,503.459c-16.7285,0.4981-30.6944,17.1323-55.4707,41.9781
		c-15.3672,15.455-31.3848,23.5332-47.541,23.3457c-2.1895-0.0293-4.3203-0.295-6.3711-0.71
		c-0.3555-0.0693-0.6719-0.2169-1.0264-0.296c-1.7353-0.4141-3.4326-0.9072-5.0107-1.5684
		c-0.1973-0.0879-0.375-0.1972-0.5518-0.2754c-1.7559-0.7695-3.4326-1.6376-5.0303-2.6835c-0.0195-0.0098-0.04-0.0391-0.0595-0.0586
		c-1.7159-1.1055-3.334-2.3379-4.8135-3.709l0,0c-16.3535-15.002-19.0352-44.2559,8.3447-57.6997
		c-39.1377-20.4712-17.7148-66.9273,15.2686-66.5474c16.1757,0.1973,31.0683,9.0645,46.7715,24.8999
		c2.7216,2.7319,5.2861,5.3706,7.7128,7.9155l0,0c3.0577,3.1905,5.8389,6.1446,8.5606,8.9854
		c1.3027,1.3657,2.5644,2.6875,3.7881,3.9746c0.6113,0.6411,1.2226,1.2578,1.8144,1.8691c1.6573,1.6817,3.2549,3.314,4.8135,4.8135
		c0.2363,0.2363,0.4736,0.4531,0.71,0.7051c1.5586,1.4844,3.0966,2.8896,4.5966,4.1865c0.1973,0.1729,0.4141,0.3701,0.6114,0.5479
		c1.5781,1.3413,3.1172,2.5395,4.6748,3.6396c0.2568,0.1973,0.5527,0.3945,0.789,0.5767c1.5196,1.0503,3.0381,1.9531,4.5577,2.747
		c0.2753,0.1382,0.5517,0.2759,0.8087,0.3995c1.538,0.7592,3.0966,1.3955,4.6747,1.854c0.2169,0.0742,0.4345,0.1035,0.6513,0.1582
		c1.6563,0.4433,3.3535,0.7841,5.0889,0.8974l2.6631,0.0542C725.5005,503.459,725.145,503.4688,724.8296,503.459z"/>
</g>
</svg>
