<?xml version="1.0" encoding="utf-8"?>
<!-- Generator: Adobe Illustrator 17.1.0, SVG Export Plug-In . SVG Version: 6.00 Build 0)  -->
<!DOCTYPE svg PUBLIC "-//W3C//DTD SVG 1.1//EN" "http://www.w3.org/Graphics/SVG/1.1/DTD/svg11.dtd">
<svg version="1.1" id="love-stamp-10" xmlns="http://www.w3.org/2000/svg" xmlns:xlink="http://www.w3.org/1999/xlink" x="0px"
	 y="0px" viewBox="0 0 1009.9956 1009.9956" enable-background="new 0 0 1009.9956 1009.9956" xml:space="preserve">
<g id="love-stamp-10-stamp">
	<path fill="#FEFEFB" d="M986.7769,134.5347c0-12.8223,10.08-23.2178,23.2188-23.2178V90.4068
		c-13.1387,0-23.2188-10.396-23.2188-23.2183c0-12.832,10.08-23.2378,23.2188-23.2378V22.814c0,0-0.3555,0.0098-0.4346,0.0098
		c-6.1152,0-12.1904-2.397-16.5107-6.7168c-4.2608-4.271-6.8057-10.2676-6.8652-16.107h-20.6338
		c0,12.4078-10.3955,23.2281-23.2178,23.2281c-12.8027,0-23.1983-10.8203-23.1983-23.2281h-20.8906
		c0,12.4078-10.3956,23.2281-23.2178,23.2281c-12.8223,0-23.1982-10.8203-23.1982-23.2281H830.938
		c0,12.4078-10.3955,23.2281-23.2178,23.2281c-12.8223,0-23.1982-10.8203-23.1982-23.2281h-20.8907
		c0,12.4078-10.3955,23.2281-23.2177,23.2281c-12.8223,0-23.2188-10.8203-23.2188-23.2281h-20.8896
		c0,12.4078-10.376,23.2281-23.1983,23.2281c-12.8125,0-23.209-10.8203-23.209-23.2281h-20.8896
		c0,12.4078-10.3857,23.2281-23.208,23.2281S582.5913,12.4078,582.5913,0h-20.8896c0,12.4078-10.3956,23.2281-23.2081,23.2281
		c-12.8222,0-23.2187-10.8203-23.2187-23.2281H494.395c0,12.4078-10.3965,23.2281-23.2182,23.2281
		c-12.8125,0-23.1988-10.8203-23.1988-23.2281h-20.8896c0,12.4078-10.3965,23.2281-23.2188,23.2281
		c-12.812,0-23.208-10.8203-23.208-23.2281h-20.8804c0,12.4078-10.396,23.2281-23.2182,23.2281
		c-12.8223,0-23.208-10.8203-23.208-23.2281h-20.8902c0,12.4078-10.3862,23.2281-23.2085,23.2281
		c-12.8222,0-23.2177-10.8203-23.2177-23.2281h-20.8809c0,12.4078-10.3955,23.2281-23.208,23.2281
		c-12.8223,0-23.2178-10.8203-23.2178-23.2281h-20.8906c0,12.4078-10.3857,23.2281-23.1982,23.2281
		c-12.8223,0-23.2178-10.8203-23.2178-23.2281H90.5347c0,12.4078-10.3955,23.2281-23.208,23.2281S44.1186,12.4078,44.1186,0H23.3267
		c-0.0591,5.8394-2.5249,11.836-6.7862,16.107c-4.3198,4.3198-10.3164,6.7558-16.4316,6.7558C0.0791,22.8628,0,22.8238,0,22.8238
		v20.5547c12.7729,0,23.2085,10.396,23.2085,23.2182c0,12.8321-10.4356,23.2378-23.2085,23.2378v20.9004
		c12.7729,0,23.2085,10.3955,23.2085,23.2275c0,12.8223-10.4356,23.2183-23.2085,23.2183v20.9097
		c12.7729,0,23.2085,10.3965,23.2085,23.2285S12.7729,224.5464,0,224.5464v20.9004c12.7729,0,23.2085,10.4053,23.2085,23.2276
		c0,12.8222-10.4356,23.2285-23.2085,23.2285v20.8999c12.7729,0,23.2085,10.396,23.2085,23.228S12.7729,359.2583,0,359.2583v20.9102
		c12.7729,0,23.2085,10.396,23.2085,23.2183c0,12.832-10.4356,23.228-23.2085,23.228v20.8999
		c12.7729,0,23.2085,10.4058,23.2085,23.2378c0,12.8222-10.4356,23.2178-23.2085,23.2178v20.9101
		c12.7729,0,23.2085,10.3965,23.2085,23.2285c0,12.8223-10.4356,23.2276-23.2085,23.2276v20.8906
		c12.7729,0,23.2085,10.3954,23.2085,23.2372c0,12.8223-10.4356,23.2188-23.2085,23.2188v20.9102
		c12.7729,0,23.2085,10.3955,23.2085,23.2178c0,12.8213-10.4356,23.2373-23.2085,23.2373v20.8906
		c12.7729,0,23.2085,10.416,23.2085,23.2373c0,12.8223-10.4356,23.2178-23.2085,23.2178v20.9102
		c12.7729,0,23.2085,10.3965,23.2085,23.2188c0,12.8418-10.4356,23.2372-23.2085,23.2372v20.9102
		c12.7729,0,23.2085,10.3955,23.2085,23.2177c0,12.8223-10.4356,23.2188-23.2085,23.2188v20.9101
		c12.7729,0,23.2085,10.3955,23.2085,23.2373c0,12.8223-10.4356,23.2178-23.2085,23.2178v21.0088c0,0,0.0791,0,0.1089,0
		c6.1152,0,12.102,2.6631,16.4219,6.9834c4.3007,4.3008,6.7763,10.6914,6.7959,16.5312h20.7919
		c0-13.1386,10.3956-23.2382,23.2081-23.2382s23.208,10.0996,23.208,23.2382h20.8906c0-13.1386,10.3955-23.2382,23.2178-23.2382
		c12.8125,0,23.1982,10.0996,23.1982,23.2382h20.8906c0-13.1386,10.3955-23.2382,23.2178-23.2382
		c12.8125,0,23.208,10.0996,23.208,23.2382h20.8809c0-13.1386,10.3955-23.2382,23.2177-23.2382
		c12.8223,0,23.2085,10.0996,23.2085,23.2382h20.8902c0-13.1386,10.3857-23.2382,23.208-23.2382
		c12.8222,0,23.2182,10.0996,23.2182,23.2382h20.8804c0-13.1386,10.396-23.2382,23.208-23.2382
		c12.8223,0,23.2188,10.0996,23.2188,23.2382h20.8896c0-13.1386,10.3863-23.2382,23.1988-23.2382
		c12.8217,0,23.2182,10.0996,23.2182,23.2382h20.8799c0-13.1386,10.3965-23.2382,23.2187-23.2382
		c12.8125,0,23.2081,10.0996,23.2081,23.2382h20.8896c0-13.1386,10.3867-23.2382,23.209-23.2382s23.208,10.0996,23.208,23.2382
		h20.8896c0-13.1386,10.3965-23.2382,23.209-23.2382c12.8223,0,23.1983,10.0996,23.1983,23.2382h20.8896
		c0-13.1386,10.3965-23.2382,23.2188-23.2382c12.8222,0,23.2177,10.0996,23.2177,23.2382h20.8907
		c0-13.1386,10.3759-23.2382,23.1982-23.2382c12.8223,0,23.2178,10.0996,23.2178,23.2382h20.8906
		c0-13.1386,10.376-23.2382,23.1982-23.2382c12.8222,0,23.2178,10.0996,23.2178,23.2382h20.8906
		c0-13.1386,10.3956-23.2382,23.1983-23.2382c12.8223,0,23.2178,10.0996,23.2178,23.2382h20.6338
		c0.0195-5.8398,2.4863-12.2304,6.7861-16.5312c4.3203-4.3203,10.4746-6.8848,16.5898-6.8848c0.0791,0,0.4346-0.0986,0.4346-0.0986
		v-20.4365c-13.1387,0-23.2188-10.3955-23.2188-23.2178c0-12.8418,10.08-23.2178,23.2188-23.2178v-20.9101
		c-13.1387,0-23.2188-10.3965-23.2188-23.2383c0-12.8223,10.08-23.2178,23.2188-23.2178v-20.9101
		c-13.1387,0-23.2188-10.3955-23.2188-23.2178c0-12.8418,10.08-23.2383,23.2188-23.2383v-20.8906
		c-13.1387,0-23.2188-10.415-23.2188-23.2372c0-12.8223,10.08-23.2178,23.2188-23.2178v-20.9102
		c-13.1387,0-23.2188-10.3964-23.2188-23.2177c0-12.8428,10.08-23.2383,23.2188-23.2383v-20.8896
		c-13.1387,0-23.2188-10.416-23.2188-23.2382c0-12.8223,10.08-23.2178,23.2188-23.2178v-20.9102
		c-13.1387,0-23.2188-10.3955-23.2188-23.2177c0-12.8321,10.08-23.2286,23.2188-23.2286v-20.9101
		c-13.1387,0-23.2188-10.3955-23.2188-23.2276c0-12.8222,10.08-23.2182,23.2188-23.2182v-20.9097
		c-13.1387,0-23.2188-10.3965-23.2188-23.2285s10.08-23.2275,23.2188-23.2275v-20.9004c-13.1387,0-23.2188-10.4053-23.2188-23.2276
		c0-12.8222,10.08-23.2285,23.2188-23.2285v-20.8999c-13.1387,0-23.2188-10.396-23.2188-23.228
		c0-12.832,10.08-23.2276,23.2188-23.2276v-20.9101c-13.1387,0-23.2188-10.396-23.2188-23.2183
		c0-12.832,10.08-23.228,23.2188-23.228v-20.8999C996.8569,157.7725,986.7769,147.3667,986.7769,134.5347z"/>
	<g>
		<rect x="81.6772" y="81.2339" fill="#9F5F5E" width="846.335" height="846.9551"/>
		<path opacity="0.05" d="M920.1411,89.1246v831.1943H89.5483V89.1246H920.1411 M935.9028,73.3531H73.7871v862.7265h862.1157
			V73.3531L935.9028,73.3531z"/>
	</g>
</g>
<g id="love-stamp-10-i-love-you-heart">
	<g>
		<path fill="#91D0D2" d="M324.9346,227.2491h63.144v6.559h-11.3818v228.4126h11.3818v6.5494h-63.144v-6.5494h11.3921V233.8081
			h-11.3921V227.2491z"/>
	</g>
	<g>
		<path fill="#91D0D2" d="M383.0684,651.2886l29.3925-108.0117h-20.9101v-5.5137h40.7944v5.5137h-13.6606l-31.2661,115.2519
			v114.2061h12.6245v6.5791h-65.6397v-6.5791h12.6245V665.0874L311.856,543.2769h-9.7354v-5.5137h66.252v5.5137h-13.4541
			L383.0684,651.2886z"/>
		<path fill="#91D0D2" d="M494.227,782.7466c-23.0405,0-40.2421-10.416-51.6435-31.2178
			c-11.3926-20.8212-17.0635-50.9433-17.0635-90.4062c0-39.4531,6.0952-70.502,18.3154-93.1582
			c12.2012-22.6454,29.501-34.0078,51.8516-34.0078c22.3691,0,39.2256,10.7803,50.6084,32.292
			c11.3916,21.4717,17.083,52.0381,17.083,91.5996c0,39.5713-5.7705,70.2558-17.291,92.1025
			C534.5776,771.8081,517.2769,782.7466,494.227,782.7466z M520.73,672.6929v-25.5566c0-42.0762-1.253-68.6475-3.7285-79.6944
			c-2.752-12.6543-6.6778-20.4756-11.7871-23.4746c-2.9092-1.8154-6.4209-2.7422-10.5635-2.7422
			c-4.1524,0-7.7032,0.9268-10.6621,2.7422c-2.9688,1.8448-5.4146,5.0694-7.3477,9.6563c-1.9336,4.6357-3.4819,9.459-4.6558,14.5088
			c-1.1733,5.0498-2.1206,12.2011-2.8012,21.3828c-0.8281,13.3652-1.2525,33.0224-1.2525,59.0019v24.8457
			c0,28.0811,0.6509,48.0147,1.9829,59.8604c1.3018,11.8652,2.9092,20.3281,4.8526,25.3583
			c4.29,11.2734,10.9282,16.9053,19.8838,16.9053c10.8994,0,17.9912-7.6436,21.206-22.9415
			C519.1216,737.2671,520.73,710.6265,520.73,672.6929z"/>
		<path fill="#91D0D2" d="M632.4106,754.4683c4.3506,11.2637,12.1817,16.8857,23.5049,16.8857
			c11.3223,0,20.0117-5.8584,26.0781-17.5957c6.0655-11.7275,9.1231-29.5498,9.1231-53.4785V544.3023H677.644v-6.5391h30.2305
			v6.5391h-11.3721v153.5508c0,28.5547-3.8173,49.8095-11.4023,63.8554c-7.5947,14.0254-21.0186,21.0381-40.2617,21.0381
			c-19.2432,0-33.9395-6.6679-44.0889-20.0225c-10.1484-13.335-15.2188-36.2275-15.2188-68.6386V544.3023h-11.3915v-6.5391h65.2255
			v6.5391h-13.4638v161.501C625.9009,726.9605,628.0708,743.1753,632.4106,754.4683z"/>
	</g>
	<path id="love-stamp-10-36" fill="#EC7175" d="M576.9897,249.2539c0,0-4.3593,3.5113-8.0878,0.5718
		c-63.253-46.6728-128.4097-9.1528-123.3008,45.6377c6.2734,67.6026,87.4082,120.5381,121.1211,126.2393
		c-1.1446,0.355-2.3282,0.73-3.5605,1.0654c-9.9033,2.9292-22.1826,6.5689-23.4551,18.6807
		c-1.332,12.5556,9.0547,18.1977,19.0957,23.6816c8.2842,4.5078,16.1163,8.7783,18.0782,16.5996
		c2.2003,8.6997-2.7411,14.5191-7.9297,20.6538c-5.6319,6.5982-11.4219,13.4048-8.8574,24.0074
		c0.8387,3.4912,2.6044,6.4902,4.3007,9.3505c2.2979,3.8663,4.458,7.5352,4.1329,12.1709
		c-0.4738,6.628-6.2139,13.9561-16.6094,21.2061c-0.7891,0.5723-0.9766,1.6172-0.4248,2.4463
		c0.3154,0.4629,0.8681,0.7295,1.4013,0.7295c0.3643,0,0.71-0.1084,0.9864-0.3155c11.4609-7.999,17.5361-16.0078,18.0986-23.8291
		c0.4043-5.7011-2.1406-10.0214-4.6064-14.1836c-1.6465-2.7812-3.1954-5.3759-3.9053-8.4042
		c-2.1309-8.8565,2.8203-14.7354,8.1074-20.9292c5.543-6.5396,11.3135-13.3257,8.6797-23.7408
		c-2.3379-9.3012-11.2051-14.1538-19.7861-18.8095c-9.4688-5.168-18.375-10.0108-17.3399-20.2886
		c1.0361-9.7944,11.1855-12.7925,21.0195-15.7022c1.0059-0.2959,1.9825-0.582,2.9688-0.8779
		c-2.6533,4.4878-4.3008,10.3565-4.6953,12.9995c-3.0967-1.1142-4.1817,7.3389,2.5644,5.6621
		c13.1182-3.2651,7.8418,2.4458,21.9659-0.3061c2.5644-0.4829,2.3466-5.9673-1.007-5.356
		c-2.6426-5.4541-3.2646-13.0781-6.6971-16.7475c34.5908-6.4107,113.0135-54.1685,119.3846-120.6665
		C704.5806,238.503,640.7358,200.9439,576.9897,249.2539z"/>
</g>
</svg>
