<?xml version="1.0" encoding="utf-8"?>
<!-- Generator: Adobe Illustrator 17.1.0, SVG Export Plug-In . SVG Version: 6.00 Build 0)  -->
<!DOCTYPE svg PUBLIC "-//W3C//DTD SVG 1.1//EN" "http://www.w3.org/Graphics/SVG/1.1/DTD/svg11.dtd">
<svg version="1.1" id="love-stamp-13" xmlns="http://www.w3.org/2000/svg" xmlns:xlink="http://www.w3.org/1999/xlink" x="0px"
	 y="0px" viewBox="0 0 1009.9956 1009.9956" enable-background="new 0 0 1009.9956 1009.9956" xml:space="preserve">
<g id="love-stamp-13-stamp">
	<path fill="#FEFEFB" d="M986.7769,134.5445c0-12.8321,10.08-23.2276,23.2188-23.2276V90.4165
		c-13.1387,0-23.2188-10.4057-23.2188-23.228c0-12.832,10.08-23.228,23.2188-23.228V22.814c0,0-0.3555,0.0098-0.4346,0.0098
		c-6.1152,0-12.1904-2.397-16.5107-6.7168c-4.2608-4.271-6.8057-10.2676-6.8652-16.107h-20.6338
		c0,12.4078-10.3955,23.2281-23.2178,23.2281c-12.8027,0-23.1983-10.8203-23.1983-23.2281h-20.8906
		c0,12.4078-10.3956,23.2281-23.2178,23.2281c-12.8223,0-23.1982-10.8203-23.1982-23.2281H830.938
		c0,12.4078-10.3955,23.2281-23.2178,23.2281c-12.8223,0-23.1982-10.8203-23.1982-23.2281h-20.8907
		c0,12.4078-10.3955,23.2281-23.2177,23.2281c-12.8223,0-23.2188-10.8203-23.2188-23.2281h-20.8896
		c0,12.4078-10.376,23.2281-23.1983,23.2281c-12.8222,0-23.2187-10.8203-23.2187-23.2281h-20.8897
		c0,12.4078-10.3759,23.2281-23.1982,23.2281S582.5815,12.4078,582.5815,0h-20.8896c0,12.4078-10.3965,23.2281-23.1983,23.2281
		c-12.8222,0-23.2187-10.8203-23.2187-23.2281h-20.8901c0,12.4078-10.396,23.2281-23.208,23.2281
		c-12.8125,0-23.2085-10.8203-23.2085-23.2281h-20.8902c0,12.4078-10.396,23.2281-23.2085,23.2281
		c-12.812,0-23.208-10.8203-23.208-23.2281h-20.8901c0,12.4078-10.396,23.2281-23.2183,23.2281
		c-12.8125,0-23.1982-10.8203-23.1982-23.2281h-20.8902c0,12.4078-10.396,23.2281-23.2182,23.2281
		c-12.8125,0-23.208-10.8203-23.208-23.2281h-20.8809c0,12.4078-10.3955,23.2281-23.2178,23.2281
		c-12.8222,0-23.208-10.8203-23.208-23.2281h-20.8906c0,12.4078-10.3857,23.2281-23.208,23.2281S111.4155,12.4078,111.4155,0
		H90.5347c0,12.4078-10.3955,23.2281-23.208,23.2281C54.5044,23.2281,44.1089,12.4078,44.1089,0h-20.792
		c-0.0591,5.8394-2.5249,11.836-6.7861,16.107c-4.3199,4.3198-10.3169,6.7558-16.4219,6.7558C0.0791,22.8628,0,22.8238,0,22.8238
		v20.5547c12.7632,0,23.1987,10.396,23.1987,23.228c0,12.8223-10.4355,23.228-23.1987,23.228v20.9004
		c12.7632,0,23.1987,10.3955,23.1987,23.2275c0,12.8223-10.4355,23.2281-23.1987,23.2281v20.8999
		c12.7632,0,23.1987,10.4062,23.1987,23.2285c0,12.832-10.4355,23.2275-23.1987,23.2275v20.9004
		c12.7632,0,23.1987,10.4053,23.1987,23.2276c0,12.832-10.4355,23.2285-23.1987,23.2285v20.9096
		c12.7632,0,23.1987,10.396,23.1987,23.2183c0,12.832-10.4355,23.2275-23.1987,23.2275v20.9102
		c12.7632,0,23.1987,10.396,23.1987,23.228c0,12.8223-10.4355,23.2183-23.1987,23.2183v20.9101
		c12.7632,0,23.1987,10.3956,23.1987,23.2276c0,12.8222-10.4355,23.228-23.1987,23.228v20.8999
		c12.7632,0,23.1987,10.3965,23.1987,23.2285c0,12.8223-10.4355,23.2276-23.1987,23.2276v20.9004
		c12.7632,0,23.1987,10.3955,23.1987,23.2275c0,12.8223-10.4355,23.2285-23.1987,23.2285v20.9004
		c12.7632,0,23.1987,10.3955,23.1987,23.2275c0,12.8223-10.4355,23.2276-23.1987,23.2276v20.9004
		c12.7632,0,23.1987,10.4062,23.1987,23.2275c0,12.832-10.4355,23.2285-23.1987,23.2285v20.8994
		c12.7632,0,23.1987,10.4161,23.1987,23.2383c0,12.8223-10.4355,23.2178-23.1987,23.2178v20.9102
		c12.7632,0,23.1987,10.3955,23.1987,23.2382c0,12.8213-10.4355,23.2178-23.1987,23.2178v20.9102
		c12.7632,0,23.1987,10.3955,23.1987,23.2177c0,12.8223-10.4355,23.2178-23.1987,23.2178v21.0088c0,0,0.0791,0,0.1089,0
		c6.105,0,12.102,2.6631,16.4219,7.0029c4.3007,4.3008,6.7666,10.6719,6.7959,16.5117h20.7822
		c0-13.1386,10.3955-23.2188,23.2178-23.2188c12.8125,0,23.208,10.0801,23.208,23.2188h20.8808
		c0-13.1386,10.3955-23.2188,23.2178-23.2188s23.208,10.0801,23.208,23.2188h20.8906c0-13.1386,10.3858-23.2188,23.208-23.2188
		c12.8223,0,23.2178,10.0801,23.2178,23.2188h20.8809c0-13.1386,10.3955-23.2188,23.208-23.2188
		c12.8222,0,23.2182,10.0801,23.2182,23.2188h20.8902c0-13.1386,10.3857-23.2188,23.1982-23.2188
		c12.8223,0,23.2183,10.0801,23.2183,23.2188h20.8901c0-13.1386,10.396-23.2188,23.208-23.2188
		c12.8125,0,23.2085,10.0801,23.2085,23.2188h20.8902c0-13.1386,10.396-23.2188,23.2085-23.2188
		c12.812,0,23.208,10.0801,23.208,23.2188h20.8901c0-13.1386,10.3965-23.2188,23.2187-23.2188
		c12.8018,0,23.1983,10.0801,23.1983,23.2188h20.8896c0-13.1386,10.3965-23.2188,23.2188-23.2188s23.1982,10.0801,23.1982,23.2188
		h20.8897c0-13.1386,10.3965-23.2188,23.2187-23.2188c12.8223,0,23.1983,10.0801,23.1983,23.2188h20.8896
		c0-13.1386,10.3965-23.2188,23.2188-23.2188c12.8222,0,23.2177,10.0801,23.2177,23.2188h20.8907
		c0-13.1386,10.3759-23.2188,23.1982-23.2188c12.8223,0,23.2178,10.0801,23.2178,23.2188h20.8906
		c0-13.1386,10.376-23.2188,23.1982-23.2188c12.8222,0,23.2178,10.0801,23.2178,23.2188h20.8906
		c0-13.1386,10.3956-23.2188,23.1983-23.2188c12.8223,0,23.2178,10.0801,23.2178,23.2188h20.6338
		c0.0195-5.8398,2.4863-12.2109,6.7861-16.5117c4.3203-4.3398,10.4746-6.9043,16.5898-6.9043c0.0791,0,0.4346-0.0986,0.4346-0.0781
		V966.064c-13.1387,0-23.2188-10.3955-23.2188-23.2178c0-12.8418,10.08-23.2373,23.2188-23.2373v-20.9101
		c-13.1387,0-23.2188-10.3965-23.2188-23.2188c0-12.8222,10.08-23.2373,23.2188-23.2373v-20.8906
		c-13.1387,0-23.2188-10.3954-23.2188-23.2372c0-12.8223,10.08-23.2188,23.2188-23.2188v-20.9102
		c-13.1387,0-23.2188-10.4053-23.2188-23.2275c0-12.8222,10.08-23.2275,23.2188-23.2275v-20.9004
		c-13.1387,0-23.2188-10.4062-23.2188-23.2275c0-12.833,10.08-23.2285,23.2188-23.2285v-20.8995
		c-13.1387,0-23.2188-10.4062-23.2188-23.2285c0-12.832,10.08-23.2275,23.2188-23.2275v-20.9102
		c-13.1387,0-23.2188-10.3955-23.2188-23.2177c0-12.8321,10.08-23.2286,23.2188-23.2286v-20.9101
		c-13.1387,0-23.2188-10.3955-23.2188-23.2178c0-12.832,10.08-23.228,23.2188-23.228v-20.9097
		c-13.1387,0-23.2188-10.3965-23.2188-23.2285s10.08-23.2178,23.2188-23.2178v-20.9101c-13.1387,0-23.2188-10.3955-23.2188-23.2276
		c0-12.8222,10.08-23.2285,23.2188-23.2285v-20.8999c-13.1387,0-23.2188-10.396-23.2188-23.228
		c0-12.832,10.08-23.2276,23.2188-23.2276v-20.9003c-13.1387,0-23.2188-10.4058-23.2188-23.2281
		c0-12.832,10.08-23.228,23.2188-23.228v-20.8999C996.8569,157.7725,986.7769,147.3667,986.7769,134.5445z"/>
	<g>
		<rect x="81.6675" y="81.2339" fill="#91D0D2" width="846.3447" height="846.9756"/>
		<path opacity="0.05" d="M920.1411,89.1246v831.1943H89.5386V89.1246H920.1411 M935.9028,73.3531H73.7871v862.7265h862.1157
			V73.3531L935.9028,73.3531z"/>
	</g>
</g>
<g id="love-stamp-13-pixel-heart">
	<g id="love-stamp-13-color-2">
		<rect x="732.2661" y="378.4478" fill="#EC7175" width="50.4805" height="50.4551"/>
		<rect x="681.8257" y="428.9029" fill="#EC7175" width="50.4404" height="50.4902"/>
		<rect x="681.8257" y="327.9869" fill="#EC7175" width="50.4404" height="50.4609"/>
		<rect x="631.3452" y="479.3931" fill="#EC7175" width="50.4805" height="50.4502"/>
		<rect x="631.3452" y="378.4478" fill="#EC7175" width="50.4805" height="50.4551"/>
		<rect x="631.3452" y="277.5122" fill="#EC7175" width="50.4805" height="50.4747"/>
		<rect x="580.8657" y="529.8433" fill="#EC7175" width="50.4795" height="51.2197"/>
		<rect x="580.8657" y="428.9029" fill="#EC7175" width="50.4795" height="50.4902"/>
		<rect x="580.8657" y="327.9869" fill="#EC7175" width="50.4795" height="50.4609"/>
		<rect x="530.0112" y="581.063" fill="#EC7175" width="50.8545" height="50.4795"/>
		<rect x="530.0112" y="479.3931" fill="#EC7175" width="50.8545" height="50.4502"/>
		<rect x="530.0112" y="378.4478" fill="#EC7175" width="50.8545" height="50.4551"/>
		<rect x="479.5801" y="631.5425" fill="#EC7175" width="50.4311" height="50.461"/>
		<rect x="479.5801" y="529.8433" fill="#EC7175" width="50.4311" height="51.2197"/>
		<rect x="479.5801" y="428.9029" fill="#EC7175" width="50.4311" height="50.4902"/>
		<rect x="429.0903" y="581.063" fill="#EC7175" width="50.4898" height="50.4795"/>
		<rect x="429.0903" y="479.3931" fill="#EC7175" width="50.4898" height="50.4502"/>
		<rect x="429.0903" y="378.4478" fill="#EC7175" width="50.4898" height="50.4551"/>
		<rect x="378.6103" y="529.8433" fill="#EC7175" width="50.48" height="51.2197"/>
		<rect x="378.6103" y="428.9029" fill="#EC7175" width="50.48" height="50.4902"/>
		<rect x="378.6103" y="327.9869" fill="#EC7175" width="50.48" height="50.4609"/>
		<rect x="328.1597" y="479.3931" fill="#EC7175" width="50.4506" height="50.4502"/>
		<rect x="328.1597" y="378.4478" fill="#EC7175" width="50.4506" height="50.4551"/>
		<rect x="328.1597" y="277.5122" fill="#EC7175" width="50.4506" height="50.4747"/>
		<rect x="277.6899" y="428.9029" fill="#EC7175" width="50.4698" height="50.4902"/>
		<rect x="277.6899" y="327.9869" fill="#EC7175" width="50.4698" height="50.4609"/>
		<rect x="227.249" y="378.4478" fill="#EC7175" width="50.4409" height="50.4551"/>
	</g>
	<g id="love-stamp-13-color-1">
		<rect x="732.2661" y="428.9029" fill="#FEFEFB" width="50.4805" height="50.4902"/>
		<rect x="732.2661" y="327.9869" fill="#FEFEFB" width="50.4805" height="50.4609"/>
		<rect x="681.8257" y="479.3931" fill="#FEFEFB" width="50.4404" height="50.4502"/>
		<rect x="681.8257" y="378.4478" fill="#FEFEFB" width="50.4404" height="50.4551"/>
		<rect x="681.8257" y="277.5122" fill="#FEFEFB" width="50.4404" height="50.4747"/>
		<rect x="631.3452" y="529.8433" fill="#FEFEFB" width="50.4805" height="51.2197"/>
		<rect x="631.3452" y="428.9029" fill="#FEFEFB" width="50.4805" height="50.4902"/>
		<rect x="631.3452" y="327.9869" fill="#FEFEFB" width="50.4805" height="50.4609"/>
		<rect x="580.8657" y="581.063" fill="#FEFEFB" width="50.4795" height="50.4795"/>
		<rect x="580.8657" y="479.3931" fill="#FEFEFB" width="50.4795" height="50.4502"/>
		<rect x="580.8657" y="378.4478" fill="#FEFEFB" width="50.4795" height="50.4551"/>
		<rect x="580.8657" y="277.5122" fill="#FEFEFB" width="50.4795" height="50.4747"/>
		<rect x="530.0112" y="631.5425" fill="#FEFEFB" width="50.8545" height="50.461"/>
		<rect x="530.0112" y="529.8433" fill="#FEFEFB" width="50.8545" height="51.2197"/>
		<rect x="530.0112" y="428.9029" fill="#FEFEFB" width="50.8545" height="50.4902"/>
		<rect x="530.0112" y="327.9869" fill="#FEFEFB" width="50.8545" height="50.4609"/>
		<rect x="479.5801" y="682.0035" fill="#FEFEFB" width="50.4311" height="50.4795"/>
		<rect x="479.5801" y="581.063" fill="#FEFEFB" width="50.4311" height="50.4795"/>
		<rect x="479.5801" y="479.3931" fill="#FEFEFB" width="50.4311" height="50.4502"/>
		<rect x="479.5801" y="378.4478" fill="#FEFEFB" width="50.4311" height="50.4551"/>
		<rect x="429.0903" y="631.5425" fill="#FEFEFB" width="50.4898" height="50.461"/>
		<rect x="429.0903" y="529.8433" fill="#FEFEFB" width="50.4898" height="51.2197"/>
		<rect x="429.0903" y="428.9029" fill="#FEFEFB" width="50.4898" height="50.4902"/>
		<rect x="429.0903" y="327.9869" fill="#FEFEFB" width="50.4898" height="50.4609"/>
		<rect x="378.6103" y="581.063" fill="#FEFEFB" width="50.48" height="50.4795"/>
		<rect x="378.6103" y="479.3931" fill="#FEFEFB" width="50.48" height="50.4502"/>
		<rect x="378.6103" y="378.4478" fill="#FEFEFB" width="50.48" height="50.4551"/>
		<rect x="378.6103" y="277.5122" fill="#FEFEFB" width="50.48" height="50.4747"/>
		<rect x="328.1597" y="529.8433" fill="#FEFEFB" width="50.4506" height="51.2197"/>
		<rect x="328.1597" y="428.9029" fill="#FEFEFB" width="50.4506" height="50.4902"/>
		<rect x="328.1597" y="327.9869" fill="#FEFEFB" width="50.4506" height="50.4609"/>
		<rect x="277.6899" y="479.3931" fill="#FEFEFB" width="50.4698" height="50.4502"/>
		<rect x="277.6899" y="378.4478" fill="#FEFEFB" width="50.4698" height="50.4551"/>
		<rect x="277.6899" y="277.5122" fill="#FEFEFB" width="50.4698" height="50.4747"/>
		<rect x="227.249" y="428.9029" fill="#FEFEFB" width="50.4409" height="50.4902"/>
		<rect x="227.249" y="327.9869" fill="#FEFEFB" width="50.4409" height="50.4609"/>
	</g>
</g>
</svg>
