<?xml version="1.0" encoding="utf-8"?>
<!-- Generator: Adobe Illustrator 17.1.0, SVG Export Plug-In . SVG Version: 6.00 Build 0)  -->
<!DOCTYPE svg PUBLIC "-//W3C//DTD SVG 1.1//EN" "http://www.w3.org/Graphics/SVG/1.1/DTD/svg11.dtd">
<svg version="1.1" id="love-stamp-2" xmlns="http://www.w3.org/2000/svg" xmlns:xlink="http://www.w3.org/1999/xlink" x="0px"
	 y="0px" viewBox="0 0 1009.9956 1009.9956" enable-background="new 0 0 1009.9956 1009.9956" xml:space="preserve">
<g id="love-stamp-2-stamp">
	<path fill="#FEFEFB" d="M986.7769,134.5347c0-12.8223,10.08-23.2178,23.2188-23.2178V90.4068
		c-13.1387,0-23.2188-10.396-23.2188-23.2183c0-12.832,10.08-23.2378,23.2188-23.2378V22.814c0,0-0.3555,0.0098-0.4346,0.0098
		c-6.1152,0-12.1904-2.397-16.5107-6.7168c-4.2608-4.271-6.8057-10.2676-6.8652-16.107h-20.6338
		c0,12.4078-10.3955,23.2281-23.2178,23.2281c-12.8027,0-23.1983-10.8203-23.1983-23.2281h-20.8906
		c0,12.4078-10.3956,23.2281-23.2178,23.2281c-12.8223,0-23.1982-10.8203-23.1982-23.2281H830.938
		c0,12.4078-10.3955,23.2281-23.2178,23.2281c-12.8223,0-23.1982-10.8203-23.1982-23.2281h-20.8907
		c0,12.4078-10.3955,23.2281-23.2177,23.2281c-12.8223,0-23.2188-10.8203-23.2188-23.2281h-20.8896
		c0,12.4078-10.376,23.2281-23.1983,23.2281c-12.8125,0-23.209-10.8203-23.209-23.2281h-20.8896
		c0,12.4078-10.3857,23.2281-23.208,23.2281S582.5913,12.4078,582.5913,0h-20.8896c0,12.4078-10.3956,23.2281-23.2081,23.2281
		c-12.8222,0-23.2187-10.8203-23.2187-23.2281H494.395c0,12.4078-10.3965,23.2281-23.2182,23.2281
		c-12.8125,0-23.1988-10.8203-23.1988-23.2281h-20.8896c0,12.4078-10.3965,23.2281-23.2188,23.2281
		c-12.812,0-23.208-10.8203-23.208-23.2281h-20.8804c0,12.4078-10.396,23.2281-23.2182,23.2281
		c-12.8223,0-23.208-10.8203-23.208-23.2281h-20.8902c0,12.4078-10.3862,23.2281-23.2085,23.2281
		c-12.8222,0-23.2177-10.8203-23.2177-23.2281h-20.8809c0,12.4078-10.3955,23.2281-23.208,23.2281
		c-12.8223,0-23.2178-10.8203-23.2178-23.2281h-20.8906c0,12.4078-10.3857,23.2281-23.1982,23.2281
		c-12.8223,0-23.2178-10.8203-23.2178-23.2281H90.5347c0,12.4078-10.3955,23.2281-23.208,23.2281S44.1186,12.4078,44.1186,0H23.3267
		c-0.0591,5.8394-2.5249,11.836-6.7862,16.107c-4.3198,4.3198-10.3164,6.7558-16.4316,6.7558C0.0791,22.8628,0,22.8238,0,22.8238
		v20.5547c12.7729,0,23.2085,10.396,23.2085,23.2182c0,12.8321-10.4356,23.2378-23.2085,23.2378v20.9004
		c12.7729,0,23.2085,10.3955,23.2085,23.2275c0,12.8223-10.4356,23.2183-23.2085,23.2183v20.9097
		c12.7729,0,23.2085,10.3965,23.2085,23.2285S12.7729,224.5464,0,224.5464v20.9004c12.7729,0,23.2085,10.4053,23.2085,23.2276
		c0,12.8222-10.4356,23.2285-23.2085,23.2285v20.8999c12.7729,0,23.2085,10.396,23.2085,23.228S12.7729,359.2583,0,359.2583v20.9102
		c12.7729,0,23.2085,10.396,23.2085,23.2183c0,12.832-10.4356,23.228-23.2085,23.228v20.8999
		c12.7729,0,23.2085,10.4058,23.2085,23.2378c0,12.8222-10.4356,23.2178-23.2085,23.2178v20.9101
		c12.7729,0,23.2085,10.3965,23.2085,23.2285c0,12.8223-10.4356,23.2276-23.2085,23.2276v20.9004
		c12.7729,0,23.2085,10.3955,23.2085,23.2275c0,12.8223-10.4356,23.2285-23.2085,23.2285v20.9004
		c12.7729,0,23.2085,10.3955,23.2085,23.2275c0,12.8223-10.4356,23.2276-23.2085,23.2276v20.9004
		c12.7729,0,23.2085,10.4062,23.2085,23.2275c0,12.832-10.4356,23.2285-23.2085,23.2285v20.8994
		c12.7729,0,23.2085,10.4063,23.2085,23.2286c0,12.832-10.4356,23.2275-23.2085,23.2275v20.9102
		c12.7729,0,23.2085,10.3955,23.2085,23.2275c0,12.8223-10.4356,23.2187-23.2085,23.2187v20.9102
		c12.7729,0,23.2085,10.3955,23.2085,23.2275c0,12.8223-10.4356,23.2178-23.2085,23.2178v21.0088c0,0,0.0791,0,0.1089,0
		c6.1152,0,12.102,2.6631,16.4219,6.9932c4.3007,4.3007,6.7763,10.6816,6.7959,16.5214h20.7919
		c0-13.1386,10.3956-23.2285,23.2081-23.2285s23.208,10.0899,23.208,23.2285h20.8906c0-13.1386,10.3955-23.2285,23.2178-23.2285
		c12.8125,0,23.1982,10.0899,23.1982,23.2285h20.8906c0-13.1386,10.3955-23.2285,23.2178-23.2285
		c12.8125,0,23.208,10.0899,23.208,23.2285h20.8809c0-13.1386,10.3955-23.2285,23.2177-23.2285
		c12.8223,0,23.2085,10.0899,23.2085,23.2285h20.8902c0-13.1386,10.3857-23.2285,23.208-23.2285
		c12.8222,0,23.2182,10.0899,23.2182,23.2285h20.8804c0-13.1386,10.396-23.2285,23.208-23.2285
		c12.8223,0,23.2188,10.0899,23.2188,23.2285h20.8896c0-13.1386,10.3863-23.2285,23.1988-23.2285
		c12.8217,0,23.2182,10.0899,23.2182,23.2285h20.8799c0-13.1386,10.3965-23.2285,23.2187-23.2285
		c12.8125,0,23.2081,10.0899,23.2081,23.2285h20.8896c0-13.1386,10.3867-23.2285,23.209-23.2285s23.208,10.0899,23.208,23.2285
		h20.8896c0-13.1386,10.3965-23.2285,23.209-23.2285c12.8223,0,23.1983,10.0899,23.1983,23.2285h20.8896
		c0-13.1386,10.3965-23.2285,23.2188-23.2285c12.8222,0,23.2177,10.0899,23.2177,23.2285h20.8907
		c0-13.1386,10.3759-23.2285,23.1982-23.2285c12.8223,0,23.2178,10.0899,23.2178,23.2285h20.8906
		c0-13.1386,10.376-23.2285,23.1982-23.2285c12.8222,0,23.2178,10.0899,23.2178,23.2285h20.8906
		c0-13.1386,10.3956-23.2285,23.1983-23.2285c12.8223,0,23.2178,10.0899,23.2178,23.2285h20.6338
		c0.0195-5.8398,2.4863-12.2207,6.7861-16.5214c4.3203-4.3301,10.4746-6.8946,16.5898-6.8946c0.0791,0,0.4346-0.0986,0.4346-0.0888
		v-20.4366c-13.1387,0-23.2188-10.3955-23.2188-23.2177c0-12.8418,10.08-23.2276,23.2188-23.2276v-20.9101
		c-13.1387,0-23.2188-10.3965-23.2188-23.2285c0-12.8223,10.08-23.2276,23.2188-23.2276v-20.9004
		c-13.1387,0-23.2188-10.3955-23.2188-23.2275c0-12.832,10.08-23.2285,23.2188-23.2285v-20.9005
		c-13.1387,0-23.2188-10.4053-23.2188-23.2275c0-12.8222,10.08-23.2275,23.2188-23.2275v-20.9004
		c-13.1387,0-23.2188-10.4062-23.2188-23.2275c0-12.833,10.08-23.2285,23.2188-23.2285v-20.8995
		c-13.1387,0-23.2188-10.4062-23.2188-23.2285c0-12.832,10.08-23.2275,23.2188-23.2275v-20.9102
		c-13.1387,0-23.2188-10.3955-23.2188-23.2177c0-12.8321,10.08-23.2286,23.2188-23.2286v-20.9101
		c-13.1387,0-23.2188-10.3955-23.2188-23.2276c0-12.8222,10.08-23.2182,23.2188-23.2182v-20.9097
		c-13.1387,0-23.2188-10.3965-23.2188-23.2285s10.08-23.2275,23.2188-23.2275v-20.9004c-13.1387,0-23.2188-10.4053-23.2188-23.2276
		c0-12.8222,10.08-23.2285,23.2188-23.2285v-20.8999c-13.1387,0-23.2188-10.396-23.2188-23.228
		c0-12.832,10.08-23.2276,23.2188-23.2276v-20.9101c-13.1387,0-23.2188-10.396-23.2188-23.2183
		c0-12.832,10.08-23.228,23.2188-23.228v-20.8999C996.8569,157.7725,986.7769,147.3667,986.7769,134.5347z"/>
	<g>
		<rect x="81.6772" y="81.2339" fill="#9F5F5E" width="846.335" height="846.9658"/>
		<path opacity="0.05" d="M920.1411,89.1246v831.1943H89.5483V89.1246H920.1411 M935.9028,73.3531H73.7871v862.7265h862.1157
			V73.3531L935.9028,73.3531z"/>
	</g>
</g>
<g id="love-stamp-2-heart-arrow">
	<path id="love-stamp-2-heart" fill="#EC7175" d="M641.5835,312.9161c-60.294-14.627-106.2266,7.3676-136.2998,49.5678
		c-30.1123-42.2002-76.0454-64.1948-136.3594-49.5678c-148.8652,36.0844-132.9267,230.0648-10.208,279.4702
		c104.6289,42.1748,146.5674,98.8291,146.5674,98.8291s41.8799-56.6543,146.5185-98.8291
		C774.5005,542.981,790.4497,349.0005,641.5835,312.9161z"/>
	<g>
		<polygon fill="#FEFEFB" points="179.4614,732.4244 216.1528,739.2886 194.6313,757.0522 199.6616,763.187 221.2227,745.4331 
			220.9858,782.7466 245.2202,762.7632 245.4761,720.2535 203.6763,712.4605 		"/>
		<polygon fill="#FEFEFB" points="208.9922,708.0816 250.7534,715.9136 250.4771,758.4038 274.7207,738.4214 274.9971,695.9009 
			233.2163,688.1089 		"/>
		<polygon fill="#FEFEFB" points="430.7866,562.2339 299.4087,670.6206 262.6978,663.7759 238.4834,683.7398 280.2441,691.5611 
			280.0073,734.0415 304.2319,714.0787 304.4683,676.7359 435.8467,568.3882 		"/>
		<polygon fill="#FEFEFB" points="732.8579,257.1294 765.0718,276.1509 618.1977,397.2813 623.2681,403.4117 770.0815,282.2857 
			782.7065,317.5323 830.5337,227.2491 		"/>
	</g>
</g>
</svg>
