<?xml version="1.0" encoding="utf-8"?>
<!-- Generator: Adobe Illustrator 17.1.0, SVG Export Plug-In . SVG Version: 6.00 Build 0)  -->
<!DOCTYPE svg PUBLIC "-//W3C//DTD SVG 1.1//EN" "http://www.w3.org/Graphics/SVG/1.1/DTD/svg11.dtd">
<svg version="1.1" id="love-stamp-35" xmlns="http://www.w3.org/2000/svg" xmlns:xlink="http://www.w3.org/1999/xlink" x="0px"
	 y="0px" viewBox="0 0 1009.9956 1009.9956" enable-background="new 0 0 1009.9956 1009.9956" xml:space="preserve">
<g id="love-stamp-35-stamp">
	<path fill="#FEFEFB" d="M986.7769,134.5542c0-12.8418,10.08-23.2373,23.2188-23.2373V90.4263
		c-13.1387,0-23.2188-10.4155-23.2188-23.2378c0-12.8222,10.08-23.2182,23.2188-23.2182V22.8238c0,0-0.3555,0-0.4346,0
		c-6.1152,0-12.1904-2.3867-16.5107-6.7071C988.7895,11.836,986.2446,5.8394,986.1851,0h-20.6338
		c0,12.4078-10.3955,23.2378-23.2178,23.2378c-12.8027,0-23.1983-10.83-23.1983-23.2378h-20.8906
		c0,12.4078-10.3956,23.2378-23.2178,23.2378c-12.8223,0-23.1982-10.83-23.1982-23.2378H830.938
		c0,12.4078-10.3955,23.2378-23.2178,23.2378c-12.8223,0-23.1982-10.83-23.1982-23.2378h-20.8907
		c0,12.4078-10.3955,23.2378-23.2177,23.2378c-12.8223,0-23.2188-10.83-23.2188-23.2378h-20.8896
		c0,12.4078-10.376,23.2378-23.1983,23.2378c-12.8222,0-23.2187-10.83-23.2187-23.2378h-20.8897
		c0,12.4078-10.3759,23.2378-23.1982,23.2378S582.5815,12.4078,582.5815,0h-20.8896c0,12.4078-10.3965,23.2378-23.1983,23.2378
		c-12.8222,0-23.2187-10.83-23.2187-23.2378h-20.8901c0,12.4078-10.396,23.2378-23.2183,23.2378
		c-12.8022,0-23.1982-10.83-23.1982-23.2378h-20.8902c0,12.4078-10.396,23.2378-23.2182,23.2378
		c-12.8023,0-23.1983-10.83-23.1983-23.2378h-20.8901c0,12.4078-10.396,23.2378-23.2183,23.2378
		c-12.8222,0-23.1982-10.83-23.1982-23.2378h-20.8902c0,12.4078-10.396,23.2378-23.2182,23.2378
		c-12.8223,0-23.2178-10.83-23.2178-23.2378h-20.8711c0,12.4078-10.3955,23.2378-23.2178,23.2378
		c-12.8222,0-23.2177-10.83-23.2177-23.2378h-20.8907c0,12.4078-10.3759,23.2378-23.1982,23.2378S111.4155,12.4078,111.4155,0
		H90.5249c0,12.4078-10.3955,23.2378-23.1982,23.2378c-12.8223,0-23.2178-10.83-23.2178-23.2378h-20.792
		c-0.0591,5.8394-2.5249,11.836-6.7861,16.1167c-4.3199,4.3204-10.3169,6.7461-16.4322,6.7461C0.0791,22.8628,0,22.8238,0,22.8238
		v20.5547c12.7632,0,23.1987,10.396,23.1987,23.2382c0,12.8218-10.4355,23.2178-23.1987,23.2178v20.9102
		c12.7632,0,23.1987,10.3955,23.1987,23.2177c0,12.8223-10.4355,23.2383-23.1987,23.2383v20.8897
		c12.7632,0,23.1987,10.416,23.1987,23.2383c0,12.8222-10.4355,23.2177-23.1987,23.2177v20.9102
		c12.7632,0,23.1987,10.3955,23.1987,23.2178c0,12.8422-10.4355,23.2382-23.1987,23.2382v20.9102
		c12.7632,0,23.1987,10.3955,23.1987,23.2178c0,12.8222-10.4355,23.2177-23.1987,23.2177v20.9102
		c12.7632,0,23.1987,10.396,23.1987,23.2378c0,12.8223-10.4355,23.2183-23.1987,23.2183v20.9101
		c12.7632,0,23.1987,10.3955,23.1987,23.2178c0,12.8222-10.4355,23.2378-23.1987,23.2378v20.8901
		c12.7632,0,23.1987,10.3965,23.1987,23.2383c0,12.8223-10.4355,23.2178-23.1987,23.2178v20.9101
		c12.7632,0,23.1987,10.3955,23.1987,23.2178c0,12.8223-10.4355,23.2383-23.1987,23.2383v20.8906
		c12.7632,0,23.1987,10.3955,23.1987,23.2373c0,12.8223-10.4355,23.2178-23.1987,23.2178v20.9101
		c12.7632,0,23.1987,10.3965,23.1987,23.2178c0,12.8428-10.4355,23.2383-23.1987,23.2383v20.8896
		c12.7632,0,23.1987,10.4161,23.1987,23.2383c0,12.8223-10.4355,23.2178-23.1987,23.2178v20.9102
		c12.7632,0,23.1987,10.3955,23.1987,23.2382c0,12.8213-10.4355,23.2178-23.1987,23.2178v20.9102
		c12.7632,0,23.1987,10.3955,23.1987,23.2177c0,12.8223-10.4355,23.2178-23.1987,23.2178v21.0088c0,0,0.0791,0,0.0986,0
		c6.1153,0,12.1123,2.6631,16.4322,7.0029c4.3007,4.3008,6.7666,10.6719,6.7861,16.5117h20.792
		c0-13.1386,10.3955-23.2188,23.2178-23.2188c12.8027,0,23.1982,10.0801,23.1982,23.2188h20.8906
		c0-13.1386,10.3955-23.2188,23.2178-23.2188s23.1982,10.0801,23.1982,23.2188h20.8907c0-13.1386,10.3955-23.2188,23.2177-23.2188
		c12.8223,0,23.2178,10.0801,23.2178,23.2188h20.8711c0-13.1386,10.3955-23.2188,23.2178-23.2188
		c12.8222,0,23.2182,10.0801,23.2182,23.2188h20.8902c0-13.1386,10.376-23.2188,23.1982-23.2188
		c12.8223,0,23.2183,10.0801,23.2183,23.2188h20.8901c0-13.1386,10.396-23.2188,23.1983-23.2188
		c12.8222,0,23.2182,10.0801,23.2182,23.2188h20.8902c0-13.1386,10.396-23.2188,23.1982-23.2188
		c12.8223,0,23.2183,10.0801,23.2183,23.2188h20.8901c0-13.1386,10.3965-23.2188,23.2187-23.2188
		c12.8018,0,23.1983,10.0801,23.1983,23.2188h20.8896c0-13.1386,10.3965-23.2188,23.2188-23.2188s23.1982,10.0801,23.1982,23.2188
		h20.8897c0-13.1386,10.3965-23.2188,23.2187-23.2188c12.8223,0,23.1983,10.0801,23.1983,23.2188h20.8896
		c0-13.1386,10.3965-23.2188,23.2188-23.2188c12.8222,0,23.2177,10.0801,23.2177,23.2188h20.8907
		c0-13.1386,10.3759-23.2188,23.1982-23.2188c12.8223,0,23.2178,10.0801,23.2178,23.2188h20.8906
		c0-13.1386,10.376-23.2188,23.1982-23.2188c12.8222,0,23.2178,10.0801,23.2178,23.2188h20.8906
		c0-13.1386,10.3956-23.2188,23.1983-23.2188c12.8223,0,23.2178,10.0801,23.2178,23.2188h20.6338
		c0.0195-5.8398,2.4863-12.2109,6.7861-16.5117c4.3203-4.3398,10.4746-6.9043,16.5898-6.9043c0.0791,0,0.4346-0.0986,0.4346-0.0781
		V966.064c-13.1387,0-23.2188-10.3955-23.2188-23.2178c0-12.8418,10.08-23.2373,23.2188-23.2373v-20.9101
		c-13.1387,0-23.2188-10.3965-23.2188-23.2188c0-12.8222,10.08-23.2373,23.2188-23.2373v-20.8906
		c-13.1387,0-23.2188-10.3954-23.2188-23.2372c0-12.8223,10.08-23.2188,23.2188-23.2188v-20.9102
		c-13.1387,0-23.2188-10.3955-23.2188-23.2178c0-12.8213,10.08-23.2373,23.2188-23.2373v-20.8906
		c-13.1387,0-23.2188-10.416-23.2188-23.2373c0-12.8223,10.08-23.2188,23.2188-23.2188v-20.9092
		c-13.1387,0-23.2188-10.3964-23.2188-23.2187c0-12.8419,10.08-23.2373,23.2188-23.2373v-20.9102
		c-13.1387,0-23.2188-10.3955-23.2188-23.2177c0-12.8223,10.08-23.2188,23.2188-23.2188v-20.9101
		c-13.1387,0-23.2188-10.3956-23.2188-23.2178c0-12.8418,10.08-23.2378,23.2188-23.2378v-20.9097
		c-13.1387,0-23.2188-10.3965-23.2188-23.2182c0-12.8423,10.08-23.2183,23.2188-23.2183v-20.9102
		c-13.1387,0-23.2188-10.3955-23.2188-23.2373c0-12.8222,10.08-23.2182,23.2188-23.2182v-20.9102
		c-13.1387,0-23.2188-10.396-23.2188-23.2182c0-12.8418,10.08-23.2374,23.2188-23.2374v-20.8906
		c-13.1387,0-23.2188-10.4155-23.2188-23.2378c0-12.8217,10.08-23.2182,23.2188-23.2182v-20.9097
		C996.8569,157.7725,986.7769,147.3765,986.7769,134.5542z"/>
	<g>
		<rect x="81.6675" y="81.2339" fill="#EC7175" width="846.3447" height="846.9756"/>
		<path opacity="0.05" d="M920.1411,89.1246v831.1943H89.5386V89.1246H920.1411 M935.9028,73.3628H73.7768v862.7168h862.126V73.3628
			L935.9028,73.3628z"/>
	</g>
</g>
<g id="love-stamp-35-heart-arrow">
	<path fill="#9F5F5E" d="M659.0718,613.1382c-101.0293,40.7149-141.4297,95.3975-141.4297,95.3975s-40.439-54.6826-141.458-95.3975
		c-118.4478-47.7187-133.8145-234.9424,9.8828-269.7597c58.2226-14.1045,102.5381,7.1215,131.5752,47.8369
		c28.998-40.7154,73.3535-61.9414,131.5664-47.8369C792.9155,378.1958,777.4897,565.4195,659.0718,613.1382z M505.4116,460.1197
		c-29.8457,0-54.0303,24.185-54.0303,54.0312c0,29.8457,24.1846,54.0303,54.0303,54.0303c29.8067,0,54.0117-24.1846,54.0117-54.0303
		C559.4233,484.3047,535.2183,460.1197,505.4116,460.1197z"/>
	<path fill="#9F5F5E" d="M528.7583,514.1109c0,13.0986-10.5928,23.6914-23.7012,23.6914c-13.0986,0-23.7016-10.5928-23.7016-23.6914
		c0-13.1377,10.603-23.711,23.7016-23.711C518.1655,490.3999,528.7583,500.9732,528.7583,514.1109z"/>
	<polygon fill="#91D0D2" points="512.188,506.1617 425.3618,457.4371 407.0259,387.6055 372.3765,368.1353 391.728,438.5982 
		366.3403,424.356 348.0444,354.5044 313.355,335.0933 332.7363,405.4976 306.4311,390.7417 288.1147,320.9302 253.4653,301.48 
		274.9971,379.8335 196.9492,403.2881 231.352,421.7915 296.331,403.0909 320.8804,416.8599 255.9512,436.3892 290.354,454.8726 
		355.333,436.1724 380.8101,450.4737 315.8603,469.983 350.2436,488.4869 415.2622,469.7662 504.5142,519.8511 	"/>
</g>
</svg>
