<?xml version="1.0" encoding="utf-8"?>
<!-- Generator: Adobe Illustrator 17.1.0, SVG Export Plug-In . SVG Version: 6.00 Build 0)  -->
<!DOCTYPE svg PUBLIC "-//W3C//DTD SVG 1.1//EN" "http://www.w3.org/Graphics/SVG/1.1/DTD/svg11.dtd">
<svg version="1.1" id="love-stamp-7" xmlns="http://www.w3.org/2000/svg" xmlns:xlink="http://www.w3.org/1999/xlink" x="0px"
	 y="0px" viewBox="0 0 1009.9956 1009.9956" enable-background="new 0 0 1009.9956 1009.9956" xml:space="preserve">
<g id="love-stamp-7-stamp">
	<path fill="#FEFEFB" d="M986.7769,134.5347c0-12.8223,10.08-23.2178,23.2188-23.2178V90.4068
		c-13.1387,0-23.2188-10.396-23.2188-23.2183c0-12.832,10.08-23.2378,23.2188-23.2378V22.814c0,0-0.3555,0.0098-0.4346,0.0098
		c-6.1152,0-12.1904-2.397-16.5107-6.7168c-4.2608-4.271-6.8057-10.2676-6.8652-16.107h-20.6338
		c0,12.4078-10.3955,23.2281-23.2178,23.2281c-12.8027,0-23.1983-10.8203-23.1983-23.2281h-20.8906
		c0,12.4078-10.3956,23.2281-23.2178,23.2281c-12.8223,0-23.1982-10.8203-23.1982-23.2281H830.938
		c0,12.4078-10.3955,23.2281-23.2178,23.2281c-12.8223,0-23.1982-10.8203-23.1982-23.2281h-20.8907
		c0,12.4078-10.3955,23.2281-23.2177,23.2281c-12.8223,0-23.2188-10.8203-23.2188-23.2281h-20.8896
		c0,12.4078-10.376,23.2281-23.1983,23.2281c-12.8125,0-23.209-10.8203-23.209-23.2281h-20.8896
		c0,12.4078-10.3857,23.2281-23.208,23.2281S582.5913,12.4078,582.5913,0h-20.8896c0,12.4078-10.3956,23.2281-23.2081,23.2281
		c-12.8222,0-23.2187-10.8203-23.2187-23.2281H494.395c0,12.4078-10.3965,23.2281-23.2182,23.2281
		c-12.8125,0-23.1988-10.8203-23.1988-23.2281h-20.8896c0,12.4078-10.3965,23.2281-23.2188,23.2281
		c-12.812,0-23.208-10.8203-23.208-23.2281h-20.8804c0,12.4078-10.396,23.2281-23.2182,23.2281
		c-12.8223,0-23.208-10.8203-23.208-23.2281h-20.8902c0,12.4078-10.3862,23.2281-23.2085,23.2281
		c-12.8222,0-23.2177-10.8203-23.2177-23.2281h-20.8809c0,12.4078-10.3955,23.2281-23.208,23.2281
		c-12.8223,0-23.2178-10.8203-23.2178-23.2281h-20.8906c0,12.4078-10.3857,23.2281-23.1982,23.2281
		c-12.8223,0-23.2178-10.8203-23.2178-23.2281H90.5347c0,12.4078-10.3955,23.2281-23.208,23.2281S44.1186,12.4078,44.1186,0H23.3267
		c-0.0591,5.8394-2.5249,11.836-6.7862,16.107c-4.3198,4.3198-10.3164,6.7558-16.4316,6.7558C0.0791,22.8628,0,22.8238,0,22.8238
		v20.5547c12.7729,0,23.2085,10.396,23.2085,23.2182c0,12.8321-10.4356,23.2378-23.2085,23.2378v20.9004
		c12.7729,0,23.2085,10.3955,23.2085,23.2275c0,12.8223-10.4356,23.2183-23.2085,23.2183v20.9097
		c12.7729,0,23.2085,10.3965,23.2085,23.2285S12.7729,224.5464,0,224.5464v20.9004c12.7729,0,23.2085,10.4053,23.2085,23.2276
		c0,12.8222-10.4356,23.2285-23.2085,23.2285v20.8999c12.7729,0,23.2085,10.396,23.2085,23.228S12.7729,359.2583,0,359.2583v20.9102
		c12.7729,0,23.2085,10.396,23.2085,23.2183c0,12.832-10.4356,23.228-23.2085,23.228v20.8999
		c12.7729,0,23.2085,10.4058,23.2085,23.2378c0,12.8222-10.4356,23.2178-23.2085,23.2178v20.9101
		c12.7729,0,23.2085,10.3965,23.2085,23.2285c0,12.8223-10.4356,23.2276-23.2085,23.2276v20.8906
		c12.7729,0,23.2085,10.3954,23.2085,23.2372c0,12.8223-10.4356,23.2188-23.2085,23.2188v20.9102
		c12.7729,0,23.2085,10.3955,23.2085,23.2178c0,12.8213-10.4356,23.2373-23.2085,23.2373v20.8906
		c12.7729,0,23.2085,10.416,23.2085,23.2373c0,12.8223-10.4356,23.2178-23.2085,23.2178v20.9102
		c12.7729,0,23.2085,10.3965,23.2085,23.2188c0,12.8418-10.4356,23.2372-23.2085,23.2372v20.9102
		c12.7729,0,23.2085,10.3955,23.2085,23.2177c0,12.8223-10.4356,23.2188-23.2085,23.2188v20.9101
		c12.7729,0,23.2085,10.3955,23.2085,23.2373c0,12.8223-10.4356,23.2178-23.2085,23.2178v21.0088c0,0,0.0791,0,0.1089,0
		c6.1152,0,12.102,2.6631,16.4219,6.9834c4.3007,4.3008,6.7763,10.6914,6.7959,16.5312h20.7919
		c0-13.1386,10.3956-23.2382,23.2081-23.2382s23.208,10.0996,23.208,23.2382h20.8906c0-13.1386,10.3955-23.2382,23.2178-23.2382
		c12.8125,0,23.1982,10.0996,23.1982,23.2382h20.8906c0-13.1386,10.3955-23.2382,23.2178-23.2382
		c12.8125,0,23.208,10.0996,23.208,23.2382h20.8809c0-13.1386,10.3955-23.2382,23.2177-23.2382
		c12.8223,0,23.2085,10.0996,23.2085,23.2382h20.8902c0-13.1386,10.3857-23.2382,23.208-23.2382
		c12.8222,0,23.2182,10.0996,23.2182,23.2382h20.8804c0-13.1386,10.396-23.2382,23.208-23.2382
		c12.8223,0,23.2188,10.0996,23.2188,23.2382h20.8896c0-13.1386,10.3863-23.2382,23.1988-23.2382
		c12.8217,0,23.2182,10.0996,23.2182,23.2382h20.8799c0-13.1386,10.3965-23.2382,23.2187-23.2382
		c12.8125,0,23.2081,10.0996,23.2081,23.2382h20.8896c0-13.1386,10.3867-23.2382,23.209-23.2382s23.208,10.0996,23.208,23.2382
		h20.8896c0-13.1386,10.3965-23.2382,23.209-23.2382c12.8223,0,23.1983,10.0996,23.1983,23.2382h20.8896
		c0-13.1386,10.3965-23.2382,23.2188-23.2382c12.8222,0,23.2177,10.0996,23.2177,23.2382h20.8907
		c0-13.1386,10.3759-23.2382,23.1982-23.2382c12.8223,0,23.2178,10.0996,23.2178,23.2382h20.8906
		c0-13.1386,10.376-23.2382,23.1982-23.2382c12.8222,0,23.2178,10.0996,23.2178,23.2382h20.8906
		c0-13.1386,10.3956-23.2382,23.1983-23.2382c12.8223,0,23.2178,10.0996,23.2178,23.2382h20.6338
		c0.0195-5.8398,2.4863-12.2304,6.7861-16.5312c4.3203-4.3203,10.4746-6.8848,16.5898-6.8848c0.0791,0,0.4346-0.0986,0.4346-0.0986
		v-20.4365c-13.1387,0-23.2188-10.3955-23.2188-23.2178c0-12.8418,10.08-23.2178,23.2188-23.2178v-20.9101
		c-13.1387,0-23.2188-10.3965-23.2188-23.2383c0-12.8223,10.08-23.2178,23.2188-23.2178v-20.9101
		c-13.1387,0-23.2188-10.3955-23.2188-23.2178c0-12.8418,10.08-23.2383,23.2188-23.2383v-20.8906
		c-13.1387,0-23.2188-10.415-23.2188-23.2372c0-12.8223,10.08-23.2178,23.2188-23.2178v-20.9102
		c-13.1387,0-23.2188-10.3964-23.2188-23.2177c0-12.8428,10.08-23.2383,23.2188-23.2383v-20.8896
		c-13.1387,0-23.2188-10.416-23.2188-23.2382c0-12.8223,10.08-23.2178,23.2188-23.2178v-20.9102
		c-13.1387,0-23.2188-10.3955-23.2188-23.2177c0-12.8321,10.08-23.2286,23.2188-23.2286v-20.9101
		c-13.1387,0-23.2188-10.3955-23.2188-23.2276c0-12.8222,10.08-23.2182,23.2188-23.2182v-20.9097
		c-13.1387,0-23.2188-10.3965-23.2188-23.2285s10.08-23.2275,23.2188-23.2275v-20.9004c-13.1387,0-23.2188-10.4053-23.2188-23.2276
		c0-12.8222,10.08-23.2285,23.2188-23.2285v-20.8999c-13.1387,0-23.2188-10.396-23.2188-23.228
		c0-12.832,10.08-23.2276,23.2188-23.2276v-20.9101c-13.1387,0-23.2188-10.396-23.2188-23.2183
		c0-12.832,10.08-23.228,23.2188-23.228v-20.8999C996.8569,157.7725,986.7769,147.3667,986.7769,134.5347z"/>
	<g>
		<rect x="81.6772" y="81.2339" fill="#9F5F5E" width="846.335" height="846.9551"/>
		<path opacity="0.05" d="M920.1411,89.1246v831.1943H89.5483V89.1246H920.1411 M935.9028,73.3531H73.7871v862.7265h862.1157
			V73.3531L935.9028,73.3531z"/>
	</g>
</g>
<g id="love-stamp-7-love-glasses">
	<path fill="#91D0D2" d="M445.5815,448.1065c-10.7016-25.1611-37.2929-43.9307-63.2085-44.6314
		c-0.7988-0.039-1.5878-0.039-2.3872-0.039c-48.6255,0-64.5986,26.7783-64.7173,27.0547l-1.2871,2.6137l-1.1787-2.6728
		c-0.1137-0.2862-15.7221-26.9956-64.4858-26.9956c-0.7988,0-1.5781,0-2.3721,0.039c-26.0195,0.7007-52.6992,19.5196-63.4453,44.73
		c-10.1738,23.8892-4.6455,49.2769,15.6035,71.5484c39.3789,43.3681,109.3638,79.5468,116.6084,83.2158
		c7.1655-3.6885,76.1143-39.8867,115.2617-83.2158C450.2222,497.4624,455.7651,472.0152,445.5815,448.1065z"/>
	<path fill="#EC7175" d="M827.8413,448.2051c-10.751-25.2104-37.4316-44.0293-63.4404-44.73
		c-0.8086-0.039-1.5977-0.039-2.3672-0.039c-48.3301,0-64.2783,28.6621-64.417,28.9385l-1.1445,2.7812l-1.3116-2.6924
		c-0.1181-0.2861-16.3037-29.0273-64.8212-29.0273c-0.7891,0-1.5684,0-2.377,0.039c-25.9004,0.7007-52.4824,19.4703-63.2129,44.6314
		c-10.1699,23.9087-4.6357,49.3559,15.6328,71.647c39.127,43.3291,108.0811,79.5371,115.252,83.2158
		c7.2392-3.669,77.1992-39.8477,116.5937-83.2158C832.4663,497.482,838.02,472.0943,827.8413,448.2051z"/>
	<g id="love-stamp-7-shiny-effect" opacity="0.7">
		<path fill="#FEFEFB" d="M204.2085,479.0474c-5.0693,7.7822-0.1729-21.4228,23.3315-38.8018
			c21.3785-15.791,55.8999-11.0961,46.6978-9.8632C248.4302,433.815,215.4033,461.9151,204.2085,479.0474z"/>
		<path fill="#FEFEFB" d="M590.0483,477.2622c-5.0898,7.7725-0.1875-21.4423,23.3262-38.8212
			c21.3643-15.7813,55.8857-11.0767,46.6836-9.8536C634.2554,432.0196,601.2329,460.1197,590.0483,477.2622z"/>
	</g>
	<path fill="#FEFEFB" d="M848.228,450.4048c-0.6211,0-1.2324,0.0791-1.8242,0.2564c-1.6377-5.0894-3.7676-10.1392-6.5293-15.1006
		c-15.7715-28.3272-47.6699-47.9751-79.3799-48.833c-1.0449-0.0396-2.0518-0.0591-3.0771-0.0591
		c-27.627,0-48.3106,10.2871-62.6016,22.8037c-15.0117-13.1377-36.001-22.7939-62.8789-22.8037
		c-1.0254,0-2.0508,0.0195-3.0664,0.0591c-31.6318,0.8579-63.4609,20.4565-79.1924,48.7441
		c-2.8214,5.0698-4.9814,10.2378-6.6378,15.4361c-8.8867-4.9122-19.164-7.4268-31.6269-7.4268c-0.0244,0-0.044,0-0.084,0
		c-16.21,0.0098-29.4561,3.3433-42.8799,11.4214c-1.6968-6.5591-4.2612-13.0689-7.8018-19.4307
		c-15.7421-28.2876-47.5654-47.8862-79.1875-48.7441c-1.0351-0.0396-2.0512-0.0591-3.082-0.0591l0,0
		c-26.8672,0.0098-47.832,9.666-62.8633,22.8037c-14.3115-12.5068-34.9751-22.8037-62.6118-22.8037
		c-1.0112,0-2.0268,0.0195-3.0674,0.0591c-31.7104,0.8579-63.6274,20.5058-79.4135,48.833
		c-2.9053,5.2373-5.1143,10.5732-6.7911,15.9585c-0.5966-0.1675-1.228-0.2764-1.8691-0.2764
		c-5.6665,0-10.2627,7.082-10.2627,15.8111c0,8.2651,4.1231,15.0415,9.3604,15.7714c2.1748,17.1128,10.3164,34.0279,24.332,49.4341
		c42.3877,46.6729,115.8047,83.4727,118.9214,85.0117l12.1616,6.0557l12.1167-6.125c3.0625-1.5283,75.4145-38.3379,117.4858-84.9229
		c13.0738-14.3896,21.0284-30.0527,23.8199-45.9916l1.7407-1.4302c12.0185-9.2617,26.1968-14.3711,39.9316-14.3809
		c0.0196,0,0.044,0,0.044,0c7.6591,0,19.3271,6.4902,28.7959,13.355c2.3867,16.7773,10.5049,33.3276,24.2441,48.4477
		c42.0566,46.585,114.4131,83.3946,117.4707,84.9229l12.1221,6.125l12.1611-6.0557c3.1172-1.539,76.5391-38.3388,118.9307-85.0117
		c14.2627-15.6816,22.4394-32.9326,24.4316-50.3808c5.0401-1.0064,8.9258-7.6446,8.9258-15.6827
		C858.4956,457.4668,853.8999,450.4048,848.228,450.4048z M426.9546,519.9107c-39.7881,44.0889-110.7686,79.8828-110.7686,79.8828
		s-72.0361-35.7939-112.0761-79.8828c-48.6309-53.4981,1.4892-111.711,46.5049-112.9536c0.7695-0.0196,1.5439-0.0196,2.2886-0.0196
		c45.6519,0,61.9214,24.7369,62.6411,26.4927c0.8535-1.7558,16.9795-26.4927,62.834-26.4927c0.7793,0,1.5391,0,2.3179,0.0196
		C425.5937,408.1997,475.5806,466.4126,426.9546,519.9107z M806.2212,519.9107c-40.0352,44.0889-112.086,79.8828-112.086,79.8828
		s-70.9755-35.7939-110.7646-79.8828c-48.625-53.4981,1.3613-111.711,46.2588-112.9536c0.7695-0.0196,1.5283-0.0196,2.3076-0.0196
		c45.8545,0,62.0606,26.6109,62.918,28.3765c0.7099-1.7656,16.9258-28.3765,62.5625-28.3765c0.75,0,1.5293,0,2.2881,0.0196
		C804.7319,408.1997,854.8472,466.4126,806.2212,519.9107z"/>
</g>
</svg>
