<?xml version="1.0" encoding="utf-8"?>
<!-- Generator: Adobe Illustrator 17.1.0, SVG Export Plug-In . SVG Version: 6.00 Build 0)  -->
<!DOCTYPE svg PUBLIC "-//W3C//DTD SVG 1.1//EN" "http://www.w3.org/Graphics/SVG/1.1/DTD/svg11.dtd">
<svg version="1.1" id="love-stamp-29" xmlns="http://www.w3.org/2000/svg" xmlns:xlink="http://www.w3.org/1999/xlink" x="0px"
	 y="0px" viewBox="0 0 1009.9956 1009.9956" enable-background="new 0 0 1009.9956 1009.9956" xml:space="preserve">
<g id="love-stamp-29-stamp">
	<path fill="#FEFEFB" d="M986.7769,134.5542c0-12.8418,10.08-23.2373,23.2188-23.2373V90.4263
		c-13.1387,0-23.2188-10.4155-23.2188-23.2378c0-12.8222,10.08-23.2182,23.2188-23.2182V22.8238c0,0-0.3555,0-0.4346,0
		c-6.1152,0-12.1904-2.3867-16.5107-6.7071C988.7895,11.836,986.2446,5.8394,986.1851,0h-20.6338
		c0,12.4078-10.3955,23.2378-23.2178,23.2378c-12.8027,0-23.1983-10.83-23.1983-23.2378h-20.8906
		c0,12.4078-10.3956,23.2378-23.2178,23.2378c-12.8223,0-23.1982-10.83-23.1982-23.2378H830.938
		c0,12.4078-10.3955,23.2378-23.2178,23.2378c-12.8223,0-23.1982-10.83-23.1982-23.2378h-20.8907
		c0,12.4078-10.3955,23.2378-23.2177,23.2378c-12.8223,0-23.2188-10.83-23.2188-23.2378h-20.8896
		c0,12.4078-10.376,23.2378-23.1983,23.2378c-12.8222,0-23.2187-10.83-23.2187-23.2378h-20.8897
		c0,12.4078-10.3759,23.2378-23.1982,23.2378S582.5815,12.4078,582.5815,0h-20.8896c0,12.4078-10.3965,23.2378-23.1983,23.2378
		c-12.8222,0-23.2187-10.83-23.2187-23.2378h-20.8901c0,12.4078-10.396,23.2378-23.2183,23.2378
		c-12.8022,0-23.1982-10.83-23.1982-23.2378h-20.8902c0,12.4078-10.396,23.2378-23.2182,23.2378
		c-12.8023,0-23.1983-10.83-23.1983-23.2378h-20.8901c0,12.4078-10.396,23.2378-23.2183,23.2378
		c-12.8222,0-23.1982-10.83-23.1982-23.2378h-20.8902c0,12.4078-10.396,23.2378-23.2182,23.2378
		c-12.8223,0-23.2178-10.83-23.2178-23.2378h-20.8711c0,12.4078-10.3955,23.2378-23.2178,23.2378
		c-12.8222,0-23.2177-10.83-23.2177-23.2378h-20.8907c0,12.4078-10.3759,23.2378-23.1982,23.2378S111.4155,12.4078,111.4155,0
		H90.5249c0,12.4078-10.3955,23.2378-23.1982,23.2378c-12.8223,0-23.2178-10.83-23.2178-23.2378h-20.792
		c-0.0591,5.8394-2.5249,11.836-6.7861,16.1167c-4.3199,4.3204-10.3169,6.7461-16.4322,6.7461C0.0791,22.8628,0,22.8238,0,22.8238
		v20.5547c12.7632,0,23.1987,10.396,23.1987,23.2382c0,12.8218-10.4355,23.2178-23.1987,23.2178v20.9102
		c12.7632,0,23.1987,10.3955,23.1987,23.2177c0,12.8223-10.4355,23.2383-23.1987,23.2383v20.8897
		c12.7632,0,23.1987,10.416,23.1987,23.2383c0,12.8222-10.4355,23.2177-23.1987,23.2177v20.9102
		c12.7632,0,23.1987,10.3955,23.1987,23.2178c0,12.8422-10.4355,23.2382-23.1987,23.2382v20.9102
		c12.7632,0,23.1987,10.3955,23.1987,23.2178c0,12.8222-10.4355,23.2177-23.1987,23.2177v20.9102
		c12.7632,0,23.1987,10.396,23.1987,23.2378c0,12.8223-10.4355,23.2183-23.1987,23.2183v20.9101
		c12.7632,0,23.1987,10.3955,23.1987,23.2178c0,12.8222-10.4355,23.2378-23.1987,23.2378v20.8901
		c12.7632,0,23.1987,10.3965,23.1987,23.2383c0,12.8223-10.4355,23.2178-23.1987,23.2178v20.9101
		c12.7632,0,23.1987,10.3955,23.1987,23.2178c0,12.8223-10.4355,23.2383-23.1987,23.2383v20.8906
		c12.7632,0,23.1987,10.3955,23.1987,23.2373c0,12.8223-10.4355,23.2178-23.1987,23.2178v20.9101
		c12.7632,0,23.1987,10.3965,23.1987,23.2178c0,12.8428-10.4355,23.2383-23.1987,23.2383v20.8896
		c12.7632,0,23.1987,10.4161,23.1987,23.2383c0,12.8223-10.4355,23.2178-23.1987,23.2178v20.9102
		c12.7632,0,23.1987,10.3955,23.1987,23.2382c0,12.8213-10.4355,23.2178-23.1987,23.2178v20.9102
		c12.7632,0,23.1987,10.3955,23.1987,23.2177c0,12.8223-10.4355,23.2178-23.1987,23.2178v21.0088c0,0,0.0791,0,0.0986,0
		c6.1153,0,12.1123,2.6631,16.4322,7.0029c4.3007,4.3008,6.7666,10.6719,6.7861,16.5117h20.792
		c0-13.1386,10.3955-23.2188,23.2178-23.2188c12.8027,0,23.1982,10.0801,23.1982,23.2188h20.8906
		c0-13.1386,10.3955-23.2188,23.2178-23.2188s23.1982,10.0801,23.1982,23.2188h20.8907c0-13.1386,10.3955-23.2188,23.2177-23.2188
		c12.8223,0,23.2178,10.0801,23.2178,23.2188h20.8711c0-13.1386,10.3955-23.2188,23.2178-23.2188
		c12.8222,0,23.2182,10.0801,23.2182,23.2188h20.8902c0-13.1386,10.376-23.2188,23.1982-23.2188
		c12.8223,0,23.2183,10.0801,23.2183,23.2188h20.8901c0-13.1386,10.396-23.2188,23.1983-23.2188
		c12.8222,0,23.2182,10.0801,23.2182,23.2188h20.8902c0-13.1386,10.396-23.2188,23.1982-23.2188
		c12.8223,0,23.2183,10.0801,23.2183,23.2188h20.8901c0-13.1386,10.3965-23.2188,23.2187-23.2188
		c12.8018,0,23.1983,10.0801,23.1983,23.2188h20.8896c0-13.1386,10.3965-23.2188,23.2188-23.2188s23.1982,10.0801,23.1982,23.2188
		h20.8897c0-13.1386,10.3965-23.2188,23.2187-23.2188c12.8223,0,23.1983,10.0801,23.1983,23.2188h20.8896
		c0-13.1386,10.3965-23.2188,23.2188-23.2188c12.8222,0,23.2177,10.0801,23.2177,23.2188h20.8907
		c0-13.1386,10.3759-23.2188,23.1982-23.2188c12.8223,0,23.2178,10.0801,23.2178,23.2188h20.8906
		c0-13.1386,10.376-23.2188,23.1982-23.2188c12.8222,0,23.2178,10.0801,23.2178,23.2188h20.8906
		c0-13.1386,10.3956-23.2188,23.1983-23.2188c12.8223,0,23.2178,10.0801,23.2178,23.2188h20.6338
		c0.0195-5.8398,2.4863-12.2109,6.7861-16.5117c4.3203-4.3398,10.4746-6.9043,16.5898-6.9043c0.0791,0,0.4346-0.0986,0.4346-0.0781
		V966.064c-13.1387,0-23.2188-10.3955-23.2188-23.2178c0-12.8418,10.08-23.2373,23.2188-23.2373v-20.9101
		c-13.1387,0-23.2188-10.3965-23.2188-23.2188c0-12.8222,10.08-23.2373,23.2188-23.2373v-20.8906
		c-13.1387,0-23.2188-10.3954-23.2188-23.2372c0-12.8223,10.08-23.2188,23.2188-23.2188v-20.9102
		c-13.1387,0-23.2188-10.3955-23.2188-23.2178c0-12.8213,10.08-23.2373,23.2188-23.2373v-20.8906
		c-13.1387,0-23.2188-10.416-23.2188-23.2373c0-12.8223,10.08-23.2188,23.2188-23.2188v-20.9092
		c-13.1387,0-23.2188-10.3964-23.2188-23.2187c0-12.8419,10.08-23.2373,23.2188-23.2373v-20.9102
		c-13.1387,0-23.2188-10.3955-23.2188-23.2177c0-12.8223,10.08-23.2188,23.2188-23.2188v-20.9101
		c-13.1387,0-23.2188-10.3956-23.2188-23.2178c0-12.8418,10.08-23.2378,23.2188-23.2378v-20.9097
		c-13.1387,0-23.2188-10.3965-23.2188-23.2182c0-12.8423,10.08-23.2183,23.2188-23.2183v-20.9102
		c-13.1387,0-23.2188-10.3955-23.2188-23.2373c0-12.8222,10.08-23.2182,23.2188-23.2182v-20.9102
		c-13.1387,0-23.2188-10.396-23.2188-23.2182c0-12.8418,10.08-23.2374,23.2188-23.2374v-20.8906
		c-13.1387,0-23.2188-10.4155-23.2188-23.2378c0-12.8217,10.08-23.2182,23.2188-23.2182v-20.9097
		C996.8569,157.7725,986.7769,147.3765,986.7769,134.5542z"/>
	<g>
		<rect x="81.6675" y="81.2339" fill="#91D0D2" width="846.3447" height="846.9756"/>
		<path opacity="0.05" d="M920.1411,89.1246v831.1943H89.5386V89.1246H920.1411 M935.9028,73.3628H73.7768v862.7168h862.126V73.3628
			L935.9028,73.3628z"/>
	</g>
</g>
<g id="love-stamp-29-love-bird">
	<path fill="#9F5F5E" d="M241.4126,573.1324l-12.2305-61.9502l149.2705,65.6201l43.5752-35.9815
		c-9.6655-10.1787-18.5625-22.0537-26.1963-35.4287l74.2998-4.3003l29.2051-24.1352c-8.2656-5.0698-15.8408-11.5894-22.3603-19.5293
		c-31.9571-38.6543-26.522-95.9395,12.1816-127.8672c38.6641-31.9468,95.959-26.522,127.916,12.1816
		c0.71,0.8677,1.3418,1.7754,2.0313,2.6827l18.1885-35.9414l-1.4991,39.788l27.2325,14.9034l-32.6573,0.4043
		c12.1114,28.041,9.3301,60.5205-7.4669,85.9482c16.6787,52.4922,1.4307,112.0859-43.0331,149.7441l-17.5859,43.0235l7.5449,13.1767
		l-3.9746,2.2881l-5.4053-9.3896l-1.0058,0.9072l-0.5127,1.2627l-0.6026-0.2764l-8.1757,7.2198l-3.0284-3.5108l9.9815-8.8965
		l16.8662-41.2285c-7.1309,5.4248-14.6074,10.1191-22.3701,14.0059l-9.5176,23.2968l6.1846,10.8887l-4.0146,2.2686l-5.3262-9.4092
		l-10.3369,9.1328l-3.0674-3.4912l13.168-11.7178l7.584-18.4834c-56.1904,25.0723-124.3457,11.0469-165.416-38.7031
		c-0.5029-0.6123-0.9566-1.2236-1.4199-1.835l-70.1968,87.2696l-39.7588-52.8662l109.3931-35.0538
		c-0.2168-0.3359-0.4439-0.5918-0.6807-0.9082L241.4126,573.1324z"/>
	<path fill="#6C201F" d="M530.9185,370.8677c0.7685,1.5879,1.7548,3.1065,2.9091,4.5469
		c8.2266,9.8926,22.8731,11.313,32.7852,3.1167c9.9228-8.2066,11.3232-22.8433,3.1269-32.7656
		c-1.2031-1.4497-2.4853-2.6631-3.8857-3.7481c4.665,9.4487,2.416,21.2061-6.0762,28.2285
		C551.2954,377.2491,539.3413,377.229,530.9185,370.8677z"/>
	<path fill="#FEFEFB" d="M344.0889,764.2427c4.6753-0.0986,9.1826,0.3945,13.414,1.3613
		c1.6372-22.666,20.3281-40.7354,43.4575-41.0703c9.5079-0.1377,18.2666,2.8799,25.5362,7.8701
		c12.2202-6.4102,27.0644-10.1777,43.1318-9.9218c0.5518,0,1.0747,0.0586,1.6172,0.0791c0.1973-1.9336,0.5029-3.8662,0.8486-5.7403
		c6.3125-34.8769,37.0264-61.0537,73.6289-60.541c38.5459,0.5918,69.7129,30.6748,72.4258,68.4307
		c7.0714-1.5781,14.5869-2.3867,22.3604-2.2676c40.7636,0.5918,73.4013,26.0186,72.9277,56.7529
		c-0.0098,1.9727-0.1777,3.9248-0.4726,5.8389c-0.7598,4.9317-2.4073,9.6465-4.7442,14.0645H340.5181
		c-13.8672,0-27.1236-2.5645-39.4527-7.042C304.6948,776.5132,322.4687,764.5386,344.0889,764.2427z"/>
	<g>
		<path fill="#EC7175" d="M721.0317,288.7364c-4.0439,0-7.7129,1.5781-10.4443,4.1626c-2.7324-2.5943-6.4316-4.2022-10.4854-4.2022
			c-8.413,0-15.2382,6.8252-15.2382,15.229c0,5.356,2.7422,10.0405,6.914,12.7632l18.7598,15.4063h0.3252v-0.0396l20.3379-16.6885
			h-0.0586c3.1465-2.8012,5.1289-6.855,5.1289-11.3725C736.271,295.5718,729.4458,288.7364,721.0317,288.7364z"/>
		<path fill="#EC7175" d="M780.813,232.6538c0-11.9736-9.7051-21.6791-21.6885-21.6791c-5.7607,0-10.9688,2.2485-14.8643,5.9082
			c-3.8857-3.6988-9.1337-5.9869-14.9228-5.9869c-11.9844,0-21.6797,9.7246-21.6797,21.6792c0,7.6143,3.916,14.2818,9.834,18.168
			l26.6894,21.936h0.4932v-0.0595l28.8994-23.77h-0.039C777.9917,244.8648,780.813,239.1045,780.813,232.6538z"/>
	</g>
</g>
</svg>
